<?xml version="1.0" encoding="utf-8"?>
<!-- Generator: Adobe Illustrator 17.0.0, SVG Export Plug-In . SVG Version: 6.00 Build 0)  -->
<!DOCTYPE svg PUBLIC "-//W3C//DTD SVG 1.1//EN" "http://www.w3.org/Graphics/SVG/1.1/DTD/svg11.dtd">
<svg version="1.1" id="Layer_1" xmlns="http://www.w3.org/2000/svg" xmlns:xlink="http://www.w3.org/1999/xlink" x="0px" y="0px"
	 width="276.18px" height="323.076px" viewBox="0 0 276.18 323.076" enable-background="new 0 0 276.18 323.076"
	 xml:space="preserve">
<polyline fill="#D4AB4C" points="4.998,288.787 24.486,306.506 24.486,52.864 4.998,35.145 4.998,288.787 "/>
<polyline fill="#FFDA86" points="24.486,306.506 271.182,306.506 271.182,52.864 24.486,52.864 24.486,306.506 "/>
<polyline fill="#9C7E37" points="271.182,52.864 24.486,52.864 4.998,35.145 251.125,35.145 271.182,52.864 "/>
<polyline fill="#9C7E37" points="253.953,40.208 68.991,40.208 46.249,21.01 226.609,21.01 253.953,40.208 "/>
<polyline fill="#D4AB4C" points="46.249,44.004 68.991,64.873 68.991,40.208 46.249,21.01 46.249,44.004 "/>
<polyline fill="#D4AB4C" points="56.982,305.362 68.991,316.632 68.991,62.374 56.982,52.775 56.982,305.362 "/>
<polyline fill="#FFD476" points="68.991,316.632 253.129,316.632 253.129,40.208 68.991,40.208 68.991,316.632 "/>
<polyline fill="#E8BB54" points="105.137,322.732 224.192,322.732 224.192,30.609 164.664,15.249 105.137,30.609 105.137,322.732 
	"/>
<polyline fill="#FFCE5D" points="112.253,322.732 216.737,322.732 216.737,36.082 164.495,21.01 112.253,36.082 112.253,322.732 "/>
<path fill="#DCB24F" d="M138.294,271.113h52.74V74.89c0,0-10.416-9.907-26.37-9.907c-15.954,0-26.37,9.907-26.37,9.907V271.113"/>
<path fill="#D2AA4C" d="M141.734,267.724h45.86V77.953c0,0-9.057-9.581-22.93-9.581s-22.93,9.581-22.93,9.581V267.724"/>
<polygon fill="#81672D" points="164.667,15.249 105.134,30.607 87.296,15.358 146.822,0 "/>
<polygon fill="#9C7E37" points="206.347,15.358 224.192,30.609 164.667,15.249 146.822,0 "/>
<polyline fill="#D4AB4C" points="99.189,316.632 105.137,322.732 105.137,30.609 99.189,25.546 99.189,316.632 "/>
<polygon fill="#D4AB4C" points="87.293,30.082 99.189,40.208 99.189,25.546 87.293,15.419 "/>
<polyline fill="#E9A654" points="205.385,322.732 124.395,322.732 124.395,271.113 205.385,271.113 205.385,322.732 "/>
<polyline fill="#A9793D" points="174.718,303.401 156.418,303.401 156.418,278.5 174.718,278.5 174.718,303.401 "/>
<polyline fill="#929497" points="176.92,307.805 158.621,307.805 156.418,305.998 156.418,303.401 176.92,307.805 "/>
<rect x="158.621" y="305.207" fill="#D1D2D3" width="18.299" height="2.598"/>
<polyline fill="#B9B9BA" points="176.92,305.207 158.621,305.207 156.418,303.401 174.718,303.401 176.92,305.207 "/>
<polyline fill="#D3974D" points="150.996,322.732 129.072,322.732 129.072,278.5 150.996,278.5 150.996,322.732 "/>
<polyline fill="#D3974D" points="201.149,322.732 179.225,322.732 179.225,278.5 201.149,278.5 201.149,322.732 "/>
<polyline fill="#E9A654" points="242.526,296.923 229.649,296.923 229.649,276.443 242.526,276.443 242.526,296.923 "/>
<polyline fill="#929497" points="109.348,268.905 120.478,278.38 120.478,264.661 109.348,255.186 109.348,268.905 "/>
<polyline fill="#D1D2D3" points="231.368,278.38 120.478,278.38 120.478,264.661 231.368,264.661 231.368,278.38 "/>
<polyline fill="#B9B9BA" points="231.876,264.661 120.478,264.661 109.348,255.186 220.746,255.186 231.876,264.661 "/>
<polyline fill="#B9B9BA" points="226.648,268.595 126.38,268.595 126.38,267.189 226.648,267.189 226.648,268.595 "/>
<polyline fill="#B9B9BA" points="226.648,272.224 126.38,272.224 126.38,270.818 226.648,270.818 226.648,272.224 "/>
<polyline fill="#B9B9BA" points="226.648,275.712 126.38,275.712 126.38,274.305 226.648,274.305 226.648,275.712 "/>
<polyline fill="#E9A654" points="91.356,296.923 78.479,296.923 78.479,276.443 91.356,276.443 91.356,296.923 "/>
<polyline fill="#E8B372" points="89.322,294.866 80.512,294.866 80.512,278.5 89.322,278.5 89.322,294.866 "/>
<polyline fill="#E9A654" points="47.642,290.025 34.765,290.025 34.765,269.545 47.642,269.545 47.642,290.025 "/>
<polyline fill="#E9A654" points="267.361,290.025 254.484,290.025 254.484,269.545 267.361,269.545 267.361,290.025 "/>
<polyline fill="#E8B372" points="45.609,287.968 36.798,287.968 36.798,271.602 45.609,271.602 45.609,287.968 "/>
<polyline fill="#E8B372" points="240.493,294.866 231.682,294.866 231.682,278.5 240.493,278.5 240.493,294.866 "/>
<polyline fill="#E8B372" points="265.328,287.968 256.518,287.968 256.518,271.602 265.328,271.602 265.328,287.968 "/>
<polyline fill="#B78F5F" points="156.418,282.955 156.418,303.401 172.515,303.401 156.418,282.955 "/>
<polyline fill="#FEFEFF" points="151.003,322.732 129.191,322.732 129.191,323.076 151.274,323.076 151.003,322.732 "/>
<polyline fill="#FEFEFF" points="200.958,322.732 179.146,322.732 179.146,323.076 201.229,323.076 200.958,322.732 "/>
<polyline fill="#EDB676" points="179.146,295.027 179.146,322.732 200.958,322.732 179.225,322.732 179.225,295.127 
	179.146,295.027 "/>
<polyline fill="#DBA96F" points="179.225,295.127 179.225,322.732 200.958,322.732 179.225,295.127 "/>
<circle fill="#8B6333" cx="165.568" cy="298.713" r="2.203"/>
<circle fill="#A9793D" cx="165.568" cy="298.713" r="1.507"/>
<path fill="#929497" d="M148.958,305.603c0,0.281-0.228,0.509-0.509,0.509h-16.83c-0.281,0-0.509-0.228-0.509-0.509
	c0-0.281,0.228-0.509,0.509-0.509h16.83C148.73,305.094,148.958,305.322,148.958,305.603"/>
<path fill="#929497" d="M199.111,305.603c0,0.281-0.228,0.509-0.509,0.509h-16.83c-0.281,0-0.509-0.228-0.509-0.509
	s0.228-0.509,0.509-0.509h16.83C198.883,305.094,199.111,305.322,199.111,305.603z"/>
<path fill="#929497" d="M148.958,307.805c0,0.281-0.228,0.509-0.509,0.509h-16.83c-0.281,0-0.509-0.228-0.509-0.509
	c0-0.281,0.228-0.509,0.509-0.509h16.83C148.73,307.296,148.958,307.524,148.958,307.805"/>
<path fill="#929497" d="M199.111,307.805c0,0.281-0.228,0.509-0.509,0.509h-16.83c-0.281,0-0.509-0.228-0.509-0.509
	c0-0.281,0.228-0.509,0.509-0.509h16.83C198.883,307.296,199.111,307.524,199.111,307.805z"/>
<polyline fill="#E8B372" points="99.189,52.775 68.991,52.775 68.991,46.086 99.189,46.086 99.189,52.775 "/>
<polyline fill="#CF9E65" points="68.877,52.775 46.249,33.951 46.249,27.262 68.877,46.086 68.877,52.775 "/>
<polyline fill="#CF9E65" points="24.486,64.983 4.998,48.458 4.998,41.769 24.486,58.294 24.486,64.983 "/>
<rect x="224.192" y="46.086" fill="#E8B372" width="28.937" height="6.689"/>
<polyline fill="#E8B372" points="56.982,64.983 24.486,64.983 24.486,58.294 56.982,58.294 56.982,64.983 "/>
<polyline fill="#E8B372" points="271.182,64.983 253.129,64.983 253.129,58.294 271.182,58.294 271.182,64.983 "/>
<polyline fill="#D4AB4C" points="39.114,224.557 35.916,224.557 35.916,208.291 39.114,208.291 39.114,224.557 "/>
<polyline fill="#D4AB4C" points="45.552,224.557 42.354,224.557 42.354,208.291 45.552,208.291 45.552,224.557 "/>
<polyline fill="#D4AB4C" points="83.297,219.813 80.099,219.813 80.099,203.547 83.297,203.547 83.297,219.813 "/>
<polyline fill="#D4AB4C" points="89.735,219.813 86.537,219.813 86.537,203.547 89.735,203.547 89.735,219.813 "/>
<polyline fill="#D4AB4C" points="260.535,227.946 257.337,227.946 257.337,211.68 260.535,211.68 260.535,227.946 "/>
<polyline fill="#D4AB4C" points="266.974,227.946 263.776,227.946 263.776,211.68 266.974,211.68 266.974,227.946 "/>
<polyline fill="#D4AB4C" points="237.04,219.813 233.842,219.813 233.842,203.547 237.04,203.547 237.04,219.813 "/>
<polyline fill="#D4AB4C" points="243.479,219.813 240.281,219.813 240.281,203.547 243.479,203.547 243.479,219.813 "/>
<g>
	<defs>
		<polyline id="SVGID_1_" points="86.537,208.291 86.537,219.813 89.735,219.813 86.537,208.291 		"/>
	</defs>
	<clipPath id="SVGID_2_">
		<use xlink:href="#SVGID_1_"  overflow="visible"/>
	</clipPath>
	<rect x="86.537" y="208.291" clip-path="url(#SVGID_2_)" fill="#DBBA72" width="3.198" height="11.522"/>
</g>
<polyline fill="#DBBA72" points="82.106,215.521 82.43,219.813 83.297,219.813 82.106,215.521 "/>
<polyline fill="#D4AB4C" points="83.297,110.923 80.099,110.923 80.099,94.657 83.297,94.657 83.297,110.923 "/>
<polyline fill="#D4AB4C" points="89.735,110.923 86.537,110.923 86.537,94.657 89.735,94.657 89.735,110.923 "/>
<polyline fill="#DBBA72" points="86.537,99.402 86.537,110.923 89.735,110.923 86.537,99.402 "/>
<polyline fill="#DBBA72" points="80.099,99.402 80.099,110.923 83.297,110.923 80.099,99.402 "/>
<polyline fill="#D4AB4C" points="237.04,110.923 233.842,110.923 233.842,94.657 237.04,94.657 237.04,110.923 "/>
<polyline fill="#D4AB4C" points="243.479,110.923 240.281,110.923 240.281,94.657 243.479,94.657 243.479,110.923 "/>
<polyline fill="#DBBA72" points="240.281,99.402 240.281,110.923 243.479,110.923 240.281,99.402 "/>
<polyline fill="#DBBA72" points="233.842,99.402 233.842,110.923 237.04,110.923 233.842,99.402 "/>
<polyline fill="#D4AB4C" points="260.753,120.186 257.555,120.186 257.555,103.92 260.753,103.92 260.753,120.186 "/>
<polyline fill="#D4AB4C" points="267.192,120.186 263.994,120.186 263.994,103.92 267.192,103.92 267.192,120.186 "/>
<polyline fill="#DBBA72" points="263.994,108.664 263.994,120.186 267.192,120.186 263.994,108.664 "/>
<polyline fill="#DBBA72" points="257.555,108.664 257.555,120.186 260.753,120.186 257.555,108.664 "/>
<polyline fill="#D4AB4C" points="39.583,120.186 36.385,120.186 36.385,103.92 39.583,103.92 39.583,120.186 "/>
<polyline fill="#D4AB4C" points="46.022,120.186 42.824,120.186 42.824,103.92 46.022,103.92 46.022,120.186 "/>
<polyline fill="#DBBA72" points="42.824,108.664 42.824,120.186 46.022,120.186 42.824,108.664 "/>
<polyline fill="#DBBA72" points="36.385,108.664 36.385,120.186 39.583,120.186 36.385,108.664 "/>
<polyline fill="#DBBA72" points="42.354,213.036 42.354,224.557 45.552,224.557 42.354,213.036 "/>
<polyline fill="#DBBA72" points="38.268,221.509 38.517,224.557 39.114,224.557 38.268,221.509 "/>
<polyline fill="#DBBA72" points="260.495,227.802 260.501,227.946 260.535,227.946 260.495,227.802 "/>
<polyline fill="#FFE09E" points="263.729,216.424 263.729,227.946 263.776,227.946 263.776,216.592 263.729,216.424 "/>
<polyline fill="#DBBA72" points="263.776,216.592 263.776,227.946 266.927,227.946 263.776,216.592 "/>
<polyline fill="#DBBA72" points="240.281,208.291 240.281,219.813 243.479,219.813 240.281,208.291 "/>
<polyline fill="#DBBA72" points="233.842,208.291 233.842,219.813 237.04,219.813 233.842,208.291 "/>
<rect x="173.111" y="85.056" fill="#D14D4B" width="8.152" height="176.562"/>
<polygon fill="#BC4444" points="173.111,261.618 158.621,256.329 158.621,79.767 173.111,85.056 "/>
<polygon fill="#B14140" points="181.264,85.056 168.618,79.767 159.294,79.767 173.111,85.056 "/>
<polyline fill="#D5AC52" points="105.137,30.609 105.137,30.609 105.137,322.732 112.253,322.732 112.253,271.378 109.348,268.905 
	109.348,255.186 112.253,257.659 109.348,255.186 112.253,255.186 112.253,79.106 105.137,30.609 "/>
<path fill="#E8BD5B" d="M112.253,257.659L112.253,257.659l8.225,7.002v13.719l-8.225-7.002v51.354h12.142V278.38h-3.917v-13.719
	h17.816h-17.816L112.253,257.659 M112.253,79.106v176.08h25.837L112.253,79.106"/>
<path fill="#D69951" d="M150.996,301.624v21.1l0.006,0.008h10L150.996,301.624 M179.298,278.38h-54.903v44.352h4.677V278.5h21.924
	v0.453l5.422,0.224V278.5h18.299v1.432l4.507,0.186V278.5h0.202L179.298,278.38"/>
<polyline fill="#9E733D" points="174.718,278.5 156.418,278.5 156.418,279.176 174.718,279.932 174.718,278.5 "/>
<path fill="#C48D4B" d="M150.996,278.5h-21.924v44.232h0.119v-27.705l7.926,10.067h11.333c0.281,0,0.509,0.228,0.509,0.509
	c0,0.281-0.228,0.509-0.509,0.509h-10.532l0.933,1.185h9.599c0.281,0,0.509,0.228,0.509,0.509c0,0.281-0.228,0.509-0.509,0.509
	h-8.798l11.345,14.411v-21.1L140.034,278.5l10.962,0.453V278.5"/>
<polyline fill="#C48D4B" points="179.427,278.5 179.225,278.5 179.225,280.118 181.264,280.202 179.427,278.5 "/>
<polyline fill="#8A8B8E" points="109.348,255.186 109.348,268.905 112.253,271.378 120.478,278.38 120.478,264.661 112.253,257.659 
	109.348,255.186 "/>
<polyline fill="#C1C2C2" points="164.495,264.661 138.294,264.661 120.478,264.661 120.478,278.38 124.395,278.38 179.298,278.38 
	176.419,275.712 126.38,275.712 126.38,274.305 174.901,274.305 172.655,272.224 126.38,272.224 126.38,270.818 171.138,270.818 
	168.74,268.595 126.38,268.595 126.38,267.189 167.222,267.189 164.495,264.661 "/>
<polyline fill="#ABABAC" points="138.09,255.186 112.253,255.186 109.348,255.186 112.253,257.659 120.478,264.661 138.294,264.661 
	164.495,264.661 138.09,255.186 "/>
<polyline fill="#ABABAC" points="167.222,267.189 126.38,267.189 126.38,268.595 168.74,268.595 167.222,267.189 "/>
<polyline fill="#ABABAC" points="171.138,270.818 126.38,270.818 126.38,272.224 172.655,272.224 171.138,270.818 "/>
<polyline fill="#ABABAC" points="174.901,274.305 126.38,274.305 126.38,275.712 176.419,275.712 174.901,274.305 "/>
<polyline fill="#DAA86F" points="150.996,322.724 150.996,322.732 151.003,322.732 150.996,322.724 "/>
<path fill="#CB9E6A" d="M129.191,295.027v27.705h21.806v-0.008l-11.345-14.411h-8.032c-0.281,0-0.509-0.228-0.509-0.509
	c0-0.281,0.228-0.509,0.509-0.509h7.23l-0.933-1.185h-6.298c-0.281,0-0.509-0.228-0.509-0.509c0-0.281,0.228-0.509,0.509-0.509
	h5.497L129.191,295.027"/>
<path fill="#8A8B8E" d="M148.449,305.094h-11.333h-5.497c-0.281,0-0.509,0.228-0.509,0.509c0,0.281,0.228,0.509,0.509,0.509h6.298
	h10.532c0.281,0,0.509-0.228,0.509-0.509C148.958,305.322,148.73,305.094,148.449,305.094"/>
<path fill="#8A8B8E" d="M148.449,307.296h-9.599h-7.23c-0.281,0-0.509,0.228-0.509,0.509c0,0.281,0.228,0.509,0.509,0.509h8.032
	h8.798c0.281,0,0.509-0.228,0.509-0.509C148.958,307.524,148.73,307.296,148.449,307.296"/>
<polyline fill="#E6E5E4" points="68.877,316.526 68.877,316.632 68.991,316.632 68.877,316.526 "/>
<polyline fill="#C59F4A" points="68.877,40.208 68.877,62.284 68.991,62.374 68.991,41.708 68.877,40.208 "/>
<polyline fill="#C59F4A" points="68.877,62.284 68.877,316.526 68.991,316.632 68.991,62.374 68.877,62.284 "/>
<polyline fill="#E7C171" points="68.991,41.708 68.991,316.632 89.735,316.632 88.248,296.923 78.479,296.923 78.479,276.443 
	86.703,276.443 82.43,219.813 80.099,219.813 80.099,203.547 81.202,203.547 69.826,52.775 68.991,52.775 68.991,46.086 
	69.321,46.086 68.991,41.708 "/>
<polyline fill="#D69951" points="86.703,276.443 78.479,276.443 78.479,296.923 88.248,296.923 88.093,294.866 80.512,294.866 
	80.512,278.5 86.858,278.5 86.703,276.443 "/>
<polyline fill="#D5A56C" points="86.858,278.5 80.512,278.5 80.512,294.866 88.093,294.866 86.858,278.5 "/>
<polyline fill="#D5A56C" points="69.321,46.086 68.991,46.086 68.991,52.775 69.826,52.775 69.321,46.086 "/>
<polyline fill="#C59F4A" points="81.202,203.547 80.099,203.547 80.099,219.813 82.43,219.813 80.099,219.813 80.099,208.291 
	82.106,215.521 81.202,203.547 "/>
<polyline fill="#CAAC6C" points="80.099,208.291 80.099,219.813 82.43,219.813 82.106,215.521 80.099,208.291 "/>
<path fill="#C59F4A" d="M24.478,64.977L24.336,306.26h0.15V64.983L24.478,64.977 M24.486,52.864l-0.003,5.427l0.003,0.003V52.864"/>
<polyline fill="#E7C77E" points="24.486,52.864 24.486,52.864 24.486,58.294 24.486,64.983 24.486,306.26 45.194,306.26 
	43.867,290.025 34.765,290.025 34.765,269.545 42.193,269.545 38.517,224.557 35.916,224.557 35.916,208.291 37.188,208.291 
	25.476,64.983 24.486,64.983 24.486,58.294 24.929,58.294 24.486,52.864 "/>
<polyline fill="#D69951" points="42.193,269.545 34.765,269.545 34.765,290.025 43.867,290.025 43.699,287.968 36.798,287.968 
	36.798,271.602 42.361,271.602 42.193,269.545 "/>
<polyline fill="#D5A56C" points="42.361,271.602 36.798,271.602 36.798,287.968 43.699,287.968 42.361,271.602 "/>
<polyline fill="#C09361" points="24.482,58.291 24.478,64.977 24.486,64.983 24.486,58.294 24.482,58.291 "/>
<polyline fill="#D5A56C" points="24.929,58.294 24.486,58.294 24.486,64.983 25.476,64.983 24.929,58.294 "/>
<polyline fill="#C59F4A" points="37.188,208.291 35.916,208.291 35.916,224.557 38.517,224.557 35.916,224.557 35.916,213.036 
	38.268,221.509 37.188,208.291 "/>
<polyline fill="#CAAC6C" points="35.916,213.036 35.916,224.557 38.517,224.557 38.268,221.509 35.916,213.036 "/>
<path fill="#E7C77E" d="M253.794,64.983H253.3v241.4h10.429l-0.673-16.358h-8.572v-20.479h7.729l-1.712-41.6h-3.163h0v-11.522
	l0,0.001v-4.745h2.494L253.794,64.983 M253.3,52.986v5.307h0.218L253.3,52.986"/>
<polyline fill="#D69951" points="262.213,269.545 254.484,269.545 254.484,290.025 263.056,290.025 262.971,287.968 
	256.518,287.968 256.518,271.602 262.298,271.602 262.213,269.545 "/>
<polyline fill="#D5A56C" points="262.298,271.602 256.518,271.602 256.518,287.968 262.971,287.968 262.298,271.602 "/>
<polyline fill="#D5A56C" points="253.519,58.294 253.3,58.294 253.3,64.983 253.794,64.983 253.519,58.294 "/>
<polyline fill="#C59F4A" points="259.831,211.68 257.337,211.68 257.337,216.425 260.495,227.802 259.831,211.68 "/>
<polyline fill="#E7CD93" points="257.337,216.424 257.337,227.946 257.337,227.946 257.337,216.425 257.337,216.424 "/>
<polyline fill="#CAAC6C" points="257.337,216.425 257.337,227.946 260.501,227.946 260.495,227.802 257.337,216.425 "/>
<path fill="#EFC873" d="M229.649,278.38h-5.457v38.252h10.429l-0.811-19.71h-4.161V278.38 M224.192,63.236V258.12l7.684,6.541
	h-7.684h7.176v11.782h1.599L224.192,63.236"/>
<polyline fill="#DD9E52" points="232.967,276.443 231.368,276.443 231.368,278.38 229.649,278.38 229.649,296.923 233.81,296.923 
	233.725,294.866 231.682,294.866 231.682,278.5 233.052,278.5 232.967,276.443 "/>
<polyline fill="#C6C7C9" points="231.368,264.661 224.192,264.661 224.192,267.189 226.648,267.189 226.648,268.595 
	224.192,268.595 224.192,270.818 226.648,270.818 226.648,272.224 224.192,272.224 224.192,274.305 226.648,274.305 
	226.648,275.712 224.192,275.712 224.192,278.38 229.649,278.38 231.368,278.38 231.368,276.443 231.368,264.661 "/>
<polyline fill="#AFB0B1" points="224.192,258.12 224.192,264.661 231.876,264.661 224.192,258.12 "/>
<polyline fill="#AFB0B1" points="226.648,267.189 224.192,267.189 224.192,268.595 226.648,268.595 226.648,267.189 "/>
<polyline fill="#AFB0B1" points="226.648,270.818 224.192,270.818 224.192,272.224 226.648,272.224 226.648,270.818 "/>
<polyline fill="#AFB0B1" points="226.648,274.305 224.192,274.305 224.192,275.712 226.648,275.712 226.648,274.305 "/>
<polyline fill="#DCAA6F" points="233.052,278.5 231.682,278.5 231.682,294.866 233.725,294.866 233.052,278.5 "/>
<path fill="#C59F4A" d="M4.998,48.458v240.329l19.338,17.473L6.009,49.315L4.998,48.458 M4.998,35.145v6.624l0.503,0.426
	L4.998,35.145"/>
<polyline fill="#C09361" points="4.998,41.769 4.998,48.458 6.009,49.315 5.501,42.195 4.998,41.769 "/>
</svg>
