<?xml version="1.0" encoding="utf-8"?>
<!-- Generator: Adobe Illustrator 17.0.0, SVG Export Plug-In . SVG Version: 6.00 Build 0)  -->
<!DOCTYPE svg PUBLIC "-//W3C//DTD SVG 1.1//EN" "http://www.w3.org/Graphics/SVG/1.1/DTD/svg11.dtd">
<svg version="1.1" id="Layer_1" xmlns="http://www.w3.org/2000/svg" xmlns:xlink="http://www.w3.org/1999/xlink" x="0px" y="0px"
	 width="383.09px" height="171.611px" viewBox="0 0 383.09 171.611" enable-background="new 0 0 383.09 171.611"
	 xml:space="preserve">
<polygon fill="#96B2BD" points="5.002,154.161 16.032,163.76 16.032,9.599 5.002,0 "/>
<polyline fill="#B3D1E3" points="16.032,163.76 361.673,163.76 361.673,9.599 16.032,9.599 16.032,163.76 "/>
<path fill="#A3BCCA" d="M249.446,123.801v16.997h22.771v-8.889L249.446,123.801 M16.032,9.599L16.032,9.599V163.76h15.928H16.032
	v-22.963h15.928V76.99l94.272,11.114v52.694h28.943V86.242L99.491,55.57H71.79V40.312L50.014,28.318V55.57H22.297V18.977h10.759
	L16.032,9.599"/>
<polyline fill="#A1BCCD" points="16.032,163.76 361.673,163.76 361.673,140.798 16.032,140.798 16.032,163.76 "/>
<polygon fill="#968A96" points="21.381,162.828 31.959,171.611 44.01,86.589 21.381,67.391 "/>
<polyline fill="#BDABBC" points="31.959,171.61 126.231,171.61 126.231,88.104 31.959,76.99 31.959,171.61 "/>
<rect x="31.959" y="163.761" fill="#A898A8" width="94.272" height="7.85"/>
<rect x="31.959" y="169.432" fill="#968897" width="94.272" height="2.178"/>
<rect x="39.206" y="99.964" fill="#A898A8" width="79.778" height="15.463"/>
<polygon fill="#8198A5" points="361.673,9.599 16.032,9.599 5.002,0 350.074,0 "/>
<polygon fill="#7E727E" points="137.83,95.559 44.01,95.559 21.381,67.391 114.632,67.391 "/>
<polygon fill="#967376" points="144.596,162.828 155.174,171.611 167.225,86.589 144.596,67.391 "/>
<polyline fill="#BE8D90" points="155.174,171.61 249.446,171.61 249.446,89.883 155.174,76.99 155.174,171.61 "/>
<rect x="155.174" y="163.761" fill="#AD8285" width="94.272" height="7.85"/>
<rect x="155.174" y="169.432" fill="#956F71" width="94.272" height="2.178"/>
<polygon fill="#7E6062" points="261.045,95.559 167.225,95.559 144.596,67.391 237.848,67.391 "/>
<polygon fill="#899691" points="261.639,162.828 272.217,171.611 284.267,86.589 261.639,67.391 "/>
<polyline fill="#AABDB7" points="272.217,171.61 366.489,171.61 366.489,85.393 272.217,76.99 272.217,171.61 "/>
<rect x="272.217" y="163.761" fill="#9DAEA9" width="94.272" height="7.85"/>
<rect x="272.217" y="169.432" fill="#8F9E9A" width="94.272" height="2.178"/>
<polygon fill="#727E7A" points="378.088,95.559 284.267,95.559 261.639,67.391 354.89,67.391 "/>
<polygon fill="#968A96" points="31.959,85.222 44.01,95.559 31.959,80.413 "/>
<polygon fill="#967376" points="155.174,85.222 167.225,95.559 155.058,80.413 "/>
<polygon fill="#899691" points="272.217,85.222 284.267,95.559 272.217,80.413 "/>
<rect x="37.984" y="122.412" fill="#3C3C35" width="24.06" height="49.199"/>
<rect x="161.199" y="122.412" fill="#3C3C35" width="24.06" height="49.199"/>
<rect x="277.564" y="122.412" fill="#3C3C35" width="24.06" height="49.199"/>
<polyline fill="#AED1D4" points="118.984,153.154 73.007,153.154 73.007,122.065 118.984,122.065 118.984,153.154 "/>
<polyline fill="#C7DDDF" points="73.007,137.61 73.007,153.154 118.984,153.154 73.007,137.61 "/>
<polyline fill="#96B2BD" points="50.014,55.57 22.297,55.57 22.297,18.977 50.014,18.977 50.014,55.57 "/>
<polyline fill="#AED1D4" points="47.65,52.818 24.661,52.818 24.661,21.729 47.65,21.729 47.65,52.818 "/>
<polyline fill="#C7DDDF" points="24.661,37.274 24.661,52.818 47.65,52.818 24.661,37.274 "/>
<polyline fill="#96B2BD" points="99.507,55.57 71.79,55.57 71.79,18.977 99.507,18.977 99.507,55.57 "/>
<polyline fill="#AED1D4" points="97.143,52.818 74.154,52.818 74.154,21.729 97.143,21.729 97.143,52.818 "/>
<polyline fill="#C7DDDF" points="74.154,37.274 74.154,52.818 97.143,52.818 74.154,37.274 "/>
<polyline fill="#96B2BD" points="151.533,55.57 123.816,55.57 123.816,18.977 151.533,18.977 151.533,55.57 "/>
<polyline fill="#AED1D4" points="149.169,52.818 126.181,52.818 126.181,21.729 149.169,21.729 149.169,52.818 "/>
<polyline fill="#C7DDDF" points="126.181,37.274 126.181,52.818 149.169,52.818 126.181,37.274 "/>
<polyline fill="#96B2BD" points="201.027,55.57 173.309,55.57 173.309,18.977 201.027,18.977 201.027,55.57 "/>
<polyline fill="#AED1D4" points="198.662,52.818 175.673,52.818 175.673,21.729 198.662,21.729 198.662,52.818 "/>
<polyline fill="#C7DDDF" points="175.673,37.274 175.673,52.818 198.662,52.818 175.673,37.274 "/>
<polyline fill="#96B2BD" points="252.131,55.57 224.414,55.57 224.414,18.977 252.131,18.977 252.131,55.57 "/>
<polyline fill="#AED1D4" points="249.767,52.818 226.778,52.818 226.778,21.729 249.767,21.729 249.767,52.818 "/>
<polyline fill="#C7DDDF" points="226.778,37.274 226.778,52.818 249.767,52.818 226.778,37.274 "/>
<polyline fill="#96B2BD" points="301.624,55.57 273.907,55.57 273.907,18.977 301.624,18.977 301.624,55.57 "/>
<polyline fill="#AED1D4" points="299.26,52.818 276.271,52.818 276.271,21.729 299.26,21.729 299.26,52.818 "/>
<polyline fill="#C7DDDF" points="276.271,37.274 276.271,52.818 299.26,52.818 276.271,37.274 "/>
<polyline fill="#96B2BD" points="352.454,55.57 324.737,55.57 324.737,18.977 352.454,18.977 352.454,55.57 "/>
<polyline fill="#AED1D4" points="350.09,52.818 327.101,52.818 327.101,21.729 350.09,21.729 350.09,52.818 "/>
<polyline fill="#C7DDDF" points="327.101,37.274 327.101,52.818 350.09,52.818 327.101,37.274 "/>
<polyline fill="#AED1D4" points="240.977,153.154 194.999,153.154 194.999,122.065 240.977,122.065 240.977,153.154 "/>
<polyline fill="#C7DDDF" points="194.999,137.61 194.999,153.154 240.977,153.154 194.999,137.61 "/>
<polyline fill="#AED1D4" points="356.87,153.154 310.892,153.154 310.892,122.065 356.87,122.065 356.87,153.154 "/>
<polyline fill="#C7DDDF" points="310.892,137.61 310.892,153.154 356.87,153.154 310.892,137.61 "/>
<rect x="162.421" y="99.964" fill="#AD8285" width="79.778" height="15.463"/>
<rect x="279.464" y="99.964" fill="#9DAEA9" width="79.778" height="15.463"/>
<polygon fill="#AEAEAE" points="56.023,92.545 59.299,95.325 59.299,80.815 56.023,78.035 "/>
<rect x="59.299" y="80.815" fill="#D3D4D4" width="52.699" height="14.51"/>
<polygon fill="#959594" points="111.998,80.815 59.299,80.815 56.023,78.035 108.639,78.035 "/>
<polygon fill="#AEAEAE" points="181.404,92.545 184.681,95.325 184.681,80.815 181.404,78.035 "/>
<rect x="184.681" y="80.815" fill="#D3D4D4" width="52.699" height="14.51"/>
<polygon fill="#959594" points="237.379,80.815 184.681,80.815 181.404,78.035 234.02,78.035 "/>
<polygon fill="#AEAEAE" points="298.236,92.545 301.512,95.325 301.512,80.815 298.236,78.035 "/>
<rect x="301.512" y="80.815" fill="#D3D4D4" width="52.699" height="14.51"/>
<polygon fill="#959594" points="354.211,80.815 301.512,80.815 298.236,78.035 350.852,78.035 "/>
<circle fill="#7E9676" cx="57.661" cy="149.608" r="1.638"/>
<circle fill="#7E9676" cx="181.404" cy="149.608" r="1.638"/>
<circle fill="#7E9676" cx="297.529" cy="149.608" r="1.638"/>
</svg>
