<?xml version="1.0" encoding="utf-8"?>
<!-- Generator: Adobe Illustrator 17.0.0, SVG Export Plug-In . SVG Version: 6.00 Build 0)  -->
<!DOCTYPE svg PUBLIC "-//W3C//DTD SVG 1.1//EN" "http://www.w3.org/Graphics/SVG/1.1/DTD/svg11.dtd">
<svg version="1.1" id="Layer_1" xmlns="http://www.w3.org/2000/svg" xmlns:xlink="http://www.w3.org/1999/xlink" x="0px" y="0px"
	 width="225.79px" height="219.589px" viewBox="0 0 225.79 219.589" enable-background="new 0 0 225.79 219.589"
	 xml:space="preserve">
<polyline fill="#B8B464" points="4.999,139.426 198.247,139.426 198.247,132.649 4.999,132.649 4.999,139.426 "/>
<polygon fill="#B8B464" points="198.247,140.221 220.791,159.419 220.791,152.642 198.247,133.443 "/>
<rect x="4.999" y="4.796" fill="#B8B464" width="193.248" height="6.777"/>
<polygon fill="#B8B464" points="198.247,12.369 220.791,31.567 220.791,24.79 198.247,5.591 "/>
<polygon fill="#975954" points="9.413,200.391 32.041,219.589 32.041,19.198 9.413,0 "/>
<polyline fill="#BE6F68" points="32.042,219.589 216.293,219.589 216.293,19.198 32.042,19.198 32.042,219.589 "/>
<polyline fill="#CFCA71" points="27.543,31.567 220.791,31.567 220.791,24.789 27.543,24.789 27.543,31.567 "/>
<polygon fill="#B8B464" points="4.999,12.369 27.543,31.567 27.543,24.79 4.999,4.796 "/>
<polygon fill="#A8A55A" points="4.999,4.796 27.543,24.79 32.041,24.79 9.413,4.796 "/>
<polyline fill="#CFCA71" points="27.543,159.419 220.791,159.419 220.791,152.642 27.543,152.642 27.543,159.419 "/>
<polyline fill="#975954" points="27.543,162.088 216.293,162.088 216.293,159.419 27.543,159.419 27.543,162.088 "/>
<rect x="27.543" y="31.567" fill="#975954" width="188.75" height="2.669"/>
<polygon fill="#B8B464" points="4.999,140.221 27.543,159.419 27.543,152.642 4.999,132.649 "/>
<polygon fill="#A8A55A" points="4.999,132.649 27.543,152.642 32.041,152.642 9.413,132.649 "/>
<polygon fill="#7E4B46" points="216.293,19.198 32.041,19.198 9.413,0 193.095,0 "/>
<polyline fill="#CFCA71" points="139.463,167.34 110.659,167.34 110.659,219.589 139.463,219.589 139.463,167.34 "/>
<rect x="178.433" y="167.34" fill="#CFCA71" width="28.804" height="52.249"/>
<polyline fill="#5F5E53" points="137.43,170.39 113.37,170.39 113.37,219.589 137.43,219.589 137.43,170.39 "/>
<rect x="180.805" y="170.39" fill="#5F5E53" width="24.06" height="49.199"/>
<polyline fill="#CFCA71" points="129.381,210.95 121.418,210.95 121.418,208.448 129.381,208.448 129.381,210.95 "/>
<rect x="188.853" y="208.448" fill="#CFCA71" width="7.963" height="2.501"/>
<circle fill="#CFCA71" cx="131.499" cy="200.041" r="1.855"/>
<polyline fill="#CFCA71" points="72.028,167.34 43.224,167.34 43.224,219.589 72.028,219.589 72.028,167.34 "/>
<polyline fill="#975954" points="74.569,45.365 41.36,45.365 41.36,89.406 74.569,89.406 74.569,45.365 "/>
<polyline fill="#975954" points="74.569,95.161 41.36,95.161 41.36,139.203 74.569,139.203 74.569,95.161 "/>
<polyline fill="#ADAA5E" points="72.028,47.517 43.224,47.517 43.224,87.255 72.028,87.255 72.028,47.517 "/>
<polyline fill="#5F5E53" points="69.656,170.39 45.596,170.39 45.596,219.589 69.656,219.589 69.656,170.39 "/>
<polyline fill="#CFCA71" points="61.947,210.95 53.983,210.95 53.983,208.448 61.947,208.448 61.947,210.95 "/>
<path fill="#CFCA71" d="M65.92,200.041c0,1.025-0.831,1.855-1.855,1.855c-1.025,0-1.855-0.83-1.855-1.855
	c0-1.025,0.831-1.855,1.855-1.855C65.089,198.186,65.92,199.016,65.92,200.041"/>
<circle fill="#CFCA71" cx="200.102" cy="200.041" r="1.855"/>
<polyline fill="#AED1D4" points="69.121,84.793 46.132,84.793 46.132,49.979 69.121,49.979 69.121,84.793 "/>
<polyline fill="#975954" points="115.056,45.365 81.847,45.365 81.847,89.406 115.056,89.406 115.056,45.365 "/>
<polyline fill="#975954" points="115.056,95.161 81.847,95.161 81.847,139.203 115.056,139.203 115.056,95.161 "/>
<polyline fill="#ADAA5E" points="112.853,47.517 84.049,47.517 84.049,87.255 112.853,87.255 112.853,47.517 "/>
<polyline fill="#AED1D4" points="109.945,84.793 86.957,84.793 86.957,49.979 109.945,49.979 109.945,84.793 "/>
<polyline fill="#C7DDDF" points="86.957,67.386 86.957,84.047 87.789,84.793 109.945,84.793 86.957,67.386 "/>
<polyline fill="#975954" points="157.923,45.365 124.713,45.365 124.713,89.406 157.923,89.406 157.923,45.365 "/>
<polyline fill="#975954" points="157.923,95.161 124.713,95.161 124.713,139.203 157.923,139.203 157.923,95.161 "/>
<polyline fill="#ADAA5E" points="155.72,47.517 126.916,47.517 126.916,87.255 155.72,87.255 155.72,47.517 "/>
<polyline fill="#AED1D4" points="152.812,84.793 129.824,84.793 129.824,49.979 152.812,49.979 152.812,84.793 "/>
<polyline fill="#C7DDDF" points="129.824,67.386 129.824,84.793 152.812,84.793 129.824,67.386 "/>
<polyline fill="#975954" points="197.409,45.365 164.2,45.365 164.2,89.406 197.409,89.406 197.409,45.365 "/>
<polyline fill="#ADAA5E" points="195.207,47.517 166.403,47.517 166.403,87.255 195.207,87.255 195.207,47.517 "/>
<polyline fill="#AED1D4" points="192.299,84.793 169.311,84.793 169.311,49.979 192.299,49.979 192.299,84.793 "/>
<polyline fill="#C7DDDF" points="169.311,67.386 169.311,84.793 192.299,84.793 169.311,67.386 "/>
<polyline fill="#975954" points="197.409,95.161 164.2,95.161 164.2,139.203 197.409,139.203 197.409,95.161 "/>
<polyline fill="#ADAA5E" points="195.207,97.313 166.403,97.313 166.403,137.051 195.207,137.051 195.207,97.313 "/>
<polyline fill="#AED1D4" points="192.299,134.589 169.311,134.589 169.311,99.775 192.299,99.775 192.299,134.589 "/>
<polyline fill="#C7DDDF" points="169.311,117.182 169.311,134.589 192.299,134.589 169.311,117.182 "/>
<polyline fill="#ADAA5E" points="112.853,97.313 84.049,97.313 84.049,137.051 112.853,137.051 112.853,97.313 "/>
<polyline fill="#AED1D4" points="109.945,134.589 86.957,134.589 86.957,99.775 109.945,99.775 109.945,134.589 "/>
<polyline fill="#ADAA5E" points="72.367,97.313 43.563,97.313 43.563,137.051 72.367,137.051 72.367,97.313 "/>
<polyline fill="#AED1D4" points="69.459,134.589 46.471,134.589 46.471,99.775 69.459,99.775 69.459,134.589 "/>
<polyline fill="#ADAA5E" points="155.72,97.313 126.916,97.313 126.916,137.051 155.72,137.051 155.72,97.313 "/>
<polyline fill="#AED1D4" points="152.812,134.589 129.824,134.589 129.824,99.775 152.812,99.775 152.812,134.589 "/>
<polyline fill="#C7DDDF" points="129.824,117.182 129.824,122.454 143.369,134.589 152.812,134.589 129.824,117.182 "/>
<polygon fill="#864F4A" points="9.413,16.128 32.041,152.642 9.413,132.649 "/>
<polygon fill="#864F4A" points="9.413,143.98 32.041,219.589 9.413,200.391 "/>
<path fill="#B06963" d="M139.463,208.083v11.505h26.94L139.463,208.083 M72.028,179.284v40.305h38.631v-23.806L72.028,179.284
	 M32.042,162.207v57.381h11.183V167.34h0.836L32.042,162.207"/>
<path fill="#BDB86B" d="M137.43,207.215v12.374h2.033v-11.505L137.43,207.215 M110.659,195.782v23.806h2.711V196.94L110.659,195.782
	"/>
<path fill="#5A594F" d="M121.418,210.95v-2.501h7.963v2.501H121.418 M113.37,196.94v22.649h24.059v-12.374L113.37,196.94"/>
<polyline fill="#BDB86B" points="129.381,208.448 121.418,208.448 121.418,210.95 129.381,210.95 129.381,208.448 "/>
<path fill="#BDB86B" d="M69.656,178.271v41.318h2.372v-40.305L69.656,178.271 M44.061,167.34h-0.836v52.249h2.372V170.39h5.606
	L44.061,167.34"/>
<path fill="#5A594F" d="M53.983,210.95v-2.501h7.964v2.501H53.983 M64.065,201.896c-1.025,0-1.855-0.83-1.855-1.855
	c0-1.025,0.831-1.855,1.855-1.855c1.024,0,1.855,0.831,1.855,1.855C65.92,201.066,65.089,201.896,64.065,201.896 M51.202,170.39
	h-5.606v49.199h24.06v-41.318L51.202,170.39"/>
<polyline fill="#BDB86B" points="61.947,208.448 53.983,208.448 53.983,210.95 61.947,210.95 61.947,208.448 "/>
<path fill="#BDB86B" d="M64.065,198.186c-1.025,0-1.855,0.831-1.855,1.855c0,1.025,0.831,1.855,1.855,1.855
	c1.024,0,1.855-0.83,1.855-1.855C65.92,199.016,65.089,198.186,64.065,198.186"/>
<path fill="#B06963" d="M41.36,139.203V95.161h33.209v44.041H41.36 M32.042,34.847v117.796h131.477l-15.001-13.44h-23.805v-21.328
	l-9.658-8.653v29.98H81.847V95.161h17.515l-6.423-5.755H81.847v-9.938l-7.277-6.52v16.458H41.36V45.365h2.422L32.042,34.847"/>
<polyline fill="#BDB86B" points="163.519,152.642 32.042,152.642 32.042,153.253 164.2,153.253 163.519,152.642 "/>
<polyline fill="#8D5551" points="43.782,45.365 41.36,45.365 41.36,89.406 74.569,89.406 74.569,72.949 72.028,70.672 
	72.028,87.255 43.224,87.255 43.224,47.517 46.184,47.517 43.782,45.365 "/>
<path fill="#8D5551" d="M43.563,137.051V97.313h28.804v39.737H43.563 M74.569,95.161H41.36v44.041h33.209V95.161"/>
<polyline fill="#A09E5B" points="46.184,47.517 43.224,47.517 43.224,87.255 72.028,87.255 72.028,70.672 69.121,68.067 
	69.121,84.793 46.132,84.793 46.132,49.979 48.931,49.979 46.184,47.517 "/>
<polyline fill="#A1BFC1" points="48.931,49.979 46.132,49.979 46.132,84.793 69.121,84.793 46.132,84.793 46.132,67.386 
	69.121,84.793 69.121,68.067 48.931,49.979 "/>
<polyline fill="#B6C9CB" points="46.132,67.386 46.132,84.793 69.121,84.793 46.132,67.386 "/>
<polyline fill="#8D5551" points="81.847,79.469 81.847,89.406 92.938,89.406 90.536,87.255 84.049,87.255 84.049,81.442 
	81.847,79.469 "/>
<polyline fill="#8D5551" points="99.362,95.161 81.847,95.161 81.847,139.203 115.056,139.203 115.056,109.222 112.853,107.249 
	112.853,137.051 84.049,137.051 84.049,97.313 101.764,97.313 99.362,95.161 "/>
<polyline fill="#A09E5B" points="84.049,81.442 84.049,87.255 90.536,87.255 87.789,84.793 86.957,84.793 86.957,84.047 
	84.049,81.442 "/>
<polyline fill="#B6C9CB" points="86.957,84.047 86.957,84.793 87.789,84.793 86.957,84.047 "/>
<polyline fill="#8D5551" points="124.713,117.875 124.713,139.203 148.518,139.203 146.116,137.051 126.916,137.051 
	126.916,119.849 124.713,117.875 "/>
<polyline fill="#A09E5B" points="101.764,97.313 84.049,97.313 84.049,137.051 112.853,137.051 112.853,107.249 109.945,104.644 
	109.945,134.589 86.957,134.589 86.957,99.775 104.511,99.775 101.764,97.313 "/>
<polyline fill="#A1BFC1" points="104.511,99.775 86.957,99.775 86.957,134.589 109.945,134.589 86.957,134.589 86.957,117.182 
	109.945,134.589 109.945,104.644 104.511,99.775 "/>
<polyline fill="#B6C9CB" points="86.957,117.182 86.957,134.589 109.945,134.589 86.957,117.182 "/>
<path fill="#A09E5B" d="M46.471,134.589V99.775h22.989v34.814H46.471 M72.367,97.313H43.563v39.737h28.804V97.313"/>
<polyline fill="#A1BFC1" points="69.459,99.775 46.471,99.775 46.471,134.589 69.459,134.589 46.471,134.589 46.471,117.182 
	69.459,134.589 69.459,99.775 "/>
<polyline fill="#B6C9CB" points="46.471,117.182 46.471,134.589 69.459,134.589 46.471,117.182 "/>
<polyline fill="#A09E5B" points="126.916,119.849 126.916,137.051 146.116,137.051 143.369,134.589 129.824,134.589 
	129.824,122.454 126.916,119.849 "/>
<polyline fill="#B6C9CB" points="129.824,122.454 129.824,134.589 143.369,134.589 129.824,122.454 "/>
<polyline fill="#B06963" points="32.042,19.481 32.042,24.789 164.2,24.789 32.042,19.481 "/>
</svg>
