<?xml version="1.0" encoding="utf-8"?>
<!-- Generator: Adobe Illustrator 17.0.0, SVG Export Plug-In . SVG Version: 6.00 Build 0)  -->
<!DOCTYPE svg PUBLIC "-//W3C//DTD SVG 1.1//EN" "http://www.w3.org/Graphics/SVG/1.1/DTD/svg11.dtd">
<svg version="1.1" id="Layer_1" xmlns="http://www.w3.org/2000/svg" xmlns:xlink="http://www.w3.org/1999/xlink" x="0px" y="0px"
	 width="234.4px" height="143.272px" viewBox="0 0 234.4 143.272" enable-background="new 0 0 234.4 143.272" xml:space="preserve">
<polyline fill="#729196" points="5.001,111.222 45.147,143.272 45.147,35.082 5.001,3.032 5.001,111.222 "/>
<polyline fill="#86ABB0" points="8.939,87.32 30.078,105.382 30.078,34.848 8.939,16.785 8.939,87.32 "/>
<polyline fill="#678388" points="5.001,111.222 45.147,143.272 45.147,120.31 5.001,88.26 5.001,111.222 "/>
<polyline fill="#8FB6BE" points="45.147,143.272 229.399,143.272 229.399,35.082 45.147,35.082 45.147,143.272 "/>
<polyline fill="#7D9FA6" points="45.147,143.272 229.399,143.272 229.399,120.31 45.147,120.31 45.147,143.272 "/>
<polyline fill="#60797F" points="229.399,35.082 45.147,35.082 5.001,3.032 184.941,3.032 229.399,35.082 "/>
<polyline fill="#AED1D4" points="87.257,117.203 49.702,117.203 49.702,43.327 87.257,43.327 87.257,117.203 "/>
<polyline fill="#C7DDDF" points="49.702,80.265 49.702,117.203 87.257,117.203 49.702,80.265 "/>
<polyline fill="#AED1D4" points="128.03,117.203 90.475,117.203 90.475,43.327 128.03,43.327 128.03,117.203 "/>
<polyline fill="#C7DDDF" points="90.475,80.265 90.475,117.203 128.03,117.203 90.475,80.265 "/>
<polyline fill="#AED1D4" points="168.694,117.203 131.14,117.203 131.14,43.327 168.694,43.327 168.694,117.203 "/>
<polyline fill="#C7DDDF" points="131.14,80.265 131.14,117.203 168.694,117.203 131.14,80.265 "/>
<polyline fill="#AED1D4" points="209.189,117.203 171.635,117.203 171.635,43.327 209.189,43.327 209.189,117.203 "/>
<polyline fill="#C7DDDF" points="171.635,80.265 171.635,117.203 209.189,117.203 171.635,80.265 "/>
<polyline fill="#6B868A" points="5.001,3.032 5.001,88.26 36.627,113.507 30.078,90.63 30.078,105.382 8.939,87.32 8.939,16.785 
	5.001,3.032 "/>
<polyline fill="#7C9B9F" points="8.939,16.785 8.939,87.32 30.078,105.382 8.939,87.32 8.939,37.965 30.078,105.382 30.078,90.63 
	8.939,16.786 "/>
<polyline fill="#8CA3A6" points="8.939,37.965 8.939,87.32 30.078,105.382 8.939,37.965 "/>
<polyline fill="#61797D" points="5.001,88.26 5.001,111.222 45.147,143.272 36.627,113.507 5.001,88.26 "/>
<polyline fill="#5B7176" points="177.994,7.467 20.589,7.467 47.868,29.154 209.189,29.154 177.994,7.467 "/>
<polygon fill="#7E8283" points="39.984,17.35 46.423,22.49 46.423,5.14 39.984,0 "/>
<polygon fill="#656A6B" points="75.971,5.14 46.423,5.14 39.984,0 69.441,0 "/>
<polygon fill="#7E8283" points="84.037,17.35 90.475,22.49 90.475,5.14 84.037,0 "/>
<rect x="90.475" y="5.14" fill="#A1A8A9" width="29.548" height="17.35"/>
<polygon fill="#656A6B" points="120.023,5.14 90.475,5.14 84.037,0 113.494,0 "/>
<rect x="46.423" y="5.14" fill="#A1A8A9" width="29.548" height="17.35"/>
</svg>
