<?xml version="1.0" encoding="utf-8"?>
<!-- Generator: Adobe Illustrator 17.0.0, SVG Export Plug-In . SVG Version: 6.00 Build 0)  -->
<!DOCTYPE svg PUBLIC "-//W3C//DTD SVG 1.1//EN" "http://www.w3.org/Graphics/SVG/1.1/DTD/svg11.dtd">
<svg version="1.1" id="Layer_1" xmlns="http://www.w3.org/2000/svg" xmlns:xlink="http://www.w3.org/1999/xlink" x="0px" y="0px"
	 width="973.73px" height="213.94px" viewBox="0 0 973.73 213.94" enable-background="new 0 0 973.73 213.94" xml:space="preserve">
<polyline fill="#D46A4D" points="398.766,171.549 445.064,171.549 445.064,0.001 398.766,0.001 398.766,171.549 "/>
<polygon fill="#D46A4D" points="5.679,188.41 32.774,213.737 32.774,119.532 5.679,94.205 "/>
<polygon fill="#C86447" points="5.679,188.41 32.774,213.737 5.679,94.205 "/>
<polyline fill="#82826E" points="427.217,119.532 32.097,119.532 5.001,94.205 399.552,94.205 427.217,119.532 "/>
<polygon fill="#5F5F50" points="34.771,112.755 22.177,100.983 396.918,100.983 409.778,112.755 "/>
<polyline fill="#82826E" points="967.374,119.531 572.823,119.531 545.157,94.204 939.708,94.204 967.374,119.531 "/>
<polygon fill="#82826E" points="572.931,25.327 427.217,25.327 398.088,0 545.266,0 "/>
<polyline fill="#F47F5F" points="427.895,213.737 573.609,213.737 573.609,25.327 427.895,25.327 427.895,213.737 "/>
<polyline fill="#F47F5F" points="32.774,213.737 163.578,213.737 163.578,119.531 32.774,119.531 32.774,213.737 "/>
<polyline fill="#F36F49" points="32.774,213.737 163.578,213.737 163.578,209.211 32.774,209.211 32.774,213.737 "/>
<polyline fill="#F9A05E" points="163.578,213.737 276.082,213.737 276.082,119.531 163.578,119.531 163.578,213.737 "/>
<path fill="#E2965F" d="M172.389,192.22V161.13h28.013v31.089H172.389 M163.578,119.531L163.578,119.531v94.205h112.504
	l-25.697-21.517h-14.967v-12.533L163.578,119.531"/>
<rect x="169.225" y="129.165" fill="#FBB682" width="101.209" height="20.895"/>
<polyline fill="#7EA674" points="276.082,213.737 427.895,213.737 427.895,119.531 276.082,119.531 276.082,213.737 "/>
<polyline fill="#719467" points="276.082,213.737 427.895,213.737 427.895,208.381 276.082,208.381 276.082,213.737 "/>
<rect x="282.182" y="126.906" fill="#C1CC99" width="139.614" height="25.37"/>
<polyline fill="#D46A4D" points="427.895,119.532 573.609,119.532 573.609,114.554 427.895,114.554 427.895,119.532 "/>
<rect x="520.099" y="83.104" fill="#D46C6C" width="8.133" height="2.489"/>
<rect x="529.027" y="83.104" fill="#D46C6C" width="8.133" height="2.489"/>
<rect x="538" y="83.104" fill="#D46C6C" width="8.133" height="2.489"/>
<rect x="546.928" y="83.104" fill="#D46C6C" width="8.133" height="2.489"/>
<polyline fill="#D46C6C" points="441.926,85.593 449.771,85.593 449.771,83.104 441.926,83.104 441.926,85.593 "/>
<polyline fill="#D46C6C" points="450.539,85.593 458.385,85.593 458.385,83.104 450.539,83.104 450.539,85.593 "/>
<polyline fill="#D46C6C" points="459.195,85.593 467.041,85.593 467.041,83.104 459.195,83.104 459.195,85.593 "/>
<rect x="467.808" y="83.104" fill="#D46C6C" width="7.846" height="2.489"/>
<polyline fill="#D46C6C" points="446.232,133.722 454.078,133.722 454.078,131.233 446.232,131.233 446.232,133.722 "/>
<polyline fill="#D46C6C" points="454.845,133.722 462.691,133.722 462.691,131.233 454.845,131.233 454.845,133.722 "/>
<polyline fill="#D46C6C" points="434.08,34.198 441.926,34.198 441.926,31.709 434.08,31.709 434.08,34.198 "/>
<rect x="442.582" y="31.709" fill="#D46C6C" width="7.846" height="2.49"/>
<rect x="437.981" y="34.666" fill="#D46C6C" width="7.846" height="2.489"/>
<rect x="522.33" y="119.532" fill="#D46C6C" width="7.846" height="2.489"/>
<rect x="530.831" y="119.532" fill="#D46C6C" width="7.846" height="2.489"/>
<rect x="525.903" y="122.489" fill="#D46C6C" width="7.846" height="2.489"/>
<rect x="548.841" y="205.891" fill="#D46C6C" width="7.846" height="2.49"/>
<rect x="557.343" y="205.891" fill="#D46C6C" width="7.846" height="2.49"/>
<rect x="552.742" y="208.848" fill="#D46C6C" width="7.846" height="2.489"/>
<rect x="552.742" y="202.584" fill="#D46C6C" width="7.846" height="2.489"/>
<rect x="481.213" y="40.096" fill="#D46C6C" width="7.846" height="2.489"/>
<rect x="476.612" y="43.053" fill="#D46C6C" width="7.846" height="2.49"/>
<rect x="540.444" y="30.862" fill="#D46C6C" width="7.846" height="2.49"/>
<rect x="535.843" y="33.819" fill="#D46C6C" width="7.846" height="2.489"/>
<rect x="552.742" y="104.38" fill="#D46C6C" width="7.846" height="2.489"/>
<polyline fill="#D46C6C" points="489.178,133.722 497.024,133.722 497.024,131.233 489.178,131.233 489.178,133.722 "/>
<rect x="508.689" y="143.602" fill="#D46C6C" width="7.846" height="2.49"/>
<polyline fill="#D46C6C" points="430.813,101.16 438.659,101.16 438.659,98.671 430.813,98.671 430.813,101.16 "/>
<rect x="565.763" y="94.206" fill="#D46C6C" width="7.846" height="2.489"/>
<rect x="565.763" y="88.191" fill="#D46C6C" width="7.846" height="2.489"/>
<rect x="569.686" y="91.156" fill="#D46C6C" width="3.923" height="2.489"/>
<rect x="569.686" y="97.298" fill="#D46C6C" width="3.923" height="2.489"/>
<polyline fill="#D46C6C" points="565.763,146.091 573.609,146.091 573.609,143.602 565.763,143.602 565.763,146.091 "/>
<polyline fill="#D46C6C" points="565.763,140.077 573.609,140.077 573.609,137.587 565.763,137.587 565.763,140.077 "/>
<polyline fill="#D46C6C" points="565.763,133.722 573.609,133.722 573.609,131.233 565.763,131.233 565.763,133.722 "/>
<polyline fill="#D46C6C" points="569.686,143.041 573.609,143.041 573.609,140.552 569.686,140.552 569.686,143.041 "/>
<polyline fill="#D46C6C" points="569.686,185.998 573.609,185.998 573.609,183.508 569.686,183.508 569.686,185.998 "/>
<polyline fill="#D46C6C" points="569.686,136.909 573.609,136.909 573.609,134.42 569.686,134.42 569.686,136.909 "/>
<polyline fill="#D46C6C" points="427.895,155.918 435.741,155.918 435.741,153.429 427.895,153.429 427.895,155.918 "/>
<polyline fill="#D46C6C" points="427.895,149.564 435.741,149.564 435.741,147.075 427.895,147.075 427.895,149.564 "/>
<polyline fill="#D46C6C" points="427.895,152.751 431.818,152.751 431.818,150.262 427.895,150.262 427.895,152.751 "/>
<polyline fill="#D46C6C" points="427.895,159.069 431.818,159.069 431.818,156.58 427.895,156.58 427.895,159.069 "/>
<polyline fill="#D46C6C" points="569.686,149.184 573.609,149.184 573.609,146.694 569.686,146.694 569.686,149.184 "/>
<rect x="569.686" y="74.227" fill="#D46C6C" width="3.923" height="2.49"/>
<polyline fill="#D46C6C" points="434.736,104.379 442.582,104.379 442.582,101.89 434.736,101.89 434.736,104.379 "/>
<rect x="548.968" y="30.862" fill="#D46C6C" width="7.846" height="2.49"/>
<rect x="544.367" y="27.869" fill="#D46C6C" width="7.846" height="2.489"/>
<rect x="544.367" y="33.819" fill="#D46C6C" width="7.846" height="2.489"/>
<polyline fill="#D46C6C" points="446.505,88.643 454.351,88.643 454.351,86.154 446.505,86.154 446.505,88.643 "/>
<polyline fill="#D46C6C" points="455.118,88.643 462.964,88.643 462.964,86.154 455.118,86.154 455.118,88.643 "/>
<polyline fill="#D46C6C" points="463.774,88.643 471.62,88.643 471.62,86.154 463.774,86.154 463.774,88.643 "/>
<polyline fill="#D46C6C" points="436.757,194.709 444.603,194.709 444.603,192.22 436.757,192.22 436.757,194.709 "/>
<polyline fill="#D46C6C" points="445.37,194.709 453.216,194.709 453.216,192.22 445.37,192.22 445.37,194.709 "/>
<polyline fill="#D46C6C" points="453.872,194.709 461.718,194.709 461.718,192.22 453.872,192.22 453.872,194.709 "/>
<polyline fill="#D46C6C" points="462.639,194.709 470.485,194.709 470.485,192.22 462.639,192.22 462.639,194.709 "/>
<polyline fill="#D46C6C" points="441.336,197.759 449.182,197.759 449.182,195.269 441.336,195.269 441.336,197.759 "/>
<polyline fill="#D46C6C" points="449.949,197.759 457.795,197.759 457.795,195.269 449.949,195.269 449.949,197.759 "/>
<polyline fill="#D46C6C" points="458.605,197.759 466.451,197.759 466.451,195.269 458.605,195.269 458.605,197.759 "/>
<polyline fill="#D46C6C" points="471.054,194.709 478.9,194.709 478.9,192.22 471.054,192.22 471.054,194.709 "/>
<polyline fill="#D46C6C" points="467.021,197.759 474.866,197.759 474.866,195.269 467.021,195.269 467.021,197.759 "/>
<polyline fill="#D46C6C" points="522.7,194.709 530.546,194.709 530.546,192.22 522.7,192.22 522.7,194.709 "/>
<polyline fill="#D46C6C" points="531.313,194.709 539.159,194.709 539.159,192.22 531.313,192.22 531.313,194.709 "/>
<polyline fill="#D46C6C" points="539.815,194.709 547.661,194.709 547.661,192.22 539.815,192.22 539.815,194.709 "/>
<polyline fill="#D46C6C" points="548.583,194.709 556.429,194.709 556.429,192.22 548.583,192.22 548.583,194.709 "/>
<rect x="527.279" y="195.27" fill="#D46C6C" width="7.846" height="2.49"/>
<rect x="535.893" y="195.27" fill="#D46C6C" width="7.846" height="2.49"/>
<rect x="544.549" y="195.27" fill="#D46C6C" width="7.846" height="2.49"/>
<polyline fill="#D46C6C" points="556.998,194.709 564.844,194.709 564.844,192.22 556.998,192.22 556.998,194.709 "/>
<rect x="552.964" y="195.27" fill="#D46C6C" width="7.846" height="2.49"/>
<rect x="542.755" y="151.904" fill="#D46C6C" width="7.846" height="2.489"/>
<rect x="538.677" y="154.954" fill="#D46C6C" width="7.846" height="2.489"/>
<rect x="547.334" y="154.954" fill="#D46C6C" width="7.846" height="2.489"/>
<rect x="524.602" y="86.154" fill="#D46C6C" width="7.846" height="2.489"/>
<rect x="533.216" y="86.154" fill="#D46C6C" width="7.846" height="2.489"/>
<rect x="541.872" y="86.154" fill="#D46C6C" width="7.846" height="2.489"/>
<rect x="320.305" y="161.13" fill="#FAFBEE" width="98.272" height="31.88"/>
<rect x="320.304" y="161.13" fill="#E6EBD9" width="75.963" height="17.254"/>
<rect x="327.212" y="195.647" fill="#C1CC99" width="98.272" height="3.011"/>
<polygon fill="#ACB689" points="327.212,195.647 425.484,195.647 418.876,192.971 320.604,192.971 "/>
<polyline fill="#F37F97" points="573.609,213.737 704.412,213.737 704.412,119.531 573.609,119.531 573.609,213.737 "/>
<polyline fill="#E07185" points="579.03,213.737 698.99,213.737 698.99,126.906 579.03,126.906 579.03,213.737 "/>
<polyline fill="#BF6171" points="579.03,213.737 698.99,213.737 698.99,207.136 579.03,207.136 579.03,213.737 "/>
<polyline fill="#6E6F71" points="704.412,213.737 816.916,213.737 816.916,119.531 704.412,119.531 704.412,213.737 "/>
<path fill="#696A6B" d="M709.549,192.22v-31.088h35.073v27.401v3.687H709.549 M744.622,119.531h-40.21v94.205h112.504
	L744.622,119.531"/>
<polyline fill="#F47F5F" points="816.916,213.737 968.729,213.737 968.729,119.531 816.916,119.531 816.916,213.737 "/>
<polyline fill="#E87453" points="816.916,149.184 968.729,149.184 968.729,119.531 816.916,119.531 816.916,149.184 "/>
<polyline fill="#D66C4E" points="816.916,134.358 968.729,134.358 968.729,119.531 816.916,119.531 816.916,134.358 "/>
<polyline fill="#AED1D4" points="127.548,192.22 41.189,192.22 41.189,161.13 127.548,161.13 127.548,192.22 "/>
<polyline fill="#AED1D4" points="200.402,192.22 172.389,192.22 172.389,161.13 200.402,161.13 200.402,192.22 "/>
<polyline fill="#C7DDDF" points="172.389,176.675 172.389,192.22 200.402,192.22 172.389,176.675 "/>
<polyline fill="#AED1D4" points="263.431,192.22 235.418,192.22 235.418,161.13 263.431,161.13 263.431,192.22 "/>
<polyline fill="#AED1D4" points="473.078,83.104 445.064,83.104 445.064,52.015 473.078,52.015 473.078,83.104 "/>
<polyline fill="#829C9E" points="473.078,76.531 445.064,76.531 445.064,74.411 473.078,74.411 473.078,76.531 "/>
<polyline fill="#AED1D4" points="551.587,83.104 523.574,83.104 523.574,52.015 551.587,52.015 551.587,83.104 "/>
<rect x="205.823" y="161.13" fill="#8E7351" width="23.473" height="52.607"/>
<polyline fill="#C7DDDF" points="41.189,161.13 41.189,161.13 41.189,192.22 127.548,192.22 41.189,161.13 "/>
<polyline fill="#AED1D4" points="157.761,213.737 131.385,213.737 131.385,161.13 157.761,161.13 157.761,213.737 "/>
<polygon fill="#517F83" points="32.774,132.328 32.774,126.906 62.47,152.32 51.692,152.32 "/>
<polygon fill="#5A8D91" points="32.774,126.906 43.553,126.906 62.47,146.898 51.692,146.898 "/>
<polygon fill="#EDDBEB" points="43.333,126.906 54.111,126.906 73.028,146.898 62.25,146.898 "/>
<polygon fill="#5A8D91" points="52.902,126.906 63.68,126.906 82.597,146.898 71.819,146.898 "/>
<polygon fill="#EDDBEB" points="63.46,126.906 74.238,126.906 93.156,146.898 82.377,146.898 "/>
<polygon fill="#5A8D91" points="73.028,126.906 83.807,126.906 102.724,146.898 91.946,146.898 "/>
<polygon fill="#EDDBEB" points="83.587,126.906 94.365,126.906 113.282,146.898 102.504,146.898 "/>
<polygon fill="#5A8D91" points="93.156,126.906 103.934,126.906 122.851,146.898 112.073,146.898 "/>
<polygon fill="#EDDBEB" points="103.714,126.906 114.492,126.906 133.41,146.898 122.631,146.898 "/>
<polygon fill="#5A8D91" points="113.282,126.906 124.061,126.906 142.978,146.898 132.2,146.898 "/>
<polygon fill="#EDDBEB" points="123.841,126.906 134.619,126.906 153.537,146.898 142.758,146.898 "/>
<polygon fill="#5A8D91" points="133.41,126.906 144.188,126.906 163.105,146.898 152.327,146.898 "/>
<polygon fill="#EDDBEB" points="143.968,126.906 154.746,126.906 173.663,146.898 162.885,146.898 "/>
<polygon fill="#5A8D91" points="153.537,126.906 163.637,126.906 182.554,146.898 172.454,146.898 "/>
<polygon fill="#629B9E" points="62.47,152.276 57.081,153.971 51.692,152.276 51.692,146.898 62.47,146.898 "/>
<polygon fill="#629B9E" points="82.642,152.276 77.252,153.971 71.863,152.276 71.863,146.898 82.642,146.898 "/>
<polygon fill="#629B9E" points="102.769,152.276 97.379,153.971 91.99,152.276 91.99,146.898 102.769,146.898 "/>
<polygon fill="#629B9E" points="122.896,152.276 117.506,153.971 112.117,152.276 112.117,146.898 122.896,146.898 "/>
<polygon fill="#629B9E" points="143.023,152.276 137.633,153.971 132.244,152.276 132.244,146.898 143.023,146.898 "/>
<polygon fill="#629B9E" points="163.15,152.276 157.761,153.971 152.371,152.276 152.371,146.898 163.15,146.898 "/>
<polygon fill="#629B9E" points="182.489,152.276 177.777,153.971 172.388,152.276 172.388,146.898 182.489,146.898 "/>
<rect x="162.995" y="146.898" fill="#F8E8F2" width="9.393" height="5.379"/>
<rect x="142.978" y="146.898" fill="#F8E8F2" width="9.393" height="5.379"/>
<rect x="122.851" y="146.898" fill="#F8E8F2" width="9.393" height="5.379"/>
<rect x="102.724" y="146.898" fill="#F8E8F2" width="9.393" height="5.379"/>
<rect x="82.597" y="146.898" fill="#F8E8F2" width="9.393" height="5.379"/>
<rect x="62.47" y="146.898" fill="#F8E8F2" width="9.393" height="5.379"/>
<polyline fill="#C7DDDF" points="131.385,193.01 131.385,213.737 157.761,213.737 157.761,209.211 157.761,202.273 131.385,193.01 
	"/>
<circle fill="#F47F5F" cx="154.089" cy="190.638" r="1.581"/>
<circle fill="#864431" cx="224.757" cy="190.638" r="1.581"/>
<polyline fill="#86653E" points="622.114,213.737 598.641,213.737 598.641,161.13 622.114,161.13 622.114,213.737 "/>
<rect x="752.136" y="161.13" fill="#877E71" width="43.871" height="52.607"/>
<rect x="756.4" y="165.449" fill="#968B7D" width="35.343" height="48.288"/>
<rect x="772.569" y="165.449" fill="#877E71" width="3.005" height="48.288"/>
<path fill="#864431" d="M619.156,190.638c0,0.873-0.708,1.582-1.582,1.582c-0.873,0-1.581-0.708-1.581-1.582
	s0.708-1.581,1.581-1.581C618.448,189.057,619.156,189.765,619.156,190.638"/>
<circle fill="#867974" cx="769.023" cy="190.638" r="1.581"/>
<circle fill="#867974" cx="778.963" cy="190.638" r="1.581"/>
<polygon fill="#E6A676" points="219.83,136.366 224.37,142.86 215.29,142.86 "/>
<polygon fill="#E6A676" points="237.698,136.366 242.238,142.86 233.159,142.86 "/>
<polygon fill="#E6A676" points="229.297,142.86 224.757,136.366 233.836,136.366 "/>
<polygon fill="#E6A676" points="254.883,136.366 259.422,142.86 250.343,142.86 "/>
<polygon fill="#E6A676" points="246.481,142.86 241.941,136.366 251.021,136.366 "/>
<polygon fill="#E6A676" points="211.07,142.86 206.531,136.366 215.61,136.366 "/>
<polygon fill="#E6A676" points="201.991,136.366 206.531,142.86 197.451,142.86 "/>
<polygon fill="#E6A676" points="184.596,136.366 189.136,142.86 180.056,142.86 "/>
<polygon fill="#E6A676" points="193.232,142.86 188.692,136.366 197.771,136.366 "/>
<polygon fill="#5F5F50" points="432.159,18.55 419.565,6.777 538.728,6.777 551.587,18.55 "/>
<polygon fill="#5F5F50" points="832.052,112.755 819.458,100.983 932.154,100.983 945.013,112.755 "/>
<polygon fill="#6F6F5E" points="732.538,47.523 676.286,47.523 659.265,32.371 716.077,32.371 "/>
<polygon fill="#82826E" points="727.086,45.829 678.1,45.829 664.425,34.065 714.211,34.065 "/>
<polygon fill="#5F5F50" points="582.08,112.754 573.61,104.837 573.609,100.982 653.63,100.982 666.489,112.754 "/>
<path fill="#F89C5A" d="M414.844,44.407c-0.338,10.388-0.676,20.777-1.014,31.165c-1.819-8.693-15.939-39.956-8.442-43.875
	c1.753-0.916,3.733-0.345,4.981,0.764C413.969,35.658,414.844,44.407,414.844,44.407z"/>
<path fill="#F89C5A" d="M413.843,75.587c0.275-10.471,0.545-20.942,0.809-31.414c0,0,1.664-5.014,4.121-2.195
	c0.853,0.979,2.45,2.81,4.02,6.401C427.693,59.583,418.875,66.615,413.843,75.587z"/>
<path fill="#5F5F50" d="M413.137,58.424c-0.208-1.282-0.74-1.666-1.241-1.994c-0.349-0.549-0.767-1.002-1.192-1.505
	c-0.104-0.304-0.202-0.643-0.29-1.033c-0.015-1.208-0.053-2.435-0.037-3.621c0.024-1.827,0.104-3.595-0.115-5.594
	c-0.025-0.229-0.116-0.369-0.2-0.401c-0.266-0.618-0.465-0.838-0.828-1.028l-0.026-0.005l-0.122-0.149l-0.147-0.092
	c-0.114-0.13-0.245-0.124-0.245,0.112l0.002,0.119c-0.091-0.054-0.171-0.015-0.165,0.18c0.074,2.522,0.133,5.091,0.453,7.761
	c-0.105,1.056-0.262,2.09-0.164,3.276l-0.012,0.098c-0.019,0.148,0.022,0.305,0.083,0.423l0.054,0.208l-0.089,0.175
	c-0.052,0.143-0.02,0.423,0.11,0.583c1.211,1.497,2.181,2.683,2.954,4.115c0.255,0.473,0.459,0.78,0.638,0.759l0.05,0.243
	c0.061,0.262,0.155,0.238,0.191,0.055l0.025-0.146c0.073,0.012,0.137-0.055,0.184-0.251c0.052-0.222,0.069-0.529,0.071-0.861
	C413.189,59.524,413.235,59.026,413.137,58.424z"/>
<path fill="#5F5F50" d="M420.335,54.147c-1.751-2.769-2.224,0.896-2.565,3.605l-0.031-0.128c-0.093-0.455-0.189-0.9-0.291-1.331
	c-0.159-0.93-0.324-1.842-0.571-2.632c-0.036-0.114-0.079-0.143-0.113-0.115c-0.029-0.142-0.058-0.281-0.085-0.426
	c-0.025-0.134-0.085-0.242-0.123-0.205c-0.453,0.438-0.612,2.007-0.7,3.683c-0.018,0.098-0.035,0.196-0.053,0.294
	c-0.202-1.434-0.344-2.904-0.484-4.402c-0.156-1.676-0.25-2.722-0.76-3.709c-0.203-0.393-0.427-0.341-0.484,0.319
	c-0.023,0.26-0.01,0.545,0.022,0.834c-0.007,0.063-0.009,0.14,0.003,0.235c0.43,3.573,0.743,7.138,1.155,10.645
	c-0.01,0.095-0.019,0.189-0.028,0.285c-0.025,0.264,0.061,0.599,0.129,0.541c0.035,0.289,0.07,0.579,0.107,0.867
	c0.03,0.23,0.125,0.396,0.167,0.206c0.02-0.091,0.038-0.185,0.057-0.278c0.042,0.112,0.1,0.147,0.129,0.024
	c0.365-1.584,0.774-3.122,1.08-4.906c0.276,1.919,0.566,3.843,1.068,5.702c0.054,0.2,0.165,0.316,0.212,0.171
	c0.844-2.615,1.343-6.002,2.249-8.702C420.472,54.581,420.446,54.322,420.335,54.147z M415.26,56.919l0.022,0.114
	c0.006,0.12,0.011,0.239,0.015,0.357c-0.042-0.355-0.083-0.714-0.121-1.075C415.203,56.517,415.231,56.719,415.26,56.919z
	 M416.754,54.504l-0.055,0.183c-0.004-0.137-0.033-0.276-0.069-0.363l-0.006-0.037l0.029-0.207
	C416.686,54.206,416.721,54.354,416.754,54.504z M414.602,50.712l0.001,0.244l-0.02,0.045c-0.035-0.209-0.07-0.418-0.107-0.626
	C414.521,50.478,414.562,50.591,414.602,50.712z M414.54,51.949l0.008,0.019c0,0.15,0.001,0.302,0.004,0.455
	c-0.025-0.234-0.05-0.468-0.075-0.701L414.54,51.949z M416.247,58.896c0.095-0.255,0.186-0.525,0.272-0.815
	c-0.138,0.702-0.288,1.372-0.44,2.03C416.14,59.718,416.195,59.312,416.247,58.896z M417.534,59.892l-0.019,0.181
	c-0.068-0.38-0.132-0.76-0.194-1.141C417.391,59.249,417.462,59.57,417.534,59.892z M417.771,60.776l0.004,0.007
	c-0.003,0.202-0.003,0.409,0.001,0.622c-0.03-0.141-0.059-0.282-0.087-0.423L417.771,60.776z M419.044,54.067
	c-0.288,0.613-0.515,1.35-0.702,2.17l-0.042-0.022C418.482,55.253,418.716,54.41,419.044,54.067z M418.044,62.55l-0.028-0.108
	l0.024-0.034c0.071-0.171,0.131-0.364,0.184-0.571l0.018,0.02C418.178,62.093,418.112,62.323,418.044,62.55z"/>
<polyline fill="#C7DDDF" points="235.418,176.675 235.418,192.22 263.431,192.22 235.418,176.675 "/>
<polyline fill="#AED1D4" points="853.513,208.149 824.143,208.149 824.143,157.725 853.513,157.725 853.513,208.149 "/>
<polyline fill="#AED1D4" points="888.994,208.149 859.625,208.149 859.625,157.725 888.994,157.725 888.994,208.149 "/>
<polyline fill="#AED1D4" points="924.027,208.149 894.658,208.149 894.658,157.725 924.027,157.725 924.027,208.149 "/>
<polyline fill="#B45A40" points="959.698,213.737 930.329,213.737 930.329,157.725 959.698,157.725 959.698,213.737 "/>
<rect x="934.4" y="184.446" fill="#974B35" width="21.226" height="2.57"/>
<polyline fill="#AED1D4" points="480.817,192.22 434.84,192.22 434.84,161.13 480.817,161.13 480.817,192.22 "/>
<polyline fill="#AED1D4" points="566.761,192.22 520.783,192.22 520.783,161.13 566.761,161.13 566.761,192.22 "/>
<polyline fill="#6E6F71" points="687.186,153.41 590.835,153.41 590.835,133.645 687.186,133.645 687.186,153.41 "/>
<polyline fill="#AED1D4" points="694.991,205.073 627.376,205.073 627.376,160.733 694.991,160.733 694.991,205.073 "/>
<polyline fill="#C7DDDF" points="520.783,176.675 520.783,192.22 566.761,192.22 520.783,176.675 "/>
<polyline fill="#AED1D4" points="744.622,161.132 744.622,192.22 709.549,192.22 709.549,161.132 744.622,161.132 "/>
<polyline fill="#AED1D4" points="811.183,161.132 811.183,192.22 801.782,192.22 801.782,161.132 811.183,161.132 "/>
<polyline fill="#C7DDDF" points="709.549,176.672 709.549,192.22 744.622,192.22 744.622,188.533 709.549,176.672 "/>
<polyline fill="#C7DDDF" points="801.782,176.672 801.782,192.22 811.183,192.22 811.183,179.851 801.782,176.672 "/>
<path fill="#C7DDDF" d="M451.036,62.181c2.268,3.926,4.619,8.023,7.021,12.231h15.02L451.036,62.181"/>
<polyline fill="#C7DDDF" points="523.574,58.867 523.574,74.411 551.587,74.411 523.574,58.867 "/>
<rect x="282.182" y="161.13" fill="#FAFBEE" width="33.379" height="52.607"/>
<polyline fill="#D46A4D" points="517.302,213.737 483.924,213.737 483.924,161.13 517.302,161.13 517.302,213.737 "/>
<polyline fill="#B45A40" points="512.612,213.737 483.924,213.737 483.924,205.774 512.612,205.774 512.612,213.737 "/>
<polyline fill="#A7533B" points="512.612,206.961 483.924,206.961 483.924,205.774 512.612,205.774 512.612,206.961 "/>
<polyline fill="#B45A40" points="506.513,205.774 483.924,205.774 483.924,197.812 506.513,197.812 506.513,205.774 "/>
<polyline fill="#B45A40" points="501.43,198.291 483.924,198.291 483.924,190.328 501.43,190.328 501.43,198.291 "/>
<polyline fill="#A7533B" points="506.513,198.955 483.924,198.955 483.924,197.812 506.513,197.812 506.513,198.955 "/>
<polyline fill="#A7533B" points="501.43,191.471 483.924,191.471 483.924,190.328 501.43,190.328 501.43,191.471 "/>
<polyline fill="#B45A40" points="497.024,190.328 483.924,190.328 483.924,182.366 497.024,182.366 497.024,190.328 "/>
<polyline fill="#A7533B" points="496.939,183.508 483.924,183.508 483.924,182.366 496.939,182.366 496.939,183.508 "/>
<polyline fill="#B45A40" points="492.677,182.366 483.924,182.366 483.924,174.403 492.677,174.403 492.677,182.366 "/>
<polyline fill="#A7533B" points="492.677,175.546 483.924,175.546 483.924,174.403 492.677,174.403 492.677,175.546 "/>
<polyline fill="#B45A40" points="488.3,174.597 483.924,174.597 483.924,166.634 488.3,166.634 488.3,174.597 "/>
<polyline fill="#A7533B" points="488.383,167.777 483.924,167.777 483.924,166.634 488.383,166.634 488.383,167.777 "/>
<polygon fill="#909973" points="320.304,195.834 320.304,193.01 327.212,195.647 327.212,198.658 "/>
<rect x="313.583" y="161.13" fill="#ACB689" width="1.977" height="52.607"/>
<rect x="523.574" y="74.411" fill="#829C9E" width="28.013" height="2.12"/>
<polyline fill="#D1D4AA" points="473.078,83.104 445.064,83.104 445.064,76.531 473.078,76.531 473.078,83.104 "/>
<rect x="523.574" y="76.531" fill="#D1D4AA" width="28.013" height="6.573"/>
<rect x="88.89" y="78.36" fill="#929497" width="3.93" height="28.508"/>
<rect x="351.989" y="87.399" fill="#929497" width="2.167" height="19.469"/>
<rect x="675.18" y="21.974" fill="#929497" width="3.792" height="19.469"/>
<rect x="346.228" y="87.399" fill="#929497" width="2.167" height="19.469"/>
<polygon fill="#9D9D85" points="676.818,109.96 660.059,93.726 790.205,94.205 806.75,109.96 "/>
<path fill="#929497" d="M94.787,78.36c0,0.805-0.653,1.458-1.458,1.458h-4.95c-0.805,0-1.458-0.653-1.458-1.458
	c0-0.805,0.653-1.458,1.458-1.458h4.95C94.135,76.902,94.787,77.555,94.787,78.36z"/>
<rect x="676.286" y="47.523" fill="#6E6F71" width="56.252" height="61.835"/>
<polygon fill="#595A5C" points="676.286,109.358 659.265,94.521 659.265,32.371 676.286,47.523 "/>
<polyline fill="#9D9D85" points="687.355,119.531 677.076,109.14 805.954,109.358 816.916,119.531 687.355,119.531 "/>
<rect x="732.538" y="79.818" fill="#515B71" width="57.667" height="14.387"/>
<polyline fill="#3D4555" points="790.205,79.818 816.916,105.145 816.916,119.531 790.205,94.204 790.205,79.818 "/>
<polygon fill="#3D4555" points="676.286,94.697 687.355,104.87 687.355,119.532 676.286,109.358 "/>
<polyline fill="#515B71" points="687.355,104.379 816.916,104.379 816.916,119.531 687.355,119.531 687.355,104.379 "/>
<rect x="689.869" y="106.912" fill="#65728D" width="1.396" height="10.087"/>
<rect x="693.821" y="106.912" fill="#65728D" width="1.396" height="10.087"/>
<rect x="697.773" y="106.912" fill="#65728D" width="1.396" height="10.087"/>
<rect x="701.725" y="106.912" fill="#65728D" width="1.396" height="10.087"/>
<rect x="705.677" y="106.912" fill="#65728D" width="1.396" height="10.087"/>
<rect x="709.63" y="106.912" fill="#65728D" width="1.396" height="10.087"/>
<rect x="713.582" y="106.912" fill="#65728D" width="1.396" height="10.087"/>
<rect x="717.534" y="106.912" fill="#65728D" width="1.396" height="10.087"/>
<rect x="721.486" y="106.912" fill="#65728D" width="1.396" height="10.087"/>
<rect x="725.438" y="106.912" fill="#65728D" width="1.396" height="10.087"/>
<rect x="729.39" y="106.912" fill="#65728D" width="1.396" height="10.087"/>
<rect x="733.343" y="106.912" fill="#65728D" width="1.396" height="10.087"/>
<rect x="737.295" y="106.912" fill="#65728D" width="1.396" height="10.087"/>
<rect x="741.247" y="106.912" fill="#65728D" width="1.396" height="10.087"/>
<rect x="745.199" y="106.912" fill="#65728D" width="1.396" height="10.087"/>
<rect x="749.151" y="106.912" fill="#65728D" width="1.396" height="10.087"/>
<rect x="753.103" y="106.912" fill="#65728D" width="1.396" height="10.087"/>
<rect x="757.055" y="106.912" fill="#65728D" width="1.396" height="10.087"/>
<rect x="761.008" y="106.912" fill="#65728D" width="1.396" height="10.087"/>
<rect x="764.96" y="106.912" fill="#65728D" width="1.396" height="10.087"/>
<rect x="768.912" y="106.912" fill="#65728D" width="1.396" height="10.087"/>
<rect x="772.864" y="106.912" fill="#65728D" width="1.396" height="10.087"/>
<rect x="776.816" y="106.912" fill="#65728D" width="1.396" height="10.087"/>
<rect x="780.768" y="106.912" fill="#65728D" width="1.396" height="10.087"/>
<rect x="784.721" y="106.912" fill="#65728D" width="1.396" height="10.087"/>
<rect x="788.673" y="106.912" fill="#65728D" width="1.396" height="10.087"/>
<rect x="792.625" y="106.912" fill="#65728D" width="1.396" height="10.087"/>
<rect x="796.577" y="106.912" fill="#65728D" width="1.396" height="10.087"/>
<rect x="800.529" y="106.912" fill="#65728D" width="1.396" height="10.087"/>
<rect x="804.481" y="106.912" fill="#65728D" width="1.396" height="10.087"/>
<rect x="808.434" y="106.912" fill="#65728D" width="1.396" height="10.087"/>
<rect x="812.386" y="106.912" fill="#65728D" width="1.396" height="10.087"/>
<rect x="734.817" y="82.466" fill="#65728D" width="1.34" height="9.11"/>
<rect x="738.455" y="82.466" fill="#65728D" width="1.34" height="9.11"/>
<rect x="742.094" y="82.466" fill="#65728D" width="1.34" height="9.11"/>
<rect x="745.732" y="82.466" fill="#65728D" width="1.34" height="9.11"/>
<rect x="749.371" y="82.466" fill="#65728D" width="1.34" height="9.11"/>
<rect x="753.009" y="82.466" fill="#65728D" width="1.34" height="9.11"/>
<rect x="756.648" y="82.466" fill="#65728D" width="1.34" height="9.11"/>
<rect x="760.286" y="82.466" fill="#65728D" width="1.34" height="9.11"/>
<rect x="763.925" y="82.466" fill="#65728D" width="1.34" height="9.11"/>
<rect x="767.563" y="82.466" fill="#65728D" width="1.34" height="9.11"/>
<rect x="771.202" y="82.466" fill="#65728D" width="1.34" height="9.11"/>
<rect x="774.841" y="82.466" fill="#65728D" width="1.34" height="9.11"/>
<rect x="778.479" y="82.466" fill="#65728D" width="1.34" height="9.11"/>
<rect x="782.118" y="82.466" fill="#65728D" width="1.34" height="9.11"/>
<rect x="785.756" y="82.466" fill="#65728D" width="1.34" height="9.11"/>
<rect x="702.83" y="66.639" fill="#877E71" width="21.914" height="37.74"/>
<rect x="705.767" y="69.662" fill="#968B7D" width="15.814" height="34.717"/>
<circle fill="#867974" cx="718.644" cy="88.191" r="1.581"/>
<rect x="764.862" y="130.867" transform="matrix(0.7071 0.7071 -0.7071 0.7071 325.7693 -506.3238)" fill="#595A5C" width="18.419" height="18.419"/>
<rect x="757.938" y="143.527" fill="#808184" width="32.267" height="6.334"/>
<path fill="#929497" d="M680.239,21.974c0,0.76-0.616,1.376-1.376,1.376h-3.574c-0.76,0-1.376-0.616-1.376-1.376
	c0-0.76,0.616-1.376,1.376-1.376h3.574C679.623,20.598,680.239,21.214,680.239,21.974z"/>
<rect x="681.279" y="25.327" fill="#929497" width="3.792" height="16.117"/>
<path fill="#929497" d="M686.338,25.327c0,0.76-0.616,1.376-1.376,1.376h-3.574c-0.76,0-1.376-0.616-1.376-1.376
	c0-0.76,0.616-1.376,1.376-1.376h3.574C685.722,23.951,686.338,24.567,686.338,25.327z"/>
<rect x="282.323" y="161.13" fill="#E6EBD9" width="31.261" height="17.254"/>
<path fill="#E67864" d="M441.336,197.759v-2.49h7.846v2.49H441.336 M449.949,197.759v-2.49h7.846v2.49H449.949 M458.605,197.759
	v-2.49h7.846v2.49H458.605 M467.021,197.759v-2.49h7.846v2.49H467.021 M436.757,194.709v-2.489h7.846v2.489H436.757 M445.37,194.709
	v-2.489h7.846v2.489H445.37 M453.872,194.709v-2.489h7.846v2.489H453.872 M462.639,194.709v-2.489h7.846v2.489H462.639
	 M471.054,194.709v-2.489h7.846v2.489H471.054 M434.84,192.22V161.13h45.977v31.089H434.84 M446.232,133.722v-2.489h7.845v2.489
	H446.232 M454.845,133.722v-2.489h7.846v2.489H454.845 M483.475,119.532h-55.579v27.543h7.846v2.489h-7.846v0.697h3.923v2.49h-3.923
	v0.677h7.846v2.49h-7.846v0.661h3.923v2.49h-3.923v54.668h56.029V161.13h22.589c0,0-6.21-11.311-15.144-27.408h-2.191v-2.489h0.808
	C487.93,127.531,485.747,123.607,483.475,119.532 M434.736,104.379v-2.489h7.846v2.489H434.736 M430.813,101.16v-2.489h7.846v2.489
	H430.813 M446.505,88.643v-2.49h7.846v2.49H446.505 M455.118,88.643v-2.49h7.846v2.49H455.118 M441.926,85.593v-2.489h7.846v2.489
	H441.926 M450.539,85.593v-2.489h7.846v2.489H450.539 M427.895,25.327L427.895,25.327v89.227h52.8
	c-4.665-8.35-9.622-17.183-14.556-25.91h-2.366v-2.49h0.957c-0.105-0.186-0.212-0.375-0.317-0.56h-5.219v-2.489h3.808l0,0h-17.939
	V52.015h0.057c-4.163-7.097-7.844-13.227-10.735-17.816h-0.306v-0.485C430.74,28.436,428.51,25.327,427.895,25.327"/>
<path fill="#D06957" d="M480.696,114.554h-52.8v4.979h55.579C482.561,117.894,481.635,116.235,480.696,114.554"/>
<polyline fill="#CF6A6E" points="449.771,83.104 441.926,83.104 441.926,85.593 449.771,85.593 449.771,83.104 "/>
<polyline fill="#CF6A6E" points="458.385,83.104 450.539,83.104 450.539,85.593 458.385,85.593 458.385,83.104 "/>
<path fill="#CF6A6E" d="M463.003,83.104h-3.808v2.489h5.219C463.943,84.761,463.473,83.933,463.003,83.104"/>
<polyline fill="#CF6A6E" points="454.078,131.233 446.232,131.233 446.232,133.722 454.078,133.722 454.078,131.233 "/>
<polyline fill="#CF6A6E" points="462.691,131.233 454.845,131.233 454.845,133.722 462.691,133.722 462.691,131.233 "/>
<path fill="#CF6A6E" d="M434.08,33.714v0.485h0.306C434.283,34.035,434.181,33.873,434.08,33.714"/>
<path fill="#CF6A6E" d="M489.987,131.233h-0.808v2.489h2.191C490.916,132.906,490.454,132.074,489.987,131.233"/>
<polyline fill="#CF6A6E" points="438.659,98.671 430.813,98.671 430.813,101.16 438.659,101.16 438.659,98.671 "/>
<polyline fill="#CF6A6E" points="435.741,153.429 427.895,153.429 427.895,155.918 435.741,155.918 435.741,153.429 "/>
<polyline fill="#CF6A6E" points="435.741,147.075 427.895,147.075 427.895,149.564 435.741,149.564 435.741,147.075 "/>
<polyline fill="#CF6A6E" points="431.818,150.262 427.895,150.262 427.895,152.751 431.818,152.751 431.818,150.262 "/>
<polyline fill="#CF6A6E" points="431.818,156.58 427.895,156.58 427.895,159.069 431.818,159.069 431.818,156.58 "/>
<polyline fill="#CF6A6E" points="442.582,101.89 434.736,101.89 434.736,104.379 442.582,104.379 442.582,101.89 "/>
<polyline fill="#CF6A6E" points="454.351,86.154 446.505,86.154 446.505,88.643 454.351,88.643 454.351,86.154 "/>
<polyline fill="#CF6A6E" points="462.964,86.154 455.118,86.154 455.118,88.643 462.964,88.643 462.964,86.154 "/>
<path fill="#CF6A6E" d="M464.731,86.154h-0.957v2.49h2.366C465.67,87.812,465.201,86.983,464.731,86.154"/>
<polyline fill="#CF6A6E" points="444.603,192.22 436.757,192.22 436.757,194.709 444.603,194.709 444.603,192.22 "/>
<polyline fill="#CF6A6E" points="453.216,192.22 445.37,192.22 445.37,194.709 453.216,194.709 453.216,192.22 "/>
<polyline fill="#CF6A6E" points="461.718,192.22 453.872,192.22 453.872,194.709 461.718,194.709 461.718,192.22 "/>
<polyline fill="#CF6A6E" points="470.485,192.22 462.639,192.22 462.639,194.709 470.485,194.709 470.485,192.22 "/>
<polyline fill="#CF6A6E" points="449.182,195.269 441.336,195.269 441.336,197.759 449.182,197.759 449.182,195.269 "/>
<polyline fill="#CF6A6E" points="457.795,195.269 449.949,195.269 449.949,197.759 457.795,197.759 457.795,195.269 "/>
<polyline fill="#CF6A6E" points="466.451,195.269 458.605,195.269 458.605,197.759 466.451,197.759 466.451,195.269 "/>
<polyline fill="#CF6A6E" points="478.9,192.22 471.054,192.22 471.054,194.709 478.9,194.709 478.9,192.22 "/>
<polyline fill="#CF6A6E" points="474.866,195.269 467.021,195.269 467.021,197.759 474.866,197.759 474.866,195.269 "/>
<path fill="#B4B9BB" d="M445.121,52.015h-0.057v31.089h17.939l0,0h-17.939v-6.573v-2.12h12.993l0,0h-12.993V58.867l5.972,3.314
	C448.986,58.631,447.003,55.223,445.121,52.015"/>
<path fill="#929093" d="M458.057,74.411h-12.993v2.12h14.202C458.862,75.822,458.459,75.115,458.057,74.411"/>
<polyline fill="#B4B9BB" points="480.817,161.13 434.84,161.13 434.84,192.22 480.817,192.22 434.84,192.22 434.84,176.675 
	480.817,192.22 480.817,161.13 "/>
<polyline fill="#C6C1C3" points="434.84,176.675 434.84,192.22 480.817,192.22 434.84,176.675 "/>
<path fill="#C6C1C3" d="M445.064,58.867v15.544h12.993c-2.402-4.208-4.752-8.304-7.021-12.231L445.064,58.867"/>
<polyline fill="#D06957" points="483.924,161.13 483.924,161.13 483.924,213.737 483.924,205.774 483.924,197.812 483.924,190.328 
	483.924,182.366 483.924,174.403 483.924,166.634 483.924,161.13 "/>
<polyline fill="#B75C4C" points="483.924,205.774 483.924,205.774 483.924,213.737 483.924,206.961 483.924,205.774 "/>
<polyline fill="#B75C4C" points="483.924,197.812 483.924,197.812 483.924,205.774 483.924,198.955 483.924,198.291 
	483.924,197.812 "/>
<polyline fill="#B75C4C" points="483.924,190.328 483.924,190.328 483.924,197.812 483.924,198.291 483.924,197.812 
	483.924,191.471 483.924,190.328 "/>
<polyline fill="#AC5647" points="483.924,197.812 483.924,197.812 483.924,198.291 483.924,198.955 483.924,197.812 "/>
<polyline fill="#B75C4C" points="483.924,182.366 483.924,182.366 483.924,190.328 483.924,183.508 483.924,182.366 "/>
<polyline fill="#B75C4C" points="483.924,174.403 483.924,174.403 483.924,182.366 483.924,175.546 483.924,174.403 "/>
<polyline fill="#AC5647" points="483.924,174.403 483.924,174.403 483.924,175.546 483.924,174.597 483.924,174.403 "/>
<polyline fill="#B75C4C" points="483.924,166.634 483.924,166.634 483.924,174.403 483.924,174.597 483.924,167.777 
	483.924,166.634 "/>
<path fill="#CCBA9D" d="M459.266,76.531h-14.202v6.573h17.939C461.751,80.897,460.502,78.7,459.266,76.531"/>
<polyline fill="#ECD4D4" points="695.589,213.737 573.609,213.737 695.756,213.94 695.589,213.737 "/>
<polyline fill="#907D6F" points="615.993,116.999 573.609,119.531 618.077,119.531 615.993,116.999 "/>
<polyline fill="#E5788E" points="618.077,119.531 573.609,119.531 573.609,213.737 695.589,213.737 579.03,213.737 579.03,126.906 
	624.145,126.906 618.077,119.531 "/>
<polyline fill="#D96D80" points="624.145,126.906 579.03,126.906 579.03,213.737 695.589,213.737 579.03,213.737 579.03,207.136 
	598.641,207.136 598.641,161.13 622.114,161.13 622.114,207.136 690.157,207.136 688.46,205.073 627.376,205.073 627.376,160.733 
	651.977,160.733 645.952,153.41 590.835,153.41 590.835,133.645 629.689,133.645 624.145,126.906 "/>
<polyline fill="#BF6271" points="690.157,207.136 622.114,207.136 622.114,213.737 598.641,213.737 598.641,207.136 579.03,207.136 
	579.03,213.737 695.589,213.737 690.157,207.136 "/>
<path fill="#91654A" d="M617.574,192.22c-0.873,0-1.581-0.708-1.581-1.582s0.708-1.581,1.581-1.581c0.873,0,1.582,0.708,1.582,1.581
	S618.448,192.22,617.574,192.22 M622.114,161.13h-23.474v46.005v6.601h23.474v-6.601V161.13"/>
<path fill="#924B3F" d="M617.574,189.057c-0.873,0-1.581,0.708-1.581,1.581s0.708,1.582,1.581,1.582
	c0.873,0,1.582-0.708,1.582-1.582S618.448,189.057,617.574,189.057"/>
<polyline fill="#806D71" points="629.689,133.645 590.835,133.645 590.835,153.41 645.952,153.41 629.689,133.645 "/>
<polyline fill="#B4B9BB" points="651.977,160.733 627.376,160.733 627.376,205.073 688.46,205.073 651.977,160.733 "/>
<path fill="#DF7A5E" d="M959.698,208.133v5.604h9.031L959.698,208.133 M824.143,208.149v-50.423h29.37v50.423H824.143
	 M864.701,149.184h-47.785v64.553h113.412v-23.829l-6.302-3.91v22.151h-29.369v-40.376l-5.664-3.515v43.891h-29.369v-50.423h18.841
	L864.701,149.184"/>
<polyline fill="#D77154" points="840.809,134.358 816.916,134.358 816.916,149.184 864.701,149.184 840.809,134.358 "/>
<polyline fill="#C86A50" points="816.916,119.531 816.916,119.531 816.916,134.358 840.809,134.358 816.916,119.531 "/>
<polyline fill="#A3C1C3" points="853.513,157.725 824.143,157.725 824.143,208.149 853.513,208.149 824.143,208.149 
	824.143,182.937 853.513,208.149 853.513,157.725 "/>
<polyline fill="#B8CBCD" points="824.143,182.937 824.143,208.149 853.513,208.149 824.143,182.937 "/>
<polyline fill="#A3C1C3" points="878.466,157.725 859.625,157.725 859.625,208.149 888.994,208.149 859.625,208.149 
	859.625,182.937 888.994,208.149 888.994,164.258 878.466,157.725 "/>
<polyline fill="#B8CBCD" points="859.625,182.937 859.625,208.149 888.994,208.149 859.625,182.937 "/>
<polyline fill="#A3C1C3" points="894.658,167.773 894.658,208.149 924.027,208.149 894.658,208.149 894.658,182.937 
	924.027,208.149 924.027,185.998 894.658,167.773 "/>
<polyline fill="#AC5B43" points="930.329,189.908 930.329,213.737 959.698,213.737 959.698,208.133 930.329,189.908 "/>
<polyline fill="#B8CBCD" points="894.658,182.937 894.658,208.149 924.027,208.149 894.658,182.937 "/>
</svg>
