<?xml version="1.0" encoding="utf-8"?>
<!-- Generator: Adobe Illustrator 17.0.0, SVG Export Plug-In . SVG Version: 6.00 Build 0)  -->
<!DOCTYPE svg PUBLIC "-//W3C//DTD SVG 1.1//EN" "http://www.w3.org/Graphics/SVG/1.1/DTD/svg11.dtd">
<svg version="1.1" id="Layer_1" xmlns="http://www.w3.org/2000/svg" xmlns:xlink="http://www.w3.org/1999/xlink" x="0px" y="0px"
	 width="35.49px" height="49.006px" viewBox="0 0 35.49 49.006" enable-background="new 0 0 35.49 49.006" xml:space="preserve">
<polyline fill="#919162" points="18.391,49.006 17.098,49.006 17.098,3.787 18.391,3.787 18.391,49.006 "/>
<polyline fill="#767554" points="17.109,7.574 17.098,7.574 17.098,49.006 18.391,49.006 17.109,7.574 "/>
<path fill="#595A5C" d="M30.49,0.764v6.047c0,0.421-0.342,0.763-0.763,0.763H5.764C5.342,7.574,5,7.232,5,6.811V0.764
	C5,0.342,5.342,0,5.764,0h23.963C30.148,0,30.49,0.342,30.49,0.764"/>
<polyline fill="#A6A8AC" points="25.595,5.475 6.962,5.475 6.962,2.099 25.595,2.099 25.595,5.475 "/>
<polyline fill="#A6A8AC" points="25.086,6.814 25.086,0.76 28.727,3.787 25.086,6.814 "/>
<path fill="#535354" d="M5,1.928v4.883c0,0.421,0.341,0.763,0.763,0.763h23.963c0.421,0,0.763-0.342,0.763-0.763V5.783l-3.523-0.533
	l-1.881,1.564v-1.34H6.962v-3.25L5,1.928"/>
<polyline fill="#929294" points="6.962,2.225 6.962,5.475 25.086,5.475 25.086,4.966 6.962,2.225 "/>
<polyline fill="#929294" points="25.086,4.966 25.086,5.475 25.086,6.814 26.967,5.251 25.086,4.966 "/>
</svg>
