<?xml version="1.0" encoding="utf-8"?>
<!-- Generator: Adobe Illustrator 17.0.0, SVG Export Plug-In . SVG Version: 6.00 Build 0)  -->
<!DOCTYPE svg PUBLIC "-//W3C//DTD SVG 1.1//EN" "http://www.w3.org/Graphics/SVG/1.1/DTD/svg11.dtd">
<svg version="1.1" id="Layer_1" xmlns="http://www.w3.org/2000/svg" xmlns:xlink="http://www.w3.org/1999/xlink" x="0px" y="0px"
	 width="43.28px" height="59.393px" viewBox="0 0 43.28 59.393" enable-background="new 0 0 43.28 59.393" xml:space="preserve">
<rect x="14.91" y="46.65" fill="#0071BB" width="6.502" height="12.743"/>
<rect x="23.469" y="46.65" fill="#0071BB" width="6.501" height="12.743"/>
<polygon fill="#00538D" points="38.01,22.589 26.742,22.589 29.435,33.13 33.975,32.341 "/>
<polygon fill="#3D9037" points="38.01,1.479 15.345,1.479 6.855,9.38 19.352,9.909 29.902,9.817 "/>
<polygon fill="#0071BB" points="29.955,30.579 29.955,25.959 38.01,18.055 38.01,1.479 29.976,9.38 13.768,9.38 13.768,55.528 
	29.966,55.528 38.01,48.417 38.01,22.589 "/>
<path fill="#0071BB" d="M27.074,28.608c-0.796,0-1.442-0.645-1.442-1.442s0.645-1.442,1.442-1.442h2.903V9.38H6.855v46.148h23.111
	l0.011-26.92H27.074z"/>
<polygon fill="#0061A3" points="29.977,9.38 6.855,55.528 29.965,55.528 "/>
<ellipse transform="matrix(0.9993 0.0371 -0.0371 0.9993 0.6607 -1.2097)" fill="#FFFFFF" cx="32.964" cy="17.217" rx="1.258" ry="2.91"/>
<ellipse transform="matrix(0.9993 0.0372 -0.0372 0.9993 0.6639 -1.2154)" cx="32.964" cy="17.217" rx="0.295" ry="0.682"/>
<ellipse transform="matrix(0.9993 0.037 -0.037 0.9993 0.5706 -1.3266)" fill="#FFFFFF" cx="36.089" cy="14.736" rx="1.173" ry="2.713"/>
<ellipse transform="matrix(0.9993 0.0371 -0.0371 0.9993 0.5709 -1.3274)" cx="36.089" cy="14.736" rx="0.275" ry="0.636"/>
<polygon fill="#E3D200" points="15.042,1.275 5,7.524 5,32.617 28.398,32.617 28.398,14.409 38.254,7.617 38.28,1.275 "/>
<polygon fill="#EC008C" points="20.775,0 15.561,5.214 10.346,0 10.346,11.658 15.561,6.444 20.775,11.658 "/>
</svg>
