<?xml version="1.0" encoding="utf-8"?>
<!-- Generator: Adobe Illustrator 17.1.0, SVG Export Plug-In . SVG Version: 6.00 Build 0)  -->
<!DOCTYPE svg PUBLIC "-//W3C//DTD SVG 1.1//EN" "http://www.w3.org/Graphics/SVG/1.1/DTD/svg11.dtd">
<svg version="1.1" id="Layer_1" xmlns="http://www.w3.org/2000/svg" xmlns:xlink="http://www.w3.org/1999/xlink" x="0px" y="0px"
	 width="30.73px" height="29.867px" viewBox="0 0 30.73 29.867" enable-background="new 0 0 30.73 29.867" xml:space="preserve">
<polygon fill="#E4E5E6" points="25.731,29.867 4.999,29.867 9.233,26.196 21.497,26.196 "/>
<path fill="#ED1C24" d="M11.353,12.621c-1.993,0.087-3.581,1.729-3.581,3.743c0,2.014,1.589,3.656,3.581,3.743V12.621z"/>
<path fill="#ED1C24" d="M19.482,20.108c1.992-0.087,3.581-1.73,3.581-3.744s-1.589-3.656-3.581-3.743V20.108"/>
<rect x="14.456" y="0" fill="#CA252C" width="1.923" height="1.923"/>
<path fill="#ED1C24" d="M21.996,7.168c-0.153-3.502-3.039-6.294-6.579-6.294S8.992,3.667,8.839,7.168H21.996z"/>
<polyline fill="#ED1C24" points="21.216,27.042 9.619,27.042 9.619,7.518 21.216,7.518 21.216,27.042 "/>
<path fill="#CA252C" d="M9.03,5.855h12.774c-0.12-0.48-0.293-0.939-0.513-1.371H9.543C9.324,4.916,9.151,5.375,9.03,5.855z"/>
<rect x="9.619" y="7.518" fill="#CA252C" width="11.598" height="1.371"/>
<polyline fill="#DB2128" points="21.216,27.042 9.619,27.042 21.216,7.518 21.216,27.042 "/>
<polyline fill="#E11F27" points="11.639,9.493 11.477,9.655 11.477,23.913 11.801,23.368 11.801,9.655 11.639,9.493 "/>
<polyline fill="#D52229" points="11.801,23.368 11.477,23.913 11.477,25.96 11.639,26.121 11.801,25.96 11.801,23.368 "/>
<polyline fill="#E11F27" points="14.202,9.493 14.041,9.655 14.041,19.598 14.364,19.054 14.364,9.655 14.202,9.493 "/>
<polyline fill="#D52229" points="14.364,19.054 14.041,19.598 14.041,25.96 14.202,26.121 14.364,25.96 14.364,19.054 "/>
<polyline fill="#E11F27" points="16.766,9.493 16.604,9.655 16.604,15.283 16.927,14.738 16.927,9.655 16.766,9.493 "/>
<polyline fill="#D52229" points="16.927,14.738 16.604,15.283 16.604,25.96 16.766,26.121 16.927,25.96 16.927,14.738 "/>
<polyline fill="#E11F27" points="19.329,9.493 19.167,9.655 19.167,10.968 19.491,10.423 19.491,9.655 19.329,9.493 "/>
<polyline fill="#D52229" points="19.491,10.423 19.167,10.968 19.167,25.96 19.329,26.121 19.491,25.96 19.491,10.423 "/>
<rect x="8.366" y="5.304" fill="#ED1C24" width="14.104" height="2.739"/>
<rect x="8.366" y="25.702" fill="#ED1C24" width="14.104" height="2.739"/>
<circle fill="#CA252C" cx="15.425" cy="16.668" r="4.313"/>
<circle fill="#ED1C24" cx="15.425" cy="16.668" r="1.282"/>
</svg>
