<?xml version="1.0" encoding="utf-8"?>
<!-- Generator: Adobe Illustrator 17.1.0, SVG Export Plug-In . SVG Version: 6.00 Build 0)  -->
<!DOCTYPE svg PUBLIC "-//W3C//DTD SVG 1.1//EN" "http://www.w3.org/Graphics/SVG/1.1/DTD/svg11.dtd">
<svg version="1.1" id="Layer_1" xmlns="http://www.w3.org/2000/svg" xmlns:xlink="http://www.w3.org/1999/xlink" x="0px" y="0px"
	 width="106.04px" height="57.197px" viewBox="0 0 106.04 57.197" enable-background="new 0 0 106.04 57.197" xml:space="preserve">
<path fill="#E2F4FD" d="M76.864,46.781c-0.037-5.14-4.213-9.296-9.362-9.296c-5.149,0-9.326,4.156-9.362,9.296H76.864z"/>
<path fill="#DC9DBA" d="M76.864,46.778c-0.037,5.14-4.213,9.296-9.362,9.296c-5.149,0-9.326-4.156-9.362-9.296H76.864z"/>
<path fill="#929496" d="M75.947,46.849h-0.984c-0.001,2.064-0.834,3.923-2.186,5.277c-1.354,1.352-3.213,2.185-5.277,2.186
	c-2.064,0-3.923-0.834-5.277-2.186c-1.352-1.354-2.185-3.213-2.186-5.277c0.001-2.064,0.834-3.923,2.186-5.277
	c1.354-1.352,3.213-2.185,5.277-2.186c2.064,0,3.923,0.834,5.277,2.186c1.352,1.354,2.185,3.213,2.186,5.277H75.947h0.984
	c0-2.601-1.057-4.964-2.762-6.668c-1.703-1.705-4.067-2.762-6.668-2.762c-2.601,0-4.964,1.057-6.668,2.762
	c-1.705,1.703-2.762,4.067-2.762,6.668c0,2.601,1.057,4.964,2.762,6.668c1.703,1.705,4.067,2.762,6.668,2.762
	c2.601,0,4.964-1.057,6.668-2.762c1.705-1.703,2.762-4.067,2.762-6.668H75.947z"/>
<path d="M76.865,46.849h-0.984c0,2.317-0.936,4.406-2.455,5.926c-1.52,1.518-3.609,2.454-5.926,2.455
	c-2.317,0-4.406-0.936-5.926-2.455c-1.518-1.52-2.454-3.609-2.455-5.926c0-2.317,0.936-4.406,2.455-5.926
	c1.52-1.518,3.609-2.454,5.926-2.455c2.317,0,4.406,0.936,5.926,2.455c1.518,1.52,2.454,3.609,2.455,5.926H76.865h0.984
	c0-2.854-1.16-5.447-3.031-7.317c-1.869-1.871-4.463-3.031-7.317-3.031c-2.854,0-5.447,1.16-7.317,3.031
	c-1.871,1.869-3.031,4.463-3.031,7.317c0,2.854,1.16,5.447,3.031,7.317c1.869,1.871,4.463,3.031,7.317,3.031
	c2.854,0.001,5.447-1.16,7.317-3.031c1.871-1.869,3.031-4.463,3.031-7.317H76.865z"/>
<circle cx="67.501" cy="46.849" r="2.111"/>
<path fill="#E2F4FD" d="M35.894,46.781c-0.037-5.14-4.213-9.296-9.362-9.296c-5.149,0-9.326,4.156-9.362,9.296H35.894z"/>
<path fill="#DC9DBA" d="M35.894,46.778c-0.037,5.14-4.213,9.296-9.362,9.296c-5.149,0-9.326-4.156-9.362-9.296H35.894z"/>
<path fill="#929496" d="M34.978,46.849h-0.984c0,2.064-0.834,3.923-2.186,5.277c-1.354,1.352-3.213,2.185-5.277,2.186
	c-2.064,0-3.923-0.834-5.277-2.186c-1.352-1.354-2.185-3.213-2.186-5.277c0-2.064,0.834-3.923,2.186-5.277
	c1.354-1.352,3.213-2.185,5.277-2.186c2.064,0,3.923,0.834,5.277,2.186c1.352,1.354,2.185,3.213,2.186,5.277H34.978h0.984
	c0.001-2.601-1.057-4.964-2.762-6.668c-1.703-1.705-4.067-2.762-6.668-2.762c-2.601,0-4.964,1.057-6.668,2.762
	c-1.705,1.703-2.762,4.067-2.762,6.668c-0.001,2.601,1.057,4.964,2.762,6.668c1.703,1.705,4.067,2.762,6.668,2.762
	c2.601,0,4.964-1.057,6.668-2.762c1.705-1.703,2.762-4.067,2.762-6.668H34.978z"/>
<path d="M35.896,46.849h-0.984c0,2.317-0.937,4.406-2.455,5.926c-1.52,1.518-3.609,2.454-5.926,2.455
	c-2.317,0-4.406-0.936-5.926-2.455c-1.518-1.52-2.454-3.609-2.455-5.926c0-2.317,0.936-4.406,2.455-5.926
	c1.52-1.518,3.609-2.454,5.926-2.455c2.317,0,4.406,0.936,5.926,2.455c1.518,1.52,2.454,3.609,2.455,5.926H35.896h0.984
	c0.001-2.854-1.16-5.447-3.031-7.317c-1.869-1.871-4.463-3.031-7.317-3.031c-2.854,0-5.447,1.16-7.317,3.031
	c-1.871,1.869-3.031,4.463-3.031,7.317c0,2.854,1.16,5.447,3.031,7.317c1.869,1.871,4.463,3.031,7.317,3.031
	c2.854,0.001,5.447-1.16,7.317-3.031c1.871-1.869,3.031-4.463,3.031-7.317H35.896z"/>
<circle cx="26.532" cy="46.849" r="2.111"/>
<polygon fill="#945B8A" points="90.004,29.71 101.039,16.274 99.688,36.288 88.712,49.724 "/>
<polyline fill="#945B8A" points="69.536,13.436 80.513,0 87.994,16.274 77.018,29.71 69.536,13.436 "/>
<polygon fill="#945B8A" points="12.653,13.436 23.629,0 80.513,0 69.536,13.436 "/>
<polygon fill="#AC7FA8" points="77.018,29.71 87.994,16.274 101.039,16.274 90.004,29.71 "/>
<path fill="#D17EA4" d="M77.018,29.71h12.987l-1.293,20.013h-8.721c0.241-1.028,0.354-2.109,0.312-3.228
	c-0.251-6.812-6.015-12.334-12.873-12.334c-6.858,0-12.214,5.522-11.962,12.334c0.041,1.119,0.23,2.2,0.551,3.228H38.617
	c0.241-1.028,0.354-2.109,0.312-3.228c-0.251-6.812-6.015-12.334-12.873-12.334c-6.858,0-12.214,5.522-11.962,12.334
	c0.041,1.119,0.234,2.2,0.55,3.228l-9.643-5.229V29.71l7.651-16.274h56.883L77.018,29.71"/>
<polygon fill="#945B8A" points="8.932,28.619 14.559,16.169 67.52,16.169 72.75,28.619 "/>
<rect x="46.512" y="15.272" fill="#D17EA4" width="2.644" height="14.086"/>
<g>
	<defs>
		<polyline id="SVGID_1_" points="69.6,13.427 80.513,0 86.356,12.965 75.539,26.377 69.6,13.427 		"/>
	</defs>
	<clipPath id="SVGID_2_">
		<use xlink:href="#SVGID_1_"  overflow="visible"/>
	</clipPath>
	<polyline clip-path="url(#SVGID_2_)" fill="#CD007A" points="82.997,13.914 78.45,13.914 79.537,18.168 81.369,17.85 
		82.997,13.914 	"/>
	<polyline clip-path="url(#SVGID_2_)" fill="#CD007A" points="82.997,5.395 73.85,5.395 70.423,8.583 75.467,8.797 79.725,8.76 
		82.997,5.395 	"/>
	<polyline clip-path="url(#SVGID_2_)" fill="#EC008C" points="79.747,17.139 79.747,15.275 82.997,12.084 82.997,5.395 
		79.755,8.583 73.213,8.583 73.213,27.208 79.751,27.208 82.997,24.338 82.997,13.914 79.747,17.139 	"/>
	<path clip-path="url(#SVGID_2_)" fill="#EC008C" d="M78.584,16.343c-0.321,0-0.582-0.26-0.582-0.582s0.26-0.582,0.582-0.582h1.172
		V8.583h-9.332v18.625h9.327l0.005-10.865H78.584"/>
	<polyline clip-path="url(#SVGID_2_)" fill="#CD007A" points="79.754,15.268 79.747,15.275 79.747,16.343 79.753,16.343 
		79.754,15.268 	"/>
	<path clip-path="url(#SVGID_2_)" fill="#DD0083" d="M79.754,15.18h-1.17c-0.321,0-0.582,0.26-0.582,0.582s0.26,0.582,0.582,0.582
		h1.163v-1.069l0.007-0.007V15.18"/>
	<path clip-path="url(#SVGID_2_)" fill="#DD0083" d="M79.755,8.583L73.293,21.48l2.246,4.897l4.213-5.224l0.001-4.81h-0.007h-1.163
		c-0.321,0-0.582-0.26-0.582-0.582s0.26-0.582,0.582-0.582h1.17L79.755,8.583"/>
	
		<ellipse transform="matrix(0.9993 0.0371 -0.0371 0.9993 0.4475 -3.015)" clip-path="url(#SVGID_2_)" fill="#FFFFFF" cx="81.533" cy="10.562" rx="0.701" ry="1.622"/>
	
		<ellipse transform="matrix(0.9993 0.0371 -0.0371 0.9993 0.4482 -3.0188)" clip-path="url(#SVGID_2_)" cx="81.533" cy="10.562" rx="0.164" ry="0.38"/>
</g>
<g>
	<defs>
		<polyline id="SVGID_3_" points="10.845,28.619 16.473,16.168 69.434,16.168 74.663,28.619 10.845,28.619 		"/>
	</defs>
	<clipPath id="SVGID_4_">
		<use xlink:href="#SVGID_3_"  overflow="visible"/>
	</clipPath>
	<polygon clip-path="url(#SVGID_4_)" fill="#FAA61A" points="67.339,22.433 63.181,22.433 64.174,26.323 65.85,26.032 	"/>
	<polygon clip-path="url(#SVGID_4_)" fill="#FFD600" points="67.339,14.642 58.974,14.642 55.841,17.558 60.453,17.754 
		64.347,17.72 	"/>
	<polygon clip-path="url(#SVGID_4_)" fill="#FFF200" points="64.366,25.382 64.366,23.677 67.339,20.76 67.339,14.642 
		64.374,17.558 58.392,17.558 58.392,34.589 64.37,34.589 67.339,31.965 67.339,22.433 	"/>
	<path clip-path="url(#SVGID_4_)" fill="#FFF200" d="M63.303,24.654c-0.294,0-0.532-0.238-0.532-0.532
		c0-0.294,0.238-0.532,0.532-0.532h1.071v-6.032h-8.533v17.031h8.529l0.004-9.935H63.303z"/>
	<polygon clip-path="url(#SVGID_4_)" fill="#FFD600" points="64.374,17.558 55.841,34.589 64.37,34.589 	"/>
	
		<ellipse transform="matrix(0.9993 0.0371 -0.0371 0.9993 0.7632 -2.4328)" clip-path="url(#SVGID_4_)" fill="#FFFFFF" cx="66" cy="19.368" rx="0.641" ry="1.483"/>
	
		<ellipse transform="matrix(0.9993 0.0371 -0.0371 0.9993 0.7648 -2.4378)" clip-path="url(#SVGID_4_)" cx="66" cy="19.368" rx="0.15" ry="0.348"/>
</g>
</svg>
