<?xml version="1.0" encoding="utf-8"?>
<!-- Generator: Adobe Illustrator 17.0.0, SVG Export Plug-In . SVG Version: 6.00 Build 0)  -->
<!DOCTYPE svg PUBLIC "-//W3C//DTD SVG 1.1//EN" "http://www.w3.org/Graphics/SVG/1.1/DTD/svg11.dtd">
<svg version="1.1" id="Layer_1" xmlns="http://www.w3.org/2000/svg" xmlns:xlink="http://www.w3.org/1999/xlink" x="0px" y="0px"
	 width="106.04px" height="57.197px" viewBox="0 0 106.04 57.197" enable-background="new 0 0 106.04 57.197" xml:space="preserve">
<path fill="#E2F4FD" d="M76.864,46.781c-0.037-5.14-4.213-9.296-9.362-9.296s-9.326,4.156-9.362,9.296H76.864z"/>
<path fill="#DC9DBA" d="M76.864,46.778c-0.037,5.14-4.213,9.296-9.362,9.296s-9.326-4.156-9.362-9.296H76.864z"/>
<path fill="#929496" d="M75.947,46.849h-0.984c-0.001,2.064-0.834,3.923-2.186,5.277c-1.354,1.352-3.213,2.185-5.277,2.186
	c-2.064,0-3.923-0.834-5.277-2.186c-1.352-1.354-2.185-3.213-2.186-5.277c0.001-2.064,0.834-3.923,2.186-5.277
	c1.354-1.352,3.213-2.185,5.277-2.186c2.064,0,3.923,0.834,5.277,2.186c1.352,1.354,2.185,3.213,2.186,5.277H75.947h0.984
	c0-2.601-1.057-4.964-2.762-6.668c-1.703-1.705-4.067-2.762-6.668-2.762s-4.964,1.057-6.668,2.762
	c-1.705,1.703-2.762,4.067-2.762,6.668c0,2.601,1.057,4.964,2.762,6.668c1.703,1.705,4.067,2.762,6.668,2.762
	s4.964-1.057,6.668-2.762c1.705-1.703,2.762-4.067,2.762-6.668H75.947z"/>
<path d="M76.865,46.849h-0.984c0,2.317-0.936,4.406-2.455,5.926c-1.52,1.518-3.609,2.454-5.926,2.455
	c-2.317,0-4.406-0.936-5.926-2.455c-1.518-1.52-2.454-3.609-2.455-5.926c0-2.317,0.936-4.406,2.455-5.926
	c1.52-1.518,3.609-2.454,5.926-2.455c2.317,0,4.406,0.936,5.926,2.455c1.518,1.52,2.454,3.609,2.455,5.926L76.865,46.849l0.984,0
	c0-2.854-1.16-5.447-3.031-7.317c-1.869-1.871-4.463-3.031-7.317-3.031c-2.854,0-5.447,1.16-7.317,3.031
	c-1.871,1.869-3.031,4.463-3.031,7.317s1.16,5.447,3.031,7.317c1.869,1.871,4.463,3.031,7.317,3.031
	c2.854,0.001,5.447-1.16,7.317-3.031c1.871-1.869,3.031-4.463,3.031-7.317C77.849,46.849,76.865,46.849,76.865,46.849z"/>
<circle cx="67.501" cy="46.849" r="2.111"/>
<path fill="#E2F4FD" d="M35.894,46.781c-0.037-5.14-4.213-9.296-9.362-9.296s-9.326,4.156-9.362,9.296H35.894z"/>
<path fill="#DC9DBA" d="M35.894,46.778c-0.037,5.14-4.213,9.296-9.362,9.296s-9.326-4.156-9.362-9.296H35.894z"/>
<path fill="#929496" d="M34.978,46.849h-0.984c0,2.064-0.834,3.923-2.186,5.277c-1.354,1.352-3.213,2.185-5.277,2.186
	c-2.064,0-3.923-0.834-5.277-2.186c-1.352-1.354-2.185-3.213-2.186-5.277c0-2.064,0.834-3.923,2.186-5.277
	c1.354-1.352,3.213-2.185,5.277-2.186c2.064,0,3.923,0.834,5.277,2.186c1.352,1.354,2.185,3.213,2.186,5.277H34.978h0.984
	c0.001-2.601-1.057-4.964-2.762-6.668c-1.703-1.705-4.067-2.762-6.668-2.762s-4.964,1.057-6.668,2.762
	c-1.705,1.703-2.762,4.067-2.762,6.668c-0.001,2.601,1.057,4.964,2.762,6.668c1.703,1.705,4.067,2.762,6.668,2.762
	s4.964-1.057,6.668-2.762c1.705-1.703,2.762-4.067,2.762-6.668H34.978z"/>
<path d="M35.896,46.849h-0.984c0,2.317-0.937,4.406-2.455,5.926c-1.52,1.518-3.609,2.454-5.926,2.455
	c-2.317,0-4.406-0.936-5.926-2.455c-1.518-1.52-2.454-3.609-2.455-5.926c0-2.317,0.936-4.406,2.455-5.926
	c1.52-1.518,3.609-2.454,5.926-2.455c2.317,0,4.406,0.936,5.926,2.455c1.518,1.52,2.454,3.609,2.455,5.926L35.896,46.849l0.984,0
	c0.001-2.854-1.16-5.447-3.031-7.317c-1.869-1.871-4.463-3.031-7.317-3.031s-5.447,1.16-7.317,3.031
	c-1.871,1.869-3.031,4.463-3.031,7.317s1.16,5.447,3.031,7.317c1.869,1.871,4.463,3.031,7.317,3.031
	c2.854,0.001,5.447-1.16,7.317-3.031c1.871-1.869,3.031-4.463,3.031-7.317C36.88,46.849,35.896,46.849,35.896,46.849z"/>
<circle cx="26.532" cy="46.849" r="2.111"/>
<polygon fill="#945B8A" points="90.004,29.71 101.039,16.274 99.688,36.288 88.712,49.724 "/>
<polyline fill="#945B8A" points="69.536,13.436 80.513,0 87.994,16.274 77.018,29.71 69.536,13.436 "/>
<polygon fill="#945B8A" points="12.653,13.436 23.629,0 80.513,0 69.536,13.436 "/>
<polygon fill="#AC7FA8" points="77.018,29.71 87.994,16.274 101.039,16.274 90.004,29.71 "/>
<path fill="#D17EA4" d="M77.018,29.71h12.987l-1.293,20.013h-8.721c0.241-1.028,0.354-2.109,0.312-3.228
	c-0.251-6.812-6.015-12.334-12.873-12.334s-12.214,5.522-11.962,12.334c0.041,1.119,0.23,2.2,0.551,3.228H38.617
	c0.241-1.028,0.354-2.109,0.312-3.228c-0.251-6.812-6.015-12.334-12.873-12.334s-12.214,5.522-11.962,12.334
	c0.041,1.119,0.234,2.2,0.55,3.228l-9.643-5.229V29.71l7.651-16.274h56.883L77.018,29.71"/>
<polygon fill="#945B8A" points="8.932,28.619 14.559,16.169 67.52,16.169 72.75,28.619 "/>
<rect x="46.512" y="15.272" fill="#D17EA4" width="2.644" height="14.086"/>
<polygon fill="none" points="80.905,-0.032 76.149,5.395 82.944,5.395 82.961,5.431 82.997,5.512 82.997,12.084 81.133,13.914 
	82.997,13.914 82.997,16.896 86.263,13.141 "/>
<polygon fill="none" points="73.537,8.583 75.859,5.726 69.501,12.981 70.424,15.207 70.424,12.413 "/>
<polygon fill="none" points="70.494,15.377 74.956,26.142 75.267,25.784 73.293,21.48 "/>
<polygon fill="#CD007A" points="79.753,16.343 79.756,16.343 79.756,17.13 82.997,13.914 81.133,13.914 79.754,15.268 "/>
<polygon fill="#CD007A" points="73.537,8.583 79.755,8.583 82.961,5.431 82.944,5.395 76.149,5.395 75.859,5.726 "/>
<polygon fill="#EC008C" points="79.756,17.13 79.754,20.625 82.997,16.896 82.997,13.914 "/>
<path fill="#EC008C" d="M79.756,8.583v6.596h-0.003h-1.169c-0.322,0-0.582,0.26-0.582,0.582c0,0,0,0,0,0
	c0-0.322,0.261-0.581,0.582-0.581h1.17v0.088v0l1.379-1.354l1.864-1.83V5.512l-0.036-0.081l-3.206,3.152H79.756z M81.471,12.185
	c-0.387-0.014-0.674-0.752-0.64-1.647c0.033-0.895,0.374-1.609,0.761-1.595c0.387,0.014,0.674,0.752,0.64,1.647
	C82.199,11.486,81.858,12.2,81.471,12.185z"/>
<polygon fill="#EC008C" points="73.293,21.48 79.755,8.583 73.537,8.583 70.424,12.413 70.424,15.207 70.494,15.377 "/>
<path fill="#EC008C" d="M78.002,15.761C78.002,15.761,78.002,15.761,78.002,15.761c0-0.322,0.26-0.582,0.582-0.582h-0.001
	c-0.322,0-0.582,0.26-0.582,0.582c0,0.151,0.061,0.286,0.155,0.389C78.063,16.047,78.002,15.913,78.002,15.761
	C78.002,15.762,78.002,15.762,78.002,15.761z"/>
<rect x="79.754" y="8.583" fill="#EC008C" width="0.001" height="6.596"/>
<polygon fill="#EC008C" points="79.756,17.13 79.756,16.343 79.753,16.343 79.752,20.627 79.754,20.625 "/>
<polygon fill="#CD007A" points="79.754,15.268 79.747,15.275 79.747,16.343 79.753,16.343 79.754,15.268 "/>
<path fill="#DD0083" d="M79.754,15.268V15.18h-1.17c-0.321,0-0.582,0.26-0.582,0.581c0,0,0,0,0,0.001
	c0,0.151,0.061,0.285,0.154,0.388c0.107,0.117,0.256,0.193,0.427,0.193h0.001h1.162h0.001v-1.068L79.754,15.268z"/>
<path fill="#DD0083" d="M79.753,16.343h-0.006h-0.001h-1.162h-0.001c-0.17,0-0.32-0.076-0.427-0.193
	c-0.094-0.103-0.155-0.238-0.155-0.389c0-0.322,0.26-0.582,0.582-0.582h0.001h1.169l0.002-6.596L73.293,21.48l1.974,4.304
	l4.485-5.157L79.753,16.343z"/>
<path fill="#FFFFFF" d="M81.592,8.944c-0.387-0.014-0.727,0.7-0.761,1.595c-0.033,0.895,0.253,1.633,0.64,1.647
	c0.387,0.014,0.727-0.7,0.761-1.595C82.265,9.695,81.979,8.958,81.592,8.944z M81.518,10.94c-0.091-0.003-0.158-0.176-0.15-0.386
	c0.008-0.21,0.087-0.377,0.178-0.374s0.158,0.176,0.15,0.386C81.688,10.776,81.609,10.944,81.518,10.94z"/>
<ellipse transform="matrix(0.0371 -0.9993 0.9993 0.0371 67.9537 91.645)" cx="81.532" cy="10.561" rx="0.38" ry="0.164"/>
<polygon fill="none" points="69.55,16.295 67.339,16.213 67.339,20.76 65.634,22.433 67.339,22.433 67.339,28.619 65.906,28.619 
	74.314,28.931 "/>
<polygon fill="none" points="57.334,16.168 65.787,16.168 66.132,16.168 16.626,14.33 10.54,26.564 55.841,28.245 55.841,17.558 "/>
<polygon fill="#FAA61A" points="64.372,24.654 64.374,24.654 64.374,25.374 67.339,22.433 65.634,22.433 64.373,23.671 "/>
<polygon fill="#FFD600" points="57.334,16.168 55.841,17.558 58.392,17.558 64.374,17.558 65.787,16.168 "/>
<polygon fill="#FFF200" points="67.339,22.433 64.374,25.374 64.372,28.562 65.906,28.619 67.339,28.619 "/>
<path fill="#FFF200" d="M65.787,16.168l-1.413,1.39v6.032h-0.001l0,0.081l1.261-1.238l1.705-1.673v-4.547l-1.207-0.045H65.787z
	 M65.943,20.852c-0.354-0.013-0.616-0.687-0.586-1.506c0.03-0.818,0.342-1.471,0.696-1.458c0.354,0.013,0.616,0.687,0.586,1.506
	C66.609,20.212,66.297,20.865,65.943,20.852z"/>
<polygon fill="#FFF200" points="64.374,17.558 64.373,23.59 64.374,23.59 "/>
<polygon fill="#FFF200" points="64.374,25.374 64.374,24.654 64.372,24.654 64.371,28.562 64.372,28.562 "/>
<polygon fill="#FFF200" points="64.374,17.558 58.392,17.558 55.841,17.558 55.841,28.245 58.961,28.361 "/>
<polygon fill="#FFD600" points="64.372,24.654 64.373,23.671 64.373,23.59 64.374,17.558 58.961,28.361 64.371,28.562 "/>
<path fill="#FFFFFF" d="M66.053,17.888c-0.354-0.013-0.665,0.64-0.696,1.458c-0.03,0.818,0.232,1.493,0.586,1.506
	c0.354,0.013,0.665-0.64,0.696-1.458C66.669,18.576,66.407,17.901,66.053,17.888z M65.987,19.713
	c-0.083-0.003-0.144-0.161-0.137-0.353s0.08-0.345,0.163-0.342c0.083,0.003,0.144,0.161,0.137,0.353
	C66.143,19.563,66.07,19.716,65.987,19.713z"/>
<ellipse transform="matrix(0.0372 -0.9993 0.9993 0.0372 44.1943 84.5996)" cx="66" cy="19.365" rx="0.348" ry="0.15"/>
</svg>
