<?xml version="1.0" encoding="utf-8"?>
<!-- Generator: Adobe Illustrator 17.0.0, SVG Export Plug-In . SVG Version: 6.00 Build 0)  -->
<!DOCTYPE svg PUBLIC "-//W3C//DTD SVG 1.1//EN" "http://www.w3.org/Graphics/SVG/1.1/DTD/svg11.dtd">
<svg version="1.1" id="Layer_1" xmlns="http://www.w3.org/2000/svg" xmlns:xlink="http://www.w3.org/1999/xlink" x="0px" y="0px"
	 width="42.69px" height="70.828px" viewBox="0 0 42.69 70.828" enable-background="new 0 0 42.69 70.828" xml:space="preserve">
<rect x="13.997" y="58.085" fill="#B71027" width="6.501" height="12.743"/>
<rect x="22.556" y="58.085" fill="#B71027" width="6.502" height="12.743"/>
<polygon fill="#740006" points="37.13,34.023 25.863,34.023 28.556,44.564 33.096,43.776 "/>
<polygon fill="#9C061D" points="37.13,12.913 14.466,12.913 5.975,20.815 18.472,21.344 29.023,21.252 "/>
<polygon fill="#B71027" points="29.076,42.014 29.076,37.394 37.13,29.489 37.13,12.914 29.097,20.815 12.888,20.815 12.888,66.963 
	29.086,66.963 37.13,59.851 37.13,34.023 "/>
<path fill="#B71027" d="M26.194,40.043c-0.796,0-1.442-0.645-1.442-1.442s0.645-1.442,1.442-1.442h2.903V20.815H5.975v46.148h23.111
	l0.011-26.92H26.194z"/>
<polygon fill="#9C061D" points="29.097,20.815 5.975,66.963 29.086,66.963 "/>
<ellipse transform="matrix(0.9993 0.0371 -0.0371 0.9993 1.0838 -1.1693)" fill="#FFFFFF" cx="32.085" cy="28.652" rx="1.258" ry="2.91"/>
<ellipse transform="matrix(0.9993 0.0372 -0.0372 0.9993 1.0891 -1.1748)" cx="32.085" cy="28.652" rx="0.295" ry="0.682"/>
<ellipse transform="matrix(0.9993 0.037 -0.037 0.9993 0.9935 -1.2861)" fill="#FFFFFF" cx="35.209" cy="26.171" rx="1.173" ry="2.713"/>
<ellipse transform="matrix(0.9993 0.0371 -0.0371 0.9993 0.9939 -1.2866)" cx="35.209" cy="26.171" rx="0.275" ry="0.636"/>
<path fill="#5E7EA3" d="M13.674,21.077L13.674,21.077h16.209l7.661-7.535l0.002-0.076C34.598,3.231,22.367,3.573,22.367,3.573
	S7.71,3.857,5.144,21.077H13.674z"/>
<path fill="#1FBECD" d="M37.116,10.356l-7.829,7.7H12.099v0H5.195c-0.128,0.974-0.196,1.995-0.196,3.068h8.606v0H29.96l7.729-7.602
	l0.002-0.077C37.691,12.343,37.479,11.316,37.116,10.356z"/>
<circle fill="#1FBECD" cx="21.086" cy="3.922" r="3.922"/>
</svg>
