<?xml version="1.0" encoding="utf-8"?>
<!-- Generator: Adobe Illustrator 17.1.0, SVG Export Plug-In . SVG Version: 6.00 Build 0)  -->
<!DOCTYPE svg PUBLIC "-//W3C//DTD SVG 1.1//EN" "http://www.w3.org/Graphics/SVG/1.1/DTD/svg11.dtd">
<svg version="1.1" id="Layer_1" xmlns="http://www.w3.org/2000/svg" xmlns:xlink="http://www.w3.org/1999/xlink" x="0px" y="0px"
	 width="36.92px" height="55.416px" viewBox="0 0 36.92 55.416" enable-background="new 0 0 36.92 55.416" xml:space="preserve">
<polygon fill="#E4E5E6" points="17.708,55.416 5.625,54.053 16.955,52.689 31.138,54.637 "/>
<polygon fill="#58B947" points="24.346,13.345 12.563,15.39 12.563,4.143 24.346,7.868 "/>
<polygon fill="#80C34E" points="24.346,13.345 23.935,13.416 21.207,6.876 24.346,7.868 "/>
<polygon fill="#4FA546" points="20.835,13.954 12.563,15.39 12.563,4.143 16.687,5.447 "/>
<polygon fill="#58B947" points="22.213,6.96 14.878,4.581 18.944,0 "/>
<polygon fill="#80C34E" points="22.213,6.96 21.167,6.621 18.944,0 "/>
<polygon fill="#4FA546" points="18.71,5.824 14.878,4.581 17.079,2.101 "/>
<polygon fill="#58B947" points="26.582,26.582 8.835,22.818 8.835,16.285 26.582,13.217 "/>
<polygon fill="#80C34E" points="26.582,26.582 26.209,26.503 23.089,13.821 26.582,13.217 "/>
<polygon fill="#4FA546" points="23.595,25.949 8.835,22.818 8.835,16.285 17.81,14.734 "/>
<polygon fill="#58B947" points="29.277,40.02 7.192,43.197 7.192,22.745 29.277,27.492 "/>
<polygon fill="#80C34E" points="29.277,40.02 28.836,40.083 23.595,26.271 29.277,27.492 "/>
<polygon fill="#4FA546" points="24.719,40.531 7.192,43.197 7.192,22.745 15.362,24.501 "/>
<polygon fill="#58B947" points="31.919,50.485 5.001,47.14 5.001,43.817 31.919,39.874 "/>
<polygon fill="#80C34E" points="31.919,50.485 30.846,50.352 26.908,40.608 31.919,39.874 "/>
<polygon fill="#4FA546" points="24.288,49.537 5.001,47.14 5.001,43.817 19.421,41.705 "/>
<polygon fill="#9C8A31" points="14.751,48.352 20.338,49.046 20.338,53.604 14.751,53.604 "/>
<polygon fill="#8F7F30" points="14.751,48.352 16.486,48.567 20.338,53.604 17.544,54.199 14.751,53.604 "/>
</svg>
