<?xml version="1.0" encoding="utf-8"?>
<!-- Generator: Adobe Illustrator 17.1.0, SVG Export Plug-In . SVG Version: 6.00 Build 0)  -->
<!DOCTYPE svg PUBLIC "-//W3C//DTD SVG 1.1//EN" "http://www.w3.org/Graphics/SVG/1.1/DTD/svg11.dtd">
<svg version="1.1" id="Layer_1" xmlns="http://www.w3.org/2000/svg" xmlns:xlink="http://www.w3.org/1999/xlink" x="0px" y="0px"
	 width="51.09px" height="84.586px" viewBox="0 0 51.09 84.586" enable-background="new 0 0 51.09 84.586" xml:space="preserve">
<polygon fill="#E4E5E6" points="24.398,84.586 5.953,82.505 23.248,80.424 44.897,83.397 "/>
<polygon fill="#58B947" points="34.529,20.37 16.544,23.491 16.544,6.324 34.529,12.009 "/>
<polygon fill="#80C34E" points="34.529,20.37 33.902,20.478 29.739,10.495 34.529,12.009 "/>
<polygon fill="#4FA546" points="29.171,21.3 16.544,23.491 16.544,6.324 22.838,8.314 "/>
<polygon fill="#58B947" points="31.274,10.624 20.078,6.993 26.283,0 "/>
<polygon fill="#80C34E" points="31.274,10.624 29.677,10.106 26.283,0 "/>
<polygon fill="#4FA546" points="25.926,8.89 20.078,6.993 23.437,3.207 "/>
<polygon fill="#58B947" points="37.942,40.575 10.854,34.829 10.854,24.857 37.942,20.175 "/>
<polygon fill="#80C34E" points="37.942,40.575 37.373,40.454 32.611,21.096 37.942,20.175 "/>
<polygon fill="#4FA546" points="33.383,39.608 10.854,34.829 10.854,24.857 24.553,22.489 "/>
<polygon fill="#58B947" points="42.056,61.086 8.346,65.935 8.346,34.718 42.056,41.964 "/>
<polygon fill="#80C34E" points="42.056,61.086 41.383,61.183 33.383,40.1 42.056,41.964 "/>
<polygon fill="#4FA546" points="35.099,61.866 8.346,65.935 8.346,34.718 20.816,37.398 "/>
<polygon fill="#58B947" points="46.089,77.06 5.001,71.955 5.001,66.883 46.089,60.863 "/>
<polygon fill="#80C34E" points="46.089,77.06 44.451,76.857 38.44,61.984 46.089,60.863 "/>
<polygon fill="#4FA546" points="34.441,75.613 5.001,71.955 5.001,66.883 27.012,63.658 "/>
<polygon fill="#9C8A31" points="19.883,73.804 28.411,74.863 28.411,81.82 19.883,81.82 "/>
<polygon fill="#8F7F30" points="19.883,73.804 22.532,74.133 28.411,81.82 24.147,82.728 19.883,81.82 "/>
</svg>
