<?xml version="1.0" encoding="utf-8"?>
<!-- Generator: Adobe Illustrator 17.1.0, SVG Export Plug-In . SVG Version: 6.00 Build 0)  -->
<!DOCTYPE svg PUBLIC "-//W3C//DTD SVG 1.1//EN" "http://www.w3.org/Graphics/SVG/1.1/DTD/svg11.dtd">
<svg version="1.1" id="Layer_1" xmlns="http://www.w3.org/2000/svg" xmlns:xlink="http://www.w3.org/1999/xlink" x="0px" y="0px"
	 width="71.57px" height="126.746px" viewBox="0 0 71.57 126.746" enable-background="new 0 0 71.57 126.746" xml:space="preserve">
<polygon fill="#E4E5E6" points="34.066,126.746 6.428,123.627 32.344,120.509 64.782,124.964 "/>
<polygon fill="#58B947" points="49.247,30.522 22.298,35.199 22.298,9.476 49.247,17.995 "/>
<polygon fill="#80C34E" points="49.247,30.522 48.308,30.685 42.069,15.726 49.247,17.995 "/>
<polygon fill="#4FA546" points="41.218,31.916 22.298,35.199 22.298,9.476 31.729,12.457 "/>
<polygon fill="#58B947" points="44.369,15.919 27.593,10.478 36.891,0 "/>
<polygon fill="#80C34E" points="44.369,15.919 41.976,15.143 36.891,0 "/>
<polygon fill="#4FA546" points="36.356,13.32 27.593,10.478 32.627,4.805 "/>
<polygon fill="#58B947" points="54.361,60.798 13.771,52.189 13.771,37.246 54.361,30.231 "/>
<polygon fill="#80C34E" points="54.361,60.798 53.508,60.617 46.373,31.611 54.361,30.231 "/>
<polygon fill="#4FA546" points="47.53,59.349 13.771,52.189 13.771,37.246 34.298,33.698 "/>
<polygon fill="#58B947" points="60.525,91.532 10.013,98.798 10.013,52.022 60.525,62.88 "/>
<polygon fill="#80C34E" points="60.525,91.532 59.517,91.677 47.53,60.086 60.525,62.88 "/>
<polygon fill="#4FA546" points="50.101,92.701 10.013,98.798 10.013,52.022 28.699,56.039 "/>
<polygon fill="#58B947" points="66.568,115.468 5.002,107.818 5.002,100.218 66.568,91.198 "/>
<polygon fill="#80C34E" points="66.568,115.468 64.114,115.163 55.107,92.877 66.568,91.198 "/>
<polygon fill="#4FA546" points="49.114,113.299 5.002,107.818 5.002,100.218 37.983,95.386 "/>
<polygon fill="#9C8A31" points="27.301,110.589 40.079,112.177 40.079,122.6 27.301,122.6 "/>
<polygon fill="#8F7F30" points="27.301,110.589 31.271,111.082 40.079,122.6 33.69,123.962 27.301,122.6 "/>
</svg>
