<?xml version="1.0" encoding="utf-8"?>
<!-- Generator: Adobe Illustrator 17.0.0, SVG Export Plug-In . SVG Version: 6.00 Build 0)  -->
<!DOCTYPE svg PUBLIC "-//W3C//DTD SVG 1.1//EN" "http://www.w3.org/Graphics/SVG/1.1/DTD/svg11.dtd">
<svg version="1.1" id="Layer_1" xmlns="http://www.w3.org/2000/svg" xmlns:xlink="http://www.w3.org/1999/xlink" x="0px" y="0px"
	 width="48.79px" height="81.487px" viewBox="0 0 48.79 81.487" enable-background="new 0 0 48.79 81.487" xml:space="preserve">
<rect x="4.998" y="33.554" fill="#775522" width="29.233" height="17.51"/>
<polygon fill="#563114" points="4.998,33.554 4.998,51.063 34.231,33.554 "/>
<rect x="27.653" y="19.976" fill="#563114" width="15.85" height="8.016"/>
<polygon fill="#775522" points="43.504,27.991 43.504,19.976 27.653,27.991 "/>
<ellipse fill="#FFFFFF" cx="35.842" cy="22.774" rx="1.075" ry="1.125"/>
<ellipse cx="35.842" cy="22.774" rx="0.252" ry="0.264"/>
<path fill="#FFFFFF" d="M43.792,25.449c0,0.307-0.238,0.557-0.532,0.557h-2.085c-0.294,0-0.532-0.249-0.532-0.557
	s0.238-0.557,0.532-0.557h2.085C43.554,24.892,43.792,25.141,43.792,25.449z"/>
<rect x="7.925" y="50.957" width="0.62" height="28.252"/>
<rect x="31.462" y="50.957" width="0.62" height="28.252"/>
<rect x="31.462" y="28.164" width="0.62" height="5.847"/>
<polygon fill="#563114" points="11.23,81.487 7.098,81.487 7.098,79.209 9.991,79.209 "/>
<polygon fill="#563114" points="34.148,81.487 30.016,81.487 30.016,79.209 32.908,79.209 "/>
<path d="M28.592,13.439H14.769c-2.152,0-3.896-1.826-3.896-4.079V5.441h21.616V9.36C32.489,11.613,30.744,13.439,28.592,13.439z"/>
<path d="M15.004,5.447h-4.132V2.141C10.872,0.959,11.788,0,12.917,0h0.041c1.13,0,2.045,0.959,2.045,2.141V5.447z"/>
<path d="M20.754,5.447h-4.132V2.141C16.623,0.959,17.538,0,18.668,0h0.041c1.13,0,2.045,0.959,2.045,2.141V5.447z"/>
<path d="M26.561,5.447h-4.132V2.141C22.429,0.959,23.345,0,24.474,0h0.041c1.13,0,2.045,0.959,2.045,2.141V5.447z"/>
<path d="M32.489,5.447h-4.132V2.141C28.357,0.959,29.273,0,30.402,0h0.041c1.13,0,2.045,0.959,2.045,2.141V5.447z"/>
<path d="M25.283,12.743v1.405c0.002,1.195,0.931,2.192,2.12,2.195h2.75c0.304,0,0.577,0.127,0.784,0.342
	c0.206,0.216,0.336,0.515,0.336,0.854v2.437h1l0-2.437c-0.002-1.195-0.931-2.192-2.119-2.196h-2.75
	c-0.304,0-0.577-0.127-0.784-0.342c-0.206-0.216-0.336-0.515-0.336-0.854v-1.405H25.283L25.283,12.743z"/>
</svg>
