<?xml version="1.0" encoding="utf-8"?>
<!-- Generator: Adobe Illustrator 17.1.0, SVG Export Plug-In . SVG Version: 6.00 Build 0)  -->
<!DOCTYPE svg PUBLIC "-//W3C//DTD SVG 1.1//EN" "http://www.w3.org/Graphics/SVG/1.1/DTD/svg11.dtd">
<svg version="1.1" id="Layer_1" xmlns="http://www.w3.org/2000/svg" xmlns:xlink="http://www.w3.org/1999/xlink" x="0px" y="0px"
	 width="50.92px" height="82.1px" viewBox="0 0 50.92 82.1" enable-background="new 0 0 50.92 82.1" xml:space="preserve">
<rect x="4.999" y="33.806" fill="#3FA4DC" width="30.836" height="17.642"/>
<polygon fill="#71CBCF" points="35.836,51.448 35.836,33.806 4.999,51.448 "/>
<rect x="28.897" y="20.126" fill="#3FA4DC" width="16.72" height="8.076"/>
<polygon fill="#71CBCF" points="45.617,28.202 45.617,20.126 28.897,28.202 "/>
<circle fill="#FFFFFF" cx="37.535" cy="22.945" r="1.134"/>
<circle cx="37.535" cy="22.945" r="0.266"/>
<path fill="#FFFFFF" d="M45.921,25.64c0,0.31-0.251,0.561-0.561,0.561h-2.199c-0.31,0-0.561-0.251-0.561-0.561
	c0-0.31,0.251-0.561,0.561-0.561h2.199C45.67,25.079,45.921,25.331,45.921,25.64z"/>
<rect x="8.086" y="51.341" width="0.654" height="28.465"/>
<rect x="32.915" y="51.341" width="0.654" height="28.465"/>
<rect x="32.915" y="28.376" width="0.654" height="5.891"/>
<polygon fill="#71CBCF" points="11.573,82.1 7.215,82.1 7.215,79.805 10.265,79.805 "/>
<polygon fill="#71CBCF" points="35.748,82.1 31.389,82.1 31.389,79.805 34.44,79.805 "/>
<path d="M29.888,13.541H15.305c-2.27,0-4.11-1.84-4.11-4.11V5.482h22.802V9.43C33.998,11.7,32.157,13.541,29.888,13.541z"/>
<path d="M15.554,5.488h-4.358v-3.33C11.195,0.966,12.161,0,13.353,0h0.044c1.191,0,2.157,0.966,2.157,2.157V5.488z"/>
<path d="M21.62,5.488h-4.358v-3.33C17.261,0.966,18.227,0,19.419,0h0.044c1.192,0,2.157,0.966,2.157,2.157V5.488z"/>
<path d="M27.745,5.488h-4.358v-3.33C23.386,0.966,24.352,0,25.544,0h0.044c1.191,0,2.157,0.966,2.157,2.157V5.488z"/>
<path d="M33.998,5.488h-4.358v-3.33C29.639,0.966,30.605,0,31.797,0h0.044c1.192,0,2.157,0.966,2.157,2.157V5.488z"/>
<path d="M23.424,12.839v1.415c-0.002,1.427,0.588,2.751,1.525,3.683c0.931,0.937,2.256,1.527,3.683,1.525h2.901V17.67l-1.267,1.267
	c0.313,0.319,0.783,0.526,1.267,0.525V17.67l-1.267,1.267l1.267-1.267h-1.792c-0.002,0.484,0.206,0.954,0.525,1.267l1.267-1.267
	h-1.792v2.455h7l0-2.455c0.002-1.427-0.588-2.751-1.525-3.683c-0.931-0.937-2.256-1.527-3.683-1.525h-2.901v1.792l1.267-1.267
	c-0.313-0.319-0.783-0.527-1.267-0.525v1.792l1.267-1.267l-1.267,1.267l1.792,0c0.002-0.484-0.206-0.954-0.525-1.267l-1.267,1.267
	l1.792,0v-1.415H23.424L23.424,12.839z"/>
</svg>
