<?xml version="1.0" encoding="utf-8"?>
<!-- Generator: Adobe Illustrator 17.0.0, SVG Export Plug-In . SVG Version: 6.00 Build 0)  -->
<!DOCTYPE svg PUBLIC "-//W3C//DTD SVG 1.1//EN" "http://www.w3.org/Graphics/SVG/1.1/DTD/svg11.dtd">
<svg version="1.1" id="Layer_1" xmlns="http://www.w3.org/2000/svg" xmlns:xlink="http://www.w3.org/1999/xlink" x="0px" y="0px"
	 width="142.09px" height="31.297px" viewBox="0 0 142.09 31.297" enable-background="new 0 0 142.09 31.297" xml:space="preserve">
<path fill="#8F5A25" d="M137.091,16.969l-0.011,0.113l-0.013,0.046c-0.627,1.969-12.774,3.689-30.821,4.674
	c-10.189,0.557-22.26,0.878-35.2,0.878c-35.893,0-65.098-2.476-66.025-5.56L5.01,17.082l-0.011-0.113
	c0-2.536,19.103-4.684,45.541-5.429c6.455-0.182,13.348-0.281,20.505-0.281C107.521,11.259,137.091,13.815,137.091,16.969"/>
<path fill="#784A1F" d="M137.091,16.969l-0.011,0.113l-0.013,0.046c-0.458,1.592-7.63,4.375-19.014,6.81
	c-11.976,2.56-28.614,4.733-47.008,4.733c-35.909,0-65.122-8.285-66.025-11.552L5.01,17.082l-0.011-0.113
	c4.024,1.761,29.57,5.186,66.046,5.186c11.609,0,22.171-0.438,31.287-1.063C121.86,19.753,134.756,17.555,137.091,16.969"/>
<path fill="#815223" d="M50.54,11.54L50.54,11.54c-26.438,0.746-45.541,2.894-45.541,5.429l0,0
	c4.024,1.761,29.57,5.186,66.046,5.186c11.609,0,22.171-0.438,31.287-1.063l0,0l0,0C86.21,18.163,66.564,14.562,50.54,11.54"/>
<path fill="#6E451E" d="M4.999,16.969l0.011,0.113L5.02,17.12c0.903,3.266,30.116,11.552,66.025,11.552
	c18.394,0,35.032-2.174,47.008-4.733c-3.502-0.631-7.495-1.354-11.808-2.136c-1.277-0.231-2.583-0.469-3.913-0.711l0,0
	c-9.116,0.625-19.678,1.063-31.287,1.063C34.568,22.155,9.023,18.731,4.999,16.969"/>
<ellipse fill="#69411B" cx="68.476" cy="16.146" rx="9.781" ry="2.166"/>
<polygon fill="#503017" points="86.116,26.991 45.445,5.532 46.036,4.306 86.706,25.765 "/>
<path fill="#503017" d="M93.781,30.104c-0.515,1.069-1.759,1.499-2.78,0.96L85.6,28.215c-1.021-0.539-1.432-1.842-0.917-2.911
	s1.759-1.499,2.78-0.96l5.401,2.849C93.885,27.732,94.296,29.035,93.781,30.104z"/>
<path fill="#503017" d="M48.084,5.993c-0.515,1.069-1.759,1.499-2.78,0.96l-5.401-2.849c-1.021-0.539-1.432-1.842-0.917-2.911
	s1.759-1.499,2.78-0.96l5.401,2.849C48.188,3.621,48.598,4.924,48.084,5.993z"/>
</svg>
