<?xml version="1.0" encoding="utf-8"?>
<!-- Generator: Adobe Illustrator 17.0.0, SVG Export Plug-In . SVG Version: 6.00 Build 0)  -->
<!DOCTYPE svg PUBLIC "-//W3C//DTD SVG 1.1//EN" "http://www.w3.org/Graphics/SVG/1.1/DTD/svg11.dtd">
<svg version="1.1" id="Layer_1" xmlns="http://www.w3.org/2000/svg" xmlns:xlink="http://www.w3.org/1999/xlink" x="0px" y="0px"
	 width="138.19px" height="31.343px" viewBox="0 0 138.19 31.343" enable-background="new 0 0 138.19 31.343" xml:space="preserve">
<path fill="#76C043" d="M133.191,31.343c-0.268-11.413-9.604-20.583-21.081-20.583c-11.477,0-20.813,9.17-21.081,20.583H133.191"/>
<path fill="#60BB46" d="M111.998,10.763c-5.712,0.03-10.887,2.33-14.667,6.045c2.357,4.339,3.742,9.28,3.865,14.535H91.029l0,0
	h20.969V10.763"/>
<path fill="#76C043" d="M101.196,31.343C100.788,13.963,86.572,0,69.095,0C51.617,0,37.402,13.963,36.994,31.343H101.196"/>
<path fill="#76C043" d="M47.16,31.343c-0.268-11.413-9.603-20.583-21.081-20.583S5.266,19.929,4.999,31.343H47.16"/>
<path fill="#60BB46" d="M68.967,0.003C56.828,0.051,46.278,6.832,40.86,16.807c3.781,3.716,6.167,8.847,6.3,14.536h21.807V0.003"/>
<path fill="#60BB46" d="M40.86,16.807c-2.357,4.338-3.743,9.281-3.866,14.536H47.16C47.027,25.654,44.641,20.523,40.86,16.807"/>
<path fill="#60BB46" d="M25.967,10.763C14.564,10.822,5.302,19.931,5,31.276C5,31.298,4.999,31.32,4.999,31.343h20.969V10.763"/>
</svg>
