<?xml version="1.0" encoding="utf-8"?>
<!-- Generator: Adobe Illustrator 17.0.0, SVG Export Plug-In . SVG Version: 6.00 Build 0)  -->
<!DOCTYPE svg PUBLIC "-//W3C//DTD SVG 1.1//EN" "http://www.w3.org/Graphics/SVG/1.1/DTD/svg11.dtd">
<svg version="1.1" id="Layer_1" xmlns="http://www.w3.org/2000/svg" xmlns:xlink="http://www.w3.org/1999/xlink" x="0px" y="0px"
	 width="46.63px" height="24.285px" viewBox="0 0 46.63 24.285" enable-background="new 0 0 46.63 24.285" xml:space="preserve">
<path opacity="0.2" fill="#231F20" d="M34.404,8.563c-0.234,0-0.484,0.012-0.748,0.032l0,0l-3.846,2.483
	c0.989,0.638,2.703,1.744,2.703,1.744s3.503-1.539,3.711-2.84C36.399,8.889,35.632,8.563,34.404,8.563"/>
<path fill="#553E28" d="M41.119,22.582c-0.257,0.438-0.591,0.797-0.971,1.071c-0.574,0.413-1.254,0.632-1.945,0.632
	c-0.612,0-1.232-0.172-1.792-0.533L9.943,6.677C8.864,5.981,8.283,4.76,8.317,3.523c0.016-0.608,0.18-1.22,0.507-1.775
	C8.897,1.626,8.975,1.51,9.059,1.4c0.405-0.537,0.937-0.925,1.522-1.144l0.004-0.001c0.371-0.138,0.762-0.21,1.157-0.21
	c0.612,0,1.232,0.173,1.791,0.533l0.012,0.008l0.505,0.325l0.001,0.002L40,17.653C41.61,18.69,42.11,20.897,41.119,22.582"/>
<path fill="#453020" d="M41.472,20.713c0,1.928-1.435,3.49-3.206,3.49s-3.206-1.563-3.206-3.49s1.435-3.49,3.206-3.49
	C40.036,17.223,41.472,18.786,41.472,20.713"/>
<path fill="#453020" d="M14.961,3.425c0,1.155-0.582,2.173-1.467,2.773c-0.53,0.361-1.168,0.57-1.856,0.57
	c-0.793,0-1.52-0.279-2.092-0.745c-0.727-0.594-1.201-1.491-1.229-2.5L8.316,3.425c0-0.781,0.265-1.497,0.71-2.066
	c0.396-0.506,0.934-0.894,1.555-1.104l0.004-0.001c0.331-0.112,0.686-0.172,1.054-0.172c0.446,0,0.87,0.088,1.258,0.248
	c0.906,0.373,1.612,1.136,1.91,2.083c0.057,0.182,0.099,0.37,0.125,0.564C14.951,3.123,14.961,3.273,14.961,3.425"/>
<path fill="#553E28" d="M15.394,3.706c0,1.927-1.498,3.49-3.345,3.49c-1.848,0-3.346-1.562-3.346-3.49
	c0-1.927,1.498-3.489,3.346-3.489C13.896,0.217,15.394,1.779,15.394,3.706"/>
<path fill="#694C32" d="M15.221,2.597c0.064,0.199,0.111,0.405,0.14,0.618c0.723,0.393,1.646,0.862,2.172,1.163
	c0.855,0.488,1.593,1.79,2.993,2.39c0.552,0.237,1.067,0.567,1.534,0.897l0.355-0.229c-0.179-0.105-0.345-0.188-0.491-0.24
	c-0.661-0.234-1.671-1.19-2.798-2.078C18.139,4.341,16.078,3.109,15.221,2.597"/>
<path fill="#694C32" d="M14.594,2.404c-0.221,0-0.43,0.04-0.209,0.225c0.15,0.125,0.524,0.341,0.976,0.587
	c-0.029-0.213-0.076-0.42-0.14-0.618c-0.121-0.073-0.219-0.13-0.285-0.171C14.936,2.427,14.762,2.404,14.594,2.404"/>
<path fill="#694C32" d="M27.068,12.849L26.54,13.19c0.267,0.183,0.54,0.371,0.814,0.534c0.846,0.428,1.679,0.868,2.486,1.314
	c-0.286-0.307-0.575-0.621-0.798-0.692c-0.389-0.122-0.933-0.814-1.593-1.257C27.345,13.02,27.216,12.939,27.068,12.849
	 M19.175,8.595c-0.255,0-0.121,0.354,0.244,0.775l0.659-0.425c-0.266-0.123-0.497-0.225-0.675-0.294
	C19.307,8.612,19.232,8.595,19.175,8.595"/>
<path fill="#4E3925" d="M26.43,13.261l-3.139,2.027l13.121,8.464c0.56,0.361,1.18,0.533,1.792,0.533
	c0.691,0,1.371-0.219,1.945-0.632l-0.054-0.072c-0.519,0.393-1.149,0.623-1.829,0.623c-1.771,0-3.206-1.563-3.206-3.49
	c0-0.721,0.201-1.391,0.545-1.947c-1.521-1.223-3.54-2.497-5.763-3.728c0,0,0,0-0.001,0c0.21,0.226,0.42,0.449,0.601,0.57
	c0.142,0.095,0.138,0.126,0.065,0.126c-0.147,0-0.57-0.126-0.648-0.126c-0.116,0-1.127-1.221-2.021-1.628
	c-0.16-0.073-0.322-0.161-0.483-0.257c-0.001-0.001-0.002-0.001-0.003-0.002C27.045,13.567,26.738,13.413,26.43,13.261 M8.317,3.523
	L8.317,3.523C8.316,3.562,8.316,3.6,8.316,3.639C8.32,4.836,8.898,6.003,9.943,6.677l6.827,4.404l1.934-1.249
	c-1.637-0.717-3.268-1.902-4.773-3.24l0,0c-0.536,0.381-1.184,0.604-1.882,0.604c-0.996,0-1.89-0.454-2.503-1.174
	C8.819,5.429,8.346,4.532,8.317,3.523"/>
<path fill="#453121" d="M35.604,18.766c-0.344,0.556-0.545,1.226-0.545,1.947c0,1.928,1.435,3.49,3.206,3.49
	c0.68,0,1.31-0.23,1.829-0.623v-0.001c-0.737-0.965-1.762-2.192-3.119-3.585C36.584,19.594,36.123,19.183,35.604,18.766
	L35.604,18.766"/>
<path fill="#453121" d="M9.026,1.359L9.026,1.359c-0.445,0.569-0.71,1.286-0.71,2.066l0.002,0.098l0,0l0,0
	c0.028,1.009,0.502,1.906,1.229,2.5C9.022,5.406,8.703,4.595,8.703,3.706c0-0.745,0.224-1.435,0.605-2.001
	C9.223,1.602,9.14,1.5,9.059,1.4L9.026,1.359"/>
<path fill="#4E3925" d="M9.308,1.705C8.927,2.272,8.703,2.962,8.703,3.706c0,0.889,0.318,1.7,0.843,2.316
	c0.613,0.72,1.507,1.174,2.503,1.174c0.698,0,1.345-0.223,1.882-0.604c-0.147-0.129-0.292-0.261-0.436-0.394
	C11.883,4.711,10.435,3.078,9.308,1.705L9.308,1.705"/>
<path fill="#59412B" d="M27.354,13.724c0.161,0.096,0.323,0.184,0.483,0.257c0.894,0.407,1.905,1.628,2.021,1.628
	c0.078,0,0.501,0.126,0.648,0.126c0.073,0,0.078-0.032-0.065-0.126c-0.181-0.121-0.39-0.344-0.601-0.57
	C29.033,14.592,28.2,14.152,27.354,13.724"/>
<path fill="#553E28" d="M37.814,1.702c0.258,0.437,0.415,0.911,0.478,1.389c0.095,0.722-0.024,1.457-0.334,2.103
	c-0.275,0.573-0.7,1.076-1.26,1.437L10.235,23.717c-1.078,0.697-2.381,0.691-3.422,0.103c-0.511-0.288-0.96-0.717-1.286-1.272
	c-0.072-0.122-0.136-0.247-0.192-0.375c-0.277-0.62-0.368-1.291-0.293-1.937v-0.005c0.049-0.409,0.163-0.807,0.341-1.176
	c0.275-0.573,0.701-1.075,1.26-1.436l0.012-0.008l0.505-0.326l0.002-0.001l25.944-16.75C34.714-0.505,36.822,0.018,37.814,1.702"/>
<path fill="#453020" d="M9.715,17.561c0.985,0.519,1.592,1.521,1.707,2.618c0.069,0.658-0.038,1.349-0.347,1.992
	c-0.356,0.742-0.921,1.297-1.576,1.621c-0.833,0.414-1.812,0.453-2.686,0.027l-0.084-0.042c-0.666-0.35-1.159-0.921-1.444-1.593
	c-0.254-0.599-0.344-1.276-0.243-1.95v-0.005c0.054-0.36,0.162-0.718,0.327-1.063c0.2-0.417,0.466-0.774,0.777-1.065
	c0.725-0.68,1.694-0.997,2.635-0.851c0.18,0.029,0.361,0.073,0.537,0.136C9.453,17.435,9.585,17.493,9.715,17.561"/>
<path fill="#553E28" d="M10.15,17.283c1.644,0.866,2.304,2.969,1.474,4.697s-2.836,2.427-4.481,1.561
	c-1.644-0.866-2.304-2.969-1.474-4.697C6.499,17.116,8.505,16.417,10.15,17.283"/>
<path fill="#694C32" d="M19.005,10.928c-0.045,0-0.167,0.059-0.394,0.197c-0.8,0.49-2.053,1.105-2.55,1.618
	c-0.496,0.513-1.766,1.028-3.03,1.684c-1.107,0.574-3.084,1.948-3.906,2.519c0.198,0.03,0.396,0.078,0.59,0.147
	c0.66-0.5,1.475-1.152,1.968-1.509c0.801-0.58,2.244-0.686,3.384-1.725c1.141-1.039,2.689-1.59,3.264-2.152
	C18.744,11.303,19.12,10.928,19.005,10.928"/>
<path fill="#694C32" d="M9.125,16.946c-0.116,0.081-0.21,0.146-0.274,0.19c0,0-0.412,0.643-0.195,0.643
	c0.028,0,0.068-0.011,0.12-0.036c0.174-0.084,0.526-0.337,0.939-0.649C9.521,17.024,9.324,16.976,9.125,16.946"/>
<path fill="#694C32" d="M26.309,8.863c-0.391,0.129-0.788,0.258-0.948,0.436c-0.279,0.309-1.113,0.507-1.789,0.925
	c-0.676,0.418-2.266,1.63-3,2.064c-0.733,0.434-3.544,2.635-4.402,3.466c-0.28,0.271-0.193,0.401,0.089,0.401
	c0.423,0,1.286-0.296,1.996-0.852c1.182-0.926,3.241-2.757,3.794-3.331c0.453-0.472,1.315-0.882,2.023-1.375
	C24.816,9.999,25.566,9.417,26.309,8.863"/>
<path fill="#4E3925" d="M38.292,3.092L38.206,3.11c-1.155,0.256-2.662,0.663-4.46,1.307c-0.518,0.185-1.076,0.432-1.665,0.73
	C30.354,6.02,28.36,7.336,26.31,8.862l-0.001,0.001c0.288-0.095,0.572-0.191,0.757-0.306c0.069-0.043,0.111-0.062,0.132-0.062
	c0.112,0-0.35,0.515-0.395,0.607c-0.052,0.109-1.548,0.505-2.297,1.159c-0.134,0.117-0.282,0.229-0.436,0.336
	c-0.001,0.001-0.002,0.001-0.003,0.002c-2.469,1.978-4.902,4.14-6.93,6.086c-1.38,1.325-3.24,2.401-5.183,3.263c0,0,0,0-0.001,0
	c0.084,0.673-0.017,1.379-0.33,2.031c-0.448,0.932-1.237,1.564-2.127,1.814c-0.432,0.214-0.904,0.328-1.38,0.328
	c-0.44,0-0.884-0.097-1.304-0.302c0.5,0.283,1.062,0.431,1.629,0.431c0.613,0,1.233-0.172,1.792-0.534L36.697,6.631
	c0.56-0.361,0.985-0.864,1.26-1.437c0.242-0.504,0.368-1.064,0.366-1.628C38.323,3.408,38.313,3.25,38.292,3.092L38.292,3.092"/>
<path fill="#453121" d="M5.707,22.076c-0.126,0.033-0.25,0.065-0.373,0.096l-0.049,0.013c0.285,0.672,0.778,1.242,1.444,1.593
	l0.084,0.042l0,0c0.42,0.205,0.864,0.302,1.304,0.302c0.476,0,0.947-0.114,1.38-0.328c-0.28,0.078-0.57,0.119-0.863,0.119
	c-0.502,0-1.012-0.119-1.49-0.372C6.508,23.207,6.02,22.687,5.707,22.076"/>
<path fill="#4E3925" d="M11.954,19.949c-0.177,0.079-0.354,0.156-0.532,0.23c-1.993,0.84-4.037,1.46-5.714,1.897c0,0,0,0-0.001,0
	c0.312,0.611,0.801,1.13,1.436,1.465c0.479,0.252,0.988,0.372,1.49,0.372c0.293,0,0.583-0.041,0.863-0.119
	c0.89-0.25,1.68-0.882,2.127-1.814C11.938,21.328,12.039,20.622,11.954,19.949"/>
<path fill="#59412B" d="M27.198,8.495c-0.021,0-0.063,0.018-0.132,0.062c-0.185,0.115-0.469,0.211-0.757,0.306
	c-0.743,0.555-1.493,1.136-2.238,1.735c0.155-0.108,0.302-0.219,0.436-0.336c0.749-0.653,2.244-1.05,2.297-1.159
	C26.848,9.01,27.311,8.495,27.198,8.495"/>
</svg>
