<?xml version="1.0" encoding="utf-8"?>
<!-- Generator: Adobe Illustrator 17.0.0, SVG Export Plug-In . SVG Version: 6.00 Build 0)  -->
<!DOCTYPE svg PUBLIC "-//W3C//DTD SVG 1.1//EN" "http://www.w3.org/Graphics/SVG/1.1/DTD/svg11.dtd">
<svg version="1.1" id="Layer_1" xmlns="http://www.w3.org/2000/svg" xmlns:xlink="http://www.w3.org/1999/xlink" x="0px" y="0px"
	 width="150.26px" height="32.622px" viewBox="0 0 150.26 32.622" enable-background="new 0 0 150.26 32.622" xml:space="preserve">
<path fill="#00A348" d="M31.888,32.621c-0.171-7.278-6.124-13.125-13.443-13.125S5.173,25.344,5.002,32.621H31.888z"/>
<path fill="#00A348" d="M137.933,32.622c-0.36-15.315-12.886-27.619-28.287-27.619c-15.401,0-27.928,12.304-28.287,27.619H137.933"
	/>
<path fill="#76C043" d="M111.486,32.622C111.061,14.533,96.266,0,78.075,0C59.885,0,45.089,14.533,44.665,32.622H111.486"/>
<path fill="#76C043" d="M57.133,32.622c-0.225-9.576-8.058-17.27-17.688-17.27c-9.63,0-17.463,7.694-17.688,17.27H57.133"/>
<path fill="#76C043" d="M145.258,32.622c-0.225-9.576-8.058-17.27-17.688-17.27c-9.63,0-17.463,7.694-17.688,17.27H145.258"/>
<path fill="#60BB46" d="M77.968,0.002c-12.787,0.04-23.882,7.26-29.467,17.84c5.059,3.021,8.484,8.495,8.632,14.78h20.835V0.002"/>
<path fill="#60BB46" d="M48.501,17.842c-2.339,4.431-3.711,9.451-3.836,14.78h12.468C56.985,26.337,53.56,20.862,48.501,17.842"/>
<path fill="#60BB46" d="M109.903,32.063c-0.009,0.159-0.015,0.32-0.02,0.48C109.888,32.383,109.895,32.222,109.903,32.063
	 M109.947,31.453c-0.018,0.202-0.033,0.404-0.044,0.608C109.915,31.858,109.929,31.655,109.947,31.453 M109.963,31.288
	c-0.005,0.054-0.01,0.109-0.015,0.163C109.952,31.396,109.957,31.342,109.963,31.288 M109.968,31.233
	c-0.002,0.018-0.004,0.036-0.005,0.055C109.965,31.27,109.966,31.252,109.968,31.233 M109.974,31.179
	c-0.002,0.015-0.003,0.029-0.005,0.044C109.971,31.208,109.972,31.194,109.974,31.179 M109.98,31.124
	c-0.001,0.013-0.003,0.025-0.004,0.038C109.977,31.149,109.978,31.136,109.98,31.124 M109.986,31.069
	c-0.002,0.014-0.003,0.028-0.005,0.041C109.983,31.096,109.984,31.083,109.986,31.069 M109.992,31.014
	c-0.001,0.012-0.003,0.025-0.004,0.037C109.989,31.039,109.99,31.027,109.992,31.014 M109.998,30.96
	c-0.001,0.012-0.003,0.025-0.004,0.036C109.995,30.984,109.997,30.972,109.998,30.96 M110.005,30.905
	c-0.001,0.011-0.002,0.021-0.004,0.032C110.002,30.927,110.003,30.916,110.005,30.905 M110.011,30.851
	c-0.001,0.01-0.002,0.019-0.004,0.029C110.009,30.87,110.01,30.86,110.011,30.851 M110.018,30.796
	c-0.001,0.01-0.003,0.021-0.004,0.031C110.016,30.817,110.017,30.807,110.018,30.796 M110.025,30.742
	c-0.001,0.009-0.002,0.018-0.004,0.027C110.023,30.76,110.024,30.751,110.025,30.742 M110.032,30.688
	c-0.001,0.007-0.002,0.014-0.003,0.021C110.03,30.702,110.031,30.695,110.032,30.688 M110.04,30.634
	c-0.001,0.006-0.001,0.011-0.002,0.017C110.038,30.645,110.039,30.639,110.04,30.634 M110.047,30.579
	c-0.001,0.007-0.002,0.014-0.003,0.022C110.045,30.593,110.046,30.586,110.047,30.579 M110.055,30.525
	c-0.001,0.006-0.002,0.011-0.002,0.017C110.053,30.536,110.054,30.531,110.055,30.525 M110.062,30.471
	c0,0.003-0.001,0.005-0.001,0.008C110.062,30.477,110.062,30.474,110.062,30.471 M110.07,30.417c0,0.003-0.001,0.007-0.001,0.01
	C110.069,30.424,110.07,30.42,110.07,30.417 M110.078,30.363c0,0.002-0.001,0.005-0.001,0.008
	C110.078,30.369,110.078,30.365,110.078,30.363 M110.087,30.309c0,0.002,0,0.003-0.001,0.005
	C110.086,30.312,110.087,30.311,110.087,30.309 M110.095,30.255c0,0.001,0,0.002,0,0.002
	C110.095,30.257,110.095,30.256,110.095,30.255 M110.104,30.201c0,0.002,0,0.003-0.001,0.005
	C110.103,30.204,110.104,30.203,110.104,30.201 M110.113,30.148L110.113,30.148L110.113,30.148"/>
<path fill="#60BB46" d="M127.526,15.353c-8.766,0.021-16.033,6.416-17.413,14.795l0,0c-0.003,0.018-0.006,0.036-0.009,0.053
	c0,0.002,0,0.003-0.001,0.005c-0.003,0.016-0.005,0.033-0.008,0.049c0,0.001,0,0.002,0,0.002c-0.003,0.017-0.005,0.034-0.008,0.052
	c0,0.002,0,0.003-0.001,0.005c-0.003,0.016-0.005,0.033-0.008,0.049c0,0.002-0.001,0.005-0.001,0.008
	c-0.002,0.016-0.005,0.03-0.007,0.046c0,0.003-0.001,0.007-0.001,0.01c-0.002,0.015-0.004,0.029-0.007,0.045
	c0,0.002-0.001,0.006-0.001,0.008c-0.002,0.015-0.005,0.031-0.007,0.046c-0.001,0.006-0.002,0.011-0.002,0.017
	c-0.002,0.012-0.004,0.025-0.005,0.037c-0.001,0.007-0.002,0.014-0.003,0.022c-0.001,0.011-0.003,0.022-0.005,0.033
	c-0.001,0.006-0.001,0.011-0.002,0.017c-0.002,0.012-0.003,0.025-0.005,0.038c-0.001,0.007-0.002,0.014-0.003,0.021
	c-0.001,0.011-0.003,0.022-0.004,0.033c-0.001,0.009-0.002,0.018-0.004,0.027c-0.001,0.009-0.002,0.018-0.003,0.027
	c-0.001,0.01-0.003,0.021-0.004,0.031c-0.001,0.008-0.002,0.016-0.003,0.024c-0.001,0.01-0.002,0.019-0.004,0.029
	c-0.001,0.009-0.002,0.017-0.003,0.026c-0.001,0.01-0.003,0.022-0.004,0.032c-0.001,0.007-0.002,0.015-0.003,0.022
	c-0.001,0.012-0.003,0.025-0.004,0.036c-0.001,0.006-0.001,0.012-0.002,0.018c-0.001,0.012-0.003,0.025-0.004,0.037
	c-0.001,0.006-0.001,0.012-0.002,0.017c-0.002,0.014-0.003,0.027-0.005,0.041c0,0.005-0.001,0.009-0.001,0.013
	c-0.001,0.013-0.003,0.025-0.004,0.038c-0.001,0.006-0.001,0.012-0.002,0.017c-0.002,0.015-0.003,0.029-0.005,0.044
	c0,0.003-0.001,0.007-0.001,0.01c-0.002,0.018-0.004,0.036-0.005,0.055v0c-0.005,0.054-0.01,0.109-0.015,0.163c0,0,0,0.001,0,0.002
	c-0.018,0.202-0.033,0.405-0.044,0.608c0,0.001,0,0.001,0,0.001c-0.009,0.159-0.015,0.32-0.02,0.48
	c-0.001,0.026-0.001,0.052-0.002,0.078h17.645V15.353"/>
</svg>
