<?xml version="1.0" encoding="utf-8"?>
<!-- Generator: Adobe Illustrator 17.0.0, SVG Export Plug-In . SVG Version: 6.00 Build 0)  -->
<!DOCTYPE svg PUBLIC "-//W3C//DTD SVG 1.1//EN" "http://www.w3.org/Graphics/SVG/1.1/DTD/svg11.dtd">
<svg version="1.1" id="Layer_1" xmlns="http://www.w3.org/2000/svg" xmlns:xlink="http://www.w3.org/1999/xlink" x="0px" y="0px"
	 width="136.52px" height="34.176px" viewBox="0 0 136.52 34.176" enable-background="new 0 0 136.52 34.176" xml:space="preserve">
<path fill="#00A348" d="M116.369,34.176c-0.216-9.197-7.739-16.586-16.987-16.586c-9.248,0-16.771,7.389-16.987,16.586H116.369"/>
<path fill="#00A348" d="M67.187,34.176c-0.297-12.621-10.62-22.761-23.312-22.761c-12.692,0-23.015,10.14-23.312,22.761H67.187"/>
<path fill="#76C043" d="M106.349,34.176C105.904,15.226,90.403,0,71.345,0S36.787,15.226,36.342,34.176H106.349"/>
<path fill="#76C043" d="M39.301,34.176c-0.218-9.285-7.813-16.745-17.151-16.745c-9.337,0-16.932,7.46-17.15,16.745H39.301"/>
<path fill="#76C043" d="M131.52,34.176c-0.162-6.891-5.799-12.428-12.729-12.428s-12.567,5.536-12.728,12.428H131.52"/>
<path fill="#60BB46" d="M71.345,0c-16.443,0-30.238,11.335-34,26.617c1.192,2.268,1.891,4.835,1.955,7.56h32.085V0L71.345,0
	L71.345,0"/>
<path fill="#60BB46" d="M37.346,26.617c-0.598,2.43-0.943,4.959-1.004,7.56h2.959C39.237,31.452,38.537,28.885,37.346,26.617
	L37.346,26.617"/>
<path fill="#60BB46" d="M118.729,21.75c-6.901,0.033-12.505,5.556-12.667,12.426h12.667V21.75"/>
<path fill="#D5E9C3" d="M5.005,34.013C5.003,34.068,5.001,34.122,5,34.176l0,0C5.001,34.122,5.003,34.068,5.005,34.013
	 M5.006,33.959c-0.001,0.017-0.001,0.035-0.002,0.052C5.005,33.994,5.006,33.977,5.006,33.959 M5.008,33.905
	c-0.001,0.016-0.001,0.031-0.002,0.047C5.007,33.936,5.008,33.921,5.008,33.905 M5.011,33.851c-0.001,0.017-0.001,0.033-0.002,0.05
	C5.009,33.884,5.01,33.868,5.011,33.851 M5.013,33.797c-0.001,0.016-0.001,0.031-0.002,0.046
	C5.012,33.827,5.012,33.813,5.013,33.797 M5.015,33.743c-0.001,0.017-0.001,0.033-0.002,0.051
	C5.014,33.777,5.015,33.76,5.015,33.743 M5.018,33.689c-0.001,0.016-0.002,0.031-0.002,0.047C5.017,33.72,5.017,33.705,5.018,33.689
	 M5.021,33.635c-0.001,0.016-0.002,0.031-0.002,0.047C5.019,33.667,5.02,33.651,5.021,33.635 M5.024,33.581
	c-0.001,0.017-0.002,0.033-0.003,0.05C5.022,33.614,5.023,33.598,5.024,33.581 M5.027,33.528c-0.001,0.016-0.002,0.031-0.003,0.047
	C5.025,33.56,5.026,33.544,5.027,33.528 M5.031,33.474c-0.001,0.014-0.002,0.03-0.003,0.044C5.029,33.504,5.03,33.489,5.031,33.474
	 M5.034,33.421c-0.001,0.014-0.002,0.028-0.003,0.042C5.032,33.449,5.033,33.435,5.034,33.421 M5.038,33.368
	c-0.001,0.013-0.002,0.028-0.003,0.041C5.036,33.395,5.037,33.381,5.038,33.368 M5.042,33.314c-0.001,0.013-0.002,0.026-0.003,0.039
	C5.04,33.34,5.041,33.327,5.042,33.314 M5.046,33.261c-0.001,0.013-0.002,0.025-0.003,0.038C5.044,33.287,5.045,33.274,5.046,33.261
	 M5.05,33.208c-0.001,0.013-0.002,0.025-0.003,0.038C5.048,33.232,5.049,33.22,5.05,33.208 M5.054,33.154
	c-0.001,0.013-0.002,0.025-0.003,0.038C5.052,33.179,5.053,33.167,5.054,33.154 M5.059,33.102c-0.001,0.012-0.002,0.023-0.003,0.035
	C5.057,33.125,5.058,33.113,5.059,33.102 M5.063,33.049c-0.001,0.012-0.002,0.023-0.003,0.034
	C5.061,33.071,5.062,33.06,5.063,33.049 M5.068,32.995c-0.001,0.011-0.002,0.022-0.003,0.033
	C5.066,33.017,5.067,33.007,5.068,32.995 M5.073,32.943c-0.001,0.01-0.002,0.021-0.003,0.032
	C5.071,32.964,5.072,32.954,5.073,32.943 M5.078,32.89c-0.001,0.01-0.002,0.02-0.003,0.03C5.076,32.91,5.077,32.9,5.078,32.89
	 M5.083,32.838c-0.001,0.01-0.002,0.019-0.003,0.029C5.081,32.857,5.082,32.847,5.083,32.838 M5.089,32.785
	c-0.001,0.009-0.002,0.018-0.003,0.027C5.087,32.803,5.088,32.794,5.089,32.785 M5.094,32.732c-0.001,0.009-0.002,0.019-0.003,0.028
	C5.092,32.75,5.093,32.741,5.094,32.732 M5.1,32.679c-0.001,0.009-0.002,0.018-0.003,0.027C5.098,32.697,5.099,32.688,5.1,32.679
	 M5.106,32.626c-0.001,0.009-0.002,0.018-0.003,0.028C5.104,32.645,5.105,32.635,5.106,32.626 M5.112,32.574
	C5.111,32.583,5.11,32.592,5.109,32.6C5.11,32.591,5.111,32.583,5.112,32.574 M5.118,32.522c-0.001,0.008-0.002,0.017-0.003,0.025
	C5.116,32.539,5.117,32.53,5.118,32.522 M5.125,32.469c-0.001,0.008-0.002,0.016-0.003,0.024
	C5.123,32.485,5.124,32.477,5.125,32.469 M5.131,32.417c-0.001,0.008-0.002,0.015-0.003,0.023
	C5.129,32.433,5.13,32.425,5.131,32.417 M5.138,32.365c-0.001,0.008-0.002,0.015-0.003,0.022C5.136,32.38,5.137,32.372,5.138,32.365
	 M5.145,32.313c-0.001,0.007-0.002,0.015-0.003,0.022C5.143,32.328,5.144,32.32,5.145,32.313 M5.151,32.262
	c-0.001,0.006-0.002,0.012-0.002,0.018C5.15,32.274,5.151,32.268,5.151,32.262 M5.158,32.21c-0.001,0.006-0.002,0.012-0.002,0.018
	C5.157,32.222,5.158,32.216,5.158,32.21 M5.166,32.16c-0.001,0.004-0.001,0.009-0.002,0.013C5.164,32.168,5.165,32.164,5.166,32.16
	 M5.173,32.108c-0.001,0.004-0.001,0.009-0.002,0.013C5.172,32.116,5.172,32.113,5.173,32.108 M5.18,32.057
	c0,0.003-0.001,0.006-0.001,0.009C5.179,32.063,5.18,32.06,5.18,32.057 M5.188,32.005c0,0.003-0.001,0.007-0.002,0.01
	C5.187,32.012,5.188,32.008,5.188,32.005 M5.196,31.954c0,0.002-0.001,0.005-0.001,0.007C5.195,31.959,5.196,31.957,5.196,31.954
	 M5.204,31.903c0,0.002-0.001,0.005-0.001,0.007C5.203,31.907,5.204,31.905,5.204,31.903 M5.212,31.853c0,0.001,0,0.002-0.001,0.003
	C5.212,31.855,5.212,31.854,5.212,31.853 M5.22,31.801c0,0.001,0,0.001,0,0.002C5.22,31.803,5.22,31.802,5.22,31.801"/>
<path fill="#60BB46" d="M21.814,17.439C13.44,17.601,6.533,23.76,5.22,31.801c0,0.001,0,0.002,0,0.002
	c-0.003,0.016-0.005,0.033-0.008,0.049c0,0.001,0,0.002-0.001,0.003c-0.002,0.016-0.005,0.031-0.007,0.047
	c0,0.002-0.001,0.005-0.001,0.007c-0.002,0.015-0.005,0.03-0.007,0.045c0,0.002-0.001,0.005-0.001,0.007
	c-0.002,0.015-0.004,0.029-0.007,0.044c0,0.003-0.001,0.007-0.002,0.01c-0.002,0.014-0.004,0.028-0.006,0.042
	c0,0.003-0.001,0.006-0.001,0.009c-0.002,0.014-0.004,0.028-0.006,0.041c-0.001,0.005-0.001,0.008-0.002,0.013
	c-0.002,0.013-0.004,0.026-0.006,0.039c-0.001,0.004-0.001,0.009-0.002,0.013c-0.002,0.012-0.003,0.025-0.005,0.037
	c-0.001,0.005-0.002,0.012-0.002,0.018c-0.001,0.011-0.003,0.023-0.005,0.034c-0.001,0.006-0.002,0.012-0.002,0.018
	c-0.001,0.011-0.003,0.022-0.004,0.033c-0.001,0.007-0.002,0.015-0.003,0.022c-0.001,0.01-0.003,0.02-0.004,0.03
	c-0.001,0.007-0.002,0.015-0.003,0.022c-0.001,0.01-0.003,0.02-0.004,0.03c-0.001,0.008-0.002,0.015-0.003,0.023
	c-0.001,0.009-0.002,0.02-0.004,0.029c-0.001,0.008-0.002,0.016-0.003,0.024c-0.001,0.01-0.002,0.019-0.004,0.029
	c-0.001,0.008-0.002,0.017-0.003,0.025c-0.001,0.009-0.002,0.018-0.003,0.027C5.111,32.583,5.11,32.591,5.109,32.6
	c-0.001,0.009-0.002,0.017-0.003,0.026c-0.001,0.009-0.002,0.019-0.003,0.028c-0.001,0.008-0.002,0.017-0.003,0.025
	c-0.001,0.009-0.002,0.018-0.003,0.027c-0.001,0.009-0.002,0.017-0.003,0.026c-0.001,0.01-0.002,0.018-0.003,0.028
	c-0.001,0.009-0.002,0.017-0.003,0.026c-0.001,0.009-0.002,0.018-0.003,0.027c-0.001,0.009-0.002,0.017-0.003,0.026
	c-0.001,0.009-0.002,0.02-0.003,0.029c-0.001,0.008-0.002,0.016-0.002,0.023c-0.001,0.01-0.002,0.02-0.003,0.03
	c-0.001,0.008-0.002,0.016-0.002,0.024c-0.001,0.011-0.002,0.021-0.003,0.032c-0.001,0.007-0.001,0.014-0.002,0.021
	c-0.001,0.011-0.002,0.022-0.003,0.033c-0.001,0.007-0.001,0.014-0.002,0.02c-0.001,0.012-0.002,0.023-0.003,0.034
	c0,0.006-0.001,0.012-0.002,0.019c-0.001,0.012-0.002,0.023-0.003,0.035c0,0.006-0.001,0.012-0.002,0.018
	c-0.001,0.013-0.002,0.025-0.003,0.038c0,0.005-0.001,0.01-0.001,0.016c-0.001,0.013-0.002,0.025-0.003,0.038
	c0,0.005-0.001,0.011-0.001,0.016c-0.001,0.013-0.002,0.026-0.003,0.038c0,0.005-0.001,0.01-0.001,0.015
	c-0.001,0.013-0.002,0.026-0.003,0.039c0,0.005-0.001,0.01-0.001,0.015c-0.001,0.013-0.002,0.027-0.003,0.041
	c0,0.004-0.001,0.008-0.001,0.012c-0.001,0.014-0.002,0.028-0.003,0.042c0,0.004,0,0.007-0.001,0.011
	c-0.001,0.015-0.002,0.029-0.003,0.044c0,0.003,0,0.006-0.001,0.01c-0.001,0.016-0.002,0.031-0.003,0.047c0,0.002,0,0.004,0,0.006
	c-0.001,0.017-0.002,0.033-0.003,0.05c0,0.001,0,0.003,0,0.004c-0.001,0.016-0.002,0.032-0.002,0.047c0,0.002,0,0.005,0,0.007
	c-0.001,0.016-0.002,0.031-0.002,0.047c0,0.002,0,0.005,0,0.007c-0.001,0.017-0.002,0.034-0.002,0.051c0,0,0,0.002,0,0.003
	c-0.001,0.016-0.001,0.031-0.002,0.046c0,0.003,0,0.006,0,0.008c-0.001,0.017-0.001,0.033-0.002,0.05c0,0.001,0,0.003,0,0.004
	c-0.001,0.016-0.001,0.031-0.002,0.047c0,0.003,0,0.005,0,0.007c-0.001,0.018-0.001,0.035-0.002,0.052c0,0,0,0.001,0,0.001
	C5.003,34.068,5.001,34.122,5,34.176h16.814V17.439"/>
</svg>
