<?xml version="1.0" encoding="utf-8"?>
<!-- Generator: Adobe Illustrator 17.0.0, SVG Export Plug-In . SVG Version: 6.00 Build 0)  -->
<!DOCTYPE svg PUBLIC "-//W3C//DTD SVG 1.1//EN" "http://www.w3.org/Graphics/SVG/1.1/DTD/svg11.dtd">
<svg version="1.1" id="Layer_1" xmlns="http://www.w3.org/2000/svg" xmlns:xlink="http://www.w3.org/1999/xlink" x="0px" y="0px"
	 width="37.21px" height="57.154px" viewBox="0 0 37.21 57.154" enable-background="new 0 0 37.21 57.154" xml:space="preserve">
<rect x="11.706" y="23.534" fill="#775522" width="20.503" height="12.281"/>
<polygon fill="#563114" points="32.21,23.534 32.21,35.815 11.706,23.534 "/>
<rect x="5.202" y="14.01" fill="#563114" width="11.117" height="5.622"/>
<polygon fill="#775522" points="5.202,19.633 5.202,14.01 16.32,19.633 "/>
<ellipse fill="#FFFFFF" cx="10.576" cy="15.973" rx="0.754" ry="0.789"/>
<ellipse cx="10.576" cy="15.973" rx="0.177" ry="0.185"/>
<path fill="#FFFFFF" d="M5,17.849c0,0.216,0.167,0.391,0.373,0.391h1.462c0.206,0,0.373-0.175,0.373-0.391s-0.167-0.391-0.373-0.391
	H5.373C5.167,17.459,5,17.634,5,17.849z"/>
<rect x="29.722" y="35.741" width="0.435" height="19.816"/>
<rect x="13.214" y="35.741" width="0.435" height="19.816"/>
<rect x="13.214" y="19.754" width="0.435" height="4.101"/>
<polygon fill="#563114" points="27.839,57.154 30.737,57.154 30.737,55.556 28.708,55.556 "/>
<polygon fill="#563114" points="11.765,57.154 14.663,57.154 14.663,55.556 12.634,55.556 "/>
<path d="M15.661,9.426h9.696c1.509,0,2.733-1.281,2.733-2.861V3.816H12.928v2.749C12.928,8.145,14.152,9.426,15.661,9.426z"/>
<path d="M25.192,3.82h2.898V1.502C28.09,0.672,27.447,0,26.655,0h-0.029c-0.792,0-1.434,0.672-1.434,1.502V3.82z"/>
<path d="M21.158,3.82h2.898V1.502C24.056,0.672,23.414,0,22.622,0h-0.029c-0.792,0-1.434,0.672-1.434,1.502V3.82z"/>
<path d="M17.086,3.82h2.898V1.502C19.984,0.672,19.342,0,18.549,0H18.52c-0.792,0-1.434,0.672-1.434,1.502V3.82z"/>
<path d="M12.928,3.82h2.898V1.502C15.826,0.672,15.184,0,14.392,0h-0.029c-0.792,0-1.434,0.672-1.434,1.502V3.82z"/>
<path d="M17.132,8.938v0.985c0,0.198-0.076,0.372-0.194,0.496c-0.119,0.124-0.271,0.193-0.442,0.194h-1.929
	c-0.922,0.003-1.634,0.774-1.636,1.689v1.709h1l0-1.709c0-0.198,0.076-0.372,0.194-0.496c0.119-0.124,0.271-0.193,0.442-0.194h1.929
	c0.922-0.003,1.634-0.774,1.636-1.689V8.938H17.132L17.132,8.938z"/>
</svg>
