<?xml version="1.0" encoding="utf-8"?>
<!-- Generator: Adobe Illustrator 17.0.0, SVG Export Plug-In . SVG Version: 6.00 Build 0)  -->
<!DOCTYPE svg PUBLIC "-//W3C//DTD SVG 1.1//EN" "http://www.w3.org/Graphics/SVG/1.1/DTD/svg11.dtd">
<svg version="1.1" id="Layer_1" xmlns="http://www.w3.org/2000/svg" xmlns:xlink="http://www.w3.org/1999/xlink" x="0px" y="0px"
	 width="356.2px" height="158.867px" viewBox="0 0 356.2 158.867" enable-background="new 0 0 356.2 158.867" xml:space="preserve">
<polyline fill="#F7941E" points="340.42,149.634 29.462,149.634 29.462,61.067 340.42,61.067 340.42,149.634 "/>
<polyline fill="#F7941E" points="326.738,134.708 15.78,134.708 15.78,46.141 326.738,46.141 326.738,134.708 "/>
<polyline fill="#F99D34" points="340.42,61.067 340.42,61.067 326.738,64.964 326.738,82.627 333.711,82.627 333.711,90.45 
	333.711,93.483 333.711,101.306 326.738,101.306 326.738,134.708 81.867,134.708 29.462,149.634 340.42,149.634 340.42,61.067 "/>
<polyline fill="#F99D34" points="326.738,64.964 264.725,82.627 274.645,82.627 274.645,90.45 274.645,93.483 274.645,101.306 
	255.967,101.306 255.967,85.121 230.406,92.401 230.406,93.483 230.406,101.306 211.727,101.306 211.727,97.721 81.867,134.708 
	326.738,134.708 326.738,101.306 315.032,101.306 315.032,82.627 322.855,82.627 326.738,82.627 326.738,64.964 "/>
<polyline fill="#AB6828" points="337.518,46.083 5.001,46.083 5.001,30.545 337.518,30.545 337.518,46.083 "/>
<polyline fill="#CE7C29" points="29.462,149.634 29.462,53.24 15.78,50.649 15.78,134.708 29.462,149.634 "/>
<polyline fill="#E28825" points="351.199,61.009 18.683,61.009 18.683,45.471 351.199,45.471 351.199,61.009 "/>
<polyline fill="#AB6828" points="18.683,61.009 5.001,46.083 18.683,40.289 18.683,61.009 "/>
<polyline fill="#F9A44D" points="351.199,45.471 18.683,45.471 5.001,30.545 337.518,30.545 351.199,45.471 "/>
<polyline fill="#EA9234" points="331.67,32.619 14.951,32.619 23.701,40.911 340.42,40.911 331.67,32.619 "/>
<polyline fill="#AB6828" points="351.199,46.404 18.683,46.404 18.683,45.368 351.199,45.368 351.199,46.404 "/>
<rect x="25.869" y="0.832" fill="#CE7C29" width="11.056" height="31.787"/>
<rect x="29.462" y="4.84" fill="#F7941E" width="11.056" height="31.787"/>
<polygon fill="#AB6828" points="43.559,5.672 38.474,0 22.829,0 27.914,5.672 "/>
<polygon fill="#414142" points="37.876,4.117 35.579,1.555 28.512,1.555 30.809,4.117 "/>
<polygon fill="#CE7C29" points="25.869,32.619 29.462,36.626 29.462,11.197 25.869,9.815 "/>
<rect x="27.914" y="5.672" fill="#E28825" width="15.646" height="2.485"/>
<polygon fill="#CE7C29" points="22.829,0 22.829,2.767 27.914,8.157 27.914,5.672 "/>
<rect x="149.008" y="0.832" fill="#CE7C29" width="11.056" height="31.787"/>
<rect x="152.601" y="4.84" fill="#F7941E" width="11.056" height="31.787"/>
<polygon fill="#AB6828" points="166.698,5.672 161.613,0 145.968,0 151.053,5.672 "/>
<polygon fill="#414142" points="161.015,4.117 158.718,1.555 151.651,1.555 153.948,4.117 "/>
<polygon fill="#CE7C29" points="149.008,32.619 152.601,36.626 152.601,11.197 149.008,9.815 "/>
<rect x="151.053" y="5.672" fill="#E28825" width="15.646" height="2.485"/>
<polygon fill="#CE7C29" points="145.968,0 145.968,2.767 151.053,8.157 151.053,5.672 "/>
<rect x="312.364" y="0.832" fill="#CE7C29" width="11.056" height="31.787"/>
<rect x="315.958" y="4.84" fill="#F7941E" width="11.056" height="31.787"/>
<polygon fill="#AB6828" points="330.054,5.672 324.97,0 309.324,0 314.409,5.672 "/>
<polygon fill="#414142" points="324.371,4.117 322.074,1.555 315.007,1.555 317.304,4.117 "/>
<polygon fill="#CE7C29" points="312.364,32.619 315.958,36.626 315.958,11.197 312.364,9.815 "/>
<rect x="314.409" y="5.672" fill="#E28825" width="15.646" height="2.485"/>
<polygon fill="#CE7C29" points="309.324,0 309.324,2.767 314.409,8.157 314.409,5.672 "/>
<rect x="47.774" y="141.571" fill="#E28825" width="55.143" height="14.926"/>
<rect x="161.585" y="141.571" fill="#E28825" width="55.143" height="14.926"/>
<rect x="266.965" y="141.571" fill="#E28825" width="55.143" height="14.926"/>
<polygon fill="#F9A44D" points="102.918,141.571 92.069,132.954 40.519,132.954 47.774,141.571 "/>
<polygon fill="#CE7C29" points="47.774,156.496 40.519,149.634 40.519,132.954 47.774,141.571 "/>
<rect x="77.033" y="151.861" fill="#E28825" width="25.885" height="7.006"/>
<polygon fill="#F9A44D" points="102.918,151.861 97.825,147.816 73.627,147.816 77.033,151.861 "/>
<polygon fill="#CE7C29" points="77.033,158.867 73.627,155.646 73.627,147.816 77.033,151.861 "/>
<rect x="191.05" y="151.861" fill="#E28825" width="25.885" height="7.006"/>
<polygon fill="#F9A44D" points="216.935,151.861 211.842,147.816 187.644,147.816 191.05,151.861 "/>
<polygon fill="#CE7C29" points="191.05,158.867 187.644,155.646 187.644,147.816 191.05,151.861 "/>
<rect x="296.347" y="151.861" fill="#E28825" width="25.885" height="7.006"/>
<polygon fill="#F9A44D" points="322.231,151.861 317.139,147.816 292.941,147.816 296.347,151.861 "/>
<polygon fill="#CE7C29" points="296.347,158.867 292.941,155.646 292.941,147.816 296.347,151.861 "/>
<polygon fill="#F9A44D" points="216.935,141.571 206.086,132.954 154.536,132.954 161.792,141.571 "/>
<polygon fill="#CE7C29" points="161.792,156.496 154.536,149.634 154.536,132.954 161.792,141.571 "/>
<polygon fill="#F9A44D" points="322.108,141.571 311.259,132.954 259.709,132.954 266.965,141.571 "/>
<polygon fill="#CE7C29" points="266.965,156.496 259.709,149.634 259.709,132.954 266.965,141.571 "/>
<rect x="65.216" y="82.627" fill="#B62C47" width="23.633" height="50.327"/>
<rect x="179.234" y="82.627" fill="#B62C47" width="23.633" height="50.327"/>
<rect x="282.828" y="82.627" fill="#B62C47" width="23.633" height="50.327"/>
<circle fill="#F7941E" cx="85.02" cy="109.321" r="1.935"/>
<circle fill="#F7941E" cx="198.623" cy="109.321" r="1.935"/>
<circle fill="#F7941E" cx="302.828" cy="109.321" r="1.935"/>
<path fill="#E79029" d="M119.847,61.009H29.462V87.78c0,0,0-0.006,0-0.018c0-0.133,2.342-0.917,6.274-2.139v-2.996h7.823h2.043
	C71.596,74.848,119.847,61.009,119.847,61.009"/>
<path fill="#CC8434" d="M334.409,46.404H18.683c0,1.4,0,6.896,0,6.896s0-0.019,0-0.06C18.683,52.524,266.877,47.703,334.409,46.404"
	/>
<path fill="#9F6831" d="M351.199,46.083H18.683c0,0,0,0.117,0,0.322h315.727C345.044,46.2,351.199,46.083,351.199,46.083"/>
<rect x="72.639" y="123.418" fill="#731C2D" width="8.788" height="1.658"/>
<rect x="186.656" y="123.418" fill="#731C2D" width="8.788" height="1.658"/>
<rect x="290.142" y="123.418" fill="#731C2D" width="8.788" height="1.658"/>
<polyline fill="#731C2D" points="54.415,101.306 35.736,101.306 35.736,82.627 54.415,82.627 54.415,101.306 "/>
<polyline fill="#853D43" points="43.559,82.627 43.559,82.627 35.736,90.45 43.559,90.45 43.559,82.627 "/>
<polyline fill="#853D43" points="54.415,82.627 54.415,82.627 46.592,90.45 54.415,90.45 54.415,82.627 "/>
<polyline fill="#853D43" points="43.559,93.483 35.736,101.306 43.559,101.306 43.559,93.483 "/>
<polyline fill="#853D43" points="54.415,93.483 46.592,101.306 54.415,101.306 54.415,93.483 "/>
<polyline fill="#731C2D" points="117.159,101.306 98.481,101.306 98.481,82.627 117.159,82.627 117.159,101.306 "/>
<polyline fill="#731C2D" points="168.215,101.306 149.536,101.306 149.536,82.627 168.215,82.627 168.215,101.306 "/>
<polyline fill="#853D43" points="106.303,82.627 106.303,82.627 98.481,90.45 106.303,90.45 106.303,82.627 "/>
<polyline fill="#853D43" points="117.159,82.627 117.159,82.627 109.336,90.45 117.159,90.45 117.159,82.627 "/>
<polyline fill="#853D43" points="106.303,93.483 98.481,101.306 106.303,101.306 106.303,93.483 "/>
<polyline fill="#853D43" points="117.159,93.483 109.336,101.306 117.159,101.306 117.159,93.483 "/>
<polyline fill="#853D43" points="157.359,82.627 157.359,82.627 149.536,90.45 157.359,90.45 157.359,82.627 "/>
<polyline fill="#853D43" points="168.215,82.627 168.215,82.627 160.392,90.45 168.215,90.45 168.215,82.627 "/>
<polyline fill="#853D43" points="157.359,93.483 149.536,101.306 157.359,101.306 157.359,93.483 "/>
<polyline fill="#853D43" points="168.215,93.483 160.392,101.306 168.215,101.306 168.215,93.483 "/>
<polyline fill="#731C2D" points="230.406,101.306 211.727,101.306 211.727,82.627 230.406,82.627 230.406,101.306 "/>
<polyline fill="#731C2D" points="274.645,101.306 255.967,101.306 255.967,82.627 274.645,82.627 274.645,101.306 "/>
<polyline fill="#853D43" points="219.55,82.627 219.55,82.627 211.727,90.45 219.55,90.45 219.55,82.627 "/>
<polyline fill="#853D43" points="230.406,82.627 230.406,82.627 222.584,90.45 230.406,90.45 230.406,82.627 "/>
<polyline fill="#853D43" points="219.55,93.483 211.727,101.306 219.55,101.306 219.55,93.483 "/>
<polyline fill="#853D43" points="230.406,93.483 222.584,101.306 230.406,101.306 230.406,93.483 "/>
<polyline fill="#853D43" points="263.79,82.627 263.79,82.627 255.967,90.45 263.79,90.45 263.79,82.627 "/>
<polyline fill="#853D43" points="274.645,82.627 274.645,82.627 266.823,90.45 274.645,90.45 274.645,82.627 "/>
<polyline fill="#853D43" points="263.79,93.483 255.967,101.306 263.79,101.306 263.79,93.483 "/>
<polyline fill="#853D43" points="274.645,93.483 266.823,101.306 274.645,101.306 274.645,93.483 "/>
<polyline fill="#731C2D" points="333.711,101.306 315.032,101.306 315.032,82.627 333.711,82.627 333.711,101.306 "/>
<polyline fill="#853D43" points="322.855,82.627 322.855,82.627 315.032,90.45 322.855,90.45 322.855,82.627 "/>
<polyline fill="#853D43" points="333.711,82.627 333.711,82.627 325.888,90.45 333.711,90.45 333.711,82.627 "/>
<polyline fill="#853D43" points="322.855,93.483 315.032,101.306 322.855,101.306 322.855,93.483 "/>
<polyline fill="#853D43" points="333.711,93.483 325.888,101.306 333.711,101.306 333.711,93.483 "/>
</svg>
