<?xml version="1.0" encoding="utf-8"?>
<!-- Generator: Adobe Illustrator 17.0.0, SVG Export Plug-In . SVG Version: 6.00 Build 0)  -->
<!DOCTYPE svg PUBLIC "-//W3C//DTD SVG 1.1//EN" "http://www.w3.org/Graphics/SVG/1.1/DTD/svg11.dtd">
<svg version="1.1" id="Layer_1" xmlns="http://www.w3.org/2000/svg" xmlns:xlink="http://www.w3.org/1999/xlink" x="0px" y="0px"
	 width="324.48px" height="211.937px" viewBox="0 0 324.48 211.937" enable-background="new 0 0 324.48 211.937"
	 xml:space="preserve">
<polyline fill="#8B5E3C" points="292.681,42.655 205.322,2.24 117.963,42.655 117.963,187.133 140.364,206.547 292.681,187.133 
	315.082,62.069 292.681,42.655 "/>
<polyline fill="#8B1B1C" points="140.364,62.069 117.963,42.655 205.322,2.24 292.681,42.655 315.082,62.069 140.364,62.069 "/>
<polyline fill="#C49A6C" points="315.082,62.069 227.723,21.654 140.364,62.069 140.364,206.547 315.082,206.547 315.082,62.069 "/>
<polygon fill="#8B5E3C" points="165.287,34.348 156.824,38.828 152.842,34.348 152.842,0 165.287,0 169.269,4.48 "/>
<rect x="156.824" y="4.48" fill="#C49A6C" width="12.445" height="34.348"/>
<polygon points="155.829,0.871 157.322,3.111 165.411,3.111 163.793,0.871 "/>
<path fill="#AE916E" d="M160.153,119.328V89.46h28.748v29.868H160.153 M195.995,119.328V89.46h28.748v29.868H195.995
	 M228.009,29.619l-17.245,7.836l-70.4,65.589V62.069v144.478l20.255-16.75v-37.223h27.815v14.223l77.376-63.984V89.46h16.148
	l27.382-22.643L228.009,29.619"/>
<polyline fill="#9B866D" points="210.764,37.454 140.364,69.443 140.364,62.069 140.364,103.044 210.764,37.454 "/>
<polyline fill="#8B5E3C" points="188.434,152.574 160.62,152.574 160.62,206.547 188.434,206.547 188.434,152.574 "/>
<polyline fill="#7D5D45" points="188.434,152.574 160.62,152.574 160.62,176.469 188.434,152.574 "/>
<polyline fill="#5C3E28" points="134.299,119.328 124.219,109.266 124.219,79.399 134.299,89.46 134.299,119.328 "/>
<polyline fill="#5C3E28" points="134.299,172.539 124.219,162.478 124.219,132.61 134.299,142.671 134.299,172.539 "/>
<polyline fill="#5C3E28" points="188.901,119.328 160.153,119.328 160.153,89.46 188.901,89.46 188.901,119.328 "/>
<polyline fill="#5C3E28" points="224.742,119.328 195.995,119.328 195.995,89.46 224.742,89.46 224.742,119.328 "/>
<polyline fill="#5C3E28" points="294.558,119.328 265.81,119.328 265.81,89.46 294.558,89.46 294.558,119.328 "/>
<polyline fill="#5C3E28" points="294.558,182.442 216.523,182.442 216.523,152.574 294.558,152.574 294.558,182.442 "/>
<polyline fill="#785C49" points="186.194,92.839 163.047,116.36 186.194,116.36 186.194,92.839 "/>
<polyline fill="#6C503C" points="132.183,89.46 127.065,108.271 132.183,112.981 132.183,89.46 "/>
<polyline fill="#6C503C" points="132.183,142.724 127.065,161.535 132.183,166.245 132.183,142.724 "/>
<polyline fill="#785C49" points="221.942,92.839 198.795,116.36 221.942,116.36 221.942,92.839 "/>
<polyline fill="#785C49" points="291.758,92.839 268.611,116.36 291.758,116.36 291.758,92.839 "/>
<polyline fill="#785C49" points="291.758,155.748 268.611,179.269 291.758,179.269 291.758,155.748 "/>
<rect x="136.539" y="206.547" fill="#8B5E3C" width="182.94" height="5.39"/>
<polyline fill="#5C3E28" points="136.539,211.937 113.765,190.656 113.765,183.314 140.364,206.547 "/>
<polygon fill="#5C3E28" points="113.765,183.314 117.963,183.314 117.963,189.536 "/>
<polygon fill="#8B5E3C" points="188.901,121.319 184.044,123.31 165.411,123.31 160.153,121.319 160.153,119.328 188.901,119.328 
	"/>
<polygon fill="#8B5E3C" points="224.742,121.319 219.885,123.31 201.253,123.31 195.995,121.319 195.995,119.328 224.742,119.328 
	"/>
<polygon fill="#8B5E3C" points="294.558,121.319 289.701,123.31 271.069,123.31 265.81,121.319 265.81,119.328 294.558,119.328 "/>
<polyline fill="#734E33" points="140.364,62.069 140.364,69.443 228.009,29.619 315.082,69.443 315.082,62.069 227.723,21.654 
	140.364,62.069 "/>
<polygon fill="#5C3E28" points="140.364,69.443 117.963,49.78 117.963,42.655 140.364,62.069 "/>
<polyline fill="#8B5E3C" points="82.734,138.777 43.868,120.796 5.001,138.777 5.001,203.056 14.967,211.694 82.734,203.056 
	92.701,147.414 82.734,138.777 "/>
<polygon fill="#8B1B1C" points="14.967,147.414 5.001,138.777 43.867,120.796 82.734,138.777 92.7,147.414 "/>
<polyline fill="#C49A6C" points="92.701,147.414 53.834,129.433 14.967,147.414 14.967,211.694 92.701,211.694 92.701,147.414 "/>
<polygon fill="#734E33" points="14.967,147.414 14.967,153.682 53.961,135.964 92.7,153.682 92.7,147.414 53.834,129.433 "/>
<polygon fill="#5C3E28" points="14.967,152.935 5.001,144.187 5.001,138.777 14.967,147.414 "/>
<circle fill="#5C3E28" cx="184.044" cy="183.314" r="2.151"/>
<polyline fill="#5C3E28" points="87.331,157.903 19.382,157.903 19.382,211.694 87.331,211.694 87.331,157.903 "/>
<polyline fill="#6A4E39" points="87.331,157.903 87.331,157.903 19.382,211.694 87.331,211.694 87.331,157.903 "/>
<rect x="19.382" y="157.903" fill="#8B5E3C" width="1.245" height="53.791"/>
<rect x="86.086" y="157.903" fill="#8B5E3C" width="1.245" height="53.791"/>
<rect x="20.627" y="157.903" fill="#8B5E3C" width="65.46" height="1.245"/>
<rect x="20.627" y="165.537" fill="#8B5E3C" width="65.46" height="1.245"/>
<rect x="20.627" y="175.139" fill="#8B5E3C" width="65.46" height="1.245"/>
<rect x="20.627" y="185.717" fill="#8B5E3C" width="65.46" height="1.245"/>
<rect x="20.627" y="195.673" fill="#8B5E3C" width="65.46" height="1.245"/>
<rect x="20.627" y="205.217" fill="#8B5E3C" width="65.46" height="1.245"/>
<polyline fill="#A85A47" points="205.322,2.24 227.723,21.654 315.082,62.069 292.681,42.655 205.322,2.24 "/>
<polygon fill="#8B5E3C" points="315.082,203.063 319.479,206.547 315.082,206.547 "/>
</svg>
