<?xml version="1.0" encoding="utf-8"?>
<!-- Generator: Adobe Illustrator 17.0.0, SVG Export Plug-In . SVG Version: 6.00 Build 0)  -->
<!DOCTYPE svg PUBLIC "-//W3C//DTD SVG 1.1//EN" "http://www.w3.org/Graphics/SVG/1.1/DTD/svg11.dtd">
<svg version="1.1" id="Layer_1" xmlns="http://www.w3.org/2000/svg" xmlns:xlink="http://www.w3.org/1999/xlink" x="0px" y="0px"
	 width="176.84px" height="235.338px" viewBox="0 0 176.84 235.338" enable-background="new 0 0 176.84 235.338"
	 xml:space="preserve">
<polyline fill="#F7D071" points="171.725,235.338 22.645,235.338 5.002,217.963 5.002,213.662 22.645,213.662 156.306,211.377 
	171.725,230.368 171.725,235.338 "/>
<polygon fill="#E0BD65" points="22.645,235.338 5.002,217.963 5.002,213.662 22.645,230.092 "/>
<rect x="9.451" y="141.647" fill="#736D79" width="2.372" height="72.016"/>
<polyline fill="#F47D55" points="158.283,230.769 35.839,230.769 35.839,83.362 158.283,83.362 158.283,230.769 "/>
<polyline fill="#F69370" points="158.283,230.769 35.839,230.769 35.839,216.876 158.283,216.876 158.283,230.769 "/>
<polyline fill="#DA704C" points="35.839,230.769 21.606,218.474 21.606,73.631 35.839,73.631 35.839,230.769 "/>
<polyline fill="#527882" points="166.077,83.362 29.668,83.362 97.873,8.246 166.077,83.362 "/>
<polyline fill="#618D99" points="157.872,83.362 37.873,83.362 97.873,17.282 157.872,83.362 "/>
<rect x="113.892" y="84.35" fill="#F7D071" width="5.648" height="4.97"/>
<rect x="121.347" y="84.35" fill="#F7D071" width="5.648" height="4.97"/>
<rect x="128.463" y="84.35" fill="#F7D071" width="5.648" height="4.97"/>
<rect x="135.579" y="84.35" fill="#F7D071" width="5.648" height="4.97"/>
<rect x="142.978" y="84.35" fill="#F7D071" width="5.648" height="4.97"/>
<rect x="150.659" y="84.35" fill="#F7D071" width="5.648" height="4.97"/>
<polyline fill="#F7D071" points="42.842,89.32 37.194,89.32 37.194,84.35 42.842,84.35 42.842,89.32 "/>
<polyline fill="#F7D071" points="50.297,89.32 44.65,89.32 44.65,84.35 50.297,84.35 50.297,89.32 "/>
<polygon fill="#F7D071" points="171.725,158.754 22.645,158.754 9.451,145.714 9.451,141.413 22.645,153.784 171.725,153.784 "/>
<rect x="51.766" y="84.35" fill="#F7D071" width="5.648" height="4.97"/>
<rect x="58.882" y="84.35" fill="#F7D071" width="5.648" height="4.97"/>
<rect x="66.281" y="84.35" fill="#F7D071" width="5.648" height="4.97"/>
<rect x="73.962" y="84.35" fill="#F7D071" width="5.648" height="4.97"/>
<polyline fill="#527882" points="112.762,108.857 81.36,108.857 81.36,62.223 112.762,62.223 112.762,108.857 "/>
<polyline fill="#527882" points="112.762,230.769 81.36,230.769 81.36,184.135 112.762,184.135 112.762,230.769 "/>
<polyline fill="#DA7654" points="35.839,83.362 35.839,83.362 35.839,133.689 35.839,120.807 123.649,120.807 91.523,108.857 
	81.36,108.857 81.36,104.271 48.811,89.32 44.65,89.32 44.65,87.409 42.842,86.579 42.842,89.32 37.194,89.32 37.194,84.35 
	37.991,84.35 35.839,83.362 "/>
<polyline fill="#DCBA6C" points="37.991,84.35 37.194,84.35 37.194,89.32 42.842,89.32 42.842,86.579 37.991,84.35 "/>
<polyline fill="#DCBA6C" points="44.65,87.409 44.65,89.32 48.811,89.32 44.65,87.409 "/>
<polyline fill="#52727A" points="81.36,104.271 81.36,108.857 91.523,108.857 90.588,108.509 85.004,105.945 84.184,105.945 
	84.184,105.568 81.36,104.271 "/>
<polyline fill="#DA7654" points="35.839,158.971 35.839,216.876 81.36,216.876 81.36,192.32 76.913,189.062 76.913,205.961 
	40.851,205.961 40.851,169.505 50.218,169.505 35.839,158.971 "/>
<polyline fill="#DB886A" points="81.36,216.876 35.839,216.876 35.839,230.769 81.36,230.769 81.36,216.876 "/>
<polyline fill="#DA7654" points="112.762,211.262 112.762,216.876 122.271,216.876 112.762,211.262 "/>
<polyline fill="#DB886A" points="122.271,216.876 112.762,216.876 112.762,230.769 145.802,230.769 122.271,216.876 "/>
<polyline fill="#52727A" points="81.36,192.32 81.36,216.876 81.36,230.769 112.762,230.769 112.762,216.876 112.762,211.262 
	84.184,194.389 81.36,192.32 "/>
<polyline fill="#F7D071" points="109.938,105.945 84.184,105.945 84.184,65.136 109.938,65.136 109.938,105.945 "/>
<rect x="84.184" y="187.733" fill="#F7D071" width="25.754" height="43.036"/>
<polyline fill="#527882" points="107.171,103.264 86.951,103.264 86.951,67.817 107.171,67.817 107.171,103.264 "/>
<polyline fill="#5E5962" points="29.668,83.362 14.49,74.212 83.638,0 97.873,8.246 29.668,83.362 "/>
<polyline fill="#736D79" points="112.762,62.223 81.36,62.223 88.138,58.116 105.985,58.116 112.762,62.223 "/>
<polygon fill="#5E5962" points="81.36,108.857 112.762,108.857 105.985,112.964 88.138,112.964 "/>
<polyline fill="#AED1D4" points="106.069,102.169 87.825,102.169 87.825,68.912 106.069,68.912 106.069,102.169 "/>
<polyline fill="#618D99" points="76.913,205.961 40.851,205.961 40.851,169.505 76.913,169.505 76.913,205.961 "/>
<polyline fill="#8398A0" points="106.069,101.933 106.069,102.169 106.211,102.169 106.069,101.933 "/>
<polyline fill="#C7DDDF" points="87.825,71.501 87.825,102.169 106.069,102.169 106.069,101.933 87.825,71.501 "/>
<polyline fill="#AED1D4" points="75.204,204.362 42.305,204.362 42.305,171.104 75.204,171.104 75.204,204.362 "/>
<polyline fill="#618D99" points="153.483,205.961 117.421,205.961 117.421,169.505 153.483,169.505 153.483,205.961 "/>
<polyline fill="#8FAAB3" points="75.204,204.127 75.204,204.362 75.458,204.362 75.204,204.127 "/>
<polyline fill="#C7DDDF" points="42.305,173.694 42.305,204.362 75.204,204.362 75.204,204.127 42.305,173.694 "/>
<polyline fill="#AED1D4" points="151.901,204.362 119.003,204.362 119.003,171.104 151.901,171.104 151.901,204.362 "/>
<polyline fill="#8FAAB3" points="151.901,204.126 151.901,204.362 152.155,204.362 151.901,204.126 "/>
<polyline fill="#C7DDDF" points="119.003,173.694 119.003,204.362 151.901,204.362 151.901,204.126 119.003,173.694 "/>
<polyline fill="#736D79" points="22.645,153.784 171.838,153.784 158.283,134.353 35.839,134.353 22.645,153.784 "/>
<polyline fill="#5E5962" points="35.839,134.353 21.606,123.078 9.451,141.413 22.645,153.784 35.839,134.353 "/>
<circle fill="#5E5962" cx="106.069" cy="211.378" r="1.601"/>
<rect x="169.353" y="158.754" fill="#736D79" width="2.372" height="72.015"/>
<rect x="22.645" y="158.754" fill="#736D79" width="2.372" height="72.015"/>
<rect x="22.645" y="230.769" fill="#FFDC82" width="149.08" height="4.569"/>
<polyline fill="#F69370" points="158.283,120.807 35.839,120.807 35.839,134.353 158.283,134.353 158.283,120.807 "/>
<polyline fill="#C76C4D" points="21.606,78.502 21.606,123.078 35.839,134.353 21.606,78.502 21.606,78.502 "/>
<polyline fill="#60858E" points="97.873,17.282 37.873,83.362 71.929,83.362 97.873,17.282 "/>
</svg>
