<?xml version="1.0" encoding="utf-8"?>
<!-- Generator: Adobe Illustrator 17.0.0, SVG Export Plug-In . SVG Version: 6.00 Build 0)  -->
<!DOCTYPE svg PUBLIC "-//W3C//DTD SVG 1.1//EN" "http://www.w3.org/Graphics/SVG/1.1/DTD/svg11.dtd">
<svg version="1.1" id="Layer_1" xmlns="http://www.w3.org/2000/svg" xmlns:xlink="http://www.w3.org/1999/xlink" x="0px" y="0px"
	 width="155.99px" height="220.341px" viewBox="0 0 155.99 220.341" enable-background="new 0 0 155.99 220.341"
	 xml:space="preserve">
<polyline fill="#92958D" points="25.993,213.012 10.238,200.105 10.238,131.012 25.993,143.919 25.993,213.012 "/>
<polyline fill="#AFB3A9" points="135.85,213.012 25.993,213.012 25.993,143.919 135.85,143.919 135.85,213.012 "/>
<polyline fill="#676A63" points="25.993,144.967 10.238,132.061 10.238,62.967 25.993,75.874 25.993,144.967 "/>
<polyline fill="#84887F" points="135.85,144.967 25.993,144.967 25.993,75.874 135.85,75.874 135.85,144.967 "/>
<polyline fill="#92958D" points="25.993,140.931 10.238,128.024 10.238,58.93 25.993,71.837 25.993,140.931 "/>
<polyline fill="#2E454B" points="18.724,71.757 81.385,9.096 144.046,71.757 18.724,71.757 "/>
<polyline fill="#9AA86B" points="26.921,71.796 81.385,17.331 135.85,71.796 26.921,71.796 "/>
<polyline fill="#FEDE5F" points="115.251,51.198 113.018,51.198 104.836,43.008 96.775,51.198 47.691,51.198 64.078,34.812 
	98.865,34.812 105.971,41.918 115.251,51.198 "/>
<polyline fill="#AFB3A9" points="135.85,140.931 25.993,140.931 25.993,71.837 135.85,71.837 135.85,140.931 "/>
<polyline fill="#A0A399" points="30.547,71.837 30.547,71.837 30.547,140.931 131.214,140.931 90.72,113.137 90.72,140.931 
	63.22,140.931 63.22,100.527 72.347,100.527 30.547,71.837 "/>
<polyline fill="#898C83" points="10.238,132.061 10.238,199.904 25.993,213.012 17.989,138.41 10.238,132.061 "/>
<polyline fill="#63665F" points="10.238,128.024 10.238,132.061 17.989,138.41 17.514,133.984 10.238,128.024 "/>
<polyline fill="#898C83" points="10.238,66.173 10.238,128.024 17.514,133.984 10.238,66.173 10.238,66.173 "/>
<polyline fill="#A0A399" points="30.547,176.971 30.547,213.012 131.214,213.012 127.343,211.626 127.343,213.012 101.646,213.012 
	101.646,202.426 93.547,199.526 40.966,199.526 40.966,180.701 30.547,176.971 "/>
<polygon fill="#7D8857" points="90.433,111.97 81.359,104.483 81.359,63.483 90.433,70.97 "/>
<polyline fill="#9AA86B" points="117.942,100.527 90.442,100.527 90.442,66.944 117.942,66.944 117.942,100.527 "/>
<polygon fill="#2E454B" points="76.074,71.757 104.826,43.005 133.578,71.757 "/>
<polygon fill="#9AA86B" points="83.808,71.775 104.826,50.757 125.844,71.775 "/>
<polygon fill="#FEDE5F" points="97.347,71.757 104.865,64.24 112.382,71.757 "/>
<polygon fill="#7D8857" points="63.211,141.208 54.137,133.72 54.137,92.72 63.211,100.208 "/>
<polygon fill="#2E454B" points="47.322,100.509 76.074,71.757 104.826,100.509 "/>
<polygon fill="#9AA86B" points="55.056,100.527 76.074,79.509 97.092,100.527 "/>
<polygon fill="#FEDE5F" points="68.595,100.509 76.112,92.992 83.63,100.509 "/>
<polyline fill="#42636C" points="5.002,62.716 67.719,0 81.385,9.024 18.669,71.74 5.002,62.716 "/>
<polygon fill="#42636C" points="69.11,68.031 98.031,39.11 104.836,43.009 76.074,71.757 "/>
<polygon fill="#42636C" points="40.344,96.797 69.265,67.876 76.07,71.775 47.308,100.523 "/>
<polyline fill="#9AA86B" points="90.72,140.931 63.22,140.931 63.22,100.527 90.72,100.527 90.72,140.931 "/>
<path fill="#7D8857" d="M113.87,84.199c0,4.995-4.049,9.045-9.045,9.045c-4.995,0-9.044-4.049-9.044-9.045
	c0-4.995,4.049-9.045,9.044-9.045C109.821,75.155,113.87,79.204,113.87,84.199"/>
<path fill="#AED1D4" d="M111.732,84.199c0,2.187-1.022,4.14-2.604,5.404c-1.181,0.938-2.672,1.499-4.299,1.499
	c-3.815,0-6.903-3.088-6.903-6.903c0-1.65,0.575-3.164,1.544-4.352c1.264-1.559,3.194-2.551,5.359-2.551
	C108.636,77.296,111.732,80.384,111.732,84.199"/>
<polyline fill="#7D8857" points="86.973,137.993 66.967,137.993 66.967,103.464 86.973,103.464 86.973,137.993 "/>
<polyline fill="#AED1D4" points="84.917,136.053 69.023,136.053 69.023,105.404 84.917,105.404 84.917,136.053 "/>
<polyline fill="#C7DDDF" points="69.023,114.818 69.023,136.053 84.917,136.053 69.023,114.818 "/>
<rect x="25.993" y="140.931" fill="#84887F" width="4.554" height="72.082"/>
<path fill="#C7DDDF" d="M99.47,79.847L99.47,79.847c-0.969,1.189-1.544,2.702-1.544,4.352c0,3.815,3.088,6.903,6.903,6.903
	c1.627,0,3.118-0.56,4.299-1.499C104.132,87.832,101.097,83.238,99.47,79.847"/>
<polygon fill="#2E454B" points="150.862,160.127 34.135,160.127 25.993,153.062 25.993,144.967 36.027,154.576 150.862,154.576 "/>
<polygon fill="#42636C" points="36.027,154.576 150.988,154.576 135.85,144.967 25.993,144.967 "/>
<polygon fill="#FEDE5F" points="36.027,220.341 150.988,220.341 135.85,212.962 25.993,212.962 "/>
<rect x="34.135" y="160.127" fill="#2E454B" width="4.549" height="60.214"/>
<rect x="146.439" y="160.127" fill="#2E454B" width="4.549" height="60.214"/>
<polyline fill="#7D8857" points="101.646,162.249 127.343,162.249 127.343,213.012 101.646,213.012 101.646,162.249 "/>
<polyline fill="#FEDE5F" points="124.315,183.632 104.636,183.632 104.636,165.466 124.315,165.466 124.315,183.632 "/>
<rect x="104.636" y="191.201" fill="#FEDE5F" width="19.679" height="18.165"/>
<circle fill="#2E454B" cx="124.315" cy="187.631" r="1.325"/>
<polyline fill="#AED1D4" points="120.72,181.361 108.268,181.361 108.268,168.028 120.72,168.028 120.72,181.361 "/>
<polyline fill="#C7DDDF" points="108.268,172.123 108.268,181.361 120.72,181.361 108.268,172.123 "/>
<polyline fill="#7D8857" points="97.926,199.526 40.966,199.526 40.966,163.196 97.926,163.196 97.926,199.526 "/>
<polyline fill="#AED1D4" points="95.782,197.11 43.11,197.11 43.11,165.612 95.782,165.612 95.782,197.11 "/>
<polyline fill="#C7DDDF" points="43.11,175.286 43.11,197.11 95.782,197.11 43.11,175.286 "/>
<polyline fill="#84887F" points="30.547,140.931 25.993,140.931 25.993,71.837 30.547,71.837 30.547,140.931 "/>
<rect x="131.214" y="71.796" fill="#84887F" width="4.636" height="70.975"/>
<rect x="131.214" y="160.127" fill="#84887F" width="4.636" height="52.886"/>
<polyline fill="#DFDDDC" points="67.719,0 5.002,62.716 67.719,0 70.626,1.92 70.626,1.92 67.719,0 "/>
<polyline fill="#446067" points="67.719,0 5.002,62.716 18.669,71.74 70.626,1.92 67.719,0 "/>
<polyline fill="#8F9B67" points="81.385,17.331 26.921,71.796 50.275,71.74 62.021,51.198 47.691,51.198 64.078,34.812 
	71.39,34.812 81.385,17.331 "/>
<polyline fill="#E1C65F" points="71.39,34.812 64.078,34.812 47.691,51.198 62.021,51.198 71.39,34.812 "/>
</svg>
