<?xml version="1.0" encoding="utf-8"?>
<!-- Generator: Adobe Illustrator 17.0.0, SVG Export Plug-In . SVG Version: 6.00 Build 0)  -->
<!DOCTYPE svg PUBLIC "-//W3C//DTD SVG 1.1//EN" "http://www.w3.org/Graphics/SVG/1.1/DTD/svg11.dtd">
<svg version="1.1" id="Layer_1" xmlns="http://www.w3.org/2000/svg" xmlns:xlink="http://www.w3.org/1999/xlink" x="0px" y="0px"
	 width="351.35px" height="321.464px" viewBox="0 0 351.35 321.464" enable-background="new 0 0 351.35 321.464"
	 xml:space="preserve">
<polyline fill="#6F314A" points="49.796,300.747 16.173,273.204 16.173,125.758 49.796,153.301 49.796,300.747 "/>
<polygon fill="#5F2A40" points="49.796,300.747 16.173,273.204 16.173,125.758 31.361,214.172 "/>
<polyline fill="#92848B" points="34.285,153.13 168.003,19.412 301.721,153.13 34.285,153.13 "/>
<polyline fill="#E3E1E2" points="45.455,152.959 168.003,30.412 290.55,152.959 45.455,152.959 "/>
<polyline fill="#D1D2D3" points="211.342,73.749 124.661,73.749 141.502,56.909 194.502,56.909 211.342,73.749 "/>
<polyline fill="#914061" points="284.144,300.747 49.709,300.747 49.709,153.301 284.144,153.301 284.144,300.747 "/>
<polyline fill="#843A58" points="284.144,300.747 49.709,300.747 49.709,153.301 141.976,213.253 284.144,300.747 "/>
<rect x="49.709" y="188.575" fill="#E3E1E2" width="234.435" height="5.843"/>
<rect x="232.861" y="238.005" fill="#522536" width="29" height="62.742"/>
<rect x="218.361" y="161.482" fill="#522536" width="50" height="62.742"/>
<polygon fill="#863632" points="188.693,256.965 168.003,236.248 168.003,205.704 188.693,227.024 "/>
<rect x="201.818" y="299.311" fill="#92848B" width="111.447" height="22.154"/>
<polygon fill="#863632" points="70.486,321.464 49.796,300.747 49.796,269.518 70.486,290.837 "/>
<polygon fill="#712E2A" points="178.348,216.364 168.237,205.704 188.649,205.704 198.767,217.516 "/>
<polygon fill="#712E2A" points="70.486,290.837 49.648,269.518 60.51,269.518 82.046,290.837 "/>
<polygon fill="#712E2A" points="294.255,216.364 284.144,205.704 295.285,205.704 305.499,216.401 "/>
<polygon fill="#863632" points="70.486,321.464 62.25,312.383 62.25,242.344 70.486,243.308 "/>
<polygon fill="#863632" points="304.834,321.464 284.144,300.747 284.144,205.704 304.834,227.024 "/>
<polygon fill="#863632" points="188.693,299.311 178.355,288.945 178.355,193.902 188.606,203.776 "/>
<polygon fill="#712E2A" points="80.51,290.837 76.61,286.456 184.008,286.456 188.606,290.837 "/>
<polygon fill="#712E2A" points="188.606,203.776 178.355,193.902 198.767,193.902 208.929,203.776 "/>
<polygon fill="#712E2A" points="304.74,203.776 294.489,193.902 314.901,193.902 325.063,203.776 "/>
<polygon fill="#863632" points="304.827,299.311 294.489,288.945 294.489,193.902 304.827,203.776 "/>
<rect x="188.606" y="219.203" fill="#B64B44" width="136.509" height="37.604"/>
<polygon fill="#712E2A" points="196.518,219.384 192.618,215.003 300.016,215.003 304.614,219.384 "/>
<rect x="188.606" y="203.776" fill="#B64B44" width="20.323" height="117.688"/>
<rect x="70.486" y="290.837" fill="#B64B44" width="118.207" height="30.627"/>
<rect x="70.486" y="245.153" fill="#B64B44" width="12.537" height="76.312"/>
<rect x="304.614" y="203.776" fill="#B64B44" width="20.323" height="117.688"/>
<path fill="#D4D2D2" d="M168.719,73.749h-44.053l-79.211,79.211h11.592l55.566-55.566l55.566,55.566h1.849L168.719,73.749
	 M168.003,30.412l-26.497,26.497h26.935L168.003,30.412"/>
<polyline fill="#C4C5C6" points="168.441,56.909 141.506,56.909 124.666,73.749 168.719,73.749 168.441,56.909 "/>
<polygon fill="#86443A" points="5.001,133.837 138.838,0 168.003,19.257 34.166,153.094 "/>
<polyline fill="#92848B" points="48.356,161.65 112.613,97.393 176.869,161.65 48.356,161.65 "/>
<polyline fill="#E3E1E2" points="59.092,161.65 112.613,108.129 166.133,161.65 59.092,161.65 "/>
<polygon fill="#86443A" points="34.284,152.379 98.598,88.065 112.613,97.319 48.299,161.632 "/>
<rect x="190.139" y="163.521" fill="#E3E1E2" width="6.978" height="35.463"/>
<rect x="306.287" y="163.521" fill="#E3E1E2" width="6.978" height="35.463"/>
<polygon fill="#BBBDBF" points="306.636,198.984 303.963,196.443 303.963,166.062 306.636,163.521 "/>
<polygon fill="#BBBDBF" points="190.139,198.984 187.466,196.443 187.466,166.062 190.139,163.521 "/>
<polygon fill="#92848B" points="213.183,183.568 279.766,116.985 346.349,183.568 "/>
<polyline fill="#AED1D4" points="126.651,283.231 108.456,283.231 108.456,237.162 126.651,237.162 126.651,283.231 "/>
<polyline fill="#C7DDDF" points="108.456,251.312 108.456,283.231 126.651,283.231 108.456,251.312 "/>
<polyline fill="#AED1D4" points="146.647,283.231 128.451,283.231 128.451,237.162 146.647,237.162 146.647,283.231 "/>
<polyline fill="#C7DDDF" points="128.451,251.312 128.451,283.231 146.647,283.231 128.451,251.312 "/>
<polygon fill="#E3E1E2" points="224.308,183.568 279.766,128.11 335.225,183.568 "/>
<polygon fill="#86443A" points="168.003,153.335 234.645,86.693 279.766,116.908 213.124,183.551 "/>
<polygon fill="#92848B" points="60.081,245.153 122.681,222.872 178.378,222.872 178.318,245.153 "/>
<polygon fill="#E3E1E2" points="76.755,244.468 122.681,228.595 178.348,229.024 178.348,245.153 "/>
<polygon fill="#5F1E15" points="48.438,240.094 111.093,217.794 122.681,222.846 60.026,245.147 "/>
<polygon fill="#D1D2D3" points="141.976,137.181 83.368,137.181 94.754,125.794 130.59,125.794 "/>
<polygon fill="#F2F2F2" points="147.637,142.843 77.709,142.843 83.368,137.181 142.136,137.15 "/>
<polygon fill="#D1D2D3" points="153.208,148.494 72.017,148.494 77.676,142.832 147.706,142.801 "/>
<polygon fill="#5F1E15" points="173.735,217.794 111.093,217.794 122.681,222.846 178.378,222.872 "/>
<polyline fill="#914061" points="112.613,187.909 89.71,187.909 89.71,136.009 112.613,136.009 112.613,187.909 "/>
<polyline fill="#AED1D4" points="110.259,184.993 92.064,184.993 92.064,138.924 110.259,138.924 110.259,184.993 "/>
<polyline fill="#C7DDDF" points="92.064,153.074 92.064,184.993 109.706,184.993 109.706,184.022 92.064,153.074 "/>
<polyline fill="#914061" points="132.608,187.909 109.706,187.909 109.706,136.009 132.608,136.009 132.608,187.909 "/>
<polyline fill="#AED1D4" points="130.255,184.993 112.059,184.993 112.059,138.924 130.255,138.924 130.255,184.993 "/>
<polyline fill="#C7DDDF" points="112.059,153.074 112.059,184.993 130.255,184.993 112.059,153.074 "/>
<circle fill="#914061" cx="258.11" cy="273.659" r="1.768"/>
<polygon fill="#D1D2D3" points="211.341,73.749 124.662,73.749 141.502,56.909 194.502,56.909 "/>
<polygon fill="#F2F2F2" points="219.714,82.123 116.292,82.123 124.662,73.749 211.577,73.703 "/>
<polygon fill="#D1D2D3" points="227.953,90.481 107.874,90.481 116.244,82.107 219.816,82.061 "/>
<polygon fill="#D1D2D3" points="309.13,156.906 250.521,156.906 261.908,145.52 297.743,145.52 "/>
<polygon fill="#F2F2F2" points="314.791,162.568 244.862,162.568 250.521,156.906 309.289,156.875 "/>
<polygon fill="#D1D2D3" points="320.361,168.219 239.171,168.219 244.83,162.557 314.86,162.526 "/>
<rect x="188.693" y="231.47" fill="#863632" width="5.835" height="2.542"/>
<rect x="218.361" y="224.008" fill="#863632" width="5.835" height="2.542"/>
<rect x="203.861" y="238.005" fill="#863632" width="5.835" height="2.542"/>
<rect x="207.348" y="234.62" fill="#863632" width="5.835" height="2.542"/>
<rect x="210.848" y="238.005" fill="#863632" width="5.835" height="2.542"/>
<rect x="291.571" y="225.279" fill="#863632" width="5.835" height="2.542"/>
<rect x="309.776" y="225.279" fill="#863632" width="5.835" height="2.542"/>
<rect x="315.611" y="241.073" fill="#863632" width="5.835" height="2.542"/>
<rect x="308.94" y="241.073" fill="#863632" width="5.835" height="2.542"/>
<rect x="312.693" y="243.881" fill="#863632" width="5.835" height="2.542"/>
<rect x="307.43" y="269.349" fill="#863632" width="5.835" height="2.542"/>
<rect x="314.776" y="277.635" fill="#863632" width="5.835" height="2.542"/>
<rect x="308.94" y="290.837" fill="#863632" width="5.835" height="2.542"/>
<rect x="319.28" y="301.534" fill="#863632" width="5.835" height="2.542"/>
<rect x="255.193" y="238.005" fill="#863632" width="5.835" height="2.542"/>
<rect x="261.861" y="238.005" fill="#863632" width="5.835" height="2.542"/>
<rect x="268.361" y="238.005" fill="#863632" width="5.835" height="2.542"/>
<rect x="256.961" y="224.008" fill="#863632" width="5.835" height="2.542"/>
<rect x="229.944" y="249.716" fill="#863632" width="5.835" height="2.542"/>
<rect x="198.9" y="265.812" fill="#863632" width="5.835" height="2.542"/>
<rect x="200.111" y="276.364" fill="#863632" width="5.835" height="2.542"/>
<rect x="189.701" y="281.96" fill="#863632" width="5.835" height="2.542"/>
<rect x="197.193" y="287.376" fill="#863632" width="5.835" height="2.542"/>
<rect x="172.543" y="302.805" fill="#863632" width="5.835" height="2.542"/>
<rect x="172.543" y="309.659" fill="#863632" width="5.835" height="2.542"/>
<rect x="176.869" y="306.151" fill="#863632" width="5.835" height="2.542"/>
<rect x="81.369" y="306.151" fill="#863632" width="5.835" height="2.542"/>
<rect x="88.203" y="298.04" fill="#863632" width="5.835" height="2.542"/>
<rect x="95.327" y="312.201" fill="#863632" width="5.835" height="2.542"/>
<rect x="128.451" y="304.076" fill="#863632" width="5.835" height="2.542"/>
<rect x="70.531" y="278.906" fill="#863632" width="5.835" height="2.542"/>
<rect x="70.531" y="264.541" fill="#863632" width="5.835" height="2.542"/>
<rect x="169.626" y="306.151" fill="#863632" width="5.835" height="2.542"/>
<rect x="319.28" y="309.117" fill="#863632" width="5.835" height="2.542"/>
</svg>
