<?xml version="1.0" encoding="utf-8"?>
<!-- Generator: Adobe Illustrator 15.0.0, SVG Export Plug-In . SVG Version: 6.00 Build 0)  -->
<!DOCTYPE svg PUBLIC "-//W3C//DTD SVG 1.1//EN" "http://www.w3.org/Graphics/SVG/1.1/DTD/svg11.dtd">
<svg version="1.1" id="Layer_1" xmlns="http://www.w3.org/2000/svg" xmlns:xlink="http://www.w3.org/1999/xlink" x="0px" y="0px"
	 width="550.488px" height="253.212px" viewBox="0 0 550.488 253.212" enable-background="new 0 0 550.488 253.212"
	 xml:space="preserve">
<g>
	<polygon fill="#95B1BD" points="0,227.465 16.274,241.629 16.274,14.164 0,0 	"/>
	<polyline fill="#B2D1E4" points="16.273,241.629 526.267,241.629 526.267,14.164 16.273,14.164 16.273,241.629 	"/>
	<polygon fill="#A7C3D3" points="360.373,207.497 394.373,207.497 394.373,194.631 360.373,182.668 	"/>
	<polygon fill="#A7C3D3" points="39.373,207.497 39.373,113.599 178.373,129.998 178.373,207.497 221.373,207.497 221.373,127.25 
		139.419,81.497 98.373,81.497 98.373,59.48 66.373,41.782 66.373,81.497 25.373,81.497 25.373,28.497 41.395,28.497 16.276,14.497 
		16.373,14.497 16.373,207.497 	"/>
	<polyline fill="#A0BCCD" points="16.273,241.629 526.267,241.629 526.267,207.747 16.273,207.747 16.273,241.629 	"/>
	<polygon fill="#968995" points="24.168,240.253 39.775,253.211 57.557,127.762 24.168,99.436 	"/>
	<polyline fill="#BDAABB" points="39.775,253.212 178.873,253.212 178.873,129.998 39.775,113.599 39.775,253.212 	"/>
	<rect x="39.776" y="241.628" fill="#A897A7" width="139.098" height="11.583"/>
	<rect x="39.776" y="249.997" fill="#968796" width="139.098" height="3.214"/>
	<rect x="50.469" y="147.497" fill="#A897A7" width="117.712" height="22.816"/>
	<polygon fill="#8098A5" points="526.268,14.164 16.274,14.164 0.001,0 509.154,0 	"/>
	<polygon fill="#7E727D" points="195.988,140.997 57.556,140.997 24.168,99.436 161.76,99.436 	"/>
	<polygon fill="#967276" points="205.972,240.253 221.579,253.211 239.359,127.762 205.972,99.436 	"/>
	<polyline fill="#BD8D90" points="221.579,253.212 360.678,253.212 360.678,132.623 221.579,113.599 221.579,253.212 	"/>
	<rect x="221.579" y="241.628" fill="#AD8184" width="139.098" height="11.583"/>
	<rect x="221.579" y="249.997" fill="#946E71" width="139.098" height="3.214"/>
	<polygon fill="#7E5F62" points="377.792,140.997 239.359,140.997 205.972,99.436 343.563,99.436 	"/>
	<polygon fill="#899691" points="378.668,240.253 394.275,253.211 412.057,127.762 378.668,99.436 	"/>
	<polyline fill="#AABDB7" points="394.275,253.212 533.373,253.212 533.373,125.998 394.275,113.599 394.275,253.212 	"/>
	<rect x="394.276" y="241.628" fill="#9CADA8" width="139.098" height="11.583"/>
	<rect x="394.276" y="249.997" fill="#8F9E9A" width="139.098" height="3.214"/>
	<polygon fill="#727E7A" points="550.488,140.997 412.056,140.997 378.668,99.436 516.26,99.436 	"/>
	<polygon fill="#968995" points="39.775,125.745 57.557,140.997 39.775,118.649 	"/>
	<polygon fill="#967276" points="221.579,125.745 239.36,140.997 221.407,118.649 	"/>
	<polygon fill="#899691" points="394.275,125.745 412.057,140.997 394.275,118.649 	"/>
	<rect x="48.666" y="180.619" fill="#3B3B34" width="35.5" height="72.592"/>
	<rect x="230.47" y="180.619" fill="#3B3B34" width="35.5" height="72.592"/>
	<rect x="402.166" y="180.619" fill="#3B3B34" width="35.5" height="72.592"/>
	<polyline fill="#AED1D4" points="168.182,225.979 100.341,225.979 100.341,180.107 168.182,180.107 168.182,225.979 	"/>
	<polygon fill="#C8E0E2" points="100.373,225.497 168.181,225.497 100.373,203.044 	"/>
	<polyline fill="#95B1BD" points="66.416,81.994 25.52,81.994 25.52,28 66.416,28 66.416,81.994 	"/>
	<polyline fill="#AED1D4" points="62.928,77.933 29.008,77.933 29.008,32.062 62.928,32.062 62.928,77.933 	"/>
	<polygon fill="#C8E0E2" points="29.373,77.497 63.373,77.497 63.373,77.93 29.373,54.997 	"/>
	<polyline fill="#95B1BD" points="139.443,81.994 98.547,81.994 98.547,28 139.443,28 139.443,81.994 	"/>
	<polyline fill="#AED1D4" points="135.954,77.933 102.034,77.933 102.034,32.062 135.954,32.062 135.954,77.933 	"/>
	<polygon fill="#C8E0E2" points="102.373,77.497 135.953,77.497 102.373,54.997 	"/>
	<polyline fill="#95B1BD" points="216.207,81.994 175.311,81.994 175.311,28 216.207,28 216.207,81.994 	"/>
	<polyline fill="#AED1D4" points="212.719,77.933 178.799,77.933 178.799,32.062 212.719,32.062 212.719,77.933 	"/>
	<polygon fill="#C8E0E2" points="178.373,77.497 212.718,77.497 178.373,55 	"/>
	<polyline fill="#95B1BD" points="289.234,81.994 248.338,81.994 248.338,28 289.234,28 289.234,81.994 	"/>
	<polyline fill="#AED1D4" points="285.746,77.933 251.826,77.933 251.826,32.062 285.746,32.062 285.746,77.933 	"/>
	<polygon fill="#C8E0E2" points="251.373,77.497 285.743,77.497 285.517,77.714 251.373,54.997 	"/>
	<polyline fill="#95B1BD" points="364.639,81.994 323.743,81.994 323.743,28 364.639,28 364.639,81.994 	"/>
	<polyline fill="#AED1D4" points="361.151,77.933 327.231,77.933 327.231,32.062 361.151,32.062 361.151,77.933 	"/>
	<polygon fill="#C8E0E2" points="327.373,77.497 361.149,77.497 327.373,54.999 	"/>
	<polyline fill="#95B1BD" points="437.666,81.994 396.77,81.994 396.77,28 437.666,28 437.666,81.994 	"/>
	<polyline fill="#AED1D4" points="434.178,77.933 400.258,77.933 400.258,32.062 434.178,32.062 434.178,77.933 	"/>
	<polygon fill="#C8E0E2" points="400.373,77.497 434.373,77.497 434.373,77.93 400.373,54.997 	"/>
	<polyline fill="#95B1BD" points="512.666,81.994 471.77,81.994 471.77,28 512.666,28 512.666,81.994 	"/>
	<polyline fill="#AED1D4" points="509.178,77.933 475.258,77.933 475.258,32.062 509.178,32.062 509.178,77.933 	"/>
	<polygon fill="#C8E0E2" points="475.373,77.497 509.373,77.497 509.373,77.931 475.373,54.997 	"/>
	<polyline fill="#AED1D4" points="348.182,225.979 280.341,225.979 280.341,180.107 348.182,180.107 348.182,225.979 	"/>
	<polygon fill="#C8E0E2" points="280.373,225.497 348.181,225.497 280.373,203.044 	"/>
	<polyline fill="#AED1D4" points="519.182,225.979 451.341,225.979 451.341,180.107 519.182,180.107 519.182,225.979 	"/>
	<polygon fill="#C8E0E2" points="451.373,225.497 519.181,225.497 451.373,203.044 	"/>
	<rect x="232.271" y="147.497" fill="#AD8184" width="117.713" height="22.816"/>
	<rect x="404.969" y="147.497" fill="#9CADA8" width="117.712" height="22.816"/>
	<polygon fill="#ADADAD" points="75.281,136.55 80.116,140.651 80.116,119.243 75.281,115.141 	"/>
	<rect x="80.116" y="119.242" fill="#D3D4D3" width="77.757" height="21.409"/>
	<polygon fill="#949594" points="157.873,119.242 80.116,119.242 75.281,115.141 152.917,115.141 	"/>
	<polygon fill="#ADADAD" points="260.281,136.55 265.116,140.651 265.116,119.243 260.281,115.141 	"/>
	<rect x="265.116" y="119.242" fill="#D3D4D3" width="77.757" height="21.409"/>
	<polygon fill="#949594" points="342.873,119.242 265.116,119.242 260.281,115.141 337.917,115.141 	"/>
	<polygon fill="#ADADAD" points="432.666,136.55 437.5,140.651 437.5,119.243 432.666,115.141 	"/>
	<rect x="437.5" y="119.242" fill="#D3D4D3" width="77.757" height="21.409"/>
	<polygon fill="#949594" points="515.258,119.242 437.501,119.242 432.666,115.141 510.302,115.141 	"/>
	<path fill="#7E9675" d="M80.116,220.747c0,1.335-1.082,2.417-2.417,2.417c-1.336,0-2.418-1.082-2.418-2.417
		s1.082-2.417,2.418-2.417C79.034,218.33,80.116,219.412,80.116,220.747"/>
	<path fill="#7E9675" d="M262.698,220.747c0,1.335-1.082,2.417-2.417,2.417s-2.417-1.082-2.417-2.417s1.082-2.417,2.417-2.417
		S262.698,219.412,262.698,220.747"/>
	<path fill="#7E9675" d="M434.04,220.747c0,1.335-1.082,2.417-2.417,2.417s-2.417-1.082-2.417-2.417s1.082-2.417,2.417-2.417
		S434.04,219.412,434.04,220.747"/>
</g>
</svg>
