<?xml version="1.0" encoding="utf-8"?>
<!-- Generator: Adobe Illustrator 15.0.0, SVG Export Plug-In . SVG Version: 6.00 Build 0)  -->
<!DOCTYPE svg PUBLIC "-//W3C//DTD SVG 1.1//EN" "http://www.w3.org/Graphics/SVG/1.1/DTD/svg11.dtd">
<svg version="1.1" id="Layer_1" xmlns="http://www.w3.org/2000/svg" xmlns:xlink="http://www.w3.org/1999/xlink" x="0px" y="0px"
	 width="392.754px" height="476.698px" viewBox="0 0 392.754 476.698" enable-background="new 0 0 392.754 476.698"
	 xml:space="preserve">
<polygon fill="#D4AB4C" points="0,426.105 28.754,452.249 28.754,78 0,51.856 "/>
<rect x="28.754" y="78" fill="#FFDA85" width="364" height="374.249"/>
<polygon fill="#9C7D38" points="392.754,78 28.754,78 0,51.856 363.16,51.856 "/>
<polygon fill="#9C7D38" points="367.333,59.327 94.421,59.327 60.867,31 326.986,31 "/>
<polygon fill="#D4AB4C" points="60.866,64.928 94.421,95.72 94.421,59.327 60.866,31 "/>
<polygon fill="#D4AB4C" points="76.703,450.562 94.42,467.19 94.42,92.034 76.703,77.87 "/>
<rect x="94.421" y="59.327" fill="#FFD475" width="271.696" height="407.863"/>
<polygon fill="#E8BB54" points="147.754,476.19 323.421,476.19 323.421,45.164 235.587,22.5 147.754,45.164 "/>
<polygon fill="#FFCE5C" points="158.254,476.19 312.421,476.19 312.421,53.239 235.337,31 158.254,53.239 "/>
<g>
	<path fill="#DBB14F" d="M196.679,400.026h77.818V110.5c0,0-15.37-14.617-38.909-14.617c-23.54,0-38.909,14.617-38.909,14.617
		V400.026z"/>
	<path fill="#D1A94B" d="M201.755,395.026h67.666V115.02c0,0-13.365-14.137-33.834-14.137s-33.832,14.137-33.832,14.137V395.026z"/>
	<polygon fill="#80662D" points="235.591,22.5 147.751,45.16 121.431,22.66 209.261,0 	"/>
	<polygon fill="#9C7D38" points="297.091,22.66 323.421,45.164 235.591,22.5 209.261,0 	"/>
	<polygon fill="#D4AB4C" points="138.979,467.19 147.754,476.19 147.754,45.164 138.979,37.692 	"/>
	<polygon fill="#D4AB4C" points="121.427,44.386 138.979,59.328 138.979,37.692 121.427,22.751 	"/>
	<rect x="176.171" y="400.026" fill="#E8A554" width="119.5" height="76.164"/>
	<rect x="223.421" y="410.927" fill="#A8783D" width="27" height="36.74"/>
	<polygon fill="#929497" points="253.671,454.165 226.671,454.165 223.421,451.5 223.421,447.666 	"/>
	<rect x="226.671" y="450.332" fill="#D0D2D3" width="27" height="3.833"/>
	<polygon fill="#B8B9BA" points="253.671,450.332 226.671,450.332 223.421,447.667 250.421,447.667 	"/>
	<rect x="183.072" y="410.926" fill="#D4974D" width="32.349" height="65.265"/>
	<rect x="257.071" y="410.926" fill="#D4974D" width="32.35" height="65.265"/>
	<rect x="331.473" y="407.892" fill="#E8A554" width="19" height="30.218"/>
	<polygon fill="#929497" points="153.968,396.77 170.391,410.75 170.391,390.508 153.968,376.526 	"/>
	<rect x="170.391" y="390.507" fill="#D0D2D3" width="163.618" height="20.243"/>
	<polygon fill="#B8B9BA" points="334.759,390.507 170.391,390.507 153.968,376.526 318.335,376.526 	"/>
	<rect x="179.1" y="394.237" fill="#B8B9BA" width="147.945" height="2.074"/>
	<rect x="179.1" y="399.591" fill="#B8B9BA" width="147.945" height="2.075"/>
	<rect x="179.1" y="404.737" fill="#B8B9BA" width="147.945" height="2.074"/>
	<rect x="108.421" y="407.892" fill="#E8A554" width="19" height="30.218"/>
	<rect x="111.421" y="410.927" fill="#E8B272" width="13" height="24.147"/>
	<rect x="43.921" y="397.714" fill="#E8A554" width="19" height="30.217"/>
	<rect x="368.117" y="397.714" fill="#E8A554" width="19" height="30.217"/>
	<rect x="46.921" y="400.749" fill="#E8B272" width="13" height="24.147"/>
	<rect x="334.473" y="410.927" fill="#E8B272" width="13" height="24.147"/>
	<rect x="371.117" y="400.749" fill="#E8B272" width="13" height="24.147"/>
	<g opacity="0.22">
		<g>
			<defs>
				<rect id="SVGID_1_" x="223.421" y="417.5" width="23.75" height="30.167"/>
			</defs>
			<clipPath id="SVGID_2_">
				<use xlink:href="#SVGID_1_"  overflow="visible"/>
			</clipPath>
			<polygon clip-path="url(#SVGID_2_)" fill="#FCFCFF" points="223.421,417.5 247.171,447.667 223.421,447.667 			"/>
		</g>
	</g>
	<g opacity="0.22">
		<g>
			<defs>
				<rect id="SVGID_3_" x="183.251" y="435.312" width="32.58" height="41.387"/>
			</defs>
			<clipPath id="SVGID_4_">
				<use xlink:href="#SVGID_3_"  overflow="visible"/>
			</clipPath>
			<polygon clip-path="url(#SVGID_4_)" fill="#FCFCFF" points="183.246,435.312 215.829,476.699 183.246,476.699 			"/>
		</g>
	</g>
	<g opacity="0.22">
		<g>
			<defs>
				<rect id="SVGID_5_" x="256.951" y="435.312" width="32.59" height="41.387"/>
			</defs>
			<clipPath id="SVGID_6_">
				<use xlink:href="#SVGID_5_"  overflow="visible"/>
			</clipPath>
			<polygon clip-path="url(#SVGID_6_)" fill="#FCFCFF" points="256.954,435.312 289.538,476.699 256.954,476.699 			"/>
		</g>
	</g>
	<path fill="#8A6232" d="M240.171,440.75c0,1.795-1.455,3.25-3.25,3.25s-3.25-1.455-3.25-3.25s1.455-3.25,3.25-3.25
		S240.171,438.955,240.171,440.75"/>
	<path fill="#A8783D" d="M239.145,440.75c0,1.228-0.995,2.224-2.224,2.224s-2.224-0.996-2.224-2.224s0.995-2.224,2.224-2.224
		S239.145,439.522,239.145,440.75"/>
	<path fill="#929497" d="M212.413,450.916c0,0.415-0.336,0.751-0.751,0.751H186.83c-0.414,0-0.75-0.336-0.75-0.751
		s0.336-0.751,0.75-0.751h24.832C212.077,450.165,212.413,450.501,212.413,450.916"/>
	<path fill="#929497" d="M286.413,450.916c0,0.415-0.336,0.751-0.751,0.751H260.83c-0.414,0-0.75-0.336-0.75-0.751
		s0.336-0.751,0.75-0.751h24.832C286.077,450.165,286.413,450.501,286.413,450.916"/>
	<path fill="#929497" d="M212.413,454.165c0,0.415-0.336,0.751-0.751,0.751H186.83c-0.414,0-0.75-0.336-0.75-0.751
		s0.336-0.751,0.75-0.751h24.832C212.077,453.414,212.413,453.75,212.413,454.165"/>
	<path fill="#929497" d="M286.413,454.165c0,0.415-0.336,0.751-0.751,0.751H260.83c-0.414,0-0.75-0.336-0.75-0.751
		s0.336-0.751,0.75-0.751h24.832C286.077,453.414,286.413,453.75,286.413,454.165"/>
	<rect x="94.421" y="68" fill="#E8B272" width="44.557" height="9.87"/>
	<polygon fill="#CF9E65" points="94.254,77.87 60.866,50.095 60.866,40.225 94.254,68 	"/>
	<polygon fill="#CF9E65" points="28.754,95.882 0,71.5 0,61.63 28.754,86.012 	"/>
	<rect x="323.421" y="68" fill="#E8B272" width="42.696" height="9.87"/>
	<rect x="28.755" y="86.012" fill="#E8B272" width="47.948" height="9.87"/>
	<rect x="366.117" y="86.012" fill="#E8B272" width="26.637" height="9.87"/>
	<rect x="45.62" y="307.333" fill="#D4AB4C" width="4.718" height="24"/>
	<rect x="55.12" y="307.333" fill="#D4AB4C" width="4.718" height="24"/>
	<rect x="110.812" y="300.333" fill="#D4AB4C" width="4.718" height="24"/>
	<rect x="120.312" y="300.333" fill="#D4AB4C" width="4.718" height="24"/>
	<rect x="372.327" y="312.333" fill="#D4AB4C" width="4.718" height="24"/>
	<rect x="381.827" y="312.333" fill="#D4AB4C" width="4.718" height="24"/>
	<rect x="337.66" y="300.333" fill="#D4AB4C" width="4.718" height="24"/>
	<rect x="347.16" y="300.333" fill="#D4AB4C" width="4.718" height="24"/>
	<g opacity="0.22">
		<g>
			<defs>
				<rect id="SVGID_7_" x="120.311" y="307.333" width="4.72" height="17"/>
			</defs>
			<clipPath id="SVGID_8_">
				<use xlink:href="#SVGID_7_"  overflow="visible"/>
			</clipPath>
			<polygon clip-path="url(#SVGID_8_)" fill="#FCFCFF" points="120.312,307.333 125.03,324.333 120.312,324.333 			"/>
		</g>
	</g>
	<g opacity="0.22">
		<g>
			<defs>
				<rect id="SVGID_9_" x="110.811" y="307.333" width="4.72" height="17"/>
			</defs>
			<clipPath id="SVGID_10_">
				<use xlink:href="#SVGID_9_"  overflow="visible"/>
			</clipPath>
			<polygon clip-path="url(#SVGID_10_)" fill="#FCFCFF" points="110.812,307.333 115.53,324.333 110.812,324.333 			"/>
		</g>
	</g>
	<rect x="110.812" y="139.667" fill="#D4AB4C" width="4.718" height="24"/>
	<rect x="120.312" y="139.667" fill="#D4AB4C" width="4.718" height="24"/>
	<g opacity="0.22">
		<g>
			<defs>
				<rect id="SVGID_11_" x="120.311" y="146.667" width="4.72" height="17"/>
			</defs>
			<clipPath id="SVGID_12_">
				<use xlink:href="#SVGID_11_"  overflow="visible"/>
			</clipPath>
			<polygon clip-path="url(#SVGID_12_)" fill="#FCFCFF" points="120.312,146.667 125.03,163.667 120.312,163.667 			"/>
		</g>
	</g>
	<g opacity="0.22">
		<g>
			<defs>
				<rect id="SVGID_13_" x="110.811" y="146.667" width="4.72" height="17"/>
			</defs>
			<clipPath id="SVGID_14_">
				<use xlink:href="#SVGID_13_"  overflow="visible"/>
			</clipPath>
			<polygon clip-path="url(#SVGID_14_)" fill="#FCFCFF" points="110.812,146.667 115.53,163.667 110.812,163.667 			"/>
		</g>
	</g>
	<rect x="337.66" y="139.667" fill="#D4AB4C" width="4.718" height="24"/>
	<rect x="347.16" y="139.667" fill="#D4AB4C" width="4.718" height="24"/>
	<g opacity="0.22">
		<g>
			<defs>
				<rect id="SVGID_15_" x="347.161" y="146.667" width="4.72" height="17"/>
			</defs>
			<clipPath id="SVGID_16_">
				<use xlink:href="#SVGID_15_"  overflow="visible"/>
			</clipPath>
			<polygon clip-path="url(#SVGID_16_)" fill="#FCFCFF" points="347.159,146.667 351.878,163.667 347.159,163.667 			"/>
		</g>
	</g>
	<g opacity="0.22">
		<g>
			<defs>
				<rect id="SVGID_17_" x="337.661" y="146.667" width="4.72" height="17"/>
			</defs>
			<clipPath id="SVGID_18_">
				<use xlink:href="#SVGID_17_"  overflow="visible"/>
			</clipPath>
			<polygon clip-path="url(#SVGID_18_)" fill="#FCFCFF" points="337.659,146.667 342.378,163.667 337.659,163.667 			"/>
		</g>
	</g>
	<rect x="372.649" y="153.334" fill="#D4AB4C" width="4.718" height="24"/>
	<rect x="382.149" y="153.334" fill="#D4AB4C" width="4.718" height="24"/>
	<g opacity="0.22">
		<g>
			<defs>
				<rect id="SVGID_19_" x="382.151" y="160.334" width="4.72" height="17"/>
			</defs>
			<clipPath id="SVGID_20_">
				<use xlink:href="#SVGID_19_"  overflow="visible"/>
			</clipPath>
			<polygon clip-path="url(#SVGID_20_)" fill="#FCFCFF" points="382.148,160.334 386.866,177.334 382.148,177.334 			"/>
		</g>
	</g>
	<g opacity="0.22">
		<g>
			<defs>
				<rect id="SVGID_21_" x="372.651" y="160.334" width="4.72" height="17"/>
			</defs>
			<clipPath id="SVGID_22_">
				<use xlink:href="#SVGID_21_"  overflow="visible"/>
			</clipPath>
			<polygon clip-path="url(#SVGID_22_)" fill="#FCFCFF" points="372.648,160.334 377.366,177.334 372.648,177.334 			"/>
		</g>
	</g>
	<rect x="46.312" y="153.334" fill="#D4AB4C" width="4.718" height="24"/>
	<rect x="55.812" y="153.334" fill="#D4AB4C" width="4.718" height="24"/>
	<g opacity="0.22">
		<g>
			<defs>
				<rect id="SVGID_23_" x="55.811" y="160.334" width="4.72" height="17"/>
			</defs>
			<clipPath id="SVGID_24_">
				<use xlink:href="#SVGID_23_"  overflow="visible"/>
			</clipPath>
			<polygon clip-path="url(#SVGID_24_)" fill="#FCFCFF" points="55.812,160.334 60.53,177.334 55.812,177.334 			"/>
		</g>
	</g>
	<g opacity="0.22">
		<g>
			<defs>
				<rect id="SVGID_25_" x="46.311" y="160.334" width="4.72" height="17"/>
			</defs>
			<clipPath id="SVGID_26_">
				<use xlink:href="#SVGID_25_"  overflow="visible"/>
			</clipPath>
			<polygon clip-path="url(#SVGID_26_)" fill="#FCFCFF" points="46.312,160.334 51.03,177.334 46.312,177.334 			"/>
		</g>
	</g>
	<g opacity="0.22">
		<g>
			<defs>
				<rect id="SVGID_27_" x="55.121" y="314.333" width="4.72" height="17"/>
			</defs>
			<clipPath id="SVGID_28_">
				<use xlink:href="#SVGID_27_"  overflow="visible"/>
			</clipPath>
			<polygon clip-path="url(#SVGID_28_)" fill="#FCFCFF" points="55.119,314.333 59.837,331.333 55.119,331.333 			"/>
		</g>
	</g>
	<g opacity="0.22">
		<g>
			<defs>
				<rect id="SVGID_29_" x="45.621" y="314.333" width="4.72" height="17"/>
			</defs>
			<clipPath id="SVGID_30_">
				<use xlink:href="#SVGID_29_"  overflow="visible"/>
			</clipPath>
			<polygon clip-path="url(#SVGID_30_)" fill="#FCFCFF" points="45.619,314.333 50.337,331.333 45.619,331.333 			"/>
		</g>
	</g>
	<g opacity="0.22">
		<g>
			<defs>
				<rect id="SVGID_31_" x="372.331" y="319.333" width="4.71" height="17"/>
			</defs>
			<clipPath id="SVGID_32_">
				<use xlink:href="#SVGID_31_"  overflow="visible"/>
			</clipPath>
			<polygon clip-path="url(#SVGID_32_)" fill="#FCFCFF" points="372.326,319.333 377.044,336.333 372.326,336.333 			"/>
		</g>
	</g>
	<g opacity="0.22">
		<g>
			<defs>
				<rect id="SVGID_33_" x="381.761" y="319.333" width="4.71" height="17"/>
			</defs>
			<clipPath id="SVGID_34_">
				<use xlink:href="#SVGID_33_"  overflow="visible"/>
			</clipPath>
			<polygon clip-path="url(#SVGID_34_)" fill="#FCFCFF" points="381.758,319.333 386.476,336.333 381.758,336.333 			"/>
		</g>
	</g>
	<g opacity="0.22">
		<g>
			<defs>
				<rect id="SVGID_35_" x="347.161" y="307.333" width="4.72" height="17"/>
			</defs>
			<clipPath id="SVGID_36_">
				<use xlink:href="#SVGID_35_"  overflow="visible"/>
			</clipPath>
			<polygon clip-path="url(#SVGID_36_)" fill="#FCFCFF" points="347.159,307.333 351.878,324.333 347.159,324.333 			"/>
		</g>
	</g>
	<g opacity="0.22">
		<g>
			<defs>
				<rect id="SVGID_37_" x="337.661" y="307.333" width="4.72" height="17"/>
			</defs>
			<clipPath id="SVGID_38_">
				<use xlink:href="#SVGID_37_"  overflow="visible"/>
			</clipPath>
			<polygon clip-path="url(#SVGID_38_)" fill="#FCFCFF" points="337.659,307.333 342.378,324.333 337.659,324.333 			"/>
		</g>
	</g>
	<rect x="248.051" y="125.5" fill="#D14B4B" width="12.029" height="260.517"/>
	<polygon fill="#BA4343" points="248.051,386.017 226.671,378.213 226.671,117.696 248.051,125.5 	"/>
	<polygon fill="#B03F3F" points="260.079,125.5 241.421,117.696 227.663,117.696 248.051,125.5 	"/>
	<g opacity="0.05">
		<g>
			<defs>
				<rect id="SVGID_39_" x="147.751" y="45.164" width="112.33" height="431.026"/>
			</defs>
			<clipPath id="SVGID_40_">
				<use xlink:href="#SVGID_39_"  overflow="visible"/>
			</clipPath>
			<polygon clip-path="url(#SVGID_40_)" points="147.754,45.164 196.377,376.526 235.337,390.508 260.079,413.438 199.246,410.927 
				230.185,476.19 147.754,476.19 			"/>
		</g>
	</g>
	<g opacity="0.05">
		<g>
			<defs>
				<rect id="SVGID_41_" x="94.251" y="59.327" width="30.78" height="407.863"/>
			</defs>
			<clipPath id="SVGID_42_">
				<use xlink:href="#SVGID_41_"  overflow="visible"/>
			</clipPath>
			<polygon clip-path="url(#SVGID_42_)" points="94.254,59.327 125.03,467.19 94.254,467.19 			"/>
		</g>
	</g>
	<g opacity="0.05">
		<g>
			<defs>
				<rect id="SVGID_43_" x="28.531" y="78" width="30.78" height="373.886"/>
			</defs>
			<clipPath id="SVGID_44_">
				<use xlink:href="#SVGID_43_"  overflow="visible"/>
			</clipPath>
			<polygon clip-path="url(#SVGID_44_)" points="28.754,78 59.309,451.886 28.533,451.886 			"/>
		</g>
	</g>
	<g opacity="0.05">
		<g>
			<defs>
				<rect id="SVGID_45_" x="366.371" y="78.181" width="15.39" height="373.886"/>
			</defs>
			<clipPath id="SVGID_46_">
				<use xlink:href="#SVGID_45_"  overflow="visible"/>
			</clipPath>
			<polygon clip-path="url(#SVGID_46_)" points="366.37,78.181 381.758,452.067 366.37,452.067 			"/>
		</g>
	</g>
	<g opacity="0.03">
		<g>
			<defs>
				<rect id="SVGID_47_" x="323.421" y="93.304" width="15.391" height="373.886"/>
			</defs>
			<clipPath id="SVGID_48_">
				<use xlink:href="#SVGID_47_"  overflow="visible"/>
			</clipPath>
			<polygon clip-path="url(#SVGID_48_)" points="323.421,93.304 338.809,467.19 323.421,467.19 			"/>
		</g>
	</g>
	<g opacity="0.05">
		<g>
			<defs>
				<rect id="SVGID_49_" x="0.001" y="51.856" width="28.53" height="400.03"/>
			</defs>
			<clipPath id="SVGID_50_">
				<use xlink:href="#SVGID_49_"  overflow="visible"/>
			</clipPath>
			<polygon clip-path="url(#SVGID_50_)" points="0,51.856 28.533,451.887 0,426.105 			"/>
		</g>
	</g>
</g>
</svg>
