<?xml version="1.0" encoding="utf-8"?>
<!-- Generator: Adobe Illustrator 17.0.0, SVG Export Plug-In . SVG Version: 6.00 Build 0)  -->
<!DOCTYPE svg PUBLIC "-//W3C//DTD SVG 1.1//EN" "http://www.w3.org/Graphics/SVG/1.1/DTD/svg11.dtd">
<svg version="1.1" id="Layer_1" xmlns="http://www.w3.org/2000/svg" xmlns:xlink="http://www.w3.org/1999/xlink" x="0px" y="0px"
	 width="38.04px" height="47.242px" viewBox="0 0 38.04 47.242" enable-background="new 0 0 38.04 47.242" xml:space="preserve">
<polyline fill="#949689" points="8.914,43.738 5.591,43.738 5.591,42.784 8.914,42.784 8.914,43.738 "/>
<polyline fill="#949689" points="4.998,42.282 10.015,46.288 10.015,11.416 4.998,7.41 4.998,42.282 "/>
<polyline fill="#BBBDAA" points="10.015,46.288 33.042,46.288 33.042,11.416 10.015,11.416 10.015,46.288 "/>
<polyline fill="#7D7F73" points="33.042,11.416 10.015,11.416 4.998,7.41 27.486,7.41 33.042,11.416 "/>
<polygon fill="#949689" points="12.095,8.067 15.419,10.378 15.419,2.312 12.095,0 "/>
<rect x="15.419" y="2.312" fill="#BBBDAA" width="9.849" height="8.067"/>
<polygon fill="#7D7F73" points="25.267,2.312 15.419,2.312 12.095,0 21.405,0 "/>
<path fill="#949689" d="M19.02,15.772h-6.7v-0.45c0-0.406,0.329-0.736,0.736-0.736h5.964V15.772"/>
<path fill="#949689" d="M30.992,15.772h-6.7v-1.186h5.552c0.634,0,1.148,0.514,1.148,1.148V15.772z"/>
<polyline fill="#949689" points="30.992,18.313 12.095,18.313 12.095,17.128 30.992,17.128 30.992,18.313 "/>
<circle fill="#949689" cx="21.529" cy="15.179" r="1.271"/>
<rect x="16.677" y="6.924" fill="#949689" width="0.762" height="2.033"/>
<rect x="18.639" y="6.924" fill="#949689" width="0.762" height="2.033"/>
<rect x="12.095" y="46.288" fill="#949689" width="3.323" height="0.954"/>
<rect x="27.257" y="46.288" fill="#949689" width="3.323" height="0.954"/>
<path fill="#A1A293" d="M10.015,11.416L10.015,11.416v34.872h23.027l-2.258-3.419H12.095V21.185h4.371l-1.896-2.871h-2.474v-1.186
	h1.692l-0.896-1.356H12.32v-0.45c0-0.111,0.025-0.216,0.069-0.311L10.015,11.416"/>
<path fill="#84857A" d="M12.389,15.01c-0.044,0.094-0.069,0.2-0.069,0.311v0.45h0.571L12.389,15.01"/>
<polyline fill="#84857A" points="13.787,17.128 12.095,17.128 12.095,18.313 14.57,18.313 13.787,17.128 "/>
<polyline fill="#84857A" points="4.998,7.41 4.998,42.282 10.015,46.288 4.998,7.41 "/>
<polyline fill="#AED1D4" points="30.992,42.869 12.095,42.869 12.095,21.185 30.992,21.185 30.992,42.869 "/>
<polyline fill="#C7DDDF" points="12.095,21.185 12.095,21.185 12.095,42.869 30.992,42.869 19.02,35.669 12.095,21.185 "/>
</svg>
