<?xml version="1.0" encoding="utf-8"?>
<!-- Generator: Adobe Illustrator 17.0.0, SVG Export Plug-In . SVG Version: 6.00 Build 0)  -->
<!DOCTYPE svg PUBLIC "-//W3C//DTD SVG 1.1//EN" "http://www.w3.org/Graphics/SVG/1.1/DTD/svg11.dtd">
<svg version="1.1" id="Layer_1" xmlns="http://www.w3.org/2000/svg" xmlns:xlink="http://www.w3.org/1999/xlink" x="0px" y="0px"
	 width="55.17px" height="32.306px" viewBox="0 0 55.17 32.306" enable-background="new 0 0 55.17 32.306" xml:space="preserve">
<polygon points="13.67,3.413 5.002,0.233 14.147,1.121 "/>
<polygon points="21.143,22.761 20.063,32.306 18.984,22.761 "/>
<polygon points="39.214,22.761 38.134,32.306 37.055,22.761 "/>
<rect x="13.022" y="0.975" fill="#A46928" width="36.372" height="21.786"/>
<polygon fill="#8F5A25" points="49.394,22.761 49.394,0.975 13.021,22.761 "/>
<ellipse fill="#FFFFFF" cx="47.433" cy="4.794" rx="1.337" ry="1.4"/>
<ellipse cx="47.433" cy="4.794" rx="0.313" ry="0.328"/>
<path fill="#FFFFFF" d="M50.168,8.201c0,0.383-0.296,0.693-0.662,0.693h-2.594c-0.365,0-0.662-0.31-0.662-0.693
	c0-0.383,0.296-0.693,0.662-0.693h2.594C49.872,7.508,50.168,7.818,50.168,8.201z"/>
<polygon points="44.649,0 40.709,10.923 36.768,0 "/>
</svg>
