<?xml version="1.0" encoding="utf-8"?>
<!-- Generator: Adobe Illustrator 17.0.0, SVG Export Plug-In . SVG Version: 6.00 Build 0)  -->
<!DOCTYPE svg PUBLIC "-//W3C//DTD SVG 1.1//EN" "http://www.w3.org/Graphics/SVG/1.1/DTD/svg11.dtd">
<svg version="1.1" id="Layer_1" xmlns="http://www.w3.org/2000/svg" xmlns:xlink="http://www.w3.org/1999/xlink" x="0px" y="0px"
	 width="57.05px" height="32.688px" viewBox="0 0 57.05 32.688" enable-background="new 0 0 57.05 32.688" xml:space="preserve">
<polygon points="13.669,3.259 5.002,0.223 14.146,1.071 "/>
<polygon points="20.171,20.39 19.051,29.504 17.931,20.39 "/>
<polygon points="38.915,20.39 37.795,29.504 36.675,20.39 "/>
<rect x="13.02" y="0.931" fill="#F5841F" width="36.363" height="20.804"/>
<polygon fill="#F26522" points="49.384,21.734 49.384,0.931 13.02,21.734 "/>
<circle fill="#FFFFFF" cx="47.423" cy="4.578" r="1.337"/>
<circle cx="47.423" cy="4.578" r="0.313"/>
<path fill="#FFFFFF" d="M50.158,7.831c0,0.365-0.296,0.661-0.661,0.661h-2.593c-0.365,0-0.661-0.296-0.661-0.661
	s0.296-0.661,0.661-0.661h2.593C49.862,7.169,50.158,7.466,50.158,7.831z"/>
<polygon points="44.641,0 40.701,10.431 36.761,0 "/>
</svg>
