<?xml version="1.0" encoding="utf-8"?>
<!-- Generator: Adobe Illustrator 17.0.0, SVG Export Plug-In . SVG Version: 6.00 Build 0)  -->
<!DOCTYPE svg PUBLIC "-//W3C//DTD SVG 1.1//EN" "http://www.w3.org/Graphics/SVG/1.1/DTD/svg11.dtd">
<svg version="1.1" id="Layer_1" xmlns="http://www.w3.org/2000/svg" xmlns:xlink="http://www.w3.org/1999/xlink" x="0px" y="0px"
	 width="42.53px" height="41.165px" viewBox="0 0 42.53 41.165" enable-background="new 0 0 42.53 41.165" xml:space="preserve">
<path fill="#A6A8AC" d="M37.528,33.388v5.702c0,1.146-7.281,2.075-16.263,2.075c-8.982,0-16.262-0.929-16.262-2.075v-5.702
	c0.754,0.312,2.067,0.62,4.322,0.899c1.559,0.193,3.367,0.343,5.335,0.446c2.062,0.109,4.299,0.165,6.606,0.165
	c4.508,0,8.749-0.217,11.94-0.611C35.461,34.008,36.773,33.7,37.528,33.388"/>
<path fill="#BBBDBF" d="M37.528,23.42v9.968c-0.755,0.312-2.067,0.62-4.322,0.899c-3.192,0.394-7.432,0.611-11.94,0.611
	c-2.307,0-4.544-0.057-6.606-0.165c-1.968-0.102-3.776-0.252-5.335-0.446c-2.255-0.279-3.568-0.586-4.322-0.899V23.42H37.528"/>
<path fill="#929497" d="M37.528,23.42c0,0.271-0.408,0.53-1.15,0.767l-0.001,0.001c-2.393,0.766-8.257,1.307-15.112,1.307
	c-8.982,0-16.262-0.929-16.262-2.075c0-0.092,0.045-0.182,0.135-0.269c1.034-1.02,7.86-1.807,16.127-1.807
	c8.446,0,15.387,0.822,16.186,1.873l0.076,0.184L37.528,23.42"/>
<path fill="#808184" d="M37.528,32.45v0.937c-0.755,0.312-2.067,0.62-4.322,0.899c-3.192,0.394-7.432,0.611-11.94,0.611
	c-4.508,0-8.749-0.217-11.941-0.611c-2.255-0.279-3.568-0.586-4.322-0.899V32.45c0.334,0.207,1.424,0.653,4.869,1.048
	c3.103,0.356,7.149,0.552,11.393,0.552c4.245,0,8.291-0.196,11.393-0.552C36.103,33.103,37.193,32.657,37.528,32.45"/>
<path fill="#595A5C" d="M34.14,23.42c0,0.247-0.59,0.48-1.625,0.68c-0.27,0.052-0.57,0.103-0.899,0.151
	c-0.261,0.039-0.541,0.075-0.838,0.111l-0.248,0.029c-0.287,0.032-0.589,0.063-0.905,0.093c-0.27,0.026-0.55,0.049-0.839,0.071
	l-0.014,0.002c-0.293,0.023-0.596,0.044-0.908,0.064c-0.273,0.018-0.554,0.035-0.84,0.05H27.01
	c-0.296,0.017-0.598,0.031-0.906,0.045c-0.274,0.013-0.553,0.024-0.836,0.033l-0.244,0.01c-0.299,0.009-0.603,0.019-0.911,0.026
	c-0.276,0.006-0.556,0.012-0.838,0.017h-0.009c-0.301,0.005-0.605,0.009-0.912,0.012c-0.277,0.002-0.557,0.004-0.839,0.004h-0.001
	h-0.008l-0.241,0.001c-0.225,0-0.45-0.001-0.672-0.002c-0.282-0.001-0.562-0.004-0.839-0.008l-0.239-0.003
	c-0.308-0.005-0.612-0.01-0.913-0.018c-0.283-0.006-0.562-0.014-0.837-0.022l-0.013-0.001c-0.308-0.008-0.612-0.019-0.91-0.032
	c-0.283-0.011-0.561-0.024-0.833-0.037l-0.015-0.001c-0.311-0.015-0.615-0.031-0.912-0.049c-0.285-0.017-0.562-0.035-0.833-0.054
	l-0.252-0.018c-0.312-0.023-0.615-0.048-0.906-0.075c-0.286-0.024-0.56-0.052-0.824-0.08l-0.026-0.003
	c-0.32-0.035-0.624-0.07-0.91-0.107c-0.295-0.039-0.571-0.08-0.827-0.122c-1.336-0.22-2.113-0.484-2.113-0.767
	c0-0.289,0.804-0.557,2.182-0.779c0.236-0.037,0.488-0.075,0.755-0.11c0.256-0.033,0.526-0.065,0.81-0.097l0.218-0.024
	c0.236-0.024,0.479-0.048,0.732-0.07c0.255-0.023,0.518-0.045,0.79-0.066c0.156-0.011,0.315-0.023,0.476-0.034
	c0.236-0.017,0.478-0.032,0.724-0.047c0.256-0.015,0.518-0.03,0.784-0.043l0.261-0.013c0.235-0.011,0.474-0.021,0.715-0.031
	c0.255-0.01,0.513-0.019,0.776-0.027c0.09-0.004,0.18-0.006,0.272-0.008c0.234-0.008,0.472-0.014,0.712-0.019
	c0.255-0.006,0.513-0.011,0.774-0.015c0.167-0.003,0.336-0.005,0.505-0.007c0.235-0.003,0.472-0.005,0.711-0.007
	c0.223-0.001,0.449-0.002,0.677-0.002h0.097c0.093,0,0.185,0,0.277,0.001c0.239,0.001,0.475,0.001,0.71,0.004
	c0.26,0.003,0.518,0.005,0.774,0.009c0.092,0.002,0.184,0.003,0.275,0.005c0.24,0.004,0.476,0.009,0.711,0.014
	c0.262,0.006,0.521,0.014,0.777,0.022c0.169,0.006,0.335,0.011,0.5,0.018c0.241,0.008,0.479,0.018,0.713,0.029
	c0.265,0.011,0.525,0.024,0.781,0.037l0.256,0.014c0.247,0.013,0.488,0.028,0.725,0.043c0.271,0.018,0.536,0.036,0.794,0.056
	l0.232,0.018c0.252,0.02,0.497,0.041,0.734,0.063c0.28,0.025,0.55,0.053,0.807,0.081c0.148,0.016,0.292,0.033,0.433,0.05
	c0.265,0.032,0.515,0.065,0.751,0.1c0.301,0.044,0.578,0.09,0.83,0.138C33.523,22.93,34.14,23.168,34.14,23.42"/>
<path fill="#A2A2A4" d="M5.002,24.017v8.433c0.334,0.207,1.424,0.653,4.869,1.048c0.971,0.111,2.034,0.207,3.166,0.286
	c-4.16-2.672-6.347-6.06-7.428-8.33c-0.202-0.037-0.403-0.074-0.607-0.112V24.017L5.002,24.017"/>
<path fill="#D3D0D0" d="M37.524,39.132c0,0,0,0.001,0,0.001C37.524,39.133,37.524,39.133,37.524,39.132 M37.525,39.126
	c0,0.001,0,0.001,0,0.002C37.525,39.127,37.525,39.127,37.525,39.126 M37.526,39.12c0,0.001,0,0.001,0,0.002
	C37.526,39.122,37.526,39.121,37.526,39.12 M37.527,39.111c0,0.001,0,0.002,0,0.004C37.527,39.113,37.527,39.112,37.527,39.111
	 M37.527,39.105c0,0.001,0,0.002,0,0.004C37.527,39.107,37.527,39.106,37.527,39.105 M37.528,39.098c0,0.001,0,0.003,0,0.004
	C37.527,39.101,37.527,39.099,37.528,39.098 M37.528,39.09c0,0.002,0,0.004,0,0.006C37.528,39.094,37.528,39.092,37.528,39.09"/>
<path fill="#929294" d="M5.002,33.388v5.702c0,1.146,7.281,2.075,16.262,2.075l0,0l0,0l0,0c-8.982,0-16.262-0.929-16.262-2.075
	v-2.778c3.324,1.088,12.119,3.634,25.232,3.634c2.053,0,4.21-0.062,6.47-0.202l0,0l0,0c-1.944,0.748-7.138,1.308-13.448,1.406l0,0
	c6.31-0.099,11.503-0.658,13.448-1.406c0.5-0.192,0.785-0.398,0.819-0.61c0,0,0-0.001,0-0.001c0-0.001,0-0.003,0.001-0.004
	c0-0.001,0-0.001,0-0.002c0-0.001,0-0.003,0-0.004c0-0.001,0-0.001,0-0.002c0-0.002,0-0.004,0.001-0.006c0-0.001,0-0.002,0-0.004
	c0-0.001,0-0.002,0-0.002c0-0.001,0-0.002,0-0.004c0-0.001,0-0.002,0-0.002c0-0.001,0-0.003,0-0.004c0-0.001,0-0.001,0-0.002
	c0-0.002,0-0.004,0-0.006l0,0v-2.099c-2.405,0.586-5.165,0.939-8.328,0.939c-0.493,0-0.995-0.009-1.508-0.026
	c-5.545-0.191-9.792-1.453-13.033-3.172c-0.207-0.011-0.413-0.022-0.616-0.034c-1.73-0.101-3.324-0.239-4.719-0.412
	C7.069,34.008,5.757,33.7,5.002,33.388"/>
<path fill="#A2A2A4" d="M5.002,33.388L5.002,33.388c0.754,0.312,2.067,0.62,4.322,0.899c1.395,0.173,2.989,0.311,4.719,0.412
	c-1.73-0.101-3.324-0.24-4.719-0.412C7.069,34.008,5.757,33.7,5.002,33.388"/>
<path fill="#757476" d="M5.002,32.45v0.937c0.754,0.312,2.067,0.62,4.322,0.899c1.395,0.172,2.989,0.311,4.719,0.412l0,0
	c0.203,0.012,0.409,0.023,0.616,0.034c0,0,0,0,0,0c-0.571-0.303-1.111-0.62-1.621-0.948c-1.132-0.079-2.196-0.175-3.166-0.286
	C6.427,33.103,5.337,32.657,5.002,32.45"/>
<path fill="#A2A2A4" d="M37.527,23.44c-0.019,0.253-0.391,0.495-1.058,0.718c0.004,0,0.009,0,0.013,0
	c0.198,0,0.381,0.317,0.547,0.633c0.166,0.316,0.315,0.633,0.444,0.633c0.019,0,0.037-0.007,0.055-0.021l0,0L37.527,23.44
	 M5.002,23.42L5.002,23.42v0.597c0.145,0.395,0.343,0.882,0.607,1.437c6.574,1.202,11.882,1.659,16.151,1.659
	c8.063,0,12.424-1.627,14.617-2.925c-2.393,0.766-8.257,1.307-15.112,1.307C12.283,25.495,5.002,24.566,5.002,23.42"/>
<path fill="#838385" d="M5.138,23.151L5.138,23.151c-0.09,0.087-0.135,0.177-0.135,0.269l0,0l0,0c0,1.146,7.281,2.075,16.262,2.075
	c6.855,0,12.719-0.541,15.112-1.307l0,0l0.001-0.001c0.031-0.018,0.061-0.028,0.091-0.03c0.667-0.223,1.04-0.465,1.058-0.718v-0.039
	l-0.076-0.184l0,0c-0.137,0.069-0.282,0.137-0.435,0.202c-4.252,1.798-14.739,1.867-14.739,1.867
	c-0.865,0.014-1.688,0.021-2.471,0.021c-9.323,0-12.987-0.954-14.339-1.888C5.337,23.33,5.228,23.24,5.138,23.151"/>
<path fill="#8F8E8F" d="M5.002,24.017v1.324c0.204,0.038,0.405,0.076,0.607,0.112C5.345,24.9,5.147,24.412,5.002,24.017"/>
<path fill="#BFBBBB" d="M21.465,41.165c-0.067,0-0.134,0-0.201,0C21.332,41.165,21.399,41.165,21.465,41.165 M21.518,41.165
	c-0.002,0-0.002,0-0.004,0C21.516,41.165,21.517,41.165,21.518,41.165 M21.616,41.165c-0.008,0-0.017,0-0.025,0
	C21.599,41.165,21.608,41.165,21.616,41.165 M21.685,41.164C21.685,41.164,21.685,41.164,21.685,41.164L21.685,41.164
	 M21.778,41.164c-0.007,0-0.016,0-0.023,0C21.763,41.164,21.771,41.164,21.778,41.164 M21.861,41.164c-0.004,0-0.009,0-0.014,0
	C21.852,41.164,21.856,41.164,21.861,41.164 M21.946,41.163c-0.008,0-0.017,0-0.025,0C21.929,41.163,21.938,41.163,21.946,41.163
	 M22.033,41.163c-0.008,0-0.016,0-0.024,0C22.017,41.163,22.025,41.163,22.033,41.163 M22.193,41.162c-0.006,0-0.012,0-0.018,0
	C22.182,41.162,22.187,41.162,22.193,41.162 M22.277,41.161c-0.004,0-0.009,0-0.013,0C22.268,41.161,22.273,41.161,22.277,41.161
	 M22.353,41.16c-0.001,0-0.003,0-0.004,0C22.35,41.161,22.352,41.16,22.353,41.16 M22.448,41.16c-0.007,0-0.015,0-0.022,0
	C22.433,41.16,22.441,41.16,22.448,41.16 M22.61,41.158c-0.007,0-0.016,0-0.023,0C22.594,41.158,22.602,41.158,22.61,41.158
	 M22.693,41.157c-0.006,0-0.011,0-0.017,0C22.681,41.157,22.687,41.157,22.693,41.157 M22.769,41.156c-0.004,0-0.007,0-0.011,0
	C22.761,41.156,22.765,41.156,22.769,41.156 M22.853,41.155c-0.003,0-0.007,0-0.01,0C22.846,41.155,22.849,41.155,22.853,41.155
	 M23.258,41.15c0,0-0.001,0-0.002,0C23.257,41.15,23.257,41.15,23.258,41.15"/>
<path fill="#878789" d="M5.002,36.312v2.778c0,1.146,7.281,2.075,16.262,2.075l0,0c0.067,0,0.134,0,0.201,0c0.016,0,0.033,0,0.049,0
	c0.002,0,0.002,0,0.004,0c0.024,0,0.048,0,0.072,0c0.008,0,0.017,0,0.025,0c0.023,0,0.046,0,0.069,0c0.001,0,0,0,0.001,0
	c0.024,0,0.047,0,0.07,0c0.007,0,0.016,0,0.023,0c0.023,0,0.046,0,0.069,0c0.004,0,0.009,0,0.014,0c0.02,0,0.04,0,0.06,0
	c0.008,0,0.017,0,0.025,0c0.021,0,0.043,0,0.063,0c0.008,0,0.016,0,0.024,0c0.047,0,0.095-0.001,0.142-0.001
	c0.006,0,0.012,0,0.018,0c0.023,0,0.047,0,0.071-0.001c0.004,0,0.009,0,0.013,0c0.024,0,0.048,0,0.072,0c0.001,0,0.003,0,0.004,0
	c0.024,0,0.048,0,0.073-0.001c0.008,0,0.015,0,0.022,0c0.047,0,0.092-0.001,0.139-0.001c0.008,0,0.016,0,0.023,0
	c0.021,0,0.044,0,0.065-0.001c0.006,0,0.011,0,0.017,0c0.022,0,0.043,0,0.065-0.001c0.004,0,0.007,0,0.011,0
	c0.024,0,0.049-0.001,0.073-0.001c0.003,0,0.007,0,0.01,0c0.135-0.002,0.27-0.004,0.403-0.006c0,0,0.001,0,0.002,0
	c6.31-0.099,11.503-0.658,13.448-1.406c-2.26,0.14-4.417,0.202-6.47,0.202C17.122,39.946,8.326,37.4,5.002,36.312"/>
<path fill="#059347" d="M12.24,24.417c-0.32-0.035-0.624-0.07-0.91-0.108c-0.295-0.039-0.571-0.08-0.827-0.122l0.069-1.547
	l0.732-7.889l0.833,7.682L12.24,24.417z"/>
<path fill="#3BB34A" d="M11.33,24.309c-0.295-0.039-0.571-0.08-0.827-0.122l0.069-1.547l0.732-7.889l0.024,7.779L11.33,24.309z"/>
<path fill="#059347" d="M13.996,24.574c-0.312-0.023-0.615-0.048-0.906-0.075c-0.286-0.025-0.56-0.052-0.824-0.08l0.09-2.009
	l0.709-11.366l0.813,11.23L13.996,24.574z"/>
<path fill="#3BB34A" d="M13.09,24.499c-0.286-0.025-0.56-0.052-0.824-0.08l0.09-2.009l0.709-11.366l0.023,11.296L13.09,24.499z"/>
<path fill="#059347" d="M15.993,24.695c-0.311-0.014-0.615-0.031-0.912-0.049c-0.285-0.017-0.562-0.035-0.833-0.054l0.105-2.351
	l0.701-17.174l0.807,17.084L15.993,24.695z"/>
<path fill="#3BB34A" d="M15.081,24.646c-0.285-0.017-0.562-0.035-0.833-0.054l0.105-2.351l0.701-17.174l0.023,17.128L15.081,24.646z
	"/>
<path fill="#059347" d="M17.752,24.764c-0.308-0.008-0.612-0.019-0.911-0.031c-0.283-0.011-0.561-0.024-0.833-0.037l0.114-2.557
	l0.693-15.532l0.798,15.473L17.752,24.764z"/>
<path fill="#3BB34A" d="M16.842,24.733c-0.283-0.011-0.561-0.024-0.833-0.037l0.114-2.557l0.693-15.532l0.022,15.5L16.842,24.733z"
	/>
<path fill="#059347" d="M19.515,24.805c-0.308-0.005-0.612-0.01-0.913-0.018c-0.283-0.006-0.562-0.014-0.837-0.022l0.12-2.693
	L18.576,0l0.796,22.038L19.515,24.805z"/>
<path fill="#3BB34A" d="M18.602,24.787c-0.283-0.006-0.562-0.014-0.837-0.022l0.12-2.693L18.576,0l0.022,22.053L18.602,24.787z"/>
<path fill="#059347" d="M21.507,24.817l-0.241,0.001c-0.225,0-0.45-0.001-0.672-0.002c-0.282-0.002-0.562-0.004-0.839-0.008
	l0.124-2.777l0.689-16.069l0.795,16.061h0.001L21.507,24.817z"/>
<path fill="#3BB34A" d="M20.593,24.816c-0.282-0.002-0.562-0.004-0.839-0.008l0.124-2.777l0.689-16.069l0.022,16.062L20.593,24.816z
	"/>
<path fill="#059347" d="M23.266,24.801c-0.301,0.005-0.605,0.009-0.912,0.012c-0.277,0.002-0.556,0.004-0.839,0.004l0.125-2.793
	l0.688-9.318l0.796,9.332L23.266,24.801z"/>
<path fill="#3BB34A" d="M22.353,24.813c-0.277,0.002-0.556,0.004-0.839,0.004l0.125-2.793l0.688-9.318l0.022,9.322L22.353,24.813z"
	/>
<path fill="#059347" d="M25.024,24.758c-0.299,0.009-0.603,0.019-0.911,0.026c-0.276,0.006-0.556,0.012-0.839,0.017l0.124-2.759
	l0.689-17.339l0.799,17.376L25.024,24.758z"/>
<path fill="#3BB34A" d="M24.114,24.784c-0.276,0.006-0.556,0.012-0.839,0.017l0.124-2.759l0.689-17.339l0.022,17.354L24.114,24.784z
	"/>
<path fill="#059347" d="M27.01,24.67c-0.296,0.017-0.598,0.031-0.906,0.045c-0.274,0.013-0.553,0.024-0.836,0.033l0.119-2.652
	l0.691-12.243l0.803,12.309L27.01,24.67z"/>
<path fill="#3BB34A" d="M26.104,24.715c-0.274,0.013-0.553,0.024-0.836,0.033l0.119-2.652l0.691-12.243L26.1,22.125L26.104,24.715z"
	/>
<path fill="#059347" d="M28.773,24.556c-0.293,0.023-0.596,0.044-0.908,0.064c-0.274,0.018-0.554,0.035-0.84,0.05l0.112-2.494
	L27.839,2.71l0.817,19.565L28.773,24.556z"/>
<path fill="#3BB34A" d="M27.865,24.62c-0.274,0.018-0.554,0.035-0.84,0.05l0.112-2.494L27.839,2.71l0.023,19.509L27.865,24.62z"/>
<path fill="#059347" d="M30.53,24.391c-0.287,0.032-0.589,0.063-0.905,0.092c-0.27,0.026-0.55,0.049-0.839,0.071l0.101-2.261
	l0.712-10.181l0.83,10.326L30.53,24.391z"/>
<path fill="#3BB34A" d="M29.625,24.483c-0.27,0.026-0.55,0.049-0.839,0.071l0.101-2.261l0.712-10.181l0.023,10.245L29.625,24.483z"
	/>
<path fill="#059347" d="M32.514,24.1c-0.27,0.052-0.57,0.103-0.899,0.151c-0.262,0.039-0.541,0.075-0.838,0.111l0.084-1.874
	l0.728-6.978l0.854,7.216L32.514,24.1z"/>
<path fill="#3BB34A" d="M31.616,24.251c-0.262,0.039-0.541,0.075-0.838,0.111l0.084-1.874l0.728-6.978l0.024,7.078L31.616,24.251z"
	/>
</svg>
