<?xml version="1.0" encoding="utf-8"?>
<!-- Generator: Adobe Illustrator 17.0.0, SVG Export Plug-In . SVG Version: 6.00 Build 0)  -->
<!DOCTYPE svg PUBLIC "-//W3C//DTD SVG 1.1//EN" "http://www.w3.org/Graphics/SVG/1.1/DTD/svg11.dtd">
<svg version="1.1" id="Layer_1" xmlns="http://www.w3.org/2000/svg" xmlns:xlink="http://www.w3.org/1999/xlink" x="0px" y="0px"
	 width="56.81px" height="87.632px" viewBox="0 0 56.81 87.632" enable-background="new 0 0 56.81 87.632" xml:space="preserve">
<polygon fill="#E4E5E6" points="27.126,87.632 5,85.583 25.937,83.254 50.81,84.915 "/>
<path fill="#59BA47" d="M34.956,3.999v34.405c0,2.209-1.71,3.999-3.819,3.999H9.335c-2.11,0-3.82-1.79-3.82-3.999V3.999
	C5.516,1.79,7.225,0,9.335,0h21.802C33.246,0,34.956,1.79,34.956,3.999z"/>
<path fill="#50A646" d="M31.137,42.403H9.335c-2.109,0-3.819-1.79-3.819-3.999V3.999c0-1.104,0.427-2.104,1.119-2.827l27.238,40.023
	C33.179,41.94,32.21,42.403,31.137,42.403z"/>
<path fill="#59BA47" d="M51.81,28.437v18.269c0,1.172-0.907,2.123-2.028,2.123H38.207c-1.12,0-2.028-0.951-2.028-2.123V28.437
	c0-1.172,0.907-2.123,2.028-2.123h11.576C50.903,26.314,51.81,27.265,51.81,28.437z"/>
<path fill="#50A646" d="M49.783,48.828H38.206c-1.12,0-2.028-0.951-2.028-2.123V28.437c0-0.586,0.227-1.117,0.594-1.501
	l14.586,21.106C50.986,48.521,50.419,48.828,49.783,48.828z"/>
<path fill="#9D8B31" d="M45.688,48.828v9.366c0,3.033-2.358,5.502-5.255,5.502H29.197v21.219l-1.746,0.566l-1.498-0.566V58.487
	c0-1.161-0.902-2.105-2.01-2.105h-0.074c-2.897,0-5.255-2.468-5.255-5.502v-8.477h3.244v8.477c0,1.161,0.902,2.105,2.01,2.105h0.074
	c2.897,0,5.255,2.468,5.255,5.502v1.813h11.236c1.108,0,2.01-0.944,2.01-2.105v-9.366H45.688z"/>
<path fill="#81C44E" d="M34.956,3.999v16.264L20.854,0h10.283C33.246,0,34.956,1.79,34.956,3.999z"/>
<path fill="#81C44E" d="M51.81,28.437v7.996l-7.042-10.119h5.015C50.903,26.314,51.81,27.265,51.81,28.437z"/>
<polygon fill="#8F7F30" points="42.444,48.828 45.688,52.759 45.688,48.828 "/>
<polygon fill="#8F7F30" points="18.614,42.403 21.858,46.531 21.858,42.403 "/>
<path fill="#9D8B31" d="M22.476,87.632l0.007-0.011L22.476,87.632z"/>
<polygon fill="#8F7F30" points="29.197,77.33 29.197,84.915 27.451,85.481 25.953,84.915 25.953,69.179 "/>
<polygon fill="#8F7F30" points="29.197,63.696 29.197,60.299 32.151,63.696 "/>
</svg>
