<?xml version="1.0" encoding="utf-8"?>
<!-- Generator: Adobe Illustrator 17.1.0, SVG Export Plug-In . SVG Version: 6.00 Build 0)  -->
<!DOCTYPE svg PUBLIC "-//W3C//DTD SVG 1.1//EN" "http://www.w3.org/Graphics/SVG/1.1/DTD/svg11.dtd">
<svg version="1.1" id="Layer_1" xmlns="http://www.w3.org/2000/svg" xmlns:xlink="http://www.w3.org/1999/xlink" x="0px" y="0px"
	 width="64.97px" height="60.589px" viewBox="0 0 64.97 60.589" enable-background="new 0 0 64.97 60.589" xml:space="preserve">
<polygon fill="#F2F2F3" points="4.998,55.933 10.544,60.589 59.972,60.589 53.095,55.933 "/>
<path fill="#1D75BC" d="M15.997,52.661h-0.968V42.66c0-2.27,0.638-3.965,1.896-5.038c1.828-1.56,4.267-1.191,4.37-1.175
	l-0.152,0.956c-0.021-0.003-2.114-0.31-3.597,0.961c-1.029,0.882-1.55,2.327-1.55,4.296V52.661z"/>
<path fill="#1D75BC" d="M49.777,53.242h-0.968V43.24c0-1.973-0.524-3.42-1.557-4.302c-1.492-1.273-3.569-0.959-3.589-0.956
	l-0.153-0.956c0.103-0.016,2.542-0.384,4.37,1.175c1.258,1.073,1.896,2.768,1.896,5.038V53.242z"/>
<circle fill="#1D75BC" cx="49.293" cy="53.242" r="1.355"/>
<path d="M49.293,57.998c-2.622,0-4.756-2.134-4.756-4.756c0-2.622,2.134-4.756,4.756-4.756c2.622,0,4.756,2.134,4.756,4.756
	C54.049,55.864,51.915,57.998,49.293,57.998z M49.293,49.454c-2.089,0-3.788,1.699-3.788,3.788s1.699,3.788,3.788,3.788
	c2.089,0,3.788-1.699,3.788-3.788S51.382,49.454,49.293,49.454z"/>
<path d="M15.513,57.998c-2.622,0-4.756-2.134-4.756-4.756c0-2.622,2.134-4.756,4.756-4.756c2.622,0,4.756,2.134,4.756,4.756
	C20.269,55.864,18.136,57.998,15.513,57.998z M15.513,49.454c-2.089,0-3.788,1.699-3.788,3.788s1.699,3.788,3.788,3.788
	c2.089,0,3.788-1.699,3.788-3.788S17.602,49.454,15.513,49.454z"/>
<circle fill="#1D75BC" cx="15.513" cy="53.242" r="1.355"/>
<path fill="#39B54A" d="M53.449,20.543c0,11.345-9.197,20.543-20.543,20.543c-11.345,0-20.543-9.197-20.543-20.543H53.449z"/>
<path fill="#329E48" d="M53.448,20.543c0,2.141-0.327,4.205-0.935,6.145c-4.644-2.145-10.596-4.813-13.796-6.145H53.448z"/>
<path fill="#61BD63" d="M47.632,34.865c-3.732,3.837-8.951,6.221-14.727,6.221c-11.345,0-20.543-9.198-20.543-20.543h4.05
	C25.934,24.931,38.77,30.81,47.632,34.865z"/>
<path fill="#1D75BC" d="M32.906,20.615l-20.543-0.073C12.363,9.197,21.56,0,32.906,0V20.615z"/>
<path fill="#5C8BB0" d="M32.906,20.615l-17.057-0.06c0-9.42,7.637-17.057,17.057-17.057V20.615z"/>
<path fill="#5DA0D5" d="M32.906,20.615l-11.981-0.042c0-6.617,5.364-11.981,11.981-11.981V20.615z"/>
<circle fill="#1D75BC" cx="32.87" cy="0.857" r="0.857"/>
<circle fill="#5DA0D5" cx="32.87" cy="9.424" r="0.857"/>
<circle fill="#5C8BB0" cx="32.87" cy="7.711" r="0.857"/>
<circle fill="#5C8BB0" cx="32.87" cy="5.997" r="0.857"/>
<circle fill="#5C8BB0" cx="32.87" cy="4.284" r="0.857"/>
<circle fill="#1D75BC" cx="32.87" cy="2.57" r="0.857"/>
<circle fill="#5DA0D5" cx="32.87" cy="11.138" r="0.857"/>
<circle fill="#5DA0D5" cx="32.87" cy="19.705" r="0.857"/>
<circle fill="#5DA0D5" cx="32.87" cy="17.991" r="0.857"/>
<circle fill="#5DA0D5" cx="32.87" cy="16.278" r="0.857"/>
<circle fill="#5DA0D5" cx="32.87" cy="14.564" r="0.857"/>
<circle fill="#5DA0D5" cx="32.87" cy="12.851" r="0.857"/>
<path fill="#1D75BC" d="M51.23,20.57c-0.007-0.125-0.154-3.081,1.545-4.879c0.832-0.88,1.951-1.326,3.326-1.326v0.968
	c-1.097,0-1.978,0.343-2.619,1.02c-1.413,1.491-1.287,4.137-1.285,4.163L51.23,20.57z"/>
<path fill="#61BD63" d="M47.632,34.865c-3.732,3.837-8.951,6.221-14.727,6.221c-11.345,0-20.543-9.198-20.543-20.543h4.05
	C25.934,24.931,38.77,30.81,47.632,34.865z"/>
<path fill="#329E48" d="M59.069,29.883l-0.033-0.045L59.069,29.883z"/>
<path fill="#33A148" d="M53.448,20.543c0,2.141-0.327,4.205-0.935,6.145c-4.644-2.145-10.596-4.813-13.796-6.145H53.448z"/>
<circle cx="56.101" cy="14.848" r="1.42"/>
</svg>
