<?xml version="1.0" encoding="utf-8"?>
<!-- Generator: Adobe Illustrator 17.0.0, SVG Export Plug-In . SVG Version: 6.00 Build 0)  -->
<!DOCTYPE svg PUBLIC "-//W3C//DTD SVG 1.1//EN" "http://www.w3.org/Graphics/SVG/1.1/DTD/svg11.dtd">
<svg version="1.1" id="Layer_1" xmlns="http://www.w3.org/2000/svg" xmlns:xlink="http://www.w3.org/1999/xlink" x="0px" y="0px"
	 width="29.76px" height="48.846px" viewBox="0 0 29.76 48.846" enable-background="new 0 0 29.76 48.846" xml:space="preserve">
<polyline fill="#5F5F50" points="24.761,48.846 12.118,48.846 4.999,44.227 17.643,44.227 24.761,48.846 "/>
<polyline fill="#3B3C32" points="18.747,47.515 14.177,47.515 11.116,45.697 15.686,45.697 18.747,47.515 "/>
<path fill="#919183" d="M16.018,46.623c0,0-0.475,0.483-1.138,0.483c-0.662,0-1.036-0.483-1.036-0.483V12.351h2.173V46.623"/>
<path fill="#3C3C32" d="M13.845,46.623c0,0,0.331,0.483,1.036,0.483C14.218,47.106,13.845,46.623,13.845,46.623 M16.018,46.623
	c0,0-0.475,0.483-1.138,0.483C15.586,47.106,16.018,46.623,16.018,46.623"/>
<path fill="#767569" d="M13.849,13.198h-0.004v33.425l0,0c0,0,0.374,0.483,1.036,0.483l0,0l0,0c0.663,0,1.138-0.483,1.138-0.483l0,0
	l-2.156-30.485L13.849,13.198"/>
<path fill="#3B3C32" d="M16.78,13.198h-3.522c-0.689,0-1.247-0.558-1.247-1.247V6.172c0-0.689,0.558-1.247,1.247-1.247h3.522
	c0.689,0,1.247,0.558,1.247,1.247v5.779C18.026,12.64,17.468,13.198,16.78,13.198"/>
<circle fill="#3B3C32" cx="15.018" cy="4.278" r="4.278"/>
<path fill="#919162" d="M18.28,4.278c0,1.028-6.522,0.863-6.522,0c0-1.801,1.46-3.261,3.261-3.261
	C16.819,1.016,18.28,2.477,18.28,4.278z"/>
<path fill="#BBBDAA" d="M16.336,12.054c0,0.187-0.151,0.339-0.339,0.339H14.04c-0.187,0-0.339-0.152-0.339-0.339v-3.16
	c0-0.187,0.151-0.339,0.339-0.339h1.957c0.187,0,0.339,0.151,0.339,0.339V12.054"/>
<polyline fill="#3B3C32" points="15.192,12.054 14.671,12.054 14.671,10.839 15.192,10.839 15.192,12.054 "/>
<polyline fill="#D18F6F" points="15.798,9.144 14.234,9.144 14.234,10.361 15.798,10.361 15.798,9.144 "/>
</svg>
