<?xml version="1.0" encoding="utf-8"?>
<!-- Generator: Adobe Illustrator 17.0.0, SVG Export Plug-In . SVG Version: 6.00 Build 0)  -->
<!DOCTYPE svg PUBLIC "-//W3C//DTD SVG 1.1//EN" "http://www.w3.org/Graphics/SVG/1.1/DTD/svg11.dtd">
<svg version="1.1" id="Layer_1" xmlns="http://www.w3.org/2000/svg" xmlns:xlink="http://www.w3.org/1999/xlink" x="0px" y="0px"
	 width="73.73px" height="119.313px" viewBox="0 0 73.73 119.313" enable-background="new 0 0 73.73 119.313" xml:space="preserve">
<path fill="#59BA47" d="M45.784,5.445v46.843c0,3.008-2.328,5.445-5.199,5.445H10.901c-2.873,0-5.201-2.437-5.201-5.445V5.445
	C5.701,2.437,8.029,0,10.901,0h29.684C43.456,0,45.784,2.437,45.784,5.445z"/>
<path fill="#50A646" d="M40.585,57.732H10.901c-2.872,0-5.2-2.437-5.2-5.444V5.444c0-1.503,0.582-2.864,1.523-3.849L44.31,56.087
	C43.365,57.102,42.045,57.732,40.585,57.732z"/>
<path fill="#59BA47" d="M68.732,38.717V63.59c0,1.596-1.235,2.891-2.761,2.891H50.21c-1.526,0-2.761-1.295-2.761-2.891V38.717
	c0-1.595,1.235-2.89,2.761-2.89h15.761C67.496,35.827,68.732,37.121,68.732,38.717z"/>
<path fill="#50A646" d="M65.971,66.481H50.21c-1.525,0-2.761-1.294-2.761-2.891V38.717c0-0.798,0.309-1.521,0.809-2.044
	L68.116,65.41C67.61,66.063,66.837,66.481,65.971,66.481z"/>
<path fill="#9D8B31" d="M60.396,66.481v12.752c0,4.13-3.21,7.49-7.154,7.49H37.944v28.889l-2.378,0.771l-2.039-0.771V79.631
	c0-1.58-1.228-2.866-2.737-2.866h-0.1c-3.945,0-7.155-3.361-7.155-7.491V57.732h4.417v11.542c0,1.58,1.228,2.866,2.737,2.866h0.1
	c3.945,0,7.154,3.361,7.154,7.491v2.468h15.298c1.509,0,2.737-1.286,2.737-2.866V66.481H60.396z"/>
<path fill="#81C44E" d="M45.784,5.445v22.143L26.584,0h14.001C43.456,0,45.784,2.437,45.784,5.445z"/>
<path fill="#81C44E" d="M68.732,38.717v10.887l-9.588-13.777h6.828C67.496,35.827,68.732,37.121,68.732,38.717z"/>
<polygon fill="#8F7F30" points="55.979,66.481 60.396,71.832 60.396,66.481 "/>
<polygon fill="#8F7F30" points="23.534,57.732 27.952,63.353 27.952,57.732 "/>
<path fill="#9D8B31" d="M28.793,119.313l0.009-0.015L28.793,119.313z"/>
<polygon fill="#8F7F30" points="37.944,105.286 37.944,115.613 35.566,116.384 33.526,115.613 33.526,94.189 "/>
<polygon fill="#8F7F30" points="37.944,86.724 37.944,82.099 41.965,86.724 "/>
</svg>
