<?xml version="1.0" encoding="utf-8"?>
<!-- Generator: Adobe Illustrator 17.0.0, SVG Export Plug-In . SVG Version: 6.00 Build 0)  -->
<!DOCTYPE svg PUBLIC "-//W3C//DTD SVG 1.1//EN" "http://www.w3.org/Graphics/SVG/1.1/DTD/svg11.dtd">
<svg version="1.1" id="Layer_1" xmlns="http://www.w3.org/2000/svg" xmlns:xlink="http://www.w3.org/1999/xlink" x="0px" y="0px"
	 width="42.53px" height="28.86px" viewBox="0 0 42.53 28.86" enable-background="new 0 0 42.53 28.86" xml:space="preserve">
<path fill="#A6A8AC" d="M37.527,21.082v5.702c0,1.146-7.281,2.075-16.263,2.075S5.001,27.93,5.001,26.784v-5.702
	c0.755,0.313,2.067,0.62,4.322,0.899c1.559,0.193,3.367,0.343,5.335,0.446c2.062,0.108,4.299,0.165,6.606,0.165
	c4.508,0,8.749-0.217,11.94-0.611C35.46,21.702,36.772,21.395,37.527,21.082z"/>
<path fill="#BBBDBF" d="M37.527,11.114v9.968c-0.755,0.313-2.067,0.62-4.322,0.899c-3.192,0.394-7.433,0.611-11.94,0.611
	c-2.307,0-4.544-0.057-6.606-0.165c-1.968-0.102-3.776-0.252-5.335-0.446c-2.256-0.279-3.568-0.586-4.322-0.899v-9.968H37.527z"/>
<path fill="#929497" d="M37.527,11.114c0,0.271-0.408,0.53-1.15,0.767c0,0.001-0.001,0.001-0.001,0.001
	c-2.393,0.766-8.257,1.307-15.112,1.307c-8.982,0-16.263-0.929-16.263-2.075c0-0.091,0.046-0.181,0.136-0.269
	c1.034-1.02,7.86-1.807,16.127-1.807c8.446,0,15.387,0.822,16.186,1.873c0.047,0.06,0.072,0.122,0.076,0.184
	C37.527,11.102,37.527,11.109,37.527,11.114z"/>
<path fill="#808184" d="M37.527,20.145v0.938c-0.755,0.313-2.067,0.62-4.322,0.899c-3.192,0.394-7.433,0.611-11.94,0.611
	s-8.749-0.217-11.94-0.611c-2.256-0.279-3.568-0.586-4.322-0.899v-0.938c0.335,0.207,1.425,0.653,4.87,1.048
	c3.103,0.357,7.149,0.552,11.393,0.552s8.291-0.196,11.393-0.552C36.102,20.798,37.192,20.351,37.527,20.145z"/>
<ellipse fill="#595A5C" cx="21.264" cy="11.114" rx="12.875" ry="1.398"/>
<path fill="#8CC541" d="M12.367,11.185c0-0.136-0.043-0.262-0.116-0.365c0.01-0.032,0.017-0.065,0.017-0.101
	c0-0.187-0.152-0.339-0.339-0.339c-0.11,0-0.207,0.053-0.269,0.135c-0.023-0.005-0.046-0.007-0.07-0.007
	c-0.015,0-0.029,0.003-0.043,0.004c0-0.001,0-0.003,0-0.004c0-0.187-0.152-0.339-0.339-0.339c-0.001,0-0.003,0-0.004,0
	c0.002-0.014,0.004-0.028,0.004-0.043c0-0.187-0.152-0.339-0.339-0.339c-0.062,0-0.119,0.018-0.169,0.047
	c-0.027-0.015-0.055-0.028-0.086-0.035c0-0.004,0.001-0.008,0.001-0.012c0-0.187-0.152-0.339-0.339-0.339
	c-0.015,0-0.029,0.003-0.043,0.004c0-0.001,0-0.003,0-0.004c0-0.187-0.152-0.339-0.339-0.339c-0.187,0-0.339,0.152-0.339,0.339
	c0,0.002,0.001,0.004,0.001,0.006C9.474,9.466,9.396,9.494,9.325,9.534c-0.04-0.023-0.083-0.043-0.128-0.057
	c0.04-0.056,0.065-0.124,0.065-0.198c0-0.187-0.152-0.339-0.339-0.339c-0.187,0-0.339,0.152-0.339,0.339
	c0,0.1,0.044,0.189,0.113,0.251c-0.194,0.109-0.325,0.316-0.325,0.554c-0.075,0-0.147,0.014-0.214,0.038
	c0.001-0.013,0.002-0.025,0.002-0.038c0-0.351-0.284-0.635-0.635-0.635c-0.351,0-0.635,0.284-0.635,0.635
	c0,0.188,0.082,0.357,0.212,0.473c-0.027,0.048-0.043,0.103-0.043,0.162c0,0.183,0.146,0.332,0.328,0.338
	c-0.047,0.089-0.074,0.19-0.074,0.298c0,0.308,0.219,0.564,0.509,0.623c0,0.004-0.001,0.008-0.001,0.013
	c0,0.187,0.152,0.339,0.339,0.339c0.149,0,0.274-0.096,0.319-0.23c0.033,0.011,0.068,0.018,0.104,0.018
	c0.187,0,0.339-0.152,0.339-0.339c0-0.002-0.001-0.004-0.001-0.006c0.025,0.003,0.051,0.006,0.077,0.006
	c-0.047,0.058-0.077,0.131-0.077,0.212c0,0.187,0.152,0.339,0.339,0.339c0.015,0,0.029-0.003,0.043-0.004c0,0.001,0,0.003,0,0.004
	c0,0.187,0.152,0.339,0.339,0.339s0.339-0.152,0.339-0.339c0-0.187-0.152-0.339-0.339-0.339c-0.015,0-0.029,0.003-0.043,0.004
	c0-0.001,0-0.003,0-0.004c0.142,0,0.264-0.088,0.314-0.213c0.103-0.003,0.199-0.029,0.284-0.075
	c0.025,0.163,0.164,0.288,0.334,0.288c0.081,0,0.154-0.029,0.212-0.076c0.058,0.047,0.131,0.076,0.212,0.076
	c0.113,0,0.213-0.056,0.275-0.142c0.047,0.132,0.171,0.226,0.318,0.226c0.164,0,0.301-0.117,0.332-0.272
	C12.16,11.735,12.367,11.485,12.367,11.185z M10.879,10.931c0.022-0.027,0.04-0.058,0.053-0.091
	c0.009-0.002,0.017-0.004,0.025-0.006c-0.029,0.032-0.051,0.07-0.066,0.112C10.888,10.94,10.883,10.936,10.879,10.931z"/>
<path fill="#8CC541" d="M11.042,13.242c0.128,0.047,0.26,0.05,0.383,0.018c0.027,0.021,0.056,0.039,0.089,0.051
	c0.176,0.065,0.37-0.025,0.435-0.201c0.038-0.103,0.022-0.212-0.033-0.299c0.012-0.02,0.023-0.041,0.031-0.063
	c0.005-0.014,0.008-0.028,0.011-0.042c0.001,0.001,0.003,0.001,0.004,0.002c0.176,0.065,0.37-0.025,0.435-0.201
	c0.001-0.001,0.001-0.003,0.001-0.004c0.013,0.007,0.025,0.014,0.039,0.019c0.176,0.065,0.37-0.025,0.435-0.201
	c0.021-0.058,0.025-0.118,0.015-0.175c0.024-0.02,0.045-0.042,0.063-0.068c0.004,0.001,0.007,0.004,0.01,0.005
	c0.176,0.065,0.37-0.025,0.435-0.201c0.005-0.014,0.008-0.028,0.011-0.042c0.001,0.001,0.003,0.001,0.004,0.002
	c0.176,0.065,0.37-0.025,0.435-0.201c0.065-0.176-0.025-0.37-0.201-0.435c-0.002-0.001-0.004-0.001-0.006-0.002
	c0.019-0.083,0.02-0.166,0.006-0.247c0.036-0.03,0.069-0.063,0.098-0.101c0.038,0.057,0.094,0.104,0.163,0.129
	c0.176,0.065,0.37-0.025,0.435-0.201s-0.025-0.37-0.201-0.435c-0.094-0.035-0.192-0.024-0.274,0.019
	c-0.035-0.219-0.184-0.414-0.407-0.496c0.026-0.07,0.038-0.142,0.039-0.213c0.011,0.005,0.023,0.01,0.035,0.015
	c0.329,0.121,0.694-0.047,0.816-0.376s-0.047-0.694-0.376-0.816c-0.177-0.065-0.363-0.046-0.517,0.036
	c-0.036-0.042-0.082-0.076-0.137-0.096c-0.172-0.063-0.362,0.022-0.43,0.191c-0.067-0.075-0.153-0.135-0.254-0.172
	c-0.289-0.106-0.605,0.01-0.761,0.263C11.867,8.702,11.864,8.7,11.86,8.698c-0.176-0.065-0.37,0.025-0.435,0.201
	c-0.051,0.14-0.004,0.29,0.105,0.379c-0.021,0.027-0.04,0.057-0.053,0.092c-0.065,0.176,0.025,0.37,0.201,0.435
	c0.002,0.001,0.004,0.001,0.006,0.002c-0.012,0.023-0.023,0.046-0.032,0.07c-0.038-0.064-0.097-0.117-0.173-0.145
	c-0.176-0.065-0.37,0.025-0.435,0.201c-0.005,0.014-0.008,0.028-0.011,0.042c-0.001-0.001-0.003-0.001-0.004-0.002
	c-0.176-0.065-0.37,0.025-0.435,0.201s0.025,0.37,0.201,0.435c0.176,0.065,0.37-0.025,0.435-0.201
	c0.005-0.014,0.008-0.028,0.011-0.042c0.001,0.001,0.003,0.001,0.004,0.002c-0.049,0.134-0.009,0.278,0.091,0.368
	c-0.033,0.097-0.041,0.197-0.028,0.293c-0.161-0.033-0.327,0.054-0.386,0.213c-0.028,0.076-0.026,0.154-0.002,0.225
	c-0.064,0.038-0.117,0.097-0.145,0.172c-0.039,0.106-0.021,0.219,0.038,0.307c-0.14-0.002-0.272,0.082-0.323,0.22
	c-0.057,0.154,0.006,0.323,0.141,0.406C10.598,12.856,10.761,13.138,11.042,13.242z M11.795,11.933
	c0.018,0.03,0.04,0.058,0.067,0.081c-0.002,0.009-0.002,0.017-0.003,0.026c-0.02-0.038-0.048-0.072-0.082-0.101
	C11.783,11.938,11.789,11.935,11.795,11.933z"/>
<path fill="#8CC541" d="M28.791,11.354c0.03,0.133,0.101,0.245,0.195,0.33c-0.003,0.033-0.002,0.068,0.006,0.102
	c0.042,0.182,0.224,0.296,0.406,0.254c0.107-0.025,0.19-0.098,0.232-0.191c0.023,0,0.047-0.003,0.07-0.008
	c0.014-0.003,0.027-0.009,0.041-0.014c0,0.001,0,0.003,0.001,0.004c0.042,0.182,0.224,0.296,0.406,0.254
	c0.001,0,0.003-0.001,0.004-0.001c0.001,0.014,0.002,0.028,0.005,0.043c0.042,0.182,0.224,0.296,0.406,0.254
	c0.06-0.014,0.112-0.044,0.155-0.084c0.029,0.009,0.06,0.014,0.092,0.015c0.001,0.004,0.001,0.008,0.001,0.012
	c0.042,0.182,0.224,0.296,0.406,0.254c0.014-0.003,0.027-0.009,0.041-0.014c0,0.001,0,0.003,0.001,0.004
	c0.042,0.182,0.224,0.296,0.406,0.254s0.296-0.224,0.254-0.406c0-0.002-0.001-0.004-0.002-0.006c0.08-0.03,0.15-0.074,0.21-0.13
	c0.045,0.014,0.091,0.023,0.138,0.027c-0.027,0.063-0.036,0.135-0.019,0.208c0.042,0.182,0.224,0.296,0.406,0.254
	s0.296-0.224,0.254-0.406c-0.022-0.097-0.085-0.174-0.166-0.219c0.164-0.149,0.246-0.381,0.192-0.613
	c0.073-0.017,0.14-0.046,0.2-0.085c0.002,0.012,0.004,0.025,0.007,0.037c0.079,0.342,0.42,0.555,0.762,0.477
	c0.342-0.079,0.555-0.42,0.477-0.762c-0.042-0.183-0.16-0.329-0.313-0.413c0.015-0.053,0.019-0.11,0.006-0.168
	c-0.041-0.179-0.217-0.291-0.396-0.256c0.026-0.097,0.03-0.202,0.006-0.307c-0.069-0.3-0.34-0.501-0.636-0.493
	c-0.001-0.004-0.001-0.008-0.002-0.013c-0.042-0.182-0.224-0.296-0.406-0.254c-0.145,0.033-0.245,0.155-0.26,0.296
	c-0.035-0.003-0.07-0.002-0.106,0.006c-0.182,0.042-0.296,0.224-0.254,0.406c0,0.002,0.002,0.004,0.002,0.006
	c-0.025,0.002-0.051,0.006-0.077,0.012c0.033-0.067,0.045-0.145,0.027-0.224c-0.042-0.182-0.224-0.296-0.406-0.254
	c-0.014,0.003-0.027,0.009-0.041,0.014c0-0.001,0-0.003-0.001-0.004c-0.042-0.182-0.224-0.296-0.406-0.254
	c-0.182,0.042-0.296,0.224-0.254,0.406c0.042,0.182,0.224,0.296,0.406,0.254c0.014-0.003,0.027-0.009,0.041-0.014
	c0,0.001,0,0.003,0.001,0.004c-0.139,0.032-0.237,0.145-0.258,0.278c-0.099,0.026-0.188,0.073-0.26,0.137
	c-0.061-0.153-0.224-0.244-0.39-0.206c-0.079,0.018-0.143,0.063-0.189,0.122c-0.067-0.033-0.145-0.045-0.223-0.027
	c-0.111,0.025-0.195,0.103-0.236,0.2c-0.075-0.118-0.217-0.182-0.361-0.149c-0.16,0.037-0.267,0.182-0.263,0.34
	C28.87,10.772,28.724,11.063,28.791,11.354z M30.298,11.268c-0.015,0.032-0.026,0.065-0.031,0.1
	c-0.008,0.003-0.015,0.008-0.023,0.012c0.021-0.038,0.034-0.08,0.039-0.124C30.288,11.261,30.293,11.264,30.298,11.268z"/>
<path fill="#8CC541" d="M27.238,11.713c0.03,0.133,0.101,0.245,0.195,0.33c-0.003,0.033-0.002,0.068,0.006,0.102
	c0.042,0.182,0.224,0.296,0.406,0.254c0.107-0.025,0.19-0.098,0.232-0.191c0.023,0,0.047-0.003,0.07-0.008
	c0.014-0.003,0.027-0.009,0.041-0.014c0,0.001,0,0.003,0.001,0.004c0.042,0.182,0.224,0.296,0.406,0.254
	c0.001,0,0.003-0.001,0.004-0.001c0.001,0.014,0.002,0.028,0.005,0.043c0.042,0.182,0.224,0.296,0.406,0.254
	c0.06-0.014,0.112-0.044,0.155-0.084c0.029,0.009,0.06,0.014,0.092,0.015c0.001,0.004,0.001,0.008,0.001,0.012
	c0.042,0.182,0.224,0.296,0.406,0.254c0.014-0.003,0.027-0.009,0.041-0.014c0,0.001,0,0.003,0.001,0.004
	c0.042,0.182,0.224,0.296,0.406,0.254c0.182-0.042,0.296-0.224,0.254-0.406c0-0.002-0.001-0.004-0.002-0.006
	c0.08-0.03,0.15-0.074,0.21-0.13c0.045,0.014,0.091,0.023,0.138,0.027c-0.027,0.063-0.036,0.135-0.019,0.208
	c0.042,0.182,0.224,0.296,0.406,0.254c0.182-0.042,0.296-0.224,0.254-0.406c-0.022-0.097-0.085-0.174-0.166-0.219
	c0.164-0.149,0.246-0.381,0.192-0.613c0.073-0.017,0.14-0.046,0.2-0.085c0.002,0.012,0.004,0.025,0.007,0.037
	c0.079,0.342,0.42,0.555,0.762,0.477s0.555-0.42,0.477-0.762c-0.042-0.183-0.16-0.329-0.313-0.413
	c0.015-0.053,0.019-0.11,0.006-0.168c-0.041-0.179-0.217-0.291-0.396-0.256c0.026-0.097,0.03-0.202,0.006-0.307
	c-0.069-0.3-0.34-0.501-0.636-0.493c-0.001-0.004-0.001-0.008-0.002-0.013c-0.042-0.182-0.224-0.296-0.406-0.254
	c-0.145,0.033-0.245,0.155-0.26,0.296c-0.035-0.003-0.07-0.002-0.106,0.006c-0.182,0.042-0.296,0.224-0.254,0.406
	c0,0.002,0.002,0.004,0.002,0.006c-0.025,0.002-0.051,0.006-0.077,0.012c0.033-0.067,0.045-0.145,0.027-0.224
	c-0.042-0.182-0.224-0.296-0.406-0.254c-0.014,0.003-0.027,0.009-0.041,0.014c0-0.001,0-0.003-0.001-0.004
	c-0.042-0.182-0.224-0.296-0.406-0.254c-0.182,0.042-0.296,0.224-0.254,0.406c0.042,0.182,0.224,0.296,0.406,0.254
	c0.014-0.003,0.027-0.009,0.041-0.014c0,0.001,0,0.003,0.001,0.004c-0.139,0.032-0.237,0.145-0.258,0.278
	c-0.099,0.026-0.188,0.073-0.26,0.137c-0.061-0.153-0.224-0.244-0.39-0.206c-0.079,0.018-0.143,0.063-0.189,0.122
	c-0.067-0.033-0.145-0.045-0.223-0.027c-0.111,0.025-0.195,0.103-0.236,0.2c-0.075-0.118-0.217-0.182-0.361-0.149
	c-0.16,0.037-0.267,0.182-0.263,0.34C27.317,11.131,27.171,11.421,27.238,11.713z M28.745,11.627
	c-0.015,0.032-0.026,0.065-0.031,0.1c-0.008,0.003-0.015,0.008-0.023,0.012c0.021-0.038,0.034-0.08,0.039-0.124
	C28.735,11.62,28.74,11.623,28.745,11.627z"/>
<path fill="#8CC541" d="M11.237,11.549c0.036,0.136,0.113,0.25,0.213,0.335c-0.002,0.035,0,0.07,0.01,0.105
	c0.05,0.187,0.242,0.299,0.429,0.249c0.11-0.029,0.193-0.108,0.233-0.206c0.024-0.001,0.048-0.005,0.072-0.011
	c0.015-0.004,0.028-0.01,0.042-0.016c0,0.001,0,0.003,0.001,0.004c0.05,0.187,0.242,0.299,0.429,0.249
	c0.001,0,0.003-0.001,0.004-0.002c0.002,0.015,0.003,0.029,0.007,0.044c0.05,0.187,0.242,0.299,0.429,0.249
	c0.062-0.016,0.115-0.05,0.157-0.092c0.031,0.008,0.063,0.013,0.095,0.013c0.001,0.004,0.001,0.008,0.002,0.012
	c0.05,0.187,0.242,0.299,0.429,0.249c0.015-0.004,0.028-0.01,0.042-0.016c0,0.001,0,0.003,0.001,0.004
	c0.05,0.187,0.242,0.299,0.429,0.249c0.187-0.05,0.299-0.242,0.249-0.429c-0.001-0.002-0.002-0.004-0.002-0.006
	c0.081-0.034,0.153-0.082,0.213-0.142c0.047,0.013,0.095,0.021,0.144,0.023c-0.026,0.067-0.032,0.141-0.012,0.215
	c0.05,0.187,0.242,0.299,0.429,0.249c0.187-0.05,0.299-0.242,0.249-0.429c-0.027-0.1-0.094-0.177-0.18-0.221
	c0.165-0.16,0.241-0.402,0.178-0.64c0.075-0.02,0.143-0.053,0.204-0.094c0.003,0.013,0.005,0.025,0.008,0.038
	c0.093,0.351,0.453,0.56,0.804,0.467s0.56-0.453,0.467-0.804c-0.05-0.188-0.177-0.335-0.338-0.417c0.014-0.055,0.016-0.115,0-0.174
	c-0.049-0.184-0.234-0.293-0.418-0.251c0.024-0.101,0.024-0.21-0.005-0.317c-0.082-0.308-0.369-0.507-0.675-0.488
	c-0.001-0.004-0.001-0.009-0.002-0.013c-0.05-0.187-0.242-0.299-0.429-0.249c-0.149,0.04-0.248,0.169-0.258,0.315
	c-0.036-0.002-0.072,0-0.109,0.01c-0.187,0.05-0.299,0.242-0.249,0.429c0.001,0.002,0.002,0.004,0.002,0.006
	c-0.026,0.003-0.053,0.008-0.079,0.015c0.032-0.071,0.042-0.152,0.02-0.233c-0.05-0.187-0.242-0.299-0.429-0.249
	C14.027,9.584,14.014,9.59,14,9.596c0-0.001,0-0.003-0.001-0.004c-0.05-0.187-0.242-0.299-0.429-0.249
	c-0.187,0.05-0.299,0.242-0.249,0.429c0.05,0.187,0.242,0.299,0.429,0.249c0.015-0.004,0.028-0.01,0.042-0.016
	c0,0.001,0,0.003,0.001,0.004c-0.143,0.038-0.241,0.158-0.258,0.296c-0.102,0.03-0.192,0.082-0.264,0.151
	c-0.068-0.156-0.241-0.245-0.41-0.199c-0.081,0.021-0.146,0.07-0.192,0.133c-0.071-0.032-0.152-0.042-0.232-0.02
	c-0.113,0.03-0.198,0.113-0.237,0.215c-0.081-0.119-0.231-0.181-0.379-0.142c-0.164,0.044-0.27,0.197-0.26,0.361
	C11.299,10.943,11.158,11.249,11.237,11.549z M12.794,11.408c-0.015,0.033-0.025,0.068-0.029,0.105
	c-0.008,0.004-0.016,0.009-0.023,0.013c0.02-0.04,0.033-0.084,0.036-0.13C12.783,11.401,12.788,11.404,12.794,11.408z"/>
<path fill="#8CC541" d="M14.448,10.64c0.027,0.102,0.084,0.187,0.159,0.25c-0.001,0.026,0,0.052,0.007,0.079
	c0.037,0.14,0.181,0.223,0.321,0.186c0.082-0.022,0.144-0.081,0.174-0.154c0.018-0.001,0.036-0.004,0.054-0.008
	c0.011-0.003,0.021-0.008,0.031-0.012c0,0.001,0,0.002,0.001,0.003c0.037,0.14,0.181,0.223,0.321,0.186
	c0.001,0,0.002-0.001,0.003-0.001c0.001,0.011,0.002,0.022,0.005,0.033c0.037,0.14,0.181,0.223,0.321,0.186
	c0.046-0.012,0.086-0.037,0.117-0.069c0.023,0.006,0.047,0.01,0.071,0.009c0.001,0.003,0.001,0.006,0.001,0.009
	c0.037,0.14,0.181,0.223,0.321,0.186c0.011-0.003,0.021-0.008,0.031-0.012c0,0.001,0,0.002,0.001,0.003
	c0.037,0.14,0.181,0.223,0.321,0.186c0.14-0.037,0.223-0.181,0.186-0.321c0-0.002-0.001-0.003-0.002-0.005
	c0.061-0.025,0.114-0.061,0.159-0.106c0.035,0.009,0.071,0.016,0.107,0.017c-0.019,0.05-0.024,0.106-0.009,0.161
	c0.037,0.14,0.181,0.223,0.321,0.186s0.223-0.181,0.186-0.321c-0.02-0.075-0.07-0.133-0.134-0.165
	c0.123-0.12,0.18-0.301,0.133-0.479c0.056-0.015,0.107-0.039,0.152-0.071c0.002,0.01,0.004,0.019,0.006,0.029
	c0.07,0.262,0.339,0.419,0.601,0.349c0.262-0.07,0.419-0.339,0.349-0.601c-0.037-0.141-0.132-0.251-0.253-0.312
	c0.01-0.041,0.012-0.086,0-0.13c-0.036-0.137-0.175-0.219-0.313-0.188c0.018-0.076,0.018-0.157-0.004-0.237
	c-0.061-0.23-0.276-0.379-0.505-0.365c-0.001-0.003-0.001-0.006-0.002-0.01c-0.037-0.14-0.181-0.223-0.321-0.186
	c-0.111,0.03-0.186,0.127-0.193,0.235c-0.027-0.001-0.054,0-0.082,0.007c-0.14,0.037-0.223,0.181-0.186,0.321
	c0,0.002,0.001,0.003,0.002,0.005C16.89,9.52,16.87,9.523,16.85,9.528c0.024-0.053,0.031-0.114,0.015-0.174
	c-0.037-0.14-0.181-0.223-0.321-0.186c-0.011,0.003-0.021,0.008-0.031,0.012c0-0.001,0-0.002-0.001-0.003
	c-0.037-0.14-0.181-0.223-0.321-0.186s-0.223,0.181-0.186,0.321c0.037,0.14,0.181,0.223,0.321,0.186
	c0.011-0.003,0.021-0.008,0.031-0.012c0,0.001,0,0.002,0.001,0.003c-0.107,0.028-0.18,0.118-0.193,0.221
	c-0.076,0.022-0.143,0.061-0.198,0.113c-0.051-0.117-0.18-0.183-0.307-0.149c-0.06,0.016-0.109,0.052-0.143,0.099
	c-0.053-0.024-0.113-0.031-0.174-0.015c-0.085,0.023-0.148,0.084-0.177,0.161c-0.061-0.089-0.173-0.136-0.283-0.106
	c-0.123,0.033-0.202,0.147-0.194,0.27C14.494,10.187,14.389,10.416,14.448,10.64z M15.612,10.535
	c-0.011,0.025-0.019,0.051-0.022,0.079c-0.006,0.003-0.012,0.006-0.018,0.01c0.015-0.03,0.024-0.063,0.027-0.097
	C15.604,10.529,15.608,10.532,15.612,10.535z"/>
<path fill="#8CC541" d="M15.192,12.025c0.027,0.102,0.084,0.187,0.159,0.25c-0.001,0.026,0,0.052,0.007,0.079
	c0.037,0.14,0.181,0.223,0.321,0.186c0.082-0.022,0.144-0.081,0.174-0.154c0.018-0.001,0.036-0.004,0.054-0.008
	c0.011-0.003,0.021-0.008,0.031-0.012c0,0.001,0,0.002,0.001,0.003c0.037,0.14,0.181,0.223,0.321,0.186
	c0.001,0,0.002-0.001,0.003-0.001c0.001,0.011,0.002,0.022,0.005,0.033c0.037,0.14,0.181,0.223,0.321,0.186
	c0.046-0.012,0.086-0.037,0.117-0.069c0.023,0.006,0.047,0.01,0.071,0.009c0.001,0.003,0.001,0.006,0.001,0.009
	c0.037,0.14,0.181,0.223,0.321,0.186c0.011-0.003,0.021-0.008,0.031-0.012c0,0.001,0,0.002,0.001,0.003
	c0.037,0.14,0.181,0.223,0.321,0.186c0.14-0.037,0.223-0.181,0.186-0.321c0-0.002-0.001-0.003-0.002-0.005
	c0.061-0.025,0.114-0.061,0.159-0.106c0.035,0.009,0.071,0.016,0.107,0.017c-0.019,0.05-0.024,0.106-0.009,0.161
	c0.037,0.14,0.181,0.223,0.321,0.186c0.14-0.037,0.223-0.181,0.186-0.321c-0.02-0.075-0.07-0.133-0.134-0.165
	c0.123-0.12,0.18-0.301,0.133-0.479c0.056-0.015,0.107-0.039,0.152-0.071c0.002,0.01,0.004,0.019,0.006,0.029
	c0.07,0.262,0.339,0.419,0.601,0.349c0.262-0.07,0.419-0.339,0.349-0.601c-0.037-0.141-0.132-0.251-0.253-0.312
	c0.01-0.041,0.012-0.086,0-0.13c-0.036-0.137-0.175-0.219-0.313-0.188c0.018-0.076,0.018-0.157-0.004-0.237
	c-0.061-0.23-0.276-0.379-0.505-0.365c-0.001-0.003-0.001-0.006-0.002-0.01c-0.037-0.14-0.181-0.223-0.321-0.186
	c-0.111,0.03-0.186,0.127-0.193,0.235c-0.027-0.001-0.054,0-0.082,0.007c-0.14,0.037-0.223,0.181-0.186,0.321
	c0,0.002,0.001,0.003,0.002,0.005c-0.02,0.002-0.039,0.006-0.059,0.011c0.024-0.053,0.031-0.114,0.015-0.174
	c-0.037-0.14-0.181-0.223-0.321-0.186c-0.011,0.003-0.021,0.008-0.031,0.012c0-0.001,0-0.002-0.001-0.003
	c-0.037-0.14-0.181-0.223-0.321-0.186c-0.14,0.037-0.223,0.181-0.186,0.321c0.037,0.14,0.181,0.223,0.321,0.186
	c0.011-0.003,0.021-0.008,0.031-0.012c0,0.001,0,0.002,0.001,0.003c-0.107,0.028-0.18,0.118-0.193,0.221
	c-0.076,0.022-0.143,0.061-0.198,0.113c-0.051-0.117-0.18-0.183-0.307-0.149c-0.06,0.016-0.109,0.052-0.143,0.099
	c-0.053-0.024-0.113-0.031-0.174-0.015c-0.085,0.023-0.148,0.084-0.177,0.161c-0.061-0.089-0.173-0.136-0.283-0.106
	c-0.123,0.033-0.202,0.147-0.194,0.27C15.238,11.573,15.133,11.801,15.192,12.025z M16.356,11.92
	c-0.011,0.025-0.019,0.051-0.022,0.079c-0.006,0.003-0.012,0.006-0.018,0.01c0.015-0.03,0.024-0.063,0.027-0.097
	C16.348,11.915,16.352,11.917,16.356,11.92z"/>
<path fill="#8CC541" d="M19.862,12.679c0.097-0.041,0.174-0.109,0.226-0.192c0.026-0.002,0.052-0.008,0.077-0.018
	c0.134-0.056,0.196-0.21,0.14-0.343c-0.033-0.079-0.1-0.132-0.177-0.151c-0.003-0.018-0.008-0.035-0.016-0.052
	c-0.004-0.01-0.01-0.02-0.016-0.029c0.001,0,0.002-0.001,0.003-0.001c0.134-0.056,0.196-0.21,0.14-0.343
	c0-0.001-0.001-0.002-0.002-0.003c0.011-0.003,0.021-0.005,0.032-0.01c0.134-0.056,0.196-0.21,0.14-0.343
	c-0.019-0.044-0.049-0.08-0.084-0.107c0.003-0.024,0.003-0.048-0.001-0.072c0.003-0.001,0.006-0.001,0.009-0.003
	c0.134-0.056,0.196-0.21,0.14-0.343c-0.004-0.01-0.01-0.02-0.016-0.029c0.001,0,0.002-0.001,0.003-0.001
	c0.134-0.056,0.196-0.21,0.14-0.343c-0.056-0.134-0.21-0.196-0.343-0.14c-0.002,0.001-0.003,0.002-0.004,0.002
	c-0.033-0.057-0.077-0.105-0.127-0.143c0.005-0.036,0.006-0.072,0.002-0.109c0.052,0.012,0.108,0.009,0.161-0.013
	c0.134-0.056,0.196-0.21,0.14-0.343s-0.21-0.196-0.343-0.14c-0.071,0.03-0.122,0.088-0.145,0.156
	c-0.136-0.106-0.323-0.137-0.493-0.065c-0.023-0.054-0.054-0.101-0.091-0.141c0.009-0.003,0.018-0.006,0.027-0.01
	c0.25-0.105,0.368-0.394,0.263-0.644s-0.394-0.368-0.644-0.263c-0.134,0.056-0.23,0.166-0.274,0.294
	c-0.042-0.004-0.086,0-0.129,0.018c-0.131,0.055-0.193,0.204-0.143,0.336c-0.078-0.007-0.158,0.004-0.235,0.036
	c-0.22,0.092-0.337,0.325-0.291,0.55c-0.003,0.001-0.006,0.002-0.009,0.003c-0.134,0.056-0.196,0.21-0.14,0.343
	c0.045,0.106,0.151,0.166,0.26,0.159c0.002,0.027,0.007,0.054,0.018,0.08c0.056,0.134,0.21,0.196,0.343,0.14
	c0.002-0.001,0.003-0.002,0.004-0.002c0.005,0.019,0.011,0.038,0.019,0.057c-0.056-0.016-0.117-0.015-0.174,0.009
	c-0.134,0.056-0.196,0.21-0.14,0.343c0.004,0.01,0.01,0.02,0.016,0.029c-0.001,0-0.002,0.001-0.003,0.001
	c-0.134,0.056-0.196,0.21-0.14,0.343s0.21,0.196,0.343,0.14c0.134-0.056,0.196-0.21,0.14-0.343c-0.004-0.01-0.01-0.02-0.016-0.029
	c0.001,0,0.002-0.001,0.003-0.001c0.043,0.102,0.142,0.162,0.246,0.16c0.033,0.072,0.081,0.133,0.139,0.18
	c-0.109,0.066-0.156,0.203-0.105,0.324c0.024,0.057,0.067,0.101,0.118,0.128c-0.016,0.056-0.015,0.116,0.009,0.174
	c0.034,0.081,0.104,0.135,0.184,0.153c-0.08,0.073-0.11,0.19-0.066,0.295c0.049,0.117,0.174,0.18,0.294,0.155
	C19.407,12.696,19.648,12.769,19.862,12.679z M19.597,11.541c0.026,0.008,0.053,0.011,0.081,0.011
	c0.004,0.006,0.008,0.011,0.012,0.016c-0.032-0.011-0.065-0.016-0.1-0.014C19.593,11.55,19.595,11.545,19.597,11.541z"/>
<circle fill="#3BB34A" cx="11.285" cy="10.795" r="0.235"/>
<circle fill="#3BB34A" cx="12.361" cy="11.264" r="0.235"/>
<circle fill="#3BB34A" cx="12.126" cy="10.56" r="0.235"/>
<circle fill="#3BB34A" cx="12.83" cy="11.029" r="0.235"/>
<circle fill="#3BB34A" cx="11.814" cy="11.558" r="0.528"/>
<circle fill="#3BB34A" cx="9.728" cy="10.386" r="0.528"/>
<circle fill="#3BB34A" cx="17.549" cy="10.445" r="0.528"/>
<circle fill="#3BB34A" cx="32.839" cy="10.547" r="0.528"/>
<circle fill="#3BB34A" cx="12.361" cy="10.795" r="0.235"/>
<circle fill="#3BB34A" cx="12.595" cy="10.56" r="0.235"/>
<circle fill="#3BB34A" cx="11.892" cy="8.94" r="0.235"/>
<circle fill="#3BB34A" cx="16.772" cy="10.795" r="0.235"/>
<circle fill="#3BB34A" cx="16.538" cy="10.21" r="0.235"/>
<circle fill="#3BB34A" cx="15.71" cy="11.092" r="0.235"/>
<circle fill="#3BB34A" cx="15.823" cy="10.326" r="0.235"/>
<circle fill="#3BB34A" cx="16.538" cy="10.68" r="0.235"/>
<circle fill="#3BB34A" cx="16.179" cy="10.326" r="0.235"/>
<circle fill="#3BB34A" cx="17.784" cy="10.02" r="0.235"/>
<circle fill="#3BB34A" cx="18.781" cy="10.151" r="0.235"/>
<circle fill="#3BB34A" cx="18.781" cy="9.786" r="0.235"/>
<circle fill="#3BB34A" cx="19.016" cy="10.56" r="0.235"/>
<circle fill="#3BB34A" cx="19.016" cy="8.706" r="0.235"/>
<circle fill="#3BB34A" cx="18.781" cy="8.706" r="0.235"/>
<circle fill="#3BB34A" cx="19.569" cy="10.298" r="0.147"/>
<circle fill="#3BB34A" cx="19.422" cy="9.976" r="0.147"/>
<circle fill="#3BB34A" cx="18.019" cy="11.998" r="0.147"/>
<circle fill="#3BB34A" cx="19.193" cy="10.21" r="0.147"/>
<circle fill="#3BB34A" cx="18.635" cy="10.255" r="0.147"/>
<circle fill="#3BB34A" cx="18.635" cy="10.559" r="0.147"/>
<circle fill="#3BB34A" cx="18.253" cy="10.512" r="0.147"/>
<circle fill="#3BB34A" cx="17.763" cy="10.973" r="0.147"/>
<circle fill="#3BB34A" cx="16.772" cy="10.68" r="0.147"/>
<circle fill="#3BB34A" cx="16.772" cy="10.255" r="0.147"/>
<circle fill="#3BB34A" cx="15.59" cy="10.613" r="0.147"/>
<circle fill="#3BB34A" cx="16.057" cy="10.56" r="0.147"/>
<circle fill="#3BB34A" cx="16.685" cy="11.092" r="0.147"/>
<circle fill="#3BB34A" cx="14.344" cy="9.786" r="0.147"/>
<circle fill="#3BB34A" cx="13.405" cy="9.303" r="0.147"/>
<circle fill="#3BB34A" cx="19.016" cy="9.917" r="0.235"/>
<circle fill="#3BB34A" cx="19.526" cy="11.092" r="0.235"/>
<circle fill="#3BB34A" cx="18.019" cy="12.32" r="0.235"/>
<circle fill="#3BB34A" cx="16.538" cy="11.945" r="0.235"/>
<circle fill="#3BB34A" cx="18.078" cy="11.092" r="0.235"/>
<circle fill="#3BB34A" cx="30.406" cy="11.375" r="0.235"/>
<circle fill="#3BB34A" cx="32.242" cy="10.253" r="0.235"/>
<circle fill="#3BB34A" cx="16.772" cy="12.086" r="0.235"/>
<circle fill="#3BB34A" cx="15.176" cy="11.711" r="0.235"/>
<circle fill="#3BB34A" cx="14.941" cy="9.917" r="0.235"/>
<circle fill="#3BB34A" cx="14.197" cy="10.386" r="0.235"/>
<circle fill="#3BB34A" cx="14.197" cy="9.551" r="0.235"/>
<circle fill="#3BB34A" cx="13.423" cy="9.032" r="0.235"/>
<circle fill="#3BB34A" cx="13.188" cy="10.091" r="0.235"/>
<circle fill="#3BB34A" cx="13.657" cy="9.175" r="0.235"/>
<circle fill="#3BB34A" cx="13.423" cy="9.032" r="0.235"/>
<circle fill="#3BB34A" cx="13.766" cy="9.032" r="0.235"/>
<circle fill="#3BB34A" cx="8.369" cy="10.68" r="0.235"/>
<circle fill="#3BB34A" cx="10.47" cy="11.264" r="0.126"/>
<circle fill="#3BB34A" cx="10.343" cy="10.621" r="0.126"/>
<circle fill="#3BB34A" cx="13.065" cy="10.747" r="0.126"/>
<circle fill="#3BB34A" cx="12.938" cy="10.02" r="0.126"/>
<circle fill="#3BB34A" cx="13.531" cy="9.393" r="0.126"/>
<circle fill="#3BB34A" cx="13.08" cy="9.303" r="0.126"/>
<circle fill="#3BB34A" cx="18.106" cy="10.613" r="0.126"/>
<circle fill="#3BB34A" cx="19.422" cy="10.298" r="0.126"/>
<circle fill="#3BB34A" cx="32.185" cy="10.761" r="0.126"/>
<circle fill="#3BB34A" cx="32.494" cy="11.235" r="0.126"/>
<circle fill="#3BB34A" cx="32.368" cy="10.869" r="0.126"/>
<circle fill="#3BB34A" cx="33.241" cy="10.166" r="0.126"/>
<circle fill="#3BB34A" cx="32.311" cy="9.917" r="0.126"/>
<circle fill="#3BB34A" cx="30.532" cy="10.706" r="0.126"/>
<circle fill="#3BB34A" cx="29.798" cy="11.321" r="0.126"/>
<circle fill="#3BB34A" cx="30.658" cy="11.143" r="0.126"/>
<circle fill="#3BB34A" cx="30.157" cy="11.644" r="0.126"/>
<circle fill="#3BB34A" cx="30.267" cy="11.369" r="0.126"/>
<circle fill="#3BB34A" cx="28.648" cy="11.707" r="0.126"/>
<circle fill="#3BB34A" cx="27.653" cy="11.461" r="0.126"/>
<circle fill="#3BB34A" cx="30.031" cy="11.235" r="0.126"/>
<circle fill="#3BB34A" cx="30.393" cy="11.101" r="0.126"/>
<circle fill="#3BB34A" cx="31.323" cy="11.77" r="0.126"/>
<circle fill="#3BB34A" cx="33.62" cy="10.869" r="0.126"/>
<circle fill="#3BB34A" cx="33.494" cy="10.591" r="0.126"/>
<circle fill="#3BB34A" cx="30.393" cy="10.832" r="0.126"/>
<circle fill="#3BB34A" cx="30.393" cy="11.027" r="0.126"/>
<circle fill="#3BB34A" cx="29.924" cy="11.328" r="0.126"/>
<circle fill="#3BB34A" cx="30.031" cy="11.016" r="0.126"/>
<circle fill="#3BB34A" cx="29.545" cy="12.434" r="0.126"/>
<circle fill="#3BB34A" cx="30.051" cy="12.172" r="0.126"/>
<circle fill="#3BB34A" cx="18.908" cy="10.298" r="0.126"/>
<circle fill="#3BB34A" cx="10.47" cy="11.137" r="0.126"/>
<circle fill="#3BB34A" cx="11.657" cy="10.973" r="0.126"/>
<circle fill="#3BB34A" cx="10.933" cy="10.84" r="0.126"/>
<circle fill="#3BB34A" cx="13.08" cy="9.032" r="0.126"/>
<circle fill="#3BB34A" cx="10.383" cy="10.326" r="0.126"/>
<circle fill="#3BB34A" cx="9.151" cy="10.326" r="0.126"/>
<circle fill="#3BB34A" cx="9.259" cy="10.151" r="0.235"/>
<circle fill="#3BB34A" cx="11.984" cy="10.747" r="0.235"/>
<circle fill="#3BB34A" cx="12.576" cy="11.092" r="0.235"/>
<circle fill="#3BB34A" cx="9.494" cy="10.68" r="0.235"/>
<circle fill="#3BB34A" cx="9.494" cy="10.02" r="0.235"/>
<circle fill="#3BB34A" cx="9.963" cy="10.795" r="0.235"/>
<path fill="#C980B6" d="M16.858,1.065c-0.007,0.063-0.064,0.108-0.127,0.1l-0.295-0.034c-0.063-0.007-0.108-0.064-0.1-0.127l0,0
	c0.007-0.063,0.064-0.108,0.127-0.1l0.295,0.034C16.82,0.946,16.865,1.003,16.858,1.065L16.858,1.065z"/>
<path fill="#C45FA4" d="M17.394,1.128c-0.007,0.063-0.064,0.108-0.127,0.1l-0.295-0.034c-0.063-0.007-0.108-0.064-0.1-0.127l0,0
	c0.007-0.063,0.064-0.108,0.127-0.1l0.295,0.034C17.356,1.008,17.401,1.065,17.394,1.128L17.394,1.128z"/>
<path fill="#C980B6" d="M16.805,1.52c-0.007,0.063-0.064,0.108-0.127,0.1l-0.295-0.034c-0.063-0.007-0.108-0.064-0.1-0.127l0,0
	c0.007-0.063,0.064-0.108,0.127-0.1l0.295,0.034C16.767,1.4,16.812,1.457,16.805,1.52L16.805,1.52z"/>
<path fill="#C45FA4" d="M17.341,1.583c-0.007,0.063-0.064,0.108-0.127,0.1l-0.295-0.034c-0.063-0.007-0.108-0.064-0.1-0.127l0,0
	c0.007-0.063,0.064-0.108,0.127-0.1l0.295,0.034C17.303,1.463,17.348,1.52,17.341,1.583L17.341,1.583z"/>
<path fill="#C980B6" d="M16.886,0.838c-0.007,0.063-0.05,0.109-0.095,0.104l-0.214-0.025c-0.045-0.005-0.076-0.06-0.069-0.123l0,0
	c0.007-0.063,0.05-0.109,0.095-0.104l0.214,0.025C16.863,0.72,16.894,0.776,16.886,0.838L16.886,0.838z"/>
<path fill="#C45FA4" d="M17.274,0.884c-0.007,0.063-0.05,0.109-0.095,0.104l-0.214-0.025c-0.045-0.005-0.076-0.06-0.069-0.123l0,0
	c0.007-0.063,0.05-0.109,0.095-0.104l0.214,0.025C17.25,0.766,17.281,0.821,17.274,0.884L17.274,0.884z"/>
<path fill="#C980B6" d="M16.833,1.293c-0.007,0.063-0.05,0.109-0.095,0.104l-0.214-0.025c-0.045-0.005-0.076-0.06-0.069-0.123l0,0
	c0.007-0.063,0.05-0.109,0.095-0.104l0.214,0.025C16.81,1.175,16.841,1.23,16.833,1.293L16.833,1.293z"/>
<path fill="#C45FA4" d="M17.221,1.338c-0.007,0.063-0.05,0.109-0.095,0.104l-0.214-0.025c-0.045-0.005-0.076-0.06-0.069-0.123l0,0
	c0.007-0.063,0.05-0.109,0.095-0.104l0.214,0.025C17.197,1.22,17.228,1.275,17.221,1.338L17.221,1.338z"/>
<path fill="#C980B6" d="M16.725,2.202c-0.007,0.063-0.064,0.108-0.127,0.1l-0.295-0.034c-0.063-0.007-0.108-0.064-0.1-0.127l0,0
	c0.007-0.063,0.064-0.108,0.127-0.1l0.295,0.034C16.688,2.082,16.733,2.139,16.725,2.202L16.725,2.202z"/>
<path fill="#C45FA4" d="M17.261,2.264c-0.007,0.063-0.064,0.108-0.127,0.1L16.839,2.33c-0.063-0.007-0.108-0.064-0.1-0.127l0,0
	c0.007-0.063,0.064-0.108,0.127-0.1l0.295,0.034C17.223,2.145,17.268,2.202,17.261,2.264L17.261,2.264z"/>
<path fill="#C980B6" d="M16.672,2.656c-0.007,0.063-0.064,0.108-0.127,0.1L16.25,2.722c-0.063-0.007-0.108-0.064-0.1-0.127l0,0
	c0.007-0.063,0.064-0.108,0.127-0.1l0.295,0.034C16.635,2.537,16.679,2.593,16.672,2.656L16.672,2.656z"/>
<path fill="#C45FA4" d="M17.208,2.719c-0.007,0.063-0.064,0.108-0.127,0.1l-0.295-0.034c-0.063-0.007-0.108-0.064-0.1-0.127l0,0
	c0.007-0.063,0.064-0.108,0.127-0.1l0.295,0.034C17.17,2.599,17.215,2.656,17.208,2.719L17.208,2.719z"/>
<path fill="#C980B6" d="M16.754,1.975c-0.007,0.063-0.05,0.109-0.095,0.104l-0.214-0.025c-0.045-0.005-0.076-0.06-0.069-0.123l0,0
	c0.007-0.063,0.05-0.109,0.095-0.104l0.214,0.025C16.73,1.857,16.761,1.912,16.754,1.975L16.754,1.975z"/>
<path fill="#C45FA4" d="M17.141,2.02c-0.007,0.063-0.05,0.109-0.095,0.104l-0.214-0.025c-0.045-0.005-0.076-0.06-0.069-0.123l0,0
	c0.007-0.063,0.05-0.109,0.095-0.104l0.214,0.025C17.118,1.902,17.148,1.957,17.141,2.02L17.141,2.02z"/>
<path fill="#C980B6" d="M16.701,2.429c-0.007,0.063-0.05,0.109-0.095,0.104l-0.214-0.025c-0.045-0.005-0.076-0.06-0.069-0.123l0,0
	c0.007-0.063,0.05-0.109,0.095-0.104l0.214,0.025C16.677,2.311,16.708,2.366,16.701,2.429L16.701,2.429z"/>
<path fill="#C45FA4" d="M17.088,2.474c-0.007,0.063-0.05,0.109-0.095,0.104l-0.214-0.025c-0.045-0.005-0.076-0.06-0.069-0.123l0,0
	c0.007-0.063,0.05-0.109,0.095-0.104l0.214,0.025C17.064,2.357,17.095,2.412,17.088,2.474L17.088,2.474z"/>
<path fill="#C980B6" d="M16.647,2.884c-0.007,0.063-0.05,0.109-0.095,0.104l-0.214-0.025c-0.045-0.005-0.076-0.06-0.069-0.123l0,0
	c0.007-0.063,0.05-0.109,0.095-0.104l0.214,0.025C16.624,2.766,16.655,2.821,16.647,2.884L16.647,2.884z"/>
<path fill="#C45FA4" d="M17.035,2.929c-0.007,0.063-0.05,0.109-0.095,0.104l-0.214-0.025c-0.045-0.005-0.076-0.06-0.069-0.123l0,0
	c0.007-0.063,0.05-0.109,0.095-0.104l0.214,0.025C17.011,2.811,17.042,2.866,17.035,2.929L17.035,2.929z"/>
<path fill="#C980B6" d="M16.78,1.747c-0.007,0.063-0.05,0.109-0.095,0.104l-0.214-0.025c-0.045-0.005-0.076-0.06-0.069-0.123l0,0
	c0.007-0.063,0.05-0.109,0.095-0.104l0.214,0.025C16.757,1.629,16.788,1.685,16.78,1.747L16.78,1.747z"/>
<path fill="#C45FA4" d="M17.168,1.793c-0.007,0.063-0.05,0.109-0.095,0.104l-0.214-0.025c-0.045-0.005-0.076-0.06-0.069-0.123l0,0
	c0.007-0.063,0.05-0.109,0.095-0.104l0.214,0.025C17.144,1.675,17.175,1.73,17.168,1.793L17.168,1.793z"/>
<polygon fill="#8CC541" points="15.821,9.956 15.739,9.947 16.552,2.988 16.647,2.884 "/>
<polygon fill="#3BB34A" points="15.901,9.966 15.819,9.956 16.646,2.883 16.715,3.007 "/>
<path fill="#C980B6" d="M17.788,3.126c-0.009,0.044-0.067,0.069-0.129,0.055L17.369,3.12c-0.062-0.013-0.104-0.059-0.095-0.103l0,0
	c0.009-0.044,0.067-0.069,0.129-0.055l0.291,0.062C17.755,3.036,17.798,3.082,17.788,3.126L17.788,3.126z"/>
<path fill="#C45FA4" d="M18.316,3.237c-0.009,0.044-0.067,0.069-0.129,0.055l-0.291-0.062c-0.062-0.013-0.104-0.059-0.095-0.103l0,0
	c0.009-0.044,0.067-0.069,0.129-0.055l0.291,0.062C18.283,3.148,18.325,3.194,18.316,3.237L18.316,3.237z"/>
<path fill="#C980B6" d="M17.721,3.442c-0.009,0.044-0.067,0.069-0.129,0.055l-0.291-0.062c-0.062-0.013-0.104-0.059-0.095-0.103l0,0
	c0.009-0.044,0.067-0.069,0.129-0.055l0.291,0.062C17.688,3.353,17.731,3.399,17.721,3.442L17.721,3.442z"/>
<path fill="#C45FA4" d="M18.249,3.554C18.24,3.598,18.182,3.623,18.12,3.61l-0.291-0.062c-0.062-0.013-0.104-0.059-0.095-0.103l0,0
	c0.009-0.044,0.067-0.069,0.129-0.055l0.291,0.062C18.215,3.464,18.258,3.51,18.249,3.554L18.249,3.554z"/>
<path fill="#C980B6" d="M17.824,2.968c-0.009,0.044-0.053,0.071-0.098,0.062l-0.21-0.045c-0.045-0.009-0.073-0.053-0.064-0.096l0,0
	c0.009-0.044,0.053-0.071,0.098-0.062l0.21,0.045C17.804,2.881,17.833,2.924,17.824,2.968L17.824,2.968z"/>
<path fill="#C45FA4" d="M18.205,3.049c-0.009,0.044-0.053,0.071-0.098,0.062l-0.21-0.045c-0.045-0.009-0.073-0.053-0.064-0.096l0,0
	c0.009-0.044,0.053-0.071,0.098-0.062l0.21,0.045C18.186,2.962,18.215,3.005,18.205,3.049L18.205,3.049z"/>
<path fill="#C980B6" d="M17.757,3.285c-0.009,0.044-0.053,0.071-0.098,0.062l-0.21-0.045c-0.045-0.009-0.073-0.053-0.064-0.096l0,0
	c0.009-0.044,0.053-0.071,0.098-0.062l0.21,0.045C17.737,3.198,17.766,3.241,17.757,3.285L17.757,3.285z"/>
<path fill="#C45FA4" d="M18.138,3.365c-0.009,0.044-0.053,0.071-0.098,0.062l-0.21-0.045c-0.045-0.009-0.073-0.053-0.064-0.096l0,0
	c0.009-0.044,0.053-0.071,0.098-0.062l0.21,0.045C18.119,3.278,18.147,3.322,18.138,3.365L18.138,3.365z"/>
<path fill="#C980B6" d="M17.621,3.917c-0.009,0.044-0.067,0.069-0.129,0.055l-0.291-0.062c-0.062-0.013-0.104-0.059-0.095-0.103l0,0
	c0.009-0.044,0.067-0.069,0.129-0.055l0.291,0.062C17.587,3.828,17.63,3.874,17.621,3.917L17.621,3.917z"/>
<path fill="#C45FA4" d="M18.148,4.029c-0.009,0.044-0.067,0.069-0.129,0.055l-0.291-0.062c-0.062-0.013-0.104-0.059-0.095-0.103l0,0
	c0.009-0.044,0.067-0.069,0.129-0.055l0.291,0.062C18.115,3.939,18.158,3.985,18.148,4.029L18.148,4.029z"/>
<path fill="#C980B6" d="M17.554,4.234c-0.009,0.044-0.067,0.069-0.129,0.055l-0.291-0.062c-0.062-0.013-0.104-0.059-0.095-0.103l0,0
	c0.009-0.044,0.067-0.069,0.129-0.055l0.291,0.062C17.52,4.144,17.563,4.19,17.554,4.234L17.554,4.234z"/>
<path fill="#C45FA4" d="M18.081,4.346c-0.009,0.044-0.067,0.069-0.129,0.055L17.662,4.34c-0.062-0.013-0.104-0.059-0.095-0.103l0,0
	c0.009-0.044,0.067-0.069,0.129-0.055l0.291,0.062C18.048,4.256,18.09,4.302,18.081,4.346L18.081,4.346z"/>
<path fill="#C980B6" d="M17.656,3.76c-0.009,0.044-0.053,0.071-0.098,0.062l-0.21-0.045c-0.045-0.009-0.073-0.053-0.064-0.096l0,0
	c0.009-0.044,0.053-0.071,0.098-0.062l0.21,0.045C17.637,3.673,17.665,3.716,17.656,3.76L17.656,3.76z"/>
<path fill="#C45FA4" d="M18.038,3.84c-0.009,0.044-0.053,0.071-0.098,0.062l-0.21-0.045c-0.045-0.009-0.073-0.053-0.064-0.096l0,0
	c0.009-0.044,0.053-0.071,0.098-0.062l0.21,0.045C18.018,3.753,18.047,3.797,18.038,3.84L18.038,3.84z"/>
<path fill="#C980B6" d="M17.589,4.076c-0.009,0.044-0.053,0.071-0.098,0.062l-0.21-0.045c-0.045-0.009-0.073-0.053-0.064-0.096l0,0
	c0.009-0.044,0.053-0.071,0.098-0.062l0.21,0.045C17.569,3.989,17.598,4.032,17.589,4.076L17.589,4.076z"/>
<path fill="#C45FA4" d="M17.971,4.157c-0.009,0.044-0.053,0.071-0.098,0.062l-0.21-0.045c-0.045-0.009-0.073-0.053-0.064-0.096l0,0
	c0.009-0.044,0.053-0.071,0.098-0.062l0.21,0.045C17.951,4.07,17.98,4.113,17.971,4.157L17.971,4.157z"/>
<path fill="#C980B6" d="M17.522,4.393c-0.009,0.044-0.053,0.071-0.098,0.062l-0.21-0.045c-0.045-0.009-0.073-0.053-0.064-0.096l0,0
	c0.009-0.044,0.053-0.071,0.098-0.062l0.21,0.045C17.502,4.306,17.531,4.349,17.522,4.393L17.522,4.393z"/>
<path fill="#C45FA4" d="M17.904,4.474c-0.009,0.044-0.053,0.071-0.098,0.062l-0.21-0.045c-0.045-0.009-0.073-0.053-0.064-0.096l0,0
	c0.009-0.044,0.053-0.071,0.098-0.062l0.21,0.045C17.884,4.387,17.913,4.43,17.904,4.474L17.904,4.474z"/>
<path fill="#C980B6" d="M17.69,3.601c-0.009,0.044-0.053,0.071-0.098,0.062l-0.21-0.045c-0.045-0.009-0.073-0.053-0.064-0.096l0,0
	c0.009-0.044,0.053-0.071,0.098-0.062l0.21,0.045C17.67,3.514,17.699,3.557,17.69,3.601L17.69,3.601z"/>
<path fill="#C45FA4" d="M18.071,3.682c-0.009,0.044-0.053,0.071-0.098,0.062l-0.21-0.045c-0.045-0.009-0.073-0.053-0.064-0.096l0,0
	c0.009-0.044,0.053-0.071,0.098-0.062l0.21,0.045C18.052,3.595,18.08,3.638,18.071,3.682L18.071,3.682z"/>
<polygon fill="#8CC541" points="16.479,9.321 16.398,9.304 17.424,4.455 17.522,4.393 "/>
<polygon fill="#3BB34A" points="16.558,9.338 16.477,9.32 17.52,4.393 17.584,4.489 "/>
<path fill="#C980B6" d="M15.404,3.628c0,0.045-0.051,0.081-0.114,0.081h-0.297c-0.063,0-0.114-0.036-0.114-0.081l0,0
	c0-0.045,0.051-0.081,0.114-0.081h0.297C15.352,3.547,15.404,3.583,15.404,3.628L15.404,3.628z"/>
<path fill="#C45FA4" d="M15.943,3.628c0,0.045-0.051,0.081-0.114,0.081h-0.297c-0.063,0-0.114-0.036-0.114-0.081l0,0
	c0-0.045,0.051-0.081,0.114-0.081h0.297C15.892,3.547,15.943,3.583,15.943,3.628L15.943,3.628z"/>
<path fill="#C980B6" d="M15.404,3.951c0,0.045-0.051,0.081-0.114,0.081h-0.297c-0.063,0-0.114-0.036-0.114-0.081l0,0
	c0-0.045,0.051-0.081,0.114-0.081h0.297C15.352,3.87,15.404,3.907,15.404,3.951L15.404,3.951z"/>
<path fill="#C45FA4" d="M15.943,3.951c0,0.045-0.051,0.081-0.114,0.081h-0.297c-0.063,0-0.114-0.036-0.114-0.081l0,0
	c0-0.045,0.051-0.081,0.114-0.081h0.297C15.892,3.87,15.943,3.907,15.943,3.951L15.943,3.951z"/>
<path fill="#C980B6" d="M15.406,3.466c0,0.045-0.037,0.081-0.083,0.081h-0.215c-0.046,0-0.083-0.036-0.083-0.081l0,0
	c0-0.045,0.037-0.081,0.083-0.081h0.215C15.369,3.385,15.406,3.421,15.406,3.466L15.406,3.466z"/>
<path fill="#C45FA4" d="M15.796,3.466c0,0.045-0.037,0.081-0.083,0.081h-0.215c-0.046,0-0.083-0.036-0.083-0.081l0,0
	c0-0.045,0.037-0.081,0.083-0.081h0.215C15.759,3.385,15.796,3.421,15.796,3.466L15.796,3.466z"/>
<path fill="#C980B6" d="M15.406,3.789c0,0.045-0.037,0.081-0.083,0.081h-0.215c-0.046,0-0.083-0.036-0.083-0.081l0,0
	c0-0.045,0.037-0.081,0.083-0.081h0.215C15.369,3.709,15.406,3.745,15.406,3.789L15.406,3.789z"/>
<path fill="#C45FA4" d="M15.796,3.789c0,0.045-0.037,0.081-0.083,0.081h-0.215c-0.046,0-0.083-0.036-0.083-0.081l0,0
	c0-0.045,0.037-0.081,0.083-0.081h0.215C15.759,3.709,15.796,3.745,15.796,3.789L15.796,3.789z"/>
<path fill="#C980B6" d="M15.404,4.437c0,0.045-0.051,0.081-0.114,0.081h-0.297c-0.063,0-0.114-0.036-0.114-0.081l0,0
	c0-0.045,0.051-0.081,0.114-0.081h0.297C15.352,4.356,15.404,4.392,15.404,4.437L15.404,4.437z"/>
<path fill="#C45FA4" d="M15.943,4.437c0,0.045-0.051,0.081-0.114,0.081h-0.297c-0.063,0-0.114-0.036-0.114-0.081l0,0
	c0-0.045,0.051-0.081,0.114-0.081h0.297C15.892,4.356,15.943,4.392,15.943,4.437L15.943,4.437z"/>
<path fill="#C980B6" d="M15.404,4.761c0,0.045-0.051,0.081-0.114,0.081h-0.297c-0.063,0-0.114-0.036-0.114-0.081l0,0
	c0-0.045,0.051-0.081,0.114-0.081h0.297C15.352,4.68,15.404,4.716,15.404,4.761L15.404,4.761z"/>
<path fill="#C45FA4" d="M15.943,4.761c0,0.045-0.051,0.081-0.114,0.081h-0.297c-0.063,0-0.114-0.036-0.114-0.081l0,0
	c0-0.045,0.051-0.081,0.114-0.081h0.297C15.892,4.68,15.943,4.716,15.943,4.761L15.943,4.761z"/>
<path fill="#C980B6" d="M15.406,4.275c0,0.045-0.037,0.081-0.083,0.081h-0.215c-0.046,0-0.083-0.036-0.083-0.081l0,0
	c0-0.045,0.037-0.081,0.083-0.081h0.215C15.369,4.194,15.406,4.23,15.406,4.275L15.406,4.275z"/>
<path fill="#C45FA4" d="M15.796,4.275c0,0.045-0.037,0.081-0.083,0.081h-0.215c-0.046,0-0.083-0.036-0.083-0.081l0,0
	c0-0.045,0.037-0.081,0.083-0.081h0.215C15.759,4.194,15.796,4.23,15.796,4.275L15.796,4.275z"/>
<path fill="#C980B6" d="M15.406,4.599c0,0.045-0.037,0.081-0.083,0.081h-0.215c-0.046,0-0.083-0.036-0.083-0.081l0,0
	c0-0.045,0.037-0.081,0.083-0.081h0.215C15.369,4.518,15.406,4.554,15.406,4.599L15.406,4.599z"/>
<path fill="#C45FA4" d="M15.796,4.599c0,0.045-0.037,0.081-0.083,0.081h-0.215c-0.046,0-0.083-0.036-0.083-0.081l0,0
	c0-0.045,0.037-0.081,0.083-0.081h0.215C15.759,4.518,15.796,4.554,15.796,4.599L15.796,4.599z"/>
<path fill="#C980B6" d="M15.406,4.922c0,0.045-0.037,0.081-0.083,0.081h-0.215c-0.046,0-0.083-0.036-0.083-0.081l0,0
	c0-0.045,0.037-0.081,0.083-0.081h0.215C15.369,4.841,15.406,4.878,15.406,4.922L15.406,4.922z"/>
<path fill="#C45FA4" d="M15.796,4.922c0,0.045-0.037,0.081-0.083,0.081h-0.215c-0.046,0-0.083-0.036-0.083-0.081l0,0
	c0-0.045,0.037-0.081,0.083-0.081h0.215C15.759,4.841,15.796,4.878,15.796,4.922L15.796,4.922z"/>
<path fill="#C980B6" d="M15.406,4.113c0,0.045-0.037,0.081-0.083,0.081h-0.215c-0.046,0-0.083-0.036-0.083-0.081l0,0
	c0-0.045,0.037-0.081,0.083-0.081h0.215C15.369,4.032,15.406,4.068,15.406,4.113L15.406,4.113z"/>
<path fill="#C45FA4" d="M15.796,4.113c0,0.045-0.037,0.081-0.083,0.081h-0.215c-0.046,0-0.083-0.036-0.083-0.081l0,0
	c0-0.045,0.037-0.081,0.083-0.081h0.215C15.759,4.032,15.796,4.068,15.796,4.113L15.796,4.113z"/>
<polygon fill="#8CC541" points="15.406,9.96 15.323,9.96 15.323,5.003 15.406,4.922 "/>
<polygon fill="#3BB34A" points="15.486,9.96 15.404,9.96 15.404,4.922 15.486,5.003 "/>
<path fill="#C980B6" d="M12.329,2.734c0.012,0.043-0.028,0.092-0.089,0.108l-0.286,0.079c-0.061,0.017-0.12-0.004-0.132-0.048l0,0
	c-0.012-0.043,0.028-0.092,0.089-0.108l0.286-0.079C12.258,2.669,12.317,2.691,12.329,2.734L12.329,2.734z"/>
<path fill="#C45FA4" d="M12.848,2.59c0.012,0.043-0.028,0.092-0.089,0.108l-0.286,0.079c-0.061,0.017-0.12-0.004-0.132-0.048l0,0
	c-0.012-0.043,0.028-0.092,0.089-0.108l0.286-0.079C12.777,2.526,12.836,2.547,12.848,2.59L12.848,2.59z"/>
<path fill="#C980B6" d="M12.415,3.046c0.012,0.043-0.028,0.092-0.089,0.108L12.04,3.233c-0.061,0.017-0.12-0.004-0.132-0.048l0,0
	c-0.012-0.043,0.028-0.092,0.089-0.108l0.286-0.079C12.344,2.981,12.403,3.003,12.415,3.046L12.415,3.046z"/>
<path fill="#C45FA4" d="M12.935,2.902c0.012,0.043-0.028,0.092-0.089,0.108L12.559,3.09c-0.061,0.017-0.12-0.004-0.132-0.048l0,0
	c-0.012-0.043,0.028-0.092,0.089-0.108l0.286-0.079C12.864,2.838,12.923,2.859,12.935,2.902L12.935,2.902z"/>
<path fill="#C980B6" d="M12.287,2.577c0.012,0.043-0.014,0.088-0.058,0.1l-0.207,0.057c-0.044,0.012-0.089-0.013-0.101-0.056l0,0
	c-0.012-0.043,0.014-0.088,0.058-0.1l0.207-0.057C12.23,2.509,12.275,2.534,12.287,2.577L12.287,2.577z"/>
<path fill="#C45FA4" d="M12.663,2.473c0.012,0.043-0.014,0.088-0.058,0.1l-0.207,0.057c-0.044,0.012-0.089-0.013-0.101-0.056l0,0
	c-0.012-0.043,0.014-0.088,0.058-0.1l0.207-0.057C12.606,2.405,12.651,2.43,12.663,2.473L12.663,2.473z"/>
<path fill="#C980B6" d="M12.373,2.889c0.012,0.043-0.014,0.088-0.058,0.1l-0.207,0.057c-0.044,0.012-0.089-0.013-0.101-0.056l0,0
	c-0.012-0.043,0.014-0.088,0.058-0.1l0.207-0.057C12.316,2.821,12.362,2.846,12.373,2.889L12.373,2.889z"/>
<path fill="#C45FA4" d="M12.749,2.785c0.012,0.043-0.014,0.088-0.058,0.1l-0.207,0.057c-0.044,0.012-0.089-0.013-0.101-0.056l0,0
	c-0.012-0.043,0.014-0.088,0.058-0.1l0.207-0.057C12.692,2.717,12.738,2.742,12.749,2.785L12.749,2.785z"/>
<path fill="#C980B6" d="M12.544,3.514c0.012,0.043-0.028,0.092-0.089,0.108l-0.286,0.079c-0.061,0.017-0.12-0.004-0.132-0.048l0,0
	c-0.012-0.043,0.028-0.092,0.089-0.108l0.286-0.079C12.473,3.449,12.532,3.471,12.544,3.514L12.544,3.514z"/>
<path fill="#C45FA4" d="M13.064,3.37c0.012,0.043-0.028,0.092-0.089,0.108l-0.286,0.079c-0.061,0.017-0.12-0.004-0.132-0.048l0,0
	c-0.012-0.043,0.028-0.092,0.089-0.108l0.286-0.079C12.993,3.306,13.052,3.327,13.064,3.37L13.064,3.37z"/>
<path fill="#C980B6" d="M12.63,3.826c0.012,0.043-0.028,0.092-0.089,0.108l-0.286,0.079c-0.061,0.017-0.12-0.004-0.132-0.048l0,0
	c-0.012-0.043,0.028-0.092,0.089-0.108l0.286-0.079C12.559,3.761,12.618,3.783,12.63,3.826L12.63,3.826z"/>
<path fill="#C45FA4" d="M13.15,3.682c0.012,0.043-0.028,0.092-0.089,0.108L12.775,3.87c-0.061,0.017-0.12-0.004-0.132-0.048l0,0
	c-0.012-0.043,0.028-0.092,0.089-0.108l0.286-0.079C13.079,3.618,13.138,3.639,13.15,3.682L13.15,3.682z"/>
<path fill="#C980B6" d="M12.503,3.357c0.012,0.043-0.014,0.088-0.058,0.1l-0.207,0.057c-0.044,0.012-0.089-0.013-0.101-0.056l0,0
	c-0.012-0.043,0.014-0.088,0.058-0.1l0.207-0.057C12.445,3.289,12.491,3.314,12.503,3.357L12.503,3.357z"/>
<path fill="#C45FA4" d="M12.879,3.253c0.012,0.043-0.014,0.088-0.058,0.1l-0.207,0.057c-0.044,0.012-0.089-0.013-0.101-0.056l0,0
	c-0.012-0.043,0.014-0.088,0.058-0.1l0.207-0.057C12.821,3.185,12.867,3.21,12.879,3.253L12.879,3.253z"/>
<path fill="#C980B6" d="M12.589,3.669c0.012,0.043-0.014,0.088-0.058,0.1l-0.207,0.057c-0.044,0.012-0.089-0.013-0.101-0.056l0,0
	c-0.012-0.043,0.014-0.088,0.058-0.1l0.207-0.057C12.532,3.601,12.577,3.626,12.589,3.669L12.589,3.669z"/>
<path fill="#C45FA4" d="M12.965,3.565c0.012,0.043-0.014,0.088-0.058,0.1L12.7,3.723c-0.044,0.012-0.089-0.013-0.101-0.056l0,0
	c-0.012-0.043,0.014-0.088,0.058-0.1l0.207-0.057C12.908,3.497,12.953,3.522,12.965,3.565L12.965,3.565z"/>
<path fill="#C980B6" d="M12.675,3.981c0.012,0.043-0.014,0.088-0.058,0.1L12.41,4.138c-0.044,0.012-0.089-0.013-0.101-0.056l0,0
	c-0.012-0.043,0.014-0.088,0.058-0.1l0.207-0.057C12.618,3.913,12.663,3.938,12.675,3.981L12.675,3.981z"/>
<path fill="#C45FA4" d="M13.051,3.877c0.012,0.043-0.014,0.088-0.058,0.1l-0.207,0.057c-0.044,0.012-0.089-0.013-0.101-0.056l0,0
	c-0.012-0.043,0.014-0.088,0.058-0.1l0.207-0.057C12.994,3.809,13.039,3.834,13.051,3.877L13.051,3.877z"/>
<path fill="#C980B6" d="M12.46,3.201c0.012,0.043-0.014,0.088-0.058,0.1l-0.207,0.057c-0.044,0.012-0.089-0.013-0.101-0.056l0,0
	c-0.012-0.043,0.014-0.088,0.058-0.1l0.207-0.057C12.402,3.133,12.448,3.158,12.46,3.201L12.46,3.201z"/>
<path fill="#C45FA4" d="M12.836,3.097c0.012,0.043-0.014,0.088-0.058,0.1L12.57,3.255c-0.044,0.012-0.089-0.013-0.101-0.056l0,0
	c-0.012-0.043,0.014-0.088,0.058-0.1l0.207-0.057C12.778,3.029,12.824,3.054,12.836,3.097L12.836,3.097z"/>
<polygon fill="#8CC541" points="14.017,8.836 13.937,8.858 12.617,4.081 12.675,3.981 "/>
<polygon fill="#3BB34A" points="14.095,8.815 14.015,8.837 12.673,3.982 12.775,4.038 "/>
<path fill="#C980B6" d="M14.353,1.202c0,0.056-0.064,0.101-0.143,0.101h-0.371c-0.079,0-0.143-0.045-0.143-0.101l0,0
	c0-0.056,0.064-0.101,0.143-0.101h0.371C14.289,1.101,14.353,1.146,14.353,1.202L14.353,1.202z"/>
<path fill="#C45FA4" d="M15.026,1.202c0,0.056-0.064,0.101-0.143,0.101h-0.371c-0.079,0-0.143-0.045-0.143-0.101l0,0
	c0-0.056,0.064-0.101,0.143-0.101h0.371C14.962,1.101,15.026,1.146,15.026,1.202L15.026,1.202z"/>
<path fill="#C980B6" d="M14.353,1.606c0,0.056-0.064,0.101-0.143,0.101h-0.371c-0.079,0-0.143-0.045-0.143-0.101l0,0
	c0-0.056,0.064-0.101,0.143-0.101h0.371C14.289,1.505,14.353,1.55,14.353,1.606L14.353,1.606z"/>
<path fill="#C45FA4" d="M15.026,1.606c0,0.056-0.064,0.101-0.143,0.101h-0.371c-0.079,0-0.143-0.045-0.143-0.101l0,0
	c0-0.056,0.064-0.101,0.143-0.101h0.371C14.962,1.505,15.026,1.55,15.026,1.606L15.026,1.606z"/>
<path fill="#C980B6" d="M14.355,0.999c0,0.056-0.046,0.101-0.103,0.101h-0.268c-0.057,0-0.103-0.045-0.103-0.101l0,0
	c0-0.056,0.046-0.101,0.103-0.101h0.268C14.309,0.898,14.355,0.944,14.355,0.999L14.355,0.999z"/>
<path fill="#C45FA4" d="M14.842,0.999c0,0.056-0.046,0.101-0.103,0.101h-0.268c-0.057,0-0.103-0.045-0.103-0.101l0,0
	c0-0.056,0.046-0.101,0.103-0.101h0.268C14.796,0.898,14.842,0.944,14.842,0.999L14.842,0.999z"/>
<path fill="#C980B6" d="M14.355,1.404c0,0.056-0.046,0.101-0.103,0.101h-0.268c-0.057,0-0.103-0.045-0.103-0.101l0,0
	c0-0.056,0.046-0.101,0.103-0.101h0.268C14.309,1.303,14.355,1.348,14.355,1.404L14.355,1.404z"/>
<path fill="#C45FA4" d="M14.842,1.404c0,0.056-0.046,0.101-0.103,0.101h-0.268c-0.057,0-0.103-0.045-0.103-0.101l0,0
	c0-0.056,0.046-0.101,0.103-0.101h0.268C14.796,1.303,14.842,1.348,14.842,1.404L14.842,1.404z"/>
<path fill="#C980B6" d="M14.353,2.212c0,0.056-0.064,0.101-0.143,0.101h-0.371c-0.079,0-0.143-0.045-0.143-0.101l0,0
	c0-0.056,0.064-0.101,0.143-0.101h0.371C14.289,2.111,14.353,2.156,14.353,2.212L14.353,2.212z"/>
<path fill="#C45FA4" d="M15.026,2.212c0,0.056-0.064,0.101-0.143,0.101h-0.371c-0.079,0-0.143-0.045-0.143-0.101l0,0
	c0-0.056,0.064-0.101,0.143-0.101h0.371C14.962,2.111,15.026,2.156,15.026,2.212L15.026,2.212z"/>
<path fill="#C980B6" d="M14.353,2.616c0,0.056-0.064,0.101-0.143,0.101h-0.371c-0.079,0-0.143-0.045-0.143-0.101l0,0
	c0-0.056,0.064-0.101,0.143-0.101h0.371C14.289,2.515,14.353,2.56,14.353,2.616L14.353,2.616z"/>
<path fill="#C45FA4" d="M15.026,2.616c0,0.056-0.064,0.101-0.143,0.101h-0.371c-0.079,0-0.143-0.045-0.143-0.101l0,0
	c0-0.056,0.064-0.101,0.143-0.101h0.371C14.962,2.515,15.026,2.56,15.026,2.616L15.026,2.616z"/>
<path fill="#C980B6" d="M14.355,2.01c0,0.056-0.046,0.101-0.103,0.101h-0.268c-0.057,0-0.103-0.045-0.103-0.101l0,0
	c0-0.056,0.046-0.101,0.103-0.101h0.268C14.309,1.909,14.355,1.954,14.355,2.01L14.355,2.01z"/>
<path fill="#C45FA4" d="M14.842,2.01c0,0.056-0.046,0.101-0.103,0.101h-0.268c-0.057,0-0.103-0.045-0.103-0.101l0,0
	c0-0.056,0.046-0.101,0.103-0.101h0.268C14.796,1.909,14.842,1.954,14.842,2.01L14.842,2.01z"/>
<path fill="#C980B6" d="M14.355,2.414c0,0.056-0.046,0.101-0.103,0.101h-0.268c-0.057,0-0.103-0.045-0.103-0.101l0,0
	c0-0.056,0.046-0.101,0.103-0.101h0.268C14.309,2.313,14.355,2.358,14.355,2.414L14.355,2.414z"/>
<path fill="#C45FA4" d="M14.842,2.414c0,0.056-0.046,0.101-0.103,0.101h-0.268c-0.057,0-0.103-0.045-0.103-0.101l0,0
	c0-0.056,0.046-0.101,0.103-0.101h0.268C14.796,2.313,14.842,2.358,14.842,2.414L14.842,2.414z"/>
<path fill="#C980B6" d="M14.355,2.818c0,0.056-0.046,0.101-0.103,0.101h-0.268c-0.057,0-0.103-0.045-0.103-0.101l0,0
	c0-0.056,0.046-0.101,0.103-0.101h0.268C14.309,2.717,14.355,2.763,14.355,2.818L14.355,2.818z"/>
<path fill="#C45FA4" d="M14.842,2.818c0,0.056-0.046,0.101-0.103,0.101h-0.268c-0.057,0-0.103-0.045-0.103-0.101l0,0
	c0-0.056,0.046-0.101,0.103-0.101h0.268C14.796,2.717,14.842,2.763,14.842,2.818L14.842,2.818z"/>
<path fill="#C980B6" d="M14.355,1.808c0,0.056-0.046,0.101-0.103,0.101h-0.268c-0.057,0-0.103-0.045-0.103-0.101l0,0
	c0-0.056,0.046-0.101,0.103-0.101h0.268C14.309,1.707,14.355,1.752,14.355,1.808L14.355,1.808z"/>
<path fill="#C45FA4" d="M14.842,1.808c0,0.056-0.046,0.101-0.103,0.101h-0.268c-0.057,0-0.103-0.045-0.103-0.101l0,0
	c0-0.056,0.046-0.101,0.103-0.101h0.268C14.796,1.707,14.842,1.752,14.842,1.808L14.842,1.808z"/>
<polygon fill="#8CC541" points="14.355,9.108 14.252,9.108 14.252,2.919 14.355,2.818 "/>
<polygon fill="#3BB34A" points="14.456,9.108 14.353,9.108 14.353,2.818 14.456,2.919 "/>
<path fill="#8CC541" d="M21.568,3.418l0.575,1.509c0.039,0.102,0.051,0.211,0.037,0.321l-0.068,0.528
	c-0.003,0.024-0.021,0.042-0.042,0.05c-0.022,0.008-0.048,0.006-0.066-0.01l-0.407-0.355c-0.086-0.075-0.151-0.167-0.19-0.27
	l-0.573-1.505c-0.038-0.099-0.051-0.205-0.038-0.312l0.064-0.561c0.003-0.025,0.021-0.043,0.044-0.051
	c0.022-0.008,0.048-0.006,0.066,0.011l0.422,0.387C21.471,3.232,21.531,3.32,21.568,3.418z"/>
<path fill="#3BB34A" d="M21.568,3.418l0.575,1.509c0.039,0.102,0.051,0.211,0.037,0.321l-0.068,0.528
	c-0.003,0.024-0.021,0.042-0.042,0.05l-1.167-3.064c0.022-0.008,0.048-0.006,0.066,0.011l0.422,0.387
	C21.471,3.232,21.531,3.32,21.568,3.418z"/>
<path fill="#8CC541" d="M21.139,6.314l0.575,1.509c0.039,0.102,0.051,0.211,0.037,0.321l-0.068,0.528
	c-0.003,0.024-0.021,0.042-0.042,0.05c-0.022,0.008-0.048,0.006-0.066-0.01l-0.407-0.355c-0.086-0.075-0.151-0.167-0.19-0.27
	l-0.573-1.505c-0.038-0.099-0.051-0.205-0.038-0.312l0.064-0.561c0.003-0.025,0.021-0.043,0.044-0.051
	c0.022-0.008,0.048-0.006,0.066,0.011l0.422,0.387C21.042,6.129,21.102,6.216,21.139,6.314z"/>
<path fill="#3BB34A" d="M21.139,6.314l0.575,1.509c0.039,0.102,0.051,0.211,0.037,0.321l-0.068,0.528
	c-0.003,0.024-0.021,0.042-0.042,0.05l-1.167-3.064c0.022-0.008,0.048-0.006,0.066,0.011l0.422,0.387
	C21.042,6.129,21.102,6.216,21.139,6.314z"/>
<path fill="#8CC541" d="M23.019,7.575l0.575,1.509c0.039,0.102,0.051,0.211,0.037,0.321l-0.068,0.528
	c-0.003,0.024-0.021,0.042-0.042,0.05c-0.022,0.008-0.048,0.006-0.066-0.01l-0.407-0.355c-0.086-0.075-0.151-0.167-0.19-0.27
	l-0.573-1.505c-0.038-0.099-0.051-0.205-0.038-0.312l0.064-0.561c0.003-0.025,0.021-0.043,0.044-0.051
	c0.022-0.008,0.048-0.006,0.066,0.011l0.422,0.387C22.921,7.389,22.981,7.477,23.019,7.575z"/>
<path fill="#3BB34A" d="M23.019,7.575l0.575,1.509c0.039,0.102,0.051,0.211,0.037,0.321l-0.068,0.528
	c-0.003,0.024-0.021,0.042-0.042,0.05l-1.167-3.064c0.022-0.008,0.048-0.006,0.066,0.011l0.422,0.387
	C22.921,7.389,22.981,7.477,23.019,7.575z"/>
<path fill="#8CC541" d="M22.355,9.051l0.575,1.509c0.039,0.102,0.051,0.211,0.037,0.321L22.9,11.409
	c-0.003,0.024-0.021,0.042-0.042,0.05c-0.022,0.008-0.048,0.006-0.066-0.01l-0.407-0.355c-0.086-0.075-0.151-0.167-0.19-0.27
	L21.62,9.318c-0.038-0.099-0.051-0.205-0.038-0.312l0.064-0.561c0.003-0.025,0.021-0.043,0.044-0.051
	c0.022-0.008,0.048-0.006,0.066,0.011l0.422,0.387C22.258,8.865,22.318,8.953,22.355,9.051z"/>
<path fill="#3BB34A" d="M22.355,9.051l0.575,1.509c0.039,0.102,0.051,0.211,0.037,0.321L22.9,11.409
	c-0.003,0.024-0.021,0.042-0.042,0.05L21.69,8.394c0.022-0.008,0.048-0.006,0.066,0.011l0.422,0.387
	C22.258,8.865,22.318,8.953,22.355,9.051z"/>
<path fill="#8CC541" d="M23.907,4.32l0.575,1.509c0.039,0.102,0.051,0.211,0.037,0.321l-0.068,0.528
	c-0.003,0.024-0.021,0.042-0.042,0.05c-0.022,0.008-0.048,0.006-0.066-0.01l-0.407-0.355c-0.086-0.075-0.151-0.167-0.19-0.27
	l-0.573-1.505c-0.038-0.099-0.051-0.205-0.038-0.312l0.064-0.561c0.003-0.025,0.021-0.043,0.044-0.051
	c0.022-0.008,0.048-0.006,0.066,0.011l0.422,0.387C23.81,4.134,23.87,4.222,23.907,4.32z"/>
<path fill="#3BB34A" d="M23.907,4.32l0.575,1.509c0.039,0.102,0.051,0.211,0.037,0.321l-0.068,0.528
	c-0.003,0.024-0.021,0.042-0.042,0.05l-1.167-3.064c0.022-0.008,0.048-0.006,0.066,0.011l0.422,0.387
	C23.81,4.134,23.87,4.222,23.907,4.32z"/>
<path fill="#8CC541" d="M22.822,0.886L22.595,2.48c-0.015,0.107-0.057,0.21-0.123,0.3l-0.317,0.434
	c-0.015,0.02-0.039,0.027-0.062,0.024c-0.023-0.003-0.045-0.017-0.053-0.04l-0.186-0.5c-0.039-0.106-0.052-0.217-0.036-0.325
	l0.227-1.59c0.015-0.105,0.055-0.204,0.118-0.292l0.33-0.465c0.015-0.02,0.04-0.028,0.063-0.025
	c0.023,0.003,0.045,0.017,0.053,0.041l0.184,0.535C22.827,0.677,22.837,0.782,22.822,0.886z"/>
<path fill="#3BB34A" d="M22.822,0.886L22.595,2.48c-0.015,0.107-0.057,0.21-0.123,0.3l-0.317,0.434
	c-0.015,0.02-0.039,0.027-0.062,0.024l0.461-3.237c0.023,0.003,0.045,0.017,0.053,0.041l0.184,0.535
	C22.827,0.677,22.837,0.782,22.822,0.886z"/>
<path fill="#8CC541" d="M20.399,7.302l0.826,1.394c0.056,0.094,0.087,0.2,0.092,0.311l0.024,0.531
	c0.001,0.024-0.013,0.045-0.033,0.056c-0.02,0.011-0.046,0.014-0.067,0.001l-0.462-0.284c-0.098-0.06-0.177-0.14-0.234-0.235
	L19.72,7.686c-0.054-0.091-0.085-0.194-0.091-0.301l-0.033-0.564c-0.001-0.025,0.013-0.046,0.034-0.057
	c0.02-0.011,0.046-0.013,0.067,0l0.483,0.312C20.271,7.135,20.345,7.212,20.399,7.302z"/>
<path fill="#3BB34A" d="M20.399,7.302l0.826,1.394c0.056,0.094,0.087,0.2,0.092,0.311l0.024,0.531
	c0.001,0.024-0.013,0.045-0.033,0.056L19.63,6.764c0.02-0.011,0.046-0.013,0.067,0l0.483,0.312
	C20.271,7.135,20.345,7.212,20.399,7.302z"/>
<path fill="#8CC541" d="M20.666,3.725l0.826,1.394c0.056,0.094,0.087,0.2,0.092,0.311l0.024,0.531
	c0.001,0.024-0.013,0.045-0.033,0.056c-0.02,0.011-0.046,0.014-0.067,0.001l-0.462-0.284c-0.098-0.06-0.177-0.14-0.234-0.235
	l-0.824-1.391c-0.054-0.091-0.085-0.194-0.091-0.301l-0.033-0.564c-0.001-0.025,0.013-0.046,0.034-0.057
	c0.02-0.011,0.046-0.013,0.067,0l0.483,0.312C20.538,3.558,20.613,3.635,20.666,3.725z"/>
<path fill="#3BB34A" d="M20.666,3.725l0.826,1.394c0.056,0.094,0.087,0.2,0.092,0.311l0.024,0.531
	c0.001,0.024-0.013,0.045-0.033,0.056l-1.677-2.831c0.02-0.011,0.046-0.013,0.067,0l0.483,0.312
	C20.538,3.558,20.613,3.635,20.666,3.725z"/>
<path fill="#8CC541" d="M20.86,9.463l0.826,1.394c0.056,0.094,0.087,0.2,0.092,0.311l0.024,0.531
	c0.001,0.024-0.013,0.045-0.033,0.056c-0.02,0.011-0.046,0.014-0.067,0.001l-0.462-0.284c-0.098-0.06-0.177-0.14-0.234-0.235
	l-0.824-1.391c-0.054-0.091-0.085-0.194-0.091-0.301l-0.033-0.564c-0.001-0.025,0.013-0.046,0.034-0.057
	c0.02-0.011,0.046-0.013,0.067,0l0.483,0.312C20.733,9.296,20.807,9.373,20.86,9.463z"/>
<path fill="#3BB34A" d="M20.86,9.463l0.826,1.394c0.056,0.094,0.087,0.2,0.092,0.311l0.024,0.531
	c0.001,0.024-0.013,0.045-0.033,0.056l-1.677-2.831c0.02-0.011,0.046-0.013,0.067,0l0.483,0.312
	C20.733,9.296,20.807,9.373,20.86,9.463z"/>
<path fill="#8CC541" d="M23.36,3.991l-0.227,1.594c-0.015,0.107-0.057,0.21-0.123,0.3L22.693,6.32
	c-0.015,0.02-0.039,0.027-0.062,0.024c-0.023-0.003-0.045-0.017-0.053-0.04l-0.186-0.5c-0.039-0.106-0.052-0.217-0.036-0.325
	l0.227-1.59c0.015-0.105,0.055-0.204,0.118-0.292l0.33-0.465c0.015-0.02,0.04-0.028,0.063-0.025
	c0.023,0.003,0.045,0.017,0.053,0.041l0.184,0.535C23.365,3.783,23.375,3.888,23.36,3.991z"/>
<path fill="#3BB34A" d="M23.36,3.991l-0.227,1.594c-0.015,0.107-0.057,0.21-0.123,0.3L22.693,6.32
	c-0.015,0.02-0.039,0.027-0.062,0.024l0.461-3.237c0.023,0.003,0.045,0.017,0.053,0.041l0.184,0.535
	C23.365,3.783,23.375,3.888,23.36,3.991z"/>
<path fill="#8CC541" d="M22.604,5.949l-0.227,1.594c-0.015,0.107-0.057,0.21-0.123,0.3l-0.317,0.434
	c-0.015,0.02-0.039,0.027-0.062,0.024c-0.023-0.003-0.045-0.017-0.053-0.04l-0.186-0.5c-0.039-0.106-0.052-0.217-0.036-0.325
	l0.227-1.59c0.015-0.105,0.055-0.204,0.118-0.292l0.33-0.465c0.015-0.02,0.04-0.028,0.063-0.025
	c0.023,0.003,0.045,0.017,0.053,0.041l0.184,0.535C22.609,5.741,22.619,5.846,22.604,5.949z"/>
<path fill="#3BB34A" d="M22.604,5.949l-0.227,1.594c-0.015,0.107-0.057,0.21-0.123,0.3l-0.317,0.434
	c-0.015,0.02-0.039,0.027-0.062,0.024l0.461-3.237c0.023,0.003,0.045,0.017,0.053,0.041l0.184,0.535
	C22.609,5.741,22.619,5.846,22.604,5.949z"/>
<path fill="#8CC541" d="M24.258,6.014l-0.227,1.594c-0.015,0.107-0.057,0.21-0.123,0.3l-0.317,0.434
	c-0.015,0.02-0.039,0.027-0.062,0.024c-0.023-0.003-0.045-0.017-0.053-0.04l-0.186-0.5c-0.039-0.106-0.052-0.217-0.036-0.325
	l0.227-1.59c0.015-0.105,0.055-0.204,0.118-0.292l0.33-0.465c0.015-0.02,0.04-0.028,0.063-0.025
	c0.023,0.003,0.045,0.017,0.053,0.041l0.184,0.535C24.262,5.806,24.273,5.911,24.258,6.014z"/>
<path fill="#3BB34A" d="M24.258,6.014l-0.227,1.594c-0.015,0.107-0.057,0.21-0.123,0.3l-0.317,0.434
	c-0.015,0.02-0.039,0.027-0.062,0.024l0.461-3.237c0.023,0.003,0.045,0.017,0.053,0.041l0.184,0.535
	C24.262,5.806,24.273,5.911,24.258,6.014z"/>
<path fill="#8CC541" d="M21.499,10.044l-0.227,1.594c-0.015,0.107-0.057,0.21-0.123,0.3l-0.317,0.434
	c-0.015,0.02-0.039,0.027-0.062,0.024c-0.023-0.003-0.045-0.017-0.053-0.04l-0.186-0.5c-0.039-0.106-0.052-0.217-0.036-0.325
	l0.227-1.59c0.015-0.105,0.055-0.204,0.118-0.292l0.33-0.465c0.015-0.02,0.04-0.028,0.063-0.025
	c0.023,0.003,0.045,0.017,0.053,0.041l0.184,0.535C21.504,9.835,21.514,9.94,21.499,10.044z"/>
<path fill="#3BB34A" d="M21.499,10.044l-0.227,1.594c-0.015,0.107-0.057,0.21-0.123,0.3l-0.317,0.434
	c-0.015,0.02-0.039,0.027-0.062,0.024l0.461-3.237c0.023,0.003,0.045,0.017,0.053,0.041l0.184,0.535
	C21.504,9.835,21.514,9.94,21.499,10.044z"/>
<path fill="#8CC541" d="M23.261,10.496l-0.227,1.594c-0.015,0.107-0.057,0.21-0.123,0.3l-0.317,0.434
	c-0.015,0.02-0.039,0.027-0.062,0.024c-0.023-0.003-0.045-0.017-0.053-0.04l-0.186-0.5c-0.039-0.106-0.052-0.217-0.036-0.325
	l0.227-1.59c0.015-0.105,0.055-0.204,0.118-0.292l0.33-0.465c0.015-0.02,0.04-0.028,0.063-0.025
	c0.023,0.003,0.045,0.017,0.053,0.041l0.184,0.535C23.265,10.288,23.276,10.393,23.261,10.496z"/>
<path fill="#3BB34A" d="M23.261,10.496l-0.227,1.594c-0.015,0.107-0.057,0.21-0.123,0.3l-0.317,0.434
	c-0.015,0.02-0.039,0.027-0.062,0.024l0.461-3.237c0.023,0.003,0.045,0.017,0.053,0.041l0.184,0.535
	C23.265,10.288,23.276,10.393,23.261,10.496z"/>
<path fill="#8CC541" d="M24.518,9.909l-0.844,1.384c-0.057,0.093-0.136,0.172-0.233,0.23l-0.464,0.28
	c-0.021,0.013-0.047,0.011-0.067-0.001c-0.02-0.012-0.035-0.032-0.033-0.057l0.027-0.531c0.006-0.112,0.039-0.219,0.096-0.313
	l0.842-1.381c0.055-0.091,0.132-0.167,0.225-0.225l0.489-0.304c0.022-0.013,0.048-0.011,0.068,0.001
	c0.02,0.012,0.035,0.033,0.033,0.057l-0.043,0.563C24.605,9.719,24.572,9.82,24.518,9.909z"/>
<path fill="#3BB34A" d="M24.518,9.909l-0.844,1.384c-0.057,0.093-0.136,0.172-0.233,0.23l-0.464,0.28
	c-0.021,0.013-0.047,0.011-0.067-0.001l1.713-2.811c0.02,0.012,0.035,0.033,0.033,0.057l-0.043,0.563
	C24.605,9.719,24.572,9.82,24.518,9.909z"/>
<path fill="#8CC541" d="M21.587,2.667l0.526,0.38c0.035,0.026,0.058,0.067,0.066,0.122l0.039,0.262
	c0.002,0.012-0.005,0.028-0.016,0.042c-0.011,0.014-0.025,0.025-0.037,0.027l-0.27,0.041c-0.057,0.009-0.105,0-0.141-0.026
	L21.23,3.137c-0.034-0.025-0.057-0.065-0.066-0.117l-0.046-0.275c-0.002-0.012,0.005-0.029,0.016-0.043
	c0.011-0.014,0.025-0.025,0.037-0.027l0.283-0.035C21.508,2.633,21.553,2.643,21.587,2.667z"/>
<path fill="#3BB34A" d="M21.587,2.667l0.526,0.38c0.035,0.026,0.058,0.067,0.066,0.122l0.039,0.262
	c0.002,0.012-0.005,0.028-0.016,0.042l-1.069-0.772c0.011-0.014,0.025-0.025,0.037-0.027l0.283-0.035
	C21.508,2.633,21.553,2.643,21.587,2.667z"/>
<path fill="#8CC541" d="M20.603,5.085l0.526,0.38c0.035,0.026,0.058,0.067,0.066,0.122l0.039,0.262
	c0.002,0.012-0.005,0.028-0.016,0.042c-0.011,0.014-0.025,0.025-0.037,0.027l-0.27,0.041c-0.057,0.009-0.105,0-0.141-0.026
	l-0.525-0.379c-0.034-0.025-0.057-0.065-0.066-0.117l-0.046-0.275c-0.002-0.012,0.005-0.029,0.016-0.043
	c0.011-0.014,0.025-0.025,0.037-0.027l0.283-0.035C20.524,5.051,20.569,5.06,20.603,5.085z"/>
<path fill="#3BB34A" d="M20.603,5.085l0.526,0.38c0.035,0.026,0.058,0.067,0.066,0.122l0.039,0.262
	c0.002,0.012-0.005,0.028-0.016,0.042l-1.069-0.772c0.011-0.014,0.025-0.025,0.037-0.027l0.283-0.035
	C20.524,5.051,20.569,5.06,20.603,5.085z"/>
<path fill="#8CC541" d="M20.038,6.267l0.526,0.38c0.035,0.026,0.058,0.067,0.066,0.122l0.039,0.262
	c0.002,0.012-0.005,0.028-0.016,0.042c-0.011,0.014-0.025,0.025-0.037,0.027l-0.27,0.041c-0.057,0.009-0.105,0-0.141-0.026
	l-0.525-0.379c-0.034-0.025-0.057-0.065-0.066-0.117l-0.046-0.275c-0.002-0.012,0.005-0.029,0.016-0.043
	c0.011-0.014,0.025-0.025,0.037-0.027l0.283-0.035C19.959,6.233,20.004,6.243,20.038,6.267z"/>
<path fill="#3BB34A" d="M20.038,6.267l0.526,0.38c0.035,0.026,0.058,0.067,0.066,0.122l0.039,0.262
	c0.002,0.012-0.005,0.028-0.016,0.042l-1.069-0.772c0.011-0.014,0.025-0.025,0.037-0.027l0.283-0.035
	C19.959,6.233,20.004,6.243,20.038,6.267z"/>
<path fill="#8CC541" d="M20.248,10.154l0.526,0.38c0.035,0.026,0.058,0.067,0.066,0.122l0.039,0.262
	c0.002,0.012-0.005,0.028-0.016,0.042c-0.011,0.014-0.025,0.025-0.037,0.027l-0.27,0.041c-0.057,0.009-0.105,0-0.141-0.026
	l-0.525-0.379c-0.034-0.025-0.057-0.065-0.066-0.117l-0.046-0.275c-0.002-0.012,0.005-0.029,0.016-0.043
	c0.011-0.014,0.025-0.025,0.037-0.027l0.283-0.035C20.169,10.12,20.214,10.13,20.248,10.154z"/>
<path fill="#3BB34A" d="M20.248,10.154l0.526,0.38c0.035,0.026,0.058,0.067,0.066,0.122l0.039,0.262
	c0.002,0.012-0.005,0.028-0.016,0.042l-1.069-0.772c0.011-0.014,0.025-0.025,0.037-0.027l0.283-0.035
	C20.169,10.12,20.214,10.13,20.248,10.154z"/>
<path fill="#8CC541" d="M21.603,1.804l0.314,0.56c0.021,0.038,0.024,0.085,0.008,0.138l-0.077,0.254
	c-0.004,0.012-0.017,0.024-0.032,0.032C21.8,2.795,21.782,2.8,21.77,2.797l-0.263-0.073c-0.056-0.015-0.095-0.043-0.117-0.081
	l-0.313-0.558c-0.021-0.037-0.024-0.082-0.009-0.133l0.076-0.269c0.004-0.012,0.017-0.024,0.033-0.032
	c0.016-0.008,0.034-0.013,0.045-0.009l0.272,0.084C21.546,1.741,21.582,1.767,21.603,1.804z"/>
<path fill="#3BB34A" d="M21.603,1.804l0.314,0.56c0.021,0.038,0.024,0.085,0.008,0.138l-0.077,0.254
	c-0.004,0.012-0.017,0.024-0.032,0.032L21.177,1.65c0.016-0.008,0.034-0.013,0.045-0.009l0.272,0.084
	C21.546,1.741,21.582,1.767,21.603,1.804z"/>
<path fill="#8CC541" d="M20.609,2.558l0.314,0.56c0.021,0.038,0.024,0.085,0.008,0.138L20.854,3.51
	c-0.004,0.012-0.017,0.024-0.032,0.032c-0.016,0.008-0.033,0.013-0.045,0.01l-0.263-0.073c-0.056-0.015-0.095-0.043-0.117-0.081
	l-0.313-0.558c-0.021-0.037-0.024-0.082-0.009-0.133l0.076-0.269c0.004-0.012,0.017-0.024,0.033-0.032
	c0.016-0.008,0.034-0.013,0.045-0.009l0.272,0.084C20.552,2.495,20.588,2.522,20.609,2.558z"/>
<path fill="#3BB34A" d="M20.609,2.558l0.314,0.56c0.021,0.038,0.024,0.085,0.008,0.138L20.854,3.51
	c-0.004,0.012-0.017,0.024-0.032,0.032l-0.638-1.137c0.016-0.008,0.034-0.013,0.045-0.009l0.272,0.084
	C20.552,2.495,20.588,2.522,20.609,2.558z"/>
<path fill="#8CC541" d="M23.383,6.711L23.049,7.26c-0.023,0.037-0.063,0.063-0.118,0.077l-0.264,0.065
	c-0.012,0.003-0.029-0.002-0.045-0.011c-0.015-0.009-0.029-0.021-0.032-0.033L22.521,7.1c-0.015-0.054-0.011-0.102,0.012-0.139
	l0.334-0.547c0.022-0.036,0.06-0.062,0.113-0.075l0.276-0.073c0.012-0.003,0.03,0.002,0.046,0.011
	c0.015,0.009,0.029,0.021,0.031,0.033l0.064,0.27C23.41,6.631,23.405,6.676,23.383,6.711z"/>
<path fill="#3BB34A" d="M23.383,6.711L23.049,7.26c-0.023,0.037-0.063,0.063-0.118,0.077l-0.264,0.065
	c-0.012,0.003-0.029-0.002-0.045-0.011l0.679-1.114c0.015,0.009,0.029,0.021,0.031,0.033l0.064,0.27
	C23.41,6.631,23.405,6.676,23.383,6.711z"/>
<path fill="#8CC541" d="M21.694,6.068l0.351,0.539c0.024,0.036,0.029,0.083,0.017,0.137l-0.06,0.258
	c-0.003,0.012-0.015,0.025-0.03,0.034c-0.015,0.009-0.033,0.015-0.045,0.013L21.66,6.992c-0.056-0.012-0.098-0.037-0.122-0.074
	l-0.35-0.537c-0.023-0.035-0.029-0.08-0.018-0.132l0.058-0.273c0.003-0.012,0.016-0.025,0.031-0.035
	c0.015-0.009,0.033-0.015,0.045-0.012l0.277,0.066C21.633,6.008,21.672,6.033,21.694,6.068z"/>
<path fill="#3BB34A" d="M21.694,6.068l0.351,0.539c0.024,0.036,0.029,0.083,0.017,0.137l-0.06,0.258
	c-0.003,0.012-0.015,0.025-0.03,0.034L21.26,5.941c0.015-0.009,0.033-0.015,0.045-0.012l0.277,0.066
	C21.633,6.008,21.672,6.033,21.694,6.068z"/>
<path fill="#8CC541" d="M21.749,9.976l0.351,0.539c0.024,0.036,0.029,0.083,0.017,0.137l-0.06,0.258
	c-0.003,0.012-0.015,0.025-0.03,0.034c-0.015,0.009-0.033,0.015-0.045,0.013l-0.267-0.056c-0.056-0.012-0.098-0.037-0.122-0.074
	l-0.35-0.537c-0.023-0.035-0.029-0.08-0.018-0.132l0.058-0.273c0.003-0.012,0.016-0.025,0.031-0.035
	c0.015-0.009,0.033-0.015,0.045-0.012l0.277,0.066C21.688,9.917,21.726,9.941,21.749,9.976z"/>
<path fill="#3BB34A" d="M21.749,9.976l0.351,0.539c0.024,0.036,0.029,0.083,0.017,0.137l-0.06,0.258
	c-0.003,0.012-0.015,0.025-0.03,0.034L21.314,9.85c0.015-0.009,0.033-0.015,0.045-0.012l0.277,0.066
	C21.688,9.917,21.726,9.941,21.749,9.976z"/>
<path fill="#8CC541" d="M23.604,8.605l0.212-0.604c0.014-0.041,0.048-0.074,0.099-0.099l0.245-0.116
	c0.011-0.005,0.029-0.004,0.046,0.002c0.017,0.006,0.032,0.015,0.038,0.026l0.122,0.238c0.026,0.05,0.032,0.098,0.017,0.139
	l-0.211,0.602c-0.014,0.04-0.046,0.072-0.095,0.096l-0.255,0.126c-0.011,0.005-0.03,0.004-0.047-0.002
	c-0.017-0.006-0.032-0.015-0.038-0.026l-0.12-0.252C23.594,8.689,23.59,8.644,23.604,8.605z"/>
<path fill="#3BB34A" d="M23.604,8.605l0.212-0.604c0.014-0.041,0.048-0.074,0.099-0.099l0.245-0.116
	c0.011-0.005,0.029-0.004,0.046,0.002l-0.43,1.226c-0.017-0.006-0.032-0.015-0.038-0.026l-0.12-0.252
	C23.594,8.689,23.59,8.644,23.604,8.605z"/>
<path fill="#8CC541" d="M23.431,2.397l-0.734,1.442c-0.049,0.097-0.123,0.181-0.214,0.247L22.041,4.4
	c-0.02,0.014-0.046,0.014-0.066,0.004c-0.021-0.01-0.037-0.03-0.038-0.054l-0.014-0.532c-0.003-0.112,0.021-0.221,0.071-0.32
	l0.732-1.439c0.048-0.095,0.118-0.177,0.207-0.241l0.464-0.339c0.02-0.015,0.047-0.014,0.068-0.004
	c0.021,0.01,0.037,0.03,0.037,0.055l0.001,0.564C23.503,2.201,23.478,2.304,23.431,2.397z"/>
<path fill="#3BB34A" d="M23.431,2.397l-0.734,1.442c-0.049,0.097-0.123,0.181-0.214,0.247L22.041,4.4
	c-0.02,0.014-0.046,0.014-0.066,0.004l1.49-2.929c0.021,0.01,0.037,0.03,0.037,0.055l0.001,0.564
	C23.503,2.201,23.478,2.304,23.431,2.397z"/>
<path fill="#8CC541" d="M26.517,4.896l0.267,1.355c0.018,0.091,0.013,0.186-0.015,0.276l-0.133,0.435
	c-0.006,0.02-0.023,0.032-0.043,0.036c-0.02,0.004-0.041-0.002-0.054-0.018l-0.292-0.358c-0.062-0.075-0.103-0.162-0.121-0.255
	l-0.267-1.352c-0.018-0.089-0.013-0.18,0.012-0.268l0.135-0.464c0.006-0.02,0.024-0.033,0.044-0.037
	c0.02-0.004,0.041,0.002,0.054,0.019l0.3,0.387C26.462,4.726,26.5,4.808,26.517,4.896z"/>
<path fill="#3BB34A" d="M26.517,4.896l0.267,1.355c0.018,0.091,0.013,0.186-0.015,0.276l-0.133,0.435
	c-0.006,0.02-0.023,0.032-0.043,0.036l-0.543-2.751c0.02-0.004,0.041,0.002,0.054,0.019l0.3,0.387
	C26.462,4.726,26.5,4.808,26.517,4.896z"/>
<path fill="#8CC541" d="M25.739,7.276l0.267,1.355c0.018,0.091,0.013,0.186-0.015,0.276l-0.133,0.435
	c-0.006,0.02-0.023,0.032-0.043,0.036c-0.02,0.004-0.041-0.002-0.054-0.018l-0.292-0.358c-0.062-0.075-0.103-0.162-0.121-0.255
	l-0.267-1.352c-0.018-0.089-0.013-0.18,0.013-0.268l0.135-0.464c0.006-0.02,0.024-0.033,0.044-0.037
	c0.02-0.004,0.041,0.002,0.054,0.019l0.3,0.387C25.684,7.105,25.721,7.188,25.739,7.276z"/>
<path fill="#3BB34A" d="M25.739,7.276l0.267,1.355c0.018,0.091,0.013,0.186-0.015,0.276l-0.133,0.435
	c-0.006,0.02-0.023,0.032-0.043,0.036l-0.543-2.751c0.02-0.004,0.041,0.002,0.054,0.019l0.3,0.387
	C25.684,7.105,25.721,7.188,25.739,7.276z"/>
<path fill="#8CC541" d="M27.142,8.609l0.267,1.355c0.018,0.091,0.013,0.186-0.015,0.276l-0.133,0.435
	c-0.006,0.02-0.023,0.032-0.043,0.036c-0.02,0.004-0.041-0.002-0.054-0.018l-0.292-0.358c-0.062-0.075-0.103-0.162-0.121-0.255
	l-0.267-1.352c-0.018-0.089-0.013-0.18,0.013-0.268l0.135-0.464c0.006-0.02,0.024-0.033,0.044-0.037
	c0.02-0.004,0.041,0.002,0.054,0.019l0.3,0.387C27.087,8.439,27.125,8.522,27.142,8.609z"/>
<path fill="#3BB34A" d="M27.142,8.609l0.267,1.355c0.018,0.091,0.013,0.186-0.015,0.276l-0.133,0.435
	c-0.006,0.02-0.023,0.032-0.043,0.036L26.675,7.96c0.02-0.004,0.041,0.002,0.054,0.019l0.3,0.387
	C27.087,8.439,27.125,8.522,27.142,8.609z"/>
<path fill="#8CC541" d="M26.37,9.758l0.267,1.355c0.018,0.091,0.013,0.186-0.015,0.276l-0.133,0.435
	c-0.006,0.02-0.023,0.032-0.043,0.036c-0.02,0.004-0.041-0.002-0.054-0.018L26.1,11.484c-0.062-0.075-0.103-0.162-0.121-0.255
	l-0.267-1.352c-0.018-0.089-0.013-0.18,0.013-0.268l0.135-0.464c0.006-0.02,0.024-0.033,0.044-0.037
	c0.02-0.004,0.041,0.002,0.054,0.019l0.3,0.387C26.315,9.588,26.353,9.67,26.37,9.758z"/>
<path fill="#3BB34A" d="M26.37,9.758l0.267,1.355c0.018,0.091,0.013,0.186-0.015,0.276l-0.133,0.435
	c-0.006,0.02-0.023,0.032-0.043,0.036l-0.543-2.751c0.02-0.004,0.041,0.002,0.054,0.019l0.3,0.387
	C26.315,9.588,26.353,9.67,26.37,9.758z"/>
<path fill="#8CC541" d="M28.36,5.993l0.267,1.355c0.018,0.091,0.013,0.186-0.015,0.276L28.479,8.06
	c-0.006,0.02-0.023,0.032-0.043,0.036c-0.02,0.004-0.041-0.002-0.054-0.018l-0.292-0.358c-0.062-0.075-0.103-0.162-0.121-0.255
	l-0.267-1.352c-0.018-0.089-0.013-0.18,0.013-0.268l0.135-0.464c0.006-0.02,0.024-0.033,0.044-0.037
	c0.02-0.004,0.041,0.002,0.054,0.019l0.3,0.387C28.304,5.823,28.342,5.905,28.36,5.993z"/>
<path fill="#3BB34A" d="M28.36,5.993l0.267,1.355c0.018,0.091,0.013,0.186-0.015,0.276L28.479,8.06
	c-0.006,0.02-0.023,0.032-0.043,0.036l-0.543-2.751c0.02-0.004,0.041,0.002,0.054,0.019l0.3,0.387
	C28.304,5.823,28.342,5.905,28.36,5.993z"/>
<path fill="#8CC541" d="M27.939,2.942l-0.421,1.311c-0.028,0.088-0.079,0.169-0.147,0.235l-0.329,0.32
	c-0.015,0.015-0.037,0.018-0.056,0.012c-0.019-0.006-0.035-0.021-0.039-0.041L26.862,4.33c-0.018-0.095-0.012-0.19,0.016-0.279
	l0.42-1.308c0.028-0.086,0.076-0.164,0.141-0.23l0.345-0.344c0.015-0.015,0.037-0.018,0.057-0.012
	c0.019,0.006,0.035,0.021,0.039,0.042l0.078,0.478C27.972,2.767,27.966,2.857,27.939,2.942z"/>
<path fill="#3BB34A" d="M27.939,2.942l-0.421,1.311c-0.028,0.088-0.079,0.169-0.147,0.235l-0.329,0.32
	c-0.015,0.015-0.037,0.018-0.056,0.012l0.855-2.663c0.019,0.006,0.035,0.021,0.039,0.042l0.078,0.478
	C27.972,2.767,27.966,2.857,27.939,2.942z"/>
<path fill="#8CC541" d="M24.972,8.003l0.496,1.294c0.033,0.087,0.045,0.181,0.033,0.275l-0.057,0.451
	c-0.003,0.021-0.018,0.036-0.036,0.043c-0.019,0.007-0.041,0.005-0.057-0.009l-0.349-0.306c-0.074-0.064-0.129-0.144-0.163-0.232
	l-0.495-1.291c-0.033-0.085-0.044-0.176-0.034-0.267l0.053-0.48c0.003-0.021,0.018-0.037,0.037-0.043
	c0.019-0.007,0.041-0.005,0.057,0.01l0.362,0.333C24.889,7.843,24.94,7.919,24.972,8.003z"/>
<path fill="#3BB34A" d="M24.972,8.003l0.496,1.294c0.033,0.087,0.045,0.181,0.033,0.275l-0.057,0.451
	c-0.003,0.021-0.018,0.036-0.036,0.043l-1.007-2.628c0.019-0.007,0.041-0.005,0.057,0.01l0.362,0.333
	C24.889,7.843,24.94,7.919,24.972,8.003z"/>
<path fill="#8CC541" d="M25.712,5.025l0.496,1.294c0.033,0.087,0.045,0.181,0.033,0.275l-0.057,0.451
	c-0.003,0.021-0.018,0.036-0.036,0.043c-0.019,0.007-0.041,0.005-0.057-0.009l-0.349-0.306c-0.074-0.064-0.129-0.144-0.163-0.232
	l-0.495-1.291c-0.033-0.085-0.044-0.176-0.034-0.267l0.053-0.48c0.003-0.021,0.018-0.037,0.037-0.043
	c0.019-0.007,0.041-0.005,0.057,0.01l0.362,0.333C25.629,4.866,25.68,4.941,25.712,5.025z"/>
<path fill="#3BB34A" d="M25.712,5.025l0.496,1.294c0.033,0.087,0.045,0.181,0.033,0.275l-0.057,0.451
	c-0.003,0.021-0.018,0.036-0.036,0.043L25.142,4.46c0.019-0.007,0.041-0.005,0.057,0.01l0.362,0.333
	C25.629,4.866,25.68,4.941,25.712,5.025z"/>
<path fill="#8CC541" d="M25.051,9.891l0.496,1.294c0.033,0.087,0.045,0.181,0.033,0.275l-0.057,0.451
	c-0.003,0.021-0.018,0.036-0.036,0.043c-0.019,0.007-0.041,0.005-0.057-0.009l-0.349-0.306c-0.074-0.064-0.129-0.144-0.163-0.232
	l-0.495-1.291c-0.033-0.085-0.044-0.176-0.034-0.267l0.053-0.48c0.003-0.021,0.018-0.037,0.037-0.043
	c0.019-0.007,0.041-0.005,0.057,0.01l0.362,0.333C24.967,9.732,25.019,9.807,25.051,9.891z"/>
<path fill="#3BB34A" d="M25.051,9.891l0.496,1.294c0.033,0.087,0.045,0.181,0.033,0.275l-0.057,0.451
	c-0.003,0.021-0.018,0.036-0.036,0.043L24.48,9.326c0.019-0.007,0.041-0.005,0.057,0.01l0.362,0.333
	C24.967,9.732,25.019,9.807,25.051,9.891z"/>
<path fill="#8CC541" d="M27.945,5.637l-0.421,1.311c-0.028,0.088-0.079,0.169-0.147,0.235l-0.329,0.32
	c-0.015,0.015-0.037,0.018-0.056,0.012c-0.019-0.006-0.035-0.021-0.039-0.041l-0.085-0.449c-0.018-0.095-0.012-0.19,0.016-0.279
	l0.42-1.308c0.028-0.086,0.076-0.164,0.141-0.23l0.345-0.344c0.015-0.015,0.037-0.018,0.057-0.012
	c0.019,0.006,0.035,0.021,0.039,0.042l0.078,0.478C27.979,5.462,27.973,5.552,27.945,5.637z"/>
<path fill="#3BB34A" d="M27.945,5.637l-0.421,1.311c-0.028,0.088-0.079,0.169-0.147,0.235l-0.329,0.32
	c-0.015,0.015-0.037,0.018-0.056,0.012l0.855-2.663c0.019,0.006,0.035,0.021,0.039,0.042l0.078,0.478
	C27.979,5.462,27.973,5.552,27.945,5.637z"/>
<path fill="#8CC541" d="M27.026,7.179L26.605,8.49c-0.028,0.088-0.079,0.169-0.147,0.235l-0.329,0.32
	c-0.015,0.015-0.037,0.018-0.056,0.012c-0.019-0.006-0.035-0.021-0.039-0.041l-0.085-0.449c-0.018-0.095-0.012-0.19,0.016-0.279
	l0.42-1.308c0.028-0.086,0.076-0.164,0.141-0.23l0.345-0.344c0.015-0.015,0.037-0.018,0.057-0.012
	c0.019,0.006,0.035,0.021,0.039,0.042l0.078,0.478C27.06,7.004,27.054,7.094,27.026,7.179z"/>
<path fill="#3BB34A" d="M27.026,7.179L26.605,8.49c-0.028,0.088-0.079,0.169-0.147,0.235l-0.329,0.32
	c-0.015,0.015-0.037,0.018-0.056,0.012l0.855-2.663c0.019,0.006,0.035,0.021,0.039,0.042l0.078,0.478
	C27.06,7.004,27.054,7.094,27.026,7.179z"/>
<path fill="#8CC541" d="M28.411,7.472L27.99,8.783c-0.028,0.088-0.079,0.169-0.147,0.235l-0.329,0.32
	c-0.015,0.015-0.037,0.018-0.056,0.012c-0.019-0.006-0.035-0.021-0.039-0.041l-0.085-0.449c-0.018-0.095-0.012-0.19,0.016-0.279
	l0.42-1.308c0.028-0.086,0.076-0.164,0.141-0.23l0.345-0.344c0.015-0.015,0.037-0.018,0.057-0.012
	c0.019,0.006,0.035,0.021,0.039,0.042l0.078,0.478C28.445,7.297,28.438,7.387,28.411,7.472z"/>
<path fill="#3BB34A" d="M28.411,7.472L27.99,8.783c-0.028,0.088-0.079,0.169-0.147,0.235l-0.329,0.32
	c-0.015,0.015-0.037,0.018-0.056,0.012l0.855-2.663c0.019,0.006,0.035,0.021,0.039,0.042l0.078,0.478
	C28.445,7.297,28.438,7.387,28.411,7.472z"/>
<path fill="#8CC541" d="M25.506,10.472l-0.421,1.311c-0.028,0.088-0.079,0.169-0.147,0.235l-0.329,0.32
	c-0.015,0.015-0.037,0.018-0.056,0.012c-0.019-0.006-0.035-0.021-0.039-0.041l-0.085-0.449c-0.018-0.095-0.012-0.19,0.016-0.279
	l0.42-1.308c0.028-0.086,0.076-0.164,0.141-0.23l0.345-0.344c0.015-0.015,0.037-0.018,0.057-0.012
	c0.019,0.006,0.035,0.021,0.039,0.042l0.078,0.478C25.54,10.297,25.533,10.387,25.506,10.472z"/>
<path fill="#3BB34A" d="M25.506,10.472l-0.421,1.311c-0.028,0.088-0.079,0.169-0.147,0.235l-0.329,0.32
	c-0.015,0.015-0.037,0.018-0.056,0.012l0.855-2.663c0.019,0.006,0.035,0.021,0.039,0.042l0.078,0.478
	C25.54,10.297,25.533,10.387,25.506,10.472z"/>
<path fill="#8CC541" d="M26.926,11.107l-0.421,1.311c-0.028,0.088-0.079,0.169-0.147,0.235l-0.329,0.32
	c-0.015,0.015-0.037,0.018-0.056,0.012c-0.019-0.006-0.035-0.021-0.039-0.041l-0.085-0.449c-0.018-0.095-0.012-0.19,0.016-0.279
	l0.42-1.308c0.028-0.086,0.076-0.164,0.141-0.23l0.345-0.344c0.015-0.015,0.037-0.018,0.057-0.012
	c0.019,0.006,0.035,0.021,0.039,0.042l0.078,0.478C26.96,10.932,26.953,11.022,26.926,11.107z"/>
<path fill="#3BB34A" d="M26.926,11.107l-0.421,1.311c-0.028,0.088-0.079,0.169-0.147,0.235l-0.329,0.32
	c-0.015,0.015-0.037,0.018-0.056,0.012l0.855-2.663c0.019,0.006,0.035,0.021,0.039,0.042l0.078,0.478
	C26.96,10.932,26.953,11.022,26.926,11.107z"/>
<path fill="#8CC541" d="M28.07,10.793l-0.91,1.045c-0.061,0.07-0.14,0.125-0.23,0.161l-0.432,0.17
	c-0.02,0.008-0.041,0.002-0.056-0.01c-0.015-0.013-0.025-0.032-0.02-0.053l0.1-0.444c0.021-0.094,0.064-0.179,0.126-0.25
	l0.908-1.043c0.06-0.069,0.135-0.122,0.222-0.157l0.456-0.186c0.02-0.008,0.042-0.002,0.057,0.011
	c0.015,0.013,0.024,0.032,0.019,0.053l-0.117,0.468C28.171,10.645,28.129,10.725,28.07,10.793z"/>
<path fill="#3BB34A" d="M28.07,10.793l-0.91,1.045c-0.061,0.07-0.14,0.125-0.23,0.161l-0.432,0.17
	c-0.02,0.008-0.041,0.002-0.056-0.01l1.849-2.123c0.015,0.013,0.024,0.032,0.019,0.053l-0.117,0.468
	C28.171,10.645,28.129,10.725,28.07,10.793z"/>
<path fill="#8CC541" d="M26.641,4.266l0.389,0.396c0.026,0.027,0.039,0.065,0.038,0.112l-0.005,0.227
	c0,0.01-0.008,0.023-0.019,0.033c-0.011,0.01-0.025,0.018-0.035,0.018l-0.234-0.004c-0.049-0.001-0.089-0.015-0.115-0.042
	L26.272,4.61c-0.025-0.026-0.039-0.063-0.038-0.108l0.001-0.238c0-0.011,0.009-0.024,0.02-0.034c0.011-0.01,0.025-0.018,0.035-0.017
	l0.243,0.011C26.579,4.226,26.616,4.24,26.641,4.266z"/>
<path fill="#3BB34A" d="M26.641,4.266l0.389,0.396c0.026,0.027,0.039,0.065,0.038,0.112l-0.005,0.227
	c0,0.01-0.008,0.023-0.019,0.033l-0.79-0.804c0.011-0.01,0.025-0.018,0.035-0.017l0.243,0.011
	C26.579,4.226,26.616,4.24,26.641,4.266z"/>
<path fill="#8CC541" d="M25.464,6.162l0.389,0.396c0.026,0.027,0.039,0.065,0.038,0.112l-0.005,0.227
	c0,0.01-0.008,0.023-0.019,0.033c-0.011,0.01-0.025,0.018-0.035,0.018l-0.234-0.004c-0.049-0.001-0.089-0.015-0.115-0.042
	l-0.388-0.395c-0.025-0.026-0.039-0.063-0.038-0.108l0.001-0.238c0-0.011,0.009-0.024,0.02-0.034
	c0.011-0.01,0.025-0.018,0.035-0.017l0.243,0.011C25.402,6.122,25.439,6.137,25.464,6.162z"/>
<path fill="#3BB34A" d="M25.464,6.162l0.389,0.396c0.026,0.027,0.039,0.065,0.038,0.112l-0.005,0.227
	c0,0.01-0.008,0.023-0.019,0.033l-0.79-0.804c0.011-0.01,0.025-0.018,0.035-0.017l0.243,0.011
	C25.402,6.122,25.439,6.137,25.464,6.162z"/>
<path fill="#8CC541" d="M24.817,7.078l0.389,0.396c0.026,0.027,0.039,0.065,0.038,0.112L25.24,7.813c0,0.01-0.008,0.023-0.019,0.033
	c-0.011,0.01-0.025,0.018-0.035,0.018L24.952,7.86c-0.049-0.001-0.089-0.015-0.115-0.042l-0.388-0.395
	C24.423,7.397,24.41,7.36,24.41,7.314l0.001-0.238c0-0.011,0.009-0.024,0.02-0.034c0.011-0.01,0.025-0.018,0.035-0.017l0.243,0.011
	C24.755,7.038,24.792,7.052,24.817,7.078z"/>
<path fill="#3BB34A" d="M24.817,7.078l0.389,0.396c0.026,0.027,0.039,0.065,0.038,0.112L25.24,7.813c0,0.01-0.008,0.023-0.019,0.033
	l-0.79-0.804c0.011-0.01,0.025-0.018,0.035-0.017l0.243,0.011C24.755,7.038,24.792,7.052,24.817,7.078z"/>
<path fill="#8CC541" d="M24.435,10.385l0.389,0.396c0.026,0.027,0.039,0.065,0.038,0.112l-0.005,0.227
	c0,0.01-0.008,0.023-0.019,0.033c-0.011,0.01-0.025,0.018-0.035,0.018l-0.234-0.004c-0.049-0.001-0.089-0.015-0.115-0.042
	l-0.388-0.395c-0.025-0.026-0.039-0.063-0.038-0.108l0.001-0.238c0-0.011,0.009-0.024,0.02-0.034
	c0.011-0.01,0.025-0.018,0.035-0.017l0.243,0.011C24.374,10.345,24.41,10.36,24.435,10.385z"/>
<path fill="#3BB34A" d="M24.435,10.385l0.389,0.396c0.026,0.027,0.039,0.065,0.038,0.112l-0.005,0.227
	c0,0.01-0.008,0.023-0.019,0.033l-0.79-0.804c0.011-0.01,0.025-0.018,0.035-0.017l0.243,0.011
	C24.374,10.345,24.41,10.36,24.435,10.385z"/>
<path fill="#8CC541" d="M26.779,3.54l0.184,0.517c0.012,0.035,0.008,0.075-0.013,0.117l-0.102,0.203
	c-0.005,0.009-0.017,0.017-0.032,0.022c-0.015,0.005-0.03,0.006-0.04,0.002l-0.211-0.099c-0.045-0.021-0.074-0.05-0.087-0.085
	l-0.184-0.516c-0.012-0.034-0.008-0.073,0.012-0.114l0.103-0.215c0.005-0.009,0.018-0.018,0.033-0.023
	c0.015-0.005,0.03-0.006,0.04-0.001l0.217,0.11C26.739,3.479,26.767,3.507,26.779,3.54z"/>
<path fill="#3BB34A" d="M26.779,3.54l0.184,0.517c0.012,0.035,0.008,0.075-0.013,0.117l-0.102,0.203
	c-0.005,0.009-0.017,0.017-0.032,0.022l-0.374-1.05c0.015-0.005,0.03-0.006,0.04-0.001l0.217,0.11
	C26.739,3.479,26.767,3.507,26.779,3.54z"/>
<path fill="#8CC541" d="M25.832,4.033l0.184,0.517c0.012,0.035,0.008,0.075-0.013,0.117l-0.102,0.203
	c-0.005,0.009-0.018,0.017-0.032,0.022c-0.015,0.005-0.03,0.006-0.04,0.002l-0.211-0.099c-0.045-0.021-0.074-0.05-0.087-0.085
	l-0.184-0.516C25.336,4.16,25.34,4.122,25.36,4.081l0.103-0.215c0.005-0.009,0.018-0.018,0.033-0.023
	c0.015-0.005,0.03-0.006,0.04-0.001l0.217,0.11C25.793,3.972,25.82,4,25.832,4.033z"/>
<path fill="#3BB34A" d="M25.832,4.033l0.184,0.517c0.012,0.035,0.008,0.075-0.013,0.117l-0.102,0.203
	c-0.005,0.009-0.018,0.017-0.032,0.022l-0.374-1.05c0.015-0.005,0.03-0.006,0.04-0.001l0.217,0.11
	C25.793,3.972,25.82,4,25.832,4.033z"/>
<path fill="#8CC541" d="M27.573,7.933l-0.361,0.414c-0.024,0.028-0.062,0.044-0.11,0.048L26.87,8.412
	c-0.011,0.001-0.024-0.006-0.036-0.016c-0.012-0.01-0.021-0.022-0.022-0.033l-0.022-0.227c-0.005-0.048,0.006-0.087,0.03-0.116
	l0.36-0.413c0.024-0.027,0.06-0.043,0.106-0.047l0.243-0.022c0.011-0.001,0.025,0.006,0.037,0.016
	c0.012,0.01,0.021,0.022,0.022,0.033l0.015,0.237C27.607,7.87,27.597,7.907,27.573,7.933z"/>
<path fill="#3BB34A" d="M27.573,7.933l-0.361,0.414c-0.024,0.028-0.062,0.044-0.11,0.048L26.87,8.412
	c-0.011,0.001-0.024-0.006-0.036-0.016l0.733-0.841c0.012,0.01,0.021,0.022,0.022,0.033l0.015,0.237
	C27.607,7.87,27.597,7.907,27.573,7.933z"/>
<path fill="#8CC541" d="M26.242,7.148l0.218,0.505c0.015,0.034,0.013,0.074-0.005,0.118L26.367,7.98
	c-0.004,0.01-0.016,0.019-0.03,0.024c-0.014,0.006-0.03,0.008-0.04,0.004L26.08,7.922c-0.046-0.018-0.077-0.045-0.092-0.08
	L25.77,7.339c-0.014-0.033-0.013-0.072,0.004-0.114l0.089-0.222c0.004-0.01,0.017-0.019,0.031-0.025
	c0.014-0.006,0.03-0.008,0.039-0.004l0.224,0.096C26.199,7.089,26.228,7.115,26.242,7.148z"/>
<path fill="#3BB34A" d="M26.242,7.148l0.218,0.505c0.015,0.034,0.013,0.074-0.005,0.118L26.367,7.98
	c-0.004,0.01-0.016,0.019-0.03,0.024l-0.443-1.025c0.014-0.006,0.03-0.008,0.039-0.004l0.224,0.096
	C26.199,7.089,26.228,7.115,26.242,7.148z"/>
<path fill="#8CC541" d="M25.726,10.451l0.218,0.505c0.015,0.034,0.013,0.074-0.005,0.118l-0.088,0.209
	c-0.004,0.01-0.016,0.019-0.03,0.024c-0.014,0.006-0.03,0.008-0.04,0.004l-0.217-0.086c-0.046-0.018-0.077-0.045-0.092-0.08
	l-0.218-0.503c-0.014-0.033-0.013-0.072,0.004-0.114l0.089-0.222c0.004-0.01,0.017-0.019,0.031-0.025
	c0.014-0.006,0.03-0.008,0.039-0.004l0.224,0.096C25.683,10.392,25.712,10.418,25.726,10.451z"/>
<path fill="#3BB34A" d="M25.726,10.451l0.218,0.505c0.015,0.034,0.013,0.074-0.005,0.118l-0.088,0.209
	c-0.004,0.01-0.016,0.019-0.03,0.024l-0.443-1.025c0.014-0.006,0.03-0.008,0.039-0.004l0.224,0.096
	C25.683,10.392,25.712,10.418,25.726,10.451z"/>
<path fill="#8CC541" d="M27.487,9.562l0.266-0.478c0.018-0.032,0.051-0.056,0.098-0.069l0.223-0.063
	c0.01-0.003,0.025,0.001,0.039,0.008c0.014,0.007,0.025,0.018,0.028,0.028l0.069,0.218c0.015,0.046,0.013,0.087-0.005,0.119
	l-0.265,0.477c-0.017,0.031-0.049,0.054-0.094,0.068l-0.233,0.07c-0.01,0.003-0.026-0.001-0.039-0.008
	c-0.014-0.007-0.025-0.018-0.028-0.028l-0.065-0.229C27.467,9.631,27.47,9.593,27.487,9.562z"/>
<path fill="#3BB34A" d="M27.487,9.562l0.266-0.478c0.018-0.032,0.051-0.056,0.098-0.069l0.223-0.063
	c0.01-0.003,0.025,0.001,0.039,0.008l-0.539,0.971c-0.014-0.007-0.025-0.018-0.028-0.028l-0.065-0.229
	C27.467,9.631,27.47,9.593,27.487,9.562z"/>
<path fill="#8CC541" d="M28.234,4.303l-0.826,1.11c-0.056,0.075-0.13,0.135-0.216,0.177l-0.417,0.201
	c-0.019,0.009-0.04,0.005-0.057-0.006c-0.016-0.012-0.027-0.03-0.024-0.051l0.065-0.45c0.014-0.095,0.05-0.183,0.106-0.259
	l0.824-1.108c0.054-0.073,0.125-0.132,0.209-0.174l0.44-0.219c0.019-0.009,0.041-0.005,0.058,0.006
	c0.016,0.012,0.027,0.031,0.023,0.052l-0.081,0.476C28.323,4.148,28.288,4.231,28.234,4.303z"/>
<path fill="#3BB34A" d="M28.234,4.303l-0.826,1.11c-0.056,0.075-0.13,0.135-0.216,0.177l-0.417,0.201
	c-0.019,0.009-0.04,0.005-0.057-0.006l1.677-2.255c0.016,0.012,0.027,0.031,0.023,0.052l-0.081,0.476
	C28.323,4.148,28.288,4.231,28.234,4.303z"/>
<path fill="#11AA4B" d="M22.073,3.607c-0.168,0.413-0.249,0.872-0.102,1.302c0.08,0.236,0.287,0.417,0.381,0.65
	c0.105,0.261,0.084,0.583,0.116,0.859c0.009,0.076,0.255,0.022,0.245-0.066c-0.05-0.44-0.051-0.842-0.311-1.219
	c-0.342-0.495-0.307-1.014-0.085-1.56C22.348,3.5,22.105,3.529,22.073,3.607L22.073,3.607z"/>
<path fill="#11AA4B" d="M22.309,4.132c-0.247,0.334-0.175,0.74-0.152,1.129c0.003,0.056,0.25,0.011,0.245-0.066
	c-0.022-0.36-0.099-0.762,0.131-1.074C22.588,4.047,22.348,4.08,22.309,4.132L22.309,4.132z"/>
<path fill="#11AA4B" d="M23.146,4.837c-0.052,0.305-0.051,0.595-0.193,0.879c-0.116,0.233-0.262,0.431-0.314,0.692
	c-0.01,0.05,0.23,0.012,0.242-0.045c0.057-0.288,0.227-0.519,0.357-0.778c0.127-0.253,0.107-0.541,0.154-0.814
	C23.395,4.75,23.158,4.765,23.146,4.837L23.146,4.837z"/>
<path fill="#11AA4B" d="M23.287,5.289c0.122,0.373-0.096,0.764-0.309,1.061c-0.02,0.028,0.199,0.018,0.242-0.042
	c0.217-0.303,0.436-0.704,0.312-1.085C23.513,5.162,23.269,5.234,23.287,5.289L23.287,5.289z"/>
<path fill="#11AA4B" d="M22.761,6.08c-0.292,0.35-0.347,0.821-0.405,1.257c-0.01,0.075,0.235,0.028,0.243-0.039
	c0.056-0.42,0.104-0.89,0.386-1.228C23.043,6.001,22.803,6.03,22.761,6.08L22.761,6.08z"/>
<path fill="#11AA4B" d="M23.315,6.568c-0.152,0.486-0.474,0.88-0.264,1.403c0.169,0.42,0.618,0.653,0.801,1.073
	c0.042,0.096,0.284,0.022,0.245-0.066c-0.149-0.342-0.426-0.573-0.66-0.855c-0.443-0.532-0.046-1.035,0.125-1.582
	C23.592,6.443,23.343,6.475,23.315,6.568L23.315,6.568z"/>
<path fill="#11AA4B" d="M22.059,7.718c-0.748,0.487,0.975,1.693,0.43,2.362c-0.097,0.119,0.138,0.144,0.203,0.064
	c0.278-0.341,0.105-0.75-0.072-1.099c-0.113-0.222-0.723-1.017-0.402-1.226C22.359,7.729,22.153,7.657,22.059,7.718L22.059,7.718z"
	/>
<path fill="#11AA4B" d="M21.112,5.975c-0.153,0.493,0.224,0.965,0.462,1.364c0.047,0.078,0.284-0.004,0.227-0.1
	c-0.225-0.378-0.587-0.824-0.442-1.29C21.389,5.851,21.141,5.884,21.112,5.975L21.112,5.975z"/>
<path fill="#11AA4B" d="M20.332,7.007c-0.192,0.353,0.108,0.69,0.338,0.944c0.127,0.141,0.269,0.268,0.395,0.41
	c0.248,0.28,0.355,0.656,0.5,0.993c0.034,0.079,0.275,0.002,0.245-0.066c-0.184-0.427-0.326-0.831-0.657-1.169
	c-0.248-0.252-0.813-0.712-0.594-1.114C20.611,6.909,20.367,6.942,20.332,7.007L20.332,7.007z"/>
<path fill="#11AA4B" d="M21.264,9.375c0.2,0.293,0.301,0.748,0.691,0.847c0.104,0.026,0.291-0.126,0.142-0.164
	c-0.335-0.085-0.436-0.537-0.608-0.791C21.428,9.177,21.193,9.271,21.264,9.375L21.264,9.375z"/>
<path fill="#11AA4B" d="M21.904,11.049c0.1,0.295-0.129,0.62-0.26,0.871c-0.082,0.157-0.247,0.423-0.097,0.586
	c0.062,0.068,0.297-0.024,0.227-0.099c-0.149-0.162,0.139-0.548,0.216-0.697c0.112-0.217,0.243-0.479,0.16-0.726
	C22.118,10.89,21.873,10.959,21.904,11.049L21.904,11.049z"/>
<path fill="#11AA4B" d="M21.259,11.649c-0.138,0.229-0.141,0.584-0.09,0.839c0.024,0.118,0.269,0.054,0.245-0.066
	c-0.045-0.223-0.041-0.541,0.08-0.742C21.567,11.561,21.316,11.555,21.259,11.649L21.259,11.649z"/>
<path fill="#11AA4B" d="M26.515,5.032c-0.357,0.479,0.316,0.898,0.16,1.399c-0.023,0.073,0.221,0.038,0.244-0.036
	c0.148-0.477-0.5-0.936-0.178-1.368C26.801,4.948,26.557,4.976,26.515,5.032L26.515,5.032z"/>
<path fill="#11AA4B" d="M27.607,6.7c0.002,0.501-0.337,0.778-0.667,1.103c-0.058,0.057,0.179,0.031,0.224-0.013
	c0.348-0.342,0.691-0.631,0.688-1.156C27.852,6.586,27.606,6.624,27.607,6.7L27.607,6.7z"/>
<path fill="#11AA4B" d="M27.392,8.2c-0.44,0.377-0.226,0.818-0.096,1.296c0.016,0.06,0.262-0.006,0.245-0.066
	c-0.122-0.448-0.347-0.885,0.074-1.245C27.672,8.137,27.438,8.16,27.392,8.2L27.392,8.2z"/>
<path fill="#11AA4B" d="M26.14,8.89c-0.131,0.211-0.041,0.397,0.052,0.609c0.134,0.303,0.145,0.577,0.032,0.888
	c-0.02,0.055,0.219,0.026,0.243-0.041c0.079-0.219,0.11-0.405,0.065-0.634c-0.057-0.288-0.329-0.572-0.149-0.862
	C26.406,8.812,26.179,8.827,26.14,8.89L26.14,8.89z"/>
<path fill="#11AA4B" d="M24.896,8.14c0.019,0.221,0.119,0.382,0.235,0.566c0.166,0.265,0.263,0.567,0.338,0.868
	c0.062,0.253-0.096,0.613,0.133,0.806c0.083,0.07,0.298-0.05,0.189-0.141c-0.124-0.104-0.064-0.414-0.063-0.559
	c0.001-0.153-0.044-0.296-0.087-0.441c-0.117-0.399-0.464-0.757-0.499-1.164C25.132,7.963,24.886,8.022,24.896,8.14L24.896,8.14z"/>
<path fill="#11AA4B" d="M25.631,11.4c-0.112,0.292-0.588,0.801-0.274,1.102c0.058,0.056,0.288-0.036,0.229-0.093
	c-0.28-0.268,0.188-0.777,0.29-1.044C25.903,11.294,25.66,11.324,25.631,11.4L25.631,11.4z"/>
<path fill="#11AA4B" d="M21.565,10.864c0.247,0.158,0.138,0.605,0.196,0.857c0.022,0.094,0.185,0.073,0.227,0.008
	c0.295-0.469,0.143-1.098-0.008-1.593c-0.037-0.12-0.282-0.053-0.245,0.066c0.131,0.429,0.305,1.035,0.046,1.446
	c0.076,0.003,0.151,0.005,0.227,0.008c-0.068-0.297,0.049-0.746-0.253-0.939C21.655,10.653,21.444,10.786,21.565,10.864
	L21.565,10.864z"/>
<path fill="#11AA4B" d="M21.579,12.318c-0.04,0.027-0.087,0.043-0.13,0.067c0.059,0.012,0.117,0.024,0.176,0.035
	c-0.042-0.088-0.053-0.184-0.054-0.281c-0.001-0.056,0.007-0.111,0.017-0.166c0.005-0.027,0.014-0.052,0.027-0.075
	c0.053-0.05,0.042-0.065-0.033-0.046c-0.023-0.011-0.046-0.022-0.069-0.033c-0.004-0.03-0.011-0.013-0.021,0.05
	c0.076-0.014,0.153-0.027,0.229-0.041c-0.033-0.054-0.082-0.094-0.131-0.135c-0.026-0.022-0.125-0.077-0.127-0.111
	c-0.007,0.022-0.014,0.044-0.021,0.066c0.003-0.002,0.006-0.005,0.008-0.007c0.043-0.039,0.019-0.097-0.03-0.113
	c-0.062-0.02-0.127,0.005-0.174,0.047c-0.124,0.112,0.201,0.282,0.249,0.36c0.044,0.072,0.203,0.027,0.229-0.041
	c0.026-0.067,0.07-0.175-0.028-0.207c-0.098-0.032-0.19,0.03-0.254,0.097c-0.159,0.166-0.156,0.506-0.063,0.702
	c0.03,0.063,0.12,0.067,0.176,0.035c0.061-0.035,0.126-0.06,0.184-0.099C21.878,12.33,21.674,12.254,21.579,12.318L21.579,12.318z"
	/>
<path fill="#11AA4B" d="M25.678,12.394c-0.131-0.456,0.287-0.788,0.526-1.122c0.026-0.037-0.007-0.063-0.04-0.073
	c-0.199-0.058-0.412,0.137-0.565-0.039c-0.063,0.039-0.126,0.078-0.188,0.118c0.174,0.06,0.377,0.231,0.555,0.067
	c0.299-0.276-0.052-0.806-0.062-1.125c-0.003-0.082-0.248-0.032-0.245,0.066c0.007,0.241,0.105,0.457,0.162,0.689
	c0.087,0.356-0.079,0.228-0.261,0.166c-0.048-0.017-0.255,0.041-0.188,0.118c0.138,0.16,0.438,0.238,0.547,0.084
	c-0.248,0.346-0.62,0.652-0.487,1.118C25.458,12.55,25.704,12.483,25.678,12.394L25.678,12.394z"/>
<path fill="#11AA4B" d="M26.637,10.177c0.279-0.477-0.321-1.002-0.028-1.44c0.024-0.036-0.201-0.023-0.243,0.04
	c-0.299,0.448,0.307,0.964,0.028,1.44C26.37,10.258,26.599,10.241,26.637,10.177L26.637,10.177z"/>
<path fill="#11AA4B" d="M27.417,6.889c-0.197,0.451-0.726,0.638-0.827,1.148c-0.02,0.099,0.229,0.059,0.246-0.029
	c0.096-0.486,0.62-0.675,0.811-1.111C27.696,6.785,27.451,6.812,27.417,6.889L27.417,6.889z"/>
<path fill="#11AA4B" d="M27.047,5.494c-0.119,0.257-0.278,0.494-0.289,0.787c-0.005,0.132,0.245,0.099,0.249-0.017
	c0.01-0.275,0.164-0.496,0.276-0.738C27.343,5.396,27.095,5.391,27.047,5.494L27.047,5.494z"/>
<path fill="#11AA4B" d="M25.403,6.931c0.011,0.225,0.186,0.408,0.296,0.594c0.161,0.272,0.018,0.614,0.157,0.898
	c0.052,0.106,0.294,0.034,0.245-0.066c-0.122-0.248-0.045-0.53-0.11-0.793c-0.058-0.234-0.328-0.407-0.34-0.652
	C25.645,6.784,25.398,6.824,25.403,6.931L25.403,6.931z"/>
<path fill="#11AA4B" d="M26.195,6.672c0.003,0.241,0.04,0.489-0.026,0.724c-0.011,0.04,0.225,0.011,0.241-0.046
	c0.069-0.243,0.033-0.495,0.03-0.744C26.44,6.575,26.194,6.609,26.195,6.672L26.195,6.672z"/>
<path fill="#11AA4B" d="M20.443,7.114c-0.162,0.255,0.012,0.518,0.155,0.741c0.274,0.427,0.442,0.836,0.572,1.331
	c0.025,0.094,0.27,0.028,0.245-0.066c-0.092-0.35-0.187-0.73-0.374-1.043c-0.149-0.249-0.564-0.644-0.368-0.952
	C20.738,7.023,20.49,7.04,20.443,7.114L20.443,7.114z"/>
<path fill="#11AA4B" d="M21.111,8.737c-0.023,0.517,0.585,0.866,0.565,1.383c-0.005,0.132,0.245,0.099,0.249-0.017
	c0.009-0.244-0.107-0.421-0.216-0.63c-0.121-0.23-0.361-0.48-0.348-0.753C21.366,8.588,21.116,8.621,21.111,8.737L21.111,8.737z"/>
<path fill="#11AA4B" d="M25.541,12.459c0.506,0.01,0.485-0.73,0.754-1.011c0.081-0.085-0.055-0.14-0.125-0.119
	c-0.147,0.045-0.24,0.118-0.32,0.249c-0.102,0.166-0.078,0.47-0.264,0.575c0.057,0.028,0.114,0.057,0.171,0.085
	c0.2-0.453,0.802-0.878,0.702-1.426c-0.035-0.193-0.211-0.287-0.381-0.206c-0.187,0.089-0.228,0.401-0.162,0.572
	c0.036,0.094,0.171,0.055,0.225,0.003c0.124-0.12,0.176-0.248,0.206-0.416c0.022-0.124-0.205-0.079-0.241-0.004
	c-0.108,0.219-0.154,0.449-0.194,0.688c-0.021,0.123,0.23,0.09,0.249-0.019c0.037-0.223,0.079-0.438,0.18-0.642
	c-0.08-0.001-0.161-0.003-0.241-0.004c-0.023,0.128-0.069,0.235-0.162,0.326c0.075,0.001,0.15,0.002,0.225,0.003
	c-0.026-0.068-0.028-0.128-0.02-0.2c0.016-0.155,0.02-0.183,0.073-0.035c0.057,0.159-0.062,0.356-0.136,0.489
	c-0.162,0.294-0.419,0.537-0.555,0.845c-0.045,0.102,0.111,0.119,0.171,0.085c0.118-0.067,0.187-0.147,0.243-0.271
	c0.073-0.16,0.074-0.467,0.277-0.53c-0.042-0.04-0.083-0.079-0.125-0.119c-0.11,0.115-0.35,0.908-0.463,0.905
	C25.509,12.28,25.375,12.456,25.541,12.459L25.541,12.459z"/>
<path fill="#11AA4B" d="M26.632,10.141c-0.089,0.082-0.172,0.167-0.245,0.265c-0.089,0.118,0.11,0.152,0.184,0.092
	c0.157-0.128,0.268-0.282,0.299-0.486c0.016-0.104-0.158-0.089-0.206-0.046c-0.056,0.05-0.107,0.099-0.151,0.16
	c0.073,0.017,0.147,0.033,0.22,0.05c0.021-0.044,0.045-0.086,0.066-0.129c-0.08,0.006-0.16,0.013-0.24,0.019
	c0.115,0.294,0.278,0.567,0.342,0.878c0.022,0.105,0.25,0.057,0.247-0.042c-0.002-0.06,0.003-0.13,0.089-0.134
	c0.139-0.007,0.189-0.188,0.022-0.179c-0.184,0.01-0.366,0.132-0.36,0.332c0.082-0.014,0.165-0.028,0.247-0.042
	c-0.065-0.311-0.228-0.585-0.342-0.878c-0.039-0.099-0.2-0.059-0.24,0.019c-0.022,0.043-0.046,0.085-0.066,0.129
	c-0.057,0.122,0.168,0.124,0.22,0.05c0.033-0.046,0.066-0.082,0.108-0.12c-0.069-0.015-0.137-0.031-0.206-0.046
	c-0.023,0.149-0.098,0.261-0.213,0.355c0.061,0.031,0.123,0.061,0.184,0.092c0.061-0.081,0.127-0.156,0.202-0.225
	C26.917,10.14,26.723,10.058,26.632,10.141L26.632,10.141z"/>
<path fill="#11AA4B" d="M26.59,12.234c0.007,0.05,0.012,0.09-0.003,0.139c0.083-0.007,0.165-0.014,0.248-0.021
	c0.011-0.053,0.018-0.106,0.026-0.159c0.016-0.107-0.158-0.072-0.204-0.041c-0.074,0.049-0.124,0.087-0.166,0.168
	c0.078,0.008,0.156,0.016,0.233,0.023c0.019-0.054,0.053-0.101,0.081-0.151c-0.063,0.023-0.126,0.045-0.188,0.068
	c0.206,0.096,0.399-0.051,0.443-0.254c0.024-0.111-0.187-0.076-0.226-0.022c-0.025,0.034-0.05,0.066-0.076,0.099
	c-0.086,0.108,0.084,0.131,0.155,0.101c0.116-0.049,0.202-0.134,0.298-0.212c-0.068-0.014-0.136-0.028-0.204-0.041
	c0.003,0.113,0.062,0.209,0.101,0.313c0.005,0.013,0.019,0.046,0.014,0.061c0.009-0.028-0.005-0.01-0.038-0.011
	c-0.052-0.002-0.104-0.012-0.154-0.027c-0.006,0.049-0.012,0.098-0.019,0.147c0.134-0.076,0.262-0.158,0.325-0.305
	c0.05-0.117-0.141-0.106-0.197-0.064c-0.031,0.024-0.062,0.047-0.094,0.069c0.068,0.014,0.136,0.028,0.204,0.041
	c0.013-0.101,0.038-0.203,0.123-0.269c0.132-0.102-0.068-0.175-0.161-0.104c-0.129,0.1-0.189,0.234-0.21,0.394
	c-0.014,0.106,0.157,0.076,0.204,0.041c0.032-0.023,0.063-0.046,0.094-0.069c-0.066-0.021-0.131-0.042-0.197-0.064
	c-0.04,0.094-0.112,0.143-0.198,0.192c-0.056,0.032-0.114,0.119-0.019,0.147c0.166,0.049,0.353,0.067,0.506-0.025
	c0.194-0.117-0.033-0.343-0.037-0.49c-0.003-0.099-0.148-0.087-0.204-0.041c-0.079,0.064-0.15,0.14-0.244,0.18
	c0.052,0.034,0.103,0.067,0.155,0.101c0.026-0.033,0.051-0.065,0.076-0.099c-0.075-0.007-0.151-0.015-0.226-0.022
	c-0.003,0.025-0.011,0.049-0.023,0.071c-0.021,0.047,0.013,0.023-0.029,0.003c-0.062-0.029-0.156,0.012-0.188,0.068
	c-0.029,0.049-0.062,0.097-0.081,0.151c-0.048,0.133,0.189,0.111,0.233,0.023c0.025-0.049,0.048-0.058,0.093-0.087
	c-0.068-0.014-0.136-0.028-0.204-0.041c-0.008,0.053-0.015,0.106-0.026,0.159c-0.026,0.12,0.22,0.075,0.248-0.021
	c0.019-0.065,0.009-0.118,0-0.184C26.821,12.061,26.575,12.122,26.59,12.234L26.59,12.234z"/>
<path fill="#11AA4B" d="M25.067,11.825c-0.064,0.252-0.264,0.392-0.432,0.574c-0.029,0.031,0.007,0.051,0.035,0.056
	c0.338,0.05,0.654-0.007,0.981-0.093c0.025-0.007,0.125-0.039,0.109-0.083c-0.145-0.4-0.691-0.312-0.818,0.055
	c-0.026,0.075,0.206,0.022,0.235-0.022c0.058-0.088,0.087-0.183,0.117-0.284c0.024-0.08-0.206-0.02-0.235,0.022
	c-0.041,0.06-0.076,0.12-0.104,0.187c-0.03,0.072,0.204,0.02,0.235-0.022c0.065-0.087,0.131-0.173,0.198-0.259
	c-0.078,0.012-0.157,0.024-0.235,0.036c-0.002,0.084,0.003,0.168-0.003,0.252c-0.006,0.088,0.222,0.025,0.244-0.037
	c0.048-0.132,0.049-0.242-0.04-0.355c-0.034-0.043-0.154-0.003-0.188,0.018c-0.119,0.073-0.189,0.157-0.189,0.301
	c0,0.076,0.212-0.01,0.235-0.036c0.114-0.125,0.135-0.281,0.1-0.443c-0.016-0.074-0.227-0.004-0.245,0.051
	c-0.035,0.11-0.033,0.223-0.031,0.337c0.003,0.139,0.017,0.311-0.171,0.195c-0.147-0.09,0.356-0.43,0.419-0.488
	c0.1-0.091-0.143-0.069-0.193-0.024c-0.125,0.113-0.8,0.552-0.328,0.654c0.15,0.032,0.392,0.035,0.48-0.123
	c0.096-0.171,0.009-0.403,0.067-0.589c-0.082,0.017-0.163,0.034-0.245,0.051c0.031,0.14,0.021,0.273-0.08,0.383
	c0.078-0.012,0.157-0.024,0.235-0.036c0-0.078,0.023-0.141,0.09-0.182c-0.063,0.006-0.126,0.012-0.188,0.018
	c0.076,0.096,0.065,0.193,0.025,0.302c0.081-0.012,0.163-0.025,0.244-0.037c0.007-0.094,0.003-0.187,0.005-0.281
	c0.001-0.073-0.212,0.007-0.235,0.036c-0.067,0.085-0.133,0.171-0.198,0.259c0.078-0.007,0.156-0.014,0.235-0.022
	c0.024-0.058,0.049-0.104,0.085-0.157c-0.078,0.007-0.156,0.014-0.235,0.022c-0.026,0.088-0.048,0.176-0.099,0.253
	c0.078-0.007,0.156-0.014,0.235-0.022c0.026-0.074,0.066-0.184,0.162-0.152c0.088,0.029,0.138,0.12,0.167,0.2
	c0.036-0.028,0.073-0.055,0.109-0.083c-0.27,0.072-0.521,0.117-0.8,0.076c0.012,0.019,0.024,0.037,0.035,0.056
	c0.177-0.192,0.383-0.34,0.45-0.605C25.329,11.714,25.085,11.752,25.067,11.825L25.067,11.825z"/>
<path opacity="0.12" fill="#231F20" d="M37.527,24.685v2.099c0,0.228-0.289,0.448-0.822,0.653c-2.146,0.826-8.247,1.422-15.44,1.422
	c-8.982,0-16.263-0.929-16.263-2.075V11.712c0.81,2.207,3.292,7.339,9.657,10.715c3.241,1.719,7.488,2.982,13.033,3.172
	C31.493,25.729,34.748,25.363,37.527,24.685z"/>
<path opacity="0.12" fill="#231F20" d="M37.526,11.096c-0.008,0.006,0.008,1.994,0.001,2c-0.286,0.228-0.681-1.491-1.15-1.214
	c0,0.001-0.001,0.001-0.001,0.001c-3.39,2.005-11.953,4.798-31.374,1.154v-1.922c0-0.091,0.046-0.181,0.136-0.269
	c0.091,0.088,0.199,0.178,0.329,0.269c1.465,1.012,5.647,2.048,16.81,1.867c0,0,10.487-0.069,14.739-1.867
	c0.153-0.065,0.299-0.133,0.435-0.202"/>
<path opacity="0.08" fill="#231F20" d="M36.704,27.437c-2.146,0.826-8.247,1.422-15.44,1.422c-8.982,0-16.263-0.929-16.263-2.075
	v-2.778C8.846,25.265,20.006,28.472,36.704,27.437z"/>
</svg>
