<?xml version="1.0" encoding="utf-8"?>
<!-- Generator: Adobe Illustrator 17.0.0, SVG Export Plug-In . SVG Version: 6.00 Build 0)  -->
<!DOCTYPE svg PUBLIC "-//W3C//DTD SVG 1.1//EN" "http://www.w3.org/Graphics/SVG/1.1/DTD/svg11.dtd">
<svg version="1.1" id="Layer_1" xmlns="http://www.w3.org/2000/svg" xmlns:xlink="http://www.w3.org/1999/xlink" x="0px" y="0px"
	 width="38.04px" height="39.772px" viewBox="0 0 38.04 39.772" enable-background="new 0 0 38.04 39.772" xml:space="preserve">
<polyline fill="#969696" points="4.998,35.767 10.015,39.772 10.015,4.9 4.998,0.895 4.998,35.767 "/>
<polyline fill="#7F7F7F" points="6.173,34.932 8.734,36.859 8.734,5.747 6.173,3.82 6.173,34.932 "/>
<polyline fill="#BDBDBD" points="10.015,39.772 33.042,39.772 33.042,4.9 10.015,4.9 10.015,39.772 "/>
<polyline fill="#969696" points="12.142,37.884 30.915,37.884 30.915,6.789 12.142,6.789 12.142,37.884 "/>
<polyline fill="#7D7F73" points="33.042,4.9 10.015,4.9 4.998,0.895 27.486,0.895 33.042,4.9 "/>
<polygon fill="#976767" points="8.734,1.705 11.616,4.006 11.616,2.301 8.734,0 "/>
<rect x="11.616" y="2.301" fill="#BD807F" width="17.082" height="1.705"/>
<polygon fill="#7F5756" points="28.698,2.301 11.616,2.301 8.734,0 25.507,0 "/>
<ellipse fill="#3B3C32" cx="18.716" cy="1.15" rx="6.722" ry="0.488"/>
<polyline fill="#878787" points="4.998,0.895 4.998,35.767 10.015,39.772 8.734,29.568 8.734,36.859 6.173,34.932 6.173,9.161 
	5.15,1.017 4.998,0.895 "/>
<polyline fill="#747373" points="6.173,9.161 6.173,34.932 8.734,36.859 8.734,29.568 6.173,9.161 "/>
<polyline fill="#727369" points="4.998,0.895 4.998,0.895 5.151,1.017 5.15,1.017 4.998,0.895 "/>
<polyline fill="#A6A6A5" points="10.015,4.9 10.015,4.9 10.015,39.772 33.042,39.772 30.915,36.551 30.915,37.884 12.142,37.884 
	12.142,8.121 10.015,4.9 "/>
<polyline fill="#878787" points="12.142,8.121 12.142,37.884 30.915,37.884 30.915,36.551 12.142,8.121 "/>
</svg>
