<?xml version="1.0" encoding="utf-8"?>
<!-- Generator: Adobe Illustrator 17.0.0, SVG Export Plug-In . SVG Version: 6.00 Build 0)  -->
<!DOCTYPE svg PUBLIC "-//W3C//DTD SVG 1.1//EN" "http://www.w3.org/Graphics/SVG/1.1/DTD/svg11.dtd">
<svg version="1.1" id="Layer_1" xmlns="http://www.w3.org/2000/svg" xmlns:xlink="http://www.w3.org/1999/xlink" x="0px" y="0px"
	 width="37.63px" height="41.392px" viewBox="0 0 37.63 41.392" enable-background="new 0 0 37.63 41.392" xml:space="preserve">
<rect x="15.917" y="11.207" fill="#5E72B6" width="15.145" height="22.306"/>
<path fill="#5E72B6" d="M31.062,11.207c0,6.189-3.234,4.674-7.472,4.674S13.712,6.189,13.712,0c0,0,5.44,0,9.678,0
	C27.627,0,31.062,5.017,31.062,11.207z"/>
<rect x="7.003" y="11.207" fill="#5266AF" width="13.416" height="22.306"/>
<path fill="#5266AF" d="M20.42,11.207c0,6.189-3.003,4.674-6.708,4.674c-1.206,0-2.337-0.531-3.315-1.461
	c-2.028-1.928-3.394,0.962-3.394-3.213C7.003,5.017,10.007,0,13.712,0C17.416,0,20.42,5.017,20.42,11.207z"/>
<polygon fill="#5266AF" points="8.688,38.405 7.248,38.405 7.003,33.513 8.932,33.513 "/>
<polygon fill="#5266AF" points="20.175,38.405 18.735,38.405 18.491,33.513 20.42,33.513 "/>
<polygon fill="#5E72B6" points="31.062,33.513 30.818,38.405 29.378,38.405 29.133,33.513 "/>
<polygon fill="#4C60A4" points="15.681,38.405 14.241,38.405 13.997,33.513 15.926,33.513 "/>
<path fill="#4C60A4" d="M28.919,8.281h-6.592c-0.298-1.85-0.872-3.51-1.646-4.849c-0.538-0.934-1.173-1.713-1.878-2.29h5.664
	C26.874,2.07,28.445,4.711,28.919,8.281z"/>
<path fill="#4C60A4" d="M13.712,0c0,0-1.904,4.339-6.709,33.016v-21.81C7.003,5.017,10.007,0,13.712,0z"/>
<polygon fill="#677ABC" points="31.062,13.064 20.42,15.384 20.42,30.305 31.062,22.238 "/>
<path fill="#4C60A4" d="M18.812,33.513H18.17V11.207c0-2.643-0.444-6.2-2.558-8.142c-1.228-1.128-2.441-1.173-2.453-1.174
	l0.017-0.642c0.059,0.002,1.467,0.054,2.871,1.343c1.835,1.686,2.766,4.584,2.766,8.615L18.812,33.513L18.812,33.513z"/>
</svg>
