<?xml version="1.0" encoding="utf-8"?>
<!-- Generator: Adobe Illustrator 17.0.0, SVG Export Plug-In . SVG Version: 6.00 Build 0)  -->
<!DOCTYPE svg PUBLIC "-//W3C//DTD SVG 1.1//EN" "http://www.w3.org/Graphics/SVG/1.1/DTD/svg11.dtd">
<svg version="1.1" id="Layer_1" xmlns="http://www.w3.org/2000/svg" xmlns:xlink="http://www.w3.org/1999/xlink" x="0px" y="0px"
	 width="39.65px" height="55.511px" viewBox="0 0 39.65 55.511" enable-background="new 0 0 39.65 55.511" xml:space="preserve">
<path fill="#59BA47" d="M23.975,2.533v21.794c0,1.399-1.083,2.533-2.419,2.533H7.745c-1.337,0-2.42-1.134-2.42-2.533V2.533
	C5.326,1.134,6.409,0,7.745,0h13.811C22.892,0,23.975,1.134,23.975,2.533z"/>
<path fill="#50A646" d="M21.556,26.86H7.745c-1.336,0-2.419-1.134-2.419-2.533V2.533c0-0.699,0.271-1.333,0.708-1.791l17.254,25.353
	C22.849,26.567,22.235,26.86,21.556,26.86z"/>
<path fill="#59BA47" d="M34.651,18.013v11.573c0,0.742-0.575,1.345-1.284,1.345h-7.333c-0.71,0-1.284-0.603-1.284-1.345V18.013
	c0-0.742,0.575-1.345,1.284-1.345h7.333C34.077,16.669,34.651,17.271,34.651,18.013z"/>
<path fill="#50A646" d="M33.367,30.931h-7.333c-0.709,0-1.285-0.602-1.285-1.345V18.014c0-0.371,0.144-0.708,0.376-0.951l9.24,13.37
	C34.13,30.736,33.77,30.931,33.367,30.931z"/>
<path fill="#9D8B31" d="M30.773,30.931v5.933c0,1.921-1.493,3.485-3.329,3.485h-7.118V53.79l-1.106,0.359l-0.949-0.359V37.049
	c0-0.735-0.571-1.333-1.274-1.333H16.95c-1.835,0-3.329-1.564-3.329-3.485v-5.37h2.055v5.37c0,0.735,0.571,1.333,1.273,1.333h0.047
	c1.835,0,3.329,1.564,3.329,3.485v1.148h7.118c0.702,0,1.274-0.598,1.274-1.333v-5.933C28.717,30.931,30.773,30.931,30.773,30.931z"
	/>
<path fill="#81C44E" d="M23.975,2.533v10.302L15.042,0h6.514C22.892,0,23.975,1.134,23.975,2.533z"/>
<path fill="#81C44E" d="M34.651,18.013v5.065l-4.461-6.41h3.177C34.077,16.669,34.651,17.271,34.651,18.013z"/>
<polygon fill="#8F7F30" points="28.718,30.931 30.773,33.42 30.773,30.931 "/>
<polygon fill="#8F7F30" points="13.623,26.86 15.678,29.476 15.678,26.86 "/>
<path fill="#9D8B31" d="M16.069,55.511l0.004-0.007L16.069,55.511z"/>
<polygon fill="#8F7F30" points="20.327,48.985 20.327,53.79 19.22,54.149 18.272,53.79 18.272,43.822 "/>
<polygon fill="#8F7F30" points="20.327,40.349 20.327,38.197 22.198,40.349 "/>
</svg>
