<?xml version="1.0" encoding="utf-8"?>
<!-- Generator: Adobe Illustrator 17.0.0, SVG Export Plug-In . SVG Version: 6.00 Build 0)  -->
<!DOCTYPE svg PUBLIC "-//W3C//DTD SVG 1.1//EN" "http://www.w3.org/Graphics/SVG/1.1/DTD/svg11.dtd">
<svg version="1.1" id="Layer_1" xmlns="http://www.w3.org/2000/svg" xmlns:xlink="http://www.w3.org/1999/xlink" x="0px" y="0px"
	 width="739px" height="369.549px" viewBox="0 0 739 369.549" enable-background="new 0 0 739 369.549" xml:space="preserve">
<path fill="#FFFFFF" d="M374.867,98.137c0,27.098-20.982,49.065-46.869,49.065c-6.89,0-13.43-1.552-19.32-4.345
	c-8.47,12.664-22.519,20.954-38.415,20.954c-14.065,0-26.675-6.492-35.265-16.764c-6.65,3.784-14.261,5.937-22.36,5.937
	c-7.098,0-13.829-1.66-19.861-4.615c-0.935,0.458-1.892,0.887-2.86,1.277c-4.752,1.947-9.887,3.097-15.251,3.298
	c-0.574,0.029-1.159,0.04-1.744,0.04c-1.531,0-3.051-0.074-4.544-0.229c-20.61-2.078-37.321-18.132-41.379-38.995
	c-0.623-3.178-0.946-6.47-0.946-9.842c0-18.378,9.646-34.392,23.924-42.802c6.245-19.426,23.776-33.418,44.436-33.418
	c3.554,0,7.005,0.418,10.33,1.202c2.483-3.229,5.348-6.132,8.531-8.617c7.814-6.109,17.504-9.727,28.003-9.727
	c10.384,0,19.97,3.532,27.735,9.51c3.057-4.357,6.781-8.17,11.019-11.262C287.625,3.258,296.856,0,306.819,0
	c13.201,0,25.127,5.714,33.641,14.909c1.684,1.815,3.232,3.767,4.626,5.834c5.425,7.998,8.607,17.771,8.607,28.323
	c0,2.599-0.197,5.153-0.569,7.643C366.194,65.411,374.867,80.715,374.867,98.137z"/>
<path fill="#FFFFFF" d="M572.529,98.137c0,27.098-20.982,49.065-46.869,49.065c-6.89,0-13.43-1.552-19.32-4.345
	c-8.47,12.664-22.519,20.954-38.415,20.954c-14.065,0-26.675-6.492-35.265-16.764c-6.65,3.784-14.261,5.937-22.36,5.937
	c-7.098,0-13.829-1.66-19.861-4.615c-0.935,0.458-1.892,0.887-2.86,1.277c-4.752,1.947-9.887,3.097-15.251,3.298
	c-0.574,0.029-1.159,0.04-1.744,0.04c-1.531,0-3.051-0.074-4.544-0.229c-20.61-2.078-37.321-18.132-41.379-38.995
	c-0.623-3.178-0.946-6.47-0.946-9.842c0-18.378,9.646-34.392,23.924-42.802c6.245-19.426,23.776-33.418,44.436-33.418
	c3.554,0,7.005,0.418,10.33,1.202c2.483-3.229,5.348-6.132,8.531-8.617c7.814-6.109,17.504-9.727,28.003-9.727
	c10.384,0,19.97,3.532,27.735,9.51c3.057-4.357,6.781-8.17,11.019-11.262C485.287,3.258,494.518,0,504.481,0
	c13.201,0,25.127,5.714,33.641,14.909c1.684,1.815,3.232,3.767,4.626,5.834c5.425,7.998,8.607,17.771,8.607,28.323
	c0,2.599-0.197,5.153-0.569,7.643C563.856,65.411,572.529,80.715,572.529,98.137z"/>
<rect y="0" opacity="0" fill="#FFFFFF" width="739" height="369.549"/>
</svg>
