<?xml version="1.0" encoding="utf-8"?>
<!-- Generator: Adobe Illustrator 15.0.0, SVG Export Plug-In . SVG Version: 6.00 Build 0)  -->
<!DOCTYPE svg PUBLIC "-//W3C//DTD SVG 1.0//EN" "http://www.w3.org/TR/2001/REC-SVG-20010904/DTD/svg10.dtd">
<svg version="1.0" id="Layer_1" xmlns="http://www.w3.org/2000/svg" xmlns:xlink="http://www.w3.org/1999/xlink" x="0px" y="0px"
	 width="21.94px" height="303.301px" viewBox="0 0 21.94 303.301" enable-background="new 0 0 21.94 303.301" xml:space="preserve">
<path fill="#4A4434" d="M8.18,242.352c-1.611,2.537-3.668,5.291-5.351,9.023c-1.686,3.73-2.843,8.369-2.829,14.277
	c-0.008,5.254,0.894,9.498,2.29,13.002c1.04,2.625,2.324,4.807,3.551,6.723c1.86,2.887,3.523,5.178,4.691,7.803
	c1.138,2.57,1.949,5.539,1.998,10.121h9.404c-0.028-5.109-0.916-9.26-2.283-12.691c-1.041-2.627-2.325-4.807-3.553-6.725
	c-1.859-2.885-3.522-5.178-4.689-7.803c-1.165-2.629-1.992-5.664-2.006-10.43c0.008-4.234,0.673-7.107,1.628-9.535
	c0.722-1.822,1.642-3.422,2.729-5.119c1.61-2.535,3.668-5.289,5.351-9.023c1.687-3.73,2.843-8.367,2.829-14.275
	c0.008-5.254-0.894-9.498-2.289-13c-1.041-2.627-2.325-4.807-3.553-6.725c-1.859-2.885-3.522-5.176-4.689-7.801
	c-1.165-2.629-1.992-5.662-2.006-10.428c0.008-4.234,0.673-7.109,1.628-9.537c0.722-1.822,1.644-3.422,2.729-5.119
	c1.61-2.535,3.668-5.291,5.351-9.025c1.687-3.73,2.843-8.367,2.829-14.278c0.008-5.254-0.894-9.497-2.289-13
	c-1.041-2.626-2.325-4.807-3.553-6.723c-1.859-2.885-3.522-5.176-4.689-7.801c-1.165-2.629-1.992-5.663-2.006-10.43
	c0.008-4.231,0.673-7.104,1.628-9.53c0.722-1.821,1.642-3.421,2.729-5.116c1.61-2.535,3.668-5.289,5.351-9.022
	c1.687-3.729,2.843-8.365,2.829-14.272c0.008-5.254-0.894-9.497-2.289-12.999c-1.041-2.626-2.325-4.808-3.553-6.725
	c-1.859-2.884-3.522-5.175-4.689-7.8c-1.165-2.629-1.992-5.663-2.006-10.428c0.008-4.233,0.673-7.104,1.628-9.531
	c0.722-1.821,1.642-3.42,2.729-5.116c1.61-2.534,3.668-5.288,5.351-9.021C20.798,10.544,21.954,5.907,21.94,0h-9.402h-0.001
	c-0.008,4.232-0.673,7.104-1.628,9.531c-0.722,1.821-1.642,3.419-2.729,5.116c-1.61,2.535-3.667,5.288-5.351,9.021
	C1.143,27.397-0.014,32.033,0,37.941c-0.008,5.254,0.894,9.497,2.29,12.999c1.04,2.626,2.325,4.807,3.551,6.724
	c1.861,2.884,3.523,5.175,4.691,7.8c1.165,2.63,1.992,5.663,2.005,10.429c-0.008,4.232-0.673,7.104-1.628,9.53
	c-0.722,1.821-1.642,3.421-2.729,5.117c-1.611,2.535-3.667,5.288-5.351,9.021C1.143,103.29-0.014,107.928,0,113.834
	c-0.008,5.254,0.894,9.498,2.29,13c1.04,2.626,2.325,4.808,3.551,6.725c1.861,2.884,3.523,5.176,4.691,7.8
	c1.165,2.629,1.992,5.664,2.005,10.429c-0.008,4.235-0.673,7.108-1.628,9.538c-0.722,1.822-1.643,3.422-2.729,5.119
	c-1.611,2.535-3.668,5.291-5.351,9.025c-1.687,3.729-2.843,8.367-2.829,14.277c-0.008,5.254,0.894,9.496,2.29,13
	c1.04,2.625,2.325,4.807,3.551,6.723c1.861,2.885,3.523,5.176,4.691,7.801c1.165,2.629,1.992,5.664,2.005,10.43
	c-0.008,4.234-0.673,7.107-1.628,9.535C10.187,239.055,9.267,240.655,8.18,242.352"/>
</svg>
