<?xml version="1.0" encoding="utf-8"?>
<!-- Generator: Adobe Illustrator 15.0.0, SVG Export Plug-In . SVG Version: 6.00 Build 0)  -->
<!DOCTYPE svg PUBLIC "-//W3C//DTD SVG 1.0//EN" "http://www.w3.org/TR/2001/REC-SVG-20010904/DTD/svg10.dtd">
<svg version="1.0" id="Layer_1" xmlns="http://www.w3.org/2000/svg" xmlns:xlink="http://www.w3.org/1999/xlink" x="0px" y="0px"
	 width="489.605px" height="181.954px" viewBox="0 0 489.605 181.954" enable-background="new 0 0 489.605 181.954"
	 xml:space="preserve">
<g>
	<path opacity="0.5" fill="#E5E5E5" d="M0.626,169.885C0.222,170.887,0,171.982,0,173.129c0,4.808,3.898,8.705,8.706,8.705
		c0.175,0,0.35-0.015,0.521-0.025v0.145H93.31c2.613,0,4.732-2.119,4.732-4.731v-6.491c0,2.614-2.119,4.732-4.732,4.732H9.226
		v-0.145c-0.172,0.012-0.347,0.025-0.521,0.025C5.046,175.344,1.913,173.086,0.626,169.885 M0.587,153.948
		C0.208,154.922,0,155.985,0,157.094l0.006,0.099L0,157.293c0,1.721,0.5,3.322,1.363,4.672c0.646-1.01,1.494-1.877,2.487-2.545
		v-1.398C2.385,157.036,1.236,155.618,0.587,153.948 M0.587,137.913C0.208,138.888,0,139.95,0,141.059l0.006,0.1L0,141.258
		c0,1.721,0.5,3.322,1.363,4.672c0.646-1.01,1.494-1.877,2.487-2.547v-1.396C2.385,141,1.236,139.583,0.587,137.913 M0.587,121.877
		C0.208,122.853,0,123.915,0,125.023l0.006,0.099L0,125.222c0,1.721,0.5,3.323,1.363,4.673c0.645-1.01,1.493-1.877,2.486-2.546
		v-1.397C2.385,124.963,1.236,123.545,0.587,121.877 M0.587,105.842C0.208,106.818,0,107.877,0,108.988l0.006,0.101L0,109.188
		c0,1.721,0.5,3.322,1.363,4.672c0.645-1.009,1.493-1.877,2.486-2.546v-1.397C2.385,108.929,1.236,107.51,0.587,105.842
		 M0.626,89.905C0.222,90.909,0,92.004,0,93.152c0,1.722,0.5,3.324,1.363,4.673c0.646-1.009,1.493-1.877,2.486-2.546v-1.397
		C2.414,92.915,1.281,91.532,0.626,89.905"/>
	<path fill="#E1EAA0" d="M9.226,77.956v0.026c-0.172-0.013-0.347-0.026-0.521-0.026C3.898,77.956,0,81.854,0,86.662
		c0,3.008,1.529,5.655,3.851,7.219v1.396C1.529,96.842,0,99.491,0,102.499l0.006,0.1L0,102.698c0,3.008,1.529,5.654,3.851,7.219
		v1.397C1.53,112.877,0,115.525,0,118.534l0.006,0.098L0,118.732c0,3.009,1.529,5.655,3.851,7.22v1.397
		C1.529,128.913,0,131.56,0,134.568l0.006,0.099L0,134.766c0,3.01,1.529,5.656,3.851,7.221v1.396C1.53,144.948,0,147.594,0,150.603
		l0.006,0.101L0,150.801c0,3.01,1.529,5.656,3.851,7.221v1.398C1.53,160.982,0,163.629,0,166.638c0,4.81,3.898,8.706,8.706,8.706
		c0.175,0,0.35-0.014,0.521-0.025v0.145H93.31c2.613,0,4.732-2.119,4.732-4.732V82.933c0-2.749-2.228-4.977-4.977-4.977H9.226"/>
	<path fill="#C9DE7E" d="M93.067,77.956H61.563v65.528l34.353,27.026c1.275,1.119,1.2,2.873,0.279,3.965
		c1.123-0.864,1.849-2.221,1.849-3.747V82.933C98.044,80.184,95.816,77.956,93.067,77.956"/>
	<path opacity="0.5" fill="#E5E5E5" d="M385.238,144.745H98.044v6.492v-0.001H383.48c-0.061-0.403-0.095-0.827-0.095-1.267
		c-0.013-1.328,0.354-2.785,1.006-3.959C384.646,145.542,384.933,145.122,385.238,144.745 M489.604,140.023
		c-0.052,2.617-2.188,4.722-4.817,4.722h-18.049c-0.474,2.239-1.092,4.408-1.855,6.491h19.903c2.661,0,4.818-2.157,4.818-4.819
		V140.023"/>
	<path fill="#B5C771" d="M62.255,144.028l9.162,7.208h26.627v-6.491H64.785C63.857,144.745,62.99,144.483,62.255,144.028"/>
	<path fill="#FFFFFF" d="M484.787,144.745H64.785c-2.661,0-4.818-2.156-4.818-4.818V52.058c0-2.662,2.157-4.819,4.818-4.819h420.002
		c2.661,0,4.818,2.157,4.818,4.819v87.868C489.605,142.588,487.448,144.745,484.787,144.745"/>
	<path fill="#FFFFFF" d="M177.645,60.472c-6.451-0.002-12.903,0-19.355,0c-2.532,0-2.532,0-2.532,2.525c0,2.372,0,4.744,0,7.115
		c-2.089-3.698-5.021-6.327-8.694-8.168c-4.717-2.364-9.7-2.781-14.847-1.977c-8.798,1.376-15.709,5.842-20.907,12.964
		c-4.083,5.591-6.372,11.901-6.914,18.815c-0.689,8.791,0.511,17.217,4.995,24.973c3.064,5.304,7.335,9.352,12.853,12.029
		c5.766,2.799,11.88,3.771,18.23,3.164c3.695-0.354,7.224-1.357,10.386-3.397c2.67-1.722,4.87-3.87,6.086-6.921
		c0.086,2.555,0.085,5.078,0.086,7.6c0.002,1.691,0.271,1.956,1.997,1.956c4.562,0.002,9.124,0.001,13.686,0.001
		c1.729,0,3.454,0.01,5.183-0.004c1.068-0.007,1.387-0.322,1.449-1.389c0.015-0.26,0.009-0.521,0.009-0.781
		c0-22.255,0-44.511,0-66.766C179.352,60.605,179.225,60.473,177.645,60.472 M144.83,110.48
		c-8.333,1.877-16.901-3.714-17.339-13.136c-0.181-3.92,0.577-7.601,3.039-10.745c2.881-3.678,6.819-5.182,11.396-5.118
		c8.203,0.115,13.746,6.017,13.787,14.62C155.748,103.397,151.618,108.952,144.83,110.48 M111.334,59.362
		c-5.875-2.555-11.767-5.071-17.647-7.611c-0.844-0.364-1.399-0.181-1.828,0.656c-1.958,3.823-5.206,5.972-9.331,6.669
		c-5.938,1.002-11.088-0.497-14.76-5.547c-2.575-3.543-3.062-7.605-2.38-11.838c0.475-2.963,1.629-5.634,3.814-7.745
		c3.758-3.629,8.335-4.528,13.298-3.608c4.135,0.765,7.599,2.676,9.551,6.653c0.379,0.767,0.896,0.636,1.54,0.361
		c5.417-2.303,10.847-4.58,16.268-6.872c2.979-1.261,3.014-1.284,1.707-4.267c-3.493-7.97-9.323-13.54-17.427-16.683
		c-6.353-2.464-12.969-3.077-19.69-2.356c-10.245,1.1-18.686,5.601-24.931,13.874c-5.354,7.091-7.584,15.236-7.764,24.048
		c0.217,2.331,0.294,4.685,0.669,6.99c2.235,13.741,9.861,23.09,23.008,27.784c6.341,2.265,12.923,2.615,19.567,1.901
		c3.838-0.412,7.56-1.349,11.051-3.042c7.47-3.619,12.581-9.523,16.232-16.826C112.853,60.757,112.551,59.891,111.334,59.362
		 M233.14,120.362c-0.332-2.154-0.661-4.311-1.019-6.461c-0.297-1.79-0.989-2.225-2.75-1.96c-1.348,0.203-2.718,0.406-4.074,0.378
		c-2.598-0.052-4.854-0.947-6.317-3.251c-0.961-1.509-1.175-3.22-1.175-4.968c-0.002-8.211-0.002-16.422,0.001-24.632
		c0-0.345,0.031-0.69,0.053-1.086c0.307,0,0.531-0.003,0.753,0c3.354,0.047,6.708,0.105,10.062,0.138
		c1.986,0.019,2.354-0.349,2.357-2.316c0.007-4.594,0.002-9.188,0.002-13.782c0-1.769-0.168-1.946-1.944-1.949
		c-3.354-0.007-6.712-0.002-10.066-0.002c-0.376-0.001-0.752,0-1.215,0c0-0.609-0.009-1.06,0.001-1.51
		c0.084-4.981,0.184-9.962,0.251-14.943c0.027-2.095-0.856-3.018-2.933-3.025c-6.419-0.02-12.838-0.012-19.256-0.004
		c-1.187,0.002-1.399,0.233-1.431,1.445c-0.123,4.98-0.245,9.96-0.358,14.94c-0.021,0.999-0.003,1.999-0.003,2.95
		c-0.286,0.079-0.379,0.127-0.472,0.127c-1.729,0.01-3.453,0.013-5.18,0.02c-1.456,0.005-1.705,0.232-1.708,1.697
		c-0.013,4.887-0.012,9.775,0,14.662c0.003,1.287,0.259,1.522,1.565,1.528c1.856,0.008,3.712,0.002,5.729,0.002
		c0,0.466-0.001,0.816,0,1.167c0.011,8.862,0.002,17.724,0.041,26.586c0.019,4.207,0.318,8.39,1.521,12.462
		c1.492,5.057,4.214,9.127,9.041,11.565c3.187,1.608,6.589,2.342,10.118,2.704c6.509,0.67,12.524-0.868,18.241-3.868
		c0.941-0.495,1.313-1.25,1.125-2.345C233.743,124.551,233.461,122.454,233.14,120.362 M366.472,59.503
		c-4.16-1.229-8.404-1.392-12.674-0.873c-6.017,0.731-10.938,3.445-14.515,8.399c-0.898,1.248-1.599,2.641-2.478,4.114v-1.162
		c0-10.851,0.001-21.701-0.003-32.552c0-0.684-0.01-1.369-0.058-2.051c-0.041-0.626-0.338-1.041-1.036-1.049
		c-0.355-0.003-0.715-0.054-1.069-0.054c-6.582-0.004-13.164-0.003-19.746-0.002c-1.876,0-1.877,0.002-1.877,1.857
		c0,30.955,0,61.912,0,92.867c0,0.229-0.006,0.457,0.002,0.685c0.042,1.384,0.127,1.469,1.54,1.47
		c6.517,0.002,13.033,0.012,19.551-0.004c0.301-0.001,0.568,0.004,0.806,0.008c1.957,0.036,1.886,0.072,1.888-2.695
		c0.009-14.043-0.001-28.088,0.02-42.131c0.001-0.56,0.114-1.179,0.37-1.667c2.065-3.951,5.274-6.088,9.816-5.992
		c2.858,0.06,5.39,0.864,7.144,3.324c1.411,1.977,1.748,4.236,1.748,6.585c0.002,13.652,0.001,27.305,0.002,40.959
		c0,1.533,0.076,1.612,1.589,1.613c5.963,0.003,11.927,0.001,17.891,0.001c0.911,0,1.823,0.009,2.735-0.002
		c1.23-0.012,1.46-0.243,1.504-1.493c0.009-0.195,0.003-0.393,0.003-0.588c0.001-16.029,0-32.062,0.001-48.095
		c0-3.075-0.33-6.109-1.189-9.069C376.623,65.675,372.808,61.375,366.472,59.503 M306.25,97.67c-0.52-0.268-1.067-0.477-1.604-0.707
		c-5.288-2.272-10.578-4.543-15.863-6.822c-0.827-0.356-1.521-0.503-2.034,0.511c-1.956,3.871-5.235,6.031-9.396,6.729
		c-5.815,0.975-10.895-0.473-14.574-5.354c-2.645-3.503-3.203-7.56-2.571-11.795c0.552-3.705,2.125-6.904,5.22-9.166
		c3.928-2.87,8.34-3.362,12.932-2.228c3.691,0.913,6.796,2.79,8.531,6.392c0.355,0.74,0.836,0.733,1.517,0.444
		c5.444-2.319,10.901-4.609,16.353-6.915c2.911-1.229,2.963-1.301,1.692-4.209c-3.479-7.977-9.297-13.569-17.4-16.709
		c-6.859-2.658-13.996-3.214-21.233-2.187c-9.067,1.286-16.668,5.376-22.498,12.491c-6.007,7.331-8.506,15.907-8.789,25.299
		c0.37,2.998,0.532,6.04,1.146,8.986c2.484,11.877,9.277,20.315,20.556,24.958c7.576,3.117,15.47,3.632,23.502,2.387
		c12.061-1.867,20.093-9.01,25.432-19.607C307.714,99.075,307.37,98.245,306.25,97.67 M461.172,95.946h0.028
		c0-24.323,0-28.32-0.001-32.319c0-0.684-0.01-1.369-0.056-2.051c-0.041-0.626-0.339-1.041-1.037-1.048
		c-0.357-0.004-0.714-0.055-1.071-0.055c-6.582-0.003-13.164-0.003-19.746-0.002c-1.876,0-1.877,0.002-1.877,1.857v33.674
		c-0.004,3.035-0.782,5.92-2.729,8.496c-2.809,3.721-6.448,5.387-10.613,5.481c-4.164-0.099-7.806-1.765-10.613-5.481
		c-1.983-2.631-2.759-5.582-2.729-8.688h-0.023c0-24.2,0-28.193-0.001-32.184c0-0.684-0.01-1.369-0.056-2.051
		c-0.041-0.626-0.338-1.041-1.037-1.048c-0.355-0.004-0.714-0.055-1.071-0.055c-6.582-0.003-13.164-0.003-19.746-0.002
		c-1.876,0-1.877,0.002-1.877,1.857v33.621h0.03c-0.011,0.219-0.021,0.438-0.03,0.657c0.371,2.997,0.533,6.039,1.149,8.983
		c1.562,7.478,4.836,13.591,9.857,18.252c4.692,4.763,10.609,7.938,18.07,9.096c2.706,0.419,5.396,0.633,8.063,0.621
		c2.668,0.012,5.354-0.202,8.062-0.621c1.858-0.288,3.619-0.702,5.291-1.232v2.432h0.007c-0.002,3.09-0.689,6.025-2.672,8.65
		c-3.682,4.879-8.588,6.324-14.4,5.352c-4.159-0.697-7.44-2.857-9.396-6.729c-0.512-1.016-1.207-0.867-2.033-0.513
		c-5.285,2.28-10.574,4.552-15.862,6.823c-0.536,0.23-1.089,0.439-1.606,0.705c-1.118,0.574-1.462,1.404-0.91,2.498
		c5.338,10.601,13.371,17.742,25.434,19.611c8.03,1.243,15.927,0.73,23.502-2.389c11.275-4.643,18.067-13.082,20.554-24.959
		c0.616-2.945,0.777-5.986,1.147-8.984l-0.004-0.068h0.004V96.862l0.029-0.257c-0.007-0.217-0.02-0.433-0.029-0.647L461.172,95.946"
		/>
	<path fill="#FFFFFF" d="M177.645,60.472l0.003-6.891c-2.152,0-4.303-0.001-6.455-0.001c-4.302,0-8.604,0.001-12.904,0.001
		c-0.316,0-0.627,0-0.976,0.006c-0.307,0.007-0.642,0.018-1.062,0.056c-0.368,0.036-0.804,0.09-1.354,0.222
		c-0.48,0.117-1.057,0.297-1.697,0.615c-0.558,0.276-1.162,0.666-1.709,1.16c-0.479,0.43-0.908,0.933-1.244,1.439
		c-0.593,0.895-0.896,1.749-1.065,2.407c-0.248,1-0.27,1.634-0.298,2.155c-0.021,0.518-0.017,0.928-0.018,1.355
		c0,2.372,0,4.744,0,7.115h6.891l6-3.39c-1.377-2.442-3.091-4.611-5.063-6.44c-1.972-1.833-4.19-3.321-6.544-4.5
		c-4.307-2.167-8.893-3.09-13.317-3.081c-1.919,0-3.813,0.166-5.68,0.457h-0.001c-5.25,0.816-10.116,2.608-14.397,5.296
		c-4.286,2.683-7.963,6.233-11.012,10.414l0.001-0.001c-2.409,3.296-4.318,6.854-5.689,10.605c-1.375,3.75-2.213,7.688-2.529,11.736
		c-0.131,1.672-0.202,3.35-0.202,5.03c0,4.053,0.414,8.122,1.389,12.145c0.975,4.021,2.517,7.99,4.713,11.787
		c1.845,3.192,4.102,6.082,6.756,8.572c2.651,2.492,5.695,4.578,9.054,6.207c5.612,2.731,11.621,4.035,17.659,4.028
		c1.411,0,2.822-0.069,4.234-0.205h0.003c2.255-0.216,4.542-0.638,6.813-1.354c2.269-0.717,4.52-1.735,6.649-3.111l-0.001,0.001
		c1.705-1.101,3.406-2.427,4.941-4.104c1.534-1.674,2.883-3.716,3.812-6.057l-6.401-2.551l-6.887,0.23
		c0.081,2.4,0.082,4.846,0.082,7.371v0.006c0.009,0.607,0,1.281,0.202,2.357c0.081,0.402,0.2,0.867,0.4,1.391
		c0.175,0.457,0.416,0.957,0.742,1.461c0.562,0.887,1.423,1.744,2.308,2.299c0.662,0.426,1.312,0.699,1.869,0.879
		c0.844,0.267,1.492,0.349,2.021,0.398c0.529,0.047,0.951,0.053,1.345,0.053h-0.003c2.282,0.002,4.563,0.002,6.846,0.002
		s4.562,0,6.843,0c1.001,0,2.018,0.004,3.048,0.004c0.723,0,1.451-0.002,2.188-0.008h-0.01c0.603-0.011,1.34-0.033,2.362-0.293
		c0.757-0.195,1.698-0.561,2.61-1.213c0.681-0.482,1.313-1.119,1.784-1.781c0.716-1.004,1.067-1.989,1.256-2.744
		c0.188-0.766,0.24-1.35,0.272-1.846v-0.016c0.02-0.348,0.021-0.62,0.021-0.822c0-0.16-0.001-0.275-0.001-0.347
		c0-22.255,0-44.511,0-66.766c-0.008-0.5,0.013-1.027-0.125-1.996c-0.057-0.365-0.143-0.8-0.312-1.321
		c-0.147-0.454-0.362-0.976-0.684-1.523c-0.278-0.477-0.642-0.969-1.068-1.411c-0.747-0.783-1.667-1.359-2.443-1.687
		c-0.587-0.252-1.099-0.391-1.525-0.481c-0.641-0.133-1.104-0.166-1.482-0.189c-0.379-0.02-0.678-0.021-0.955-0.022h-0.001
		L177.645,60.472l-0.004,6.891l0.173,0.001l0.055,0.001l0.123-2.942l-0.396,2.915c0.19,0.025,0.269,0.026,0.271,0.027l0.123-2.942
		l-0.396,2.915l0.703-5.185l-1.495,5.011c0.366,0.109,0.625,0.15,0.792,0.173l0.703-5.185l-1.495,5.011l1.72-5.76l-2.9,5.263
		c0.455,0.25,0.861,0.401,1.182,0.497l1.72-5.76l-2.9,5.263l3.027-5.494l-4.243,4.619c0.391,0.361,0.82,0.658,1.216,0.875
		l3.027-5.494l-4.243,4.619l4.229-4.603l-5.717,2.537c0.271,0.63,0.792,1.437,1.488,2.066l4.229-4.603l-5.717,2.537l5.271-2.339
		l-5.642,1.207c0.059,0.272,0.159,0.654,0.37,1.132l5.271-2.339l-5.642,1.207l3.928-0.84l-4.019,0.215
		c0.004,0.038,0.005,0.215,0.09,0.625l3.929-0.84l-4.019,0.215l0.719-0.039l-0.719,0.031v0.008l0.719-0.039l-0.719,0.031
		c0,0,0.003,0.091,0.002,0.249c0,22.255,0,44.51,0,66.766c0,0.16,0.001,0.275,0.001,0.347v0.078l0.128,0.003l-0.128-0.005v0.002
		l0.128,0.003l-0.128-0.005l1.478,0.054l-1.477-0.082l-0.001,0.028l1.478,0.054l-1.477-0.082l0.001-0.017l4.078,0.239l-3.888-1.196
		c-0.186,0.629-0.182,0.905-0.19,0.957l4.078,0.239l-3.888-1.196l5.574,1.715l-4.614-3.556c-0.537,0.695-0.82,1.38-0.96,1.841
		l5.574,1.715l-4.614-3.556l4.833,3.725l-3.365-5.09c-0.54,0.354-1.071,0.848-1.468,1.365l4.833,3.725l-3.365-5.09l3.166,4.789
		l-1.141-5.639c-0.454,0.093-1.206,0.31-2.025,0.85l3.166,4.789l-1.141-5.639l0.767,3.789l-0.023-3.875
		c-0.059,0.002-0.276-0.004-0.742,0.086l0.767,3.789l-0.023-3.875h-0.01c-0.687,0.004-1.38,0.006-2.08,0.006
		c-1,0-2.018-0.002-3.049-0.002c-2.28,0-4.562,0-6.843,0s-4.561,0-6.84-0.002h-0.003l-0.14-0.002h-0.027l-0.003,0.074l0.004-0.074
		h-0.001l-0.003,0.074l0.004-0.074l-0.168,2.92l0.472-2.883c-0.191-0.031-0.284-0.035-0.304-0.037l-0.168,2.92l0.472-2.883
		l-0.803,4.897l1.55-4.713c-0.333-0.108-0.579-0.157-0.747-0.187l-0.803,4.898l1.55-4.713l-1.797,5.466l2.833-5.006
		c-0.39-0.222-0.747-0.365-1.036-0.46l-1.797,5.466l2.833-5.006l-2.992,5.285l4.938-3.533c-0.498-0.714-1.263-1.377-1.946-1.752
		l-2.992,5.285l4.938-3.533l-4.778,3.419l5.541-1.964c-0.142-0.401-0.382-0.925-0.763-1.455l-4.778,3.419l5.541-1.964l-4.404,1.562
		l4.662-0.459c-0.018-0.141-0.046-0.488-0.258-1.103l-4.404,1.562l4.662-0.459l-2.13,0.211l2.137-0.138l-0.006-0.073l-2.13,0.211
		l2.137-0.138l-0.589,0.037l0.589-0.024v-0.012l-0.589,0.036l0.589-0.024l-0.002-0.147v0.005c-0.001-2.518,0.001-5.119-0.09-7.828
		c-0.109-3.265-2.484-5.994-5.702-6.557s-6.377,1.203-7.586,4.236c-0.287,0.711-0.646,1.268-1.184,1.861
		c-0.536,0.588-1.271,1.197-2.235,1.819h-0.001c-1.032,0.665-2.125,1.168-3.335,1.552c-1.207,0.383-2.531,0.639-3.973,0.777h0.003
		c-0.993,0.095-1.968,0.142-2.926,0.142c-4.107-0.008-7.905-0.84-11.642-2.646c-2.16-1.051-4.01-2.327-5.638-3.854
		c-1.626-1.528-3.037-3.313-4.257-5.424c-1.52-2.629-2.565-5.315-3.25-8.138c-0.685-2.818-1.001-5.776-1.001-8.896
		c0-1.292,0.055-2.608,0.16-3.952c0.226-2.868,0.804-5.542,1.729-8.073c0.928-2.53,2.205-4.923,3.879-7.217l0.001-0.001
		c2.151-2.942,4.529-5.186,7.197-6.86c2.674-1.67,5.662-2.799,9.21-3.359h-0.001c1.243-0.194,2.427-0.292,3.552-0.292
		c2.607,0.01,4.865,0.489,7.144,1.621c1.32,0.663,2.405,1.41,3.341,2.277c0.934,0.87,1.729,1.865,2.442,3.12
		c1.535,2.718,4.732,4.069,7.752,3.275c3.019-0.794,5.139-3.543,5.139-6.665c0-2.371,0-4.743,0-7.115c0-0.315,0-0.558,0.003-0.692
		l0.003-0.107l-0.132-0.006l0.132,0.009v-0.002l-0.132-0.006l0.132,0.009l-3.469-0.232l3.41,0.657
		c0.051-0.271,0.056-0.397,0.059-0.424l-3.469-0.232l3.41,0.657l-5.36-1.032l5.037,2.093c0.194-0.469,0.276-0.825,0.323-1.061
		l-5.36-1.032l5.037,2.093l-5.609-2.33l4.803,3.716c0.375-0.484,0.639-0.979,0.807-1.386l-5.609-2.33l4.803,3.716l-4.912-3.801
		l3.752,4.949c0.424-0.32,0.834-0.725,1.16-1.148l-4.912-3.801l3.752,4.949l-3.593-4.739l1.646,5.724
		c0.466-0.133,1.198-0.416,1.948-0.984l-3.593-4.739l1.646,5.724l-1.321-4.595l0.598,4.748c0.134-0.018,0.365-0.051,0.724-0.152
		l-1.321-4.595l0.598,4.748l-0.294-2.336l0.14,2.351c0.006,0,0.053-0.003,0.154-0.015l-0.294-2.336l0.14,2.351l0.051-0.002
		c0.112-0.004,0.385-0.005,0.757-0.005c4.304,0,8.604-0.001,12.904-0.001c2.15,0,4.3,0,6.449,0.001h-0.002L177.645,60.472
		 M144.83,110.48l-1.514-6.724c-0.582,0.132-1.158,0.193-1.725,0.193c-1.896,0.002-3.681-0.707-4.962-1.877
		c-0.643-0.588-1.166-1.283-1.554-2.103c-0.386-0.823-0.645-1.775-0.701-2.946c-0.012-0.261-0.018-0.518-0.018-0.766
		c0-1.217,0.144-2.235,0.401-3.094c0.265-0.863,0.622-1.578,1.196-2.318c0.775-0.972,1.469-1.475,2.315-1.861
		c0.846-0.375,1.921-0.614,3.376-0.617l0.177,0.001h0.005c1.237,0.019,2.227,0.247,3.035,0.585c1.207,0.52,2.06,1.256,2.757,2.371
		c0.684,1.116,1.188,2.677,1.201,4.806v-0.002v0.062c0,1.161-0.165,2.159-0.431,3.005c-0.406,1.27-1.016,2.194-1.809,2.93
		c-0.8,0.728-1.815,1.297-3.267,1.631L144.83,110.48l1.515,6.724c2.412-0.543,4.688-1.47,6.717-2.752
		c3.049-1.916,5.509-4.644,7.125-7.812c1.624-3.17,2.42-6.751,2.418-10.446v-0.121v-0.004c-0.015-2.886-0.491-5.676-1.447-8.257
		c-1.422-3.871-3.975-7.259-7.353-9.587c-3.37-2.342-7.489-3.582-11.782-3.633h0.005c-0.129-0.002-0.255-0.003-0.38-0.003
		c-3.002-0.002-6.074,0.517-8.967,1.801c-2.893,1.272-5.528,3.33-7.575,5.961c-1.66,2.113-2.833,4.471-3.544,6.847
		c-0.715,2.38-0.986,4.765-0.986,7.062c0,0.471,0.011,0.939,0.033,1.402c0.134,2.93,0.834,5.715,2.006,8.191
		c1.754,3.723,4.545,6.725,7.856,8.752c3.312,2.032,7.156,3.126,11.122,3.126c1.576,0.001,3.172-0.173,4.753-0.528L144.83,110.48
		 M111.334,59.362l2.748-6.319c-5.902-2.567-11.8-5.085-17.665-7.618h-0.001c-0.423-0.182-0.907-0.359-1.479-0.5
		c-0.57-0.14-1.235-0.242-1.984-0.243c-0.783-0.002-1.66,0.121-2.504,0.405c-1.277,0.417-2.395,1.194-3.148,1.972
		c-0.767,0.784-1.234,1.545-1.577,2.208l0.001-0.002c-0.522,1.001-1.043,1.552-1.676,2.005c-0.636,0.442-1.456,0.801-2.671,1.011
		h0.002c-0.805,0.136-1.537,0.197-2.189,0.197c-1.379-0.005-2.372-0.25-3.24-0.675c-0.864-0.437-1.69-1.077-2.609-2.327l0,0
		c-0.491-0.682-0.797-1.32-1.013-2.031C72.116,46.736,72,45.941,72,45.003c0-0.672,0.062-1.415,0.191-2.219V42.78
		c0.15-0.941,0.388-1.702,0.681-2.314c0.297-0.615,0.636-1.095,1.117-1.563c0.825-0.791,1.562-1.237,2.339-1.544
		c0.777-0.3,1.627-0.463,2.691-0.465c0.665,0,1.406,0.068,2.225,0.22h0.002c1.405,0.259,2.399,0.665,3.06,1.103
		c0.335,0.222,0.602,0.452,0.85,0.731c0.247,0.28,0.479,0.614,0.71,1.081l0.005,0.009c0.226,0.456,0.518,0.955,0.924,1.476
		c0.601,0.776,1.522,1.615,2.664,2.169c0.564,0.278,1.165,0.481,1.74,0.604c0.577,0.125,1.125,0.171,1.613,0.171
		c1.039-0.005,1.789-0.189,2.33-0.346c0.542-0.163,0.896-0.313,1.148-0.419l-0.002,0.001c5.396-2.295,10.821-4.57,16.254-6.867
		l0.003-0.001c0.454-0.192,0.885-0.373,1.363-0.594c0.36-0.167,0.75-0.356,1.22-0.631c0.353-0.208,0.752-0.465,1.204-0.833
		c0.337-0.276,0.704-0.616,1.069-1.043c0.547-0.635,1.082-1.494,1.414-2.428c0.34-0.933,0.468-1.892,0.464-2.679
		c-0.002-0.817-0.115-1.468-0.236-1.993c-0.188-0.789-0.396-1.329-0.587-1.817c-0.192-0.484-0.38-0.91-0.577-1.359v-0.001
		c-2.07-4.734-4.932-8.924-8.531-12.364c-3.597-3.445-7.904-6.116-12.716-7.978C91.06,0.941,85.306-0.003,79.614,0
		c-1.974,0-3.943,0.112-5.902,0.322h-0.001C67.801,0.954,62.2,2.605,57.158,5.385c-5.044,2.771-9.487,6.662-13.142,11.511
		c-3.167,4.19-5.438,8.754-6.903,13.488c-1.47,4.736-2.149,9.631-2.249,14.573c-0.006,0.287,0.001,0.489,0.028,0.775
		c0.199,2.059,0.268,4.571,0.729,7.461c0.639,3.925,1.679,7.635,3.157,11.085c2.21,5.175,5.436,9.754,9.567,13.476
		c4.128,3.73,9.115,6.59,14.768,8.606c5.293,1.892,10.679,2.636,15.935,2.634c2.25,0,4.481-0.135,6.688-0.372
		c4.466-0.479,8.994-1.594,13.321-3.693h-0.001c4.505-2.179,8.366-5.103,11.565-8.516c3.205-3.413,5.757-7.295,7.825-11.43
		l0.001-0.003c0.263-0.528,0.506-1.121,0.693-1.802c0.185-0.68,0.312-1.454,0.312-2.302c0.002-0.879-0.145-1.836-0.466-2.745
		c-0.475-1.373-1.337-2.559-2.236-3.375c-0.903-0.828-1.821-1.345-2.667-1.715L111.334,59.362l-2.748,6.319l1.545-3.555
		l-2.229,3.163c0.297,0.209,0.53,0.324,0.685,0.392l1.545-3.555l-2.229,3.163l2.989-4.238l-4.507,2.536
		c0.47,0.836,1.078,1.396,1.518,1.702l2.989-4.238l-4.507,2.536l4.815-2.71h-5.53c-0.012,0.832,0.237,1.886,0.714,2.71l4.815-2.71
		h-5.53h5.023l-4.852-1.322c-0.092,0.338-0.172,0.785-0.173,1.322h5.023l-4.852-1.322l3.825,1.042l-3.551-1.773
		c-0.078,0.156-0.181,0.391-0.274,0.73l3.825,1.042l-3.551-1.773l0.001-0.003c-1.584,3.167-3.414,5.89-5.544,8.159
		c-2.137,2.27-4.566,4.107-7.529,5.548H93.04c-2.657,1.287-5.569,2.045-8.781,2.391c-1.775,0.19-3.516,0.293-5.215,0.293
		c-3.978-0.002-7.71-0.552-11.299-1.832c-2.804-1.001-5.217-2.215-7.293-3.614c-3.112-2.105-5.485-4.602-7.34-7.655
		c-1.846-3.054-3.169-6.71-3.89-11.132c-0.289-1.719-0.377-3.916-0.609-6.519l-6.862,0.635l6.891,0.14
		c0.079-3.87,0.604-7.454,1.632-10.766c1.032-3.315,2.554-6.369,4.74-9.27c2.591-3.423,5.49-5.92,8.79-7.742
		c3.301-1.814,7.043-2.963,11.377-3.432h-0.001c1.501-0.161,2.979-0.243,4.432-0.243c4.195,0.003,8.167,0.676,12.031,2.172
		c3.293,1.281,5.952,2.967,8.17,5.085c2.214,2.124,4.015,4.704,5.437,7.939v-0.001c0.253,0.574,0.417,0.972,0.437,1.03v0.002
		l2.819-0.951l-2.907,0.613c0.047,0.219,0.082,0.318,0.088,0.338l2.819-0.951l-2.907,0.613l4.994-1.053h-5.1
		c0.001,0.49,0.062,0.835,0.105,1.053l4.994-1.053h-5.1h5.849l-5.64-1.54c-0.157,0.571-0.21,1.114-0.209,1.54h5.849l-5.64-1.54
		l5.795,1.583l-5.188-3.028c-0.257,0.437-0.473,0.947-0.606,1.445l5.795,1.583l-5.188-3.028l4.884,2.85l-3.559-4.408
		c-0.342,0.275-0.874,0.783-1.325,1.558l4.884,2.85l-3.559-4.408l2.603,3.224l-2.082-3.586c-0.084,0.05-0.257,0.152-0.521,0.363
		l2.603,3.224l-2.082-3.586l0.965,1.663l-0.903-1.698l-0.062,0.035l0.965,1.663l-0.903-1.698l0.021,0.041l-0.021-0.042h-0.001
		l0.021,0.041l-0.021-0.042c-0.055,0.031-0.458,0.21-1.049,0.458l0.003-0.001c-5.409,2.287-10.842,4.565-16.278,6.878h-0.002
		l-0.008,0.003l1.344,3.222l-0.95-3.354c-0.29,0.084-0.393,0.133-0.394,0.132l1.344,3.222l-0.95-3.354l1.532,5.407v-5.613
		c-0.754,0.003-1.244,0.127-1.532,0.206l1.532,5.407v-5.613v6.149l1.767-5.888c-0.646-0.195-1.266-0.262-1.767-0.261v6.149
		l1.767-5.888l-1.79,5.965l3.199-5.344c-0.438-0.262-0.926-0.477-1.409-0.621l-1.79,5.965l3.199-5.344l-3.112,5.199l4.65-3.889
		c-0.356-0.429-0.879-0.917-1.539-1.31l-3.112,5.199l4.65-3.889l-4.15,3.471l4.856-2.394c-0.136-0.272-0.347-0.644-0.707-1.077
		l-4.15,3.471l4.856-2.394l0.005,0.009c-0.746-1.521-1.679-2.918-2.76-4.139c-1.619-1.836-3.562-3.249-5.574-4.25
		c-2.018-1.006-4.098-1.623-6.148-2.003h0.002c-1.551-0.288-3.133-0.451-4.736-0.451c-2.557-0.002-5.184,0.425-7.694,1.406
		c-2.512,0.974-4.874,2.499-6.91,4.472c-1.705,1.643-3.037,3.554-3.982,5.543c-0.949,1.991-1.526,4.048-1.851,6.069v-0.004
		c-0.23,1.433-0.365,2.903-0.366,4.407c0,2.092,0.267,4.256,0.909,6.4c0.64,2.143,1.664,4.251,3.066,6.177l0,0
		c2.045,2.828,4.666,5.108,7.64,6.572c2.971,1.476,6.206,2.113,9.356,2.107c1.506,0,3.002-0.139,4.482-0.389h0.002
		c2.91-0.488,5.776-1.552,8.285-3.314c2.512-1.75,4.595-4.186,6.031-7.007l0.001-0.002l-4.02-2.057l3.574,2.752
		c0.229-0.299,0.362-0.534,0.445-0.695l-4.02-2.057l3.574,2.752l-4.468-3.441l2.654,4.963c0.877-0.467,1.478-1.081,1.813-1.522
		l-4.468-3.441l2.654,4.963l-2.778-5.195v5.896c0.829,0.012,1.912-0.224,2.778-0.7l-2.778-5.195v5.896v-5.436l-1.293,5.282
		c0.327,0.08,0.762,0.153,1.293,0.153V53.03l-1.293,5.282l1.058-4.319l-1.764,4.085c0.152,0.065,0.377,0.153,0.706,0.233
		l1.058-4.319l-1.764,4.085h-0.001c5.898,2.547,11.785,5.062,17.632,7.604L111.334,59.362 M233.14,120.362l6.811-1.05
		c-0.331-2.147-0.664-4.329-1.03-6.538c-0.115-0.686-0.277-1.432-0.614-2.309c-0.254-0.651-0.617-1.387-1.172-2.129
		c-0.412-0.555-0.936-1.104-1.538-1.574c-0.903-0.713-1.964-1.202-2.907-1.457c-0.951-0.262-1.784-0.325-2.488-0.326
		c-0.71,0.001-1.308,0.066-1.855,0.146c-1.252,0.194-2.206,0.311-2.791,0.305l-0.117-0.001h-0.003
		c-0.274-0.005-0.471-0.032-0.584-0.058l-0.138-0.037l-0.007,0.017l0.008-0.017h-0.001l-0.007,0.017l0.008-0.017l-0.185,0.375
		l0.278-0.311l-0.094-0.064l-0.185,0.375l0.278-0.311l-0.144,0.159l0.164-0.14l-0.021-0.021l-0.144,0.159l0.164-0.139l-0.035-0.051
		l-0.003-0.005l-0.307,0.196l0.326-0.164l-0.02-0.032l-0.307,0.196l0.326-0.164l-0.125,0.062l0.13-0.053l-0.005-0.011l-0.125,0.063
		l0.13-0.054c-0.001-0.002-0.034-0.084-0.064-0.3c-0.031-0.214-0.055-0.555-0.055-1.01v-0.002
		c-0.001-3.689-0.001-7.381-0.001-11.069c0-4.52,0-9.039,0.002-13.558v-0.002h-0.819l0.819,0.018v-0.018h-0.819l0.819,0.018
		c0,0,0.001-0.057,0.01-0.183c0.007-0.126,0.021-0.318,0.034-0.564l-6.882-0.356v6.891c0.233,0,0.412-0.001,0.526-0.001h0.13
		c3.339,0.047,6.702,0.105,10.09,0.139h0.006l0.201,0.001c0.712-0.008,1.503-0.011,2.662-0.264c0.434-0.099,0.92-0.241,1.45-0.464
		c0.921-0.379,1.993-1.068,2.817-1.991c0.623-0.684,1.086-1.453,1.389-2.146c0.457-1.051,0.607-1.907,0.695-2.59
		c0.082-0.687,0.093-1.232,0.096-1.742c0.002-1.897,0.003-3.792,0.003-5.686c0-2.705-0.001-5.407-0.001-8.107
		c-0.008-0.558,0.012-1.146-0.145-2.165c-0.063-0.384-0.159-0.836-0.338-1.367c-0.157-0.462-0.382-0.987-0.709-1.53
		c-0.285-0.474-0.65-0.956-1.074-1.389c-0.742-0.766-1.643-1.331-2.414-1.662c-0.583-0.253-1.097-0.397-1.533-0.493
		c-0.654-0.141-1.143-0.181-1.553-0.207c-0.409-0.023-0.743-0.027-1.059-0.028h0.004c-1.368-0.003-2.733-0.004-4.098-0.004
		c-2,0-3.995,0.002-5.985,0.002h0.019c-0.133,0-0.265,0-0.397,0c-0.266,0-0.534,0-0.836,0v6.891h6.892
		c0-0.429-0.003-0.765-0.003-1.017c0-0.144,0.001-0.258,0.003-0.356v-0.021c0.083-4.967,0.183-9.955,0.251-14.966v-0.002
		l0.001-0.188c-0.003-1.007-0.099-2.12-0.484-3.366c-0.288-0.928-0.762-1.933-1.467-2.852c-0.523-0.688-1.173-1.314-1.871-1.812
		c-1.051-0.754-2.177-1.207-3.188-1.458c-1.019-0.252-1.938-0.327-2.791-0.331c-3.005-0.009-6.007-0.013-9.007-0.013
		c-3.431,0-6.856,0.004-10.28,0.009h-0.002c-0.522,0.009-1.151,0.001-2.177,0.214c-0.385,0.084-0.826,0.207-1.316,0.406
		c-0.854,0.337-1.878,0.969-2.679,1.833c-0.604,0.64-1.058,1.364-1.353,2.007c-0.445,0.978-0.59,1.748-0.677,2.326
		c-0.082,0.583-0.097,1.006-0.107,1.377v0.001c-0.123,4.981-0.244,9.965-0.357,14.954c-0.01,0.437-0.014,0.853-0.014,1.249
		c0,0.688,0.009,1.314,0.009,1.858h6.891l-1.826-6.645c-0.152,0.042-0.292,0.083-0.392,0.115l-0.141,0.044l0.461,1.454l-0.451-1.457
		l-0.01,0.002l0.461,1.454l-0.451-1.457l1.722,5.563l-1.236-5.69c-0.313,0.069-0.449,0.116-0.485,0.126l1.722,5.563l-1.236-5.69
		l1.393,6.405V53.56c-0.572-0.001-1.085,0.081-1.393,0.149l1.393,6.405V53.56h-0.039c-1.709,0.01-3.433,0.013-5.17,0.02h0.006
		c-0.546,0.01-1.169,0.001-2.188,0.191c-0.382,0.075-0.822,0.187-1.323,0.374c-0.437,0.164-0.918,0.389-1.407,0.696
		c-0.859,0.529-1.709,1.348-2.275,2.208c-0.431,0.644-0.716,1.283-0.903,1.835c-0.28,0.835-0.367,1.478-0.422,1.992
		c-0.05,0.515-0.056,0.916-0.058,1.279v-0.003c-0.006,2.396-0.008,4.792-0.008,7.188c0,2.502,0.003,5.004,0.008,7.505
		c0.009,0.552,0.004,1.206,0.224,2.251c0.086,0.391,0.214,0.84,0.417,1.337c0.346,0.864,0.99,1.902,1.876,2.71
		c0.656,0.609,1.399,1.065,2.062,1.36c1.005,0.444,1.801,0.58,2.402,0.66c0.605,0.074,1.052,0.082,1.445,0.085
		c0.749,0.003,1.493,0.004,2.242,0.004c1.146,0,2.307-0.002,3.519-0.002v-6.89h-6.892c0,0.304,0,0.561,0,0.812
		c0,0.125,0,0.249,0,0.376v-0.013c0.011,8.852,0.002,17.721,0.041,26.608c0.024,4.508,0.329,9.37,1.804,14.383
		c0.925,3.131,2.3,6.2,4.372,8.956c2.062,2.755,4.841,5.138,8.171,6.81h0.001c2.1,1.062,4.237,1.812,6.339,2.348
		c2.104,0.533,4.172,0.854,6.182,1.061h-0.002c1.248,0.129,2.486,0.191,3.713,0.191c3.323,0.001,6.55-0.465,9.629-1.305
		c3.081-0.838,6.014-2.043,8.808-3.508l0.003-0.002c0.588-0.31,1.201-0.703,1.801-1.219c0.897-0.764,1.752-1.838,2.293-3.062
		c0.55-1.221,0.77-2.52,0.765-3.641c0-0.609-0.059-1.175-0.147-1.697v-0.002c-0.332-1.91-0.609-3.963-0.941-6.138l-0.001-0.007
		L233.14,120.362l-6.812,1.043c0.309,2.01,0.595,4.151,0.984,6.402v-0.003l3.751-0.647h-3.805c0,0.279,0.026,0.494,0.054,0.647
		l3.751-0.647h-3.805h4.747l-4.571-1.262c-0.133,0.479-0.176,0.92-0.176,1.262h4.747l-4.571-1.262l4.921,1.357l-3.826-3.381
		c-0.479,0.528-0.906,1.303-1.095,2.022l4.921,1.356l-3.826-3.381l3.297,2.914l-2.054-3.91c-0.292,0.153-0.767,0.457-1.243,0.996
		l3.297,2.914l-2.054-3.91h0.003c-2.032,1.065-4.032,1.873-6.021,2.412c-1.989,0.541-3.966,0.819-6.012,0.82
		c-0.756,0-1.521-0.038-2.302-0.117l-0.002-0.002c-1.52-0.154-2.917-0.383-4.194-0.708c-1.279-0.325-2.436-0.743-3.521-1.292
		l0.001,0.002c-1.496-0.768-2.492-1.641-3.372-2.794c-0.868-1.153-1.6-2.647-2.167-4.571c-0.931-3.133-1.228-6.637-1.24-10.543
		c-0.039-8.838-0.03-17.69-0.041-26.563v-0.013c0-0.106,0-0.216,0-0.333c0-0.233,0-0.494,0-0.812c0-1.814-0.735-3.59-2.02-4.873
		c-1.282-1.283-3.058-2.019-4.872-2.019c-1.229,0-2.391,0.002-3.519,0.002c-0.738,0-1.461-0.001-2.181-0.004h-0.043l-0.132,4.124
		l1.122-3.947c-0.724-0.195-0.982-0.167-0.99-0.176l-0.132,4.124l1.122-3.947l-1.593,5.602l2.575-5.223
		c-0.378-0.186-0.712-0.303-0.98-0.379l-1.594,5.602l2.575-5.223l-2.734,5.545l4.763-3.939c-0.576-0.709-1.369-1.292-2.028-1.606
		l-2.734,5.545l4.763-3.939l-4.709,3.895l5.644-2.349c-0.189-0.46-0.498-1.02-0.935-1.546l-4.709,3.895l5.644-2.349l-4.919,2.048
		l5.3-0.64c-0.032-0.243-0.094-0.708-0.381-1.408l-4.919,2.048l5.3-0.64l-3.187,0.385l3.207-0.152
		c-0.002-0.036-0.006-0.109-0.021-0.233l-3.187,0.385l3.207-0.152h0.001c-0.005-2.492-0.008-4.983-0.008-7.475
		c0-2.386,0.002-4.771,0.008-7.155v-0.003l0.001-0.078l-0.105-0.003l0.104,0.004v-0.001l-0.105-0.003l0.104,0.004l-4.373-0.197
		l4.133,1.367c0.254-0.811,0.229-1.133,0.24-1.169l-4.373-0.197l4.133,1.367l-5.601-1.852l5.126,2.916
		c0.226-0.397,0.375-0.763,0.474-1.063l-5.601-1.852l5.126,2.916l-5.367-3.052l3.588,5.023c0.722-0.503,1.395-1.274,1.778-1.971
		l-5.367-3.052l3.588,5.023l-3.487-4.881l2.008,5.655c0.412-0.146,0.941-0.39,1.479-0.774l-3.487-4.881l2.008,5.655l-1.654-4.659
		l0.494,4.93c0.166-0.021,0.533-0.053,1.16-0.271l-1.654-4.659l0.494,4.93l-0.203-2.027l0.08,2.036l0.124-0.009l-0.203-2.027
		l0.08,2.036l0.095-0.001h0.006c1.715-0.007,3.444-0.01,5.189-0.02H193.6c0.628,0.001,1.192-0.089,1.551-0.169
		c0.549-0.127,0.699-0.193,0.753-0.205l0.021-0.007l-0.159-0.512l0.151,0.514l0.008-0.002l-0.159-0.512l0.151,0.514l-0.311-1.05
		l0.29,1.056l0.021-0.006l-0.311-1.05l0.29,1.056c2.989-0.821,5.064-3.543,5.064-6.645c0-0.664-0.008-1.285-0.008-1.858
		c0-0.33,0.002-0.643,0.009-0.938c0.113-4.97,0.235-9.945,0.358-14.924v0.001l0.001-0.033l-4.266-0.22l4.072,1.222
		c0.205-0.718,0.186-0.983,0.193-1.002l-4.267-0.22l4.073,1.222l-5.638-1.692l5.248,2.663c0.188-0.373,0.309-0.703,0.39-0.971
		l-5.638-1.692l5.248,2.663l-5.552-2.817l3.938,4.819c0.71-0.57,1.294-1.352,1.614-2.002l-5.552-2.817l3.938,4.819l-3.9-4.773
		l2.35,5.701c0.463-0.189,1.024-0.496,1.551-0.928l-3.9-4.773l2.35,5.701l-2.074-5.031l0.644,5.413
		c0.253-0.034,0.726-0.096,1.431-0.382l-2.074-5.031l0.644,5.413l-0.409-3.444l0.16,3.465c0.041-0.002,0.121-0.006,0.249-0.021
		l-0.409-3.444l0.16,3.465l-0.064-1.38l0.029,1.382l0.035-0.001l-0.064-1.38l0.029,1.382h0.015h-0.002
		c3.423-0.005,6.843-0.009,10.262-0.009c2.99,0,5.979,0.003,8.964,0.013l0.003-1.318l-0.173,1.303
		c0.12,0.016,0.168,0.015,0.168,0.015l0.005-1.318l-0.173,1.303l0.498-3.766l-1.701,3.374c0.567,0.285,1,0.364,1.203,0.392
		l0.498-3.766l-1.701,3.374l2.191-4.347l-3.498,3.381c0.402,0.419,0.884,0.756,1.306,0.965l2.191-4.347l-3.498,3.381l3.521-3.404
		l-4.264,2.412c0.186,0.329,0.44,0.68,0.743,0.992l3.521-3.404l-4.264,2.412l3.632-2.054l-4.096,0.854
		c0.058,0.271,0.184,0.703,0.464,1.2l3.632-2.054l-4.096,0.854l1.911-0.398h-1.963c0.002,0-0.003,0.124,0.053,0.398l1.911-0.398
		h-1.963v0.006v-0.002c-0.067,4.951-0.167,9.925-0.251,14.92v-0.021c-0.004,0.227-0.005,0.436-0.006,0.631
		c0,0.352,0.003,0.665,0.003,1.017c0,1.814,0.735,3.589,2.019,4.873c1.284,1.284,3.059,2.019,4.873,2.019c0.315,0,0.587,0,0.835,0
		c0.125,0,0.244,0,0.361,0h0.019c2,0,3.995-0.002,5.986-0.002c1.358,0,2.713,0.001,4.066,0.004h0.004
		c0.165,0,0.265,0.003,0.267,0.003l0.131-2.667l-0.389,2.638c0.187,0.027,0.258,0.028,0.258,0.028l0.131-2.667l-0.389,2.638
		l0.735-4.987l-1.502,4.81c0.354,0.11,0.604,0.153,0.767,0.178l0.735-4.987l-1.502,4.81l1.752-5.611l-2.885,5.121
		c0.434,0.243,0.823,0.394,1.132,0.491l1.752-5.611l-2.885,5.121l3.026-5.373l-4.182,4.53c0.372,0.345,0.777,0.63,1.155,0.842
		l3.026-5.373l-4.182,4.53l4.167-4.515l-5.598,2.542c0.269,0.606,0.771,1.372,1.431,1.973l4.167-4.515l-5.598,2.542l5.12-2.325
		l-5.491,1.229c0.061,0.265,0.163,0.637,0.371,1.096l5.12-2.325l-5.491,1.229l3.696-0.828l-3.789,0.222
		c0.004,0.032,0.006,0.205,0.093,0.606l3.696-0.828l-3.789,0.222v0.001c0.001,0.027,0.003,0.122,0.003,0.266
		c0,2.705,0.001,5.408,0.001,8.107c0,1.89,0,3.778-0.003,5.665l-0.002,0.15l-0.001,0.032v0.004l3.902,0.257l-3.643-1.345
		c-0.264,0.745-0.251,1.067-0.26,1.088l3.902,0.257l-3.643-1.345l5.376,1.986l-4.097-3.996c-0.662,0.671-1.085,1.466-1.279,2.01
		l5.376,1.986l-4.097-3.996l4.174,4.071l-2.603-5.22c-0.499,0.245-1.083,0.646-1.571,1.149l4.174,4.071l-2.603-5.22l2.182,4.375
		l-0.673-4.861c-0.228,0.036-0.748,0.113-1.509,0.486l2.182,4.375l-0.673-4.861l0.286,2.067l-0.109-2.085
		c-0.005,0-0.06,0.002-0.177,0.019l0.286,2.067l-0.109-2.085l-0.121,0.001h-0.075h0.006c-3.32-0.033-6.665-0.09-10.033-0.138
		c-0.122-0.002-0.229-0.002-0.323-0.002c-0.194,0-0.353,0.001-0.527,0.001c-3.658,0-6.691,2.88-6.882,6.535
		c-0.007,0.223-0.057,0.659-0.062,1.442V79.47c-0.001,4.521-0.002,9.042-0.002,13.562c0,3.691,0,7.383,0.001,11.074V104.1
		c0.002,1.152,0.063,2.486,0.372,3.977c0.305,1.482,0.886,3.135,1.882,4.693l-0.002-0.005c0.686,1.081,1.52,2.073,2.467,2.917
		c1.418,1.271,3.078,2.18,4.721,2.727c1.648,0.551,3.273,0.77,4.809,0.801h-0.003c0.132,0.002,0.264,0.004,0.396,0.004
		c1.959-0.006,3.569-0.271,4.844-0.457l0.028-0.004l-0.226-1.859v1.867c0.163,0,0.225-0.01,0.225-0.008l-0.226-1.859v1.867v-4.611
		l-1.513,4.339c0.735,0.253,1.262,0.271,1.513,0.272v-4.611l-1.513,4.339l1.815-5.209l-3.527,4.237
		c0.528,0.445,1.168,0.785,1.712,0.972l1.815-5.209l-3.527,4.237l3.485-4.188l-4.453,3.144c0.238,0.34,0.569,0.714,0.967,1.044
		l3.485-4.188l-4.453,3.144l3.752-2.649l-4.358,1.482c0.081,0.236,0.245,0.652,0.606,1.167l3.752-2.649l-4.358,1.482l2.572-0.875
		l-2.646,0.629c0.011,0.045,0.031,0.125,0.071,0.246l2.573-0.875l-2.646,0.629l1.075-0.256l-1.083,0.216l0.009,0.04l1.075-0.256
		l-1.083,0.216l0.057-0.011l-0.057,0.01v0.001l0.057-0.011l-0.057,0.01l0.002,0.012c0.347,2.092,0.672,4.223,1.005,6.383
		l-0.001-0.006L233.14,120.362 M366.472,59.503l1.952-6.609c-3.414-1.009-6.851-1.434-10.197-1.433
		c-1.777,0-3.533,0.118-5.261,0.328c-3.793,0.458-7.459,1.584-10.762,3.475c-3.304,1.883-6.197,4.521-8.509,7.732L333.694,63
		c-0.665,0.925-1.181,1.79-1.625,2.559c-0.442,0.771-0.816,1.448-1.18,2.054l5.918,3.531h6.891v-1.162c0-3.617,0-7.234,0-10.851
		c0-7.234,0-14.469-0.003-21.704v0.002c0-0.75-0.009-1.592-0.072-2.524l0.001,0.022c-0.044-0.646-0.154-1.397-0.452-2.254
		c-0.225-0.64-0.562-1.341-1.058-2.023c-0.369-0.511-0.827-1.006-1.35-1.434c-0.782-0.646-1.698-1.12-2.567-1.394
		c-0.874-0.278-1.691-0.375-2.408-0.383h-0.021l-0.02,2.353l0.089-2.352l-0.069-0.001l-0.02,2.353l0.089-2.352l-0.021,0.579
		l0.032-0.579h-0.011l-0.021,0.579l0.032-0.579c-0.03,0.005-0.429-0.049-1.207-0.056h0.004c-3.64-0.002-7.28-0.003-10.919-0.003
		c-2.944,0-5.889,0-8.832,0.001c-0.234,0-0.474,0-0.76,0.005c-0.25,0.005-0.537,0.014-0.913,0.049
		c-0.33,0.032-0.732,0.081-1.253,0.205c-0.452,0.11-1.004,0.281-1.623,0.586c-0.54,0.265-1.128,0.642-1.663,1.122
		c-0.469,0.417-0.89,0.907-1.219,1.4c-0.582,0.871-0.878,1.701-1.042,2.33c-0.239,0.956-0.254,1.532-0.279,1.978
		c-0.019,0.442-0.016,0.76-0.016,1.074c0,30.955,0,61.913,0,92.868c0,0.063-0.002,0.201-0.003,0.41c0,0.137,0.002,0.309,0.01,0.516
		l-0.001-0.033c0.006,0.208,0.014,0.434,0.031,0.716c0.019,0.248,0.042,0.541,0.103,0.923c0.054,0.334,0.133,0.739,0.291,1.238
		c0.14,0.436,0.343,0.943,0.656,1.488c0.272,0.477,0.634,0.975,1.064,1.425c0.755,0.8,1.703,1.389,2.488,1.712
		c0.594,0.25,1.104,0.381,1.521,0.465c0.628,0.123,1.062,0.148,1.41,0.168c0.349,0.016,0.612,0.018,0.856,0.018h0.003
		c3.684,0,7.37,0.004,11.061,0.004c2.834,0,5.671-0.002,8.509-0.008h0.006h0.037c0.424-0.002,0.78,0.015,1.337,0.017
		c0.259-0.001,0.563-0.003,0.982-0.036c0.366-0.031,0.824-0.084,1.418-0.232c0.517-0.133,1.146-0.347,1.82-0.718
		c0.588-0.321,1.2-0.772,1.72-1.305c0.456-0.464,0.836-0.979,1.122-1.472c0.504-0.871,0.733-1.635,0.869-2.219
		c0.194-0.886,0.213-1.441,0.238-1.916c0.018-0.471,0.017-0.857,0.017-1.267c0-0.101,0-0.203,0-0.31v-0.104v-0.018
		c0.009-14.049-0.001-28.092,0.021-42.125v0.002l-2.696-0.005l2.637,0.558c0.046-0.223,0.06-0.373,0.061-0.553l-2.696-0.005
		l2.637,0.558l-3.694-0.781l3.337,1.75c0.23-0.449,0.31-0.747,0.357-0.969l-3.694-0.781l3.337,1.75l0.005-0.008
		c0.289-0.553,0.571-0.957,0.821-1.245c0.383-0.432,0.657-0.617,0.991-0.771c0.337-0.146,0.788-0.276,1.604-0.281l0.14,0.001h0.008
		c0.836,0.015,1.291,0.148,1.427,0.21l0.106,0.059c0.021,0.017,0.057,0.044,0.145,0.166l0.003,0.003
		c0.127,0.187,0.207,0.338,0.305,0.73c0.093,0.384,0.163,1.003,0.161,1.851c0.002,13.652,0.001,27.305,0.002,40.959
		c0,0.221,0,0.455,0.01,0.741c0.009,0.253,0.023,0.548,0.068,0.929c0.04,0.334,0.104,0.739,0.241,1.246
		c0.121,0.439,0.303,0.963,0.602,1.532c0.259,0.497,0.611,1.026,1.047,1.513c0.761,0.861,1.755,1.51,2.577,1.857
		c0.623,0.27,1.156,0.408,1.59,0.497c0.651,0.128,1.099,0.151,1.457,0.172c0.357,0.017,0.63,0.017,0.883,0.017
		c2.56,0.002,5.115,0.002,7.672,0.002c3.408,0,6.816,0,10.224,0c0.537,0,1.099,0.002,1.684,0.002c0.366,0,0.741,0,1.126-0.004
		h-0.008c0.524-0.014,1.152-0.012,2.164-0.225c0.378-0.083,0.812-0.204,1.296-0.398c0.838-0.33,1.849-0.94,2.65-1.787
		c0.604-0.625,1.066-1.34,1.373-1.979c0.462-0.974,0.619-1.755,0.716-2.343c0.09-0.594,0.11-1.028,0.126-1.41l-0.001,0.031
		c0.009-0.219,0.01-0.396,0.01-0.534c0-0.171-0.002-0.28-0.002-0.326c0.001-8.015,0.001-16.03,0.001-24.046
		c0-8.018,0-16.032,0-24.048c0.001-3.567-0.384-7.271-1.463-10.991l-0.002-0.004c-0.574-1.975-1.331-3.877-2.307-5.669
		c-1.455-2.687-3.428-5.125-5.87-7.079c-2.438-1.96-5.315-3.414-8.45-4.336L366.472,59.503l-1.953,6.608
		c1.078,0.319,1.958,0.711,2.703,1.157c1.116,0.674,1.954,1.454,2.706,2.49c0.744,1.036,1.392,2.359,1.891,4.071l-0.002-0.004
		c0.64,2.2,0.917,4.563,0.918,7.147c-0.001,8.016-0.001,16.032-0.001,24.049s0,16.03,0,24.046c0,0.172,0.001,0.279,0.001,0.326
		v0.023l1.535,0.023l-1.534-0.061l-0.001,0.037l1.535,0.022l-1.534-0.062l-0.001,0.031l-0.002,0.035l4.217,0.264l-4.009-1.266
		c-0.215,0.717-0.198,0.984-0.208,1.002l4.217,0.264l-4.009-1.266l5.58,1.762l-5.179-2.723c-0.192,0.367-0.317,0.695-0.401,0.961
		l5.58,1.762l-5.179-2.723l5.479,2.881l-3.871-4.828c-0.695,0.549-1.282,1.307-1.608,1.947l5.479,2.881l-3.871-4.828l3.824,4.771
		l-2.315-5.66c-0.447,0.183-0.991,0.474-1.509,0.89l3.824,4.771l-2.315-5.66l2.021,4.941l-0.654-5.31
		c-0.235,0.032-0.688,0.093-1.367,0.367l2.021,4.942l-0.654-5.311l0.396,3.207l-0.17-3.229c-0.034,0.002-0.105,0.006-0.227,0.021
		l0.396,3.207l-0.17-3.229h-0.001h-0.009c-0.316,0.002-0.644,0.004-0.979,0.004c-0.537,0-1.099-0.002-1.684-0.002
		c-3.408,0-6.816,0-10.224,0c-2.556,0-5.108,0-7.664-0.002c-0.157,0-0.256-0.002-0.259-0.002l-0.105,2.973l0.364-2.949
		c-0.188-0.021-0.259-0.021-0.259-0.023l-0.105,2.974l0.364-2.949l-0.657,5.308l1.462-5.142c-0.38-0.106-0.64-0.146-0.805-0.166
		l-0.657,5.308l1.462-5.142l-1.672,5.877l2.909-5.37c-0.481-0.262-0.908-0.412-1.237-0.507l-1.672,5.877l2.909-5.37l-3.026,5.59
		l4.318-4.664c-0.415-0.387-0.873-0.701-1.292-0.926l-3.026,5.59l4.318-4.664l-4.302,4.646l5.84-2.454
		c-0.265-0.652-0.799-1.518-1.538-2.191l-4.302,4.646l5.84-2.454l-5.393,2.267l5.745-1.115c-0.055-0.27-0.146-0.654-0.354-1.15
		l-5.393,2.268l5.745-1.116l-3.954,0.769l4.03-0.178c-0.004-0.025-0.002-0.186-0.076-0.591l-3.954,0.769l4.03-0.178l-0.3,0.014
		l0.3-0.011v-0.003l-0.3,0.014l0.3-0.011c-0.001-0.009-0.003-0.112-0.003-0.276c-0.001-13.654,0-27.309-0.002-40.96
		c-0.002-1.5-0.1-3.185-0.527-5.012c-0.425-1.819-1.219-3.786-2.502-5.576l0.002,0.003c-0.788-1.108-1.727-2.105-2.764-2.932
		c-1.557-1.248-3.312-2.085-5.001-2.576c-1.693-0.494-3.322-0.672-4.846-0.706h0.008c-0.153-0.003-0.302-0.005-0.443-0.005
		c-1.653,0-3.303,0.202-4.893,0.642c-2.386,0.652-4.613,1.866-6.426,3.462c-1.822,1.595-3.234,3.523-4.314,5.59l0.005-0.008
		c-0.487,0.937-0.75,1.788-0.92,2.582c-0.167,0.794-0.235,1.534-0.237,2.274v0.002c-0.021,14.055-0.012,28.102-0.021,42.139v-0.018
		v0.145c0,0.108,0,0.211,0,0.31c0,0.248-0.001,0.446-0.003,0.575l-0.003,0.127l-0.002,0.031l4.343,0.263l-4.143-1.267
		c-0.209,0.725-0.19,0.981-0.2,1.004l4.343,0.263l-4.143-1.267l5.707,1.744l-5.306-2.729c-0.195,0.382-0.318,0.718-0.401,0.985
		l5.707,1.744l-5.306-2.73l5.608,2.887l-3.907-4.947c-0.754,0.584-1.369,1.396-1.701,2.062l5.608,2.886l-3.907-4.946l3.88,4.912
		l-2.25-5.845c-0.479,0.185-1.071,0.487-1.63,0.933l3.88,4.912l-2.25-5.845l2.006,5.211l-0.562-5.563
		c-0.242,0.028-0.713,0.078-1.444,0.354l2.006,5.211l-0.562-5.562l0.355,3.519l-0.128-3.535c-0.032,0.001-0.104,0.005-0.229,0.017
		l0.355,3.52l-0.128-3.535l0.039,1.08l-0.017-1.081l-0.022,0.001l0.039,1.08l-0.017-1.081h-0.027
		c-0.135,0.002-0.652-0.017-1.337-0.017h-0.08h0.006c-2.822,0.007-5.648,0.009-8.477,0.009c-3.682,0-7.367-0.003-11.057-0.004h0.003
		l-0.165-0.001l-0.056-0.001l-0.105,3.038l0.363-3.016c-0.184-0.021-0.256-0.022-0.258-0.022l-0.105,3.038l0.363-3.016l-0.64,5.303
		l1.404-5.151c-0.359-0.097-0.606-0.132-0.766-0.151l-0.64,5.303l1.404-5.15l-1.604,5.883l2.778-5.427
		c-0.46-0.233-0.861-0.371-1.174-0.456l-1.604,5.883l2.778-5.427l-2.896,5.655l4.145-4.813c-0.409-0.354-0.85-0.638-1.249-0.842
		l-2.896,5.655l4.145-4.813l-4.144,4.813l5.737-2.73c-0.3-0.648-0.866-1.468-1.595-2.083l-4.144,4.813l5.737-2.73l-5.371,2.555
		l5.787-1.379c-0.067-0.285-0.184-0.684-0.416-1.176l-5.371,2.555l5.787-1.379l-4.283,1.021l4.396-0.347
		c-0.007-0.053-0.014-0.246-0.113-0.676l-4.283,1.021l4.396-0.348l-0.775,0.062l0.776-0.046l-0.001-0.017l-0.775,0.062l0.776-0.046
		c-0.001-0.011-0.004-0.087-0.008-0.206l-0.001-0.034l-0.594,0.021l0.594-0.008v-0.013l-0.594,0.021l0.594-0.008v-0.043
		c0-0.063,0.002-0.201,0.002-0.41c0-30.955,0-61.912,0-92.867c0-0.231,0.001-0.4,0.003-0.469v-0.03l-0.173-0.006l0.173,0.008v-0.002
		l-0.173-0.006l0.173,0.008l-3.677-0.177l3.635,0.565c0.037-0.25,0.04-0.362,0.042-0.388l-3.677-0.177l3.635,0.565l-5.561-0.865
		l5.304,1.872c0.16-0.458,0.222-0.789,0.257-1.007l-5.562-0.865l5.305,1.872l-5.87-2.071l5.155,3.485
		c0.351-0.518,0.574-1.017,0.715-1.414l-5.87-2.071l5.155,3.485l-5.288-3.575l4.142,4.857c0.441-0.375,0.843-0.83,1.146-1.282
		l-5.288-3.575l4.142,4.857l-4.112-4.823l2.945,5.613c0.374-0.195,0.782-0.461,1.167-0.79l-4.112-4.823l2.945,5.613l-2.776-5.291
		l1.238,5.85c0.347-0.075,0.877-0.215,1.538-0.559l-2.776-5.291l1.238,5.85l-0.995-4.7l0.459,4.784
		c0.104-0.01,0.273-0.029,0.536-0.084l-0.995-4.7l0.459,4.784l-0.249-2.596l0.122,2.606l0.127-0.01l-0.249-2.596l0.122,2.606
		l-0.003-0.044l0.002,0.044h0.001l-0.003-0.044l0.002,0.044c0.026-0.001,0.224-0.003,0.514-0.003c2.943,0,5.888-0.001,8.831-0.001
		c3.637,0,7.273,0,10.911,0.003h0.004V39.19l-0.107,1.974l0.107,0.002V39.19l-0.107,1.974c0.017-0.005,0.388,0.044,1.121,0.056
		h-0.021l0.062-5.629l-2.056,5.23c0.796,0.312,1.494,0.393,1.992,0.398l0.062-5.629l-2.056,5.23l2.211-5.625l-3.97,4.556
		c0.536,0.469,1.166,0.838,1.759,1.068l2.211-5.625l-3.97,4.556l3.936-4.517l-5.568,2.224c0.274,0.704,0.818,1.589,1.634,2.292
		l3.936-4.517l-5.568,2.224l4.961-1.982l-5.339,0.35c0.026,0.374,0.098,0.917,0.378,1.632l4.961-1.982l-5.339,0.35l0.001,0.022
		c0.03,0.432,0.041,0.96,0.041,1.579v0.002c0.002,7.232,0.003,14.465,0.003,21.699c0,3.616,0,7.233,0,10.851v1.162
		c0,3.101,2.07,5.819,5.061,6.643c2.988,0.824,6.16-0.45,7.749-3.112c0.517-0.868,0.932-1.623,1.281-2.229
		c0.351-0.608,0.635-1.064,0.868-1.387l-0.003,0.004c1.266-1.743,2.619-2.938,4.174-3.833c1.559-0.888,3.361-1.484,5.583-1.757
		c1.232-0.15,2.433-0.228,3.599-0.228c2.198,0.001,4.271,0.271,6.293,0.869L366.472,59.503 M306.25,97.67l3.146-6.131
		c-0.976-0.495-1.672-0.747-2.025-0.906l-0.006-0.002c-5.29-2.273-10.577-4.542-15.855-6.819l-0.004-0.002
		c-0.318-0.136-0.734-0.309-1.323-0.481c-0.587-0.167-1.365-0.345-2.391-0.348c-0.674-0.001-1.454,0.087-2.251,0.325
		c-1.202,0.346-2.374,1.059-3.196,1.858c-0.837,0.802-1.368,1.634-1.744,2.373l-0.003,0.006c-0.521,1.011-1.041,1.563-1.679,2.021
		c-0.641,0.446-1.475,0.81-2.708,1.021h0.002c-0.788,0.132-1.506,0.192-2.147,0.192c-1.348-0.005-2.33-0.242-3.192-0.655
		c-0.858-0.425-1.68-1.045-2.593-2.243c-0.522-0.697-0.844-1.349-1.072-2.078c-0.224-0.727-0.346-1.546-0.347-2.517
		c0-0.622,0.052-1.302,0.161-2.034v-0.002c0.18-1.199,0.492-2.115,0.881-2.821c0.396-0.708,0.848-1.246,1.59-1.797
		c0.76-0.552,1.456-0.894,2.166-1.123c0.711-0.226,1.448-0.34,2.298-0.342c0.812,0,1.729,0.111,2.748,0.363h-0.002
		c1.222,0.301,2.088,0.705,2.662,1.115c0.291,0.208,0.52,0.418,0.729,0.662c0.208,0.246,0.399,0.528,0.588,0.916
		c0.216,0.446,0.493,0.938,0.888,1.459c0.581,0.776,1.482,1.639,2.645,2.229c0.573,0.295,1.193,0.515,1.793,0.649
		c0.602,0.136,1.179,0.188,1.692,0.188c0.878-0.002,1.571-0.14,2.114-0.283c0.545-0.147,0.951-0.306,1.284-0.446l0.009-0.004
		c5.422-2.309,10.874-4.597,16.337-6.909c0.452-0.191,0.884-0.373,1.368-0.599c0.363-0.171,0.759-0.364,1.232-0.647
		c0.354-0.213,0.758-0.478,1.209-0.853c0.336-0.281,0.698-0.627,1.059-1.058c0.538-0.64,1.056-1.494,1.375-2.415
		c0.327-0.92,0.45-1.859,0.447-2.634c-0.002-0.795-0.109-1.433-0.228-1.953c-0.182-0.779-0.386-1.32-0.573-1.806
		c-0.189-0.483-0.375-0.905-0.566-1.348c-2.062-4.735-4.913-8.932-8.51-12.381c-3.59-3.454-7.898-6.134-12.717-7.997
		c-5.573-2.162-11.335-3.139-17.054-3.136c-2.557,0-5.106,0.192-7.64,0.552h0.001c-5.271,0.745-10.275,2.34-14.82,4.846
		c-4.546,2.501-8.608,5.906-12.04,10.1c-3.545,4.321-6.094,9.089-7.749,14.066c-1.659,4.979-2.44,10.153-2.598,15.393
		c-0.01,0.288,0.013,0.767,0.048,1.052c0.343,2.678,0.494,5.91,1.241,9.549v0.004c1.424,6.843,4.195,13.029,8.394,18.146
		c4.186,5.125,9.739,9.089,16.283,11.772c5.975,2.463,12.157,3.537,18.271,3.533c2.986,0,5.96-0.252,8.91-0.709
		c7.112-1.088,13.383-3.862,18.483-7.957c5.115-4.09,9.038-9.387,12.047-15.361l0.003-0.006c0.267-0.529,0.509-1.125,0.69-1.801
		c0.182-0.674,0.301-1.435,0.301-2.246c0.002-0.885-0.147-1.83-0.453-2.707c-0.454-1.326-1.241-2.444-2.05-3.239
		c-0.815-0.804-1.646-1.333-2.415-1.729h0.003L306.25,97.67l-3.144,6.131l1.689-3.297l-2.273,2.92
		c0.255,0.197,0.452,0.311,0.584,0.377l1.689-3.297l-2.273,2.92l3.108-3.992l-4.432,2.413c0.424,0.776,0.947,1.288,1.322,1.579
		l3.108-3.992l-4.432,2.413l4.831-2.632l-5.502,0.002c-0.011,0.85,0.241,1.863,0.671,2.63l4.831-2.632l-5.502,0.002h5.127
		l-4.954-1.334c-0.097,0.357-0.173,0.812-0.173,1.334h5.127l-4.954-1.334l4.114,1.107l-3.812-1.916
		c-0.093,0.186-0.207,0.45-0.304,0.809l4.114,1.107l-3.812-1.916l0.003-0.006c-2.331,4.624-5.093,8.197-8.344,10.797
		c-3.265,2.592-7.041,4.321-11.988,5.104c-2.321,0.359-4.589,0.546-6.8,0.546c-4.533-0.005-8.817-0.769-13.023-2.495
		c-4.734-1.958-8.217-4.535-10.866-7.76c-2.64-3.232-4.507-7.203-5.566-12.237v0.002c-0.482-2.251-0.656-5.104-1.054-8.422
		l-6.839,0.844l6.888,0.208c0.125-4.151,0.735-7.962,1.898-11.451c1.167-3.492,2.872-6.678,5.333-9.688
		c2.397-2.921,5.052-5.118,8.029-6.763c2.979-1.639,6.311-2.732,10.105-3.272h0.001c1.938-0.275,3.837-0.415,5.702-0.415
		c4.177,0.003,8.162,0.692,12.074,2.205c3.284,1.277,5.936,2.963,8.148,5.084c2.209,2.126,4.006,4.713,5.424,7.955
		c0.241,0.546,0.394,0.92,0.405,0.964l0.001,0.003l2.537-0.873l-2.617,0.568c0.047,0.214,0.08,0.3,0.08,0.305l2.537-0.873
		l-2.617,0.568l4.924-1.068h-5.032c0.001,0.506,0.063,0.855,0.108,1.068l4.924-1.068h-5.032h5.821l-5.623-1.502
		c-0.148,0.558-0.199,1.085-0.198,1.502h5.821l-5.623-1.502l5.786,1.545l-5.203-2.966c-0.248,0.433-0.454,0.934-0.583,1.42
		l5.786,1.545l-5.203-2.966l4.915,2.801l-3.606-4.37c-0.348,0.284-0.871,0.801-1.309,1.569l4.915,2.801l-3.606-4.37l2.689,3.259
		l-2.152-3.641c-0.094,0.056-0.271,0.165-0.537,0.382l2.689,3.259l-2.152-3.641l1.096,1.854l-1.024-1.894l-0.07,0.041l1.096,1.854
		l-1.024-1.894l0.417,0.771l-0.405-0.777l-0.012,0.006l0.417,0.771l-0.405-0.777l-0.012,0.005c-0.072,0.039-0.439,0.202-0.975,0.426
		c-5.44,2.302-10.902,4.594-16.369,6.922l0.01-0.004l1.579,3.723l-1.045-3.903c-0.31,0.084-0.467,0.152-0.534,0.18l1.579,3.723
		l-1.045-3.903l1.449,5.416v-5.601c-0.669,0.002-1.142,0.104-1.449,0.186l1.449,5.416v-5.601v6.11l1.829-5.828
		c-0.662-0.208-1.307-0.283-1.829-0.282v6.11l1.829-5.828l-1.854,5.907l3.277-5.253c-0.435-0.272-0.93-0.5-1.424-0.654l-1.854,5.907
		l3.277-5.253l-3.174,5.087l4.668-3.769c-0.336-0.418-0.838-0.91-1.494-1.318l-3.174,5.087l4.668-3.769l-4.097,3.308l4.749-2.287
		c-0.121-0.248-0.312-0.599-0.652-1.021l-4.097,3.308l4.749-2.287c-0.682-1.415-1.528-2.717-2.507-3.865
		c-1.466-1.727-3.213-3.085-5.025-4.089c-1.817-1.008-3.697-1.679-5.555-2.138h-0.002c-1.958-0.483-3.983-0.766-6.053-0.766
		c-2.153-0.001-4.354,0.311-6.495,0.997c-2.141,0.683-4.208,1.737-6.101,3.124c-2.354,1.711-4.236,3.905-5.537,6.287
		c-1.312,2.385-2.062,4.921-2.433,7.427v-0.002c-0.198,1.327-0.312,2.685-0.312,4.068c-0.001,2.153,0.28,4.38,0.96,6.581
		c0.676,2.199,1.759,4.358,3.239,6.314c2.054,2.736,4.657,4.936,7.589,6.347c2.929,1.423,6.104,2.037,9.198,2.032
		c1.486-0.001,2.965-0.137,4.426-0.383h0.002c2.926-0.486,5.812-1.553,8.34-3.328c2.532-1.766,4.631-4.229,6.065-7.09l-0.003,0.008
		l-4.29-2.174l3.746,3.008c0.272-0.342,0.438-0.628,0.544-0.834l-4.29-2.174l3.746,3.008l-4.491-3.605l2.504,5.175
		c0.891-0.424,1.589-1.062,1.987-1.569l-4.491-3.605l2.504,5.176l-2.571-5.315v5.909c0.703,0.009,1.688-0.158,2.571-0.594
		l-2.571-5.315v5.909v-5.174l-1.439,4.98c0.257,0.07,0.718,0.19,1.439,0.193v-5.174l-1.439,4.98l0.966-3.342l-1.225,3.256
		c0.047,0.018,0.129,0.047,0.259,0.086l0.966-3.342l-1.225,3.256l0.599-1.589l-0.642,1.571l0.043,0.018l0.599-1.589l-0.642,1.571
		l0.103-0.25l-0.104,0.25h0.003l0.103-0.25l-0.104,0.25l0.01,0.003l-0.005-0.001c5.292,2.281,10.586,4.554,15.871,6.824
		l-0.007-0.002c0.723,0.305,1.123,0.471,1.188,0.51l0.003,0.001L306.25,97.67 M461.172,95.946v6.891h0.028
		c1.814,0,3.59-0.733,4.873-2.018c1.283-1.283,2.019-3.059,2.019-4.873c0-24.323,0-28.32-0.001-32.321v0.002
		c0-0.75-0.01-1.589-0.071-2.514l0.001,0.012c-0.044-0.648-0.156-1.4-0.455-2.259c-0.225-0.641-0.562-1.342-1.059-2.024
		c-0.37-0.511-0.828-1.005-1.352-1.433c-0.782-0.645-1.699-1.118-2.567-1.391c-0.873-0.278-1.691-0.374-2.408-0.382h0.003
		l-0.023,2.191l0.086-2.189l-0.062-0.001l-0.023,2.191l0.086-2.189l-0.034,0.897l0.044-0.897h-0.01l-0.034,0.897l0.044-0.897
		l-0.067-0.004c-0.146-0.008-0.528-0.05-1.15-0.053h0.004c-3.979-0.002-7.959-0.003-11.938-0.003c-2.604,0-5.21,0-7.814,0.001
		c-0.232,0-0.473,0-0.759,0.005c-0.251,0.006-0.537,0.014-0.913,0.049c-0.33,0.032-0.731,0.081-1.253,0.205
		c-0.452,0.11-1.004,0.281-1.623,0.586c-0.54,0.265-1.128,0.642-1.663,1.122c-0.469,0.417-0.89,0.907-1.219,1.4
		c-0.582,0.871-0.878,1.701-1.042,2.33c-0.239,0.956-0.253,1.532-0.279,1.978c-0.018,0.442-0.015,0.76-0.015,1.074v33.673v-0.008
		c-0.002,0.932-0.12,1.713-0.331,2.398c-0.215,0.688-0.515,1.298-1.006,1.953l-0.002,0.002c-0.848,1.111-1.604,1.691-2.386,2.091
		c-0.785,0.39-1.668,0.62-2.886,0.653l0.158,6.889l0.161-6.889c-1.217-0.034-2.101-0.266-2.888-0.654
		c-0.783-0.4-1.539-0.98-2.388-2.092l0.002,0.003c-0.493-0.659-0.795-1.272-1.011-1.964c-0.212-0.688-0.329-1.469-0.33-2.4
		l0.001-0.102c0.021-1.842-0.696-3.61-1.991-4.919c-1.296-1.309-3.059-2.044-4.898-2.044h-0.023v6.891h6.892
		c0-24.2,0-28.193-0.001-32.186v0.002c0-0.75-0.009-1.589-0.071-2.514l0.001,0.012c-0.044-0.646-0.155-1.397-0.454-2.255
		c-0.224-0.64-0.562-1.342-1.058-2.025c-0.37-0.511-0.828-1.006-1.353-1.434c-0.781-0.646-1.699-1.12-2.569-1.393
		c-0.873-0.277-1.691-0.374-2.407-0.381h0.003l-0.024,2.206l0.089-2.205l-0.063-0.001l-0.024,2.206l0.089-2.205l-0.036,0.901
		l0.045-0.9h-0.009l-0.036,0.901l0.045-0.9l-0.068-0.004c-0.146-0.008-0.528-0.05-1.149-0.053h0.003
		c-4.175-0.001-8.349-0.002-12.521-0.002c-2.41,0-4.819,0-7.229,0c-0.234,0-0.475,0-0.761,0.005
		c-0.251,0.006-0.536,0.014-0.912,0.049c-0.33,0.032-0.732,0.081-1.254,0.205c-0.451,0.11-1.004,0.281-1.623,0.586
		c-0.539,0.265-1.128,0.642-1.662,1.122c-0.47,0.417-0.891,0.907-1.22,1.4c-0.582,0.871-0.878,1.701-1.042,2.33
		c-0.238,0.956-0.253,1.532-0.278,1.978c-0.019,0.442-0.016,0.76-0.016,1.074v33.62c0,1.814,0.734,3.59,2.019,4.873
		s3.059,2.018,4.873,2.018h0.029V95.95l-6.883-0.338c-0.01,0.198-0.022,0.449-0.034,0.752c-0.015,0.407-0.002,0.688,0.049,1.092
		c0.344,2.676,0.493,5.906,1.242,9.549V107c0.899,4.312,2.322,8.354,4.312,12.041c1.983,3.687,4.537,7.008,7.604,9.852l4.688-5.051
		l-4.908,4.838c2.823,2.867,6.089,5.316,9.769,7.197c3.678,1.883,7.756,3.188,12.154,3.869h0.002
		c2.959,0.459,5.934,0.703,8.91,0.703h0.235h-0.056h0.235c2.979,0,5.949-0.244,8.907-0.703c2.197-0.34,4.307-0.834,6.324-1.476
		l-2.087-6.567h-6.892v2.432c0,1.814,0.734,3.591,2.019,4.873c1.283,1.283,3.059,2.019,4.873,2.019h0.007v-6.892l-6.892-0.004
		c-0.001,1.037-0.116,1.883-0.32,2.584c-0.209,0.707-0.486,1.285-0.96,1.92c-0.94,1.232-1.759,1.854-2.576,2.265
		c-0.824,0.399-1.74,0.627-3.059,0.634c-0.627,0-1.338-0.06-2.13-0.191c-1.23-0.211-2.064-0.573-2.706-1.02
		c-0.638-0.459-1.155-1.011-1.678-2.021l0.002,0.005c-0.251-0.497-0.569-1.026-1.004-1.57c-0.64-0.81-1.596-1.655-2.76-2.213
		c-1.156-0.567-2.43-0.791-3.434-0.782c-1.022,0.002-1.802,0.18-2.389,0.348c-0.589,0.172-1.006,0.345-1.326,0.48l-0.005,0.002
		c-5.276,2.277-10.562,4.547-15.854,6.82c-0.349,0.156-1.047,0.406-2.026,0.902l-0.007,0.004c-0.516,0.265-1.05,0.589-1.595,1.013
		c-0.812,0.631-1.665,1.517-2.312,2.701c-0.651,1.174-1.018,2.631-1.006,3.959c0,0.815,0.119,1.577,0.302,2.254
		c0.184,0.678,0.428,1.274,0.695,1.806l-0.002-0.005c3.008,5.978,6.931,11.272,12.046,15.362c5.102,4.096,11.372,6.871,18.484,7.959
		c2.949,0.457,5.923,0.708,8.907,0.708c6.113,0.004,12.298-1.069,18.274-3.534c6.543-2.686,12.096-6.648,16.281-11.773
		c4.196-5.117,6.969-11.304,8.394-18.146c0.749-3.644,0.898-6.875,1.241-9.552c0.05-0.403,0.062-0.732,0.046-1.139l-0.003-0.068
		l-6.885,0.295v6.891h0.003c1.813,0,3.59-0.734,4.872-2.018s2.019-3.059,2.019-4.873V96.862h-6.891l6.844,0.807l0.03-0.256
		c0.032-0.285,0.053-0.736,0.044-1.023c-0.013-0.342-0.027-0.602-0.035-0.773l-6.883,0.344h6.891v-0.012h-6.892v6.891V95.946h-6.892
		v0.012l0.008,0.344c0.015,0.257,0.022,0.43,0.025,0.521l6.888-0.217l-6.844-0.807l-0.03,0.257
		c-0.032,0.284-0.047,0.521-0.047,0.808v37.271h6.892v-6.891h-0.003c-1.867,0-3.686,0.775-4.977,2.123
		c-1.292,1.35-1.989,3.197-1.909,5.062l0.003,0.068l6.886-0.295l-6.84-0.846c-0.396,3.318-0.569,6.17-1.054,8.418
		c-1.061,5.034-2.928,9.006-5.566,12.238c-2.65,3.225-6.133,5.801-10.864,7.76c-4.207,1.729-8.493,2.492-13.027,2.496
		c-2.211,0-4.478-0.188-6.798-0.545c-4.946-0.781-8.723-2.512-11.988-5.104c-3.251-2.601-6.014-6.174-8.344-10.797l-0.002-0.006
		l-3.812,1.924l4.117-1.111c-0.098-0.359-0.212-0.625-0.306-0.812l-3.812,1.924l4.117-1.111l-4.956,1.338h5.131
		c0-0.521-0.076-0.979-0.175-1.338l-4.956,1.338h5.132h-5.504l5.199,1.798c0.206-0.591,0.307-1.229,0.305-1.798h-5.504l5.199,1.798
		l-5.023-1.737l3.751,3.783c0.44-0.432,0.968-1.15,1.272-2.046l-5.023-1.737l3.751,3.783l-2.861-2.885l1.863,3.628
		c0.195-0.103,0.55-0.304,0.998-0.743l-2.861-2.885l1.863,3.628l-0.006,0.003c0.057-0.035,0.462-0.202,1.187-0.507
		c5.285-2.272,10.578-4.544,15.872-6.828l-0.005,0.002l0.008-0.003l-0.635-1.514l0.559,1.541l0.076-0.027l-0.635-1.514l0.559,1.541
		l-1.396-3.85l0.882,3.996c0.269-0.061,0.429-0.115,0.514-0.146l-1.396-3.85l0.882,3.996l-1.154-5.234v5.357
		c0.505-0.001,0.888-0.064,1.154-0.123l-1.154-5.234v5.357v-5.869l-1.669,5.624c0.609,0.183,1.196,0.246,1.669,0.245v-5.869
		l-1.669,5.624l1.678-5.653l-4.077,4.27c0.571,0.562,1.479,1.123,2.399,1.385l1.678-5.652l-4.077,4.269l3.51-3.675l-4.549,2.296
		c0.155,0.308,0.453,0.813,1.039,1.379l3.51-3.675l-4.549,2.296l0.002,0.004c1.435,2.86,3.534,5.323,6.065,7.089
		c2.529,1.775,5.415,2.842,8.342,3.328c1.456,0.244,2.927,0.381,4.406,0.381c3.08,0.008,6.246-0.617,9.147-2.052
		c2.906-1.425,5.457-3.623,7.487-6.326c1.507-1.989,2.563-4.19,3.194-6.382c0.637-2.194,0.865-4.362,0.866-6.415
		c0.002-1.841-0.715-3.573-2.017-4.875c-1.302-1.304-3.033-2.021-4.874-2.021h-0.008v6.891h6.892v-2.432
		c0-2.188-1.058-4.271-2.822-5.562c-1.766-1.292-4.07-1.669-6.155-1.007c-1.325,0.422-2.737,0.756-4.26,0.992
		c-2.312,0.356-4.576,0.539-6.798,0.539h-0.181h-0.056h-0.181c-2.223,0-4.488-0.183-6.801-0.539h0.002
		c-3.062-0.478-5.673-1.338-7.992-2.521c-2.317-1.188-4.357-2.706-6.228-4.602l-0.221-0.213c-1.955-1.817-3.55-3.885-4.849-6.289
		c-1.295-2.404-2.29-5.157-2.952-8.321v-0.002c-0.483-2.249-0.657-5.103-1.056-8.421l-6.839,0.848l6.887,0.244
		c0.005-0.139,0.015-0.325,0.025-0.564c0.094-1.891-0.587-3.719-1.892-5.088c-1.306-1.371-3.099-2.14-4.991-2.14h-0.029v6.891h6.891
		v-33.62c0-0.231,0.001-0.4,0.003-0.469v-0.03l-0.176-0.006l0.176,0.008v-0.002l-0.176-0.006l0.176,0.008l-3.677-0.177l3.635,0.565
		c0.038-0.25,0.04-0.362,0.042-0.388l-3.677-0.177l3.635,0.565l-5.561-0.865l5.304,1.872c0.16-0.458,0.222-0.789,0.257-1.007
		l-5.562-0.865l5.305,1.872l-5.87-2.071l5.155,3.485c0.351-0.518,0.574-1.017,0.715-1.414l-5.87-2.071l5.155,3.485l-5.288-3.575
		l4.142,4.857c0.441-0.375,0.843-0.83,1.146-1.282l-5.288-3.575l4.142,4.857l-4.112-4.822l2.945,5.612
		c0.374-0.195,0.782-0.461,1.167-0.79l-4.112-4.822l2.945,5.612l-2.776-5.291l1.238,5.85c0.347-0.075,0.877-0.215,1.538-0.559
		l-2.776-5.291l1.238,5.85l-0.995-4.7l0.459,4.784c0.104-0.01,0.273-0.029,0.536-0.084l-0.995-4.7l0.459,4.784l-0.249-2.596
		l0.122,2.606l0.127-0.01l-0.249-2.596l0.122,2.606l-0.003-0.044l0.002,0.044h0.001l-0.003-0.044l0.002,0.044
		c0.026-0.001,0.224-0.003,0.514-0.003c2.41,0,4.817,0,7.228,0c4.172,0,8.344,0,12.517,0.002h0.003v-1.917l-0.104,1.915l0.104,0.002
		v-1.917l-0.104,1.915c0.017-0.005,0.38,0.042,1.101,0.056h0.003l0.059-5.627l-2.051,5.231c0.796,0.312,1.495,0.391,1.992,0.396
		l0.059-5.627l-2.051,5.231l2.206-5.627l-3.966,4.559c0.536,0.47,1.167,0.838,1.76,1.068l2.206-5.627l-3.966,4.559l3.933-4.52
		l-5.569,2.226c0.275,0.704,0.82,1.59,1.638,2.294l3.933-4.52l-5.569,2.226l4.962-1.983l-5.34,0.35
		c0.026,0.374,0.098,0.918,0.378,1.633l4.962-1.983l-5.34,0.35l0.001,0.012c0.029,0.438,0.04,0.969,0.04,1.588
		c0.001,3.991,0.001,7.984,0.001,32.184c0,1.814,0.734,3.59,2.019,4.873s3.059,2.018,4.873,2.018h0.022v-6.891l-6.891-0.072
		l-0.001,0.246c-0.001,2.109,0.272,4.295,0.938,6.458c0.662,2.16,1.727,4.283,3.18,6.205l0.002,0.003
		c1.961,2.607,4.429,4.721,7.209,6.105c2.776,1.398,5.796,2.05,8.743,2.113h0.318c2.948-0.062,5.969-0.713,8.746-2.111
		c2.782-1.387,5.25-3.5,7.21-6.109l-0.002,0.002c1.454-1.921,2.518-4.042,3.179-6.197c0.666-2.16,0.939-4.34,0.941-6.441v-0.01
		V62.328c0-0.231,0.001-0.4,0.003-0.469v-0.03l-0.176-0.006l0.176,0.008v-0.002l-0.176-0.006l0.176,0.008l-3.677-0.177l3.635,0.565
		c0.037-0.25,0.04-0.362,0.042-0.388l-3.677-0.177l3.635,0.565l-5.561-0.865l5.304,1.872c0.16-0.458,0.222-0.789,0.257-1.007
		l-5.561-0.865l5.304,1.872l-5.87-2.071l5.155,3.485c0.351-0.518,0.575-1.017,0.715-1.414l-5.87-2.071l5.155,3.485l-5.288-3.575
		l4.142,4.856c0.441-0.375,0.843-0.83,1.146-1.282l-5.288-3.575l4.142,4.856l-4.112-4.823l2.945,5.613
		c0.374-0.195,0.782-0.461,1.167-0.79l-4.112-4.823l2.945,5.613l-2.775-5.291l1.237,5.85c0.347-0.075,0.877-0.215,1.538-0.559
		l-2.775-5.291l1.237,5.85l-0.995-4.7l0.459,4.784c0.104-0.01,0.273-0.029,0.536-0.084l-0.995-4.7l0.459,4.784l-0.248-2.596
		l0.121,2.605l0.127-0.01l-0.248-2.596l0.121,2.605l-0.003-0.047l0.002,0.047h0.001l-0.003-0.047l0.003,0.047
		c0.025-0.001,0.223-0.003,0.513-0.003c2.604-0.001,5.209-0.001,7.812-0.001c3.978,0,7.953,0.001,11.931,0.003h0.004v-1.923
		l-0.104,1.921l0.104,0.002v-1.923l-0.104,1.921c0.016-0.005,0.38,0.042,1.101,0.056h0.003l0.059-5.629l-2.052,5.232
		c0.795,0.311,1.495,0.391,1.993,0.396l0.059-5.629l-2.052,5.232l2.207-5.626l-3.965,4.559c0.536,0.469,1.166,0.837,1.758,1.067
		l2.207-5.626l-3.965,4.559l3.931-4.52l-5.566,2.228c0.274,0.705,0.819,1.589,1.637,2.292l3.931-4.52l-5.566,2.228l4.964-1.986
		l-5.344,0.35c0.027,0.376,0.098,0.921,0.38,1.636l4.964-1.986l-5.344,0.35v0.012c0.03,0.438,0.041,0.969,0.041,1.588
		c0.001,3.999,0.001,7.996,0.001,32.319h6.892v-6.891h-0.029c-1.814,0-3.59,0.735-4.873,2.019c-1.283,1.283-2.018,3.058-2.018,4.873
		h6.89"/>
	<path fill="#BA394A" d="M41.753,45.096c0.18-8.811,2.409-16.957,7.764-24.048c6.246-8.273,14.686-12.774,24.932-13.874
		c6.724-0.721,13.339-0.108,19.69,2.356c8.104,3.143,13.934,8.713,17.427,16.683c1.308,2.983,1.272,3.006-1.707,4.267
		c-5.421,2.292-10.851,4.569-16.268,6.873c-0.646,0.274-1.16,0.405-1.537-0.362c-1.955-3.977-5.416-5.887-9.553-6.653
		c-4.964-0.92-9.54-0.021-13.299,3.608c-2.187,2.111-3.34,4.783-3.814,7.745c-0.681,4.233-0.195,8.295,2.381,11.838
		c3.671,5.05,8.82,6.55,14.759,5.547c4.125-0.697,7.373-2.846,9.332-6.669c0.428-0.837,0.986-1.02,1.827-0.656
		c5.882,2.54,11.773,5.056,17.648,7.612c1.215,0.528,1.52,1.395,0.945,2.54c-3.651,7.303-8.764,13.207-16.232,16.826
		c-3.491,1.693-7.212,2.63-11.051,3.042c-6.645,0.714-13.227,0.364-19.566-1.901c-13.146-4.694-20.772-14.043-23.008-27.784
		C42.048,49.781,41.969,47.427,41.753,45.096"/>
	<path fill="#BA394A" d="M41.753,45.096c0.18-8.811,2.409-16.957,7.764-24.048c6.246-8.273,14.686-12.774,24.932-13.874
		c6.724-0.721,13.339-0.108,19.69,2.356c8.104,3.143,13.934,8.713,17.427,16.683c1.308,2.983,1.272,3.006-1.707,4.267
		c-5.421,2.292-10.851,4.569-16.268,6.873c-0.646,0.274-1.16,0.405-1.537-0.362c-1.955-3.977-5.416-5.887-9.553-6.653
		c-4.964-0.92-9.54-0.021-13.299,3.608c-2.187,2.111-3.34,4.783-3.814,7.745c-0.681,4.233-0.195,8.295,2.381,11.838
		c3.671,5.05,8.82,6.55,14.759,5.547c4.125-0.697,7.373-2.846,9.332-6.669c0.428-0.837,0.986-1.02,1.827-0.656
		c5.882,2.54,11.773,5.056,17.648,7.612c1.215,0.528,1.52,1.395,0.945,2.54c-3.651,7.303-8.764,13.207-16.232,16.826
		c-3.491,1.693-7.212,2.63-11.051,3.042c-6.645,0.714-13.227,0.364-19.566-1.901c-13.146-4.694-20.772-14.043-23.008-27.784
		C42.048,49.781,41.969,47.427,41.753,45.096"/>
	<path fill="#E5E5E5" d="M77.157,129.901L77.157,129.901c-6.602,0-12.623,0.323-17.19,0.854v5.023
		c4.567,0.531,10.59,0.854,17.19,0.854c14.271,0,25.839-1.506,25.839-3.364l0,0C102.996,131.409,91.428,129.901,77.157,129.901"/>
	<path fill="#B13646" d="M78.686,59.409c-4.443-0.052-8.303-1.816-11.223-5.833c-2.574-3.543-3.06-7.604-2.381-11.838
		c0.478-2.962,1.629-5.634,3.816-7.745c2.853-2.754,6.179-3.933,9.786-3.94V6.947c-1.507,0.021-3.021,0.111-4.541,0.275
		c-10.245,1.099-18.688,5.6-24.934,13.873c-5.353,7.091-7.584,15.237-7.762,24.048c0.216,2.331,0.295,4.685,0.67,6.99
		c2.234,13.741,9.861,23.09,23.006,27.785c4.422,1.579,8.962,2.225,13.561,2.229L78.686,59.409L78.686,59.409z"/>
	<path fill="#BA394A" d="M336.808,71.143c0.879-1.473,1.577-2.866,2.478-4.114c3.574-4.954,8.498-7.668,14.515-8.399
		c4.269-0.519,8.513-0.356,12.674,0.873c6.335,1.871,10.148,6.172,11.962,12.401c0.86,2.96,1.191,5.993,1.191,9.068
		c0,16.03,0,32.063,0,48.096c0,0.194,0.004,0.392-0.003,0.586c-0.046,1.25-0.273,1.481-1.506,1.495
		c-0.91,0.008-1.823,0.002-2.735,0.002c-5.963,0-11.928,0.001-17.891-0.002c-1.513,0-1.589-0.079-1.589-1.615
		c-0.001-13.652,0-27.306-0.002-40.958c0-2.347-0.338-4.607-1.748-6.584c-1.755-2.46-4.283-3.264-7.145-3.324
		c-4.541-0.096-7.75,2.041-9.815,5.992c-0.256,0.489-0.37,1.107-0.37,1.667c-0.02,14.043-0.012,28.086-0.02,42.131
		c-0.002,3.104,0.089,2.684-2.692,2.688c-6.517,0.015-13.034,0.006-19.551,0.004c-1.413-0.001-1.498-0.086-1.54-1.472
		c-0.007-0.227-0.002-0.455-0.002-0.684c0-30.955,0-61.912,0-92.868c0-1.854,0-1.856,1.876-1.857
		c6.583-0.001,13.165-0.001,19.747,0.002c0.356,0.001,0.713,0.051,1.07,0.055c0.697,0.007,0.995,0.422,1.037,1.049
		c0.046,0.682,0.057,1.367,0.057,2.051c0.003,10.85,0.002,21.701,0.002,32.552V71.143L336.808,71.143z"/>
	<path fill="#BA394A" d="M336.808,71.143c0.879-1.473,1.577-2.866,2.478-4.114c3.574-4.954,8.498-7.668,14.515-8.399
		c4.269-0.519,8.513-0.356,12.674,0.873c6.335,1.871,10.148,6.172,11.962,12.401c0.86,2.96,1.191,5.993,1.191,9.068
		c0,16.03,0,32.063,0,48.096c0,0.194,0.004,0.392-0.003,0.586c-0.046,1.25-0.273,1.481-1.506,1.495
		c-0.91,0.008-1.823,0.002-2.735,0.002c-5.963,0-11.928,0.001-17.891-0.002c-1.513,0-1.589-0.079-1.589-1.615
		c-0.001-13.652,0-27.306-0.002-40.958c0-2.347-0.338-4.607-1.748-6.584c-1.755-2.46-4.283-3.264-7.145-3.324
		c-4.541-0.096-7.75,2.041-9.815,5.992c-0.256,0.489-0.37,1.107-0.37,1.667c-0.02,14.043-0.012,28.086-0.02,42.131
		c-0.002,3.104,0.089,2.684-2.692,2.688c-6.517,0.015-13.034,0.006-19.551,0.004c-1.413-0.001-1.498-0.086-1.54-1.472
		c-0.007-0.227-0.002-0.455-0.002-0.684c0-30.955,0-61.912,0-92.868c0-1.854,0-1.856,1.876-1.857
		c6.583-0.001,13.165-0.001,19.747,0.002c0.356,0.001,0.713,0.051,1.07,0.055c0.697,0.007,0.995,0.422,1.037,1.049
		c0.046,0.682,0.057,1.367,0.057,2.051c0.003,10.85,0.002,21.701,0.002,32.552V71.143L336.808,71.143z"/>
	<path fill="#B13646" d="M346.02,60.92c-2.72,1.412-5.081,3.447-7.036,6.156c-0.898,1.248-1.599,2.641-2.478,4.114v-1.162
		c0-10.851,0.001-21.702-0.003-32.552c0-0.684-0.013-1.369-0.058-2.051c-0.042-0.626-0.338-1.041-1.037-1.049
		c-0.355-0.004-0.714-0.054-1.068-0.054c-6.582-0.004-13.164-0.003-19.747-0.003c-1.876,0.001-1.876,0.003-1.876,1.858
		c0,30.955,0,61.912,0,92.867c0,0.229-0.005,0.455,0.002,0.685c0.042,1.384,0.127,1.47,1.54,1.472
		c6.517,0.002,13.032,0.01,19.551-0.006c2.781-0.006,2.69,0.416,2.691-2.688c0.009-14.043,0-28.088,0.021-42.132
		c0-0.559,0.114-1.178,0.37-1.667c1.959-3.747,4.95-5.858,9.128-5.985V60.92z"/>
	<path fill="#BA394A" d="M194.014,78.361c-2.019,0-3.873,0.006-5.729-0.002c-1.307-0.006-1.562-0.241-1.567-1.528
		c-0.01-4.887-0.01-9.775,0-14.662c0.005-1.465,0.254-1.692,1.708-1.697c1.729-0.007,3.454-0.01,5.182-0.02
		c0.094,0,0.187-0.048,0.472-0.128c0-0.95-0.019-1.95,0.003-2.95c0.113-4.979,0.236-9.959,0.359-14.939
		c0.03-1.212,0.243-1.444,1.43-1.445c6.419-0.008,12.838-0.016,19.256,0.004c2.075,0.007,2.96,0.93,2.933,3.025
		c-0.067,4.981-0.166,9.962-0.251,14.943c-0.009,0.45-0.001,0.901-0.001,1.509h1.215c3.354,0.001,6.712-0.004,10.066,0.003
		c1.776,0.003,1.944,0.18,1.944,1.949c0,4.594,0.005,9.188-0.002,13.782c-0.003,1.967-0.371,2.335-2.357,2.316
		c-3.354-0.033-6.707-0.091-10.061-0.138c-0.223-0.003-0.446,0-0.754,0c-0.021,0.396-0.052,0.741-0.052,1.086
		c-0.004,8.21-0.004,16.421-0.002,24.632c0,1.748,0.214,3.459,1.175,4.968c1.465,2.303,3.721,3.199,6.318,3.251
		c1.355,0.028,2.728-0.175,4.074-0.378c1.76-0.266,2.452,0.17,2.749,1.96c0.357,2.151,0.687,4.308,1.019,6.462
		c0.321,2.09,0.603,4.188,0.964,6.27c0.188,1.096-0.184,1.851-1.126,2.346c-5.717,3-11.732,4.538-18.241,3.868
		c-3.529-0.362-6.934-1.097-10.118-2.705c-4.826-2.438-7.549-6.511-9.041-11.563c-1.202-4.072-1.503-8.254-1.521-12.463
		c-0.04-8.861-0.031-17.725-0.042-26.585C194.014,79.177,194.014,78.827,194.014,78.361"/>
	<path fill="#BA394A" d="M194.014,78.361c-2.019,0-3.873,0.006-5.729-0.002c-1.307-0.006-1.562-0.241-1.567-1.528
		c-0.01-4.887-0.01-9.775,0-14.662c0.005-1.465,0.254-1.692,1.708-1.697c1.729-0.007,3.454-0.01,5.182-0.02
		c0.094,0,0.187-0.048,0.472-0.128c0-0.95-0.019-1.95,0.003-2.95c0.113-4.979,0.236-9.959,0.359-14.939
		c0.03-1.212,0.243-1.444,1.43-1.445c6.419-0.008,12.838-0.016,19.256,0.004c2.075,0.007,2.96,0.93,2.933,3.025
		c-0.067,4.981-0.166,9.962-0.251,14.943c-0.009,0.45-0.001,0.901-0.001,1.509h1.215c3.354,0.001,6.712-0.004,10.066,0.003
		c1.776,0.003,1.944,0.18,1.944,1.949c0,4.594,0.005,9.188-0.002,13.782c-0.003,1.967-0.371,2.335-2.357,2.316
		c-3.354-0.033-6.707-0.091-10.061-0.138c-0.223-0.003-0.446,0-0.754,0c-0.021,0.396-0.052,0.741-0.052,1.086
		c-0.004,8.21-0.004,16.421-0.002,24.632c0,1.748,0.214,3.459,1.175,4.968c1.465,2.303,3.721,3.199,6.318,3.251
		c1.355,0.028,2.728-0.175,4.074-0.378c1.76-0.266,2.452,0.17,2.749,1.96c0.357,2.151,0.687,4.308,1.019,6.462
		c0.321,2.09,0.603,4.188,0.964,6.27c0.188,1.096-0.184,1.851-1.126,2.346c-5.717,3-11.732,4.538-18.241,3.868
		c-3.529-0.362-6.934-1.097-10.118-2.705c-4.826-2.438-7.549-6.511-9.041-11.563c-1.202-4.072-1.503-8.254-1.521-12.463
		c-0.04-8.861-0.031-17.725-0.042-26.585C194.014,79.177,194.014,78.827,194.014,78.361"/>
	<path fill="#B13646" d="M217.6,105.9c-0.069-0.575-0.1-1.161-0.1-1.752c-0.001-8.211-0.001-16.422,0.002-24.633
		c0-0.345,0.033-0.689,0.055-1.085h0.043V60.519h-0.098c0-0.609-0.007-1.059,0.001-1.51c0.03-1.801,0.062-3.602,0.097-5.404V42.707
		c-0.335-1.141-1.223-1.66-2.775-1.665c-6.419-0.021-12.838-0.012-19.257-0.004c-1.188,0.001-1.4,0.233-1.43,1.445
		c-0.123,4.98-0.245,9.959-0.358,14.939c-0.023,1-0.004,2-0.004,2.95c-0.285,0.079-0.378,0.127-0.471,0.128
		c-1.729,0.01-3.454,0.013-5.182,0.019c-1.456,0.006-1.706,0.232-1.709,1.698c-0.01,4.887-0.01,9.774,0.001,14.662
		c0.002,1.286,0.261,1.522,1.567,1.528c1.854,0.008,3.711,0.002,5.729,0.002c0,0.465,0,0.816,0,1.166
		c0.013,8.863,0.002,17.724,0.042,26.587c0.021,4.207,0.319,8.387,1.521,12.461c1.491,5.056,4.214,9.127,9.041,11.563
		c3.184,1.608,6.589,2.345,10.117,2.705c1.067,0.108,2.123,0.153,3.166,0.147L217.6,105.9L217.6,105.9z"/>
	<path fill="#BA394A" d="M155.758,70.112c0-2.372,0-4.743,0-7.115c0-2.526,0-2.526,2.532-2.526c6.451,0,12.903-0.001,19.355,0.001
		c1.579,0.001,1.706,0.133,1.706,1.739c0.001,22.255,0,44.51,0,66.766c0,0.261,0.007,0.521-0.01,0.781
		c-0.062,1.066-0.379,1.382-1.448,1.389c-1.729,0.014-3.454,0.005-5.183,0.005c-4.561,0-9.123,0.001-13.685-0.001
		c-1.729,0-1.996-0.266-1.997-1.956c-0.001-2.522,0-5.045-0.087-7.601c-1.216,3.051-3.416,5.197-6.085,6.921
		c-3.162,2.04-6.69,3.044-10.386,3.397c-6.353,0.604-12.467-0.365-18.23-3.164c-5.519-2.679-9.788-6.728-12.854-12.028
		c-4.484-7.757-5.685-16.183-4.994-24.974c0.541-6.916,2.83-13.226,6.913-18.816c5.199-7.122,12.11-11.587,20.907-12.963
		c5.146-0.805,10.13-0.387,14.848,1.976C150.736,63.785,153.669,66.414,155.758,70.112 M155.713,96.102
		c-0.041-8.604-5.584-14.505-13.788-14.62c-4.575-0.063-8.515,1.439-11.396,5.118c-2.461,3.145-3.22,6.826-3.038,10.744
		c0.438,9.423,9.005,15.015,17.339,13.138C151.618,108.952,155.748,103.396,155.713,96.102"/>
	<path fill="#BA394A" d="M155.758,70.112c0-2.372,0-4.743,0-7.115c0-2.526,0-2.526,2.532-2.526c6.451,0,12.903-0.001,19.355,0.001
		c1.579,0.001,1.706,0.133,1.706,1.739c0.001,22.255,0,44.51,0,66.766c0,0.261,0.007,0.521-0.01,0.781
		c-0.062,1.066-0.379,1.382-1.448,1.389c-1.729,0.014-3.454,0.005-5.183,0.005c-4.561,0-9.123,0.001-13.685-0.001
		c-1.729,0-1.996-0.266-1.997-1.956c-0.001-2.522,0-5.045-0.087-7.601c-1.216,3.051-3.416,5.197-6.085,6.921
		c-3.162,2.04-6.69,3.044-10.386,3.397c-6.353,0.604-12.467-0.365-18.23-3.164c-5.519-2.679-9.788-6.728-12.854-12.028
		c-4.484-7.757-5.685-16.183-4.994-24.974c0.541-6.916,2.83-13.226,6.913-18.816c5.199-7.122,12.11-11.587,20.907-12.963
		c5.146-0.805,10.13-0.387,14.848,1.976C150.736,63.785,153.669,66.414,155.758,70.112 M155.713,96.102
		c-0.041-8.604-5.584-14.505-13.788-14.62c-4.575-0.063-8.515,1.439-11.396,5.118c-2.461,3.145-3.22,6.826-3.038,10.744
		c0.438,9.423,9.005,15.015,17.339,13.138C151.618,108.952,155.748,103.396,155.713,96.102"/>
	<path fill="#B13646" d="M141.481,110.887c-7.257,0.096-13.909-5.223-14.292-13.494c-0.183-3.92,0.577-7.601,3.039-10.744
		c2.85-3.642,6.735-5.148,11.253-5.117V60.145c-3.106-0.657-6.304-0.641-9.567-0.13c-8.797,1.375-15.708,5.841-20.909,12.963
		c-4.082,5.592-6.371,11.901-6.913,18.815c-0.688,8.791,0.513,17.217,4.995,24.974c3.066,5.306,7.335,9.353,12.854,12.028
		c5.765,2.799,11.88,3.771,18.229,3.164c0.44-0.041,0.877-0.094,1.312-0.154L141.481,110.887L141.481,110.887z"/>
	<path fill="#9C2F3C" d="M157.692,97.452c0-9.114-7.387-16.5-16.5-16.5s-16.5,7.387-16.5,16.5c0,9.112,7.387,16.5,16.5,16.5
		S157.692,106.564,157.692,97.452"/>
	<path fill="#FFFFFF" d="M156.417,95.887c0-8.249-6.687-14.936-14.936-14.936s-14.938,6.687-14.938,14.936
		c0,8.248,6.688,14.938,14.938,14.938S156.417,104.135,156.417,95.887"/>
	<path fill="#BA394A" d="M145.272,88.304c0-2.094-1.698-3.792-3.792-3.792s-3.791,1.698-3.791,3.792
		c0,2.094,1.697,3.792,3.791,3.792C143.575,92.096,145.272,90.397,145.272,88.304"/>
	<path fill="#D96878" d="M51.183,34.971c1.025-3.384,2.559-6.398,4.642-9.16c2.438-3.224,5.204-5.664,8.398-7.438
		c3.195-1.771,6.839-2.882,11.067-3.337h0.001c1.474-0.159,2.931-0.238,4.323-0.238c1.343,0,2.432-1.089,2.432-2.432
		c0-1.343-1.089-2.432-2.432-2.432c-1.577,0-3.204,0.089-4.845,0.266h0.001c-4.772,0.51-9.087,1.8-12.907,3.92
		c-3.822,2.118-7.128,5.059-9.921,8.761c-2.423,3.208-4.232,6.77-5.415,10.68c-0.389,1.286,0.337,2.644,1.623,3.033
		C49.436,36.983,50.794,36.256,51.183,34.971z"/>
	<path fill="#BA394A" d="M236.525,83.447c0.283-9.393,2.782-17.97,8.789-25.301c5.83-7.115,13.43-11.204,22.498-12.49
		c7.236-1.027,14.373-0.472,21.233,2.187c8.104,3.14,13.92,8.732,17.401,16.708c1.271,2.909,1.218,2.979-1.693,4.21
		c-5.449,2.305-10.906,4.596-16.354,6.915c-0.679,0.289-1.158,0.296-1.516-0.444c-1.736-3.602-4.84-5.479-8.532-6.392
		c-4.59-1.134-9.003-0.643-12.931,2.227c-3.096,2.262-4.667,5.462-5.221,9.166c-0.631,4.235-0.07,8.292,2.572,11.795
		c3.682,4.881,8.76,6.326,14.573,5.352c4.158-0.694,7.439-2.855,9.396-6.728c0.512-1.016,1.207-0.868,2.032-0.512
		c5.285,2.28,10.576,4.55,15.864,6.823c0.536,0.229,1.087,0.438,1.605,0.705c1.118,0.574,1.462,1.404,0.91,2.498
		c-5.34,10.601-13.371,17.742-25.432,19.609c-8.033,1.245-15.929,0.73-23.503-2.387c-11.276-4.645-18.069-13.082-20.555-24.958
		C237.057,89.486,236.896,86.445,236.525,83.447"/>
	<path fill="#BA394A" d="M236.525,83.447c0.283-9.393,2.782-17.97,8.789-25.301c5.83-7.115,13.43-11.204,22.498-12.49
		c7.236-1.027,14.373-0.472,21.233,2.187c8.104,3.14,13.92,8.732,17.401,16.708c1.271,2.909,1.218,2.979-1.693,4.21
		c-5.449,2.305-10.906,4.596-16.354,6.915c-0.679,0.289-1.158,0.296-1.516-0.444c-1.736-3.602-4.84-5.479-8.532-6.392
		c-4.59-1.134-9.003-0.643-12.931,2.227c-3.096,2.262-4.667,5.462-5.221,9.166c-0.631,4.235-0.07,8.292,2.572,11.795
		c3.682,4.881,8.76,6.326,14.573,5.352c4.158-0.694,7.439-2.855,9.396-6.728c0.512-1.016,1.207-0.868,2.032-0.512
		c5.285,2.28,10.576,4.55,15.864,6.823c0.536,0.229,1.087,0.438,1.605,0.705c1.118,0.574,1.462,1.404,0.91,2.498
		c-5.34,10.601-13.371,17.742-25.432,19.609c-8.033,1.245-15.929,0.73-23.503-2.387c-11.276-4.645-18.069-13.082-20.555-24.958
		C237.057,89.486,236.896,86.445,236.525,83.447"/>
	<path fill="#B13646" d="M273.543,97.706c-4.349-0.056-8.146-1.76-11.065-5.629c-2.646-3.502-3.203-7.561-2.572-11.794
		c0.552-3.705,2.125-6.904,5.22-9.166c2.62-1.916,5.458-2.767,8.42-2.787V45.23c-2.001,0.029-4.013,0.187-6.031,0.473
		c-9.067,1.287-16.668,5.376-22.498,12.491c-6.009,7.331-8.508,15.908-8.789,25.301c0.37,2.998,0.53,6.039,1.146,8.986
		c2.484,11.876,9.276,20.314,20.556,24.958c5.079,2.093,10.305,3.006,15.616,3.011L273.543,97.706L273.543,97.706z"/>
	<path fill="#D96878" d="M246.179,73.265c1.025-3.384,2.56-6.398,4.643-9.16c2.437-3.224,5.203-5.664,8.397-7.438
		c3.194-1.771,6.84-2.882,11.066-3.337h0.002c1.474-0.159,2.929-0.238,4.323-0.238c1.343,0,2.432-1.089,2.432-2.432
		c0-1.343-1.089-2.432-2.432-2.432c-1.578,0-3.204,0.089-4.845,0.266h0.002c-4.773,0.51-9.088,1.799-12.909,3.919
		c-3.821,2.118-7.128,5.059-9.921,8.761c-2.423,3.208-4.231,6.77-5.415,10.68c-0.39,1.286,0.337,2.644,1.623,3.033
		C244.433,75.277,245.791,74.55,246.179,73.265z"/>
	<path fill="#BA394A" d="M461.031,95.958v-0.01h0.03c-0.001-24.324,0-28.323-0.001-32.321c0-0.684-0.011-1.369-0.057-2.051
		c-0.041-0.626-0.34-1.041-1.037-1.049c-0.356-0.003-0.714-0.054-1.07-0.054c-6.582-0.004-13.164-0.003-19.746-0.002
		c-1.877,0-1.877,0.002-1.877,1.857V95.11v0.838v0.055c-0.004,3.035-0.784,5.92-2.729,8.496c-2.808,3.721-6.448,5.385-10.612,5.483
		c-4.165-0.099-7.809-1.765-10.613-5.483c-1.984-2.631-2.759-5.584-2.729-8.688h-0.022c0-24.201,0-28.193-0.001-32.185
		c0-0.684-0.01-1.369-0.057-2.051c-0.041-0.626-0.338-1.041-1.037-1.049c-0.356-0.003-0.714-0.054-1.07-0.054
		c-6.582-0.004-13.164-0.003-19.746-0.002c-1.876,0-1.877,0.002-1.877,1.857v33.619h0.03c-0.012,0.219-0.023,0.438-0.03,0.658
		c0.371,2.998,0.533,6.04,1.148,8.984c1.562,7.478,4.836,13.59,9.856,18.252c4.693,4.763,10.611,7.938,18.072,9.095
		c2.706,0.42,5.395,0.634,8.062,0.622c2.669,0.012,5.357-0.202,8.063-0.622c1.857-0.288,3.619-0.701,5.291-1.233v2.432h0.007
		c-0.002,3.091-0.69,6.025-2.672,8.65c-3.683,4.879-8.588,6.326-14.402,5.352c-4.16-0.695-7.438-2.855-9.396-6.729
		c-0.513-1.014-1.207-0.867-2.033-0.511c-5.285,2.278-10.576,4.55-15.864,6.821c-0.537,0.232-1.087,0.441-1.604,0.707
		c-1.119,0.574-1.463,1.404-0.91,2.498c5.338,10.601,13.371,17.74,25.431,19.609c8.033,1.244,15.929,0.731,23.503-2.388
		c11.277-4.644,18.069-13.081,20.555-24.958c0.614-2.945,0.776-5.986,1.147-8.984l-0.003-0.07h0.003V96.861l0.03-0.257
		C461.054,96.388,461.042,96.172,461.031,95.958"/>
	<path fill="#B13646" d="M423.617,148.458c-1.19,0.031-2.429-0.06-3.713-0.272c-4.16-0.697-7.439-2.854-9.396-6.729
		c-0.515-1.015-1.207-0.867-2.033-0.512c-5.285,2.28-10.576,4.551-15.864,6.823c-0.537,0.231-1.087,0.44-1.605,0.707
		c-1.118,0.573-1.461,1.403-0.91,2.497c5.339,10.6,13.371,17.74,25.433,19.609c2.715,0.422,5.415,0.635,8.092,0.623v-22.746H423.617
		L423.617,148.458z"/>
	<path fill="#B13646" d="M397.482,123.89c4.693,4.762,10.611,7.938,18.072,9.094c2.705,0.42,5.396,0.634,8.062,0.622v-23.577
		c-4.159-0.1-7.797-1.766-10.602-5.481c-1.984-2.631-2.758-5.582-2.729-8.688h-0.022c0-24.2,0.001-28.193,0-32.184
		c-0.001-0.684-0.011-1.369-0.058-2.051c-0.042-0.626-0.339-1.041-1.036-1.049c-0.356-0.003-0.715-0.054-1.07-0.054
		c-6.583-0.004-13.165-0.003-19.747-0.002c-1.876,0-1.877,0.002-1.877,1.857v33.62h0.031c-0.014,0.219-0.023,0.438-0.031,0.657
		c0.371,2.998,0.533,6.04,1.147,8.986C389.188,113.114,392.461,119.228,397.482,123.89"/>
	<path fill="#D96878" d="M403.427,101.907c0.701,2.663,1.909,5.141,3.578,7.354c2.036,2.701,4.526,4.838,7.366,6.301
		c2.84,1.465,6.017,2.249,9.375,2.324h-0.018l0.128,0.004h0.149l0.127-0.004c1.342-0.041,2.396-1.163,2.354-2.506
		c-0.041-1.342-1.163-2.397-2.506-2.355l-0.052,0.001l-0.054-0.001l-0.02-0.001c-2.684-0.063-5.099-0.674-7.259-1.785
		c-2.158-1.114-4.074-2.737-5.712-4.905c-1.301-1.729-2.214-3.606-2.759-5.666c-0.344-1.299-1.675-2.074-2.973-1.73
		C403.859,99.277,403.085,100.608,403.427,101.907z"/>
	<path fill="#E5E5E5" d="M274.613,128.124L274.613,128.124c-16.198,0-29.328,1.287-29.328,2.873c0,1.588,13.13,2.875,29.328,2.875
		c16.197,0,29.328-1.287,29.328-2.875l0,0C303.941,129.411,290.81,128.124,274.613,128.124"/>
	<path fill="#FFFFFF" d="M92.56,45.23c0-7.149-5.795-12.944-12.944-12.944S66.671,38.081,66.671,45.23s5.796,12.944,12.945,12.944
		S92.56,52.379,92.56,45.23"/>
</g>
</svg>
