<?xml version="1.0" encoding="utf-8"?>
<!-- Generator: Adobe Illustrator 15.0.0, SVG Export Plug-In . SVG Version: 6.00 Build 0)  -->
<!DOCTYPE svg PUBLIC "-//W3C//DTD SVG 1.0//EN" "http://www.w3.org/TR/2001/REC-SVG-20010904/DTD/svg10.dtd">
<svg version="1.0" id="Layer_1" xmlns="http://www.w3.org/2000/svg" xmlns:xlink="http://www.w3.org/1999/xlink" x="0px" y="0px"
	 width="215.575px" height="90.627px" viewBox="0 0 215.575 90.627" enable-background="new 0 0 215.575 90.627"
	 xml:space="preserve">
<path opacity="0.5" fill="#D4D2D2" d="M51.545,4.34H6.169v0.098c-0.115-0.009-0.23-0.019-0.348-0.019C2.606,4.419,0,7.026,0,10.241
	c0,2.011,1.022,3.782,2.573,4.827v0.935C1.022,17.049,0,18.819,0,20.831l0.004,0.066L0,20.963c0,2.013,1.022,3.782,2.573,4.828
	v0.936C1.022,27.772,0,29.542,0,31.555l0.004,0.065L0,31.687c0,2.012,1.022,3.781,2.573,4.828v0.935C1.022,38.494,0,40.266,0,42.276
	l0.004,0.065L0,42.409c0,2.011,1.022,3.781,2.573,4.826v0.936C1.022,49.217,0,50.987,0,52.999l0.004,0.066L0,53.131
	c0,2.013,1.022,3.782,2.573,4.828v0.937C1.022,59.94,0,61.71,0,63.724c0,3.215,2.606,5.819,5.821,5.819
	c0.118,0,0.233-0.009,0.348-0.017v0.017h45.214c1.838,0,3.328-1.49,3.328-3.328V7.505C54.711,5.757,53.294,4.34,51.545,4.34"/>
<path fill="#F4F4C8" d="M6.169,65.203v-0.019c-0.115,0.01-0.23,0.019-0.348,0.019C2.606,65.203,0,62.597,0,59.382
	c0-2.012,1.022-3.781,2.573-4.828v-0.935C1.022,52.573,0,50.803,0,48.791c0-0.022,0.003-0.044,0.004-0.065
	C0.003,48.703,0,48.681,0,48.659c0-2.014,1.022-3.782,2.573-4.828v-0.936C1.022,41.851,0,40.08,0,38.069
	c0-0.023,0.003-0.044,0.004-0.067C0.003,37.979,0,37.959,0,37.936c0-2.011,1.022-3.781,2.573-4.826v-0.936
	C1.022,31.128,0,29.358,0,27.346c0-0.021,0.003-0.044,0.004-0.065C0.003,27.257,0,27.236,0,27.214c0-2.012,1.022-3.782,2.573-4.828
	v-0.935C1.022,20.405,0,18.635,0,16.623c0-0.022,0.003-0.043,0.004-0.066C0.003,16.535,0,16.513,0,16.491
	c0-2.013,1.022-3.782,2.573-4.828v-0.936C1.022,9.683,0,7.912,0,5.901c0-3.216,2.606-5.822,5.821-5.822
	c0.118,0,0.233,0.009,0.348,0.018V0h45.376c1.749,0,3.166,1.417,3.166,3.165v58.71c0,1.838-1.49,3.328-3.328,3.328H6.169z"/>
<path fill="#DFDCAD" d="M51.384,65.203H30.316V21.384L53.289,3.31c0.853-0.748,0.803-1.92,0.187-2.65
	c0.751,0.579,1.236,1.484,1.236,2.506v58.71C54.711,63.713,53.222,65.203,51.384,65.203"/>
<path opacity="0.5" fill="#D4D2D2" d="M182.463,25.423H32.653c-1.78,0-3.222,1.443-3.222,3.223v58.759
	c0,1.779,1.442,3.222,3.222,3.222h22.059h105.691h22.061c1.779,0,3.222-1.44,3.222-3.222V28.646
	C185.685,26.866,184.243,25.423,182.463,25.423"/>
<path fill="#FFFFFF" d="M182.463,20.54H32.471c-1.779,0-3.222,1.443-3.222,3.223v58.759c0,1.779,1.443,3.222,3.222,3.222h149.992
	c1.779,0,3.222-1.441,3.222-3.222V23.763C185.685,21.983,184.243,20.54,182.463,20.54"/>
</svg>
