<?xml version="1.0" encoding="utf-8"?>
<!-- Generator: Adobe Illustrator 17.0.0, SVG Export Plug-In . SVG Version: 6.00 Build 0)  -->
<!DOCTYPE svg PUBLIC "-//W3C//DTD SVG 1.1//EN" "http://www.w3.org/Graphics/SVG/1.1/DTD/svg11.dtd">
<svg version="1.1" id="Layer_1" xmlns="http://www.w3.org/2000/svg" xmlns:xlink="http://www.w3.org/1999/xlink" x="0px" y="0px"
	 width="117.69px" height="70.896px" viewBox="0 0 117.69 70.896" enable-background="new 0 0 117.69 70.896" xml:space="preserve">
<path fill="#B7E3E9" d="M112.688,42.473c0,11.728-9.081,21.235-20.285,21.235c-2.982,0-5.812-0.672-8.361-1.881
	c-3.666,5.481-9.746,9.069-16.626,9.069c-6.087,0-11.545-2.81-15.263-7.255c-2.878,1.638-6.172,2.57-9.677,2.57
	c-3.072,0-5.985-0.719-8.596-1.997c-0.405,0.198-0.819,0.384-1.238,0.552c-2.057,0.843-4.279,1.341-6.601,1.427
	c-0.249,0.012-0.502,0.017-0.755,0.017c-0.663,0-1.321-0.032-1.967-0.099c-8.92-0.9-16.152-7.847-17.909-16.877
	c-0.27-1.375-0.409-2.8-0.409-4.259c0-7.954,4.175-14.885,10.354-18.525c2.703-8.407,10.29-14.463,19.231-14.463
	c1.538,0,3.032,0.181,4.471,0.52c1.074-1.397,2.315-2.654,3.692-3.729c3.382-2.644,7.576-4.21,12.12-4.21
	c4.494,0,8.643,1.529,12.004,4.116c1.323-1.886,2.935-3.536,4.769-4.874C74.93,1.41,78.925,0,83.237,0
	c5.713,0,10.875,2.473,14.56,6.452c0.729,0.786,1.399,1.63,2.002,2.525c2.348,3.462,3.725,7.691,3.725,12.258
	c0,1.125-0.085,2.23-0.246,3.308C108.934,28.309,112.688,34.933,112.688,42.473z"/>
</svg>
