<?xml version="1.0" encoding="utf-8"?>
<!-- Generator: Adobe Illustrator 17.0.0, SVG Export Plug-In . SVG Version: 6.00 Build 0)  -->
<!DOCTYPE svg PUBLIC "-//W3C//DTD SVG 1.1//EN" "http://www.w3.org/Graphics/SVG/1.1/DTD/svg11.dtd">
<svg version="1.1" id="Layer_1" xmlns="http://www.w3.org/2000/svg" xmlns:xlink="http://www.w3.org/1999/xlink" x="0px" y="0px"
	 width="158.96px" height="98.068px" viewBox="0 0 158.96 98.068" enable-background="new 0 0 158.96 98.068" xml:space="preserve">
<path fill="#B7E3E9" d="M153.958,58.751c0,16.222-12.561,29.374-28.059,29.374c-4.125,0-8.04-0.929-11.566-2.601
	c-5.071,7.582-13.481,12.545-22.998,12.545c-8.42,0-15.969-3.887-21.112-10.036c-3.981,2.266-8.538,3.554-13.386,3.554
	c-4.249,0-8.279-0.994-11.89-2.763c-0.56,0.274-1.133,0.531-1.712,0.764c-2.845,1.165-5.919,1.854-9.13,1.974
	c-0.344,0.017-0.694,0.024-1.044,0.024c-0.917,0-1.827-0.045-2.72-0.137C18.001,90.205,7.997,80.594,5.568,68.105
	c-0.373-1.902-0.566-3.873-0.566-5.892c0-11.002,5.775-20.589,14.323-25.624c3.739-11.63,14.234-20.006,26.602-20.006
	c2.128,0,4.194,0.25,6.184,0.72c1.486-1.933,3.202-3.671,5.107-5.158C61.895,8.487,67.696,6.32,73.982,6.32
	c6.217,0,11.956,2.115,16.604,5.693c1.83-2.608,4.059-4.891,6.597-6.742C101.73,1.95,107.256,0,113.22,0
	c7.903,0,15.043,3.421,20.14,8.925c1.008,1.087,1.935,2.255,2.77,3.493c3.247,4.788,5.153,10.639,5.153,16.956
	c0,1.556-0.118,3.085-0.34,4.576C148.766,39.159,153.958,48.321,153.958,58.751z"/>
</svg>
