<?xml version="1.0" encoding="utf-8"?>
<!-- Generator: Adobe Illustrator 17.0.0, SVG Export Plug-In . SVG Version: 6.00 Build 0)  -->
<!DOCTYPE svg PUBLIC "-//W3C//DTD SVG 1.1//EN" "http://www.w3.org/Graphics/SVG/1.1/DTD/svg11.dtd">
<svg version="1.1" id="Layer_1" xmlns="http://www.w3.org/2000/svg" xmlns:xlink="http://www.w3.org/1999/xlink" x="0px" y="0px"
	 width="547.25px" height="353.708px" viewBox="0 0 547.25 353.708" enable-background="new 0 0 547.25 353.708"
	 xml:space="preserve">
<path fill="#B7E3E9" d="M542.251,211.901c0,58.51-45.305,105.944-101.202,105.944c-14.877,0-28.999-3.35-41.716-9.383
	c-18.29,27.345-48.623,45.246-82.948,45.246c-30.369,0-57.597-14.019-76.146-36.197c-14.358,8.171-30.794,12.82-48.281,12.82
	c-15.326,0-29.861-3.585-42.885-9.964c-2.019,0.989-4.085,1.916-6.175,2.757c-10.261,4.203-21.348,6.688-32.931,7.121
	c-1.24,0.062-2.503,0.087-3.767,0.087c-3.306,0-6.589-0.161-9.812-0.495c-44.502-4.487-80.586-39.151-89.347-84.199
	c-1.346-6.861-2.043-13.969-2.043-21.251c0-39.683,20.828-74.26,51.658-92.42c13.484-41.945,51.339-72.158,95.948-72.158
	c7.675,0,15.125,0.902,22.304,2.596c5.361-6.972,11.548-13.24,18.42-18.605c16.873-13.191,37.796-21.003,60.466-21.003
	c22.422,0,43.121,7.627,59.887,20.534c6.6-9.408,14.641-17.641,23.792-24.316C353.875,7.034,373.806,0,395.319,0
	c28.503,0,54.255,12.338,72.64,32.191c3.637,3.919,6.978,8.134,9.989,12.597c11.713,17.27,18.585,38.372,18.585,61.156
	c0,5.612-0.425,11.126-1.228,16.504C523.525,141.238,542.251,174.283,542.251,211.901z"/>
</svg>
