<?xml version="1.0" encoding="utf-8"?>
<!-- Generator: Adobe Illustrator 17.0.0, SVG Export Plug-In . SVG Version: 6.00 Build 0)  -->
<!DOCTYPE svg PUBLIC "-//W3C//DTD SVG 1.1//EN" "http://www.w3.org/Graphics/SVG/1.1/DTD/svg11.dtd">
<svg version="1.1" id="Layer_1" xmlns="http://www.w3.org/2000/svg" xmlns:xlink="http://www.w3.org/1999/xlink" x="0px" y="0px"
	 width="616.23px" height="228.98px" viewBox="0 0 616.23 228.98" enable-background="new 0 0 616.23 228.98" xml:space="preserve">
<g>
	<path fill="#F9C7DD" d="M611.229,228.98c-1.984-50.361-43.417-90.585-94.264-90.585c-14.915,0-29.014,3.473-41.553,9.635
		C465.263,64.625,394.259,0,308.115,0c-86.144,0-157.148,64.625-167.297,148.029c-12.539-6.162-26.638-9.635-41.553-9.635
		c-50.848,0-92.28,40.224-94.264,90.585H611.229z"/>
	<path fill="#F9C7DD" d="M611.229,228.98c-1.984-50.361-43.417-90.585-94.264-90.585c-14.915,0-29.014,3.473-41.553,9.635
		C465.263,64.625,394.259,0,308.115,0c-86.144,0-157.148,64.625-167.297,148.029c-12.539-6.162-26.638-9.635-41.553-9.635
		c-50.848,0-92.28,40.224-94.264,90.585H611.229z"/>
</g>
</svg>
