<?xml version="1.0" encoding="utf-8"?>
<!-- Generator: Adobe Illustrator 17.0.0, SVG Export Plug-In . SVG Version: 6.00 Build 0)  -->
<!DOCTYPE svg PUBLIC "-//W3C//DTD SVG 1.1//EN" "http://www.w3.org/Graphics/SVG/1.1/DTD/svg11.dtd">
<svg version="1.1" id="Layer_1" xmlns="http://www.w3.org/2000/svg" xmlns:xlink="http://www.w3.org/1999/xlink" x="0px" y="0px"
	 width="215.31px" height="135.167px" viewBox="0 0 215.31 135.167" enable-background="new 0 0 215.31 135.167"
	 xml:space="preserve">
<path fill="#B7E3E9" d="M210.309,80.977c0,22.359-17.313,40.486-38.674,40.486c-5.685,0-11.082-1.28-15.941-3.586
	c-6.989,10.45-18.581,17.29-31.698,17.29c-11.605,0-22.01-5.357-29.099-13.832c-5.487,3.123-11.768,4.899-18.45,4.899
	c-5.857,0-11.411-1.37-16.388-3.808c-0.772,0.378-1.561,0.732-2.36,1.053c-3.921,1.606-8.158,2.556-12.584,2.721
	c-0.474,0.024-0.957,0.033-1.439,0.033c-1.263,0-2.518-0.061-3.75-0.189C22.919,124.33,9.13,111.084,5.782,93.869
	c-0.514-2.622-0.781-5.338-0.781-8.121c0-15.164,7.959-28.378,19.741-35.318c5.153-16.029,19.619-27.575,36.666-27.575
	c2.933,0,5.78,0.345,8.524,0.992c2.048-2.664,4.413-5.059,7.039-7.11c6.448-5.041,14.443-8.026,23.107-8.026
	c8.569,0,16.478,2.915,22.886,7.847c2.522-3.595,5.595-6.741,9.092-9.292C138.322,2.688,145.938,0,154.16,0
	c10.892,0,20.733,4.715,27.759,12.302c1.39,1.498,2.667,3.109,3.817,4.814c4.476,6.6,7.102,14.664,7.102,23.37
	c0,2.145-0.162,4.252-0.469,6.307C203.153,53.973,210.309,66.601,210.309,80.977z"/>
</svg>
