<?xml version="1.0" encoding="utf-8"?>
<!-- Generator: Adobe Illustrator 17.0.0, SVG Export Plug-In . SVG Version: 6.00 Build 0)  -->
<!DOCTYPE svg PUBLIC "-//W3C//DTD SVG 1.1//EN" "http://www.w3.org/Graphics/SVG/1.1/DTD/svg11.dtd">
<svg version="1.1" id="Layer_1" xmlns="http://www.w3.org/2000/svg" xmlns:xlink="http://www.w3.org/1999/xlink" x="0px" y="0px"
	 width="2447.564px" height="1135.683px" viewBox="0 0 2447.564 1135.683" enable-background="new 0 0 2447.564 1135.683"
	 xml:space="preserve">
<polyline fill="#F49C99" points="2446.546,0 2446.546,44.711 0,1135.683 0,1095.707 "/>
<polygon fill="#FABEBD" points="11.206,1103.565 11.206,1112.064 2426.085,36.618 2426.085,23.619 "/>
<polygon fill="#2D3653" points="2446.546,44.711 2446.546,1135.683 0,1135.683 "/>
<line fill="none" stroke="#FFFFFF" stroke-width="5" stroke-miterlimit="10" x1="659.108" y1="845.484" x2="659.108" y2="1135.683"/>
<line fill="none" stroke="#FFFFFF" stroke-width="5" stroke-miterlimit="10" x1="659.108" y1="993.389" x2="1326.858" y2="993.389"/>
<line fill="none" stroke="#FFFFFF" stroke-width="3" stroke-miterlimit="10" stroke-dasharray="3,15" x1="659.108" y1="1011.006" x2="1326.858" y2="1011.006"/>
<line fill="none" stroke="#FFFFFF" stroke-width="5" stroke-miterlimit="10" x1="1326.858" y1="1135.683" x2="1326.858" y2="548.265"/>
<line fill="none" stroke="#FFFFFF" stroke-width="3" stroke-miterlimit="10" stroke-dasharray="3,15" x1="1313.858" y1="1136.859" x2="1313.858" y2="567.842"/>
<line fill="none" stroke="#FFFFFF" stroke-width="5" stroke-miterlimit="10" x1="1740.858" y1="363.991" x2="1740.858" y2="707.006"/>
<line fill="none" stroke="#FFFFFF" stroke-width="3" stroke-miterlimit="10" stroke-dasharray="3,15" x1="1720.858" y1="396.265" x2="1720.858" y2="688.006"/>
<line fill="none" stroke="#FFFFFF" stroke-width="5" stroke-miterlimit="10" x1="1740.858" y1="707.006" x2="1326.858" y2="707.006"/>
<line fill="none" stroke="#FFFFFF" stroke-width="5" stroke-miterlimit="10" x1="1740.858" y1="707.006" x2="2102.858" y2="707.006"/>
<line fill="none" stroke="#FFFFFF" stroke-width="3" stroke-miterlimit="10" stroke-dasharray="3,15" x1="1740.858" y1="688.006" x2="1326.858" y2="688.006"/>
<line fill="none" stroke="#FFFFFF" stroke-width="3" stroke-miterlimit="10" stroke-dasharray="3,15" x1="1740.858" y1="688.006" x2="2102.858" y2="688.006"/>
<line fill="none" stroke="#FFFFFF" stroke-width="5" stroke-miterlimit="10" x1="2102.858" y1="707.006" x2="2102.858" y2="202.864"/>
<line fill="none" stroke="#FFFFFF" stroke-width="5" stroke-miterlimit="10" x1="2102.858" y1="459.321" x2="2446.546" y2="459.321"/>
<line fill="none" stroke="#FFFFFF" stroke-width="3" stroke-miterlimit="10" stroke-dasharray="3,15" x1="2102.858" y1="475.006" x2="2446.546" y2="475.006"/>
<line fill="none" stroke="#FFFFFF" stroke-width="5" stroke-miterlimit="10" x1="2102.858" y1="707.006" x2="2102.858" y2="831.221"/>
<line fill="none" stroke="#FFFFFF" stroke-width="3" stroke-miterlimit="10" stroke-dasharray="3,15" x1="2118.858" y1="707.006" x2="2118.858" y2="212.638"/>
<line fill="none" stroke="#FFFFFF" stroke-width="3" stroke-miterlimit="10" stroke-dasharray="3,15" x1="2118.858" y1="707.006" x2="2118.858" y2="831.221"/>
<line fill="none" stroke="#FFFFFF" stroke-width="5" stroke-miterlimit="10" x1="2102.858" y1="831.221" x2="2446.546" y2="831.221"/>
<line fill="none" stroke="#FFFFFF" stroke-width="3" stroke-miterlimit="10" stroke-dasharray="3,15" x1="2118.858" y1="815.006" x2="2446.546" y2="815.006"/>
<line fill="none" stroke="#FFFFFF" stroke-width="5" stroke-miterlimit="10" x1="2256.858" y1="831.221" x2="2256.858" y2="1135.683"/>
<line fill="none" stroke="#FFFFFF" stroke-width="3" stroke-miterlimit="10" stroke-dasharray="3,15" x1="2274.702" y1="839.006" x2="2274.702" y2="1140.859"/>
<line fill="none" stroke="#FFFFFF" stroke-width="5" stroke-miterlimit="10" x1="1594.858" y1="707.006" x2="1594.858" y2="863.664"/>
<line fill="none" stroke="#FFFFFF" stroke-width="3" stroke-miterlimit="10" stroke-dasharray="3,15" x1="1575.858" y1="707.006" x2="1575.858" y2="844.78"/>
<line fill="none" stroke="#FFFFFF" stroke-width="5" stroke-miterlimit="10" x1="1594.858" y1="863.664" x2="1326.858" y2="863.664"/>
<line fill="none" stroke="#FFFFFF" stroke-width="3" stroke-miterlimit="10" stroke-dasharray="3,15" x1="1594.858" y1="845.484" x2="1326.858" y2="845.484"/>
<line fill="none" stroke="#FFFFFF" stroke-width="5" stroke-miterlimit="10" x1="1882.858" y1="707.006" x2="1882.858" y2="1061.006"/>
<line fill="none" stroke="#FFFFFF" stroke-width="3" stroke-miterlimit="10" stroke-dasharray="3,15" x1="1898.858" y1="707.006" x2="1898.858" y2="1061.006"/>
<line fill="none" stroke="#FFFFFF" stroke-width="5" stroke-miterlimit="10" x1="1882.858" y1="1061.006" x2="2256.858" y2="1061.006"/>
<line fill="none" stroke="#FFFFFF" stroke-width="3" stroke-miterlimit="10" stroke-dasharray="3,15" x1="1898.858" y1="1042.006" x2="2256.858" y2="1042.006"/>
<circle fill="none" stroke="#FFFFFF" stroke-width="5" stroke-miterlimit="10" cx="2256.858" cy="373.006" r="31.561"/>
<circle fill="none" stroke="#FFFFFF" stroke-width="3" stroke-miterlimit="10" stroke-dasharray="3,15" cx="2256.858" cy="373.006" r="44.561"/>
<circle fill="none" stroke="#FFFFFF" stroke-width="5" stroke-miterlimit="10" cx="2256.858" cy="540.006" r="31.561"/>
<circle fill="none" stroke="#FFFFFF" stroke-width="3" stroke-miterlimit="10" stroke-dasharray="3,15" cx="2256.858" cy="540.006" r="44.561"/>
<line fill="none" stroke="#FFFFFF" stroke-width="5" stroke-miterlimit="10" x1="2.636" y1="1135.683" x2="2446.546" y2="45.887"/>
<line fill="none" stroke="#FFFFFF" stroke-width="3" stroke-miterlimit="10" stroke-dasharray="3,15" x1="51.704" y1="1134.699" x2="2446.546" y2="66.783"/>
<line fill="none" stroke="#FFFFFF" stroke-width="3" stroke-miterlimit="10" stroke-dasharray="3,15" x1="640.858" y1="869.512" x2="640.858" y2="1141.294"/>
<path fill="#F49C99" d="M2277.157,537.989h-1.923c-0.106-0.884-0.279-1.766-0.518-2.632l1.811-0.709
	c0.26-0.103,0.391-0.397,0.288-0.657l-1.1-2.814c-0.103-0.26-0.394-0.388-0.654-0.285l-1.835,0.715
	c-0.524-0.984-1.148-1.932-1.869-2.829l1.403-1.405c0.2-0.197,0.2-0.518,0-0.715l-2.135-2.135c-0.197-0.197-0.518-0.197-0.715,0
	l-1.402,1.402c-0.703-0.563-1.439-1.069-2.199-1.514l0.794-1.805c0.112-0.258-0.006-0.557-0.264-0.669l-2.765-1.212
	c-0.257-0.112-0.554,0.006-0.666,0.26l-0.785,1.787c-1.087-0.345-2.202-0.588-3.329-0.724v-1.923c0-0.279-0.227-0.506-0.506-0.506
	h-3.023c-0.279,0-0.506,0.227-0.506,0.506v1.872c-0.9,0.088-1.793,0.245-2.675,0.466v-0.003l-0.669-1.708
	c-0.1-0.257-0.394-0.388-0.654-0.288l-2.814,1.103c-0.26,0.103-0.391,0.394-0.288,0.654l0.645,1.648v0.006
	c-1.024,0.518-2.011,1.139-2.944,1.863l-1.218-1.215c-0.197-0.197-0.518-0.197-0.715,0l-2.135,2.135c-0.2,0.197-0.2,0.518,0,0.715
	l1.166,1.169c-0.603,0.727-1.145,1.49-1.617,2.284l-1.469-0.642c-0.254-0.112-0.554,0.003-0.667,0.26l-1.212,2.766
	c-0.112,0.257,0.003,0.557,0.261,0.669l1.414,0.618c-0.375,1.142-0.636,2.311-0.778,3.492h-1.496c-0.282,0-0.506,0.227-0.506,0.509
	v3.02c0,0.279,0.224,0.506,0.506,0.506h1.445c0.094,0.951,0.263,1.896,0.506,2.826l-1.321,0.518c-0.26,0.1-0.391,0.394-0.288,0.654
	l1.1,2.814c0.103,0.26,0.394,0.388,0.654,0.288l1.296-0.506c0.548,1.063,1.208,2.084,1.981,3.047l-0.975,0.975
	c-0.2,0.197-0.2,0.518,0,0.715l2.135,2.138c0.197,0.197,0.518,0.197,0.715,0l0.975-0.975c0.763,0.609,1.563,1.151,2.39,1.62
	l-0.554,1.272c-0.115,0.258,0.003,0.554,0.26,0.666l2.766,1.212c0.257,0.112,0.554-0.003,0.666-0.26l0.566-1.29
	c1.16,0.351,2.347,0.591,3.547,0.709v1.442c0,0.279,0.227,0.506,0.506,0.506h3.02c0.279,0,0.506-0.227,0.506-0.506l0.003-1.49
	v-0.003c0.939-0.115,1.869-0.3,2.783-0.56l0.557,1.427c0.103,0.26,0.397,0.388,0.657,0.285l2.814-1.099
	c0.26-0.1,0.388-0.394,0.288-0.654l-0.582-1.484c1.024-0.557,2.005-1.218,2.929-1.984l1.169,1.169c0.197,0.197,0.518,0.197,0.715,0
	l2.135-2.138c0.2-0.197,0.2-0.518,0-0.715l-1.215-1.218c0.57-0.733,1.075-1.502,1.521-2.299l1.615,0.709
	c0.254,0.112,0.554-0.006,0.667-0.26l1.212-2.768c0.112-0.254-0.003-0.554-0.261-0.666l-1.669-0.73
	c0.327-1.109,0.545-2.241,0.657-3.383h1.872c0.281,0,0.506-0.227,0.506-0.506v-3.02
	C2277.663,538.216,2277.439,537.989,2277.157,537.989z M2257.275,547.881c-4.35,0-7.875-3.526-7.875-7.875
	c0-4.35,3.526-7.875,7.875-7.875s7.875,3.526,7.875,7.875S2261.625,547.881,2257.275,547.881z"/>
<circle fill="#F49C99" cx="2257.275" cy="540.006" r="3.332"/>
<path fill="#F49C99" d="M2277.157,370.989h-1.923c-0.106-0.884-0.279-1.766-0.518-2.632l1.811-0.709
	c0.26-0.103,0.391-0.397,0.288-0.657l-1.1-2.814c-0.103-0.26-0.394-0.388-0.654-0.285l-1.835,0.715
	c-0.524-0.984-1.148-1.932-1.869-2.829l1.403-1.405c0.2-0.197,0.2-0.518,0-0.715l-2.135-2.135c-0.197-0.197-0.518-0.197-0.715,0
	l-1.402,1.402c-0.703-0.563-1.439-1.069-2.199-1.514l0.794-1.805c0.112-0.258-0.006-0.557-0.264-0.669l-2.765-1.212
	c-0.257-0.112-0.554,0.006-0.666,0.26l-0.785,1.787c-1.087-0.345-2.202-0.588-3.329-0.724v-1.923c0-0.279-0.227-0.506-0.506-0.506
	h-3.023c-0.279,0-0.506,0.227-0.506,0.506v1.872c-0.9,0.088-1.793,0.245-2.675,0.466v-0.003l-0.669-1.708
	c-0.1-0.257-0.394-0.388-0.654-0.288l-2.814,1.103c-0.26,0.103-0.391,0.394-0.288,0.654l0.645,1.648v0.006
	c-1.024,0.518-2.011,1.139-2.944,1.863l-1.218-1.215c-0.197-0.197-0.518-0.197-0.715,0l-2.135,2.135c-0.2,0.197-0.2,0.518,0,0.715
	l1.166,1.169c-0.603,0.727-1.145,1.49-1.617,2.284l-1.469-0.642c-0.254-0.112-0.554,0.003-0.667,0.26l-1.212,2.765
	c-0.112,0.257,0.003,0.557,0.261,0.669l1.414,0.618c-0.375,1.142-0.636,2.311-0.778,3.492h-1.496c-0.282,0-0.506,0.227-0.506,0.509
	v3.02c0,0.279,0.224,0.506,0.506,0.506h1.445c0.094,0.951,0.263,1.896,0.506,2.826l-1.321,0.518c-0.26,0.1-0.391,0.394-0.288,0.654
	l1.1,2.814c0.103,0.261,0.394,0.388,0.654,0.288l1.296-0.506c0.548,1.063,1.208,2.084,1.981,3.047l-0.975,0.975
	c-0.2,0.197-0.2,0.518,0,0.715l2.135,2.138c0.197,0.197,0.518,0.197,0.715,0l0.975-0.975c0.763,0.609,1.563,1.151,2.39,1.621
	l-0.554,1.272c-0.115,0.257,0.003,0.554,0.26,0.666l2.766,1.212c0.257,0.112,0.554-0.003,0.666-0.26l0.566-1.29
	c1.16,0.351,2.347,0.591,3.547,0.709v1.442c0,0.279,0.227,0.506,0.506,0.506h3.02c0.279,0,0.506-0.227,0.506-0.506l0.003-1.49
	v-0.003c0.939-0.115,1.869-0.3,2.783-0.56l0.557,1.427c0.103,0.26,0.397,0.388,0.657,0.285l2.814-1.099
	c0.26-0.1,0.388-0.394,0.288-0.654l-0.582-1.484c1.024-0.557,2.005-1.218,2.929-1.984l1.169,1.169c0.197,0.197,0.518,0.197,0.715,0
	l2.135-2.138c0.2-0.197,0.2-0.518,0-0.715l-1.215-1.218c0.57-0.733,1.075-1.502,1.521-2.299l1.615,0.709
	c0.254,0.112,0.554-0.006,0.667-0.26l1.212-2.768c0.112-0.254-0.003-0.554-0.261-0.666l-1.669-0.73
	c0.327-1.109,0.545-2.241,0.657-3.383h1.872c0.281,0,0.506-0.227,0.506-0.506v-3.02
	C2277.663,371.216,2277.439,370.989,2277.157,370.989z M2257.275,380.881c-4.35,0-7.875-3.526-7.875-7.875
	c0-4.35,3.526-7.875,7.875-7.875s7.875,3.526,7.875,7.875S2261.625,380.881,2257.275,380.881z"/>
<circle fill="#F49C99" cx="2257.275" cy="373.006" r="3.332"/>
<rect x="1428.361" y="993.389" fill="none" stroke="#FFFFFF" stroke-width="5" stroke-miterlimit="10" width="356" height="87.617"/>
<rect x="1401.606" y="965.572" fill="none" stroke="#FFFFFF" stroke-width="3" stroke-miterlimit="10" stroke-dasharray="3,15" width="409.51" height="143.251"/>
<polygon fill="#323C5C" points="603.676,928.074 603.676,1112.064 182.197,1112.064 "/>
<polygon fill="#323C5C" points="690.672,884.006 690.672,971.572 1289.142,971.572 1289.142,612.269 "/>
<polygon fill="#323C5C" points="1355.858,584.567 1355.858,671.587 1701.621,671.587 1701.621,424.099 "/>
<polygon fill="#323C5C" points="1763.118,396.006 1763.118,671.587 2082.602,671.587 2082.602,250.108 "/>
<rect x="1355.859" y="733.084" fill="#323C5C" width="200.27" height="91.495"/>
<rect x="1620.625" y="733.083" fill="#323C5C" width="236.988" height="208.633"/>
<rect x="1346.139" y="887.576" fill="#323C5C" width="274.486" height="54.14"/>
<rect x="1346.139" y="941.716" fill="#323C5C" width="32.998" height="167.107"/>
<rect x="1836.614" y="941.716" fill="#323C5C" width="20.999" height="170.348"/>
<rect x="1857.613" y="1090.066" fill="#323C5C" width="379.274" height="18.757"/>
<polygon fill="#323C5C" points="1922.86,733.083 1922.86,1025.27 2236.887,1025.27 2236.887,863.664 2077.858,863.664 
	2077.858,733.083 "/>
<rect x="2306.091" y="863.664" fill="#323C5C" width="119.994" height="248.401"/>
<rect x="690.672" y="1042.006" fill="#323C5C" width="598.47" height="57.439"/>
<path fill="#323C5C" d="M2422.948,495.446v296.47h-280.49v-296.47h62.69c-10.271,11.99-16.46,27.55-16.46,44.56
	c0,37.88,30.71,68.58,68.59,68.58c37.87,0,68.58-30.7,68.58-68.58c0-17.01-6.19-32.57-16.46-44.56L2422.948,495.446
	L2422.948,495.446z"/>
<path fill="#323C5C" d="M2141.679,229.106v208.99h283.479v-331.98L2141.679,229.106z M2256.858,432.736
	c-32.99,0-59.73-26.74-59.73-59.73s26.74-59.73,59.73-59.73s59.73,26.74,59.73,59.73S2289.849,432.736,2256.858,432.736z"/>
<rect x="1445.134" y="1011.006" fill="#323C5C" width="317.984" height="55.061"/>
</svg>
