<?xml version="1.0" encoding="utf-8"?>
<!-- Generator: Adobe Illustrator 17.0.0, SVG Export Plug-In . SVG Version: 6.00 Build 0)  -->
<!DOCTYPE svg PUBLIC "-//W3C//DTD SVG 1.1//EN" "http://www.w3.org/Graphics/SVG/1.1/DTD/svg11.dtd">
<svg version="1.1" id="Layer_1" xmlns="http://www.w3.org/2000/svg" xmlns:xlink="http://www.w3.org/1999/xlink" x="0px" y="0px"
	 width="2452.069px" height="1148.955px" viewBox="0 0 2452.069 1148.955" enable-background="new 0 0 2452.069 1148.955"
	 xml:space="preserve">
<polygon fill="#F49C99" points="2451.046,0 2451.046,48.126 4.5,1148.955 4.5,1099.122 "/>
<polygon fill="#FABEBD" points="15.705,1118.066 15.705,1131.065 2430.584,46.619 2430.584,35.12 "/>
<polygon fill="#2E3753" points="4.5,1099.122 4.5,0 2451.046,0 "/>
<line fill="none" stroke="#FFFFFF" stroke-width="5" stroke-miterlimit="10" x1="4.5" y1="116.116" x2="522.68" y2="116.116"/>
<line fill="none" stroke="#FFFFFF" stroke-width="3" stroke-miterlimit="10" stroke-dasharray="3,15" x1="4.5" y1="132" x2="522.68" y2="132"/>
<line fill="none" stroke="#FFFFFF" stroke-width="5" stroke-miterlimit="10" x1="522.68" y1="116.116" x2="522.68" y2="558.594"/>
<line fill="none" stroke="#FFFFFF" stroke-width="3" stroke-miterlimit="10" stroke-dasharray="3,15" x1="503.358" y1="132" x2="503.358" y2="541"/>
<line fill="none" stroke="#FFFFFF" stroke-width="3" stroke-miterlimit="10" stroke-dasharray="3,15" x1="221.092" y1="132" x2="221.092" y2="537.149"/>
<line fill="none" stroke="#FFFFFF" stroke-width="5" stroke-miterlimit="10" x1="522.68" y1="312.606" x2="1751.03" y2="312.606"/>
<line fill="none" stroke="#FFFFFF" stroke-width="3" stroke-miterlimit="10" stroke-dasharray="3,15" x1="522.68" y1="329" x2="1683.358" y2="329"/>
<line fill="none" stroke="#FFFFFF" stroke-width="5" stroke-miterlimit="10" x1="522.68" y1="558.594" x2="4.5" y2="558.594"/>
<line fill="none" stroke="#FFFFFF" stroke-width="3" stroke-miterlimit="10" stroke-dasharray="3,15" x1="522.68" y1="541" x2="4.5" y2="541"/>
<line fill="none" stroke="#FFFFFF" stroke-width="5" stroke-miterlimit="10" x1="986.157" y1="312.606" x2="986.157" y2="655.646"/>
<line fill="none" stroke="#FFFFFF" stroke-width="3" stroke-miterlimit="10" stroke-dasharray="3,15" x1="968.358" y1="331" x2="968.358" y2="645.333"/>
<line fill="none" stroke="#FFFFFF" stroke-width="5" stroke-miterlimit="10" x1="446.184" y1="558.594" x2="446.184" y2="901.537"/>
<line fill="none" stroke="#FFFFFF" stroke-width="3" stroke-miterlimit="10" stroke-dasharray="3,15" x1="427.358" y1="558.594" x2="427.358" y2="888"/>
<line fill="none" stroke="#FFFFFF" stroke-width="5" stroke-miterlimit="10" x1="756.668" y1="312.606" x2="756.668" y2="0"/>
<line fill="none" stroke="#FFFFFF" stroke-width="5" stroke-miterlimit="10" x1="1344.639" y1="312.606" x2="1344.639" y2="0"/>
<line fill="none" stroke="#FFFFFF" stroke-width="3" stroke-miterlimit="10" stroke-dasharray="3,15" x1="772.388" y1="312.606" x2="772.388" y2="0"/>
<line fill="none" stroke="#FFFFFF" stroke-width="3" stroke-miterlimit="10" stroke-dasharray="3,15" x1="1360.358" y1="312.606" x2="1360.358" y2="0"/>
<line fill="none" stroke="#FFFFFF" stroke-width="5" stroke-miterlimit="10" x1="2003.106" y1="0" x2="2003.106" y2="199.931"/>
<line fill="none" stroke="#FFFFFF" stroke-width="3" stroke-miterlimit="10" stroke-dasharray="3,15" x1="2020.358" y1="0" x2="2020.358" y2="193.43"/>
<line fill="none" stroke="#FFFFFF" stroke-width="5" stroke-miterlimit="10" x1="986.157" y1="484.126" x2="1371.443" y2="484.126"/>
<line fill="none" stroke="#FFFFFF" stroke-width="3" stroke-miterlimit="10" stroke-dasharray="3,15" x1="986.157" y1="499" x2="1301.745" y2="499"/>
<line fill="none" stroke="#FFFFFF" stroke-width="5" stroke-miterlimit="10" x1="446.184" y1="704.041" x2="881.031" y2="704.041"/>
<line fill="none" stroke="#FFFFFF" stroke-width="3" stroke-miterlimit="10" stroke-dasharray="3,15" x1="446.184" y1="688" x2="881.031" y2="688"/>
<line fill="none" stroke="#FFFFFF" stroke-width="5" stroke-miterlimit="10" x1="201.735" y1="1008.658" x2="4.5" y2="1008.658"/>
<line fill="none" stroke="#FFFFFF" stroke-width="3" stroke-miterlimit="10" stroke-dasharray="3,15" x1="206.025" y1="989.774" x2="0" y2="989.774"/>
<line fill="none" stroke="#FFFFFF" stroke-width="5" stroke-miterlimit="10" x1="239.358" y1="116.116" x2="239.358" y2="558.594"/>
<line fill="none" stroke="#FFFFFF" stroke-width="5" stroke-miterlimit="10" x1="446.184" y1="788" x2="4.5" y2="788"/>
<line fill="none" stroke="#FFFFFF" stroke-width="3" stroke-miterlimit="10" stroke-dasharray="3,15" x1="446.184" y1="773" x2="0" y2="773"/>
<circle fill="none" stroke="#FFFFFF" stroke-width="5" stroke-miterlimit="10" cx="735.358" cy="518" r="96"/>
<circle fill="none" stroke="#FFFFFF" stroke-width="3" stroke-miterlimit="10" stroke-dasharray="3,15" cx="735.358" cy="518" r="113"/>
<line fill="none" stroke="#FFFFFF" stroke-width="5" stroke-miterlimit="10" x1="4.5" y1="1097.667" x2="2451.046" y2="0"/>
<line fill="none" stroke="#FFFFFF" stroke-width="3" stroke-miterlimit="10" stroke-dasharray="3,15" x1="4.5" y1="1083.626" x2="2423.46" y2="-1.107"/>
<path fill="#F49C99" d="M800.998,511.34h-6.35c-0.35-2.92-0.92-5.83-1.71-8.69l5.98-2.34c0.86-0.34,1.29-1.31,0.95-2.17l-3.63-9.29
	c-0.34-0.86-1.3-1.28-2.16-0.94l-6.06,2.36c-1.73-3.25-3.79-6.38-6.17-9.34l4.63-4.64c0.66-0.65,0.66-1.71,0-2.36l-7.05-7.05
	c-0.65-0.65-1.71-0.65-2.36,0l-4.63,4.63c-2.32-1.86-4.75-3.53-7.26-5l2.62-5.96c0.37-0.85-0.02-1.84-0.87-2.21l-9.13-4
	c-0.85-0.37-1.83,0.02-2.2,0.86l-2.59,5.9c-3.59-1.14-7.27-1.94-10.99-2.39v-6.35c0-0.92-0.75-1.67-1.67-1.67h-9.98
	c-0.92,0-1.67,0.75-1.67,1.67v6.18c-2.97,0.29-5.92,0.81-8.83,1.54v-0.01l-2.21-5.64c-0.33-0.85-1.3-1.28-2.16-0.95l-9.29,3.64
	c-0.86,0.34-1.29,1.3-0.95,2.16l2.13,5.44v0.02c-3.38,1.71-6.64,3.76-9.72,6.15l-4.02-4.01c-0.65-0.65-1.71-0.65-2.36,0l-7.05,7.05
	c-0.66,0.65-0.66,1.71,0,2.36l3.85,3.86c-1.99,2.4-3.78,4.92-5.34,7.54l-4.85-2.12c-0.84-0.37-1.83,0.01-2.2,0.86l-4,9.13
	c-0.37,0.85,0.01,1.84,0.86,2.21l4.67,2.04c-1.24,3.77-2.1,7.63-2.57,11.53h-4.94c-0.93,0-1.67,0.75-1.67,1.68v9.97
	c0,0.92,0.74,1.67,1.67,1.67h4.77c0.31,3.14,0.87,6.26,1.67,9.33l-4.36,1.71c-0.86,0.33-1.29,1.3-0.95,2.16l3.63,9.29
	c0.34,0.86,1.3,1.28,2.16,0.95l4.28-1.67c1.81,3.51,3.99,6.88,6.54,10.06l-3.22,3.22c-0.66,0.65-0.66,1.71,0,2.36l7.05,7.06
	c0.65,0.65,1.71,0.65,2.36,0l3.22-3.22c2.521,2.01,5.16,3.8,7.89,5.35l-1.83,4.2c-0.38,0.85,0.01,1.83,0.86,2.2l9.13,4
	c0.85,0.37,1.83-0.01,2.2-0.86l1.87-4.26c3.83,1.16,7.75,1.95,11.71,2.34v4.76c0,0.92,0.75,1.67,1.67,1.67h9.97
	c0.92,0,1.67-0.75,1.67-1.67l0.01-4.92v-0.01c3.1-0.38,6.17-0.99,9.19-1.85l1.84,4.71c0.34,0.86,1.31,1.28,2.17,0.94l9.29-3.63
	c0.86-0.33,1.28-1.3,0.95-2.16l-1.92-4.9c3.38-1.84,6.62-4.02,9.67-6.55l3.86,3.86c0.65,0.65,1.71,0.65,2.36,0l7.05-7.06
	c0.66-0.65,0.66-1.71,0-2.36l-4.01-4.02c1.88-2.42,3.55-4.96,5.02-7.59l5.33,2.34c0.84,0.37,1.83-0.02,2.2-0.86l4-9.14
	c0.37-0.84-0.01-1.83-0.86-2.2l-5.51-2.41c1.08-3.66,1.8-7.4,2.17-11.17h6.18c0.93,0,1.67-0.75,1.67-1.67v-9.97
	C802.668,512.09,801.928,511.34,800.998,511.34z M735.358,544c-14.36,0-26-11.64-26-26s11.64-26,26-26s26,11.64,26,26
	S749.718,544,735.358,544z"/>
<circle fill="#F49C99" cx="735.358" cy="518" r="11"/>
<rect x="1489.348" y="72.307" fill="none" stroke="#FFFFFF" stroke-width="5" stroke-miterlimit="10" width="156.776" height="87.617"/>
<rect x="1465.358" y="48.619" fill="none" stroke="#FFFFFF" stroke-width="3" stroke-miterlimit="10" stroke-dasharray="3,15" width="204.755" height="134.993"/>
<rect x="365.903" y="206.111" fill="none" stroke="#FFFFFF" stroke-width="5" stroke-miterlimit="10" width="36.783" height="245.773"/>
<rect x="340.486" y="183.61" fill="none" stroke="#FFFFFF" stroke-width="3" stroke-miterlimit="10" stroke-dasharray="3,15" width="87.617" height="290.775"/>
<rect x="809.166" y="24.62" fill="#333D5C" width="492.579" height="250.487"/>
<path fill="#333D5C" d="M1020.859,365.045v78.113c0,0,329.928,0,341.567,0s151.705-78.113,151.705-78.113H1020.859z"/>
<polygon fill="#333D5C" points="1020.859,528.15 1020.859,594.309 1160.972,528.15 "/>
<rect x="1514.13" y="99.966" fill="#333D5C" width="103.495" height="32.034"/>
<polygon fill="#333D5C" points="1712.12,27.62 1712.12,281.107 1958.108,168.613 1958.108,27.62 "/>
<rect x="1391.136" y="211.777" fill="#333D5C" width="320.984" height="69.331"/>
<polygon fill="#333D5C" points="2058.603,35.12 2058.603,126.615 2258.443,35.12 "/>
<rect x="1391.136" y="27.62" fill="#333D5C" width="41.724" height="184.156"/>
<rect x="26.205" y="27.62" fill="#333D5C" width="691.465" height="59.997"/>
<rect x="555.678" y="87.617" fill="#333D5C" width="161.992" height="193.49"/>
<rect x="26.205" y="159.924" fill="#333D5C" width="170.991" height="358.076"/>
<rect x="261.34" y="158.317" fill="#333D5C" width="55.85" height="358.076"/>
<rect x="448.831" y="158.317" fill="#333D5C" width="34.851" height="358.076"/>
<rect x="26.205" y="585.31" fill="#333D5C" width="376.481" height="168.274"/>
<path fill="#333D5C" d="M26.205,816.581V960c0,0,182.991,0,188.241,0s169.849-72,169.849-72v-71.419H26.205z"/>
<polygon fill="#333D5C" points="476.182,729.561 476.182,840.579 740.169,729.561 "/>
<rect x="317.19" y="158.317" fill="#333D5C" width="131.64" height="10.296"/>
<rect x="317.19" y="499.6" fill="#333D5C" width="131.64" height="12.841"/>
<polygon fill="#333D5C" points="26.205,1029 26.205,1055.069 86.202,1029 "/>
<path fill="#333D5C" d="M542.178,347.76v235.23h-75.92v81.53h408.9l66-24.18V347.76H542.178z M735.358,654.8
	c-75.55,0-136.8-61.25-136.8-136.8s61.25-136.8,136.8-136.8s136.8,61.25,136.8,136.8S810.908,654.8,735.358,654.8z"/>
</svg>
