<?xml version="1.0" encoding="utf-8"?>
<!-- Generator: Adobe Illustrator 17.0.0, SVG Export Plug-In . SVG Version: 6.00 Build 0)  -->
<!DOCTYPE svg PUBLIC "-//W3C//DTD SVG 1.1//EN" "http://www.w3.org/Graphics/SVG/1.1/DTD/svg11.dtd">
<svg version="1.1" id="Layer_3" xmlns="http://www.w3.org/2000/svg" xmlns:xlink="http://www.w3.org/1999/xlink" x="0px" y="0px"
	 width="1533.341px" height="629.624px" viewBox="0 0 1533.341 629.624" enable-background="new 0 0 1533.341 629.624"
	 xml:space="preserve">
<rect x="0" fill="#463A56" width="1533.341" height="629.624"/>
<g>
	<path fill="none" d="M1443.022,622.098v-1.357c-0.94-0.014-1.868-0.076-2.782-0.184c-6.173-0.187-10.876-1.084-14.842-2.323
		c-4.475-1.398-7.985-3.202-11.629-4.823c-2.432-1.084-4.928-2.095-7.861-2.904c-3.909-1.078-8.608-1.804-14.963-1.805
		c-7.15,0.002-12.201,0.919-16.395,2.225c-4.193,1.307-7.559,3.03-11.304,4.701c-2.494,1.111-5.151,2.191-8.28,3.054
		c-4.174,1.153-9.175,1.913-15.753,1.912c-0.007,0-0.014,0-0.021,0c-7.389,0-12.789-0.964-17.258-2.36
		c-4.474-1.398-7.985-3.202-11.628-4.824c-2.432-1.083-4.928-2.094-7.86-2.904c-3.909-1.078-8.608-1.804-14.962-1.805
		c-7.149,0.002-12.2,0.919-16.393,2.225c-4.193,1.307-7.558,3.03-11.303,4.701c-2.494,1.111-5.15,2.191-8.28,3.054
		c-4.174,1.153-9.174,1.913-15.752,1.912c-0.007,0-0.014,0-0.021,0c-7.389,0-12.789-0.964-17.258-2.36
		c-4.474-1.398-7.985-3.202-11.628-4.824c-2.432-1.083-4.928-2.094-7.86-2.904c-3.901-1.075-8.588-1.8-14.921-1.804
		c-7.13,0.005-12.172,0.921-16.358,2.225c-4.193,1.307-7.559,3.03-11.304,4.701c-2.494,1.111-5.151,2.191-8.28,3.054
		c-4.174,1.153-9.175,1.913-15.753,1.912c-0.007,0-0.014,0-0.021,0c-7.389,0-12.789-0.964-17.258-2.36
		c-4.474-1.398-7.985-3.202-11.628-4.824c-2.432-1.083-4.928-2.094-7.86-2.904c-3.909-1.078-8.608-1.804-14.962-1.805
		c-7.149,0.002-12.2,0.919-16.393,2.225c-4.193,1.307-7.558,3.03-11.303,4.701c-2.493,1.111-5.15,2.191-8.28,3.054
		c-4.174,1.153-9.174,1.913-15.752,1.912c-0.007,0-0.014,0-0.021,0c-7.389,0-12.789-0.964-17.258-2.36
		c-4.474-1.398-7.985-3.202-11.628-4.824c-2.432-1.083-4.928-2.094-7.86-2.904c-3.908-1.077-8.606-1.803-14.957-1.805v0l-0.047,0
		c-7.15,0.002-12.201,0.919-16.395,2.225c-0.235,0.073-0.459,0.152-0.69,0.228v5.581c9.941,1.147,19.389,5.611,26.64,12.887h461.631
		C1445.24,628.513,1443.022,625.564,1443.022,622.098z"/>
	<path fill="none" d="M348.144,59.533l78.645,48.304c17.48-29.672,26.22-63.065,26.22-96.468c0-3.792-0.125-7.584-0.351-11.37
		h-92.57C362.451,20.319,358.481,41.232,348.144,59.533z"/>
	<path fill="none" d="M290.401,24.067l54.958,33.755c8.095-14.374,12.144-30.408,12.144-46.452
		c-0.001-3.799-0.246-7.595-0.701-11.371H287.17C291.73,7.012,293.031,15.816,290.401,24.067z"/>
	<path fill="none" d="M429.575,109.549l55.054,33.814c3.619-3.555,8.095-6.054,13.037-7.277v-15.948
		c-50.005-16.406-50.005-93.161,0-109.567V0H455.93C458.142,37.731,449.363,75.983,429.575,109.549z"/>
	<path fill="none" d="M58.568,491.001c-1.418,0.084-2.915,0.13-4.507,0.13c-0.005,0-0.011,0-0.016,0c-0.007,0-0.014,0-0.021,0
		c-7.389,0-12.789-0.964-17.258-2.36c-4.474-1.397-7.985-3.202-11.628-4.823c-2.432-1.083-4.928-2.094-7.86-2.903
		c-3.908-1.077-8.606-1.803-14.957-1.805v0l-0.047-0.001c-0.786,0-1.536,0.016-2.273,0.038v41.952h58.568
		C58.568,512.986,58.568,502.507,58.568,491.001z"/>
	<circle fill="none" cx="831.258" cy="470.807" r="8.835"/>
	<path fill="none" d="M164.785,8.455c0.084-2.824,0.3-5.645,0.626-8.455H72.854c-0.168,2.816-0.278,5.635-0.321,8.455H164.785z"/>
	<path fill="none" d="M419.317,119.514l-78.833-48.419c-2.564,3.328-5.369,6.531-8.419,9.581
		c-19.142,19.142-44.219,28.71-69.302,28.71c-23.1,0-46.207-8.12-64.668-24.356c-1.065,0.678-2.281,1.016-3.498,1.016
		c-1.147,0-2.294-0.301-3.314-0.901l-58.594,58.594c1.181,2.006,1.2,4.5,0.057,6.522c25.144,23.56,55.108,39.01,86.585,46.357
		c6.164-18.28,23.459-31.484,43.791-31.484c20.273,0,37.527,13.129,43.738,31.326c33.136-7.864,64.573-24.711,90.43-50.567
		C405.554,137.628,412.892,128.791,419.317,119.514z"/>
	<path fill="none" d="M235.405,8.455c0.76-3.053,2.015-5.895,3.658-8.455h-70.367c-0.338,2.809-0.555,5.63-0.642,8.455H235.405z"/>
	<path fill="none" d="M325.396,359.137v38.414h162.029c0.389-13.326-2.57-26.76-8.878-38.414H325.396z"/>
	<path fill="none" d="M609.515,88.396c6.762,6.761,15.617,10.139,24.477,10.141c8.149-0.001,16.289-2.866,22.804-8.584
		c-0.489-0.904-0.361-2.054,0.403-2.818c0.463-0.463,1.067-0.692,1.673-0.692c0.394,0,0.789,0.097,1.145,0.29
		c5.722-6.517,8.589-14.659,8.59-22.81c-0.001-8.861-3.379-17.715-10.14-24.477c-6.76-6.76-15.614-10.137-24.475-10.137
		c-8.151,0.001-16.293,2.868-22.81,8.59c0.489,0.905,0.362,2.054-0.402,2.819c-0.463,0.463-1.067,0.692-1.673,0.692
		c-0.394,0-0.789-0.097-1.145-0.289c-5.719,6.515-8.584,14.654-8.584,22.803C599.378,72.781,602.755,81.635,609.515,88.396z"/>
	<path fill="none" d="M520.839,396.257c23.386-1.339,35.517-18.922,36.392-37.12H515.07
		C519.025,371.039,520.949,383.657,520.839,396.257z"/>
	<path fill="none" d="M518.037,317.683v0.005c-77.153,0-77.18-115.686-0.082-115.769v-0.019c52.416,0,52.443-78.581,0.082-78.664
		v0.005c-2.238,0-4.403-0.107-6.511-0.296v13.149c2.793,0.7,5.454,1.823,7.947,3.354c4.975,3.056,8.841,7.495,11.181,12.837
		l0.163,0.382c0.091,0.214,0.181,0.428,0.267,0.645c1.334,3.341,2.016,6.892,2.016,10.532c0,15.717-12.787,28.504-28.504,28.504
		c-12.548,0-23.79-8.402-27.338-20.432l-0.042-0.151c-0.101-0.348-0.19-0.666-0.27-0.988c-1.311-5.142-1.146-10.568,0.435-15.598
		l-55.276-33.951c-6.559,9.49-14.055,18.528-22.503,26.976c-26.247,26.247-58.153,43.37-91.786,51.389
		c0.932,3.543,1.446,7.252,1.502,11.071h2.331c7.581,0,13.749,6.167,13.749,13.749v66.65h92.622v0.016
		c50.407,0.49,82.28,28.599,95.623,64.017h43.603C556.418,336.109,543.351,317.723,518.037,317.683z"/>
	<path fill="none" d="M584.235,16.564c-0.311,0-0.622-0.061-0.915-0.184c-12.544,13.355-18.833,30.44-18.834,47.542
		c0.001,17.788,6.784,35.571,20.356,49.143c13.576,13.575,31.36,20.36,49.149,20.362c17.078,0,34.14-6.271,47.487-18.781
		c-0.408-0.736-0.399-1.634,0.029-2.362l-21.413-21.413c-0.375,0.221-0.796,0.332-1.217,0.332c-0.444,0-0.887-0.124-1.276-0.372
		c-6.744,5.928-15.181,8.893-23.62,8.893c-9.16,0-18.32-3.495-25.312-10.486c-13.429-13.429-13.953-34.864-1.59-48.928
		c-0.484-0.756-0.494-1.721-0.041-2.491l-21.589-21.589C585.076,16.452,584.656,16.564,584.235,16.564z"/>
	<path fill="none" d="M518.037,7.469v0.003c9.944-0.016,17.989-2.87,24.154-7.472h-30.665v7.765
		C513.634,7.576,515.8,7.469,518.037,7.469z"/>
	<path fill="none" d="M517.955,26.026v-0.003c-2.242,0.004-4.38,0.161-6.429,0.44v77.783c2.05,0.279,4.188,0.436,6.429,0.44v-0.005
		c77.153,0,77.179,115.686,0.082,115.769v0.019c-52.416,0-52.443,78.581-0.082,78.664v-0.005c37.736,0,57.01,27.676,57.846,55.964
		h19.309c0.001-63.638,0.001-119.77,0.002-119.786c1.538-50.877,36.237-100.627,104.109-100.627v0.006
		c22.79-0.036,40.064-8.336,51.824-20.899c-14.5-8.901-24.175-24.899-24.175-43.16c0-18.899,10.366-35.366,25.715-44.058v-10.83
		C746.991,9.317,740.023,3.92,731.713,0h-67.499c7.149,3.379,13.852,8.015,19.766,13.928c27.064,27.064,27.585,70.583,1.6,98.304
		c0.575,0.922,0.467,2.148-0.334,2.949c-0.465,0.465-1.073,0.696-1.682,0.696c-0.44,0-0.881-0.121-1.268-0.363
		c-13.58,12.729-30.952,19.096-48.326,19.096c-18.084,0-36.169-6.899-49.972-20.702C556.95,86.86,556.42,43.36,582.373,15.644
		c-0.733-0.937-0.679-2.289,0.184-3.151c0.463-0.464,1.068-0.694,1.674-0.694c0.522,0,1.044,0.171,1.477,0.51
		C591.211,7.156,597.342,3.065,603.836,0h-36.634C558.056,15.117,541.644,26.026,517.955,26.026z"/>
	<path fill="none" d="M586.295,15.388l21.589,21.589c0.374-0.22,0.795-0.331,1.215-0.331c0.444,0,0.887,0.123,1.275,0.372
		c6.747-5.933,15.188-8.9,23.629-8.9c9.159,0,18.317,3.494,25.306,10.483c13.433,13.433,13.957,34.871,1.586,48.938
		c0.483,0.756,0.494,1.719,0.042,2.488l21.415,21.415c0.371-0.218,0.786-0.326,1.201-0.326c0.398,0,0.797,0.1,1.156,0.299
		c12.513-13.35,18.786-30.414,18.786-47.493c-0.001-17.79-6.786-35.574-20.361-49.149C676.66,8.297,669.22,3.385,661.285,0h-54.559
		c-7.301,3.117-14.183,7.526-20.282,13.256C586.733,13.944,586.68,14.735,586.295,15.388z"/>
	<path fill="none" d="M416.687,324.448h-91.291v30.645h150.78C464.859,337.223,445.032,324.449,416.687,324.448z"/>
	<path fill="none" d="M189.079,76.011c-13.658-15.535-21.567-34.353-23.728-53.696H72.824
		c2.463,43.031,19.468,85.367,51.025,119.046c0.994-0.562,2.102-0.843,3.21-0.843c1.15,0,2.3,0.302,3.322,0.907l58.589-58.589
		C187.726,80.731,187.76,78.083,189.079,76.011z"/>
	<path fill="none" d="M1432.402,359.137H1027.01c-12.765,9.616-20.52,23.64-23.679,38.414h429.07V359.137z"/>
	<path fill="none" d="M148.772,255.12c-6.44-2.28-10.953-8.42-10.953-15.511c0-9.078,7.385-16.463,16.463-16.463
		c9.077,0,16.463,7.385,16.463,16.463c0,7.091-4.513,13.231-10.953,15.511v35.94h41.059v-66.65c0-7.581,6.168-13.749,13.749-13.749
		h2.331c0.055-3.761,0.55-7.416,1.456-10.911c-31.959-7.496-62.38-23.208-87.906-47.14c-1.048,0.644-2.237,0.967-3.426,0.967
		c-1.669,0-3.338-0.636-4.612-1.91c-2.182-2.182-2.492-5.52-0.943-8.039C89.332,109.32,72.018,66.161,69.55,22.315H7.462
		C6.193,27.408,3.554,31.91,0,35.479v66.229c0.506-0.06,1.011-0.128,1.518-0.178v-8.044c0-1.201,0.974-2.175,2.175-2.175l12.979,0
		c1.201,0,2.175,0.974,2.175,2.175v8.264c4.837,0.59,9.626,1.628,14.307,3.116l3.364-7.68c0.357-0.816,1.156-1.303,1.994-1.303
		c0.291,0,0.587,0.059,0.871,0.183l11.889,5.207c1.1,0.482,1.602,1.765,1.12,2.865l-3.398,7.759c3.265,1.913,6.418,4.086,9.438,6.51
		l6.028-6.028c0.425-0.425,0.981-0.637,1.538-0.637c0.557,0,1.113,0.212,1.538,0.637l9.177,9.177c0.85,0.85,0.85,2.227,0,3.077
		l-6.027,6.027c3.091,3.851,5.769,7.924,8.029,12.162l7.877-3.078c0.26-0.102,0.528-0.15,0.791-0.15
		c0.869,0,1.691,0.525,2.027,1.384l4.724,12.089c0.437,1.119-0.115,2.381-1.234,2.818l-7.786,3.043
		c1.022,3.724,1.765,7.505,2.23,11.317h8.263c1.201,0,2.175,0.974,2.175,2.175v12.979c0,1.201-0.974,2.175-2.175,2.175h-8.043
		c-0.483,4.903-1.423,9.77-2.824,14.531l7.167,3.139c1.1,0.482,1.602,1.765,1.119,2.865l-5.207,11.889
		c-0.358,0.816-1.156,1.303-1.993,1.303c-0.291,0-0.588-0.059-0.872-0.183l-6.937-3.038c-1.903,3.416-4.08,6.718-6.531,9.878
		l5.228,5.228c0.849,0.849,0.849,2.227,0,3.076l-9.178,9.178c-0.425,0.425-0.981,0.637-1.538,0.637
		c-0.557,0-1.113-0.212-1.538-0.637l-5.018-5.018c-3.969,3.295-8.186,6.133-12.583,8.526l2.49,6.37
		c0.437,1.119-0.115,2.38-1.234,2.818l-12.089,4.724c-0.26,0.102-0.528,0.15-0.791,0.15c-0.87,0-1.691-0.525-2.027-1.384
		l-2.394-6.126c-3.932,1.116-7.933,1.914-11.966,2.406v0.018l-0.008,6.406c0,1.197-0.974,2.171-2.171,2.171H3.688
		c-1.197,0-2.172-0.974-2.171-2.171l0-6.205c-0.507-0.05-1.01-0.128-1.516-0.187v33.122h148.772V255.12z"/>
	<path fill="none" d="M416.078,459.754c-7.15,0.002-12.201,0.919-16.395,2.225c-4.193,1.307-7.559,3.03-11.304,4.701
		c-2.494,1.111-5.151,2.191-8.28,3.054c-4.171,1.151-9.166,1.912-15.737,1.912c-0.005,0-0.011,0-0.016,0c-0.007,0-0.014,0-0.021,0
		c-7.389,0-12.789-0.964-17.258-2.36c-4.474-1.397-7.985-3.202-11.628-4.823c-2.432-1.083-4.928-2.094-7.861-2.904
		c-3.909-1.078-8.608-1.804-14.962-1.805c-7.149,0.002-12.2,0.919-16.393,2.225c-4.193,1.307-7.558,3.03-11.303,4.701
		c-2.494,1.111-5.15,2.191-8.28,3.054c-4.17,1.151-9.166,1.912-15.736,1.912c-0.005,0-0.011,0-0.016,0c-0.007,0-0.014,0-0.021,0
		c-7.389,0-12.789-0.964-17.258-2.36c-4.474-1.397-7.985-3.202-11.628-4.823c-2.432-1.083-4.928-2.094-7.86-2.904
		c-3.9-1.075-8.588-1.8-14.921-1.805c-7.13,0.005-12.172,0.921-16.358,2.225c-4.193,1.307-7.559,3.03-11.304,4.701
		c-2.494,1.111-5.151,2.191-8.28,3.054c-4.171,1.151-9.166,1.912-15.737,1.912c-0.005,0-0.011,0-0.016,0c-0.007,0-0.014,0-0.021,0
		c-7.388,0-12.789-0.964-17.258-2.36c-4.474-1.397-7.985-3.202-11.628-4.823c-2.432-1.083-4.928-2.094-7.861-2.904
		c-3.909-1.078-8.608-1.804-14.962-1.805c-7.149,0.002-12.2,0.919-16.393,2.225c-4.193,1.307-7.558,3.03-11.303,4.701
		c-0.596,0.266-1.204,0.529-1.823,0.789c0,5.5,0,10.952,0,16.251c1.835-0.803,3.614-1.652,5.487-2.488
		c2.493-1.111,5.15-2.191,8.28-3.054c4.174-1.153,9.174-1.913,15.752-1.912c0.007,0,0.014,0,0.021,0
		c7.388,0,12.789,0.964,17.258,2.36c4.474,1.398,7.985,3.202,11.628,4.824c2.432,1.083,4.928,2.094,7.86,2.903
		c3.909,1.078,8.608,1.804,14.962,1.805c7.15-0.002,12.201-0.919,16.395-2.225c4.193-1.307,7.559-3.03,11.304-4.701
		c2.494-1.111,5.151-2.191,8.28-3.054c4.157-1.148,9.136-1.906,15.676-1.911v-0.001l0.036,0l0.041,0l0.047,0v0.001
		c7.335,0.009,12.707,0.97,17.155,2.359c4.474,1.398,7.985,3.202,11.628,4.824c2.432,1.083,4.928,2.094,7.86,2.903
		c3.909,1.078,8.608,1.804,14.962,1.805c7.149-0.002,12.2-0.919,16.393-2.225c4.193-1.307,7.559-3.03,11.303-4.701
		c2.494-1.111,5.15-2.191,8.28-3.054c4.174-1.153,9.174-1.913,15.752-1.912c0.007,0,0.014,0,0.021,0
		c7.388,0,12.789,0.964,17.258,2.36c4.474,1.398,7.985,3.202,11.628,4.824c2.432,1.083,4.928,2.094,7.86,2.903
		c0.598,0.165,1.223,0.318,1.861,0.465c16.543-12.836,38.404-20.817,65.586-20.817v0.006c7.242-0.011,13.925-0.86,20.053-2.412
		c-1.814-0.752-3.712-1.448-5.844-2.037C427.131,460.482,422.432,459.756,416.078,459.754z"/>
	<path fill="none" d="M61.209,231.778c28.696-28.696,28.696-75.205,0.007-103.894c-14.35-14.349-33.147-21.523-51.951-21.522
		c-3.096,0-6.19,0.215-9.266,0.604v1.248c3.075-0.396,6.17-0.612,9.266-0.612c18.292,0.001,36.572,6.916,50.622,20.729
		l-24.759,24.759c-7.211-6.978-16.543-10.468-25.875-10.468c-3.111,0-6.221,0.396-9.254,1.172v1.283
		c3.033-0.805,6.148-1.218,9.266-1.218c9.207,0.001,18.409,3.511,25.435,10.537c7.024,7.025,10.534,16.225,10.534,25.432
		c-0.001,9.207-3.512,18.408-10.538,25.435c-7.025,7.024-16.225,10.534-25.432,10.535c-3.118,0-6.233-0.413-9.266-1.218v1.275
		c3.04,0.78,6.158,1.179,9.278,1.179c9.517,0,19.034-3.631,26.297-10.893c14.387-14.387,14.523-37.608,0.431-52.171l24.76-24.759
		c13.811,14.047,20.726,32.326,20.726,50.619c-0.002,18.485-7.052,36.965-21.159,51.072c-14.104,14.103-32.582,21.152-51.067,21.153
		c-3.096,0-6.191-0.215-9.266-0.611v1.249c3.076,0.389,6.17,0.603,9.266,0.603C28.065,253.294,46.865,246.122,61.209,231.778z"/>
	<path fill="none" d="M1066.689,521.319c-32.926-0.404-60.57-12.336-79.959-34.519c-17.237-19.72-26.654-46.096-26.517-74.271
		c0.018-3.682,0.203-7.329,0.543-10.935H628.517c0,23.751-0.001,46.933-0.001,67.116c12.283,2.85,23.972,8.872,33.781,18.058
		c0.454-0.355,1.002-0.534,1.548-0.534c0.635,0,1.269,0.241,1.755,0.727c0.904,0.904,0.961,2.321,0.193,3.303
		c12.418,13.261,19.064,29.958,19.908,46.899h16.615v-66.599h0.007c0.308-31.654,24.2-47.481,48.094-47.479
		c24.046,0.001,48.094,16.033,48.094,48.096h-0.003c0.034,21.742,16.357,32.613,32.681,32.613s32.646-10.871,32.681-32.613h-0.004
		c0-32.067,24.045-48.099,48.094-48.096c23.891,0.003,47.786,15.829,48.094,47.479h0.003v0.279c0.001,0.113,0.004,0.224,0.004,0.337
		h-0.004v65.982h573.284v-15.824h-466.256C1066.951,521.338,1066.819,521.332,1066.689,521.319z M856.009,472.613
		c0,0.334-0.271,0.605-0.606,0.605h-2.373c-0.15,1.367-0.424,2.696-0.814,3.975l2.157,0.944c0.306,0.134,0.446,0.491,0.312,0.798
		l-1.45,3.31c-0.099,0.227-0.322,0.363-0.555,0.363c-0.081,0-0.164-0.016-0.243-0.051l-2.132-0.934
		c-0.532,0.935-1.13,1.825-1.789,2.667l1.627,1.627c0.236,0.237,0.236,0.62,0,0.856l-2.555,2.555
		c-0.118,0.118-0.273,0.177-0.428,0.177c-0.155,0-0.31-0.059-0.428-0.177l-1.583-1.583c-1.06,0.87-2.203,1.643-3.417,2.305
		l0.793,2.029c0.122,0.311-0.032,0.663-0.343,0.784l-3.366,1.315c-0.072,0.028-0.147,0.042-0.22,0.042
		c-0.242,0-0.471-0.146-0.564-0.385l-0.767-1.964c-1.047,0.298-2.126,0.519-3.23,0.659v2.058c0,0.334-0.271,0.606-0.606,0.606
		h-3.613c-0.335,0-0.606-0.271-0.606-0.606v-1.976c-1.43-0.133-2.819-0.404-4.156-0.799l-0.764,1.744
		c-0.1,0.227-0.322,0.363-0.555,0.363c-0.081,0-0.164-0.016-0.243-0.051l-3.31-1.45c-0.306-0.134-0.446-0.491-0.312-0.798
		l0.735-1.678c-0.994-0.554-1.938-1.185-2.829-1.882l-0.003,0.003l-1.263,1.26c-0.118,0.118-0.273,0.177-0.427,0.177
		c-0.155,0-0.31-0.059-0.427-0.177l-2.556-2.556c-0.236-0.235-0.236-0.619,0-0.855l1.221-1.221c-0.913-1.113-1.717-2.319-2.4-3.599
		l-1.572,0.614c-0.073,0.028-0.147,0.042-0.22,0.042c-0.242,0-0.471-0.146-0.564-0.385l-1.315-3.366
		c-0.122-0.311,0.032-0.663,0.343-0.784l1.546-0.604c-0.301-1.1-0.521-2.232-0.649-3.394h-1.651c-0.334,0-0.605-0.271-0.605-0.605
		v-3.614c0-0.334,0.271-0.605,0.605-0.605h1.651c0.161-1.466,0.466-2.889,0.901-4.253l-1.522-0.667
		c-0.306-0.134-0.446-0.491-0.312-0.798l1.45-3.31c0.1-0.227,0.322-0.363,0.555-0.363c0.081,0,0.163,0.016,0.242,0.051l1.555,0.681
		c0.582-0.991,1.236-1.935,1.961-2.819l-1.222-1.222c-0.237-0.237-0.237-0.62,0-0.857l2.555-2.555
		c0.118-0.118,0.273-0.177,0.428-0.177c0.155,0,0.31,0.059,0.428,0.177l1.265,1.265c1.122-0.878,2.331-1.649,3.613-2.297
		l-0.672-1.719c-0.122-0.312,0.032-0.663,0.344-0.785l3.366-1.315c0.073-0.028,0.147-0.042,0.221-0.042
		c0.242,0,0.471,0.146,0.564,0.385l0.698,1.785c1.071-0.269,2.173-0.458,3.3-0.562v-1.976c0-0.334,0.271-0.606,0.606-0.606h3.613
		c0.334,0,0.606,0.271,0.606,0.606v2.058c1.402,0.177,2.762,0.485,4.068,0.915l0.003-0.007l0.849-1.936
		c0.099-0.229,0.321-0.365,0.555-0.365c0.081,0,0.163,0.016,0.242,0.05l3.311,1.45c0.305,0.136,0.444,0.492,0.311,0.797
		l-0.879,2.009l-0.002,0.004c0.932,0.558,1.821,1.182,2.656,1.868l1.583-1.583c0.118-0.118,0.273-0.177,0.428-0.177
		c0.155,0,0.31,0.059,0.428,0.177l2.555,2.555c0.236,0.237,0.236,0.62,0,0.857l-1.627,1.627c0.836,1.068,1.574,2.216,2.203,3.43
		l2.174-0.85c0.072-0.028,0.147-0.042,0.22-0.042c0.242,0,0.471,0.146,0.564,0.385l1.315,3.366c0.122,0.311-0.032,0.663-0.344,0.784
		l-2.197,0.859c0.266,1.019,0.459,2.068,0.577,3.14h2.373c0.335,0,0.606,0.271,0.606,0.605V472.613z"/>
	<path fill="none" d="M2.315,437.297L2.315,437.297c0.007,0,0.014,0,0.021,0c7.388,0,12.789,0.964,17.258,2.36
		c4.474,1.398,7.985,3.202,11.628,4.823c2.432,1.084,4.928,2.095,7.861,2.904c3.909,1.077,8.607,1.804,14.962,1.805
		c1.611,0,3.111-0.05,4.523-0.137c0-17.701,0-34.644,0-47.199c-10.064-3.621-17.261-13.249-17.261-24.56
		c0-14.413,11.684-26.097,26.097-26.097c14.413,0,26.097,11.684,26.097,26.097c0,11.306-7.191,20.93-17.247,24.555
		c0,11.535,0.001,26.774,0.001,42.903c1.835-0.803,3.614-1.653,5.488-2.488c2.493-1.112,5.15-2.191,8.28-3.054
		c4.174-1.152,9.174-1.912,15.752-1.912c0.007,0,0.014,0,0.021,0c7.388,0,12.789,0.964,17.258,2.36
		c4.474,1.398,7.985,3.202,11.628,4.823c2.432,1.083,4.928,2.095,7.86,2.904c3.909,1.077,8.608,1.804,14.962,1.805
		c7.15-0.002,12.201-0.919,16.395-2.225c4.193-1.307,7.559-3.03,11.304-4.701c2.494-1.112,5.151-2.191,8.28-3.054
		c4.157-1.148,9.136-1.906,15.676-1.911v-0.001l0.036,0l0.041,0l0.047,0v0.001c7.335,0.009,12.707,0.97,17.155,2.359
		c4.474,1.398,7.985,3.202,11.628,4.823c2.432,1.084,4.928,2.095,7.86,2.904c3.909,1.077,8.608,1.804,14.962,1.805
		c7.149-0.002,12.2-0.919,16.393-2.225c4.193-1.307,7.559-3.03,11.303-4.701c2.494-1.112,5.15-2.191,8.28-3.054
		c4.174-1.152,9.174-1.912,15.752-1.912c0.007,0,0.014,0,0.021,0c7.388,0,12.789,0.964,17.258,2.36
		c4.474,1.398,7.985,3.202,11.628,4.823c2.432,1.083,4.928,2.095,7.86,2.904c3.909,1.077,8.608,1.804,14.962,1.805
		c7.15-0.002,12.201-0.919,16.394-2.225c4.193-1.307,7.559-3.03,11.304-4.701c2.494-1.112,5.151-2.191,8.281-3.054
		c4.174-1.152,9.175-1.912,15.753-1.912c0.007,0,0.014,0,0.021,0c7.389,0,12.789,0.964,17.259,2.36
		c4.474,1.398,7.986,3.202,11.629,4.823c2.432,1.083,4.928,2.094,7.861,2.904c2.207,0.608,4.68,1.098,7.546,1.415
		c1.492-17.802,10.342-34.899,26.547-44.505c0.103-0.899,0.194-1.799,0.266-2.7h-161.81v2.358c0,7.581-6.167,13.749-13.749,13.749
		h-97.049c-7.581,0-13.749-6.168-13.749-13.749v-79.504H159.79v43.447c6.44,2.28,10.953,8.42,10.953,15.51
		c0,9.078-7.385,16.463-16.463,16.463c-9.078,0-16.463-7.385-16.463-16.463c0-7.091,4.513-13.23,10.953-15.51v-43.447H0v112.881
		c0.737-0.021,1.492-0.033,2.273-0.033L2.315,437.297z"/>
	<path fill="none" d="M31.704,202.273c12.398-12.398,12.39-32.488,0-44.878c-6.199-6.199-14.319-9.298-22.439-9.298
		c-3.126,0-6.25,0.464-9.266,1.383v60.705c3.016,0.917,6.14,1.381,9.266,1.381C17.387,211.566,25.51,208.468,31.704,202.273z"/>
	<path fill="none" d="M960.056,569.074c0.441-0.136,0.871-0.276,1.331-0.403c4.174-1.152,9.175-1.912,15.754-1.912l0.042,0v0
		c0.007,0,0.014,0,0.021,0c7.388,0,12.789,0.964,17.258,2.36c4.474,1.398,7.985,3.202,11.628,4.823
		c2.432,1.084,4.928,2.095,7.86,2.904c3.909,1.077,8.608,1.804,14.962,1.805c7.149-0.002,12.2-0.919,16.393-2.225
		c4.193-1.307,7.559-3.03,11.303-4.701c2.494-1.111,5.15-2.191,8.28-3.054c4.174-1.152,9.174-1.912,15.752-1.912
		c0.007,0,0.014,0,0.021,0c7.389,0,12.789,0.964,17.258,2.36c4.474,1.398,7.985,3.202,11.628,4.823
		c2.432,1.084,4.928,2.095,7.861,2.904c3.909,1.077,8.608,1.804,14.962,1.805c7.15-0.002,12.201-0.919,16.394-2.225
		c4.193-1.307,7.559-3.03,11.305-4.701c2.494-1.111,5.151-2.191,8.28-3.054c4.157-1.148,9.136-1.906,15.676-1.911v-0.001l0.036,0
		l0.041,0l0.047,0v0.001c7.335,0.009,12.707,0.97,17.155,2.359c4.474,1.398,7.985,3.202,11.628,4.823
		c2.432,1.084,4.928,2.095,7.861,2.904c3.909,1.077,8.608,1.804,14.962,1.805c7.149-0.002,12.2-0.919,16.393-2.225
		c4.193-1.307,7.558-3.03,11.303-4.701c2.493-1.111,5.15-2.191,8.28-3.054c4.174-1.152,9.174-1.912,15.752-1.912
		c0.007,0,0.014,0,0.021,0c7.389,0,12.789,0.964,17.258,2.36c4.474,1.398,7.985,3.202,11.628,4.823
		c2.432,1.084,4.927,2.095,7.86,2.904c3.909,1.077,8.608,1.804,14.962,1.805c7.15-0.002,12.201-0.919,16.394-2.225
		c4.193-1.307,7.559-3.03,11.304-4.701c2.494-1.111,5.151-2.191,8.28-3.054c4.174-1.152,9.175-1.912,15.754-1.912
		c0.007,0,0.014,0,0.021,0c7.389,0,12.789,0.964,17.259,2.36c4.474,1.398,7.985,3.202,11.629,4.823
		c1.256,0.56,2.533,1.098,3.875,1.602c4.831-5.193,11.683-8.477,19.293-8.588v-1.357c0-4.413,3.59-8.004,8.004-8.004h82.315v-11.308
		H960.056V569.074z"/>
	<path fill="none" d="M2.315,476.267L2.315,476.267c0.007,0,0.014,0,0.021,0c7.388,0,12.789,0.964,17.258,2.36
		c4.474,1.398,7.985,3.202,11.628,4.824c2.432,1.083,4.928,2.094,7.861,2.903c3.909,1.078,8.607,1.804,14.962,1.805
		c1.611,0,3.111-0.05,4.523-0.137c0-5.347,0-10.887,0-16.506c-1.418,0.084-2.915,0.131-4.508,0.131c-0.005,0-0.011,0-0.016,0
		c-0.007,0-0.014,0-0.021,0c-7.389,0-12.789-0.964-17.258-2.36c-4.474-1.397-7.985-3.202-11.628-4.823
		c-2.432-1.083-4.928-2.094-7.86-2.904c-3.908-1.077-8.606-1.803-14.957-1.805v0l-0.047,0c-0.786,0-1.536,0.016-2.273,0.037v16.507
		c0.737-0.021,1.492-0.033,2.273-0.033L2.315,476.267z"/>
	<path fill="none" d="M1264.273,439.931h0.002c-0.019-12.08-9.088-18.12-18.157-18.12c-9.069,0-18.138,6.04-18.157,18.12h0.002
		c0,17.815-13.361,26.723-26.722,26.723c-13.352,0-26.703-8.895-26.723-26.685h-0.009c0-12.106-9.078-18.158-18.157-18.158
		c-9.068,0-18.139,6.041-18.158,18.12h0.002c0,17.815-13.361,26.723-26.723,26.723s-26.723-8.908-26.723-26.723h0.002
		c-0.019-11.672-8.486-17.705-17.239-18.099c-0.009,0-43.912-0.001-65.316-0.001c3.45,29.371,24.501,58.031,66.22,58.033h464.925
		v-13.225l-243.253-0.001C1277.036,466.244,1264.273,457.342,1264.273,439.931z"/>
	<path fill="none" d="M194.598,72.982c1.671,0,3.341,0.637,4.616,1.912c2.099,2.099,2.468,5.268,1.115,7.748
		c17.834,15.65,40.121,23.477,62.425,23.479c24.254-0.002,48.492-9.249,67.001-27.757c2.866-2.866,5.508-5.87,7.93-8.99
		l-54.539-33.498c-5.296,5.206-12.395,8.132-19.966,8.132c-5.244,0-10.389-1.457-14.878-4.215c-0.5-0.308-1.006-0.645-1.592-1.06
		c-5.644-3.953-9.644-9.811-11.301-16.419h-66.77c2.143,18.539,9.752,36.557,22.828,51.464
		C192.44,73.248,193.519,72.982,194.598,72.982z"/>
	<path fill="none" d="M497.665,30.986c-25.271,14.147-25.271,54.591,0,68.737V30.986z"/>
	<path fill="none" d="M2.315,456.782L2.315,456.782c0.007,0,0.014,0,0.021,0c7.388,0,12.789,0.964,17.258,2.36
		c4.474,1.398,7.985,3.202,11.628,4.823c2.432,1.084,4.928,2.095,7.861,2.904c3.909,1.077,8.607,1.804,14.962,1.805
		c1.611,0,3.111-0.05,4.523-0.137c0-5.484,0-11.021,0-16.506c-1.418,0.084-2.915,0.131-4.507,0.131c-0.005,0-0.011,0-0.016,0
		c-0.007,0-0.014,0-0.021,0c-7.389,0-12.789-0.964-17.258-2.36c-4.474-1.398-7.985-3.202-11.628-4.823
		c-2.432-1.084-4.928-2.095-7.86-2.904c-3.908-1.077-8.606-1.803-14.957-1.805v0l-0.047,0c-0.786,0-1.536,0.016-2.273,0.037v16.507
		c0.737-0.021,1.492-0.033,2.273-0.033L2.315,456.782z"/>
	<path fill="none" d="M438.902,444.978c-2.432-1.084-4.928-2.095-7.861-2.904c-3.909-1.077-8.608-1.804-14.963-1.805
		c-7.15,0.002-12.201,0.919-16.395,2.225c-4.193,1.307-7.559,3.03-11.304,4.701c-2.494,1.112-5.151,2.191-8.28,3.054
		c-4.174,1.152-9.175,1.913-15.753,1.912c-0.007,0-0.014,0-0.021,0c-7.389,0-12.789-0.964-17.258-2.36
		c-4.474-1.398-7.985-3.202-11.628-4.823c-2.432-1.084-4.928-2.095-7.861-2.904c-3.909-1.077-8.608-1.804-14.962-1.805
		c-7.149,0.002-12.2,0.919-16.393,2.225c-4.193,1.307-7.558,3.03-11.303,4.701c-2.494,1.111-5.15,2.191-8.28,3.054
		c-4.174,1.152-9.174,1.913-15.752,1.912c-0.007,0-0.014,0-0.021,0c-7.388,0-12.789-0.964-17.258-2.36
		c-4.474-1.398-7.985-3.202-11.628-4.823c-2.432-1.084-4.928-2.095-7.86-2.904c-3.9-1.075-8.588-1.8-14.921-1.804
		c-7.13,0.005-12.172,0.921-16.358,2.225c-4.193,1.307-7.559,3.03-11.304,4.701c-2.494,1.112-5.151,2.191-8.28,3.054
		c-4.174,1.152-9.175,1.913-15.753,1.912c-0.007,0-0.014,0-0.021,0c-7.389,0-12.789-0.964-17.258-2.36
		c-4.474-1.398-7.985-3.202-11.628-4.823c-2.432-1.084-4.928-2.095-7.861-2.904c-3.909-1.077-8.608-1.804-14.962-1.805
		c-7.149,0.002-12.2,0.919-16.393,2.225c-4.193,1.307-7.558,3.03-11.303,4.701c-0.596,0.266-1.204,0.529-1.823,0.789
		c0,5.374,0,10.825,0,16.251c1.835-0.803,3.614-1.653,5.488-2.488c2.493-1.111,5.15-2.191,8.28-3.054
		c4.174-1.152,9.174-1.912,15.752-1.912c0.007,0,0.014,0,0.021,0c7.388,0,12.789,0.964,17.258,2.36
		c4.474,1.398,7.985,3.202,11.628,4.823c2.432,1.084,4.928,2.095,7.86,2.904c3.909,1.077,8.608,1.804,14.962,1.805
		c7.15-0.002,12.201-0.919,16.395-2.225c4.193-1.307,7.559-3.03,11.304-4.701c2.494-1.111,5.151-2.191,8.28-3.054
		c4.157-1.148,9.136-1.906,15.676-1.911v-0.001l0.036,0l0.041,0l0.047,0v0.001c7.335,0.009,12.707,0.97,17.155,2.359
		c4.474,1.398,7.985,3.202,11.628,4.823c2.432,1.084,4.928,2.095,7.86,2.904c3.909,1.077,8.608,1.804,14.962,1.805
		c7.149-0.002,12.2-0.919,16.393-2.225c4.193-1.307,7.559-3.03,11.303-4.701c2.494-1.111,5.15-2.191,8.28-3.054
		c4.174-1.152,9.174-1.912,15.752-1.912c0.007,0,0.014,0,0.021,0c7.388,0,12.789,0.964,17.258,2.36
		c4.474,1.398,7.985,3.202,11.628,4.823c2.432,1.084,4.928,2.095,7.86,2.904c3.909,1.077,8.608,1.804,14.962,1.805
		c7.15-0.002,12.201-0.919,16.394-2.225c4.193-1.307,7.559-3.03,11.304-4.701c2.494-1.111,5.151-2.191,8.281-3.054
		c4.174-1.152,9.175-1.912,15.753-1.912c0.007,0,0.014,0,0.021,0c7.389,0,12.789,0.964,17.259,2.36
		c2.986,0.933,5.54,2.046,7.993,3.166c7.097-2.299,13.376-5.588,18.834-9.642c0-0.259,0-0.406,0-0.406
		c0.005-0.161,0.019-0.322,0.025-0.484c-3.756-0.406-6.898-1.107-9.679-1.976C446.056,448.404,442.545,446.599,438.902,444.978z"/>
	<path fill="none" d="M69.265,8.455c0.042-2.82,0.152-5.638,0.317-8.455H3.804c1.643,2.56,2.897,5.401,3.657,8.455H69.265z"/>
	<path fill="none" d="M416.683,499.397v-0.006c-77.857,0.123-91.342,96.686-40.467,130.233h83.968c0-50.826,0-103.667,0.001-138.307
		C447.631,496.47,433.133,499.397,416.683,499.397z"/>
	<path fill="none" d="M910.267,355.093v-13.864c-1.194-0.308-2.127-1.26-2.393-2.47c-21.354-1.374-39.005-16.311-44.433-36.297
		H816.11c2.738,20.233,11.782,38.454,25.093,52.631H910.267z"/>
	<path fill="none" d="M910.267,382.995v-23.858h-65.038c16.464,15.575,38.438,25.369,62.699,26.155
		C908.242,384.165,909.131,383.288,910.267,382.995z"/>
	<path fill="none" d="M898.487,241.731v-47.279c-21.432,2.813-40.631,12.702-55.18,27.25c-13.743,13.744-23.325,31.64-26.715,51.646
		h47.827C869.759,257.899,882.541,245.928,898.487,241.731z"/>
	<path fill="none" d="M756.628,20.882v3.633c0.624-0.283,1.255-0.555,1.892-0.813C757.914,22.748,757.283,21.807,756.628,20.882z"/>
	<path fill="none" d="M898.487,259.421v-15.979c-8.115,2.216-15.372,6.508-21.152,12.287c-4.927,4.928-8.776,10.928-11.179,17.618
		h17.19C886.795,267.259,892.096,262.363,898.487,259.421z"/>
	<path fill="none" d="M940.339,618.894c-4.009,1.03-8.774,1.701-14.931,1.7c-0.007,0-0.014,0-0.021,0
		c-7.389,0-12.789-0.964-17.258-2.36c-4.474-1.398-7.985-3.202-11.628-4.824c-2.432-1.083-4.928-2.094-7.861-2.904
		c-3.909-1.078-8.608-1.804-14.962-1.805c-7.149,0.002-12.2,0.919-16.393,2.225c-4.193,1.307-7.558,3.03-11.303,4.701
		c-2.493,1.111-5.15,2.191-8.28,3.054c-4.174,1.153-9.174,1.913-15.752,1.912c-0.007,0-0.014,0-0.021,0
		c-7.388,0-12.789-0.964-17.258-2.36c-4.474-1.398-7.985-3.202-11.628-4.824c-2.432-1.083-4.928-2.094-7.86-2.904
		c-3.909-1.078-8.608-1.804-14.962-1.805v-2.973c0.007,0,0.014,0,0.021,0c7.388,0,12.789,0.964,17.258,2.361
		c4.474,1.397,7.985,3.202,11.628,4.823c2.432,1.083,4.928,2.094,7.86,2.903c3.909,1.078,8.608,1.804,14.962,1.805
		c7.149-0.002,12.2-0.918,16.393-2.225c4.193-1.307,7.559-3.03,11.303-4.701c2.494-1.111,5.15-2.191,8.28-3.054
		c4.174-1.153,9.174-1.913,15.752-1.912c0.007,0,0.014,0,0.021,0c7.389,0,12.789,0.964,17.258,2.361
		c4.474,1.397,7.985,3.202,11.628,4.823c2.432,1.083,4.928,2.094,7.861,2.903c3.909,1.078,8.608,1.804,14.962,1.805
		c7.15-0.002,12.201-0.919,16.395-2.225c0.987-0.308,1.926-0.64,2.838-0.988v-16.326c-1.104,0.395-2.247,0.776-3.479,1.115
		c-4.171,1.152-9.166,1.912-15.737,1.912c-0.005,0-0.011,0-0.016,0c-0.009,0-0.016,0-0.025,0c-7.387,0-12.786-0.964-17.254-2.36
		c-4.474-1.397-7.985-3.202-11.628-4.823c-2.432-1.083-4.928-2.094-7.861-2.903c-3.909-1.078-8.608-1.804-14.962-1.805
		c-7.149,0.002-12.2,0.919-16.393,2.225c-4.193,1.307-7.558,3.03-11.303,4.701c-2.493,1.111-5.15,2.191-8.28,3.054
		c-4.171,1.152-9.166,1.912-15.736,1.912c-0.005,0-0.011,0-0.016,0c-0.009,0-0.016,0-0.025,0c-7.386,0-12.786-0.964-17.254-2.36
		c-4.474-1.397-7.985-3.202-11.628-4.823c-2.432-1.083-4.928-2.094-7.86-2.903c-3.909-1.078-8.608-1.804-14.962-1.805v-2.973
		c0.007,0,0.014,0,0.021,0c7.388,0,12.789,0.964,17.258,2.36c4.474,1.398,7.985,3.202,11.628,4.823
		c2.432,1.084,4.928,2.095,7.86,2.904c3.909,1.078,8.608,1.804,14.962,1.805c7.149-0.002,12.2-0.919,16.393-2.225
		c4.193-1.307,7.559-3.03,11.303-4.701c2.494-1.111,5.15-2.191,8.28-3.054c4.174-1.153,9.174-1.913,15.752-1.912
		c0.007,0,0.014,0,0.021,0c7.389,0,12.789,0.964,17.258,2.36c4.474,1.398,7.985,3.202,11.628,4.823
		c2.432,1.084,4.928,2.095,7.861,2.904c3.909,1.078,8.608,1.804,14.962,1.805c7.15-0.002,12.201-0.919,16.395-2.225
		c0.987-0.308,1.926-0.64,2.838-0.988v-16.326c-1.104,0.395-2.247,0.775-3.479,1.115c-4.171,1.151-9.166,1.912-15.737,1.912
		c-0.005,0-0.011,0-0.016,0c-0.007,0-0.014,0-0.021,0c-7.389,0-12.789-0.964-17.258-2.36c-4.474-1.398-7.985-3.202-11.628-4.823
		c-2.432-1.083-4.928-2.095-7.861-2.904c-3.909-1.077-8.608-1.803-14.962-1.805c-7.149,0.002-12.2,0.919-16.393,2.225
		c-4.193,1.307-7.558,3.03-11.303,4.701c-2.493,1.111-5.15,2.191-8.28,3.054c-4.171,1.151-9.166,1.912-15.736,1.912
		c-0.005,0-0.011,0-0.016,0c-0.007,0-0.014,0-0.021,0c-7.388,0-12.789-0.964-17.258-2.36c-4.474-1.398-7.985-3.202-11.628-4.823
		c-2.432-1.083-4.928-2.095-7.86-2.904c-3.909-1.077-8.608-1.803-14.962-1.805v-2.973c0.007,0,0.014,0,0.021,0
		c7.388,0,12.789,0.964,17.258,2.36c4.474,1.398,7.985,3.202,11.628,4.823c2.432,1.084,4.928,2.095,7.86,2.904
		c3.909,1.077,8.608,1.804,14.962,1.805c7.149-0.002,12.2-0.919,16.393-2.225c4.193-1.307,7.559-3.03,11.303-4.701
		c2.494-1.111,5.15-2.191,8.28-3.054c4.174-1.152,9.174-1.912,15.752-1.912c0.007,0,0.014,0,0.021,0
		c7.389,0,12.789,0.964,17.258,2.36c4.474,1.398,7.985,3.202,11.628,4.823c2.432,1.084,4.928,2.095,7.861,2.904
		c3.909,1.077,8.608,1.804,14.962,1.805c7.15-0.002,12.201-0.919,16.395-2.225c0.987-0.308,1.926-0.64,2.838-0.988v-29.149H717.731
		v83.335h205.494c2.815-2.822,6.035-5.329,9.676-7.386C935.317,620.873,937.808,619.77,940.339,618.894z"/>
	<path fill="none" d="M1457.385,87.782c0,39.79,32.253,72.043,72.043,72.043c1.313,0,2.617-0.04,3.912-0.109v-1.22
		c-1.296,0.071-2.599,0.112-3.912,0.112c-19.561,0-37.264-7.926-50.083-20.744c-12.684-12.685-20.565-30.156-20.729-49.474h34.34
		c0.328,19.87,16.525,35.878,36.474,35.878c1.321,0,2.625-0.075,3.91-0.212v-1.225c-1.284,0.142-2.588,0.221-3.91,0.221
		c-9.743-0.001-18.557-3.947-24.942-10.331c-6.384-6.385-10.331-15.199-10.331-24.942c0-9.745,3.947-18.561,10.331-24.946
		c6.385-6.385,15.199-10.331,24.942-10.332c1.322,0,2.626,0.079,3.91,0.221v-1.225c-1.285-0.137-2.589-0.212-3.91-0.212
		c-19.95,0-36.149,16.011-36.474,35.888h-34.34c0.163-19.323,8.045-36.796,20.729-49.482c12.819-12.819,30.521-20.745,50.083-20.745
		c1.313,0,2.617,0.042,3.912,0.112v-1.22c-1.296-0.069-2.599-0.109-3.912-0.109C1489.638,15.73,1457.386,47.983,1457.385,87.782z"/>
	<path fill="none" d="M795.041,118.102c-2.141,0.792-4.353,1.435-6.619,1.935c-7.642,13.037-18.241,24.398-31.795,32.796v120.515
		h38.413V118.102z"/>
	<path fill="none" d="M911.087,389.466c-1.554,0-2.849-1.08-3.195-2.528c-25.298-0.815-48.156-11.264-65.033-27.801H628.517
		c0,12.677,0,25.606-0.001,38.414h332.69c1.334-10.386,3.998-20.37,7.899-29.685c-15.414,11.427-34.318,18.413-54.824,19.073
		C913.935,388.386,912.641,389.466,911.087,389.466z"/>
	<path fill="none" d="M978.878,221.702c-13.66-13.658-31.419-23.207-51.276-26.653v47.89c19.157,6.794,32.878,25.063,32.878,46.546
		c-0.001,26.202-20.397,47.619-46.181,49.274c-0.265,1.208-1.195,2.158-2.386,2.468v13.866h63.568
		c3.453-5.897,7.457-11.426,11.991-16.495c3.599-4.024,7.477-7.698,11.61-11.021c5.061-11.676,7.872-24.555,7.872-38.095
		C1006.953,263.009,996.227,239.05,978.878,221.702z"/>
	<path fill="none" d="M814.447,302.462H666.781v24.262h-31.819v-77.64h31.819v24.262h85.803V155.197
		c-14.658,8.1-32.491,12.878-53.512,12.878v-0.006c-45.498,0.072-69.016,33.079-70.552,67.2
		c-0.001,0.021-0.002,56.171-0.003,119.824h210.436C825.939,340.789,817.125,322.597,814.447,302.462z"/>
	<path fill="none" d="M1432.402,428.095v-26.501h-429.818c-0.603,3.857-0.903,7.741-0.9,11.591l0.001,0.076
		c21.206,0,65.812,0,65.818,0.001c13.052,0.395,25.815,9.296,25.815,26.707h-0.002c0.019,12.08,9.088,18.12,18.157,18.12
		s18.138-6.04,18.157-18.12h-0.002c0-17.815,13.361-26.723,26.722-26.723c13.352,0,26.703,8.895,26.723,26.685h0.009
		c0,12.106,9.078,18.158,18.157,18.158c9.068,0,18.139-6.041,18.158-18.12h-0.002c0-17.815,13.362-26.723,26.723-26.723
		c13.362,0,26.723,8.908,26.723,26.723h-0.001c0.018,11.672,8.486,17.705,17.239,18.099l243.263,0.001v-16.225h-87.191
		C1438.569,441.844,1432.402,435.676,1432.402,428.095z"/>
	<path fill="none" d="M1149.421,312.487c-19.72,22.184-47.78,33.91-81.149,33.91l-0.216-0.006
		c-13.909,0.055-25.502,3.306-34.906,8.702h399.251v-24.048c0-7.581,6.167-13.749,13.749-13.749h87.191v-24.02h-370.468
		C1159.113,300.192,1154.618,306.641,1149.421,312.487z"/>
	<path fill="none" d="M881.505,302.462h-16.353c2.245,7.966,6.491,15.091,12.182,20.784c7.948,7.947,18.681,13.091,30.611,13.868
		c0.406-1.359,1.65-2.355,3.141-2.355c1.491,0,2.735,0.997,3.141,2.356c11.936-0.775,22.673-5.919,30.623-13.868
		c8.641-8.642,13.982-20.572,13.983-33.761c-0.001-13.185-5.342-25.114-13.983-33.756c-4.837-4.836-10.707-8.637-17.249-11.047
		v15.319c10.845,5.527,18.277,16.79,18.277,29.797c0,18.464-14.968,33.432-33.432,33.432
		C898.466,323.229,886.497,314.645,881.505,302.462z"/>
	<path fill="none" d="M1498.307,87.783c0,17.185,13.937,31.122,31.122,31.122c1.326,0,2.63-0.092,3.913-0.253V56.915
		c-1.282-0.161-2.586-0.253-3.913-0.253C1512.244,56.661,1498.307,70.588,1498.307,87.783z"/>
	<path fill="none" d="M911.913,382.997c1.132,0.294,2.019,1.171,2.332,2.295c21.208-0.687,40.667-8.252,56.227-20.545
		c0.867-1.901,1.785-3.772,2.756-5.61h-61.315V382.997z"/>
	<path fill="none" d="M944.641,617.643v-0.076c-0.225,0.081-0.448,0.161-0.678,0.24C944.189,617.75,944.414,617.697,944.641,617.643
		z"/>
	<path fill="none" d="M595.109,359.137h-19.313c-0.46,14.091-5.502,28.005-15.12,38.414h34.432
		C595.109,384.743,595.109,371.813,595.109,359.137z"/>
	<path fill="none" d="M795.041,0h-11.699c4.743,6.588,8.653,13.722,11.699,21.224V0z"/>
	<path fill="none" d="M828.088,70.627c0,20.22-11.862,37.664-29.003,45.771v156.95h15.837c7.01-42.094,40.977-75.063,83.565-80.558
		V0h-27.674l-16.06,37.151l16.175,37.42l-16.175,37.419l16.175,37.424l-16.522,38.226l-3.712-1.604l15.828-36.622l-16.175-37.424
		l16.175-37.419l-16.175-37.42L866.407,0H846.55l-16.06,37.151l16.175,37.42L830.49,111.99l16.175,37.424l-16.522,38.226
		l-3.712-1.604l15.828-36.622l-16.175-37.424l16.175-37.419l-16.175-37.42L842.145,0h-43.06v24.857
		C816.226,32.963,828.088,50.407,828.088,70.627z"/>
	<path fill="none" d="M1008.6,289.482c0,12.733-2.443,24.894-6.88,36.044c18.09-13.542,40.799-20.612,66.699-20.612l0.21,0.005
		c45.603-0.181,66.378-34.694,66.378-66.735c0.001-32.032-20.76-66.537-66.34-66.735l-0.248,0.007
		c-33.248,0-61.24-11.648-80.948-33.685c-17.442-19.502-27.122-45.757-27.26-73.93c-0.114-23.47,6.423-45.677,18.565-63.843h-51.176
		v193.38C973.596,201.224,1008.6,241.26,1008.6,289.482z M1028.262,198.823c10.716-10.716,24.761-16.074,38.806-16.074
		s28.09,5.358,38.805,16.074c21.432,21.431,21.432,56.179,0,77.611c-10.717,10.717-24.759,16.074-38.806,16.074
		c-14.043,0-28.091-5.359-38.805-16.074C1006.83,255.001,1006.83,220.254,1028.262,198.823z"/>
	<path fill="none" d="M977.141,586.244l0.042,0v0c0.007,0,0.014,0,0.021,0c7.388,0,12.789,0.964,17.258,2.36
		c4.474,1.398,7.985,3.202,11.628,4.823c2.432,1.084,4.928,2.095,7.86,2.904c3.909,1.078,8.608,1.804,14.962,1.805
		c7.149-0.002,12.2-0.919,16.393-2.225c4.193-1.307,7.559-3.03,11.303-4.701c2.494-1.111,5.15-2.191,8.28-3.054
		c4.174-1.153,9.174-1.913,15.752-1.912c0.007,0,0.014,0,0.021,0c7.389,0,12.789,0.964,17.258,2.36
		c4.474,1.398,7.985,3.202,11.628,4.823c2.432,1.084,4.928,2.095,7.861,2.904c3.909,1.078,8.608,1.804,14.962,1.805
		c7.15-0.002,12.201-0.919,16.394-2.225c4.193-1.307,7.559-3.03,11.305-4.701c2.494-1.111,5.151-2.191,8.28-3.054
		c4.157-1.148,9.136-1.906,15.676-1.911v-0.001l0.036,0l0.041,0l0.047,0v0.001c7.335,0.009,12.707,0.97,17.155,2.359
		c4.474,1.398,7.985,3.202,11.628,4.823c2.432,1.084,4.928,2.095,7.861,2.904c3.909,1.078,8.608,1.804,14.962,1.805
		c7.149-0.002,12.2-0.919,16.393-2.225c4.193-1.307,7.558-3.03,11.303-4.701c2.493-1.111,5.15-2.191,8.28-3.054
		c4.174-1.153,9.174-1.913,15.752-1.912c0.007,0,0.014,0,0.021,0c7.389,0,12.789,0.964,17.258,2.36
		c4.474,1.398,7.985,3.202,11.628,4.823c2.432,1.084,4.927,2.095,7.86,2.904c3.909,1.078,8.608,1.804,14.962,1.805
		c7.15-0.002,12.201-0.919,16.394-2.225c4.193-1.307,7.559-3.03,11.304-4.701c2.494-1.111,5.151-2.191,8.28-3.054
		c4.174-1.153,9.175-1.913,15.754-1.912c0.007,0,0.014,0,0.021,0c7.389,0,12.789,0.964,17.259,2.36
		c3.137,0.98,5.799,2.16,8.367,3.337c0.367-5.207,2.218-10.008,5.137-13.983c-2.846-1.125-5.373-2.367-7.961-3.518
		c-2.432-1.083-4.928-2.095-7.861-2.904c-3.909-1.077-8.608-1.803-14.963-1.805c-7.15,0.002-12.201,0.919-16.395,2.225
		c-4.193,1.307-7.559,3.03-11.304,4.701c-2.494,1.111-5.151,2.191-8.28,3.054c-4.171,1.151-9.166,1.912-15.737,1.912
		c-0.005,0-0.011,0-0.016,0c-0.007,0-0.014,0-0.021,0c-7.389,0-12.789-0.964-17.258-2.36c-4.474-1.398-7.985-3.202-11.628-4.823
		c-2.432-1.083-4.928-2.095-7.86-2.904c-3.909-1.077-8.608-1.803-14.962-1.805c-7.149,0.002-12.2,0.919-16.393,2.225
		c-4.193,1.307-7.558,3.03-11.303,4.701c-2.494,1.111-5.15,2.191-8.28,3.054c-4.17,1.151-9.166,1.912-15.736,1.912
		c-0.005,0-0.011,0-0.016,0c-0.007,0-0.014,0-0.021,0c-7.389,0-12.789-0.964-17.258-2.36c-4.474-1.398-7.985-3.202-11.628-4.823
		c-2.432-1.083-4.928-2.095-7.86-2.904c-3.901-1.075-8.588-1.8-14.921-1.804c-7.13,0.005-12.172,0.921-16.358,2.225
		c-4.193,1.307-7.559,3.03-11.304,4.701c-2.494,1.111-5.151,2.191-8.28,3.054c-4.171,1.151-9.167,1.912-15.737,1.912
		c-0.005,0-0.011,0-0.016,0c-0.007,0-0.014,0-0.021,0c-7.389,0-12.789-0.964-17.258-2.36c-4.474-1.398-7.985-3.202-11.628-4.823
		c-2.432-1.083-4.928-2.095-7.86-2.904c-3.909-1.077-8.608-1.803-14.962-1.805c-7.149,0.002-12.2,0.919-16.393,2.225
		c-4.193,1.307-7.558,3.03-11.303,4.701c-2.493,1.111-5.15,2.191-8.28,3.054c-4.17,1.151-9.166,1.912-15.736,1.912
		c-0.005,0-0.011,0-0.016,0c-0.007,0-0.014,0-0.021,0c-7.389,0-12.789-0.964-17.258-2.36c-4.474-1.398-7.985-3.202-11.628-4.823
		c-2.432-1.083-4.928-2.095-7.86-2.904c-3.908-1.077-8.606-1.803-14.957-1.805v0l-0.047,0c-7.15,0.002-12.201,0.919-16.395,2.225
		c-0.235,0.074-0.459,0.153-0.69,0.229v16.372c0.441-0.136,0.871-0.276,1.331-0.403
		C965.561,587.004,970.562,586.243,977.141,586.244z"/>
	<path fill="none" d="M567.449,541.539c0-18.588,11.44-34.495,27.659-41.09c0-8.917,0-19.231,0-30.508
		c-12.793,2.98-24.938,9.441-34.912,19.414c-14.227,14.228-21.338,32.866-21.34,51.51c0,17.899,6.572,35.78,19.682,49.768
		c0.377-0.209,0.795-0.314,1.212-0.314c0.437,0,0.873,0.115,1.263,0.344l18.615-18.615
		C572.086,564.099,567.449,553.364,567.449,541.539z"/>
	<path fill="none" d="M977.141,605.729l0.042,0v0c0.007,0,0.014,0,0.021,0c7.388,0,12.789,0.964,17.258,2.361
		c4.474,1.397,7.985,3.202,11.628,4.823c2.432,1.083,4.928,2.094,7.86,2.903c3.909,1.078,8.608,1.804,14.962,1.805
		c7.149-0.002,12.2-0.918,16.393-2.225c4.193-1.307,7.559-3.03,11.303-4.701c2.494-1.111,5.15-2.191,8.28-3.054
		c4.174-1.153,9.174-1.913,15.752-1.912c0.007,0,0.014,0,0.021,0c7.389,0,12.789,0.964,17.258,2.361
		c4.474,1.397,7.985,3.202,11.628,4.823c2.432,1.083,4.928,2.094,7.861,2.903c3.909,1.078,8.608,1.804,14.962,1.805
		c7.15-0.002,12.201-0.919,16.394-2.225c4.193-1.307,7.559-3.03,11.305-4.701c2.494-1.111,5.151-2.191,8.28-3.054
		c4.157-1.148,9.136-1.906,15.676-1.911v-0.001l0.036,0l0.041,0l0.047,0.001v0.001c7.335,0.009,12.707,0.97,17.155,2.359
		c4.474,1.397,7.985,3.202,11.628,4.823c2.432,1.083,4.928,2.094,7.861,2.903c3.909,1.078,8.608,1.804,14.962,1.805
		c7.149-0.002,12.2-0.918,16.393-2.225c4.193-1.307,7.558-3.03,11.303-4.701c2.493-1.111,5.15-2.191,8.28-3.054
		c4.174-1.153,9.174-1.913,15.752-1.912c0.007,0,0.014,0,0.021,0c7.389,0,12.789,0.964,17.258,2.361
		c4.474,1.397,7.985,3.202,11.628,4.823c2.432,1.083,4.927,2.094,7.86,2.903c3.909,1.078,8.608,1.804,14.962,1.805
		c7.15-0.002,12.201-0.919,16.394-2.225c4.193-1.307,7.559-3.03,11.304-4.701c2.494-1.111,5.151-2.191,8.28-3.054
		c4.174-1.153,9.175-1.913,15.754-1.912c0.007,0,0.014,0,0.021,0c7.389,0,12.789,0.964,17.259,2.36
		c4.474,1.398,7.985,3.202,11.629,4.824c2.432,1.083,4.928,2.094,7.861,2.903c0.104,0.029,0.215,0.054,0.32,0.082
		c-6.613-4.627-11.061-12.144-11.484-20.706c-0.931-0.428-1.852-0.854-2.782-1.267c-2.432-1.083-4.928-2.094-7.861-2.903
		c-3.909-1.078-8.608-1.804-14.963-1.805c-7.15,0.002-12.201,0.919-16.395,2.225c-4.193,1.307-7.559,3.03-11.304,4.701
		c-2.494,1.111-5.151,2.191-8.28,3.054c-4.171,1.152-9.166,1.912-15.737,1.912c-0.005,0-0.011,0-0.016,0c-0.009,0-0.016,0-0.025,0
		c-7.387,0-12.786-0.964-17.254-2.36c-4.474-1.397-7.985-3.202-11.628-4.823c-2.432-1.083-4.928-2.094-7.86-2.903
		c-3.909-1.078-8.608-1.804-14.962-1.805c-7.149,0.002-12.2,0.919-16.393,2.225c-4.193,1.307-7.558,3.03-11.303,4.701
		c-2.494,1.111-5.15,2.191-8.28,3.054c-4.17,1.152-9.166,1.912-15.736,1.912c-0.005,0-0.011,0-0.016,0c-0.009,0-0.016,0-0.025,0
		c-7.386,0-12.786-0.964-17.254-2.36c-4.474-1.397-7.985-3.202-11.628-4.823c-2.432-1.083-4.928-2.094-7.86-2.903
		c-3.901-1.075-8.588-1.8-14.921-1.805c-7.13,0.005-12.172,0.921-16.358,2.225c-4.193,1.307-7.559,3.03-11.304,4.701
		c-2.494,1.111-5.151,2.191-8.28,3.054c-4.171,1.152-9.167,1.912-15.737,1.912c-0.005,0-0.011,0-0.016,0c-0.009,0-0.016,0-0.025,0
		c-7.386,0-12.786-0.964-17.254-2.36c-4.474-1.397-7.985-3.202-11.628-4.823c-2.432-1.083-4.928-2.094-7.86-2.903
		c-3.909-1.078-8.608-1.804-14.962-1.805c-7.149,0.002-12.2,0.919-16.393,2.225c-4.193,1.307-7.558,3.03-11.303,4.701
		c-2.493,1.111-5.15,2.191-8.28,3.054c-4.17,1.152-9.166,1.912-15.736,1.912c-0.005,0-0.011,0-0.016,0c-0.009,0-0.016,0-0.025,0
		c-7.387,0-12.786-0.964-17.254-2.36c-4.474-1.397-7.985-3.202-11.628-4.823c-2.432-1.083-4.928-2.094-7.86-2.903
		c-3.908-1.077-8.606-1.803-14.957-1.805v0.001l-0.047-0.001c-7.15,0.002-12.201,0.919-16.395,2.225
		c-0.235,0.073-0.459,0.153-0.69,0.229v16.372c0.441-0.135,0.871-0.276,1.331-0.403
		C965.561,606.489,970.562,605.728,977.141,605.729z"/>
	<path fill="none" d="M944.641,470.842c-0.169-21.564-16.422-32.343-32.679-32.343c-16.321,0-32.645,10.873-32.679,32.612h0.004
		c0,32.065-24.049,48.098-48.097,48.098c-24.049,0-48.097-16.033-48.097-48.098h0.003c-0.034-21.742-16.358-32.613-32.681-32.613
		c-16.34,0-32.68,10.893-32.681,32.679v65.984h226.909V470.842z"/>
	<path fill="none" d="M831.258,450.353c-11.296,0-20.452,9.156-20.452,20.454c0,11.296,9.156,20.452,20.452,20.452
		c11.298,0,20.454-9.156,20.454-20.452C851.713,459.509,842.557,450.353,831.258,450.353z M845.478,485.025
		c-3.64,3.639-8.665,5.889-14.22,5.889c-5.553,0-10.578-2.25-14.217-5.889c-3.601-3.601-5.838-8.561-5.885-14.045h9.748
		c0.093,5.641,4.691,10.185,10.354,10.185c5.665,0,10.263-4.545,10.355-10.186h9.749
		C851.317,476.464,849.08,481.424,845.478,485.025z M821.246,470.807c0-2.767,1.121-5.269,2.933-7.082
		c1.813-1.813,4.315-2.933,7.08-2.933c2.766,0,5.269,1.12,7.082,2.933c1.813,1.813,2.933,4.315,2.933,7.082
		c0,2.766-1.12,5.268-2.933,7.08c-1.813,1.812-4.315,2.933-7.082,2.933c-2.766,0-5.268-1.12-7.08-2.933
		C822.366,476.075,821.246,473.573,821.246,470.807z M841.615,470.634c-0.092-5.643-4.691-10.187-10.355-10.187
		c-5.663,0-10.262,4.545-10.354,10.188h-9.748c0.047-5.485,2.284-10.446,5.885-14.047c3.639-3.639,8.664-5.889,14.217-5.889
		c5.554,0,10.58,2.25,14.22,5.889c3.601,3.601,5.838,8.561,5.885,14.046H841.615z"/>
	<path fill="none" d="M611.799,585.889c-12.218,0-23.282-4.943-31.303-12.935l-18.598,18.597c0.447,0.761,0.455,1.701,0.028,2.471
		c13.992,13.114,31.874,19.688,49.774,19.689c18.644-0.001,37.283-7.112,51.511-21.339c12.844-12.844,19.866-29.287,21.112-46.082
		h-28.432C653.521,568.548,634.687,585.889,611.799,585.889z"/>
	<path fill="none" d="M348.366,489.155c-0.441-0.124-0.876-0.251-1.3-0.384c-4.474-1.397-7.985-3.202-11.628-4.823
		c-2.432-1.083-4.928-2.094-7.861-2.903c-3.909-1.078-8.608-1.804-14.962-1.805c-7.149,0.002-12.2,0.919-16.393,2.225
		c-4.193,1.307-7.558,3.03-11.303,4.701c-2.494,1.111-5.15,2.191-8.28,3.054c-4.17,1.152-9.166,1.911-15.736,1.911
		c-0.005,0-0.011,0-0.016,0c-0.007,0-0.014,0-0.021,0c-7.389,0-12.789-0.964-17.258-2.36c-4.474-1.397-7.985-3.202-11.628-4.823
		c-2.432-1.083-4.928-2.094-7.86-2.903c-3.9-1.075-8.588-1.8-14.921-1.805c-7.13,0.005-12.172,0.921-16.358,2.225
		c-4.193,1.307-7.559,3.03-11.304,4.701c-2.494,1.111-5.151,2.191-8.28,3.054c-4.171,1.152-9.166,1.911-15.737,1.911
		c-0.005,0-0.011,0-0.016,0c-0.007,0-0.014,0-0.021,0c-7.388,0-12.789-0.964-17.258-2.36c-4.474-1.397-7.985-3.202-11.628-4.823
		c-2.432-1.083-4.928-2.094-7.861-2.903c-3.909-1.078-8.608-1.804-14.962-1.805c-7.149,0.002-12.2,0.919-16.393,2.225
		c-4.193,1.307-7.558,3.03-11.303,4.701c-0.596,0.266-1.203,0.529-1.823,0.789c0,13.088,0,25.073,0,34.274h175.728v108.396h16.175
		V521.228h36.816v108.396h24.549C301.94,586.508,308.217,522.965,348.366,489.155z"/>
	<path fill="none" d="M685.578,546.289c-1.248,17.115-8.395,33.88-21.481,46.967c-14.466,14.466-33.416,21.696-52.37,21.696
		c-18.209,0-36.422-6.675-50.657-20.019c-0.406,0.253-0.867,0.38-1.329,0.38c-0.638,0-1.275-0.243-1.762-0.73
		c-0.84-0.84-0.953-2.126-0.35-3.091c-27.226-29.046-26.68-74.655,1.684-103.02c10.217-10.217,22.679-16.809,35.796-19.81
		c0-20.172,0-43.336,0-67.067h-38.614c-9.173,7.929-21.609,13.022-37.312,13.277c-4.469,26.104-17.949,50.495-40.434,66.302
		c0,33.833-0.001,92.37-0.001,148.451h223.567v-83.335H685.578z"/>
	<path fill="none" d="M655.931,537.162h28.516c-0.845-16.671-7.402-33.092-19.646-46.128c-0.307,0.129-0.633,0.193-0.959,0.193
		c-0.441,0-0.882-0.117-1.275-0.348l-19.356,19.356C650.238,517.286,654.905,526.69,655.931,537.162z"/>
	<path fill="none" d="M1001.686,63.486c0.1,31.915,20.907,66.293,66.339,66.495l0.248-0.008c33.369,0,61.429,11.726,81.149,33.91
		c5.437,6.117,10.112,12.89,13.974,20.171h369.946v-10.365h-9c-1.178,0-2.134-0.955-2.134-2.133v-6.96
		c-5.037-0.467-9.929-1.424-14.639-2.813l-2.691,6.144c-0.351,0.801-1.134,1.278-1.955,1.278c-0.286,0-0.576-0.058-0.855-0.18
		l-11.659-5.107c-1.079-0.473-1.571-1.731-1.098-2.81l2.588-5.909c-3.5-1.953-6.828-4.174-9.966-6.629l-0.012,0.012l-4.448,4.437
		c-0.415,0.415-0.96,0.623-1.506,0.623s-1.091-0.208-1.506-0.623l-9.002-9.002c-0.83-0.83-0.83-2.181,0-3.011l4.303-4.303
		c-3.218-3.92-6.051-8.167-8.455-12.677l-5.537,2.164c-0.255,0.1-0.518,0.147-0.776,0.147c-0.853,0-1.658-0.515-1.987-1.357
		l-4.634-11.856c-0.429-1.097,0.113-2.335,1.21-2.763l5.446-2.129c-1.062-3.873-1.837-7.864-2.285-11.955h-5.815
		c-1.178,0-2.133-0.955-2.133-2.134V81.413c0-1.178,0.955-2.133,2.133-2.133h5.817c0.566-5.165,1.64-10.175,3.173-14.982
		l-5.361-2.348c-1.079-0.473-1.571-1.731-1.098-2.81l5.107-11.66c0.351-0.801,1.134-1.278,1.955-1.278
		c0.286,0,0.576,0.058,0.855,0.18l5.479,2.4c2.05-3.492,4.353-6.817,6.908-9.93l-4.305-4.305c-0.833-0.833-0.833-2.184,0-3.017
		l9.001-9c0.416-0.417,0.962-0.625,1.508-0.625s1.092,0.208,1.509,0.625l4.458,4.457c3.953-3.093,8.211-5.807,12.728-8.092
		l-2.366-6.054c-0.429-1.097,0.113-2.335,1.21-2.764l11.856-4.633c0.255-0.1,0.518-0.147,0.776-0.147
		c0.853,0,1.658,0.515,1.987,1.357l2.457,6.287c3.773-0.947,7.656-1.612,11.626-1.981v-6.96c0-1.178,0.955-2.133,2.134-2.133h9V0
		h-488.35C1015.295,9.587,1001.604,37.398,1001.686,63.486z M1207.592,15.617h119.554v77.061h-119.554V15.617z M1207.592,107.18
		h119.554v50.354h-119.554V107.18z M1049.318,23.066c5.658,0,10.244,4.586,10.244,10.244s-4.586,10.244-10.244,10.244
		s-10.244-4.586-10.244-10.244S1043.66,23.066,1049.318,23.066z M1049.318,83.452c5.658,0,10.244,4.586,10.244,10.244
		c0,5.657-4.586,10.244-10.244,10.244s-10.244-4.587-10.244-10.244C1039.074,88.039,1043.66,83.452,1049.318,83.452z"/>
	<path fill="none" d="M628.515,500.46c5.154,2.099,9.82,5.14,13.792,8.909l19.374-19.374c-0.402-0.684-0.458-1.513-0.155-2.234
		c-9.587-9.005-21.003-14.934-33.011-17.77C628.516,481.252,628.516,491.554,628.515,500.46z"/>
	<path fill="#3C314B" d="M1479.346,37.692c-12.684,12.686-20.565,30.16-20.729,49.482h34.34
		c0.325-19.877,16.524-35.888,36.474-35.888c1.321,0,2.625,0.075,3.91,0.212V17.059c-1.296-0.071-2.599-0.112-3.912-0.112
		C1509.867,16.947,1492.165,24.872,1479.346,37.692z"/>
	<path fill="#3C314B" d="M1.516,264.331c0,1.197,0.974,2.171,2.171,2.171h12.981c1.197,0,2.171-0.975,2.171-2.171l0.008-6.406
		v-0.018c4.033-0.492,8.034-1.29,11.966-2.406l2.394,6.126c0.336,0.859,1.157,1.384,2.027,1.384c0.263,0,0.531-0.048,0.791-0.15
		l12.089-4.724c1.119-0.437,1.671-1.699,1.234-2.818l-2.49-6.37c4.397-2.394,8.614-5.232,12.583-8.526l5.018,5.018
		c0.425,0.425,0.981,0.637,1.538,0.637c0.557,0,1.113-0.212,1.538-0.637l9.178-9.178c0.849-0.85,0.849-2.227,0-3.076l-5.228-5.228
		c2.452-3.161,4.629-6.462,6.531-9.878l6.937,3.038c0.284,0.124,0.58,0.183,0.872,0.183c0.838,0,1.636-0.487,1.993-1.303
		l5.207-11.889c0.482-1.1-0.019-2.383-1.119-2.865l-7.167-3.139c1.401-4.761,2.341-9.628,2.824-14.531h8.043
		c1.201,0,2.175-0.974,2.175-2.175V172.42c0-1.201-0.974-2.175-2.175-2.175h-8.263c-0.465-3.812-1.208-7.593-2.23-11.317
		l7.786-3.043c1.119-0.437,1.671-1.699,1.234-2.818l-4.724-12.089c-0.336-0.859-1.157-1.384-2.027-1.384
		c-0.263,0-0.531,0.048-0.791,0.15l-7.877,3.078c-2.26-4.238-4.938-8.311-8.029-12.162l6.027-6.027c0.85-0.85,0.849-2.227,0-3.077
		l-9.177-9.177c-0.425-0.425-0.981-0.637-1.538-0.637c-0.557,0-1.113,0.212-1.538,0.637l-6.028,6.028
		c-3.02-2.423-6.173-4.597-9.438-6.51l3.398-7.759c0.482-1.1-0.02-2.383-1.12-2.865l-11.889-5.207
		c-0.284-0.124-0.58-0.183-0.871-0.183c-0.838,0-1.636,0.487-1.994,1.303l-3.364,7.68c-4.681-1.488-9.47-2.526-14.307-3.116v-8.264
		c0-1.201-0.974-2.175-2.175-2.175l-12.979,0c-1.201,0-2.175,0.974-2.175,2.175v8.044c-0.507,0.05-1.012,0.118-1.518,0.178v5.258
		c3.076-0.389,6.17-0.603,9.266-0.604c18.804-0.002,37.601,7.172,51.951,21.522c28.689,28.689,28.689,75.198-0.007,103.894
		c-14.344,14.344-33.144,21.516-51.943,21.516c-3.096,0-6.19-0.214-9.266-0.603v5.248c0.506,0.06,1.01,0.138,1.516,0.187
		L1.516,264.331z"/>
	<path fill="#3C314B" d="M831.259,481.165c-5.663,0-10.261-4.545-10.354-10.185h-9.748c0.047,5.484,2.284,10.444,5.885,14.045
		c3.639,3.639,8.664,5.889,14.217,5.889c5.554,0,10.58-2.25,14.22-5.889c3.601-3.601,5.839-8.561,5.885-14.046h-9.749
		C841.522,476.62,836.924,481.165,831.259,481.165z"/>
	<path fill="#3C314B" d="M1492.957,88.391h-34.34c0.163,19.318,8.045,36.789,20.729,49.474
		c12.819,12.818,30.521,20.744,50.083,20.744c1.313,0,2.617-0.042,3.912-0.112v-34.439c-1.285,0.137-2.589,0.212-3.91,0.212
		C1509.482,124.269,1493.285,108.261,1492.957,88.391z"/>
	<path fill="#3C314B" d="M1068.416,479.864c-41.719-0.002-62.77-28.662-66.22-58.033c21.404,0.001,65.307,0.001,65.316,0.001
		c8.753,0.394,17.221,6.427,17.239,18.099h-0.002c0,17.815,13.361,26.723,26.723,26.723s26.723-8.908,26.723-26.723h-0.002
		c0.019-12.079,9.089-18.12,18.158-18.12c9.08,0,18.157,6.051,18.157,18.158h0.009c0.019,17.789,13.371,26.685,26.723,26.685
		c13.361,0,26.722-8.907,26.722-26.723h-0.002c0.019-12.08,9.088-18.12,18.157-18.12c9.069,0,18.138,6.04,18.157,18.12h-0.002
		c0,17.411,12.763,26.313,25.814,26.707l243.253,0.001v-8.57l-243.263-0.001c-8.753-0.394-17.221-6.427-17.239-18.099h0.001
		c0-17.815-13.361-26.723-26.723-26.723c-13.361,0-26.723,8.908-26.723,26.723h0.002c-0.019,12.079-9.089,18.12-18.158,18.12
		c-9.079,0-18.157-6.052-18.157-18.158h-0.009c-0.019-17.79-13.371-26.684-26.723-26.685c-13.361,0-26.722,8.907-26.722,26.723
		h0.002c-0.019,12.08-9.088,18.12-18.157,18.12s-18.138-6.04-18.157-18.12h0.002c0-17.411-12.763-26.313-25.815-26.707
		c-0.007,0-44.612,0-65.818-0.001l-0.001-0.076c-0.003-3.849,0.297-7.734,0.9-11.591h429.818v26.501
		c0,7.581,6.167,13.749,13.749,13.749h87.191V317.296h-87.191c-7.581,0-13.749,6.168-13.749,13.749v24.048h-399.251
		c9.403-5.396,20.997-8.646,34.906-8.702l0.216,0.006c33.369,0,61.429-11.726,81.149-33.91c5.197-5.846,9.692-12.296,13.452-19.211
		h370.468V184.053h-369.946c-3.861-7.281-8.537-14.054-13.974-20.171c-19.72-22.184-47.78-33.91-81.149-33.91l-0.248,0.008
		c-45.432-0.202-66.239-34.58-66.339-66.495c-0.082-26.087,13.61-53.898,43.305-63.486h-66.213
		c-12.142,18.166-18.679,40.373-18.565,63.843c0.137,28.173,9.818,54.428,27.26,73.93c19.708,22.037,47.7,33.685,80.948,33.685
		l0.248-0.007c45.58,0.198,66.341,34.703,66.34,66.735c0,32.04-20.775,66.553-66.378,66.735l-0.21-0.005
		c-25.9,0-48.609,7.07-66.699,20.612c4.437-11.15,6.879-23.311,6.88-36.044c0-48.222-35.005-88.258-80.999-96.102V0h-29.115v192.79
		c-42.587,5.495-76.554,38.464-83.565,80.558h-15.837v-156.95c17.141-8.106,29.003-25.55,29.003-45.771
		c0-20.22-11.862-37.664-29.003-45.77V0h-4.044v21.224C791.996,13.722,788.086,6.588,783.342,0h-51.63
		c8.31,3.92,15.278,9.317,20.871,15.739v10.83c-15.349,8.692-25.715,25.159-25.715,44.058c0,18.261,9.675,34.259,24.175,43.16
		c-11.76,12.564-29.035,20.863-51.824,20.899v-0.006c-67.871,0-102.57,49.75-104.109,100.627
		c-0.001,0.016-0.001,56.147-0.002,119.786h-19.309c-0.835-28.288-20.109-55.964-57.846-55.964v0.005
		c-52.361-0.083-52.334-78.664,0.082-78.664v-0.019c77.097-0.083,77.071-115.769-0.082-115.769v0.005
		c-2.242-0.003-4.38-0.161-6.429-0.44V26.463c2.05-0.279,4.188-0.436,6.429-0.44v0.003c23.689,0,40.101-10.909,49.247-26.026
		h-25.011c-6.165,4.602-14.211,7.456-24.154,7.472V7.469c-2.238,0-4.403,0.107-6.511,0.296V0h-13.86v10.571
		c-50.005,16.406-50.005,93.161,0,109.567v15.948c-4.942,1.223-9.417,3.722-13.037,7.277l-55.054-33.814
		C449.363,75.983,458.142,37.731,455.93,0h-3.271c0.226,3.786,0.351,7.578,0.351,11.37c0,33.402-8.74,66.796-26.22,96.468
		l-78.645-48.304C358.481,41.232,362.451,20.319,360.089,0h-3.286c0.454,3.776,0.7,7.572,0.701,11.371
		c-0.001,16.043-4.05,32.077-12.144,46.452l-54.958-33.755c2.63-8.251,1.329-17.056-3.231-24.067h-48.108
		c-1.643,2.56-2.897,5.401-3.658,8.455h-67.351c0.087-2.825,0.304-5.646,0.642-8.455h-3.285c-0.326,2.81-0.543,5.63-0.626,8.455
		H72.533c0.043-2.82,0.154-5.639,0.321-8.455h-3.272c-0.165,2.816-0.275,5.635-0.317,8.455H7.461C6.701,5.401,5.447,2.56,3.804,0H0
		v35.479c3.554-3.569,6.193-8.071,7.462-13.164H69.55c2.467,43.846,19.782,87.005,51.946,121.314
		c-1.549,2.518-1.239,5.857,0.943,8.039c1.274,1.274,2.943,1.91,4.612,1.91c1.189,0,2.379-0.323,3.426-0.967
		c25.527,23.931,55.947,39.643,87.906,47.14c-0.906,3.494-1.401,7.15-1.456,10.911h-2.331c-7.581,0-13.749,6.167-13.749,13.749
		v66.65H159.79v-35.94c6.44-2.28,10.953-8.42,10.953-15.511c0-9.078-7.385-16.463-16.463-16.463
		c-9.078,0-16.463,7.385-16.463,16.463c0,7.091,4.513,13.231,10.953,15.511v35.94H0v33.387h148.772v43.447
		c-6.44,2.28-10.953,8.42-10.953,15.51c0,9.078,7.385,16.463,16.463,16.463c9.077,0,16.463-7.385,16.463-16.463
		c0-7.091-4.513-13.23-10.953-15.51v-43.447h41.059v79.504c0,7.581,6.168,13.749,13.749,13.749h97.049
		c7.581,0,13.749-6.168,13.749-13.749v-2.358h161.81c-0.073,0.902-0.163,1.802-0.266,2.7c-16.205,9.606-25.055,26.703-26.547,44.505
		c-2.866-0.317-5.339-0.807-7.546-1.415c-2.933-0.81-5.429-1.82-7.861-2.904c-3.643-1.621-7.154-3.426-11.629-4.823
		c-4.469-1.396-9.87-2.36-17.259-2.36c-0.007,0-0.014,0-0.021,0c-6.579-0.001-11.579,0.759-15.753,1.912
		c-3.13,0.863-5.787,1.943-8.281,3.054c-3.745,1.671-7.111,3.394-11.304,4.701c-4.193,1.307-9.245,2.224-16.394,2.225
		c-6.354-0.001-11.053-0.727-14.962-1.805c-2.933-0.809-5.428-1.82-7.86-2.904c-3.644-1.621-7.154-3.426-11.628-4.823
		c-4.469-1.396-9.869-2.36-17.258-2.36c-0.007,0-0.014,0-0.021,0c-6.578-0.001-11.579,0.759-15.752,1.912
		c-3.13,0.863-5.786,1.943-8.28,3.054c-3.745,1.671-7.111,3.394-11.303,4.701c-4.193,1.307-9.244,2.224-16.393,2.225
		c-6.354-0.001-11.053-0.727-14.962-1.805c-2.933-0.809-5.428-1.82-7.86-2.904c-3.643-1.621-7.154-3.426-11.628-4.823
		c-4.448-1.39-9.82-2.35-17.155-2.359v-0.001l-0.047,0l-0.041,0l-0.036,0v0.001c-6.54,0.005-11.519,0.763-15.676,1.911
		c-3.13,0.863-5.786,1.943-8.28,3.054c-3.745,1.671-7.111,3.394-11.304,4.701c-4.194,1.307-9.245,2.224-16.395,2.225
		c-6.354-0.001-11.053-0.727-14.962-1.805c-2.933-0.809-5.429-1.82-7.86-2.904c-3.643-1.621-7.154-3.426-11.628-4.823
		c-4.469-1.396-9.869-2.36-17.258-2.36c-0.007,0-0.014,0-0.021,0c-6.578-0.001-11.579,0.759-15.752,1.912
		c-3.13,0.863-5.786,1.943-8.28,3.054c-1.874,0.836-3.653,1.685-5.488,2.488c0-16.129,0-31.368-0.001-42.903
		c10.057-3.625,17.247-13.249,17.247-24.555c0-14.413-11.684-26.097-26.097-26.097c-14.413,0-26.097,11.684-26.097,26.097
		c0,11.311,7.197,20.939,17.261,24.56c0,12.555,0,29.498,0,47.199c-1.412,0.087-2.912,0.137-4.523,0.137
		c-6.354-0.001-11.053-0.727-14.962-1.805c-2.933-0.809-5.429-1.82-7.861-2.904c-3.643-1.621-7.154-3.426-11.628-4.823
		c-4.469-1.396-9.869-2.36-17.258-2.36c-0.007,0-0.014,0-0.021,0v0l-0.042,0c-0.781,0-1.535,0.012-2.273,0.033v2.978
		c0.737-0.022,1.487-0.037,2.273-0.037l0.047,0v0c6.352,0.002,11.049,0.728,14.957,1.805c2.933,0.809,5.429,1.82,7.86,2.904
		c3.643,1.621,7.154,3.426,11.628,4.823c4.469,1.396,9.869,2.36,17.258,2.36c0.007,0,0.014,0,0.021,0c0.005,0,0.011,0,0.016,0
		c1.592,0,3.089-0.046,4.507-0.131c0,5.485,0,11.022,0,16.506c-1.412,0.087-2.912,0.136-4.523,0.137
		c-6.354-0.001-11.053-0.727-14.962-1.805c-2.933-0.809-5.429-1.82-7.861-2.904c-3.643-1.621-7.154-3.426-11.628-4.823
		c-4.469-1.396-9.869-2.36-17.258-2.36c-0.007,0-0.014,0-0.021,0v0l-0.042,0c-0.781,0-1.535,0.012-2.273,0.033v2.978
		c0.737-0.022,1.487-0.037,2.273-0.037l0.047,0v0c6.352,0.002,11.049,0.728,14.957,1.805c2.933,0.809,5.429,1.82,7.86,2.904
		c3.643,1.621,7.154,3.426,11.628,4.823c4.469,1.397,9.869,2.36,17.258,2.36c0.007,0,0.014,0,0.021,0c0.005,0,0.011,0,0.016,0
		c1.592,0,3.089-0.047,4.508-0.131c0,5.619,0,11.159,0,16.506c-1.412,0.087-2.912,0.136-4.523,0.137
		c-6.354-0.001-11.053-0.727-14.962-1.805c-2.933-0.809-5.429-1.82-7.861-2.903c-3.643-1.622-7.154-3.426-11.628-4.824
		c-4.469-1.396-9.869-2.36-17.258-2.36c-0.007,0-0.014,0-0.021,0v0l-0.042,0c-0.781,0-1.535,0.012-2.273,0.033v2.978
		c0.737-0.022,1.487-0.037,2.273-0.038l0.047,0.001v0c6.352,0.001,11.049,0.727,14.957,1.805c2.933,0.809,5.429,1.82,7.86,2.903
		c3.643,1.622,7.154,3.426,11.628,4.823c4.469,1.397,9.869,2.36,17.258,2.36c0.007,0,0.014,0,0.021,0c0.005,0,0.011,0,0.016,0
		c1.593,0,3.089-0.046,4.507-0.13c0,11.506,0,21.985,0,30.227H0v108.396h251.983V521.228H76.254c0-9.201,0-21.186,0-34.274
		c0.619-0.26,1.226-0.523,1.823-0.789c3.745-1.671,7.111-3.394,11.303-4.701c4.193-1.307,9.244-2.223,16.393-2.225
		c6.354,0.001,11.053,0.727,14.962,1.805c2.933,0.809,5.429,1.82,7.861,2.903c3.643,1.622,7.154,3.426,11.628,4.823
		c4.469,1.397,9.869,2.36,17.258,2.36c0.007,0,0.014,0,0.021,0c0.005,0,0.011,0,0.016,0c6.571,0,11.567-0.76,15.737-1.911
		c3.13-0.863,5.786-1.943,8.28-3.054c3.745-1.671,7.111-3.394,11.304-4.701c4.186-1.304,9.228-2.22,16.358-2.225
		c6.333,0.004,11.02,0.729,14.921,1.805c2.933,0.809,5.429,1.82,7.86,2.903c3.643,1.622,7.154,3.426,11.628,4.823
		c4.469,1.397,9.869,2.36,17.258,2.36c0.007,0,0.014,0,0.021,0c0.005,0,0.011,0,0.016,0c6.571,0,11.566-0.76,15.736-1.911
		c3.129-0.863,5.786-1.943,8.28-3.054c3.745-1.671,7.111-3.394,11.303-4.701c4.193-1.307,9.244-2.223,16.393-2.225
		c6.354,0.001,11.053,0.727,14.962,1.805c2.933,0.809,5.429,1.82,7.861,2.903c3.643,1.622,7.154,3.426,11.628,4.823
		c0.424,0.132,0.859,0.26,1.3,0.384c-40.149,33.811-46.426,97.354-18.843,140.469h46.693
		c-50.875-33.548-37.39-130.11,40.467-130.233v0.006c16.451,0,30.948-2.927,43.502-8.08c0,34.639,0,87.481-0.001,138.307h18.564
		c0-56.081,0.001-114.618,0.001-148.451c22.485-15.807,35.965-40.198,40.434-66.302c15.702-0.255,28.138-5.348,37.312-13.277h38.614
		c0,23.732,0,46.895,0,67.067c-13.117,3.001-25.579,9.593-35.796,19.81c-28.364,28.364-28.91,73.974-1.684,103.02
		c-0.603,0.966-0.49,2.252,0.35,3.091c0.487,0.487,1.124,0.73,1.762,0.73c0.462,0,0.923-0.127,1.329-0.38
		c14.236,13.344,32.448,20.019,50.657,20.019c18.953,0,37.903-7.23,52.37-21.696c13.086-13.087,20.233-29.852,21.481-46.967h16.738
		v83.335h15.416v-83.335h226.909v29.149c-0.912,0.348-1.85,0.681-2.838,0.988c-4.194,1.307-9.245,2.224-16.395,2.225
		c-6.354-0.001-11.053-0.727-14.962-1.805c-2.933-0.809-5.429-1.82-7.861-2.904c-3.643-1.621-7.154-3.426-11.628-4.823
		c-4.469-1.396-9.869-2.36-17.258-2.36c-0.007,0-0.014,0-0.021,0c-6.578-0.001-11.578,0.759-15.752,1.912
		c-3.13,0.863-5.786,1.943-8.28,3.054c-3.745,1.671-7.111,3.394-11.303,4.701c-4.193,1.307-9.244,2.224-16.393,2.225
		c-6.354-0.001-11.053-0.727-14.962-1.805c-2.933-0.809-5.429-1.82-7.86-2.904c-3.643-1.621-7.154-3.426-11.628-4.823
		c-4.469-1.396-9.869-2.36-17.258-2.36c-0.007,0-0.014,0-0.021,0v2.973c6.354,0.001,11.053,0.727,14.962,1.805
		c2.933,0.809,5.429,1.82,7.86,2.904c3.643,1.621,7.154,3.426,11.628,4.823c4.469,1.397,9.869,2.36,17.258,2.36
		c0.007,0,0.014,0,0.021,0c0.005,0,0.011,0,0.016,0c6.57,0,11.566-0.76,15.736-1.912c3.129-0.863,5.786-1.943,8.28-3.054
		c3.745-1.671,7.111-3.394,11.303-4.701c4.193-1.307,9.244-2.224,16.393-2.225c6.354,0.001,11.053,0.727,14.962,1.805
		c2.933,0.809,5.429,1.82,7.861,2.904c3.643,1.621,7.154,3.426,11.628,4.823c4.469,1.397,9.869,2.36,17.258,2.36
		c0.007,0,0.014,0,0.021,0c0.005,0,0.011,0,0.016,0c6.571,0,11.567-0.76,15.737-1.912c1.232-0.34,2.375-0.72,3.479-1.115v16.326
		c-0.912,0.348-1.85,0.68-2.838,0.988c-4.194,1.307-9.245,2.224-16.395,2.225c-6.354-0.001-11.053-0.727-14.962-1.805
		c-2.933-0.809-5.429-1.82-7.861-2.904c-3.643-1.621-7.154-3.426-11.628-4.823c-4.469-1.396-9.869-2.36-17.258-2.36
		c-0.007,0-0.014,0-0.021,0c-6.578-0.001-11.578,0.759-15.752,1.912c-3.13,0.863-5.786,1.943-8.28,3.054
		c-3.745,1.671-7.111,3.394-11.303,4.701c-4.193,1.307-9.244,2.224-16.393,2.225c-6.354-0.001-11.053-0.727-14.962-1.805
		c-2.933-0.809-5.429-1.82-7.86-2.904c-3.643-1.621-7.154-3.426-11.628-4.823c-4.469-1.396-9.869-2.36-17.258-2.36
		c-0.007,0-0.014,0-0.021,0v2.973c6.354,0.001,11.053,0.727,14.962,1.805c2.933,0.809,5.429,1.82,7.86,2.903
		c3.643,1.621,7.154,3.426,11.628,4.823c4.468,1.396,9.868,2.36,17.254,2.36c0.009,0,0.016,0,0.025,0c0.005,0,0.011,0,0.016,0
		c6.57,0,11.566-0.76,15.736-1.912c3.129-0.863,5.786-1.943,8.28-3.054c3.745-1.671,7.111-3.394,11.303-4.701
		c4.193-1.307,9.244-2.223,16.393-2.225c6.354,0.001,11.053,0.727,14.962,1.805c2.933,0.809,5.429,1.82,7.861,2.903
		c3.643,1.621,7.154,3.426,11.628,4.823c4.468,1.396,9.868,2.36,17.254,2.36c0.009,0,0.016,0,0.025,0c0.005,0,0.011,0,0.016,0
		c6.571,0,11.567-0.76,15.737-1.912c1.232-0.34,2.375-0.72,3.479-1.115v16.326c-0.912,0.348-1.85,0.68-2.838,0.988
		c-4.194,1.307-9.245,2.224-16.395,2.225c-6.354-0.001-11.053-0.727-14.962-1.805c-2.933-0.809-5.429-1.82-7.861-2.903
		c-3.643-1.622-7.154-3.426-11.628-4.823c-4.469-1.397-9.869-2.361-17.258-2.361c-0.007,0-0.014,0-0.021,0
		c-6.578-0.001-11.578,0.759-15.752,1.912c-3.13,0.863-5.786,1.943-8.28,3.054c-3.745,1.671-7.111,3.394-11.303,4.701
		c-4.193,1.307-9.244,2.223-16.393,2.225c-6.354-0.001-11.053-0.727-14.962-1.805c-2.933-0.809-5.429-1.82-7.86-2.903
		c-3.643-1.622-7.154-3.426-11.628-4.823c-4.469-1.397-9.869-2.361-17.258-2.361c-0.007,0-0.014,0-0.021,0v2.973
		c6.354,0.001,11.053,0.727,14.962,1.805c2.933,0.809,5.429,1.82,7.86,2.904c3.643,1.622,7.154,3.426,11.628,4.824
		c4.469,1.396,9.869,2.36,17.258,2.36c0.007,0,0.014,0,0.021,0c6.578,0.001,11.578-0.759,15.752-1.912
		c3.129-0.863,5.786-1.943,8.28-3.054c3.745-1.671,7.111-3.394,11.303-4.701c4.193-1.307,9.244-2.224,16.393-2.225
		c6.354,0.001,11.053,0.727,14.962,1.805c2.933,0.809,5.429,1.82,7.861,2.904c3.643,1.622,7.154,3.426,11.628,4.824
		c4.469,1.396,9.869,2.36,17.258,2.36c0.007,0,0.014,0,0.021,0c6.157,0.001,10.922-0.67,14.931-1.7
		c-2.532,0.876-5.022,1.979-7.438,3.344c-3.641,2.057-6.861,4.564-9.676,7.386h63.472c-7.251-7.276-16.699-11.739-26.64-12.887
		v-5.581c0.23-0.076,0.454-0.155,0.69-0.228c4.194-1.307,9.245-2.224,16.395-2.225l0.047,0v0c6.352,0.001,11.049,0.727,14.957,1.805
		c2.933,0.809,5.429,1.82,7.86,2.904c3.643,1.622,7.154,3.426,11.628,4.824c4.469,1.396,9.869,2.36,17.258,2.36
		c0.007,0,0.014,0,0.021,0c6.578,0.001,11.578-0.759,15.752-1.912c3.129-0.863,5.786-1.943,8.28-3.054
		c3.745-1.671,7.111-3.394,11.303-4.701c4.193-1.307,9.244-2.224,16.393-2.225c6.354,0.001,11.053,0.727,14.962,1.805
		c2.933,0.809,5.429,1.82,7.86,2.904c3.643,1.622,7.154,3.426,11.628,4.824c4.469,1.396,9.869,2.36,17.258,2.36
		c0.007,0,0.014,0,0.021,0c6.579,0.001,11.579-0.759,15.753-1.912c3.13-0.863,5.786-1.943,8.28-3.054
		c3.745-1.671,7.111-3.394,11.304-4.701c4.186-1.305,9.228-2.22,16.358-2.225c6.333,0.004,11.02,0.729,14.921,1.804
		c2.933,0.809,5.429,1.82,7.86,2.904c3.643,1.622,7.154,3.426,11.628,4.824c4.469,1.396,9.869,2.36,17.258,2.36
		c0.007,0,0.014,0,0.021,0c6.578,0.001,11.579-0.759,15.752-1.912c3.129-0.863,5.786-1.943,8.28-3.054
		c3.745-1.671,7.111-3.394,11.303-4.701c4.193-1.307,9.244-2.224,16.393-2.225c6.354,0.001,11.053,0.727,14.962,1.805
		c2.933,0.809,5.429,1.82,7.86,2.904c3.644,1.622,7.154,3.426,11.628,4.824c4.469,1.396,9.869,2.36,17.258,2.36
		c0.007,0,0.014,0,0.021,0c6.579,0.001,11.579-0.759,15.753-1.912c3.13-0.863,5.786-1.943,8.28-3.054
		c3.745-1.671,7.111-3.394,11.304-4.701c4.194-1.307,9.245-2.224,16.395-2.225c6.354,0.001,11.053,0.727,14.963,1.805
		c2.933,0.809,5.429,1.82,7.861,2.904c3.643,1.621,7.154,3.426,11.629,4.823c3.966,1.239,8.669,2.136,14.842,2.323
		c0.914,0.108,1.842,0.171,2.782,0.184v1.357c0,3.466,2.218,6.416,5.306,7.526h85.012v-72.027h-82.315
		c-4.413,0-8.004,3.591-8.004,8.004v1.357c-7.61,0.111-14.462,3.394-19.293,8.588c-1.342-0.503-2.619-1.042-3.875-1.602
		c-3.643-1.621-7.154-3.426-11.629-4.823c-4.469-1.396-9.87-2.36-17.259-2.36c-0.007,0-0.014,0-0.021,0
		c-6.579-0.001-11.579,0.759-15.754,1.912c-3.13,0.863-5.786,1.943-8.28,3.054c-3.745,1.671-7.112,3.394-11.304,4.701
		c-4.194,1.307-9.245,2.224-16.394,2.225c-6.354-0.001-11.053-0.727-14.962-1.805c-2.933-0.809-5.428-1.82-7.86-2.904
		c-3.644-1.621-7.154-3.426-11.628-4.823c-4.469-1.396-9.869-2.36-17.258-2.36c-0.007,0-0.014,0-0.021,0
		c-6.578-0.001-11.578,0.759-15.752,1.912c-3.13,0.863-5.786,1.943-8.28,3.054c-3.745,1.671-7.111,3.394-11.303,4.701
		c-4.193,1.307-9.244,2.224-16.393,2.225c-6.354-0.001-11.053-0.727-14.962-1.805c-2.933-0.809-5.428-1.82-7.861-2.904
		c-3.643-1.621-7.154-3.426-11.628-4.823c-4.448-1.39-9.82-2.35-17.155-2.359v-0.001l-0.047,0l-0.041,0l-0.036,0v0.001
		c-6.54,0.005-11.519,0.763-15.676,1.911c-3.13,0.863-5.786,1.943-8.28,3.054c-3.745,1.671-7.111,3.394-11.305,4.701
		c-4.194,1.307-9.245,2.224-16.394,2.225c-6.354-0.001-11.053-0.727-14.962-1.805c-2.933-0.809-5.429-1.82-7.861-2.904
		c-3.643-1.621-7.154-3.426-11.628-4.823c-4.469-1.396-9.869-2.36-17.258-2.36c-0.007,0-0.014,0-0.021,0
		c-6.578-0.001-11.578,0.759-15.752,1.912c-3.13,0.863-5.786,1.943-8.28,3.054c-3.745,1.671-7.11,3.394-11.303,4.701
		c-4.193,1.307-9.244,2.224-16.393,2.225c-6.354-0.001-11.053-0.727-14.962-1.805c-2.933-0.809-5.428-1.82-7.86-2.904
		c-3.643-1.621-7.154-3.426-11.628-4.823c-4.469-1.396-9.869-2.36-17.258-2.36c-0.007,0-0.014,0-0.021,0v0l-0.042,0
		c-6.579-0.001-11.579,0.759-15.754,1.912c-0.46,0.127-0.89,0.267-1.331,0.403v-22.785h573.284v-9.126H960.056V471.18h0.004
		c0-0.114-0.003-0.225-0.004-0.337v-0.279h-0.003c-0.308-31.65-24.203-47.477-48.094-47.479
		c-24.049-0.003-48.094,16.029-48.094,48.096h0.004c-0.034,21.742-16.357,32.613-32.681,32.613s-32.646-10.871-32.681-32.613h0.003
		c0-32.063-24.048-48.095-48.094-48.096c-23.894-0.001-47.786,15.825-48.094,47.479h-0.007v66.599H685.7
		c-0.844-16.941-7.49-33.638-19.908-46.899c0.768-0.982,0.711-2.399-0.193-3.303c-0.486-0.486-1.12-0.727-1.755-0.727
		c-0.547,0-1.094,0.179-1.548,0.534c-9.81-9.186-21.498-15.207-33.781-18.058c0-20.183,0.001-43.365,0.001-67.116h332.238
		c-0.34,3.605-0.525,7.253-0.543,10.935c-0.136,28.175,9.281,54.552,26.517,74.271c19.389,22.184,47.034,34.115,79.959,34.519
		c0.13,0.013,0.262,0.019,0.396,0.019h466.256v-41.474H1068.416z M1027.01,359.137h405.391v38.414h-429.07
		C1006.491,382.777,1014.246,368.752,1027.01,359.137z M416.831,466.008v-0.006c-27.183,0-49.044,7.981-65.586,20.817
		c-0.638-0.147-1.263-0.3-1.861-0.465c-2.933-0.809-5.428-1.82-7.86-2.903c-3.644-1.622-7.154-3.426-11.628-4.824
		c-4.469-1.396-9.869-2.36-17.258-2.36c-0.007,0-0.014,0-0.021,0c-6.578-0.001-11.579,0.759-15.752,1.912
		c-3.13,0.863-5.786,1.943-8.28,3.054c-3.745,1.671-7.111,3.394-11.303,4.701c-4.193,1.307-9.244,2.224-16.393,2.225
		c-6.354-0.001-11.053-0.727-14.962-1.805c-2.933-0.809-5.428-1.82-7.86-2.903c-3.643-1.622-7.154-3.426-11.628-4.824
		c-4.448-1.39-9.82-2.35-17.155-2.359v-0.001l-0.047,0l-0.041,0l-0.036,0v0.001c-6.54,0.005-11.519,0.763-15.676,1.911
		c-3.13,0.863-5.786,1.943-8.28,3.054c-3.745,1.671-7.111,3.394-11.304,4.701c-4.194,1.307-9.245,2.224-16.395,2.225
		c-6.354-0.001-11.053-0.727-14.962-1.805c-2.933-0.809-5.429-1.82-7.86-2.903c-3.643-1.622-7.154-3.426-11.628-4.824
		c-4.469-1.396-9.869-2.36-17.258-2.36c-0.007,0-0.014,0-0.021,0c-6.578-0.001-11.579,0.759-15.752,1.912
		c-3.13,0.863-5.786,1.943-8.28,3.054c-1.874,0.836-3.653,1.685-5.487,2.488c0-5.299,0-10.751,0-16.251
		c0.619-0.26,1.226-0.523,1.823-0.789c3.745-1.671,7.111-3.394,11.303-4.701c4.193-1.307,9.244-2.224,16.393-2.225
		c6.354,0.001,11.053,0.727,14.962,1.805c2.933,0.809,5.429,1.82,7.861,2.904c3.643,1.621,7.154,3.426,11.628,4.823
		c4.469,1.397,9.869,2.36,17.258,2.36c0.007,0,0.014,0,0.021,0c0.005,0,0.011,0,0.016,0c6.571,0,11.567-0.76,15.737-1.912
		c3.13-0.863,5.786-1.943,8.28-3.054c3.745-1.671,7.111-3.394,11.304-4.701c4.186-1.305,9.228-2.22,16.358-2.225
		c6.333,0.004,11.02,0.729,14.921,1.805c2.933,0.809,5.429,1.82,7.86,2.904c3.643,1.621,7.154,3.426,11.628,4.823
		c4.469,1.397,9.869,2.36,17.258,2.36c0.007,0,0.014,0,0.021,0c0.005,0,0.011,0,0.016,0c6.571,0,11.566-0.76,15.736-1.912
		c3.129-0.863,5.786-1.943,8.28-3.054c3.745-1.671,7.111-3.394,11.303-4.701c4.193-1.307,9.244-2.224,16.393-2.225
		c6.354,0.001,11.053,0.727,14.962,1.805c2.933,0.809,5.429,1.82,7.861,2.904c3.643,1.621,7.154,3.426,11.628,4.823
		c4.469,1.397,9.869,2.36,17.258,2.36c0.007,0,0.014,0,0.021,0c0.005,0,0.011,0,0.016,0c6.571,0,11.567-0.76,15.737-1.912
		c3.13-0.863,5.786-1.943,8.28-3.054c3.745-1.671,7.111-3.394,11.304-4.701c4.194-1.307,9.245-2.224,16.395-2.225
		c6.354,0.001,11.053,0.727,14.963,1.805c2.132,0.588,4.03,1.285,5.844,2.037C430.756,465.148,424.073,465.997,416.831,466.008z
		 M460.185,452.26c0,0,0,0.147,0,0.406c-5.458,4.054-11.737,7.343-18.834,9.642c-2.453-1.119-5.007-2.233-7.993-3.166
		c-4.469-1.396-9.87-2.36-17.259-2.36c-0.007,0-0.014,0-0.021,0c-6.579-0.001-11.579,0.759-15.753,1.912
		c-3.13,0.863-5.787,1.943-8.281,3.054c-3.745,1.671-7.111,3.394-11.304,4.701c-4.193,1.307-9.245,2.224-16.394,2.225
		c-6.354-0.001-11.053-0.727-14.962-1.805c-2.933-0.809-5.428-1.82-7.86-2.904c-3.644-1.621-7.154-3.426-11.628-4.823
		c-4.469-1.396-9.869-2.36-17.258-2.36c-0.007,0-0.014,0-0.021,0c-6.578-0.001-11.579,0.759-15.752,1.912
		c-3.13,0.863-5.786,1.943-8.28,3.054c-3.745,1.671-7.111,3.394-11.303,4.701c-4.193,1.307-9.244,2.224-16.393,2.225
		c-6.354-0.001-11.053-0.727-14.962-1.805c-2.933-0.809-5.428-1.82-7.86-2.904c-3.643-1.621-7.154-3.426-11.628-4.823
		c-4.448-1.39-9.82-2.35-17.155-2.359v-0.001l-0.047,0l-0.041,0l-0.036,0v0.001c-6.54,0.005-11.519,0.763-15.676,1.911
		c-3.13,0.863-5.786,1.943-8.28,3.054c-3.745,1.671-7.111,3.394-11.304,4.701c-4.194,1.307-9.245,2.224-16.395,2.225
		c-6.354-0.001-11.053-0.727-14.962-1.805c-2.933-0.809-5.429-1.82-7.86-2.904c-3.643-1.621-7.154-3.426-11.628-4.823
		c-4.469-1.396-9.869-2.36-17.258-2.36c-0.007,0-0.014,0-0.021,0c-6.578-0.001-11.579,0.759-15.752,1.912
		c-3.13,0.863-5.786,1.943-8.28,3.054c-1.874,0.836-3.653,1.685-5.488,2.488c0-5.426,0-10.877,0-16.251
		c0.619-0.26,1.227-0.523,1.823-0.789c3.745-1.671,7.111-3.394,11.303-4.701c4.193-1.307,9.244-2.224,16.393-2.225
		c6.354,0.001,11.053,0.727,14.962,1.805c2.933,0.809,5.429,1.82,7.861,2.904c3.643,1.621,7.154,3.426,11.628,4.823
		c4.469,1.396,9.869,2.36,17.258,2.36c0.007,0,0.014,0,0.021,0c6.579,0.001,11.579-0.759,15.753-1.912
		c3.13-0.863,5.786-1.943,8.28-3.054c3.745-1.671,7.111-3.394,11.304-4.701c4.186-1.305,9.228-2.22,16.358-2.225
		c6.333,0.004,11.02,0.729,14.921,1.804c2.933,0.809,5.429,1.82,7.86,2.904c3.643,1.621,7.154,3.426,11.628,4.823
		c4.469,1.396,9.869,2.36,17.258,2.36c0.007,0,0.014,0,0.021,0c6.578,0.001,11.579-0.759,15.752-1.912
		c3.129-0.863,5.786-1.943,8.28-3.054c3.745-1.671,7.111-3.394,11.303-4.701c4.193-1.307,9.244-2.224,16.393-2.225
		c6.354,0.001,11.053,0.727,14.962,1.805c2.933,0.809,5.429,1.82,7.861,2.904c3.643,1.621,7.154,3.426,11.628,4.823
		c4.469,1.396,9.869,2.36,17.258,2.36c0.007,0,0.014,0,0.021,0c6.579,0.001,11.579-0.759,15.753-1.912
		c3.13-0.863,5.786-1.943,8.28-3.054c3.745-1.671,7.111-3.394,11.304-4.701c4.194-1.307,9.245-2.224,16.395-2.225
		c6.354,0.001,11.053,0.727,14.963,1.805c2.933,0.809,5.429,1.82,7.861,2.904c3.643,1.621,7.154,3.426,11.629,4.823
		c2.781,0.869,5.923,1.57,9.679,1.976C460.203,451.938,460.19,452.099,460.185,452.26z M497.665,30.986v68.737
		C472.395,85.576,472.395,45.132,497.665,30.986z M235.408,22.315c1.657,6.608,5.656,12.466,11.301,16.419
		c0.586,0.416,1.092,0.753,1.592,1.06c4.489,2.757,9.634,4.215,14.878,4.215c7.571,0,14.671-2.926,19.966-8.132l54.539,33.498
		c-2.422,3.12-5.064,6.124-7.93,8.99c-18.509,18.508-42.747,27.755-67.001,27.757c-22.303-0.002-44.59-7.829-62.425-23.479
		c1.353-2.48,0.984-5.65-1.115-7.748c-1.275-1.275-2.945-1.912-4.616-1.912c-1.079,0-2.158,0.266-3.131,0.796
		c-13.077-14.907-20.686-32.924-22.828-51.464H235.408z M130.381,141.425c-1.022-0.605-2.172-0.907-3.322-0.907
		c-1.108,0-2.216,0.281-3.21,0.843C92.291,107.682,75.287,65.346,72.824,22.315h92.528c2.161,19.343,10.07,38.161,23.728,53.696
		c-1.319,2.072-1.353,4.719-0.109,6.824L130.381,141.425z M263.122,165.132c-20.332,0-37.627,13.205-43.791,31.484
		c-31.477-7.347-61.441-22.797-86.585-46.357c1.143-2.021,1.124-4.516-0.057-6.522l58.594-58.594
		c1.02,0.601,2.167,0.901,3.314,0.901c1.217,0,2.433-0.338,3.498-1.016c18.461,16.235,41.567,24.356,64.668,24.356
		c25.083,0,50.159-9.568,69.302-28.71c3.05-3.05,5.855-6.253,8.419-9.581l78.833,48.419c-6.425,9.277-13.763,18.114-22.027,26.378
		c-25.857,25.856-57.294,42.703-90.43,50.567C300.649,178.261,283.396,165.132,263.122,165.132z M487.425,397.55H325.396v-38.414
		h153.152C484.855,370.791,487.814,384.224,487.425,397.55z M325.396,355.093v-30.645h91.291
		c28.345,0.001,48.172,12.775,59.489,30.645H325.396z M520.839,396.257c0.11-12.6-1.814-25.218-5.769-37.12h42.161
		C556.357,377.335,544.226,394.918,520.839,396.257z M513.641,355.093c-13.343-35.418-45.216-63.527-95.623-64.017v-0.016h-92.622
		v-66.65c0-7.581-6.167-13.749-13.749-13.749h-2.331c-0.056-3.819-0.569-7.528-1.502-11.071
		c33.633-8.019,65.539-25.143,91.786-51.389c8.448-8.448,15.944-17.486,22.503-26.976l55.276,33.951
		c-1.582,5.029-1.746,10.456-0.435,15.598c0.08,0.323,0.17,0.641,0.27,0.988l0.042,0.151c3.548,12.03,14.79,20.432,27.338,20.432
		c15.717,0,28.504-12.787,28.504-28.504c0-3.64-0.681-7.191-2.016-10.532c-0.085-0.217-0.176-0.431-0.267-0.645l-0.163-0.382
		c-2.339-5.342-6.205-9.781-11.181-12.837c-2.493-1.531-5.155-2.653-7.947-3.354v-13.149c2.108,0.189,4.274,0.296,6.511,0.296
		v-0.005c52.361,0.083,52.334,78.664-0.082,78.664v0.019c-77.097,0.083-77.071,115.769,0.082,115.769v-0.005
		c25.313,0.04,38.381,18.426,39.206,37.41H513.641z M944.641,617.643c-0.226,0.053-0.452,0.107-0.678,0.164
		c0.23-0.079,0.453-0.159,0.678-0.24V617.643z M960.056,572.186c0.23-0.076,0.454-0.155,0.69-0.229
		c4.194-1.307,9.245-2.224,16.395-2.225l0.047,0v0c6.352,0.002,11.049,0.728,14.957,1.805c2.933,0.809,5.429,1.82,7.86,2.904
		c3.643,1.621,7.154,3.426,11.628,4.823c4.469,1.397,9.869,2.36,17.258,2.36c0.007,0,0.014,0,0.021,0c0.005,0,0.011,0,0.016,0
		c6.57,0,11.566-0.76,15.736-1.912c3.129-0.863,5.786-1.943,8.28-3.054c3.745-1.671,7.111-3.394,11.303-4.701
		c4.193-1.307,9.244-2.224,16.393-2.225c6.354,0.001,11.053,0.727,14.962,1.805c2.933,0.809,5.429,1.82,7.86,2.904
		c3.643,1.621,7.154,3.426,11.628,4.823c4.469,1.397,9.869,2.36,17.258,2.36c0.007,0,0.014,0,0.021,0c0.005,0,0.011,0,0.016,0
		c6.571,0,11.567-0.76,15.737-1.912c3.13-0.863,5.786-1.943,8.28-3.054c3.745-1.671,7.111-3.394,11.304-4.701
		c4.186-1.304,9.228-2.22,16.358-2.225c6.333,0.004,11.02,0.729,14.921,1.804c2.933,0.809,5.429,1.82,7.86,2.904
		c3.643,1.621,7.154,3.426,11.628,4.823c4.469,1.397,9.869,2.36,17.258,2.36c0.007,0,0.014,0,0.021,0c0.005,0,0.011,0,0.016,0
		c6.57,0,11.566-0.76,15.736-1.912c3.129-0.863,5.786-1.943,8.28-3.054c3.745-1.671,7.111-3.394,11.303-4.701
		c4.193-1.307,9.244-2.224,16.393-2.225c6.354,0.001,11.053,0.727,14.962,1.805c2.933,0.809,5.429,1.82,7.86,2.904
		c3.644,1.621,7.154,3.426,11.628,4.823c4.469,1.397,9.869,2.36,17.258,2.36c0.007,0,0.014,0,0.021,0c0.005,0,0.011,0,0.016,0
		c6.571,0,11.567-0.76,15.737-1.912c3.13-0.863,5.786-1.943,8.28-3.054c3.745-1.671,7.111-3.394,11.304-4.701
		c4.194-1.307,9.245-2.224,16.395-2.225c6.354,0.001,11.053,0.727,14.963,1.805c2.933,0.809,5.429,1.82,7.861,2.904
		c2.587,1.151,5.114,2.393,7.961,3.518c-2.92,3.974-4.771,8.776-5.137,13.983c-2.568-1.177-5.229-2.357-8.367-3.337
		c-4.469-1.396-9.87-2.36-17.259-2.36c-0.007,0-0.014,0-0.021,0c-6.579-0.001-11.579,0.759-15.754,1.912
		c-3.13,0.863-5.786,1.943-8.28,3.054c-3.745,1.671-7.112,3.394-11.304,4.701c-4.194,1.307-9.245,2.224-16.394,2.225
		c-6.354-0.001-11.053-0.727-14.962-1.805c-2.933-0.809-5.428-1.82-7.86-2.904c-3.644-1.621-7.154-3.426-11.628-4.823
		c-4.469-1.396-9.869-2.36-17.258-2.36c-0.007,0-0.014,0-0.021,0c-6.578-0.001-11.578,0.759-15.752,1.912
		c-3.13,0.863-5.786,1.943-8.28,3.054c-3.745,1.671-7.111,3.394-11.303,4.701c-4.193,1.307-9.244,2.224-16.393,2.225
		c-6.354-0.001-11.053-0.727-14.962-1.805c-2.933-0.809-5.428-1.82-7.861-2.904c-3.643-1.621-7.154-3.426-11.628-4.823
		c-4.448-1.39-9.82-2.35-17.155-2.359v-0.001l-0.047,0l-0.041,0l-0.036,0v0.001c-6.54,0.005-11.519,0.763-15.676,1.911
		c-3.13,0.863-5.786,1.943-8.28,3.054c-3.745,1.671-7.111,3.394-11.305,4.701c-4.194,1.307-9.245,2.224-16.394,2.225
		c-6.354-0.001-11.053-0.727-14.962-1.805c-2.933-0.809-5.429-1.82-7.861-2.904c-3.643-1.621-7.154-3.426-11.628-4.823
		c-4.469-1.396-9.869-2.36-17.258-2.36c-0.007,0-0.014,0-0.021,0c-6.578-0.001-11.578,0.759-15.752,1.912
		c-3.13,0.863-5.786,1.943-8.28,3.054c-3.745,1.671-7.11,3.394-11.303,4.701c-4.193,1.307-9.244,2.224-16.393,2.225
		c-6.354-0.001-11.053-0.727-14.962-1.805c-2.933-0.809-5.428-1.82-7.86-2.904c-3.643-1.621-7.154-3.426-11.628-4.823
		c-4.469-1.396-9.869-2.36-17.258-2.36c-0.007,0-0.014,0-0.021,0v0l-0.042,0c-6.579-0.001-11.579,0.759-15.754,1.912
		c-0.46,0.127-0.89,0.267-1.331,0.403V572.186z M960.056,591.671c0.23-0.076,0.454-0.155,0.69-0.229
		c4.194-1.307,9.245-2.223,16.395-2.225l0.047,0.001v-0.001c6.352,0.002,11.049,0.728,14.957,1.805
		c2.933,0.809,5.429,1.82,7.86,2.903c3.643,1.621,7.154,3.426,11.628,4.823c4.468,1.396,9.868,2.36,17.254,2.36
		c0.009,0,0.016,0,0.025,0c0.005,0,0.011,0,0.016,0c6.57,0,11.566-0.76,15.736-1.912c3.129-0.863,5.786-1.943,8.28-3.054
		c3.745-1.671,7.111-3.394,11.303-4.701c4.193-1.307,9.244-2.223,16.393-2.225c6.354,0.001,11.053,0.727,14.962,1.805
		c2.933,0.809,5.429,1.82,7.86,2.903c3.643,1.621,7.154,3.426,11.628,4.823c4.468,1.396,9.868,2.36,17.254,2.36
		c0.009,0,0.016,0,0.025,0c0.005,0,0.011,0,0.016,0c6.571,0,11.567-0.76,15.737-1.912c3.13-0.863,5.786-1.943,8.28-3.054
		c3.745-1.671,7.111-3.394,11.304-4.701c4.186-1.304,9.228-2.22,16.358-2.225c6.333,0.004,11.02,0.73,14.921,1.805
		c2.933,0.809,5.429,1.82,7.86,2.903c3.643,1.621,7.154,3.426,11.628,4.823c4.468,1.396,9.868,2.36,17.254,2.36
		c0.009,0,0.016,0,0.025,0c0.005,0,0.011,0,0.016,0c6.57,0,11.566-0.76,15.736-1.912c3.129-0.863,5.786-1.943,8.28-3.054
		c3.745-1.671,7.111-3.394,11.303-4.701c4.193-1.307,9.244-2.223,16.393-2.225c6.354,0.001,11.053,0.727,14.962,1.805
		c2.933,0.809,5.429,1.82,7.86,2.903c3.644,1.621,7.154,3.426,11.628,4.823c4.468,1.396,9.868,2.36,17.254,2.36
		c0.009,0,0.016,0,0.025,0c0.005,0,0.011,0,0.016,0c6.571,0,11.567-0.76,15.737-1.912c3.13-0.863,5.786-1.943,8.28-3.054
		c3.745-1.671,7.111-3.394,11.304-4.701c4.194-1.307,9.245-2.223,16.395-2.225c6.354,0.001,11.053,0.727,14.963,1.805
		c2.933,0.809,5.429,1.82,7.861,2.903c0.93,0.414,1.851,0.84,2.782,1.267c0.423,8.562,4.871,16.079,11.484,20.706
		c-0.105-0.028-0.216-0.053-0.32-0.082c-2.933-0.809-5.429-1.82-7.861-2.903c-3.643-1.622-7.154-3.426-11.629-4.824
		c-4.469-1.396-9.87-2.36-17.259-2.36c-0.007,0-0.014,0-0.021,0c-6.579-0.001-11.579,0.759-15.754,1.912
		c-3.13,0.863-5.786,1.943-8.28,3.054c-3.745,1.671-7.112,3.394-11.304,4.701c-4.194,1.307-9.245,2.224-16.394,2.225
		c-6.354-0.001-11.053-0.727-14.962-1.805c-2.933-0.809-5.428-1.82-7.86-2.903c-3.644-1.622-7.154-3.426-11.628-4.823
		c-4.469-1.397-9.869-2.361-17.258-2.361c-0.007,0-0.014,0-0.021,0c-6.578-0.001-11.578,0.759-15.752,1.912
		c-3.13,0.863-5.786,1.943-8.28,3.054c-3.745,1.671-7.111,3.394-11.303,4.701c-4.193,1.307-9.244,2.223-16.393,2.225
		c-6.354-0.001-11.053-0.727-14.962-1.805c-2.933-0.809-5.428-1.82-7.861-2.903c-3.643-1.622-7.154-3.426-11.628-4.823
		c-4.448-1.39-9.82-2.35-17.155-2.359v-0.001l-0.047-0.001l-0.041,0l-0.036,0v0.001c-6.54,0.005-11.519,0.763-15.676,1.911
		c-3.13,0.863-5.786,1.943-8.28,3.054c-3.745,1.671-7.111,3.394-11.305,4.701c-4.194,1.307-9.245,2.224-16.394,2.225
		c-6.354-0.001-11.053-0.727-14.962-1.805c-2.933-0.809-5.429-1.82-7.861-2.903c-3.643-1.622-7.154-3.426-11.628-4.823
		c-4.469-1.397-9.869-2.361-17.258-2.361c-0.007,0-0.014,0-0.021,0c-6.578-0.001-11.578,0.759-15.752,1.912
		c-3.13,0.863-5.786,1.943-8.28,3.054c-3.745,1.671-7.11,3.394-11.303,4.701c-4.193,1.307-9.244,2.223-16.393,2.225
		c-6.354-0.001-11.053-0.727-14.962-1.805c-2.933-0.809-5.428-1.82-7.86-2.903c-3.643-1.622-7.154-3.426-11.628-4.823
		c-4.469-1.397-9.869-2.361-17.258-2.361c-0.007,0-0.014,0-0.021,0v0l-0.042,0c-6.579-0.001-11.579,0.759-15.754,1.912
		c-0.46,0.127-0.89,0.267-1.331,0.403V591.671z M717.731,471.178c0.001-21.786,16.341-32.679,32.681-32.679
		c16.324,0,32.647,10.871,32.681,32.613h-0.003c0,32.065,24.049,48.098,48.097,48.098c24.049,0,48.097-16.033,48.097-48.098h-0.004
		c0.034-21.739,16.359-32.612,32.679-32.612c16.257,0,32.51,10.779,32.679,32.343v66.32H717.731V471.178z M560.677,397.55
		c9.618-10.409,14.66-24.323,15.12-38.414h19.313c0,12.677,0,25.606,0,38.414H560.677z M561.015,590.665
		c-0.39-0.23-0.826-0.344-1.263-0.344c-0.418,0-0.835,0.105-1.212,0.314c-13.11-13.988-19.683-31.87-19.682-49.768
		c0.002-18.643,7.113-37.282,21.34-51.51c9.974-9.973,22.119-16.434,34.912-19.414c0,11.276,0,21.591,0,30.508
		c-16.219,6.595-27.659,22.502-27.659,41.09c0,11.825,4.637,22.56,12.18,30.511L561.015,590.665z M663.212,592.371
		c-14.228,14.227-32.866,21.338-51.511,21.339c-17.9-0.001-35.783-6.575-49.774-19.689c0.427-0.77,0.419-1.709-0.028-2.471
		l18.598-18.597c8.021,7.993,19.084,12.935,31.303,12.935c22.889,0,41.723-17.34,44.093-39.6h28.432
		C683.078,563.084,676.055,579.526,663.212,592.371z M662.566,490.879c0.393,0.231,0.834,0.348,1.275,0.348
		c0.326,0,0.652-0.064,0.959-0.193c12.244,13.035,18.802,29.457,19.646,46.128h-28.516c-1.026-10.472-5.693-19.876-12.72-26.928
		L662.566,490.879z M661.526,487.76c-0.303,0.721-0.247,1.55,0.155,2.234l-19.374,19.374c-3.973-3.769-8.639-6.809-13.792-8.909
		c0-8.906,0-19.208,0.001-30.47C640.523,472.827,651.94,478.756,661.526,487.76z M912.447,323.229
		c18.464,0,33.432-14.968,33.432-33.432c0-13.006-7.432-24.27-18.277-29.797v-15.319c6.542,2.411,12.412,6.211,17.249,11.047
		c8.641,8.642,13.982,20.57,13.983,33.756c-0.001,13.189-5.342,25.119-13.983,33.761c-7.95,7.949-18.687,13.093-30.623,13.868
		c-0.406-1.359-1.65-2.356-3.141-2.356c-1.491,0-2.735,0.997-3.141,2.355c-11.93-0.777-22.663-5.92-30.611-13.868
		c-5.691-5.692-9.937-12.818-12.182-20.784h16.353C886.497,314.645,898.466,323.229,912.447,323.229z M866.156,273.347
		c2.403-6.69,6.251-12.69,11.179-17.618c5.781-5.779,13.037-10.071,21.152-12.287v15.979c-6.391,2.942-11.692,7.838-15.141,13.926
		H866.156z M843.307,221.702c14.549-14.548,33.749-24.436,55.18-27.25v47.279c-15.946,4.197-28.728,16.169-34.069,31.617h-47.827
		C819.982,253.342,829.563,235.446,843.307,221.702z M863.441,302.462c5.429,19.985,23.079,34.922,44.433,36.297
		c0.266,1.211,1.198,2.162,2.393,2.47v13.864h-69.064c-13.311-14.176-22.355-32.398-25.093-52.631H863.441z M910.267,359.137v23.858
		c-1.135,0.293-2.025,1.17-2.339,2.297c-24.261-0.786-46.236-10.58-62.699-26.155H910.267z M756.628,20.882
		c0.655,0.925,1.286,1.865,1.892,2.82c-0.638,0.258-1.268,0.53-1.892,0.813V20.882z M756.628,152.833
		c13.554-8.398,24.153-19.759,31.795-32.796c2.266-0.5,4.478-1.142,6.619-1.935v155.245h-38.413V152.833z M628.52,235.269
		c1.536-34.121,25.053-67.128,70.552-67.2v0.006c21.021,0,38.854-4.778,53.512-12.878v118.151h-85.803v-24.262h-31.819v77.64h31.819
		v-24.262h147.666c2.678,20.134,11.491,38.327,24.506,52.631H628.517C628.518,291.44,628.519,235.29,628.52,235.269z
		 M961.206,397.55h-332.69c0-12.807,0-25.737,0.001-38.414h214.341c16.877,16.537,39.736,26.986,65.033,27.801
		c0.346,1.448,1.641,2.528,3.195,2.528c1.554,0,2.848-1.08,3.195-2.528c20.506-0.66,39.409-7.646,54.824-19.073
		C965.204,377.18,962.541,387.164,961.206,397.55z M970.472,364.747c-15.559,12.293-35.019,19.858-56.227,20.545
		c-0.313-1.124-1.2-2.001-2.332-2.295v-23.86h61.315C972.257,360.975,971.339,362.846,970.472,364.747z M987.472,338.598
		c-4.534,5.069-8.538,10.598-11.991,16.495h-63.568v-13.866c1.191-0.31,2.121-1.26,2.386-2.468
		c25.783-1.655,46.18-23.073,46.181-49.274c0-21.483-13.721-39.753-32.878-46.546v-47.89c19.858,3.447,37.617,12.996,51.276,26.653
		c17.349,17.348,28.076,41.307,28.076,67.78c0,13.54-2.811,26.419-7.872,38.095C994.949,330.901,991.071,334.574,987.472,338.598z"
		/>
	<path fill="#3C314B" d="M1504.489,62.834c-6.384,6.385-10.33,15.201-10.331,24.946c0,9.743,3.947,18.557,10.331,24.942
		c6.385,6.384,15.199,10.33,24.942,10.331c1.322,0,2.626-0.079,3.91-0.221v-4.181c-1.282,0.161-2.586,0.253-3.913,0.253
		c-17.185,0-31.122-13.937-31.122-31.122c0-17.195,13.937-31.121,31.122-31.121c1.326,0,2.63,0.092,3.913,0.253v-4.191
		c-1.284-0.142-2.588-0.22-3.91-0.221C1519.688,52.503,1510.874,56.449,1504.489,62.834z"/>
	<path fill="#3C314B" d="M1522.208,4.001v6.96c-3.97,0.369-7.854,1.034-11.626,1.981l-2.457-6.287
		c-0.329-0.842-1.135-1.357-1.987-1.357c-0.258,0-0.521,0.047-0.776,0.147l-11.856,4.633c-1.097,0.429-1.639,1.666-1.21,2.764
		l2.366,6.054c-4.517,2.284-8.776,4.999-12.728,8.092l-4.458-4.457c-0.417-0.417-0.963-0.625-1.509-0.625s-1.092,0.208-1.508,0.625
		l-9.001,9c-0.833,0.833-0.833,2.184,0,3.017l4.305,4.305c-2.555,3.113-4.859,6.437-6.908,9.93l-5.479-2.4
		c-0.278-0.122-0.569-0.18-0.855-0.18c-0.822,0-1.605,0.477-1.955,1.278l-5.107,11.66c-0.473,1.079,0.019,2.337,1.098,2.81
		l5.361,2.348c-1.533,4.807-2.607,9.817-3.173,14.982h-5.817c-1.178,0-2.133,0.955-2.133,2.133v12.729
		c0,1.178,0.955,2.134,2.133,2.134h5.815c0.448,4.091,1.223,8.082,2.285,11.955l-5.446,2.129c-1.097,0.428-1.639,1.666-1.21,2.763
		l4.634,11.856c0.329,0.842,1.135,1.357,1.987,1.357c0.258,0,0.521-0.047,0.776-0.147l5.537-2.164
		c2.404,4.51,5.237,8.757,8.455,12.677l-4.303,4.303c-0.83,0.83-0.83,2.181,0,3.011l9.002,9.002c0.415,0.415,0.96,0.623,1.506,0.623
		s1.091-0.208,1.506-0.623l4.448-4.437l0.012-0.012c3.138,2.455,6.466,4.676,9.966,6.629l-2.588,5.909
		c-0.473,1.079,0.019,2.337,1.098,2.81l11.659,5.107c0.278,0.122,0.569,0.18,0.855,0.18c0.822,0,1.604-0.477,1.955-1.278
		l2.691-6.144c4.709,1.389,9.602,2.345,14.639,2.813v6.96c0,1.178,0.955,2.133,2.134,2.133h9v-13.972
		c-1.296,0.069-2.599,0.109-3.912,0.109c-39.79,0-72.043-32.253-72.043-72.043c0-39.799,32.253-72.052,72.043-72.053
		c1.313,0,2.617,0.04,3.912,0.109V1.867h-9C1523.163,1.867,1522.208,2.823,1522.208,4.001z"/>
	<path fill="#3C314B" d="M35.128,153.091l24.759-24.759c-14.05-13.813-32.329-20.728-50.622-20.729c-3.096,0-6.19,0.216-9.266,0.612
		v35.58c3.033-0.776,6.142-1.172,9.254-1.172C18.585,142.623,27.917,146.113,35.128,153.091z"/>
	<rect x="268.158" y="521.228" fill="#3C314B" width="36.816" height="108.396"/>
	<polygon fill="#3C314B" points="842.26,74.571 826.085,111.99 842.26,149.414 826.432,186.036 830.144,187.64 846.666,149.414 
		830.49,111.99 846.666,74.571 830.49,37.151 846.55,0 842.145,0 826.085,37.151 	"/>
	<path fill="#3C314B" d="M1067.067,292.507c14.047,0,28.088-5.357,38.806-16.074c21.432-21.432,21.432-56.179,0-77.611
		c-10.716-10.716-24.76-16.074-38.805-16.074s-28.09,5.358-38.806,16.074c-21.432,21.431-21.432,56.179,0,77.611
		C1038.977,287.148,1053.024,292.507,1067.067,292.507z"/>
	<polygon fill="#3C314B" points="866.523,74.571 850.348,111.99 866.523,149.414 850.694,186.036 854.406,187.64 870.928,149.414 
		854.753,111.99 870.928,74.571 854.753,37.151 870.812,0 866.407,0 850.348,37.151 	"/>
	<path fill="#3C314B" d="M60.332,230.9c14.107-14.107,21.157-32.587,21.159-51.072c0-18.293-6.915-36.573-20.726-50.619
		l-24.76,24.759c14.092,14.563,13.956,37.784-0.431,52.171c-7.263,7.263-16.78,10.893-26.297,10.893
		c-3.12,0-6.237-0.399-9.278-1.179v35.589c3.075,0.396,6.169,0.611,9.266,0.611C27.75,252.053,46.228,245.004,60.332,230.9z"/>
	<path fill="#3C314B" d="M34.698,205.262c7.026-7.026,10.536-16.228,10.538-25.435c0-9.207-3.51-18.408-10.534-25.432
		c-7.026-7.026-16.228-10.536-25.435-10.537c-3.118,0-6.233,0.413-9.266,1.218v4.403c3.016-0.918,6.14-1.383,9.266-1.383
		c8.12,0,16.24,3.099,22.439,9.298c12.39,12.39,12.398,32.48,0,44.878c-6.194,6.194-14.318,9.292-22.438,9.292
		c-3.126,0-6.25-0.464-9.266-1.381v4.394c3.032,0.805,6.148,1.218,9.266,1.218C18.472,215.796,27.673,212.286,34.698,205.262z"/>
	<path fill="#3C314B" d="M831.259,480.82c2.766,0,5.269-1.12,7.082-2.933c1.813-1.813,2.933-4.315,2.933-7.08
		c0-2.767-1.12-5.269-2.933-7.082c-1.813-1.813-4.315-2.933-7.082-2.933c-2.766,0-5.268,1.12-7.08,2.933
		c-1.812,1.813-2.933,4.315-2.933,7.082c0,2.766,1.121,5.268,2.933,7.08C825.991,479.699,828.493,480.82,831.259,480.82z
		 M831.258,461.973c4.881,0,8.835,3.953,8.835,8.835c0,4.878-3.954,8.835-8.835,8.835c-4.878,0-8.835-3.956-8.835-8.835
		C822.424,465.926,826.38,461.973,831.258,461.973z"/>
	<path fill="#3C314B" d="M584.231,11.799c-0.606,0-1.211,0.23-1.674,0.694c-0.863,0.862-0.917,2.215-0.184,3.151
		c-25.953,27.716-25.423,71.215,1.626,98.264c13.803,13.803,31.888,20.702,49.972,20.702c17.374,0,34.746-6.366,48.326-19.096
		c0.387,0.241,0.827,0.363,1.268,0.363c0.609,0,1.217-0.231,1.682-0.696c0.801-0.801,0.909-2.028,0.334-2.949
		c25.985-27.721,25.464-71.24-1.6-98.304C678.066,8.015,671.363,3.379,664.214,0h-2.929c7.935,3.385,15.375,8.297,21.85,14.772
		c13.575,13.576,20.36,31.36,20.361,49.149c0,17.08-6.273,34.143-18.786,47.493c-0.359-0.199-0.758-0.299-1.156-0.299
		c-0.415,0-0.83,0.109-1.201,0.326l-21.415-21.415c0.452-0.769,0.441-1.733-0.042-2.488c12.37-14.067,11.847-35.505-1.586-48.938
		c-6.989-6.989-16.148-10.482-25.306-10.483c-8.441,0-16.882,2.967-23.629,8.9c-0.388-0.248-0.831-0.372-1.275-0.372
		c-0.42,0-0.841,0.111-1.215,0.331l-21.589-21.589c0.384-0.653,0.437-1.444,0.148-2.132c6.1-5.729,12.981-10.139,20.282-13.256
		h-2.89c-6.494,3.065-12.625,7.156-18.128,12.309C585.275,11.97,584.752,11.799,584.231,11.799z M607.961,41.118
		c0.356,0.193,0.751,0.289,1.145,0.289c0.606,0,1.21-0.229,1.673-0.692c0.764-0.765,0.891-1.914,0.402-2.819
		c6.517-5.722,14.659-8.589,22.81-8.59c8.86,0,17.714,3.378,24.475,10.137c6.761,6.762,10.139,15.616,10.14,24.477
		c-0.001,8.151-2.868,16.293-8.59,22.81c-0.357-0.193-0.751-0.29-1.145-0.29c-0.606,0-1.21,0.229-1.673,0.692
		c-0.764,0.764-0.891,1.913-0.403,2.818c-6.514,5.718-14.654,8.584-22.804,8.584c-8.86-0.001-17.715-3.38-24.477-10.141
		c-6.76-6.76-10.137-15.615-10.138-24.474C599.378,55.773,602.243,47.633,607.961,41.118z M607.041,37.821
		c-0.453,0.77-0.443,1.735,0.041,2.491c-12.364,14.064-11.839,35.499,1.59,48.928c6.991,6.991,16.152,10.486,25.312,10.486
		c8.438,0,16.876-2.965,23.62-8.893c0.388,0.249,0.832,0.372,1.276,0.372c0.421,0,0.843-0.111,1.217-0.332l21.413,21.413
		c-0.429,0.727-0.437,1.626-0.029,2.362c-13.347,12.51-30.409,18.781-47.487,18.781c-17.789-0.002-35.573-6.787-49.149-20.362
		c-13.572-13.573-20.356-31.355-20.356-49.143c0.001-17.101,6.29-34.186,18.834-47.542c0.292,0.123,0.604,0.184,0.915,0.184
		c0.421,0,0.842-0.111,1.217-0.332L607.041,37.821z"/>
	<path fill="#3C314B" d="M855.404,468.394h-2.373c-0.118-1.072-0.31-2.12-0.577-3.14l2.197-0.859
		c0.311-0.122,0.465-0.473,0.344-0.784l-1.315-3.366c-0.093-0.239-0.322-0.385-0.564-0.385c-0.073,0-0.148,0.013-0.22,0.042
		l-2.174,0.85c-0.629-1.214-1.367-2.362-2.203-3.43l1.627-1.627c0.236-0.237,0.236-0.62,0-0.857l-2.555-2.555
		c-0.118-0.118-0.273-0.177-0.428-0.177c-0.155,0-0.31,0.059-0.428,0.177l-1.583,1.583c-0.836-0.686-1.724-1.31-2.656-1.868
		l0.002-0.004l0.879-2.009c0.133-0.305-0.006-0.662-0.311-0.797l-3.311-1.45c-0.079-0.034-0.161-0.05-0.242-0.05
		c-0.234,0-0.456,0.135-0.555,0.365l-0.849,1.936l-0.003,0.007c-1.306-0.429-2.666-0.738-4.068-0.915v-2.058
		c0-0.334-0.271-0.606-0.606-0.606h-3.613c-0.335,0-0.606,0.271-0.606,0.606v1.976c-1.127,0.105-2.229,0.293-3.3,0.562l-0.698-1.785
		c-0.093-0.239-0.322-0.385-0.564-0.385c-0.073,0-0.148,0.013-0.221,0.042l-3.366,1.315c-0.311,0.122-0.465,0.473-0.344,0.785
		l0.672,1.719c-1.282,0.648-2.492,1.419-3.613,2.297l-1.265-1.265c-0.118-0.118-0.273-0.177-0.428-0.177
		c-0.155,0-0.31,0.059-0.428,0.177l-2.555,2.555c-0.237,0.237-0.237,0.62,0,0.857l1.222,1.222c-0.725,0.884-1.379,1.827-1.961,2.819
		l-1.555-0.681c-0.079-0.035-0.161-0.051-0.242-0.051c-0.233,0-0.456,0.135-0.555,0.363l-1.45,3.31
		c-0.134,0.306,0.006,0.663,0.312,0.798l1.522,0.667c-0.435,1.364-0.74,2.787-0.901,4.253h-1.651c-0.334,0-0.605,0.271-0.605,0.605
		v3.614c0,0.334,0.271,0.605,0.605,0.605h1.651c0.127,1.162,0.347,2.294,0.649,3.394l-1.546,0.604
		c-0.311,0.122-0.465,0.473-0.343,0.784l1.315,3.366c0.094,0.239,0.322,0.385,0.564,0.385c0.073,0,0.148-0.013,0.22-0.042
		l1.572-0.614c0.683,1.28,1.487,2.486,2.4,3.599l-1.221,1.221c-0.236,0.236-0.236,0.619,0,0.855l2.556,2.556
		c0.118,0.118,0.272,0.177,0.427,0.177c0.155,0,0.31-0.059,0.427-0.177l1.263-1.26l0.003-0.003c0.891,0.697,1.836,1.328,2.829,1.882
		l-0.735,1.678c-0.134,0.306,0.006,0.663,0.312,0.798l3.31,1.45c0.079,0.035,0.162,0.051,0.243,0.051
		c0.233,0,0.455-0.135,0.555-0.363l0.764-1.744c1.337,0.394,2.726,0.666,4.156,0.799v1.976c0,0.334,0.271,0.606,0.606,0.606h3.613
		c0.334,0,0.606-0.271,0.606-0.606v-2.058c1.104-0.14,2.183-0.361,3.23-0.659l0.767,1.964c0.094,0.239,0.322,0.385,0.564,0.385
		c0.073,0,0.148-0.013,0.22-0.042l3.366-1.315c0.311-0.122,0.465-0.473,0.343-0.784l-0.793-2.029
		c1.213-0.661,2.356-1.434,3.417-2.305l1.583,1.583c0.118,0.118,0.273,0.177,0.428,0.177c0.155,0,0.31-0.059,0.428-0.177
		l2.555-2.555c0.236-0.236,0.236-0.62,0-0.856l-1.627-1.627c0.659-0.842,1.257-1.733,1.789-2.667l2.132,0.934
		c0.079,0.035,0.162,0.051,0.243,0.051c0.233,0,0.456-0.135,0.555-0.363l1.45-3.31c0.134-0.306-0.005-0.663-0.312-0.798
		l-2.157-0.944c0.389-1.279,0.664-2.608,0.814-3.975h2.373c0.335,0,0.606-0.271,0.606-0.605v-3.614
		C856.009,468.665,855.738,468.394,855.404,468.394z M831.258,491.259c-11.296,0-20.452-9.156-20.452-20.452
		c0-11.298,9.156-20.454,20.452-20.454c11.298,0,20.454,9.156,20.454,20.454C851.713,482.103,842.557,491.259,831.258,491.259z"/>
	<path fill="#3C314B" d="M831.258,450.698c-5.553,0-10.578,2.25-14.217,5.889c-3.601,3.601-5.838,8.562-5.885,14.047h9.748
		c0.092-5.643,4.691-10.188,10.354-10.188c5.665,0,10.263,4.545,10.355,10.187h9.749c-0.047-5.485-2.284-10.445-5.885-14.046
		C841.839,452.948,836.813,450.698,831.258,450.698z"/>
	<circle fill="#3C314B" cx="1049.318" cy="93.697" r="10.244"/>
	<rect x="1207.592" y="15.617" fill="#3C314B" width="119.554" height="77.061"/>
	<circle fill="#3C314B" cx="1049.318" cy="33.31" r="10.244"/>
	<rect x="1207.592" y="107.18" fill="#3C314B" width="119.554" height="50.354"/>
</g>
</svg>
