<?xml version="1.0" encoding="utf-8"?>
<!-- Generator: Adobe Illustrator 17.0.0, SVG Export Plug-In . SVG Version: 6.00 Build 0)  -->
<!DOCTYPE svg PUBLIC "-//W3C//DTD SVG 1.1//EN" "http://www.w3.org/Graphics/SVG/1.1/DTD/svg11.dtd">
<svg version="1.1" id="Layer_1" xmlns="http://www.w3.org/2000/svg" xmlns:xlink="http://www.w3.org/1999/xlink" x="0px" y="0px"
	 width="325.991px" height="335.892px" viewBox="0 0 325.991 335.892" enable-background="new 0 0 325.991 335.892"
	 xml:space="preserve">
<path fill="#010101" d="M4.047,189.019h15.863c0.785,7.162,2.074,14.17,3.853,20.982l-14.68,5.737
	c-2.082,0.814-3.11,3.161-2.296,5.243l8.791,22.494c0.813,2.082,3.161,3.11,5.243,2.296l14.53-5.678
	c4.201,8.115,9.136,15.783,14.723,22.923l-10.873,10.873c-1.581,1.581-1.581,4.143,0,5.724l17.077,17.076
	c1.58,1.581,4.143,1.581,5.724,0l10.583-10.583c5.585,4.584,11.521,8.754,17.752,12.483l-0.011,0.025l-5.875,13.426
	c-0.888,2.039,0.04,4.422,2.079,5.33l22.127,9.691c2.059,0.888,4.442-0.04,5.33-2.1l5.673-12.941l0.02-0.046
	c8.731,2.869,17.821,4.929,27.191,6.114v13.756c0,2.235,1.812,4.047,4.048,4.047h24.15c2.235,0,4.048-1.812,4.048-4.047v-13.206
	c7.533-0.699,14.9-1.961,22.058-3.758l4.662,11.928c0.814,2.082,3.161,3.11,5.243,2.296l22.493-8.791
	c2.082-0.814,3.11-3.161,2.297-5.243l-4.489-11.486c8.57-4.334,16.65-9.484,24.149-15.352l8.457,8.457
	c1.581,1.581,4.143,1.581,5.724,0l17.077-17.076c1.581-1.581,1.581-4.143,0-5.724l-8.169-8.169
	c4.848-5.906,9.218-12.213,13.107-18.839l10.395,4.553c2.048,0.897,4.435-0.036,5.331-2.083l9.689-22.121
	c0.897-2.048-0.036-4.435-2.084-5.332l-10.172-4.455c2.91-9.12,4.947-18.625,6.021-28.425h11.036c2.235,0,4.047-1.812,4.047-4.047
	v-24.15c0-2.236-1.812-4.048-4.047-4.048H310.91c-0.85-7.762-2.319-15.333-4.334-22.681l10.332-4.038
	c2.082-0.813,3.11-3.161,2.296-5.243l-8.791-22.494c-0.814-2.082-3.161-3.11-5.243-2.296l-10.505,4.105
	c-4.562-8.557-9.935-16.614-16.041-24.053l8.164-8.164c1.575-1.575,1.575-4.139,0-5.713l-17.08-17.08
	c-1.575-1.575-4.139-1.575-5.714,0l-8.439,8.419l-0.024,0.024c-5.954-4.658-12.267-8.872-18.909-12.578l4.911-11.211
	c0.897-2.048-0.036-4.435-2.084-5.332l-22.121-9.689c-2.048-0.897-4.435,0.036-5.331,2.083l-5.106,11.657
	c-8.934-2.635-18.217-4.45-27.773-5.337V13.948c0-2.235-1.812-4.047-4.048-4.047h-24.15c-2.235,0-4.048,1.812-4.048,4.047v13.756
	c-7.384,0.933-14.592,2.413-21.591,4.404l-5.129-13.124c-0.814-2.082-3.161-3.11-5.243-2.296l-22.493,8.791
	c-2.082,0.813-3.11,3.161-2.296,5.243l5.299,13.559c-8.107,4.421-15.748,9.587-22.834,15.404L62.003,49.102
	c-1.581-1.581-4.143-1.581-5.724,0L39.202,66.179c-1.581,1.581-1.581,4.143,0,5.724l10.871,10.871
	c-4.403,5.626-8.401,11.58-11.955,17.824l-14.249-6.241c-2.047-0.897-4.435,0.036-5.331,2.084l-9.689,22.121
	c-0.897,2.048,0.036,4.435,2.084,5.331l14.414,6.313c-2.602,8.55-4.437,17.431-5.438,26.566H4.047c-2.236,0-4.047,1.812-4.047,4.048
	v24.15C0,187.207,1.812,189.019,4.047,189.019"/>
<path fill="#FFFFFF" d="M4.047,179.118h15.863c0.785,7.162,2.074,14.17,3.853,20.982l-14.68,5.737
	c-2.082,0.814-3.11,3.161-2.296,5.243l8.791,22.494c0.813,2.082,3.161,3.11,5.243,2.296l14.53-5.678
	c4.201,8.115,9.136,15.783,14.723,22.923l-10.873,10.873c-1.581,1.581-1.581,4.143,0,5.724l17.077,17.076
	c1.58,1.581,4.143,1.581,5.724,0l10.583-10.583c5.585,4.584,11.521,8.754,17.752,12.483l-0.011,0.025l-5.875,13.426
	c-0.888,2.039,0.04,4.422,2.079,5.33l22.127,9.691c2.059,0.888,4.442-0.04,5.33-2.1l5.673-12.941l0.02-0.046
	c8.731,2.869,17.821,4.929,27.191,6.114v13.756c0,2.235,1.812,4.047,4.048,4.047h24.15c2.235,0,4.048-1.812,4.048-4.047v-13.206
	c7.533-0.699,14.9-1.961,22.058-3.758l4.662,11.928c0.814,2.082,3.161,3.11,5.243,2.296l22.493-8.791
	c2.082-0.814,3.11-3.161,2.297-5.243l-4.489-11.486c8.57-4.334,16.65-9.484,24.149-15.352l8.457,8.457
	c1.581,1.581,4.143,1.581,5.724,0l17.077-17.076c1.581-1.581,1.581-4.143,0-5.724l-8.169-8.169
	c4.848-5.906,9.218-12.213,13.107-18.839l10.395,4.553c2.048,0.897,4.435-0.036,5.331-2.083l9.689-22.121
	c0.897-2.048-0.036-4.435-2.084-5.332l-10.172-4.455c2.91-9.12,4.947-18.625,6.021-28.425h11.036c2.235,0,4.047-1.812,4.047-4.047
	v-24.15c0-2.236-1.812-4.048-4.047-4.048H310.91c-0.85-7.762-2.319-15.333-4.334-22.682l10.332-4.038
	c2.082-0.813,3.11-3.161,2.296-5.243l-8.791-22.494c-0.814-2.082-3.161-3.11-5.243-2.296l-10.505,4.105
	c-4.562-8.557-9.935-16.614-16.041-24.052l8.164-8.164c1.575-1.575,1.575-4.139,0-5.713l-17.08-17.08
	c-1.575-1.575-4.139-1.575-5.714,0l-8.439,8.419l-0.024,0.024c-5.954-4.658-12.267-8.872-18.909-12.578l4.911-11.211
	c0.897-2.048-0.036-4.435-2.084-5.332l-22.121-9.689c-2.048-0.897-4.435,0.036-5.331,2.083l-5.106,11.657
	c-8.934-2.635-18.217-4.45-27.773-5.337V4.048c0-2.235-1.812-4.047-4.048-4.047h-24.15c-2.235,0-4.048,1.812-4.048,4.047v13.756
	c-7.384,0.933-14.592,2.413-21.591,4.404l-5.129-13.124c-0.814-2.082-3.161-3.11-5.243-2.296l-22.493,8.791
	c-2.082,0.813-3.11,3.161-2.296,5.243l5.299,13.559c-8.107,4.421-15.748,9.587-22.834,15.404L62.003,39.202
	c-1.581-1.581-4.143-1.581-5.724,0L39.202,56.279c-1.581,1.581-1.581,4.143,0,5.724l10.871,10.871
	c-4.403,5.626-8.401,11.58-11.955,17.824l-14.249-6.241c-2.047-0.897-4.435,0.036-5.331,2.084l-9.689,22.121
	c-0.897,2.048,0.036,4.435,2.084,5.331l14.414,6.313c-2.602,8.55-4.437,17.432-5.438,26.566H4.047c-2.236,0-4.047,1.812-4.047,4.048
	v24.15C0,177.306,1.812,179.118,4.047,179.118"/>
<path fill="#E6E5E4" d="M234.596,301.908L234.596,301.908l1.275,3.262c0.759,1.943-0.085,4.116-1.892,5.059l0,0
	c1.807-0.944,2.651-3.117,1.892-5.059L234.596,301.908 M311.399,210.395l3.66,1.603c0.215,0.094,0.417,0.205,0.607,0.329
	c-0.189-0.125-0.392-0.235-0.607-0.329L311.399,210.395 M308.753,133.241L308.753,133.241c0.927,4.472,1.651,9.018,2.157,13.632
	h11.034c0,0,0,0,0,0H310.91C310.405,142.259,309.681,137.713,308.753,133.241 M319.204,114.91L319.204,114.91
	c0.662,1.694,0.105,3.564-1.248,4.64C319.309,118.475,319.866,116.604,319.204,114.91L319.204,114.91 M306.642,89.842
	c-0.49,0-0.988,0.089-1.472,0.278l-5.252,2.053l5.252-2.053C305.654,89.931,306.152,89.842,306.642,89.842
	c0.443,0,0.878,0.073,1.291,0.212C307.52,89.915,307.084,89.842,306.642,89.842 M282.966,75.732L282.966,75.732
	c2.351,3.166,4.577,6.431,6.671,9.787C287.543,82.164,285.317,78.898,282.966,75.732 M287.97,59.152
	c0,0.517-0.098,1.035-0.295,1.521C287.871,60.187,287.97,59.67,287.97,59.152 M255.566,47.625l-0.01,0.01l-0.024,0.024c0,0,0,0,0,0
	l0.024-0.024L255.566,47.625 M242.612,38.613c3.159,1.967,6.236,4.052,9.229,6.248C248.848,42.666,245.771,40.581,242.612,38.613
	 M240.912,19.624c0.676,0.796,1.023,1.834,0.955,2.885C241.935,21.458,241.587,20.42,240.912,19.624 M175.071,0h-13.396H175.071
	c2.235,0,4.048,1.812,4.048,4.048v13.205c9.556,0.887,18.839,2.702,27.773,5.337l5.106-11.657c0.39-0.89,1.061-1.569,1.864-1.98
	c-0.803,0.41-1.474,1.089-1.864,1.979l-5.106,11.658c-8.934-2.635-18.217-4.45-27.773-5.337V4.047
	C179.118,1.812,177.306,0,175.071,0"/>
<path fill="#010101" d="M233.979,310.23c-0.13,0.068-0.265,0.129-0.405,0.184l-11.247,4.395l11.247-4.395
	C233.714,310.359,233.849,310.298,233.979,310.23L233.979,310.23 M181.543,308.493c-0.806,0.088-1.614,0.17-2.425,0.245
	C179.928,308.663,180.736,308.582,181.543,308.493 M201.176,304.98L201.176,304.98l4.661,11.928c0.407,1.042,1.199,1.82,2.15,2.236
	c-0.95-0.415-1.742-1.193-2.15-2.235L201.176,304.98 M231.382,293.684L231.382,293.684l3.214,8.224l0,0L231.382,293.684
	 M278.621,255.82L278.621,255.82l4.084,4.084L278.621,255.82 M314.191,224.067l-6.738,15.384c-0.351,0.802-0.931,1.433-1.63,1.85
	c0.699-0.417,1.279-1.048,1.63-1.85L314.191,224.067 M307.808,197.038c-0.846,3.554-1.821,7.056-2.921,10.505l0,0
	C305.987,204.095,306.962,200.592,307.808,197.038 M325.991,175.071c0,1.64-0.975,3.052-2.378,3.688
	C325.016,178.123,325.991,176.711,325.991,175.071L325.991,175.071 M311.742,122.172l-5.166,2.019
	c0.817,2.98,1.545,5.998,2.178,9.049l0,0c-0.633-3.052-1.36-6.069-2.178-9.049L311.742,122.172 M278.625,70.173L278.625,70.173
	c1.491,1.816,2.939,3.67,4.341,5.559l0,0C281.563,73.843,280.116,71.99,278.625,70.173"/>
<path fill="#E5E4E4" d="M175.071,0h-13.396v325.991h13.396c2.235,0,4.048-1.812,4.048-4.047v-13.206l0,0l0,0
	c0.81-0.075,1.618-0.157,2.425-0.245c6.691-0.732,13.246-1.909,19.634-3.513l0,0c0,0,0,0,0,0l4.662,11.928
	c0.407,1.042,1.199,1.82,2.15,2.235c0.507,0.221,1.058,0.339,1.621,0.339c0.49,0,0.989-0.09,1.473-0.279l11.247-4.395l11.247-4.395
	c0.14-0.055,0.275-0.116,0.405-0.184c1.807-0.943,2.651-3.117,1.892-5.059l-1.275-3.262l-3.214-8.224l0,0
	c8.57-4.334,16.65-9.484,24.149-15.352l8.457,8.457c0.79,0.79,1.826,1.186,2.862,1.186s2.072-0.395,2.862-1.186l17.077-17.077
	c1.581-1.581,1.581-4.143,0-5.724l-4.084-4.084l-4.084-4.084l0,0v0c4.848-5.906,9.218-12.213,13.107-18.839l10.395,4.553
	c0.528,0.231,1.08,0.341,1.622,0.341c0.736,0,1.455-0.202,2.08-0.574c0.699-0.417,1.279-1.048,1.63-1.85l6.738-15.384l2.951-6.738
	c0.803-1.833,0.14-3.937-1.477-5.002c-0.189-0.125-0.392-0.235-0.607-0.329l-3.66-1.603l-6.512-2.852l0,0v0
	c1.1-3.448,2.075-6.951,2.921-10.505c1.391-5.845,2.432-11.826,3.1-17.92h11.036c0.595,0,1.161-0.129,1.67-0.359
	c1.402-0.636,2.378-2.048,2.378-3.688l0,0v-24.15c0-2.235-1.812-4.048-4.048-4.048H310.91c-0.505-4.614-1.229-9.16-2.157-13.632
	c-0.633-3.052-1.36-6.069-2.178-9.049l5.166-2.019l5.166-2.019c0.388-0.151,0.739-0.356,1.049-0.602
	c1.353-1.076,1.91-2.946,1.248-4.64l0,0l-8.791-22.494c-0.454-1.161-1.385-1.994-2.481-2.363c-0.412-0.139-0.848-0.212-1.29-0.212
	c-0.49,0-0.988,0.09-1.472,0.279l-5.252,2.053l-5.252,2.053c-1.58-2.964-3.257-5.867-5.029-8.707
	c-2.094-3.356-4.319-6.621-6.671-9.787c-1.402-1.889-2.85-3.743-4.341-5.559l0,0c0,0,0,0,0,0l8.164-8.164
	c0.394-0.394,0.689-0.849,0.886-1.335c0.197-0.486,0.295-1.004,0.295-1.521c0-0.986-0.358-1.972-1.073-2.744
	c-0.035-0.038-0.071-0.075-0.108-0.112l0,0l-17.08-17.08c-0.787-0.788-1.822-1.181-2.857-1.181c-1.035,0-2.069,0.394-2.857,1.181
	l-8.429,8.408l-0.01,0.01l-0.024,0.024l0,0h0c-1.215-0.951-2.446-1.884-3.691-2.797c-2.993-2.195-6.07-4.28-9.229-6.248
	c-1.965-1.224-3.961-2.402-5.988-3.533l4.911-11.211c0.194-0.444,0.303-0.903,0.333-1.36c0.068-1.052-0.279-2.089-0.955-2.885
	c-0.386-0.455-0.879-0.831-1.462-1.086l-22.121-9.689c-0.529-0.232-1.08-0.341-1.622-0.341c-0.645,0-1.278,0.155-1.845,0.445
	c-0.803,0.41-1.474,1.09-1.864,1.98l-5.106,11.657c-8.934-2.635-18.217-4.45-27.773-5.337V4.048C179.118,1.812,177.306,0,175.071,0"
	/>
<path fill="#2C3553" d="M244.039,144.382v-6.996h2.654c0.715,0,1.403,0.026,2.065,0.079s1.245,0.19,1.749,0.413
	s0.908,0.557,1.213,1.002s0.457,1.113,0.457,2.004c0,0.773-0.158,1.392-0.475,1.854s-0.729,0.814-1.239,1.055
	s-1.081,0.398-1.714,0.475s-1.266,0.114-1.898,0.114H244.039z M244.145,148.46h3.568c0.867,0,1.55,0.088,2.048,0.264
	s0.882,0.475,1.151,0.896s0.466,0.976,0.589,1.661s0.243,1.538,0.36,2.558c0.082,0.703,0.19,1.362,0.325,1.978
	s0.331,1.157,0.589,1.626s0.583,0.838,0.976,1.107s0.882,0.404,1.468,0.404c0.645,0,1.172-0.085,1.582-0.255
	s0.732-0.407,0.967-0.712s0.398-0.668,0.492-1.09s0.141-0.885,0.141-1.389c0-0.234-0.006-0.472-0.018-0.712
	s-0.029-0.489-0.053-0.747c-0.082-0.926-0.17-1.755-0.264-2.487s-0.217-1.386-0.369-1.96s-0.346-1.072-0.58-1.494
	s-0.539-0.782-0.914-1.081s-0.829-0.539-1.362-0.721s-1.175-0.319-1.925-0.413v-0.07c1.043-0.176,1.925-0.448,2.646-0.817
	s1.304-0.814,1.749-1.336s0.768-1.107,0.967-1.758s0.299-1.339,0.299-2.065c0-1.336-0.272-2.42-0.817-3.252s-1.271-1.482-2.18-1.951
	s-1.96-0.788-3.155-0.958s-2.443-0.255-3.744-0.255h-7.049c-0.539,0-1.052,0.067-1.538,0.202s-0.911,0.337-1.274,0.606
	s-0.653,0.606-0.87,1.011s-0.325,0.876-0.325,1.415v18.879c0,0.48,0.085,0.929,0.255,1.345s0.401,0.779,0.694,1.09
	s0.636,0.554,1.028,0.729s0.817,0.264,1.274,0.264s0.882-0.088,1.274-0.264s0.738-0.419,1.037-0.729s0.533-0.674,0.703-1.09
	s0.255-0.864,0.255-1.345V148.46z M231.049,158.972c0.316,0,0.612-0.059,0.888-0.176s0.519-0.278,0.729-0.483
	s0.375-0.445,0.492-0.721s0.176-0.571,0.176-0.888s-0.059-0.612-0.176-0.888s-0.281-0.519-0.492-0.729s-0.454-0.375-0.729-0.492
	s-0.571-0.176-0.888-0.176h-9.492v-6.152h8.262c0.34,0,0.659-0.059,0.958-0.176s0.56-0.278,0.782-0.483s0.398-0.445,0.527-0.721
	s0.193-0.571,0.193-0.888s-0.064-0.612-0.193-0.888s-0.305-0.519-0.527-0.729s-0.483-0.375-0.782-0.492s-0.618-0.176-0.958-0.176
	h-8.262v-5.695h9.053c0.34,0,0.659-0.059,0.958-0.176s0.56-0.278,0.782-0.483s0.398-0.445,0.527-0.721s0.193-0.571,0.193-0.888
	s-0.064-0.615-0.193-0.896s-0.305-0.524-0.527-0.729s-0.483-0.369-0.782-0.492s-0.618-0.185-0.958-0.185h-11.285
	c-0.914,0-1.641,0.117-2.18,0.352s-0.949,0.557-1.23,0.967s-0.463,0.899-0.545,1.468s-0.123,1.187-0.123,1.854v16.752
	c0,0.492,0.053,0.984,0.158,1.477s0.281,0.935,0.527,1.327s0.571,0.712,0.976,0.958s0.905,0.369,1.503,0.369H231.049z
	 M200.621,143.644v-5.625h8.49c0.316,0,0.612-0.059,0.888-0.176s0.519-0.278,0.729-0.483s0.375-0.445,0.492-0.721
	s0.176-0.571,0.176-0.888s-0.059-0.615-0.176-0.896s-0.281-0.524-0.492-0.729s-0.454-0.369-0.729-0.492s-0.571-0.185-0.888-0.185
	h-10.898c-0.551,0-1.078,0.064-1.582,0.193s-0.943,0.325-1.318,0.589s-0.674,0.601-0.896,1.011s-0.334,0.896-0.334,1.459v18.844
	c0,0.48,0.085,0.929,0.255,1.345s0.401,0.779,0.694,1.09s0.636,0.554,1.028,0.729s0.817,0.264,1.274,0.264s0.882-0.088,1.274-0.264
	s0.738-0.419,1.037-0.729s0.533-0.674,0.703-1.09s0.255-0.864,0.255-1.345l0.018-7.348h7.945c0.316,0,0.612-0.059,0.888-0.176
	s0.519-0.278,0.729-0.483s0.375-0.445,0.492-0.721s0.176-0.571,0.176-0.888s-0.059-0.612-0.176-0.888s-0.281-0.519-0.492-0.729
	s-0.454-0.375-0.729-0.492s-0.571-0.176-0.888-0.176H200.621z M175.898,138.862c0.264-0.34,0.609-0.618,1.037-0.835
	s0.914-0.375,1.459-0.475s1.099-0.149,1.661-0.149c0.598,0,1.146,0.029,1.644,0.088s0.981,0.152,1.45,0.281s0.94,0.293,1.415,0.492
	s0.987,0.439,1.538,0.721c0.293,0.152,0.615,0.229,0.967,0.229c0.27,0,0.53-0.05,0.782-0.149s0.472-0.237,0.659-0.413
	s0.337-0.387,0.448-0.633s0.167-0.516,0.167-0.809c0-0.504-0.149-0.961-0.448-1.371s-0.694-0.776-1.187-1.099
	s-1.058-0.604-1.696-0.844s-1.304-0.437-1.995-0.589s-1.383-0.267-2.074-0.343s-1.33-0.114-1.916-0.114
	c-1.617,0-3.073,0.182-4.368,0.545s-2.396,0.879-3.305,1.547s-1.605,1.477-2.092,2.426s-0.729,2.01-0.729,3.182
	c0,0.891,0.114,1.673,0.343,2.347s0.583,1.274,1.063,1.802s1.102,1.002,1.863,1.424s1.676,0.826,2.742,1.213l1.652,0.58
	c0.141,0.047,0.264,0.091,0.369,0.132s0.214,0.082,0.325,0.123s0.237,0.082,0.378,0.123s0.311,0.085,0.51,0.132l0.914,0.264
	c0.164,0.047,0.316,0.097,0.457,0.149s0.287,0.103,0.439,0.149l0.791,0.281c0.363,0.129,0.709,0.278,1.037,0.448
	s0.615,0.369,0.861,0.598s0.439,0.495,0.58,0.8s0.211,0.65,0.211,1.037c0,0.516-0.117,0.955-0.352,1.318s-0.554,0.659-0.958,0.888
	s-0.873,0.398-1.406,0.51s-1.099,0.167-1.696,0.167c-1.102,0-2.156-0.146-3.164-0.439s-1.916-0.621-2.725-0.984
	c-0.246-0.094-0.478-0.199-0.694-0.316s-0.428-0.226-0.633-0.325s-0.407-0.185-0.606-0.255s-0.404-0.105-0.615-0.105
	c-0.234,0-0.472,0.07-0.712,0.211s-0.457,0.325-0.65,0.554s-0.352,0.483-0.475,0.765s-0.185,0.568-0.185,0.861
	c0,0.457,0.146,0.888,0.439,1.292s0.697,0.776,1.213,1.116s1.119,0.645,1.811,0.914s1.43,0.498,2.215,0.686s1.6,0.331,2.443,0.431
	s1.682,0.149,2.514,0.149c1.617,0,3.073-0.185,4.368-0.554s2.399-0.899,3.313-1.591s1.614-1.529,2.101-2.514
	s0.729-2.092,0.729-3.322c0-1.125-0.196-2.089-0.589-2.892s-0.949-1.497-1.67-2.083s-1.588-1.09-2.602-1.512
	s-2.142-0.82-3.384-1.195c-0.773-0.223-1.541-0.439-2.303-0.65s-1.444-0.457-2.048-0.738s-1.093-0.615-1.468-1.002
	s-0.562-0.861-0.562-1.424C175.502,139.618,175.634,139.202,175.898,138.862z M147.36,141.991l10.477,14.238
	c0.293,0.387,0.592,0.747,0.896,1.081s0.618,0.624,0.94,0.87s0.656,0.439,1.002,0.58s0.7,0.211,1.063,0.211
	c0.68,0,1.225-0.135,1.635-0.404s0.727-0.627,0.949-1.072s0.369-0.964,0.439-1.556s0.105-1.21,0.105-1.854v-17.895
	c0-0.387-0.073-0.747-0.22-1.081s-0.343-0.624-0.589-0.87s-0.536-0.442-0.87-0.589s-0.694-0.22-1.081-0.22s-0.747,0.073-1.081,0.22
	s-0.624,0.343-0.87,0.589s-0.439,0.536-0.58,0.87s-0.211,0.694-0.211,1.081v14.045l-10.371-14.062
	c-0.281-0.375-0.574-0.729-0.879-1.063s-0.621-0.624-0.949-0.87s-0.671-0.442-1.028-0.589s-0.724-0.22-1.099-0.22
	c-0.445,0-0.861,0.079-1.248,0.237s-0.724,0.39-1.011,0.694s-0.516,0.68-0.686,1.125s-0.255,0.955-0.255,1.529v19.195
	c0,0.387,0.07,0.747,0.211,1.081s0.334,0.624,0.58,0.87s0.536,0.442,0.87,0.589s0.694,0.22,1.081,0.22s0.747-0.073,1.081-0.22
	s0.627-0.343,0.879-0.589s0.451-0.536,0.598-0.87s0.22-0.694,0.22-1.081V141.991z M132.524,140.866
	c-0.527-1.383-1.008-2.549-1.441-3.498s-0.891-1.714-1.371-2.294s-1.02-0.996-1.617-1.248s-1.318-0.378-2.162-0.378
	c-0.902,0-1.67,0.161-2.303,0.483s-1.192,0.8-1.679,1.433s-0.932,1.409-1.336,2.329s-0.829,1.978-1.274,3.173l-4.729,12.779
	c-0.082,0.211-0.17,0.431-0.264,0.659s-0.182,0.46-0.264,0.694s-0.149,0.46-0.202,0.677s-0.079,0.413-0.079,0.589
	c0,0.434,0.079,0.817,0.237,1.151s0.372,0.615,0.642,0.844s0.583,0.404,0.94,0.527s0.735,0.185,1.134,0.185
	c0.457,0,0.855-0.062,1.195-0.185s0.642-0.322,0.905-0.598s0.504-0.642,0.721-1.099s0.431-1.02,0.642-1.688l0.721-2.232h9.949
	l0.844,2.232c0.246,0.656,0.478,1.21,0.694,1.661s0.454,0.817,0.712,1.099s0.551,0.486,0.879,0.615s0.721,0.193,1.178,0.193
	c0.398,0,0.776-0.062,1.134-0.185s0.671-0.299,0.94-0.527s0.483-0.51,0.642-0.844s0.237-0.718,0.237-1.151
	c0-0.176-0.026-0.372-0.079-0.589s-0.12-0.442-0.202-0.677s-0.17-0.466-0.264-0.694s-0.182-0.448-0.264-0.659L132.524,140.866z
	 M125.967,138.247l3.85,11.303h-7.805l3.867-11.303H125.967z M96.26,144.382v-6.996h2.654c0.715,0,1.403,0.026,2.065,0.079
	s1.245,0.19,1.749,0.413s0.908,0.557,1.213,1.002s0.457,1.113,0.457,2.004c0,0.773-0.158,1.392-0.475,1.854
	s-0.729,0.814-1.239,1.055s-1.081,0.398-1.714,0.475s-1.266,0.114-1.898,0.114H96.26z M96.366,148.46h3.568
	c0.867,0,1.55,0.088,2.048,0.264s0.882,0.475,1.151,0.896s0.466,0.976,0.589,1.661s0.243,1.538,0.36,2.558
	c0.082,0.703,0.19,1.362,0.325,1.978s0.331,1.157,0.589,1.626s0.583,0.838,0.976,1.107s0.882,0.404,1.468,0.404
	c0.645,0,1.172-0.085,1.582-0.255s0.732-0.407,0.967-0.712s0.398-0.668,0.492-1.09s0.141-0.885,0.141-1.389
	c0-0.234-0.006-0.472-0.018-0.712s-0.029-0.489-0.053-0.747c-0.082-0.926-0.17-1.755-0.264-2.487s-0.217-1.386-0.369-1.96
	s-0.346-1.072-0.58-1.494s-0.539-0.782-0.914-1.081s-0.829-0.539-1.362-0.721s-1.175-0.319-1.925-0.413v-0.07
	c1.043-0.176,1.925-0.448,2.646-0.817s1.304-0.814,1.749-1.336s0.768-1.107,0.967-1.758s0.299-1.339,0.299-2.065
	c0-1.336-0.272-2.42-0.817-3.252s-1.271-1.482-2.18-1.951s-1.96-0.788-3.155-0.958s-2.443-0.255-3.744-0.255h-7.049
	c-0.539,0-1.052,0.067-1.538,0.202s-0.911,0.337-1.274,0.606s-0.653,0.606-0.87,1.011s-0.325,0.876-0.325,1.415v18.879
	c0,0.48,0.085,0.929,0.255,1.345s0.401,0.779,0.694,1.09s0.636,0.554,1.028,0.729s0.817,0.264,1.274,0.264s0.882-0.088,1.274-0.264
	s0.738-0.419,1.037-0.729s0.533-0.674,0.703-1.09s0.255-0.864,0.255-1.345V148.46z M73.004,138.089v17.455
	c0,0.48,0.085,0.929,0.255,1.345s0.401,0.779,0.694,1.09s0.636,0.554,1.028,0.729s0.817,0.264,1.274,0.264s0.882-0.088,1.274-0.264
	s0.738-0.419,1.037-0.729s0.533-0.674,0.703-1.09s0.255-0.864,0.255-1.345v-17.455h4.711c0.34,0,0.662-0.062,0.967-0.185
	s0.571-0.29,0.8-0.501s0.41-0.457,0.545-0.738s0.202-0.58,0.202-0.896s-0.067-0.618-0.202-0.905s-0.316-0.536-0.545-0.747
	s-0.495-0.378-0.8-0.501s-0.627-0.185-0.967-0.185H68.188c-0.34,0-0.662,0.062-0.967,0.185s-0.571,0.29-0.8,0.501
	s-0.41,0.46-0.545,0.747s-0.202,0.589-0.202,0.905s0.067,0.615,0.202,0.896s0.316,0.527,0.545,0.738s0.495,0.378,0.8,0.501
	s0.627,0.185,0.967,0.185H73.004z"/>
<path fill="#2C3553" d="M233.985,174.862c0.264-0.34,0.609-0.618,1.037-0.835s0.914-0.375,1.459-0.475s1.099-0.149,1.661-0.149
	c0.598,0,1.146,0.029,1.644,0.088s0.981,0.152,1.45,0.281s0.94,0.293,1.415,0.492s0.987,0.439,1.538,0.721
	c0.293,0.152,0.615,0.229,0.967,0.229c0.27,0,0.53-0.05,0.782-0.149s0.472-0.237,0.659-0.413s0.337-0.387,0.448-0.633
	s0.167-0.516,0.167-0.809c0-0.504-0.149-0.961-0.448-1.371s-0.694-0.776-1.187-1.099s-1.058-0.604-1.696-0.844
	s-1.304-0.437-1.995-0.589s-1.383-0.267-2.074-0.343s-1.33-0.114-1.916-0.114c-1.617,0-3.073,0.182-4.368,0.545
	s-2.396,0.879-3.305,1.547s-1.605,1.477-2.092,2.426s-0.729,2.01-0.729,3.182c0,0.891,0.114,1.673,0.343,2.347
	s0.583,1.274,1.063,1.802s1.102,1.002,1.863,1.424s1.676,0.826,2.742,1.213l1.652,0.58c0.141,0.047,0.264,0.091,0.369,0.132
	s0.214,0.082,0.325,0.123s0.237,0.082,0.378,0.123s0.311,0.085,0.51,0.132l0.914,0.264c0.164,0.047,0.316,0.097,0.457,0.149
	s0.287,0.103,0.439,0.149l0.791,0.281c0.363,0.129,0.709,0.278,1.037,0.448s0.615,0.369,0.861,0.598s0.439,0.495,0.58,0.8
	s0.211,0.65,0.211,1.037c0,0.516-0.117,0.955-0.352,1.318s-0.554,0.659-0.958,0.888s-0.873,0.398-1.406,0.51
	s-1.099,0.167-1.696,0.167c-1.102,0-2.156-0.146-3.164-0.439s-1.916-0.621-2.725-0.984c-0.246-0.094-0.478-0.199-0.694-0.316
	s-0.428-0.226-0.633-0.325s-0.407-0.185-0.606-0.255s-0.404-0.105-0.615-0.105c-0.234,0-0.472,0.07-0.712,0.211
	s-0.457,0.325-0.65,0.554s-0.352,0.483-0.475,0.765s-0.185,0.568-0.185,0.861c0,0.457,0.146,0.888,0.439,1.292
	s0.697,0.776,1.213,1.116s1.119,0.645,1.811,0.914s1.43,0.498,2.215,0.686s1.6,0.331,2.443,0.431s1.682,0.149,2.514,0.149
	c1.617,0,3.073-0.185,4.368-0.554s2.399-0.899,3.313-1.591s1.614-1.529,2.101-2.514s0.729-2.092,0.729-3.322
	c0-1.125-0.196-2.089-0.589-2.892s-0.949-1.497-1.67-2.083s-1.588-1.09-2.602-1.512s-2.142-0.82-3.384-1.195
	c-0.773-0.223-1.541-0.439-2.303-0.65s-1.444-0.457-2.048-0.738s-1.093-0.615-1.468-1.002s-0.562-0.861-0.562-1.424
	C233.589,175.618,233.721,175.202,233.985,174.862z M209.885,174.862c0.264-0.34,0.609-0.618,1.037-0.835s0.914-0.375,1.459-0.475
	s1.099-0.149,1.661-0.149c0.598,0,1.146,0.029,1.644,0.088s0.981,0.152,1.45,0.281s0.94,0.293,1.415,0.492s0.987,0.439,1.538,0.721
	c0.293,0.152,0.615,0.229,0.967,0.229c0.27,0,0.53-0.05,0.782-0.149s0.472-0.237,0.659-0.413s0.337-0.387,0.448-0.633
	s0.167-0.516,0.167-0.809c0-0.504-0.149-0.961-0.448-1.371s-0.694-0.776-1.187-1.099s-1.058-0.604-1.696-0.844
	s-1.304-0.437-1.995-0.589s-1.383-0.267-2.074-0.343s-1.33-0.114-1.916-0.114c-1.617,0-3.073,0.182-4.368,0.545
	s-2.396,0.879-3.305,1.547s-1.605,1.477-2.092,2.426s-0.729,2.01-0.729,3.182c0,0.891,0.114,1.673,0.343,2.347
	s0.583,1.274,1.063,1.802s1.102,1.002,1.863,1.424s1.676,0.826,2.742,1.213l1.652,0.58c0.141,0.047,0.264,0.091,0.369,0.132
	s0.214,0.082,0.325,0.123s0.237,0.082,0.378,0.123s0.311,0.085,0.51,0.132l0.914,0.264c0.164,0.047,0.316,0.097,0.457,0.149
	s0.287,0.103,0.439,0.149l0.791,0.281c0.363,0.129,0.709,0.278,1.037,0.448s0.615,0.369,0.861,0.598s0.439,0.495,0.58,0.8
	s0.211,0.65,0.211,1.037c0,0.516-0.117,0.955-0.352,1.318s-0.554,0.659-0.958,0.888s-0.873,0.398-1.406,0.51
	s-1.099,0.167-1.696,0.167c-1.102,0-2.156-0.146-3.164-0.439s-1.916-0.621-2.725-0.984c-0.246-0.094-0.478-0.199-0.694-0.316
	s-0.428-0.226-0.633-0.325s-0.407-0.185-0.606-0.255s-0.404-0.105-0.615-0.105c-0.234,0-0.472,0.07-0.712,0.211
	s-0.457,0.325-0.65,0.554s-0.352,0.483-0.475,0.765s-0.185,0.568-0.185,0.861c0,0.457,0.146,0.888,0.439,1.292
	s0.697,0.776,1.213,1.116s1.119,0.645,1.811,0.914s1.43,0.498,2.215,0.686s1.6,0.331,2.443,0.431s1.682,0.149,2.514,0.149
	c1.617,0,3.073-0.185,4.368-0.554s2.399-0.899,3.313-1.591s1.614-1.529,2.101-2.514s0.729-2.092,0.729-3.322
	c0-1.125-0.196-2.089-0.589-2.892s-0.949-1.497-1.67-2.083s-1.588-1.09-2.602-1.512s-2.142-0.82-3.384-1.195
	c-0.773-0.223-1.541-0.439-2.303-0.65s-1.444-0.457-2.048-0.738s-1.093-0.615-1.468-1.002s-0.562-0.861-0.562-1.424
	C209.49,175.618,209.621,175.202,209.885,174.862z M197.536,194.972c0.316,0,0.612-0.059,0.888-0.176s0.519-0.278,0.729-0.483
	s0.375-0.445,0.492-0.721s0.176-0.571,0.176-0.888s-0.059-0.612-0.176-0.888s-0.281-0.519-0.492-0.729s-0.454-0.375-0.729-0.492
	s-0.571-0.176-0.888-0.176h-9.492v-6.152h8.262c0.34,0,0.659-0.059,0.958-0.176s0.56-0.278,0.782-0.483s0.398-0.445,0.527-0.721
	s0.193-0.571,0.193-0.888s-0.064-0.612-0.193-0.888s-0.305-0.519-0.527-0.729s-0.483-0.375-0.782-0.492s-0.618-0.176-0.958-0.176
	h-8.262v-5.695h9.053c0.34,0,0.659-0.059,0.958-0.176s0.56-0.278,0.782-0.483s0.398-0.445,0.527-0.721s0.193-0.571,0.193-0.888
	s-0.064-0.615-0.193-0.896s-0.305-0.524-0.527-0.729s-0.483-0.369-0.782-0.492s-0.618-0.185-0.958-0.185h-11.285
	c-0.914,0-1.641,0.117-2.18,0.352s-0.949,0.557-1.23,0.967s-0.463,0.899-0.545,1.468s-0.123,1.187-0.123,1.854v16.752
	c0,0.492,0.053,0.984,0.158,1.477s0.281,0.935,0.527,1.327s0.571,0.712,0.976,0.958s0.905,0.369,1.503,0.369H197.536z
	 M155.753,188.037c0.633,1.635,1.5,3.012,2.602,4.131s2.402,1.969,3.902,2.549s3.117,0.87,4.852,0.87
	c0.574,0,1.198-0.038,1.872-0.114s1.351-0.19,2.03-0.343s1.339-0.343,1.978-0.571s1.204-0.495,1.696-0.8s0.888-0.647,1.187-1.028
	s0.448-0.8,0.448-1.257c0-0.281-0.047-0.548-0.141-0.8s-0.229-0.472-0.404-0.659s-0.384-0.337-0.624-0.448s-0.507-0.167-0.8-0.167
	c-0.223,0-0.41,0.023-0.562,0.07c-0.504,0.188-1.011,0.375-1.521,0.562s-1.011,0.354-1.503,0.501s-0.973,0.267-1.441,0.36
	s-0.92,0.141-1.354,0.141c-1.066,0-2.001-0.202-2.804-0.606s-1.471-0.984-2.004-1.74s-0.935-1.676-1.204-2.76
	s-0.404-2.306-0.404-3.665c0-1.77,0.167-3.226,0.501-4.368s0.788-2.048,1.362-2.716s1.251-1.134,2.03-1.397s1.608-0.396,2.487-0.396
	c0.422,0,0.829,0.026,1.222,0.079s0.785,0.12,1.178,0.202s0.791,0.179,1.195,0.29s0.829,0.226,1.274,0.343
	c0.152,0.047,0.311,0.073,0.475,0.079s0.328,0.009,0.492,0.009c0.281,0,0.562-0.038,0.844-0.114s0.536-0.196,0.765-0.36
	s0.413-0.372,0.554-0.624s0.211-0.548,0.211-0.888c0-0.504-0.176-0.973-0.527-1.406s-0.885-0.809-1.6-1.125
	s-1.614-0.565-2.698-0.747s-2.358-0.272-3.823-0.272c-1.852,0-3.554,0.308-5.106,0.923s-2.892,1.503-4.017,2.663
	s-2.001,2.581-2.628,4.263s-0.94,3.589-0.94,5.722C154.804,184.53,155.12,186.402,155.753,188.037z M130.019,188.037
	c0.633,1.635,1.5,3.012,2.602,4.131s2.402,1.969,3.902,2.549s3.117,0.87,4.852,0.87c0.574,0,1.198-0.038,1.872-0.114
	s1.351-0.19,2.03-0.343s1.339-0.343,1.978-0.571s1.204-0.495,1.696-0.8s0.888-0.647,1.187-1.028s0.448-0.8,0.448-1.257
	c0-0.281-0.047-0.548-0.141-0.8s-0.229-0.472-0.404-0.659s-0.384-0.337-0.624-0.448s-0.507-0.167-0.8-0.167
	c-0.223,0-0.41,0.023-0.562,0.07c-0.504,0.188-1.011,0.375-1.521,0.562s-1.011,0.354-1.503,0.501s-0.973,0.267-1.441,0.36
	s-0.92,0.141-1.354,0.141c-1.066,0-2.001-0.202-2.804-0.606s-1.471-0.984-2.004-1.74s-0.935-1.676-1.204-2.76
	s-0.404-2.306-0.404-3.665c0-1.77,0.167-3.226,0.501-4.368s0.788-2.048,1.362-2.716s1.251-1.134,2.03-1.397s1.608-0.396,2.487-0.396
	c0.422,0,0.829,0.026,1.222,0.079s0.785,0.12,1.178,0.202s0.791,0.179,1.195,0.29s0.829,0.226,1.274,0.343
	c0.152,0.047,0.311,0.073,0.475,0.079s0.328,0.009,0.492,0.009c0.281,0,0.562-0.038,0.844-0.114s0.536-0.196,0.765-0.36
	s0.413-0.372,0.554-0.624s0.211-0.548,0.211-0.888c0-0.504-0.176-0.973-0.527-1.406s-0.885-0.809-1.6-1.125
	s-1.614-0.565-2.698-0.747s-2.358-0.272-3.823-0.272c-1.852,0-3.554,0.308-5.106,0.923s-2.892,1.503-4.017,2.663
	s-2.001,2.581-2.628,4.263s-0.94,3.589-0.94,5.722C129.07,184.53,129.386,186.402,130.019,188.037z M118.523,186.218
	c0,0.844-0.132,1.57-0.396,2.18s-0.606,1.107-1.028,1.494s-0.899,0.674-1.433,0.861s-1.081,0.281-1.644,0.281
	c-0.551,0-1.093-0.094-1.626-0.281s-1.008-0.475-1.424-0.861s-0.753-0.885-1.011-1.494s-0.387-1.336-0.387-2.18l-0.018-13.359
	c0-0.48-0.085-0.929-0.255-1.345s-0.404-0.779-0.703-1.09s-0.645-0.554-1.037-0.729s-0.817-0.264-1.274-0.264
	s-0.882,0.088-1.274,0.264s-0.735,0.419-1.028,0.729s-0.524,0.674-0.694,1.09s-0.255,0.864-0.255,1.345v13.465
	c0,1.57,0.275,2.936,0.826,4.096s1.315,2.121,2.294,2.883s2.139,1.333,3.48,1.714s2.804,0.571,4.386,0.571
	c1.605,0,3.082-0.193,4.43-0.58s2.511-0.967,3.489-1.74s1.74-1.737,2.285-2.892s0.817-2.505,0.817-4.052v-13.465
	c0-0.48-0.085-0.929-0.255-1.345s-0.404-0.779-0.703-1.09s-0.645-0.554-1.037-0.729s-0.817-0.264-1.274-0.264
	s-0.882,0.088-1.274,0.264s-0.735,0.419-1.028,0.729s-0.524,0.674-0.694,1.09s-0.255,0.864-0.255,1.345V186.218z M84.905,174.862
	c0.264-0.34,0.609-0.618,1.037-0.835s0.914-0.375,1.459-0.475s1.099-0.149,1.661-0.149c0.598,0,1.146,0.029,1.644,0.088
	s0.981,0.152,1.45,0.281s0.94,0.293,1.415,0.492s0.987,0.439,1.538,0.721c0.293,0.152,0.615,0.229,0.967,0.229
	c0.27,0,0.53-0.05,0.782-0.149s0.472-0.237,0.659-0.413s0.337-0.387,0.448-0.633s0.167-0.516,0.167-0.809
	c0-0.504-0.149-0.961-0.448-1.371s-0.694-0.776-1.187-1.099s-1.058-0.604-1.696-0.844s-1.304-0.437-1.995-0.589
	s-1.383-0.267-2.074-0.343s-1.33-0.114-1.916-0.114c-1.617,0-3.073,0.182-4.368,0.545s-2.396,0.879-3.305,1.547
	s-1.605,1.477-2.092,2.426s-0.729,2.01-0.729,3.182c0,0.891,0.114,1.673,0.343,2.347s0.583,1.274,1.063,1.802
	s1.102,1.002,1.863,1.424s1.676,0.826,2.742,1.213l1.652,0.58c0.141,0.047,0.264,0.091,0.369,0.132s0.214,0.082,0.325,0.123
	s0.237,0.082,0.378,0.123s0.311,0.085,0.51,0.132l0.914,0.264c0.164,0.047,0.316,0.097,0.457,0.149s0.287,0.103,0.439,0.149
	l0.791,0.281c0.363,0.129,0.709,0.278,1.037,0.448s0.615,0.369,0.861,0.598s0.439,0.495,0.58,0.8s0.211,0.65,0.211,1.037
	c0,0.516-0.117,0.955-0.352,1.318s-0.554,0.659-0.958,0.888s-0.873,0.398-1.406,0.51s-1.099,0.167-1.696,0.167
	c-1.102,0-2.156-0.146-3.164-0.439s-1.916-0.621-2.725-0.984c-0.246-0.094-0.478-0.199-0.694-0.316s-0.428-0.226-0.633-0.325
	s-0.407-0.185-0.606-0.255s-0.404-0.105-0.615-0.105c-0.234,0-0.472,0.07-0.712,0.211s-0.457,0.325-0.65,0.554
	s-0.352,0.483-0.475,0.765s-0.185,0.568-0.185,0.861c0,0.457,0.146,0.888,0.439,1.292s0.697,0.776,1.213,1.116
	s1.119,0.645,1.811,0.914s1.43,0.498,2.215,0.686s1.6,0.331,2.443,0.431s1.682,0.149,2.514,0.149c1.617,0,3.073-0.185,4.368-0.554
	s2.399-0.899,3.313-1.591s1.614-1.529,2.101-2.514s0.729-2.092,0.729-3.322c0-1.125-0.196-2.089-0.589-2.892
	s-0.949-1.497-1.67-2.083s-1.588-1.09-2.602-1.512s-2.142-0.82-3.384-1.195c-0.773-0.223-1.541-0.439-2.303-0.65
	s-1.444-0.457-2.048-0.738s-1.093-0.615-1.468-1.002s-0.562-0.861-0.562-1.424C84.509,175.618,84.641,175.202,84.905,174.862z"/>
</svg>
