<?xml version="1.0" encoding="utf-8"?>
<!-- Generator: Adobe Illustrator 17.0.0, SVG Export Plug-In . SVG Version: 6.00 Build 0)  -->
<!DOCTYPE svg PUBLIC "-//W3C//DTD SVG 1.1//EN" "http://www.w3.org/Graphics/SVG/1.1/DTD/svg11.dtd">
<svg version="1.1" id="Layer_1" xmlns="http://www.w3.org/2000/svg" xmlns:xlink="http://www.w3.org/1999/xlink" x="0px" y="0px"
	 width="247.509px" height="103.824px" viewBox="0 0 247.509 103.824" enable-background="new 0 0 247.509 103.824"
	 xml:space="preserve">
<g>
	<g>
		<g>
			<path fill="#3F1031" d="M228.711,7.661c5.398,0.669,9.93,2.94,13.243,6.666c3.582,4.03,5.555,9.493,5.555,15.381
				s-1.972,11.351-5.555,15.381c-3.313,3.727-7.845,5.998-13.243,6.666V45.09c8.054-1.552,12.244-8.504,12.244-15.382
				s-4.191-13.83-12.244-15.382V7.661z"/>
			<path fill="#3F1031" d="M228.711,52.069c5.398,0.669,9.93,2.94,13.243,6.666c3.582,4.03,5.555,9.493,5.555,15.381
				s-1.972,11.351-5.555,15.381c-3.313,3.727-7.845,5.998-13.243,6.666v-6.665c8.054-1.552,12.244-8.504,12.244-15.382
				s-4.191-13.83-12.244-15.382V52.069z"/>
		</g>
	</g>
	<g>
		<g>
			<path fill="#010101" d="M229.008,95.649c0,4.497-3.679,8.176-8.176,8.176H8.176c-4.497,0-8.176-3.679-8.176-8.176V16.351
				c0-4.497,3.679-8.176,8.176-8.176h212.657c4.497,0,8.176,3.679,8.176,8.176V95.649z"/>
			<rect x="16.351" y="24.526" fill="#010101" width="196.306" height="62.947"/>
			<path fill="#2C3553" d="M229.008,87.473c0,4.497-3.679,8.176-8.176,8.176H8.176C3.679,95.649,0,91.97,0,87.473V8.176
				C0,3.679,3.679,0,8.176,0h212.657c4.497,0,8.176,3.679,8.176,8.176V87.473z"/>
			<rect x="8.176" y="8.175" opacity="0.5" fill="none" stroke="#FFFFFF" stroke-miterlimit="10" width="212.657" height="79.298"/>
			<rect x="16.351" y="16.351" fill="#010101" width="196.306" height="62.947"/>
		</g>
	</g>
</g>
</svg>
