<?xml version="1.0" encoding="utf-8"?>
<!-- Generator: Adobe Illustrator 17.0.0, SVG Export Plug-In . SVG Version: 6.00 Build 0)  -->
<!DOCTYPE svg PUBLIC "-//W3C//DTD SVG 1.1//EN" "http://www.w3.org/Graphics/SVG/1.1/DTD/svg11.dtd">
<svg version="1.1" id="Layer_1" xmlns="http://www.w3.org/2000/svg" xmlns:xlink="http://www.w3.org/1999/xlink" x="0px" y="0px"
	 width="325.991px" height="335.892px" viewBox="0 0 325.991 335.892" enable-background="new 0 0 325.991 335.892"
	 xml:space="preserve">
<path fill="#010101" d="M4.047,189.019h15.863c0.785,7.162,2.074,14.17,3.853,20.982l-14.68,5.737
	c-2.082,0.814-3.11,3.161-2.296,5.243l8.791,22.494c0.813,2.082,3.161,3.11,5.243,2.296l14.53-5.678
	c4.201,8.116,9.136,15.783,14.723,22.923l-10.873,10.873c-1.581,1.581-1.581,4.143,0,5.724l17.077,17.076
	c1.58,1.581,4.143,1.581,5.724,0l10.583-10.583c5.585,4.584,11.521,8.754,17.752,12.483l-0.011,0.025l-5.875,13.426
	c-0.888,2.039,0.04,4.422,2.079,5.33l22.127,9.691c2.059,0.888,4.442-0.04,5.33-2.1l5.673-12.941l0.02-0.046
	c8.731,2.868,17.821,4.929,27.191,6.114v13.756c0,2.235,1.812,4.047,4.047,4.047h24.15c2.235,0,4.047-1.812,4.047-4.047v-13.206
	c7.533-0.699,14.9-1.961,22.058-3.758l4.662,11.928c0.814,2.082,3.161,3.11,5.243,2.296l22.493-8.791
	c2.082-0.814,3.11-3.161,2.297-5.243l-4.489-11.486c8.57-4.334,16.65-9.484,24.149-15.352l8.457,8.457
	c1.581,1.581,4.143,1.581,5.724,0l17.077-17.076c1.581-1.581,1.581-4.143,0-5.724l-8.168-8.168
	c4.848-5.906,9.218-12.213,13.107-18.839l10.395,4.553c2.048,0.897,4.435-0.036,5.331-2.083l9.689-22.121
	c0.897-2.048-0.036-4.435-2.084-5.332l-10.172-4.455c2.91-9.12,4.947-18.625,6.021-28.425h11.036c2.235,0,4.047-1.812,4.047-4.047
	v-24.15c0-2.236-1.812-4.048-4.047-4.048H310.91c-0.85-7.762-2.319-15.333-4.334-22.681l10.332-4.038
	c2.082-0.813,3.11-3.161,2.296-5.243l-8.791-22.494c-0.814-2.082-3.161-3.11-5.243-2.296l-10.505,4.105
	c-4.562-8.557-9.935-16.614-16.041-24.053l8.164-8.164c1.575-1.575,1.575-4.139,0-5.713l-17.08-17.08
	c-1.575-1.575-4.139-1.575-5.714,0l-8.439,8.419l-0.024,0.024c-5.954-4.658-12.267-8.872-18.909-12.578l4.911-11.211
	c0.897-2.048-0.036-4.435-2.084-5.332l-22.121-9.689c-2.048-0.897-4.435,0.036-5.331,2.083l-5.106,11.657
	c-8.934-2.635-18.217-4.45-27.773-5.337V13.948c0-2.235-1.812-4.047-4.047-4.047h-24.15c-2.235,0-4.047,1.812-4.047,4.047v13.756
	c-7.384,0.933-14.592,2.413-21.591,4.404l-5.129-13.124c-0.813-2.082-3.161-3.11-5.243-2.296l-22.494,8.791
	c-2.082,0.813-3.11,3.161-2.296,5.243l5.299,13.559c-8.107,4.421-15.748,9.587-22.834,15.404L62.003,49.102
	c-1.581-1.581-4.143-1.581-5.724,0L39.202,66.179c-1.581,1.581-1.581,4.143,0,5.724l10.871,10.871
	c-4.403,5.626-8.401,11.58-11.955,17.824l-14.249-6.241c-2.047-0.897-4.435,0.036-5.331,2.084l-9.689,22.121
	c-0.897,2.048,0.036,4.434,2.084,5.331l14.414,6.313c-2.602,8.55-4.437,17.432-5.438,26.566H4.047c-2.236,0-4.047,1.812-4.047,4.048
	v24.15C0,187.207,1.812,189.019,4.047,189.019"/>
<path fill="#FFFFFF" d="M4.047,179.118h15.863c0.785,7.162,2.074,14.17,3.853,20.982l-14.68,5.737
	c-2.082,0.814-3.11,3.161-2.296,5.243l8.791,22.494c0.813,2.082,3.161,3.11,5.243,2.296l14.53-5.678
	c4.201,8.116,9.136,15.783,14.723,22.923l-10.873,10.873c-1.581,1.581-1.581,4.143,0,5.724l17.077,17.076
	c1.58,1.581,4.143,1.581,5.724,0l10.583-10.583c5.585,4.585,11.521,8.754,17.752,12.483l-0.011,0.025l-5.875,13.426
	c-0.888,2.039,0.04,4.422,2.079,5.33l22.127,9.691c2.059,0.888,4.442-0.04,5.33-2.1l5.673-12.941l0.02-0.046
	c8.731,2.868,17.821,4.929,27.191,6.114v13.756c0,2.235,1.812,4.047,4.047,4.047h24.15c2.235,0,4.047-1.812,4.047-4.047v-13.205
	c7.533-0.699,14.9-1.961,22.058-3.758l4.662,11.928c0.814,2.082,3.161,3.11,5.243,2.296l22.493-8.791
	c2.082-0.814,3.11-3.161,2.297-5.243l-4.489-11.486c8.57-4.334,16.65-9.484,24.149-15.352l8.457,8.457
	c1.581,1.581,4.143,1.581,5.724,0l17.077-17.076c1.581-1.581,1.581-4.143,0-5.724l-8.168-8.169
	c4.848-5.906,9.218-12.213,13.107-18.839l10.395,4.553c2.048,0.897,4.435-0.036,5.331-2.083l9.689-22.121
	c0.897-2.048-0.036-4.435-2.084-5.332l-10.172-4.455c2.91-9.12,4.947-18.625,6.021-28.425h11.036c2.235,0,4.047-1.812,4.047-4.047
	v-24.15c0-2.236-1.812-4.048-4.047-4.048H310.91c-0.85-7.762-2.319-15.333-4.334-22.681l10.332-4.038
	c2.082-0.813,3.11-3.161,2.296-5.243l-8.791-22.494c-0.814-2.082-3.161-3.11-5.243-2.296l-10.505,4.105
	c-4.562-8.557-9.935-16.614-16.041-24.053l8.164-8.164c1.575-1.575,1.575-4.139,0-5.713l-17.08-17.08
	c-1.575-1.575-4.139-1.575-5.714,0l-8.439,8.419l-0.024,0.024c-5.954-4.658-12.267-8.872-18.909-12.578l4.911-11.211
	c0.897-2.048-0.036-4.435-2.084-5.332l-22.121-9.689c-2.048-0.897-4.435,0.036-5.331,2.083l-5.106,11.657
	c-8.934-2.635-18.217-4.45-27.773-5.337V4.047c0-2.235-1.812-4.047-4.047-4.047h-24.15c-2.235,0-4.047,1.812-4.047,4.047v13.756
	c-7.384,0.933-14.592,2.413-21.591,4.404l-5.129-13.124c-0.813-2.082-3.161-3.11-5.243-2.296l-22.494,8.791
	c-2.082,0.813-3.11,3.161-2.296,5.243l5.299,13.559c-8.107,4.421-15.748,9.587-22.834,15.404L62.003,39.202
	c-1.581-1.581-4.143-1.581-5.724,0L39.202,56.279c-1.581,1.581-1.581,4.143,0,5.724l10.871,10.871
	c-4.403,5.626-8.401,11.58-11.955,17.824l-14.249-6.241c-2.047-0.897-4.435,0.036-5.331,2.084l-9.689,22.121
	c-0.897,2.048,0.036,4.435,2.084,5.331l14.414,6.313c-2.602,8.55-4.437,17.431-5.438,26.566H4.047c-2.236,0-4.047,1.812-4.047,4.048
	v24.15C0,177.306,1.812,179.118,4.047,179.118"/>
<path fill="#E6E5E4" d="M179.118,318.639L179.118,318.639v3.305l0,0v0.034c0-0.011,0-0.022,0-0.033L179.118,318.639
	 M234.596,301.908L234.596,301.908l1.275,3.262c0.407,1.041,0.353,2.148-0.062,3.097c0.416-0.949,0.469-2.056,0.062-3.097
	L234.596,301.908 M286.789,269.713l-2.088,2.088h0L286.789,269.713 M287.975,266.851c0,0.813-0.244,1.626-0.731,2.321
	C287.731,268.477,287.975,267.664,287.975,266.851 M317.467,215.342c0.002,0.02,0.004,0.04,0.005,0.061
	C317.47,215.382,317.469,215.362,317.467,215.342 M317.464,215.312c0.001,0.01,0.002,0.019,0.003,0.029
	C317.466,215.332,317.465,215.322,317.464,215.312 M317.385,214.821c0.031,0.139,0.055,0.28,0.072,0.423
	C317.44,215.102,317.416,214.961,317.385,214.821 M317.343,214.651c0.003,0.01,0.006,0.021,0.008,0.031
	C317.348,214.672,317.346,214.661,317.343,214.651 M317.338,214.632c0,0.001,0.001,0.002,0.001,0.003
	C317.338,214.634,317.338,214.633,317.338,214.632 M317.335,214.623L317.335,214.623L317.335,214.623 M311.399,210.395l3.66,1.603
	c0.5,0.219,0.933,0.527,1.29,0.897c-0.357-0.37-0.79-0.678-1.29-0.897L311.399,210.395 M309.706,138.278
	c0.485,2.838,0.888,5.703,1.204,8.595h11.034c0,0,0,0,0,0H310.91C310.593,143.981,310.191,141.116,309.706,138.278 M319.204,114.91
	L319.204,114.91c0.516,1.319,0.292,2.746-0.472,3.82C319.496,117.656,319.72,116.23,319.204,114.91L319.204,114.91 M282.966,75.732
	L282.966,75.732c4.34,5.845,8.252,12.027,11.699,18.494l10.505-4.105c0.484-0.189,0.982-0.279,1.472-0.279
	c0.442,0,0.878,0.073,1.29,0.212c-0.412-0.139-0.848-0.212-1.291-0.212c-0.49,0-0.988,0.089-1.472,0.278l-10.505,4.106
	C291.218,87.759,287.306,81.577,282.966,75.732 M287.97,59.152c0,0.497-0.091,0.994-0.273,1.464
	C287.879,60.147,287.97,59.65,287.97,59.152 M259.78,43.42l-4.225,4.214l-0.012,0.012l0.012-0.012L259.78,43.42 M242.666,38.647
	c2.839,1.77,5.612,3.635,8.317,5.59C248.278,42.282,245.505,40.417,242.666,38.647 M266.852,38.034c-0.73,0-1.46,0.196-2.103,0.588
	C265.392,38.23,266.122,38.035,266.852,38.034c1.035,0,2.069,0.394,2.857,1.181l17.08,17.08c0.623,0.623,0.999,1.4,1.129,2.21
	c-0.13-0.81-0.507-1.588-1.129-2.21l-17.08-17.08C268.921,38.428,267.886,38.034,266.852,38.034 M240.463,19.173
	c1.316,1.129,1.802,3.025,1.07,4.696C242.266,22.199,241.779,20.302,240.463,19.173 M175.071,0h-13.396H175.071
	c2.235,0,4.047,1.812,4.047,4.047v13.206c9.556,0.887,18.839,2.702,27.773,5.337l5.106-11.657c0.382-0.873,1.035-1.543,1.817-1.955
	c-0.782,0.412-1.435,1.082-1.817,1.955l-5.106,11.658c-8.934-2.635-18.217-4.45-27.773-5.337V4.047
	C179.118,1.812,177.306,0,175.071,0"/>
<path fill="#010101" d="M179.118,321.944c0,1.027-0.383,1.965-1.013,2.679c0.624-0.706,1.005-1.631,1.013-2.645V321.944
	 M207.656,318.981c0.01,0.005,0.02,0.011,0.03,0.016C207.676,318.992,207.666,318.986,207.656,318.981 M179.118,308.739
	L179.118,308.739v9.9l0,0V308.739 M201.176,304.98L201.176,304.98l4.661,11.928c0.359,0.917,1.015,1.63,1.816,2.071
	c-0.8-0.441-1.457-1.153-1.815-2.071L201.176,304.98 M231.382,293.684L231.382,293.684l3.214,8.224v0L231.382,293.684
	 M255.531,278.332c-4.306,3.37-8.804,6.502-13.476,9.38C246.727,284.834,251.225,281.702,255.531,278.332L255.531,278.332
	 M284.701,271.801l-14.989,14.988c-0.234,0.234-0.489,0.433-0.76,0.598c0.271-0.165,0.526-0.364,0.76-0.598L284.701,271.801
	L284.701,271.801 M312.298,228.39l-4.844,11.061c-0.504,1.151-1.479,1.95-2.601,2.269c1.121-0.319,2.096-1.118,2.601-2.269
	L312.298,228.39 M310.302,183.917c-1.16,8.109-2.982,16.002-5.415,23.626l0,0C307.319,199.919,309.142,192.026,310.302,183.917
	 M306.576,124.191L306.576,124.191c0.515,1.88,0.995,3.773,1.438,5.682C307.571,127.965,307.091,126.071,306.576,124.191
	 M278.625,70.173L278.625,70.173c1.491,1.817,2.938,3.67,4.341,5.559l0,0C281.563,73.843,280.116,71.99,278.625,70.173"/>
<path fill="#E5E4E4" d="M175.071,0h-13.396v325.991h13.396c1.208,0,2.293-0.529,3.034-1.369c0.631-0.714,1.013-1.651,1.013-2.679
	l0,0v-3.305v-9.9l0,0l0,0c7.533-0.699,14.9-1.961,22.058-3.758l0,0c0,0,0,0,0,0l4.662,11.928c0.359,0.917,1.015,1.63,1.815,2.071
	c0.001,0.001,0.002,0.001,0.003,0.002c0.01,0.005,0.02,0.011,0.03,0.016c0.585,0.315,1.246,0.486,1.922,0.486
	c0.49,0,0.989-0.09,1.473-0.279l22.493-8.791c1.041-0.407,1.819-1.197,2.234-2.146c0.416-0.949,0.469-2.056,0.062-3.097
	l-1.275-3.262l-3.214-8.224l0,0v0c3.649-1.845,7.209-3.839,10.673-5.972c4.672-2.877,9.17-6.01,13.476-9.38l0,0c0,0,0,0,0,0
	l8.457,8.457c0.79,0.79,1.826,1.186,2.862,1.186c0.729,0,1.458-0.196,2.102-0.587c0.271-0.165,0.526-0.364,0.76-0.598l14.989-14.988
	l2.088-2.088c0.17-0.17,0.321-0.351,0.455-0.541c0.487-0.694,0.731-1.508,0.731-2.321c0-1.036-0.395-2.072-1.186-2.862l-8.169-8.169
	c4.848-5.906,9.218-12.213,13.107-18.839l10.395,4.553c0.528,0.231,1.08,0.341,1.622,0.341c0.378,0,0.751-0.053,1.109-0.155
	c1.121-0.319,2.096-1.118,2.601-2.269l4.844-11.061l4.844-11.061c0.275-0.628,0.378-1.288,0.33-1.927
	c-0.002-0.02-0.003-0.04-0.005-0.061c0,0,0,0,0,0c-0.001-0.01-0.002-0.019-0.003-0.029c-0.002-0.023-0.005-0.046-0.007-0.068
	c-0.016-0.142-0.04-0.283-0.072-0.423c-0.01-0.047-0.022-0.093-0.034-0.139c-0.003-0.01-0.005-0.021-0.008-0.031
	c-0.001-0.005-0.003-0.011-0.004-0.016c0-0.001-0.001-0.002-0.001-0.003c-0.001-0.003-0.002-0.006-0.002-0.009l0,0
	c-0.179-0.644-0.516-1.24-0.987-1.729c-0.357-0.37-0.79-0.678-1.29-0.897l-3.66-1.603l-6.512-2.852l0,0v0
	c2.432-7.624,4.255-15.517,5.415-23.626c0.228-1.591,0.43-3.191,0.606-4.799h11.036c2.236,0,4.048-1.812,4.048-4.047v-24.15
	c0-2.235-1.812-4.048-4.048-4.048H310.91c-0.317-2.892-0.719-5.757-1.204-8.595c-0.484-2.83-1.049-5.633-1.692-8.405
	c-0.443-1.908-0.922-3.802-1.438-5.682l0,0c0,0,0,0,0,0l10.332-4.038c0.763-0.298,1.384-0.801,1.825-1.422
	c0.763-1.075,0.987-2.501,0.472-3.82l0,0l-8.791-22.494c-0.454-1.161-1.385-1.994-2.481-2.363c-0.412-0.139-0.848-0.212-1.29-0.212
	c-0.49,0-0.988,0.09-1.472,0.279l-10.505,4.105c-3.448-6.467-7.359-12.649-11.699-18.494c-1.403-1.889-2.85-3.742-4.341-5.559l0,0
	l0,0l8.164-8.164c0.409-0.409,0.712-0.885,0.908-1.393c0.182-0.47,0.273-0.967,0.273-1.464c0-0.216-0.017-0.432-0.052-0.646
	c-0.13-0.81-0.507-1.587-1.129-2.21l-17.08-17.08c-0.787-0.788-1.822-1.181-2.857-1.181c-0.73,0-1.459,0.196-2.102,0.588
	c-0.269,0.164-0.522,0.362-0.754,0.594l-4.215,4.204l-4.225,4.215l-0.012,0.012l-0.012,0.012c-1.494-1.169-3.01-2.31-4.549-3.422
	c-2.705-1.955-5.478-3.82-8.317-5.59c-1.982-1.236-3.997-2.425-6.043-3.566l4.911-11.211l0,0c0.732-1.671,0.245-3.567-1.07-4.696
	c-0.297-0.255-0.636-0.47-1.013-0.635l-22.121-9.689l0,0c-0.528-0.231-1.08-0.341-1.622-0.341c-0.663,0-1.313,0.164-1.893,0.469
	c-0.782,0.412-1.435,1.083-1.817,1.955l-5.106,11.657c-8.934-2.635-18.217-4.45-27.773-5.337V4.047
	C179.118,1.812,177.306,0,175.071,0"/>
<path fill="#2C3553" d="M125.27,119.422h2.566c2.543,0,4.43,0.727,5.66,2.18s1.846,3.662,1.846,6.627
	c0,1.594-0.15,2.938-0.449,4.034s-0.762,2.013-1.389,2.751s-1.42,1.26-2.381,1.564s-2.109,0.457-3.445,0.457h-2.408V119.422z
	 M128.17,140.973c2.098,0,4.008-0.252,5.73-0.756s3.195-1.274,4.42-2.312s2.172-2.347,2.84-3.929s1.002-3.445,1.002-5.59
	c0-4.395-1.219-7.649-3.656-9.765s-6.053-3.173-10.846-3.173h-4.359c-0.832,0-1.533,0.088-2.102,0.264s-1.027,0.445-1.379,0.809
	s-0.604,0.832-0.756,1.406s-0.229,1.254-0.229,2.039v16.523c0,0.562,0.047,1.11,0.141,1.644s0.264,1.011,0.51,1.433
	s0.576,0.762,0.992,1.02s0.941,0.387,1.574,0.387H128.17z"/>
<path fill="#2C3553" d="M161.075,122.868c-0.527-1.383-1.008-2.549-1.441-3.498s-0.891-1.714-1.371-2.294s-1.02-0.996-1.617-1.248
	s-1.318-0.378-2.162-0.378c-0.902,0-1.67,0.161-2.303,0.483s-1.192,0.8-1.679,1.433s-0.932,1.409-1.336,2.329
	s-0.829,1.978-1.274,3.173l-4.729,12.779c-0.082,0.211-0.17,0.431-0.264,0.659s-0.182,0.46-0.264,0.694s-0.149,0.46-0.202,0.677
	s-0.079,0.413-0.079,0.589c0,0.434,0.079,0.817,0.237,1.151s0.372,0.615,0.642,0.844s0.583,0.404,0.94,0.527
	s0.735,0.185,1.134,0.185c0.457,0,0.855-0.062,1.195-0.185s0.642-0.322,0.905-0.598s0.504-0.642,0.721-1.099s0.431-1.02,0.642-1.688
	l0.721-2.232h9.949l0.844,2.232c0.246,0.656,0.478,1.21,0.694,1.661s0.454,0.817,0.712,1.099s0.551,0.486,0.879,0.615
	s0.721,0.193,1.178,0.193c0.398,0,0.776-0.062,1.134-0.185s0.671-0.299,0.94-0.527s0.483-0.51,0.642-0.844s0.237-0.718,0.237-1.151
	c0-0.176-0.026-0.372-0.079-0.589s-0.12-0.442-0.202-0.677s-0.17-0.466-0.264-0.694s-0.182-0.448-0.264-0.659L161.075,122.868z
	 M154.518,120.248l3.85,11.303h-7.805l3.867-11.303H154.518z"/>
<path fill="#2C3553" d="M172.302,120.09v17.455c0,0.48,0.085,0.929,0.255,1.345s0.401,0.779,0.694,1.09s0.636,0.554,1.028,0.729
	s0.817,0.264,1.274,0.264s0.882-0.088,1.274-0.264s0.738-0.419,1.037-0.729s0.533-0.674,0.703-1.09s0.255-0.864,0.255-1.345V120.09
	h4.711c0.34,0,0.662-0.062,0.967-0.185s0.571-0.29,0.8-0.501s0.41-0.457,0.545-0.738s0.202-0.58,0.202-0.896
	s-0.067-0.618-0.202-0.905s-0.316-0.536-0.545-0.747s-0.495-0.378-0.8-0.501s-0.627-0.185-0.967-0.185h-16.049
	c-0.34,0-0.662,0.062-0.967,0.185s-0.571,0.29-0.8,0.501s-0.41,0.46-0.545,0.747s-0.202,0.589-0.202,0.905s0.067,0.615,0.202,0.896
	s0.316,0.527,0.545,0.738s0.495,0.378,0.8,0.501s0.627,0.185,0.967,0.185H172.302z"/>
<path fill="#2C3553" d="M202.883,122.868c-0.527-1.383-1.008-2.549-1.441-3.498s-0.891-1.714-1.371-2.294s-1.02-0.996-1.617-1.248
	s-1.318-0.378-2.162-0.378c-0.902,0-1.67,0.161-2.303,0.483s-1.192,0.8-1.679,1.433s-0.932,1.409-1.336,2.329
	s-0.829,1.978-1.274,3.173l-4.729,12.779c-0.082,0.211-0.17,0.431-0.264,0.659s-0.182,0.46-0.264,0.694s-0.149,0.46-0.202,0.677
	s-0.079,0.413-0.079,0.589c0,0.434,0.079,0.817,0.237,1.151s0.372,0.615,0.642,0.844s0.583,0.404,0.94,0.527
	s0.735,0.185,1.134,0.185c0.457,0,0.855-0.062,1.195-0.185s0.642-0.322,0.905-0.598s0.504-0.642,0.721-1.099s0.431-1.02,0.642-1.688
	l0.721-2.232h9.949l0.844,2.232c0.246,0.656,0.478,1.21,0.694,1.661s0.454,0.817,0.712,1.099s0.551,0.486,0.879,0.615
	s0.721,0.193,1.178,0.193c0.398,0,0.776-0.062,1.134-0.185s0.671-0.299,0.94-0.527s0.483-0.51,0.642-0.844s0.237-0.718,0.237-1.151
	c0-0.176-0.026-0.372-0.079-0.589s-0.12-0.442-0.202-0.677s-0.17-0.466-0.264-0.694s-0.182-0.448-0.264-0.659L202.883,122.868z
	 M196.327,120.248l3.85,11.303h-7.805l3.867-11.303H196.327z"/>
<path fill="#2C3553" d="M196.183,156.864c0.264-0.34,0.609-0.618,1.037-0.835s0.914-0.375,1.459-0.475s1.099-0.149,1.661-0.149
	c0.598,0,1.146,0.029,1.644,0.088s0.981,0.152,1.45,0.281s0.94,0.293,1.415,0.492s0.987,0.439,1.538,0.721
	c0.293,0.152,0.615,0.229,0.967,0.229c0.27,0,0.53-0.05,0.782-0.149s0.472-0.237,0.659-0.413s0.337-0.387,0.448-0.633
	s0.167-0.516,0.167-0.809c0-0.504-0.149-0.961-0.448-1.371s-0.694-0.776-1.187-1.099s-1.058-0.604-1.696-0.844
	s-1.304-0.437-1.995-0.589s-1.383-0.267-2.074-0.343s-1.33-0.114-1.916-0.114c-1.617,0-3.073,0.182-4.368,0.545
	s-2.396,0.879-3.305,1.547s-1.605,1.477-2.092,2.426s-0.729,2.01-0.729,3.182c0,0.891,0.114,1.673,0.343,2.347
	s0.583,1.274,1.063,1.802s1.102,1.002,1.863,1.424s1.676,0.826,2.742,1.213l1.652,0.58c0.141,0.047,0.264,0.091,0.369,0.132
	s0.214,0.082,0.325,0.123s0.237,0.082,0.378,0.123s0.311,0.085,0.51,0.132l0.914,0.264c0.164,0.047,0.316,0.097,0.457,0.149
	s0.287,0.103,0.439,0.149l0.791,0.281c0.363,0.129,0.709,0.278,1.037,0.448s0.615,0.369,0.861,0.598s0.439,0.495,0.58,0.8
	s0.211,0.65,0.211,1.037c0,0.516-0.117,0.955-0.352,1.318s-0.554,0.659-0.958,0.888s-0.873,0.398-1.406,0.51
	s-1.099,0.167-1.696,0.167c-1.102,0-2.156-0.146-3.164-0.439s-1.916-0.621-2.725-0.984c-0.246-0.094-0.478-0.199-0.694-0.316
	s-0.428-0.226-0.633-0.325s-0.407-0.185-0.606-0.255s-0.404-0.105-0.615-0.105c-0.234,0-0.472,0.07-0.712,0.211
	s-0.457,0.325-0.65,0.554s-0.352,0.483-0.475,0.765s-0.185,0.568-0.185,0.861c0,0.457,0.146,0.888,0.439,1.292
	s0.697,0.776,1.213,1.116s1.119,0.645,1.811,0.914s1.43,0.498,2.215,0.686s1.6,0.331,2.443,0.431s1.682,0.149,2.514,0.149
	c1.617,0,3.073-0.185,4.368-0.554s2.399-0.899,3.313-1.591s1.614-1.529,2.101-2.514s0.729-2.092,0.729-3.322
	c0-1.125-0.196-2.089-0.589-2.892s-0.949-1.497-1.67-2.083s-1.588-1.09-2.602-1.512s-2.142-0.82-3.384-1.195
	c-0.773-0.223-1.541-0.439-2.303-0.65s-1.444-0.457-2.048-0.738s-1.093-0.615-1.468-1.002s-0.562-0.861-0.562-1.424
	C195.787,157.62,195.919,157.204,196.183,156.864z M172.083,156.864c0.264-0.34,0.609-0.618,1.037-0.835s0.914-0.375,1.459-0.475
	s1.099-0.149,1.661-0.149c0.598,0,1.146,0.029,1.644,0.088s0.981,0.152,1.45,0.281s0.94,0.293,1.415,0.492s0.987,0.439,1.538,0.721
	c0.293,0.152,0.615,0.229,0.967,0.229c0.27,0,0.53-0.05,0.782-0.149s0.472-0.237,0.659-0.413s0.337-0.387,0.448-0.633
	s0.167-0.516,0.167-0.809c0-0.504-0.149-0.961-0.448-1.371s-0.694-0.776-1.187-1.099s-1.058-0.604-1.696-0.844
	s-1.304-0.437-1.995-0.589s-1.383-0.267-2.074-0.343s-1.33-0.114-1.916-0.114c-1.617,0-3.073,0.182-4.368,0.545
	s-2.396,0.879-3.305,1.547s-1.605,1.477-2.092,2.426s-0.729,2.01-0.729,3.182c0,0.891,0.114,1.673,0.343,2.347
	s0.583,1.274,1.063,1.802s1.102,1.002,1.863,1.424s1.676,0.826,2.742,1.213l1.652,0.58c0.141,0.047,0.264,0.091,0.369,0.132
	s0.214,0.082,0.325,0.123s0.237,0.082,0.378,0.123s0.311,0.085,0.51,0.132l0.914,0.264c0.164,0.047,0.316,0.097,0.457,0.149
	s0.287,0.103,0.439,0.149l0.791,0.281c0.363,0.129,0.709,0.278,1.037,0.448s0.615,0.369,0.861,0.598s0.439,0.495,0.58,0.8
	s0.211,0.65,0.211,1.037c0,0.516-0.117,0.955-0.352,1.318s-0.554,0.659-0.958,0.888s-0.873,0.398-1.406,0.51
	s-1.099,0.167-1.696,0.167c-1.102,0-2.156-0.146-3.164-0.439s-1.916-0.621-2.725-0.984c-0.246-0.094-0.478-0.199-0.694-0.316
	s-0.428-0.226-0.633-0.325s-0.407-0.185-0.606-0.255s-0.404-0.105-0.615-0.105c-0.234,0-0.472,0.07-0.712,0.211
	s-0.457,0.325-0.65,0.554s-0.352,0.483-0.475,0.765s-0.185,0.568-0.185,0.861c0,0.457,0.146,0.888,0.439,1.292
	s0.697,0.776,1.213,1.116s1.119,0.645,1.811,0.914s1.43,0.498,2.215,0.686s1.6,0.331,2.443,0.431s1.682,0.149,2.514,0.149
	c1.617,0,3.073-0.185,4.368-0.554s2.399-0.899,3.313-1.591s1.614-1.529,2.101-2.514s0.729-2.092,0.729-3.322
	c0-1.125-0.196-2.089-0.589-2.892s-0.949-1.497-1.67-2.083s-1.588-1.09-2.602-1.512s-2.142-0.82-3.384-1.195
	c-0.773-0.223-1.541-0.439-2.303-0.65s-1.444-0.457-2.048-0.738s-1.093-0.615-1.468-1.002s-0.562-0.861-0.562-1.424
	C171.688,157.62,171.82,157.204,172.083,156.864z M137.665,169.731c0.545,1.641,1.351,3.044,2.417,4.21s2.382,2.065,3.946,2.698
	s3.36,0.949,5.388,0.949c2.074,0,3.896-0.328,5.467-0.984s2.883-1.573,3.938-2.751s1.846-2.587,2.373-4.228s0.791-3.439,0.791-5.396
	c0-1.992-0.27-3.809-0.809-5.449s-1.336-3.05-2.391-4.228s-2.367-2.089-3.938-2.733s-3.381-0.967-5.432-0.967
	c-2.109,0-3.949,0.334-5.52,1.002s-2.877,1.594-3.92,2.777s-1.825,2.596-2.347,4.236s-0.782,3.428-0.782,5.361
	C136.848,166.256,137.12,168.09,137.665,169.731z M144.029,160.476c0.229-1.096,0.577-2.019,1.046-2.769s1.063-1.321,1.784-1.714
	s1.573-0.589,2.558-0.589c0.996,0,1.854,0.196,2.575,0.589s1.315,0.964,1.784,1.714s0.817,1.673,1.046,2.769
	s0.343,2.347,0.343,3.753c0,2.918-0.475,5.115-1.424,6.592s-2.391,2.215-4.324,2.215c-1.969,0-3.416-0.741-4.342-2.224
	s-1.389-3.677-1.389-6.583C143.686,162.823,143.8,161.572,144.029,160.476z M123.418,172.297l-0.018-17.438
	c0-0.48-0.085-0.929-0.255-1.345s-0.404-0.779-0.703-1.09s-0.645-0.554-1.037-0.729s-0.817-0.264-1.274-0.264
	s-0.882,0.088-1.274,0.264s-0.735,0.419-1.028,0.729s-0.524,0.674-0.694,1.09s-0.255,0.864-0.255,1.345v17.314
	c0,0.598,0.05,1.184,0.149,1.758s0.275,1.087,0.527,1.538s0.589,0.814,1.011,1.09s0.949,0.413,1.582,0.413h12.041
	c0.316,0,0.618-0.062,0.905-0.185s0.536-0.29,0.747-0.501s0.378-0.46,0.501-0.747s0.185-0.589,0.185-0.905s-0.062-0.618-0.185-0.905
	s-0.29-0.536-0.501-0.747s-0.46-0.378-0.747-0.501s-0.589-0.185-0.905-0.185H123.418z"/>
<path fill="#2C3553" d="M210.096,198.383v-6.996h2.654c0.715,0,1.403,0.026,2.065,0.079s1.245,0.19,1.749,0.413
	s0.908,0.557,1.213,1.002s0.457,1.113,0.457,2.004c0,0.773-0.158,1.392-0.475,1.854s-0.729,0.814-1.239,1.055
	s-1.081,0.398-1.714,0.475s-1.266,0.114-1.898,0.114H210.096z M210.202,202.461h3.568c0.867,0,1.55,0.088,2.048,0.264
	s0.882,0.475,1.151,0.896s0.466,0.976,0.589,1.661s0.243,1.538,0.36,2.558c0.082,0.703,0.19,1.362,0.325,1.978
	s0.331,1.157,0.589,1.626s0.583,0.838,0.976,1.107s0.882,0.404,1.468,0.404c0.645,0,1.172-0.085,1.582-0.255
	s0.732-0.407,0.967-0.712s0.398-0.668,0.492-1.09s0.141-0.885,0.141-1.389c0-0.234-0.006-0.472-0.018-0.712
	s-0.029-0.489-0.053-0.747c-0.082-0.926-0.17-1.755-0.264-2.487s-0.217-1.386-0.369-1.96s-0.346-1.072-0.58-1.494
	s-0.539-0.782-0.914-1.081s-0.829-0.539-1.362-0.721s-1.175-0.319-1.925-0.413v-0.07c1.043-0.176,1.925-0.448,2.646-0.817
	s1.304-0.814,1.749-1.336s0.768-1.107,0.967-1.758s0.299-1.339,0.299-2.065c0-1.336-0.272-2.42-0.817-3.252s-1.271-1.482-2.18-1.951
	s-1.96-0.788-3.155-0.958s-2.443-0.255-3.744-0.255h-7.049c-0.539,0-1.052,0.067-1.538,0.202s-0.911,0.337-1.274,0.606
	s-0.653,0.606-0.87,1.011s-0.325,0.876-0.325,1.415v18.879c0,0.48,0.085,0.929,0.255,1.345s0.401,0.779,0.694,1.09
	s0.636,0.554,1.028,0.729s0.817,0.264,1.274,0.264s0.882-0.088,1.274-0.264s0.738-0.419,1.037-0.729s0.533-0.674,0.703-1.09
	s0.255-0.864,0.255-1.345V202.461z M175.036,205.731c0.545,1.641,1.351,3.044,2.417,4.21s2.382,2.065,3.946,2.698
	s3.36,0.949,5.388,0.949c2.074,0,3.896-0.328,5.467-0.984s2.883-1.573,3.938-2.751s1.846-2.587,2.373-4.228s0.791-3.439,0.791-5.396
	c0-1.992-0.27-3.809-0.809-5.449s-1.336-3.05-2.391-4.228s-2.367-2.089-3.938-2.733s-3.381-0.967-5.432-0.967
	c-2.109,0-3.949,0.334-5.52,1.002s-2.877,1.594-3.92,2.777s-1.825,2.596-2.347,4.236s-0.782,3.428-0.782,5.361
	C174.219,202.256,174.492,204.09,175.036,205.731z M181.4,196.476c0.229-1.096,0.577-2.019,1.046-2.769s1.063-1.321,1.784-1.714
	s1.573-0.589,2.558-0.589c0.996,0,1.854,0.196,2.575,0.589s1.315,0.964,1.784,1.714s0.817,1.673,1.046,2.769
	s0.343,2.347,0.343,3.753c0,2.918-0.475,5.115-1.424,6.592s-2.391,2.215-4.324,2.215c-1.969,0-3.416-0.741-4.342-2.224
	s-1.389-3.677-1.389-6.583C181.057,198.823,181.171,197.572,181.4,196.476z M156.535,198.383v-6.996h2.654
	c0.715,0,1.403,0.026,2.065,0.079s1.245,0.19,1.749,0.413s0.908,0.557,1.213,1.002s0.457,1.113,0.457,2.004
	c0,0.773-0.158,1.392-0.475,1.854s-0.729,0.814-1.239,1.055s-1.081,0.398-1.714,0.475s-1.266,0.114-1.898,0.114H156.535z
	 M156.641,202.461h3.568c0.867,0,1.55,0.088,2.048,0.264s0.882,0.475,1.151,0.896s0.466,0.976,0.589,1.661s0.243,1.538,0.36,2.558
	c0.082,0.703,0.19,1.362,0.325,1.978s0.331,1.157,0.589,1.626s0.583,0.838,0.976,1.107s0.882,0.404,1.468,0.404
	c0.645,0,1.172-0.085,1.582-0.255s0.732-0.407,0.967-0.712s0.398-0.668,0.492-1.09s0.141-0.885,0.141-1.389
	c0-0.234-0.006-0.472-0.018-0.712s-0.029-0.489-0.053-0.747c-0.082-0.926-0.17-1.755-0.264-2.487s-0.217-1.386-0.369-1.96
	s-0.346-1.072-0.58-1.494s-0.539-0.782-0.914-1.081s-0.829-0.539-1.362-0.721s-1.175-0.319-1.925-0.413v-0.07
	c1.043-0.176,1.925-0.448,2.646-0.817s1.304-0.814,1.749-1.336s0.768-1.107,0.967-1.758s0.299-1.339,0.299-2.065
	c0-1.336-0.272-2.42-0.817-3.252s-1.271-1.482-2.18-1.951s-1.96-0.788-3.155-0.958s-2.443-0.255-3.744-0.255h-7.049
	c-0.539,0-1.052,0.067-1.538,0.202s-0.911,0.337-1.274,0.606s-0.653,0.606-0.87,1.011s-0.325,0.876-0.325,1.415v18.879
	c0,0.48,0.085,0.929,0.255,1.345s0.401,0.779,0.694,1.09s0.636,0.554,1.028,0.729s0.817,0.264,1.274,0.264s0.882-0.088,1.274-0.264
	s0.738-0.419,1.037-0.729s0.533-0.674,0.703-1.09s0.255-0.864,0.255-1.345V202.461z M130.801,198.383v-6.996h2.654
	c0.715,0,1.403,0.026,2.065,0.079s1.245,0.19,1.749,0.413s0.908,0.557,1.213,1.002s0.457,1.113,0.457,2.004
	c0,0.773-0.158,1.392-0.475,1.854s-0.729,0.814-1.239,1.055s-1.081,0.398-1.714,0.475s-1.266,0.114-1.898,0.114H130.801z
	 M130.907,202.461h3.568c0.867,0,1.55,0.088,2.048,0.264s0.882,0.475,1.151,0.896s0.466,0.976,0.589,1.661s0.243,1.538,0.36,2.558
	c0.082,0.703,0.19,1.362,0.325,1.978s0.331,1.157,0.589,1.626s0.583,0.838,0.976,1.107s0.882,0.404,1.468,0.404
	c0.645,0,1.172-0.085,1.582-0.255s0.732-0.407,0.967-0.712s0.398-0.668,0.492-1.09s0.141-0.885,0.141-1.389
	c0-0.234-0.006-0.472-0.018-0.712s-0.029-0.489-0.053-0.747c-0.082-0.926-0.17-1.755-0.264-2.487s-0.217-1.386-0.369-1.96
	s-0.346-1.072-0.58-1.494s-0.539-0.782-0.914-1.081s-0.829-0.539-1.362-0.721s-1.175-0.319-1.925-0.413v-0.07
	c1.043-0.176,1.925-0.448,2.646-0.817s1.304-0.814,1.749-1.336s0.768-1.107,0.967-1.758s0.299-1.339,0.299-2.065
	c0-1.336-0.272-2.42-0.817-3.252s-1.271-1.482-2.18-1.951s-1.96-0.788-3.155-0.958s-2.443-0.255-3.744-0.255h-7.049
	c-0.539,0-1.052,0.067-1.538,0.202s-0.911,0.337-1.274,0.606s-0.653,0.606-0.87,1.011s-0.325,0.876-0.325,1.415v18.879
	c0,0.48,0.085,0.929,0.255,1.345s0.401,0.779,0.694,1.09s0.636,0.554,1.028,0.729s0.817,0.264,1.274,0.264s0.882-0.088,1.274-0.264
	s0.738-0.419,1.037-0.729s0.533-0.674,0.703-1.09s0.255-0.864,0.255-1.345V202.461z M117.811,212.973
	c0.316,0,0.612-0.059,0.888-0.176s0.519-0.278,0.729-0.483s0.375-0.445,0.492-0.721s0.176-0.571,0.176-0.888
	s-0.059-0.612-0.176-0.888s-0.281-0.519-0.492-0.729s-0.454-0.375-0.729-0.492s-0.571-0.176-0.888-0.176h-9.492v-6.152h8.262
	c0.34,0,0.659-0.059,0.958-0.176s0.56-0.278,0.782-0.483s0.398-0.445,0.527-0.721s0.193-0.571,0.193-0.888s-0.064-0.612-0.193-0.888
	s-0.305-0.519-0.527-0.729s-0.483-0.375-0.782-0.492s-0.618-0.176-0.958-0.176h-8.262v-5.695h9.053c0.34,0,0.659-0.059,0.958-0.176
	s0.56-0.278,0.782-0.483s0.398-0.445,0.527-0.721s0.193-0.571,0.193-0.888s-0.064-0.615-0.193-0.896s-0.305-0.524-0.527-0.729
	s-0.483-0.369-0.782-0.492s-0.618-0.185-0.958-0.185h-11.285c-0.914,0-1.641,0.117-2.18,0.352s-0.949,0.557-1.23,0.967
	s-0.463,0.899-0.545,1.468s-0.123,1.187-0.123,1.854v16.752c0,0.492,0.053,0.984,0.158,1.477s0.281,0.935,0.527,1.327
	s0.571,0.712,0.976,0.958s0.905,0.369,1.503,0.369H117.811z"/>
</svg>
