<?xml version="1.0" encoding="utf-8"?>
<!-- Generator: Adobe Illustrator 17.0.0, SVG Export Plug-In . SVG Version: 6.00 Build 0)  -->
<!DOCTYPE svg PUBLIC "-//W3C//DTD SVG 1.1//EN" "http://www.w3.org/Graphics/SVG/1.1/DTD/svg11.dtd">
<svg version="1.1" id="Layer_1" xmlns="http://www.w3.org/2000/svg" xmlns:xlink="http://www.w3.org/1999/xlink" x="0px" y="0px"
	 width="229.008px" height="103.824px" viewBox="0 0 229.008 103.824" enable-background="new 0 0 229.008 103.824"
	 xml:space="preserve">
<path fill="#010101" d="M229.008,95.649c0,4.497-3.679,8.176-8.176,8.176H8.176c-4.497,0-8.176-3.679-8.176-8.176V16.351
	c0-4.497,3.679-8.176,8.176-8.176h212.657c4.497,0,8.176,3.679,8.176,8.176V95.649z"/>
<rect x="16.351" y="24.526" fill="#010101" width="196.306" height="62.947"/>
<path fill="#2C3553" d="M229.008,87.473c0,4.497-3.679,8.176-8.176,8.176H8.176C3.679,95.649,0,91.97,0,87.473V8.176
	C0,3.679,3.679,0,8.176,0h212.657c4.497,0,8.176,3.679,8.176,8.176V87.473z"/>
<rect x="8.176" y="8.175" opacity="0.5" fill="none" stroke="#FFFFFF" stroke-miterlimit="10" width="212.657" height="79.298"/>
<rect x="16.351" y="16.351" fill="#010101" width="196.306" height="62.947"/>
</svg>
