<?xml version="1.0" encoding="utf-8"?>
<!-- Generator: Adobe Illustrator 17.0.0, SVG Export Plug-In . SVG Version: 6.00 Build 0)  -->
<!DOCTYPE svg PUBLIC "-//W3C//DTD SVG 1.1//EN" "http://www.w3.org/Graphics/SVG/1.1/DTD/svg11.dtd">
<svg version="1.1" id="Layer_1" xmlns="http://www.w3.org/2000/svg" xmlns:xlink="http://www.w3.org/1999/xlink" x="0px" y="0px"
	 width="447.71px" height="95.071px" viewBox="0 0 447.71 95.071" enable-background="new 0 0 447.71 95.071" xml:space="preserve">
<text transform="matrix(1 0 0 1 29.9682 60.8509)" fill="#FFFFFF" font-family="'Nunito-Bold'" font-size="38">B</text>
<text transform="matrix(1 0 0 1 54.6616 60.8509)" fill="#FFFFFF" font-family="'Nunito-Bold'" font-size="38">R</text>
<text transform="matrix(1 0 0 1 79.3569 60.8509)" fill="#FFFFFF" font-family="'Nunito-Bold'" font-size="38">O</text>
<text transform="matrix(1 0 0 1 106.7964 60.8509)"><tspan x="0" y="0" fill="#FFFFFF" font-family="'Nunito-Bold'" font-size="38">UG</tspan><tspan x="56.011" y="0" fill="#FFFFFF" font-family="'Nunito-Bold'" font-size="38" letter-spacing="-2">H</tspan><tspan x="82.791" y="0" fill="#FFFFFF" font-family="'Nunito-Bold'" font-size="38">T</tspan><tspan x="104.812" y="0" fill="#FFFFFF" font-family="'Nunito-Bold'" font-size="38"> </tspan></text>
<text transform="matrix(1 0 0 1 218.9966 60.8509)" fill="#FFFFFF" font-family="'Nunito-Bold'" font-size="38">T</text>
<text transform="matrix(1 0 0 1 239.3452 60.8509)"><tspan x="0" y="0" fill="#FFFFFF" font-family="'Nunito-Bold'" font-size="38">O</tspan><tspan x="28.96" y="0" fill="#FFFFFF" font-family="'Nunito-Bold'" font-size="38"> </tspan></text>
<text transform="matrix(1 0 0 1 275.7798 60.8509)" fill="#FFFFFF" font-family="'Nunito-Bold'" font-size="38">Y</text>
<text transform="matrix(1 0 0 1 297.979 60.8509)" fill="#FFFFFF" font-family="'Nunito-Bold'" font-size="38">O</text>
<text transform="matrix(1 0 0 1 326.1792 60.8509)"><tspan x="0" y="0" fill="#FFFFFF" font-family="'Nunito-Bold'" font-size="38">U</tspan><tspan x="27.605" y="0" fill="#FFFFFF" font-family="'Nunito-Bold'" font-size="38"> </tspan></text>
<text transform="matrix(1 0 0 1 364.8764 60.8509)" fill="#FFFFFF" font-family="'Nunito-Bold'" font-size="38">B</text>
<text transform="matrix(1 0 0 1 388.4692 60.8509)" fill="#FFFFFF" font-family="'Nunito-Bold'" font-size="38">Y</text>
<rect x="5.606" y="5.535" fill="none" stroke="#FFFFFF" stroke-width="4" stroke-linecap="round" stroke-linejoin="round" stroke-miterlimit="10" width="436.498" height="84"/>
<circle fill="#FFFFFF" cx="441.043" cy="6.667" r="6.667"/>
<circle fill="#FFFFFF" cx="6.667" cy="6.667" r="6.667"/>
<circle fill="#FFFFFF" cx="441.043" cy="88.404" r="6.667"/>
<circle fill="#FFFFFF" cx="6.667" cy="88.404" r="6.667"/>
</svg>
