<?xml version="1.0" encoding="utf-8"?>
<!-- Generator: Adobe Illustrator 17.0.0, SVG Export Plug-In . SVG Version: 6.00 Build 0)  -->
<!DOCTYPE svg PUBLIC "-//W3C//DTD SVG 1.1//EN" "http://www.w3.org/Graphics/SVG/1.1/DTD/svg11.dtd">
<svg version="1.1" id="Layer_1" xmlns="http://www.w3.org/2000/svg" xmlns:xlink="http://www.w3.org/1999/xlink" x="0px" y="0px"
	 width="447.71px" height="95.071px" viewBox="0 0 447.71 95.071" enable-background="new 0 0 447.71 95.071" xml:space="preserve">
<path fill="#FFFFFF" d="M42.381,38.066c0.717,0,1.397,0.047,2.041,0.139c0.643,0.094,1.206,0.27,1.688,0.529
	s0.863,0.621,1.141,1.086c0.278,0.463,0.417,1.073,0.417,1.827c0,0.755-0.143,1.376-0.427,1.864
	c-0.285,0.489-0.677,0.876-1.178,1.16c-0.501,0.285-1.101,0.482-1.8,0.594c-0.699,0.111-1.457,0.167-2.273,0.167h-2.653v-7.366
	H42.381z M39.338,48.809h2.895c0.94,0,1.793,0.056,2.561,0.167c0.767,0.111,1.422,0.312,1.967,0.604
	c0.544,0.29,0.965,0.684,1.262,1.178c0.297,0.495,0.445,1.132,0.445,1.911c0,0.842-0.13,1.524-0.39,2.05
	c-0.26,0.526-0.644,0.938-1.15,1.234c-0.507,0.297-1.138,0.495-1.893,0.594c-0.755,0.1-1.627,0.148-2.616,0.148h-3.08V48.809z
	 M32.789,56.082c0,1.027,0.093,1.853,0.278,2.478c0.186,0.624,0.46,1.106,0.826,1.447c0.365,0.34,0.813,0.565,1.345,0.677
	c0.532,0.111,1.15,0.167,1.855,0.167h8.721c1.62,0,3.021-0.213,4.203-0.641c1.181-0.426,2.155-0.985,2.922-1.679
	c0.767-0.692,1.336-1.487,1.707-2.384c0.371-0.897,0.557-1.815,0.557-2.756c0-0.854-0.143-1.651-0.427-2.394
	c-0.285-0.742-0.687-1.397-1.206-1.967c-0.52-0.568-1.154-1.042-1.902-1.419c-0.749-0.378-1.586-0.634-2.514-0.771v-0.074
	c0.767-0.136,1.466-0.393,2.097-0.771c0.631-0.377,1.175-0.837,1.633-1.382c0.458-0.544,0.81-1.153,1.058-1.827
	c0.247-0.675,0.371-1.376,0.371-2.106c0-1.088-0.167-2.013-0.501-2.774c-0.334-0.76-0.786-1.391-1.354-1.893
	c-0.569-0.5-1.231-0.891-1.985-1.168c-0.755-0.279-1.559-0.489-2.412-0.631c-0.854-0.143-1.726-0.229-2.616-0.26
	c-0.891-0.031-1.757-0.047-2.598-0.047h-5.752c-0.582,0-1.132,0.062-1.651,0.186c-0.52,0.124-0.974,0.315-1.364,0.575
	s-0.702,0.597-0.937,1.011c-0.235,0.415-0.353,0.913-0.353,1.494V56.082z"/>
<path fill="#FFFFFF" d="M64.31,45.451v-7.385h2.802c0.754,0,1.481,0.027,2.18,0.084c0.699,0.055,1.314,0.201,1.846,0.436
	c0.532,0.235,0.958,0.588,1.28,1.058c0.321,0.471,0.482,1.176,0.482,2.115c0,0.816-0.167,1.469-0.501,1.958
	c-0.334,0.488-0.77,0.859-1.308,1.113c-0.538,0.253-1.141,0.42-1.809,0.5c-0.668,0.081-1.336,0.121-2.004,0.121H64.31z
	 M64.421,49.755h3.767c0.915,0,1.636,0.093,2.162,0.278c0.525,0.186,0.931,0.501,1.215,0.946c0.284,0.445,0.492,1.029,0.622,1.754
	c0.13,0.723,0.256,1.623,0.38,2.699c0.086,0.742,0.201,1.438,0.343,2.088c0.142,0.648,0.349,1.222,0.622,1.716
	c0.272,0.495,0.615,0.885,1.03,1.169c0.414,0.285,0.931,0.427,1.549,0.427c0.68,0,1.237-0.09,1.67-0.269
	c0.433-0.18,0.773-0.43,1.021-0.752c0.247-0.321,0.42-0.705,0.52-1.15c0.099-0.445,0.148-0.934,0.148-1.466
	c0-0.247-0.006-0.498-0.019-0.751c-0.013-0.254-0.031-0.517-0.056-0.789c-0.087-0.977-0.18-1.853-0.278-2.625
	c-0.099-0.773-0.229-1.463-0.39-2.069c-0.161-0.605-0.365-1.132-0.612-1.577c-0.248-0.445-0.569-0.826-0.965-1.141
	c-0.396-0.316-0.875-0.569-1.438-0.762c-0.563-0.191-1.24-0.336-2.032-0.436v-0.074c1.101-0.186,2.032-0.473,2.792-0.863
	c0.761-0.389,1.376-0.859,1.846-1.41c0.47-0.55,0.81-1.168,1.021-1.855c0.21-0.686,0.315-1.412,0.315-2.18
	c0-1.41-0.288-2.554-0.863-3.433c-0.575-0.878-1.342-1.564-2.301-2.06c-0.959-0.494-2.069-0.832-3.331-1.012
	c-1.262-0.179-2.579-0.269-3.952-0.269h-7.44c-0.569,0-1.11,0.071-1.624,0.214c-0.514,0.142-0.962,0.355-1.345,0.64
	c-0.384,0.285-0.69,0.64-0.918,1.067c-0.229,0.426-0.343,0.925-0.343,1.493v19.928c0,0.508,0.089,0.98,0.269,1.419
	c0.179,0.439,0.423,0.823,0.733,1.15c0.309,0.328,0.671,0.585,1.085,0.771c0.414,0.186,0.863,0.278,1.345,0.278
	s0.931-0.093,1.345-0.278c0.414-0.186,0.779-0.442,1.095-0.771c0.315-0.327,0.562-0.711,0.742-1.15
	c0.179-0.438,0.269-0.911,0.269-1.419V49.755z"/>
<path fill="#FFFFFF" d="M81.908,53.206c0.575,1.732,1.425,3.213,2.551,4.443c1.125,1.231,2.514,2.181,4.166,2.849
	s3.547,1.002,5.687,1.002c2.189,0,4.113-0.347,5.771-1.039c1.657-0.692,3.043-1.661,4.156-2.903c1.113-1.244,1.948-2.73,2.505-4.463
	c0.557-1.731,0.835-3.63,0.835-5.696c0-2.103-0.285-4.02-0.854-5.752c-0.569-1.731-1.41-3.22-2.523-4.462
	c-1.113-1.244-2.499-2.205-4.156-2.886c-1.658-0.68-3.569-1.021-5.733-1.021c-2.227,0-4.169,0.353-5.826,1.058
	c-1.658,0.705-3.037,1.683-4.138,2.932c-1.101,1.25-1.927,2.74-2.477,4.472c-0.551,1.732-0.826,3.618-0.826,5.659
	C81.045,49.539,81.333,51.475,81.908,53.206z M88.625,43.437c0.241-1.156,0.609-2.13,1.104-2.922
	c0.495-0.791,1.123-1.395,1.883-1.809c0.761-0.415,1.661-0.622,2.7-0.622c1.051,0,1.958,0.207,2.718,0.622
	c0.761,0.414,1.388,1.018,1.883,1.809c0.495,0.792,0.863,1.766,1.104,2.922c0.241,1.157,0.362,2.478,0.362,3.962
	c0,3.08-0.501,5.399-1.503,6.958s-2.523,2.338-4.564,2.338c-2.078,0-3.606-0.782-4.583-2.348c-0.978-1.564-1.466-3.88-1.466-6.948
	C88.263,45.914,88.384,44.594,88.625,43.437z"/>
<path fill="#FFFFFF" d="M156.245,46.331c-1.188-0.006-2.394-0.009-3.618-0.009c-0.779,0-1.358,0.18-1.735,0.538
	c-0.377,0.359-0.566,0.823-0.566,1.392c0,0.371,0.068,0.684,0.204,0.937c0.136,0.254,0.325,0.458,0.566,0.613
	c0.241,0.154,0.522,0.266,0.844,0.334c0.321,0.067,0.674,0.102,1.058,0.102h2.486v6.067c-0.705,0.174-1.432,0.281-2.18,0.325
	c-0.749,0.043-1.494,0.064-2.236,0.064c-1.225,0-2.273-0.16-3.145-0.482c-0.872-0.321-1.586-0.841-2.143-1.559
	c-0.557-0.717-0.962-1.648-1.215-2.793c-0.254-1.144-0.38-2.538-0.38-4.184c0-1.484,0.142-2.82,0.427-4.008
	c0.284-1.188,0.736-2.195,1.354-3.024c0.618-0.828,1.413-1.463,2.384-1.901c0.971-0.439,2.137-0.659,3.498-0.659
	c0.557,0,1.172,0.071,1.846,0.214c0.674,0.142,1.336,0.303,1.985,0.482c0.649,0.179,1.258,0.34,1.828,0.482
	c0.569,0.142,1.026,0.213,1.373,0.213c0.692,0,1.274-0.197,1.744-0.594c0.47-0.396,0.705-0.977,0.705-1.744
	c0-0.47-0.136-0.906-0.408-1.309c-0.272-0.401-0.687-0.72-1.243-0.955c-0.557-0.234-1.166-0.451-1.828-0.649
	c-0.662-0.197-1.354-0.364-2.078-0.501c-0.724-0.136-1.475-0.244-2.254-0.324c-0.779-0.081-1.565-0.121-2.356-0.121
	c-2.437,0-4.546,0.371-6.327,1.113s-3.25,1.754-4.407,3.033c-1.157,1.281-2.017,2.777-2.579,4.49
	c-0.563,1.714-0.844,3.542-0.844,5.483c0,2.412,0.331,4.506,0.993,6.28c0.662,1.775,1.611,3.241,2.848,4.398
	c1.237,1.156,2.73,2.016,4.481,2.578c1.75,0.563,3.714,0.845,5.891,0.845c0.445,0,0.924-0.021,1.438-0.065
	c0.513-0.043,1.033-0.096,1.559-0.157c0.525-0.062,1.042-0.133,1.549-0.214c0.507-0.08,0.983-0.157,1.429-0.231
	c1.039-0.16,1.883-0.374,2.533-0.64c0.649-0.267,1.153-0.622,1.512-1.067c0.358-0.445,0.603-0.999,0.733-1.661
	c0.13-0.661,0.195-1.475,0.195-2.439v-5.529c0-0.52-0.028-0.977-0.083-1.373c-0.056-0.396-0.164-0.727-0.325-0.992
	c-0.161-0.267-0.393-0.465-0.696-0.594c-0.303-0.131-0.696-0.195-1.178-0.195C158.644,46.341,157.432,46.338,156.245,46.331z
	 M125.815,51.611c0,0.891-0.139,1.658-0.417,2.301c-0.278,0.644-0.64,1.169-1.085,1.577s-0.95,0.712-1.512,0.909
	c-0.563,0.198-1.141,0.297-1.735,0.297c-0.582,0-1.154-0.099-1.716-0.297c-0.563-0.197-1.064-0.501-1.503-0.909
	c-0.439-0.408-0.795-0.934-1.067-1.577c-0.272-0.643-0.408-1.41-0.408-2.301l-0.019-14.102c0-0.507-0.09-0.98-0.269-1.42
	c-0.18-0.438-0.427-0.822-0.742-1.15c-0.315-0.327-0.681-0.584-1.095-0.77c-0.415-0.186-0.863-0.278-1.345-0.278
	s-0.931,0.093-1.345,0.278c-0.415,0.186-0.776,0.442-1.085,0.77c-0.31,0.328-0.554,0.712-0.733,1.15
	c-0.18,0.439-0.269,0.913-0.269,1.42v14.213c0,1.658,0.291,3.099,0.872,4.323c0.581,1.225,1.388,2.239,2.421,3.043
	c1.033,0.805,2.257,1.407,3.674,1.81c1.416,0.401,2.959,0.603,4.629,0.603c1.694,0,3.253-0.204,4.676-0.612
	c1.422-0.408,2.65-1.021,3.683-1.837c1.033-0.816,1.837-1.834,2.412-3.052c0.575-1.219,0.863-2.645,0.863-4.277V37.509
	c0-0.507-0.09-0.98-0.269-1.42c-0.18-0.438-0.427-0.822-0.742-1.15c-0.315-0.327-0.681-0.584-1.095-0.77
	c-0.415-0.186-0.863-0.278-1.345-0.278s-0.931,0.093-1.345,0.278c-0.415,0.186-0.776,0.442-1.085,0.77
	c-0.31,0.328-0.554,0.712-0.733,1.15c-0.18,0.439-0.269,0.913-0.269,1.42V51.611z"/>
<path fill="#FFFFFF" d="M182.049,44.282h-9.556v-6.772c0-0.507-0.09-0.98-0.269-1.42c-0.18-0.438-0.427-0.822-0.742-1.15
	c-0.315-0.327-0.681-0.584-1.095-0.77c-0.415-0.186-0.863-0.278-1.345-0.278s-0.931,0.093-1.345,0.278
	c-0.415,0.186-0.776,0.442-1.085,0.77c-0.31,0.328-0.554,0.712-0.733,1.15c-0.18,0.439-0.269,0.913-0.269,1.42v19.724
	c0,0.508,0.089,0.98,0.269,1.419c0.179,0.439,0.423,0.823,0.733,1.15c0.309,0.328,0.671,0.585,1.085,0.771
	c0.414,0.186,0.863,0.278,1.345,0.278s0.931-0.093,1.345-0.278c0.414-0.186,0.779-0.442,1.095-0.771
	c0.315-0.327,0.562-0.711,0.742-1.15c0.179-0.438,0.269-0.911,0.269-1.419V49.57h9.556l0.019,7.663c0,0.508,0.089,0.98,0.269,1.419
	c0.179,0.439,0.423,0.823,0.733,1.15c0.309,0.328,0.671,0.585,1.085,0.771c0.414,0.186,0.863,0.278,1.345,0.278
	s0.931-0.093,1.345-0.278c0.414-0.186,0.779-0.442,1.095-0.771c0.315-0.327,0.562-0.711,0.742-1.15
	c0.179-0.438,0.269-0.911,0.269-1.419V37.509c0-0.507-0.09-0.98-0.269-1.42c-0.18-0.438-0.427-0.822-0.742-1.15
	c-0.315-0.327-0.681-0.584-1.095-0.77c-0.415-0.186-0.863-0.278-1.345-0.278s-0.931,0.093-1.345,0.278
	c-0.415,0.186-0.776,0.442-1.085,0.77c-0.31,0.328-0.557,0.712-0.742,1.15c-0.186,0.439-0.278,0.913-0.278,1.42V44.282z"/>
<path fill="#FFFFFF" d="M197.659,38.808v18.425c0,0.508,0.089,0.98,0.269,1.419c0.179,0.439,0.423,0.823,0.733,1.15
	c0.309,0.328,0.671,0.585,1.085,0.771c0.414,0.186,0.863,0.278,1.345,0.278s0.931-0.093,1.345-0.278
	c0.414-0.186,0.779-0.442,1.095-0.771c0.315-0.327,0.562-0.711,0.742-1.15c0.179-0.438,0.269-0.911,0.269-1.419V38.808h4.973
	c0.358,0,0.699-0.064,1.021-0.195c0.321-0.129,0.603-0.306,0.844-0.528s0.433-0.482,0.575-0.779
	c0.142-0.297,0.213-0.612,0.213-0.946s-0.071-0.652-0.213-0.955c-0.143-0.304-0.334-0.566-0.575-0.789s-0.523-0.398-0.844-0.529
	c-0.322-0.129-0.662-0.194-1.021-0.194h-16.94c-0.359,0-0.699,0.065-1.021,0.194c-0.322,0.131-0.603,0.307-0.844,0.529
	s-0.433,0.485-0.575,0.789c-0.143,0.303-0.213,0.621-0.213,0.955s0.071,0.649,0.213,0.946c0.142,0.297,0.334,0.557,0.575,0.779
	s0.522,0.399,0.844,0.528c0.321,0.131,0.662,0.195,1.021,0.195H197.659z"/>
<path fill="#FFFFFF" d="M227.068,38.808v18.425c0,0.508,0.089,0.98,0.269,1.419c0.179,0.439,0.423,0.823,0.733,1.15
	c0.309,0.328,0.671,0.585,1.085,0.771c0.414,0.186,0.863,0.278,1.345,0.278s0.931-0.093,1.345-0.278
	c0.414-0.186,0.779-0.442,1.095-0.771c0.315-0.327,0.562-0.711,0.742-1.15c0.179-0.438,0.269-0.911,0.269-1.419V38.808h4.973
	c0.358,0,0.699-0.064,1.021-0.195c0.321-0.129,0.603-0.306,0.844-0.528s0.433-0.482,0.575-0.779
	c0.142-0.297,0.213-0.612,0.213-0.946s-0.071-0.652-0.213-0.955c-0.143-0.304-0.334-0.566-0.575-0.789s-0.523-0.398-0.844-0.529
	c-0.322-0.129-0.662-0.194-1.021-0.194h-16.94c-0.359,0-0.699,0.065-1.021,0.194c-0.322,0.131-0.603,0.307-0.844,0.529
	s-0.433,0.485-0.575,0.789c-0.143,0.303-0.213,0.621-0.213,0.955s0.071,0.649,0.213,0.946c0.142,0.297,0.334,0.557,0.575,0.779
	s0.522,0.399,0.844,0.528c0.321,0.131,0.662,0.195,1.021,0.195H227.068z"/>
<path fill="#FFFFFF" d="M241.896,53.206c0.575,1.732,1.425,3.213,2.551,4.443c1.125,1.231,2.514,2.181,4.166,2.849
	S252.16,61.5,254.3,61.5c2.189,0,4.113-0.347,5.77-1.039c1.657-0.692,3.043-1.661,4.156-2.903c1.113-1.244,1.948-2.73,2.505-4.463
	c0.557-1.731,0.835-3.63,0.835-5.696c0-2.103-0.285-4.02-0.854-5.752c-0.569-1.731-1.41-3.22-2.523-4.462
	c-1.113-1.244-2.499-2.205-4.156-2.886c-1.658-0.68-3.569-1.021-5.733-1.021c-2.227,0-4.169,0.353-5.826,1.058
	c-1.658,0.705-3.037,1.683-4.138,2.932c-1.101,1.25-1.927,2.74-2.477,4.472c-0.551,1.732-0.826,3.618-0.826,5.659
	C241.034,49.539,241.321,51.475,241.896,53.206z M248.613,43.437c0.241-1.156,0.609-2.13,1.104-2.922
	c0.495-0.791,1.123-1.395,1.883-1.809c0.761-0.415,1.661-0.622,2.7-0.622c1.051,0,1.958,0.207,2.718,0.622
	c0.761,0.414,1.388,1.018,1.883,1.809c0.495,0.792,0.863,1.766,1.104,2.922c0.241,1.157,0.362,2.478,0.362,3.962
	c0,3.08-0.501,5.399-1.503,6.958s-2.523,2.338-4.564,2.338c-2.078,0-3.606-0.782-4.583-2.348c-0.978-1.564-1.466-3.88-1.466-6.948
	C248.251,45.914,248.372,44.594,248.613,43.437z"/>
<path fill="#FFFFFF" d="M292.164,50.423l7.106-11.819c0.235-0.383,0.402-0.751,0.501-1.104c0.099-0.352,0.148-0.688,0.148-1.011
	c0-0.383-0.068-0.735-0.204-1.058c-0.136-0.321-0.322-0.594-0.557-0.816c-0.235-0.223-0.51-0.396-0.826-0.52
	c-0.315-0.123-0.646-0.186-0.993-0.186c-0.582,0-1.157,0.18-1.726,0.538c-0.569,0.359-1.064,0.946-1.484,1.763l-5.084,9.778h-0.074
	l-4.88-9.704c-0.408-0.854-0.909-1.466-1.503-1.837s-1.188-0.557-1.781-0.557c-0.396,0-0.776,0.074-1.141,0.223
	c-0.365,0.148-0.687,0.359-0.965,0.631c-0.278,0.272-0.501,0.597-0.668,0.974c-0.167,0.378-0.25,0.796-0.25,1.253
	c0,0.347,0.049,0.702,0.148,1.067c0.099,0.364,0.266,0.739,0.501,1.122l6.81,11.374v6.698c0,0.508,0.089,0.98,0.269,1.419
	c0.179,0.439,0.423,0.823,0.733,1.15c0.309,0.328,0.671,0.585,1.085,0.771c0.414,0.186,0.863,0.278,1.345,0.278
	s0.931-0.093,1.345-0.278c0.414-0.186,0.779-0.442,1.095-0.771c0.315-0.327,0.566-0.711,0.751-1.15
	c0.186-0.438,0.284-0.911,0.297-1.419V50.423z"/>
<path fill="#FFFFFF" d="M300.53,53.206c0.575,1.732,1.425,3.213,2.551,4.443c1.125,1.231,2.514,2.181,4.166,2.849
	s3.547,1.002,5.687,1.002c2.189,0,4.113-0.347,5.771-1.039c1.657-0.692,3.043-1.661,4.156-2.903c1.113-1.244,1.948-2.73,2.505-4.463
	c0.557-1.731,0.835-3.63,0.835-5.696c0-2.103-0.285-4.02-0.854-5.752c-0.569-1.731-1.41-3.22-2.523-4.462
	c-1.113-1.244-2.499-2.205-4.156-2.886c-1.658-0.68-3.569-1.021-5.733-1.021c-2.227,0-4.169,0.353-5.826,1.058
	c-1.658,0.705-3.037,1.683-4.138,2.932c-1.101,1.25-1.927,2.74-2.477,4.472c-0.551,1.732-0.826,3.618-0.826,5.659
	C299.667,49.539,299.955,51.475,300.53,53.206z M307.247,43.437c0.241-1.156,0.609-2.13,1.104-2.922
	c0.495-0.791,1.123-1.395,1.883-1.809c0.761-0.415,1.661-0.622,2.7-0.622c1.051,0,1.958,0.207,2.718,0.622
	c0.761,0.414,1.388,1.018,1.883,1.809c0.495,0.792,0.863,1.766,1.104,2.922c0.241,1.157,0.362,2.478,0.362,3.962
	c0,3.08-0.501,5.399-1.503,6.958s-2.523,2.338-4.564,2.338c-2.078,0-3.606-0.782-4.583-2.348c-0.978-1.564-1.466-3.88-1.466-6.948
	C306.885,45.914,307.006,44.594,307.247,43.437z"/>
<path fill="#FFFFFF" d="M345.198,51.611c0,0.891-0.139,1.658-0.417,2.301c-0.278,0.644-0.64,1.169-1.085,1.577
	s-0.95,0.712-1.512,0.909c-0.563,0.198-1.141,0.297-1.735,0.297c-0.582,0-1.154-0.099-1.716-0.297
	c-0.563-0.197-1.064-0.501-1.503-0.909c-0.439-0.408-0.795-0.934-1.067-1.577c-0.272-0.643-0.408-1.41-0.408-2.301l-0.019-14.102
	c0-0.507-0.09-0.98-0.269-1.42c-0.18-0.438-0.427-0.822-0.742-1.15c-0.315-0.327-0.681-0.584-1.095-0.77
	c-0.415-0.186-0.863-0.278-1.345-0.278s-0.931,0.093-1.345,0.278c-0.415,0.186-0.776,0.442-1.085,0.77
	c-0.31,0.328-0.554,0.712-0.733,1.15c-0.18,0.439-0.269,0.913-0.269,1.42v14.213c0,1.658,0.291,3.099,0.872,4.323
	c0.581,1.225,1.388,2.239,2.421,3.043c1.033,0.805,2.257,1.407,3.674,1.81c1.416,0.401,2.959,0.603,4.629,0.603
	c1.694,0,3.253-0.204,4.676-0.612c1.422-0.408,2.65-1.021,3.683-1.837c1.033-0.816,1.837-1.834,2.412-3.052
	c0.575-1.219,0.863-2.645,0.863-4.277V37.509c0-0.507-0.09-0.98-0.269-1.42c-0.18-0.438-0.427-0.822-0.742-1.15
	c-0.315-0.327-0.681-0.584-1.095-0.77c-0.415-0.186-0.863-0.278-1.345-0.278s-0.931,0.093-1.345,0.278
	c-0.415,0.186-0.776,0.442-1.085,0.77c-0.31,0.328-0.554,0.712-0.733,1.15c-0.18,0.439-0.269,0.913-0.269,1.42V51.611z"/>
<path fill="#FFFFFF" d="M377.29,38.066c0.717,0,1.397,0.047,2.041,0.139c0.643,0.094,1.206,0.27,1.688,0.529
	s0.863,0.621,1.141,1.086c0.278,0.463,0.417,1.073,0.417,1.827c0,0.755-0.143,1.376-0.427,1.864
	c-0.285,0.489-0.677,0.876-1.178,1.16c-0.501,0.285-1.101,0.482-1.8,0.594c-0.699,0.111-1.457,0.167-2.273,0.167h-2.653v-7.366
	H377.29z M374.247,48.809h2.895c0.94,0,1.793,0.056,2.561,0.167c0.767,0.111,1.422,0.312,1.967,0.604
	c0.544,0.29,0.965,0.684,1.262,1.178c0.297,0.495,0.445,1.132,0.445,1.911c0,0.842-0.13,1.524-0.39,2.05
	c-0.26,0.526-0.644,0.938-1.15,1.234c-0.507,0.297-1.138,0.495-1.893,0.594c-0.755,0.1-1.627,0.148-2.616,0.148h-3.08V48.809z
	 M367.697,56.082c0,1.027,0.093,1.853,0.278,2.478c0.186,0.624,0.46,1.106,0.826,1.447c0.365,0.34,0.813,0.565,1.345,0.677
	c0.532,0.111,1.15,0.167,1.855,0.167h8.721c1.62,0,3.021-0.213,4.203-0.641c1.181-0.426,2.155-0.985,2.922-1.679
	c0.767-0.692,1.336-1.487,1.707-2.384c0.371-0.897,0.557-1.815,0.557-2.756c0-0.854-0.143-1.651-0.427-2.394
	c-0.285-0.742-0.687-1.397-1.206-1.967c-0.52-0.568-1.154-1.042-1.902-1.419c-0.749-0.378-1.586-0.634-2.514-0.771v-0.074
	c0.767-0.136,1.466-0.393,2.097-0.771c0.631-0.377,1.175-0.837,1.633-1.382c0.458-0.544,0.81-1.153,1.058-1.827
	c0.247-0.675,0.371-1.376,0.371-2.106c0-1.088-0.167-2.013-0.501-2.774c-0.334-0.76-0.786-1.391-1.354-1.893
	c-0.569-0.5-1.231-0.891-1.985-1.168c-0.755-0.279-1.559-0.489-2.412-0.631c-0.854-0.143-1.726-0.229-2.616-0.26
	c-0.891-0.031-1.757-0.047-2.598-0.047h-5.752c-0.582,0-1.132,0.062-1.651,0.186c-0.52,0.124-0.974,0.315-1.364,0.575
	s-0.702,0.597-0.937,1.011c-0.235,0.415-0.353,0.913-0.353,1.494V56.082z"/>
<path fill="#FFFFFF" d="M404.853,50.423l7.106-11.819c0.235-0.383,0.402-0.751,0.501-1.104c0.099-0.352,0.148-0.688,0.148-1.011
	c0-0.383-0.068-0.735-0.204-1.058c-0.136-0.321-0.322-0.594-0.557-0.816c-0.235-0.223-0.51-0.396-0.826-0.52
	c-0.315-0.123-0.646-0.186-0.993-0.186c-0.582,0-1.157,0.18-1.726,0.538c-0.569,0.359-1.064,0.946-1.484,1.763l-5.084,9.778h-0.074
	l-4.88-9.704c-0.408-0.854-0.909-1.466-1.503-1.837s-1.188-0.557-1.781-0.557c-0.396,0-0.776,0.074-1.141,0.223
	c-0.365,0.148-0.687,0.359-0.965,0.631c-0.278,0.272-0.501,0.597-0.668,0.974c-0.167,0.378-0.25,0.796-0.25,1.253
	c0,0.347,0.049,0.702,0.148,1.067c0.099,0.364,0.266,0.739,0.501,1.122l6.81,11.374v6.698c0,0.508,0.089,0.98,0.269,1.419
	c0.179,0.439,0.423,0.823,0.733,1.15c0.309,0.328,0.671,0.585,1.085,0.771c0.414,0.186,0.863,0.278,1.345,0.278
	s0.931-0.093,1.345-0.278c0.414-0.186,0.779-0.442,1.095-0.771c0.315-0.327,0.566-0.711,0.751-1.15
	c0.186-0.438,0.284-0.911,0.297-1.419V50.423z"/>
<path fill="#FFFFFF" d="M5.606,5.535v2h434.498v80H7.606l0-82H5.606v2V5.535h-2v84c0,0.527,0.213,1.042,0.586,1.414
	s0.888,0.586,1.414,0.586h436.498c0.527,0,1.042-0.213,1.414-0.586c0.372-0.372,0.586-0.888,0.586-1.414v-84
	c0-0.527-0.213-1.042-0.586-1.414c-0.372-0.372-0.888-0.586-1.414-0.586H5.606c-0.527,0-1.042,0.213-1.414,0.586
	C3.819,4.493,3.606,5.008,3.606,5.535H5.606z"/>
<circle fill="#FFFFFF" cx="441.043" cy="6.667" r="6.667"/>
<circle fill="#FFFFFF" cx="6.667" cy="6.667" r="6.667"/>
<circle fill="#FFFFFF" cx="441.043" cy="88.404" r="6.667"/>
<circle fill="#FFFFFF" cx="6.667" cy="88.404" r="6.667"/>
</svg>
