<?xml version="1.0" encoding="utf-8"?>
<!-- Generator: Adobe Illustrator 17.0.0, SVG Export Plug-In . SVG Version: 6.00 Build 0)  -->
<!DOCTYPE svg PUBLIC "-//W3C//DTD SVG 1.1//EN" "http://www.w3.org/Graphics/SVG/1.1/DTD/svg11.dtd">
<svg version="1.1" id="Layer_1" xmlns="http://www.w3.org/2000/svg" xmlns:xlink="http://www.w3.org/1999/xlink" x="0px" y="0px"
	 width="325.991px" height="335.892px" viewBox="0 0 325.991 335.892" enable-background="new 0 0 325.991 335.892"
	 xml:space="preserve">
<path fill="#010101" d="M4.047,189.019h15.863c0.785,7.161,2.074,14.17,3.853,20.982l-14.68,5.737
	c-2.082,0.814-3.11,3.161-2.296,5.243l8.791,22.494c0.814,2.082,3.161,3.11,5.243,2.296l14.53-5.678
	c4.201,8.116,9.136,15.783,14.723,22.923l-10.873,10.873c-1.581,1.581-1.581,4.143,0,5.724l17.077,17.076
	c1.58,1.581,4.143,1.581,5.724,0l10.583-10.583c5.585,4.584,11.521,8.754,17.752,12.483l-0.011,0.025l-5.875,13.426
	c-0.888,2.039,0.04,4.422,2.079,5.33l22.128,9.691c2.059,0.888,4.441-0.04,5.33-2.1l5.673-12.941l0.02-0.046
	c8.731,2.869,17.822,4.929,27.191,6.114v13.756c0,2.235,1.812,4.047,4.048,4.047h24.15c2.235,0,4.048-1.812,4.048-4.047v-13.206
	c7.533-0.699,14.9-1.961,22.058-3.758l4.662,11.928c0.814,2.082,3.161,3.11,5.243,2.296l22.493-8.791
	c2.082-0.814,3.11-3.161,2.297-5.243l-4.489-11.486c8.57-4.334,16.65-9.484,24.149-15.352l8.457,8.457
	c1.581,1.581,4.143,1.581,5.724,0l17.077-17.076c1.581-1.581,1.581-4.143,0-5.724l-8.169-8.168
	c4.848-5.907,9.218-12.213,13.107-18.839l10.395,4.553c2.048,0.897,4.435-0.036,5.331-2.083l9.689-22.121
	c0.897-2.048-0.036-4.435-2.083-5.332l-10.172-4.455c2.91-9.12,4.947-18.625,6.021-28.424h11.036c2.235,0,4.048-1.812,4.048-4.047
	v-24.15c0-2.236-1.812-4.048-4.048-4.048H310.91c-0.85-7.762-2.319-15.333-4.335-22.681l10.332-4.038
	c2.082-0.813,3.11-3.161,2.297-5.243l-8.791-22.494c-0.814-2.082-3.161-3.11-5.243-2.296l-10.505,4.105
	c-4.562-8.557-9.935-16.614-16.041-24.053l8.164-8.164c1.575-1.575,1.575-4.139,0-5.713l-17.08-17.08
	c-1.575-1.575-4.139-1.575-5.714,0l-8.439,8.419l-0.024,0.024c-5.954-4.658-12.267-8.872-18.909-12.578l4.911-11.211
	c0.897-2.048-0.036-4.435-2.084-5.332l-22.121-9.689c-2.048-0.897-4.435,0.036-5.331,2.083l-5.106,11.657
	c-8.934-2.635-18.217-4.45-27.773-5.337V13.948c0-2.235-1.812-4.047-4.048-4.047h-24.15c-2.236,0-4.048,1.812-4.048,4.047v13.756
	c-7.384,0.933-14.592,2.413-21.591,4.404l-5.129-13.124c-0.813-2.082-3.161-3.11-5.243-2.296l-22.494,8.791
	c-2.082,0.813-3.11,3.161-2.296,5.243l5.299,13.559c-8.107,4.421-15.748,9.587-22.835,15.404L62.003,49.102
	c-1.581-1.581-4.143-1.581-5.724,0L39.202,66.179c-1.581,1.581-1.581,4.143,0,5.724l10.871,10.871
	c-4.403,5.626-8.401,11.58-11.955,17.824l-14.249-6.241c-2.047-0.897-4.435,0.036-5.331,2.084l-9.689,22.121
	c-0.897,2.048,0.036,4.435,2.084,5.331l14.414,6.313c-2.602,8.55-4.437,17.432-5.438,26.566H4.047c-2.236,0-4.047,1.812-4.047,4.048
	v24.15C0,187.207,1.812,189.019,4.047,189.019"/>
<path fill="#FFFFFF" d="M4.047,179.118h15.863c0.785,7.161,2.074,14.17,3.853,20.982l-14.68,5.737
	c-2.082,0.814-3.11,3.161-2.296,5.243l8.791,22.494c0.814,2.082,3.161,3.11,5.243,2.296l14.53-5.678
	c4.201,8.116,9.136,15.783,14.723,22.923l-10.873,10.873c-1.581,1.581-1.581,4.143,0,5.724l17.077,17.076
	c1.58,1.581,4.143,1.581,5.724,0l10.583-10.583c5.585,4.585,11.521,8.754,17.752,12.483l-0.011,0.025l-5.875,13.426
	c-0.888,2.039,0.04,4.422,2.079,5.33l22.128,9.691c2.059,0.888,4.441-0.04,5.33-2.1l5.673-12.941l0.02-0.046
	c8.731,2.868,17.822,4.929,27.191,6.114v13.756c0,2.235,1.812,4.047,4.048,4.047h24.15c2.235,0,4.048-1.812,4.048-4.047v-13.206
	c7.533-0.699,14.9-1.961,22.058-3.758l4.662,11.928c0.814,2.082,3.161,3.11,5.243,2.296l22.493-8.791
	c2.082-0.814,3.11-3.161,2.297-5.243l-4.489-11.486c8.57-4.334,16.65-9.484,24.149-15.352l8.457,8.457
	c1.581,1.581,4.143,1.581,5.724,0l17.077-17.076c1.581-1.581,1.581-4.143,0-5.724l-8.169-8.168
	c4.848-5.907,9.218-12.213,13.107-18.839l10.395,4.553c2.048,0.897,4.435-0.036,5.331-2.083l9.689-22.121
	c0.897-2.048-0.036-4.435-2.083-5.332l-10.172-4.455c2.91-9.12,4.947-18.625,6.021-28.424h11.036c2.235,0,4.048-1.812,4.048-4.047
	v-24.15c0-2.236-1.812-4.048-4.048-4.048H310.91c-0.85-7.762-2.319-15.333-4.335-22.682l10.332-4.038
	c2.082-0.813,3.11-3.161,2.297-5.243l-8.791-22.494c-0.814-2.082-3.161-3.11-5.243-2.296l-10.505,4.105
	c-4.562-8.557-9.935-16.614-16.041-24.053l8.164-8.164c1.575-1.575,1.575-4.139,0-5.713l-17.08-17.08
	c-1.575-1.575-4.139-1.575-5.714,0l-8.439,8.419l-0.024,0.024c-5.954-4.658-12.267-8.872-18.909-12.578l4.911-11.211
	c0.897-2.048-0.036-4.435-2.084-5.332l-22.121-9.689c-2.048-0.897-4.435,0.036-5.331,2.083l-5.106,11.657
	c-8.934-2.635-18.217-4.45-27.773-5.337V4.047c0-2.235-1.812-4.047-4.048-4.047h-24.15c-2.236,0-4.048,1.812-4.048,4.047v13.756
	c-7.384,0.933-14.592,2.413-21.591,4.404l-5.129-13.124c-0.813-2.082-3.161-3.11-5.243-2.296l-22.494,8.791
	c-2.082,0.813-3.11,3.161-2.296,5.243l5.299,13.559c-8.107,4.421-15.748,9.587-22.835,15.404L62.003,39.202
	c-1.581-1.581-4.143-1.581-5.724,0L39.202,56.279c-1.581,1.581-1.581,4.143,0,5.724l10.871,10.871
	c-4.403,5.626-8.401,11.58-11.955,17.824l-14.249-6.241c-2.047-0.897-4.435,0.036-5.331,2.084l-9.689,22.121
	c-0.897,2.048,0.036,4.435,2.084,5.331l14.414,6.313c-2.602,8.55-4.437,17.431-5.438,26.566H4.047c-2.236,0-4.047,1.812-4.047,4.048
	v24.15C0,177.306,1.812,179.118,4.047,179.118"/>
<path fill="#E6E5E4" d="M234.596,301.908L234.596,301.908l1.275,3.262c0.759,1.943-0.085,4.116-1.892,5.059l0,0
	c1.807-0.944,2.651-3.117,1.892-5.06L234.596,301.908 M311.399,210.395l3.66,1.603c1.872,0.82,2.812,2.884,2.275,4.797
	c0.537-1.913-0.403-3.977-2.275-4.797L311.399,210.395 M308.753,133.241L308.753,133.241c0.927,4.472,1.651,9.018,2.157,13.632
	h11.034c0,0,0,0,0,0H310.91C310.405,142.259,309.681,137.713,308.753,133.241 M319.483,116.382c0,1.477-0.814,2.879-2.171,3.587l0,0
	C318.669,119.261,319.483,117.859,319.483,116.382 M306.642,89.842c-0.49,0-0.988,0.09-1.472,0.279l-10.505,4.105c0,0,0,0,0,0
	l10.505-4.105C305.654,89.931,306.152,89.842,306.642,89.842c0.379,0,0.754,0.054,1.113,0.156
	C307.396,89.895,307.021,89.842,306.642,89.842 M287.969,59.152c0,0.37-0.05,0.74-0.151,1.098
	C287.919,59.892,287.969,59.522,287.969,59.152 M264.034,39.178c-0.013,0.013-0.026,0.025-0.039,0.038l-8.439,8.419l-0.012,0.012
	l0.012-0.012l8.439-8.419C264.008,39.203,264.021,39.19,264.034,39.178 M266.852,38.034c-1.012,0-2.023,0.376-2.804,1.129
	C264.828,38.411,265.84,38.035,266.852,38.034c1.035,0,2.069,0.394,2.857,1.181l17.08,17.08c0.337,0.337,0.602,0.719,0.794,1.127
	c-0.193-0.408-0.458-0.79-0.794-1.127l-17.08-17.08C268.921,38.428,267.886,38.034,266.852,38.034 M240.468,19.178
	c0.96,0.826,1.476,2.061,1.399,3.318C241.945,21.238,241.428,20.003,240.468,19.178 M217.273,8.825
	c0.019,0.008,0.037,0.016,0.056,0.024l0,0C217.31,8.841,217.291,8.833,217.273,8.825 M217.242,8.812
	c0.007,0.003,0.014,0.006,0.02,0.008C217.256,8.818,217.249,8.815,217.242,8.812 M175.071,0h-13.396H175.071
	c2.235,0,4.048,1.812,4.048,4.047v13.206c9.556,0.887,18.839,2.702,27.773,5.337l5.106-11.657c0.665-1.519,2.151-2.425,3.71-2.425
	c0.513,0,1.033,0.098,1.535,0.304c-0.502-0.206-1.022-0.304-1.535-0.304c-1.559,0-3.044,0.906-3.709,2.425l-5.106,11.657
	c-8.934-2.635-18.217-4.45-27.773-5.337V4.047C179.118,1.812,177.306,0,175.071,0"/>
<path fill="#010101" d="M179.118,322.01c-0.035,2.205-1.833,3.982-4.047,3.982h-13.396v0h13.396
	C177.284,325.992,179.083,324.214,179.118,322.01 M208.813,319.404c0.003,0.001,0.006,0.001,0.009,0.002
	C208.82,319.405,208.816,319.404,208.813,319.404 M233.979,310.23c-0.13,0.068-0.265,0.129-0.405,0.184l-11.247,4.395l11.247-4.395
	C233.714,310.359,233.849,310.298,233.979,310.23L233.979,310.23 M201.176,304.98L201.176,304.98l4.662,11.928
	c0.52,1.33,1.665,2.229,2.967,2.494c-1.302-0.265-2.447-1.164-2.967-2.494L201.176,304.98 M231.382,293.684L231.382,293.684
	l3.214,8.224l0,0L231.382,293.684 M255.531,278.332c-2.276,1.781-4.604,3.495-6.984,5.141
	C250.927,281.827,253.255,280.113,255.531,278.332l8.457,8.457L255.531,278.332 M278.621,255.82L278.621,255.82l2.723,2.723
	L278.621,255.82 M314.88,222.494l-7.427,16.957c-0.53,1.211-1.581,2.031-2.775,2.315c1.194-0.283,2.245-1.104,2.775-2.315
	L314.88,222.494 M309.369,189.632c-1.123,6.112-2.624,12.089-4.482,17.911l0,0C306.744,201.721,308.246,195.744,309.369,189.632
	 M316.908,120.153l-10.332,4.038c0.817,2.98,1.545,5.998,2.178,9.049v0c-0.633-3.052-1.36-6.069-2.178-9.049L316.908,120.153
	 M317.312,119.969c-0.13,0.068-0.265,0.129-0.404,0.184C317.047,120.099,317.182,120.037,317.312,119.969L317.312,119.969"/>
<path fill="#E5E4E4" d="M175.071,0h-13.396v325.991l13.396,0c2.214,0,4.012-1.777,4.047-3.982c0-0.022,0.001-0.044,0.001-0.065
	v-13.206l0,0v0c7.533-0.699,14.9-1.961,22.058-3.758l0,0c0,0,0,0,0,0l4.662,11.928c0.52,1.329,1.665,2.229,2.967,2.494
	c0.003,0.001,0.006,0.001,0.009,0.002c0.003,0.001,0.006,0.001,0.009,0.002c0.257,0.051,0.52,0.077,0.785,0.077
	c0.49,0,0.989-0.09,1.473-0.279l11.247-4.395l11.247-4.395c0.14-0.055,0.275-0.116,0.405-0.184c1.807-0.943,2.651-3.117,1.892-5.059
	l-1.275-3.262l-3.214-8.224l0,0v0c5.969-3.019,11.702-6.434,17.165-10.211c2.38-1.646,4.709-3.36,6.984-5.141l8.457,8.457
	c0.79,0.79,1.826,1.186,2.862,1.186c1.036,0,2.072-0.395,2.862-1.186l17.077-17.076c1.581-1.581,1.581-4.143,0-5.724l-5.446-5.446
	l-2.723-2.723l0,0v0c4.848-5.906,9.218-12.213,13.107-18.839l10.395,4.553c0.528,0.231,1.08,0.341,1.622,0.341
	c0.317,0,0.63-0.037,0.934-0.11c1.194-0.283,2.245-1.104,2.775-2.315l7.427-16.957l2.262-5.165c0.077-0.176,0.141-0.354,0.191-0.534
	c0.537-1.913-0.403-3.977-2.275-4.797l-3.66-1.603l-6.512-2.852l0,0v0c1.857-5.821,3.359-11.799,4.482-17.911
	c0.636-3.463,1.151-6.97,1.539-10.514h11.036c2.236,0,4.048-1.812,4.048-4.047v-24.15c0-2.236-1.812-4.048-4.048-4.048H310.91
	c-0.505-4.614-1.229-9.16-2.157-13.632c-0.633-3.052-1.36-6.069-2.178-9.049l10.332-4.038l0,0c0.14-0.055,0.274-0.116,0.404-0.184
	c1.357-0.708,2.171-2.11,2.171-3.587c0-0.436-0.071-0.879-0.22-1.313c-0.018-0.053-0.038-0.106-0.058-0.159l0,0l-8.791-22.494
	c-0.478-1.223-1.486-2.083-2.659-2.419c-0.359-0.103-0.733-0.156-1.112-0.156c-0.49,0-0.988,0.09-1.472,0.279l-10.505,4.105l0,0h0
	c-4.063-7.621-8.769-14.846-14.064-21.59c-0.65-0.828-1.309-1.649-1.977-2.463l0,0l0,0l8.164-8.164
	c0.506-0.506,0.849-1.114,1.03-1.758c0.101-0.359,0.151-0.728,0.151-1.098c0-0.592-0.129-1.184-0.387-1.73
	c-0.193-0.408-0.458-0.79-0.794-1.127l-17.08-17.08c-0.787-0.788-1.822-1.181-2.857-1.181c-1.012,0-2.023,0.376-2.804,1.129
	c-0.005,0.004-0.01,0.009-0.014,0.014c-0.013,0.013-0.026,0.025-0.039,0.038l-8.439,8.419l-0.012,0.012l-0.012,0.012
	c-5.953-4.658-12.267-8.873-18.909-12.578l4.911-11.211c0.196-0.448,0.305-0.913,0.333-1.374c0.078-1.257-0.439-2.492-1.399-3.318
	c-0.298-0.257-0.639-0.474-1.018-0.64l-22.121-9.689c-0.019-0.008-0.037-0.016-0.056-0.024c-0.003-0.001-0.007-0.003-0.01-0.004
	c-0.007-0.003-0.014-0.006-0.02-0.008c0,0,0,0-0.001,0c-0.502-0.206-1.022-0.304-1.535-0.304c-1.559,0-3.044,0.906-3.71,2.425
	l-5.106,11.657c-8.934-2.635-18.217-4.45-27.773-5.337V4.047C179.118,1.812,177.306,0,175.071,0"/>
<path fill="#2C3553" d="M145.586,177.726c0.352-0.002,0.678-0.07,0.984-0.202c0.307-0.132,0.574-0.313,0.807-0.542
	c0.232-0.229,0.412-0.498,0.541-0.805s0.191-0.636,0.189-0.988s-0.07-0.68-0.203-0.985s-0.316-0.574-0.553-0.807
	c-0.234-0.233-0.506-0.414-0.812-0.542c-0.309-0.127-0.637-0.191-0.988-0.188l-10.547,0.073l-0.047-6.836l9.18-0.063
	c0.377-0.003,0.73-0.071,1.062-0.203c0.332-0.132,0.619-0.314,0.865-0.543c0.246-0.229,0.439-0.498,0.58-0.805
	s0.211-0.636,0.209-0.988s-0.078-0.68-0.223-0.985s-0.342-0.574-0.592-0.807c-0.248-0.232-0.539-0.413-0.873-0.541
	c-0.332-0.127-0.688-0.19-1.064-0.187l-9.18,0.063l-0.045-6.328l10.059-0.069c0.377-0.002,0.732-0.07,1.064-0.203
	c0.33-0.132,0.619-0.314,0.865-0.543c0.246-0.229,0.439-0.498,0.58-0.805c0.141-0.307,0.211-0.636,0.207-0.988
	c-0.002-0.352-0.076-0.683-0.221-0.995c-0.145-0.311-0.342-0.581-0.592-0.806c-0.25-0.226-0.539-0.407-0.873-0.541
	c-0.332-0.134-0.689-0.2-1.066-0.198l-12.539,0.087c-1.016,0.007-1.82,0.142-2.418,0.407c-0.598,0.265-1.051,0.625-1.359,1.083
	c-0.311,0.458-0.508,1.002-0.596,1.635c-0.086,0.632-0.127,1.319-0.121,2.062l0.127,18.612c0.004,0.547,0.066,1.093,0.188,1.639
	s0.32,1.036,0.598,1.471c0.275,0.435,0.639,0.787,1.09,1.057c0.451,0.27,1.01,0.403,1.674,0.398L145.586,177.726z M106.471,161.785
	l-0.053-7.772l2.949-0.021c0.795-0.005,1.559,0.019,2.295,0.072c0.736,0.053,1.385,0.202,1.947,0.445s1.014,0.611,1.355,1.104
	s0.516,1.234,0.523,2.223c0.006,0.859-0.166,1.547-0.514,2.064c-0.348,0.517-0.805,0.911-1.369,1.181
	c-0.564,0.271-1.197,0.451-1.9,0.541s-1.406,0.137-2.109,0.142L106.471,161.785z M106.619,166.315l3.965-0.027
	c0.963-0.006,1.725,0.086,2.277,0.277c0.555,0.191,0.984,0.521,1.287,0.987s0.525,1.081,0.668,1.841
	c0.141,0.761,0.281,1.707,0.42,2.839c0.096,0.781,0.221,1.512,0.375,2.195c0.156,0.683,0.377,1.284,0.668,1.802
	s0.652,0.926,1.09,1.223s0.984,0.442,1.635,0.438c0.717-0.005,1.301-0.104,1.756-0.295c0.453-0.191,0.811-0.458,1.068-0.798
	c0.258-0.34,0.438-0.745,0.539-1.215c0.1-0.469,0.148-0.984,0.145-1.544c-0.002-0.261-0.01-0.524-0.025-0.791
	c-0.016-0.267-0.037-0.544-0.064-0.83c-0.098-1.027-0.203-1.949-0.311-2.762c-0.109-0.812-0.252-1.538-0.426-2.175
	c-0.174-0.636-0.393-1.188-0.656-1.656c-0.264-0.467-0.605-0.865-1.023-1.194s-0.926-0.592-1.52-0.791
	c-0.594-0.198-1.307-0.345-2.141-0.444v-0.078c1.154-0.203,2.133-0.513,2.932-0.928c0.797-0.416,1.443-0.916,1.934-1.497
	c0.49-0.583,0.844-1.236,1.061-1.96c0.215-0.724,0.32-1.49,0.316-2.297c-0.012-1.484-0.322-2.686-0.934-3.607
	c-0.611-0.92-1.424-1.638-2.438-2.151c-1.014-0.514-2.184-0.861-3.512-1.041s-2.717-0.264-4.162-0.254l-7.832,0.054
	c-0.6,0.004-1.166,0.083-1.707,0.236c-0.539,0.153-1.01,0.381-1.41,0.684c-0.402,0.303-0.723,0.679-0.959,1.13
	c-0.238,0.451-0.355,0.976-0.352,1.575l0.145,20.976c0.004,0.534,0.102,1.031,0.295,1.492c0.191,0.46,0.451,0.863,0.779,1.206
	c0.328,0.342,0.711,0.61,1.148,0.803c0.436,0.192,0.91,0.287,1.418,0.283s0.979-0.104,1.414-0.303
	c0.434-0.199,0.816-0.472,1.146-0.819c0.33-0.347,0.586-0.753,0.773-1.216c0.186-0.463,0.275-0.962,0.271-1.496L106.619,166.315z
	 M79.389,163.007l-0.061-8.808l3.613-0.025c0.781-0.005,1.494,0.061,2.141,0.2c0.645,0.139,1.199,0.37,1.664,0.691
	c0.465,0.322,0.83,0.747,1.094,1.272s0.398,1.244,0.404,2.155c0.008,0.925-0.125,1.661-0.395,2.21s-0.646,0.99-1.133,1.325
	s-1.074,0.577-1.764,0.725c-0.688,0.148-1.449,0.225-2.283,0.231L79.389,163.007z M79.418,167.362l4.473-0.031
	c1.719-0.012,3.287-0.202,4.705-0.57c1.416-0.368,2.625-0.919,3.631-1.656c1.004-0.737,1.779-1.656,2.324-2.76
	c0.545-1.104,0.814-2.404,0.803-3.901c-0.012-1.731-0.34-3.162-0.986-4.291s-1.504-2.018-2.576-2.667
	c-1.074-0.65-2.303-1.101-3.691-1.352c-1.389-0.251-2.832-0.371-4.33-0.361l-7.051,0.049c-1.055,0.007-1.889,0.152-2.506,0.437
	s-1.084,0.668-1.398,1.152c-0.314,0.483-0.52,1.055-0.613,1.713c-0.094,0.658-0.137,1.358-0.133,2.101l0.133,19.198
	c0.004,0.534,0.102,1.032,0.295,1.492c0.191,0.46,0.451,0.863,0.779,1.206s0.711,0.61,1.148,0.803
	c0.436,0.192,0.91,0.287,1.418,0.283s0.979-0.104,1.414-0.303c0.434-0.198,0.816-0.472,1.146-0.819
	c0.33-0.347,0.59-0.753,0.783-1.216c0.191-0.463,0.285-0.962,0.281-1.496L79.418,167.362z"/>
<path fill="#2C3553" d="M160.028,162.799v-8.809h3.613c0.781,0,1.494,0.071,2.139,0.215s1.197,0.378,1.66,0.703
	s0.824,0.752,1.084,1.279s0.391,1.247,0.391,2.158c0,0.925-0.137,1.66-0.41,2.207s-0.654,0.986-1.143,1.318
	s-1.078,0.569-1.768,0.713s-1.451,0.215-2.285,0.215H160.028z M160.028,167.155h4.473c1.719,0,3.287-0.179,4.707-0.537
	s2.633-0.901,3.643-1.631s1.791-1.644,2.344-2.744s0.83-2.399,0.83-3.896c0-1.731-0.318-3.164-0.957-4.297s-1.49-2.028-2.559-2.686
	s-2.295-1.116-3.682-1.377s-2.828-0.391-4.326-0.391h-7.051c-1.055,0-1.891,0.14-2.51,0.42s-1.088,0.661-1.406,1.143
	s-0.527,1.052-0.625,1.709s-0.146,1.357-0.146,2.1v19.199c0,0.534,0.094,1.032,0.283,1.494s0.445,0.866,0.771,1.211
	s0.707,0.615,1.143,0.811s0.908,0.293,1.416,0.293s0.98-0.098,1.416-0.293s0.82-0.466,1.152-0.811s0.596-0.749,0.791-1.211
	s0.293-0.96,0.293-1.494V167.155z"/>
<path fill="#2C3553" d="M252.555,177.975c0.352,0,0.68-0.065,0.986-0.195s0.576-0.31,0.811-0.537s0.416-0.495,0.547-0.801
	s0.195-0.635,0.195-0.986s-0.064-0.681-0.195-0.986s-0.312-0.576-0.547-0.811s-0.504-0.417-0.811-0.547s-0.635-0.195-0.986-0.195
	h-10.547v-6.836h9.18c0.377,0,0.732-0.065,1.064-0.195s0.621-0.31,0.869-0.537s0.443-0.495,0.586-0.801s0.215-0.635,0.215-0.986
	s-0.072-0.681-0.215-0.986s-0.338-0.576-0.586-0.811s-0.537-0.417-0.869-0.547s-0.688-0.195-1.064-0.195h-9.18v-6.328h10.059
	c0.377,0,0.732-0.065,1.064-0.195s0.621-0.31,0.869-0.537s0.443-0.495,0.586-0.801s0.215-0.635,0.215-0.986
	s-0.072-0.684-0.215-0.996s-0.338-0.583-0.586-0.811s-0.537-0.41-0.869-0.547s-0.688-0.205-1.064-0.205h-12.539
	c-1.016,0-1.822,0.13-2.422,0.391s-1.055,0.618-1.367,1.074s-0.514,0.999-0.605,1.631s-0.137,1.318-0.137,2.061v18.613
	c0,0.547,0.059,1.094,0.176,1.641s0.312,1.038,0.586,1.475s0.635,0.791,1.084,1.064s1.006,0.41,1.67,0.41H252.555z M213.551,161.764
	v-7.773h2.949c0.795,0,1.559,0.029,2.295,0.088s1.383,0.212,1.943,0.459s1.01,0.618,1.348,1.113s0.508,1.237,0.508,2.227
	c0,0.859-0.176,1.546-0.527,2.061s-0.811,0.905-1.377,1.172s-1.201,0.442-1.904,0.527s-1.406,0.127-2.109,0.127H213.551z
	 M213.668,166.295h3.965c0.963,0,1.723,0.098,2.275,0.293s0.98,0.527,1.279,0.996s0.518,1.084,0.654,1.846s0.27,1.709,0.4,2.842
	c0.092,0.781,0.211,1.514,0.361,2.197s0.367,1.286,0.654,1.807s0.648,0.931,1.084,1.23s0.98,0.449,1.631,0.449
	c0.717,0,1.303-0.095,1.758-0.283s0.814-0.452,1.074-0.791s0.443-0.742,0.547-1.211s0.156-0.983,0.156-1.543
	c0-0.261-0.006-0.524-0.02-0.791s-0.033-0.544-0.059-0.83c-0.092-1.028-0.189-1.95-0.293-2.764s-0.24-1.54-0.41-2.178
	s-0.385-1.191-0.645-1.66s-0.6-0.869-1.016-1.201s-0.922-0.599-1.514-0.801s-1.305-0.354-2.139-0.459v-0.078
	c1.158-0.195,2.139-0.498,2.939-0.908s1.449-0.905,1.943-1.484s0.854-1.23,1.074-1.953s0.332-1.487,0.332-2.295
	c0-1.484-0.303-2.688-0.908-3.613s-1.412-1.647-2.422-2.168s-2.178-0.876-3.506-1.064s-2.715-0.283-4.16-0.283h-7.832
	c-0.6,0-1.168,0.075-1.709,0.225s-1.012,0.374-1.416,0.674s-0.727,0.674-0.967,1.123s-0.361,0.974-0.361,1.572v20.977
	c0,0.534,0.094,1.032,0.283,1.494s0.445,0.866,0.771,1.211s0.707,0.615,1.143,0.811s0.908,0.293,1.416,0.293s0.98-0.098,1.416-0.293
	s0.82-0.466,1.152-0.811s0.592-0.749,0.781-1.211s0.283-0.96,0.283-1.494V166.295z M195.856,157.858
	c-0.586-1.536-1.119-2.832-1.602-3.887s-0.99-1.904-1.523-2.549s-1.133-1.106-1.797-1.387s-1.465-0.42-2.402-0.42
	c-1.002,0-1.855,0.179-2.559,0.537s-1.324,0.889-1.865,1.592s-1.035,1.565-1.484,2.588s-0.922,2.197-1.416,3.525l-5.254,14.199
	c-0.092,0.234-0.189,0.479-0.293,0.732s-0.201,0.511-0.293,0.771s-0.166,0.511-0.225,0.752s-0.088,0.459-0.088,0.654
	c0,0.481,0.088,0.908,0.264,1.279s0.414,0.684,0.713,0.938s0.648,0.449,1.045,0.586s0.816,0.205,1.26,0.205
	c0.508,0,0.951-0.068,1.328-0.205s0.713-0.358,1.006-0.664s0.561-0.713,0.801-1.221s0.479-1.133,0.713-1.875l0.801-2.48h11.055
	l0.938,2.48c0.273,0.729,0.531,1.345,0.771,1.846s0.504,0.908,0.791,1.221s0.611,0.54,0.977,0.684s0.801,0.215,1.309,0.215
	c0.443,0,0.863-0.068,1.26-0.205s0.746-0.332,1.045-0.586s0.537-0.566,0.713-0.938s0.264-0.798,0.264-1.279
	c0-0.195-0.029-0.413-0.088-0.654s-0.133-0.491-0.225-0.752s-0.189-0.518-0.293-0.771s-0.201-0.498-0.293-0.732L195.856,157.858z
	 M188.571,154.948l4.277,12.559h-8.672l4.297-12.559H188.571z"/>
</svg>
