<?xml version="1.0" encoding="utf-8"?>
<!-- Generator: Adobe Illustrator 17.0.0, SVG Export Plug-In . SVG Version: 6.00 Build 0)  -->
<!DOCTYPE svg PUBLIC "-//W3C//DTD SVG 1.1//EN" "http://www.w3.org/Graphics/SVG/1.1/DTD/svg11.dtd">
<svg version="1.1" id="Layer_1" xmlns="http://www.w3.org/2000/svg" xmlns:xlink="http://www.w3.org/1999/xlink" x="0px" y="0px"
	 width="492.71px" height="95.071px" viewBox="0 0 492.71 95.071" enable-background="new 0 0 492.71 95.071" xml:space="preserve">
<text transform="matrix(1 0 0 1 35.5244 61.2866)"><tspan x="0" y="0" fill="#FFFFFF" font-family="'Nunito-Bold'" font-size="38" letter-spacing="-1">S</tspan><tspan x="23.956" y="0" fill="#FFFFFF" font-family="'Nunito-Bold'" font-size="38">T</tspan><tspan x="46.016" y="0" fill="#FFFFFF" font-family="'Nunito-Bold'" font-size="38">E</tspan><tspan x="68.667" y="0" fill="#FFFFFF" font-family="'Nunito-Bold'" font-size="38">P</tspan><tspan x="93.564" y="0" fill="#FFFFFF" font-family="'Nunito-Bold'" font-size="38"> IN</tspan><tspan x="145.19" y="0" fill="#FFFFFF" font-family="'Nunito-Bold'" font-size="38" letter-spacing="-2">T</tspan><tspan x="165.577" y="0" fill="#FFFFFF" font-family="'Nunito-Bold'" font-size="38">O</tspan><tspan x="194.538" y="0" fill="#FFFFFF" font-family="'Nunito-Bold'" font-size="38" letter-spacing="-4"> </tspan><tspan x="202.02" y="0" fill="#FFFFFF" font-family="'Nunito-Bold'" font-size="38" letter-spacing="-3">Y</tspan><tspan x="224.485" y="0" fill="#FFFFFF" font-family="'Nunito-Bold'" font-size="38" letter-spacing="-1">O</tspan><tspan x="252.913" y="0" fill="#FFFFFF" font-family="'Nunito-Bold'" font-size="38">U</tspan><tspan x="280.557" y="0" fill="#FFFFFF" font-family="'Nunito-Bold'" font-size="38">R</tspan><tspan x="306.771" y="0" fill="#FFFFFF" font-family="'Nunito-Bold'" font-size="38"> </tspan></text>
<text transform="matrix(1 0 0 1 353.1806 61.2866)" fill="#FFFFFF" font-family="'Nunito-Bold'" font-size="38">Z</text>
<text transform="matrix(1 0 0 1 375.1836 61.2866)"><tspan x="0" y="0" fill="#FFFFFF" font-family="'Nunito-Bold'" font-size="38">ON</tspan><tspan x="57.66" y="0" fill="#FFFFFF" font-family="'Nunito-Bold'" font-size="38">E</tspan></text>
<path fill="#FFFFFF" d="M487.104,89.535v-2H7.606v-80h477.498l0,82H487.104v-2V89.535h2v-84c0-0.527-0.213-1.042-0.586-1.414
	c-0.372-0.372-0.888-0.586-1.414-0.586H5.606c-0.527,0-1.042,0.213-1.414,0.586C3.819,4.494,3.606,5.009,3.606,5.535v84
	c0,0.527,0.213,1.042,0.586,1.414c0.372,0.372,0.888,0.586,1.414,0.586h481.498c0.527,0,1.042-0.213,1.414-0.586
	c0.372-0.372,0.586-0.888,0.586-1.414H487.104z"/>
<circle fill="#FFFFFF" cx="486.043" cy="6.667" r="6.667"/>
<circle fill="#FFFFFF" cx="6.667" cy="6.667" r="6.667"/>
<circle fill="#FFFFFF" cx="486.043" cy="88.404" r="6.667"/>
<circle fill="#FFFFFF" cx="6.667" cy="88.404" r="6.667"/>
</svg>
