<?xml version="1.0" encoding="utf-8"?>
<!-- Generator: Adobe Illustrator 17.0.0, SVG Export Plug-In . SVG Version: 6.00 Build 0)  -->
<!DOCTYPE svg PUBLIC "-//W3C//DTD SVG 1.1//EN" "http://www.w3.org/Graphics/SVG/1.1/DTD/svg11.dtd">
<svg version="1.1" id="Layer_1" xmlns="http://www.w3.org/2000/svg" xmlns:xlink="http://www.w3.org/1999/xlink" x="0px" y="0px"
	 width="612px" height="506.872px" viewBox="0 0 612 506.872" enable-background="new 0 0 612 506.872" xml:space="preserve">
<path fill="#FFFFFF" d="M310.784,62.09c0,17.144,13.275,31.043,29.654,31.043c4.359,0,8.497-0.982,12.223-2.749
	c5.359,8.013,14.247,13.258,24.305,13.258c8.899,0,16.877-4.108,22.312-10.606c4.207,2.394,9.023,3.756,14.147,3.756
	c4.491,0,8.75-1.05,12.566-2.92c0.592,0.29,1.197,0.561,1.809,0.808c3.007,1.232,6.255,1.96,9.649,2.086
	c0.363,0.018,0.733,0.025,1.104,0.025c0.969,0,1.931-0.047,2.875-0.145c13.04-1.315,23.613-11.472,26.18-24.672
	c0.394-2.01,0.599-4.093,0.599-6.227c0-11.628-6.103-21.759-15.137-27.08c-3.951-12.291-15.043-21.143-28.114-21.143
	c-2.249,0-4.432,0.264-6.536,0.761c-1.571-2.043-3.384-3.879-5.397-5.452c-4.944-3.865-11.075-6.154-17.717-6.154
	c-6.57,0-12.635,2.235-17.548,6.017c-1.934-2.757-4.29-5.169-6.971-7.125C365.981,2.061,360.141,0,353.838,0
	c-8.352,0-15.898,3.615-21.285,9.433c-1.066,1.148-2.045,2.383-2.927,3.691c-3.432,5.06-5.446,11.244-5.446,17.92
	c0,1.645,0.125,3.26,0.36,4.836C316.271,41.385,310.784,51.067,310.784,62.09z"/>
<rect y="0" opacity="0" fill="#FFFFFF" width="612" height="506.872"/>
</svg>
