<?xml version="1.0" encoding="utf-8"?>
<!-- Generator: Adobe Illustrator 17.1.0, SVG Export Plug-In . SVG Version: 6.00 Build 0)  -->
<!DOCTYPE svg PUBLIC "-//W3C//DTD SVG 1.1//EN" "http://www.w3.org/Graphics/SVG/1.1/DTD/svg11.dtd">
<svg version="1.1" id="Layer_1" xmlns="http://www.w3.org/2000/svg" xmlns:xlink="http://www.w3.org/1999/xlink" x="0px" y="0px"
	 width="103.06px" height="62.165px" viewBox="0 0 103.06 62.165" enable-background="new 0 0 103.06 62.165" xml:space="preserve">
<polygon fill="#C65A1E" points="5.002,29.71 17.049,16.274 54.597,16.274 43.621,29.71 "/>
<path fill="#E2F4FD" d="M32.913,51.75c-0.037-5.14-4.213-9.296-9.362-9.296s-9.326,4.156-9.362,9.296H32.913z"/>
<path fill="#EE9865" d="M32.913,51.746c-0.037,5.14-4.213,9.296-9.362,9.296s-9.326-4.156-9.362-9.296H32.913z"/>
<path fill="#929496" d="M31.997,51.818h-0.984c0,2.064-0.834,3.923-2.186,5.277c-1.354,1.352-3.213,2.185-5.277,2.186
	c-2.064,0-3.923-0.834-5.277-2.186c-1.352-1.354-2.185-3.213-2.186-5.277c0.001-2.064,0.834-3.923,2.186-5.277
	c1.354-1.352,3.213-2.185,5.277-2.186c2.064,0,3.923,0.834,5.277,2.186c1.352,1.354,2.185,3.213,2.186,5.277H31.997h0.984
	c0-2.601-1.057-4.964-2.762-6.668c-1.703-1.705-4.067-2.762-6.668-2.762c-2.601,0-4.964,1.057-6.668,2.762
	c-1.705,1.703-2.762,4.067-2.762,6.668c0,2.601,1.057,4.964,2.762,6.668c1.703,1.705,4.067,2.762,6.668,2.762
	c2.601,0,4.964-1.057,6.668-2.762c1.705-1.703,2.762-4.067,2.762-6.668H31.997z"/>
<path d="M32.915,51.818h-0.984c0,2.317-0.936,4.406-2.455,5.926c-1.52,1.518-3.609,2.454-5.926,2.455
	c-2.317,0-4.406-0.936-5.926-2.455c-1.518-1.52-2.454-3.609-2.455-5.926c0.001-2.317,0.937-4.406,2.455-5.926
	c1.52-1.518,3.609-2.454,5.926-2.455c2.317,0,4.406,0.936,5.926,2.455c1.518,1.52,2.454,3.609,2.455,5.926H32.915h0.984
	c0-2.854-1.16-5.447-3.031-7.317c-1.869-1.871-4.463-3.031-7.317-3.031c-2.854,0-5.447,1.16-7.317,3.031
	c-1.871,1.869-3.031,4.463-3.031,7.317c0,2.854,1.16,5.447,3.031,7.317c1.869,1.871,4.463,3.031,7.317,3.031
	c2.854,0.001,5.447-1.16,7.317-3.031c1.871-1.869,3.031-4.463,3.031-7.317H32.915z"/>
<circle cx="23.551" cy="51.818" r="2.111"/>
<path fill="#E2F4FD" d="M73.883,51.75c-0.037-5.14-4.213-9.296-9.362-9.296c-5.149,0-9.326,4.156-9.362,9.296H73.883z"/>
<path fill="#EE9865" d="M73.883,51.746c-0.037,5.14-4.213,9.296-9.362,9.296c-5.149,0-9.326-4.156-9.362-9.296H73.883z"/>
<path fill="#929496" d="M72.967,51.818h-0.984c0,2.064-0.834,3.923-2.186,5.277c-1.354,1.352-3.213,2.185-5.277,2.186
	c-2.064,0-3.923-0.834-5.277-2.186c-1.352-1.354-2.185-3.213-2.186-5.277c0-2.064,0.834-3.923,2.186-5.277
	c1.354-1.352,3.213-2.185,5.277-2.186c2.064,0,3.923,0.834,5.277,2.186c1.352,1.354,2.185,3.213,2.186,5.277H72.967h0.984
	c0-2.601-1.057-4.964-2.762-6.668c-1.703-1.705-4.067-2.762-6.668-2.762c-2.601,0-4.964,1.057-6.668,2.762
	c-1.705,1.703-2.762,4.067-2.762,6.668c0,2.601,1.057,4.964,2.762,6.668c1.703,1.705,4.067,2.762,6.668,2.762
	c2.601,0,4.964-1.057,6.668-2.762c1.705-1.703,2.762-4.067,2.762-6.668H72.967z"/>
<path d="M73.885,51.818h-0.984c0,2.317-0.937,4.406-2.455,5.926c-1.52,1.518-3.609,2.454-5.926,2.455
	c-2.317,0-4.406-0.936-5.926-2.455c-1.518-1.52-2.454-3.609-2.455-5.926c0-2.317,0.936-4.406,2.455-5.926
	c1.52-1.518,3.609-2.454,5.926-2.455c2.317,0,4.406,0.936,5.926,2.455c1.518,1.52,2.454,3.609,2.455,5.926H73.885h0.984
	c0-2.854-1.16-5.447-3.031-7.317c-1.869-1.871-4.463-3.031-7.317-3.031c-2.854,0-5.447,1.16-7.317,3.031
	c-1.871,1.869-3.031,4.463-3.031,7.317c-0.001,2.854,1.16,5.447,3.031,7.317c1.869,1.871,4.463,3.031,7.317,3.031
	c2.854,0.001,5.447-1.16,7.317-3.031c1.871-1.869,3.031-4.463,3.031-7.317H73.885z"/>
<circle cx="64.521" cy="51.818" r="2.111"/>
<polygon fill="#C65A1E" points="87.024,29.71 98.058,16.274 91.739,41.257 80.763,54.692 "/>
<polygon fill="#C65A1E" points="66.556,13.436 77.532,0 85.014,16.274 74.037,29.71 "/>
<polygon fill="#514396" points="80.249,14.354 75.756,14.354 76.83,18.557 78.64,18.243 "/>
<polygon fill="#7754A3" points="80.249,5.936 71.211,5.936 67.826,9.087 72.809,9.298 77.016,9.261 "/>
<polygon fill="#7B6CB1" points="77.037,17.54 77.037,15.698 80.249,12.546 80.249,5.936 77.046,9.087 70.582,9.087 70.582,27.489 
	71.44,27.489 77.002,20.862 80.209,16.856 80.249,14.354 "/>
<path fill="#7B6CB1" d="M75.888,16.754c-0.317,0-0.575-0.257-0.575-0.575s0.257-0.575,0.575-0.575h1.158V9.087h-9.22v18.402h3.667
	l5.551-6.745l0.002-3.99H75.888z"/>
<polygon fill="#7754A3" points="77.046,9.087 67.826,27.489 71.44,27.489 77.041,20.862 "/>
<ellipse transform="matrix(0.9993 0.037 -0.037 0.9993 0.506 -2.8894)" fill="#FFFFFF" cx="78.237" cy="12.212" rx="0.502" ry="1.16"/>
<ellipse cx="78.237" cy="12.212" rx="0.118" ry="0.272"/>
<ellipse transform="matrix(0.9993 0.0371 -0.0371 0.9993 0.4704 -2.9372)" fill="#FFFFFF" cx="79.483" cy="11.223" rx="0.468" ry="1.082"/>
<ellipse cx="79.483" cy="11.223" rx="0.11" ry="0.254"/>
<polygon fill="#EB894F" points="43.138,13.436 54.114,0 77.532,0 66.556,13.436 "/>
<polygon fill="#EB894F" points="74.037,29.71 85.014,16.274 98.058,16.274 87.024,29.71 "/>
<path fill="#E66825" d="M74.037,29.71h12.987l-6.261,24.982H77.01c0.241-1.028,0.354-2.109,0.312-3.228
	c-0.251-6.812-6.015-12.334-12.873-12.334c-6.858,0-12.214,5.522-11.963,12.334c0.041,1.119,0.23,2.2,0.551,3.228H35.637
	c0.241-1.028,0.354-2.109,0.312-3.228c-0.251-6.812-6.015-12.334-12.873-12.334c-6.858,0-12.214,5.522-11.962,12.334
	c0.041,1.119,0.234,2.2,0.551,3.228H5.002V29.71h37.926l0.21-16.274h23.418L74.037,29.71z"/>
<polygon fill="#C65A1E" points="45.321,29.705 45.348,16.169 64.953,16.169 70.901,29.705 "/>
</svg>
