<?xml version="1.0" encoding="utf-8"?>
<!-- Generator: Adobe Illustrator 17.0.0, SVG Export Plug-In . SVG Version: 6.00 Build 0)  -->
<!DOCTYPE svg PUBLIC "-//W3C//DTD SVG 1.1//EN" "http://www.w3.org/Graphics/SVG/1.1/DTD/svg11.dtd">
<svg version="1.1" id="Layer_1" xmlns="http://www.w3.org/2000/svg" xmlns:xlink="http://www.w3.org/1999/xlink" x="0px" y="0px"
	 width="357.95px" height="103.642px" viewBox="0 0 357.95 103.642" enable-background="new 0 0 357.95 103.642"
	 xml:space="preserve">
<polygon fill="#D1D2D3" points="67.663,103.642 10.744,103.642 10.744,16.898 39.203,0 67.663,16.898 "/>
<polygon fill="#D1D2D3" points="73.405,30.848 5.002,30.848 5.002,15.401 39.203,12.392 73.405,15.401 "/>
<rect x="87.236" y="27.037" fill="#D1D2D3" width="54.896" height="76.605"/>
<rect x="159.777" y="46.889" fill="#D1D2D3" width="54.896" height="56.753"/>
<rect x="58.777" y="77.519" fill="#D1D2D3" width="54.896" height="26.124"/>
<rect x="123.359" y="86.181" fill="#D1D2D3" width="54.896" height="17.461"/>
<rect x="252.523" y="98.573" fill="#D1D2D3" width="54.896" height="5.069"/>
<rect x="187.562" y="51.821" fill="#D1D2D3" width="54.896" height="51.821"/>
<polygon fill="#D1D2D3" points="274.538,46.889 247.09,30.848 219.642,46.889 219.642,103.642 274.538,103.642 "/>
<polygon fill="#D1D2D3" points="352.948,46.889 325.5,30.848 298.052,46.889 298.052,103.642 352.948,103.642 "/>
</svg>
