<?xml version="1.0" encoding="utf-8"?>
<!-- Generator: Adobe Illustrator 17.0.0, SVG Export Plug-In . SVG Version: 6.00 Build 0)  -->
<!DOCTYPE svg PUBLIC "-//W3C//DTD SVG 1.1//EN" "http://www.w3.org/Graphics/SVG/1.1/DTD/svg11.dtd">
<svg version="1.1" id="Layer_1" xmlns="http://www.w3.org/2000/svg" xmlns:xlink="http://www.w3.org/1999/xlink" x="0px" y="0px"
	 width="508.38px" height="103.642px" viewBox="0 0 508.38 103.642" enable-background="new 0 0 508.38 103.642"
	 xml:space="preserve">
<polygon fill="#D1D2D3" points="503.381,103.642 446.463,103.642 446.463,16.898 474.922,0 503.381,16.898 "/>
<polygon fill="#D1D2D3" points="203.846,103.642 146.928,103.642 146.928,16.898 175.387,0 203.846,16.898 "/>
<rect x="4.999" y="51.821" fill="#D1D2D3" width="54.896" height="51.821"/>
<rect x="75.868" y="27.037" fill="#D1D2D3" width="54.896" height="76.605"/>
<rect x="216.113" y="27.037" fill="#D1D2D3" width="33.633" height="76.605"/>
<polygon fill="#D1D2D3" points="341.566,65.34 301.923,51.821 263.23,65.34 263.23,103.642 341.566,103.642 "/>
<polygon fill="#D1D2D3" points="426.141,33.797 386.498,20.278 347.805,33.797 347.805,103.642 426.141,103.642 "/>
<rect x="38.841" y="77.732" fill="#D1D2D3" width="54.896" height="25.911"/>
<rect x="114.587" y="90.687" fill="#D1D2D3" width="54.896" height="12.955"/>
<rect x="197.142" y="90.687" fill="#D1D2D3" width="92.044" height="12.955"/>
<rect x="317.013" y="70.356" fill="#D1D2D3" width="139.347" height="33.286"/>
</svg>
