<?xml version="1.0" encoding="utf-8"?>
<!-- Generator: Adobe Illustrator 17.0.0, SVG Export Plug-In . SVG Version: 6.00 Build 0)  -->
<!DOCTYPE svg PUBLIC "-//W3C//DTD SVG 1.1//EN" "http://www.w3.org/Graphics/SVG/1.1/DTD/svg11.dtd">
<svg version="1.1" id="Layer_1" xmlns="http://www.w3.org/2000/svg" xmlns:xlink="http://www.w3.org/1999/xlink" x="0px" y="0px"
	 width="437.73px" height="139.69px" viewBox="0 0 437.73 139.69" enable-background="new 0 0 437.73 139.69" xml:space="preserve">
<polygon opacity="0.1" fill="#000000" points="404.27,11.27 375.81,52.95 375.81,89.31 355.32,92.45 355.32,52.95 326.86,36.05 298.4,52.95 
	298.4,101.17 288.91,102.62 288.91,52.95 260.45,36.05 231.99,52.95 231.99,111.34 222.08,112.86 222.08,52.95 108.24,52.95 
	108.24,120.54 84.9,120.54 84.9,0 5,0 5,139.69 77.11,139.69 84.9,139.69 108.24,139.69 222.08,139.69 231.99,139.69 288.91,139.69 
	298.4,139.69 355.32,139.69 375.81,139.69 385.2,139.69 432.73,139.69 432.73,52.95 "/>
</svg>
