<?xml version="1.0" encoding="utf-8"?>
<!-- Generator: Adobe Illustrator 17.0.0, SVG Export Plug-In . SVG Version: 6.00 Build 0)  -->
<!DOCTYPE svg PUBLIC "-//W3C//DTD SVG 1.1//EN" "http://www.w3.org/Graphics/SVG/1.1/DTD/svg11.dtd">
<svg version="1.1" id="Layer_1" xmlns="http://www.w3.org/2000/svg" xmlns:xlink="http://www.w3.org/1999/xlink" x="0px" y="0px"
	 width="357.95px" height="103.64px" viewBox="0 0 357.95 103.64" enable-background="new 0 0 357.95 103.64" xml:space="preserve">
<polygon opacity="0.1" fill="#000000" points="325.5,30.85 298.05,46.89 298.05,98.57 274.54,98.57 274.54,46.89 247.09,30.85 219.64,46.89 
	219.64,51.82 214.67,51.82 214.67,46.89 159.78,46.89 159.78,86.18 142.13,86.18 142.13,27.04 87.24,27.04 87.24,77.52 67.66,77.52 
	67.66,30.85 73.4,30.85 73.4,15.4 63.7,14.55 39.2,0 14.7,14.55 5,15.4 5,30.85 10.74,30.85 10.74,103.64 58.78,103.64 
	58.78,103.64 113.67,103.64 113.67,103.64 142.13,103.64 142.13,103.64 159.78,103.64 178.26,103.64 187.56,103.64 214.67,103.64 
	219.64,103.64 242.46,103.64 252.52,103.64 274.54,103.64 298.05,103.64 307.42,103.64 352.95,103.64 352.95,46.89 "/>
</svg>
