<?xml version="1.0" encoding="utf-8"?>
<!-- Generator: Adobe Illustrator 17.0.0, SVG Export Plug-In . SVG Version: 6.00 Build 0)  -->
<!DOCTYPE svg PUBLIC "-//W3C//DTD SVG 1.1//EN" "http://www.w3.org/Graphics/SVG/1.1/DTD/svg11.dtd">
<svg version="1.1" id="Layer_1" xmlns="http://www.w3.org/2000/svg" xmlns:xlink="http://www.w3.org/1999/xlink" x="0px" y="0px"
	 width="320.32px" height="47.81px" viewBox="0 0 320.32 47.81" enable-background="new 0 0 320.32 47.81" xml:space="preserve">
<path fill="#F48220" d="M320.32,34.87c0,7.15-5.79,12.94-12.94,12.94H12.94C5.79,47.81,0,42.02,0,34.87V17.62
	C0,10.47,5.79,4.67,12.94,4.67h294.43c7.15,0,12.94,5.79,12.94,12.94v17.26H320.32z"/>
<path fill="#FEE000" d="M320.32,30.2c0,7.15-5.79,12.94-12.94,12.94H12.94C5.79,43.14,0,37.35,0,30.2V12.94C0,5.79,5.79,0,12.94,0
	h294.43c7.15,0,12.94,5.79,12.94,12.94V30.2H320.32z"/>
<path fill="#EB2227" d="M282.12,7.52c-2.75,0-5.17,1.3-6.91,3.38c-1.74-2.08-4.17-3.38-6.91-3.38c-5.27,0-9.54,4.78-9.54,10.68
	c0,9.8,15.37,18.93,16.45,19.56c1.08-0.63,16.45-9.76,16.45-19.56C291.65,12.31,287.38,7.52,282.12,7.52z"/>
<ellipse fill="#F26522" cx="264.84" cy="17.59" rx="2.92" ry="3.52"/>
<polygon fill="#231F20" points="53.65,15.03 48.46,9.84 41.16,17.15 33.85,9.84 28.66,15.03 35.97,22.33 28.66,29.64 33.85,34.83 
	41.16,27.52 48.46,34.83 53.65,29.64 46.34,22.33 "/>
<polygon fill="#231F20" points="112.61,15.03 107.43,9.84 100.12,17.15 92.81,9.84 87.63,15.03 94.93,22.33 87.63,29.64 
	92.81,34.83 100.12,27.52 107.43,34.83 112.61,29.64 105.31,22.33 "/>
<polygon fill="#231F20" points="112.61,15.03 107.43,9.84 100.12,17.15 92.81,9.84 87.63,15.03 94.93,22.33 87.63,29.64 
	92.81,34.83 100.12,27.52 107.43,34.83 112.61,29.64 105.31,22.33 "/>
<polygon fill="#231F20" points="171.58,15.03 166.39,9.84 159.08,17.15 151.78,9.84 146.59,15.03 153.9,22.33 146.59,29.64 
	151.78,34.83 159.08,27.52 166.39,34.83 171.58,29.64 164.27,22.33 "/>
<path fill="#E92629" d="M220.068,15.27c-1.34,0-2.52,0.634-3.368,1.648c-0.848-1.014-2.033-1.648-3.368-1.648
	c-2.569,0-4.65,2.33-4.65,5.206c0,4.777,7.492,9.227,8.018,9.534c0.526-0.307,8.018-4.757,8.018-9.534
	C224.713,17.605,222.632,15.27,220.068,15.27z"/>
<ellipse fill="#F16623" cx="211.645" cy="20.178" rx="1.423" ry="1.716"/>
</svg>
