<?xml version="1.0" encoding="utf-8"?>
<!-- Generator: Adobe Illustrator 17.0.0, SVG Export Plug-In . SVG Version: 6.00 Build 0)  -->
<!DOCTYPE svg PUBLIC "-//W3C//DTD SVG 1.1//EN" "http://www.w3.org/Graphics/SVG/1.1/DTD/svg11.dtd">
<svg version="1.1" id="Layer_1" xmlns="http://www.w3.org/2000/svg" xmlns:xlink="http://www.w3.org/1999/xlink" x="0px" y="0px"
	 width="320.32px" height="47.81px" viewBox="0 0 320.32 47.81" enable-background="new 0 0 320.32 47.81" xml:space="preserve">
<path fill="#F48220" d="M320.32,34.87c0,7.15-5.79,12.94-12.94,12.94H12.94C5.79,47.81,0,42.02,0,34.87V17.62
	C0,10.47,5.79,4.67,12.94,4.67h294.43c7.15,0,12.94,5.79,12.94,12.94V34.87z"/>
<path fill="#FEE000" d="M320.32,30.2c0,7.15-5.79,12.94-12.94,12.94H12.94C5.79,43.14,0,37.35,0,30.2V12.94C0,5.79,5.79,0,12.94,0
	h294.43c7.15,0,12.94,5.79,12.94,12.94V30.2z"/>
<path fill="#EB2227" d="M165.09,7.52c-2.75,0-5.17,1.3-6.91,3.38c-1.74-2.08-4.17-3.38-6.91-3.38c-5.27,0-9.54,4.78-9.54,10.68
	c0,9.8,15.37,18.93,16.45,19.56c1.08-0.63,16.45-9.76,16.45-19.56C174.63,12.31,170.36,7.52,165.09,7.52z"/>
<ellipse fill="#f26522" cx="147.82" cy="17.59" rx="2.92" ry="3.52"/>
<path fill="#EB2227" d="M223.61,7.52c-2.75,0-5.17,1.3-6.91,3.38c-1.74-2.08-4.17-3.38-6.91-3.38c-5.27,0-9.54,4.78-9.54,10.68
	c0,9.8,15.37,18.93,16.45,19.56c1.08-0.63,16.45-9.76,16.45-19.56C233.14,12.31,228.87,7.52,223.61,7.52z"/>
<ellipse fill="#f26522" cx="206.33" cy="17.59" rx="2.92" ry="3.52"/>
<path fill="#EB2227" d="M282.12,7.52c-2.75,0-5.17,1.3-6.91,3.38c-1.74-2.08-4.17-3.38-6.91-3.38c-5.27,0-9.54,4.78-9.54,10.68
	c0,9.8,15.37,18.93,16.45,19.56c1.08-0.63,16.45-9.76,16.45-19.56C291.65,12.31,287.38,7.52,282.12,7.52z"/>
<ellipse fill="#f26522" cx="264.84" cy="17.59" rx="2.92" ry="3.52"/>
<path fill="#EB2227" d="M48.07,7.52c-2.75,0-5.17,1.3-6.91,3.38c-1.74-2.08-4.17-3.38-6.91-3.38c-5.27,0-9.54,4.78-9.54,10.68
	c0,9.8,15.37,18.93,16.45,19.56c1.08-0.63,16.45-9.76,16.45-19.56C57.61,12.31,53.34,7.52,48.07,7.52z"/>
<ellipse fill="#f26522" cx="30.8" cy="17.59" rx="2.92" ry="3.52"/>
<path fill="#EB2227" d="M106.58,7.52c-2.75,0-5.17,1.3-6.91,3.38c-1.74-2.08-4.17-3.38-6.91-3.38c-5.27,0-9.54,4.78-9.54,10.68
	c0,9.8,15.37,18.93,16.45,19.56c1.08-0.63,16.45-9.76,16.45-19.56C116.12,12.31,111.85,7.52,106.58,7.52z"/>
<ellipse fill="#f26522" cx="89.31" cy="17.59" rx="2.92" ry="3.52"/>
</svg>
