<?xml version="1.0" encoding="utf-8"?>
<!-- Generator: Adobe Illustrator 17.0.0, SVG Export Plug-In . SVG Version: 6.00 Build 0)  -->
<!DOCTYPE svg PUBLIC "-//W3C//DTD SVG 1.1//EN" "http://www.w3.org/Graphics/SVG/1.1/DTD/svg11.dtd">
<svg version="1.1" id="Layer_1" xmlns="http://www.w3.org/2000/svg" xmlns:xlink="http://www.w3.org/1999/xlink" x="0px" y="0px"
	 width="320.32px" height="47.81px" viewBox="0 0 320.32 47.81" enable-background="new 0 0 320.32 47.81" xml:space="preserve">
<path fill="#F48220" d="M320.32,34.87c0,7.15-5.79,12.94-12.94,12.94H12.94C5.79,47.81,0,42.02,0,34.87V17.62
	C0,10.47,5.79,4.67,12.94,4.67h294.43c7.15,0,12.94,5.79,12.94,12.94v17.26H320.32z"/>
<path fill="#FDE000" d="M320.32,30.2c0,7.15-5.79,12.94-12.94,12.94H12.94C5.79,43.14,0,37.35,0,30.2V12.94C0,5.79,5.79,0,12.94,0
	h294.43c7.15,0,12.94,5.79,12.94,12.94V30.2H320.32z"/>
<path fill="#EA272A" d="M278.578,15.27c-1.34,0-2.52,0.634-3.368,1.648c-0.848-1.014-2.033-1.648-3.368-1.648
	c-2.569,0-4.65,2.33-4.65,5.206c0,4.777,7.492,9.227,8.018,9.534c0.526-0.307,8.018-4.757,8.018-9.534
	C283.223,17.605,281.142,15.27,278.578,15.27z"/>
<ellipse fill="#F26724" cx="270.155" cy="20.178" rx="1.423" ry="1.716"/>
<polygon fill="#231F20" points="53.65,15.03 48.46,9.84 41.16,17.15 33.85,9.84 28.66,15.03 35.97,22.33 28.66,29.64 33.85,34.83 
	41.16,27.52 48.46,34.83 53.65,29.64 46.34,22.33 "/>
<polygon fill="#231F20" points="112.61,15.03 107.43,9.84 100.12,17.15 92.81,9.84 87.63,15.03 94.93,22.33 87.63,29.64 
	92.81,34.83 100.12,27.52 107.43,34.83 112.61,29.64 105.31,22.33 "/>
<polygon fill="#231F20" points="112.61,15.03 107.43,9.84 100.12,17.15 92.81,9.84 87.63,15.03 94.93,22.33 87.63,29.64 
	92.81,34.83 100.12,27.52 107.43,34.83 112.61,29.64 105.31,22.33 "/>
<polygon fill="#231F20" points="171.58,15.03 166.39,9.84 159.08,17.15 151.78,9.84 146.59,15.03 153.9,22.33 146.59,29.64 
	151.78,34.83 159.08,27.52 166.39,34.83 171.58,29.64 164.27,22.33 "/>
<polygon fill="#231F20" points="171.58,15.03 166.39,9.84 159.08,17.15 151.78,9.84 146.59,15.03 153.9,22.33 146.59,29.64 
	151.78,34.83 159.08,27.52 166.39,34.83 171.58,29.64 164.27,22.33 "/>
<polygon fill="#231F20" points="171.58,15.03 166.39,9.84 159.08,17.15 151.78,9.84 146.59,15.03 153.9,22.33 146.59,29.64 
	151.78,34.83 159.08,27.52 166.39,34.83 171.58,29.64 164.27,22.33 "/>
<polygon fill="#231F20" points="230.54,15.03 225.36,9.84 218.05,17.15 210.74,9.84 205.56,15.03 212.86,22.33 205.56,29.64 
	210.74,34.83 218.05,27.52 225.36,34.83 230.54,29.64 223.23,22.33 "/>
</svg>
