<?xml version="1.0" encoding="utf-8"?>
<!-- Generator: Adobe Illustrator 15.0.0, SVG Export Plug-In . SVG Version: 6.00 Build 0)  -->
<!DOCTYPE svg PUBLIC "-//W3C//DTD SVG 1.1//EN" "http://www.w3.org/Graphics/SVG/1.1/DTD/svg11.dtd">
<svg version="1.1" id="Layer_1" xmlns="http://www.w3.org/2000/svg" xmlns:xlink="http://www.w3.org/1999/xlink" x="0px" y="0px"
	 width="215.391px" height="288.046px" viewBox="0 0 215.391 288.046" enable-background="new 0 0 215.391 288.046"
	 xml:space="preserve">
<polygon fill="#3563AD" points="148.287,91.675 215.391,119.525 148.287,147.375 "/>
<polygon fill="#3563AD" points="67.104,147.375 0,119.525 67.104,91.674 "/>
<polygon fill="#3563AD" points="110.879,183.847 147.116,220.083 110.879,256.321 "/>
<polygon fill="#3563AD" points="103.576,183.847 67.339,220.083 103.576,256.321 "/>
<polygon fill="#3563AD" points="64.538,20.383 84.921,0 105.304,20.383 "/>
<polygon fill="#3563AD" points="110.035,20.383 130.418,0 150.801,20.383 "/>
<polygon fill="#396DB4" points="82.591,234.362 42.023,204.888 26.528,157.198 42.023,109.508 82.591,80.034 132.734,80.034 
	173.303,109.508 188.798,157.198 173.303,204.888 132.734,234.362 "/>
<polygon fill="#396DB4" points="83.743,104.41 53.915,67.007 64.56,20.366 107.663,9.074 150.766,20.366 161.411,67.007 
	131.583,104.41 "/>
<polygon fill="#3563AD" points="53.915,67.007 64.56,20.366 107.663,9.074 "/>
<polygon fill="#3563AD" points="161.412,67.007 150.767,20.366 107.664,9.074 "/>
<polygon fill="#3563AD" points="83.743,104.41 53.915,67.007 161.411,67.007 131.583,104.41 "/>
<path fill="#FFFFFF" d="M105.745,40.258c0,1.561-1.266,2.827-2.827,2.827c-1.562,0-2.827-1.266-2.827-2.827s1.265-2.827,2.827-2.827
	C104.479,37.431,105.745,38.697,105.745,40.258"/>
<path fill="#FFFFFF" d="M114.391,40.258c0,1.561-1.266,2.827-2.827,2.827s-2.827-1.266-2.827-2.827s1.266-2.827,2.827-2.827
	S114.391,38.697,114.391,40.258"/>
<polygon fill="#3563AD" points="42.023,109.507 82.591,80.034 132.735,80.034 173.303,109.507 "/>
<path fill="#231F20" d="M106.768,55.186v12.058c0,0.261,0.212,0.473,0.473,0.473c0.262,0,0.474-0.212,0.474-0.473V55.186
	c0-0.261-0.212-0.473-0.474-0.473C106.979,54.713,106.768,54.925,106.768,55.186"/>
<path fill="#231F20" d="M110.23,67.064c0,0.781-0.633,1.414-1.414,1.414h-2.957c-0.78,0-1.413-0.633-1.413-1.414
	c0-0.781,0.633-1.414,1.413-1.414h2.957C109.598,65.651,110.23,66.284,110.23,67.064"/>
<polygon fill="#231F20" points="118.619,48.067 107.241,59.445 95.863,48.067 "/>
<polygon fill="#3563AD" points="82.591,234.362 42.023,204.888 173.303,204.888 132.734,234.362 "/>
<polygon fill="#3563AD" points="82.591,234.362 42.023,204.888 26.528,157.198 42.023,109.508 "/>
<polygon fill="#3563AD" points="132.735,234.362 173.303,204.888 188.799,157.198 173.303,109.508 "/>
<polygon fill="#E4E5E6" points="198.202,280.239 107.695,288.046 17.188,280.239 107.695,272.431 "/>
</svg>
