<?xml version="1.0" encoding="utf-8"?>
<!-- Generator: Adobe Illustrator 17.0.0, SVG Export Plug-In . SVG Version: 6.00 Build 0)  -->
<!DOCTYPE svg PUBLIC "-//W3C//DTD SVG 1.1//EN" "http://www.w3.org/Graphics/SVG/1.1/DTD/svg11.dtd">
<svg version="1.1" id="Layer_1" xmlns="http://www.w3.org/2000/svg" xmlns:xlink="http://www.w3.org/1999/xlink" x="0px" y="0px"
	 width="130.32px" height="47.81px" viewBox="0 0 130.32 47.81" enable-background="new 0 0 130.32 47.81" xml:space="preserve">
<path fill="#F48220" d="M130.32,34.87c0,7.15-5.79,12.94-12.94,12.94H12.94C5.79,47.81,0,42.02,0,34.87V17.62
	C0,10.47,5.79,4.67,12.94,4.67h104.43c7.15,0,12.94,5.79,12.94,12.94V34.87z"/>
<path fill="#FEE000" d="M130.32,30.2c0,7.15-5.79,12.94-12.94,12.94H12.94C5.79,43.14,0,37.35,0,30.2V12.94C0,5.79,5.79,0,12.94,0
	h104.43c7.15,0,12.94,5.79,12.94,12.94V30.2z"/>
</svg>
