<?xml version="1.0" encoding="utf-8"?>
<!-- Generator: Adobe Illustrator 15.0.0, SVG Export Plug-In . SVG Version: 6.00 Build 0)  -->
<!DOCTYPE svg PUBLIC "-//W3C//DTD SVG 1.1//EN" "http://www.w3.org/Graphics/SVG/1.1/DTD/svg11.dtd">
<svg version="1.1" id="Layer_1" xmlns="http://www.w3.org/2000/svg" xmlns:xlink="http://www.w3.org/1999/xlink" x="0px" y="0px"
	 width="730.21px" height="161.446px" viewBox="0 0 730.21 161.446" enable-background="new 0 0 730.21 161.446"
	 xml:space="preserve">
<path fill="#396DB4" d="M251.989,70.77c-2.005,1.474-3.682,2.126-5.033,1.953c-1.351-0.171-2.731-1.215-4.141-3.132l-12.91-17.55
	c-1.421-1.929-2.01-3.563-1.773-4.905c0.238-1.34,1.359-2.748,3.364-4.222l6.732-4.954c2.219-1.633,3.889-2.763,5.009-3.394
	c1.12-0.629,2.171-1.082,3.154-1.358c1.8-0.509,3.49-0.479,5.066,0.091c1.574,0.571,2.952,1.657,4.131,3.258
	c0.927,1.26,1.455,2.567,1.585,3.918c0.13,1.352-0.143,2.744-0.821,4.174c1.866-0.555,3.54-0.563,5.027-0.024
	c1.484,0.54,2.848,1.654,4.091,3.344c1.215,1.651,1.928,3.338,2.135,5.061c0.207,1.722-0.103,3.393-0.931,5.013
	c-0.537,1.094-1.303,2.153-2.298,3.177c-0.995,1.024-2.811,2.505-5.446,4.444L251.989,70.77 M242.966,51.612l3.69-2.713
	c1.234-0.909,1.97-1.731,2.206-2.468c0.233-0.737,0.032-1.54-0.608-2.411c-0.677-0.92-1.415-1.348-2.215-1.286
	c-0.798,0.064-2.175,0.814-4.129,2.252l-2.477,1.822L242.966,51.612 M250.495,61.843l4.141-3.047
	c1.373-1.01,2.202-1.931,2.487-2.761c0.282-0.83,0.085-1.706-0.592-2.626c-0.677-0.921-1.456-1.358-2.335-1.313
	c-0.882,0.045-2.021,0.582-3.421,1.612L246.71,56.7L250.495,61.843"/>
<path fill="#396DB4" d="M280.686,48.118c0.684,1.512,0.774,2.883,0.274,4.114c-0.499,1.23-1.548,2.207-3.146,2.928
	c-1.655,0.748-3.086,0.927-4.293,0.536c-1.206-0.39-2.152-1.342-2.835-2.854l-10.374-22.957c-0.682-1.512-0.772-2.885-0.262-4.119
	c0.505-1.234,1.558-2.212,3.156-2.934c1.641-0.741,3.065-0.912,4.277-0.514c1.209,0.397,2.153,1.345,2.829,2.843L280.686,48.118"/>
<path fill="#396DB4" d="M315.206,36.951c0.374,1.342,0.326,2.459-0.14,3.353c-0.467,0.893-1.333,1.515-2.601,1.867
	c-1.175,0.328-2.128,0.292-2.854-0.107c-0.73-0.399-1.266-1.16-1.61-2.283c-0.854,1.604-2.042,2.953-3.566,4.05
	c-1.522,1.097-3.422,1.962-5.699,2.595c-4.766,1.324-8.955,0.804-12.569-1.564c-3.616-2.366-6.178-6.271-7.691-11.715
	c-1.5-5.399-1.129-10.108,1.118-14.128c2.245-4.019,6.039-6.77,11.377-8.254c3.846-1.069,7.203-1.177,10.07-0.325
	c2.869,0.851,4.623,2.431,5.265,4.738c0.364,1.312,0.239,2.472-0.374,3.479c-0.612,1.008-1.629,1.708-3.046,2.102
	c-1.237,0.343-2.615,0.15-4.133-0.582c-0.094-0.039-0.158-0.07-0.196-0.092c-0.151-0.071-0.356-0.168-0.619-0.291
	c-1.754-0.877-3.37-1.111-4.847-0.7c-2.143,0.596-3.515,1.863-4.123,3.802c-0.605,1.94-0.456,4.538,0.449,7.795
	c0.837,3.016,2,5.122,3.484,6.317c1.487,1.196,3.323,1.49,5.51,0.882c1.569-0.436,2.797-1.172,3.687-2.207
	c0.891-1.035,1.292-2.206,1.205-3.514l-1.244,0.345c-1.418,0.395-2.531,0.411-3.337,0.05c-0.807-0.361-1.372-1.121-1.694-2.282
	c-0.356-1.282-0.225-2.339,0.399-3.17c0.621-0.83,1.762-1.476,3.42-1.937l4.412-1.226c2.05-0.57,3.683-0.483,4.897,0.26
	c1.213,0.744,2.123,2.2,2.726,4.372L315.206,36.951"/>
<path fill="#396DB4" d="M343.19,35.797c-2.476,0.258-4.252-0.027-5.332-0.859c-1.078-0.831-1.74-2.43-1.988-4.796L333.6,8.473
	c-0.249-2.382,0.067-4.091,0.95-5.128c0.883-1.036,2.562-1.684,5.037-1.944l8.314-0.87c2.739-0.287,4.752-0.418,6.036-0.396
	c1.286,0.022,2.421,0.164,3.409,0.422c1.812,0.471,3.253,1.351,4.325,2.64c1.071,1.288,1.711,2.921,1.917,4.898
	c0.163,1.556-0.041,2.951-0.613,4.183c-0.57,1.233-1.51,2.295-2.817,3.187c1.891,0.463,3.339,1.303,4.347,2.519
	c1.009,1.217,1.622,2.868,1.841,4.954c0.213,2.039-0.024,3.855-0.717,5.445c-0.69,1.591-1.803,2.877-3.337,3.856
	c-1.016,0.672-2.211,1.198-3.588,1.579c-1.376,0.38-3.692,0.741-6.945,1.082L343.19,35.797 M345.088,14.706l4.553-0.477
	c1.526-0.16,2.578-0.498,3.152-1.014c0.575-0.517,0.807-1.313,0.695-2.387c-0.119-1.136-0.54-1.879-1.26-2.228
	c-0.722-0.35-2.289-0.398-4.702-0.146l-3.058,0.321L345.088,14.706 M346.411,27.339l5.114-0.535
	c1.696-0.178,2.877-0.554,3.541-1.127c0.664-0.573,0.936-1.428,0.817-2.564c-0.119-1.137-0.569-1.907-1.352-2.314
	c-0.782-0.406-2.037-0.518-3.765-0.338l-5.019,0.526L346.411,27.339"/>
<path fill="#396DB4" d="M379.349,26.478l10.184,0.774c1.593,0.122,2.763,0.603,3.515,1.445c0.752,0.842,1.07,2.036,0.954,3.581
	c-0.105,1.389-0.597,2.415-1.47,3.078c-0.875,0.664-2.086,0.937-3.63,0.819l-15.733-1.195c-1.903-0.146-3.27-0.661-4.097-1.548
	c-0.827-0.887-1.174-2.204-1.042-3.953l1.875-24.65c0.125-1.655,0.706-2.903,1.744-3.741c1.037-0.84,2.43-1.193,4.178-1.061
	c1.794,0.137,3.126,0.67,3.999,1.599c0.871,0.931,1.243,2.214,1.119,3.853L379.349,26.478"/>
<path fill="#396DB4" d="M396.142,23.438l5.281-16.6c0.497-1.567,1.353-2.642,2.566-3.225c1.212-0.584,2.644-0.611,4.301-0.085
	c1.714,0.545,2.896,1.377,3.542,2.494c0.646,1.117,0.723,2.451,0.231,4.003l-5.076,15.952c-0.588,1.85-0.652,3.279-0.192,4.287
	c0.458,1.009,1.494,1.769,3.104,2.282c1.582,0.502,2.854,0.468,3.815-0.105c0.961-0.573,1.732-1.768,2.312-3.589l5.076-15.952
	c0.491-1.55,1.325-2.596,2.5-3.134c1.172-0.539,2.615-0.535,4.332,0.011c1.654,0.527,2.809,1.378,3.461,2.554
	c0.651,1.177,0.73,2.549,0.23,4.115l-5.28,16.601c-1.286,4.042-3.6,6.756-6.938,8.14c-3.341,1.386-7.403,1.317-12.192-0.206
	c-4.787-1.524-8.15-3.817-10.092-6.883C395.183,31.034,394.856,27.48,396.142,23.438"/>
<path fill="#396DB4" d="M444.516,15.955l14.737,6.495c1.446,0.637,2.403,1.456,2.869,2.457c0.465,1.001,0.42,2.132-0.135,3.392
	c-0.53,1.203-1.303,1.957-2.319,2.262c-1.015,0.306-2.224,0.148-3.627-0.47l-10.829-4.772l-1.854,4.211l8.636,3.806
	c1.446,0.637,2.369,1.387,2.769,2.247c0.398,0.86,0.329,1.905-0.216,3.137c-0.535,1.218-1.275,1.992-2.215,2.32
	c-0.94,0.33-2.048,0.215-3.324-0.348l-8.851-3.9l-2.158,4.898l11.322,4.99c1.432,0.631,2.383,1.452,2.853,2.463
	c0.47,1.011,0.42,2.16-0.146,3.45c-0.538,1.218-1.315,1.983-2.334,2.295c-1.018,0.312-2.229,0.159-3.633-0.46l-15.49-6.826
	c-2.277-1.003-3.678-2.134-4.201-3.391c-0.523-1.257-0.307-2.974,0.654-5.151l8.785-19.937c0.966-2.192,2.089-3.519,3.371-3.981
	C440.457,14.68,442.238,14.951,444.516,15.955"/>
<path fill="#396DB4" d="M466.455,33.632c-1.023-0.633-1.676-1.404-1.958-2.309c-0.282-0.906-0.16-1.824,0.365-2.755
	c0.562-0.992,1.357-1.644,2.385-1.956c1.025-0.312,2.011-0.202,2.949,0.331c1.237,0.698,1.972,1.662,2.205,2.889
	s-0.062,2.569-0.888,4.027c-0.496,0.877-1.094,1.644-1.794,2.301c-0.699,0.658-1.452,1.169-2.259,1.536
	c-1.019,0.469-2.096,0.721-3.23,0.755c-1.135,0.034-2.037-0.136-2.702-0.513c-0.391-0.221-0.632-0.528-0.723-0.922
	c-0.091-0.393-0.015-0.806,0.23-1.24c0.154-0.275,0.364-0.466,0.629-0.575c0.264-0.108,0.763-0.158,1.496-0.147
	c0.943,0.032,1.64-0.059,2.089-0.273C465.697,34.568,466.1,34.186,466.455,33.632"/>
<path fill="#396DB4" d="M460.209,49.985c0.978-0.956,2.067-1.438,3.271-1.446c1.201-0.008,2.266,0.462,3.191,1.409
	c0.925,0.946,1.369,2.479,1.335,4.595c-0.017,0.393-0.025,0.697-0.026,0.909c0.008,1.17,0.151,2.102,0.432,2.798
	c0.277,0.693,0.76,1.391,1.443,2.091c0.851,0.871,1.68,1.401,2.486,1.591c0.806,0.191,1.49,0.012,2.049-0.534
	c0.827-0.81,0.503-2.585-0.976-5.325c-0.375-0.706-0.667-1.263-0.874-1.67c-1.083-2.096-1.887-3.797-2.415-5.102
	c-0.527-1.303-0.824-2.332-0.891-3.089c-0.151-1.512-0.007-2.881,0.438-4.104c0.446-1.224,1.211-2.366,2.298-3.428
	c2.399-2.344,5.114-3.289,8.146-2.834s6.104,2.274,9.217,5.459c2.743,2.808,4.466,5.62,5.167,8.437
	c0.703,2.817,0.271,4.987-1.288,6.511c-0.904,0.883-1.876,1.304-2.918,1.259c-1.041-0.044-2.035-0.55-2.983-1.518
	c-0.936-0.958-1.449-2.421-1.545-4.39c-0.025-0.522-0.053-0.916-0.081-1.182c-0.088-0.82-0.28-1.567-0.581-2.24
	c-0.301-0.674-0.697-1.263-1.19-1.769c-0.769-0.785-1.5-1.254-2.195-1.406c-0.695-0.151-1.306,0.03-1.833,0.546
	c-0.818,0.799-0.482,2.617,1.006,5.452l0.047,0.113c0.124,0.235,0.301,0.567,0.53,0.995c2.103,4.003,3.252,6.75,3.448,8.242
	c0.215,1.661,0.115,3.11-0.298,4.344s-1.19,2.409-2.33,3.523c-2.625,2.566-5.519,3.609-8.677,3.132
	c-3.159-0.478-6.436-2.455-9.832-5.929c-2.87-2.937-4.625-5.814-5.263-8.63C457.88,53.979,458.442,51.71,460.209,49.985"/>
<path fill="#396DB4" d="M265.47,47.969c-1.243-1.69-2.606-2.804-4.091-3.343c-1.487-0.54-3.161-0.532-5.026,0.023
	c0.677-1.43,0.95-2.822,0.82-4.174c-0.13-1.351-0.657-2.658-1.585-3.918c-1.179-1.601-2.556-2.687-4.13-3.258
	c-1.577-0.57-3.266-0.6-5.067-0.091c-0.983,0.276-2.034,0.729-3.154,1.358c-1.12,0.631-2.789,1.761-5.009,3.394l-6.732,4.954
	c-2.005,1.474-3.126,2.882-3.364,4.223c-0.237,1.341,0.352,2.976,1.773,4.905l12.91,17.55c1.411,1.916,2.79,2.96,4.142,3.131
	c1.351,0.173,3.028-0.479,5.033-1.953l6.94-5.106c2.635-1.938,4.452-3.42,5.447-4.444c0.994-1.024,1.76-2.083,2.298-3.177
	c0.827-1.62,1.137-3.291,0.93-5.013C267.398,51.308,266.685,49.621,265.47,47.969 M242.967,51.612l-3.534-4.803l2.477-1.823
	c1.954-1.438,3.331-2.188,4.129-2.251c0.801-0.063,1.538,0.365,2.215,1.286c0.64,0.87,0.842,1.673,0.608,2.41
	c-0.236,0.737-0.971,1.56-2.206,2.468L242.967,51.612 M257.123,56.035c-0.284,0.83-1.113,1.751-2.487,2.761l-4.141,3.047
	L246.71,56.7l4.065-2.992c1.4-1.03,2.54-1.567,3.421-1.611c0.879-0.046,1.658,0.391,2.336,1.312
	C257.209,54.329,257.406,55.205,257.123,56.035 M270.313,25.16c-0.677-1.497-1.621-2.445-2.83-2.842
	c-1.211-0.398-2.636-0.227-4.276,0.514c-1.599,0.722-2.652,1.7-3.157,2.934c-0.509,1.234-0.419,2.607,0.262,4.119l10.374,22.957
	c0.684,1.512,1.629,2.464,2.835,2.854c1.208,0.391,2.639,0.212,4.293-0.536c1.598-0.721,2.647-1.698,3.147-2.928
	c0.499-1.231,0.409-2.602-0.275-4.114L270.313,25.16 M312.881,28.581c-0.603-2.172-1.513-3.629-2.726-4.372s-2.847-0.83-4.896-0.26
	l-4.413,1.225c-1.658,0.462-2.799,1.108-3.42,1.938c-0.623,0.831-0.755,1.888-0.399,3.169c0.322,1.161,0.887,1.922,1.694,2.283
	c0.806,0.361,1.919,0.344,3.338-0.05l1.243-0.346c0.087,1.309-0.314,2.48-1.205,3.514c-0.889,1.036-2.118,1.771-3.687,2.207
	c-2.187,0.608-4.023,0.314-5.509-0.882c-1.485-1.195-2.647-3.301-3.485-6.317c-0.905-3.257-1.054-5.855-0.448-7.795
	c0.607-1.938,1.979-3.206,4.123-3.801c1.476-0.411,3.093-0.177,4.846,0.699c0.263,0.123,0.469,0.221,0.619,0.292
	c0.038,0.022,0.102,0.052,0.196,0.092c1.518,0.731,2.896,0.924,4.133,0.581c1.417-0.394,2.434-1.094,3.047-2.102
	c0.613-1.007,0.737-2.166,0.373-3.478c-0.641-2.308-2.396-3.887-5.265-4.739c-2.867-0.851-6.224-0.744-10.07,0.326
	c-5.338,1.483-9.131,4.234-11.376,8.254c-2.247,4.019-2.619,8.728-1.118,14.127c1.513,5.444,4.074,9.349,7.69,11.716
	c3.614,2.367,7.804,2.888,12.569,1.562c2.277-0.633,4.177-1.497,5.699-2.595c1.525-1.097,2.712-2.447,3.566-4.049
	c0.345,1.123,0.881,1.884,1.61,2.282c0.728,0.399,1.68,0.435,2.856,0.108c1.267-0.352,2.134-0.974,2.6-1.867
	c0.466-0.894,0.514-2.012,0.14-3.353L312.881,28.581 M364.505,17.984c-1.008-1.216-2.456-2.056-4.347-2.519
	c1.307-0.892,2.247-1.954,2.817-3.187c0.572-1.232,0.776-2.627,0.613-4.183c-0.206-1.977-0.846-3.61-1.917-4.898
	c-1.072-1.289-2.513-2.169-4.325-2.64c-0.988-0.258-2.123-0.399-3.409-0.422c-1.284-0.022-3.297,0.109-6.036,0.396l-8.314,0.87
	c-2.475,0.26-4.154,0.908-5.037,1.944c-0.883,1.038-1.199,2.746-0.95,5.128l2.27,21.669c0.248,2.367,0.91,3.966,1.988,4.796
	c1.08,0.832,2.856,1.117,5.332,0.859l8.57-0.897c3.252-0.341,5.568-0.702,6.944-1.082c1.377-0.38,2.572-0.907,3.588-1.579
	c1.534-0.979,2.647-2.265,3.337-3.856c0.692-1.59,0.93-3.406,0.717-5.445C366.127,20.852,365.514,19.201,364.505,17.984
	 M344.468,8.775l3.058-0.321c2.413-0.252,3.98-0.204,4.702,0.146c0.72,0.349,1.141,1.092,1.26,2.228
	c0.112,1.074-0.12,1.87-0.695,2.387c-0.574,0.516-1.626,0.854-3.152,1.015l-4.553,0.476L344.468,8.775 M355.066,25.677
	c-0.664,0.573-1.845,0.949-3.541,1.127l-5.114,0.535l-0.664-6.352l5.019-0.526c1.728-0.18,2.984-0.068,3.765,0.339
	c0.783,0.406,1.233,1.177,1.352,2.313C356.002,24.249,355.73,25.104,355.066,25.677 M389.532,27.252l-10.184-0.774l1.596-20.999
	c0.125-1.639-0.247-2.923-1.119-3.853c-0.872-0.929-2.204-1.462-3.999-1.599c-1.748-0.132-3.142,0.221-4.178,1.061
	c-1.039,0.838-1.62,2.086-1.745,3.74l-1.873,24.651c-0.134,1.749,0.214,3.065,1.041,3.952c0.827,0.887,2.193,1.403,4.097,1.549
	l15.732,1.195c1.544,0.118,2.756-0.155,3.631-0.819c0.872-0.664,1.364-1.689,1.47-3.079c0.116-1.545-0.201-2.738-0.953-3.58
	C392.295,27.855,391.125,27.374,389.532,27.252 M431.626,16.446c0.5-1.566,0.421-2.938-0.231-4.115
	c-0.651-1.176-1.806-2.027-3.46-2.554c-1.717-0.546-3.161-0.55-4.333-0.011c-1.174,0.538-2.007,1.583-2.5,3.134l-5.076,15.952
	c-0.577,1.82-1.35,3.016-2.311,3.589c-0.962,0.573-2.234,0.607-3.816,0.104c-1.609-0.512-2.646-1.273-3.104-2.281
	c-0.46-1.008-0.396-2.437,0.192-4.287l5.075-15.952c0.492-1.552,0.416-2.886-0.229-4.003c-0.646-1.118-1.828-1.949-3.543-2.494
	c-1.656-0.527-3.089-0.499-4.301,0.085c-1.215,0.583-2.069,1.658-2.566,3.224l-5.282,16.601c-1.285,4.042-0.958,7.596,0.983,10.66
	c1.94,3.065,5.305,5.359,10.092,6.882c4.789,1.523,8.852,1.593,12.192,0.207c3.338-1.384,5.65-4.099,6.938-8.14L431.626,16.446
	 M456.041,30.091c1.403,0.618,2.612,0.776,3.628,0.471c1.015-0.306,1.788-1.06,2.318-2.263c0.556-1.26,0.601-2.391,0.135-3.392
	c-0.465-1-1.422-1.819-2.868-2.457l-14.739-6.495c-2.277-1.004-4.057-1.275-5.337-0.813c-1.281,0.462-2.404,1.789-3.371,3.981
	l-8.785,19.938c-0.96,2.176-1.177,3.893-0.652,5.15c0.521,1.257,1.923,2.388,4.2,3.391l15.489,6.826
	c1.405,0.619,2.616,0.772,3.633,0.46c1.021-0.312,1.798-1.077,2.335-2.295c0.567-1.289,0.616-2.439,0.146-3.449
	c-0.469-1.012-1.42-1.833-2.852-2.464l-11.323-4.99l2.159-4.898l8.851,3.9c1.275,0.563,2.383,0.678,3.324,0.349
	c0.938-0.329,1.679-1.103,2.215-2.321c0.544-1.231,0.614-2.277,0.215-3.137s-1.323-1.609-2.769-2.247l-8.637-3.805l1.855-4.212
	L456.041,30.091 M461.036,35.777c-0.246,0.433-0.321,0.846-0.231,1.239c0.092,0.394,0.333,0.701,0.724,0.922
	c0.666,0.377,1.566,0.548,2.701,0.514c1.135-0.035,2.213-0.286,3.231-0.756c0.807-0.366,1.56-0.878,2.259-1.536
	c0.7-0.657,1.298-1.424,1.794-2.301c0.825-1.458,1.121-2.8,0.887-4.027c-0.232-1.227-0.968-2.19-2.204-2.889
	c-0.939-0.533-1.924-0.642-2.949-0.331c-1.027,0.312-1.822,0.965-2.385,1.957c-0.526,0.93-0.647,1.848-0.365,2.754
	c0.283,0.906,0.935,1.676,1.958,2.31c-0.355,0.553-0.757,0.937-1.205,1.149c-0.449,0.214-1.146,0.304-2.09,0.272
	c-0.732-0.01-1.232,0.039-1.496,0.147C461.399,35.311,461.19,35.502,461.036,35.777 M494.501,49.743
	c-0.701-2.817-2.425-5.629-5.167-8.437c-3.113-3.185-6.185-5.004-9.217-5.459c-3.032-0.456-5.747,0.489-8.146,2.834
	c-1.087,1.062-1.852,2.204-2.298,3.428c-0.445,1.223-0.59,2.591-0.438,4.103c0.066,0.757,0.362,1.787,0.891,3.09
	c0.528,1.304,1.332,3.005,2.415,5.102c0.207,0.407,0.499,0.964,0.874,1.669c1.479,2.74,1.804,4.515,0.976,5.326
	c-0.559,0.546-1.243,0.725-2.049,0.534c-0.807-0.19-1.636-0.721-2.486-1.592c-0.684-0.7-1.166-1.396-1.444-2.091
	c-0.279-0.695-0.423-1.627-0.431-2.797c0.001-0.213,0.01-0.516,0.026-0.91c0.035-2.116-0.41-3.648-1.335-4.595
	c-0.926-0.947-1.99-1.416-3.191-1.409c-1.203,0.008-2.293,0.491-3.271,1.447c-1.767,1.724-2.329,3.994-1.691,6.809
	c0.638,2.816,2.393,5.693,5.263,8.63c3.396,3.475,6.673,5.451,9.832,5.929c3.158,0.478,6.052-0.566,8.677-3.131
	c1.14-1.114,1.917-2.289,2.33-3.523c0.413-1.235,0.513-2.683,0.298-4.345c-0.196-1.492-1.344-4.239-3.448-8.241
	c-0.229-0.428-0.406-0.76-0.53-0.996l-0.047-0.112c-1.488-2.836-1.824-4.654-1.006-5.452c0.527-0.516,1.138-0.697,1.833-0.546
	c0.695,0.151,1.427,0.62,2.195,1.406c0.493,0.505,0.89,1.094,1.19,1.768c0.301,0.674,0.493,1.421,0.581,2.241
	c0.028,0.266,0.056,0.659,0.081,1.182c0.096,1.969,0.609,3.432,1.545,4.389c0.948,0.968,1.942,1.475,2.983,1.519
	c1.042,0.044,2.014-0.376,2.918-1.26C494.772,54.73,495.204,52.559,494.501,49.743"/>
<path fill="#65ABE9" d="M463.49,50.039c-0.806,0.006-1.537,0.339-2.233,1.02c-0.88,0.859-1.969,2.353-1.277,5.404
	c0.053,0.233,0.259,0.39,0.486,0.39l0.111-0.012c0.271-0.061,0.439-0.329,0.378-0.598c-0.573-2.534,0.233-3.719,1-4.469
	c0.662-0.646,1.172-0.732,1.538-0.735c0.348,0,0.821,0.075,1.391,0.658c0.098,0.1,0.228,0.15,0.357,0.15
	c0.127,0,0.253-0.047,0.35-0.143c0.197-0.192,0.201-0.509,0.009-0.707C464.759,50.139,463.995,50.039,463.49,50.039 M254.32,49.594
	l-0.257,0.007c-0.276,0.016-0.487,0.252-0.471,0.527c0.016,0.266,0.239,0.472,0.495,0.472c0.011,0,0.021,0,0.032-0.001l0.201-0.005
	c0.914,0,2.248,0.334,3.418,1.926c1.225,1.662,1.113,3.094,0.804,4.002c-0.09,0.262,0.05,0.546,0.311,0.635l0.162,0.026
	c0.208,0,0.402-0.13,0.473-0.338c0.387-1.134,0.537-2.908-0.944-4.917C257.127,49.998,255.465,49.594,254.32,49.594 M232.68,44.024
	c-0.103,0-0.207,0.031-0.296,0.097c-2.084,1.533-2.659,2.627-2.774,3.275c-0.112,0.631,0.059,1.794,1.504,3.756l12.909,17.549
	c1.434,1.948,2.49,2.453,3.126,2.534l0.235,0.014h0.053c0.652-0.014,1.808-0.325,3.664-1.688c0.222-0.164,0.27-0.477,0.107-0.699
	c-0.098-0.134-0.25-0.205-0.404-0.205c-0.103,0-0.207,0.032-0.295,0.098c-1.835,1.348-2.791,1.494-3.117,1.494l-0.118-0.007
	c-0.226-0.029-1.071-0.268-2.445-2.134l-12.91-17.55c-1.387-1.882-1.365-2.764-1.325-2.988c0.043-0.241,0.342-1.143,2.383-2.644
	c0.222-0.164,0.27-0.476,0.107-0.699C232.985,44.095,232.834,44.024,232.68,44.024 M246.191,40.229
	c-0.116,0-0.231,0.004-0.346,0.013c-0.276,0.021-0.482,0.261-0.461,0.537c0.02,0.26,0.225,0.462,0.491,0.462
	c0.015,0,0.031,0,0.046-0.002l0.27-0.01c0.854,0,2.114,0.33,3.272,1.904c1.166,1.586,1.093,2.917,0.827,3.755
	c-0.083,0.263,0.062,0.544,0.325,0.628l0.152,0.023c0.212,0,0.409-0.135,0.476-0.348c0.336-1.059,0.44-2.726-0.975-4.651
	C248.863,40.63,247.276,40.229,246.191,40.229 M478.646,37.234c-2.069,0-3.897,0.83-5.627,2.52c-0.918,0.896-1.57,1.861-1.938,2.868
	c-0.364,1.002-0.483,2.168-0.353,3.459c0.036,0.416,0.202,1.215,0.785,2.659c0.512,1.263,1.307,2.941,2.361,4.984
	c0.204,0.4,0.492,0.95,0.855,1.634c0.09,0.17,0.263,0.266,0.441,0.266l0.234-0.058c0.244-0.13,0.337-0.432,0.208-0.676
	c-0.36-0.679-0.646-1.223-0.849-1.623c-1.042-2.018-1.824-3.668-2.325-4.903c-0.586-1.451-0.696-2.141-0.717-2.377
	c-0.115-1.146-0.016-2.163,0.298-3.023c0.314-0.865,0.886-1.704,1.695-2.494c1.537-1.501,3.128-2.236,4.938-2.236
	c0.354,0,0.718,0.028,1.091,0.084c0.024,0.003,0.05,0.005,0.074,0.005c0.245,0,0.457-0.178,0.494-0.426
	c0.041-0.273-0.148-0.527-0.421-0.568C479.468,37.266,479.053,37.234,478.646,37.234 M298.952,29.247
	c-0.044,0-0.088,0.005-0.133,0.018c-0.266,0.075-0.421,0.35-0.347,0.616c0.196,0.704,0.486,1.146,0.862,1.315
	c0.19,0.084,0.442,0.126,0.747,0.126c0.431,0,0.965-0.084,1.575-0.253l1.245-0.346c0.13-0.036,0.264-0.054,0.397-0.054
	c0.308,0,0.616,0.094,0.871,0.274c0.37,0.263,0.6,0.673,0.629,1.124c0.017,0.264,0.237,0.467,0.499,0.467h0.033
	c0.275-0.019,0.484-0.256,0.466-0.532c-0.049-0.754-0.431-1.437-1.048-1.874c-0.425-0.301-0.937-0.459-1.451-0.459
	c-0.224,0-0.447,0.03-0.665,0.091l-1.243,0.345c-0.521,0.145-0.959,0.218-1.302,0.218c-0.237,0-0.336-0.037-0.338-0.037
	c-0.041-0.028-0.184-0.209-0.314-0.673C299.374,29.391,299.172,29.247,298.952,29.247 M468.368,27.938
	c-0.222,0-0.448,0.037-0.687,0.11c-0.658,0.2-1.14,0.6-1.515,1.26c-0.415,0.735-0.345,1.226-0.236,1.571
	c0.066,0.214,0.264,0.351,0.477,0.351l0.149-0.022c0.264-0.083,0.411-0.363,0.329-0.627c-0.039-0.123-0.104-0.328,0.152-0.78
	c0.249-0.44,0.52-0.67,0.935-0.796c0.142-0.043,0.27-0.065,0.393-0.065c0.197,0,0.384,0.057,0.597,0.178
	c0.078,0.043,0.163,0.064,0.247,0.064c0.175,0,0.344-0.09,0.436-0.252c0.136-0.24,0.052-0.545-0.188-0.682
	C469.09,28.04,468.736,27.938,468.368,27.938 M261.9,26.029c-0.196,0-0.383,0.115-0.463,0.309c-0.348,0.839-0.268,1.797,0.241,2.929
	l10.374,22.957c0.084,0.185,0.266,0.294,0.456,0.294l0.206-0.044c0.251-0.114,0.363-0.41,0.249-0.662L262.59,28.855
	c-0.391-0.866-0.465-1.565-0.23-2.136c0.106-0.255-0.015-0.547-0.271-0.653C262.028,26.041,261.963,26.029,261.9,26.029
	 M281.34,19.495c-0.175,0-0.345,0.092-0.438,0.256c-2.064,3.692-2.386,7.943-0.982,12.994c1.405,5.058,3.783,8.713,7.067,10.863
	c2.087,1.366,4.324,2.031,6.839,2.031c0.277,0,0.5-0.224,0.5-0.5c0-0.277-0.223-0.5-0.5-0.5c-2.314,0-4.372-0.611-6.291-1.868
	c-3.075-2.013-5.313-5.476-6.652-10.294c-1.329-4.784-1.037-8.788,0.893-12.238c0.134-0.241,0.048-0.546-0.193-0.681
	C281.506,19.515,281.422,19.495,281.34,19.495 M355.452,18.523c-0.181,0-0.357,0.099-0.446,0.27
	c-0.126,0.245-0.031,0.547,0.214,0.674c0.863,0.447,1.937,1.416,2.155,3.49c0.214,2.056-0.605,3.231-1.329,3.854
	c-0.209,0.181-0.233,0.496-0.053,0.705c0.099,0.115,0.239,0.174,0.379,0.174c0.116,0,0.232-0.04,0.326-0.121
	c0.906-0.779,1.931-2.23,1.671-4.716c-0.264-2.518-1.608-3.714-2.689-4.274C355.607,18.542,355.529,18.523,355.452,18.523
	 M440.536,16.424c-0.326,0-0.611,0.044-0.85,0.13c-0.602,0.216-1.523,0.943-2.507,3.174l-8.785,19.938
	c-0.111,0.253,0.004,0.548,0.256,0.66l0.201,0.042c0.192,0,0.376-0.111,0.458-0.298l8.785-19.938
	c0.943-2.141,1.717-2.56,1.932-2.638c0.088-0.032,0.249-0.07,0.51-0.07c0.277,0,0.5-0.223,0.5-0.5
	C441.036,16.647,440.813,16.424,440.536,16.424 M425.554,10.864c-0.499,0-0.941,0.088-1.327,0.266
	c-0.286,0.13-1.156,0.528-1.696,2.226l-5.075,15.952c-0.083,0.263,0.062,0.544,0.325,0.628l0.152,0.023
	c0.212,0,0.408-0.135,0.476-0.348l5.076-15.952c0.405-1.276,0.971-1.535,1.158-1.62c0.254-0.117,0.559-0.175,0.911-0.175
	c0.463,0,1.008,0.1,1.624,0.296c0.051,0.016,0.102,0.023,0.151,0.023c0.213,0,0.408-0.136,0.477-0.35
	c0.083-0.263-0.062-0.544-0.325-0.628C426.765,10.979,426.122,10.864,425.554,10.864 M353.102,6.3c-0.185,0-0.363,0.104-0.45,0.283
	c-0.121,0.248-0.017,0.547,0.231,0.668c0.835,0.406,1.877,1.328,2.097,3.421c0.204,1.96-0.531,3.071-1.184,3.658
	c-0.206,0.185-0.223,0.501-0.038,0.706c0.099,0.11,0.235,0.166,0.372,0.166c0.119,0,0.239-0.042,0.334-0.128
	c0.826-0.743,1.758-2.127,1.51-4.506c-0.267-2.55-1.591-3.7-2.654-4.217C353.25,6.316,353.175,6.3,353.102,6.3 M406.087,4.652
	c-0.534,0-1.016,0.104-1.448,0.312c-0.831,0.4-1.415,1.161-1.785,2.327l-5.283,16.6c-1.155,3.634-0.886,6.709,0.82,9.404
	c0.095,0.15,0.258,0.232,0.423,0.232c0.091,0,0.184-0.025,0.267-0.077c0.234-0.148,0.304-0.457,0.155-0.69
	c-1.539-2.43-1.772-5.231-0.711-8.566l5.282-16.6c0.281-0.89,0.695-1.455,1.266-1.729c0.297-0.143,0.636-0.213,1.019-0.213
	c0.427,0,0.906,0.087,1.442,0.257c0.051,0.016,0.103,0.024,0.152,0.024c0.213,0,0.408-0.136,0.476-0.348
	c0.084-0.263-0.062-0.545-0.324-0.629C407.199,4.754,406.617,4.652,406.087,4.652 M339.798,2.891c-0.018,0-0.037,0.001-0.056,0.003
	c-2.712,0.284-3.702,1.014-4.05,1.424c-0.414,0.486-0.854,1.573-0.6,3.999l2.269,21.67c0.252,2.405,0.907,3.374,1.412,3.763
	c0.684,0.529,1.884,0.639,2.769,0.639c0.456,0,0.958-0.028,1.491-0.084c0.274-0.029,0.473-0.274,0.445-0.549
	c-0.027-0.256-0.248-0.449-0.494-0.449c-0.019,0-0.038,0.001-0.056,0.003c-0.479,0.05-0.933,0.075-1.347,0.075
	c-1.042,0-1.842-0.153-2.198-0.428c-0.179-0.138-0.786-0.77-1.027-3.076l-2.27-21.67c-0.244-2.326,0.219-3.073,0.367-3.246
	c0.113-0.133,0.806-0.807,3.393-1.078c0.275-0.028,0.474-0.274,0.445-0.549C340.265,3.082,340.057,2.891,339.798,2.891 M375.135,1.5
	c-1.067,0-1.918,0.247-2.544,0.755c-0.707,0.571-1.098,1.45-1.191,2.687l-1.875,24.65c-0.099,1.325,0.111,2.247,0.644,2.817
	c0.558,0.598,1.605,0.96,3.112,1.075l0.039,0.002c0.259,0,0.479-0.2,0.498-0.462c0.021-0.276-0.186-0.516-0.46-0.537
	c-1.639-0.125-2.244-0.53-2.458-0.761c-0.225-0.24-0.473-0.793-0.378-2.059l1.875-24.649c0.072-0.947,0.341-1.597,0.823-1.985
	c0.441-0.359,1.091-0.533,1.916-0.533c0.16,0,0.327,0.006,0.501,0.02c0.014,0.001,0.028,0.002,0.042,0.002
	c0.25,0,0.474-0.201,0.494-0.462c0.021-0.275-0.186-0.516-0.461-0.537C375.513,1.507,375.32,1.5,375.135,1.5"/>
<path fill="#009148" d="M492.605,119.716c-2.8-1.844-6.139-3.36-10.035-4.547c-3.888-1.188-8.208-2.198-12.951-3.031
	c-1.979-0.346-3.608-0.701-4.878-1.046c-1.278-0.346-2.286-0.718-3.024-1.1c-0.747-0.382-1.26-0.779-1.538-1.206
	c-0.289-0.415-0.433-0.867-0.433-1.567c0-0.905,0.45-1.631,1.332-2.19c0.882-0.558,2.241-0.842,4.086-0.842
	c3.465,0,7.164,0.576,11.088,1.729c3.934,1.151,7.659,2.978,11.205,5.485l12.097-16.512v-3.804c0,0-9.825-2.253-14.59-3.722
	c-5.418-1.675-11.735-2.508-18.953-2.508c-5.095,0-9.604,0.62-13.527,1.878c-3.934,1.25-7.219,2.996-9.873,5.23
	c-2.655,2.224-4.671,4.839-6.057,7.835c-1.378,2.996-2.062,6.24-2.062,9.935c0,3.9,0.846,7.153,2.547,9.769
	c1.692,2.614,3.979,4.795,6.84,6.531c2.871,1.746,6.192,3.174,9.981,4.29c3.779,1.117,7.767,2.093,11.943,2.926
	c3.959,0.771,6.668,1.498,8.117,2.197c1.449,0.7,2.179,1.568,2.179,2.818c0,0.984-0.495,1.746-1.485,2.305
	c-0.999,0.559-2.619,0.833-4.887,0.833c-4.383,0-8.812-0.655-13.267-1.984c-4.464-1.321-8.703-3.52-12.734-6.586l-13.275,11.77
	v3.803c4.743,4.113,10.386,7.197,16.929,9.253c6.553,2.057,13.608,3.085,21.178,3.085c4.959,0,9.468-0.575,13.535-1.728
	c4.068-1.144,7.524-2.784,10.351-4.911s5.021-4.715,6.579-7.791c1.557-3.058,2.34-6.514,2.34-10.556
	c0-3.688-0.766-6.825-2.286-9.404S495.396,121.559,492.605,119.716 M704.312,86.213l-15.921,25.712l-15.931-25.712h-25.893v70.418
	l-30.15-70.941h-24.624l-29.187,68.699v-15.91h-34.92V86.213h-24.841v73.175h84.168l3.825-9.83h26.011l3.924,9.83h49.995v-36.278
	l17.567,26.032l17.137-26.032v36.278h24.731V86.213H704.312 M597.104,132.204l6.795-17.771l6.795,17.771H597.104"/>
<path fill="#009D4D" d="M704.312,82.409l-15.921,25.712l-15.931-25.712h-25.893v70.418l-30.15-70.941h-24.624l-29.187,68.699v-15.91
	h-34.92V82.409h-24.841v73.175h84.168l3.825-9.83h26.011l3.924,9.83h49.995v-36.278l17.567,26.032l17.137-26.032v36.278h24.731
	V82.409H704.312 M597.104,128.399l6.795-17.771l6.795,17.771H597.104 M492.605,115.912c-2.8-1.845-6.139-3.36-10.035-4.547
	c-3.888-1.188-8.208-2.198-12.951-3.031c-1.979-0.346-3.609-0.701-4.878-1.046c-1.278-0.346-2.286-0.718-3.024-1.1
	c-0.747-0.381-1.26-0.779-1.538-1.206c-0.289-0.415-0.433-0.867-0.433-1.567c0-0.905,0.45-1.631,1.332-2.19
	c0.882-0.558,2.241-0.842,4.086-0.842c3.465,0,7.164,0.576,11.088,1.729c3.934,1.151,7.659,2.978,11.205,5.485l12.097-16.512
	c-4.312-3.351-9.181-5.859-14.59-7.525c-5.418-1.675-11.735-2.508-18.954-2.508c-5.094,0-9.603,0.62-13.526,1.879
	c-3.934,1.249-7.219,2.995-9.873,5.229c-2.655,2.224-4.671,4.839-6.057,7.835c-1.378,2.996-2.062,6.239-2.062,9.936
	c0,3.899,0.846,7.152,2.547,9.768c1.692,2.614,3.979,4.795,6.84,6.531c2.871,1.746,6.192,3.174,9.981,4.29
	c3.779,1.117,7.767,2.093,11.943,2.926c3.959,0.771,6.668,1.498,8.117,2.197c1.449,0.7,2.178,1.569,2.178,2.818
	c0,0.984-0.494,1.746-1.484,2.305c-0.999,0.559-2.619,0.833-4.887,0.833c-4.384,0-8.812-0.655-13.267-1.984
	c-4.464-1.321-8.703-3.52-12.734-6.586l-13.275,15.572c4.743,4.113,10.386,7.197,16.929,9.253
	c6.553,2.058,13.608,3.085,21.178,3.085c4.959,0,9.468-0.575,13.535-1.728c4.068-1.145,7.524-2.784,10.351-4.911
	s5.021-4.715,6.579-7.791c1.557-3.057,2.34-6.514,2.34-10.556c0-3.688-0.766-6.824-2.286-9.404
	C497.556,119.971,495.396,117.755,492.605,115.912"/>
<path fill="#009148" d="M295.28,95.71c3.727,3.168,6.525,7.001,8.385,11.479c1.868,4.488,2.798,9.479,2.798,14.98
	c0,5.717-0.948,10.762-2.853,15.348c-1.896,4.587-4.766,8.545-8.594,11.857c-3.837,3.32-8.604,5.896-14.301,7.728
	c-5.696,1.84-12.34,2.756-19.941,2.756H232.83v-25.77c-0.41,1.293-0.893,2.559-1.449,3.797c-2.115,4.695-5.022,8.788-8.705,12.288
	c-3.7,3.492-8.047,6.237-13.06,8.249c-5.022,2.019-10.427,3.023-16.232,3.023c-5.806,0-11.201-0.996-16.178-2.971
	c-4.985-1.974-9.323-4.685-13.005-8.15c-3.692-3.454-6.581-7.529-8.659-12.224c-1.158-2.621-1.987-5.35-2.497-8.177
	c-0.52,2.755-1.349,5.412-2.498,7.961c-2.114,4.695-5.022,8.788-8.713,12.288c-3.691,3.492-8.039,6.237-13.051,8.249
	c-5.022,2.019-10.427,3.023-16.233,3.023c-5.805,0-11.201-0.996-16.177-2.971c-4.985-1.974-9.324-4.685-13.006-8.15
	c-3.691-3.454-6.58-7.529-8.658-12.224c-0.538-1.212-1.003-2.442-1.395-3.698v25.455H48.159v-26.577H25.155v26.577H0V85.756h25.155
	v26.146h23.004V85.756h25.155v25.76c0.411-1.284,0.894-2.558,1.449-3.797c2.115-4.694,5.013-8.787,8.704-12.278
	c3.692-3.492,8.048-6.248,13.062-8.258c5.021-2.011,10.427-3.016,16.232-3.016c5.806,0,11.202,0.986,16.178,2.962
	c4.985,1.975,9.314,4.693,13.006,8.149c3.691,3.464,6.58,7.539,8.658,12.234c1.157,2.612,1.978,5.34,2.497,8.167
	c0.52-2.746,1.349-5.403,2.498-7.961c2.114-4.694,5.012-8.787,8.704-12.278c3.691-3.492,8.047-6.248,13.06-8.258
	c5.021-2.011,10.429-3.174,16.232-3.016c6.175,0.168,13.691,2.124,16.178,2.962c5.082,1.712,9.315,4.693,13.006,8.149
	c3.691,3.464,6.58,7.539,8.658,12.234c0.538,1.202,0.994,2.441,1.395,3.698V85.756h28.81c7.446,0,13.99,0.86,19.613,2.594
	C286.877,90.082,291.552,92.531,295.28,95.71 M209.179,123.014v-0.207c0-2.19-0.374-4.29-1.122-6.301
	c-0.756-2.01-1.813-3.787-3.171-5.35c-1.367-1.544-3.017-2.782-4.949-3.697c-1.932-0.916-4.12-1.382-6.553-1.382
	c-2.37,0-4.521,0.466-6.453,1.382c-1.932,0.915-3.582,2.136-4.94,3.652c-1.367,1.518-2.406,3.259-3.126,5.233
	c-0.711,1.982-1.076,4.065-1.076,6.247v0.215c0,2.19,0.383,4.282,1.131,6.301c0.756,2.011,1.813,3.788,3.171,5.341
	c1.367,1.553,3.017,2.791,4.949,3.707c1.932,0.915,4.12,1.373,6.553,1.373c2.37,0,4.521-0.458,6.453-1.373
	c1.932-0.916,3.582-2.137,4.94-3.653c1.367-1.517,2.406-3.268,3.117-5.241C208.823,127.285,209.179,125.204,209.179,123.014
	 M128.345,123.014v-0.207c0-2.19-0.374-4.29-1.12-6.301c-0.757-2.01-1.814-3.787-3.172-5.35c-1.367-1.544-3.017-2.782-4.949-3.697
	c-1.932-0.916-4.12-1.382-6.554-1.382c-2.369,0-4.52,0.466-6.452,1.382c-1.932,0.915-3.582,2.136-4.949,3.652
	c-1.358,1.518-2.397,3.259-3.117,5.233c-0.711,1.982-1.076,4.065-1.076,6.247v0.215c0,2.19,0.383,4.282,1.13,6.301
	c0.757,2.011,1.814,3.788,3.172,5.341c1.367,1.553,3.017,2.791,4.949,3.707c1.932,0.915,4.12,1.373,6.553,1.373
	c2.37,0,4.521-0.458,6.453-1.373c1.932-0.916,3.582-2.137,4.94-3.653c1.367-1.517,2.406-3.268,3.117-5.241
	C127.99,127.285,128.345,125.204,128.345,123.014 M281.098,122.915v-0.216c0-5.358-1.704-9.263-5.113-11.695
	c-3.399-2.441-8.002-3.653-13.808-3.653h-4.192v30.912h4.192c5.806,0,10.409-1.22,13.808-3.653
	C279.394,132.178,281.098,128.272,281.098,122.915"/>
<path fill="#009D4D" d="M295.28,91.906c3.727,3.168,6.525,7.001,8.385,11.479c1.868,4.488,2.798,9.479,2.798,14.98
	c0,5.718-0.948,10.762-2.853,15.348c-1.896,4.587-4.766,8.545-8.594,11.857c-3.837,3.32-8.604,5.896-14.301,7.728
	c-5.696,1.84-12.34,2.756-19.941,2.756H232.83v-25.77c-0.41,1.293-0.893,2.559-1.449,3.797c-2.115,4.694-5.022,8.788-8.705,12.288
	c-3.7,3.492-8.047,6.237-13.06,8.249c-5.022,2.019-10.427,3.023-16.232,3.023c-5.806,0-11.201-0.996-16.178-2.97
	c-4.985-1.975-9.323-4.686-13.005-8.151c-3.692-3.455-6.581-7.529-8.659-12.224c-1.158-2.621-1.987-5.35-2.497-8.177
	c-0.52,2.755-1.349,5.412-2.498,7.961c-2.114,4.694-5.022,8.788-8.713,12.288c-3.691,3.492-8.039,6.237-13.051,8.249
	c-5.022,2.019-10.427,3.023-16.233,3.023c-5.805,0-11.201-0.996-16.177-2.97c-4.985-1.975-9.324-4.686-13.006-8.151
	c-3.691-3.455-6.58-7.529-8.658-12.224c-0.538-1.212-1.003-2.442-1.395-3.698v25.455H48.159v-26.577H25.155v26.577H0V81.952h25.155
	v26.146h23.004V81.952h25.155v25.76c0.411-1.284,0.894-2.558,1.449-3.797c2.115-4.694,5.013-8.787,8.704-12.279
	c3.692-3.491,8.048-6.247,13.062-8.257c5.021-2.011,10.427-3.016,16.232-3.016c5.806,0,11.202,0.987,16.178,2.962
	c4.985,1.975,9.314,4.693,13.006,8.149c3.691,3.464,6.58,7.539,8.658,12.234c1.157,2.612,1.978,5.34,2.497,8.167
	c0.52-2.746,1.349-5.403,2.498-7.961c2.114-4.694,5.012-8.787,8.704-12.279c3.691-3.491,8.047-6.247,13.06-8.257
	c5.021-2.011,10.429-3.174,16.232-3.016c6.175,0.168,13.691,2.125,16.178,2.962c5.082,1.712,9.315,4.693,13.006,8.149
	c3.691,3.464,6.58,7.539,8.658,12.234c0.538,1.203,0.994,2.44,1.395,3.698V81.952h28.81c7.446,0,13.99,0.86,19.613,2.594
	C286.877,86.278,291.552,88.728,295.28,91.906 M209.179,119.21v-0.207c0-2.19-0.374-4.29-1.122-6.301
	c-0.756-2.011-1.813-3.787-3.171-5.35c-1.367-1.544-3.017-2.783-4.949-3.697c-1.932-0.916-4.12-1.383-6.553-1.383
	c-2.37,0-4.521,0.467-6.453,1.383c-1.932,0.914-3.582,2.136-4.94,3.652c-1.367,1.518-2.406,3.258-3.126,5.233
	c-0.711,1.982-1.076,4.065-1.076,6.247v0.215c0,2.189,0.383,4.282,1.131,6.301c0.756,2.011,1.813,3.788,3.171,5.341
	c1.367,1.553,3.017,2.791,4.949,3.707c1.932,0.915,4.12,1.373,6.553,1.373c2.37,0,4.521-0.458,6.453-1.373
	c1.932-0.916,3.582-2.137,4.94-3.653c1.367-1.517,2.406-3.268,3.117-5.241C208.823,123.481,209.179,121.399,209.179,119.21
	 M128.345,119.21v-0.207c0-2.19-0.374-4.29-1.12-6.301c-0.757-2.011-1.814-3.787-3.172-5.35c-1.367-1.544-3.017-2.783-4.949-3.697
	c-1.932-0.916-4.12-1.383-6.554-1.383c-2.369,0-4.52,0.467-6.452,1.383c-1.932,0.914-3.582,2.136-4.949,3.652
	c-1.358,1.518-2.397,3.258-3.117,5.233c-0.711,1.982-1.076,4.065-1.076,6.247v0.215c0,2.189,0.383,4.282,1.13,6.301
	c0.757,2.011,1.814,3.788,3.172,5.341c1.367,1.553,3.017,2.791,4.949,3.707c1.932,0.915,4.12,1.373,6.553,1.373
	c2.37,0,4.521-0.458,6.453-1.373c1.932-0.916,3.582-2.137,4.94-3.653c1.367-1.517,2.406-3.268,3.117-5.241
	C127.99,123.481,128.345,121.399,128.345,119.21 M281.098,119.11v-0.215c0-5.358-1.704-9.263-5.113-11.695
	c-3.399-2.441-8.002-3.653-13.808-3.653h-4.192v30.912h4.192c5.806,0,10.409-1.22,13.808-3.653
	C279.394,128.374,281.098,124.469,281.098,119.11"/>
<path fill="#FFFBBF" d="M705.474,123.109L705.474,123.109l-0.001,32.474h0.001V123.109 M576.979,116.758L576.979,116.758
	l-14.371,33.825v0.002L576.979,116.758 M631.239,116.758L631.239,116.758l15.329,36.069L631.239,116.758"/>
<path fill="#40AB48" d="M616.851,145.754L616.851,145.754l2.804,7.025L616.851,145.754 M696.905,132.321l-8.568,13.017h0.001
	L696.905,132.321 M670.77,119.306L670.77,119.306l8.784,13.016L670.77,119.306 M705.474,119.306L705.474,119.306l-0.001,3.805
	l0.001-0.001v32.474V119.306 M606.243,116.758L606.243,116.758l4.451,11.642l0,0L606.243,116.758"/>
<polyline fill="#40B44D" points="730.21,116.758 646.568,116.758 646.568,152.827 631.238,116.758 606.243,116.758 610.694,128.399 
	610.694,128.4 597.104,128.4 601.556,116.758 576.979,116.758 562.607,150.585 562.607,150.583 562.606,150.585 562.606,134.675 
	527.688,134.675 527.687,134.675 527.687,116.758 502.847,116.758 502.847,155.583 587.015,155.583 590.84,145.754 616.85,145.754 
	616.851,145.754 619.654,152.779 620.774,155.583 670.769,155.583 670.769,119.306 670.77,119.307 670.77,119.306 679.554,132.321 
	688.338,145.338 696.905,132.321 705.473,119.306 705.473,119.307 705.474,119.306 705.474,155.584 730.205,155.583 
	730.205,116.758 "/>
<path fill="#FFFBBF" d="M465.605,137.407c0.001,0,0.003,0,0.004,0C465.608,137.407,465.606,137.407,465.605,137.407
	 M465.554,137.402c0.011,0.001,0.021,0.002,0.032,0.003C465.575,137.404,465.564,137.403,465.554,137.402 M475.251,136.32
	c-0.183,0.161-0.395,0.31-0.637,0.446c-0.999,0.559-2.619,0.833-4.888,0.833c0.001,0,0.001,0,0.001,0
	c2.268,0,3.888-0.274,4.887-0.833C474.856,136.63,475.068,136.481,475.251,136.32L475.251,136.32 M449.295,132.64
	c2.322,1.257,4.71,2.249,7.166,2.976c3.045,0.908,6.077,1.502,9.091,1.787c-3.014-0.285-6.046-0.879-9.091-1.788
	C454.005,134.888,451.617,133.896,449.295,132.64 M443.726,129.029l-13.274,15.572l0,0L443.726,129.029
	C443.726,129.029,443.726,129.029,443.726,129.029 M499.045,122.497c0.011,0.018,0.021,0.035,0.031,0.053
	c1.521,2.58,2.286,5.717,2.286,9.404l0,0c0-3.688-0.766-6.825-2.286-9.404C499.065,122.532,499.055,122.515,499.045,122.497
	 M499.014,122.445c0.002,0.003,0.004,0.006,0.006,0.009C499.018,122.451,499.016,122.448,499.014,122.445"/>
<path fill="#40AB48" d="M492.443,150.301c-2.119,1.596-4.594,2.916-7.414,3.96C487.85,153.218,490.324,151.896,492.443,150.301
	 M476.099,134.462c0,0.744-0.283,1.36-0.848,1.858l0,0C475.816,135.822,476.099,135.206,476.099,134.462L476.099,134.462
	 M465.005,129.284c0.265,0.055,0.531,0.108,0.798,0.162c3.619,0.704,6.194,1.373,7.717,2.017c-1.522-0.644-4.097-1.312-7.716-2.017
	C465.536,129.393,465.271,129.339,465.005,129.284 M443.23,121.822c0.212,0.14,0.429,0.275,0.648,0.409
	c2.646,1.608,5.676,2.948,9.102,4.021c-3.426-1.073-6.455-2.413-9.102-4.022C443.659,122.097,443.443,121.961,443.23,121.822"/>
<path fill="#40B44D" d="M493.799,116.758h-55.981c1.454,1.95,3.248,3.649,5.413,5.064c0.213,0.139,0.429,0.274,0.648,0.408
	c2.646,1.609,5.676,2.949,9.102,4.022c0.291,0.091,0.584,0.181,0.88,0.268c3.538,1.046,7.258,1.967,11.145,2.764
	c0.266,0.055,0.531,0.108,0.799,0.162c3.619,0.704,6.193,1.373,7.716,2.017c0.143,0.061,0.276,0.12,0.401,0.181
	c1.449,0.7,2.178,1.568,2.178,2.818l0,0l0,0c0,0.744-0.282,1.36-0.848,1.858c-0.183,0.161-0.395,0.31-0.637,0.446
	c-0.999,0.559-2.619,0.833-4.887,0.833c0,0,0,0-0.001,0l0,0c-1.368,0-2.74-0.063-4.117-0.192c-0.001,0-0.003,0-0.004,0
	c-0.007-0.001-0.013-0.001-0.02-0.002c-0.011-0.001-0.021-0.002-0.032-0.003c-0.001,0-0.001,0-0.002,0
	c-3.014-0.285-6.046-0.879-9.091-1.787c-2.456-0.727-4.844-1.719-7.166-2.976c-1.899-1.027-3.755-2.23-5.568-3.609l-13.275,15.571
	c4.743,4.113,10.386,7.197,16.929,9.253c6.552,2.057,13.608,3.084,21.177,3.084c4.959,0,9.468-0.575,13.536-1.728
	c1.018-0.285,1.996-0.603,2.937-0.95c2.82-1.044,5.295-2.364,7.414-3.96l0,0c2.825-2.127,5.021-4.715,6.579-7.791
	c1.557-3.058,2.34-6.514,2.34-10.556c0-3.688-0.766-6.824-2.286-9.404c-0.011-0.018-0.021-0.035-0.031-0.053
	c-0.009-0.015-0.018-0.029-0.025-0.043c-0.002-0.003-0.004-0.006-0.006-0.009C497.725,120.291,495.98,118.396,493.799,116.758"/>
<path fill="#FFFBBF" d="M195.17,135.654c-0.515,0.047-1.041,0.07-1.578,0.07c0,0,0,0,0,0
	C194.13,135.725,194.656,135.701,195.17,135.654 M200.046,134.352L200.046,134.352c-0.714,0.338-1.457,0.613-2.23,0.827
	C198.589,134.965,199.333,134.689,200.046,134.352L200.046,134.352 M25.156,133.281L25.156,133.281l-0.001,22.773h0.001V133.281
	 M205.553,130.032c-0.182,0.227-0.372,0.449-0.567,0.666c-0.393,0.439-0.811,0.854-1.253,1.243c0.442-0.39,0.86-0.804,1.253-1.243
	C205.182,130.481,205.371,130.259,205.553,130.032 M100.103,129.166c0.357,0.514,0.742,1.007,1.155,1.479
	c1.367,1.553,3.017,2.791,4.949,3.707c1.371,0.649,2.87,1.068,4.494,1.257c-1.624-0.188-3.123-0.607-4.494-1.257
	c-1.932-0.916-3.581-2.154-4.949-3.708C100.845,130.172,100.46,129.68,100.103,129.166 M180.306,128.19
	c0.522,0.873,1.117,1.69,1.785,2.454c1.367,1.553,3.017,2.791,4.949,3.707c1.319,0.625,2.758,1.036,4.312,1.235
	c-1.554-0.199-2.992-0.61-4.312-1.235c-1.932-0.916-3.582-2.154-4.95-3.708C181.424,129.881,180.829,129.063,180.306,128.19
	 M180.305,128.188L180.305,128.188L180.305,128.188 M127.27,125.457L127.27,125.457c-0.711,1.974-1.75,3.725-3.117,5.241
	c-1.358,1.517-3.008,2.737-4.94,3.653c-1.932,0.915-4.083,1.373-6.453,1.373l0,0c2.37,0,4.521-0.458,6.453-1.373
	c1.932-0.916,3.582-2.137,4.94-3.653C125.52,129.182,126.559,127.431,127.27,125.457L127.27,125.457 M97.134,121.556
	c0.181,1.279,0.5,2.527,0.952,3.748c0.179,0.476,0.375,0.938,0.587,1.387c-0.212-0.449-0.407-0.911-0.586-1.387
	C97.635,124.083,97.316,122.835,97.134,121.556 M209.095,121.025c-0.083,0.89-0.229,1.761-0.439,2.613
	c0.209-0.852,0.355-1.723,0.439-2.611C209.095,121.026,209.095,121.025,209.095,121.025 M177.875,120.776c0,0.001,0,0.002,0,0.004
	c0.147,1.513,0.484,2.98,1.004,4.411C178.358,123.76,178.022,122.291,177.875,120.776 M257.985,116.758L257.985,116.758v17.701
	h4.192c5.806,0,10.409-1.22,13.808-3.653c2.162-1.542,3.638-3.677,4.429-6.398c-0.791,2.722-2.267,4.856-4.429,6.398
	c-3.399,2.434-8.002,3.653-13.808,3.653h-4.192V116.758"/>
<path fill="#40AB48" d="M204.466,156.3c-3.52,0.896-7.212,1.343-11.082,1.343C197.254,157.643,200.946,157.196,204.466,156.3
	 M124.393,156.099c-3.747,1.03-7.693,1.544-11.843,1.544C116.701,157.643,120.646,157.129,124.393,156.099 M74.807,134.518
	c2.07,4.602,4.926,8.604,8.56,12.004C79.734,143.12,76.877,139.119,74.807,134.518 M155.64,134.518
	c2.07,4.602,4.926,8.604,8.561,12.004C160.566,143.12,157.71,139.119,155.64,134.518 M150.547,134.082
	c-2.114,4.694-5.022,8.788-8.713,12.288c-3.691,3.492-8.039,6.237-13.051,8.249c5.013-2.011,9.36-4.757,13.052-8.249
	C145.526,142.87,148.433,138.777,150.547,134.082 M231.381,134.082c-2.115,4.694-5.022,8.788-8.705,12.288
	c-3.7,3.492-8.047,6.237-13.06,8.249c5.013-2.011,9.36-4.757,13.061-8.249C226.359,142.87,229.266,138.777,231.381,134.082
	 M73.314,130.6c0.392,1.257,0.857,2.486,1.395,3.698C74.171,133.086,73.706,131.855,73.314,130.6 M25.156,129.478L25.156,129.478
	l-0.001,3.804h0.001V129.478 M97.078,116.758h-0.014c-0.071,0.655-0.107,1.32-0.108,1.995
	C96.958,118.076,97.007,117.414,97.078,116.758 M128.21,116.758h-0.017c0.077,0.632,0.134,1.27,0.148,1.916
	C128.331,118.027,128.287,117.389,128.21,116.758 M177.911,116.758h-0.014c-0.072,0.667-0.108,1.344-0.108,2.03v0.215
	c0,0.6,0.029,1.191,0.085,1.777c0-0.002,0-0.003,0-0.004c-0.057-0.584-0.085-1.175-0.085-1.773v-0.215
	C177.79,118.1,177.839,117.426,177.911,116.758 M209.044,116.758h-0.018c0.09,0.739,0.152,1.485,0.152,2.245v0.207
	c0,0.613-0.028,1.219-0.084,1.815c0,0,0,0.001,0,0.002c0.056-0.598,0.084-1.203,0.084-1.817v-0.207
	C209.179,118.244,209.134,117.495,209.044,116.758 M281,116.758h-0.008c0.066,0.687,0.106,1.394,0.106,2.134
	C281.098,118.152,281.065,117.441,281,116.758"/>
<path fill="#40B44D" d="M306.429,116.758H281c0.065,0.684,0.098,1.395,0.098,2.134c0,0.001,0,0.002,0,0.003v0.217
	c0,1.96-0.228,3.726-0.685,5.296c-0.791,2.722-2.267,4.856-4.429,6.398c-3.399,2.434-8.002,3.653-13.808,3.653h-4.192v-17.701
	h-48.94c0.09,0.737,0.135,1.486,0.135,2.245v0.207c0,0.614-0.028,1.22-0.084,1.817c-0.084,0.889-0.23,1.76-0.439,2.611
	c-0.151,0.616-0.335,1.223-0.553,1.818l0,0c-0.011,0.031-0.022,0.062-0.034,0.093c-0.606,1.654-1.445,3.15-2.516,4.482
	c-0.182,0.227-0.371,0.449-0.567,0.666c-0.394,0.439-0.812,0.854-1.253,1.243c-1.084,0.955-2.313,1.76-3.687,2.41l0,0
	c-0.713,0.338-1.457,0.613-2.23,0.827c-0.846,0.233-1.728,0.392-2.645,0.476c-0.515,0.047-1.04,0.07-1.577,0.07c0,0,0,0,0,0l0,0
	c-0.771,0-1.519-0.046-2.24-0.138c-1.555-0.199-2.993-0.61-4.312-1.235c-1.932-0.916-3.582-2.154-4.949-3.707
	c-0.667-0.764-1.262-1.581-1.785-2.454c0-0.001-0.001-0.002-0.001-0.003l0,0c-0.54-0.901-1.001-1.862-1.385-2.884l0,0
	c-0.006-0.016-0.012-0.031-0.018-0.047c-0.008-0.021-0.016-0.044-0.023-0.065c-0.52-1.431-0.857-2.898-1.004-4.411
	c-0.057-0.586-0.085-1.178-0.085-1.777v-0.215c0-0.687,0.036-1.363,0.108-2.03H128.21c0.077,0.631,0.121,1.27,0.132,1.916
	c0.002,0.109,0.004,0.219,0.004,0.329v0.207c0,2.189-0.356,4.272-1.076,6.247l0,0c-0.711,1.974-1.75,3.725-3.117,5.241
	c-1.358,1.517-3.008,2.737-4.94,3.653c-1.932,0.915-4.083,1.373-6.453,1.373l0,0c0,0,0,0,0,0c-0.707,0-1.393-0.039-2.059-0.116
	c-1.624-0.188-3.124-0.607-4.494-1.257c-1.932-0.916-3.582-2.154-4.949-3.707c-0.413-0.472-0.797-0.965-1.155-1.479
	c-0.54-0.776-1.017-1.602-1.43-2.476c-0.212-0.449-0.408-0.911-0.587-1.387c-0.452-1.221-0.771-2.469-0.952-3.748
	c-0.119-0.837-0.178-1.688-0.178-2.553l0,0v-0.215l0,0c0-0.012,0-0.023,0-0.035c0.001-0.675,0.037-1.34,0.108-1.995H0l0.001,39.297
	h25.154v-22.773v-3.804h0.001h23.003v26.577h25.155V130.6l0,0l0,0c0.392,1.256,0.857,2.486,1.395,3.698l0,0
	c0.033,0.073,0.065,0.146,0.098,0.22c2.07,4.602,4.927,8.603,8.56,12.004l0,0c3.682,3.466,8.021,6.177,13.006,8.15
	c4.976,1.975,10.372,2.971,16.177,2.971l0,0c4.15,0,8.096-0.514,11.843-1.544c1.495-0.411,2.958-0.904,4.39-1.479l0,0
	c5.012-2.012,9.36-4.757,13.051-8.249c3.691-3.5,6.599-7.594,8.713-12.288l0,0c1.149-2.549,1.978-5.206,2.498-7.961
	c0.51,2.827,1.339,5.556,2.497,8.177c0.033,0.073,0.065,0.146,0.098,0.22c2.07,4.602,4.926,8.603,8.561,12.004l0,0
	c3.682,3.466,8.02,6.177,13.005,8.15c4.977,1.975,10.372,2.971,16.178,2.971l0,0c3.87,0,7.562-0.446,11.082-1.343
	c1.76-0.447,3.476-1.008,5.15-1.681l0,0c5.013-2.012,9.36-4.757,13.06-8.249c3.683-3.5,6.59-7.594,8.705-12.288l0,0
	c0.556-1.238,1.039-2.504,1.449-3.797v25.77h27.944c7.601,0,14.245-0.916,19.941-2.756c5.697-1.831,10.464-4.407,14.301-7.728
	c3.828-3.312,6.698-7.271,8.594-11.857c1.905-4.586,2.853-9.631,2.853-15.348l0,0C306.463,117.824,306.447,117.29,306.429,116.758"
	/>
<path fill="#396DB4" d="M344.359,64.254l-6.372-6.404c-5.412-5.429-14.201-5.443-19.631-0.031
	c-5.429,5.413-5.443,14.201-0.03,19.631l6.383,6.392L344.359,64.254"/>
<path fill="#396DB4" d="M412.691,83.842l6.403-6.372c5.43-5.412,5.443-14.201,0.031-19.631c-5.413-5.429-14.201-5.443-19.631-0.03
	l-6.392,6.383L412.691,83.842z"/>
<polyline fill="#396DB4" points="422.011,105.941 413.24,72.344 385.794,53.918 352.616,53.918 326.488,72.344 315.44,105.941 
	325.645,136.622 352.456,156.081 385.634,156.081 412.506,136.622 422.011,105.941 "/>
<path fill="#195DD3" d="M315.44,105.941L315.44,105.941l3.829,11.512L315.44,105.941 M422.01,105.941h-53.307v26.338
	c0.008,0,0.015,0,0.022,0c1.579,0,2.979-0.637,3.857-1.171h0.008c-0.371,0.397-1.922,2.31-3.793,2.358h-0.095V155.5l-16.22,0.581
	h33.15l26.872-19.459l9.504-30.678V105.941"/>
<path fill="#396DB4" d="M319.269,117.453l6.375,19.17l26.812,19.459l0.027-0.001h-0.027l-26.811-19.459L319.269,117.453
	 M368.703,53.918h-16.087l-10.896,7.684h0l10.896-7.684L368.703,53.918L368.703,53.918"/>
<polyline fill="#195DD3" points="341.72,61.602 335.198,66.202 341.721,61.602 341.72,61.602 "/>
<path fill="#195DD3" d="M361.107,87.083L361.107,87.083c2.151,0,3.894,1.992,3.894,4.45c0,0.654-0.131,1.271-0.353,1.831
	c-2.496,0.166-4.744,0.48-6.592,0.903c-0.52-0.756-0.843-1.697-0.843-2.734C357.213,89.075,358.956,87.083,361.107,87.083
	 M368.703,53.918h-16.087l-10.896,7.684l-6.523,4.6l-8.709,6.143l-11.048,33.597h53.263V76.598l-0.02-0.005l-15.533,3.981v0
	c0.077-0.042,9.526-5.237,15.486-5.243c0.004,0,0.009,0,0.013,0c0.018,0,0.036,0,0.054,0V53.918"/>
<path fill="#0B4FE6" d="M368.703,105.941H315.44l3.829,11.512l6.376,19.169l26.811,19.459h0.027l16.22-0.581v-22.033h-0.05
	c-1.871-0.049-3.422-1.961-3.792-2.358h0.007c0.875,0.531,2.265,1.165,3.835,1.171V105.941"/>
<path fill="#231F20" d="M367.521,107.955l0.01,18.357c0.001,0.662,0.538,1.199,1.201,1.199c0.663-0.001,1.2-0.538,1.199-1.201
	l-0.01-18.356c-0.001-0.663-0.538-1.2-1.201-1.2C368.057,106.755,367.52,107.292,367.521,107.955"/>
<polygon fill="#231F20" points="383.4,104.098 368.725,116.541 354.051,104.098 "/>
<path fill="#0D2F7F" d="M376.345,87.083L376.345,87.083c-2.151,0-3.894,1.992-3.894,4.45c0,0.654,0.13,1.271,0.352,1.831
	c2.497,0.166,4.744,0.48,6.593,0.903c0.521-0.756,0.844-1.697,0.844-2.734l0,0C380.239,89.075,378.495,87.083,376.345,87.083"/>
<path fill="#062895" d="M361.107,87.083L361.107,87.083c-2.151,0-3.894,1.992-3.894,4.45c0,1.037,0.323,1.979,0.843,2.734
	c1.848-0.423,4.096-0.737,6.592-0.903c0.222-0.56,0.353-1.177,0.353-1.831C365.001,89.075,363.258,87.083,361.107,87.083"/>
<path fill="#FFFFFF" d="M376.198,88.102c-2.109,0-3.82,1.71-3.82,3.819c0,0.562,0.129,1.091,0.346,1.571
	c2.449,0.144,4.653,0.412,6.467,0.775c0.511-0.649,0.827-1.457,0.827-2.347C380.018,89.812,378.308,88.102,376.198,88.102
	 M361.253,88.102c-2.109,0-3.82,1.71-3.82,3.819c0,0.89,0.317,1.697,0.828,2.347c1.813-0.363,4.017-0.632,6.465-0.775
	c0.218-0.48,0.346-1.01,0.346-1.571C365.072,89.812,363.362,88.102,361.253,88.102"/>
<path fill="#062895" d="M372.591,131.108h-0.008c-0.878,0.534-2.278,1.171-3.857,1.171c-0.008,0-0.015,0-0.022,0v1.188h0.095
	C370.669,133.418,372.22,131.506,372.591,131.108"/>
<path fill="#0222A2" d="M364.868,131.108h-0.007c0.371,0.397,1.921,2.31,3.792,2.358h0.05v-1.188
	C367.133,132.273,365.743,131.64,364.868,131.108"/>
<path fill="#231F20" d="M368.726,126.275c-2.986,0-5.633-0.952-7.293-1.748h-0.013c0.707,0.597,3.709,3.521,7.306,3.521
	s6.6-2.924,7.306-3.521h-0.013C374.358,125.323,371.712,126.275,368.726,126.275"/>
<path fill="#0D2F7F" d="M368.703,75.33v1.268l15.522,3.976C384.226,80.574,374.726,75.361,368.703,75.33"/>
<path fill="#062895" d="M368.649,75.33c-0.004,0-0.009,0-0.013,0c-5.96,0.006-15.409,5.201-15.486,5.243v0l15.533-3.981l0.02,0.005
	V75.33C368.686,75.33,368.667,75.33,368.649,75.33"/>
</svg>
