<?xml version="1.0" encoding="utf-8"?>
<!-- Generator: Adobe Illustrator 17.0.0, SVG Export Plug-In . SVG Version: 6.00 Build 0)  -->
<!DOCTYPE svg PUBLIC "-//W3C//DTD SVG 1.1//EN" "http://www.w3.org/Graphics/SVG/1.1/DTD/svg11.dtd">
<svg version="1.1" id="Layer_1" xmlns="http://www.w3.org/2000/svg" xmlns:xlink="http://www.w3.org/1999/xlink" x="0px" y="0px"
	 width="440.5px" height="88px" viewBox="0 0 440.5 88" enable-background="new 0 0 440.5 88" xml:space="preserve">
<text transform="matrix(1 0 0 1 26.3623 58.3156)" fill="#FFFFFF" font-family="'Nunito-Bold'" font-size="38">B</text>
<text transform="matrix(1 0 0 1 51.0556 58.3156)" fill="#FFFFFF" font-family="'Nunito-Bold'" font-size="38">R</text>
<text transform="matrix(1 0 0 1 75.7509 58.3156)" fill="#FFFFFF" font-family="'Nunito-Bold'" font-size="38">O</text>
<text transform="matrix(1 0 0 1 103.1904 58.3156)"><tspan x="0" y="0" fill="#FFFFFF" font-family="'Nunito-Bold'" font-size="38">UG</tspan><tspan x="56.01" y="0" fill="#FFFFFF" font-family="'Nunito-Bold'" font-size="38" letter-spacing="-2">H</tspan><tspan x="82.79" y="0" fill="#FFFFFF" font-family="'Nunito-Bold'" font-size="38">T</tspan><tspan x="104.81" y="0" fill="#FFFFFF" font-family="'Nunito-Bold'" font-size="38"> </tspan></text>
<text transform="matrix(1 0 0 1 215.3906 58.3156)" fill="#FFFFFF" font-family="'Nunito-Bold'" font-size="38">T</text>
<text transform="matrix(1 0 0 1 235.7392 58.3156)"><tspan x="0" y="0" fill="#FFFFFF" font-family="'Nunito-Bold'" font-size="38">O</tspan><tspan x="28.96" y="0" fill="#FFFFFF" font-family="'Nunito-Bold'" font-size="38"> </tspan></text>
<text transform="matrix(1 0 0 1 272.1738 58.3156)" fill="#FFFFFF" font-family="'Nunito-Bold'" font-size="38">Y</text>
<text transform="matrix(1 0 0 1 294.373 58.3156)" fill="#FFFFFF" font-family="'Nunito-Bold'" font-size="38">O</text>
<text transform="matrix(1 0 0 1 322.5732 58.3156)"><tspan x="0" y="0" fill="#FFFFFF" font-family="'Nunito-Bold'" font-size="38">U</tspan><tspan x="27.61" y="0" fill="#FFFFFF" font-family="'Nunito-Bold'" font-size="38"> </tspan></text>
<text transform="matrix(1 0 0 1 361.2705 58.3156)" fill="#FFFFFF" font-family="'Nunito-Bold'" font-size="38">B</text>
<text transform="matrix(1 0 0 1 384.8633 58.3156)" fill="#FFFFFF" font-family="'Nunito-Bold'" font-size="38">Y</text>
<path fill="#FFFFFF" d="M438.5,86v-2H4V4h432.5l0,82H438.5v-2V86h2V2c0-0.53-0.21-1.04-0.59-1.41C439.54,0.21,439.02,0,438.5,0H2
	C1.47,0,0.96,0.21,0.59,0.59C0.21,0.96,0,1.47,0,2v84c0,0.53,0.21,1.04,0.59,1.41S1.47,88,2,88h436.5c0.53,0,1.04-0.21,1.41-0.59
	c0.37-0.37,0.59-0.89,0.59-1.41H438.5z"/>
</svg>
