<?xml version="1.0" encoding="utf-8"?>
<!-- Generator: Adobe Illustrator 17.0.0, SVG Export Plug-In . SVG Version: 6.00 Build 0)  -->
<!DOCTYPE svg PUBLIC "-//W3C//DTD SVG 1.1//EN" "http://www.w3.org/Graphics/SVG/1.1/DTD/svg11.dtd">
<svg version="1.1" id="Layer_1" xmlns="http://www.w3.org/2000/svg" xmlns:xlink="http://www.w3.org/1999/xlink" x="0px" y="0px"
	 width="194.25px" height="194.25px" viewBox="0 0 194.25 194.25" enable-background="new 0 0 194.25 194.25" xml:space="preserve">
<path fill="#FFE100" d="M194.25,97.12c0,8.39-7.87,15.63-9.94,23.37c-2.14,8,0.99,18.2-3.06,25.21
	c-4.11,7.11-14.54,9.47-20.31,15.24c-5.77,5.77-8.13,16.2-15.24,20.31c-4.04,2.34-9.15,2.29-14.28,2.24
	c-3.76-0.04-7.54-0.08-10.93,0.83c-7.74,2.07-14.98,9.94-23.37,9.94c-8.39,0-15.63-7.87-23.37-9.94c-3.39-0.91-7.17-0.87-10.93-0.83
	c-5.13,0.05-10.23,0.1-14.28-2.24c-7.11-4.11-9.47-14.54-15.24-20.31c-5.77-5.77-16.2-8.13-20.31-15.24
	c-4.05-7.01-0.92-17.2-3.06-25.21C7.87,112.75,0,105.51,0,97.12c0-8.39,7.87-15.63,9.94-23.37c2.14-8-0.99-18.2,3.06-25.21
	c4.11-7.11,14.54-9.47,20.31-15.24c5.77-5.77,8.13-16.2,15.24-20.31c4.04-2.34,9.15-2.29,14.28-2.23c3.76,0.04,7.54,0.08,10.93-0.83
	C81.49,7.87,88.74,0,97.12,0c8.39,0,15.63,7.87,23.37,9.94c3.39,0.91,7.17,0.87,10.93,0.83c5.13-0.05,10.23-0.1,14.28,2.24
	c7.11,4.11,9.47,14.54,15.24,20.31c5.77,5.77,16.2,8.13,20.31,15.24c4.05,7.01,0.92,17.2,3.06,25.21
	C186.38,81.49,194.25,88.74,194.25,97.12"/>
<path fill="#FFE100" d="M194.25,97.12c0,8.39-7.87,15.63-9.94,23.37c-2.14,8,0.99,18.2-3.06,25.21
	c-4.11,7.11-14.54,9.47-20.31,15.24c-5.77,5.77-8.13,16.2-15.24,20.31c-4.04,2.34-9.15,2.29-14.28,2.24
	c-3.76-0.04-7.54-0.08-10.93,0.83c-7.74,2.07-14.98,9.94-23.37,9.94c-8.39,0-15.63-7.87-23.37-9.94c-3.39-0.91-7.17-0.87-10.93-0.83
	c-5.13,0.05-10.23,0.1-14.28-2.24c-7.11-4.11-9.47-14.54-15.24-20.31c-5.77-5.77-16.2-8.13-20.31-15.24
	c-4.05-7.01-0.92-17.2-3.06-25.21C7.87,112.75,0,105.51,0,97.12c0-8.39,7.87-15.63,9.94-23.37c2.14-8-0.99-18.2,3.06-25.21
	c4.11-7.11,14.54-9.47,20.31-15.24c5.77-5.77,8.13-16.2,15.24-20.31c4.04-2.34,9.15-2.29,14.28-2.23c3.76,0.04,7.54,0.08,10.93-0.83
	C81.49,7.87,88.74,0,97.12,0c8.39,0,15.63,7.87,23.37,9.94c3.39,0.91,7.17,0.87,10.93,0.83c5.13-0.05,10.23-0.1,14.28,2.24
	c7.11,4.11,9.47,14.54,15.24,20.31c5.77,5.77,16.2,8.13,20.31,15.24c4.05,7.01,0.92,17.2,3.06,25.21
	C186.38,81.49,194.25,88.74,194.25,97.12"/>
<path fill="#FFE100" d="M73.66,184.29C73.66,184.29,73.66,184.29,73.66,184.29C73.66,184.29,73.66,184.29,73.66,184.29
	 M73.63,184.28c0.01,0,0.01,0,0.02,0C73.64,184.28,73.64,184.28,73.63,184.28 M38.81,168.84c2.09,3.7,4.1,7.52,6.92,10.25
	C42.9,176.35,40.9,172.53,38.81,168.84 M48.55,13L48.55,13c-7.11,4.11-9.47,14.55-15.24,20.31c-5.77,5.77-16.2,8.13-20.31,15.24
	c-1.99,3.44-2.25,7.65-2.25,12c0-4.34,0.26-8.55,2.25-12c4.11-7.11,14.54-9.47,20.31-15.24C39.08,27.54,41.44,17.11,48.55,13
	L48.55,13 M53.09,11.33c-0.01,0-0.03,0.01-0.04,0.01C53.06,11.34,53.07,11.33,53.09,11.33 M56.22,10.89
	c-1.07,0.09-2.12,0.22-3.13,0.44C54.11,11.12,55.15,10.98,56.22,10.89 M56.29,10.89c-0.02,0-0.05,0-0.07,0.01
	C56.25,10.89,56.27,10.89,56.29,10.89 M56.31,10.89C56.31,10.89,56.3,10.89,56.31,10.89C56.3,10.89,56.31,10.89,56.31,10.89
	 M56.34,10.88c0,0-0.01,0-0.01,0C56.33,10.89,56.33,10.89,56.34,10.88 M56.35,10.88C56.35,10.88,56.35,10.88,56.35,10.88
	L56.35,10.88 M73.76,9.94L73.76,9.94c-2.71,0.72-5.66,0.84-8.66,0.84c-0.75,0-1.51-0.01-2.27-0.02c-0.12,0-0.24,0-0.35,0
	c0.12,0,0.24,0,0.35,0c0.76,0.01,1.52,0.02,2.27,0.02C68.1,10.78,71.05,10.66,73.76,9.94L73.76,9.94 M73.79,9.93
	C73.79,9.93,73.78,9.93,73.79,9.93C73.78,9.93,73.79,9.93,73.79,9.93 M73.81,9.92c0,0-0.01,0-0.01,0
	C73.81,9.92,73.81,9.92,73.81,9.92 M73.84,9.91c0,0-0.01,0-0.01,0C73.83,9.92,73.83,9.92,73.84,9.91 M73.86,9.91c0,0-0.01,0-0.01,0
	C73.85,9.91,73.86,9.91,73.86,9.91 M73.88,9.9c0,0-0.01,0-0.01,0C73.87,9.9,73.88,9.9,73.88,9.9 M73.9,9.9c0,0-0.01,0-0.01,0
	C73.9,9.9,73.9,9.9,73.9,9.9 M73.93,9.89c0,0-0.01,0-0.01,0C73.92,9.89,73.92,9.89,73.93,9.89 M73.95,9.88c0,0-0.01,0-0.01,0
	C73.94,9.89,73.94,9.88,73.95,9.88 M73.97,9.88c0,0-0.01,0-0.01,0C73.96,9.88,73.97,9.88,73.97,9.88 M73.99,9.87c0,0-0.01,0-0.01,0
	C73.99,9.87,73.99,9.87,73.99,9.87 M74.02,9.86c0,0-0.01,0-0.01,0C74.01,9.87,74.01,9.87,74.02,9.86 M74.04,9.86c0,0-0.01,0-0.01,0
	C74.03,9.86,74.03,9.86,74.04,9.86 M74.06,9.85c0,0-0.01,0-0.01,0C74.05,9.85,74.06,9.85,74.06,9.85 M74.08,9.85c0,0-0.01,0-0.01,0
	C74.07,9.85,74.08,9.85,74.08,9.85 M74.1,9.84c0,0-0.01,0-0.01,0C74.1,9.84,74.1,9.84,74.1,9.84 M74.13,9.83c0,0-0.01,0-0.01,0
	C74.12,9.83,74.12,9.83,74.13,9.83 M74.15,9.83c0,0-0.01,0-0.01,0C74.14,9.83,74.15,9.83,74.15,9.83 M74.17,9.82c0,0-0.01,0-0.01,0
	C74.16,9.82,74.17,9.82,74.17,9.82 M74.19,9.81c0,0-0.01,0-0.01,0C74.19,9.82,74.19,9.81,74.19,9.81 M74.22,9.81c0,0-0.01,0-0.01,0
	C74.21,9.81,74.21,9.81,74.22,9.81 M74.24,9.8c0,0-0.01,0-0.01,0C74.23,9.8,74.23,9.8,74.24,9.8 M74.26,9.79c0,0-0.01,0-0.01,0
	C74.25,9.8,74.26,9.79,74.26,9.79 M74.28,9.79c0,0-0.01,0-0.01,0C74.27,9.79,74.28,9.79,74.28,9.79 M74.31,9.78
	c-0.01,0-0.01,0-0.02,0C74.3,9.78,74.3,9.78,74.31,9.78 M74.33,9.77c-0.01,0-0.01,0-0.02,0.01C74.32,9.78,74.32,9.77,74.33,9.77
	 M74.35,9.77c-0.01,0-0.01,0-0.02,0.01C74.34,9.77,74.34,9.77,74.35,9.77 M74.37,9.76c-0.01,0-0.01,0-0.02,0.01
	C74.36,9.76,74.37,9.76,74.37,9.76 M74.42,9.75c-0.01,0-0.03,0.01-0.04,0.01C74.39,9.75,74.4,9.75,74.42,9.75 M74.54,9.71
	c-0.04,0.01-0.08,0.03-0.13,0.04C74.46,9.73,74.5,9.72,74.54,9.71 M74.57,9.7c-0.01,0-0.01,0-0.02,0.01
	C74.55,9.7,74.56,9.7,74.57,9.7 M74.59,9.69c-0.01,0-0.01,0-0.02,0.01C74.58,9.7,74.58,9.69,74.59,9.69 M74.61,9.69
	c-0.01,0-0.01,0-0.02,0.01C74.6,9.69,74.6,9.69,74.61,9.69 M74.63,9.68c0,0-0.01,0-0.01,0C74.62,9.68,74.62,9.68,74.63,9.68
	 M74.65,9.67c-0.01,0-0.01,0-0.02,0C74.64,9.67,74.65,9.67,74.65,9.67 M74.67,9.66c-0.01,0-0.01,0-0.02,0.01
	C74.66,9.67,74.67,9.67,74.67,9.66 M74.7,9.66c-0.01,0-0.01,0-0.01,0C74.69,9.66,74.69,9.66,74.7,9.66 M74.72,9.65
	c0,0-0.01,0-0.01,0C74.71,9.65,74.71,9.65,74.72,9.65 M74.74,9.64c0,0-0.01,0-0.01,0C74.73,9.65,74.73,9.64,74.74,9.64 M74.76,9.64
	c0,0-0.01,0-0.01,0C74.75,9.64,74.76,9.64,74.76,9.64 M74.78,9.63c0,0-0.01,0-0.01,0C74.78,9.63,74.78,9.63,74.78,9.63 M74.8,9.62
	c0,0-0.01,0-0.01,0C74.8,9.62,74.8,9.62,74.8,9.62 M74.83,9.61c0,0-0.01,0-0.01,0C74.82,9.62,74.82,9.61,74.83,9.61 M74.85,9.61
	c-0.01,0-0.01,0-0.01,0C74.84,9.61,74.85,9.61,74.85,9.61 M74.87,9.6c0,0-0.01,0-0.01,0C74.86,9.6,74.87,9.6,74.87,9.6 M74.89,9.59
	c0,0-0.01,0-0.01,0C74.88,9.59,74.89,9.59,74.89,9.59 M74.92,9.58c0,0-0.01,0-0.01,0C74.91,9.59,74.91,9.58,74.92,9.58 M74.94,9.58
	c0,0-0.01,0-0.01,0C74.93,9.58,74.93,9.58,74.94,9.58 M74.96,9.57c0,0-0.01,0-0.01,0C74.95,9.57,74.96,9.57,74.96,9.57 M74.98,9.56
	c0,0-0.01,0-0.01,0C74.97,9.56,74.98,9.56,74.98,9.56 M75,9.55c0,0-0.01,0-0.01,0C75,9.56,75,9.55,75,9.55 M75.03,9.55
	c0,0-0.01,0-0.02,0.01C75.02,9.55,75.02,9.55,75.03,9.55 M75.05,9.54c0,0-0.01,0-0.01,0C75.04,9.54,75.04,9.54,75.05,9.54
	 M75.07,9.53c0,0-0.01,0-0.01,0C75.06,9.53,75.07,9.53,75.07,9.53 M75.09,9.52c0,0-0.01,0-0.01,0C75.09,9.52,75.09,9.52,75.09,9.52
	 M75.11,9.51c0,0-0.01,0-0.01,0C75.11,9.52,75.11,9.52,75.11,9.51 M75.14,9.51C75.14,9.51,75.13,9.51,75.14,9.51
	C75.13,9.51,75.13,9.51,75.14,9.51 M75.24,9.47c-0.02,0.01-0.04,0.01-0.06,0.02C75.2,9.48,75.22,9.48,75.24,9.47 M75.26,9.46
	c0,0-0.01,0-0.01,0C75.25,9.47,75.25,9.46,75.26,9.46 M75.28,9.46c0,0-0.01,0-0.01,0C75.27,9.46,75.28,9.46,75.28,9.46 M75.3,9.45
	C75.3,9.45,75.29,9.45,75.3,9.45C75.29,9.45,75.3,9.45,75.3,9.45 M75.32,9.44C75.32,9.44,75.32,9.44,75.32,9.44
	C75.32,9.44,75.32,9.44,75.32,9.44 M75.35,9.43C75.34,9.43,75.34,9.43,75.35,9.43C75.34,9.43,75.34,9.43,75.35,9.43 M75.37,9.42
	C75.36,9.42,75.36,9.43,75.37,9.42C75.36,9.43,75.36,9.42,75.37,9.42 M75.39,9.42C75.39,9.42,75.38,9.42,75.39,9.42
	C75.38,9.42,75.39,9.42,75.39,9.42 M75.41,9.41C75.41,9.41,75.41,9.41,75.41,9.41C75.41,9.41,75.41,9.41,75.41,9.41 M75.43,9.4
	C75.43,9.4,75.43,9.4,75.43,9.4C75.43,9.4,75.43,9.4,75.43,9.4 M75.45,9.39C75.45,9.39,75.45,9.39,75.45,9.39
	C75.45,9.39,75.45,9.39,75.45,9.39 M75.48,9.38C75.48,9.38,75.47,9.39,75.48,9.38C75.47,9.39,75.48,9.38,75.48,9.38 M75.5,9.38
	C75.5,9.38,75.5,9.38,75.5,9.38C75.5,9.38,75.5,9.38,75.5,9.38 M75.52,9.37C75.52,9.37,75.52,9.37,75.52,9.37
	C75.52,9.37,75.52,9.37,75.52,9.37 M75.54,9.36C75.54,9.36,75.54,9.36,75.54,9.36C75.54,9.36,75.54,9.36,75.54,9.36 M75.57,9.35
	C75.56,9.35,75.56,9.35,75.57,9.35C75.56,9.35,75.56,9.35,75.57,9.35 M75.59,9.34C75.59,9.34,75.58,9.34,75.59,9.34
	C75.58,9.34,75.59,9.34,75.59,9.34 M75.61,9.33C75.61,9.33,75.61,9.33,75.61,9.33C75.61,9.33,75.61,9.33,75.61,9.33 M75.63,9.33
	C75.63,9.33,75.63,9.33,75.63,9.33L75.63,9.33 M75.65,9.32C75.65,9.32,75.65,9.32,75.65,9.32C75.65,9.32,75.65,9.32,75.65,9.32
	 M75.7,9.3C75.7,9.3,75.7,9.3,75.7,9.3C75.7,9.3,75.7,9.3,75.7,9.3 M75.74,9.28L75.74,9.28L75.74,9.28"/>
<path fill="#FFE700" d="M96.35,0.02C89,0.44,82.51,6.67,75.74,9.28l0,0c-0.01,0.01-0.03,0.01-0.04,0.02c0,0,0,0,0,0
	c-0.01,0.01-0.03,0.01-0.04,0.02c0,0,0,0,0,0c-0.01,0-0.01,0.01-0.02,0.01l0,0c-0.01,0-0.01,0.01-0.02,0.01c0,0,0,0,0,0
	c-0.01,0-0.01,0-0.02,0.01c0,0,0,0,0,0c-0.01,0-0.01,0-0.02,0.01c0,0,0,0-0.01,0c-0.01,0-0.01,0-0.02,0.01c0,0,0,0,0,0
	c-0.01,0-0.01,0-0.02,0.01c0,0,0,0,0,0c-0.01,0-0.01,0-0.02,0.01c0,0,0,0,0,0c-0.01,0-0.01,0-0.02,0.01c0,0,0,0-0.01,0
	c-0.01,0-0.01,0-0.02,0.01c0,0,0,0-0.01,0c-0.01,0-0.01,0-0.02,0.01c0,0,0,0-0.01,0c-0.01,0-0.01,0-0.02,0.01c0,0,0,0-0.01,0
	c-0.01,0-0.01,0-0.01,0.01c0,0-0.01,0-0.01,0c0,0-0.01,0-0.01,0c0,0-0.01,0-0.01,0c0,0-0.01,0-0.01,0c0,0-0.01,0-0.01,0
	c-0.01,0-0.01,0-0.02,0.01c0,0,0,0-0.01,0c0,0-0.01,0-0.01,0c0,0-0.01,0-0.01,0c0,0-0.01,0-0.01,0c0,0-0.01,0-0.01,0
	c0,0-0.01,0-0.01,0c0,0-0.01,0-0.01,0c0,0-0.01,0-0.01,0c-0.02,0.01-0.04,0.01-0.06,0.02c-0.01,0.01-0.03,0.01-0.04,0.02
	c0,0,0,0,0,0c-0.01,0-0.01,0-0.02,0.01c0,0-0.01,0-0.01,0c0,0-0.01,0-0.01,0c0,0-0.01,0-0.01,0c0,0-0.01,0-0.01,0c0,0-0.01,0-0.01,0
	c0,0-0.01,0-0.01,0c0,0-0.01,0-0.01,0c0,0,0,0-0.01,0c-0.01,0-0.01,0-0.02,0.01c0,0,0,0-0.01,0c0,0-0.01,0-0.01,0c0,0-0.01,0-0.01,0
	c0,0-0.01,0-0.01,0c0,0-0.01,0-0.01,0c0,0-0.01,0-0.01,0c0,0-0.01,0-0.01,0c0,0-0.01,0-0.01,0c0,0-0.01,0-0.01,0c0,0-0.01,0-0.01,0
	c0,0-0.01,0-0.01,0c0,0-0.01,0-0.01,0c0,0-0.01,0-0.01,0c0,0-0.01,0-0.01,0c0,0-0.01,0-0.01,0c0,0-0.01,0-0.01,0c0,0-0.01,0-0.01,0
	c0,0-0.01,0-0.01,0c0,0-0.01,0-0.01,0c0,0-0.01,0-0.01,0c0,0-0.01,0-0.01,0c0,0-0.01,0-0.01,0c0,0-0.01,0-0.01,0c0,0-0.01,0-0.01,0
	c0,0-0.01,0-0.01,0c0,0-0.01,0-0.01,0c0,0-0.01,0-0.01,0c0,0-0.01,0-0.01,0c0,0,0,0-0.01,0c0,0-0.01,0-0.01,0c0,0,0,0-0.01,0
	c-0.01,0-0.01,0-0.02,0.01c0,0,0,0-0.01,0c0,0-0.01,0-0.02,0c0,0-0.01,0-0.01,0c0,0-0.01,0-0.01,0c0,0,0,0-0.01,0
	c-0.01,0-0.01,0-0.02,0.01c0,0,0,0,0,0c-0.01,0-0.01,0-0.02,0.01c0,0,0,0,0,0c-0.01,0-0.01,0-0.02,0.01c0,0,0,0,0,0
	c-0.04,0.01-0.08,0.03-0.13,0.04c0,0,0,0,0,0c-0.01,0-0.03,0.01-0.04,0.01c0,0,0,0-0.01,0c-0.01,0-0.01,0-0.02,0.01c0,0,0,0,0,0
	c-0.01,0-0.01,0-0.02,0.01c0,0,0,0-0.01,0c-0.01,0-0.01,0-0.02,0.01c0,0,0,0,0,0c-0.01,0-0.01,0-0.02,0c0,0-0.01,0-0.01,0
	c0,0-0.01,0-0.01,0c0,0-0.01,0-0.01,0c0,0-0.01,0-0.01,0c0,0-0.01,0-0.01,0c0,0-0.01,0-0.01,0c0,0-0.01,0-0.01,0c0,0-0.01,0-0.01,0
	c0,0-0.01,0-0.01,0c0,0-0.01,0-0.01,0c0,0-0.01,0-0.01,0c0,0-0.01,0-0.01,0c0,0-0.01,0-0.01,0c0,0-0.01,0-0.01,0c0,0-0.01,0-0.01,0
	c0,0-0.01,0-0.01,0c0,0-0.01,0-0.01,0c0,0-0.01,0-0.01,0c0,0-0.01,0-0.01,0c0,0-0.01,0-0.01,0c0,0-0.01,0-0.01,0c0,0-0.01,0-0.01,0
	c0,0-0.01,0-0.01,0c0,0-0.01,0-0.01,0c0,0-0.01,0-0.01,0c0,0-0.01,0-0.01,0c0,0-0.01,0-0.01,0c0,0-0.01,0-0.01,0c0,0-0.01,0-0.01,0
	c0,0-0.01,0-0.01,0c0,0-0.01,0-0.01,0c0,0-0.01,0-0.01,0c0,0-0.01,0-0.01,0c0,0-0.01,0-0.01,0c0,0-0.01,0-0.01,0c0,0-0.01,0-0.01,0
	c0,0-0.01,0-0.01,0c0,0-0.01,0-0.01,0c0,0-0.01,0-0.01,0c0,0-0.01,0-0.01,0c0,0-0.01,0-0.01,0c0,0-0.01,0-0.01,0c0,0-0.01,0-0.01,0
	c0,0-0.01,0-0.01,0c0,0-0.01,0-0.01,0c0,0-0.01,0-0.01,0c-0.01,0-0.01,0-0.02,0.01l0,0c-2.71,0.72-5.66,0.84-8.66,0.84
	c-0.76,0-1.51-0.01-2.27-0.02c-0.12,0-0.24,0-0.35,0c-0.64-0.01-1.28-0.01-1.91-0.01c-1.43,0-2.84,0.03-4.22,0.14l0,0
	c0,0-0.01,0-0.01,0c0,0-0.01,0-0.01,0c-0.01,0-0.01,0-0.01,0c0,0-0.01,0-0.01,0c0,0,0,0-0.01,0c-0.02,0-0.04,0-0.07,0.01
	c0,0,0,0,0,0c-1.07,0.09-2.12,0.22-3.13,0.44c0,0,0,0,0,0c-0.01,0-0.03,0.01-0.04,0.01c-1.59,0.34-3.11,0.86-4.49,1.66l0,0
	c-7.11,4.11-9.47,14.54-15.24,20.31c-5.77,5.77-16.2,8.13-20.31,15.24c-1.99,3.44-2.25,7.65-2.25,12c0,1.51,0.03,3.04,0.03,4.55
	c0,3-0.12,5.95-0.84,8.66l0,0C7.87,81.49,0,88.74,0,97.12l0,0c0,8.39,7.87,15.63,9.94,23.37c2.14,8-0.99,18.2,3.06,25.21
	c4.11,7.11,14.54,9.47,20.31,15.24c2.17,2.17,3.86,5,5.5,7.9c2.09,3.7,4.1,7.52,6.92,10.25c0.86,0.83,1.79,1.56,2.82,2.16
	c3.45,1.99,7.66,2.25,12.01,2.25c0.75,0,1.51-0.01,2.27-0.02c0.76-0.01,1.51-0.02,2.27-0.02c2.95,0,5.86,0.12,8.54,0.81
	c0.01,0,0.01,0,0.02,0c0.01,0,0.01,0,0.02,0c0,0,0,0,0,0c0.03,0.01,0.06,0.02,0.09,0.02c7.5,2,14.53,9.45,22.59,9.91v-48.31
	c-0.68,0.02-1.37,0.03-2.08,0.03c-9.86,0-17.78-2.14-23.77-6.42c-5.98-4.28-8.97-9.84-8.97-16.69c0-3.6,0.99-6.46,2.97-8.56
	c1.98-2.1,4.65-3.15,8.02-3.15c2.3,0,4.19,0.44,5.67,1.31c1.49,0.87,2.7,2.22,3.65,4.04c0.08,0.12,0.42,1.04,1.01,2.76
	c0.59,1.72,1.41,3.08,2.44,4.07c0.95,0.99,2.08,1.7,3.39,2.14c1.31,0.44,2.93,0.65,4.87,0.65c0.98,0,1.91-0.06,2.79-0.17v-19.11
	c-0.08-0.01-0.16-0.02-0.23-0.03c-0.16-0.04-0.34-0.08-0.54-0.12c-5.66-0.87-8.5-3.15-8.5-6.83c0-2.02,0.44-3.68,1.31-4.99
	c0.87-1.31,2.06-2.12,3.56-2.44c0.44-0.08,1.07-0.2,1.9-0.36c0.88-0.17,1.71-0.36,2.49-0.58V74.7c-0.42-0.03-0.86-0.05-1.3-0.05
	c-2.14,0-4.02,0.4-5.64,1.19c-1.62,0.79-3.27,2.16-4.93,4.1c-0.4,0.48-0.91,1.13-1.55,1.96c-2.49,3.29-5.49,4.93-8.97,4.93
	c-3.09,0-5.53-0.89-7.31-2.67c-1.78-1.78-2.67-4.22-2.67-7.31c0-5.94,2.98-10.92,8.94-14.94c5.96-4.02,13.58-6.03,22.84-6.03
	c0.2,0,0.39,0,0.59,0V0.02"/>
<path fill="#FFCD02" d="M96.35,55.88V74.7c2.48,0.19,4.51,0.94,6.06,2.24c1.82,1.52,2.73,3.56,2.73,6.09c0,4.02-2.93,6.84-8.8,8.45
	v15.35c3.33,0.49,5.75,1.45,7.28,2.88c1.56,1.47,2.35,3.53,2.35,6.18c0,3.21-1.09,5.71-3.27,7.52c-1.63,1.35-3.75,2.19-6.36,2.53
	v19.98c10.42-0.3,18.69-2.88,24.81-7.75c6.51-5.19,9.77-12.3,9.77-21.33c0-5.03-1.09-9.18-3.27-12.45c-2.18-3.27-5.43-5.63-9.74-7.1
	c3.68-1.58,6.48-3.81,8.41-6.68c1.92-2.87,2.88-6.29,2.88-10.25c0-7.64-2.95-13.63-8.85-17.97
	C114.56,58.13,106.56,55.96,96.35,55.88"/>
<path fill="#FFDB00" d="M72.53,111.13c-3.37,0-6.04,1.05-8.02,3.15c-1.98,2.1-2.97,4.95-2.97,8.56c0,6.85,2.99,12.42,8.97,16.69
	c5.98,4.28,13.9,6.42,23.77,6.42c0.7,0,1.39-0.01,2.08-0.03v-19.98c-0.87,0.11-1.8,0.17-2.79,0.17c-1.94,0-3.56-0.22-4.87-0.65
	c-1.31-0.44-2.44-1.15-3.39-2.14c-1.03-0.99-1.84-2.35-2.44-4.07c-0.59-1.72-0.93-2.64-1.01-2.76c-0.95-1.82-2.17-3.17-3.65-4.04
	C76.72,111.56,74.82,111.13,72.53,111.13 M96.35,91.48c-0.78,0.21-1.61,0.41-2.49,0.58c-0.83,0.16-1.47,0.28-1.9,0.36
	c-1.51,0.32-2.69,1.13-3.56,2.44c-0.87,1.31-1.31,2.97-1.31,4.99c0,3.68,2.83,5.96,8.5,6.83c0.2,0.04,0.38,0.08,0.54,0.12
	c0.08,0.01,0.16,0.02,0.23,0.03V91.48 M95.76,55.88c-9.27,0-16.88,2.01-22.84,6.03c-5.96,4.02-8.94,9-8.94,14.94
	c0,3.09,0.89,5.53,2.67,7.31c1.78,1.78,4.22,2.67,7.31,2.67c3.48,0,6.48-1.64,8.97-4.93c0.63-0.83,1.15-1.49,1.55-1.96
	c1.66-1.94,3.31-3.31,4.93-4.1c1.62-0.79,3.5-1.19,5.64-1.19c0.45,0,0.88,0.02,1.3,0.05V55.88C96.15,55.88,95.95,55.88,95.76,55.88"
	/>
<path fill="#F5841F" d="M119.7,94.3c4.32,1.47,7.57,3.83,9.74,7.1c2.18,3.27,3.27,7.42,3.27,12.45c0,9.03-3.26,16.14-9.77,21.33
	c-6.52,5.19-15.48,7.78-26.88,7.78c-9.86,0-17.78-2.14-23.76-6.42c-5.98-4.28-8.97-9.84-8.97-16.69c0-3.6,0.99-6.46,2.97-8.56
	c1.98-2.1,4.65-3.15,8.02-3.15c2.3,0,4.19,0.44,5.67,1.31c1.49,0.87,2.7,2.22,3.65,4.04c0.08,0.12,0.42,1.04,1.01,2.76
	s1.41,3.08,2.44,4.07c0.95,0.99,2.08,1.7,3.39,2.14c1.31,0.44,2.93,0.65,4.87,0.65c3.92,0,6.97-0.9,9.15-2.7
	c2.18-1.8,3.27-4.31,3.27-7.52c0-2.65-0.78-4.71-2.35-6.18c-1.56-1.46-4.07-2.44-7.52-2.91c-0.16-0.04-0.34-0.08-0.53-0.12
	c-5.66-0.87-8.5-3.15-8.5-6.83c0-2.02,0.44-3.68,1.31-4.99c0.87-1.31,2.06-2.12,3.56-2.44c0.44-0.08,1.07-0.2,1.9-0.36
	c7.52-1.47,11.29-4.48,11.29-9.03c0-2.53-0.91-4.56-2.73-6.09c-1.82-1.52-4.28-2.29-7.37-2.29c-2.14,0-4.02,0.4-5.64,1.19
	c-1.62,0.79-3.27,2.16-4.93,4.1c-0.4,0.48-0.91,1.13-1.55,1.96c-2.49,3.29-5.49,4.93-8.97,4.93c-3.09,0-5.53-0.89-7.31-2.67
	c-1.78-1.78-2.67-4.22-2.67-7.31c0-5.94,2.98-10.92,8.94-14.94c5.96-4.02,13.58-6.03,22.84-6.03c10.5,0,18.69,2.17,24.6,6.51
	c5.9,4.34,8.85,10.33,8.85,17.97c0,3.96-0.96,7.38-2.88,10.25C126.19,90.49,123.38,92.72,119.7,94.3z"/>
</svg>
