<?xml version="1.0" encoding="utf-8"?>
<!-- Generator: Adobe Illustrator 17.0.0, SVG Export Plug-In . SVG Version: 6.00 Build 0)  -->
<!DOCTYPE svg PUBLIC "-//W3C//DTD SVG 1.1//EN" "http://www.w3.org/Graphics/SVG/1.1/DTD/svg11.dtd">
<svg version="1.1" id="Layer_1" xmlns="http://www.w3.org/2000/svg" xmlns:xlink="http://www.w3.org/1999/xlink" x="0px" y="0px"
	 width="194.26px" height="194.27px" viewBox="0 0 194.26 194.27" enable-background="new 0 0 194.26 194.27" xml:space="preserve">
<path fill="#FEE100" d="M194.26,97.13c0,8.39-7.87,15.63-9.94,23.37c-2.14,8,0.99,18.2-3.06,25.21
	c-4.11,7.11-14.54,9.47-20.31,15.24s-8.13,16.2-15.24,20.31c-4.04,2.34-9.15,2.29-14.28,2.24c-3.76-0.04-7.54-0.08-10.93,0.83
	c-7.74,2.07-14.98,9.94-23.37,9.94s-15.63-7.87-23.37-9.94c-3.39-0.91-7.17-0.87-10.93-0.83c-5.13,0.05-10.23,0.1-14.28-2.24
	c-7.11-4.11-9.47-14.54-15.24-20.31s-16.2-8.13-20.31-15.24c-4.05-7.01-0.92-17.2-3.06-25.21C7.87,112.76,0,105.52,0,97.13
	c0-8.39,7.87-15.63,9.94-23.37c2.14-8-0.99-18.2,3.06-25.21c4.11-7.11,14.54-9.47,20.31-15.24S41.44,17.11,48.55,13
	c4.04-2.34,9.15-2.29,14.28-2.23c3.76,0.04,7.54,0.08,10.93-0.83C81.5,7.87,88.74,0,97.13,0s15.63,7.87,23.37,9.94
	c3.39,0.91,7.17,0.87,10.93,0.83c5.13-0.05,10.23-0.1,14.28,2.24c7.11,4.11,9.47,14.54,15.24,20.31s16.2,8.13,20.31,15.24
	c4.05,7.01,0.92,17.2,3.06,25.21C186.39,81.5,194.26,88.74,194.26,97.13"/>
<path fill="#FEE100" d="M73.68,184.29L73.68,184.29L73.68,184.29 M73.65,184.28c0.01,0,0.01,0,0.02,0
	C73.66,184.29,73.65,184.28,73.65,184.28 M39.06,169.27c1.51,2.68,2.99,5.41,4.8,7.71C42.06,174.67,40.57,171.95,39.06,169.27
	 M7.69,115.07c0.96,1.8,1.77,3.6,2.26,5.43c0.74,2.77,0.85,5.81,0.84,8.89c0.01-3.08-0.1-6.11-0.84-8.89
	C9.46,118.66,8.65,116.86,7.69,115.07 M13.01,48.56L13.01,48.56c-4.05,7.01-0.92,17.2-3.06,25.21c-0.63,2.35-1.79,4.66-3.11,6.97
	c1.32-2.31,2.48-4.61,3.11-6.97C12.09,65.76,8.96,55.56,13.01,48.56L13.01,48.56 M45.9,15.01c-5.15,4.86-7.59,13.32-12.57,18.31
	c-4.88,4.88-13.11,7.32-18.01,12.27c4.9-4.95,13.13-7.39,18.01-12.27C38.31,28.33,40.75,19.88,45.9,15.01 M46.04,14.88
	c-0.03,0.03-0.06,0.06-0.09,0.09C45.98,14.94,46.01,14.91,46.04,14.88 M46.12,14.8L46.12,14.8L46.12,14.8 M46.23,14.71
	c-0.01,0.01-0.02,0.02-0.03,0.03C46.21,14.73,46.22,14.72,46.23,14.71 M48.57,13L48.57,13c-0.46,0.27-0.9,0.56-1.32,0.87
	C47.67,13.56,48.11,13.27,48.57,13L48.57,13 M52.36,11.51h-0.01C52.35,11.51,52.35,11.51,52.36,11.51 M57.16,10.83
	c-1.66,0.09-3.27,0.29-4.8,0.67C53.89,11.12,55.51,10.93,57.16,10.83 M79.8,7.35c-2,1.1-4,2.04-6.03,2.59
	c-2.71,0.72-5.66,0.84-8.66,0.84c-0.75,0-1.51-0.01-2.27-0.02c-0.03,0-0.06,0-0.09,0c0.03,0,0.06,0,0.09,0
	c0.76,0.01,1.52,0.02,2.27,0.02c3,0,5.95-0.12,8.66-0.84C75.81,9.4,77.81,8.45,79.8,7.35 M79.83,7.34c-0.01,0-0.01,0.01-0.02,0.01
	C79.81,7.35,79.82,7.34,79.83,7.34 M79.84,7.33c-0.01,0-0.01,0.01-0.02,0.01C79.83,7.34,79.84,7.33,79.84,7.33 M79.87,7.32
	c-0.01,0-0.01,0.01-0.02,0.01C79.86,7.32,79.86,7.32,79.87,7.32 M79.89,7.31c-0.01,0-0.01,0.01-0.02,0.01
	C79.88,7.31,79.88,7.31,79.89,7.31 M79.91,7.29C79.91,7.3,79.9,7.3,79.91,7.29C79.9,7.3,79.91,7.3,79.91,7.29"/>
<path fill="#FEE600" d="M96.36,0.03C90.53,0.36,85.23,4.36,79.91,7.3c0,0,0,0-0.01,0s-0.01,0.01-0.02,0.01
	c-0.01,0-0.01,0.01-0.02,0.01l0,0c-0.01,0-0.01,0.01-0.02,0.01h-0.01c-0.01,0-0.01,0.01-0.02,0.01l0,0c-0.01,0-0.01,0.01-0.02,0.01
	l0,0c-2,1.1-4,2.04-6.03,2.59c-2.71,0.72-5.66,0.84-8.66,0.84c-0.76,0-1.51-0.01-2.27-0.02c-0.03,0-0.06,0-0.09,0
	c-0.73-0.01-1.46-0.01-2.18-0.01c-1.15,0-2.29,0.02-3.42,0.08c-1.66,0.09-3.27,0.29-4.8,0.67h-0.01h-0.01
	c-1.33,0.33-2.6,0.81-3.78,1.49l0,0c-0.46,0.27-0.9,0.56-1.32,0.87c-0.35,0.26-0.69,0.54-1.01,0.83c-0.01,0.01-0.02,0.02-0.03,0.03
	c-0.02,0.02-0.05,0.04-0.07,0.07l0,0c-0.03,0.03-0.06,0.05-0.09,0.08s-0.06,0.06-0.09,0.09c-0.01,0.01-0.03,0.03-0.04,0.04
	c-5.15,4.86-7.59,13.32-12.57,18.31c-4.88,4.88-13.11,7.32-18.01,12.27c-0.89,0.9-1.67,1.88-2.3,2.97l0,0
	c-4.05,7.01-0.92,17.2-3.06,25.21c-0.63,2.35-1.79,4.66-3.11,6.97c-3.01,5.28-6.82,10.56-6.82,16.4c0,6.4,4.59,12.14,7.68,17.94
	c0.96,1.8,1.77,3.6,2.26,5.43c0.74,2.77,0.85,5.81,0.84,8.89c-0.01,5.8-0.43,11.74,2.22,16.32c4.11,7.11,14.54,9.47,20.31,15.24
	c2.28,2.28,4.02,5.28,5.74,8.33c1.51,2.68,2.99,5.41,4.8,7.71c1.35,1.72,2.87,3.21,4.71,4.27c3.45,1.99,7.66,2.25,12.01,2.25
	c0.75,0,1.51-0.01,2.27-0.02c0.76-0.01,1.51-0.02,2.27-0.02c2.95,0,5.86,0.12,8.54,0.81c0.01,0,0.01,0,0.02,0c0.01,0,0.01,0,0.02,0
	l0,0c0.03,0.01,0.06,0.02,0.09,0.02c7.5,2,14.53,9.45,22.59,9.91v-47.26c-3.7-0.1-6.49-1.14-8.37-3.11
	c-1.98-2.08-2.97-5.22-2.97-9.42v-38.5H73.88c-2.57,0-4.6-0.81-6.06-2.44c-1.47-1.62-2.2-3.88-2.2-6.77c0-1.66,0.31-3.09,0.92-4.28
	c0.61-1.19,1.59-2.24,2.94-3.15c1.03-0.67,3.26-1.46,6.68-2.38c3.42-0.91,5.99-1.98,7.69-3.21c1.7-1.31,3.53-3.82,5.47-7.55
	c0.71-1.43,1.29-2.5,1.72-3.21c1.11-1.78,2.41-3.1,3.92-3.95c0.45-0.26,0.93-0.47,1.42-0.65V0.03"/>
<path fill="#FFCE09" d="M100.23,57.74c-1.41,0-2.7,0.21-3.86,0.63v88.6c0.2,0.01,0.4,0.01,0.6,0.01c4.12,0,7.32-1.14,9.6-3.42
	s3.42-5.46,3.42-9.54V68.61c0-3.72-0.78-6.47-2.35-8.23C106.06,58.62,103.59,57.74,100.23,57.74"/>
<path fill="#FEDA00" d="M96.36,58.37c-0.5,0.18-0.97,0.4-1.42,0.65c-1.51,0.85-2.81,2.17-3.92,3.95c-0.44,0.71-1.01,1.78-1.72,3.21
	c-1.94,3.72-3.76,6.24-5.47,7.55c-1.7,1.23-4.27,2.3-7.69,3.21c-3.43,0.91-5.65,1.7-6.68,2.38c-1.35,0.91-2.33,1.96-2.94,3.15
	c-0.61,1.19-0.92,2.61-0.92,4.28c0,2.89,0.73,5.15,2.2,6.77c1.46,1.62,3.48,2.44,6.06,2.44h11.17v38.5c0,4.2,0.99,7.34,2.97,9.42
	c1.88,1.97,4.67,3.01,8.37,3.11L96.36,58.37"/>
<path fill="#F6851F" d="M113.54,129.07c0,4.08-1.14,7.26-3.42,9.54s-5.48,3.42-9.6,3.42c-4,0-6.99-1.04-8.97-3.12
	s-2.97-5.22-2.97-9.42v-38.5H77.41c-2.57,0-4.6-0.81-6.06-2.44c-1.47-1.62-2.2-3.88-2.2-6.77c0-1.66,0.31-3.09,0.92-4.28
	c0.61-1.19,1.59-2.24,2.94-3.15c1.03-0.67,3.26-1.46,6.68-2.38c3.42-0.91,5.99-1.98,7.69-3.21c1.7-1.31,3.53-3.82,5.47-7.55
	c0.71-1.43,1.29-2.5,1.72-3.21c1.11-1.78,2.41-3.1,3.92-3.95c1.5-0.85,3.27-1.28,5.29-1.28c3.37,0,5.83,0.88,7.4,2.64
	c1.56,1.76,2.35,4.51,2.35,8.23v65.43L113.54,129.07L113.54,129.07z"/>
</svg>
