<?xml version="1.0" encoding="utf-8"?>
<!-- Generator: Adobe Illustrator 17.0.0, SVG Export Plug-In . SVG Version: 6.00 Build 0)  -->
<!DOCTYPE svg PUBLIC "-//W3C//DTD SVG 1.1//EN" "http://www.w3.org/Graphics/SVG/1.1/DTD/svg11.dtd">
<svg version="1.1" id="Layer_1" xmlns="http://www.w3.org/2000/svg" xmlns:xlink="http://www.w3.org/1999/xlink" x="0px" y="0px"
	 width="194.25px" height="194.25px" viewBox="0 0 194.25 194.25" enable-background="new 0 0 194.25 194.25" xml:space="preserve">
<path fill="#FFE100" d="M194.25,97.12c0,8.39-7.87,15.63-9.94,23.37c-2.14,8,0.99,18.2-3.06,25.21
	c-4.11,7.11-14.54,9.47-20.31,15.24c-5.77,5.77-8.13,16.2-15.24,20.31c-4.04,2.34-9.15,2.29-14.28,2.24
	c-3.76-0.04-7.54-0.08-10.93,0.83c-7.74,2.07-14.98,9.94-23.37,9.94c-8.39,0-15.63-7.87-23.37-9.94c-3.39-0.91-7.17-0.87-10.93-0.83
	c-5.13,0.05-10.23,0.1-14.28-2.24c-7.11-4.11-9.47-14.54-15.24-20.31c-5.77-5.77-16.2-8.13-20.31-15.24
	c-4.05-7.01-0.92-17.2-3.06-25.21C7.87,112.75,0,105.51,0,97.12c0-8.39,7.87-15.63,9.94-23.37c2.14-8-0.99-18.2,3.06-25.21
	c4.11-7.11,14.54-9.47,20.31-15.24S41.44,17.11,48.55,13c4.04-2.34,9.15-2.29,14.28-2.23c3.76,0.04,7.54,0.08,10.93-0.83
	C81.49,7.87,88.74,0,97.12,0s15.63,7.87,23.37,9.94c3.39,0.91,7.17,0.87,10.93,0.83c5.13-0.05,10.23-0.1,14.28,2.24
	c7.11,4.11,9.47,14.54,15.24,20.31c5.77,5.77,16.2,8.13,20.31,15.24c4.05,7.01,0.92,17.2,3.06,25.21
	C186.38,81.49,194.25,88.74,194.25,97.12"/>
<path fill="#FFE100" d="M73.85,184.34L73.85,184.34L73.85,184.34 M73.66,184.29C73.66,184.29,73.66,184.29,73.66,184.29
	C73.66,184.29,73.66,184.29,73.66,184.29 M73.63,184.28c0.01,0,0.01,0,0.02,0C73.64,184.28,73.64,184.28,73.63,184.28 M37.34,166.31
	c2.67,4.4,4.91,9.41,8.39,12.77C42.25,175.72,40.01,170.71,37.34,166.31 M15.43,45.45c-0.04,0.04-0.08,0.08-0.12,0.12
	C15.35,45.53,15.39,45.49,15.43,45.45 M31.55,34.87c-4.88,3.86-11.76,6.27-16.12,10.58C19.8,41.14,26.67,38.74,31.55,34.87
	 M31.82,34.65c-0.09,0.07-0.17,0.14-0.26,0.21C31.65,34.79,31.74,34.72,31.82,34.65 M31.89,34.6c-0.02,0.01-0.03,0.03-0.05,0.04
	C31.86,34.62,31.88,34.61,31.89,34.6 M32.24,34.3c-0.05,0.04-0.1,0.08-0.15,0.13C32.14,34.39,32.19,34.35,32.24,34.3 M48.55,13
	L48.55,13c-4.54,2.63-7.14,7.83-9.93,12.75C41.41,20.83,44.01,15.63,48.55,13L48.55,13 M51.05,11.88
	C51.05,11.88,51.05,11.88,51.05,11.88C51.05,11.88,51.05,11.88,51.05,11.88 M57.15,10.83c-2.13,0.12-4.18,0.4-6.08,1.04
	C52.97,11.23,55.03,10.95,57.15,10.83 M57.17,10.83C57.17,10.83,57.17,10.83,57.17,10.83C57.17,10.83,57.17,10.83,57.17,10.83
	 M73.76,9.94L73.76,9.94c-2.71,0.72-5.66,0.84-8.66,0.84c-0.75,0-1.51-0.01-2.27-0.02c-0.11,0-0.22,0-0.33,0c0.11,0,0.22,0,0.33,0
	c0.76,0.01,1.52,0.02,2.27,0.02C68.1,10.78,71.05,10.66,73.76,9.94L73.76,9.94 M73.79,9.93c0,0-0.01,0-0.01,0
	C73.78,9.93,73.79,9.93,73.79,9.93 M73.82,9.92c0,0-0.01,0-0.01,0C73.81,9.92,73.81,9.92,73.82,9.92 M73.84,9.91
	c-0.01,0-0.01,0-0.01,0C73.83,9.92,73.84,9.91,73.84,9.91 M73.86,9.91c0,0-0.01,0-0.01,0C73.85,9.91,73.86,9.91,73.86,9.91
	 M73.88,9.9c0,0-0.01,0-0.01,0C73.87,9.9,73.88,9.9,73.88,9.9 M73.91,9.9c-0.01,0-0.01,0-0.02,0C73.9,9.9,73.9,9.9,73.91,9.9
	 M73.93,9.89c-0.01,0-0.01,0-0.02,0C73.92,9.89,73.92,9.89,73.93,9.89 M73.95,9.88c-0.01,0-0.01,0-0.02,0
	C73.94,9.89,73.95,9.88,73.95,9.88 M73.97,9.88c-0.01,0-0.01,0-0.02,0C73.96,9.88,73.97,9.88,73.97,9.88 M74,9.87
	c-0.01,0-0.01,0-0.02,0C73.99,9.87,73.99,9.87,74,9.87 M74.02,9.86c-0.01,0-0.01,0-0.01,0C74.01,9.87,74.01,9.87,74.02,9.86
	 M74.04,9.86c-0.01,0-0.01,0-0.02,0C74.03,9.86,74.04,9.86,74.04,9.86 M74.06,9.85c-0.01,0-0.01,0-0.02,0
	C74.05,9.85,74.06,9.85,74.06,9.85 M74.09,9.84c-0.01,0-0.01,0-0.02,0C74.07,9.85,74.08,9.85,74.09,9.84 M74.11,9.84
	c-0.01,0-0.01,0-0.02,0C74.1,9.84,74.1,9.84,74.11,9.84 M74.13,9.83c-0.01,0-0.01,0-0.02,0.01C74.12,9.84,74.12,9.83,74.13,9.83
	 M74.15,9.83c-0.01,0-0.01,0-0.02,0.01C74.14,9.83,74.15,9.83,74.15,9.83 M74.17,9.82c-0.01,0-0.01,0-0.02,0.01
	C74.16,9.82,74.17,9.82,74.17,9.82 M74.2,9.81c-0.01,0-0.01,0-0.02,0.01C74.18,9.82,74.19,9.81,74.2,9.81 M74.22,9.81
	c-0.01,0-0.01,0-0.02,0.01C74.21,9.81,74.21,9.81,74.22,9.81 M74.24,9.8c-0.01,0-0.01,0-0.02,0.01C74.23,9.8,74.23,9.8,74.24,9.8
	 M74.26,9.79c-0.01,0-0.01,0-0.02,0.01C74.25,9.8,74.26,9.79,74.26,9.79 M74.28,9.79c-0.01,0-0.01,0-0.02,0.01
	C74.27,9.79,74.28,9.79,74.28,9.79 M77.41,8.57c-1.04,0.49-2.08,0.9-3.13,1.22C75.34,9.47,76.38,9.05,77.41,8.57 M77.44,8.55
	c-0.01,0-0.01,0.01-0.02,0.01C77.42,8.56,77.43,8.56,77.44,8.55 M77.46,8.55c-0.01,0-0.01,0.01-0.02,0.01
	C77.45,8.55,77.45,8.55,77.46,8.55 M77.48,8.54c0,0-0.01,0-0.01,0.01C77.47,8.54,77.47,8.54,77.48,8.54 M77.5,8.53
	c0,0-0.01,0-0.01,0.01C77.49,8.53,77.49,8.53,77.5,8.53 M77.52,8.52c0,0-0.01,0-0.01,0.01C77.51,8.52,77.52,8.52,77.52,8.52
	 M77.54,8.51c0,0-0.01,0-0.01,0.01C77.53,8.51,77.54,8.51,77.54,8.51 M77.56,8.5C77.56,8.5,77.55,8.5,77.56,8.5
	C77.56,8.5,77.56,8.5,77.56,8.5 M77.58,8.49C77.58,8.49,77.58,8.49,77.58,8.49C77.58,8.49,77.58,8.49,77.58,8.49 M77.6,8.48
	C77.6,8.48,77.6,8.48,77.6,8.48C77.6,8.48,77.6,8.48,77.6,8.48 M77.63,8.46c0,0-0.01,0-0.01,0.01C77.62,8.47,77.62,8.47,77.63,8.46
	 M77.65,8.45c0,0-0.01,0-0.01,0.01C77.64,8.46,77.65,8.46,77.65,8.45 M77.67,8.44C77.67,8.45,77.67,8.45,77.67,8.44
	C77.67,8.45,77.67,8.45,77.67,8.44 M77.69,8.43C77.69,8.43,77.69,8.44,77.69,8.43C77.69,8.44,77.69,8.44,77.69,8.43 M77.72,8.42
	c0,0-0.01,0-0.01,0C77.71,8.43,77.71,8.42,77.72,8.42 M77.74,8.41C77.73,8.41,77.73,8.41,77.74,8.41
	C77.73,8.42,77.73,8.41,77.74,8.41 M77.76,8.4C77.76,8.4,77.76,8.4,77.76,8.4C77.76,8.4,77.76,8.4,77.76,8.4 M77.78,8.39
	C77.78,8.39,77.78,8.39,77.78,8.39C77.78,8.39,77.78,8.39,77.78,8.39 M77.8,8.38C77.8,8.38,77.8,8.38,77.8,8.38
	C77.8,8.38,77.8,8.38,77.8,8.38 M77.82,8.37C77.82,8.37,77.82,8.37,77.82,8.37L77.82,8.37"/>
<path fill="#FFE700" d="M96.35,116.45c-1.68,1.16-3.14,2.24-4.38,3.24h4.38V116.45 M96.35,0.02C89.76,0.4,83.85,5.45,77.82,8.37l0,0
	c-0.01,0-0.01,0.01-0.02,0.01c0,0,0,0,0,0c-0.01,0-0.01,0.01-0.02,0.01c0,0,0,0,0,0c-0.01,0-0.01,0.01-0.02,0.01c0,0,0,0,0,0
	c-0.01,0-0.01,0.01-0.02,0.01c0,0,0,0-0.01,0c0,0-0.01,0-0.01,0.01c0,0-0.01,0-0.01,0c0,0-0.01,0-0.01,0.01c0,0,0,0-0.01,0
	c0,0-0.01,0-0.01,0.01c0,0-0.01,0-0.01,0c0,0-0.01,0-0.01,0.01c0,0-0.01,0-0.01,0.01c0,0-0.01,0-0.01,0.01c0,0-0.01,0-0.01,0.01
	c0,0-0.01,0-0.01,0.01c0,0,0,0-0.01,0c-0.01,0-0.01,0-0.02,0.01c0,0-0.01,0-0.01,0c0,0-0.01,0-0.01,0.01c0,0-0.01,0-0.01,0
	c0,0-0.01,0-0.01,0.01c0,0-0.01,0-0.01,0.01c0,0-0.01,0-0.01,0c0,0-0.01,0-0.01,0.01c0,0-0.01,0-0.01,0c0,0-0.01,0-0.01,0.01
	c0,0-0.01,0-0.01,0c0,0-0.01,0-0.01,0.01c0,0,0,0-0.01,0c-0.01,0-0.01,0.01-0.02,0.01c0,0,0,0,0,0c-0.01,0-0.01,0.01-0.02,0.01
	c0,0,0,0-0.01,0c-1.04,0.49-2.08,0.9-3.13,1.22l0,0c-0.01,0-0.01,0-0.02,0.01l0,0c-0.01,0-0.01,0-0.02,0.01c0,0,0,0,0,0
	c-0.01,0-0.01,0-0.02,0.01c0,0,0,0,0,0c-0.01,0-0.01,0-0.02,0.01c0,0,0,0,0,0c-0.01,0-0.01,0-0.02,0.01c0,0,0,0,0,0
	c-0.01,0-0.01,0-0.02,0.01c0,0,0,0,0,0c-0.01,0-0.01,0-0.02,0.01c0,0,0,0,0,0c-0.01,0-0.01,0-0.02,0.01c0,0,0,0-0.01,0
	c-0.01,0-0.01,0-0.02,0c0,0,0,0,0,0c-0.01,0-0.01,0-0.02,0c0,0,0,0-0.01,0c-0.01,0-0.01,0-0.02,0c0,0,0,0-0.01,0
	c-0.01,0-0.01,0-0.02,0c0,0,0,0-0.01,0c-0.01,0-0.01,0-0.01,0c0,0,0,0-0.01,0c-0.01,0-0.01,0-0.02,0c0,0,0,0-0.01,0
	c-0.01,0-0.01,0-0.02,0c0,0,0,0-0.01,0c-0.01,0-0.01,0-0.02,0c0,0,0,0-0.01,0c0,0-0.01,0-0.02,0c0,0,0,0-0.01,0
	c-0.01,0-0.01,0-0.02,0c0,0-0.01,0-0.01,0c0,0-0.01,0-0.01,0c0,0-0.01,0-0.01,0c0,0-0.01,0-0.01,0c0,0,0,0-0.01,0c0,0-0.01,0-0.01,0
	c0,0-0.01,0-0.01,0c0,0-0.01,0-0.01,0c0,0-0.01,0-0.01,0c0,0-0.01,0-0.01,0c-0.01,0-0.01,0-0.02,0.01l0,0
	c-2.71,0.72-5.66,0.84-8.66,0.84c-0.76,0-1.51-0.01-2.27-0.02c-0.11,0-0.22,0-0.33,0c-0.64-0.01-1.29-0.01-1.93-0.01
	c-1.15,0-2.28,0.02-3.4,0.08c0,0,0,0,0,0c0,0-0.01,0-0.01,0c-2.13,0.12-4.18,0.4-6.08,1.04c-0.01,0-0.01,0-0.02,0.01c0,0,0,0,0,0
	c-0.87,0.29-1.7,0.66-2.5,1.12l0,0c-4.54,2.63-7.14,7.83-9.93,12.75c-1.58,2.78-3.21,5.46-5.29,7.55c-0.01,0.01-0.01,0.01-0.02,0.02
	c-0.12,0.12-0.25,0.25-0.38,0.37c-0.22,0.21-0.46,0.42-0.69,0.62c-0.05,0.04-0.1,0.08-0.15,0.13c-0.07,0.06-0.13,0.11-0.2,0.17
	c-0.02,0.01-0.03,0.03-0.05,0.04c-0.01,0.01-0.02,0.01-0.02,0.02c-0.09,0.07-0.17,0.14-0.26,0.21c0,0-0.01,0.01-0.01,0.01
	c-4.88,3.86-11.76,6.27-16.12,10.58l0,0c-0.04,0.04-0.08,0.08-0.12,0.12c-0.89,0.9-1.68,1.88-2.31,2.98l0,0
	c-1.99,3.44-2.25,7.65-2.25,12c0,1.51,0.03,3.04,0.03,4.55c0,3-0.12,5.95-0.84,8.66l0,0C7.87,81.49,0,88.74,0,97.12
	c0,8.39,7.87,15.63,9.94,23.37c2.14,8-0.99,18.2,3.06,25.21c4.11,7.11,14.54,9.47,20.31,15.24c1.53,1.53,2.82,3.39,4.03,5.38
	c2.67,4.4,4.91,9.41,8.39,12.77c0.86,0.83,1.79,1.56,2.82,2.16c3.45,1.99,7.66,2.25,12.01,2.25c0.75,0,1.51-0.01,2.27-0.02
	c0.76-0.01,1.51-0.02,2.27-0.02c2.95,0,5.86,0.12,8.54,0.81c0.01,0,0.01,0,0.02,0c0.01,0,0.01,0,0.02,0c0,0,0,0,0,0
	c0.03,0.01,0.06,0.02,0.09,0.02c0.03,0.01,0.06,0.02,0.09,0.02l0,0c7.46,2.04,14.47,9.43,22.5,9.89V140.6H70.28
	c-3.13,0-5.61-0.94-7.46-2.82c-1.84-1.88-2.76-4.43-2.76-7.63c0-3.64,1.66-7.38,4.99-11.2c3.33-3.82,9.13-8.56,17.41-14.23
	c1.74-1.19,4.18-2.79,7.31-4.81c2.49-1.62,4.68-3.2,6.58-4.73V71.89c-0.29-0.02-0.58-0.02-0.88-0.02c-2.26,0-4.25,0.48-5.97,1.43
	c-1.72,0.95-3.1,2.34-4.13,4.16c-0.2,0.36-0.74,1.53-1.63,3.51c-0.89,1.98-1.83,3.53-2.82,4.63c-1.03,1.15-2.22,2.01-3.56,2.58
	c-1.35,0.57-2.89,0.86-4.63,0.86c-3.25,0-5.84-0.94-7.78-2.82c-1.94-1.88-2.91-4.39-2.91-7.52c0-7.25,3.28-13.37,9.83-18.36
	c6.45-4.91,14.61-7.41,24.49-7.48V0.02"/>
<path fill="#FFCD02" d="M119.23,119.69H96.35v20.91h22.53c4.28,0,7.5-0.91,9.65-2.73c2.16-1.82,3.24-4.55,3.24-8.2
	c0-3.17-1.1-5.62-3.3-7.37C126.27,120.56,123.19,119.69,119.23,119.69 M96.84,52.85c-0.16,0-0.33,0-0.49,0v19.04
	c2.68,0.16,4.87,1.04,6.55,2.65c1.86,1.78,2.79,4.14,2.79,7.07c0,4.03-3.11,8.56-9.34,13.57v21.28c2.86-1.98,6.35-4.21,10.47-6.68
	c2.61-1.54,4.52-2.71,5.7-3.51c7.29-4.55,12.13-8.65,14.53-12.3c2.4-3.64,3.59-8.14,3.59-13.49c0-8.32-3.07-15-9.21-20.05
	C115.29,55.37,107.09,52.85,96.84,52.85"/>
<path fill="#FFDB00" d="M96.35,95.17c-1.9,1.53-4.1,3.11-6.58,4.73c-3.13,2.02-5.56,3.62-7.31,4.81
	c-8.28,5.66-14.08,10.41-17.41,14.23c-3.33,3.82-4.99,7.56-4.99,11.2c0,3.21,0.92,5.75,2.76,7.63c1.84,1.88,4.33,2.82,7.46,2.82
	h26.07v-20.91h-4.38c1.24-1,2.71-2.08,4.38-3.24V95.17 M96.35,52.85c-9.88,0.08-18.05,2.57-24.49,7.48
	c-6.56,4.99-9.83,11.11-9.83,18.36c0,3.13,0.97,5.63,2.91,7.52c1.94,1.88,4.54,2.82,7.78,2.82c1.74,0,3.29-0.29,4.63-0.86
	c1.35-0.57,2.53-1.43,3.56-2.58c0.99-1.11,1.93-2.65,2.82-4.63c0.89-1.98,1.43-3.15,1.63-3.51c1.03-1.82,2.41-3.21,4.13-4.16
	c1.72-0.95,3.71-1.43,5.97-1.43c0.3,0,0.59,0.01,0.88,0.02V52.85"/>
<path fill="#F5841F" d="M93.17,115.96h27.27c3.96,0,7.04,0.87,9.24,2.61c2.2,1.74,3.3,4.2,3.3,7.37c0,3.64-1.08,6.38-3.24,8.2
	c-2.16,1.82-5.38,2.73-9.65,2.73h-48.6c-3.13,0-5.61-0.94-7.46-2.82c-1.84-1.88-2.76-4.43-2.76-7.63c0-3.64,1.66-7.38,4.99-11.2
	c3.33-3.82,9.13-8.56,17.41-14.23c1.74-1.19,4.18-2.79,7.31-4.81c10.61-6.93,15.92-13.03,15.92-18.3c0-2.93-0.93-5.29-2.79-7.07
	c-1.86-1.78-4.34-2.67-7.43-2.67c-2.26,0-4.25,0.48-5.97,1.43c-1.72,0.95-3.1,2.34-4.13,4.16c-0.2,0.36-0.74,1.53-1.63,3.51
	c-0.89,1.98-1.83,3.53-2.82,4.63c-1.03,1.15-2.22,2.01-3.56,2.58c-1.35,0.57-2.89,0.86-4.63,0.86c-3.25,0-5.84-0.94-7.78-2.82
	c-1.94-1.88-2.91-4.39-2.91-7.52c0-7.25,3.28-13.37,9.83-18.36c6.55-4.99,14.88-7.49,24.98-7.49c10.26,0,18.46,2.53,24.6,7.58
	c6.14,5.05,9.21,11.73,9.21,20.05c0,5.35-1.2,9.84-3.59,13.49c-2.4,3.64-7.24,7.74-14.53,12.3c-1.19,0.79-3.09,1.96-5.7,3.51
	C101.49,109.96,96.54,113.26,93.17,115.96z"/>
</svg>
