<?xml version="1.0" encoding="utf-8"?>
<!-- Generator: Adobe Illustrator 17.0.0, SVG Export Plug-In . SVG Version: 6.00 Build 0)  -->
<!DOCTYPE svg PUBLIC "-//W3C//DTD SVG 1.1//EN" "http://www.w3.org/Graphics/SVG/1.1/DTD/svg11.dtd">
<svg version="1.1" id="Layer_1" xmlns="http://www.w3.org/2000/svg" xmlns:xlink="http://www.w3.org/1999/xlink" x="0px" y="0px"
	 width="194.26px" height="194.27px" viewBox="209.33 298.87 194.26 194.27" enable-background="new 209.33 298.87 194.26 194.27"
	 xml:space="preserve">
<path fill="#FFE100" d="M403.59,396c0,8.39-7.87,15.63-9.94,23.37c-2.14,8,0.99,18.2-3.06,25.21c-4.11,7.11-14.54,9.47-20.31,15.24
	s-8.13,16.2-15.24,20.31c-4.04,2.34-9.15,2.29-14.28,2.24c-3.76-0.04-7.54-0.08-10.93,0.83c-7.74,2.07-14.98,9.94-23.37,9.94
	s-15.63-7.87-23.37-9.94c-3.39-0.91-7.17-0.87-10.93-0.83c-5.13,0.05-10.23,0.1-14.28-2.24c-7.11-4.11-9.47-14.54-15.24-20.31
	s-16.2-8.13-20.31-15.24c-4.05-7.01-0.92-17.2-3.06-25.21c-2.07-7.74-9.94-14.98-9.94-23.37c0-8.39,7.87-15.63,9.94-23.37
	c2.14-8-0.99-18.2,3.06-25.21c4.11-7.11,14.54-9.47,20.31-15.24s8.13-16.2,15.24-20.31c4.04-2.34,9.15-2.29,14.28-2.23
	c3.76,0.04,7.54,0.08,10.93-0.83c7.74-2.07,14.98-9.94,23.37-9.94s15.63,7.87,23.37,9.94c3.39,0.91,7.17,0.87,10.93,0.83
	c5.13-0.05,10.23-0.1,14.28,2.24c7.11,4.11,9.47,14.54,15.24,20.31s16.2,8.13,20.31,15.24c4.05,7.01,0.92,17.2,3.06,25.21
	C395.72,380.37,403.59,387.61,403.59,396"/>
<path fill="#FFE100" d="M283.01,483.16L283.01,483.16L283.01,483.16 M282.98,483.15c0.01,0,0.01,0,0.02,0
	C282.99,483.16,282.98,483.15,282.98,483.15 M248.39,468.14c1.51,2.68,2.99,5.41,4.8,7.71C251.39,473.54,249.9,470.82,248.39,468.14
	 M217.02,413.94c0.96,1.8,1.77,3.6,2.26,5.43c0.74,2.77,0.85,5.81,0.84,8.89c0.01-3.08-0.1-6.11-0.84-8.89
	C218.79,417.53,217.98,415.73,217.02,413.94 M222.34,347.43L222.34,347.43c-4.05,7.01-0.92,17.2-3.06,25.21
	c-0.63,2.35-1.79,4.66-3.11,6.97c1.32-2.31,2.48-4.61,3.11-6.97C221.42,364.63,218.29,354.43,222.34,347.43L222.34,347.43
	 M255.23,313.88c-5.15,4.86-7.59,13.32-12.57,18.31c-4.88,4.88-13.11,7.32-18.01,12.27c4.9-4.95,13.13-7.39,18.01-12.27
	C247.64,327.2,250.08,318.75,255.23,313.88 M255.37,313.75c-0.03,0.03-0.06,0.06-0.09,0.09
	C255.31,313.81,255.34,313.78,255.37,313.75 M255.45,313.67L255.45,313.67L255.45,313.67 M255.56,313.58
	c-0.01,0.01-0.02,0.02-0.03,0.03C255.54,313.6,255.55,313.59,255.56,313.58 M257.9,311.87L257.9,311.87
	c-0.46,0.27-0.9,0.56-1.32,0.87C257,312.43,257.44,312.14,257.9,311.87L257.9,311.87 M261.69,310.38h-0.01
	C261.68,310.38,261.68,310.38,261.69,310.38 M266.49,309.7c-1.66,0.09-3.27,0.29-4.8,0.67C263.22,309.99,264.84,309.8,266.49,309.7
	 M289.13,306.22c-2,1.1-4,2.04-6.03,2.59c-2.71,0.72-5.66,0.84-8.66,0.84c-0.75,0-1.51-0.01-2.27-0.02c-0.03,0-0.06,0-0.09,0
	c0.03,0,0.06,0,0.09,0c0.76,0.01,1.52,0.02,2.27,0.02c3,0,5.95-0.12,8.66-0.84C285.14,308.27,287.14,307.32,289.13,306.22
	 M289.16,306.21c-0.01,0-0.01,0.01-0.02,0.01C289.14,306.22,289.15,306.21,289.16,306.21 M289.17,306.2c-0.01,0-0.01,0.01-0.02,0.01
	C289.16,306.21,289.17,306.2,289.17,306.2 M289.2,306.19c-0.01,0-0.01,0.01-0.02,0.01C289.19,306.19,289.19,306.19,289.2,306.19
	 M289.22,306.18c-0.01,0-0.01,0.01-0.02,0.01C289.21,306.18,289.21,306.18,289.22,306.18 M289.24,306.16
	C289.24,306.17,289.23,306.17,289.24,306.16C289.23,306.17,289.24,306.17,289.24,306.16"/>
<path fill="#FFE700" d="M305.69,298.9c-5.83,0.33-11.13,4.33-16.45,7.27c0,0,0,0-0.01,0s-0.01,0.01-0.02,0.01
	c-0.01,0-0.01,0.01-0.02,0.01l0,0c-0.01,0-0.01,0.01-0.02,0.01h-0.01c-0.01,0-0.01,0.01-0.02,0.01l0,0c-0.01,0-0.01,0.01-0.02,0.01
	l0,0c-2,1.1-4,2.04-6.03,2.59c-2.71,0.72-5.66,0.84-8.66,0.84c-0.76,0-1.51-0.01-2.27-0.02c-0.03,0-0.06,0-0.09,0
	c-0.73-0.01-1.46-0.01-2.18-0.01c-1.15,0-2.29,0.02-3.42,0.08c-1.66,0.09-3.27,0.29-4.8,0.67h-0.01h-0.01
	c-1.33,0.33-2.6,0.81-3.78,1.49l0,0c-0.46,0.27-0.9,0.56-1.32,0.87c-0.35,0.26-0.69,0.54-1.01,0.83c-0.01,0.01-0.02,0.02-0.03,0.03
	c-0.02,0.02-0.05,0.04-0.07,0.07l0,0c-0.03,0.03-0.06,0.05-0.09,0.08s-0.06,0.06-0.09,0.09c-0.01,0.01-0.03,0.03-0.04,0.04
	c-5.15,4.86-7.59,13.32-12.57,18.31c-4.88,4.88-13.11,7.32-18.01,12.27c-0.89,0.9-1.67,1.88-2.3,2.97l0,0
	c-4.05,7.01-0.92,17.2-3.06,25.21c-0.63,2.35-1.79,4.66-3.11,6.97c-3.01,5.28-6.82,10.56-6.82,16.4c0,6.4,4.59,12.14,7.68,17.94
	c0.96,1.8,1.77,3.6,2.26,5.43c0.74,2.77,0.85,5.81,0.84,8.89c-0.01,5.8-0.43,11.74,2.22,16.32c4.11,7.11,14.54,9.47,20.31,15.24
	c2.28,2.28,4.02,5.28,5.74,8.33c1.51,2.68,2.99,5.41,4.8,7.71c1.35,1.72,2.87,3.21,4.71,4.27c3.45,1.99,7.66,2.25,12.01,2.25
	c0.75,0,1.51-0.01,2.27-0.02c0.76-0.01,1.51-0.02,2.27-0.02c2.95,0,5.86,0.12,8.54,0.81c0.01,0,0.01,0,0.02,0c0.01,0,0.01,0,0.02,0
	l0,0c0.03,0.01,0.06,0.02,0.09,0.02c7.5,2,14.53,9.45,22.59,9.91v-47.26c-3.7-0.1-6.49-1.14-8.37-3.11
	c-1.98-2.08-2.97-5.22-2.97-9.42v-38.5h-11.17c-2.57,0-4.6-0.81-6.06-2.44c-1.47-1.62-2.2-3.88-2.2-6.77c0-1.66,0.31-3.09,0.92-4.28
	c0.61-1.19,1.59-2.24,2.94-3.15c1.03-0.67,3.26-1.46,6.68-2.38c3.42-0.91,5.99-1.98,7.69-3.21c1.7-1.31,3.53-3.82,5.47-7.55
	c0.71-1.43,1.29-2.5,1.72-3.21c1.11-1.78,2.41-3.1,3.92-3.95c0.45-0.26,0.93-0.47,1.42-0.65v-58.3"/>
<path fill="#FFCD02" d="M309.56,356.61c-1.41,0-2.7,0.21-3.86,0.63v88.6c0.2,0.01,0.4,0.01,0.6,0.01c4.12,0,7.32-1.14,9.6-3.42
	s3.42-5.46,3.42-9.54v-65.41c0-3.72-0.78-6.47-2.35-8.23C315.39,357.49,312.92,356.61,309.56,356.61"/>
<path fill="#FFDB00" d="M305.69,357.24c-0.5,0.18-0.97,0.4-1.42,0.65c-1.51,0.85-2.81,2.17-3.92,3.95
	c-0.44,0.71-1.01,1.78-1.72,3.21c-1.94,3.72-3.76,6.24-5.47,7.55c-1.7,1.23-4.27,2.3-7.69,3.21c-3.43,0.91-5.65,1.7-6.68,2.38
	c-1.35,0.91-2.33,1.96-2.94,3.15c-0.61,1.19-0.92,2.61-0.92,4.28c0,2.89,0.73,5.15,2.2,6.77c1.46,1.62,3.48,2.44,6.06,2.44h11.17
	v38.5c0,4.2,0.99,7.34,2.97,9.42c1.88,1.97,4.67,3.01,8.37,3.11L305.69,357.24"/>
<path fill="#F5841F" d="M322.87,427.94c0,4.08-1.14,7.26-3.42,9.54s-5.48,3.42-9.6,3.42c-4,0-6.99-1.04-8.97-3.12
	s-2.97-5.22-2.97-9.42v-38.5h-11.17c-2.57,0-4.6-0.81-6.06-2.44c-1.47-1.62-2.2-3.88-2.2-6.77c0-1.66,0.31-3.09,0.92-4.28
	c0.61-1.19,1.59-2.24,2.94-3.15c1.03-0.67,3.26-1.46,6.68-2.38c3.42-0.91,5.99-1.98,7.69-3.21c1.7-1.31,3.53-3.82,5.47-7.55
	c0.71-1.43,1.29-2.5,1.72-3.21c1.11-1.78,2.41-3.1,3.92-3.95c1.5-0.85,3.27-1.28,5.29-1.28c3.37,0,5.83,0.88,7.4,2.64
	c1.56,1.76,2.35,4.51,2.35,8.23v65.43H322.87z"/>
</svg>
