<?xml version="1.0" encoding="utf-8"?>
<!-- Generator: Adobe Illustrator 17.0.0, SVG Export Plug-In . SVG Version: 6.00 Build 0)  -->
<!DOCTYPE svg PUBLIC "-//W3C//DTD SVG 1.1//EN" "http://www.w3.org/Graphics/SVG/1.1/DTD/svg11.dtd">
<svg version="1.1" id="Layer_1" xmlns="http://www.w3.org/2000/svg" xmlns:xlink="http://www.w3.org/1999/xlink" x="0px" y="0px"
	 width="435.58px" height="105.81px" viewBox="0 0 435.58 105.81" enable-background="new 0 0 435.58 105.81" xml:space="preserve">
<path fill="#F48220" d="M435.58,88.21c0,9.72-7.88,17.6-17.6,17.6H17.6c-9.72,0-17.6-7.88-17.6-17.6V23.95
	c0-9.72,7.88-17.6,17.6-17.6h400.38c9.72,0,17.6,7.88,17.6,17.6V88.21z"/>
<path fill="#FEE000" d="M435.58,81.86c0,9.72-7.88,17.6-17.6,17.6H17.6C7.88,99.46,0,91.58,0,81.86V17.6C0,7.88,7.88,0,17.6,0
	h400.38c9.72,0,17.6,7.88,17.6,17.6V81.86z"/>
<path fill="#FCCD0D" d="M115.19,51.53c0.63,0,1.15,0.08,1.55,0.25c0.4,0.17,0.7,0.43,0.91,0.78c0.21,0.35,0.35,0.78,0.43,1.3
	c0.07,0.52,0.11,1.12,0.11,1.8v7.25c0,1.27-0.08,2.33-0.25,3.2c-0.17,0.87-0.49,1.59-0.96,2.18c-0.47,0.58-1.13,1.05-1.98,1.4
	c-0.85,0.35-1.96,0.63-3.32,0.84c-0.58,0.1-1.21,0.2-1.87,0.3c-0.67,0.1-1.34,0.2-2.03,0.28c-0.69,0.08-1.37,0.15-2.05,0.21
	c-0.67,0.06-1.3,0.08-1.89,0.08c-2.86,0-5.43-0.37-7.73-1.11c-2.3-0.74-4.25-1.87-5.88-3.38c-1.62-1.52-2.87-3.44-3.74-5.77
	c-0.87-2.33-1.3-5.07-1.3-8.24c0-2.55,0.37-4.94,1.11-7.19c0.74-2.25,1.87-4.21,3.38-5.89c1.52-1.68,3.44-3.01,5.78-3.98
	c2.34-0.97,5.1-1.46,8.3-1.46c1.04,0,2.07,0.05,3.09,0.16c1.02,0.1,2.01,0.25,2.96,0.42c0.95,0.18,1.86,0.4,2.73,0.66
	c0.87,0.26,1.67,0.54,2.4,0.85c0.73,0.31,1.27,0.73,1.63,1.25c0.36,0.53,0.54,1.1,0.54,1.72c0,1.01-0.31,1.77-0.93,2.29
	s-1.38,0.78-2.29,0.78c-0.46,0-1.06-0.09-1.8-0.28c-0.75-0.19-1.55-0.4-2.4-0.63c-0.85-0.24-1.72-0.45-2.6-0.63
	c-0.88-0.19-1.69-0.28-2.42-0.28c-1.78,0-3.31,0.29-4.59,0.86c-1.27,0.58-2.32,1.41-3.13,2.5c-0.81,1.09-1.4,2.41-1.78,3.97
	c-0.37,1.56-0.56,3.31-0.56,5.26c0,2.16,0.17,3.99,0.5,5.49c0.33,1.5,0.86,2.72,1.59,3.66c0.73,0.94,1.67,1.62,2.81,2.05
	c1.14,0.42,2.52,0.63,4.13,0.63c0.97,0,1.95-0.03,2.93-0.08c0.98-0.06,1.93-0.2,2.86-0.43v-7.96h-3.26c-0.5,0-0.97-0.05-1.39-0.13
	c-0.42-0.09-0.79-0.24-1.11-0.44c-0.32-0.2-0.56-0.47-0.74-0.8c-0.18-0.33-0.27-0.74-0.27-1.23c0-0.75,0.25-1.35,0.74-1.82
	c0.49-0.47,1.25-0.71,2.27-0.71c1.61,0,3.19,0,4.74,0.01C111.98,51.53,113.57,51.53,115.19,51.53z"/>
<path fill="#FCCD0D" d="M128.3,70.56c-0.83,0-1.52-0.17-2.08-0.51c-0.56-0.34-1.01-0.78-1.35-1.33c-0.34-0.54-0.58-1.16-0.73-1.84
	c-0.15-0.68-0.22-1.36-0.22-2.04V41.65c0-0.92,0.06-1.78,0.17-2.57c0.11-0.79,0.37-1.46,0.75-2.03c0.39-0.57,0.96-1.01,1.7-1.34
	c0.75-0.32,1.75-0.49,3.02-0.49h15.62c0.47,0,0.91,0.08,1.33,0.25c0.41,0.17,0.77,0.4,1.08,0.68c0.31,0.28,0.55,0.62,0.73,1.01
	c0.18,0.39,0.27,0.8,0.27,1.24c0,0.44-0.09,0.85-0.27,1.23c-0.18,0.38-0.42,0.71-0.73,1c-0.31,0.28-0.67,0.51-1.08,0.67
	c-0.41,0.16-0.86,0.24-1.33,0.24h-12.53v7.89h11.44c0.47,0,0.91,0.08,1.33,0.24c0.41,0.16,0.77,0.39,1.08,0.68
	c0.31,0.29,0.55,0.63,0.73,1.01c0.18,0.38,0.27,0.79,0.27,1.23c0,0.44-0.09,0.85-0.27,1.23c-0.18,0.38-0.42,0.71-0.73,1
	c-0.31,0.28-0.67,0.51-1.08,0.67c-0.41,0.16-0.86,0.24-1.33,0.24h-11.44v8.52h13.14c0.44,0,0.85,0.08,1.23,0.24
	c0.38,0.16,0.72,0.39,1.01,0.68c0.29,0.29,0.52,0.63,0.68,1.01c0.16,0.38,0.24,0.79,0.24,1.23c0,0.44-0.08,0.85-0.24,1.23
	c-0.16,0.38-0.39,0.71-0.68,1c-0.29,0.28-0.63,0.51-1.01,0.67c-0.38,0.16-0.79,0.24-1.23,0.24H128.3z"/>
<path fill="#FCCD0D" d="M152.93,41.65c-0.47,0-0.92-0.08-1.34-0.25c-0.42-0.17-0.79-0.4-1.11-0.69c-0.32-0.29-0.57-0.63-0.75-1.02
	c-0.19-0.39-0.28-0.8-0.28-1.24c0-0.44,0.09-0.86,0.28-1.25c0.19-0.4,0.44-0.74,0.75-1.03c0.32-0.29,0.69-0.52,1.11-0.69
	c0.42-0.17,0.87-0.26,1.34-0.26h22.22c0.47,0,0.92,0.08,1.34,0.26c0.42,0.17,0.79,0.4,1.11,0.69c0.32,0.29,0.57,0.64,0.75,1.03
	c0.19,0.4,0.28,0.82,0.28,1.25c0,0.44-0.09,0.85-0.28,1.24c-0.19,0.39-0.44,0.73-0.75,1.02c-0.32,0.29-0.69,0.52-1.11,0.69
	c-0.42,0.17-0.87,0.25-1.34,0.25h-6.52v24.17c0,0.67-0.12,1.29-0.35,1.86c-0.24,0.58-0.56,1.08-0.97,1.51
	c-0.41,0.43-0.89,0.77-1.44,1.01c-0.54,0.24-1.13,0.37-1.76,0.37c-0.63,0-1.22-0.12-1.76-0.37s-1.02-0.58-1.42-1.01
	c-0.41-0.43-0.73-0.93-0.96-1.51c-0.24-0.58-0.35-1.2-0.35-1.86V41.65H152.93z"/>
<path fill="#FCCD0D" d="M205.24,65.82c0,0.67-0.12,1.29-0.35,1.86c-0.24,0.58-0.56,1.08-0.97,1.51c-0.41,0.43-0.89,0.77-1.44,1.01
	s-1.13,0.37-1.76,0.37c-0.63,0-1.22-0.12-1.76-0.37s-1.02-0.58-1.42-1.01c-0.41-0.43-0.73-0.93-0.96-1.51
	c-0.24-0.58-0.35-1.2-0.35-1.86V39.68c0-0.75,0.15-1.4,0.45-1.96c0.3-0.56,0.7-1.03,1.21-1.4c0.5-0.37,1.09-0.65,1.76-0.84
	c0.67-0.19,1.38-0.28,2.13-0.28h9.76c1.8,0,3.53,0.12,5.18,0.35c1.66,0.24,3.11,0.68,4.37,1.33c1.26,0.65,2.26,1.55,3.02,2.7
	c0.75,1.15,1.13,2.65,1.13,4.5c0,1.01-0.14,1.96-0.41,2.86c-0.28,0.9-0.72,1.71-1.34,2.43c-0.62,0.72-1.42,1.34-2.42,1.85
	c-1,0.51-2.22,0.89-3.66,1.13v0.1c1.04,0.13,1.93,0.32,2.66,0.57c0.74,0.25,1.37,0.58,1.89,1c0.52,0.41,0.94,0.91,1.27,1.5
	c0.33,0.58,0.59,1.27,0.8,2.07c0.21,0.79,0.38,1.7,0.51,2.71c0.13,1.01,0.25,2.16,0.37,3.44c0.03,0.36,0.06,0.7,0.07,1.03
	c0.02,0.33,0.02,0.66,0.02,0.99c0,0.7-0.07,1.34-0.2,1.92c-0.13,0.58-0.36,1.09-0.68,1.51c-0.32,0.42-0.77,0.75-1.34,0.99
	c-0.57,0.24-1.3,0.35-2.19,0.35c-0.81,0-1.49-0.19-2.03-0.56c-0.54-0.37-0.99-0.88-1.35-1.53c-0.36-0.65-0.63-1.4-0.82-2.25
	c-0.19-0.85-0.34-1.76-0.45-2.74c-0.16-1.41-0.33-2.59-0.5-3.54c-0.17-0.95-0.44-1.72-0.82-2.3c-0.37-0.58-0.9-1-1.59-1.24
	c-0.69-0.24-1.63-0.37-2.84-0.37h-4.94V65.82z M208.98,50.36c0.88,0,1.75-0.05,2.63-0.16c0.88-0.11,1.67-0.32,2.37-0.66
	c0.71-0.33,1.28-0.82,1.72-1.46c0.44-0.64,0.66-1.5,0.66-2.57c0-1.23-0.21-2.16-0.63-2.77c-0.42-0.62-0.98-1.08-1.68-1.39
	c-0.7-0.31-1.5-0.5-2.42-0.57c-0.92-0.07-1.87-0.11-2.86-0.11h-3.67v9.69H208.98z"/>
<path fill="#FCCD0D" d="M234.95,70.56c-0.83,0-1.52-0.17-2.08-0.51c-0.56-0.34-1.01-0.78-1.35-1.33c-0.34-0.54-0.58-1.16-0.73-1.84
	s-0.22-1.36-0.22-2.04V41.65c0-0.92,0.06-1.78,0.17-2.57c0.11-0.79,0.37-1.46,0.75-2.03c0.39-0.57,0.96-1.01,1.7-1.34
	c0.75-0.32,1.75-0.49,3.02-0.49h15.62c0.47,0,0.91,0.08,1.33,0.25c0.41,0.17,0.77,0.4,1.08,0.68c0.31,0.28,0.55,0.62,0.73,1.01
	c0.18,0.39,0.27,0.8,0.27,1.24c0,0.44-0.09,0.85-0.27,1.23c-0.18,0.38-0.42,0.71-0.73,1c-0.31,0.28-0.67,0.51-1.08,0.67
	c-0.41,0.16-0.86,0.24-1.33,0.24H239.3v7.89h11.44c0.47,0,0.91,0.08,1.33,0.24c0.41,0.16,0.77,0.39,1.08,0.68
	c0.31,0.29,0.55,0.63,0.73,1.01c0.18,0.38,0.27,0.79,0.27,1.23c0,0.44-0.09,0.85-0.27,1.23c-0.18,0.38-0.42,0.71-0.73,1
	s-0.67,0.51-1.08,0.67c-0.41,0.16-0.86,0.24-1.33,0.24H239.3v8.52h13.14c0.44,0,0.85,0.08,1.23,0.24c0.38,0.16,0.72,0.39,1.01,0.68
	c0.29,0.29,0.52,0.63,0.68,1.01c0.16,0.38,0.24,0.79,0.24,1.23c0,0.44-0.08,0.85-0.24,1.23c-0.16,0.38-0.39,0.71-0.68,1
	c-0.29,0.28-0.63,0.51-1.01,0.67c-0.38,0.16-0.79,0.24-1.23,0.24H234.95z"/>
<path fill="#FCCD0D" d="M290.42,63.19c0.11,0.29,0.24,0.6,0.37,0.91c0.13,0.32,0.25,0.64,0.37,0.96c0.11,0.33,0.21,0.64,0.28,0.94
	c0.07,0.3,0.11,0.57,0.11,0.82c0,0.6-0.11,1.13-0.33,1.59c-0.22,0.46-0.52,0.85-0.89,1.17c-0.37,0.32-0.81,0.56-1.3,0.73
	c-0.5,0.17-1.02,0.25-1.57,0.25c-0.63,0-1.18-0.09-1.63-0.27c-0.45-0.18-0.86-0.46-1.22-0.85c-0.36-0.39-0.69-0.9-0.99-1.52
	c-0.3-0.62-0.62-1.39-0.96-2.3l-1.17-3.09h-13.77l-1,3.09c-0.29,0.92-0.59,1.7-0.89,2.34c-0.3,0.63-0.63,1.14-1,1.52
	c-0.37,0.38-0.78,0.66-1.25,0.83c-0.47,0.17-1.02,0.25-1.65,0.25c-0.55,0-1.07-0.08-1.57-0.25c-0.5-0.17-0.93-0.41-1.3-0.73
	c-0.37-0.32-0.67-0.71-0.89-1.17s-0.33-0.99-0.33-1.59c0-0.24,0.04-0.52,0.11-0.82c0.07-0.3,0.17-0.61,0.28-0.94
	c0.11-0.32,0.24-0.64,0.37-0.96c0.13-0.32,0.25-0.62,0.37-0.91l6.55-17.69c0.62-1.65,1.2-3.12,1.76-4.39
	c0.56-1.27,1.18-2.35,1.85-3.22c0.67-0.88,1.45-1.54,2.32-1.98c0.88-0.44,1.94-0.67,3.19-0.67c1.17,0,2.17,0.17,2.99,0.52
	c0.83,0.35,1.57,0.92,2.24,1.73c0.67,0.8,1.3,1.86,1.9,3.18c0.6,1.31,1.27,2.93,2,4.84L290.42,63.19z M274.56,41.87l-5.35,15.65
	h10.8l-5.33-15.65H274.56z"/>
<path fill="#FCCD0D" d="M299.84,70.56c-0.88,0-1.6-0.18-2.18-0.54c-0.58-0.36-1.03-0.83-1.37-1.41c-0.34-0.58-0.58-1.24-0.71-1.98
	c-0.13-0.74-0.19-1.5-0.19-2.27V41.48c0-1.09,0.1-2.03,0.32-2.82c0.21-0.79,0.56-1.44,1.05-1.95c0.49-0.5,1.12-0.88,1.91-1.12
	c0.79-0.24,1.76-0.36,2.91-0.36h6.04c6.63,0,11.64,1.46,15.02,4.39c3.37,2.93,5.06,7.44,5.06,13.52c0,2.97-0.46,5.55-1.39,7.74
	c-0.93,2.19-2.23,4-3.93,5.44s-3.74,2.5-6.12,3.2c-2.38,0.7-5.03,1.05-7.93,1.05H299.84z M304.29,65.11h3.33
	c1.85,0,3.44-0.21,4.77-0.63c1.33-0.42,2.43-1.14,3.3-2.17c0.87-1.02,1.51-2.29,1.92-3.81c0.41-1.52,0.62-3.38,0.62-5.59
	c0-4.1-0.85-7.16-2.55-9.17c-1.7-2.01-4.32-3.02-7.84-3.02h-3.55V65.11z"/>
<path fill="#FCCD0D" d="M347.02,65.82c-0.02,0.67-0.15,1.29-0.39,1.86c-0.24,0.58-0.57,1.08-0.99,1.51
	c-0.41,0.43-0.89,0.77-1.44,1.01c-0.54,0.24-1.13,0.37-1.76,0.37c-0.63,0-1.22-0.12-1.76-0.37c-0.54-0.24-1.02-0.58-1.42-1.01
	c-0.41-0.43-0.73-0.93-0.96-1.51c-0.24-0.58-0.35-1.2-0.35-1.86v-8.79l-8.93-14.92c-0.31-0.5-0.53-0.99-0.66-1.47
	c-0.13-0.48-0.2-0.95-0.2-1.4c0-0.6,0.11-1.15,0.33-1.64c0.22-0.49,0.51-0.92,0.88-1.28c0.37-0.36,0.79-0.63,1.27-0.83
	c0.48-0.19,0.98-0.29,1.5-0.29c0.78,0,1.56,0.24,2.34,0.73c0.78,0.49,1.44,1.29,1.97,2.41l6.4,12.73h0.1l6.67-12.82
	c0.55-1.07,1.2-1.84,1.95-2.31s1.5-0.71,2.26-0.71c0.45,0,0.89,0.08,1.3,0.24c0.41,0.16,0.77,0.39,1.08,0.68
	c0.31,0.29,0.55,0.65,0.73,1.07c0.18,0.42,0.27,0.88,0.27,1.39c0,0.42-0.07,0.86-0.19,1.33c-0.13,0.46-0.35,0.94-0.66,1.45
	l-9.32,15.5V65.82z"/>
<path fill="#F48220" d="M115.19,48.81c0.63,0,1.15,0.08,1.55,0.25c0.4,0.17,0.7,0.43,0.91,0.78c0.21,0.35,0.35,0.78,0.43,1.3
	c0.07,0.52,0.11,1.12,0.11,1.8v7.25c0,1.27-0.08,2.33-0.25,3.2c-0.17,0.87-0.49,1.59-0.96,2.18c-0.47,0.58-1.13,1.05-1.98,1.4
	c-0.85,0.35-1.96,0.63-3.32,0.84c-0.58,0.1-1.21,0.2-1.87,0.3c-0.67,0.1-1.34,0.2-2.03,0.28c-0.69,0.08-1.37,0.15-2.05,0.21
	c-0.67,0.06-1.3,0.08-1.89,0.08c-2.86,0-5.43-0.37-7.73-1.11c-2.3-0.74-4.25-1.87-5.88-3.38c-1.62-1.52-2.87-3.44-3.74-5.77
	c-0.87-2.33-1.3-5.07-1.3-8.24c0-2.55,0.37-4.94,1.11-7.19c0.74-2.25,1.87-4.21,3.38-5.89c1.52-1.68,3.44-3.01,5.78-3.98
	c2.34-0.97,5.1-1.46,8.3-1.46c1.04,0,2.07,0.05,3.09,0.16c1.02,0.1,2.01,0.25,2.96,0.42c0.95,0.18,1.86,0.4,2.73,0.66
	c0.87,0.26,1.67,0.54,2.4,0.85c0.73,0.31,1.27,0.73,1.63,1.25c0.36,0.53,0.54,1.1,0.54,1.72c0,1.01-0.31,1.77-0.93,2.29
	c-0.62,0.52-1.38,0.78-2.29,0.78c-0.46,0-1.06-0.09-1.8-0.28c-0.75-0.19-1.55-0.4-2.4-0.63c-0.85-0.24-1.72-0.45-2.6-0.63
	c-0.88-0.19-1.69-0.28-2.42-0.28c-1.78,0-3.31,0.29-4.59,0.86c-1.27,0.58-2.32,1.41-3.13,2.5c-0.81,1.09-1.4,2.41-1.78,3.97
	c-0.37,1.56-0.56,3.31-0.56,5.26c0,2.16,0.17,3.99,0.5,5.49c0.33,1.5,0.86,2.72,1.59,3.66c0.73,0.94,1.67,1.62,2.81,2.05
	c1.14,0.42,2.52,0.63,4.13,0.63c0.97,0,1.95-0.03,2.93-0.08c0.98-0.06,1.93-0.2,2.86-0.43v-7.96h-3.26c-0.5,0-0.97-0.05-1.39-0.13
	c-0.42-0.09-0.79-0.24-1.11-0.44c-0.32-0.2-0.56-0.47-0.74-0.8c-0.18-0.33-0.27-0.74-0.27-1.23c0-0.75,0.25-1.35,0.74-1.82
	c0.49-0.47,1.25-0.71,2.27-0.71c1.61,0,3.19,0,4.74,0.01C111.98,48.81,113.57,48.81,115.19,48.81z"/>
<path fill="#F48220" d="M128.3,67.84c-0.83,0-1.52-0.17-2.08-0.51c-0.56-0.34-1.01-0.78-1.35-1.33c-0.34-0.54-0.58-1.16-0.73-1.84
	c-0.15-0.68-0.22-1.36-0.22-2.04V38.93c0-0.92,0.06-1.78,0.17-2.57c0.11-0.79,0.37-1.46,0.75-2.03c0.39-0.57,0.96-1.01,1.7-1.34
	c0.75-0.32,1.75-0.49,3.02-0.49h15.62c0.47,0,0.91,0.08,1.33,0.25c0.41,0.17,0.77,0.4,1.08,0.68c0.31,0.28,0.55,0.62,0.73,1.01
	c0.18,0.39,0.27,0.8,0.27,1.24c0,0.44-0.09,0.85-0.27,1.23c-0.18,0.38-0.42,0.71-0.73,1c-0.31,0.28-0.67,0.51-1.08,0.67
	c-0.41,0.16-0.86,0.24-1.33,0.24h-12.53v7.89h11.44c0.47,0,0.91,0.08,1.33,0.24c0.41,0.16,0.77,0.39,1.08,0.68
	c0.31,0.29,0.55,0.63,0.73,1.01c0.18,0.38,0.27,0.79,0.27,1.23c0,0.44-0.09,0.85-0.27,1.23c-0.18,0.38-0.42,0.71-0.73,1
	c-0.31,0.28-0.67,0.51-1.08,0.67c-0.41,0.16-0.86,0.24-1.33,0.24h-11.44v8.52h13.14c0.44,0,0.85,0.08,1.23,0.24
	c0.38,0.16,0.72,0.39,1.01,0.68c0.29,0.29,0.52,0.63,0.68,1.01c0.16,0.38,0.24,0.79,0.24,1.23s-0.08,0.85-0.24,1.23
	c-0.16,0.38-0.39,0.71-0.68,1c-0.29,0.28-0.63,0.51-1.01,0.67c-0.38,0.16-0.79,0.24-1.23,0.24H128.3z"/>
<path fill="#F48220" d="M152.93,38.93c-0.47,0-0.92-0.08-1.34-0.25c-0.42-0.17-0.79-0.4-1.11-0.69c-0.32-0.29-0.57-0.63-0.75-1.02
	c-0.19-0.39-0.28-0.8-0.28-1.24c0-0.44,0.09-0.86,0.28-1.25c0.19-0.4,0.44-0.74,0.75-1.03c0.32-0.29,0.69-0.52,1.11-0.69
	c0.42-0.17,0.87-0.26,1.34-0.26h22.22c0.47,0,0.92,0.08,1.34,0.26c0.42,0.17,0.79,0.4,1.11,0.69s0.57,0.64,0.75,1.03
	c0.19,0.4,0.28,0.82,0.28,1.25c0,0.44-0.09,0.85-0.28,1.24c-0.19,0.39-0.44,0.73-0.75,1.02s-0.69,0.52-1.11,0.69
	c-0.42,0.17-0.87,0.25-1.34,0.25h-6.52V63.1c0,0.67-0.12,1.29-0.35,1.86c-0.24,0.58-0.56,1.08-0.97,1.51
	c-0.41,0.43-0.89,0.77-1.44,1.01c-0.54,0.24-1.13,0.37-1.76,0.37c-0.63,0-1.22-0.12-1.76-0.37c-0.54-0.24-1.02-0.58-1.42-1.01
	c-0.41-0.43-0.73-0.93-0.96-1.51c-0.24-0.58-0.35-1.2-0.35-1.86V38.93H152.93z"/>
<path fill="#F48220" d="M205.24,63.1c0,0.67-0.12,1.29-0.35,1.86c-0.24,0.58-0.56,1.08-0.97,1.51c-0.41,0.43-0.89,0.77-1.44,1.01
	c-0.54,0.24-1.13,0.37-1.76,0.37c-0.63,0-1.22-0.12-1.76-0.37c-0.54-0.24-1.02-0.58-1.42-1.01c-0.41-0.43-0.73-0.93-0.96-1.51
	c-0.24-0.58-0.35-1.2-0.35-1.86V36.96c0-0.75,0.15-1.4,0.45-1.96c0.3-0.56,0.7-1.03,1.21-1.4c0.5-0.37,1.09-0.65,1.76-0.84
	c0.67-0.19,1.38-0.28,2.13-0.28h9.76c1.8,0,3.53,0.12,5.18,0.35c1.66,0.24,3.11,0.68,4.37,1.33c1.26,0.65,2.26,1.55,3.02,2.7
	c0.75,1.15,1.13,2.65,1.13,4.5c0,1.01-0.14,1.96-0.41,2.86c-0.28,0.9-0.72,1.71-1.34,2.43c-0.62,0.72-1.42,1.34-2.42,1.85
	c-1,0.51-2.22,0.89-3.66,1.13v0.1c1.04,0.13,1.93,0.32,2.66,0.57c0.74,0.25,1.37,0.58,1.89,1c0.52,0.41,0.94,0.91,1.27,1.5
	c0.33,0.58,0.59,1.27,0.8,2.07c0.21,0.79,0.38,1.7,0.51,2.71c0.13,1.01,0.25,2.16,0.37,3.44c0.03,0.36,0.06,0.7,0.07,1.03
	c0.02,0.33,0.02,0.66,0.02,0.99c0,0.7-0.07,1.34-0.2,1.92c-0.13,0.58-0.36,1.09-0.68,1.51c-0.32,0.42-0.77,0.75-1.34,0.99
	c-0.57,0.24-1.3,0.35-2.19,0.35c-0.81,0-1.49-0.19-2.03-0.56c-0.54-0.37-0.99-0.88-1.35-1.53c-0.36-0.65-0.63-1.4-0.82-2.25
	c-0.19-0.85-0.34-1.76-0.45-2.74c-0.16-1.41-0.33-2.59-0.5-3.54c-0.17-0.95-0.44-1.72-0.82-2.3c-0.37-0.58-0.9-1-1.59-1.24
	c-0.69-0.24-1.63-0.37-2.84-0.37h-4.94V63.1z M208.98,47.65c0.88,0,1.75-0.05,2.63-0.16c0.88-0.11,1.67-0.32,2.37-0.66
	c0.71-0.33,1.28-0.82,1.72-1.46c0.44-0.64,0.66-1.5,0.66-2.57c0-1.23-0.21-2.16-0.63-2.77c-0.42-0.62-0.98-1.08-1.68-1.39
	s-1.5-0.5-2.42-0.57c-0.92-0.07-1.87-0.11-2.86-0.11h-3.67v9.69H208.98z"/>
<path fill="#F48220" d="M234.95,67.84c-0.83,0-1.52-0.17-2.08-0.51c-0.56-0.34-1.01-0.78-1.35-1.33c-0.34-0.54-0.58-1.16-0.73-1.84
	c-0.15-0.68-0.22-1.36-0.22-2.04V38.93c0-0.92,0.06-1.78,0.17-2.57c0.11-0.79,0.37-1.46,0.75-2.03c0.39-0.57,0.96-1.01,1.7-1.34
	c0.75-0.32,1.75-0.49,3.02-0.49h15.62c0.47,0,0.91,0.08,1.33,0.25c0.41,0.17,0.77,0.4,1.08,0.68c0.31,0.28,0.55,0.62,0.73,1.01
	c0.18,0.39,0.27,0.8,0.27,1.24c0,0.44-0.09,0.85-0.27,1.23c-0.18,0.38-0.42,0.71-0.73,1c-0.31,0.28-0.67,0.51-1.08,0.67
	c-0.41,0.16-0.86,0.24-1.33,0.24H239.3v7.89h11.44c0.47,0,0.91,0.08,1.33,0.24c0.41,0.16,0.77,0.39,1.08,0.68s0.55,0.63,0.73,1.01
	c0.18,0.38,0.27,0.79,0.27,1.23c0,0.44-0.09,0.85-0.27,1.23c-0.18,0.38-0.42,0.71-0.73,1s-0.67,0.51-1.08,0.67
	c-0.41,0.16-0.86,0.24-1.33,0.24H239.3v8.52h13.14c0.44,0,0.85,0.08,1.23,0.24c0.38,0.16,0.72,0.39,1.01,0.68
	c0.29,0.29,0.52,0.63,0.68,1.01c0.16,0.38,0.24,0.79,0.24,1.23s-0.08,0.85-0.24,1.23c-0.16,0.38-0.39,0.71-0.68,1
	c-0.29,0.28-0.63,0.51-1.01,0.67c-0.38,0.16-0.79,0.24-1.23,0.24H234.95z"/>
<path fill="#F48220" d="M290.42,60.47c0.11,0.29,0.24,0.6,0.37,0.91c0.13,0.32,0.25,0.64,0.37,0.96c0.11,0.33,0.21,0.64,0.28,0.94
	c0.07,0.3,0.11,0.57,0.11,0.82c0,0.6-0.11,1.13-0.33,1.59c-0.22,0.46-0.52,0.85-0.89,1.17c-0.37,0.32-0.81,0.56-1.3,0.73
	c-0.5,0.17-1.02,0.25-1.57,0.25c-0.63,0-1.18-0.09-1.63-0.27c-0.45-0.18-0.86-0.46-1.22-0.85c-0.36-0.39-0.69-0.9-0.99-1.52
	c-0.3-0.62-0.62-1.39-0.96-2.3l-1.17-3.09h-13.77l-1,3.09c-0.29,0.92-0.59,1.7-0.89,2.34c-0.3,0.63-0.63,1.14-1,1.52
	c-0.37,0.38-0.78,0.66-1.25,0.83c-0.47,0.17-1.02,0.25-1.65,0.25c-0.55,0-1.07-0.08-1.57-0.25c-0.5-0.17-0.93-0.41-1.3-0.73
	c-0.37-0.32-0.67-0.71-0.89-1.17c-0.22-0.46-0.33-0.99-0.33-1.59c0-0.24,0.04-0.52,0.11-0.82c0.07-0.3,0.17-0.61,0.28-0.94
	c0.11-0.32,0.24-0.64,0.37-0.96c0.13-0.32,0.25-0.62,0.37-0.91l6.55-17.69c0.62-1.65,1.2-3.12,1.76-4.39
	c0.56-1.27,1.18-2.35,1.85-3.22s1.45-1.54,2.32-1.98c0.88-0.44,1.94-0.67,3.19-0.67c1.17,0,2.17,0.17,2.99,0.52
	c0.83,0.35,1.57,0.92,2.24,1.73c0.67,0.8,1.3,1.86,1.9,3.18c0.6,1.31,1.27,2.93,2,4.84L290.42,60.47z M274.56,39.15l-5.35,15.65
	h10.8l-5.33-15.65H274.56z"/>
<path fill="#F48220" d="M299.84,67.84c-0.88,0-1.6-0.18-2.18-0.54c-0.58-0.36-1.03-0.83-1.37-1.41c-0.34-0.58-0.58-1.24-0.71-1.98
	c-0.13-0.74-0.19-1.5-0.19-2.27V38.76c0-1.09,0.1-2.03,0.32-2.82c0.21-0.79,0.56-1.44,1.05-1.95c0.49-0.5,1.12-0.88,1.91-1.12
	c0.79-0.24,1.76-0.36,2.91-0.36h6.04c6.63,0,11.64,1.46,15.02,4.39c3.37,2.93,5.06,7.44,5.06,13.52c0,2.97-0.46,5.55-1.39,7.74
	c-0.93,2.19-2.23,4-3.93,5.44s-3.74,2.5-6.12,3.2c-2.38,0.7-5.03,1.05-7.93,1.05H299.84z M304.29,62.39h3.33
	c1.85,0,3.44-0.21,4.77-0.63c1.33-0.42,2.43-1.14,3.3-2.17c0.87-1.02,1.51-2.29,1.92-3.81c0.41-1.52,0.62-3.38,0.62-5.59
	c0-4.1-0.85-7.16-2.55-9.17c-1.7-2.01-4.32-3.02-7.84-3.02h-3.55V62.39z"/>
<path fill="#F48220" d="M347.02,63.1c-0.02,0.67-0.15,1.29-0.39,1.86c-0.24,0.58-0.57,1.08-0.99,1.51
	c-0.41,0.43-0.89,0.77-1.44,1.01c-0.54,0.24-1.13,0.37-1.76,0.37c-0.63,0-1.22-0.12-1.76-0.37c-0.54-0.24-1.02-0.58-1.42-1.01
	c-0.41-0.43-0.73-0.93-0.96-1.51c-0.24-0.58-0.35-1.2-0.35-1.86v-8.79l-8.93-14.92c-0.31-0.5-0.53-0.99-0.66-1.47
	c-0.13-0.48-0.2-0.95-0.2-1.4c0-0.6,0.11-1.15,0.33-1.64c0.22-0.49,0.51-0.92,0.88-1.28c0.37-0.36,0.79-0.63,1.27-0.83
	c0.48-0.19,0.98-0.29,1.5-0.29c0.78,0,1.56,0.24,2.34,0.73c0.78,0.49,1.44,1.29,1.97,2.41l6.4,12.73h0.1l6.67-12.82
	c0.55-1.07,1.2-1.84,1.95-2.31c0.75-0.47,1.5-0.71,2.26-0.71c0.45,0,0.89,0.08,1.3,0.24c0.41,0.16,0.77,0.39,1.08,0.68
	s0.55,0.65,0.73,1.07c0.18,0.42,0.27,0.88,0.27,1.39c0,0.42-0.07,0.86-0.19,1.33c-0.13,0.46-0.35,0.94-0.66,1.45l-9.32,15.5V63.1z"
	/>
</svg>
