<?xml version="1.0" encoding="utf-8"?>
<!-- Generator: Adobe Illustrator 17.0.0, SVG Export Plug-In . SVG Version: 6.00 Build 0)  -->
<!DOCTYPE svg PUBLIC "-//W3C//DTD SVG 1.1//EN" "http://www.w3.org/Graphics/SVG/1.1/DTD/svg11.dtd">
<svg version="1.1" id="Layer_1" xmlns="http://www.w3.org/2000/svg" xmlns:xlink="http://www.w3.org/1999/xlink" x="0px" y="0px"
	 width="288.017px" height="260.387px" viewBox="0 0 288.017 260.387" enable-background="new 0 0 288.017 260.387"
	 xml:space="preserve">
<circle fill="#F48220" cx="160.413" cy="132.783" r="127.576"/>
<circle fill="#FEE000" cx="159.254" cy="127.604" r="127.576"/>
<polygon fill="#FEE000" points="49.505,173.441 0,163.256 40.437,132.936 "/>
<path fill="#F48220" d="M115.879,118.333c1.142,1.25,2.553,2.214,4.229,2.892c1.677,0.678,3.601,1.017,5.774,1.017
	c2.223,0,4.176-0.352,5.859-1.055c1.683-0.703,3.089-1.686,4.22-2.948c1.13-1.262,1.978-2.772,2.543-4.53
	c0.565-1.759,0.847-3.686,0.847-5.783c0-2.135-0.289-4.082-0.866-5.841c-0.577-1.758-1.431-3.268-2.562-4.53
	c-1.13-1.262-2.537-2.239-4.22-2.929c-1.684-0.691-3.624-1.036-5.822-1.036c-2.26,0-4.232,0.358-5.915,1.074
	c-1.684,0.716-3.084,1.708-4.201,2.977c-1.118,1.269-1.956,2.782-2.515,4.54c-0.559,1.758-0.838,3.673-0.838,5.746
	c0,2.173,0.292,4.138,0.876,5.896C113.872,115.58,114.736,117.084,115.879,118.333z M120.108,103.903
	c0.245-1.175,0.619-2.163,1.121-2.967c0.502-0.803,1.14-1.416,1.912-1.837c0.772-0.421,1.686-0.631,2.741-0.631
	c1.067,0,1.988,0.21,2.76,0.631c0.772,0.421,1.41,1.034,1.912,1.837c0.502,0.804,0.876,1.793,1.121,2.967
	c0.245,1.174,0.367,2.514,0.367,4.022c0,3.127-0.509,5.482-1.526,7.064c-1.017,1.583-2.562,2.374-4.634,2.374
	c-2.11,0-3.661-0.795-4.653-2.383c-0.992-1.589-1.489-3.94-1.489-7.055C119.74,106.418,119.863,105.077,120.108,103.903z
	 M154.492,121.141c0.703-0.295,1.306-0.751,1.808-1.366c0.502-0.615,0.945-1.385,1.329-2.308c0.383-0.923,0.782-2.019,1.196-3.287
	l4.898-15.127c0.201-0.641,0.302-1.244,0.302-1.809c0-0.49-0.076-0.923-0.226-1.3c-0.15-0.377-0.355-0.691-0.612-0.942
	c-0.257-0.251-0.552-0.442-0.885-0.575c-0.333-0.132-0.681-0.198-1.046-0.198c-0.352,0-0.706,0.063-1.065,0.188
	c-0.358,0.126-0.697,0.314-1.017,0.565c-0.321,0.252-0.612,0.569-0.876,0.951c-0.263,0.383-0.471,0.839-0.622,1.366l-5.708,19.178
	h-0.094l-5.689-19.121c-0.163-0.553-0.371-1.027-0.622-1.423c-0.252-0.396-0.531-0.718-0.838-0.97
	c-0.308-0.252-0.635-0.437-0.98-0.556c-0.346-0.119-0.688-0.179-1.027-0.179c-0.402,0-0.785,0.075-1.149,0.226
	s-0.691,0.367-0.98,0.65c-0.289,0.283-0.518,0.619-0.687,1.008c-0.17,0.39-0.255,0.829-0.255,1.319c0,0.214,0.016,0.433,0.047,0.659
	c0.031,0.226,0.091,0.465,0.179,0.716l5.256,15.919c0.439,1.331,0.86,2.437,1.262,3.316c0.402,0.879,0.851,1.582,1.347,2.109
	c0.496,0.528,1.071,0.898,1.724,1.112c0.652,0.213,1.456,0.32,2.411,0.32C152.915,121.583,153.788,121.436,154.492,121.141z
	 M167.638,120.161c0.264,0.421,0.612,0.763,1.046,1.026c0.433,0.264,0.97,0.396,1.611,0.396h13.545c0.339,0,0.656-0.063,0.951-0.188
	c0.294-0.126,0.556-0.298,0.782-0.518s0.402-0.477,0.527-0.772c0.126-0.295,0.188-0.612,0.188-0.951
	c0-0.339-0.063-0.656-0.188-0.951c-0.126-0.295-0.302-0.556-0.527-0.782c-0.226-0.226-0.487-0.402-0.782-0.528
	c-0.296-0.125-0.612-0.188-0.951-0.188h-10.173v-6.593h8.854c0.364,0,0.706-0.063,1.026-0.188c0.32-0.126,0.6-0.298,0.838-0.518
	c0.238-0.22,0.427-0.477,0.566-0.772c0.138-0.295,0.207-0.612,0.207-0.951s-0.069-0.656-0.207-0.951
	c-0.138-0.295-0.327-0.556-0.566-0.782c-0.238-0.226-0.518-0.402-0.838-0.527c-0.32-0.125-0.662-0.188-1.026-0.188h-8.854v-6.104
	h9.701c0.364,0,0.706-0.063,1.027-0.188c0.32-0.125,0.599-0.298,0.838-0.518c0.238-0.219,0.427-0.477,0.565-0.772
	c0.138-0.295,0.207-0.612,0.207-0.951s-0.069-0.659-0.207-0.961c-0.138-0.302-0.327-0.562-0.565-0.782
	c-0.239-0.219-0.518-0.395-0.838-0.527c-0.321-0.132-0.663-0.198-1.027-0.198h-12.094c-0.98,0-1.759,0.126-2.336,0.377
	c-0.578,0.252-1.017,0.596-1.319,1.036c-0.302,0.44-0.496,0.964-0.584,1.573c-0.088,0.609-0.132,1.271-0.132,1.988v17.953
	c0,0.527,0.057,1.055,0.17,1.582C167.187,119.266,167.375,119.74,167.638,120.161z M174.101,135.923
	c-3.174-2.754-7.882-4.131-14.124-4.131H154.3c-1.083,0-1.995,0.114-2.735,0.343c-0.74,0.229-1.339,0.58-1.797,1.053
	c-0.458,0.474-0.786,1.084-0.984,1.831c-0.198,0.748-0.298,1.634-0.298,2.655v21.517c0,0.732,0.061,1.446,0.183,2.14
	c0.122,0.694,0.343,1.316,0.663,1.866c0.321,0.55,0.752,0.992,1.294,1.328c0.542,0.335,1.225,0.503,2.049,0.503h7.965
	c2.732,0,5.219-0.328,7.462-0.984c2.243-0.656,4.162-1.66,5.757-3.01c1.594-1.35,2.827-3.056,3.697-5.116
	c0.87-2.06,1.305-4.486,1.305-7.279C178.862,142.916,177.274,138.678,174.101,135.923z M169.397,153.685
	c-0.39,1.427-0.992,2.621-1.809,3.582c-0.816,0.962-1.85,1.641-3.102,2.038S161.74,159.9,160,159.9h-3.136v-22.936h3.342
	c3.311,0,5.768,0.946,7.37,2.838c1.602,1.893,2.403,4.77,2.403,8.63C169.98,150.508,169.786,152.259,169.397,153.685z
	 M212.276,148.101c-0.198-0.328-0.484-0.573-0.858-0.733c-0.374-0.16-0.858-0.24-1.454-0.24c-1.526,0-3.021-0.004-4.486-0.012
	c-1.465-0.007-2.953-0.011-4.463-0.011c-0.962,0-1.675,0.222-2.141,0.664s-0.698,1.015-0.698,1.717c0,0.458,0.083,0.843,0.251,1.156
	c0.168,0.313,0.401,0.565,0.698,0.755c0.298,0.191,0.645,0.328,1.042,0.412s0.832,0.126,1.305,0.126h3.067v7.485
	c-0.87,0.214-1.766,0.347-2.69,0.401c-0.923,0.054-1.842,0.08-2.758,0.08c-1.51,0-2.804-0.198-3.88-0.595
	c-1.075-0.397-1.957-1.038-2.643-1.923c-0.687-0.885-1.187-2.033-1.5-3.445c-0.313-1.411-0.469-3.132-0.469-5.161
	c0-1.831,0.175-3.479,0.526-4.945c0.351-1.465,0.908-2.708,1.671-3.731c0.762-1.022,1.743-1.804,2.941-2.346
	c1.198-0.542,2.636-0.813,4.315-0.813c0.686,0,1.446,0.088,2.278,0.263c0.831,0.175,1.648,0.374,2.45,0.595
	c0.801,0.221,1.552,0.42,2.254,0.595c0.702,0.175,1.266,0.263,1.694,0.263c0.854,0,1.572-0.244,2.152-0.733
	c0.58-0.488,0.87-1.206,0.87-2.152c0-0.579-0.168-1.118-0.503-1.614c-0.336-0.495-0.847-0.889-1.534-1.178
	c-0.687-0.29-1.438-0.557-2.255-0.802c-0.816-0.244-1.67-0.45-2.563-0.618c-0.893-0.168-1.82-0.302-2.782-0.401
	c-0.962-0.099-1.93-0.149-2.907-0.149c-3.006,0-5.608,0.458-7.805,1.374c-2.198,0.915-4.01,2.163-5.436,3.742
	c-1.427,1.579-2.488,3.426-3.182,5.539c-0.694,2.114-1.041,4.369-1.041,6.765c0,2.975,0.408,5.558,1.224,7.748
	c0.817,2.19,1.988,3.998,3.514,5.425c1.526,1.427,3.369,2.488,5.529,3.182c2.159,0.694,4.581,1.041,7.267,1.041
	c0.55,0,1.141-0.026,1.774-0.08c0.633-0.054,1.274-0.118,1.922-0.194c0.649-0.077,1.286-0.164,1.911-0.263
	c0.626-0.099,1.214-0.194,1.763-0.286c1.282-0.198,2.323-0.461,3.124-0.79c0.802-0.328,1.423-0.766,1.866-1.316
	c0.442-0.55,0.744-1.232,0.904-2.049c0.161-0.816,0.241-1.82,0.241-3.01v-6.821c0-0.641-0.034-1.206-0.103-1.694
	C212.608,148.837,212.474,148.429,212.276,148.101z M95.413,119.934c0.471-0.257,0.895-0.602,1.272-1.036
	c0.377-0.433,0.712-0.939,1.007-1.517c0.295-0.577,0.575-1.186,0.839-1.827l0.245-0.622c0.176-0.427,0.405-0.986,0.687-1.677
	c0.282-0.691,0.6-1.475,0.951-2.355c0.352-0.879,0.716-1.783,1.093-2.713c0.879-2.16,1.877-4.621,2.995-7.385v18.047
	c0,0.377,0.072,0.735,0.217,1.074c0.144,0.339,0.339,0.631,0.584,0.876c0.245,0.245,0.537,0.439,0.876,0.584
	c0.339,0.144,0.697,0.217,1.074,0.217c0.377,0,0.734-0.072,1.073-0.217c0.34-0.145,0.634-0.339,0.886-0.584
	c0.252-0.245,0.449-0.537,0.594-0.876c0.144-0.339,0.217-0.697,0.217-1.074v-18.066c0-1.18-0.094-2.188-0.283-3.023
	c-0.188-0.836-0.474-1.517-0.857-2.044c-0.384-0.527-0.873-0.911-1.47-1.149c-0.597-0.238-1.297-0.358-2.101-0.358
	c-0.741,0-1.4,0.163-1.978,0.49c-0.578,0.327-1.111,0.791-1.601,1.394c-0.49,0.602-0.951,1.337-1.385,2.204
	c-0.433,0.866-0.876,1.84-1.328,2.92l-5.087,12.151h-0.151l-5.03-12.151c-0.527-1.268-1.014-2.348-1.46-3.24
	s-0.904-1.617-1.375-2.176c-0.471-0.559-0.98-0.964-1.525-1.215c-0.546-0.251-1.184-0.377-1.913-0.377
	c-1.017,0-1.836,0.173-2.458,0.518c-0.622,0.346-1.105,0.832-1.45,1.46c-0.346,0.628-0.575,1.391-0.687,2.289
	c-0.113,0.898-0.17,1.894-0.17,2.986v17.388c0,0.377,0.072,0.735,0.217,1.074c0.144,0.339,0.339,0.631,0.584,0.876
	c0.245,0.245,0.537,0.439,0.876,0.584c0.339,0.144,0.697,0.217,1.074,0.217c0.377,0,0.735-0.072,1.074-0.217
	c0.339-0.145,0.634-0.339,0.885-0.584c0.252-0.245,0.449-0.537,0.594-0.876c0.144-0.339,0.217-0.697,0.217-1.074v-17.972
	l5.934,14.694c0.314,0.791,0.628,1.485,0.942,2.082c0.313,0.596,0.65,1.093,1.007,1.489c0.358,0.395,0.751,0.691,1.178,0.885
	c0.427,0.195,0.923,0.292,1.488,0.292C94.399,120.321,94.942,120.193,95.413,119.934z M240.861,159.969
	c-0.274-0.275-0.592-0.489-0.95-0.642c-0.359-0.152-0.744-0.229-1.156-0.229h-12.361v-8.011h10.758c0.442,0,0.858-0.077,1.247-0.229
	c0.389-0.153,0.729-0.362,1.018-0.63c0.29-0.267,0.519-0.58,0.687-0.938c0.167-0.358,0.251-0.744,0.251-1.156
	s-0.084-0.798-0.251-1.156c-0.168-0.358-0.398-0.675-0.687-0.95c-0.29-0.274-0.63-0.488-1.018-0.641
	c-0.389-0.152-0.805-0.229-1.247-0.229h-10.758v-7.417h11.788c0.442,0,0.858-0.076,1.248-0.229c0.389-0.152,0.728-0.362,1.018-0.63
	c0.29-0.266,0.518-0.579,0.686-0.938c0.168-0.358,0.252-0.744,0.252-1.156c0-0.412-0.084-0.801-0.252-1.167
	c-0.168-0.366-0.397-0.683-0.686-0.95c-0.29-0.266-0.63-0.48-1.018-0.641c-0.39-0.16-0.806-0.24-1.248-0.24h-14.695
	c-1.19,0-2.137,0.153-2.838,0.458c-0.702,0.306-1.236,0.725-1.602,1.259c-0.366,0.534-0.603,1.171-0.71,1.911
	c-0.107,0.74-0.161,1.545-0.161,2.415v21.814c0,0.641,0.069,1.282,0.206,1.922c0.138,0.642,0.366,1.218,0.686,1.729
	c0.321,0.511,0.744,0.927,1.27,1.247c0.526,0.321,1.179,0.481,1.958,0.481h16.458c0.412,0,0.797-0.076,1.156-0.229
	c0.358-0.153,0.675-0.362,0.95-0.63c0.274-0.267,0.488-0.58,0.641-0.938c0.153-0.358,0.229-0.744,0.229-1.156
	s-0.076-0.798-0.229-1.156C241.349,160.56,241.135,160.244,240.861,159.969z M242.264,102.085c-0.577-1.758-1.431-3.268-2.562-4.53
	c-1.13-1.262-2.537-2.239-4.22-2.929c-1.684-0.691-3.624-1.036-5.822-1.036c-2.26,0-4.232,0.358-5.915,1.074
	c-1.684,0.716-3.084,1.708-4.201,2.977c-1.118,1.269-1.956,2.782-2.515,4.54c-0.559,1.758-0.838,3.673-0.838,5.746
	c0,2.173,0.292,4.138,0.876,5.896c0.584,1.759,1.448,3.262,2.591,4.512c1.142,1.25,2.553,2.214,4.229,2.892
	c1.677,0.678,3.601,1.017,5.774,1.017c2.223,0,4.176-0.352,5.859-1.055c1.683-0.703,3.089-1.686,4.22-2.948
	c1.13-1.262,1.978-2.772,2.543-4.53c0.565-1.759,0.847-3.686,0.847-5.783C243.13,105.79,242.841,103.843,242.264,102.085z
	 M234.295,114.989c-1.017,1.583-2.562,2.374-4.634,2.374c-2.11,0-3.661-0.795-4.653-2.383c-0.992-1.589-1.489-3.94-1.489-7.055
	c0-1.508,0.122-2.848,0.367-4.022c0.245-1.175,0.619-2.163,1.121-2.967c0.502-0.803,1.14-1.416,1.912-1.837
	c0.772-0.421,1.686-0.631,2.741-0.631c1.067,0,1.988,0.21,2.76,0.631c0.772,0.421,1.41,1.034,1.912,1.837
	c0.502,0.804,0.876,1.793,1.121,2.967c0.245,1.174,0.367,2.514,0.367,4.022C235.821,111.052,235.312,113.407,234.295,114.989z
	 M209.499,119.351c0.182-0.446,0.273-0.926,0.273-1.441V99.203h5.049c0.364,0,0.71-0.066,1.036-0.198
	c0.327-0.132,0.612-0.311,0.857-0.537c0.245-0.226,0.44-0.49,0.584-0.791c0.144-0.302,0.217-0.622,0.217-0.961
	c0-0.339-0.072-0.662-0.217-0.97c-0.144-0.307-0.339-0.575-0.584-0.801c-0.245-0.226-0.531-0.405-0.857-0.537
	c-0.327-0.132-0.672-0.198-1.036-0.198h-17.199c-0.365,0-0.71,0.066-1.036,0.198c-0.327,0.132-0.612,0.311-0.857,0.537
	c-0.245,0.226-0.44,0.493-0.584,0.801c-0.144,0.308-0.217,0.631-0.217,0.97c0,0.339,0.072,0.659,0.217,0.961
	c0.144,0.302,0.339,0.565,0.584,0.791c0.245,0.226,0.531,0.405,0.857,0.537c0.327,0.132,0.672,0.198,1.036,0.198h5.162v18.706
	c0,0.516,0.091,0.995,0.273,1.441c0.182,0.446,0.43,0.835,0.744,1.168c0.313,0.333,0.681,0.594,1.102,0.782
	c0.421,0.188,0.876,0.282,1.366,0.282c0.49,0,0.945-0.094,1.366-0.282c0.42-0.188,0.791-0.449,1.111-0.782
	C209.066,120.186,209.318,119.797,209.499,119.351z M140.136,135.831c-1.374-1.534-3.082-2.72-5.127-3.559
	c-2.046-0.839-4.403-1.259-7.073-1.259c-2.746,0-5.142,0.435-7.187,1.305c-2.046,0.87-3.747,2.075-5.105,3.617
	c-1.358,1.542-2.377,3.38-3.056,5.517c-0.679,2.136-1.018,4.463-1.018,6.981c0,2.64,0.354,5.028,1.064,7.164
	c0.71,2.137,1.759,3.964,3.148,5.482c1.388,1.519,3.102,2.69,5.138,3.514c2.038,0.824,4.376,1.236,7.016,1.236
	c2.701,0,5.073-0.427,7.119-1.282c2.045-0.854,3.754-2.049,5.127-3.582c1.374-1.534,2.404-3.368,3.09-5.505
	c0.686-2.137,1.03-4.479,1.03-7.027c0-2.594-0.351-4.96-1.053-7.097C142.547,139.2,141.51,137.365,140.136,135.831z
	 M133.567,157.016c-1.236,1.923-3.113,2.885-5.631,2.885c-2.564,0-4.449-0.966-5.653-2.896c-1.206-1.93-1.809-4.787-1.809-8.572
	c0-1.832,0.149-3.461,0.446-4.887c0.298-1.427,0.752-2.629,1.362-3.606c0.61-0.976,1.385-1.72,2.323-2.232
	c0.938-0.511,2.049-0.766,3.33-0.766c1.297,0,2.415,0.255,3.354,0.766c0.938,0.512,1.713,1.256,2.323,2.232
	c0.61,0.977,1.065,2.178,1.362,3.606c0.298,1.426,0.446,3.055,0.446,4.887C135.421,152.232,134.803,155.093,133.567,157.016z
	 M104.547,135.923c-3.174-2.754-7.882-4.131-14.124-4.131h-5.677c-1.083,0-1.995,0.114-2.735,0.343
	c-0.74,0.229-1.339,0.58-1.797,1.053c-0.458,0.474-0.786,1.084-0.984,1.831c-0.198,0.748-0.298,1.634-0.298,2.655v21.517
	c0,0.732,0.061,1.446,0.183,2.14c0.122,0.694,0.343,1.316,0.663,1.866c0.321,0.55,0.752,0.992,1.294,1.328
	c0.542,0.335,1.225,0.503,2.049,0.503h7.965c2.732,0,5.219-0.328,7.462-0.984c2.243-0.656,4.162-1.66,5.757-3.01
	c1.594-1.35,2.827-3.056,3.697-5.116c0.87-2.06,1.305-4.486,1.305-7.279C109.308,142.916,107.721,138.678,104.547,135.923z
	 M99.843,153.685c-0.39,1.427-0.992,2.621-1.809,3.582c-0.816,0.962-1.85,1.641-3.102,2.038s-2.746,0.595-4.486,0.595h-3.136
	v-22.936h3.342c3.311,0,5.768,0.946,7.37,2.838c1.602,1.893,2.403,4.77,2.403,8.63C100.427,150.508,100.232,152.259,99.843,153.685z
	"/>
<path fill="#231F20" d="M103.154,98.107c-1.118,2.763-2.116,5.224-2.995,7.385c-0.377,0.93-0.741,1.834-1.093,2.713
	c-0.352,0.88-0.669,1.664-0.951,2.355c-0.282,0.691-0.512,1.25-0.687,1.677l-0.245,0.622c-0.264,0.641-0.544,1.25-0.839,1.827
	c-0.295,0.578-0.631,1.084-1.007,1.517c-0.377,0.433-0.801,0.779-1.272,1.036c-0.471,0.258-1.014,0.386-1.63,0.386
	c-0.565,0-1.061-0.097-1.488-0.292c-0.427-0.194-0.82-0.49-1.178-0.885c-0.358-0.396-0.694-0.892-1.007-1.489
	c-0.314-0.596-0.628-1.29-0.942-2.082l-5.934-14.694v17.972c0,0.377-0.072,0.735-0.217,1.074c-0.145,0.339-0.342,0.631-0.594,0.876
	c-0.251,0.245-0.546,0.439-0.885,0.584c-0.339,0.144-0.697,0.217-1.074,0.217c-0.377,0-0.735-0.072-1.074-0.217
	c-0.339-0.145-0.631-0.339-0.876-0.584c-0.245-0.245-0.44-0.537-0.584-0.876c-0.144-0.339-0.217-0.697-0.217-1.074V98.767
	c0-1.092,0.057-2.088,0.17-2.986c0.113-0.898,0.342-1.66,0.687-2.289s0.829-1.115,1.45-1.46c0.622-0.345,1.441-0.518,2.458-0.518
	c0.728,0,1.366,0.126,1.913,0.377c0.546,0.252,1.055,0.656,1.525,1.215c0.471,0.559,0.93,1.285,1.375,2.176s0.932,1.972,1.46,3.24
	l5.03,12.151h0.151l5.087-12.151c0.452-1.08,0.895-2.054,1.328-2.92c0.433-0.866,0.895-1.601,1.385-2.204
	c0.49-0.603,1.023-1.068,1.601-1.394c0.577-0.327,1.237-0.49,1.978-0.49c0.804,0,1.504,0.12,2.101,0.358
	c0.597,0.238,1.086,0.622,1.47,1.149c0.383,0.527,0.668,1.209,0.857,2.044c0.189,0.836,0.283,1.843,0.283,3.023v18.066
	c0,0.377-0.072,0.735-0.217,1.074c-0.145,0.339-0.342,0.631-0.594,0.876c-0.252,0.245-0.546,0.439-0.886,0.584
	c-0.339,0.144-0.697,0.217-1.073,0.217c-0.377,0-0.735-0.072-1.074-0.217c-0.339-0.145-0.631-0.339-0.876-0.584
	c-0.245-0.245-0.44-0.537-0.584-0.876c-0.144-0.339-0.217-0.697-0.217-1.074V98.107z"/>
<path fill="#231F20" d="M111.064,105.229c0-2.073,0.279-3.988,0.838-5.746c0.559-1.759,1.397-3.272,2.515-4.54
	c1.117-1.269,2.518-2.261,4.201-2.977c1.683-0.716,3.655-1.074,5.915-1.074c2.198,0,4.138,0.346,5.822,1.036
	c1.683,0.691,3.089,1.667,4.22,2.929c1.13,1.262,1.984,2.772,2.562,4.53c0.577,1.759,0.866,3.705,0.866,5.841
	c0,2.097-0.282,4.025-0.847,5.783c-0.565,1.759-1.413,3.268-2.543,4.53c-1.13,1.262-2.537,2.245-4.22,2.948
	c-1.684,0.703-3.636,1.055-5.859,1.055c-2.173,0-4.097-0.339-5.774-1.017c-1.676-0.678-3.087-1.641-4.229-2.892
	c-1.143-1.25-2.007-2.753-2.591-4.512C111.356,109.367,111.064,107.401,111.064,105.229z M118.392,105.229
	c0,3.115,0.496,5.466,1.489,7.055c0.992,1.589,2.543,2.383,4.653,2.383c2.073,0,3.617-0.791,4.634-2.374
	c1.017-1.582,1.526-3.937,1.526-7.064c0-1.508-0.122-2.848-0.367-4.022c-0.245-1.175-0.619-2.163-1.121-2.967
	c-0.502-0.803-1.14-1.416-1.912-1.837c-0.772-0.421-1.693-0.631-2.76-0.631c-1.055,0-1.969,0.21-2.741,0.631
	c-0.772,0.421-1.41,1.034-1.912,1.837c-0.502,0.804-0.876,1.793-1.121,2.967C118.514,102.38,118.392,103.721,118.392,105.229z"/>
<path fill="#231F20" d="M150.525,113.781h0.094l5.708-19.178c0.151-0.527,0.358-0.983,0.622-1.366
	c0.264-0.383,0.556-0.7,0.876-0.951c0.32-0.251,0.659-0.439,1.017-0.565c0.358-0.126,0.712-0.188,1.065-0.188
	c0.364,0,0.712,0.066,1.046,0.198c0.332,0.132,0.627,0.324,0.885,0.575c0.257,0.252,0.462,0.565,0.612,0.942
	c0.151,0.377,0.226,0.81,0.226,1.3c0,0.565-0.101,1.168-0.302,1.809l-4.898,15.127c-0.415,1.269-0.814,2.364-1.196,3.287
	c-0.383,0.923-0.826,1.693-1.329,2.308c-0.502,0.616-1.105,1.071-1.808,1.366c-0.704,0.295-1.577,0.442-2.619,0.442
	c-0.955,0-1.759-0.107-2.411-0.32c-0.653-0.214-1.228-0.584-1.724-1.112c-0.496-0.527-0.945-1.231-1.347-2.109
	c-0.402-0.879-0.823-1.984-1.262-3.316l-5.256-15.919c-0.088-0.252-0.148-0.49-0.179-0.716c-0.032-0.226-0.047-0.445-0.047-0.659
	c0-0.49,0.085-0.929,0.255-1.319c0.169-0.389,0.398-0.725,0.687-1.008c0.289-0.282,0.616-0.499,0.98-0.65
	c0.364-0.151,0.747-0.226,1.149-0.226c0.339,0,0.681,0.06,1.027,0.179c0.345,0.119,0.672,0.304,0.98,0.556
	c0.307,0.252,0.587,0.574,0.838,0.97c0.251,0.396,0.458,0.87,0.622,1.423L150.525,113.781z"/>
<path fill="#231F20" d="M168.947,118.886c-0.641,0-1.178-0.132-1.611-0.396c-0.433-0.263-0.782-0.606-1.046-1.026
	c-0.263-0.421-0.452-0.895-0.565-1.423c-0.113-0.527-0.17-1.055-0.17-1.582V96.506c0-0.716,0.044-1.379,0.132-1.988
	c0.088-0.609,0.282-1.133,0.584-1.573c0.302-0.44,0.741-0.785,1.319-1.036c0.577-0.251,1.356-0.377,2.336-0.377h12.094
	c0.364,0,0.706,0.066,1.027,0.198c0.32,0.132,0.599,0.308,0.838,0.527c0.238,0.22,0.427,0.481,0.565,0.782s0.207,0.622,0.207,0.961
	c0,0.339-0.069,0.656-0.207,0.951c-0.138,0.296-0.327,0.553-0.565,0.772c-0.239,0.22-0.518,0.393-0.838,0.518
	c-0.321,0.126-0.663,0.188-1.027,0.188h-9.701v6.104h8.854c0.364,0,0.706,0.063,1.026,0.188c0.32,0.126,0.6,0.302,0.838,0.527
	c0.238,0.226,0.427,0.487,0.566,0.782c0.138,0.295,0.207,0.612,0.207,0.951s-0.069,0.656-0.207,0.951
	c-0.138,0.295-0.327,0.552-0.566,0.772c-0.238,0.22-0.518,0.392-0.838,0.518c-0.32,0.125-0.662,0.188-1.026,0.188h-8.854v6.593
	h10.173c0.339,0,0.656,0.063,0.951,0.188c0.294,0.126,0.556,0.302,0.782,0.528c0.226,0.226,0.402,0.487,0.527,0.782
	c0.126,0.295,0.188,0.612,0.188,0.951c0,0.339-0.063,0.656-0.188,0.951c-0.126,0.295-0.302,0.552-0.527,0.772
	s-0.487,0.392-0.782,0.518c-0.296,0.126-0.612,0.188-0.951,0.188H168.947z"/>
<path fill="#231F20" d="M196.274,96.506c-0.365,0-0.71-0.066-1.036-0.198c-0.327-0.132-0.612-0.311-0.857-0.537
	c-0.245-0.226-0.44-0.49-0.584-0.791c-0.144-0.302-0.217-0.622-0.217-0.961s0.072-0.662,0.217-0.97
	c0.144-0.307,0.339-0.575,0.584-0.801s0.531-0.405,0.857-0.537c0.327-0.132,0.672-0.198,1.036-0.198h17.199
	c0.364,0,0.71,0.066,1.036,0.198c0.327,0.132,0.612,0.311,0.857,0.537c0.245,0.226,0.44,0.493,0.584,0.801
	c0.144,0.308,0.217,0.631,0.217,0.97s-0.072,0.659-0.217,0.961c-0.144,0.302-0.339,0.565-0.584,0.791
	c-0.245,0.226-0.531,0.405-0.857,0.537c-0.327,0.132-0.672,0.198-1.036,0.198h-5.049v18.706c0,0.516-0.091,0.995-0.273,1.441
	c-0.182,0.446-0.433,0.836-0.753,1.168c-0.321,0.333-0.691,0.594-1.111,0.782c-0.421,0.188-0.876,0.282-1.366,0.282
	c-0.49,0-0.945-0.094-1.366-0.282c-0.421-0.188-0.789-0.449-1.102-0.782c-0.314-0.332-0.562-0.722-0.744-1.168
	c-0.182-0.446-0.273-0.926-0.273-1.441V96.506H196.274z"/>
<path fill="#231F20" d="M214.843,105.229c0-2.073,0.279-3.988,0.838-5.746c0.559-1.759,1.397-3.272,2.515-4.54
	c1.117-1.269,2.518-2.261,4.201-2.977c1.683-0.716,3.655-1.074,5.915-1.074c2.198,0,4.138,0.346,5.822,1.036
	c1.683,0.691,3.089,1.667,4.22,2.929c1.13,1.262,1.984,2.772,2.562,4.53c0.577,1.759,0.866,3.705,0.866,5.841
	c0,2.097-0.282,4.025-0.847,5.783c-0.565,1.759-1.413,3.268-2.543,4.53c-1.13,1.262-2.537,2.245-4.22,2.948
	c-1.684,0.703-3.636,1.055-5.859,1.055c-2.173,0-4.097-0.339-5.774-1.017c-1.676-0.678-3.087-1.641-4.229-2.892
	c-1.143-1.25-2.007-2.753-2.591-4.512C215.135,109.367,214.843,107.401,214.843,105.229z M222.171,105.229
	c0,3.115,0.496,5.466,1.489,7.055c0.992,1.589,2.543,2.383,4.653,2.383c2.073,0,3.617-0.791,4.634-2.374
	c1.017-1.582,1.526-3.937,1.526-7.064c0-1.508-0.122-2.848-0.367-4.022c-0.245-1.175-0.619-2.163-1.121-2.967
	c-0.502-0.803-1.14-1.416-1.912-1.837c-0.772-0.421-1.693-0.631-2.76-0.631c-1.055,0-1.969,0.21-2.741,0.631
	c-0.772,0.421-1.41,1.034-1.912,1.837c-0.502,0.804-0.876,1.793-1.121,2.967C222.293,102.38,222.171,103.721,222.171,105.229z"/>
<path fill="#231F20" d="M81.484,161.751c-0.824,0-1.507-0.168-2.049-0.503c-0.542-0.336-0.973-0.778-1.294-1.328
	c-0.32-0.55-0.542-1.171-0.663-1.866c-0.122-0.694-0.183-1.408-0.183-2.14v-21.517c0-1.022,0.099-1.907,0.298-2.655
	c0.198-0.747,0.526-1.358,0.984-1.831c0.458-0.473,1.057-0.824,1.797-1.053s1.652-0.343,2.735-0.343h5.677
	c6.241,0,10.949,1.378,14.124,4.131c3.174,2.755,4.761,6.993,4.761,12.716c0,2.793-0.434,5.219-1.305,7.279
	c-0.87,2.06-2.102,3.766-3.697,5.116s-3.514,2.354-5.757,3.01c-2.243,0.656-4.73,0.984-7.462,0.984H81.484z M85.673,156.624h3.136
	c1.74,0,3.235-0.198,4.486-0.595c1.251-0.397,2.286-1.076,3.102-2.038c0.817-0.962,1.419-2.155,1.809-3.582
	c0.389-1.426,0.583-3.178,0.583-5.253c0-3.861-0.801-6.737-2.403-8.63c-1.602-1.892-4.059-2.838-7.37-2.838h-3.342V156.624z"/>
<path fill="#231F20" d="M109.931,145.156c0-2.518,0.339-4.845,1.018-6.981c0.679-2.137,1.698-3.975,3.056-5.517
	c1.358-1.542,3.059-2.747,5.105-3.617c2.045-0.87,4.441-1.305,7.187-1.305c2.67,0,5.028,0.42,7.073,1.259
	c2.045,0.839,3.754,2.026,5.127,3.559c1.374,1.534,2.411,3.369,3.113,5.505c0.702,2.137,1.053,4.502,1.053,7.097
	c0,2.548-0.343,4.89-1.03,7.027s-1.717,3.971-3.09,5.505c-1.374,1.534-3.082,2.728-5.127,3.582
	c-2.046,0.854-4.418,1.282-7.119,1.282c-2.64,0-4.978-0.412-7.016-1.236c-2.037-0.824-3.75-1.994-5.138-3.514
	c-1.389-1.518-2.438-3.346-3.148-5.482C110.286,150.184,109.931,147.796,109.931,145.156z M118.835,145.156
	c0,3.785,0.603,6.641,1.809,8.572c1.205,1.93,3.09,2.896,5.653,2.896c2.518,0,4.395-0.962,5.631-2.885
	c1.236-1.922,1.854-4.784,1.854-8.583c0-1.832-0.149-3.461-0.446-4.887c-0.298-1.427-0.752-2.629-1.362-3.606
	c-0.61-0.976-1.385-1.72-2.323-2.232c-0.938-0.511-2.057-0.766-3.354-0.766c-1.282,0-2.392,0.255-3.33,0.766
	c-0.938,0.512-1.714,1.256-2.323,2.232c-0.61,0.977-1.065,2.178-1.362,3.606C118.984,141.695,118.835,143.324,118.835,145.156z"/>
<path fill="#231F20" d="M151.037,161.751c-0.824,0-1.507-0.168-2.049-0.503c-0.542-0.336-0.973-0.778-1.294-1.328
	c-0.32-0.55-0.542-1.171-0.663-1.866c-0.122-0.694-0.183-1.408-0.183-2.14v-21.517c0-1.022,0.099-1.907,0.298-2.655
	c0.198-0.747,0.526-1.358,0.984-1.831c0.458-0.473,1.057-0.824,1.797-1.053c0.74-0.229,1.652-0.343,2.735-0.343h5.677
	c6.241,0,10.949,1.378,14.124,4.131c3.174,2.755,4.761,6.993,4.761,12.716c0,2.793-0.434,5.219-1.305,7.279
	c-0.87,2.06-2.102,3.766-3.697,5.116s-3.514,2.354-5.757,3.01c-2.243,0.656-4.73,0.984-7.462,0.984H151.037z M155.226,156.624h3.136
	c1.74,0,3.235-0.198,4.486-0.595c1.251-0.397,2.286-1.076,3.102-2.038c0.817-0.962,1.419-2.155,1.809-3.582
	c0.389-1.426,0.583-3.178,0.583-5.253c0-3.861-0.801-6.737-2.403-8.63c-1.602-1.892-4.059-2.838-7.37-2.838h-3.342V156.624z"/>
<path fill="#231F20" d="M208.326,143.851c0.595,0,1.08,0.08,1.454,0.24c0.374,0.16,0.66,0.405,0.858,0.733
	c0.198,0.328,0.332,0.736,0.401,1.224c0.069,0.489,0.103,1.054,0.103,1.694v6.821c0,1.19-0.08,2.194-0.241,3.01
	c-0.16,0.817-0.462,1.499-0.904,2.049s-1.064,0.988-1.866,1.316c-0.801,0.329-1.842,0.592-3.124,0.79
	c-0.55,0.092-1.138,0.187-1.763,0.286s-1.262,0.186-1.911,0.263c-0.649,0.076-1.29,0.141-1.922,0.194
	c-0.634,0.054-1.225,0.08-1.774,0.08c-2.686,0-5.108-0.347-7.267-1.041c-2.16-0.694-4.002-1.755-5.529-3.182
	c-1.526-1.426-2.697-3.234-3.514-5.425c-0.816-2.19-1.224-4.773-1.224-7.748c0-2.396,0.346-4.65,1.041-6.765
	c0.694-2.113,1.755-3.96,3.182-5.539c1.426-1.579,3.238-2.827,5.436-3.742c2.198-0.916,4.799-1.374,7.805-1.374
	c0.977,0,1.946,0.05,2.907,0.149s1.889,0.233,2.782,0.401c0.893,0.168,1.747,0.374,2.563,0.618c0.817,0.245,1.568,0.512,2.255,0.802
	c0.686,0.29,1.198,0.683,1.534,1.178c0.335,0.496,0.503,1.034,0.503,1.614c0,0.946-0.29,1.664-0.87,2.152
	c-0.58,0.489-1.298,0.733-2.152,0.733c-0.427,0-0.992-0.088-1.694-0.263c-0.702-0.175-1.454-0.374-2.254-0.595
	c-0.802-0.222-1.618-0.42-2.45-0.595c-0.832-0.175-1.591-0.263-2.278-0.263c-1.679,0-3.117,0.271-4.315,0.813
	c-1.198,0.542-2.178,1.324-2.941,2.346c-0.763,1.023-1.32,2.266-1.671,3.731c-0.351,1.466-0.526,3.114-0.526,4.945
	c0,2.03,0.156,3.75,0.469,5.161c0.313,1.412,0.813,2.56,1.5,3.445c0.686,0.886,1.568,1.526,2.643,1.923
	c1.076,0.397,2.37,0.595,3.88,0.595c0.916,0,1.835-0.026,2.758-0.08c0.923-0.054,1.82-0.187,2.69-0.401v-7.485h-3.067
	c-0.473,0-0.908-0.042-1.305-0.126s-0.744-0.221-1.042-0.412c-0.298-0.19-0.53-0.442-0.698-0.755s-0.251-0.698-0.251-1.156
	c0-0.702,0.232-1.274,0.698-1.717c0.466-0.442,1.179-0.664,2.141-0.664c1.51,0,2.998,0.004,4.463,0.011
	C205.305,143.847,206.8,143.851,208.326,143.851z"/>
<path fill="#231F20" d="M220.659,161.751c-0.778,0-1.431-0.16-1.958-0.481c-0.526-0.32-0.95-0.736-1.27-1.247
	c-0.32-0.511-0.549-1.087-0.686-1.729c-0.138-0.641-0.206-1.282-0.206-1.922v-21.814c0-0.87,0.054-1.675,0.161-2.415
	c0.106-0.74,0.343-1.377,0.71-1.911c0.366-0.534,0.9-0.954,1.602-1.259c0.702-0.305,1.648-0.458,2.838-0.458h14.695
	c0.442,0,0.858,0.08,1.248,0.24c0.389,0.161,0.728,0.374,1.018,0.641c0.29,0.267,0.518,0.584,0.686,0.95
	c0.168,0.366,0.252,0.755,0.252,1.167s-0.084,0.798-0.252,1.156c-0.168,0.359-0.397,0.672-0.686,0.938
	c-0.29,0.267-0.63,0.478-1.018,0.63c-0.39,0.153-0.806,0.229-1.248,0.229h-11.788v7.417h10.758c0.442,0,0.858,0.077,1.247,0.229
	c0.389,0.153,0.729,0.366,1.018,0.641c0.29,0.275,0.519,0.592,0.687,0.95c0.167,0.358,0.251,0.744,0.251,1.156
	c0,0.412-0.084,0.798-0.251,1.156c-0.168,0.358-0.398,0.671-0.687,0.938s-0.63,0.477-1.018,0.63
	c-0.389,0.152-0.805,0.229-1.247,0.229h-10.758v8.011h12.361c0.412,0,0.797,0.077,1.156,0.229c0.358,0.153,0.675,0.366,0.95,0.642
	c0.274,0.274,0.488,0.591,0.641,0.95c0.153,0.358,0.229,0.744,0.229,1.156c0,0.412-0.076,0.798-0.229,1.156
	c-0.153,0.358-0.366,0.671-0.641,0.938c-0.274,0.267-0.592,0.477-0.95,0.63c-0.359,0.153-0.744,0.229-1.156,0.229H220.659z"/>
<path fill="none" d="M90.653,136.964h-3.342V159.9h3.136c1.74,0,3.235-0.198,4.486-0.595s2.286-1.076,3.102-2.038
	c0.817-0.962,1.419-2.155,1.809-3.582c0.389-1.426,0.583-3.178,0.583-5.253c0-3.861-0.801-6.737-2.403-8.63
	C96.421,137.911,93.964,136.964,90.653,136.964z"/>
<path fill="none" d="M160.207,136.964h-3.342V159.9H160c1.74,0,3.235-0.198,4.486-0.595s2.286-1.076,3.102-2.038
	c0.817-0.962,1.419-2.155,1.809-3.582c0.389-1.426,0.583-3.178,0.583-5.253c0-3.861-0.801-6.737-2.403-8.63
	C165.975,137.911,163.518,136.964,160.207,136.964z"/>
<path fill="none" d="M133.612,139.94c-0.61-0.976-1.385-1.72-2.323-2.232c-0.938-0.511-2.057-0.766-3.354-0.766
	c-1.282,0-2.392,0.255-3.33,0.766c-0.938,0.512-1.714,1.256-2.323,2.232c-0.61,0.977-1.065,2.178-1.362,3.606
	c-0.298,1.426-0.446,3.055-0.446,4.887c0,3.785,0.603,6.641,1.809,8.572c1.205,1.93,3.09,2.896,5.653,2.896
	c2.518,0,4.395-0.962,5.631-2.885c1.236-1.922,1.854-4.784,1.854-8.583c0-1.832-0.149-3.461-0.446-4.887
	C134.677,142.118,134.223,140.917,133.612,139.94z"/>
<path fill="none" d="M125.882,117.363c2.073,0,3.617-0.791,4.634-2.374c1.017-1.582,1.526-3.937,1.526-7.064
	c0-1.508-0.122-2.848-0.367-4.022c-0.245-1.175-0.619-2.163-1.121-2.967c-0.502-0.803-1.14-1.416-1.912-1.837
	c-0.772-0.421-1.693-0.631-2.76-0.631c-1.055,0-1.969,0.21-2.741,0.631c-0.772,0.421-1.41,1.034-1.912,1.837
	c-0.502,0.804-0.876,1.793-1.121,2.967c-0.245,1.174-0.367,2.514-0.367,4.022c0,3.115,0.496,5.466,1.489,7.055
	C122.22,116.569,123.772,117.363,125.882,117.363z"/>
<path fill="none" d="M234.333,100.936c-0.502-0.803-1.14-1.416-1.912-1.837c-0.772-0.421-1.693-0.631-2.76-0.631
	c-1.055,0-1.969,0.21-2.741,0.631c-0.772,0.421-1.41,1.034-1.912,1.837c-0.502,0.804-0.876,1.793-1.121,2.967
	c-0.245,1.174-0.367,2.514-0.367,4.022c0,3.115,0.496,5.466,1.489,7.055c0.992,1.589,2.543,2.383,4.653,2.383
	c2.073,0,3.617-0.791,4.634-2.374c1.017-1.582,1.526-3.937,1.526-7.064c0-1.508-0.122-2.848-0.367-4.022
	C235.209,102.729,234.835,101.74,234.333,100.936z"/>
<polygon fill="#F48220" points="164.375,72.639 152.668,72.639 152.668,75.336 165.723,75.336 165.723,54.881 175.47,54.881 
	173.912,52.184 164.375,52.184 "/>
<polygon fill="#F48220" points="144.479,52.184 142.922,54.881 151.32,54.881 151.32,52.184 "/>
<polygon fill="#EB2227" points="159.196,26.698 173.912,52.184 174.121,52.184 157.847,24.002 141.574,52.184 144.479,52.184 "/>
<rect x="151.32" y="54.881" fill="#EB2227" width="1.348" height="17.758"/>
<polygon fill="#EB2227" points="144.479,52.184 151.32,52.184 151.32,54.881 152.668,54.881 152.668,72.639 164.375,72.639 
	164.375,52.184 173.912,52.184 159.196,26.698 "/>
<polygon fill="#F48220" points="165.723,184.081 152.668,184.081 152.668,204.536 142.922,204.536 159.196,232.719 175.47,204.536 
	165.723,204.536 "/>
<polygon fill="#EB2227" points="164.375,201.839 164.375,181.385 151.32,181.385 151.32,201.839 141.574,201.839 157.847,230.022 
	174.121,201.839 "/>
</svg>
