<?xml version="1.0" encoding="utf-8"?>
<!-- Generator: Adobe Illustrator 17.0.0, SVG Export Plug-In . SVG Version: 6.00 Build 0)  -->
<!DOCTYPE svg PUBLIC "-//W3C//DTD SVG 1.1//EN" "http://www.w3.org/Graphics/SVG/1.1/DTD/svg11.dtd">
<svg version="1.1" id="Layer_1" xmlns="http://www.w3.org/2000/svg" xmlns:xlink="http://www.w3.org/1999/xlink" x="0px" y="0px"
	 width="288.017px" height="260.387px" viewBox="0 0 288.017 260.387" enable-background="new 0 0 288.017 260.387"
	 xml:space="preserve">
<circle fill="#F48220" cx="127.604" cy="132.783" r="127.576"/>
<circle fill="#FEE000" cx="128.763" cy="127.604" r="127.576"/>
<polygon fill="#FEE000" points="238.512,173.441 288.017,163.256 247.58,132.936 "/>
<path fill="#F48220" d="M48.2,120.41c0.377,0,0.735-0.073,1.074-0.218c0.339-0.145,0.634-0.34,0.884-0.585
	c0.251-0.245,0.448-0.538,0.593-0.877c0.144-0.339,0.216-0.697,0.215-1.074l-0.019-17.972l5.95,14.688
	c0.315,0.791,0.63,1.485,0.944,2.081c0.314,0.596,0.651,1.092,1.009,1.488c0.359,0.395,0.751,0.69,1.179,0.884
	c0.427,0.194,0.923,0.291,1.488,0.291c0.616-0.001,1.159-0.13,1.629-0.388c0.471-0.257,0.894-0.603,1.271-1.037
	c0.376-0.434,0.711-0.94,1.006-1.518c0.294-0.578,0.574-1.187,0.837-1.828l0.244-0.622c0.175-0.427,0.404-0.987,0.686-1.678
	s0.598-1.476,0.949-2.356c0.351-0.879,0.714-1.784,1.09-2.714c0.877-2.161,1.872-4.623,2.987-7.388l0.019,18.047
	c0,0.377,0.073,0.735,0.218,1.074c0.145,0.339,0.34,0.631,0.585,0.876c0.245,0.245,0.538,0.439,0.877,0.583
	c0.339,0.144,0.697,0.216,1.074,0.215c0.377,0,0.734-0.073,1.073-0.218c0.34-0.145,0.634-0.34,0.885-0.585
	c0.251-0.245,0.448-0.538,0.593-0.877c0.144-0.339,0.216-0.697,0.215-1.074l-0.019-18.066c-0.001-1.18-0.096-2.188-0.286-3.023
	c-0.189-0.835-0.476-1.516-0.859-2.043c-0.384-0.527-0.874-0.91-1.471-1.147c-0.597-0.238-1.297-0.357-2.101-0.356
	c-0.741,0.001-1.4,0.165-1.977,0.492c-0.578,0.327-1.111,0.793-1.6,1.396c-0.489,0.603-0.95,1.338-1.382,2.205
	c-0.432,0.867-0.874,1.841-1.325,2.921l-5.074,12.157l-0.151,0l-5.043-12.146c-0.529-1.268-1.016-2.347-1.463-3.238
	s-0.906-1.616-1.378-2.175c-0.471-0.558-0.981-0.963-1.527-1.214c-0.547-0.25-1.185-0.375-1.913-0.375
	c-1.017,0.001-1.836,0.175-2.458,0.521c-0.621,0.346-1.104,0.833-1.449,1.462c-0.345,0.628-0.573,1.391-0.685,2.289
	c-0.112,0.898-0.168,1.894-0.167,2.986l0.018,17.388c0,0.377,0.073,0.735,0.218,1.074s0.34,0.631,0.585,0.876
	c0.245,0.245,0.538,0.439,0.877,0.583C47.465,120.339,47.822,120.411,48.2,120.41z M99.475,119.941
	c1.682-0.705,3.087-1.689,4.217-2.953s1.976-2.774,2.539-4.533c0.563-1.759,0.843-3.687,0.841-5.784
	c-0.002-2.135-0.293-4.082-0.873-5.84c-0.579-1.757-1.435-3.267-2.567-4.528c-1.132-1.261-2.539-2.236-4.223-2.925
	c-1.684-0.689-3.625-1.032-5.823-1.03c-2.26,0.002-4.232,0.363-5.914,1.08c-1.683,0.717-3.082,1.711-4.198,2.981
	c-1.117,1.27-1.953,2.784-2.51,4.543c-0.557,1.758-0.834,3.674-0.832,5.747c0.002,2.173,0.296,4.138,0.882,5.895
	c0.586,1.758,1.451,3.261,2.596,4.509c1.144,1.249,2.555,2.211,4.232,2.887c1.678,0.676,3.602,1.013,5.775,1.011
	C95.84,121,97.793,120.646,99.475,119.941z M88.957,113.745c-0.994-1.588-1.493-3.938-1.496-7.053
	c-0.002-1.508,0.119-2.848,0.363-4.022c0.244-1.175,0.617-2.164,1.118-2.969c0.501-0.804,1.138-1.417,1.91-1.839
	c0.772-0.422,1.685-0.633,2.74-0.634c1.067-0.001,1.988,0.208,2.761,0.628c0.773,0.421,1.411,1.032,1.914,1.835
	c0.503,0.803,0.878,1.792,1.124,2.966c0.246,1.174,0.37,2.514,0.372,4.022c0.003,3.127-0.503,5.482-1.519,7.065
	c-1.016,1.584-2.559,2.377-4.632,2.379C91.502,116.126,89.95,115.333,88.957,113.745z M131.734,95.964
	c-0.001-0.49-0.077-0.923-0.228-1.299c-0.151-0.377-0.356-0.69-0.613-0.942c-0.258-0.251-0.553-0.442-0.885-0.574
	c-0.333-0.131-0.682-0.197-1.046-0.196c-0.352,0-0.706,0.063-1.064,0.189c-0.358,0.126-0.697,0.315-1.017,0.566
	c-0.32,0.252-0.612,0.569-0.875,0.952c-0.263,0.383-0.47,0.839-0.62,1.367l-5.688,19.184l-0.094,0l-5.709-19.115
	c-0.164-0.553-0.372-1.027-0.623-1.422c-0.252-0.395-0.531-0.718-0.839-0.969c-0.308-0.251-0.635-0.436-0.98-0.555
	c-0.346-0.119-0.688-0.178-1.027-0.178c-0.402,0-0.785,0.076-1.149,0.227s-0.69,0.368-0.979,0.651
	c-0.289,0.283-0.518,0.619-0.686,1.009c-0.169,0.39-0.254,0.829-0.253,1.319c0,0.214,0.016,0.433,0.048,0.659
	c0.031,0.226,0.091,0.465,0.18,0.716l5.273,15.913c0.441,1.331,0.862,2.436,1.266,3.314c0.403,0.879,0.852,1.581,1.349,2.108
	c0.496,0.528,1.071,0.897,1.725,1.11c0.653,0.213,1.457,0.318,2.411,0.317c1.042-0.001,1.915-0.149,2.619-0.445
	c0.703-0.296,1.305-0.752,1.807-1.368c0.502-0.615,0.944-1.386,1.326-2.309c0.382-0.923,0.779-2.019,1.193-3.289l4.882-15.132
	C131.634,97.132,131.734,96.529,131.734,95.964z M135.372,118.877c0.264,0.42,0.613,0.762,1.047,1.025
	c0.433,0.264,0.971,0.395,1.611,0.394l13.545-0.014c0.339,0,0.656-0.063,0.951-0.189c0.294-0.126,0.555-0.299,0.781-0.519
	c0.226-0.22,0.401-0.478,0.527-0.773s0.188-0.613,0.187-0.952c0-0.339-0.063-0.656-0.189-0.951
	c-0.126-0.295-0.302-0.555-0.528-0.781c-0.226-0.226-0.488-0.402-0.782-0.527c-0.296-0.125-0.613-0.188-0.952-0.187l-10.173,0.011
	l-0.007-6.593l8.854-0.009c0.364,0,0.706-0.064,1.026-0.189c0.32-0.126,0.599-0.299,0.838-0.519c0.238-0.22,0.427-0.478,0.565-0.773
	c0.137-0.295,0.206-0.613,0.206-0.952c0-0.339-0.07-0.656-0.208-0.951c-0.139-0.295-0.328-0.555-0.566-0.782
	c-0.239-0.226-0.519-0.401-0.839-0.526c-0.32-0.125-0.663-0.188-1.027-0.187l-8.854,0.009l-0.006-6.104l9.701-0.01
	c0.364,0,0.706-0.063,1.027-0.189c0.32-0.125,0.599-0.299,0.838-0.519c0.238-0.219,0.426-0.477,0.564-0.773
	c0.138-0.295,0.207-0.613,0.206-0.952c0-0.339-0.07-0.659-0.208-0.96c-0.139-0.301-0.327-0.562-0.566-0.782
	c-0.239-0.219-0.519-0.394-0.839-0.526c-0.321-0.131-0.663-0.197-1.027-0.196l-12.094,0.013c-0.98,0.001-1.758,0.128-2.336,0.379
	c-0.578,0.252-1.017,0.598-1.318,1.038c-0.301,0.44-0.495,0.964-0.582,1.574c-0.088,0.609-0.131,1.271-0.13,1.988l0.019,17.953
	c0.001,0.527,0.058,1.055,0.172,1.582C134.919,117.983,135.108,118.457,135.372,118.877z M177.232,118.023
	c0.182-0.446,0.272-0.926,0.272-1.442l-0.02-18.706l5.049-0.005c0.364,0,0.71-0.067,1.036-0.199
	c0.326-0.132,0.612-0.311,0.857-0.537c0.245-0.227,0.439-0.49,0.583-0.792s0.216-0.622,0.216-0.961c0-0.339-0.073-0.662-0.218-0.97
	c-0.145-0.307-0.34-0.574-0.585-0.8s-0.531-0.404-0.858-0.536c-0.327-0.132-0.672-0.197-1.037-0.197l-17.199,0.018
	c-0.365,0-0.71,0.067-1.036,0.199c-0.326,0.132-0.612,0.311-0.857,0.537c-0.245,0.226-0.439,0.494-0.583,0.801
	c-0.144,0.308-0.216,0.632-0.216,0.971c0,0.339,0.073,0.659,0.218,0.96c0.145,0.301,0.34,0.565,0.585,0.791
	c0.245,0.226,0.531,0.404,0.858,0.536c0.327,0.132,0.672,0.197,1.037,0.197l5.162-0.005l0.02,18.706
	c0.001,0.516,0.092,0.995,0.275,1.441c0.182,0.446,0.431,0.835,0.745,1.167c0.314,0.333,0.681,0.593,1.103,0.781
	c0.421,0.188,0.876,0.282,1.366,0.281c0.49-0.001,0.945-0.095,1.366-0.284c0.42-0.189,0.79-0.45,1.111-0.783
	C176.8,118.859,177.051,118.469,177.232,118.023z M183.912,106.59c0.002,2.173,0.296,4.138,0.882,5.895
	c0.586,1.758,1.451,3.261,2.596,4.509c1.144,1.249,2.555,2.211,4.232,2.887c1.678,0.676,3.602,1.013,5.775,1.011
	c2.223-0.002,4.175-0.356,5.858-1.061c1.682-0.705,3.087-1.689,4.217-2.953c1.129-1.263,1.976-2.774,2.539-4.533
	c0.563-1.759,0.843-3.687,0.841-5.784c-0.002-2.135-0.293-4.082-0.873-5.84c-0.579-1.757-1.435-3.267-2.567-4.528
	c-1.132-1.261-2.539-2.236-4.223-2.925c-1.684-0.689-3.625-1.032-5.823-1.03c-2.26,0.002-4.232,0.363-5.914,1.08
	c-1.683,0.717-3.082,1.711-4.198,2.981c-1.117,1.27-1.953,2.784-2.51,4.543C184.187,102.602,183.91,104.518,183.912,106.59z
	 M191.603,102.56c0.244-1.175,0.617-2.164,1.118-2.969c0.501-0.804,1.138-1.417,1.91-1.839c0.772-0.422,1.685-0.633,2.74-0.634
	c1.067-0.001,1.988,0.208,2.761,0.628c0.773,0.421,1.411,1.032,1.914,1.835c0.503,0.803,0.878,1.792,1.124,2.966
	c0.246,1.174,0.37,2.514,0.372,4.022c0.003,3.127-0.503,5.482-1.519,7.065c-1.016,1.584-2.559,2.377-4.632,2.379
	c-2.11,0.002-3.662-0.791-4.655-2.378c-0.994-1.588-1.493-3.938-1.496-7.053C191.238,105.075,191.359,103.734,191.603,102.56z
	 M81.326,134.633c-3.915-3.389-9.716-5.081-17.407-5.073l-6.994,0.007c-1.336,0.001-2.458,0.144-3.37,0.426
	c-0.912,0.283-1.649,0.717-2.212,1.3c-0.564,0.584-0.968,1.337-1.211,2.258c-0.243,0.922-0.364,2.013-0.363,3.272l0.028,26.511
	c0.001,0.902,0.077,1.781,0.228,2.637s0.425,1.621,0.82,2.298c0.396,0.676,0.927,1.221,1.595,1.634
	c0.668,0.414,1.509,0.619,2.525,0.618l9.814-0.01c3.366-0.004,6.43-0.411,9.193-1.222c2.763-0.812,5.126-2.051,7.09-3.716
	c1.962-1.666,3.479-3.769,4.548-6.308c1.068-2.54,1.601-5.529,1.597-8.971C87.201,143.243,85.241,138.023,81.326,134.633z
	 M75.554,156.525c-0.478,1.759-1.219,3.231-2.224,4.416c-1.005,1.186-2.278,2.024-3.819,2.514c-1.541,0.491-3.384,0.737-5.527,0.739
	l-3.864,0.004l-0.03-28.26l4.118-0.004c4.079-0.004,7.109,1.158,9.085,3.488c1.976,2.329,2.967,5.873,2.972,10.63
	C76.269,152.609,76.032,154.767,75.554,156.525z M120.242,148.045c1.156-0.593,2.091-1.309,2.805-2.147
	c0.713-0.837,1.229-1.778,1.548-2.821s0.477-2.149,0.476-3.314c-0.002-2.144-0.442-3.882-1.317-5.217
	c-0.875-1.333-2.043-2.376-3.501-3.127c-1.457-0.75-3.146-1.261-5.064-1.532c-1.918-0.27-3.92-0.405-6.008-0.403l-11.309,0.012
	c-0.866,0.001-1.688,0.11-2.468,0.327c-0.779,0.217-1.461,0.542-2.043,0.975c-0.583,0.433-1.047,0.974-1.395,1.623
	c-0.348,0.649-0.52,1.406-0.519,2.271l0.032,30.29c0.001,0.771,0.138,1.491,0.411,2.157c0.274,0.667,0.646,1.251,1.116,1.748
	c0.471,0.498,1.021,0.888,1.651,1.168c0.631,0.282,1.313,0.422,2.046,0.421c0.734-0.001,1.414-0.143,2.045-0.426
	c0.629-0.282,1.183-0.673,1.662-1.172c0.479-0.498,0.854-1.082,1.126-1.75c0.271-0.667,0.407-1.387,0.406-2.158l-0.012-11.366
	l5.726-0.006c1.39-0.001,2.485,0.139,3.286,0.419c0.799,0.282,1.415,0.76,1.848,1.437c0.433,0.676,0.75,1.564,0.948,2.664
	c0.198,1.099,0.393,2.467,0.583,4.103c0.132,1.128,0.308,2.185,0.525,3.173c0.217,0.987,0.532,1.856,0.948,2.608
	c0.414,0.751,0.936,1.343,1.566,1.775c0.631,0.432,1.416,0.647,2.356,0.646c1.034-0.001,1.88-0.138,2.538-0.412
	c0.657-0.273,1.173-0.654,1.549-1.144c0.376-0.489,0.637-1.072,0.788-1.75c0.149-0.677,0.224-1.418,0.223-2.227
	c0-0.376-0.01-0.757-0.029-1.143c-0.019-0.385-0.048-0.785-0.085-1.198c-0.134-1.485-0.276-2.815-0.428-3.991
	c-0.151-1.174-0.351-2.222-0.596-3.144c-0.245-0.921-0.556-1.72-0.932-2.397c-0.377-0.676-0.866-1.254-1.468-1.733
	c-0.603-0.479-1.331-0.863-2.188-1.154c-0.856-0.29-1.886-0.511-3.089-0.66l0-0.113
	C117.672,149.078,119.086,148.638,120.242,148.045z M114.048,144.413c-0.507,0.743-1.169,1.308-1.986,1.694
	c-0.817,0.386-1.734,0.641-2.749,0.764c-1.015,0.124-2.031,0.185-3.046,0.186l-4.513,0.005l-0.012-11.225l4.26-0.004
	c1.146-0.001,2.251,0.04,3.313,0.124s1.999,0.304,2.807,0.66c0.809,0.357,1.459,0.891,1.948,1.606
	c0.49,0.714,0.736,1.786,0.737,3.214C114.808,142.678,114.554,143.67,114.048,144.413z M163.877,134.434
	c-1.695-1.888-3.801-3.348-6.322-4.379c-2.521-1.031-5.426-1.546-8.717-1.543c-3.385,0.004-6.336,0.543-8.853,1.617
	c-2.52,1.074-4.614,2.562-6.285,4.463c-1.672,1.901-2.925,4.168-3.758,6.801c-0.834,2.634-1.25,5.501-1.246,8.603
	c0.003,3.253,0.444,6.195,1.321,8.826s2.171,4.882,3.885,6.75c1.713,1.869,3.824,3.309,6.336,4.323
	c2.511,1.012,5.392,1.517,8.646,1.513c3.329-0.004,6.251-0.533,8.77-1.589c2.519-1.055,4.623-2.528,6.313-4.42
	c1.691-1.891,2.957-4.153,3.801-6.787c0.843-2.633,1.262-5.52,1.259-8.66c-0.003-3.196-0.439-6.11-1.307-8.742
	C166.852,138.581,165.571,136.321,163.877,134.434z M155.81,160.544c-1.521,2.371-3.832,3.558-6.935,3.561
	c-3.158,0.003-5.482-1.183-6.97-3.56c-1.488-2.377-2.235-5.896-2.24-10.56c-0.002-2.256,0.18-4.263,0.544-6.022
	c0.364-1.758,0.923-3.24,1.673-4.444c0.75-1.204,1.705-2.121,2.86-2.753c1.156-0.631,2.522-0.948,4.102-0.949
	c1.598-0.002,2.975,0.312,4.133,0.941c1.157,0.629,2.112,1.544,2.865,2.747c0.753,1.202,1.314,2.683,1.684,4.44
	c0.368,1.758,0.553,3.764,0.556,6.021C158.089,154.647,157.33,158.173,155.81,160.544z M202.929,131.938
	c-1.543-0.947-3.315-1.608-5.319-1.982c-2.002-0.374-4.085-0.56-6.247-0.558l-10.182,0.011c-1.522,0.002-2.731,0.205-3.623,0.61
	c-0.892,0.405-1.57,0.956-2.03,1.652c-0.46,0.696-0.759,1.519-0.899,2.468c-0.14,0.95-0.21,1.96-0.209,3.032l0.029,27.723
	c0.001,0.771,0.138,1.491,0.412,2.157c0.273,0.667,0.645,1.251,1.116,1.748c0.47,0.498,1.021,0.888,1.651,1.168
	c0.63,0.282,1.312,0.422,2.046,0.421c0.733-0.001,1.414-0.143,2.044-0.426c0.629-0.282,1.183-0.673,1.662-1.172
	c0.479-0.498,0.86-1.082,1.14-1.75c0.282-0.667,0.422-1.387,0.421-2.158l-0.011-10.125l6.459-0.007
	c2.482-0.003,4.747-0.263,6.796-0.782c2.049-0.519,3.8-1.306,5.257-2.361s2.583-2.376,3.38-3.966
	c0.797-1.589,1.195-3.465,1.192-5.628c-0.003-2.501-0.465-4.569-1.388-6.204C205.704,134.178,204.472,132.887,202.929,131.938z
	 M197.162,145.214c-0.395,0.79-0.944,1.425-1.649,1.905c-0.704,0.48-1.555,0.825-2.55,1.032c-0.997,0.208-2.097,0.313-3.3,0.314
	l-4.738,0.005l-0.013-12.72l5.217-0.006c1.128-0.001,2.159,0.101,3.089,0.307c0.931,0.206,1.73,0.544,2.399,1.012
	c0.668,0.47,1.19,1.085,1.568,1.846c0.376,0.761,0.565,1.8,0.567,3.116C197.752,143.362,197.556,144.424,197.162,145.214z"/>
<path fill="#231F20" d="M71.538,96.891c-1.115,2.764-2.111,5.227-2.987,7.388c-0.376,0.93-0.739,1.834-1.09,2.714
	c-0.351,0.88-0.667,1.665-0.949,2.356c-0.282,0.691-0.51,1.25-0.686,1.678l-0.244,0.622c-0.263,0.641-0.543,1.25-0.837,1.828
	c-0.294,0.578-0.63,1.084-1.006,1.518c-0.377,0.434-0.8,0.78-1.271,1.037c-0.47,0.259-1.014,0.388-1.629,0.388
	c-0.565,0.001-1.061-0.096-1.488-0.291c-0.427-0.194-0.82-0.489-1.179-0.884c-0.358-0.395-0.695-0.891-1.009-1.488
	c-0.315-0.596-0.629-1.29-0.944-2.081l-5.95-14.688l0.019,17.972c0,0.377-0.072,0.735-0.215,1.074
	c-0.144,0.339-0.342,0.632-0.593,0.877c-0.251,0.245-0.545,0.44-0.884,0.585c-0.339,0.145-0.697,0.217-1.074,0.218
	c-0.377,0-0.735-0.072-1.074-0.215c-0.339-0.144-0.632-0.338-0.877-0.583c-0.245-0.245-0.44-0.537-0.585-0.876
	c-0.145-0.339-0.217-0.697-0.218-1.074l-0.018-17.388c-0.001-1.092,0.054-2.088,0.167-2.986c0.112-0.898,0.34-1.661,0.685-2.289
	c0.345-0.628,0.828-1.116,1.449-1.462c0.622-0.346,1.441-0.52,2.458-0.521c0.728-0.001,1.366,0.124,1.913,0.375
	c0.546,0.251,1.055,0.655,1.527,1.214c0.472,0.558,0.931,1.284,1.378,2.175s0.934,1.971,1.463,3.238l5.043,12.146l0.151,0
	l5.074-12.157c0.451-1.08,0.893-2.054,1.325-2.921c0.432-0.867,0.893-1.602,1.382-2.205c0.489-0.604,1.022-1.069,1.6-1.396
	c0.577-0.327,1.237-0.491,1.977-0.492c0.804-0.001,1.505,0.118,2.101,0.356c0.597,0.238,1.086,0.62,1.471,1.147
	c0.383,0.527,0.67,1.208,0.859,2.043c0.19,0.835,0.285,1.843,0.286,3.023l0.019,18.066c0,0.377-0.072,0.735-0.215,1.074
	c-0.144,0.339-0.342,0.632-0.593,0.877c-0.251,0.245-0.545,0.44-0.885,0.585c-0.339,0.145-0.696,0.217-1.073,0.218
	c-0.377,0-0.735-0.072-1.074-0.215c-0.339-0.144-0.632-0.338-0.877-0.583c-0.245-0.245-0.44-0.537-0.585-0.876
	c-0.145-0.339-0.217-0.697-0.218-1.074L71.538,96.891z"/>
<path fill="#231F20" d="M79.456,104.004c-0.002-2.073,0.275-3.988,0.832-5.747c0.557-1.759,1.394-3.273,2.51-4.543
	c1.116-1.27,2.515-2.264,4.198-2.981c1.682-0.717,3.654-1.078,5.914-1.08c2.198-0.002,4.138,0.341,5.823,1.03
	c1.684,0.689,3.091,1.664,4.223,2.925c1.132,1.261,1.987,2.77,2.567,4.528c0.579,1.758,0.87,3.705,0.873,5.84
	c0.002,2.097-0.278,4.025-0.841,5.784c-0.563,1.759-1.409,3.27-2.539,4.533c-1.129,1.263-2.534,2.248-4.217,2.953
	c-1.683,0.705-3.635,1.059-5.858,1.061c-2.173,0.002-4.098-0.335-5.775-1.011c-1.677-0.676-3.088-1.638-4.232-2.887
	c-1.144-1.248-2.01-2.751-2.596-4.509C79.752,108.142,79.458,106.177,79.456,104.004z M86.784,103.996
	c0.003,3.115,0.502,5.465,1.496,7.053c0.993,1.588,2.545,2.381,4.655,2.378c2.073-0.002,3.616-0.795,4.632-2.379
	c1.016-1.583,1.522-3.939,1.519-7.065c-0.002-1.508-0.125-2.848-0.372-4.022c-0.246-1.174-0.621-2.163-1.124-2.966
	c-0.503-0.803-1.141-1.414-1.914-1.835c-0.773-0.42-1.693-0.629-2.761-0.628c-1.055,0.001-1.968,0.212-2.74,0.634
	c-0.772,0.422-1.409,1.035-1.91,1.839c-0.502,0.804-0.874,1.794-1.118,2.969C86.903,101.148,86.782,102.488,86.784,103.996z"/>
<path fill="#231F20" d="M118.926,112.515l0.094,0l5.688-19.184c0.15-0.528,0.357-0.983,0.62-1.367
	c0.264-0.383,0.555-0.7,0.875-0.952c0.32-0.251,0.659-0.44,1.017-0.566s0.712-0.189,1.064-0.189c0.364,0,0.712,0.065,1.046,0.196
	c0.333,0.132,0.628,0.323,0.885,0.574c0.258,0.251,0.463,0.564,0.613,0.942c0.151,0.376,0.227,0.81,0.228,1.299
	c0.001,0.565-0.1,1.168-0.3,1.809l-4.882,15.132c-0.413,1.269-0.811,2.365-1.193,3.289c-0.382,0.923-0.824,1.694-1.326,2.309
	c-0.502,0.616-1.104,1.072-1.807,1.368c-0.704,0.296-1.576,0.444-2.619,0.445c-0.955,0.001-1.759-0.105-2.411-0.317
	c-0.653-0.213-1.229-0.583-1.725-1.11c-0.497-0.527-0.947-1.23-1.349-2.108c-0.403-0.879-0.825-1.984-1.266-3.314l-5.273-15.913
	c-0.088-0.251-0.149-0.49-0.18-0.716c-0.032-0.226-0.048-0.445-0.048-0.659c-0.001-0.49,0.084-0.929,0.253-1.319
	c0.169-0.389,0.398-0.725,0.686-1.009c0.289-0.283,0.615-0.5,0.979-0.651c0.364-0.151,0.747-0.227,1.149-0.227
	c0.339,0,0.682,0.059,1.027,0.178c0.345,0.119,0.672,0.303,0.98,0.555c0.308,0.251,0.587,0.573,0.839,0.969
	c0.251,0.395,0.459,0.869,0.623,1.422L118.926,112.515z"/>
<path fill="#231F20" d="M137.353,117.601c-0.641,0.001-1.178-0.13-1.611-0.394c-0.434-0.263-0.782-0.605-1.047-1.025
	c-0.264-0.42-0.453-0.894-0.566-1.422c-0.114-0.527-0.171-1.055-0.172-1.582l-0.019-17.953c-0.001-0.716,0.043-1.379,0.13-1.988
	c0.087-0.609,0.281-1.133,0.582-1.574c0.301-0.44,0.74-0.786,1.318-1.038c0.577-0.251,1.356-0.378,2.336-0.379l12.094-0.013
	c0.364,0,0.707,0.065,1.027,0.196c0.32,0.132,0.599,0.308,0.839,0.526c0.239,0.22,0.427,0.48,0.566,0.782
	c0.139,0.301,0.208,0.621,0.208,0.96c0,0.339-0.068,0.656-0.206,0.952c-0.138,0.296-0.326,0.553-0.564,0.773
	c-0.239,0.22-0.518,0.394-0.838,0.519c-0.321,0.126-0.663,0.189-1.027,0.189l-9.701,0.01l0.006,6.104l8.854-0.009
	c0.364,0,0.707,0.062,1.027,0.187c0.32,0.125,0.6,0.301,0.839,0.526c0.239,0.226,0.428,0.487,0.566,0.782
	c0.138,0.295,0.207,0.612,0.208,0.951c0,0.339-0.068,0.656-0.206,0.952c-0.138,0.295-0.327,0.553-0.565,0.773
	c-0.238,0.22-0.518,0.393-0.838,0.519c-0.32,0.125-0.662,0.189-1.026,0.189l-8.854,0.009l0.007,6.593l10.173-0.011
	c0.339,0,0.656,0.063,0.952,0.187c0.294,0.125,0.556,0.301,0.782,0.527c0.226,0.226,0.402,0.486,0.528,0.781
	c0.126,0.295,0.189,0.612,0.189,0.951c0,0.339-0.062,0.656-0.187,0.952c-0.125,0.295-0.301,0.553-0.527,0.773
	c-0.226,0.22-0.487,0.393-0.781,0.519c-0.295,0.126-0.612,0.189-0.951,0.189L137.353,117.601z"/>
<path fill="#231F20" d="M164.656,95.192c-0.365,0-0.71-0.065-1.037-0.197c-0.327-0.131-0.613-0.31-0.858-0.536
	c-0.245-0.226-0.44-0.489-0.585-0.791s-0.217-0.621-0.218-0.96c0-0.339,0.072-0.662,0.216-0.971
	c0.144-0.308,0.338-0.575,0.583-0.801c0.245-0.226,0.53-0.405,0.857-0.537c0.326-0.133,0.671-0.199,1.036-0.199l17.199-0.018
	c0.364,0,0.71,0.065,1.037,0.197c0.327,0.131,0.613,0.31,0.858,0.536c0.245,0.226,0.44,0.493,0.585,0.8
	c0.145,0.308,0.217,0.631,0.218,0.97c0,0.339-0.072,0.659-0.216,0.961c-0.144,0.302-0.338,0.565-0.583,0.792
	c-0.245,0.226-0.53,0.405-0.857,0.537c-0.326,0.133-0.672,0.199-1.036,0.199l-5.049,0.005l0.02,18.706
	c0.001,0.516-0.09,0.996-0.272,1.442c-0.181,0.447-0.432,0.836-0.752,1.169c-0.32,0.333-0.691,0.595-1.111,0.783
	c-0.421,0.189-0.876,0.283-1.366,0.284c-0.49,0.001-0.945-0.093-1.366-0.281c-0.422-0.188-0.789-0.448-1.103-0.781
	c-0.314-0.332-0.563-0.721-0.745-1.167c-0.183-0.446-0.274-0.925-0.275-1.441l-0.02-18.706L164.656,95.192z"/>
<path fill="#231F20" d="M183.235,103.894c-0.002-2.073,0.275-3.988,0.832-5.747c0.557-1.759,1.394-3.273,2.51-4.543
	c1.116-1.27,2.515-2.264,4.198-2.981c1.682-0.717,3.654-1.078,5.914-1.08c2.198-0.002,4.138,0.341,5.823,1.03
	c1.684,0.689,3.091,1.664,4.223,2.925c1.132,1.261,1.987,2.77,2.567,4.528c0.579,1.758,0.87,3.705,0.873,5.84
	c0.002,2.097-0.278,4.025-0.841,5.784s-1.409,3.27-2.539,4.533c-1.129,1.263-2.534,2.248-4.217,2.953
	c-1.683,0.705-3.635,1.059-5.858,1.061c-2.173,0.002-4.098-0.335-5.775-1.011c-1.677-0.676-3.088-1.638-4.232-2.887
	c-1.144-1.248-2.01-2.751-2.596-4.509C183.531,108.032,183.237,106.067,183.235,103.894z M190.563,103.887
	c0.003,3.115,0.502,5.465,1.496,7.053c0.993,1.588,2.545,2.381,4.655,2.378c2.073-0.002,3.616-0.795,4.632-2.379
	c1.016-1.583,1.522-3.939,1.519-7.065c-0.002-1.508-0.125-2.848-0.372-4.022c-0.246-1.174-0.621-2.163-1.124-2.966
	c-0.503-0.803-1.141-1.414-1.914-1.835c-0.773-0.42-1.693-0.629-2.761-0.628c-1.055,0.001-1.968,0.212-2.74,0.634
	c-0.772,0.422-1.409,1.035-1.91,1.839c-0.501,0.804-0.874,1.794-1.118,2.969C190.682,101.038,190.561,102.379,190.563,103.887z"/>
<path fill="#231F20" d="M54.312,167.917c-1.016,0.001-1.857-0.204-2.525-0.618c-0.668-0.413-1.199-0.958-1.595-1.634
	c-0.395-0.676-0.669-1.442-0.82-2.298c-0.151-0.856-0.227-1.735-0.228-2.637l-0.028-26.511c-0.001-1.26,0.12-2.351,0.363-3.272
	c0.243-0.921,0.647-1.674,1.211-2.258c0.563-0.583,1.3-1.016,2.212-1.3c0.912-0.283,2.035-0.425,3.37-0.426l6.994-0.007
	c7.69-0.008,13.492,1.683,17.407,5.073c3.915,3.39,5.875,8.61,5.883,15.661c0.004,3.441-0.529,6.431-1.597,8.971
	c-1.07,2.539-2.586,4.642-4.548,6.308c-1.963,1.666-4.327,2.905-7.09,3.716c-2.763,0.811-5.828,1.218-9.193,1.222L54.312,167.917z
	 M59.466,161.594l3.864-0.004c2.143-0.002,3.986-0.248,5.527-0.739c1.541-0.49,2.815-1.328,3.819-2.514
	c1.005-1.185,1.746-2.657,2.224-4.416c0.478-1.758,0.715-3.916,0.712-6.474c-0.005-4.757-0.996-8.3-2.972-10.63
	s-5.006-3.492-9.085-3.488l-4.118,0.004L59.466,161.594z"/>
<path fill="#231F20" d="M101.288,162.368c0.001,0.771-0.135,1.491-0.406,2.158c-0.273,0.668-0.647,1.252-1.126,1.75
	c-0.479,0.499-1.033,0.89-1.662,1.172c-0.631,0.283-1.311,0.425-2.045,0.426c-0.733,0.001-1.415-0.14-2.046-0.421
	c-0.63-0.28-1.18-0.67-1.651-1.168c-0.47-0.497-0.842-1.08-1.116-1.748c-0.273-0.666-0.41-1.386-0.411-2.157l-0.032-30.29
	c-0.001-0.865,0.171-1.622,0.519-2.271c0.348-0.649,0.812-1.19,1.395-1.623c0.582-0.433,1.263-0.758,2.043-0.975
	c0.781-0.217,1.602-0.326,2.468-0.327l11.309-0.012c2.087-0.002,4.089,0.132,6.008,0.403c1.918,0.271,3.607,0.782,5.064,1.532
	c1.458,0.751,2.626,1.793,3.501,3.127c0.875,1.335,1.315,3.073,1.317,5.217c0.001,1.166-0.158,2.271-0.476,3.314
	c-0.318,1.044-0.835,1.984-1.548,2.821c-0.714,0.838-1.649,1.553-2.805,2.147c-1.156,0.593-2.569,1.032-4.243,1.316l0,0.113
	c1.203,0.149,2.233,0.37,3.089,0.66c0.856,0.29,1.584,0.675,2.188,1.154c0.602,0.479,1.091,1.056,1.468,1.733
	c0.376,0.677,0.687,1.475,0.932,2.397s0.445,1.969,0.596,3.144c0.151,1.176,0.294,2.505,0.428,3.991
	c0.037,0.413,0.066,0.813,0.085,1.198c0.019,0.386,0.029,0.766,0.029,1.143c0.001,0.809-0.073,1.551-0.223,2.227
	c-0.151,0.678-0.412,1.261-0.788,1.75c-0.376,0.49-0.892,0.871-1.549,1.144c-0.659,0.274-1.504,0.411-2.538,0.412
	c-0.94,0.001-1.725-0.214-2.356-0.646c-0.63-0.432-1.152-1.024-1.566-1.775c-0.415-0.751-0.731-1.621-0.948-2.608
	c-0.217-0.987-0.393-2.045-0.525-3.173c-0.19-1.635-0.385-3.003-0.583-4.103c-0.198-1.1-0.515-1.988-0.948-2.664
	c-0.433-0.676-1.049-1.155-1.848-1.437c-0.8-0.281-1.896-0.421-3.286-0.419l-5.726,0.006L101.288,162.368z M105.612,144.454
	c1.015-0.001,2.031-0.063,3.046-0.186c1.015-0.123,1.932-0.378,2.749-0.764c0.817-0.386,1.48-0.951,1.986-1.694
	s0.76-1.735,0.759-2.976c-0.002-1.428-0.247-2.5-0.737-3.214c-0.489-0.714-1.138-1.249-1.948-1.606
	c-0.808-0.356-1.744-0.576-2.807-0.66c-1.062-0.083-2.167-0.125-3.313-0.124l-4.26,0.004l0.012,11.225L105.612,144.454z"/>
<path fill="#231F20" d="M128.042,147.392c-0.003-3.102,0.412-5.97,1.246-8.603c0.833-2.633,2.086-4.9,3.758-6.801
	c1.671-1.901,3.765-3.389,6.285-4.463c2.517-1.074,5.469-1.613,8.853-1.617c3.29-0.003,6.196,0.511,8.717,1.543
	c2.521,1.031,4.627,2.491,6.322,4.379c1.694,1.888,2.974,4.147,3.842,6.778c0.868,2.632,1.303,5.545,1.307,8.742
	c0.003,3.14-0.416,6.027-1.259,8.66c-0.844,2.633-2.11,4.895-3.801,6.787c-1.69,1.892-3.794,3.366-6.313,4.42
	c-2.519,1.056-5.441,1.585-8.77,1.589c-3.254,0.003-6.135-0.501-8.646-1.513c-2.512-1.014-4.623-2.454-6.336-4.323
	c-1.714-1.869-3.009-4.119-3.885-6.75C128.486,153.587,128.045,150.645,128.042,147.392z M139.012,147.381
	c0.005,4.663,0.751,8.183,2.24,10.56c1.488,2.378,3.812,3.564,6.97,3.56c3.102-0.003,5.413-1.19,6.935-3.561
	c1.52-2.371,2.278-5.896,2.273-10.578c-0.002-2.256-0.188-4.263-0.556-6.021c-0.369-1.757-0.931-3.238-1.684-4.44
	c-0.753-1.202-1.708-2.118-2.865-2.747c-1.158-0.628-2.536-0.942-4.133-0.941c-1.58,0.002-2.947,0.319-4.102,0.949
	c-1.156,0.631-2.11,1.549-2.86,2.753s-1.309,2.686-1.673,4.444C139.192,143.118,139.01,145.124,139.012,147.381z"/>
<path fill="#231F20" d="M184.288,162.281c0.001,0.771-0.14,1.491-0.421,2.158c-0.28,0.668-0.661,1.252-1.14,1.75
	c-0.479,0.499-1.033,0.89-1.662,1.172c-0.629,0.283-1.311,0.425-2.044,0.426c-0.734,0.001-1.416-0.14-2.046-0.421
	c-0.63-0.28-1.181-0.67-1.651-1.168c-0.471-0.497-0.843-1.08-1.116-1.748c-0.274-0.666-0.411-1.386-0.412-2.157l-0.029-27.723
	c-0.001-1.072,0.069-2.083,0.209-3.032c0.14-0.949,0.439-1.772,0.899-2.468s1.137-1.247,2.03-1.652
	c0.892-0.405,2.101-0.608,3.623-0.61l10.182-0.011c2.162-0.002,4.245,0.184,6.247,0.558c2.004,0.374,3.776,1.035,5.319,1.982
	c1.543,0.949,2.775,2.239,3.699,3.874c0.923,1.635,1.385,3.703,1.388,6.204c0.002,2.162-0.395,4.038-1.192,5.628
	c-0.797,1.59-1.924,2.912-3.38,3.966s-3.208,1.841-5.257,2.361c-2.05,0.519-4.315,0.78-6.796,0.782l-6.459,0.007L184.288,162.281z
	 M189.009,145.861c1.203-0.001,2.303-0.105,3.3-0.314c0.996-0.208,1.846-0.552,2.55-1.032c0.705-0.48,1.254-1.115,1.649-1.905
	c0.393-0.79,0.589-1.853,0.588-3.187c-0.001-1.316-0.191-2.355-0.567-3.116c-0.377-0.761-0.899-1.376-1.568-1.846
	c-0.668-0.469-1.467-0.806-2.399-1.012c-0.93-0.206-1.96-0.308-3.089-0.307l-5.217,0.006l0.013,12.72L189.009,145.861z"/>
<polygon fill="#F48220" points="133.654,71.291 121.947,71.291 121.947,73.987 135.002,73.987 135.002,53.533 144.748,53.533 
	143.191,50.836 133.654,50.836 "/>
<polygon fill="#F48220" points="113.758,50.836 112.201,53.533 120.599,53.533 120.599,50.836 "/>
<polygon fill="#EB2227" points="128.475,25.35 143.191,50.836 143.4,50.836 127.126,22.653 110.853,50.836 113.758,50.836 "/>
<rect x="120.599" y="53.533" fill="#EB2227" width="1.348" height="17.758"/>
<polygon fill="#EB2227" points="113.758,50.836 120.599,50.836 120.599,53.533 121.947,53.533 121.947,71.291 133.654,71.291 
	133.654,50.836 143.191,50.836 128.475,25.35 "/>
<polygon fill="#F48220" points="135.002,185.43 121.947,185.43 121.947,205.885 112.201,205.885 128.475,234.067 144.748,205.885 
	135.002,205.885 "/>
<polygon fill="#EB2227" points="133.654,203.188 133.654,182.733 120.599,182.733 120.599,203.188 110.853,203.188 127.126,231.37 
	143.4,203.188 "/>
</svg>
