<?xml version="1.0" encoding="utf-8"?>
<!-- Generator: Adobe Illustrator 17.0.0, SVG Export Plug-In . SVG Version: 6.00 Build 0)  -->
<!DOCTYPE svg PUBLIC "-//W3C//DTD SVG 1.1//EN" "http://www.w3.org/Graphics/SVG/1.1/DTD/svg11.dtd">
<svg version="1.1" id="Layer_1" xmlns="http://www.w3.org/2000/svg" xmlns:xlink="http://www.w3.org/1999/xlink" x="0px" y="0px"
	 width="435.58px" height="105.81px" viewBox="0 0 435.58 105.81" enable-background="new 0 0 435.58 105.81" xml:space="preserve">
<path fill="#F48220" d="M435.58,88.21c0,9.72-7.88,17.6-17.6,17.6H17.6c-9.72,0-17.6-7.88-17.6-17.6V23.95
	c0-9.72,7.88-17.6,17.6-17.6h400.38c9.72,0,17.6,7.88,17.6,17.6V88.21z"/>
<path fill="#FEE000" d="M435.58,81.86c0,9.72-7.88,17.6-17.6,17.6H17.6C7.88,99.46,0,91.58,0,81.86V17.6C0,7.88,7.88,0,17.6,0
	h400.38c9.72,0,17.6,7.88,17.6,17.6V81.86z"/>
<path fill="#FCCD0D" d="M100.29,53.13c0.63,0,1.15,0.08,1.55,0.25c0.4,0.17,0.7,0.43,0.91,0.78c0.21,0.35,0.35,0.78,0.43,1.3
	c0.07,0.52,0.11,1.12,0.11,1.8v7.25c0,1.27-0.08,2.33-0.25,3.2c-0.17,0.87-0.49,1.59-0.96,2.18c-0.47,0.58-1.13,1.05-1.98,1.4
	c-0.85,0.35-1.96,0.63-3.32,0.84c-0.58,0.1-1.21,0.2-1.87,0.3c-0.67,0.1-1.34,0.2-2.03,0.28c-0.69,0.08-1.37,0.15-2.05,0.21
	c-0.67,0.06-1.3,0.08-1.89,0.08c-2.86,0-5.43-0.37-7.73-1.11c-2.3-0.74-4.25-1.87-5.88-3.38c-1.62-1.52-2.87-3.44-3.74-5.77
	c-0.87-2.33-1.3-5.07-1.3-8.24c0-2.55,0.37-4.94,1.11-7.19c0.74-2.25,1.87-4.21,3.38-5.89c1.52-1.68,3.44-3.01,5.78-3.98
	c2.34-0.97,5.1-1.46,8.3-1.46c1.04,0,2.07,0.05,3.09,0.16c1.02,0.1,2.01,0.25,2.96,0.42c0.95,0.18,1.86,0.4,2.73,0.66
	c0.87,0.26,1.67,0.54,2.4,0.85c0.73,0.31,1.27,0.73,1.63,1.25c0.36,0.53,0.54,1.1,0.54,1.72c0,1.01-0.31,1.77-0.93,2.29
	c-0.62,0.52-1.38,0.78-2.29,0.78c-0.46,0-1.06-0.09-1.8-0.28c-0.75-0.19-1.55-0.4-2.4-0.63c-0.85-0.24-1.72-0.45-2.6-0.63
	c-0.88-0.19-1.69-0.28-2.42-0.28c-1.78,0-3.31,0.29-4.59,0.86c-1.27,0.58-2.32,1.41-3.13,2.5c-0.81,1.09-1.4,2.41-1.78,3.97
	c-0.37,1.56-0.56,3.31-0.56,5.26c0,2.16,0.17,3.99,0.5,5.49c0.33,1.5,0.86,2.72,1.59,3.66c0.73,0.94,1.67,1.62,2.81,2.05
	c1.14,0.42,2.52,0.63,4.13,0.63c0.97,0,1.95-0.03,2.93-0.08c0.98-0.06,1.93-0.2,2.86-0.43v-7.96h-3.26c-0.5,0-0.97-0.05-1.39-0.13
	c-0.42-0.09-0.79-0.24-1.11-0.44c-0.32-0.2-0.56-0.47-0.74-0.8c-0.18-0.33-0.27-0.74-0.27-1.23c0-0.75,0.25-1.35,0.74-1.82
	c0.49-0.47,1.25-0.71,2.27-0.71c1.61,0,3.19,0,4.74,0.01C97.08,53.13,98.67,53.13,100.29,53.13z"/>
<path fill="#FCCD0D" d="M138.47,64.79c0.11,0.29,0.24,0.6,0.37,0.91c0.13,0.32,0.25,0.64,0.37,0.96c0.11,0.33,0.21,0.64,0.28,0.94
	c0.07,0.3,0.11,0.57,0.11,0.82c0,0.6-0.11,1.13-0.33,1.59s-0.52,0.85-0.89,1.17c-0.37,0.32-0.81,0.56-1.3,0.73
	c-0.5,0.17-1.02,0.25-1.57,0.25c-0.63,0-1.18-0.09-1.63-0.27c-0.45-0.18-0.86-0.46-1.22-0.85c-0.36-0.39-0.69-0.9-0.99-1.52
	c-0.3-0.62-0.62-1.39-0.96-2.3l-1.17-3.09h-13.77l-1,3.09c-0.29,0.92-0.59,1.7-0.89,2.34c-0.3,0.63-0.63,1.14-1,1.52
	s-0.78,0.66-1.25,0.83c-0.47,0.17-1.02,0.25-1.65,0.25c-0.55,0-1.07-0.08-1.57-0.25c-0.5-0.17-0.93-0.41-1.3-0.73
	c-0.37-0.32-0.67-0.71-0.89-1.17c-0.22-0.46-0.33-0.99-0.33-1.59c0-0.24,0.04-0.52,0.11-0.82c0.07-0.3,0.17-0.61,0.28-0.94
	c0.11-0.32,0.24-0.64,0.37-0.96c0.13-0.32,0.25-0.62,0.37-0.91l6.55-17.69c0.62-1.65,1.2-3.12,1.76-4.39
	c0.56-1.27,1.18-2.35,1.85-3.22c0.67-0.88,1.45-1.54,2.32-1.98c0.88-0.44,1.94-0.67,3.19-0.67c1.17,0,2.17,0.17,2.99,0.52
	c0.83,0.35,1.57,0.92,2.24,1.73c0.67,0.8,1.3,1.86,1.9,3.18c0.6,1.31,1.27,2.93,2,4.84L138.47,64.79z M122.6,43.47l-5.35,15.65h10.8
	l-5.33-15.65H122.6z"/>
<path fill="#FCCD0D" d="M178.69,45.32c-1.44,3.57-2.73,6.75-3.87,9.54c-0.49,1.2-0.96,2.37-1.41,3.5c-0.45,1.14-0.86,2.15-1.23,3.04
	s-0.66,1.61-0.89,2.17l-0.32,0.8c-0.34,0.83-0.7,1.61-1.08,2.36c-0.38,0.75-0.82,1.4-1.3,1.96c-0.49,0.56-1.03,1.01-1.64,1.34
	c-0.61,0.33-1.31,0.5-2.1,0.5c-0.73,0-1.37-0.12-1.92-0.38c-0.55-0.25-1.06-0.63-1.52-1.14s-0.9-1.15-1.3-1.92
	c-0.41-0.77-0.81-1.67-1.22-2.69l-7.66-18.98v23.22c0,0.49-0.09,0.95-0.28,1.39c-0.19,0.44-0.44,0.82-0.77,1.13
	c-0.33,0.32-0.71,0.57-1.14,0.76c-0.44,0.19-0.9,0.28-1.39,0.28c-0.49,0-0.95-0.09-1.39-0.28c-0.44-0.19-0.82-0.44-1.13-0.76
	c-0.32-0.32-0.57-0.69-0.75-1.13c-0.19-0.44-0.28-0.9-0.28-1.39V46.17c0-1.41,0.07-2.7,0.22-3.86c0.15-1.16,0.44-2.15,0.89-2.96
	c0.45-0.81,1.07-1.44,1.87-1.89c0.8-0.45,1.86-0.67,3.18-0.67c0.94,0,1.76,0.16,2.47,0.49c0.71,0.32,1.36,0.85,1.97,1.57
	c0.61,0.72,1.2,1.66,1.78,2.81c0.57,1.15,1.2,2.55,1.89,4.19l6.5,15.7h0.19l6.57-15.7c0.58-1.39,1.16-2.65,1.72-3.77
	c0.56-1.12,1.16-2.07,1.79-2.85c0.63-0.78,1.32-1.38,2.07-1.8c0.75-0.42,1.6-0.63,2.56-0.63c1.04,0,1.94,0.15,2.71,0.46
	c0.77,0.31,1.4,0.8,1.9,1.48c0.49,0.68,0.86,1.56,1.11,2.64c0.24,1.08,0.37,2.38,0.37,3.91v23.34c0,0.49-0.09,0.95-0.28,1.39
	c-0.19,0.44-0.44,0.82-0.77,1.13c-0.32,0.32-0.71,0.57-1.14,0.76c-0.44,0.19-0.9,0.28-1.39,0.28c-0.49,0-0.95-0.09-1.39-0.28
	c-0.44-0.19-0.82-0.44-1.13-0.76c-0.32-0.32-0.57-0.69-0.75-1.13c-0.19-0.44-0.28-0.9-0.28-1.39V45.32z"/>
<path fill="#FCCD0D" d="M196.82,72.16c-0.83,0-1.52-0.17-2.08-0.51c-0.56-0.34-1.01-0.78-1.35-1.33c-0.34-0.54-0.58-1.16-0.73-1.84
	s-0.22-1.36-0.22-2.04V43.25c0-0.92,0.06-1.78,0.17-2.57c0.11-0.79,0.37-1.46,0.75-2.03c0.39-0.57,0.96-1.01,1.7-1.34
	c0.75-0.32,1.75-0.49,3.02-0.49h15.62c0.47,0,0.91,0.08,1.33,0.25c0.41,0.17,0.77,0.4,1.08,0.68c0.31,0.28,0.55,0.62,0.73,1.01
	c0.18,0.39,0.27,0.8,0.27,1.24c0,0.44-0.09,0.85-0.27,1.23c-0.18,0.38-0.42,0.71-0.73,1c-0.31,0.28-0.67,0.51-1.08,0.67
	c-0.41,0.16-0.86,0.24-1.33,0.24h-12.53v7.89h11.44c0.47,0,0.91,0.08,1.33,0.24c0.41,0.16,0.77,0.39,1.08,0.68s0.55,0.63,0.73,1.01
	c0.18,0.38,0.27,0.79,0.27,1.23c0,0.44-0.09,0.85-0.27,1.23c-0.18,0.38-0.42,0.71-0.73,1c-0.31,0.28-0.67,0.51-1.08,0.67
	c-0.41,0.16-0.86,0.24-1.33,0.24h-11.44v8.52h13.14c0.44,0,0.85,0.08,1.23,0.24c0.38,0.16,0.72,0.39,1.01,0.68
	c0.29,0.29,0.52,0.63,0.68,1.01c0.16,0.38,0.24,0.79,0.24,1.23c0,0.44-0.08,0.85-0.24,1.23c-0.16,0.38-0.39,0.71-0.68,1
	c-0.29,0.28-0.63,0.51-1.01,0.67c-0.38,0.16-0.79,0.24-1.23,0.24H196.82z"/>
<path fill="#FCCD0D" d="M235.16,54.52c0-2.68,0.36-5.15,1.08-7.42s1.8-4.23,3.25-5.87c1.44-1.64,3.25-2.92,5.43-3.84
	c2.17-0.92,4.72-1.39,7.64-1.39c2.84,0,5.35,0.45,7.52,1.34c2.17,0.89,3.99,2.15,5.45,3.78c1.46,1.63,2.56,3.58,3.31,5.85
	c0.75,2.27,1.12,4.79,1.12,7.54c0,2.71-0.37,5.2-1.1,7.47c-0.73,2.27-1.82,4.22-3.29,5.85c-1.46,1.63-3.28,2.9-5.45,3.81
	c-2.17,0.91-4.7,1.36-7.57,1.36c-2.81,0-5.29-0.44-7.46-1.31c-2.17-0.88-3.99-2.12-5.46-3.74c-1.48-1.61-2.59-3.56-3.35-5.83
	C235.54,59.86,235.16,57.32,235.16,54.52z M244.63,54.52c0,4.02,0.64,7.06,1.92,9.11c1.28,2.05,3.29,3.08,6.01,3.08
	c2.68,0,4.67-1.02,5.99-3.07c1.31-2.04,1.97-5.09,1.97-9.13c0-1.95-0.16-3.68-0.48-5.19c-0.32-1.52-0.8-2.8-1.45-3.83
	c-0.65-1.04-1.47-1.83-2.47-2.37c-1-0.54-2.19-0.82-3.57-0.82c-1.36,0-2.54,0.27-3.54,0.82c-1,0.54-1.82,1.33-2.47,2.37
	c-0.65,1.04-1.13,2.32-1.45,3.83C244.78,50.84,244.63,52.57,244.63,54.52z"/>
<path fill="#FCCD0D" d="M286.14,65.57h0.12l7.37-24.77c0.19-0.68,0.46-1.27,0.8-1.76c0.34-0.5,0.72-0.9,1.13-1.23
	c0.41-0.33,0.85-0.57,1.31-0.73c0.46-0.16,0.92-0.24,1.38-0.24c0.47,0,0.92,0.08,1.35,0.25c0.43,0.17,0.81,0.42,1.14,0.74
	c0.33,0.32,0.6,0.73,0.79,1.22c0.19,0.49,0.29,1.05,0.29,1.68c0,0.73-0.13,1.51-0.39,2.34l-6.33,19.54
	c-0.54,1.64-1.05,3.05-1.55,4.25c-0.5,1.19-1.07,2.19-1.72,2.98c-0.65,0.79-1.43,1.38-2.34,1.76c-0.91,0.38-2.04,0.57-3.38,0.57
	c-1.23,0-2.27-0.14-3.12-0.41c-0.84-0.27-1.59-0.75-2.23-1.44c-0.64-0.68-1.22-1.59-1.74-2.72c-0.52-1.14-1.06-2.56-1.63-4.28
	l-6.79-20.56c-0.11-0.33-0.19-0.63-0.23-0.93c-0.04-0.29-0.06-0.58-0.06-0.85c0-0.63,0.11-1.2,0.33-1.7c0.22-0.5,0.52-0.94,0.89-1.3
	c0.37-0.37,0.79-0.65,1.27-0.84c0.47-0.19,0.96-0.29,1.48-0.29c0.44,0,0.88,0.08,1.33,0.23c0.45,0.15,0.87,0.39,1.27,0.72
	c0.4,0.33,0.76,0.74,1.08,1.25c0.32,0.51,0.59,1.12,0.8,1.84L286.14,65.57z"/>
<path fill="#FCCD0D" d="M310.93,72.16c-0.83,0-1.52-0.17-2.08-0.51c-0.56-0.34-1.01-0.78-1.35-1.33c-0.34-0.54-0.58-1.16-0.73-1.84
	c-0.15-0.68-0.22-1.36-0.22-2.04V43.25c0-0.92,0.06-1.78,0.17-2.57c0.11-0.79,0.37-1.46,0.75-2.03c0.39-0.57,0.96-1.01,1.7-1.34
	c0.75-0.32,1.75-0.49,3.02-0.49h15.62c0.47,0,0.91,0.08,1.33,0.25c0.41,0.17,0.77,0.4,1.08,0.68c0.31,0.28,0.55,0.62,0.73,1.01
	c0.18,0.39,0.27,0.8,0.27,1.24c0,0.44-0.09,0.85-0.27,1.23c-0.18,0.38-0.42,0.71-0.73,1c-0.31,0.28-0.67,0.51-1.08,0.67
	c-0.41,0.16-0.86,0.24-1.33,0.24h-12.53v7.89h11.44c0.47,0,0.91,0.08,1.33,0.24c0.41,0.16,0.77,0.39,1.08,0.68
	c0.31,0.29,0.55,0.63,0.73,1.01c0.18,0.38,0.27,0.79,0.27,1.23c0,0.44-0.09,0.85-0.27,1.23c-0.18,0.38-0.42,0.71-0.73,1
	c-0.31,0.28-0.67,0.51-1.08,0.67c-0.41,0.16-0.86,0.24-1.33,0.24h-11.44v8.52h13.14c0.44,0,0.85,0.08,1.23,0.24
	c0.38,0.16,0.72,0.39,1.01,0.68c0.29,0.29,0.52,0.63,0.68,1.01c0.16,0.38,0.24,0.79,0.24,1.23c0,0.44-0.08,0.85-0.24,1.23
	c-0.16,0.38-0.39,0.71-0.68,1c-0.29,0.28-0.63,0.51-1.01,0.67c-0.38,0.16-0.79,0.24-1.23,0.24H310.93z"/>
<path fill="#FCCD0D" d="M345.31,67.42c0,0.67-0.12,1.29-0.35,1.86c-0.24,0.58-0.56,1.08-0.97,1.51c-0.41,0.43-0.89,0.77-1.44,1.01
	c-0.54,0.24-1.13,0.37-1.76,0.37c-0.63,0-1.22-0.12-1.76-0.37c-0.54-0.24-1.02-0.58-1.42-1.01c-0.41-0.43-0.73-0.93-0.96-1.51
	c-0.24-0.58-0.35-1.2-0.35-1.86V41.28c0-0.75,0.15-1.4,0.45-1.96c0.3-0.56,0.7-1.03,1.21-1.4c0.5-0.37,1.09-0.65,1.76-0.84
	c0.67-0.19,1.38-0.28,2.13-0.28h9.76c1.8,0,3.53,0.12,5.18,0.35c1.66,0.24,3.11,0.68,4.37,1.33c1.26,0.65,2.26,1.55,3.02,2.7
	c0.75,1.15,1.13,2.65,1.13,4.5c0,1.01-0.14,1.96-0.41,2.86c-0.28,0.9-0.72,1.71-1.34,2.43c-0.62,0.72-1.42,1.34-2.42,1.85
	c-1,0.51-2.22,0.89-3.66,1.13v0.1c1.04,0.13,1.93,0.32,2.66,0.57c0.74,0.25,1.37,0.58,1.89,1c0.52,0.41,0.94,0.91,1.27,1.5
	c0.33,0.58,0.59,1.27,0.8,2.07c0.21,0.79,0.38,1.7,0.51,2.71c0.13,1.01,0.25,2.16,0.37,3.44c0.03,0.36,0.06,0.7,0.07,1.03
	c0.02,0.33,0.02,0.66,0.02,0.99c0,0.7-0.07,1.34-0.2,1.92c-0.13,0.58-0.36,1.09-0.68,1.51c-0.32,0.42-0.77,0.75-1.34,0.99
	c-0.57,0.24-1.3,0.35-2.19,0.35c-0.81,0-1.49-0.19-2.03-0.56c-0.54-0.37-0.99-0.88-1.35-1.53c-0.36-0.65-0.63-1.4-0.82-2.25
	c-0.19-0.85-0.34-1.76-0.45-2.74c-0.16-1.41-0.33-2.59-0.5-3.54c-0.17-0.95-0.44-1.72-0.82-2.3c-0.37-0.58-0.9-1-1.59-1.24
	c-0.69-0.24-1.63-0.37-2.84-0.37h-4.94V67.42z M349.06,51.96c0.88,0,1.75-0.05,2.63-0.16c0.88-0.11,1.67-0.32,2.37-0.66
	c0.71-0.33,1.28-0.82,1.72-1.46c0.44-0.64,0.66-1.5,0.66-2.57c0-1.23-0.21-2.16-0.63-2.77c-0.42-0.62-0.98-1.08-1.68-1.39
	c-0.7-0.31-1.5-0.5-2.42-0.57c-0.92-0.07-1.87-0.11-2.86-0.11h-3.67v9.69H349.06z"/>
<path fill="#F48220" d="M100.29,49.94c0.63,0,1.15,0.08,1.55,0.25c0.4,0.17,0.7,0.43,0.91,0.78c0.21,0.35,0.35,0.78,0.43,1.3
	s0.11,1.12,0.11,1.8v7.25c0,1.27-0.08,2.33-0.25,3.2c-0.17,0.87-0.49,1.59-0.96,2.18c-0.47,0.58-1.13,1.05-1.98,1.4
	c-0.85,0.35-1.96,0.63-3.32,0.84c-0.58,0.1-1.21,0.2-1.87,0.3c-0.67,0.1-1.34,0.2-2.03,0.28c-0.69,0.08-1.37,0.15-2.05,0.21
	c-0.67,0.06-1.3,0.08-1.89,0.08c-2.86,0-5.43-0.37-7.73-1.11c-2.3-0.74-4.25-1.87-5.88-3.38c-1.62-1.52-2.87-3.44-3.74-5.77
	c-0.87-2.33-1.3-5.07-1.3-8.24c0-2.55,0.37-4.94,1.11-7.19c0.74-2.25,1.87-4.21,3.38-5.89c1.52-1.68,3.44-3.01,5.78-3.98
	c2.34-0.97,5.1-1.46,8.3-1.46c1.04,0,2.07,0.05,3.09,0.16c1.02,0.1,2.01,0.25,2.96,0.42c0.95,0.18,1.86,0.4,2.73,0.66
	c0.87,0.26,1.67,0.54,2.4,0.85c0.73,0.31,1.27,0.73,1.63,1.25c0.36,0.53,0.54,1.1,0.54,1.72c0,1.01-0.31,1.77-0.93,2.29
	c-0.62,0.52-1.38,0.78-2.29,0.78c-0.46,0-1.06-0.09-1.8-0.28c-0.75-0.19-1.55-0.4-2.4-0.63c-0.85-0.24-1.72-0.45-2.6-0.63
	c-0.88-0.19-1.69-0.28-2.42-0.28c-1.78,0-3.31,0.29-4.59,0.86c-1.27,0.58-2.32,1.41-3.13,2.5c-0.81,1.09-1.4,2.41-1.78,3.97
	c-0.37,1.56-0.56,3.31-0.56,5.26c0,2.16,0.17,3.99,0.5,5.49c0.33,1.5,0.86,2.72,1.59,3.66c0.73,0.94,1.67,1.62,2.81,2.05
	c1.14,0.42,2.52,0.63,4.13,0.63c0.97,0,1.95-0.03,2.93-0.08c0.98-0.06,1.93-0.2,2.86-0.43v-7.96h-3.26c-0.5,0-0.97-0.05-1.39-0.13
	c-0.42-0.09-0.79-0.24-1.11-0.44c-0.32-0.2-0.56-0.47-0.74-0.8c-0.18-0.33-0.27-0.74-0.27-1.23c0-0.75,0.25-1.35,0.74-1.82
	c0.49-0.47,1.25-0.71,2.27-0.71c1.61,0,3.19,0,4.74,0.01C97.08,49.93,98.67,49.94,100.29,49.94z"/>
<path fill="#F48220" d="M138.47,61.59c0.11,0.29,0.24,0.6,0.37,0.91c0.13,0.32,0.25,0.64,0.37,0.96c0.11,0.33,0.21,0.64,0.28,0.94
	c0.07,0.3,0.11,0.57,0.11,0.82c0,0.6-0.11,1.13-0.33,1.59c-0.22,0.46-0.52,0.85-0.89,1.17c-0.37,0.32-0.81,0.56-1.3,0.73
	c-0.5,0.17-1.02,0.25-1.57,0.25c-0.63,0-1.18-0.09-1.63-0.27c-0.45-0.18-0.86-0.46-1.22-0.85c-0.36-0.39-0.69-0.9-0.99-1.52
	c-0.3-0.62-0.62-1.39-0.96-2.3l-1.17-3.09h-13.77l-1,3.09c-0.29,0.92-0.59,1.7-0.89,2.34c-0.3,0.63-0.63,1.14-1,1.52
	c-0.37,0.38-0.78,0.66-1.25,0.83c-0.47,0.17-1.02,0.25-1.65,0.25c-0.55,0-1.07-0.08-1.57-0.25c-0.5-0.17-0.93-0.41-1.3-0.73
	c-0.37-0.32-0.67-0.71-0.89-1.17c-0.22-0.46-0.33-0.99-0.33-1.59c0-0.24,0.04-0.52,0.11-0.82c0.07-0.3,0.17-0.61,0.28-0.94
	c0.11-0.32,0.24-0.64,0.37-0.96c0.13-0.32,0.25-0.62,0.37-0.91l6.55-17.69c0.62-1.65,1.2-3.12,1.76-4.39
	c0.56-1.27,1.18-2.35,1.85-3.22c0.67-0.88,1.45-1.54,2.32-1.98c0.88-0.44,1.94-0.67,3.19-0.67c1.17,0,2.17,0.17,2.99,0.52
	c0.83,0.35,1.57,0.92,2.24,1.73c0.67,0.8,1.3,1.86,1.9,3.18c0.6,1.31,1.27,2.93,2,4.84L138.47,61.59z M122.6,40.27l-5.35,15.65h10.8
	l-5.33-15.65H122.6z"/>
<path fill="#F48220" d="M178.69,42.12c-1.44,3.57-2.73,6.75-3.87,9.54c-0.49,1.2-0.96,2.37-1.41,3.5c-0.45,1.14-0.86,2.15-1.23,3.04
	s-0.66,1.61-0.89,2.17l-0.32,0.8c-0.34,0.83-0.7,1.61-1.08,2.36c-0.38,0.75-0.82,1.4-1.3,1.96c-0.49,0.56-1.03,1.01-1.64,1.34
	c-0.61,0.33-1.31,0.5-2.1,0.5c-0.73,0-1.37-0.12-1.92-0.38c-0.55-0.25-1.06-0.63-1.52-1.14s-0.9-1.15-1.3-1.92
	c-0.41-0.77-0.81-1.67-1.22-2.69l-7.66-18.98v23.22c0,0.49-0.09,0.95-0.28,1.39c-0.19,0.44-0.44,0.82-0.77,1.13
	c-0.33,0.32-0.71,0.57-1.14,0.76c-0.44,0.19-0.9,0.28-1.39,0.28c-0.49,0-0.95-0.09-1.39-0.28c-0.44-0.19-0.82-0.44-1.13-0.76
	c-0.32-0.32-0.57-0.69-0.75-1.13c-0.19-0.44-0.28-0.9-0.28-1.39V42.98c0-1.41,0.07-2.7,0.22-3.86c0.15-1.16,0.44-2.15,0.89-2.96
	c0.45-0.81,1.07-1.44,1.87-1.89c0.8-0.45,1.86-0.67,3.18-0.67c0.94,0,1.76,0.16,2.47,0.49c0.71,0.32,1.36,0.85,1.97,1.57
	c0.61,0.72,1.2,1.66,1.78,2.81c0.57,1.15,1.2,2.55,1.89,4.19l6.5,15.7h0.19l6.57-15.7c0.58-1.39,1.16-2.65,1.72-3.77
	c0.56-1.12,1.16-2.07,1.79-2.85c0.63-0.78,1.32-1.38,2.07-1.8c0.75-0.42,1.6-0.63,2.56-0.63c1.04,0,1.94,0.15,2.71,0.46
	c0.77,0.31,1.4,0.8,1.9,1.48c0.49,0.68,0.86,1.56,1.11,2.64c0.24,1.08,0.37,2.38,0.37,3.91v23.34c0,0.49-0.09,0.95-0.28,1.39
	c-0.19,0.44-0.44,0.82-0.77,1.13c-0.32,0.32-0.71,0.57-1.14,0.76c-0.44,0.19-0.9,0.28-1.39,0.28c-0.49,0-0.95-0.09-1.39-0.28
	c-0.44-0.19-0.82-0.44-1.13-0.76c-0.32-0.32-0.57-0.69-0.75-1.13c-0.19-0.44-0.28-0.9-0.28-1.39V42.12z"/>
<path fill="#F48220" d="M196.82,68.97c-0.83,0-1.52-0.17-2.08-0.51c-0.56-0.34-1.01-0.78-1.35-1.33c-0.34-0.54-0.58-1.16-0.73-1.84
	s-0.22-1.36-0.22-2.04V40.05c0-0.92,0.06-1.78,0.17-2.57c0.11-0.79,0.37-1.46,0.75-2.03c0.39-0.57,0.96-1.01,1.7-1.34
	c0.75-0.32,1.75-0.49,3.02-0.49h15.62c0.47,0,0.91,0.08,1.33,0.25c0.41,0.17,0.77,0.4,1.08,0.68c0.31,0.28,0.55,0.62,0.73,1.01
	c0.18,0.39,0.27,0.8,0.27,1.24c0,0.44-0.09,0.85-0.27,1.23c-0.18,0.38-0.42,0.71-0.73,1c-0.31,0.28-0.67,0.51-1.08,0.67
	c-0.41,0.16-0.86,0.24-1.33,0.24h-12.53v7.89h11.44c0.47,0,0.91,0.08,1.33,0.24c0.41,0.16,0.77,0.39,1.08,0.68s0.55,0.63,0.73,1.01
	c0.18,0.38,0.27,0.79,0.27,1.23s-0.09,0.85-0.27,1.23c-0.18,0.38-0.42,0.71-0.73,1s-0.67,0.51-1.08,0.67
	c-0.41,0.16-0.86,0.24-1.33,0.24h-11.44v8.52h13.14c0.44,0,0.85,0.08,1.23,0.24c0.38,0.16,0.72,0.39,1.01,0.68
	c0.29,0.29,0.52,0.63,0.68,1.01c0.16,0.38,0.24,0.79,0.24,1.23c0,0.44-0.08,0.85-0.24,1.23c-0.16,0.38-0.39,0.71-0.68,1
	c-0.29,0.28-0.63,0.51-1.01,0.67c-0.38,0.16-0.79,0.24-1.23,0.24H196.82z"/>
<path fill="#F48220" d="M235.16,51.32c0-2.68,0.36-5.15,1.08-7.42c0.72-2.27,1.8-4.23,3.25-5.87c1.44-1.64,3.25-2.92,5.43-3.84
	c2.17-0.92,4.72-1.39,7.64-1.39c2.84,0,5.35,0.45,7.52,1.34c2.17,0.89,3.99,2.15,5.45,3.78c1.46,1.63,2.56,3.58,3.31,5.85
	c0.75,2.27,1.12,4.79,1.12,7.54c0,2.71-0.37,5.2-1.1,7.47c-0.73,2.27-1.82,4.22-3.29,5.85c-1.46,1.63-3.28,2.9-5.45,3.81
	c-2.17,0.91-4.7,1.36-7.57,1.36c-2.81,0-5.29-0.44-7.46-1.31c-2.17-0.88-3.99-2.12-5.46-3.74c-1.48-1.61-2.59-3.56-3.35-5.83
	C235.54,56.67,235.16,54.13,235.16,51.32z M244.63,51.32c0,4.02,0.64,7.06,1.92,9.11c1.28,2.05,3.29,3.08,6.01,3.08
	c2.68,0,4.67-1.02,5.99-3.07c1.31-2.04,1.97-5.09,1.97-9.13c0-1.95-0.16-3.68-0.48-5.19c-0.32-1.52-0.8-2.8-1.45-3.83
	c-0.65-1.04-1.47-1.83-2.47-2.37c-1-0.54-2.19-0.82-3.57-0.82c-1.36,0-2.54,0.27-3.54,0.82c-1,0.54-1.82,1.33-2.47,2.37
	c-0.65,1.04-1.13,2.32-1.45,3.83C244.78,47.64,244.63,49.38,244.63,51.32z"/>
<path fill="#F48220" d="M286.14,62.37h0.12l7.37-24.77c0.19-0.68,0.46-1.27,0.8-1.76c0.34-0.5,0.72-0.9,1.13-1.23
	c0.41-0.33,0.85-0.57,1.31-0.73c0.46-0.16,0.92-0.24,1.38-0.24c0.47,0,0.92,0.08,1.35,0.25c0.43,0.17,0.81,0.42,1.14,0.74
	c0.33,0.32,0.6,0.73,0.79,1.22c0.19,0.49,0.29,1.05,0.29,1.68c0,0.73-0.13,1.51-0.39,2.34l-6.33,19.54
	c-0.54,1.64-1.05,3.05-1.55,4.25c-0.5,1.19-1.07,2.19-1.72,2.98c-0.65,0.79-1.43,1.38-2.34,1.76c-0.91,0.38-2.04,0.57-3.38,0.57
	c-1.23,0-2.27-0.14-3.12-0.41c-0.84-0.27-1.59-0.75-2.23-1.44c-0.64-0.68-1.22-1.59-1.74-2.72c-0.52-1.14-1.06-2.56-1.63-4.28
	l-6.79-20.56c-0.11-0.33-0.19-0.63-0.23-0.93c-0.04-0.29-0.06-0.58-0.06-0.85c0-0.63,0.11-1.2,0.33-1.7c0.22-0.5,0.52-0.94,0.89-1.3
	c0.37-0.37,0.79-0.65,1.27-0.84c0.47-0.19,0.96-0.29,1.48-0.29c0.44,0,0.88,0.08,1.33,0.23c0.45,0.15,0.87,0.39,1.27,0.72
	c0.4,0.33,0.76,0.74,1.08,1.25c0.32,0.51,0.59,1.12,0.8,1.84L286.14,62.37z"/>
<path fill="#F48220" d="M310.93,68.97c-0.83,0-1.52-0.17-2.08-0.51c-0.56-0.34-1.01-0.78-1.35-1.33c-0.34-0.54-0.58-1.16-0.73-1.84
	c-0.15-0.68-0.22-1.36-0.22-2.04V40.05c0-0.92,0.06-1.78,0.17-2.57c0.11-0.79,0.37-1.46,0.75-2.03c0.39-0.57,0.96-1.01,1.7-1.34
	c0.75-0.32,1.75-0.49,3.02-0.49h15.62c0.47,0,0.91,0.08,1.33,0.25c0.41,0.17,0.77,0.4,1.08,0.68c0.31,0.28,0.55,0.62,0.73,1.01
	c0.18,0.39,0.27,0.8,0.27,1.24c0,0.44-0.09,0.85-0.27,1.23c-0.18,0.38-0.42,0.71-0.73,1c-0.31,0.28-0.67,0.51-1.08,0.67
	c-0.41,0.16-0.86,0.24-1.33,0.24h-12.53v7.89h11.44c0.47,0,0.91,0.08,1.33,0.24c0.41,0.16,0.77,0.39,1.08,0.68
	c0.31,0.29,0.55,0.63,0.73,1.01c0.18,0.38,0.27,0.79,0.27,1.23s-0.09,0.85-0.27,1.23c-0.18,0.38-0.42,0.71-0.73,1
	c-0.31,0.28-0.67,0.51-1.08,0.67c-0.41,0.16-0.86,0.24-1.33,0.24h-11.44v8.52h13.14c0.44,0,0.85,0.08,1.23,0.24
	c0.38,0.16,0.72,0.39,1.01,0.68c0.29,0.29,0.52,0.63,0.68,1.01c0.16,0.38,0.24,0.79,0.24,1.23c0,0.44-0.08,0.85-0.24,1.23
	c-0.16,0.38-0.39,0.71-0.68,1c-0.29,0.28-0.63,0.51-1.01,0.67c-0.38,0.16-0.79,0.24-1.23,0.24H310.93z"/>
<path fill="#F48220" d="M345.31,64.22c0,0.67-0.12,1.29-0.35,1.86c-0.24,0.58-0.56,1.08-0.97,1.51c-0.41,0.43-0.89,0.77-1.44,1.01
	c-0.54,0.24-1.13,0.37-1.76,0.37c-0.63,0-1.22-0.12-1.76-0.37c-0.54-0.24-1.02-0.58-1.42-1.01c-0.41-0.43-0.73-0.93-0.96-1.51
	c-0.24-0.58-0.35-1.2-0.35-1.86V38.08c0-0.75,0.15-1.4,0.45-1.96c0.3-0.56,0.7-1.03,1.21-1.4c0.5-0.37,1.09-0.65,1.76-0.84
	c0.67-0.19,1.38-0.28,2.13-0.28h9.76c1.8,0,3.53,0.12,5.18,0.35c1.66,0.24,3.11,0.68,4.37,1.33c1.26,0.65,2.26,1.55,3.02,2.7
	c0.75,1.15,1.13,2.65,1.13,4.5c0,1.01-0.14,1.96-0.41,2.86c-0.28,0.9-0.72,1.71-1.34,2.43c-0.62,0.72-1.42,1.34-2.42,1.85
	c-1,0.51-2.22,0.89-3.66,1.13v0.1c1.04,0.13,1.93,0.32,2.66,0.57c0.74,0.25,1.37,0.58,1.89,1c0.52,0.41,0.94,0.91,1.27,1.5
	c0.33,0.58,0.59,1.27,0.8,2.07c0.21,0.79,0.38,1.7,0.51,2.71c0.13,1.01,0.25,2.16,0.37,3.44c0.03,0.36,0.06,0.7,0.07,1.03
	c0.02,0.33,0.02,0.66,0.02,0.99c0,0.7-0.07,1.34-0.2,1.92c-0.13,0.58-0.36,1.09-0.68,1.51c-0.32,0.42-0.77,0.75-1.34,0.99
	c-0.57,0.24-1.3,0.35-2.19,0.35c-0.81,0-1.49-0.19-2.03-0.56c-0.54-0.37-0.99-0.88-1.35-1.53c-0.36-0.65-0.63-1.4-0.82-2.25
	c-0.19-0.85-0.34-1.76-0.45-2.74c-0.16-1.41-0.33-2.59-0.5-3.54c-0.17-0.95-0.44-1.72-0.82-2.3c-0.37-0.58-0.9-1-1.59-1.24
	c-0.69-0.24-1.63-0.37-2.84-0.37h-4.94V64.22z M349.06,48.77c0.88,0,1.75-0.05,2.63-0.16c0.88-0.11,1.67-0.32,2.37-0.66
	c0.71-0.33,1.28-0.82,1.72-1.46c0.44-0.64,0.66-1.5,0.66-2.57c0-1.23-0.21-2.16-0.63-2.77c-0.42-0.62-0.98-1.08-1.68-1.39
	c-0.7-0.31-1.5-0.5-2.42-0.57c-0.92-0.07-1.87-0.11-2.86-0.11h-3.67v9.69H349.06z"/>
</svg>
