<?xml version="1.0" encoding="utf-8"?>
<!-- Generator: Adobe Illustrator 17.0.0, SVG Export Plug-In . SVG Version: 6.00 Build 0)  -->
<!DOCTYPE svg PUBLIC "-//W3C//DTD SVG 1.1//EN" "http://www.w3.org/Graphics/SVG/1.1/DTD/svg11.dtd">
<svg version="1.1" id="Layer_1" xmlns="http://www.w3.org/2000/svg" xmlns:xlink="http://www.w3.org/1999/xlink" x="0px" y="0px"
	 width="485.62px" height="88px" viewBox="0 0 485.62 88" enable-background="new 0 0 485.62 88" xml:space="preserve">
<text transform="matrix(1 0 0 1 31.9175 58.3155)"><tspan x="0" y="0" fill="#FFFFFF" font-family="'Nunito-Bold'" font-size="38" letter-spacing="-1">S</tspan><tspan x="23.96" y="0" fill="#FFFFFF" font-family="'Nunito-Bold'" font-size="38">T</tspan><tspan x="46.02" y="0" fill="#FFFFFF" font-family="'Nunito-Bold'" font-size="38">E</tspan><tspan x="68.67" y="0" fill="#FFFFFF" font-family="'Nunito-Bold'" font-size="38">P</tspan><tspan x="93.56" y="0" fill="#FFFFFF" font-family="'Nunito-Bold'" font-size="38"> IN</tspan><tspan x="145.19" y="0" fill="#FFFFFF" font-family="'Nunito-Bold'" font-size="38" letter-spacing="-2">T</tspan><tspan x="165.58" y="0" fill="#FFFFFF" font-family="'Nunito-Bold'" font-size="38">O</tspan><tspan x="194.54" y="0" fill="#FFFFFF" font-family="'Nunito-Bold'" font-size="38" letter-spacing="-4"> </tspan><tspan x="202.02" y="0" fill="#FFFFFF" font-family="'Nunito-Bold'" font-size="38" letter-spacing="-3">Y</tspan><tspan x="224.49" y="0" fill="#FFFFFF" font-family="'Nunito-Bold'" font-size="38" letter-spacing="-1">O</tspan><tspan x="252.91" y="0" fill="#FFFFFF" font-family="'Nunito-Bold'" font-size="38">U</tspan><tspan x="280.56" y="0" fill="#FFFFFF" font-family="'Nunito-Bold'" font-size="38">R</tspan><tspan x="306.77" y="0" fill="#FFFFFF" font-family="'Nunito-Bold'" font-size="38"> </tspan></text>
<text transform="matrix(1 0 0 1 349.5738 58.3155)" fill="#FFFFFF" font-family="'Nunito-Bold'" font-size="38">Z</text>
<text transform="matrix(1 0 0 1 371.5767 58.3155)"><tspan x="0" y="0" fill="#FFFFFF" font-family="'Nunito-Bold'" font-size="38">ON</tspan><tspan x="57.66" y="0" fill="#FFFFFF" font-family="'Nunito-Bold'" font-size="38">E</tspan></text>
<path fill="#FFFFFF" d="M483.62,86v-2H4L4,4h477.62l0,82H483.62v-2V86h2V2c0-0.53-0.21-1.04-0.59-1.41
	C484.66,0.21,484.14,0,483.62,0H2C1.47,0,0.96,0.21,0.59,0.59C0.21,0.96,0,1.47,0,2v84c0,0.53,0.21,1.04,0.59,1.41
	C0.96,87.79,1.47,88,2,88h481.62c0.53,0,1.04-0.21,1.41-0.59c0.37-0.37,0.59-0.89,0.59-1.41H483.62z"/>
</svg>
