<?xml version="1.0" encoding="utf-8"?>
<!-- Generator: Adobe Illustrator 17.0.0, SVG Export Plug-In . SVG Version: 6.00 Build 0)  -->
<!DOCTYPE svg PUBLIC "-//W3C//DTD SVG 1.1//EN" "http://www.w3.org/Graphics/SVG/1.1/DTD/svg11.dtd">
<svg version="1.1" id="Layer_1" xmlns="http://www.w3.org/2000/svg" xmlns:xlink="http://www.w3.org/1999/xlink" x="0px" y="0px"
	 width="435.58px" height="105.81px" viewBox="0 0 435.58 105.81" enable-background="new 0 0 435.58 105.81" xml:space="preserve">
<path fill="#F48220" d="M435.58,88.21c0,9.72-7.88,17.6-17.6,17.6H17.6c-9.72,0-17.6-7.88-17.6-17.6V23.95
	c0-9.72,7.88-17.6,17.6-17.6h400.38c9.72,0,17.6,7.88,17.6,17.6V88.21z"/>
<path fill="#FEE000" d="M435.58,81.86c0,9.72-7.88,17.6-17.6,17.6H17.6C7.88,99.46,0,91.58,0,81.86V17.6C0,7.88,7.88,0,17.6,0
	h400.38c9.72,0,17.6,7.88,17.6,17.6V81.86z"/>
<path fill="#FCCD0D" d="M99.61,65.49c-0.02,0.65-0.14,1.25-0.38,1.82c-0.24,0.56-0.56,1.05-0.96,1.47s-0.87,0.75-1.4,0.98
	c-0.53,0.24-1.1,0.36-1.72,0.36c-0.62,0-1.19-0.12-1.72-0.36c-0.53-0.24-0.99-0.57-1.39-0.98c-0.4-0.42-0.71-0.91-0.94-1.47
	s-0.34-1.17-0.34-1.82v-8.56l-8.71-14.54c-0.3-0.49-0.51-0.97-0.64-1.44c-0.13-0.47-0.19-0.92-0.19-1.36c0-0.58,0.11-1.12,0.32-1.6
	c0.21-0.48,0.5-0.9,0.85-1.25c0.36-0.35,0.77-0.62,1.23-0.81c0.47-0.19,0.95-0.28,1.46-0.28c0.76,0,1.52,0.24,2.28,0.71
	c0.76,0.47,1.4,1.26,1.92,2.35l6.24,12.41h0.09l6.5-12.5c0.54-1.04,1.17-1.79,1.9-2.25c0.73-0.46,1.46-0.69,2.21-0.69
	c0.44,0,0.87,0.08,1.27,0.24c0.4,0.16,0.75,0.38,1.05,0.66c0.3,0.28,0.54,0.63,0.71,1.04s0.26,0.86,0.26,1.35
	c0,0.41-0.06,0.84-0.19,1.29c-0.13,0.45-0.34,0.92-0.64,1.41l-9.08,15.11V65.49z"/>
<path fill="#FCCD0D" d="M109.74,52.92c0-2.61,0.35-5.02,1.06-7.24c0.7-2.21,1.76-4.12,3.17-5.72c1.41-1.6,3.17-2.85,5.29-3.75
	c2.12-0.9,4.6-1.35,7.45-1.35c2.77,0,5.21,0.44,7.33,1.3c2.12,0.87,3.89,2.1,5.31,3.69c1.42,1.59,2.5,3.49,3.23,5.71
	c0.73,2.21,1.09,4.67,1.09,7.35c0,2.64-0.36,5.07-1.07,7.28s-1.78,4.12-3.2,5.71c-1.42,1.59-3.19,2.83-5.31,3.71
	s-4.58,1.33-7.38,1.33c-2.74,0-5.16-0.43-7.27-1.28c-2.11-0.85-3.89-2.07-5.33-3.64c-1.44-1.57-2.53-3.47-3.26-5.68
	S109.74,55.65,109.74,52.92z M118.97,52.92c0,3.92,0.62,6.88,1.87,8.88c1.25,2,3.2,3,5.86,3c2.61,0,4.55-1,5.83-2.99
	c1.28-1.99,1.92-4.96,1.92-8.89c0-1.9-0.15-3.59-0.46-5.06s-0.78-2.72-1.41-3.74c-0.63-1.01-1.44-1.78-2.41-2.31
	c-0.97-0.53-2.13-0.79-3.47-0.79c-1.33,0-2.48,0.27-3.45,0.79c-0.97,0.53-1.78,1.3-2.41,2.31c-0.63,1.01-1.1,2.26-1.41,3.74
	S118.97,51.02,118.97,52.92z"/>
<path fill="#FCCD0D" d="M167.51,40.28c0-0.65,0.12-1.25,0.34-1.81c0.23-0.56,0.54-1.05,0.94-1.47c0.39-0.42,0.86-0.75,1.39-0.98
	c0.53-0.24,1.1-0.36,1.72-0.36c0.62,0,1.19,0.12,1.72,0.36c0.53,0.24,1,0.57,1.4,0.98s0.72,0.91,0.95,1.47
	c0.23,0.56,0.34,1.17,0.34,1.81v18.17c0,2.09-0.37,3.91-1.1,5.47c-0.74,1.56-1.76,2.86-3.08,3.9c-1.32,1.04-2.89,1.83-4.71,2.35
	c-1.82,0.52-3.81,0.78-5.98,0.78c-2.13,0-4.11-0.26-5.92-0.77c-1.81-0.51-3.38-1.29-4.7-2.31c-1.32-1.03-2.35-2.32-3.1-3.89
	c-0.74-1.57-1.11-3.41-1.11-5.53V40.28c0-0.65,0.11-1.25,0.34-1.81s0.54-1.05,0.94-1.47s0.86-0.75,1.39-0.98
	c0.53-0.24,1.1-0.36,1.72-0.36c0.62,0,1.19,0.12,1.72,0.36c0.53,0.24,1,0.57,1.4,0.98c0.4,0.42,0.72,0.91,0.95,1.47
	s0.34,1.17,0.34,1.81l0.02,18.03c0,1.14,0.17,2.12,0.52,2.94s0.8,1.49,1.36,2.02c0.56,0.52,1.2,0.91,1.92,1.16
	c0.72,0.25,1.45,0.38,2.19,0.38c0.76,0,1.5-0.13,2.22-0.38c0.72-0.25,1.36-0.64,1.93-1.16c0.57-0.52,1.03-1.19,1.39-2.02
	c0.36-0.82,0.53-1.8,0.53-2.94V40.28z"/>
<path fill="#FCCD0D" d="M202.83,70.12c-0.85,0-1.56-0.17-2.12-0.52c-0.56-0.35-1.01-0.81-1.34-1.38s-0.56-1.21-0.69-1.93
	c-0.13-0.72-0.19-1.46-0.19-2.22v-22.3c0-1.06,0.1-1.98,0.31-2.75c0.21-0.77,0.55-1.41,1.02-1.9s1.09-0.85,1.86-1.09
	c0.77-0.24,1.71-0.36,2.83-0.36h5.88c6.47,0,11.35,1.43,14.64,4.28s4.93,7.25,4.93,13.18c0,2.89-0.45,5.41-1.35,7.54
	c-0.9,2.13-2.18,3.9-3.83,5.3c-1.65,1.4-3.64,2.44-5.97,3.12c-2.32,0.68-4.9,1.02-7.73,1.02H202.83z M207.17,64.8h3.25
	c1.8,0,3.35-0.21,4.65-0.62c1.3-0.41,2.37-1.11,3.21-2.11c0.85-1,1.47-2.23,1.87-3.71c0.4-1.48,0.61-3.29,0.61-5.44
	c0-4-0.83-6.98-2.49-8.94c-1.66-1.96-4.21-2.94-7.64-2.94h-3.46V64.8z"/>
<path fill="#FCCD0D" d="M243.66,65.49c0,0.65-0.12,1.25-0.34,1.82c-0.23,0.56-0.54,1.05-0.95,1.47s-0.87,0.75-1.4,0.98
	c-0.53,0.24-1.1,0.36-1.72,0.36c-0.62,0-1.19-0.12-1.72-0.36c-0.53-0.24-0.99-0.57-1.39-0.98c-0.4-0.42-0.71-0.91-0.94-1.47
	s-0.34-1.17-0.34-1.82V40.28c0-0.65,0.11-1.25,0.34-1.81s0.54-1.05,0.94-1.47c0.39-0.42,0.86-0.75,1.39-0.98
	c0.53-0.24,1.1-0.36,1.72-0.36c0.62,0,1.19,0.12,1.72,0.36c0.53,0.24,1,0.57,1.4,0.98s0.72,0.91,0.95,1.47
	c0.23,0.56,0.34,1.17,0.34,1.81V65.49z"/>
<path fill="#FCCD0D" d="M254.19,70.12c-0.85,0-1.56-0.17-2.12-0.52c-0.56-0.35-1.01-0.81-1.34-1.38s-0.56-1.21-0.69-1.93
	c-0.13-0.72-0.19-1.46-0.19-2.22v-22.3c0-1.06,0.1-1.98,0.31-2.75c0.21-0.77,0.55-1.41,1.02-1.9s1.09-0.85,1.86-1.09
	c0.77-0.24,1.71-0.36,2.83-0.36h5.88c6.47,0,11.35,1.43,14.64,4.28s4.93,7.25,4.93,13.18c0,2.89-0.45,5.41-1.35,7.54
	c-0.9,2.13-2.18,3.9-3.83,5.3c-1.65,1.4-3.64,2.44-5.97,3.12c-2.32,0.68-4.9,1.02-7.73,1.02H254.19z M258.53,64.8h3.25
	c1.8,0,3.35-0.21,4.65-0.62c1.3-0.41,2.37-1.11,3.21-2.11c0.85-1,1.47-2.23,1.87-3.71c0.4-1.48,0.61-3.29,0.61-5.44
	c0-4-0.83-6.98-2.49-8.94c-1.66-1.96-4.21-2.94-7.64-2.94h-3.46V64.8z"/>
<path fill="#FCCD0D" d="M311.38,65.49c0,0.65-0.12,1.25-0.34,1.82c-0.23,0.56-0.54,1.05-0.95,1.47s-0.87,0.75-1.4,0.98
	c-0.53,0.24-1.1,0.36-1.72,0.36c-0.62,0-1.19-0.12-1.72-0.36c-0.53-0.24-0.99-0.57-1.39-0.98c-0.4-0.42-0.71-0.91-0.94-1.47
	s-0.34-1.17-0.34-1.82V40.28c0-0.65,0.11-1.25,0.34-1.81s0.54-1.05,0.94-1.47c0.39-0.42,0.86-0.75,1.39-0.98
	c0.53-0.24,1.1-0.36,1.72-0.36c0.62,0,1.19,0.12,1.72,0.36c0.53,0.24,1,0.57,1.4,0.98s0.72,0.91,0.95,1.47
	c0.23,0.56,0.34,1.17,0.34,1.81V65.49z"/>
<path fill="#FCCD0D" d="M317.32,41.94c-0.46,0-0.89-0.08-1.3-0.25c-0.41-0.17-0.77-0.39-1.08-0.68c-0.31-0.28-0.55-0.62-0.74-1
	c-0.18-0.38-0.27-0.78-0.27-1.21s0.09-0.83,0.27-1.22c0.18-0.39,0.43-0.72,0.74-1.01c0.31-0.29,0.67-0.51,1.08-0.68
	c0.41-0.17,0.85-0.25,1.3-0.25h21.66c0.46,0,0.89,0.08,1.3,0.25s0.77,0.39,1.08,0.68c0.31,0.28,0.55,0.62,0.74,1.01
	c0.18,0.39,0.27,0.79,0.27,1.22s-0.09,0.83-0.27,1.21c-0.18,0.38-0.43,0.71-0.74,1c-0.31,0.29-0.67,0.51-1.08,0.68
	s-0.85,0.25-1.3,0.25h-6.36v23.55c0,0.65-0.12,1.25-0.34,1.82c-0.23,0.56-0.55,1.05-0.95,1.47s-0.87,0.75-1.4,0.98
	c-0.53,0.24-1.1,0.36-1.72,0.36c-0.62,0-1.19-0.12-1.72-0.36c-0.53-0.24-0.99-0.57-1.39-0.98c-0.4-0.42-0.71-0.91-0.94-1.47
	s-0.34-1.17-0.34-1.82V41.94H317.32z"/>
<path fill="#FCCD0D" d="M350.08,60.77c-0.6,0-1.12-0.13-1.54-0.4s-0.78-0.64-1.07-1.12c-0.28-0.47-0.5-1.04-0.64-1.68
	s-0.23-1.35-0.26-2.11l-0.78-16.72c-0.02-0.08-0.02-0.21-0.02-0.4c0-0.52,0.12-0.98,0.36-1.39c0.24-0.4,0.55-0.75,0.95-1.03
	c0.4-0.29,0.85-0.5,1.38-0.65s1.06-0.23,1.61-0.23c0.55,0,1.09,0.08,1.61,0.23c0.52,0.15,0.98,0.37,1.38,0.65
	c0.4,0.28,0.71,0.63,0.95,1.03s0.36,0.87,0.36,1.39c0,0.19-0.01,0.32-0.02,0.4l-0.78,16.72c-0.03,0.76-0.12,1.46-0.26,2.11
	s-0.35,1.21-0.62,1.68c-0.27,0.47-0.62,0.85-1.04,1.12S350.68,60.77,350.08,60.77z M350.08,64.07c0.6,0,1.15,0.08,1.66,0.24
	s0.94,0.38,1.3,0.65s0.65,0.6,0.85,0.96c0.21,0.36,0.31,0.75,0.31,1.16c0,0.44-0.1,0.85-0.31,1.22c-0.21,0.37-0.5,0.69-0.87,0.96
	c-0.37,0.27-0.81,0.48-1.32,0.63c-0.51,0.15-1.05,0.23-1.64,0.23c-0.63,0-1.2-0.08-1.71-0.24s-0.94-0.37-1.3-0.64
	c-0.36-0.27-0.64-0.59-0.84-0.96c-0.2-0.37-0.3-0.77-0.3-1.2c0-0.4,0.09-0.77,0.29-1.14c0.19-0.36,0.46-0.68,0.82-0.96
	c0.36-0.28,0.79-0.5,1.3-0.66C348.85,64.15,349.43,64.07,350.08,64.07z"/>
<path fill="#F48220" d="M99.61,61.49c-0.02,0.65-0.14,1.25-0.38,1.82c-0.24,0.56-0.56,1.05-0.96,1.47s-0.87,0.75-1.4,0.98
	c-0.53,0.24-1.1,0.36-1.72,0.36c-0.62,0-1.19-0.12-1.72-0.36c-0.53-0.24-0.99-0.57-1.39-0.98c-0.4-0.42-0.71-0.91-0.94-1.47
	s-0.34-1.17-0.34-1.82v-8.56l-8.71-14.54c-0.3-0.49-0.51-0.97-0.64-1.44c-0.13-0.47-0.19-0.92-0.19-1.36c0-0.58,0.11-1.12,0.32-1.6
	c0.21-0.48,0.5-0.9,0.85-1.25c0.36-0.35,0.77-0.62,1.23-0.81c0.47-0.19,0.95-0.28,1.46-0.28c0.76,0,1.52,0.24,2.28,0.71
	c0.76,0.47,1.4,1.26,1.92,2.35l6.24,12.41h0.09l6.5-12.5c0.54-1.04,1.17-1.79,1.9-2.25c0.73-0.46,1.46-0.69,2.21-0.69
	c0.44,0,0.87,0.08,1.27,0.24c0.4,0.16,0.75,0.38,1.05,0.66c0.3,0.28,0.54,0.63,0.71,1.04s0.26,0.86,0.26,1.35
	c0,0.41-0.06,0.84-0.19,1.29c-0.13,0.45-0.34,0.92-0.64,1.41l-9.08,15.11V61.49z"/>
<path fill="#F48220" d="M109.74,48.92c0-2.61,0.35-5.02,1.06-7.24c0.7-2.21,1.76-4.12,3.17-5.72c1.41-1.6,3.17-2.85,5.29-3.75
	c2.12-0.9,4.6-1.35,7.45-1.35c2.77,0,5.21,0.44,7.33,1.3c2.12,0.87,3.89,2.1,5.31,3.69c1.42,1.59,2.5,3.49,3.23,5.71
	c0.73,2.21,1.09,4.67,1.09,7.35c0,2.64-0.36,5.07-1.07,7.28s-1.78,4.12-3.2,5.71c-1.42,1.59-3.19,2.83-5.31,3.71
	s-4.58,1.33-7.38,1.33c-2.74,0-5.16-0.43-7.27-1.28c-2.11-0.85-3.89-2.07-5.33-3.64c-1.44-1.57-2.53-3.47-3.26-5.68
	S109.74,51.65,109.74,48.92z M118.97,48.92c0,3.92,0.62,6.88,1.87,8.88c1.25,2,3.2,3,5.86,3c2.61,0,4.55-1,5.83-2.99
	c1.28-1.99,1.92-4.96,1.92-8.89c0-1.9-0.15-3.59-0.46-5.06s-0.78-2.72-1.41-3.74c-0.63-1.01-1.44-1.78-2.41-2.31
	c-0.97-0.53-2.13-0.79-3.47-0.79c-1.33,0-2.48,0.27-3.45,0.79c-0.97,0.53-1.78,1.3-2.41,2.31c-0.63,1.01-1.1,2.26-1.41,3.74
	S118.97,47.02,118.97,48.92z"/>
<path fill="#F48220" d="M167.51,36.28c0-0.65,0.12-1.25,0.34-1.81c0.23-0.56,0.54-1.05,0.94-1.47c0.39-0.42,0.86-0.75,1.39-0.98
	c0.53-0.24,1.1-0.36,1.72-0.36c0.62,0,1.19,0.12,1.72,0.36c0.53,0.24,1,0.57,1.4,0.98s0.72,0.91,0.95,1.47
	c0.23,0.56,0.34,1.17,0.34,1.81v18.17c0,2.09-0.37,3.91-1.1,5.47s-1.76,2.86-3.08,3.9c-1.32,1.04-2.89,1.83-4.71,2.35
	c-1.82,0.52-3.81,0.78-5.98,0.78c-2.13,0-4.11-0.26-5.92-0.77c-1.81-0.51-3.38-1.29-4.7-2.31c-1.32-1.03-2.35-2.32-3.1-3.89
	s-1.11-3.41-1.11-5.53V36.28c0-0.65,0.11-1.25,0.34-1.81s0.54-1.05,0.94-1.47s0.86-0.75,1.39-0.98c0.53-0.24,1.1-0.36,1.72-0.36
	c0.62,0,1.19,0.12,1.72,0.36c0.53,0.24,1,0.57,1.4,0.98c0.4,0.42,0.72,0.91,0.95,1.47s0.34,1.17,0.34,1.81l0.02,18.03
	c0,1.14,0.17,2.12,0.52,2.94s0.8,1.49,1.36,2.02c0.56,0.52,1.2,0.91,1.92,1.16c0.72,0.25,1.45,0.38,2.19,0.38
	c0.76,0,1.5-0.13,2.22-0.38c0.72-0.25,1.36-0.64,1.93-1.16c0.57-0.52,1.03-1.19,1.39-2.02c0.36-0.82,0.53-1.8,0.53-2.94V36.28z"/>
<path fill="#F48220" d="M202.83,66.12c-0.85,0-1.56-0.17-2.12-0.52c-0.56-0.35-1.01-0.81-1.34-1.38c-0.33-0.57-0.56-1.21-0.69-1.93
	c-0.13-0.72-0.19-1.46-0.19-2.22v-22.3c0-1.06,0.1-1.98,0.31-2.75c0.21-0.77,0.55-1.41,1.02-1.9s1.09-0.85,1.86-1.09
	c0.77-0.24,1.71-0.36,2.83-0.36h5.88c6.47,0,11.35,1.43,14.64,4.28s4.93,7.25,4.93,13.18c0,2.89-0.45,5.41-1.35,7.54
	c-0.9,2.13-2.18,3.9-3.83,5.3c-1.65,1.4-3.64,2.44-5.97,3.12c-2.32,0.68-4.9,1.02-7.73,1.02H202.83z M207.17,60.8h3.25
	c1.8,0,3.35-0.21,4.65-0.62c1.3-0.41,2.37-1.11,3.21-2.11c0.85-1,1.47-2.23,1.87-3.71c0.4-1.48,0.61-3.29,0.61-5.44
	c0-4-0.83-6.98-2.49-8.94c-1.66-1.96-4.21-2.94-7.64-2.94h-3.46V60.8z"/>
<path fill="#F48220" d="M243.66,61.49c0,0.65-0.12,1.25-0.34,1.82c-0.23,0.56-0.54,1.05-0.95,1.47s-0.87,0.75-1.4,0.98
	c-0.53,0.24-1.1,0.36-1.72,0.36c-0.62,0-1.19-0.12-1.72-0.36c-0.53-0.24-0.99-0.57-1.39-0.98c-0.4-0.42-0.71-0.91-0.94-1.47
	s-0.34-1.17-0.34-1.82V36.28c0-0.65,0.11-1.25,0.34-1.81s0.54-1.05,0.94-1.47c0.39-0.42,0.86-0.75,1.39-0.98
	c0.53-0.24,1.1-0.36,1.72-0.36c0.62,0,1.19,0.12,1.72,0.36c0.53,0.24,1,0.57,1.4,0.98s0.72,0.91,0.95,1.47
	c0.23,0.56,0.34,1.17,0.34,1.81V61.49z"/>
<path fill="#F48220" d="M254.19,66.12c-0.85,0-1.56-0.17-2.12-0.52c-0.56-0.35-1.01-0.81-1.34-1.38c-0.33-0.57-0.56-1.21-0.69-1.93
	c-0.13-0.72-0.19-1.46-0.19-2.22v-22.3c0-1.06,0.1-1.98,0.31-2.75c0.21-0.77,0.55-1.41,1.02-1.9s1.09-0.85,1.86-1.09
	c0.77-0.24,1.71-0.36,2.83-0.36h5.88c6.47,0,11.35,1.43,14.64,4.28s4.93,7.25,4.93,13.18c0,2.89-0.45,5.41-1.35,7.54
	c-0.9,2.13-2.18,3.9-3.83,5.3c-1.65,1.4-3.64,2.44-5.97,3.12c-2.32,0.68-4.9,1.02-7.73,1.02H254.19z M258.53,60.8h3.25
	c1.8,0,3.35-0.21,4.65-0.62c1.3-0.41,2.37-1.11,3.21-2.11c0.85-1,1.47-2.23,1.87-3.71c0.4-1.48,0.61-3.29,0.61-5.44
	c0-4-0.83-6.98-2.49-8.94c-1.66-1.96-4.21-2.94-7.64-2.94h-3.46V60.8z"/>
<path fill="#F48220" d="M311.38,61.49c0,0.65-0.12,1.25-0.34,1.82c-0.23,0.56-0.54,1.05-0.95,1.47s-0.87,0.75-1.4,0.98
	c-0.53,0.24-1.1,0.36-1.72,0.36c-0.62,0-1.19-0.12-1.72-0.36c-0.53-0.24-0.99-0.57-1.39-0.98c-0.4-0.42-0.71-0.91-0.94-1.47
	s-0.34-1.17-0.34-1.82V36.28c0-0.65,0.11-1.25,0.34-1.81s0.54-1.05,0.94-1.47c0.39-0.42,0.86-0.75,1.39-0.98
	c0.53-0.24,1.1-0.36,1.72-0.36c0.62,0,1.19,0.12,1.72,0.36c0.53,0.24,1,0.57,1.4,0.98s0.72,0.91,0.95,1.47
	c0.23,0.56,0.34,1.17,0.34,1.81V61.49z"/>
<path fill="#F48220" d="M317.32,37.94c-0.46,0-0.89-0.08-1.3-0.25c-0.41-0.17-0.77-0.39-1.08-0.68c-0.31-0.28-0.55-0.62-0.74-1
	c-0.18-0.38-0.27-0.78-0.27-1.21s0.09-0.83,0.27-1.22c0.18-0.39,0.43-0.72,0.74-1.01c0.31-0.29,0.67-0.51,1.08-0.68
	c0.41-0.17,0.85-0.25,1.3-0.25h21.66c0.46,0,0.89,0.08,1.3,0.25c0.41,0.17,0.77,0.39,1.08,0.68c0.31,0.28,0.55,0.62,0.74,1.01
	c0.18,0.39,0.27,0.79,0.27,1.22s-0.09,0.83-0.27,1.21c-0.18,0.38-0.43,0.71-0.74,1c-0.31,0.29-0.67,0.51-1.08,0.68
	s-0.85,0.25-1.3,0.25h-6.36v23.55c0,0.65-0.12,1.25-0.34,1.82c-0.23,0.56-0.55,1.05-0.95,1.47s-0.87,0.75-1.4,0.98
	c-0.53,0.24-1.1,0.36-1.72,0.36c-0.62,0-1.19-0.12-1.72-0.36c-0.53-0.24-0.99-0.57-1.39-0.98c-0.4-0.42-0.71-0.91-0.94-1.47
	s-0.34-1.17-0.34-1.82V37.94H317.32z"/>
<path fill="#F48220" d="M350.08,56.77c-0.6,0-1.12-0.13-1.54-0.4s-0.78-0.64-1.07-1.12c-0.28-0.47-0.5-1.04-0.64-1.68
	s-0.23-1.35-0.26-2.11l-0.78-16.72c-0.02-0.08-0.02-0.21-0.02-0.4c0-0.52,0.12-0.98,0.36-1.39c0.24-0.4,0.55-0.75,0.95-1.03
	c0.4-0.29,0.85-0.5,1.38-0.65s1.06-0.23,1.61-0.23c0.55,0,1.09,0.08,1.61,0.23c0.52,0.15,0.98,0.37,1.38,0.65
	c0.4,0.28,0.71,0.63,0.95,1.03s0.36,0.87,0.36,1.39c0,0.19-0.01,0.32-0.02,0.4l-0.78,16.72c-0.03,0.76-0.12,1.46-0.26,2.11
	s-0.35,1.21-0.62,1.68c-0.27,0.47-0.62,0.85-1.04,1.12S350.68,56.77,350.08,56.77z M350.08,60.07c0.6,0,1.15,0.08,1.66,0.24
	s0.94,0.38,1.3,0.65s0.65,0.6,0.85,0.96c0.21,0.36,0.31,0.75,0.31,1.16c0,0.44-0.1,0.85-0.31,1.22c-0.21,0.37-0.5,0.69-0.87,0.96
	c-0.37,0.27-0.81,0.48-1.32,0.63c-0.51,0.15-1.05,0.23-1.64,0.23c-0.63,0-1.2-0.08-1.71-0.24s-0.94-0.37-1.3-0.64
	c-0.36-0.27-0.64-0.59-0.84-0.96c-0.2-0.37-0.3-0.77-0.3-1.2c0-0.4,0.09-0.77,0.29-1.14c0.19-0.36,0.46-0.68,0.82-0.96
	c0.36-0.28,0.79-0.5,1.3-0.66C348.85,60.15,349.43,60.07,350.08,60.07z"/>
</svg>
