<?xml version="1.0" encoding="utf-8"?>
<!-- Generator: Adobe Illustrator 17.0.0, SVG Export Plug-In . SVG Version: 6.00 Build 0)  -->
<!DOCTYPE svg PUBLIC "-//W3C//DTD SVG 1.1//EN" "http://www.w3.org/Graphics/SVG/1.1/DTD/svg11.dtd">
<svg version="1.1" id="Layer_1" xmlns="http://www.w3.org/2000/svg" xmlns:xlink="http://www.w3.org/1999/xlink" x="0px" y="0px"
	 width="440.498px" height="88px" viewBox="0 0 440.498 88" enable-background="new 0 0 440.498 88" xml:space="preserve">
<path fill="#FFFFFF" d="M38.776,35.53c0.717,0,1.397,0.046,2.041,0.139c0.643,0.093,1.206,0.269,1.688,0.529
	s0.863,0.622,1.141,1.085c0.279,0.464,0.418,1.073,0.418,1.828s-0.143,1.376-0.427,1.865c-0.285,0.489-0.677,0.875-1.179,1.16
	c-0.5,0.285-1.101,0.482-1.799,0.594c-0.699,0.111-1.457,0.167-2.273,0.167h-2.653V35.53H38.776z M35.733,46.274h2.895
	c0.939,0,1.793,0.056,2.561,0.167c0.767,0.111,1.422,0.312,1.967,0.603c0.544,0.291,0.965,0.684,1.262,1.178
	c0.297,0.495,0.445,1.132,0.445,1.911c0,0.841-0.13,1.525-0.39,2.05c-0.26,0.526-0.644,0.937-1.15,1.234
	c-0.508,0.297-1.139,0.495-1.893,0.594c-0.755,0.099-1.627,0.148-2.616,0.148h-3.08L35.733,46.274L35.733,46.274z M29.183,53.547
	c0,1.027,0.093,1.853,0.278,2.477c0.186,0.625,0.461,1.107,0.825,1.447c0.365,0.34,0.813,0.566,1.346,0.677
	c0.531,0.111,1.15,0.167,1.855,0.167h8.721c1.62,0,3.021-0.213,4.203-0.64c1.181-0.427,2.154-0.986,2.922-1.679
	c0.767-0.693,1.336-1.487,1.707-2.384c0.371-0.897,0.557-1.815,0.557-2.755c0-0.854-0.143-1.651-0.427-2.394
	c-0.285-0.742-0.687-1.398-1.206-1.967c-0.52-0.569-1.153-1.042-1.902-1.419c-0.748-0.377-1.586-0.634-2.514-0.77v-0.074
	c0.767-0.136,1.466-0.393,2.097-0.77s1.175-0.838,1.633-1.382c0.457-0.544,0.81-1.153,1.058-1.828
	c0.247-0.674,0.371-1.376,0.371-2.106c0-1.088-0.167-2.013-0.501-2.774s-0.786-1.392-1.354-1.893
	c-0.569-0.501-1.231-0.891-1.985-1.169c-0.755-0.278-1.559-0.489-2.412-0.631c-0.854-0.142-1.726-0.229-2.616-0.26
	c-0.891-0.031-1.757-0.046-2.598-0.046h-5.752c-0.582,0-1.132,0.062-1.651,0.186c-0.52,0.124-0.974,0.315-1.364,0.575
	c-0.389,0.26-0.702,0.597-0.937,1.011c-0.235,0.415-0.353,0.912-0.353,1.494L29.183,53.547L29.183,53.547z"/>
<path fill="#FFFFFF" d="M60.705,42.915V35.53h2.802c0.754,0,1.481,0.028,2.181,0.083c0.698,0.056,1.313,0.201,1.846,0.436
	c0.531,0.235,0.958,0.588,1.28,1.058c0.321,0.47,0.482,1.175,0.482,2.115c0,0.816-0.167,1.469-0.501,1.958s-0.77,0.86-1.309,1.113
	c-0.537,0.254-1.141,0.421-1.809,0.501c-0.668,0.081-1.336,0.121-2.004,0.121C63.673,42.915,60.705,42.915,60.705,42.915z
	 M60.816,47.22h3.767c0.915,0,1.636,0.093,2.161,0.278c0.526,0.186,0.931,0.501,1.216,0.946c0.284,0.445,0.491,1.03,0.622,1.753
	c0.129,0.724,0.256,1.624,0.38,2.7c0.086,0.742,0.201,1.438,0.343,2.087c0.143,0.649,0.35,1.222,0.622,1.716
	c0.271,0.495,0.615,0.885,1.03,1.169c0.414,0.285,0.93,0.427,1.549,0.427c0.68,0,1.236-0.09,1.67-0.269
	c0.433-0.179,0.772-0.43,1.021-0.751c0.247-0.322,0.42-0.705,0.52-1.15c0.099-0.445,0.148-0.934,0.148-1.466
	c0-0.247-0.007-0.498-0.019-0.751c-0.013-0.253-0.031-0.516-0.056-0.789c-0.087-0.977-0.18-1.852-0.278-2.625
	c-0.1-0.773-0.229-1.463-0.39-2.069s-0.365-1.132-0.612-1.577c-0.248-0.445-0.569-0.826-0.965-1.141
	c-0.396-0.315-0.875-0.569-1.438-0.761s-1.241-0.337-2.032-0.436v-0.074c1.101-0.186,2.032-0.473,2.792-0.863
	c0.762-0.39,1.376-0.86,1.847-1.41c0.47-0.55,0.81-1.169,1.021-1.855c0.21-0.687,0.315-1.413,0.315-2.18
	c0-1.41-0.288-2.554-0.862-3.433c-0.576-0.878-1.343-1.565-2.301-2.06c-0.959-0.495-2.069-0.832-3.331-1.011
	c-1.262-0.179-2.579-0.269-3.952-0.269h-7.44c-0.569,0-1.11,0.071-1.624,0.213c-0.513,0.142-0.962,0.356-1.345,0.64
	c-0.384,0.285-0.689,0.64-0.919,1.067c-0.229,0.427-0.343,0.925-0.343,1.494v19.928c0,0.507,0.09,0.98,0.269,1.419
	c0.18,0.439,0.424,0.823,0.733,1.15c0.309,0.328,0.671,0.584,1.085,0.77c0.415,0.186,0.863,0.278,1.346,0.278
	s0.931-0.093,1.346-0.278c0.414-0.186,0.779-0.442,1.094-0.77c0.316-0.328,0.563-0.711,0.742-1.15c0.18-0.439,0.27-0.912,0.27-1.419
	V47.22H60.816z"/>
<path fill="#FFFFFF" d="M78.302,50.671c0.576,1.732,1.426,3.213,2.552,4.444c1.125,1.231,2.515,2.18,4.165,2.848
	c1.652,0.668,3.547,1.002,5.688,1.002c2.189,0,4.112-0.346,5.771-1.039c1.657-0.693,3.043-1.661,4.156-2.904s1.948-2.73,2.505-4.462
	c0.557-1.732,0.835-3.63,0.835-5.696c0-2.103-0.285-4.02-0.854-5.752c-0.569-1.732-1.41-3.219-2.523-4.462s-2.499-2.205-4.156-2.885
	c-1.658-0.68-3.569-1.021-5.733-1.021c-2.227,0-4.169,0.353-5.826,1.058c-1.658,0.705-3.037,1.682-4.138,2.932
	c-1.102,1.25-1.927,2.74-2.478,4.472c-0.55,1.732-0.825,3.618-0.825,5.659C77.44,47.004,77.728,48.939,78.302,50.671z
	 M85.019,40.902c0.242-1.156,0.609-2.131,1.104-2.922c0.494-0.792,1.122-1.395,1.884-1.809c0.76-0.414,1.66-0.622,2.699-0.622
	c1.051,0,1.957,0.207,2.719,0.622c0.76,0.415,1.388,1.018,1.883,1.809c0.494,0.792,0.863,1.766,1.104,2.922
	c0.242,1.157,0.362,2.477,0.362,3.961c0,3.08-0.501,5.399-1.503,6.958s-2.523,2.338-4.564,2.338c-2.078,0-3.606-0.782-4.583-2.347
	c-0.978-1.565-1.466-3.881-1.466-6.949C84.658,43.379,84.779,42.059,85.019,40.902z"/>
<path fill="#FFFFFF" d="M151.727,43.797c-1.188-0.006-2.394-0.009-3.618-0.009c-0.779,0-1.357,0.179-1.735,0.538
	c-0.377,0.359-0.565,0.823-0.565,1.392c0,0.371,0.067,0.684,0.204,0.937c0.136,0.254,0.324,0.458,0.566,0.612
	c0.24,0.155,0.521,0.266,0.844,0.334c0.321,0.068,0.674,0.102,1.058,0.102h2.486v6.067c-0.705,0.173-1.432,0.281-2.181,0.325
	c-0.748,0.043-1.493,0.065-2.235,0.065c-1.225,0-2.272-0.161-3.146-0.482c-0.871-0.322-1.586-0.841-2.143-1.559
	c-0.557-0.717-0.962-1.648-1.215-2.792c-0.254-1.144-0.381-2.539-0.381-4.184c0-1.484,0.142-2.82,0.427-4.008
	c0.284-1.188,0.735-2.196,1.354-3.024c0.618-0.829,1.413-1.463,2.385-1.902c0.971-0.439,2.136-0.659,3.497-0.659
	c0.557,0,1.172,0.071,1.847,0.213c0.674,0.142,1.336,0.303,1.984,0.482c0.65,0.179,1.259,0.34,1.828,0.482
	c0.568,0.142,1.026,0.213,1.373,0.213c0.692,0,1.273-0.198,1.744-0.594c0.47-0.396,0.705-0.977,0.705-1.744
	c0-0.47-0.137-0.906-0.408-1.308c-0.272-0.402-0.687-0.72-1.243-0.956c-0.557-0.235-1.166-0.451-1.827-0.649
	c-0.662-0.198-1.355-0.365-2.078-0.501c-0.725-0.136-1.476-0.244-2.255-0.325c-0.779-0.08-1.565-0.121-2.356-0.121
	c-2.438,0-4.546,0.371-6.327,1.113c-1.781,0.742-3.25,1.753-4.407,3.034c-1.156,1.28-2.016,2.777-2.578,4.49
	c-0.563,1.713-0.845,3.541-0.845,5.483c0,2.412,0.331,4.506,0.993,6.281c0.661,1.775,1.61,3.241,2.848,4.397
	c1.236,1.157,2.73,2.016,4.48,2.579c1.751,0.563,3.714,0.844,5.892,0.844c0.445,0,0.925-0.022,1.438-0.065s1.032-0.096,1.559-0.158
	c0.525-0.062,1.041-0.133,1.549-0.213c0.507-0.081,0.983-0.158,1.429-0.232c1.039-0.161,1.884-0.374,2.532-0.64
	c0.65-0.266,1.153-0.622,1.513-1.067c0.358-0.445,0.603-0.999,0.733-1.661c0.129-0.662,0.194-1.475,0.194-2.44V46.96
	c0-0.52-0.028-0.977-0.083-1.373c-0.057-0.396-0.165-0.727-0.325-0.993c-0.161-0.266-0.393-0.464-0.696-0.594
	s-0.695-0.195-1.178-0.195C154.126,43.806,152.915,43.803,151.727,43.797z M122.209,49.075c0,0.891-0.14,1.658-0.417,2.301
	c-0.279,0.643-0.641,1.169-1.086,1.577s-0.949,0.711-1.512,0.909s-1.142,0.297-1.735,0.297c-0.582,0-1.153-0.099-1.716-0.297
	s-1.064-0.501-1.504-0.909c-0.438-0.408-0.795-0.934-1.066-1.577c-0.272-0.643-0.408-1.41-0.408-2.301l-0.019-14.102
	c0-0.507-0.09-0.98-0.269-1.419c-0.18-0.439-0.428-0.823-0.742-1.15c-0.316-0.328-0.681-0.584-1.096-0.77
	c-0.414-0.186-0.862-0.278-1.345-0.278s-0.931,0.093-1.345,0.278c-0.415,0.186-0.777,0.442-1.086,0.77
	c-0.31,0.328-0.554,0.711-0.732,1.15c-0.18,0.439-0.27,0.912-0.27,1.419v14.213c0,1.658,0.29,3.099,0.872,4.323
	c0.581,1.225,1.389,2.239,2.421,3.043c1.033,0.804,2.258,1.407,3.674,1.809c1.417,0.402,2.96,0.603,4.63,0.603
	c1.694,0,3.253-0.204,4.676-0.612c1.422-0.408,2.65-1.021,3.683-1.837s1.838-1.834,2.412-3.052c0.576-1.218,0.863-2.644,0.863-4.277
	V34.974c0-0.507-0.09-0.98-0.27-1.419c-0.179-0.439-0.426-0.823-0.742-1.15c-0.314-0.328-0.68-0.584-1.094-0.77
	c-0.415-0.186-0.863-0.278-1.346-0.278s-0.931,0.093-1.346,0.278c-0.414,0.186-0.776,0.442-1.085,0.77
	c-0.31,0.328-0.554,0.711-0.733,1.15c-0.179,0.439-0.269,0.912-0.269,1.419v14.101H122.209z"/>
<path fill="#FFFFFF" d="M178.443,41.746h-9.556v-6.772c0-0.507-0.09-0.98-0.27-1.419c-0.179-0.439-0.426-0.823-0.742-1.15
	c-0.314-0.328-0.68-0.584-1.094-0.77c-0.415-0.186-0.863-0.278-1.346-0.278s-0.931,0.093-1.346,0.278
	c-0.414,0.186-0.776,0.442-1.085,0.77c-0.31,0.328-0.554,0.711-0.733,1.15c-0.179,0.439-0.269,0.912-0.269,1.419v19.724
	c0,0.507,0.09,0.98,0.269,1.419c0.18,0.439,0.424,0.823,0.733,1.15c0.309,0.328,0.671,0.584,1.085,0.77
	c0.415,0.186,0.863,0.278,1.346,0.278s0.931-0.093,1.346-0.278c0.414-0.186,0.779-0.442,1.094-0.77
	c0.316-0.328,0.563-0.711,0.742-1.15c0.18-0.439,0.27-0.912,0.27-1.419v-7.663h9.556l0.019,7.663c0,0.507,0.09,0.98,0.27,1.419
	c0.179,0.439,0.423,0.823,0.732,1.15c0.309,0.328,0.671,0.584,1.086,0.77c0.414,0.186,0.862,0.278,1.345,0.278
	s0.931-0.093,1.345-0.278c0.415-0.186,0.779-0.442,1.096-0.77c0.314-0.328,0.562-0.711,0.742-1.15
	c0.179-0.439,0.269-0.912,0.269-1.419V34.974c0-0.507-0.09-0.98-0.269-1.419c-0.18-0.439-0.428-0.823-0.742-1.15
	c-0.316-0.328-0.681-0.584-1.096-0.77c-0.414-0.186-0.862-0.278-1.345-0.278s-0.931,0.093-1.345,0.278
	c-0.415,0.186-0.777,0.442-1.086,0.77c-0.31,0.328-0.557,0.711-0.742,1.15c-0.186,0.439-0.278,0.912-0.278,1.419L178.443,41.746
	L178.443,41.746z"/>
<path fill="#FFFFFF" d="M194.053,36.273v18.425c0,0.507,0.09,0.98,0.269,1.419c0.18,0.439,0.424,0.823,0.733,1.15
	c0.309,0.328,0.671,0.584,1.085,0.77c0.415,0.186,0.863,0.278,1.346,0.278s0.931-0.093,1.346-0.278
	c0.414-0.186,0.779-0.442,1.094-0.77c0.316-0.328,0.563-0.711,0.742-1.15c0.18-0.439,0.27-0.912,0.27-1.419V36.273h4.973
	c0.358,0,0.698-0.065,1.021-0.195c0.321-0.13,0.603-0.306,0.845-0.529c0.24-0.223,0.433-0.482,0.574-0.779
	c0.143-0.297,0.214-0.612,0.214-0.946s-0.071-0.652-0.214-0.956c-0.142-0.303-0.334-0.566-0.574-0.789
	c-0.242-0.223-0.523-0.399-0.845-0.529s-0.662-0.195-1.021-0.195h-16.94c-0.359,0-0.699,0.065-1.021,0.195
	c-0.322,0.13-0.604,0.306-0.844,0.529c-0.242,0.223-0.434,0.486-0.576,0.789s-0.213,0.622-0.213,0.956s0.071,0.649,0.213,0.946
	c0.143,0.297,0.334,0.557,0.576,0.779c0.24,0.223,0.521,0.399,0.844,0.529c0.321,0.13,0.661,0.195,1.021,0.195H194.053z"/>
<path fill="#FFFFFF" d="M223.462,36.273v18.425c0,0.507,0.09,0.98,0.269,1.419c0.18,0.439,0.424,0.823,0.733,1.15
	c0.309,0.328,0.671,0.584,1.085,0.77c0.415,0.186,0.863,0.278,1.346,0.278s0.931-0.093,1.346-0.278
	c0.414-0.186,0.779-0.442,1.094-0.77c0.316-0.328,0.563-0.711,0.742-1.15c0.18-0.439,0.27-0.912,0.27-1.419V36.273h4.973
	c0.358,0,0.698-0.065,1.021-0.195c0.321-0.13,0.603-0.306,0.845-0.529c0.24-0.223,0.433-0.482,0.574-0.779
	c0.143-0.297,0.214-0.612,0.214-0.946s-0.071-0.652-0.214-0.956c-0.142-0.303-0.334-0.566-0.574-0.789
	c-0.242-0.223-0.523-0.399-0.845-0.529s-0.662-0.195-1.021-0.195h-16.94c-0.359,0-0.699,0.065-1.021,0.195
	c-0.322,0.13-0.604,0.306-0.844,0.529c-0.242,0.223-0.434,0.486-0.576,0.789s-0.213,0.622-0.213,0.956s0.071,0.649,0.213,0.946
	c0.143,0.297,0.334,0.557,0.576,0.779c0.24,0.223,0.521,0.399,0.844,0.529c0.321,0.13,0.661,0.195,1.021,0.195H223.462z"/>
<path fill="#FFFFFF" d="M238.29,50.671c0.576,1.732,1.426,3.213,2.552,4.444c1.125,1.231,2.515,2.18,4.165,2.848
	c1.652,0.668,3.547,1.002,5.688,1.002c2.189,0,4.112-0.346,5.771-1.039c1.657-0.693,3.043-1.661,4.156-2.904s1.948-2.73,2.505-4.462
	c0.557-1.732,0.835-3.63,0.835-5.696c0-2.103-0.285-4.02-0.854-5.752s-1.41-3.219-2.523-4.462s-2.499-2.205-4.156-2.885
	c-1.658-0.68-3.569-1.021-5.733-1.021c-2.227,0-4.169,0.353-5.826,1.058c-1.658,0.705-3.037,1.682-4.138,2.932
	c-1.102,1.25-1.927,2.74-2.478,4.472c-0.55,1.732-0.825,3.618-0.825,5.659C237.428,47.004,237.716,48.939,238.29,50.671z
	 M245.007,40.902c0.242-1.156,0.609-2.131,1.104-2.922c0.494-0.792,1.122-1.395,1.884-1.809c0.76-0.414,1.66-0.622,2.699-0.622
	c1.051,0,1.957,0.207,2.719,0.622c0.76,0.415,1.388,1.018,1.883,1.809c0.494,0.792,0.863,1.766,1.104,2.922
	c0.242,1.157,0.362,2.477,0.362,3.961c0,3.08-0.501,5.399-1.503,6.958s-2.523,2.338-4.564,2.338c-2.078,0-3.606-0.782-4.583-2.347
	c-0.978-1.565-1.466-3.881-1.466-6.949C244.646,43.379,244.767,42.059,245.007,40.902z"/>
<path fill="#FFFFFF" d="M288.558,47.888l7.106-11.819c0.234-0.383,0.401-0.751,0.501-1.104c0.099-0.353,0.148-0.689,0.148-1.011
	c0-0.383-0.068-0.736-0.204-1.058c-0.137-0.322-0.322-0.594-0.557-0.816c-0.235-0.223-0.51-0.396-0.826-0.52
	c-0.314-0.124-0.646-0.186-0.992-0.186c-0.582,0-1.157,0.179-1.726,0.538s-1.064,0.946-1.484,1.763l-5.084,9.778h-0.074l-4.88-9.704
	c-0.408-0.854-0.909-1.466-1.503-1.837s-1.188-0.557-1.781-0.557c-0.396,0-0.776,0.074-1.142,0.223
	c-0.364,0.148-0.686,0.359-0.965,0.631c-0.277,0.272-0.5,0.597-0.668,0.974c-0.166,0.377-0.25,0.795-0.25,1.252
	c0,0.346,0.049,0.702,0.148,1.067s0.266,0.739,0.501,1.123l6.81,11.374v6.698c0,0.507,0.09,0.98,0.27,1.419
	c0.179,0.439,0.423,0.823,0.732,1.15c0.309,0.328,0.671,0.584,1.086,0.77c0.414,0.186,0.862,0.278,1.345,0.278
	s0.931-0.093,1.345-0.278c0.415-0.186,0.779-0.442,1.096-0.77c0.314-0.328,0.565-0.711,0.751-1.15
	c0.186-0.439,0.284-0.912,0.297-1.419L288.558,47.888L288.558,47.888z"/>
<path fill="#FFFFFF" d="M296.924,50.671c0.576,1.732,1.426,3.213,2.552,4.444c1.125,1.231,2.515,2.18,4.165,2.848
	c1.652,0.668,3.547,1.002,5.688,1.002c2.189,0,4.112-0.346,5.771-1.039c1.657-0.693,3.043-1.661,4.156-2.904s1.948-2.73,2.505-4.462
	c0.557-1.732,0.835-3.63,0.835-5.696c0-2.103-0.285-4.02-0.854-5.752s-1.41-3.219-2.523-4.462s-2.499-2.205-4.156-2.885
	c-1.658-0.68-3.569-1.021-5.733-1.021c-2.227,0-4.169,0.353-5.826,1.058c-1.658,0.705-3.037,1.682-4.138,2.932
	c-1.102,1.25-1.927,2.74-2.478,4.472c-0.55,1.732-0.825,3.618-0.825,5.659C296.062,47.004,296.35,48.939,296.924,50.671z
	 M303.641,40.902c0.242-1.156,0.609-2.131,1.104-2.922c0.494-0.792,1.122-1.395,1.884-1.809c0.76-0.414,1.66-0.622,2.699-0.622
	c1.051,0,1.957,0.207,2.719,0.622c0.76,0.415,1.388,1.018,1.883,1.809c0.494,0.792,0.863,1.766,1.104,2.922
	c0.242,1.157,0.362,2.477,0.362,3.961c0,3.08-0.501,5.399-1.503,6.958s-2.523,2.338-4.564,2.338c-2.078,0-3.606-0.782-4.583-2.347
	c-0.978-1.565-1.466-3.881-1.466-6.949C303.28,43.379,303.401,42.059,303.641,40.902z"/>
<path fill="#FFFFFF" d="M341.592,49.075c0,0.891-0.14,1.658-0.417,2.301c-0.279,0.643-0.641,1.169-1.086,1.577
	s-0.949,0.711-1.512,0.909s-1.142,0.297-1.735,0.297c-0.582,0-1.153-0.099-1.716-0.297s-1.064-0.501-1.504-0.909
	c-0.438-0.408-0.795-0.934-1.066-1.577c-0.272-0.643-0.408-1.41-0.408-2.301l-0.019-14.102c0-0.507-0.09-0.98-0.269-1.419
	c-0.18-0.439-0.428-0.823-0.742-1.15c-0.316-0.328-0.681-0.584-1.096-0.77c-0.414-0.186-0.862-0.278-1.345-0.278
	s-0.931,0.093-1.345,0.278c-0.415,0.186-0.777,0.442-1.086,0.77c-0.31,0.328-0.554,0.711-0.732,1.15
	c-0.18,0.439-0.27,0.912-0.27,1.419v14.213c0,1.658,0.29,3.099,0.872,4.323c0.581,1.225,1.389,2.239,2.421,3.043
	c1.033,0.804,2.258,1.407,3.674,1.809c1.417,0.402,2.96,0.603,4.63,0.603c1.694,0,3.253-0.204,4.676-0.612
	c1.422-0.408,2.65-1.021,3.683-1.837c1.033-0.816,1.838-1.834,2.412-3.052c0.576-1.218,0.863-2.644,0.863-4.277V34.974
	c0-0.507-0.09-0.98-0.27-1.419c-0.179-0.439-0.426-0.823-0.742-1.15c-0.314-0.328-0.68-0.584-1.094-0.77
	c-0.415-0.186-0.863-0.278-1.346-0.278s-0.931,0.093-1.346,0.278c-0.414,0.186-0.776,0.442-1.085,0.77
	c-0.31,0.328-0.554,0.711-0.733,1.15c-0.179,0.439-0.269,0.912-0.269,1.419v14.101H341.592z"/>
<path fill="#FFFFFF" d="M373.684,35.53c0.717,0,1.397,0.046,2.041,0.139c0.643,0.093,1.206,0.269,1.688,0.529
	s0.863,0.622,1.141,1.085c0.279,0.464,0.418,1.073,0.418,1.828s-0.143,1.376-0.427,1.865c-0.285,0.489-0.677,0.875-1.179,1.16
	c-0.5,0.285-1.101,0.482-1.799,0.594c-0.699,0.111-1.457,0.167-2.273,0.167h-2.653V35.53H373.684z M370.641,46.274h2.895
	c0.939,0,1.793,0.056,2.561,0.167c0.767,0.111,1.422,0.312,1.967,0.603c0.544,0.291,0.965,0.684,1.262,1.178
	c0.297,0.495,0.445,1.132,0.445,1.911c0,0.841-0.13,1.525-0.39,2.05c-0.26,0.526-0.644,0.937-1.15,1.234
	c-0.508,0.297-1.139,0.495-1.893,0.594c-0.755,0.099-1.627,0.148-2.616,0.148h-3.08v-7.885H370.641z M364.091,53.547
	c0,1.027,0.093,1.853,0.278,2.477c0.186,0.625,0.461,1.107,0.825,1.447c0.365,0.34,0.813,0.566,1.346,0.677
	c0.531,0.111,1.15,0.167,1.855,0.167h8.721c1.62,0,3.021-0.213,4.203-0.64c1.181-0.427,2.154-0.986,2.922-1.679
	c0.767-0.693,1.336-1.487,1.707-2.384s0.557-1.815,0.557-2.755c0-0.854-0.143-1.651-0.427-2.394
	c-0.285-0.742-0.687-1.398-1.206-1.967c-0.52-0.569-1.153-1.042-1.902-1.419c-0.748-0.377-1.586-0.634-2.514-0.77v-0.074
	c0.767-0.136,1.466-0.393,2.097-0.77c0.631-0.377,1.175-0.838,1.633-1.382c0.457-0.544,0.81-1.153,1.058-1.828
	c0.247-0.674,0.371-1.376,0.371-2.106c0-1.088-0.167-2.013-0.501-2.774s-0.786-1.392-1.354-1.893
	c-0.569-0.501-1.231-0.891-1.985-1.169c-0.755-0.278-1.559-0.489-2.412-0.631c-0.854-0.142-1.726-0.229-2.616-0.26
	c-0.891-0.031-1.757-0.046-2.598-0.046h-5.752c-0.582,0-1.132,0.062-1.651,0.186c-0.52,0.124-0.974,0.315-1.364,0.575
	c-0.389,0.26-0.702,0.597-0.937,1.011c-0.235,0.415-0.353,0.912-0.353,1.494v18.907H364.091z"/>
<path fill="#FFFFFF" d="M401.248,47.888l7.106-11.819c0.234-0.383,0.401-0.751,0.501-1.104c0.099-0.353,0.148-0.689,0.148-1.011
	c0-0.383-0.068-0.736-0.204-1.058c-0.137-0.322-0.322-0.594-0.557-0.816c-0.235-0.223-0.51-0.396-0.826-0.52
	c-0.314-0.124-0.646-0.186-0.992-0.186c-0.582,0-1.157,0.179-1.726,0.538s-1.064,0.946-1.484,1.763l-5.084,9.778h-0.074l-4.88-9.704
	c-0.408-0.854-0.909-1.466-1.503-1.837s-1.188-0.557-1.781-0.557c-0.396,0-0.776,0.074-1.142,0.223
	c-0.364,0.148-0.686,0.359-0.965,0.631c-0.277,0.272-0.5,0.597-0.668,0.974c-0.166,0.377-0.25,0.795-0.25,1.252
	c0,0.346,0.049,0.702,0.148,1.067s0.266,0.739,0.501,1.123l6.81,11.374v6.698c0,0.507,0.09,0.98,0.27,1.419
	c0.179,0.439,0.423,0.823,0.732,1.15c0.309,0.328,0.671,0.584,1.086,0.77c0.414,0.186,0.862,0.278,1.345,0.278
	s0.931-0.093,1.345-0.278c0.415-0.186,0.779-0.442,1.096-0.77c0.314-0.328,0.565-0.711,0.751-1.15
	c0.186-0.439,0.284-0.912,0.297-1.419L401.248,47.888L401.248,47.888z"/>
<path fill="#FFFFFF" d="M439.912,0.586C439.54,0.213,439.025,0,438.498,0H2C1.473,0,0.958,0.213,0.586,0.586
	C0.213,0.958,0,1.473,0,2v84c0,0.527,0.213,1.042,0.586,1.414C0.959,87.786,1.473,88,2,88h436.498c0.527,0,1.042-0.213,1.414-0.586
	c0.372-0.372,0.586-0.888,0.586-1.414V2C440.498,1.473,440.285,0.958,439.912,0.586z M4,4h432.498v80H4V4z"/>
</svg>
