<?xml version="1.0" encoding="utf-8"?>
<!-- Generator: Adobe Illustrator 17.0.0, SVG Export Plug-In . SVG Version: 6.00 Build 0)  -->
<!DOCTYPE svg PUBLIC "-//W3C//DTD SVG 1.1//EN" "http://www.w3.org/Graphics/SVG/1.1/DTD/svg11.dtd">
<svg version="1.1" id="Layer_1" xmlns="http://www.w3.org/2000/svg" xmlns:xlink="http://www.w3.org/1999/xlink" x="0px" y="0px"
	 width="270.184px" height="282.289px" viewBox="5.001 0.001 270.184 282.289" enable-background="new 5.001 0.001 270.184 282.289"
	 xml:space="preserve">
<path fill="#396DB4" d="M59.841,150.507c11.884-3.256,54.216-38.473,54.216-38.473s-54.121-7.816-66.004-4.561l-26.634,7.423
	c-8.117,2.223-13.95,8.655-15.796,16.294l7.203-0.535l-7.744,3.839c-0.142,1.642-0.097,3.318,0.14,5.001l9.824-0.729l-8.976,4.45
	c0.493,1.542,1.137,2.996,1.916,4.349l9.279-0.689l-7.269,3.604c5.408,6.649,14.414,9.86,23.211,7.45L59.841,150.507"/>
<path fill="#396DB4" d="M219.983,150.057c-11.793-3.568-53.182-39.89-53.182-39.89s54.308-6.385,66.102-2.817l26.429,8.123
	c8.055,2.437,13.716,9.02,15.361,16.706l-7.187-0.725l7.64,4.042c0.099,1.645,0.008,3.319-0.272,4.995l-9.801-0.988l8.855,4.685
	c-0.534,1.528-1.216,2.965-2.031,4.297l-9.258-0.933l7.171,3.794c-5.581,6.504-14.669,9.476-23.399,6.835L219.983,150.057"/>
<path fill="#335CA2" d="M143.516,259.017c-0.037,12.817,10.324,23.237,23.141,23.273c12.817,0.036,23.237-10.324,23.273-23.141
	l0.156-54.703c0.037-12.817-10.324-23.237-23.141-23.273c-12.817-0.037-23.237,10.324-23.273,23.141L143.516,259.017"/>
<path fill="#C2CAE7" d="M189.905,260.183c0,0.001,0,0.002,0,0.003C189.905,260.186,189.905,260.184,189.905,260.183
	 M189.912,260.033c0,0.003,0,0.004,0,0.006C189.912,260.037,189.912,260.035,189.912,260.033 M189.915,259.957
	c0,0.003,0,0.006,0,0.007C189.914,259.963,189.914,259.96,189.915,259.957 M189.917,259.879c0,0.004,0,0.007-0.001,0.012
	C189.917,259.888,189.917,259.883,189.917,259.879 M189.92,259.797c0,0.007-0.001,0.014-0.001,0.021
	C189.92,259.812,189.92,259.803,189.92,259.797 M189.922,259.721c0,0.007-0.001,0.016-0.001,0.024
	C189.922,259.736,189.922,259.728,189.922,259.721 M189.924,259.64c0,0.01-0.001,0.02-0.001,0.03
	C189.924,259.66,189.924,259.65,189.924,259.64 M189.926,259.562c0,0.011-0.001,0.022-0.001,0.034
	C189.926,259.585,189.926,259.573,189.926,259.562 M189.927,259.489c0,0.011-0.001,0.022-0.001,0.033
	C189.927,259.511,189.927,259.499,189.927,259.489 M189.929,259.404c0,0.014-0.001,0.029-0.001,0.043
	C189.929,259.433,189.929,259.418,189.929,259.404 M189.93,259.329c0,0.015,0,0.029-0.001,0.044
	C189.929,259.359,189.929,259.343,189.93,259.329 M189.93,259.271c0,0.009,0,0.018,0,0.027
	C189.93,259.289,189.93,259.28,189.93,259.271 M189.989,238.943L189.989,238.943l-0.057,20.207L189.989,238.943"/>
<path fill="#3966AA" d="M189.989,238.943l-22.942,15.831l-0.073,27.51c12.324-0.13,22.359-9.868,22.932-22.097
	c0-0.001,0-0.003,0-0.003c0.002-0.049,0.004-0.095,0.006-0.144c0-0.003,0-0.004,0-0.006c0.001-0.023,0.002-0.045,0.002-0.068
	c0-0.002,0-0.006,0-0.007c0.001-0.022,0.002-0.044,0.002-0.066c0-0.004,0-0.007,0.001-0.012c0.001-0.021,0.001-0.041,0.002-0.061
	c0-0.007,0.001-0.014,0.001-0.021c0.001-0.019,0.001-0.035,0.002-0.054c0-0.007,0.001-0.016,0.001-0.024
	c0.001-0.016,0.001-0.034,0.001-0.05c0-0.01,0.001-0.02,0.001-0.03c0.001-0.016,0.001-0.029,0.001-0.044
	c0-0.011,0.001-0.022,0.001-0.034c0-0.014,0.001-0.027,0.001-0.041c0-0.011,0.001-0.022,0.001-0.033
	c0-0.014,0.001-0.027,0.001-0.042c0-0.014,0.001-0.029,0.001-0.043c0-0.011,0-0.02,0.001-0.031c0-0.015,0.001-0.029,0.001-0.044
	c0-0.011,0-0.021,0-0.031c0-0.009,0-0.017,0-0.027c0-0.041,0.001-0.082,0.001-0.122l0,0L189.989,238.943"/>
<path fill="#335CA2" d="M132.804,259.017c0.036,12.817-10.324,23.237-23.141,23.273c-12.817,0.036-23.237-10.324-23.273-23.141
	l-0.156-54.703c-0.036-12.817,10.324-23.237,23.141-23.273c12.817-0.037,23.237,10.324,23.273,23.141L132.804,259.017"/>
<path fill="#C2CAE7" d="M86.895,263.923c0.001,0.003,0.001,0.004,0.001,0.007C86.896,263.928,86.896,263.926,86.895,263.923
	 M86.879,263.847c0.001,0.006,0.002,0.011,0.004,0.017C86.881,263.858,86.881,263.853,86.879,263.847 M86.864,263.772
	c0.002,0.009,0.003,0.017,0.005,0.026C86.867,263.788,86.865,263.78,86.864,263.772 M86.848,263.695
	c0.002,0.012,0.005,0.023,0.007,0.035C86.853,263.718,86.85,263.707,86.848,263.695 M86.833,263.618
	c0.003,0.016,0.006,0.029,0.009,0.045C86.839,263.648,86.836,263.633,86.833,263.618 M86.818,263.542
	c0.004,0.018,0.007,0.036,0.011,0.055C86.825,263.578,86.822,263.56,86.818,263.542 M86.803,263.466
	c0.004,0.021,0.008,0.042,0.012,0.064C86.811,263.507,86.807,263.487,86.803,263.466 M86.333,239.27l0.057,19.879
	c0.004,1.474,0.146,2.915,0.413,4.312c-0.267-1.397-0.408-2.839-0.412-4.312L86.333,239.27L86.333,239.27"/>
<path fill="#3966AA" d="M86.333,239.27l0.057,19.879c0.004,1.474,0.146,2.915,0.412,4.312c0,0.001,0.001,0.003,0.001,0.004
	c0.004,0.021,0.008,0.042,0.012,0.064c0.001,0.004,0.002,0.009,0.002,0.013c0.004,0.019,0.007,0.036,0.011,0.055
	c0.001,0.007,0.003,0.015,0.004,0.022c0.003,0.015,0.006,0.03,0.009,0.045c0.002,0.01,0.004,0.022,0.006,0.032
	c0.002,0.012,0.005,0.023,0.007,0.035c0.003,0.014,0.006,0.028,0.009,0.042c0.002,0.009,0.003,0.017,0.005,0.026
	c0.003,0.016,0.007,0.034,0.01,0.05c0.001,0.006,0.002,0.011,0.004,0.017c0.004,0.02,0.008,0.04,0.012,0.059
	c0.001,0.003,0.001,0.004,0.001,0.007c2.213,10.415,11.414,18.237,22.451,18.353l-0.074-27.598L86.333,239.27"/>
<polyline fill="#396DB4" points="229.901,165.766 215.007,108.663 171.294,78.262 109.675,78.262 66.229,108.663 45.748,165.766 
	61.848,222.817 109.675,254.954 166.784,254.954 213.357,222.817 229.901,165.766 "/>
<polyline fill="#3F73B8" points="66.229,108.663 45.748,165.766 61.848,222.817 109.675,254.954 166.784,254.954 202.141,165.766 
	73.845,165.766 109.675,254.954 61.848,222.817 45.748,165.766 66.229,108.663 "/>
<polyline fill="#3663AE" points="109.675,254.954 61.848,222.817 45.748,165.766 66.229,108.663 109.675,78.262 73.845,165.766 
	109.675,254.954 "/>
<polyline fill="#4076BA" points="181.343,85.251 180.942,86.635 175.556,90.351 202.141,165.766 229.901,165.766 226.311,152.002 
	215.007,108.663 211.814,106.442 181.343,85.251 "/>
<polyline fill="#457CBE" points="175.556,90.351 155.192,104.402 123.62,104.402 104.29,91.415 73.845,165.766 202.141,165.766 
	175.556,90.351 "/>
<polyline fill="#3D6EB5" points="97.449,86.818 68.491,107.08 66.229,108.663 45.748,165.766 73.845,165.766 104.29,91.415 
	97.449,86.818 "/>
<path fill="#3663AE" d="M128.176,23.958c0.006-0.11,0.267-9.173,0.271-9.284c0.223-7.878-5.983-14.445-13.862-14.668
	S100.139,5.99,99.917,13.868c-0.003,0.11-0.253,9.174-0.254,9.284L128.176,23.958"/>
<path fill="#396DB4" d="M123.58,24.387c0.004-0.089,0.215-7.398,0.218-7.487c0.18-6.354-4.009-11.627-9.357-11.778
	c-5.347-0.151-9.827,4.877-10.007,11.23c-0.002,0.089-0.205,7.399-0.206,7.488L123.58,24.387"/>
<path fill="#3663AE" d="M181.793,23.958c0.006-0.11,0.267-9.173,0.271-9.284c0.223-7.878-5.984-14.445-13.862-14.668
	c-7.879-0.223-14.445,5.983-14.668,13.862c-0.003,0.11-0.253,9.174-0.254,9.284L181.793,23.958"/>
<path fill="#396DB4" d="M177.197,24.387c0.004-0.089,0.215-7.398,0.218-7.487c0.18-6.354-4.009-11.627-9.357-11.778
	s-9.827,4.877-10.008,11.23c-0.002,0.089-0.205,7.399-0.206,7.488L177.197,24.387"/>
<polyline fill="#396DB4" points="190.088,55.093 181.853,23.524 157.686,6.716 123.62,6.716 99.6,23.524 88.276,55.093 
	97.177,86.635 123.62,104.402 155.192,104.402 180.942,86.635 190.088,55.093 "/>
<polyline fill="#3F73B8" points="174.74,55.093 103.81,55.093 123.62,104.402 97.178,86.635 88.276,55.093 97.178,86.635 
	123.62,104.402 155.192,104.402 174.74,55.093 "/>
<polyline fill="#3663AE" points="123.62,104.402 97.178,86.635 88.276,55.093 99.6,23.524 123.62,6.716 103.81,55.093 
	123.62,104.402 "/>
<polyline fill="#4076BA" points="157.686,6.716 174.74,55.093 190.088,55.093 181.853,23.524 177.314,20.367 160.69,8.805 
	157.686,6.716 "/>
<polyline fill="#457CBE" points="157.686,6.716 126.29,6.716 123.62,6.716 103.81,55.093 174.74,55.093 157.686,6.716 "/>
<polyline fill="#3D6EB5" points="123.62,6.716 121.052,8.513 104.326,20.216 99.6,23.524 88.276,55.093 103.81,55.093 123.62,6.716 
	"/>
<circle fill="#FFFFFF" cx="135.612" cy="46.965" r="2.95"/>
<circle fill="#FFFFFF" cx="144.633" cy="46.965" r="2.95"/>
<circle fill="#231F20" cx="140.151" cy="76.098" r="1.864"/>
<path fill="#231F20" d="M139.629,62.541v12.581c0,0.273,0.221,0.494,0.494,0.494c0.273,0,0.494-0.221,0.494-0.494V62.541
	c0-0.272-0.221-0.494-0.494-0.494C139.85,62.047,139.629,62.268,139.629,62.541"/>
<polygon fill="#231F20" points="151.995,55.113 140.123,66.985 128.251,55.113 "/>
</svg>
