<?xml version="1.0" encoding="utf-8"?>
<!-- Generator: Adobe Illustrator 17.0.0, SVG Export Plug-In . SVG Version: 6.00 Build 0)  -->
<!DOCTYPE svg PUBLIC "-//W3C//DTD SVG 1.1//EN" "http://www.w3.org/Graphics/SVG/1.1/DTD/svg11.dtd">
<svg version="1.1" id="Layer_1" xmlns="http://www.w3.org/2000/svg" xmlns:xlink="http://www.w3.org/1999/xlink" x="0px" y="0px"
	 width="317.664px" height="283.385px" viewBox="0 0 317.664 283.385" enable-background="new 0 0 317.664 283.385"
	 xml:space="preserve">
<g id="guides">
	<rect x="0" y="141.692" fill="#FFFFFF" fill-opacity="0" width="14.691" height="141.692"/>
	<rect x="0" y="0" fill="#FFFFFF" fill-opacity="0" width="14.691" height="141.692"/>
</g>
<path fill="#C5C7C9" d="M106.651,102.551h119.134c-0.021-0.986-0.066-10.358-0.135-11.331
	c-2.178-30.863-27.953-55.226-59.432-55.226c-31.483,0-57.26,24.369-59.433,55.237C106.717,92.201,106.672,101.569,106.651,102.551z
	"/>
<polygon fill="#DDA4CA" points="177.867,87.616 177.867,79.489 192.036,71.989 192.036,49.662 177.904,50.322 149.39,50.322 
	149.39,131.505 177.885,131.505 192.036,118.995 192.036,79.965 "/>
<polygon fill="#CD5E20" points="192.036,79.965 172.215,79.965 176.953,92.103 184.939,90.715 "/>
<polygon fill="#CD5E20" points="192.036,49.662 152.165,49.662 137.229,50.322 159.214,51.254 177.774,51.091 "/>
<path fill="#82806A" d="M182.04,81.492l0.363,0.089l2.842-2.194l1.258-5.732l-3.054,1.419L182.04,81.492z M187.247,72.644
	l-1.409,6.417l0.363,0.089l2.842-2.194l1.258-5.732L187.247,72.644z"/>
<path fill="#DED9B0" d="M182.403,81.581l3.205-2.104l1.258-5.732l-3.054,1.419L182.403,81.581z M187.61,72.733l-1.409,6.417
	l3.205-2.104l1.258-5.732L187.61,72.733z"/>
<polygon fill="#E56825" points="177.867,87.616 177.867,79.489 192.036,71.989 192.036,49.662 177.904,50.322 149.39,50.322 
	149.39,131.505 177.885,131.505 192.036,118.995 192.036,79.965 "/>
<path fill="#E56825" d="M172.798,84.148c-1.401,0-2.536-1.135-2.536-2.536c0-1.4,1.135-2.536,2.536-2.536h5.107V50.322h-40.676
	v81.183h40.657l0.019-47.358H172.798z"/>
<polygon opacity="0.4" fill="#E56825" points="177.905,50.322 137.229,131.506 177.885,131.506 "/>
<ellipse transform="matrix(0.9993 0.037 -0.037 0.9993 2.4096 -6.8319)" fill="#FFFFFF" cx="185.585" cy="61.615" rx="2.921" ry="6.756"/>
<ellipse transform="matrix(0.9993 0.037 -0.037 0.9993 2.4166 -6.8387)" fill="#231F20" cx="185.771" cy="61.801" rx="0.685" ry="1.584"/>
<path opacity="0.25" fill="#57A4C3" d="M106.651,102.551h119.134c-0.021-0.986-0.066-10.358-0.135-11.331
	c-2.178-30.863-27.953-55.226-59.432-55.226c-31.483,0-57.26,24.369-59.433,55.237C106.717,92.201,106.672,101.569,106.651,102.551z
	"/>
<circle fill="#C5C7C9" cx="137.368" cy="62.549" r="7.741"/>
<rect x="114.844" y="165.634" fill="#231F20" width="102.924" height="29.895"/>
<path fill="#454547" d="M220.651,196.425c0,1.415-1.147,2.562-2.562,2.562H115.4c-1.415,0-2.562-1.147-2.562-2.562v-0.602
	c0-1.415,1.147-2.562,2.562-2.562h102.689c1.415,0,2.562,1.147,2.562,2.562V196.425z"/>
<ellipse fill="#231F20" cx="70.843" cy="140.262" rx="23.221" ry="58.292"/>
<path fill="#EC1C24" d="M223.669,100.916c-0.892-0.044-127.867-0.074-145.449-0.09c-0.334-0.051-0.67-0.079-1.009-0.079
	c-0.333,0-0.662,0.028-0.99,0.076c-0.002,0-0.005,0-0.007,0v0.001c-8.64,1.294-15.489,19.292-15.489,41.307
	c0,22.856,7.381,41.385,16.486,41.385c0.375,0,0.747-0.034,1.116-0.096c17.979-0.016,144.46-0.046,145.354-0.09
	c30.421-1.51,54.435-19.381,54.435-41.206C278.115,120.295,254.095,102.422,223.669,100.916z"/>
<path fill="#F05A22" d="M278.111,141.934c-0.139-21.742-24.105-39.516-54.443-41.017c-0.892-0.044-127.867-0.074-145.449-0.09
	c-0.334-0.051-0.67-0.079-1.009-0.079c-0.333,0-0.662,0.028-0.99,0.076c-0.002,0-0.005,0-0.007,0v0.001
	c-8.614,1.29-15.447,19.184-15.488,41.109H278.111z"/>
<path fill="#231F20" d="M234.012,141.113c0,5.131-28.971,9.29-64.708,9.29s-64.708-9.29-64.708-9.29s28.971-9.29,64.708-9.29
	S234.012,135.982,234.012,141.113z"/>
<path fill="#231F20" d="M276.233,136.226v9.773c23-0.895,40.431-4.886,40.431-4.886S299.233,137.122,276.233,136.226z"/>
<ellipse fill="#231F20" cx="276.389" cy="141.103" rx="1.706" ry="4.907"/>
</svg>
