<?xml version="1.0" encoding="utf-8"?>
<!-- Generator: Adobe Illustrator 17.0.0, SVG Export Plug-In . SVG Version: 6.00 Build 0)  -->
<!DOCTYPE svg PUBLIC "-//W3C//DTD SVG 1.1//EN" "http://www.w3.org/Graphics/SVG/1.1/DTD/svg11.dtd">
<svg version="1.1" id="Layer_1" xmlns="http://www.w3.org/2000/svg" xmlns:xlink="http://www.w3.org/1999/xlink" x="0px" y="0px"
	 width="317.664px" height="283.385px" viewBox="0 0 317.664 283.385" enable-background="new 0 0 317.664 283.385"
	 xml:space="preserve">
<path opacity="0.6" fill="#FFFFFF" enable-background="new    " d="M106.198,102.123h119.96c-0.024-0.989-0.071-10.426-0.131-11.415
	c-2.192-31.074-28.143-55.607-59.837-55.607s-57.656,24.533-59.837,55.619C106.269,91.697,106.222,101.134,106.198,102.123z"/>
<g id="face-beam">
	<polygon fill="#DCA4CA" points="177.902,87.754 177.902,74.599 192.176,67.045 192.176,48.875 177.938,49.53 149.235,49.53 
		149.235,131.946 177.926,131.946 192.176,119.34 192.176,82.428 	"/>
	<polygon fill="#CB5F28" points="192.176,82.428 168.31,82.475 176.961,94.378 185.027,90.875 	"/>
	<polygon fill="#CB5F28" points="192.176,48.875 152.023,48.875 136.986,49.53 159.124,50.472 177.807,50.305 	"/>
	<g>
		<path fill="#81806A" d="M181.989,77.519l0.369,0.095l2.86-2.204l1.263-5.767l-3.074,1.43L181.989,77.519z M187.231,68.618
			l-1.418,6.458l0.369,0.095l2.86-2.204l1.263-5.767L187.231,68.618z"/>
		<path fill="#DDD8AF" d="M182.346,77.614l3.229-2.121l1.263-5.767l-3.074,1.43L182.346,77.614z M187.589,68.702l-1.418,6.458
			l3.229-2.121l1.263-5.767L187.589,68.702z"/>
	</g>
	<polygon fill="#E46825" points="177.902,92.603 177.902,74.599 192.176,67.045 192.176,48.875 177.938,49.53 149.235,49.53 
		149.235,131.946 177.926,131.946 192.176,119.34 192.176,82.428 	"/>
	<path fill="#E46825" d="M172.802,84.262c-1.406,0-2.55-1.144-2.55-2.55c0-1.406,1.144-2.55,2.55-2.55h5.147V49.53h-40.952v82.404
		h40.94l0.024-47.684L172.802,84.262L172.802,84.262z"/>
	<g>
		
			<ellipse transform="matrix(0.037 -0.9993 0.9993 0.037 117.3985 244.9384)" fill="#FFFFFF" cx="185.787" cy="61.556" rx="6.803" ry="2.943"/>
		
			<ellipse transform="matrix(0.037 -0.9993 0.9993 0.037 115.2478 244.2554)" fill="#221F1F" cx="184.357" cy="62.331" rx="1.597" ry="0.691"/>
	</g>
	<g opacity="0.3">
		<path fill="#F4C3A8" d="M177.938,49.53l-40.952,82.416h40.94L177.938,49.53 M177.938,49.53L177.938,49.53"/>
	</g>
	<polygon fill="#E46825" points="178.224,68.904 191.735,62.97 191.926,66.271 178.271,73.622 	"/>
</g>
<g id="face-default">
	<polygon fill="#DCA4CA" points="177.902,87.086 177.902,78.901 192.176,71.347 192.176,48.875 177.938,49.53 149.235,49.53 
		149.235,131.279 177.926,131.279 192.176,118.685 192.176,79.377 	"/>
	<polygon fill="#CB5F28" points="192.176,79.377 172.219,79.377 176.985,91.602 185.027,90.208 	"/>
	<polygon fill="#CB5F28" points="192.176,48.875 152.023,48.875 136.986,49.53 159.124,50.472 177.807,50.305 	"/>
	<path fill="#81806A" d="M182.108,80.914l0.369,0.095l2.86-2.204l1.263-5.767l-3.074,1.43L182.108,80.914z M187.351,72.014
		l-1.418,6.458l0.369,0.095l2.86-2.204l1.263-5.767L187.351,72.014z"/>
	<path fill="#DDD8AF" d="M182.477,81.01l3.229-2.121l1.263-5.767l-3.074,1.43L182.477,81.01z M187.72,72.097l-1.418,6.458
		l3.229-2.121l1.263-5.767L187.72,72.097z"/>
	<polygon fill="#E46825" points="177.902,87.086 177.902,78.901 192.176,71.347 192.176,48.875 177.938,49.53 149.235,49.53 
		149.235,131.279 177.926,131.279 192.176,118.685 192.176,79.377 	"/>
	<path fill="#E46825" d="M172.802,83.595c-1.406,0-2.55-1.144-2.55-2.55c0-1.406,1.144-2.55,2.55-2.55h5.147V49.542h-40.952v81.737
		h40.94l0.024-47.684H172.802z"/>
	<g opacity="0.3">
		<path fill="#F4C3A7" d="M177.938,49.53l-40.952,81.748h40.94L177.938,49.53 M177.938,49.53L177.938,49.53"/>
	</g>
	
		<ellipse transform="matrix(0.037 -0.9993 0.9993 0.037 117.9398 244.1871)" fill="#FFFFFF" cx="185.668" cy="60.9" rx="6.803" ry="2.943"/>
	
		<ellipse transform="matrix(0.037 -0.9993 0.9993 0.037 117.9436 244.5509)" fill="#221F1F" cx="185.858" cy="61.08" rx="1.597" ry="0.691"/>
</g>
<path opacity="0.2" fill="#57A3C2" enable-background="new    " d="M106.198,102.123h119.96c-0.024-0.989-0.071-10.426-0.131-11.415
	c-2.192-31.074-28.143-55.607-59.837-55.607s-57.656,24.533-59.837,55.619C106.269,91.697,106.222,101.134,106.198,102.123z"/>
<circle opacity="0.4" fill="#FFFFFF" enable-background="new    " cx="137.129" cy="61.85" r="7.792"/>
<g id="beam-port">
	<rect x="114.443" y="165.642" fill="#221F1F" width="103.636" height="30.097"/>
	<path fill="#454547" d="M220.986,196.644c0,1.43-1.156,2.586-2.586,2.586H115.003c-1.43,0-2.586-1.156-2.586-2.586v-0.608
		c0-1.43,1.156-2.586,2.586-2.586h103.398c1.43,0,2.586,1.156,2.586,2.586L220.986,196.644L220.986,196.644z"/>
</g>
<g id="flame-large">
	<path fill="#EA2127" d="M81.129,141.99c0,9.925-18.158,17.98-40.558,17.98S0,141.99,0,141.99s18.158-17.98,40.558-17.98
		S81.129,132.065,81.129,141.99z"/>
	<path fill="#E0D020" d="M73.193,141.99c0,5.886-10.771,10.664-24.068,10.664S25.057,141.99,25.057,141.99
		s10.771-10.664,24.068-10.664S73.193,136.092,73.193,141.99z"/>
</g>
<ellipse fill="#221F1F" cx="70.143" cy="140.096" rx="23.377" ry="58.693"/>
<path fill="#EA2127" d="M224.025,100.479c-0.894-0.048-128.753-0.071-146.447-0.095c-0.334-0.048-0.679-0.083-1.013-0.083
	s-0.667,0.024-1.001,0.071c0,0,0,0-0.012,0l0,0c-8.698,1.299-15.597,19.421-15.597,41.595c0,23.008,7.435,41.667,16.598,41.667
	c0.381,0,0.751-0.036,1.12-0.095c18.099-0.012,145.458-0.048,146.351-0.095c30.633-1.525,54.809-19.517,54.809-41.488
	C278.845,119.983,254.658,101.992,224.025,100.479z"/>
<path fill="#F05B24" d="M278.845,141.776c-0.143-21.888-24.271-39.784-54.821-41.297c-0.894-0.048-128.753-0.071-146.447-0.095
	c-0.334-0.048-0.679-0.083-1.013-0.083s-0.667,0.024-1.001,0.071c0,0,0,0-0.012,0l0,0c-8.674,1.299-15.549,19.314-15.597,41.393
	h218.889V141.776L278.845,141.776z"/>
<path fill="#221F1F" d="M234.438,140.954c0,5.171-29.168,9.353-65.151,9.353s-65.151-9.353-65.151-9.353s29.168-9.353,65.151-9.353
	S234.438,135.783,234.438,140.954z"/>
<path fill="#221F1F" d="M276.951,136.033v9.842c23.163-0.906,40.713-4.921,40.713-4.921S300.102,136.927,276.951,136.033z"/>
<ellipse fill="#221F1F" cx="277.106" cy="140.942" rx="1.716" ry="4.945"/>
<g id="guides">
	<rect x="0" y="141.692" fill="#FFFFFF" fill-opacity="0" width="14.691" height="141.692"/>
	<rect x="0" y="0" fill="#FFFFFF" fill-opacity="0" width="14.691" height="141.692"/>
</g>
</svg>
