<?xml version="1.0" encoding="utf-8"?>
<!-- Generator: Adobe Illustrator 17.0.0, SVG Export Plug-In . SVG Version: 6.00 Build 0)  -->
<!DOCTYPE svg PUBLIC "-//W3C//DTD SVG 1.1//EN" "http://www.w3.org/Graphics/SVG/1.1/DTD/svg11.dtd">
<svg version="1.1" id="Layer_1" xmlns="http://www.w3.org/2000/svg" xmlns:xlink="http://www.w3.org/1999/xlink" x="0px" y="0px"
	 width="248.195px" height="295.359px" viewBox="0 0 248.195 295.359" enable-background="new 0 0 248.195 295.359"
	 xml:space="preserve">
<polygon fill="#3563AD" points="170.871,105.637 248.195,137.729 170.871,169.821 "/>
<polygon fill="#3563AD" points="77.324,169.821 0,137.729 77.324,105.636 "/>
<polygon fill="#3563AD" points="127.766,211.847 169.522,253.602 127.766,295.359 "/>
<polygon fill="#3563AD" points="119.351,211.847 77.595,253.602 119.351,295.359 "/>
<polygon fill="#3563AD" points="74.367,23.487 97.855,0 121.342,23.487 "/>
<polygon fill="#3563AD" points="126.794,23.487 150.281,0 173.768,23.487 "/>
<polygon fill="#396DB4" points="95.17,270.056 48.423,236.093 30.568,181.14 48.423,126.186 95.17,92.223 152.95,92.223 
	199.697,126.186 217.552,181.14 199.697,236.093 152.95,270.056 "/>
<polygon fill="#396DB4" points="96.497,120.312 62.126,77.212 74.393,23.468 124.06,10.456 173.728,23.468 185.994,77.212 
	151.623,120.312 "/>
<polygon fill="#3563AD" points="62.126,77.212 74.393,23.468 124.06,10.456 "/>
<polygon fill="#3563AD" points="185.995,77.212 173.729,23.468 124.061,10.456 "/>
<polygon fill="#3563AD" points="96.497,120.312 62.126,77.212 185.994,77.212 151.623,120.312 "/>
<path fill="#FFFFFF" d="M121.85,46.389c0,1.799-1.459,3.258-3.258,3.258c-1.8,0-3.258-1.459-3.258-3.258s1.458-3.258,3.258-3.258
	C120.391,43.132,121.85,44.591,121.85,46.389"/>
<path fill="#FFFFFF" d="M131.813,46.389c0,1.799-1.459,3.258-3.258,3.258s-3.258-1.459-3.258-3.258s1.459-3.258,3.258-3.258
	S131.813,44.591,131.813,46.389"/>
<polygon fill="#3563AD" points="48.423,126.185 95.17,92.223 152.951,92.223 199.697,126.185 "/>
<path fill="#231F20" d="M123.029,63.591v13.894c0,0.301,0.244,0.545,0.545,0.545c0.302,0,0.546-0.244,0.546-0.545V63.591
	c0-0.301-0.244-0.545-0.546-0.545S123.029,63.29,123.029,63.591"/>
<path fill="#231F20" d="M127.018,77.278c0,0.9-0.729,1.629-1.629,1.629h-3.407c-0.899,0-1.628-0.729-1.628-1.629
	c0-0.9,0.729-1.629,1.628-1.629h3.407C126.29,75.65,127.018,76.379,127.018,77.278"/>
<polygon fill="#231F20" points="136.685,55.388 123.574,68.499 110.463,55.388 "/>
<polygon fill="#3563AD" points="95.17,270.056 48.423,236.093 199.697,236.093 152.95,270.056 "/>
<polygon fill="#3563AD" points="95.17,270.056 48.423,236.093 30.568,181.14 48.423,126.186 "/>
<polygon fill="#3563AD" points="152.951,270.056 199.697,236.093 217.553,181.14 199.697,126.186 "/>
</svg>
