<?xml version="1.0" encoding="utf-8"?>
<!-- Generator: Adobe Illustrator 17.0.0, SVG Export Plug-In . SVG Version: 6.00 Build 0)  -->
<!DOCTYPE svg PUBLIC "-//W3C//DTD SVG 1.1//EN" "http://www.w3.org/Graphics/SVG/1.1/DTD/svg11.dtd">
<svg version="1.1" id="Layer_1" xmlns="http://www.w3.org/2000/svg" xmlns:xlink="http://www.w3.org/1999/xlink" x="0px" y="0px"
	 width="258.37px" height="258.37px" viewBox="0 0 258.37 258.37" enable-background="new 0 0 258.37 258.37" xml:space="preserve">
<path fill="#396DB4" d="M181.25,10.93c-0.5-0.25-1.57-0.33-1.58-0.33c-5.16,0-9.35,12.61-9.35,28.24c0,22.96,8.11,28.05,8.11,28.05
	c18.37,14.54,30.16,37.04,30.16,62.29c0,43.85-35.55,79.41-79.41,79.41s-79.41-35.55-79.41-79.41s35.55-79.41,79.41-79.41
	c0.08,0,0.16,0,0.23,0v-0.01c13.66-0.1,24.7-11.2,24.7-24.88C154.12,11.14,142.98,0,129.23,0h-0.1l0,0C57.81,0.03,0,57.86,0,129.19
	c0,71.35,57.84,129.18,129.18,129.18s129.18-57.84,129.18-129.18C258.37,76.37,226.66,30.96,181.25,10.93z"/>
<path fill="#6286BF" enable-background="new    " d="M27.37,179.95c-7.65-15.29-11.96-32.52-11.96-50.76
	c0-31.36,12.75-59.78,33.35-80.39c20.61-20.61,49.02-33.37,80.38-33.38h0.03h0.27c1.96-0.02,3.54-1.62,3.52-3.59
	c-0.02-1.96-1.62-3.54-3.59-3.52h-0.27h0.03c-33.3,0-63.53,13.57-85.4,35.45C21.85,65.64,8.29,95.88,8.3,129.19
	c0,19.36,4.58,37.7,12.72,53.94c0.88,1.76,3.02,2.47,4.77,1.59S28.25,181.7,27.37,179.95L27.37,179.95z"/>
<path fill="#6286BF" enable-background="new    " d="M242.96,129.19c0,31.37-12.75,59.8-33.36,80.41
	c-20.62,20.61-49.04,33.36-80.41,33.36c-18.68,0-36.31-4.52-51.87-12.53c-1.75-0.9-3.89-0.21-4.79,1.54s-0.21,3.89,1.54,4.79
	c16.54,8.51,35.29,13.32,55.13,13.32c33.32,0,63.56-13.56,85.44-35.45c21.88-21.88,35.45-52.12,35.45-85.44
	c0-1.96-1.59-3.56-3.56-3.56C244.55,125.63,242.96,127.22,242.96,129.19L242.96,129.19z"/>
<path fill="#2B5289" d="M179.7,17.96h-0.01h-0.01c-3.38,0-6.12,9.35-6.12,20.88s2.74,20.88,6.12,20.88h0.01h0.01
	c3.38,0,6.12-9.35,6.12-20.88C185.82,27.31,183.08,17.96,179.7,17.96z"/>
<circle fill="#6286BF" enable-background="new    " cx="245.87" cy="111.01" r="3.92"/>
</svg>
