<?xml version="1.0" encoding="utf-8"?>
<!-- Generator: Adobe Illustrator 17.0.0, SVG Export Plug-In . SVG Version: 6.00 Build 0)  -->
<!DOCTYPE svg PUBLIC "-//W3C//DTD SVG 1.1//EN" "http://www.w3.org/Graphics/SVG/1.1/DTD/svg11.dtd">
<svg version="1.1" id="Layer_1" xmlns="http://www.w3.org/2000/svg" xmlns:xlink="http://www.w3.org/1999/xlink" x="0px" y="0px"
	 width="757.9px" height="202.028px" viewBox="0 0 757.9 202.028" enable-background="new 0 0 757.9 202.028" xml:space="preserve">
<path fill="#00A348" d="M663.34,202.028c-1.276-54.364-45.743-98.042-100.414-98.042c-54.67,0-99.138,43.678-100.414,98.042H663.34"
	/>
<path fill="#00A348" d="M372.606,202.028c-1.752-74.605-62.776-134.546-137.802-134.546S98.754,127.423,97.001,202.028H372.606"/>
<path fill="#76C043" d="M604.107,202.028C601.476,90.005,509.846,0,397.19,0S192.903,90.005,190.272,202.028H604.107"/>
<path fill="#76C043" d="M207.761,202.028c-1.289-54.887-46.184-98.986-101.381-98.986c-55.197,0-100.093,44.099-101.382,98.986
	H207.761"/>
<path fill="#76C043" d="M752.902,202.028c-0.957-40.736-34.276-73.465-75.243-73.465c-40.966,0-74.286,32.729-75.243,73.465H752.902
	"/>
<path fill="#60BB46" d="M397.19,0C299.99,0,218.442,67.005,196.205,157.341c7.044,13.405,11.178,28.583,11.556,44.687H397.43V0.003
	L397.19,0L397.19,0"/>
<path fill="#60BB46" d="M196.205,157.341c-3.536,14.366-5.572,29.317-5.932,44.687h17.489
	C207.383,185.925,203.249,170.746,196.205,157.341L196.205,157.341"/>
<path fill="#60BB46" d="M602.419,201.909c-0.001,0.04-0.002,0.08-0.003,0.119l0,0C602.417,201.989,602.418,201.949,602.419,201.909
	 M602.426,201.672c-0.002,0.079-0.004,0.157-0.006,0.236C602.421,201.828,602.423,201.751,602.426,201.672 M602.437,201.314
	c0,0.01-0.001,0.02-0.001,0.03C602.436,201.334,602.436,201.324,602.437,201.314 M602.441,201.196c0,0.01-0.001,0.021-0.001,0.031
	C602.44,201.217,602.44,201.206,602.441,201.196 M602.445,201.078c0,0.007,0,0.015-0.001,0.022
	C602.444,201.092,602.444,201.085,602.445,201.078 M602.449,200.958c0,0.012-0.001,0.026-0.001,0.039
	C602.448,200.985,602.449,200.971,602.449,200.958 M602.458,200.722c0,0.003,0,0.002,0,0.004L602.458,200.722 M602.463,200.603
	c0,0.007-0.001,0.015-0.001,0.022C602.463,200.618,602.463,200.61,602.463,200.603 M602.468,200.484c0,0.01-0.001,0.021-0.001,0.031
	C602.468,200.503,602.468,200.497,602.468,200.484 M602.474,200.366c-0.001,0.012-0.001,0.023-0.002,0.036
	C602.473,200.389,602.473,200.378,602.474,200.366 M602.479,200.249c0,0.002,0,0.008,0,0.01
	C602.479,200.257,602.479,200.251,602.479,200.249 M602.485,200.13c0,0.005,0,0.008-0.001,0.013
	C602.484,200.14,602.484,200.132,602.485,200.13 M602.49,200.011c0,0.01-0.001,0.02-0.001,0.03
	C602.49,200.031,602.49,200.021,602.49,200.011 M602.497,199.892c-0.001,0.01-0.001,0.022-0.002,0.032
	C602.495,199.915,602.496,199.902,602.497,199.892 M602.503,199.775c0,0.007-0.001,0.016-0.001,0.024
	C602.502,199.791,602.502,199.782,602.503,199.775 M602.509,199.657c0,0.005-0.001,0.012-0.001,0.017
	C602.508,199.669,602.509,199.662,602.509,199.657 M602.516,199.54c0,0.002,0,0.003,0,0.005
	C602.515,199.543,602.515,199.542,602.516,199.54 M602.522,199.421c0,0.005-0.001,0.01-0.001,0.015
	C602.522,199.431,602.522,199.426,602.522,199.421 M602.529,199.303c0,0.005-0.001,0.015-0.001,0.019
	C602.529,199.315,602.529,199.31,602.529,199.303 M602.536,199.185c0,0.002,0,0.008-0.001,0.011
	C602.536,199.191,602.536,199.19,602.536,199.185 M602.544,199.066c0,0.007-0.001,0.018-0.002,0.026
	C602.542,199.084,602.543,199.074,602.544,199.066 M602.551,198.949c0,0.005-0.001,0.012-0.001,0.017
	C602.55,198.962,602.551,198.954,602.551,198.949 M602.559,198.832c0,0.005,0,0.009-0.001,0.013
	C602.558,198.84,602.558,198.837,602.559,198.832 M602.574,198.597c0,0.002,0,0.006-0.001,0.009
	C602.574,198.603,602.574,198.599,602.574,198.597 M602.583,198.479c0,0.002,0,0.005,0,0.007
	C602.582,198.484,602.582,198.482,602.583,198.479 M602.591,198.361c0,0.005-0.001,0.008-0.001,0.013
	C602.59,198.369,602.591,198.366,602.591,198.361"/>
<path fill="#60BB46" d="M677.294,128.573c-39.563,0.189-71.911,30.893-74.703,69.789c0,0.005-0.001,0.008-0.001,0.013
	c-0.002,0.034-0.005,0.071-0.007,0.105c0,0.002,0,0.005,0,0.007c-0.003,0.037-0.005,0.073-0.008,0.11c0,0.002,0,0.006-0.001,0.009
	c-0.005,0.076-0.01,0.15-0.015,0.226c0,0.005,0,0.009-0.001,0.013c-0.002,0.034-0.005,0.07-0.007,0.104
	c0,0.005-0.001,0.012-0.001,0.017c-0.002,0.034-0.004,0.065-0.006,0.1c0,0.007-0.001,0.018-0.002,0.026
	c-0.002,0.032-0.004,0.062-0.006,0.094c0,0.005,0,0.006-0.001,0.011c-0.002,0.037-0.004,0.07-0.006,0.106
	c0,0.007-0.001,0.012-0.001,0.019c-0.002,0.034-0.004,0.064-0.006,0.099c0,0.005-0.001,0.01-0.001,0.015
	c-0.002,0.034-0.004,0.069-0.006,0.103c0,0.002,0,0.003,0,0.005c-0.002,0.037-0.004,0.075-0.006,0.112
	c0,0.005-0.001,0.012-0.001,0.017c-0.002,0.034-0.004,0.066-0.005,0.101c0,0.007-0.001,0.016-0.001,0.024
	c-0.002,0.032-0.003,0.062-0.005,0.094c-0.001,0.01-0.001,0.022-0.002,0.032c-0.001,0.03-0.003,0.057-0.004,0.086
	c0,0.01-0.001,0.02-0.001,0.03c-0.001,0.03-0.003,0.059-0.004,0.089c0,0.003,0,0.01-0.001,0.013
	c-0.002,0.034-0.003,0.072-0.005,0.106c0,0.002,0,0.008,0,0.01c-0.002,0.037-0.003,0.07-0.005,0.107
	c-0.001,0.012-0.001,0.023-0.002,0.036c-0.001,0.027-0.003,0.056-0.004,0.083c-0.001,0.012-0.001,0.018-0.001,0.031
	c-0.001,0.03-0.003,0.058-0.004,0.088c0,0.007-0.001,0.015-0.001,0.022c-0.001,0.032-0.003,0.065-0.004,0.097l0,0.004
	c-0.003,0.077-0.006,0.155-0.009,0.232c0,0.012-0.001,0.026-0.001,0.039c-0.001,0.027-0.002,0.053-0.003,0.081
	c0,0.007,0,0.015-0.001,0.022c-0.001,0.032-0.002,0.064-0.003,0.096c0,0.01-0.001,0.021-0.001,0.031
	c-0.001,0.03-0.002,0.058-0.003,0.088c0,0.01-0.001,0.02-0.001,0.03c-0.004,0.109-0.007,0.218-0.01,0.327
	c-0.002,0.08-0.004,0.157-0.006,0.236l0,0.001c-0.001,0.04-0.002,0.08-0.003,0.119h74.878V128.573"/>
<path fill="#D5E9C3" d="M5.002,201.869c-0.001,0.053-0.003,0.106-0.004,0.159l0,0C4.999,201.975,5.001,201.923,5.002,201.869
	 M5.006,201.709c-0.001,0.026-0.001,0.056-0.002,0.083C5.005,201.765,5.005,201.736,5.006,201.709 M5.01,201.551
	c0,0.02-0.001,0.043-0.002,0.063C5.009,201.59,5.01,201.574,5.01,201.551 M5.015,201.39c-0.001,0.02-0.001,0.048-0.002,0.068
	C5.014,201.434,5.014,201.414,5.015,201.39 M5.02,201.23c-0.001,0.026-0.002,0.058-0.003,0.085
	C5.018,201.285,5.019,201.26,5.02,201.23 M5.025,201.072c-0.001,0.023-0.002,0.055-0.003,0.078
	C5.023,201.123,5.024,201.098,5.025,201.072 M5.03,200.915c-0.001,0.016-0.001,0.035-0.002,0.052
	C5.029,200.95,5.03,200.931,5.03,200.915 M5.036,200.754c-0.001,0.02-0.001,0.032-0.002,0.052
	C5.035,200.789,5.035,200.771,5.036,200.754 M5.042,200.594c-0.001,0.023-0.001,0.041-0.002,0.064
	C5.04,200.638,5.041,200.614,5.042,200.594 M5.048,200.436c-0.001,0.02-0.002,0.041-0.002,0.06
	C5.046,200.477,5.047,200.456,5.048,200.436 M5.054,200.278c-0.001,0.02-0.001,0.032-0.002,0.052
	C5.053,200.31,5.053,200.298,5.054,200.278 M5.061,200.12c-0.001,0.016-0.001,0.032-0.002,0.049
	C5.059,200.152,5.06,200.136,5.061,200.12 M5.067,199.96c-0.001,0.02-0.002,0.036-0.002,0.055
	C5.066,199.999,5.067,199.976,5.067,199.96 M5.074,199.803c-0.001,0.016-0.001,0.03-0.002,0.047
	C5.073,199.833,5.074,199.82,5.074,199.803 M5.082,199.644c-0.001,0.016-0.001,0.03-0.002,0.046
	C5.08,199.674,5.081,199.661,5.082,199.644 M5.089,199.487c-0.001,0.013-0.001,0.026-0.002,0.039
	C5.088,199.513,5.088,199.5,5.089,199.487 M5.097,199.327c-0.001,0.016-0.002,0.031-0.002,0.047
	C5.095,199.358,5.096,199.344,5.097,199.327 M5.105,199.171c-0.001,0.013-0.001,0.026-0.002,0.04
	C5.104,199.197,5.104,199.184,5.105,199.171 M5.113,199.012c-0.001,0.013-0.001,0.027-0.002,0.04
	C5.112,199.039,5.112,199.025,5.113,199.012 M5.122,198.855c-0.001,0.013-0.001,0.022-0.002,0.035
	C5.12,198.877,5.121,198.868,5.122,198.855 M5.13,198.697c-0.001,0.013-0.001,0.025-0.002,0.038
	C5.129,198.721,5.13,198.71,5.13,198.697 M5.139,198.541c0,0.01-0.001,0.019-0.002,0.029C5.138,198.563,5.139,198.548,5.139,198.541
	 M5.148,198.383c-0.001,0.01-0.001,0.018-0.002,0.028C5.147,198.405,5.148,198.39,5.148,198.383 M5.158,198.227
	c-0.001,0.01-0.001,0.013-0.001,0.023C5.157,198.244,5.157,198.234,5.158,198.227 M5.167,198.071c0,0.007-0.001,0.012-0.001,0.019
	C5.167,198.083,5.167,198.078,5.167,198.071 M5.177,197.916c0,0.003,0,0.008-0.001,0.011C5.177,197.923,5.177,197.919,5.177,197.916
	 M5.187,197.759c0,0.003,0,0.006-0.001,0.01C5.187,197.765,5.187,197.762,5.187,197.759 M5.197,197.604l0,0.002
	C5.197,197.603,5.197,197.607,5.197,197.604 M5.208,197.445c0,0.003,0,0.005,0,0.008C5.208,197.45,5.208,197.448,5.208,197.445
	 M5.23,197.133l0,0.003L5.23,197.133"/>
<path fill="#60BB46" d="M104.394,103.092c-52.638,1.015-95.459,42.106-99.164,94.041l0,0.003c-0.007,0.105-0.014,0.205-0.022,0.309
	c0,0.003,0,0.005,0,0.008c-0.003,0.049-0.007,0.102-0.01,0.151c0,0.003,0-0.001,0,0.002c-0.004,0.052-0.007,0.1-0.01,0.153
	c0,0.003,0,0.006-0.001,0.01c-0.003,0.049-0.006,0.098-0.009,0.147c0,0.003,0,0.008-0.001,0.011
	c-0.003,0.046-0.006,0.099-0.009,0.144c0,0.007-0.001,0.012-0.001,0.019c-0.003,0.046-0.006,0.092-0.008,0.137
	c0,0.007-0.001,0.017-0.001,0.023c-0.003,0.043-0.005,0.091-0.008,0.133c0,0.007-0.001,0.021-0.002,0.028
	c-0.002,0.043-0.005,0.087-0.008,0.13c0,0.007-0.001,0.022-0.002,0.029c-0.002,0.043-0.005,0.084-0.007,0.127
	c-0.001,0.013-0.001,0.025-0.002,0.038c-0.002,0.039-0.005,0.081-0.007,0.12c-0.001,0.013-0.001,0.022-0.002,0.035
	c-0.002,0.039-0.005,0.082-0.007,0.122c-0.001,0.013-0.001,0.027-0.002,0.04c-0.002,0.039-0.004,0.079-0.006,0.119
	c-0.001,0.013-0.001,0.026-0.002,0.04c-0.002,0.039-0.004,0.077-0.006,0.117c-0.001,0.017-0.002,0.031-0.002,0.047
	c-0.002,0.036-0.004,0.077-0.005,0.113c-0.001,0.013-0.001,0.026-0.002,0.039c-0.002,0.039-0.004,0.079-0.006,0.118
	c-0.001,0.017-0.001,0.03-0.002,0.046c-0.002,0.036-0.004,0.076-0.005,0.113c-0.001,0.017-0.001,0.03-0.002,0.047
	c-0.002,0.036-0.003,0.074-0.005,0.11c-0.001,0.017-0.002,0.039-0.002,0.055c-0.001,0.033-0.003,0.071-0.004,0.104
	c-0.001,0.017-0.001,0.032-0.002,0.049c-0.001,0.036-0.003,0.074-0.005,0.11c-0.001,0.02-0.001,0.032-0.002,0.052
	c-0.001,0.033-0.003,0.073-0.004,0.106c-0.001,0.02-0.002,0.04-0.002,0.06c-0.001,0.033-0.003,0.065-0.004,0.098
	c-0.001,0.02-0.002,0.044-0.002,0.064c-0.001,0.03-0.002,0.066-0.004,0.096c-0.001,0.017-0.001,0.035-0.002,0.052
	c-0.001,0.036-0.003,0.072-0.004,0.108c-0.001,0.017-0.001,0.035-0.002,0.052c-0.001,0.036-0.002,0.069-0.004,0.105
	c-0.001,0.027-0.002,0.052-0.003,0.078c-0.001,0.03-0.002,0.05-0.003,0.08c-0.001,0.03-0.002,0.055-0.003,0.085
	c-0.001,0.026-0.001,0.049-0.002,0.075c-0.001,0.023-0.001,0.044-0.002,0.068c-0.001,0.033-0.002,0.06-0.003,0.093
	c-0.001,0.023-0.001,0.04-0.002,0.063c-0.001,0.033-0.002,0.062-0.003,0.095c-0.001,0.027-0.001,0.056-0.002,0.083
	c-0.001,0.026-0.001,0.051-0.002,0.078c-0.001,0.054-0.003,0.106-0.004,0.159h99.396V103.092"/>
</svg>
