<?xml version="1.0" encoding="utf-8"?>
<!-- Generator: Adobe Illustrator 17.0.0, SVG Export Plug-In . SVG Version: 6.00 Build 0)  -->
<!DOCTYPE svg PUBLIC "-//W3C//DTD SVG 1.1//EN" "http://www.w3.org/Graphics/SVG/1.1/DTD/svg11.dtd">
<svg version="1.1" id="Layer_1" xmlns="http://www.w3.org/2000/svg" xmlns:xlink="http://www.w3.org/1999/xlink" x="0px" y="0px"
	 width="295.52px" height="122.257px" viewBox="0 0 295.52 122.257" enable-background="new 0 0 295.52 122.257"
	 xml:space="preserve">
<polyline fill="#50A646" points="56.177,122.257 5,73.665 239.343,73.665 290.52,122.257 56.177,122.257 "/>
<polyline fill="#81C44E" points="59.292,117.639 16.06,76.945 233.034,76.945 276.266,117.639 59.292,117.639 "/>
<polyline fill="#553A27" points="213.315,83.796 83.555,103.58 62.915,83.796 62.915,15.86 213.315,15.86 233.956,35.645 
	213.315,83.796 "/>
<polyline fill="#553A27" points="233.956,103.58 83.555,103.58 83.555,35.645 233.956,35.645 233.956,103.58 "/>
<path fill="#4F3726" d="M97.551,62.432h17.124v27.251H96.574V62.432H97.551 M108.441,35.645H83.777l1.716,4.883v9.006l-1.937-2.142
	v56.188h150.4l-29.681-12.635h-6.569v-2.796l-93.466-39.786l27.698-0.001L108.441,35.645"/>
<polyline fill="#4B3525" points="213.315,15.86 76.825,15.86 83.777,35.645 233.956,35.645 213.315,15.86 "/>
<polyline fill="#4B3525" points="66.989,33.174 62.915,33.174 62.915,83.796 83.555,103.58 66.989,33.174 "/>
<polyline fill="#B2A899" points="114.675,89.683 96.574,89.683 96.574,62.432 114.675,62.432 114.675,89.683 "/>
<polyline fill="#958D82" points="97.551,62.432 96.574,62.432 96.574,89.683 111.868,89.683 97.551,62.432 "/>
<polyline fill="#B2A899" points="215.807,90.946 197.706,90.946 197.706,63.694 215.807,63.694 215.807,90.946 "/>
<polyline fill="#958D82" points="198.683,63.694 197.706,63.694 197.706,90.946 213,90.946 198.683,63.694 "/>
<polyline fill="#5C3F29" points="85.493,49.534 63.771,25.517 73.474,6.326 85.493,40.528 85.493,49.534 "/>
<rect x="148.435" y="87.487" fill="#5C3F29" width="8.256" height="15.959"/>
<polygon fill="#553A27" points="77.591,102.707 62.66,103.642 44.161,99.185 44.161,35.492 79.104,35.492 "/>
<ellipse fill="#553A27" cx="61.633" cy="35.492" rx="17.471" ry="4.465"/>
<ellipse fill="#553A27" cx="61.633" cy="34.82" rx="11.976" ry="3.061"/>
<polyline fill="#553A27" points="75.921,33.174 51.968,33.174 51.968,0.5 75.921,0.5 75.921,33.174 "/>
<path fill="#CBC9C9" d="M75.921,2.8v2.011c0.276-0.32,0.423-0.658,0.423-1.006C76.344,3.458,76.197,3.121,75.921,2.8 M64.367,0
	c-2.159,0-4.186,0.182-5.935,0.5h11.87C68.553,0.182,66.527,0,64.367,0"/>
<path fill="#4B3525" d="M70.303,0.5h-11.87c-3.609,0.656-6.041,1.891-6.041,3.307c0,2.102,5.362,3.806,11.976,3.806
	c5.519,0,10.166-1.186,11.554-2.8V2.8C75.076,1.818,73.024,0.994,70.303,0.5"/>
<path fill="#553A27" d="M44.161,99.185c0,0,1.172,4.457,18.498,4.457l-18.498-68.15V99.185z"/>
<path fill="#553A27" d="M51.723,1.992v33.581c0,0,5.281,8.51,12.644,8.51L51.723,1.992z"/>
<path fill="#553A27" d="M75.105,46.317c-9.529,1.818-19.315,1.818-28.844,0c0.158-0.827,0.315-1.653,0.473-2.479
	c9.216,1.758,18.682,1.758,27.898,0C74.789,44.664,74.947,45.49,75.105,46.317z"/>
<path fill="#553A27" d="M46.457,46.346c0.092-0.836,0.185-1.673,0.277-2.509c9.271,1.023,18.627,1.023,27.898,0
	C65.453,45.697,56.005,46.554,46.457,46.346z"/>
<path fill="#553A27" d="M75.105,54.163c-9.529,1.818-19.315,1.818-28.844,0c0.158-0.827,0.315-1.653,0.473-2.479
	c9.216,1.758,18.682,1.758,27.898,0C74.789,52.51,74.947,53.337,75.105,54.163z"/>
<path fill="#553A27" d="M46.457,54.193c0.092-0.836,0.185-1.673,0.277-2.509c9.271,1.024,18.627,1.024,27.898,0
	C65.453,53.544,56.005,54.4,46.457,54.193z"/>
<path fill="#553A27" d="M75.105,61.424c-9.529,1.818-19.315,1.818-28.844,0c0.158-0.827,0.315-1.653,0.473-2.479
	c9.216,1.758,18.682,1.758,27.898,0C74.789,59.771,74.947,60.598,75.105,61.424z"/>
<path fill="#553A27" d="M46.457,61.453c0.092-0.836,0.185-1.673,0.277-2.509c9.271,1.024,18.627,1.024,27.898,0
	C65.453,60.805,56.005,61.661,46.457,61.453z"/>
<path fill="#553A27" d="M75.105,69.271c-9.529,1.818-19.315,1.818-28.844,0c0.158-0.826,0.315-1.653,0.473-2.479
	c9.216,1.758,18.682,1.758,27.898,0C74.789,67.618,74.947,68.444,75.105,69.271z"/>
<path fill="#553A27" d="M46.457,69.3c0.092-0.836,0.185-1.673,0.277-2.509c9.271,1.024,18.627,1.024,27.898,0
	C65.453,68.651,56.005,69.508,46.457,69.3z"/>
<path fill="#553A27" d="M75.105,77.275c-9.529,1.818-19.315,1.818-28.844,0c0.158-0.827,0.315-1.653,0.473-2.48
	c9.216,1.758,18.682,1.758,27.898,0C74.789,75.622,74.947,76.449,75.105,77.275z"/>
<path fill="#553A27" d="M46.457,77.305c0.092-0.837,0.185-1.673,0.277-2.509c9.271,1.024,18.627,1.024,27.898,0
	C65.453,76.655,56.005,77.512,46.457,77.305z"/>
<path fill="#553A27" d="M75.105,85.122c-9.529,1.818-19.315,1.818-28.844,0c0.158-0.827,0.315-1.653,0.473-2.48
	c9.216,1.758,18.682,1.758,27.898,0C74.789,83.469,74.947,84.295,75.105,85.122z"/>
<path fill="#553A27" d="M46.457,85.151c0.092-0.836,0.185-1.673,0.277-2.509c9.271,1.023,18.627,1.023,27.898,0
	C65.453,84.502,56.005,85.359,46.457,85.151z"/>
<polygon fill="#734F33" points="243.312,47.581 87.463,47.581 73.474,6.326 218.227,6.326 "/>
<rect x="87.463" y="47.581" fill="#553A27" width="155.849" height="3.706"/>
</svg>
