<?xml version="1.0" encoding="utf-8"?>
<!-- Generator: Adobe Illustrator 17.0.0, SVG Export Plug-In . SVG Version: 6.00 Build 0)  -->
<!DOCTYPE svg PUBLIC "-//W3C//DTD SVG 1.1//EN" "http://www.w3.org/Graphics/SVG/1.1/DTD/svg11.dtd">
<svg version="1.1" id="Layer_1" xmlns="http://www.w3.org/2000/svg" xmlns:xlink="http://www.w3.org/1999/xlink" x="0px" y="0px"
	 width="1145.15px" height="306.632px" viewBox="0 0 1145.15 306.632" enable-background="new 0 0 1145.15 306.632"
	 xml:space="preserve">
<path fill="#00A348" d="M1004.214,306.632c-1.937-82.512-69.428-148.805-152.406-148.805c-82.977,0-150.468,66.293-152.406,148.805
	H1004.214"/>
<path fill="#00A348" d="M562.946,306.632c-2.659-113.233-95.279-204.21-209.152-204.21c-113.873,0-206.493,90.977-209.152,204.21
	H562.946"/>
<path fill="#76C043" d="M914.311,306.632C910.319,136.606,771.245,0,600.258,0s-310.06,136.606-314.053,306.632H914.311"/>
<path fill="#76C043" d="M312.75,306.632c-1.956-83.306-70.097-150.238-153.874-150.238S6.958,223.326,5.002,306.632H312.75"/>
<path fill="#76C043" d="M1140.148,306.632c-1.452-61.828-52.024-111.502-114.201-111.502c-62.177,0-112.75,49.675-114.201,111.502
	H1140.148"/>
<path fill="#60BB46" d="M600.258,0c-26.216,0-51.681,3.211-76.025,9.262C411.587,37.26,322.963,126.063,295.21,238.807
	c10.692,20.346,16.966,43.383,17.54,67.825h287.874V0.005C600.502,0.005,600.38,0,600.258,0L600.258,0"/>
<path fill="#60BB46" d="M295.21,238.807c-5.367,21.804-8.456,44.496-9.004,67.825h26.544
	C312.176,282.191,305.902,259.153,295.21,238.807"/>
<path fill="#60BB46" d="M911.755,306.271c0,0.011,0,0.02-0.001,0.031C911.754,306.291,911.755,306.282,911.755,306.271
	 M911.76,306.09c-0.001,0.038-0.002,0.075-0.003,0.113C911.758,306.165,911.759,306.127,911.76,306.09 M911.782,305.37
	c0,0.004,0,0.003,0,0.007C911.782,305.373,911.782,305.374,911.782,305.37 M911.795,305.009c0,0.011-0.001,0.021-0.001,0.032
	C911.795,305.03,911.795,305.02,911.795,305.009 M911.809,304.65v0.001V304.65"/>
<path fill="#60BB46" d="M1025.392,195.144c-61.256,0.293-111.118,48.787-113.583,109.507v0.001c-0.005,0.12-0.009,0.238-0.014,0.358
	c0,0.011-0.001,0.021-0.001,0.032c-0.004,0.109-0.008,0.22-0.012,0.329c0,0.004,0,0.003,0,0.007
	c-0.008,0.236-0.016,0.476-0.022,0.713c-0.001,0.038-0.002,0.075-0.003,0.113c-0.001,0.022-0.001,0.046-0.002,0.069
	c0,0.011,0,0.02-0.001,0.031c-0.003,0.109-0.006,0.221-0.008,0.33h113.647V195.144"/>
<path fill="#60BB46" d="M155.863,156.47C73.476,158.057,6.935,224.331,5.002,306.632h150.861V156.47"/>
</svg>
