<?xml version="1.0" encoding="utf-8"?>
<!-- Generator: Adobe Illustrator 17.0.0, SVG Export Plug-In . SVG Version: 6.00 Build 0)  -->
<!DOCTYPE svg PUBLIC "-//W3C//DTD SVG 1.1//EN" "http://www.w3.org/Graphics/SVG/1.1/DTD/svg11.dtd">
<svg version="1.1" id="Layer_1" xmlns="http://www.w3.org/2000/svg" xmlns:xlink="http://www.w3.org/1999/xlink" x="0px" y="0px"
	 width="341.54px" height="190.814px" viewBox="0 0 341.54 190.814" enable-background="new 0 0 341.54 190.814"
	 xml:space="preserve">
<polyline fill="#50A646" points="56.175,190.814 4.998,142.222 285.365,142.222 336.542,190.814 56.175,190.814 "/>
<polyline fill="#81C44E" points="59.29,186.196 16.058,145.502 279.056,145.502 322.288,186.196 59.29,186.196 "/>
<polyline fill="#553A27" points="250.67,165.917 76.616,176.88 55.648,161.005 54.516,58.225 250.67,58.225 278.357,69.188 
	250.67,165.917 "/>
<polyline fill="#553A27" points="278.357,176.88 76.616,176.88 76.616,69.188 278.357,69.188 278.357,176.88 "/>
<polyline fill="#77B04C" points="275.86,176.88 76.616,176.88 76.616,178.213 278.357,178.213 275.86,176.88 "/>
<path fill="#4F3726" d="M105.582,153.486h9.488v15.101h-10.03v-15.101H105.582 M150.302,153.486h9.488v15.101h-10.03v-15.101
	H150.302 M199.622,153.457h9.489v15.1h-10.03v-15.1H199.622 M105.582,120.986h9.488v15.1h-10.03v-15.1H105.582 M150.302,120.986
	h9.488v15.1h-10.03v-15.1H150.302 M76.616,70.521v106.36H275.86l-22.029-11.76v3.436h-10.03v-8.79l-44.414-23.709h-0.307v-0.164
	l-84.01-44.846v13.53h-10.03v-15.1h0.542h6.546L76.616,70.521"/>
<polyline fill="#CBC9C9" points="250.67,58.225 48.93,58.225 54.54,60.447 54.516,58.225 250.67,58.225 278.357,69.188 
	250.67,58.225 "/>
<polyline fill="#4B3525" points="250.67,58.225 54.516,58.225 54.961,60.613 76.616,69.188 278.357,69.188 250.67,58.225 "/>
<polyline fill="#CBC9C9" points="54.54,60.447 55.427,142.222 55.441,142.222 54.541,60.447 54.54,60.447 "/>
<polyline fill="#4B8F42" points="55.441,142.222 55.427,142.222 55.463,145.502 55.477,145.502 55.441,142.222 "/>
<polyline fill="#70A34A" points="55.477,145.502 55.463,145.502 55.648,162.537 76.616,176.88 55.648,161.005 55.477,145.502 "/>
<polyline fill="#4B3525" points="54.541,60.447 55.441,142.222 55.477,145.502 55.648,161.005 76.616,176.88 54.961,60.613 
	54.541,60.447 "/>
<polyline fill="#A9A6A6" points="54.516,58.225 54.54,60.447 54.541,60.447 54.516,58.225 "/>
<polyline fill="#433023" points="54.516,58.225 54.516,58.225 54.541,60.447 54.961,60.613 54.516,58.225 "/>
<polyline fill="#B2A899" points="159.791,168.586 149.761,168.586 149.761,153.486 159.791,153.486 159.791,168.586 "/>
<polyline fill="#958D82" points="150.302,153.486 149.761,153.486 149.761,168.586 158.235,168.586 150.302,153.486 "/>
<polyline fill="#B2A899" points="115.07,168.586 105.04,168.586 105.04,153.486 115.07,153.486 115.07,168.586 "/>
<polyline fill="#958D82" points="105.582,153.486 105.04,153.486 105.04,168.586 113.515,168.586 105.582,153.486 "/>
<polyline fill="#B2A899" points="253.831,168.557 243.801,168.557 243.801,153.457 253.831,153.457 253.831,168.557 "/>
<polyline fill="#958D82" points="244.342,153.457 243.801,153.457 243.801,168.557 252.275,168.557 244.342,153.457 "/>
<polyline fill="#B2A899" points="209.11,168.557 199.08,168.557 199.08,153.457 209.11,153.457 209.11,168.557 "/>
<polyline fill="#958D82" points="199.622,153.457 199.08,153.457 199.08,168.557 207.555,168.557 199.622,153.457 "/>
<polyline fill="#B2A899" points="159.791,136.087 149.761,136.087 149.761,120.986 159.791,120.986 159.791,136.087 "/>
<polyline fill="#958D82" points="150.302,120.986 149.761,120.986 149.761,136.087 158.235,136.087 150.302,120.986 "/>
<polyline fill="#B2A899" points="115.07,136.087 105.04,136.087 105.04,120.986 115.07,120.986 115.07,136.087 "/>
<polyline fill="#958D82" points="105.582,120.986 105.04,120.986 105.04,136.087 113.515,136.087 105.582,120.986 "/>
<polyline fill="#B2A899" points="253.831,136.058 243.801,136.058 243.801,120.957 253.831,120.957 253.831,136.058 "/>
<polyline fill="#958D82" points="244.342,120.957 243.801,120.957 243.801,136.058 252.275,136.058 244.342,120.957 "/>
<polyline fill="#B2A899" points="209.11,136.058 199.08,136.058 199.08,120.957 209.11,120.957 209.11,136.058 "/>
<polyline fill="#958D82" points="199.622,120.957 199.08,120.957 199.08,136.058 207.555,136.058 199.622,120.957 "/>
<polyline fill="#B2A899" points="159.791,104.578 149.761,104.578 149.761,89.477 159.791,89.477 159.791,104.578 "/>
<polyline fill="#958D82" points="150.302,89.477 149.761,89.477 149.761,104.578 158.235,104.578 150.302,89.477 "/>
<polyline fill="#B2A899" points="115.07,104.578 105.04,104.578 105.04,89.477 115.07,89.477 115.07,104.578 "/>
<polyline fill="#958D82" points="105.582,89.477 105.04,89.477 105.04,104.578 113.515,104.578 105.582,89.477 "/>
<polyline fill="#B2A899" points="253.831,104.548 243.801,104.548 243.801,89.448 253.831,89.448 253.831,104.548 "/>
<polyline fill="#958D82" points="244.342,89.448 243.801,89.448 243.801,104.548 252.275,104.548 244.342,89.448 "/>
<polyline fill="#B2A899" points="209.11,104.548 199.08,104.548 199.08,89.448 209.11,89.448 209.11,104.548 "/>
<polyline fill="#958D82" points="199.622,89.448 199.08,89.448 199.08,104.548 207.555,104.548 199.622,89.448 "/>
<rect x="178.498" y="167.369" fill="#5C3F29" width="4.575" height="8.843"/>
<polygon fill="#553A27" points="69.057,73.089 41.03,49.775 149.448,0.097 258.48,48.281 286.507,71.595 177.516,29.887 "/>
<polygon fill="#734F33" points="69.057,73.089 69.113,82.016 177.891,33.051 286.563,80.522 286.507,71.595 177.475,23.41 "/>
<polygon fill="#C49A6C" points="177.583,23.506 149.703,0 258.43,48.932 286.31,72.438 "/>
<polygon fill="#734F33" points="41.536,57.528 41.458,50.131 69.838,72.731 69.113,82.069 "/>
<path fill="#553A27" d="M86.198,73.995c0.636-0.444,91.741-41.735,91.741-41.735l97.323,43.72L86.198,73.995z"/>
</svg>
