<?xml version="1.0" encoding="utf-8"?>
<!-- Generator: Adobe Illustrator 17.0.0, SVG Export Plug-In . SVG Version: 6.00 Build 0)  -->
<!DOCTYPE svg PUBLIC "-//W3C//DTD SVG 1.1//EN" "http://www.w3.org/Graphics/SVG/1.1/DTD/svg11.dtd">
<svg version="1.1" id="Layer_1" xmlns="http://www.w3.org/2000/svg" xmlns:xlink="http://www.w3.org/1999/xlink" x="0px" y="0px"
	 width="1160.16px" height="281.206px" viewBox="0 0 1160.16 281.206" enable-background="new 0 0 1160.16 281.206"
	 xml:space="preserve">
<path fill="#76C043" d="M1155.158,281.206c-2.405-102.399-86.163-184.671-189.14-184.671s-186.736,82.272-189.14,184.671H1155.158"
	/>
<path fill="#60BB46" d="M965.008,96.561c-51.25,0.269-97.676,20.907-131.594,54.236c21.143,38.927,33.571,83.262,34.678,130.409
	h-91.215l0,0h188.131V96.561"/>
<path fill="#76C043" d="M868.092,281.206C864.43,125.278,736.888,0,580.08,0C423.272,0,295.73,125.278,292.068,281.206H868.092"/>
<path fill="#76C043" d="M383.283,281.206c-2.405-102.399-86.163-184.671-189.14-184.671S7.407,178.807,5.002,281.206H383.283"/>
<path fill="#60BB46" d="M578.935,0.029C470.023,0.455,375.367,61.298,326.754,150.791c33.924,33.343,55.331,79.378,56.529,130.415
	h195.652V0.029"/>
<path fill="#60BB46" d="M326.754,150.791c-21.143,38.923-33.578,83.269-34.685,130.415h91.214
	C382.084,230.169,360.678,184.134,326.754,150.791"/>
<path fill="#D5E9C3" d="M5.287,274.338c-0.135,2.278-0.23,4.57-0.284,6.868l0,0C5.056,278.906,5.151,276.617,5.287,274.338
	 M5.323,273.745c-0.012,0.191-0.024,0.395-0.036,0.586C5.299,274.133,5.31,273.943,5.323,273.745 M5.342,273.449
	c-0.006,0.093-0.012,0.181-0.017,0.273C5.33,273.63,5.336,273.542,5.342,273.449 M5.361,273.153
	c-0.006,0.086-0.012,0.178-0.017,0.264C5.349,273.33,5.355,273.239,5.361,273.153 M5.381,272.855
	c-0.006,0.086-0.012,0.178-0.018,0.264C5.369,273.033,5.375,272.942,5.381,272.855 M5.401,272.56
	c-0.006,0.086-0.012,0.182-0.018,0.268C5.389,272.736,5.394,272.653,5.401,272.56 M5.421,272.263
	c-0.006,0.08-0.012,0.177-0.018,0.257C5.409,272.433,5.415,272.35,5.421,272.263 M5.442,271.969
	c-0.006,0.086-0.012,0.172-0.018,0.258C5.43,272.141,5.436,272.055,5.442,271.969 M5.464,271.672
	c-0.006,0.08-0.012,0.168-0.018,0.248C5.452,271.834,5.457,271.758,5.464,271.672 M5.486,271.377
	c-0.006,0.08-0.013,0.175-0.019,0.254C5.473,271.545,5.479,271.463,5.486,271.377 M5.508,271.08
	c-0.007,0.086-0.012,0.162-0.019,0.248C5.496,271.242,5.502,271.166,5.508,271.08 M5.531,270.785
	c-0.007,0.086-0.013,0.169-0.02,0.255C5.518,270.953,5.524,270.871,5.531,270.785 M5.554,270.49c-0.007,0.086-0.013,0.164-0.02,0.25
	C5.541,270.654,5.547,270.577,5.554,270.49 M5.578,270.195c-0.007,0.086-0.013,0.156-0.019,0.242
	C5.565,270.357,5.572,270.275,5.578,270.195 M5.602,269.901c-0.007,0.08-0.013,0.159-0.02,0.238
	C5.589,270.059,5.596,269.981,5.602,269.901 M5.627,269.606c-0.007,0.08-0.013,0.152-0.019,0.232
	C5.614,269.758,5.62,269.686,5.627,269.606 M5.652,269.313c-0.007,0.08-0.012,0.145-0.019,0.225
	C5.639,269.464,5.645,269.387,5.652,269.313 M5.677,269.018c-0.006,0.073-0.012,0.143-0.019,0.217
	C5.664,269.167,5.671,269.085,5.677,269.018 M5.703,268.724c-0.007,0.073-0.012,0.14-0.019,0.214
	C5.69,268.87,5.697,268.792,5.703,268.724 M5.73,268.432c-0.006,0.067-0.012,0.137-0.018,0.204
	C5.717,268.568,5.723,268.5,5.73,268.432 M5.756,268.139c-0.006,0.061-0.012,0.128-0.017,0.189
	C5.745,268.266,5.751,268.2,5.756,268.139 M5.783,267.848c-0.005,0.055-0.011,0.121-0.016,0.176
	C5.773,267.963,5.778,267.909,5.783,267.848 M5.811,267.553c-0.005,0.055-0.01,0.11-0.016,0.165
	C5.801,267.663,5.806,267.609,5.811,267.553 M5.839,267.261c-0.005,0.055-0.01,0.108-0.016,0.163
	C5.829,267.369,5.834,267.316,5.839,267.261 M5.868,266.966c-0.005,0.049-0.011,0.11-0.016,0.159
	C5.858,267.07,5.863,267.022,5.868,266.966 M5.897,266.674c-0.005,0.049-0.011,0.112-0.016,0.161
	C5.887,266.78,5.892,266.729,5.897,266.674 M5.927,266.381c-0.005,0.049-0.01,0.103-0.015,0.152
	C5.917,266.478,5.921,266.436,5.927,266.381 M5.957,266.089c-0.005,0.049-0.01,0.1-0.015,0.149
	C5.946,266.189,5.952,266.138,5.957,266.089 M5.987,265.798c-0.004,0.043-0.01,0.094-0.014,0.136
	C5.977,265.891,5.982,265.841,5.987,265.798 M6.018,265.506c-0.005,0.043-0.009,0.089-0.014,0.132
	C6.008,265.595,6.013,265.549,6.018,265.506 M6.049,265.215c-0.004,0.037-0.009,0.085-0.013,0.121
	C6.04,265.299,6.045,265.251,6.049,265.215 M6.081,264.923c-0.004,0.036-0.009,0.08-0.013,0.116
	C6.072,265.003,6.077,264.96,6.081,264.923 M6.113,264.632c-0.004,0.037-0.008,0.071-0.012,0.107
	C6.105,264.702,6.109,264.669,6.113,264.632 M6.145,264.341c-0.004,0.036-0.007,0.066-0.011,0.102
	C6.138,264.407,6.141,264.378,6.145,264.341 M6.178,264.049c-0.003,0.03-0.008,0.068-0.011,0.098
	C6.171,264.116,6.175,264.079,6.178,264.049 M6.212,263.758c-0.004,0.03-0.007,0.063-0.011,0.093
	C6.204,263.821,6.208,263.789,6.212,263.758 M6.245,263.468c-0.004,0.03-0.006,0.055-0.01,0.085
	C6.239,263.522,6.242,263.498,6.245,263.468 M6.28,263.177c-0.004,0.03-0.006,0.05-0.009,0.08
	C6.274,263.227,6.276,263.208,6.28,263.177 M6.315,262.887c-0.003,0.024-0.006,0.05-0.009,0.074
	C6.309,262.93,6.311,262.917,6.315,262.887 M6.35,262.598c-0.003,0.024-0.005,0.039-0.008,0.063
	C6.344,262.642,6.347,262.616,6.35,262.598 M6.385,262.309c-0.002,0.018-0.004,0.033-0.006,0.052
	C6.381,262.342,6.383,262.327,6.385,262.309 M6.421,262.019c-0.002,0.018-0.003,0.026-0.006,0.044
	C6.417,262.051,6.419,262.031,6.421,262.019 M6.457,261.73c-0.002,0.012-0.003,0.023-0.004,0.035
	C6.454,261.753,6.456,261.742,6.457,261.73 M6.494,261.442c-0.001,0.006-0.002,0.016-0.003,0.023
	C6.493,261.453,6.492,261.454,6.494,261.442 M6.531,261.153c-0.001,0.006-0.001,0.01-0.002,0.016
	C6.53,261.163,6.531,261.159,6.531,261.153 M6.569,260.864l-0.001,0.009L6.569,260.864 M6.607,260.575l-0.001,0.005L6.607,260.575
	 M6.646,260.285l0,0.004L6.646,260.285"/>
<path fill="#60BB46" d="M193.133,96.561C97.729,97.061,19.032,168.157,6.646,260.285l0,0.004c-0.013,0.097-0.025,0.19-0.038,0.286
	l-0.001,0.005c-0.013,0.097-0.025,0.188-0.038,0.285l-0.001,0.009c-0.013,0.097-0.024,0.183-0.036,0.28
	c-0.001,0.006-0.001,0.01-0.002,0.016c-0.012,0.091-0.024,0.182-0.035,0.273c-0.002,0.012-0.001,0.01-0.003,0.023
	c-0.012,0.091-0.022,0.175-0.034,0.266c-0.002,0.012-0.003,0.023-0.004,0.035c-0.01,0.079-0.022,0.175-0.032,0.254
	c-0.002,0.012-0.004,0.032-0.006,0.044c-0.01,0.079-0.021,0.166-0.03,0.245c-0.002,0.018-0.004,0.033-0.006,0.052
	c-0.01,0.079-0.02,0.159-0.029,0.238c-0.002,0.018-0.005,0.045-0.008,0.063c-0.009,0.073-0.019,0.153-0.027,0.226
	c-0.004,0.03-0.005,0.044-0.009,0.074c-0.009,0.073-0.017,0.144-0.026,0.216c-0.004,0.031-0.006,0.05-0.009,0.08
	c-0.008,0.067-0.017,0.144-0.025,0.21c-0.004,0.03-0.006,0.055-0.01,0.085c-0.008,0.067-0.016,0.139-0.024,0.206
	c-0.004,0.031-0.007,0.063-0.011,0.093c-0.008,0.067-0.015,0.13-0.023,0.197c-0.003,0.031-0.008,0.068-0.011,0.098
	c-0.008,0.067-0.014,0.127-0.022,0.194c-0.004,0.037-0.007,0.066-0.011,0.102c-0.007,0.061-0.014,0.128-0.021,0.189
	c-0.004,0.037-0.008,0.07-0.012,0.107c-0.007,0.061-0.014,0.123-0.02,0.184c-0.004,0.037-0.009,0.08-0.013,0.116
	c-0.007,0.061-0.012,0.114-0.019,0.175c-0.004,0.037-0.009,0.084-0.013,0.121c-0.007,0.061-0.012,0.109-0.018,0.17
	c-0.005,0.043-0.009,0.089-0.014,0.132c-0.006,0.055-0.011,0.106-0.017,0.161c-0.004,0.043-0.01,0.094-0.014,0.136
	c-0.006,0.055-0.01,0.1-0.016,0.155c-0.005,0.049-0.01,0.1-0.015,0.149c-0.005,0.049-0.01,0.094-0.015,0.143
	c-0.006,0.055-0.01,0.097-0.015,0.152c-0.005,0.049-0.009,0.092-0.014,0.141c-0.005,0.055-0.011,0.106-0.016,0.161
	c-0.005,0.049-0.008,0.082-0.013,0.131c-0.005,0.055-0.01,0.103-0.016,0.159c-0.005,0.049-0.009,0.087-0.013,0.136
	c-0.005,0.055-0.01,0.108-0.016,0.163c-0.004,0.043-0.008,0.087-0.012,0.13c-0.005,0.055-0.01,0.109-0.016,0.165
	c-0.004,0.043-0.008,0.087-0.012,0.13c-0.006,0.061-0.011,0.115-0.016,0.176c-0.004,0.043-0.007,0.072-0.011,0.115
	c-0.006,0.061-0.012,0.127-0.017,0.189c-0.003,0.037-0.006,0.068-0.01,0.104c-0.006,0.068-0.012,0.136-0.018,0.204
	c-0.002,0.025-0.006,0.064-0.008,0.088c-0.006,0.068-0.013,0.146-0.019,0.214c-0.002,0.024-0.005,0.056-0.007,0.08
	c-0.006,0.068-0.013,0.149-0.019,0.217c-0.002,0.025-0.005,0.054-0.007,0.079c-0.006,0.074-0.013,0.151-0.019,0.225
	c-0.002,0.018-0.004,0.049-0.006,0.068c-0.007,0.08-0.013,0.152-0.019,0.232c-0.002,0.018-0.004,0.045-0.005,0.063
	c-0.007,0.08-0.013,0.158-0.02,0.238c-0.002,0.018-0.003,0.037-0.005,0.056c-0.006,0.08-0.013,0.162-0.019,0.242
	c-0.001,0.012-0.003,0.041-0.004,0.053c-0.007,0.086-0.013,0.163-0.02,0.25c-0.001,0.012-0.003,0.032-0.004,0.045
	c-0.007,0.086-0.013,0.168-0.02,0.255c-0.001,0.012-0.002,0.029-0.003,0.041c-0.007,0.086-0.012,0.161-0.019,0.248
	c-0.001,0.018-0.002,0.031-0.004,0.049c-0.006,0.086-0.013,0.168-0.019,0.254c-0.001,0.018-0.002,0.022-0.003,0.04
	c-0.006,0.086-0.012,0.162-0.018,0.248c-0.001,0.018-0.002,0.03-0.004,0.049c-0.006,0.086-0.012,0.172-0.018,0.258
	c-0.001,0.012-0.002,0.024-0.003,0.036c-0.006,0.086-0.012,0.17-0.018,0.257c-0.001,0.018-0.002,0.022-0.003,0.04
	c-0.006,0.093-0.012,0.176-0.018,0.268c-0.001,0.012-0.001,0.014-0.002,0.027c-0.006,0.087-0.012,0.178-0.018,0.264
	c-0.001,0.012-0.001,0.021-0.002,0.033c-0.006,0.087-0.012,0.177-0.017,0.264c-0.001,0.012-0.001,0.02-0.002,0.032
	c-0.006,0.093-0.011,0.18-0.017,0.273c0,0.006-0.001,0.017-0.001,0.023c-0.012,0.198-0.024,0.388-0.036,0.586c0,0.006,0,0,0,0.007
	c-0.135,2.279-0.23,4.568-0.284,6.868h188.131V96.561"/>
</svg>
