<?xml version="1.0" encoding="utf-8"?>
<!-- Generator: Adobe Illustrator 17.0.0, SVG Export Plug-In . SVG Version: 6.00 Build 0)  -->
<!DOCTYPE svg PUBLIC "-//W3C//DTD SVG 1.1//EN" "http://www.w3.org/Graphics/SVG/1.1/DTD/svg11.dtd">
<svg version="1.1" id="Layer_1" xmlns="http://www.w3.org/2000/svg" xmlns:xlink="http://www.w3.org/1999/xlink" x="0px" y="0px"
	 width="688.25px" height="160.08px" viewBox="5 0 688.25 160.08" enable-background="new 5 0 688.25 160.08" xml:space="preserve">
<path fill="#00A348" d="M136.93,160.08c-0.84-35.71-30.05-64.41-65.97-64.41S5.84,124.36,5,160.08H136.93z"/>
<path fill="#00A348" d="M657.31,160.08C655.55,84.93,594.08,24.55,518.5,24.55S381.46,84.93,379.69,160.08H657.31"/>
<path fill="#76C043" d="M527.53,160.08C525.45,71.32,452.84,0,363.58,0c-89.26,0-161.87,71.32-163.95,160.08H527.53"/>
<path fill="#76C043" d="M260.81,160.08c-1.1-46.99-39.54-84.75-86.8-84.75c-47.26,0-85.69,37.76-86.8,84.75H260.81"/>
<path fill="#76C043" d="M693.25,160.08c-1.1-46.99-39.54-84.75-86.8-84.75s-85.69,37.76-86.8,84.75H693.25"/>
<path fill="#60BB46" d="M363.05,0.01c-62.75,0.2-117.19,35.63-144.6,87.55c24.83,14.82,41.63,41.69,42.36,72.53h102.24V0.01"/>
<path fill="#60BB46" d="M218.45,87.55c-11.48,21.74-18.21,46.38-18.83,72.53h61.18C260.09,129.24,243.28,102.37,218.45,87.55"/>
<path fill="#60BB46" d="M606.24,75.34c-47.16,0.11-85.48,37.82-86.59,84.74h86.59V75.34"/>
</svg>
