<?xml version="1.0" encoding="utf-8"?>
<!-- Generator: Adobe Illustrator 17.0.0, SVG Export Plug-In . SVG Version: 6.00 Build 0)  -->
<!DOCTYPE svg PUBLIC "-//W3C//DTD SVG 1.1//EN" "http://www.w3.org/Graphics/SVG/1.1/DTD/svg11.dtd">
<svg version="1.1" id="Layer_1" xmlns="http://www.w3.org/2000/svg" xmlns:xlink="http://www.w3.org/1999/xlink" x="0px" y="0px"
	 width="767.79px" height="185.276px" viewBox="0 0 767.79 185.276" enable-background="new 0 0 767.79 185.276"
	 xml:space="preserve">
<path fill="#76C043" d="M762.792,185.276c-1.584-67.467-56.77-121.672-124.617-121.672c-67.848,0-123.033,54.205-124.617,121.672
	H762.792"/>
<path fill="#60BB46" d="M637.51,63.62c-33.767,0.177-64.355,13.775-86.703,35.734c13.931,25.648,22.118,54.858,22.848,85.922
	h-60.098l0,0H637.51V63.62"/>
<path fill="#76C043" d="M573.655,185.276C571.242,82.541,487.21,0,383.895,0C280.58,0,196.548,82.541,194.136,185.276H573.655"/>
<path fill="#76C043" d="M254.233,185.276c-1.584-67.467-56.769-121.672-124.617-121.672c-67.848,0-123.033,54.205-124.617,121.672
	H254.233"/>
<path fill="#60BB46" d="M383.141,0.019C311.383,0.299,249.017,40.387,216.988,99.35c22.351,21.968,36.455,52.299,37.245,85.925
	h128.908V0.019"/>
<path fill="#60BB46" d="M216.988,99.35c-13.93,25.645-22.123,54.863-22.853,85.925h60.097
	C253.443,151.649,239.34,121.319,216.988,99.35"/>
<path fill="#D5E9C3" d="M7.899,161.244c-1.716,7.764-2.707,15.798-2.901,24.032l0,0C5.192,177.044,6.184,169.007,7.899,161.244
	 M7.939,161.063c-0.012,0.054-0.024,0.106-0.036,0.16C7.915,161.169,7.927,161.117,7.939,161.063 M7.979,160.884
	c-0.011,0.05-0.021,0.096-0.033,0.146C7.957,160.983,7.969,160.93,7.979,160.884 M8.02,160.703c-0.01,0.046-0.019,0.083-0.029,0.129
	C8,160.79,8.01,160.746,8.02,160.703 M8.06,160.524c-0.009,0.039-0.017,0.077-0.026,0.116C8.043,160.601,8.051,160.563,8.06,160.524
	 M8.101,160.345c-0.007,0.031-0.015,0.067-0.022,0.098C8.086,160.409,8.093,160.38,8.101,160.345 M8.142,160.167
	c-0.006,0.027-0.012,0.054-0.019,0.081C8.129,160.221,8.136,160.194,8.142,160.167 M8.183,159.987
	c-0.005,0.019-0.011,0.046-0.015,0.065C8.173,160.033,8.179,160.006,8.183,159.987 M8.225,159.806
	c-0.005,0.019-0.009,0.037-0.013,0.057C8.217,159.844,8.221,159.826,8.225,159.806 M8.267,159.63
	c-0.003,0.012-0.006,0.024-0.008,0.035C8.261,159.654,8.264,159.642,8.267,159.63 M8.309,159.451
	c-0.002,0.008-0.003,0.013-0.005,0.021C8.306,159.465,8.307,159.459,8.309,159.451"/>
<path fill="#60BB46" d="M128.951,63.62C70.318,63.928,21.262,104.708,8.309,159.451c-0.002,0.008-0.003,0.013-0.005,0.021
	c-0.013,0.054-0.025,0.104-0.037,0.158c-0.003,0.012-0.006,0.024-0.008,0.035c-0.011,0.046-0.022,0.094-0.033,0.141
	c-0.005,0.019-0.009,0.037-0.013,0.057c-0.01,0.042-0.019,0.082-0.029,0.124c-0.005,0.019-0.011,0.046-0.015,0.065
	c-0.009,0.039-0.017,0.076-0.026,0.114c-0.006,0.027-0.012,0.054-0.019,0.081c-0.008,0.035-0.014,0.063-0.022,0.097
	c-0.008,0.035-0.015,0.063-0.022,0.098c-0.006,0.027-0.012,0.053-0.018,0.08c-0.009,0.039-0.017,0.077-0.026,0.116
	c-0.004,0.019-0.01,0.044-0.014,0.064c-0.01,0.043-0.02,0.087-0.029,0.129c-0.004,0.016-0.008,0.035-0.011,0.051
	c-0.01,0.047-0.022,0.1-0.033,0.146c-0.002,0.008-0.006,0.026-0.007,0.033c-0.012,0.054-0.024,0.106-0.036,0.16
	c-0.002,0.008-0.003,0.013-0.005,0.021c-1.715,7.762-2.707,15.8-2.9,24.032h123.953V63.62"/>
</svg>
