<?xml version="1.0" encoding="utf-8"?>
<!-- Generator: Adobe Illustrator 17.0.0, SVG Export Plug-In . SVG Version: 6.00 Build 0)  -->
<!DOCTYPE svg PUBLIC "-//W3C//DTD SVG 1.1//EN" "http://www.w3.org/Graphics/SVG/1.1/DTD/svg11.dtd">
<svg version="1.1" id="Layer_1" xmlns="http://www.w3.org/2000/svg" xmlns:xlink="http://www.w3.org/1999/xlink" x="0px" y="0px"
	 width="295.52px" height="152.379px" viewBox="0 0 295.52 152.379" enable-background="new 0 0 295.52 152.379"
	 xml:space="preserve">
<polyline fill="#50A646" points="56.177,152.379 5,103.787 239.343,103.787 290.52,152.379 56.177,152.379 "/>
<polyline fill="#81C44E" points="59.292,147.761 16.06,107.067 233.034,107.067 276.266,147.761 59.292,147.761 "/>
<polygon points="93.034,1.064 94.482,3.8 102.326,3.8 100.757,1.064 "/>
<polyline fill="#553A27" points="92.901,71.844 74.54,54.244 161.326,31.861 208.328,54.244 226.689,71.844 92.901,71.844 "/>
<path fill="#553A27" d="M98.102,70.43c0,0,64.646-40.698,64.646-39.072c0,1.625,63.94,40.485,63.94,40.485l-35.611,3.97H93.999
	L98.102,70.43"/>
<polyline fill="#553A27" points="208.328,114.675 92.901,132.274 74.54,114.675 74.54,54.244 208.328,54.244 226.689,71.844 
	208.328,114.675 "/>
<polyline fill="#553A27" points="226.689,132.274 92.901,132.274 92.901,71.844 226.689,71.844 226.689,132.274 "/>
<polyline fill="#B2A899" points="127.998,110.408 109.897,110.408 109.897,83.156 127.998,83.156 127.998,110.408 "/>
<path fill="#5C3F29" d="M80.926,64.766c0,2.916-2.361,5.279-5.273,5.279s-5.273-2.363-5.273-5.279c0-2.915,2.361-5.279,5.273-5.279
	S80.926,61.851,80.926,64.766"/>
<path fill="#5C3F29" d="M80.926,74.533c0,2.916-2.361,5.279-5.273,5.279s-5.273-2.363-5.273-5.279c0-2.915,2.361-5.279,5.273-5.279
	S80.926,71.617,80.926,74.533"/>
<path fill="#503625" d="M74.773,78.143c2.843,1.297,6.056-2.21,5.102-5.026c-0.164-0.484-0.934-0.276-0.769,0.212
	c0.706,2.083-1.69,5.147-3.931,4.124C74.711,77.242,74.306,77.93,74.773,78.143"/>
<polyline fill="#B2A899" points="211.658,110.408 193.557,110.408 193.557,83.156 211.658,83.156 211.658,110.408 "/>
<polyline fill="#958D82" points="194.534,83.156 193.557,83.156 193.557,110.408 208.851,110.408 194.534,83.156 "/>
<polyline fill="#77B04C" points="87.772,127.359 87.772,133.734 221.56,133.734 219.022,132.274 92.901,132.274 87.772,127.359 "/>
<path fill="#4F3726" d="M87.772,127.21v0.149l5.129,4.916v-0.149L87.772,127.21 M106.039,67.318l-18.266,5.984v36.517l5.129,21.796
	V71.844h21.01L106.039,67.318"/>
<path fill="#4F3726" d="M110.875,83.156h17.124v27.252h-18.101V83.156H110.875 M113.911,71.844h-21.01v59.772l0.155,0.659
	l-0.155-0.149v0.149h126.121L113.911,71.844"/>
<polyline fill="#A0988B" points="127.998,83.156 110.875,83.156 125.191,110.408 109.897,110.408 109.897,83.156 109.897,110.408 
	127.998,110.408 127.998,83.156 "/>
<polyline fill="#898278" points="110.875,83.156 109.897,83.156 109.897,110.408 125.191,110.408 110.875,83.156 "/>
<path fill="#503927" d="M75.653,59.487c-0.327,0-0.647,0.03-0.958,0.087v9.766c0.311-0.057,0.631-0.087,0.958-0.087
	c0.71,0,1.388,0.141,2.007,0.396c0.204-0.084,0.402-0.181,0.592-0.289l-2.321-9.866C75.839,59.489,75.746,59.487,75.653,59.487"/>
<path fill="#503927" d="M79.738,75.673c-0.625,1.52-2.115,2.748-3.698,2.748c-0.421,0-0.848-0.087-1.267-0.278
	c-0.029-0.013-0.055-0.028-0.077-0.045v1.038c0.311-0.057,0.631-0.087,0.958-0.087c0.697,0,1.362,0.135,1.972,0.381
	c1.039-0.42,1.915-1.162,2.502-2.102L79.738,75.673 M75.653,69.253c-0.327,0-0.647,0.03-0.958,0.087v8.206
	c0.078-0.079,0.184-0.133,0.302-0.133c0.057,0,0.116,0.012,0.177,0.04c0.307,0.14,0.616,0.203,0.92,0.203
	c1.918,0,3.621-2.53,3.011-4.328c-0.037-0.11-0.027-0.207,0.014-0.284l-0.709-3.014c-0.238-0.147-0.489-0.275-0.75-0.383
	C77.041,69.394,76.364,69.253,75.653,69.253"/>
<path fill="#503927" d="M75.653,79.049c-0.327,0-0.647,0.03-0.958,0.087v9.3c0.306-0.055,0.62-0.084,0.941-0.084
	c0.906,0,1.759,0.229,2.504,0.632c1.658-0.89,2.786-2.641,2.786-4.656c0-2.217-1.366-4.116-3.301-4.898
	C77.016,79.184,76.35,79.049,75.653,79.049"/>
<path fill="#473223" d="M79.119,73.046c-0.041,0.077-0.051,0.173-0.014,0.284c0.609,1.798-1.093,4.328-3.011,4.328
	c-0.304,0-0.613-0.063-0.92-0.203c-0.061-0.028-0.12-0.04-0.177-0.04c-0.119,0-0.225,0.054-0.302,0.133v0.551
	c0.023,0.017,0.048,0.032,0.077,0.045c0.419,0.191,0.847,0.278,1.267,0.278c1.583,0,3.073-1.228,3.698-2.748L79.119,73.046"/>
<polyline fill="#463223" points="87.772,109.82 87.772,127.21 92.901,132.126 92.901,131.615 87.772,109.82 "/>
<polyline fill="#463223" points="92.901,131.615 92.901,132.126 93.056,132.274 92.901,131.615 "/>
<polygon fill="#553A27" points="78.038,75.813 56.317,52.1 141.027,2.736 225.738,52.1 247.459,75.813 162.749,32.984 "/>
<polygon fill="#8B5E3C" points="102.205,41.954 93.999,47.426 90.138,41.954 90.138,0 102.205,0 106.067,5.472 "/>
<ellipse fill="#5C3F29" cx="90.146" cy="79.053" rx="5.273" ry="5.279"/>
<ellipse fill="#5C3F29" cx="90.146" cy="88.82" rx="5.273" ry="5.279"/>
<ellipse fill="#5C3F29" cx="90.146" cy="98.615" rx="5.273" ry="5.279"/>
<ellipse fill="#5C3F29" cx="90.129" cy="107.918" rx="5.273" ry="5.279"/>
<ellipse fill="#5C3F29" cx="90.129" cy="117.684" rx="5.273" ry="5.279"/>
<ellipse fill="#5C3F29" cx="90.129" cy="127.161" rx="5.273" ry="5.279"/>
<path fill="#503625" d="M89.265,92.43c2.843,1.298,6.056-2.21,5.102-5.026c-0.164-0.484-0.934-0.276-0.769,0.212
	c0.706,2.083-1.69,5.147-3.931,4.125C89.204,91.529,88.798,92.217,89.265,92.43z"/>
<path fill="#503625" d="M88.418,111.781c2.843,1.298,6.056-2.21,5.102-5.026c-0.164-0.484-0.934-0.276-0.769,0.212
	c0.706,2.083-1.69,5.147-3.931,4.125C88.356,110.88,87.951,111.568,88.418,111.781z"/>
<path fill="#503625" d="M89.265,130.672c2.843,1.298,6.056-2.21,5.102-5.026c-0.164-0.484-0.934-0.276-0.769,0.212
	c0.706,2.083-1.69,5.147-3.931,4.125C89.204,129.771,88.798,130.458,89.265,130.672z"/>
<ellipse fill="#5C3F29" cx="226.697" cy="78.005" rx="5.273" ry="5.279"/>
<ellipse fill="#5C3F29" cx="226.697" cy="87.772" rx="5.273" ry="5.279"/>
<ellipse fill="#5C3F29" cx="226.697" cy="97.567" rx="5.273" ry="5.279"/>
<ellipse fill="#5C3F29" cx="226.68" cy="106.87" rx="5.273" ry="5.279"/>
<ellipse fill="#5C3F29" cx="226.68" cy="116.636" rx="5.273" ry="5.279"/>
<ellipse fill="#5C3F29" cx="226.68" cy="126.112" rx="5.273" ry="5.279"/>
<path fill="#503625" d="M225.816,91.382c2.843,1.298,6.056-2.21,5.102-5.026c-0.164-0.484-0.934-0.276-0.769,0.212
	c0.706,2.083-1.69,5.147-3.931,4.125C225.755,90.481,225.349,91.169,225.816,91.382z"/>
<path fill="#503625" d="M224.969,110.733c2.843,1.298,6.056-2.21,5.102-5.026c-0.164-0.484-0.934-0.276-0.769,0.212
	c0.706,2.083-1.69,5.147-3.931,4.125C224.907,109.832,224.502,110.52,224.969,110.733z"/>
<path fill="#503625" d="M225.816,129.623c2.843,1.298,6.056-2.21,5.102-5.026c-0.164-0.484-0.934-0.276-0.769,0.212
	c0.706,2.083-1.69,5.147-3.931,4.125C225.755,128.723,225.349,129.41,225.816,129.623z"/>
<rect x="93.999" y="5.472" fill="#C49A6C" width="12.068" height="41.954"/>
<polygon fill="#734F33" points="78.038,75.813 78.038,84.82 163.026,36.178 247.459,84.82 247.459,75.813 162.749,26.449 "/>
<polygon fill="#5C3F29" points="78.038,84.82 56.317,60.803 56.317,52.1 78.038,75.813 "/>
<polygon fill="#C49A6C" points="162.749,26.449 141.027,2.736 225.738,52.1 247.459,75.813 "/>
<rect x="157.198" y="116.176" fill="#5C3F29" width="8.256" height="15.959"/>
</svg>
