<?xml version="1.0" encoding="utf-8"?>
<!-- Generator: Adobe Illustrator 17.0.0, SVG Export Plug-In . SVG Version: 6.00 Build 0)  -->
<!DOCTYPE svg PUBLIC "-//W3C//DTD SVG 1.1//EN" "http://www.w3.org/Graphics/SVG/1.1/DTD/svg11.dtd">
<svg version="1.1" id="Layer_1" xmlns="http://www.w3.org/2000/svg" xmlns:xlink="http://www.w3.org/1999/xlink" x="0px" y="0px"
	 width="218.98px" height="104.875px" viewBox="0 0 218.98 104.875" enable-background="new 0 0 218.98 104.875"
	 xml:space="preserve">
<ellipse fill="#171C19" cx="91.022" cy="93.696" rx="10.677" ry="11.179"/>
<path fill="#7D9B8B" d="M191.511,93.696l-83.552-0.531L7.962,92.533V29.466H5c0,0,11.561-15.229,39.786-23.79
	C55.905,2.303,69.614-0.035,86.222,0c58.753,0.132,79.367,7.886,105.289,22.875C191.019,44.458,191.511,93.696,191.511,93.696z"/>
<path fill="#749183" d="M46.438,22.487c11.124,16.028,51.605,57.923,61.522,70.678L7.962,92.533V29.466H5
	C5,29.466,18.213,31.048,46.438,22.487z"/>
<path fill="#7D9B8B" d="M196.573,28.434v59.059l-5.925,6.203V22.875c0.455,0.159,0.889,0.364,1.296,0.597
	C194.862,25.155,196.573,28.434,196.573,28.434z"/>
<path fill="#9BC6B5" d="M53.427,37.48c0,5.781-4.476,10.468-9.998,10.468h-8.641c-5.522,0-9.998-4.687-9.998-10.468
	c0-5.781-1.045-10.468,4.476-10.468h19.684C54.473,27.012,53.427,31.698,53.427,37.48z"/>
<path fill="#9BC6B5" d="M124.406,40.318c0,5.781-4.476,10.468-9.998,10.468h-8.641c-5.522,0-9.998-4.687-9.998-10.468
	c0-5.781-1.045-10.468,4.476-10.468h19.684C125.452,29.85,124.406,34.537,124.406,40.318z"/>
<rect x="128.806" y="89.626" fill="#171C19" width="27.896" height="1.809"/>
<polygon fill="#314842" points="156.702,87.558 130.534,87.558 128.806,89.626 156.702,89.626 "/>
<rect x="7.963" y="55.508" fill="#FFFFFF" width="182.684" height="1.163"/>
<rect x="132.879" y="29.053" fill="#9BC6B5" width="19.75" height="58.467"/>
<rect x="134.242" y="57.752" fill="#A8DAC6" width="4.086" height="0.535"/>
<path fill="#749183" d="M196.206,87.877l-5.155,5.784l-0.404-24.898V22.487c0.455,0.159,0.889,0.752,1.296,0.985
	C192.94,36.537,195.296,73.505,196.206,87.877z"/>
<rect x="137.561" y="58.42" fill="#A8DAC6" width="0.766" height="1.604"/>
<polygon fill="#FFFFFF" points="190.647,55.508 196.572,51.114 196.572,52.471 190.647,56.671 "/>
<rect x="193.609" y="82.518" fill="#171C19" width="19.379" height="1.874"/>
<rect x="211.045" y="77.025" fill="#171C19" width="1.666" height="5.88"/>
<ellipse fill="#171C19" cx="211.994" cy="77.885" rx="1.987" ry="2.08"/>
<path fill="#749183" d="M110.044,95.62l-0.044-0.016L110.044,95.62z"/>
<path fill="#BFD3C8" d="M29.432,31.429c0,1.017-0.216,1.981-0.609,2.852c-1.086,2.413-3.505,4.088-6.317,4.088
	c-3.828,0-6.933-3.104-6.933-6.94l0.006-0.239l0.006-0.179l1.365-1.615l3.485-4.121l0.514-0.605c0.501-0.12,1.022-0.179,1.555-0.179
	c2.812,0,5.231,1.682,6.317,4.094c0.362,0.798,0.571,1.682,0.603,2.606L29.432,31.429z"/>
<ellipse fill="#BFD3C8" cx="35.137" cy="31.43" rx="6.928" ry="6.939"/>
<ellipse fill="#BFD3C8" cx="48.993" cy="31.43" rx="6.928" ry="6.939"/>
<ellipse fill="#BFD3C8" cx="62.849" cy="31.43" rx="6.928" ry="6.939"/>
<ellipse fill="#BFD3C8" cx="76.705" cy="31.43" rx="6.928" ry="6.939"/>
<ellipse fill="#BFD3C8" cx="90.56" cy="31.43" rx="6.928" ry="6.939"/>
<ellipse fill="#BFD3C8" cx="103.829" cy="31.43" rx="6.928" ry="6.939"/>
<ellipse fill="#BFD3C8" cx="117.685" cy="31.43" rx="6.928" ry="6.939"/>
<ellipse fill="#BFD3C8" cx="130.124" cy="31.43" rx="6.928" ry="6.939"/>
<ellipse fill="#BFD3C8" cx="143.98" cy="31.43" rx="6.928" ry="6.939"/>
<ellipse fill="#BFD3C8" cx="157.836" cy="31.43" rx="6.928" ry="6.939"/>
<ellipse fill="#BFD3C8" cx="171.692" cy="31.43" rx="6.928" ry="6.939"/>
<path fill="#BFD3C8" d="M189.192,32.738v0.006c-0.055,0.196-0.126,0.386-0.198,0.57c-1.022,2.555-3.518,4.357-6.432,4.357
	c-2.567,0-4.81-1.399-6.003-3.476c-0.588-1.019-0.924-2.204-0.924-3.465c0-2.573,1.402-4.823,3.48-6.02
	C183.844,27.628,188.885,31.081,189.192,32.738z"/>
<polygon fill="#D1EADC" points="187.963,31.19 15.433,31.19 15.586,31.011 16.951,29.395 20.436,25.274 20.95,24.669 27.604,16.786 
	172.351,16.786 "/>
</svg>
