<?xml version="1.0" encoding="utf-8"?>
<!-- Generator: Adobe Illustrator 17.0.0, SVG Export Plug-In . SVG Version: 6.00 Build 0)  -->
<!DOCTYPE svg PUBLIC "-//W3C//DTD SVG 1.1//EN" "http://www.w3.org/Graphics/SVG/1.1/DTD/svg11.dtd">
<svg version="1.1" id="Layer_1" xmlns="http://www.w3.org/2000/svg" xmlns:xlink="http://www.w3.org/1999/xlink" x="0px" y="0px"
	 width="447.4px" height="109.39px" viewBox="5 0 447.4 109.39" enable-background="new 5 0 447.4 109.39" xml:space="preserve">
<path fill="#76C043" d="M452.39,109.39c-0.94-39.83-33.52-71.83-73.57-71.83c-40.06,0-72.64,32-73.57,71.83H452.39"/>
<path fill="#60BB46" d="M378.43,37.56c-19.94,0.1-37.99,8.13-51.19,21.1c8.22,15.14,13.06,32.39,13.49,50.73h-35.48l0,0h73.18V37.56
	"/>
<path fill="#76C043" d="M340.73,109.39C339.31,48.73,289.69,0,228.7,0S118.09,48.73,116.66,109.39H340.73"/>
<path fill="#76C043" d="M152.14,109.39c-0.94-39.83-33.52-71.83-73.57-71.83S5.93,69.55,5,109.39H152.14"/>
<path fill="#60BB46" d="M228.25,0.01c-42.37,0.17-79.19,23.83-98.1,58.64c13.2,12.97,21.52,30.88,21.99,50.73h76.11V0.01"/>
<path fill="#60BB46" d="M130.16,58.66c-8.22,15.14-13.06,32.39-13.49,50.73h35.48C151.68,89.53,143.35,71.63,130.16,58.66"/>
<path fill="#D5E9C3" d="M6.71,95.2c-1.01,4.58-1.6,9.33-1.71,14.19l0,0C5.11,104.53,5.7,99.78,6.71,95.2 M6.73,95.09
	c-0.01,0.03-0.01,0.06-0.02,0.09C6.72,95.15,6.73,95.12,6.73,95.09 M6.76,94.98c-0.01,0.03-0.01,0.06-0.02,0.09
	C6.74,95.04,6.75,95.01,6.76,94.98 M6.78,94.88c-0.01,0.03-0.01,0.05-0.02,0.08C6.77,94.93,6.78,94.9,6.78,94.88 M6.81,94.77
	C6.8,94.8,6.8,94.82,6.79,94.84C6.8,94.82,6.8,94.8,6.81,94.77 M6.83,94.67c0,0.02-0.01,0.04-0.01,0.06
	C6.82,94.7,6.83,94.69,6.83,94.67 M6.85,94.56c0,0.02-0.01,0.03-0.01,0.05C6.85,94.59,6.85,94.58,6.85,94.56 M6.88,94.46
	c0,0.01-0.01,0.03-0.01,0.04C6.87,94.48,6.88,94.47,6.88,94.46 M6.9,94.35c0,0.01-0.01,0.02-0.01,0.03
	C6.9,94.37,6.9,94.36,6.9,94.35 M6.93,94.24c0,0.01,0,0.01,0,0.02C6.92,94.26,6.93,94.25,6.93,94.24 M6.95,94.14c0,0,0,0.01,0,0.01
	C6.95,94.15,6.95,94.14,6.95,94.14"/>
<path fill="#60BB46" d="M78.18,37.56C43.56,37.74,14.6,61.82,6.95,94.14c0,0,0,0.01,0,0.01c-0.01,0.03-0.01,0.06-0.02,0.09
	c0,0.01,0,0.01,0,0.02c-0.01,0.03-0.01,0.06-0.02,0.08c0,0.01-0.01,0.02-0.01,0.03c-0.01,0.02-0.01,0.05-0.02,0.07
	c0,0.01-0.01,0.03-0.01,0.04c-0.01,0.02-0.01,0.04-0.02,0.07c0,0.02-0.01,0.03-0.01,0.05c0,0.02-0.01,0.04-0.01,0.06
	c0,0.02-0.01,0.04-0.01,0.06c0,0.02-0.01,0.03-0.01,0.05c-0.01,0.02-0.01,0.05-0.02,0.07c0,0.01-0.01,0.03-0.01,0.04
	c-0.01,0.03-0.01,0.05-0.02,0.08c0,0.01,0,0.02-0.01,0.03c-0.01,0.03-0.01,0.06-0.02,0.09c0,0,0,0.02,0,0.02
	c-0.01,0.03-0.01,0.06-0.02,0.09c0,0,0,0.01,0,0.01c-1.01,4.58-1.6,9.33-1.71,14.19h73.18L78.18,37.56"/>
</svg>
