<?xml version="1.0" encoding="utf-8"?>
<!-- Generator: Adobe Illustrator 17.0.0, SVG Export Plug-In . SVG Version: 6.00 Build 0)  -->
<!DOCTYPE svg PUBLIC "-//W3C//DTD SVG 1.1//EN" "http://www.w3.org/Graphics/SVG/1.1/DTD/svg11.dtd">
<svg version="1.1" id="Layer_1" xmlns="http://www.w3.org/2000/svg" xmlns:xlink="http://www.w3.org/1999/xlink" x="0px" y="0px"
	 width="605.63px" height="132.058px" viewBox="0 0 605.63 132.058" enable-background="new 0 0 605.63 132.058"
	 xml:space="preserve">
<polyline fill="#50A646" points="56.177,132.058 5,83.467 549.453,83.467 600.63,132.058 56.177,132.058 "/>
<polyline fill="#81C44E" points="59.292,127.441 16.06,86.746 543.144,86.746 586.375,127.441 59.292,127.441 "/>
<polyline fill="#553A27" points="228.622,93.595 71.103,117.612 46.047,93.595 46.047,11.127 228.622,11.127 253.678,35.144 
	228.622,93.595 "/>
<polyline fill="#553A27" points="535.266,117.612 71.103,117.612 71.103,35.144 535.266,35.144 535.266,117.612 "/>
<path fill="#4F3726" d="M88.093,67.661h20.787v33.081H86.907V67.661H88.093 M105.6,54.579H71.103v63.033h182.575l-36.031-15.338
	h-7.974V98.88L105.6,54.579 M101.313,35.144h-30.21v14.937h57.806L101.313,35.144"/>
<polyline fill="#4B3525" points="228.622,11.127 46.047,11.127 71.103,35.144 253.678,35.144 228.622,11.127 "/>
<polyline fill="#4B3525" points="46.047,11.127 46.047,11.127 46.047,93.595 71.103,117.612 46.047,11.127 "/>
<polyline fill="#B2A899" points="108.88,100.743 86.907,100.743 86.907,67.661 108.88,67.661 108.88,100.743 "/>
<polyline fill="#958D82" points="88.093,67.661 86.907,67.661 86.907,100.743 105.473,100.743 88.093,67.661 "/>
<polyline fill="#B2A899" points="231.647,102.275 209.673,102.275 209.673,69.193 231.647,69.193 231.647,102.275 "/>
<polyline fill="#958D82" points="210.86,69.193 209.673,69.193 209.673,102.275 228.239,102.275 210.86,69.193 "/>
<polyline fill="#B2A899" points="352.926,102.275 330.952,102.275 330.952,69.193 352.926,69.193 352.926,102.275 "/>
<polyline fill="#958D82" points="332.139,69.193 330.952,69.193 330.952,102.275 349.518,102.275 332.139,69.193 "/>
<polyline fill="#B2A899" points="477.062,102.275 455.088,102.275 455.088,69.193 477.062,69.193 477.062,102.275 "/>
<polyline fill="#958D82" points="456.275,69.193 455.088,69.193 455.088,102.275 473.654,102.275 456.275,69.193 "/>
<polygon fill="#5C3F29" points="60.314,52.451 33.945,23.296 45.724,0 60.314,41.518 "/>
<rect x="149.863" y="98.076" fill="#5C3F29" width="10.022" height="19.373"/>
<rect x="402.771" y="98.076" fill="#5C3F29" width="10.022" height="19.373"/>
<polygon fill="#734F33" points="547.365,50.081 62.705,50.081 45.724,0 516.913,0 "/>
<polyline fill="#5C3F29" points="547.365,54.579 62.706,54.579 62.706,50.081 547.365,50.081 547.365,54.579 "/>
<polyline fill="#4B3525" points="282.358,54.579 279.783,54.579 279.783,117.612 282.358,117.612 282.358,54.579 "/>
</svg>
