<?xml version="1.0" encoding="utf-8"?>
<!-- Generator: Adobe Illustrator 17.0.0, SVG Export Plug-In . SVG Version: 6.00 Build 0)  -->
<!DOCTYPE svg PUBLIC "-//W3C//DTD SVG 1.1//EN" "http://www.w3.org/Graphics/SVG/1.1/DTD/svg11.dtd">
<svg version="1.1" id="Layer_1" xmlns="http://www.w3.org/2000/svg" xmlns:xlink="http://www.w3.org/1999/xlink" x="0px" y="0px"
	 width="270.52px" height="62.92px" viewBox="5 0 270.52 62.92" enable-background="new 5 0 270.52 62.92" xml:space="preserve">
<path fill="#00A348" d="M56.86,62.92C56.53,48.88,45.05,37.6,30.93,37.6S5.33,48.88,5,62.92H56.86z"/>
<path fill="#00A348" d="M261.39,62.92c-0.69-29.54-24.85-53.27-54.56-53.27s-53.87,23.73-54.56,53.27H261.39"/>
<path fill="#76C043" d="M210.38,62.92C209.56,28.03,181.02,0,145.94,0S82.32,28.03,81.5,62.92H210.38"/>
<path fill="#76C043" d="M105.55,62.92c-0.43-18.47-15.54-33.31-34.12-33.31c-18.57,0-33.68,14.84-34.12,33.31H105.55"/>
<path fill="#76C043" d="M275.52,62.92c-0.43-18.47-15.54-33.31-34.12-33.31c-18.57,0-33.68,14.84-34.12,33.31H275.52"/>
<path fill="#60BB46" d="M145.73,0c-24.66,0.08-46.06,14-56.83,34.41c9.76,5.83,16.36,16.38,16.65,28.51h40.19V0"/>
<path fill="#60BB46" d="M88.9,34.41c-4.51,8.55-7.16,18.23-7.4,28.51h24.05C105.26,50.8,98.66,40.24,88.9,34.41"/>
<path fill="#60BB46" d="M207.72,58.19c-0.25,1.54-0.4,3.12-0.44,4.73l0,0C207.32,61.31,207.47,59.73,207.72,58.19 M207.75,58.04
	c-0.01,0.05-0.02,0.1-0.03,0.16C207.73,58.14,207.74,58.09,207.75,58.04 M207.76,57.98c0,0.02-0.01,0.03-0.01,0.05
	C207.75,58.02,207.76,58,207.76,57.98 M207.77,57.93c0,0.02-0.01,0.03-0.01,0.05C207.76,57.96,207.76,57.95,207.77,57.93
	 M207.78,57.88c0,0.02-0.01,0.03-0.01,0.04C207.77,57.91,207.77,57.9,207.78,57.88 M207.78,57.83c0,0.01,0,0.03-0.01,0.04
	C207.78,57.86,207.78,57.85,207.78,57.83 M207.79,57.78c0,0.01,0,0.03-0.01,0.04C207.79,57.81,207.79,57.79,207.79,57.78
	 M207.8,57.73c0,0.01,0,0.03-0.01,0.04C207.8,57.75,207.8,57.74,207.8,57.73 M207.81,57.68c0,0.01,0,0.02-0.01,0.04
	C207.81,57.7,207.81,57.69,207.81,57.68 M207.82,57.62c0,0.01,0,0.02-0.01,0.04C207.82,57.65,207.82,57.64,207.82,57.62
	 M207.83,57.57c0,0.01,0,0.02-0.01,0.04C207.83,57.6,207.83,57.58,207.83,57.57 M207.84,57.52c0,0.01,0,0.02-0.01,0.03
	C207.84,57.54,207.84,57.53,207.84,57.52 M207.85,57.47c0,0.01,0,0.02-0.01,0.03C207.85,57.49,207.85,57.48,207.85,57.47
	 M207.86,57.42c0,0.01,0,0.02-0.01,0.03C207.86,57.44,207.86,57.43,207.86,57.42 M207.87,57.37c0,0.01,0,0.02,0,0.03
	C207.87,57.38,207.87,57.38,207.87,57.37 M207.88,57.32c0,0.01,0,0.02,0,0.02C207.88,57.33,207.88,57.32,207.88,57.32 M207.89,57.26
	c0,0.01,0,0.02,0,0.02C207.89,57.28,207.89,57.27,207.89,57.26 M207.9,57.21c0,0.01,0,0.01,0,0.02
	C207.9,57.23,207.9,57.22,207.9,57.21 M207.91,57.16c0,0.01,0,0.01,0,0.02C207.91,57.18,207.91,57.17,207.91,57.16 M207.92,57.11
	c0,0.01,0,0.01,0,0.02C207.92,57.12,207.92,57.12,207.92,57.11 M207.93,57.06c0,0.01,0,0.01,0,0.02
	C207.93,57.07,207.93,57.07,207.93,57.06 M207.94,57.01c0,0,0,0.01,0,0.01C207.94,57.02,207.94,57.01,207.94,57.01 M207.95,56.96
	c0,0,0,0.01,0,0.01C207.95,56.97,207.95,56.96,207.95,56.96 M207.96,56.91C207.96,56.91,207.96,56.91,207.96,56.91
	C207.96,56.91,207.96,56.91,207.96,56.91 M207.97,56.86C207.97,56.86,207.97,56.86,207.97,56.86
	C207.97,56.86,207.97,56.86,207.97,56.86"/>
<path fill="#60BB46" d="M241.32,29.61c-16.45,0.04-30.17,11.72-33.35,27.25c0,0,0,0,0,0c0,0.02-0.01,0.03-0.01,0.05c0,0,0,0,0,0.01
	c0,0.01-0.01,0.03-0.01,0.04c0,0,0,0.01,0,0.01c0,0.01-0.01,0.03-0.01,0.04c0,0,0,0.01,0,0.01c0,0.01-0.01,0.03-0.01,0.04
	c0,0.01,0,0.01,0,0.02c0,0.01,0,0.02-0.01,0.04c0,0.01,0,0.01,0,0.02c0,0.01,0,0.02-0.01,0.03c0,0.01,0,0.01,0,0.02
	c0,0.01,0,0.02-0.01,0.03c0,0.01,0,0.01,0,0.02c0,0.01,0,0.02-0.01,0.03c0,0.01,0,0.02,0,0.02c0,0.01,0,0.02-0.01,0.03
	c0,0.01,0,0.02,0,0.02c0,0.01,0,0.02-0.01,0.03c0,0.01,0,0.02,0,0.03c0,0.01,0,0.02,0,0.02c0,0.01,0,0.02-0.01,0.03
	c0,0.01,0,0.01,0,0.02c0,0.01,0,0.02-0.01,0.03c0,0.01,0,0.01,0,0.02c0,0.01,0,0.02-0.01,0.03c0,0.01,0,0.01,0,0.02
	c0,0.01,0,0.02-0.01,0.04c0,0.01,0,0.01,0,0.02c0,0.01,0,0.02-0.01,0.04c0,0.01,0,0.01,0,0.02c0,0.01,0,0.02-0.01,0.04
	c0,0.01,0,0.01,0,0.02c0,0.01,0,0.03-0.01,0.04c0,0,0,0.01,0,0.01c0,0.01,0,0.03-0.01,0.04c0,0,0,0.01,0,0.01
	c0,0.02,0,0.03-0.01,0.04c0,0,0,0.01,0,0.01c0,0.02-0.01,0.03-0.01,0.04c0,0,0,0.01,0,0.01c0,0.02-0.01,0.03-0.01,0.05c0,0,0,0,0,0
	c0,0.02-0.01,0.03-0.01,0.05v0c-0.01,0.05-0.02,0.1-0.03,0.16l0,0c-0.25,1.54-0.4,3.12-0.44,4.73h34.03L241.32,29.61"/>
</svg>
