<?xml version="1.0" encoding="utf-8"?>
<!-- Generator: Adobe Illustrator 17.0.0, SVG Export Plug-In . SVG Version: 6.00 Build 0)  -->
<!DOCTYPE svg PUBLIC "-//W3C//DTD SVG 1.1//EN" "http://www.w3.org/Graphics/SVG/1.1/DTD/svg11.dtd">
<svg version="1.1" id="Layer_1" xmlns="http://www.w3.org/2000/svg" xmlns:xlink="http://www.w3.org/1999/xlink" x="0px" y="0px"
	 width="295.52px" height="249.098px" viewBox="0 0 295.52 249.098" enable-background="new 0 0 295.52 249.098"
	 xml:space="preserve">
<polyline fill="#50A646" points="56.177,249.098 5,200.506 239.343,200.506 290.52,249.098 56.177,249.098 "/>
<polyline fill="#81C44E" points="59.292,244.48 16.06,203.786 233.034,203.786 276.266,244.48 59.292,244.48 "/>
<polyline fill="#553A27" points="218.456,212.92 88.695,232.705 68.055,212.92 68.055,18.57 218.456,18.57 239.096,38.354 
	218.456,212.92 "/>
<polyline fill="#553A27" points="239.096,232.705 88.695,232.705 88.695,38.354 239.096,38.354 239.096,232.705 "/>
<path fill="#4F3726" d="M102.692,191.557h17.124v27.251h-18.101v-27.251H102.692 M113.582,38.354H88.695v194.351h150.401
	l-18.149-25.413v12.778h-18.101v-27.251h0.977h6.787L109.379,51.073l27.698-0.001L113.582,38.354"/>
<polyline fill="#4B3525" points="218.456,18.57 68.055,18.57 88.695,38.354 239.096,38.354 218.456,18.57 "/>
<polyline fill="#4B3525" points="68.055,18.57 68.055,18.57 68.055,212.92 88.695,232.705 68.055,18.57 "/>
<polyline fill="#B2A899" points="119.815,218.808 101.714,218.808 101.714,191.557 119.815,191.557 119.815,218.808 "/>
<polyline fill="#958D82" points="102.692,191.557 101.714,191.557 101.714,218.808 117.008,218.808 102.692,191.557 "/>
<polyline fill="#B2A899" points="220.947,220.07 202.846,220.07 202.846,192.819 220.947,192.819 220.947,220.07 "/>
<polyline fill="#958D82" points="203.823,192.819 202.846,192.819 202.846,220.07 218.14,220.07 203.823,192.819 "/>
<polygon fill="#5C3F29" points="82.998,47.435 59.151,21.068 69.803,0 82.998,37.547 "/>
<rect x="153.575" y="216.612" fill="#5C3F29" width="8.256" height="15.959"/>
<polygon fill="#734F33" points="256.256,45.291 85.16,45.291 69.803,0 228.717,0 "/>
<rect x="85.16" y="45.291" fill="#553A27" width="171.096" height="4.068"/>
</svg>
