<?xml version="1.0" encoding="utf-8"?>
<!-- Generator: Adobe Illustrator 17.0.0, SVG Export Plug-In . SVG Version: 6.00 Build 0)  -->
<!DOCTYPE svg PUBLIC "-//W3C//DTD SVG 1.1//EN" "http://www.w3.org/Graphics/SVG/1.1/DTD/svg11.dtd">
<svg version="1.1" id="Layer_1" xmlns="http://www.w3.org/2000/svg" xmlns:xlink="http://www.w3.org/1999/xlink" x="0px" y="0px"
	 width="757.16px" height="204.53px" viewBox="5 0 757.16 204.53" enable-background="new 5 0 757.16 204.53" xml:space="preserve">
<path fill="#00A348" d="M671.49,204.53c-1.29-55.04-46.31-99.25-101.66-99.25c-55.35,0-100.36,44.22-101.66,99.25H671.49"/>
<path fill="#00A348" d="M377.16,204.53C375.38,129,313.61,68.32,237.65,68.32S99.92,129,98.14,204.53H377.16"/>
<path fill="#76C043" d="M611.52,204.53C608.86,91.12,516.1,0,402.05,0S195.23,91.12,192.57,204.53H611.52"/>
<path fill="#76C043" d="M210.27,204.53c-1.3-55.57-46.76-100.21-102.64-100.21S6.31,148.96,5,204.53H210.27"/>
<path fill="#76C043" d="M762.16,204.53c-0.97-41.24-34.7-74.37-76.17-74.37s-75.21,33.13-76.17,74.37H762.16"/>
<path fill="#60BB46" d="M402.05,0c-17.49,0-34.47,2.14-50.71,6.18C276.2,24.85,217.09,84.09,198.57,159.29
	c7.13,13.57,11.32,28.94,11.7,45.24h192.02V0C402.21,0,402.13,0,402.05,0L402.05,0"/>
<path fill="#60BB46" d="M198.57,159.29c-3.58,14.54-5.64,29.68-6.01,45.24h17.71C209.89,188.23,205.71,172.86,198.57,159.29"/>
<path fill="#60BB46" d="M609.82,204.29c0,0.01,0,0.01,0,0.02C609.82,204.3,609.82,204.29,609.82,204.29 M609.82,204.17
	c0,0.03,0,0.05,0,0.08C609.82,204.22,609.82,204.19,609.82,204.17 M609.84,203.69C609.84,203.69,609.84,203.69,609.84,203.69
	C609.84,203.69,609.84,203.69,609.84,203.69 M609.85,203.45c0,0.01,0,0.01,0,0.02C609.85,203.46,609.85,203.45,609.85,203.45
	 M609.85,203.21L609.85,203.21L609.85,203.21"/>
<path fill="#60BB46" d="M685.62,130.16c-40.86,0.2-74.12,32.54-75.76,73.04v0c0,0.08-0.01,0.16-0.01,0.24c0,0.01,0,0.01,0,0.02
	c0,0.07-0.01,0.15-0.01,0.22c0,0,0,0,0,0c-0.01,0.16-0.01,0.32-0.01,0.48c0,0.03,0,0.05,0,0.08c0,0.01,0,0.03,0,0.05
	c0,0.01,0,0.01,0,0.02c0,0.07,0,0.15-0.01,0.22h75.8L685.62,130.16"/>
<path fill="#60BB46" d="M105.63,104.37C50.68,105.43,6.29,149.63,5,204.53h100.63L105.63,104.37"/>
</svg>
