<?xml version="1.0" encoding="utf-8"?>
<!-- Generator: Adobe Illustrator 17.0.0, SVG Export Plug-In . SVG Version: 6.00 Build 0)  -->
<!DOCTYPE svg PUBLIC "-//W3C//DTD SVG 1.1//EN" "http://www.w3.org/Graphics/SVG/1.1/DTD/svg11.dtd">
<svg version="1.1" id="Layer_1" xmlns="http://www.w3.org/2000/svg" xmlns:xlink="http://www.w3.org/1999/xlink" x="0px" y="0px"
	 width="1268.38px" height="292.681px" viewBox="0 0 1268.38 292.681" enable-background="new 0 0 1268.38 292.681"
	 xml:space="preserve">
<path fill="#00A348" d="M246.22,292.681c-1.533-65.298-54.944-117.76-120.61-117.76S6.533,227.384,5,292.681H246.22z"/>
<path fill="#00A348" d="M1197.666,292.681c-3.227-137.403-115.616-247.798-253.795-247.798S693.302,155.278,690.076,292.681
	H1197.666"/>
<path fill="#76C043" d="M960.379,292.681C956.568,130.391,823.821,0,660.615,0C497.408,0,364.662,130.391,360.851,292.681H960.379"
	/>
<path fill="#76C043" d="M472.715,292.681c-2.017-85.918-72.295-154.949-158.699-154.949c-86.403,0-156.681,69.031-158.698,154.949
	H472.715"/>
<path fill="#76C043" d="M1263.38,292.681c-2.018-85.918-72.295-154.949-158.699-154.949c-86.404,0-156.681,69.031-158.699,154.949
	H1263.38"/>
<path fill="#60BB46" d="M659.652,0.012C544.93,0.374,445.378,65.15,395.271,160.077c45.391,27.1,76.12,76.216,77.444,132.605
	h186.937V0.012"/>
<path fill="#60BB46" d="M395.271,160.077c-20.983,39.753-33.298,84.797-34.42,132.605h111.864
	C471.391,236.292,440.662,187.176,395.271,160.077"/>
<path fill="#60BB46" d="M1104.292,137.742c-86.224,0.208-156.295,69.151-158.31,154.939h158.31V137.742"/>
</svg>
