<?xml version="1.0" encoding="utf-8"?>
<!-- Generator: Adobe Illustrator 17.0.0, SVG Export Plug-In . SVG Version: 6.00 Build 0)  -->
<!DOCTYPE svg PUBLIC "-//W3C//DTD SVG 1.1//EN" "http://www.w3.org/Graphics/SVG/1.1/DTD/svg11.dtd">
<svg version="1.1" id="Layer_1" xmlns="http://www.w3.org/2000/svg" xmlns:xlink="http://www.w3.org/1999/xlink" x="0px" y="0px"
	 width="691.65px" height="169.11px" viewBox="5 0 691.65 169.11" enable-background="new 5 0 691.65 169.11" xml:space="preserve">
<path fill="#76C043" d="M696.65,169.1c-1.45-61.58-51.81-111.05-113.74-111.05S470.62,107.53,469.17,169.1H696.65"/>
<path fill="#60BB46" d="M582.3,58.07c-30.82,0.16-58.74,12.57-79.13,32.61c12.71,23.41,20.19,50.07,20.85,78.42h-54.85l0,0H582.3
	L582.3,58.07"/>
<path fill="#76C043" d="M524.02,169.1C521.82,75.34,445.12,0,350.83,0s-170.99,75.34-173.2,169.1H524.02"/>
<path fill="#76C043" d="M232.48,169.1c-1.45-61.58-51.81-111.05-113.74-111.05S6.45,107.53,5,169.1H232.48"/>
<path fill="#60BB46" d="M350.14,0.02c-65.49,0.26-122.42,36.84-151.65,90.66c20.4,20.05,33.27,47.73,33.99,78.43h117.66V0.02"/>
<path fill="#60BB46" d="M198.49,90.68c-12.71,23.41-20.19,50.07-20.86,78.43h54.85C231.76,138.41,218.89,110.73,198.49,90.68"/>
<path fill="#D5E9C3" d="M5.17,164.97c-0.08,1.37-0.14,2.75-0.17,4.13l0,0C5.03,167.72,5.09,166.34,5.17,164.97 M5.2,164.62
	c-0.01,0.11-0.01,0.24-0.02,0.35C5.18,164.85,5.19,164.74,5.2,164.62 M5.21,164.44c0,0.06-0.01,0.11-0.01,0.16
	C5.2,164.55,5.2,164.5,5.21,164.44 M5.22,164.26c0,0.05-0.01,0.11-0.01,0.16C5.21,164.37,5.21,164.31,5.22,164.26 M5.23,164.08
	c0,0.05-0.01,0.11-0.01,0.16C5.22,164.19,5.23,164.13,5.23,164.08 M5.24,163.9c0,0.05-0.01,0.11-0.01,0.16
	C5.23,164.01,5.24,163.96,5.24,163.9 M5.25,163.73c0,0.05-0.01,0.11-0.01,0.15C5.25,163.83,5.25,163.78,5.25,163.73 M5.27,163.55
	c0,0.05-0.01,0.1-0.01,0.16C5.26,163.65,5.26,163.6,5.27,163.55 M5.28,163.37c0,0.05-0.01,0.1-0.01,0.15
	C5.27,163.47,5.28,163.42,5.28,163.37 M5.29,163.19c0,0.05-0.01,0.11-0.01,0.15C5.29,163.29,5.29,163.24,5.29,163.19 M5.31,163.01
	c0,0.05-0.01,0.1-0.01,0.15C5.3,163.11,5.3,163.07,5.31,163.01 M5.32,162.84c0,0.05-0.01,0.1-0.01,0.15
	C5.31,162.94,5.32,162.89,5.32,162.84 M5.33,162.66c0,0.05-0.01,0.1-0.01,0.15C5.33,162.76,5.33,162.71,5.33,162.66 M5.35,162.48
	c0,0.05-0.01,0.09-0.01,0.15C5.34,162.58,5.34,162.53,5.35,162.48 M5.36,162.31c0,0.05-0.01,0.1-0.01,0.14
	C5.35,162.4,5.36,162.35,5.36,162.31 M5.38,162.13c0,0.05-0.01,0.09-0.01,0.14C5.37,162.22,5.37,162.18,5.38,162.13 M5.39,161.95
	c0,0.05-0.01,0.09-0.01,0.14C5.39,162.04,5.39,162,5.39,161.95 M5.41,161.77c0,0.04-0.01,0.09-0.01,0.13
	C5.4,161.86,5.4,161.81,5.41,161.77 M5.42,161.6c0,0.04-0.01,0.08-0.01,0.13C5.42,161.69,5.42,161.64,5.42,161.6 M5.44,161.42
	c0,0.04-0.01,0.08-0.01,0.12C5.43,161.5,5.44,161.46,5.44,161.42 M5.46,161.25c0,0.04-0.01,0.08-0.01,0.11
	C5.45,161.32,5.45,161.28,5.46,161.25 M5.47,161.07c0,0.03-0.01,0.07-0.01,0.11C5.47,161.14,5.47,161.11,5.47,161.07 M5.49,160.89
	c0,0.03-0.01,0.07-0.01,0.1C5.48,160.96,5.49,160.93,5.49,160.89 M5.51,160.72c0,0.03-0.01,0.06-0.01,0.1
	C5.5,160.78,5.5,160.75,5.51,160.72 M5.52,160.54c0,0.03-0.01,0.07-0.01,0.1C5.52,160.6,5.52,160.57,5.52,160.54 M5.54,160.36
	c0,0.03-0.01,0.07-0.01,0.1C5.53,160.43,5.54,160.4,5.54,160.36 M5.56,160.19c0,0.03-0.01,0.06-0.01,0.09
	C5.55,160.25,5.55,160.22,5.56,160.19 M5.58,160.01c0,0.03-0.01,0.06-0.01,0.09C5.57,160.07,5.57,160.04,5.58,160.01 M5.59,159.84
	c0,0.03-0.01,0.06-0.01,0.08C5.59,159.89,5.59,159.86,5.59,159.84 M5.61,159.66c0,0.03-0.01,0.05-0.01,0.08
	C5.61,159.72,5.61,159.69,5.61,159.66 M5.63,159.49c0,0.02-0.01,0.05-0.01,0.07C5.63,159.54,5.63,159.51,5.63,159.49 M5.65,159.31
	c0,0.02-0.01,0.05-0.01,0.07C5.65,159.36,5.65,159.33,5.65,159.31 M5.67,159.14c0,0.02,0,0.04-0.01,0.06
	C5.67,159.18,5.67,159.16,5.67,159.14 M5.69,158.96c0,0.02,0,0.04-0.01,0.06C5.69,159,5.69,158.98,5.69,158.96 M5.71,158.79
	c0,0.02,0,0.04-0.01,0.06C5.7,158.83,5.71,158.8,5.71,158.79 M5.73,158.61c0,0.02,0,0.04-0.01,0.06
	C5.72,158.65,5.73,158.63,5.73,158.61 M5.75,158.44c0,0.02,0,0.03-0.01,0.05C5.75,158.47,5.75,158.46,5.75,158.44 M5.77,158.26
	c0,0.02,0,0.03-0.01,0.05C5.77,158.29,5.77,158.28,5.77,158.26 M5.79,158.09c0,0.01,0,0.03-0.01,0.04
	C5.79,158.11,5.79,158.11,5.79,158.09 M5.81,157.91c0,0.01,0,0.02,0,0.04C5.81,157.94,5.81,157.92,5.81,157.91 M5.83,157.74
	c0,0.01,0,0.02,0,0.03C5.83,157.76,5.83,157.75,5.83,157.74 M5.86,157.57c0,0.01,0,0.02,0,0.03C5.85,157.58,5.85,157.57,5.86,157.57
	 M5.88,157.39c0,0.01,0,0.01,0,0.02C5.88,157.41,5.88,157.4,5.88,157.39 M5.9,157.22c0,0,0,0.01,0,0.01
	C5.9,157.23,5.9,157.23,5.9,157.22 M5.92,157.04C5.92,157.05,5.92,157.05,5.92,157.04C5.92,157.05,5.92,157.05,5.92,157.04
	 M5.94,156.87L5.94,156.87L5.94,156.87 M5.97,156.7L5.97,156.7L5.97,156.7 M5.99,156.52L5.99,156.52L5.99,156.52"/>
<path fill="#60BB46" d="M118.13,58.07c-57.37,0.3-104.7,43.05-112.14,98.46v0c-0.01,0.06-0.02,0.11-0.02,0.17l0,0
	c-0.01,0.06-0.02,0.11-0.02,0.17l0,0.01c-0.01,0.06-0.01,0.11-0.02,0.17c0,0,0,0.01,0,0.01c-0.01,0.05-0.01,0.11-0.02,0.16
	c0,0.01,0,0.01,0,0.01c-0.01,0.05-0.01,0.11-0.02,0.16c0,0.01,0,0.01,0,0.02c-0.01,0.05-0.01,0.11-0.02,0.15c0,0.01,0,0.02,0,0.03
	c-0.01,0.05-0.01,0.1-0.02,0.15c0,0.01,0,0.02,0,0.03c-0.01,0.05-0.01,0.1-0.02,0.14c0,0.01,0,0.03,0,0.04
	c-0.01,0.04-0.01,0.09-0.02,0.14c0,0.02,0,0.03-0.01,0.04c-0.01,0.04-0.01,0.09-0.02,0.13c0,0.02,0,0.03-0.01,0.05
	c0,0.04-0.01,0.09-0.02,0.13c0,0.02,0,0.03-0.01,0.05c0,0.04-0.01,0.08-0.01,0.12c0,0.02,0,0.04-0.01,0.06
	c0,0.04-0.01,0.08-0.01,0.12c0,0.02,0,0.04-0.01,0.06c0,0.04-0.01,0.08-0.01,0.12c0,0.02,0,0.04-0.01,0.06
	c0,0.04-0.01,0.08-0.01,0.11c0,0.02,0,0.04-0.01,0.06c0,0.04-0.01,0.07-0.01,0.11c0,0.02-0.01,0.05-0.01,0.07
	c0,0.04-0.01,0.07-0.01,0.11c0,0.02-0.01,0.05-0.01,0.07c0,0.04-0.01,0.07-0.01,0.1c0,0.03-0.01,0.05-0.01,0.08
	c0,0.03-0.01,0.06-0.01,0.1c0,0.03-0.01,0.06-0.01,0.08c0,0.03-0.01,0.06-0.01,0.09c0,0.03-0.01,0.06-0.01,0.09
	c0,0.03-0.01,0.06-0.01,0.09c0,0.03-0.01,0.06-0.01,0.09c0,0.03-0.01,0.06-0.01,0.08c0,0.03-0.01,0.06-0.01,0.1
	c0,0.03,0,0.05-0.01,0.08c0,0.03-0.01,0.06-0.01,0.1c0,0.03-0.01,0.05-0.01,0.08c0,0.03-0.01,0.06-0.01,0.1c0,0.03,0,0.05-0.01,0.08
	c0,0.03-0.01,0.07-0.01,0.1c0,0.03,0,0.05-0.01,0.08c0,0.04-0.01,0.07-0.01,0.11c0,0.03,0,0.04-0.01,0.07
	c0,0.04-0.01,0.08-0.01,0.11c0,0.02,0,0.04-0.01,0.06c0,0.04-0.01,0.08-0.01,0.12c0,0.02,0,0.04,0,0.05c0,0.04-0.01,0.09-0.01,0.13
	c0,0.01,0,0.03,0,0.05c0,0.04-0.01,0.09-0.01,0.13c0,0.02,0,0.03,0,0.05c0,0.04-0.01,0.09-0.01,0.14c0,0.01,0,0.03,0,0.04
	c0,0.05-0.01,0.09-0.01,0.14c0,0.01,0,0.03,0,0.04c0,0.05-0.01,0.1-0.01,0.14c0,0.01,0,0.02,0,0.03c0,0.05-0.01,0.1-0.01,0.15
	c0,0.01,0,0.02,0,0.03c0,0.05-0.01,0.1-0.01,0.15c0,0.01,0,0.02,0,0.03c0,0.05-0.01,0.1-0.01,0.15c0,0.01,0,0.02,0,0.02
	c0,0.05-0.01,0.1-0.01,0.15c0,0.01,0,0.02,0,0.03c0,0.05-0.01,0.1-0.01,0.15c0,0.01,0,0.01,0,0.02c0,0.05-0.01,0.1-0.01,0.15
	c0,0.01,0,0.02,0,0.03c0,0.05-0.01,0.1-0.01,0.16c0,0.01,0,0.01,0,0.02c0,0.05-0.01,0.1-0.01,0.15c0,0.01,0,0.01,0,0.02
	c0,0.06-0.01,0.11-0.01,0.16c0,0.01,0,0.01,0,0.02c0,0.05-0.01,0.11-0.01,0.16c0,0.01,0,0.01,0,0.02c0,0.05-0.01,0.11-0.01,0.16
	c0,0.01,0,0.01,0,0.02c0,0.06-0.01,0.11-0.01,0.16c0,0,0,0.01,0,0.01c-0.01,0.12-0.01,0.23-0.02,0.35c0,0,0,0,0,0
	c-0.08,1.37-0.14,2.75-0.17,4.13h113.13L118.13,58.07"/>
</svg>
