<?xml version="1.0" encoding="utf-8"?>
<!-- Generator: Adobe Illustrator 17.0.0, SVG Export Plug-In . SVG Version: 6.00 Build 0)  -->
<!DOCTYPE svg PUBLIC "-//W3C//DTD SVG 1.1//EN" "http://www.w3.org/Graphics/SVG/1.1/DTD/svg11.dtd">
<svg version="1.1" id="Layer_1" xmlns="http://www.w3.org/2000/svg" xmlns:xlink="http://www.w3.org/1999/xlink" x="0px" y="0px"
	 width="839.1px" height="192.836px" viewBox="0 0 839.1 192.836" enable-background="new 0 0 839.1 192.836" xml:space="preserve">
<path fill="#00A348" d="M163.931,192.836c-1.01-43.022-36.2-77.588-79.465-77.588S6.011,149.814,5.001,192.836H163.931z"/>
<path fill="#00A348" d="M790.803,192.836c-2.126-90.53-76.175-163.265-167.216-163.265c-91.041,0-165.09,72.735-167.216,163.265
	H790.803"/>
<path fill="#76C043" d="M634.463,192.836C631.952,85.909,544.491,0,436.96,0C329.429,0,241.968,85.909,239.457,192.836H634.463"/>
<path fill="#76C043" d="M313.16,192.836c-1.33-56.609-47.632-102.09-104.561-102.09c-56.928,0-103.231,45.481-104.56,102.09H313.16"
	/>
<path fill="#76C043" d="M834.099,192.836c-1.33-56.609-47.632-102.09-104.56-102.09c-56.928,0-103.231,45.481-104.561,102.09
	H834.099"/>
<path fill="#60BB46" d="M436.326,0.008c-75.586,0.238-141.177,42.917-174.19,105.46c29.906,17.855,50.152,50.215,51.025,87.368
	h123.165V0.008"/>
<path fill="#60BB46" d="M262.136,105.468c-13.825,26.191-21.939,55.869-22.679,87.368h73.703
	C312.288,155.683,292.042,123.323,262.136,105.468"/>
<path fill="#60BB46" d="M626.321,178.351c-0.772,4.729-1.228,9.566-1.343,14.485l0,0
	C625.094,187.916,625.549,183.08,626.321,178.351 M626.401,177.873c-0.027,0.159-0.053,0.318-0.079,0.477
	C626.348,178.191,626.374,178.032,626.401,177.873 M626.427,177.715c-0.009,0.053-0.017,0.103-0.026,0.156
	C626.41,177.819,626.418,177.768,626.427,177.715 M626.454,177.558c-0.009,0.05-0.016,0.095-0.025,0.145
	C626.438,177.653,626.446,177.608,626.454,177.558 M626.482,177.399c-0.008,0.046-0.016,0.09-0.023,0.136
	C626.466,177.489,626.473,177.446,626.482,177.399 M626.509,177.242c-0.008,0.043-0.015,0.088-0.023,0.131
	C626.494,177.327,626.501,177.288,626.509,177.242 M626.536,177.084c-0.007,0.043-0.014,0.081-0.022,0.124
	C626.522,177.168,626.529,177.123,626.536,177.084 M626.564,176.926c-0.007,0.04-0.014,0.078-0.021,0.117
	C626.551,177.004,626.557,176.966,626.564,176.926 M626.592,176.768c-0.006,0.036-0.013,0.074-0.02,0.11
	C626.579,176.842,626.586,176.805,626.592,176.768 M626.621,176.609c-0.007,0.036-0.013,0.073-0.02,0.109
	C626.608,176.682,626.615,176.646,626.621,176.609 M626.65,176.452c-0.007,0.036-0.013,0.072-0.02,0.109
	C626.637,176.524,626.643,176.489,626.65,176.452 M626.679,176.294c-0.007,0.036-0.012,0.067-0.019,0.103
	C626.666,176.364,626.673,176.327,626.679,176.294 M626.707,176.138c-0.005,0.03-0.013,0.068-0.018,0.098
	C626.695,176.203,626.701,176.171,626.707,176.138 M626.737,175.98c-0.005,0.026-0.011,0.061-0.016,0.088
	C626.726,176.038,626.731,176.01,626.737,175.98 M626.766,175.824c-0.005,0.026-0.01,0.055-0.015,0.082
	C626.757,175.876,626.761,175.853,626.766,175.824 M626.796,175.666c-0.004,0.023-0.01,0.052-0.014,0.075
	C626.787,175.715,626.791,175.692,626.796,175.666 M626.826,175.508c-0.004,0.023-0.01,0.052-0.014,0.075
	C626.817,175.557,626.821,175.535,626.826,175.508 M626.856,175.353c-0.004,0.02-0.008,0.044-0.012,0.064
	C626.848,175.397,626.852,175.372,626.856,175.353 M626.887,175.196c-0.004,0.02-0.007,0.037-0.011,0.056
	C626.879,175.236,626.883,175.213,626.887,175.196 M626.917,175.039c-0.003,0.016-0.006,0.033-0.01,0.049
	C626.911,175.072,626.914,175.056,626.917,175.039 M626.949,174.882c-0.003,0.016-0.007,0.034-0.01,0.05
	C626.942,174.915,626.945,174.898,626.949,174.882 M626.979,174.728c-0.003,0.013-0.004,0.02-0.006,0.033
	C626.975,174.747,626.977,174.741,626.979,174.728 M627.011,174.57c-0.003,0.013-0.004,0.019-0.006,0.032
	C627.006,174.592,627.009,174.58,627.011,174.57 M627.042,174.415c-0.001,0.007-0.003,0.016-0.005,0.022
	C627.04,174.427,627.04,174.425,627.042,174.415 M627.074,174.259c-0.001,0.003-0.002,0.012-0.003,0.015
	C627.072,174.271,627.073,174.262,627.074,174.259"/>
<path fill="#60BB46" d="M729.283,90.753c-50.43,0.122-92.473,35.927-102.208,83.506c-0.001,0.003-0.002,0.012-0.003,0.015
	c-0.01,0.049-0.019,0.092-0.029,0.141c-0.002,0.01-0.002,0.012-0.005,0.022c-0.009,0.043-0.018,0.091-0.027,0.134
	c-0.002,0.01-0.004,0.022-0.006,0.032c-0.008,0.039-0.017,0.086-0.025,0.125c-0.003,0.013-0.004,0.02-0.006,0.033
	c-0.008,0.039-0.016,0.082-0.024,0.121c-0.003,0.016-0.007,0.034-0.01,0.05c-0.007,0.036-0.014,0.072-0.021,0.108
	c-0.003,0.016-0.006,0.033-0.01,0.049c-0.007,0.036-0.014,0.071-0.021,0.107c-0.003,0.016-0.008,0.04-0.011,0.056
	c-0.006,0.033-0.013,0.068-0.02,0.1c-0.004,0.02-0.008,0.044-0.012,0.064c-0.006,0.033-0.011,0.059-0.018,0.092
	c-0.005,0.026-0.009,0.049-0.014,0.075c-0.006,0.03-0.01,0.052-0.016,0.082c-0.005,0.026-0.009,0.049-0.014,0.075
	c-0.006,0.03-0.01,0.053-0.016,0.083c-0.006,0.03-0.01,0.052-0.015,0.082c-0.005,0.026-0.009,0.048-0.014,0.075
	c-0.005,0.03-0.011,0.058-0.016,0.088c-0.005,0.026-0.008,0.044-0.013,0.07c-0.006,0.033-0.012,0.065-0.018,0.098
	c-0.004,0.02-0.007,0.038-0.011,0.058c-0.006,0.033-0.013,0.07-0.019,0.103c-0.003,0.016-0.007,0.039-0.01,0.055
	c-0.007,0.036-0.013,0.072-0.02,0.109c-0.003,0.016-0.006,0.032-0.009,0.048c-0.007,0.036-0.013,0.072-0.02,0.109
	c-0.003,0.016-0.006,0.034-0.009,0.05c-0.006,0.036-0.013,0.074-0.02,0.11c-0.003,0.016-0.005,0.031-0.008,0.048
	c-0.007,0.04-0.014,0.078-0.021,0.117c-0.002,0.013-0.005,0.027-0.007,0.04c-0.007,0.04-0.015,0.084-0.022,0.124
	c-0.002,0.01-0.004,0.024-0.006,0.034c-0.008,0.046-0.015,0.085-0.023,0.131c-0.002,0.01-0.003,0.017-0.005,0.026
	c-0.008,0.046-0.016,0.09-0.023,0.136c-0.001,0.007-0.003,0.016-0.004,0.023c-0.009,0.05-0.016,0.095-0.025,0.145
	c-0.001,0.003-0.002,0.01-0.002,0.013c-0.009,0.053-0.017,0.103-0.026,0.156l0,0.001c-0.027,0.159-0.053,0.318-0.079,0.477l0,0
	c-0.772,4.729-1.228,9.565-1.343,14.485h104.304V90.753"/>
</svg>
