<?xml version="1.0" encoding="utf-8"?>
<!-- Generator: Adobe Illustrator 17.0.0, SVG Export Plug-In . SVG Version: 6.00 Build 0)  -->
<!DOCTYPE svg PUBLIC "-//W3C//DTD SVG 1.1//EN" "http://www.w3.org/Graphics/SVG/1.1/DTD/svg11.dtd">
<svg version="1.1" id="Layer_1" xmlns="http://www.w3.org/2000/svg" xmlns:xlink="http://www.w3.org/1999/xlink" x="0px" y="0px"
	 width="405.42px" height="109.51px" viewBox="5 0 405.42 109.51" enable-background="new 5 0 405.42 109.51" xml:space="preserve">
<path fill="#00A348" d="M361.87,109.51c-0.69-29.47-24.8-53.15-54.43-53.15c-29.64,0-53.74,23.68-54.43,53.15H361.87"/>
<path fill="#00A348" d="M204.27,109.51c-0.95-40.44-34.03-72.93-74.7-72.93s-73.75,32.49-74.7,72.93H204.27"/>
<path fill="#76C043" d="M329.76,109.51C328.33,48.79,278.66,0,217.59,0S106.86,48.79,105.43,109.51H329.76"/>
<path fill="#76C043" d="M114.91,109.51c-0.7-29.75-25.04-53.66-54.96-53.66S5.7,79.76,5,109.51H114.91"/>
<path fill="#76C043" d="M410.42,109.51c-0.52-22.08-18.58-39.82-40.79-39.82c-22.21,0-40.27,17.74-40.79,39.82H410.42"/>
<path fill="#60BB46" d="M217.59,0C164.9,0,120.7,36.32,108.65,85.29c3.82,7.27,6.06,15.49,6.26,24.22h102.81V0L217.59,0L217.59,0"/>
<path fill="#60BB46" d="M108.65,85.29c-1.92,7.79-3.02,15.89-3.22,24.22h9.48C114.7,100.79,112.46,92.56,108.65,85.29L108.65,85.29"
	/>
<path fill="#60BB46" d="M328.84,109.45c0,0.02,0,0.04,0,0.06l0,0C328.84,109.49,328.84,109.47,328.84,109.45 M328.85,109.32
	c0,0.04,0,0.09,0,0.13C328.84,109.41,328.85,109.36,328.85,109.32 M328.85,109.13c0,0.01,0,0.01,0,0.02
	C328.85,109.14,328.85,109.13,328.85,109.13 M328.86,109.06c0,0.01,0,0.01,0,0.02C328.85,109.07,328.85,109.07,328.86,109.06
	 M328.86,109c0,0,0,0.01,0,0.01C328.86,109.01,328.86,109,328.86,109 M328.86,108.93c0,0.01,0,0.01,0,0.02
	C328.86,108.95,328.86,108.94,328.86,108.93 M328.86,108.81C328.86,108.81,328.86,108.81,328.86,108.81L328.86,108.81
	 M328.87,108.74c0,0,0,0.01,0,0.01C328.87,108.75,328.87,108.75,328.87,108.74 M328.87,108.68c0,0.01,0,0.01,0,0.02
	C328.87,108.69,328.87,108.68,328.87,108.68 M328.87,108.61c0,0.01,0,0.01,0,0.02C328.87,108.63,328.87,108.62,328.87,108.61
	 M328.88,108.55C328.88,108.55,328.88,108.55,328.88,108.55C328.88,108.55,328.88,108.55,328.88,108.55 M328.88,108.49
	C328.88,108.49,328.88,108.49,328.88,108.49C328.88,108.49,328.88,108.49,328.88,108.49 M328.88,108.42c0,0.01,0,0.01,0,0.02
	C328.88,108.43,328.88,108.43,328.88,108.42 M328.89,108.36c0,0.01,0,0.01,0,0.02C328.88,108.37,328.89,108.36,328.89,108.36
	 M328.89,108.29c0,0,0,0.01,0,0.01C328.89,108.3,328.89,108.3,328.89,108.29 M328.89,108.23
	C328.89,108.23,328.89,108.24,328.89,108.23C328.89,108.24,328.89,108.23,328.89,108.23 M328.9,108.17
	C328.9,108.17,328.9,108.17,328.9,108.17C328.9,108.17,328.9,108.17,328.9,108.17 M328.9,108.1
	C328.9,108.1,328.9,108.11,328.9,108.1C328.9,108.11,328.9,108.1,328.9,108.1 M328.9,108.04c0,0,0,0.01,0,0.01
	C328.9,108.04,328.9,108.04,328.9,108.04 M328.91,107.97C328.91,107.97,328.91,107.98,328.91,107.97
	C328.91,107.98,328.91,107.98,328.91,107.97 M328.91,107.91c0,0,0,0.01,0,0.01C328.91,107.92,328.91,107.91,328.91,107.91
	 M328.91,107.85C328.91,107.85,328.91,107.85,328.91,107.85C328.91,107.85,328.91,107.85,328.91,107.85 M328.92,107.78
	C328.92,107.78,328.92,107.79,328.92,107.78C328.92,107.79,328.92,107.78,328.92,107.78 M328.93,107.65
	C328.93,107.66,328.93,107.66,328.93,107.65C328.93,107.66,328.93,107.66,328.93,107.65 M328.93,107.59
	C328.93,107.59,328.93,107.59,328.93,107.59C328.93,107.59,328.93,107.59,328.93,107.59 M328.94,107.53
	C328.94,107.53,328.94,107.53,328.94,107.53C328.94,107.53,328.94,107.53,328.94,107.53"/>
<path fill="#60BB46" d="M369.43,69.7c-21.45,0.1-38.98,16.75-40.49,37.83c0,0,0,0,0,0.01c0,0.02,0,0.04,0,0.06c0,0,0,0,0,0
	c0,0.02,0,0.04,0,0.06c0,0,0,0,0,0c0,0.04-0.01,0.08-0.01,0.12c0,0,0,0,0,0.01c0,0.02,0,0.04,0,0.06c0,0,0,0.01,0,0.01
	c0,0.02,0,0.04,0,0.05c0,0,0,0.01,0,0.01c0,0.02,0,0.03,0,0.05c0,0,0,0,0,0.01c0,0.02,0,0.04,0,0.06c0,0,0,0.01,0,0.01
	c0,0.02,0,0.03,0,0.05c0,0,0,0.01,0,0.01c0,0.02,0,0.04,0,0.06c0,0,0,0,0,0c0,0.02,0,0.04,0,0.06c0,0,0,0.01,0,0.01
	c0,0.02,0,0.04,0,0.05c0,0,0,0.01,0,0.01c0,0.02,0,0.03,0,0.05c0,0.01,0,0.01,0,0.02c0,0.02,0,0.03,0,0.05c0,0.01,0,0.01,0,0.02
	c0,0.02,0,0.03,0,0.05c0,0,0,0.01,0,0.01c0,0.02,0,0.04,0,0.06c0,0,0,0,0,0.01c0,0.02,0,0.04,0,0.06c0,0.01,0,0.01,0,0.02
	c0,0.01,0,0.03,0,0.04c0,0.01,0,0.01,0,0.02c0,0.02,0,0.03,0,0.05c0,0,0,0.01,0,0.01c0,0.02,0,0.04,0,0.05v0c0,0.04,0,0.08,0,0.13
	c0,0.01,0,0.01,0,0.02c0,0.01,0,0.03,0,0.04c0,0,0,0.01,0,0.01c0,0.02,0,0.03,0,0.05c0,0.01,0,0.01,0,0.02c0,0.02,0,0.03,0,0.05
	c0,0.01,0,0.01,0,0.02c0,0.06,0,0.12-0.01,0.18c0,0.04,0,0.09,0,0.13v0c0,0.02,0,0.04,0,0.06h40.59L369.43,69.7"/>
<path fill="#D5E9C3" d="M5,109.43c0,0.03,0,0.06,0,0.09l0,0C5,109.49,5,109.46,5,109.43 M5,109.34c0,0.01,0,0.03,0,0.04
	C5,109.37,5,109.36,5,109.34 M5,109.26c0,0.01,0,0.02,0,0.03C5,109.28,5,109.27,5,109.26 M5.01,109.17c0,0.01,0,0.03,0,0.04
	C5.01,109.19,5.01,109.18,5.01,109.17 M5.01,109.08c0,0.01,0,0.03,0,0.05C5.01,109.11,5.01,109.1,5.01,109.08 M5.01,109
	c0,0.01,0,0.03,0,0.04C5.01,109.02,5.01,109.01,5.01,109 M5.01,108.91c0,0.01,0,0.02,0,0.03C5.01,108.93,5.01,108.92,5.01,108.91
	 M5.02,108.82c0,0.01,0,0.02,0,0.03C5.02,108.84,5.02,108.83,5.02,108.82 M5.02,108.74c0,0.01,0,0.02,0,0.03
	C5.02,108.76,5.02,108.75,5.02,108.74 M5.02,108.65c0,0.01,0,0.02,0,0.03C5.02,108.67,5.02,108.66,5.02,108.65 M5.03,108.57
	c0,0.01,0,0.02,0,0.03C5.03,108.58,5.03,108.58,5.03,108.57 M5.03,108.48c0,0.01,0,0.02,0,0.03C5.03,108.5,5.03,108.49,5.03,108.48
	 M5.03,108.39c0,0.01,0,0.02,0,0.03C5.03,108.41,5.03,108.4,5.03,108.39 M5.04,108.31c0,0.01,0,0.02,0,0.03
	C5.04,108.32,5.04,108.32,5.04,108.31 M5.04,108.22c0,0.01,0,0.02,0,0.02C5.04,108.24,5.04,108.23,5.04,108.22 M5.05,108.14
	c0,0.01,0,0.01,0,0.02C5.05,108.15,5.05,108.14,5.05,108.14 M5.05,108.05c0,0.01,0,0.02,0,0.03C5.05,108.07,5.05,108.06,5.05,108.05
	 M5.06,107.97c0,0.01,0,0.01,0,0.02C5.05,107.98,5.05,107.97,5.06,107.97 M5.06,107.88c0,0.01,0,0.01,0,0.02
	C5.06,107.89,5.06,107.89,5.06,107.88 M5.06,107.79c0,0.01,0,0.01,0,0.02C5.06,107.81,5.06,107.8,5.06,107.79 M5.07,107.71
	c0,0.01,0,0.01,0,0.02C5.07,107.72,5.07,107.72,5.07,107.71 M5.07,107.62c0,0.01,0,0.01,0,0.02C5.07,107.64,5.07,107.63,5.07,107.62
	 M5.08,107.54c0,0.01,0,0.01,0,0.02C5.08,107.55,5.08,107.54,5.08,107.54 M5.08,107.45c0,0.01,0,0.01,0,0.01
	C5.08,107.46,5.08,107.46,5.08,107.45 M5.09,107.37c0,0,0,0.01,0,0.01C5.09,107.38,5.09,107.37,5.09,107.37 M5.09,107.29
	C5.09,107.29,5.09,107.29,5.09,107.29C5.09,107.29,5.09,107.29,5.09,107.29 M5.1,107.2C5.1,107.2,5.1,107.2,5.1,107.2
	C5.1,107.2,5.1,107.2,5.1,107.2 M5.1,107.12L5.1,107.12C5.1,107.12,5.1,107.12,5.1,107.12 M5.11,107.03
	C5.11,107.03,5.11,107.03,5.11,107.03C5.11,107.03,5.11,107.03,5.11,107.03 M5.12,106.86L5.12,106.86L5.12,106.86"/>
<path fill="#60BB46" d="M58.88,55.88C30.34,56.43,7.13,78.71,5.12,106.86v0c0,0.06-0.01,0.11-0.01,0.17c0,0,0,0,0,0
	c0,0.03,0,0.06-0.01,0.08c0,0,0,0,0,0c0,0.03,0,0.05-0.01,0.08c0,0,0,0,0,0.01c0,0.03,0,0.05,0,0.08c0,0,0,0,0,0.01
	c0,0.02,0,0.05,0,0.08c0,0,0,0.01,0,0.01c0,0.02,0,0.05,0,0.07c0,0,0,0.01,0,0.01c0,0.02,0,0.05,0,0.07c0,0,0,0.01,0,0.02
	c0,0.02,0,0.05,0,0.07c0,0,0,0.01,0,0.02c0,0.02,0,0.05,0,0.07c0,0.01,0,0.01,0,0.02c0,0.02,0,0.04,0,0.07c0,0.01,0,0.01,0,0.02
	c0,0.02,0,0.04,0,0.07c0,0.01,0,0.01,0,0.02c0,0.02,0,0.04,0,0.06c0,0.01,0,0.01,0,0.02c0,0.02,0,0.04,0,0.06c0,0.01,0,0.02,0,0.03
	c0,0.02,0,0.04,0,0.06c0,0.01,0,0.01,0,0.02c0,0.02,0,0.04,0,0.06c0,0.01,0,0.02,0,0.02c0,0.02,0,0.04,0,0.06c0,0.01,0,0.02,0,0.03
	c0,0.02,0,0.04,0,0.06c0,0.01,0,0.02,0,0.03c0,0.02,0,0.04,0,0.06c0,0.01,0,0.02,0,0.03c0,0.02,0,0.04,0,0.06c0,0.01,0,0.02,0,0.03
	c0,0.02,0,0.04,0,0.06c0,0.01,0,0.02,0,0.03c0,0.02,0,0.04,0,0.05c0,0.01,0,0.02,0,0.03c0,0.02,0,0.04,0,0.05c0,0.01,0,0.02,0,0.03
	c0,0.02,0,0.04,0,0.06c0,0.01,0,0.02,0,0.03c0,0.02,0,0.04,0,0.06c0,0.01,0,0.03,0,0.04c0,0.02,0,0.03,0,0.04c0,0.02,0,0.03,0,0.05
	c0,0.01,0,0.03,0,0.04c0,0.01,0,0.02,0,0.04c0,0.02,0,0.03,0,0.05c0,0.01,0,0.02,0,0.03c0,0.02,0,0.03,0,0.05c0,0.01,0,0.03,0,0.04
	c0,0.01,0,0.03,0,0.04c0,0.03,0,0.06,0,0.09h53.88L58.88,55.88"/>
</svg>
