<?xml version="1.0" encoding="utf-8"?>
<!-- Generator: Adobe Illustrator 17.0.0, SVG Export Plug-In . SVG Version: 6.00 Build 0)  -->
<!DOCTYPE svg PUBLIC "-//W3C//DTD SVG 1.1//EN" "http://www.w3.org/Graphics/SVG/1.1/DTD/svg11.dtd">
<svg version="1.1" id="Layer_1" xmlns="http://www.w3.org/2000/svg" xmlns:xlink="http://www.w3.org/1999/xlink" x="0px" y="0px"
	 width="51.7px" height="61.147px" viewBox="0 0 51.7 61.147" enable-background="new 0 0 51.7 61.147" xml:space="preserve">
<polygon fill="#010101" fill-opacity="0" points="51.7,58.317 27.23,61.147 2.76,58.317 27.23,55.497 "/>
<path fill="#F6851F" d="M50.826,26.602c0,14.02-11.365,25.385-25.384,25.385S0.058,40.622,0.058,26.602
	c0-14.019,11.365-25.384,25.384-25.384S50.826,12.583,50.826,26.602"/>
<path fill="#FEE100" d="M50.768,25.384c0,14.02-11.365,25.385-25.383,25.385C11.365,50.769,0,39.404,0,25.384
	C0,11.366,11.365,0,25.385,0C39.404,0,50.768,11.366,50.768,25.384"/>
<path fill="#F9A61C" d="M18.689,50.888c0.09,0.025,0.181,0.049,0.273,0.072v-0.781c-0.091-0.023-0.182-0.049-0.273-0.073V50.888z
	 M24.014,51.757c0.09,0.005,0.181,0.009,0.273,0.014v-0.796c-0.091-0.004-0.182-0.007-0.273-0.012V51.757z M21.351,51.468
	c0.091,0.015,0.181,0.03,0.272,0.045v-0.79c-0.091-0.013-0.181-0.028-0.272-0.042V51.468z M13.365,48.745
	c0.091,0.049,0.181,0.095,0.273,0.144v-0.767c-0.091-0.048-0.182-0.095-0.273-0.143V48.745z M10.703,47.082
	c0.09,0.064,0.181,0.126,0.272,0.19v-0.757c-0.091-0.063-0.182-0.124-0.272-0.189V47.082z M0.326,30.102v-0.419
	c-0.091-0.562-0.162-1.131-0.215-1.705C0.153,28.694,0.224,29.403,0.326,30.102 M5.378,41.963c0.089,0.115,0.18,0.229,0.272,0.343
	v-0.725c-0.091-0.113-0.183-0.226-0.272-0.34V41.963z M2.716,37.73c0.089,0.177,0.18,0.354,0.273,0.529v-0.687
	c-0.092-0.173-0.183-0.347-0.273-0.522V37.73z M8.04,44.893c0.09,0.085,0.18,0.17,0.273,0.253v-0.743
	c-0.092-0.084-0.182-0.169-0.273-0.253V44.893z M16.027,49.993c0.091,0.036,0.182,0.071,0.272,0.106v-0.775
	c-0.09-0.034-0.181-0.069-0.272-0.104V49.993z M26.676,51.767c0.091-0.004,0.181-0.01,0.272-0.015v-0.801
	c-0.091,0.005-0.181,0.012-0.272,0.017V51.767z M39.988,47.218c0.091-0.064,0.181-0.128,0.272-0.192v-0.84
	c-0.09,0.065-0.18,0.131-0.272,0.194V47.218z M42.649,45.074c0.091-0.084,0.182-0.168,0.272-0.253v-0.853
	c-0.089,0.086-0.181,0.171-0.272,0.254V45.074z M47.974,38.113c0.092-0.178,0.184-0.358,0.272-0.538V36.66
	c-0.088,0.183-0.179,0.365-0.272,0.545V38.113z M50.762,24.622c0.004,0.191,0.007,0.381,0.007,0.574
	c0,0.069-0.002,0.139-0.002,0.209c0,0.07,0.002,0.14,0.002,0.211c0,0.88-0.045,1.75-0.132,2.606v1.306
	c0.125-1.022,0.19-2.06,0.19-3.115C50.826,25.811,50.803,25.215,50.762,24.622 M45.312,42.21c0.092-0.115,0.182-0.231,0.272-0.348
	v-0.874c-0.09,0.119-0.18,0.236-0.272,0.353V42.21z M37.325,48.848c0.091-0.049,0.181-0.096,0.272-0.146v-0.83
	c-0.091,0.05-0.181,0.098-0.272,0.148V48.848z M29.338,51.5c0.091-0.014,0.182-0.03,0.273-0.045v-0.807
	c-0.09,0.015-0.181,0.03-0.273,0.045V51.5z M32,50.941c0.091-0.024,0.182-0.049,0.272-0.073v-0.813
	c-0.09,0.025-0.181,0.049-0.272,0.072V50.941z M34.663,50.07c0.091-0.035,0.181-0.071,0.272-0.108V49.14
	c-0.091,0.036-0.18,0.074-0.272,0.111V50.07z"/>
<path fill="#FDE900" d="M25.175,0.006C11.253,0.119,0,11.435,0,25.384c0,13.949,11.253,25.267,25.175,25.379V0.006z"/>
<path fill="#F9A91A" d="M44.624,25.384h-0.401c0,5.203-2.108,9.91-5.517,13.321c-3.41,3.41-8.118,5.517-13.32,5.517
	c-5.204,0-9.911-2.108-13.321-5.517c-3.41-3.411-5.517-8.117-5.517-13.321c0-5.203,2.108-9.91,5.517-13.321
	c3.41-3.409,8.117-5.517,13.321-5.517c5.202,0,9.91,2.108,13.32,5.517c3.41,3.411,5.517,8.117,5.517,13.321L44.624,25.384l0.4,0
	c0-10.846-8.793-19.639-19.639-19.639c-10.847,0-19.64,8.793-19.64,19.639c0,10.847,8.793,19.64,19.64,19.64
	c10.846,0,19.639-8.793,19.639-19.64C45.023,25.384,44.624,25.384,44.624,25.384z"/>
<path fill="#BE6928" d="M24.211,34.18c-1.079-0.132-2.119-0.402-3.123-0.808c-0.95-0.386-1.933-0.591-2.727-1.178
	c-0.044-0.032,0.023-0.344-0.019-0.376l1.939-2.837c0.68,0.514,1.341,0.942,1.978,1.282c0.638,0.34,1.33,0.584,2.077,0.734v-3.956
	c-0.895-0.248-1.678-0.521-2.35-0.82c-0.672-0.298-1.227-0.655-1.667-1.07c-0.441-0.414-0.771-0.899-0.996-1.456
	c-0.224-0.555-0.336-1.197-0.336-1.927v-0.05c0-0.697,0.126-1.327,0.373-1.892c0.249-0.564,0.601-1.053,1.059-1.468
	c0.456-0.414,1.005-0.75,1.653-1.007c0.646-0.257,1.358-0.427,2.139-0.51v-1.444h2.587v1.494c0.895,0.132,1.719,0.352,2.474,0.658
	c0.755,0.308,1.471,0.701,2.152,1.182l-0.011,0.387l-1.654,2.523c-0.498-0.332-1.004-0.626-1.519-0.882
	c-0.515-0.257-1.036-0.453-1.567-0.585v3.755c1.891,0.515,3.263,1.186,4.117,2.015c0.855,0.829,1.281,1.94,1.281,3.333v0.05
	c0,0.696-0.129,1.327-0.385,1.891c-0.258,0.563-0.614,1.052-1.069,1.468c-0.458,0.414-1.008,0.754-1.654,1.019
	c-0.647,0.266-1.368,0.44-2.164,0.522v2.462h-2.587L24.211,34.18L24.211,34.18z M24.334,19.952
	c-0.597,0.083-1.032,0.261-1.306,0.535c-0.273,0.275-0.411,0.609-0.411,1.008v0.05c0,0.381,0.115,0.708,0.347,0.982
	c0.233,0.274,0.689,0.535,1.368,0.784L24.334,19.952L24.334,19.952z M26.673,31.12c1.178-0.182,1.767-0.712,1.767-1.591v-0.051
	c0-0.43-0.125-0.783-0.374-1.057c-0.25-0.273-0.713-0.534-1.393-0.783V31.12z"/>
<path fill="#F9A91A" d="M24.211,34.544c-1.079-0.133-2.119-0.402-3.123-0.808c-1.002-0.407-1.919-0.925-2.747-1.554l1.939-2.837
	c0.68,0.515,1.341,0.942,1.978,1.282c0.638,0.34,1.33,0.584,2.077,0.734v-3.956c-0.895-0.249-1.678-0.521-2.35-0.82
	c-0.672-0.298-1.227-0.655-1.667-1.069c-0.441-0.414-0.771-0.9-0.996-1.456c-0.224-0.555-0.336-1.198-0.336-1.928v-0.05
	c0-0.696,0.126-1.326,0.373-1.891c0.249-0.564,0.601-1.053,1.059-1.468c0.456-0.414,1.005-0.751,1.653-1.007
	c0.646-0.257,1.358-0.427,2.139-0.51v-1.444h2.587v1.493c0.895,0.132,1.719,0.352,2.474,0.658c0.755,0.308,1.471,0.702,2.152,1.183
	l-1.666,2.91c-0.498-0.332-1.004-0.626-1.519-0.882c-0.515-0.257-1.036-0.453-1.567-0.585v3.756
	c1.891,0.514,3.263,1.186,4.117,2.014c0.855,0.83,1.281,1.942,1.281,3.334v0.05c0,0.697-0.129,1.327-0.385,1.891
	c-0.258,0.564-0.614,1.052-1.069,1.468c-0.458,0.414-1.008,0.754-1.654,1.019c-0.647,0.266-1.368,0.44-2.164,0.522v2.462h-2.587
	C24.211,37.056,24.211,34.544,24.211,34.544z M24.334,20.316c-0.597,0.083-1.032,0.261-1.306,0.534
	c-0.273,0.275-0.411,0.61-0.411,1.008v0.05c0,0.381,0.115,0.708,0.347,0.981c0.233,0.275,0.689,0.536,1.368,0.785L24.334,20.316
	L24.334,20.316z M26.673,31.484c1.178-0.182,1.767-0.712,1.767-1.591v-0.051c0-0.43-0.125-0.783-0.374-1.057
	c-0.25-0.273-0.713-0.534-1.393-0.783V31.484z"/>
</svg>
