<?xml version="1.0" encoding="utf-8"?>
<!-- Generator: Adobe Illustrator 17.0.0, SVG Export Plug-In . SVG Version: 6.00 Build 0)  -->
<!DOCTYPE svg PUBLIC "-//W3C//DTD SVG 1.1//EN" "http://www.w3.org/Graphics/SVG/1.1/DTD/svg11.dtd">
<svg version="1.1" id="Layer_1" xmlns="http://www.w3.org/2000/svg" xmlns:xlink="http://www.w3.org/1999/xlink" x="0px" y="0px"
	 width="79.63px" height="81.93px" viewBox="5 0 79.63 81.93" enable-background="new 5 0 79.63 81.93" xml:space="preserve">
<polygon opacity="0" points="69.29,79.1 44.82,81.93 20.35,79.1 44.82,76.28 "/>
<path fill="#F5841F" d="M69.5,42.1c0,13.48-10.92,24.39-24.39,24.39S20.71,55.57,20.71,42.1S31.63,17.7,45.1,17.7
	S69.5,28.63,69.5,42.1"/>
<path fill="#FFE100" d="M69.44,40.94c0,13.48-10.92,24.39-24.39,24.39S20.66,54.41,20.66,40.94s10.92-24.39,24.39-24.39
	C58.53,16.54,69.44,27.46,69.44,40.94"/>
<path fill="#FFED96" d="M69.43,40.2v0.18c0.04,0.54,0.05,1.09,0.05,1.64c0-0.03,0-0.05,0-0.09C69.5,41.34,69.47,40.76,69.43,40.2"/>
<path fill="#FCB216" d="M43.73,65.51v0.77l0.26,0.01v-0.77L43.73,65.51 M46.56,65.51l-0.26,0.01v0.77l0.26-0.01V65.51 M41.17,65.24
	v0.75l0.26,0.04v-0.75L41.17,65.24 M49.12,65.21l-0.26,0.04v0.78l0.26-0.04V65.21 M38.61,64.69v0.75l0.26,0.07v-0.75L38.61,64.69
	 M51.67,64.63l-0.26,0.07v0.78l0.26-0.07V64.63 M36.06,63.84v0.74l0.26,0.11v-0.74L36.06,63.84 M54.23,63.76l-0.26,0.11v0.79
	l0.26-0.11V63.76 M33.5,62.64v0.74l0.26,0.13v-0.74L33.5,62.64 M56.79,62.54l-0.26,0.13v0.79l0.26-0.13V62.54 M30.94,61.05v0.73
	l0.26,0.19v-0.73L30.94,61.05 M59.35,60.92l-0.26,0.19v0.81l0.26-0.19V60.92 M28.38,58.96v0.71l0.26,0.24v-0.71L28.38,58.96
	 M61.9,58.79l-0.26,0.24v0.82l0.26-0.24V58.79 M25.83,56.16v0.7l0.26,0.34v-0.7L25.83,56.16 M64.46,55.92l-0.26,0.34v0.83l0.26-0.34
	V55.92 M23.27,52.14v0.66l0.26,0.51v-0.66L23.27,52.14 M67.02,51.76l-0.26,0.53v0.88l0.26-0.51V51.76 M20.76,43.43
	c0.04,0.69,0.11,1.37,0.2,2.05v-0.4C20.89,44.52,20.82,43.98,20.76,43.43 M69.44,40.37v0.38v0.04c0,0.04,0,0.09,0,0.15
	c0,0.05,0,0.11,0,0.16v0.05c0,0.85-0.04,1.68-0.12,2.5v1.25c0.12-0.96,0.18-1.93,0.19-2.89C69.5,41.46,69.47,40.91,69.44,40.37"/>
<path fill="#FFE100" d="M69.44,40.79v0.16v0.15c0-0.05,0-0.11,0-0.16S69.44,40.84,69.44,40.79"/>
<path fill="#F5841F" d="M63.53,40.94h-0.38c0,4.99-2.03,9.52-5.3,12.8c-3.28,3.27-7.79,5.3-12.8,5.3c-4.99,0-9.52-2.03-12.8-5.3
	c-3.27-3.28-5.3-7.79-5.3-12.8s2.03-9.52,5.3-12.8c3.28-3.27,7.79-5.3,12.8-5.3c4.99,0,9.52,2.03,12.8,5.3
	c3.27,3.28,5.3,7.79,5.3,12.8L63.53,40.94l0.39,0c0-10.42-8.45-18.87-18.87-18.87s-18.87,8.45-18.87,18.87s8.45,18.87,18.87,18.87
	s18.87-8.45,18.87-18.87H63.53"/>
<path fill="#FCB216" d="M34.36,37.73v-1.12h0.69c0.31,0,0.58,0.23,0.58,0.54c0,0.32-0.26,0.58-0.58,0.58H34.36 M35.11,35.55h-1.75
	l-0.13,0.13v4.82l0.13,0.13h0.86l0.13-0.13V38.8h0.77c0.89,0,1.63-0.74,1.63-1.64C36.74,36.28,36.02,35.55,35.11,35.55"/>
<path fill="#FCB216" d="M39.76,39.55c-0.79,0-1.45-0.66-1.45-1.45c0-0.81,0.66-1.47,1.45-1.47c0.81,0,1.45,0.66,1.45,1.47
	C41.21,38.89,40.55,39.55,39.76,39.55 M39.76,35.47c-1.45,0-2.61,1.17-2.61,2.63c0,1.45,1.16,2.61,2.61,2.61
	c1.45,0,2.63-1.16,2.63-2.61C42.37,36.64,41.21,35.47,39.76,35.47"/>
<polyline fill="#FCB216" points="45.48,35.47 45.35,35.47 45.22,35.55 44.09,38.12 44.07,38.12 43.45,35.65 43.31,35.55 
	42.46,35.55 42.33,35.73 43.7,40.61 43.84,40.71 43.95,40.71 44.08,40.63 45.4,37.65 45.43,37.65 46.76,40.63 46.88,40.71 
	46.99,40.71 47.12,40.61 48.5,35.73 48.37,35.55 47.51,35.55 47.39,35.65 46.76,38.12 46.73,38.12 45.6,35.55 45.48,35.47 "/>
<polyline fill="#FCB216" points="52.13,35.55 49.13,35.55 48.98,35.69 48.98,40.51 49.13,40.64 52.13,40.64 52.28,40.51 
	52.28,39.71 52.13,39.58 50.12,39.58 50.12,38.6 51.78,38.6 51.92,38.45 51.92,37.65 51.78,37.52 50.12,37.52 50.12,36.62 
	52.13,36.62 52.28,36.48 52.28,35.69 52.13,35.55 "/>
<path fill="#FCB216" d="M54.1,37.72v-1.13h1.08c0.3,0,0.55,0.24,0.55,0.55c0,0.31-0.26,0.58-0.55,0.58H54.1 M55.27,35.55h-2.18
	l-0.13,0.13v4.82l0.13,0.13h0.86l0.13-0.13v-1.86h0.5l0.97,1.93l0.12,0.07h0.97l0.12-0.22l-1-1.84c0.63-0.26,1.08-0.79,1.08-1.47
	C56.86,36.25,56.14,35.55,55.27,35.55"/>
<path fill="#FCB216" d="M45.02,42.14h-1.2l-0.19,0.19v3.93c0,0.67-0.51,1.23-1.21,1.23c-0.69,0-1.2-0.54-1.2-1.23v-3.93l-0.19-0.19
	h-1.17l-0.19,0.19v4c0,1.47,1.23,2.69,2.75,2.69c1.53,0,2.77-1.23,2.77-2.69v-4L45.02,42.14"/>
<path fill="#FCB216" d="M47.5,45.04v-1.48h0.92c0.42,0,0.77,0.31,0.77,0.71c0,0.43-0.35,0.77-0.77,0.77H47.5 M48.51,42.14h-2.34
	l-0.19,0.19v6.42l0.19,0.19h1.14l0.19-0.19v-2.28h1.02c1.18,0,2.17-0.98,2.17-2.18C50.68,43.11,49.69,42.14,48.51,42.14"/>
<path fill="#F5841F" d="M33.23,35.41l0.13-0.13h1.75c0.89,0,1.63,0.73,1.63,1.62c0,0.9-0.74,1.64-1.63,1.64h-0.77v1.71l-0.13,0.13
	h-0.86l-0.13-0.13C33.23,40.21,33.23,35.41,33.23,35.41z M35.06,37.44c0.31,0,0.58-0.24,0.58-0.58c0-0.31-0.26-0.54-0.58-0.54h-0.69
	v1.12H35.06z"/>
<path fill="#F5841F" d="M39.76,35.19c1.45,0,2.63,1.17,2.63,2.63c0,1.45-1.17,2.61-2.63,2.61c-1.45,0-2.61-1.16-2.61-2.61
	C37.15,36.36,38.31,35.19,39.76,35.19z M39.76,39.27c0.81,0,1.45-0.66,1.45-1.45c0-0.81-0.66-1.47-1.45-1.47
	c-0.79,0-1.45,0.66-1.45,1.47C38.32,38.61,38.96,39.27,39.76,39.27z"/>
<polygon fill="#F5841F" points="42.33,35.43 42.46,35.26 43.31,35.26 43.45,35.36 44.08,37.83 44.11,37.83 45.22,35.27 45.36,35.19 
	45.48,35.19 45.61,35.27 46.73,37.83 46.77,37.83 47.39,35.36 47.53,35.26 48.37,35.26 48.51,35.43 47.14,40.32 47,40.43 
	46.88,40.43 46.76,40.35 45.43,37.37 45.4,37.37 44.08,40.35 43.96,40.43 43.84,40.43 43.72,40.32 "/>
<polygon fill="#F5841F" points="48.99,35.41 49.13,35.26 52.14,35.26 52.28,35.41 52.28,36.19 52.14,36.33 50.12,36.33 50.12,37.24 
	51.78,37.24 51.93,37.37 51.93,38.16 51.78,38.3 50.12,38.3 50.12,39.28 52.14,39.28 52.28,39.42 52.28,40.21 52.14,40.36 
	49.13,40.36 48.99,40.21 "/>
<path fill="#F5841F" d="M52.97,35.41l0.13-0.13h2.18c0.88,0,1.59,0.7,1.59,1.58c0,0.67-0.44,1.21-1.08,1.47l1,1.84l-0.12,0.22H55.7
	l-0.12-0.07l-0.97-1.93h-0.5v1.86l-0.13,0.13h-0.86l-0.13-0.13v-4.83H52.97z M55.19,37.44c0.3,0,0.55-0.28,0.55-0.58
	c0-0.3-0.26-0.55-0.55-0.55h-1.08v1.13H55.19z"/>
<path fill="#F5841F" d="M39.69,42.03l0.19-0.19h1.2l0.19,0.19v3.93c0,0.67,0.5,1.23,1.2,1.23s1.21-0.54,1.21-1.23v-3.93l0.19-0.19
	h1.2l0.19,0.19v4c0,1.47-1.24,2.69-2.77,2.69c-1.52,0-2.75-1.23-2.75-2.69L39.69,42.03L39.69,42.03z"/>
<path fill="#F5841F" d="M45.99,42.03l0.19-0.19h2.34c1.2,0,2.17,0.97,2.17,2.14c0,1.2-0.98,2.18-2.17,2.18H47.5v2.28l-0.19,0.19
	h-1.14l-0.19-0.19L45.99,42.03L45.99,42.03z M48.43,44.76c0.42,0,0.77-0.34,0.77-0.77c0-0.4-0.35-0.71-0.77-0.71h-0.92v1.48H48.43
	L48.43,44.76z"/>
<path fill="#FFE100" d="M29.35,18.09l-8.1-11.05L20.6,7.51l8.33,10.9L29.35,18.09z M39.29,13.48L36.43,0.2l-0.78,0.19l3.11,13.21
	L39.29,13.48z M22.14,26.29l-11.97-6.87l-0.39,0.7l12.1,6.64L22.14,26.29z M67.63,6.42l-7.57,10.92l0.44,0.31l7.78-10.77L67.63,6.42
	z M52.67,0.07L52.28,0L49.8,13.19l0.53,0.09l2.75-13.13L52.67,0.07z M68.06,25.83l11.39-6.64l-0.4-0.69l-11.25,6.87L68.06,25.83z
	 M71.57,36.41L84.63,35l-0.11-0.79l-13.03,1.67L71.57,36.41z M18.85,36.66L5.07,35.27l-0.01,0.12l-0.03,0.27L5,36.06l13.81,1.12
	L18.85,36.66z"/>
</svg>
