<?xml version="1.0" encoding="utf-8"?>
<!-- Generator: Adobe Illustrator 17.0.0, SVG Export Plug-In . SVG Version: 6.00 Build 0)  -->
<!DOCTYPE svg PUBLIC "-//W3C//DTD SVG 1.1//EN" "http://www.w3.org/Graphics/SVG/1.1/DTD/svg11.dtd">
<svg version="1.1" id="Layer_1" xmlns="http://www.w3.org/2000/svg" xmlns:xlink="http://www.w3.org/1999/xlink" x="0px" y="0px"
	 width="43.02px" height="76.65px" viewBox="0 0 43.02 76.65" enable-background="new 0 0 43.02 76.65" xml:space="preserve">
<polygon opacity="0.2" enable-background="new    " points="40.05,74.48 21.27,76.65 2.47,74.48 21.27,72.3 "/>
<path fill="#FFE100" d="M4.47,35.1c-2.37,3.38-3.76,7.49-3.76,11.92c0,11.48,9.31,20.8,20.8,20.8s20.8-9.31,20.8-20.8
	c0-4.44-1.39-8.54-3.76-11.92H4.47"/>
<path fill="#F5841F" d="M6.12,61.03c1.16,1.27,2.47,2.4,3.91,3.35h22.94c1.44-0.95,2.75-2.08,3.91-3.35H6.12"/>
<path fill="#F5841F" d="M0.71,47.03c0,0.86,0.05,1.73,0.16,2.56h41.28c0.11-0.84,0.16-1.7,0.16-2.56c0-0.26,0-0.53-0.01-0.79H0.72
	C0.72,46.5,0.71,46.77,0.71,47.03"/>
<path fill="#F5841F" d="M1.78,53.64c0.39,1.17,0.89,2.29,1.46,3.35h36.53c0.58-1.07,1.07-2.18,1.46-3.35H1.78"/>
<path fill="#F5841F" d="M2.39,38.85c-0.46,1.07-0.83,2.19-1.11,3.35h40.46c-0.27-1.16-0.65-2.28-1.11-3.35H2.39"/>
<path fill="#F5841F" d="M37.98,0.29c0.39-0.39,1-0.39,1.39,0s0.39,1,0,1.39L23.67,17.39c-0.39,0.39-1,0.39-1.39,0
	c-0.39-0.39-0.39-1,0-1.39L37.98,0.29z"/>
<circle fill="#F5841F" cx="21.99" cy="17.67" r="5.65"/>
<path fill="#FFE100" d="M23.99,24.17c0,1.12-0.91,2.03-2.03,2.03c-1.12,0-2.03-0.91-2.03-2.03c0-1.12,2.03-4.93,2.03-4.93
	S23.99,23.06,23.99,24.17z"/>
<path fill="#FFC30D" d="M38.55,35.1H21.83v3.75h18.79c0.46,1.07,0.83,2.19,1.11,3.35C41.13,39.62,40.03,37.21,38.55,35.1"/>
<path fill="#FFC30D" d="M42.31,47.03c0,0.02,0,0.05,0,0.08C42.31,47.08,42.31,47.06,42.31,47.03 M41.75,42.2H21.83v4.04h20.46
	c0.01,0.26,0.01,0.53,0.01,0.79l0,0C42.31,45.37,42.11,43.75,41.75,42.2"/>
<path fill="#F5841F" d="M42.31,47.18L42.31,47.18L42.31,47.18L42.31,47.18 M42.31,47.14c0,0.01,0,0.02,0,0.03
	C42.31,47.16,42.31,47.15,42.31,47.14"/>
<path fill="#FFC30D" d="M42.31,47.13c0,0.02,0,0.04,0,0.06c0,0,0,0,0-0.01v-0.01C42.31,47.16,42.31,47.15,42.31,47.13L42.31,47.13"
	/>
<path fill="#F5841F" d="M41.56,52.55L41.56,52.55L41.56,52.55 M41.6,52.43L41.6,52.43L41.6,52.43 M41.63,52.3
	C41.63,52.3,41.63,52.31,41.63,52.3C41.63,52.31,41.63,52.3,41.63,52.3 M41.66,52.18L41.66,52.18L41.66,52.18 M41.68,52.12
	C41.68,52.12,41.68,52.13,41.68,52.12C41.68,52.13,41.68,52.12,41.68,52.12 M41.69,52.05v0.01C41.69,52.06,41.69,52.06,41.69,52.05
	 M41.71,52L41.71,52L41.71,52 M41.73,51.93v0.01V51.93 M41.75,51.87v0.01C41.74,51.88,41.74,51.87,41.75,51.87 M41.76,51.8
	c0,0,0,0.01,0,0.02C41.76,51.81,41.76,51.81,41.76,51.8 M41.77,51.74c0,0,0,0.01,0,0.02C41.77,51.75,41.77,51.75,41.77,51.74
	 M41.79,51.67c0,0.01,0,0.01,0,0.02C41.78,51.7,41.78,51.68,41.79,51.67 M41.8,51.62c0,0.01,0,0.01,0,0.02
	C41.8,51.63,41.8,51.62,41.8,51.62 M41.81,51.56c0,0.01,0,0.01,0,0.02C41.81,51.57,41.81,51.57,41.81,51.56 M41.82,51.49
	c0,0.01,0,0.01,0,0.02C41.82,51.5,41.82,51.5,41.82,51.49 M41.84,51.43c0,0.01,0,0.01,0,0.02C41.83,51.45,41.84,51.44,41.84,51.43
	 M41.86,51.36c0,0.01,0,0.01,0,0.02C41.86,51.38,41.86,51.37,41.86,51.36 M41.87,51.31c0,0.01,0,0.01,0,0.02
	C41.87,51.32,41.87,51.31,41.87,51.31 M41.88,51.24c0,0.01,0,0.01,0,0.02C41.88,51.25,41.88,51.24,41.88,51.24 M41.9,51.18
	c0,0.01,0,0.02,0,0.02C41.89,51.19,41.9,51.18,41.9,51.18 M41.91,51.11c0,0.01,0,0.02,0,0.02C41.91,51.12,41.91,51.12,41.91,51.11
	 M41.92,51.05c0,0.01,0,0.02,0,0.02S41.92,51.06,41.92,51.05 M41.93,50.98c0,0.01,0,0.02,0,0.02S41.93,50.99,41.93,50.98
	 M41.94,50.92c0,0.01,0,0.02,0,0.03C41.94,50.94,41.94,50.93,41.94,50.92 M41.95,50.85c0,0.01,0,0.02,0,0.03
	C41.95,50.87,41.95,50.86,41.95,50.85 M41.96,50.79c0,0.01,0,0.02,0,0.03C41.96,50.81,41.96,50.8,41.96,50.79 M41.97,50.73
	c0,0.01,0,0.02,0,0.03C41.97,50.74,41.97,50.73,41.97,50.73 M42,50.66c0,0.01,0,0.02,0,0.03C41.98,50.68,41.98,50.67,42,50.66
	 M42.01,50.6c0,0.01,0,0.02,0,0.03C42,50.63,42,50.62,42.01,50.6 M42.02,50.54c0,0.01,0,0.02,0,0.03
	C42.01,50.56,42.01,50.55,42.02,50.54 M42.03,50.47c0,0.01,0,0.02,0,0.03C42.02,50.5,42.02,50.49,42.03,50.47 M42.04,50.41
	c0,0.01,0,0.02,0,0.03C42.03,50.43,42.03,50.42,42.04,50.41 M42.05,50.35c0,0.01,0,0.02,0,0.03C42.04,50.37,42.04,50.36,42.05,50.35
	 M42.05,50.28c0,0.01,0,0.02,0,0.03C42.05,50.3,42.05,50.29,42.05,50.28 M42.06,50.22c0,0.01,0,0.02,0,0.03
	C42.06,50.24,42.06,50.23,42.06,50.22 M42.07,50.15c0,0.01,0,0.02,0,0.03C42.07,50.17,42.07,50.16,42.07,50.15 M42.08,50.09
	c0,0.01,0,0.02,0,0.03C42.08,50.11,42.08,50.1,42.08,50.09 M42.09,50.02c0,0.01,0,0.02,0,0.03C42.09,50.04,42.09,50.03,42.09,50.02
	 M42.1,49.96c0,0.01,0,0.02,0,0.03C42.1,49.98,42.1,49.97,42.1,49.96 M42.11,49.89c0,0.01,0,0.02,0,0.03
	C42.11,49.91,42.11,49.9,42.11,49.89 M42.13,49.83c0,0.01,0,0.02,0,0.03C42.11,49.85,42.11,49.84,42.13,49.83 M42.13,49.76
	c0,0.01,0,0.02,0,0.03C42.13,49.78,42.13,49.77,42.13,49.76 M42.14,49.7c0,0.01,0,0.02,0,0.03C42.14,49.72,42.14,49.71,42.14,49.7
	 M42.15,49.63c0,0.01,0,0.02,0,0.03C42.15,49.65,42.15,49.64,42.15,49.63 M42.16,49.57c0,0.01,0,0.02,0,0.03
	C42.15,49.59,42.16,49.58,42.16,49.57 M42.16,49.5c0,0.01,0,0.02,0,0.03C42.16,49.52,42.16,49.51,42.16,49.5 M42.17,49.44
	c0,0.01,0,0.02,0,0.03C42.17,49.46,42.17,49.45,42.17,49.44 M42.18,49.37c0,0.01,0,0.02,0,0.03C42.18,49.39,42.18,49.38,42.18,49.37
	 M42.19,49.31c0,0.01,0,0.02,0,0.03C42.18,49.33,42.18,49.32,42.19,49.31 M42.19,49.24c0,0.01,0,0.02,0,0.03
	C42.19,49.27,42.19,49.25,42.19,49.24 M42.2,49.18c0,0.01,0,0.02,0,0.03C42.19,49.2,42.2,49.19,42.2,49.18 M42.2,49.11
	c0,0.01,0,0.02,0,0.03C42.2,49.14,42.2,49.12,42.2,49.11 M42.21,49.05c0,0.01,0,0.02,0,0.03C42.21,49.07,42.21,49.06,42.21,49.05
	 M42.21,48.98c0,0.01,0,0.02,0,0.03C42.21,49.01,42.21,49,42.21,48.98 M42.22,48.92c0,0.01,0,0.02,0,0.03
	C42.22,48.94,42.22,48.93,42.22,48.92 M42.23,48.85c0,0.01,0,0.02,0,0.03C42.22,48.88,42.22,48.87,42.23,48.85 M42.23,48.79
	c0,0.01,0,0.02,0,0.03C42.23,48.81,42.23,48.8,42.23,48.79 M42.24,48.73c0,0.01,0,0.02,0,0.03C42.23,48.75,42.23,48.74,42.24,48.73
	 M42.24,48.65c0,0.01,0,0.02,0,0.03C42.24,48.68,42.24,48.67,42.24,48.65 M42.24,48.58c0,0.01,0,0.02,0,0.03
	C42.24,48.62,42.24,48.6,42.24,48.58 M42.26,48.52c0,0.01,0,0.02,0,0.03C42.26,48.55,42.26,48.53,42.26,48.52 M42.26,48.46
	c0,0.01,0,0.02,0,0.03C42.26,48.48,42.26,48.47,42.26,48.46 M42.27,48.39c0,0.01,0,0.02,0,0.03C42.27,48.41,42.27,48.4,42.27,48.39
	 M42.27,48.33c0,0.01,0,0.02,0,0.03C42.27,48.35,42.27,48.34,42.27,48.33 M42.28,48.26c0,0.01,0,0.02,0,0.03
	C42.27,48.28,42.27,48.27,42.28,48.26 M42.28,48.2c0,0.01,0,0.02,0,0.03C42.28,48.22,42.28,48.21,42.28,48.2 M42.28,48.13
	c0,0.01,0,0.02,0,0.03C42.28,48.15,42.28,48.14,42.28,48.13 M42.29,48.06c0,0.01,0,0.02,0,0.03C42.28,48.09,42.28,48.08,42.29,48.06
	 M42.29,48c0,0.01,0,0.02,0,0.03C42.29,48.02,42.29,48.01,42.29,48 M42.29,47.93c0,0.01,0,0.02,0,0.03
	C42.29,47.96,42.29,47.94,42.29,47.93 M42.29,47.86c0,0.01,0,0.02,0,0.03C42.29,47.88,42.29,47.87,42.29,47.86 M42.3,47.8
	c0,0.01,0,0.02,0,0.03C42.29,47.82,42.3,47.81,42.3,47.8 M42.3,47.73c0,0.01,0,0.02,0,0.03C42.3,47.75,42.3,47.74,42.3,47.73
	 M42.3,47.67c0,0.01,0,0.02,0,0.03C42.3,47.69,42.3,47.68,42.3,47.67 M42.3,47.59c0,0.01,0,0.02,0,0.03
	C42.3,47.62,42.3,47.6,42.3,47.59 M42.3,47.53c0,0.01,0,0.02,0,0.04C42.3,47.55,42.3,47.54,42.3,47.53 M42.3,47.46
	c0,0.01,0,0.02,0,0.04C42.3,47.48,42.3,47.47,42.3,47.46 M42.31,47.39c0,0.01,0,0.03,0,0.04C42.31,47.42,42.31,47.41,42.31,47.39
	 M42.31,47.32c0,0.01,0,0.03,0,0.05C42.31,47.35,42.31,47.33,42.31,47.32 M42.31,47.23c0,0.02,0,0.04,0,0.06
	C42.31,47.28,42.31,47.26,42.31,47.23 M42.31,47.2L42.31,47.2c0,0.01,0,0.02,0,0.03C42.31,47.22,42.31,47.21,42.31,47.2"/>
<path fill="#FFC30D" d="M34.79,63.04c-0.57,0.48-1.18,0.93-1.8,1.34H21.84v3.45C26.76,67.75,31.26,65.96,34.79,63.04 M34.83,62.99
	C34.82,63,34.82,63,34.81,63.02C34.82,63.02,34.82,63,34.83,62.99 M42.31,47.2c-0.01,0.81-0.06,1.61-0.16,2.39H21.83v4.04h19.4l0,0
	c-0.39,1.17-0.89,2.29-1.46,3.35H21.83v4.04h15.06c2.17-2.39,3.79-5.27,4.68-8.48l0,0c0.01-0.04,0.02-0.08,0.03-0.12l0,0
	c0.01-0.04,0.02-0.08,0.03-0.12l0,0c0.01-0.04,0.02-0.08,0.03-0.12v-0.01c0-0.01,0.01-0.03,0.01-0.05v-0.01
	c0-0.01,0.01-0.03,0.01-0.04v-0.01c0-0.01,0.01-0.03,0.01-0.05c0,0,0,0,0-0.01s0.01-0.03,0.01-0.04v-0.01
	c0-0.01,0.01-0.03,0.01-0.04v-0.01c0-0.01,0.01-0.03,0.01-0.04c0,0,0-0.01,0-0.02c0-0.01,0.01-0.03,0.01-0.04c0,0,0-0.01,0-0.02
	c0-0.01,0.01-0.03,0.01-0.04c0-0.01,0-0.01,0-0.02c0-0.01,0-0.02,0.01-0.04c0-0.01,0-0.01,0-0.02c0-0.01,0-0.02,0.01-0.04
	c0-0.01,0-0.01,0-0.02c0-0.01,0-0.02,0.01-0.04c0-0.01,0-0.01,0-0.02c0-0.01,0-0.02,0.01-0.04c0-0.01,0-0.01,0-0.02
	s0-0.02,0.01-0.03c0-0.01,0-0.01,0-0.02c0-0.01,0-0.02,0.01-0.04c0-0.01,0-0.01,0-0.02c0-0.01,0-0.02,0.01-0.04
	c0-0.01,0-0.01,0-0.02c0-0.01,0-0.02,0.01-0.03c0-0.01,0-0.02,0-0.02c0-0.01,0-0.02,0.01-0.03c0-0.01,0-0.02,0-0.02
	c0-0.01,0-0.02,0.01-0.03c0-0.01,0-0.02,0-0.02c0-0.01,0-0.02,0.01-0.03c0-0.01,0-0.02,0-0.02c0-0.01,0-0.02,0.01-0.03
	c0-0.01,0-0.02,0-0.03s0-0.02,0-0.03s0-0.02,0-0.03s0-0.02,0.01-0.03c0-0.01,0-0.02,0-0.03s0-0.02,0-0.03s0-0.02,0-0.03
	s0-0.02,0-0.03s0-0.02,0-0.03c0-0.01,0-0.02,0-0.03s0-0.02,0-0.03s0-0.02,0-0.03s0-0.02,0-0.03s0-0.02,0-0.03s0-0.02,0-0.03
	s0-0.02,0-0.03s0-0.02,0-0.03s0-0.02,0-0.03s0-0.02,0-0.03s0-0.02,0-0.03s0-0.02,0-0.03s0-0.02,0-0.03s0-0.02,0-0.03
	c0-0.01,0-0.02,0-0.03s0-0.02,0-0.03s0-0.02,0-0.03s0-0.02,0-0.03s0-0.02,0-0.03c0-0.01,0-0.02,0-0.03s0-0.02,0-0.03s0-0.02,0-0.03
	s0-0.02,0-0.03s0-0.02,0-0.03s0-0.02,0-0.03s0-0.02,0-0.03s0-0.02,0-0.03s0-0.02,0-0.03s0-0.02,0-0.03s0-0.02,0-0.03s0-0.02,0-0.03
	s0-0.02,0-0.03s0-0.02,0-0.03c0-0.01,0-0.02,0-0.03s0-0.02,0-0.03s0-0.02,0-0.03s0-0.02,0-0.03s0-0.02,0-0.03s0-0.02,0-0.03
	s0-0.02,0-0.03s0-0.02,0-0.03s0-0.02,0-0.03s0-0.02,0-0.03s0-0.02,0-0.03s0-0.02,0-0.03s0-0.02,0-0.03s0-0.02,0-0.03
	c0-0.01,0-0.02,0-0.03s0-0.02,0-0.03s0-0.02,0-0.03s0-0.02,0-0.03s0-0.02,0-0.03c0-0.01,0-0.02,0-0.03s0-0.02,0-0.03s0-0.02,0-0.03
	s0-0.02,0-0.03s0-0.02,0-0.03s0-0.02,0-0.03s0-0.02,0-0.03s0-0.02,0-0.03s0-0.02,0-0.03s0-0.02,0-0.03s0-0.02,0-0.03s0-0.02,0-0.03
	s0-0.02,0-0.03s0-0.02,0-0.03c0-0.01,0-0.02,0-0.03s0-0.02,0-0.03s0-0.02,0-0.03s0-0.02,0-0.03s0-0.02,0-0.03s0-0.02,0-0.03
	s0-0.02,0-0.03s0-0.02,0-0.03s0-0.02,0-0.03s0-0.02,0-0.03s0-0.02,0-0.03s0-0.02,0-0.03s0-0.02,0-0.03s0-0.02,0-0.03
	c0-0.01,0-0.02,0-0.03s0-0.02,0-0.03s0-0.02,0-0.03s0-0.02,0-0.03s0-0.02,0-0.03c0-0.01,0-0.02,0-0.03s0-0.02,0-0.03s0-0.02,0-0.03
	s0-0.02,0-0.03s0-0.02,0-0.03s0-0.02,0-0.03s0-0.02,0-0.03s0-0.02,0-0.03s0-0.02,0-0.03s0-0.02,0-0.03s0-0.02,0-0.04
	c0-0.01,0-0.02,0-0.02c0-0.01,0-0.02,0-0.04c0-0.01,0-0.02,0-0.02c0-0.01,0-0.03,0-0.04c0-0.01,0-0.01,0-0.02c0-0.01,0-0.03,0-0.05
	v-0.01c0-0.02,0-0.04,0-0.06l0,0C42.31,47.22,42.31,47.21,42.31,47.2"/>
<path fill="#F47721" d="M36.9,61.03H21.83v3.35h11.15c0.63-0.41,1.23-0.86,1.8-1.34c0.01-0.01,0.01-0.01,0.02-0.02
	c0.01-0.01,0.01-0.01,0.02-0.02C35.57,62.39,36.25,61.73,36.9,61.03"/>
<path fill="#F47721" d="M42.29,46.24H21.83v3.35h20.32c0.1-0.79,0.15-1.58,0.16-2.39l0,0v-0.01l0,0c0-0.02,0-0.04,0-0.06
	c0-0.01,0-0.01,0-0.02c0-0.02,0-0.05,0-0.08l0,0C42.31,46.77,42.3,46.5,42.29,46.24"/>
<path fill="#F47721" d="M41.24,53.64H21.83v3.35h17.94C40.35,55.92,40.85,54.81,41.24,53.64"/>
<path fill="#F47721" d="M40.63,38.85H21.84v3.35h19.91l0,0l0,0C41.47,41.05,41.09,39.92,40.63,38.85"/>
<polygon fill="#F5841F" points="41.02,35.8 2,35.8 0,28.7 43.02,28.7 "/>
</svg>
