<?xml version="1.0" encoding="utf-8"?>
<!-- Generator: Adobe Illustrator 17.0.0, SVG Export Plug-In . SVG Version: 6.00 Build 0)  -->
<!DOCTYPE svg PUBLIC "-//W3C//DTD SVG 1.1//EN" "http://www.w3.org/Graphics/SVG/1.1/DTD/svg11.dtd">
<svg version="1.1" id="Layer_1" xmlns="http://www.w3.org/2000/svg" xmlns:xlink="http://www.w3.org/1999/xlink" x="0px" y="0px"
	 width="508.38px" height="103.64px" viewBox="0 0 508.38 103.64" enable-background="new 0 0 508.38 103.64" xml:space="preserve">
<polygon opacity="0.1" fill="#000000" points="474.92,0 446.46,16.9 446.46,70.36 426.14,70.36 426.14,33.8 386.5,20.28 347.8,33.8 347.8,70.36 
	341.57,70.36 341.57,65.34 301.92,51.82 263.23,65.34 263.23,90.69 249.75,90.69 249.75,27.04 216.11,27.04 216.11,90.69 
	203.85,90.69 203.85,16.9 175.39,0 146.93,16.9 146.93,90.69 130.76,90.69 130.76,27.04 75.87,27.04 75.87,77.73 59.9,77.73 
	59.9,51.82 5,51.82 5,103.64 38.84,103.64 38.84,103.64 93.74,103.64 93.74,103.64 130.76,103.64 130.76,103.64 146.93,103.64 
	169.48,103.64 197.14,103.64 203.85,103.64 216.11,103.64 216.11,103.64 249.75,103.64 249.75,103.64 263.23,103.64 289.19,103.64 
	317.01,103.64 341.57,103.64 347.8,103.64 426.14,103.64 446.46,103.64 456.36,103.64 503.38,103.64 503.38,16.9 "/>
</svg>
