<?xml version="1.0" encoding="utf-8"?>
<!-- Generator: Adobe Illustrator 17.1.0, SVG Export Plug-In . SVG Version: 6.00 Build 0)  -->
<!DOCTYPE svg PUBLIC "-//W3C//DTD SVG 1.1//EN" "http://www.w3.org/Graphics/SVG/1.1/DTD/svg11.dtd">
<svg version="1.1" id="Layer_1" xmlns="http://www.w3.org/2000/svg" xmlns:xlink="http://www.w3.org/1999/xlink" x="0px" y="0px"
	 width="106.04px" height="62.165px" viewBox="0 0 106.04 62.165" enable-background="new 0 0 106.04 62.165" xml:space="preserve">
<polygon fill="#009DA2" points="5.001,29.71 17.049,16.274 29.205,16.274 18.229,29.71 "/>
<path fill="#E2F4FD" d="M35.894,51.75c-0.037-5.14-4.213-9.296-9.362-9.296c-5.149,0-9.326,4.156-9.362,9.296H35.894z"/>
<path fill="#78CDD2" d="M35.894,51.746c-0.037,5.14-4.213,9.296-9.362,9.296c-5.149,0-9.326-4.156-9.362-9.296H35.894z"/>
<path fill="#929496" d="M34.978,51.818h-0.984c0,2.064-0.834,3.923-2.186,5.277c-1.354,1.352-3.213,2.185-5.277,2.186
	c-2.064,0-3.923-0.834-5.277-2.186c-1.352-1.354-2.185-3.213-2.186-5.277c0-2.064,0.834-3.923,2.186-5.277
	c1.354-1.352,3.213-2.185,5.277-2.186c2.064,0,3.923,0.834,5.277,2.186c1.352,1.354,2.185,3.213,2.186,5.277H34.978h0.984
	c0-2.601-1.057-4.964-2.762-6.668c-1.703-1.705-4.067-2.762-6.668-2.762c-2.601,0-4.964,1.057-6.668,2.762
	c-1.705,1.703-2.762,4.067-2.762,6.668c0,2.601,1.057,4.964,2.762,6.668c1.703,1.705,4.067,2.762,6.668,2.762
	c2.601,0,4.964-1.057,6.668-2.762c1.705-1.703,2.762-4.067,2.762-6.668H34.978z"/>
<path d="M35.896,51.818h-0.984c0,2.317-0.937,4.406-2.455,5.926c-1.52,1.518-3.609,2.454-5.926,2.455
	c-2.317,0-4.406-0.936-5.926-2.455c-1.518-1.52-2.454-3.609-2.455-5.926c0-2.317,0.936-4.406,2.455-5.926
	c1.52-1.518,3.609-2.454,5.926-2.455c2.317,0,4.406,0.936,5.926,2.455c1.518,1.52,2.454,3.609,2.455,5.926H35.896h0.984
	c0-2.854-1.16-5.447-3.031-7.317c-1.869-1.871-4.463-3.031-7.317-3.031c-2.854,0-5.447,1.16-7.317,3.031
	c-1.871,1.869-3.031,4.463-3.031,7.317c-0.001,2.854,1.16,5.447,3.031,7.317c1.869,1.871,4.463,3.031,7.317,3.031
	c2.854,0.001,5.447-1.16,7.317-3.031c1.871-1.869,3.031-4.463,3.031-7.317H35.896z"/>
<circle cx="26.532" cy="51.818" r="2.111"/>
<path fill="#E2F4FD" d="M76.864,51.75c-0.037-5.14-4.213-9.296-9.362-9.296s-9.326,4.156-9.362,9.296H76.864z"/>
<path fill="#78CDD2" d="M76.864,51.746c-0.037,5.14-4.213,9.296-9.362,9.296s-9.326-4.156-9.362-9.296H76.864z"/>
<path fill="#929496" d="M75.947,51.818h-0.984c0,2.064-0.834,3.923-2.186,5.277c-1.354,1.352-3.213,2.185-5.277,2.186
	c-2.064,0-3.923-0.834-5.277-2.186c-1.352-1.354-2.185-3.213-2.186-5.277c0-2.064,0.834-3.923,2.186-5.277
	c1.354-1.352,3.213-2.185,5.277-2.186c2.064,0,3.923,0.834,5.277,2.186c1.352,1.354,2.185,3.213,2.186,5.277H75.947h0.984
	c0-2.601-1.057-4.964-2.762-6.668c-1.703-1.705-4.067-2.762-6.668-2.762c-2.601,0-4.964,1.057-6.668,2.762
	c-1.705,1.703-2.762,4.067-2.762,6.668c0,2.601,1.057,4.964,2.762,6.668c1.703,1.705,4.067,2.762,6.668,2.762
	c2.601,0,4.964-1.057,6.668-2.762c1.705-1.703,2.762-4.067,2.762-6.668H75.947z"/>
<path d="M76.865,51.818h-0.984c0,2.317-0.936,4.406-2.455,5.926c-1.52,1.518-3.609,2.454-5.926,2.455
	c-2.317,0-4.406-0.936-5.926-2.455c-1.518-1.52-2.454-3.609-2.455-5.926c0-2.317,0.936-4.406,2.455-5.926
	c1.52-1.518,3.609-2.454,5.926-2.455c2.317,0,4.406,0.936,5.926,2.455c1.518,1.52,2.454,3.609,2.455,5.926H76.865h0.983
	c0.001-2.854-1.16-5.447-3.031-7.317c-1.869-1.871-4.463-3.031-7.317-3.031c-2.854,0-5.447,1.16-7.317,3.031
	c-1.871,1.869-3.031,4.463-3.031,7.317c0,2.854,1.16,5.447,3.031,7.317c1.869,1.871,4.463,3.031,7.317,3.031
	c2.854,0.001,5.447-1.16,7.317-3.031c1.871-1.869,3.031-4.463,3.031-7.317H76.865z"/>
<circle cx="67.501" cy="51.818" r="2.111"/>
<polygon fill="#009DA2" points="90.005,29.71 101.039,16.274 99.688,41.257 88.712,54.692 "/>
<polygon fill="#009DA2" points="69.536,13.436 80.513,0 87.994,16.274 77.018,29.71 "/>
<polygon fill="#008D91" points="82.83,14.354 78.337,14.354 79.411,18.557 81.221,18.243 "/>
<polygon fill="#DD3E3E" points="82.83,5.936 73.792,5.936 70.406,9.087 75.39,9.298 79.597,9.261 "/>
<polygon fill="#E55555" points="79.618,17.54 79.618,15.698 82.83,12.546 82.83,5.936 79.626,9.087 73.163,9.087 73.163,27.489 
	74.021,27.489 79.582,20.862 82.79,16.856 82.83,14.354 "/>
<path fill="#E55555" d="M78.469,16.754c-0.318,0-0.575-0.257-0.575-0.575s0.257-0.575,0.575-0.575h1.158V9.087h-9.22v18.402h3.667
	l5.551-6.745l0.002-3.99H78.469z"/>
<polygon fill="#DD3E3E" points="79.626,9.087 70.406,27.489 74.021,27.489 79.622,20.862 "/>
<ellipse transform="matrix(0.9993 0.037 -0.037 0.9993 0.5077 -2.9848)" fill="#FFFFFF" cx="80.818" cy="12.212" rx="0.502" ry="1.16"/>
<ellipse cx="80.818" cy="12.212" rx="0.118" ry="0.272"/>
<ellipse transform="matrix(0.9993 0.0371 -0.0371 0.9993 0.4721 -3.0328)" fill="#FFFFFF" cx="82.064" cy="11.223" rx="0.468" ry="1.082"/>
<ellipse cx="82.064" cy="11.223" rx="0.11" ry="0.254"/>
<polygon fill="#66A356" points="82.651,6.082 82.651,3.224 74.309,3.224 70.89,6.217 70.89,9.048 84.636,9.048 86.563,6.082 "/>
<polygon fill="#6A7D35" points="82.651,6.082 82.651,3.224 79.53,6.13 79.53,9.049 84.636,9.048 86.563,6.082 "/>
<polygon fill="#00B4BA" points="24.509,13.436 35.485,0 80.513,0 69.536,13.436 "/>
<polygon fill="#00B4BA" points="77.018,29.71 87.994,16.274 101.039,16.274 90.005,29.71 "/>
<path fill="#00AAB0" d="M77.018,29.71h12.987l-1.293,24.982h-8.721c0.241-1.028,0.354-2.109,0.312-3.228
	c-0.251-6.812-6.015-12.334-12.873-12.334c-6.858,0-12.214,5.522-11.963,12.334c0.041,1.119,0.23,2.2,0.551,3.228H38.617
	c0.241-1.028,0.354-2.109,0.312-3.228c-0.251-6.812-6.015-12.334-12.873-12.334c-6.858,0-12.214,5.522-11.962,12.334
	c0.041,1.119,0.234,2.2,0.551,3.228H5.923L5.001,29.71h13.227l6.28-16.274h45.028L77.018,29.71z"/>
<polygon fill="#009DA2" points="20.685,28.619 25.914,16.169 67.337,16.169 72.566,28.619 "/>
<rect x="46.512" y="15.272" fill="#00AAB0" width="2.644" height="14.086"/>
</svg>
