<?xml version="1.0" encoding="utf-8"?>
<!-- Generator: Adobe Illustrator 17.1.0, SVG Export Plug-In . SVG Version: 6.00 Build 0)  -->
<!DOCTYPE svg PUBLIC "-//W3C//DTD SVG 1.1//EN" "http://www.w3.org/Graphics/SVG/1.1/DTD/svg11.dtd">
<svg version="1.1" id="Layer_1" xmlns="http://www.w3.org/2000/svg" xmlns:xlink="http://www.w3.org/1999/xlink" x="0px" y="0px"
	 width="109.02px" height="62.165px" viewBox="0 0 109.02 62.165" enable-background="new 0 0 109.02 62.165" xml:space="preserve">
<path fill="#E2F4FD" d="M35.893,51.75c-0.037-5.14-4.213-9.296-9.362-9.296c-5.149,0-9.326,4.156-9.362,9.296H35.893z"/>
<path fill="#7AA8DA" d="M35.893,51.746c-0.037,5.14-4.213,9.296-9.362,9.296c-5.149,0-9.326-4.156-9.362-9.296H35.893z"/>
<path fill="#929496" d="M34.977,51.818h-0.984c0,2.064-0.834,3.923-2.186,5.277c-1.354,1.352-3.213,2.185-5.277,2.186
	c-2.064,0-3.923-0.834-5.277-2.186c-1.352-1.354-2.185-3.213-2.186-5.277c0-2.064,0.834-3.923,2.186-5.277
	c1.354-1.352,3.213-2.185,5.277-2.186c2.064,0,3.923,0.834,5.277,2.186c1.352,1.354,2.185,3.213,2.186,5.277H34.977h0.984
	c0.001-2.601-1.057-4.964-2.762-6.668c-1.703-1.705-4.067-2.762-6.668-2.762c-2.601,0-4.964,1.057-6.668,2.762
	c-1.705,1.703-2.762,4.067-2.762,6.668c-0.001,2.601,1.057,4.964,2.762,6.668c1.703,1.705,4.067,2.762,6.668,2.762
	c2.601,0,4.964-1.057,6.668-2.762c1.705-1.703,2.762-4.067,2.762-6.668H34.977z"/>
<path d="M35.895,51.818h-0.984c0,2.317-0.937,4.406-2.455,5.926c-1.52,1.518-3.609,2.454-5.926,2.455
	c-2.317,0-4.406-0.936-5.926-2.455c-1.518-1.52-2.454-3.609-2.455-5.926c0-2.317,0.936-4.406,2.455-5.926
	c1.52-1.518,3.609-2.454,5.926-2.455c2.317,0,4.406,0.936,5.926,2.455c1.518,1.52,2.454,3.609,2.455,5.926H35.895h0.984
	c0.001-2.854-1.16-5.447-3.031-7.317c-1.869-1.871-4.463-3.031-7.317-3.031c-2.854,0-5.447,1.16-7.317,3.031
	c-1.871,1.869-3.031,4.463-3.031,7.317c0,2.854,1.16,5.447,3.031,7.317c1.869,1.871,4.463,3.031,7.317,3.031
	c2.854,0.001,5.447-1.16,7.317-3.031c1.871-1.869,3.031-4.463,3.031-7.317H35.895z"/>
<circle cx="26.531" cy="51.818" r="2.111"/>
<path fill="#E2F4FD" d="M76.863,51.75c-0.037-5.14-4.213-9.296-9.362-9.296c-5.149,0-9.326,4.156-9.362,9.296H76.863z"/>
<path fill="#7AA8DA" d="M76.863,51.746c-0.037,5.14-4.213,9.296-9.362,9.296c-5.149,0-9.326-4.156-9.362-9.296H76.863z"/>
<path fill="#929496" d="M75.947,51.818h-0.984c-0.001,2.064-0.834,3.923-2.186,5.277c-1.354,1.352-3.213,2.185-5.277,2.186
	c-2.064,0-3.923-0.834-5.277-2.186c-1.352-1.354-2.185-3.213-2.186-5.277c0.001-2.064,0.834-3.923,2.186-5.277
	c1.354-1.352,3.213-2.185,5.277-2.186c2.064,0,3.923,0.834,5.277,2.186c1.352,1.354,2.185,3.213,2.186,5.277H75.947h0.984
	c0-2.601-1.057-4.964-2.762-6.668c-1.703-1.705-4.067-2.762-6.668-2.762c-2.601,0-4.964,1.057-6.668,2.762
	c-1.705,1.703-2.762,4.067-2.762,6.668c0,2.601,1.057,4.964,2.762,6.668c1.703,1.705,4.067,2.762,6.668,2.762
	c2.601,0,4.964-1.057,6.668-2.762c1.705-1.703,2.762-4.067,2.762-6.668H75.947z"/>
<path d="M76.865,51.818h-0.984c0,2.317-0.936,4.406-2.455,5.926c-1.52,1.518-3.609,2.454-5.926,2.455
	c-2.317,0-4.406-0.936-5.926-2.455c-1.518-1.52-2.454-3.609-2.455-5.926c0.001-2.317,0.937-4.406,2.455-5.926
	c1.52-1.518,3.609-2.454,5.926-2.455c2.317,0,4.406,0.936,5.926,2.455c1.518,1.52,2.454,3.609,2.455,5.926H76.865h0.984
	c0-2.854-1.16-5.447-3.031-7.317c-1.869-1.871-4.463-3.031-7.317-3.031c-2.854,0-5.447,1.16-7.317,3.031
	c-1.871,1.869-3.031,4.463-3.031,7.317c0,2.854,1.16,5.447,3.031,7.317c1.869,1.871,4.463,3.031,7.317,3.031
	c2.854,0.001,5.447-1.16,7.317-3.031c1.871-1.869,3.031-4.463,3.031-7.317H76.865z"/>
<circle cx="67.501" cy="51.818" r="2.111"/>
<polygon fill="#0061A3" points="92.985,29.71 104.019,16.274 99.688,41.257 88.711,54.692 "/>
<polygon fill="#0061A3" points="69.536,13.436 80.512,0 87.994,16.274 77.017,29.71 "/>
<polygon fill="#C08B2F" points="83.26,14.579 78.767,14.579 79.841,18.782 81.651,18.468 "/>
<polygon fill="#E0A63E" points="83.26,6.161 74.222,6.161 70.837,9.312 75.82,9.523 80.027,9.486 "/>
<polygon fill="#E8AF54" points="80.048,17.765 80.048,15.923 83.26,12.771 83.26,6.161 80.057,9.312 73.593,9.312 73.593,27.714 
	74.451,27.714 80.013,21.086 83.22,17.081 83.26,14.579 "/>
<path fill="#E8AF54" d="M78.899,16.979c-0.317,0-0.575-0.257-0.575-0.575c0-0.317,0.257-0.575,0.575-0.575h1.158V9.312h-9.22v18.402
	h3.667l5.551-6.745l0.002-3.99H78.899z"/>
<polygon fill="#E0A63E" points="80.057,9.312 70.837,27.714 74.451,27.714 80.052,21.086 "/>
<ellipse transform="matrix(0.9993 0.037 -0.037 0.9993 0.5164 -3.0008)" fill="#FFFFFF" cx="81.248" cy="12.437" rx="0.502" ry="1.16"/>
<ellipse cx="81.248" cy="12.437" rx="0.118" ry="0.272"/>
<ellipse transform="matrix(0.9993 0.0371 -0.0371 0.9993 0.4808 -3.0488)" fill="#FFFFFF" cx="82.494" cy="11.447" rx="0.468" ry="1.082"/>
<ellipse cx="82.494" cy="11.447" rx="0.11" ry="0.254"/>
<polygon fill="#007CC2" points="14.571,13.436 25.547,0 80.512,0 69.536,13.436 "/>
<polygon fill="#007CC2" points="77.017,29.71 87.994,16.274 104.019,16.274 92.985,29.71 "/>
<path fill="#0071BB" d="M77.017,29.71h15.968l-4.274,24.982H79.99c0.241-1.028,0.354-2.109,0.312-3.228
	c-0.251-6.812-6.015-12.334-12.873-12.334c-6.858,0-12.214,5.522-11.963,12.334c0.041,1.119,0.23,2.2,0.551,3.228H38.617
	c0.241-1.028,0.354-2.109,0.312-3.228c-0.251-6.812-6.015-12.334-12.873-12.334c-6.858,0-12.214,5.522-11.962,12.334
	c0.041,1.119,0.234,2.2,0.551,3.228h-2.779L5.001,38.569l3.29-8.859l6.28-16.274h54.965L77.017,29.71z"/>
<polygon fill="#0061A3" points="10.746,28.619 15.976,16.169 67.336,16.169 72.566,28.619 "/>
<rect x="46.512" y="15.272" fill="#0071BB" width="2.644" height="14.086"/>
</svg>
