<?xml version="1.0" encoding="utf-8"?>
<!-- Generator: Adobe Illustrator 17.0.0, SVG Export Plug-In . SVG Version: 6.00 Build 0)  -->
<!DOCTYPE svg PUBLIC "-//W3C//DTD SVG 1.1//EN" "http://www.w3.org/Graphics/SVG/1.1/DTD/svg11.dtd">
<svg version="1.1" id="Layer_1" xmlns="http://www.w3.org/2000/svg" xmlns:xlink="http://www.w3.org/1999/xlink" x="0px" y="0px"
	 width="52.22px" height="61.592px" viewBox="0 0 52.22 61.592" enable-background="new 0 0 52.22 61.592" xml:space="preserve">
<rect x="13.313" y="48.849" fill="#7B0046" width="6.501" height="12.743"/>
<rect x="21.872" y="48.849" fill="#7B0046" width="6.501" height="12.743"/>
<polygon fill="#630035" points="36.438,24.787 25.171,24.787 27.864,35.328 32.404,34.539 "/>
<path fill="#84826A" d="M31.395,26.135l0.113,0.003l0.695-0.83v-1.77l-0.808,0.616V26.135z M32.398,25.132l0.113,0.003l0.695-0.83
	v-1.77l-0.808,0.615V25.132z M33.36,22.189v1.981l0.113,0.003l0.695-0.83v-1.77L33.36,22.189z"/>
<path fill="#DFDAB1" d="M31.508,26.138l0.808-0.827v-1.77l-0.808,0.616V26.138z M32.511,25.135l0.808-0.827v-1.77l-0.808,0.616
	V25.135z M33.473,22.192v1.981l0.808-0.827v-1.77L33.473,22.192z"/>
<polygon fill="#3D9037" points="36.438,3.677 13.774,3.677 5.283,11.578 17.78,12.108 28.331,12.015 "/>
<polygon fill="#7B0046" points="28.383,32.778 28.383,28.158 36.438,20.253 36.438,3.677 28.405,11.578 12.196,11.578 
	12.196,57.726 28.394,57.726 36.438,50.615 36.438,24.787 "/>
<path fill="#7B0046" d="M25.502,30.806c-0.796,0-1.442-0.645-1.442-1.442s0.645-1.442,1.442-1.442h2.903V11.578H5.283v46.148h23.111
	l0.011-26.92H25.502z"/>
<polygon fill="#8D285D" points="28.405,11.578 5.283,57.726 28.394,57.726 "/>
<ellipse transform="matrix(0.9993 0.0371 -0.0371 0.9993 0.741 -1.15)" fill="#FFFFFF" cx="31.393" cy="19.416" rx="1.258" ry="2.91"/>
<ellipse transform="matrix(0.9993 0.0372 -0.0372 0.9993 0.7447 -1.1554)" cx="31.393" cy="19.416" rx="0.295" ry="0.682"/>
<ellipse transform="matrix(0.9993 0.037 -0.037 0.9993 0.6509 -1.2668)" fill="#FFFFFF" cx="34.517" cy="16.934" rx="1.173" ry="2.713"/>
<ellipse transform="matrix(0.9993 0.0371 -0.0371 0.9993 0.6512 -1.2673)" cx="34.517" cy="16.934" rx="0.275" ry="0.636"/>
<polygon fill="#E3D200" points="36.683,7.701 36.683,0 14.21,0 5,8.063 5,15.691 42.029,15.691 47.22,7.701 "/>
<polygon fill="#E0C200" points="36.683,7.701 36.683,0 28.276,7.828 28.276,15.693 42.029,15.691 47.22,7.701 "/>
</svg>
