<?xml version="1.0" encoding="utf-8"?>
<!-- Generator: Adobe Illustrator 17.0.0, SVG Export Plug-In . SVG Version: 6.00 Build 0)  -->
<!DOCTYPE svg PUBLIC "-//W3C//DTD SVG 1.1//EN" "http://www.w3.org/Graphics/SVG/1.1/DTD/svg11.dtd">
<svg version="1.1" id="Layer_1" xmlns="http://www.w3.org/2000/svg" xmlns:xlink="http://www.w3.org/1999/xlink" x="0px" y="0px"
	 width="41.68px" height="57.915px" viewBox="0 0 41.68 57.915" enable-background="new 0 0 41.68 57.915" xml:space="preserve">
<rect x="13.337" y="45.172" fill="#00A651" width="6.502" height="12.743"/>
<rect x="21.896" y="45.172" fill="#00A651" width="6.501" height="12.743"/>
<polygon fill="#256E27" points="36.437,21.11 25.169,21.11 27.863,31.651 32.403,30.862 "/>
<path fill="#84826A" d="M31.394,22.458l0.113,0.003l0.695-0.83v-1.77l-0.808,0.616V22.458z M32.397,21.455l0.113,0.003l0.695-0.83
	v-1.77l-0.808,0.615V21.455z M33.359,18.512v1.981l0.113,0.003l0.695-0.83v-1.77L33.359,18.512z"/>
<path fill="#DFDAB1" d="M31.507,22.461l0.808-0.827v-1.77l-0.808,0.616V22.461z M32.51,21.458l0.808-0.827v-1.77l-0.808,0.616
	V21.458z M33.471,18.515v1.981l0.808-0.827v-1.77L33.471,18.515z"/>
<polygon fill="#3D9037" points="36.437,0 13.772,0 5.282,7.901 17.779,8.431 28.329,8.338 "/>
<polygon fill="#00A651" points="28.382,29.101 28.382,24.481 36.437,16.576 36.437,0 28.404,7.901 12.195,7.901 12.195,54.049 
	28.393,54.049 36.437,46.938 36.437,21.11 "/>
<path fill="#00A651" d="M25.501,27.129c-0.796,0-1.442-0.645-1.442-1.442s0.645-1.442,1.442-1.442h2.903V7.901H5.282v46.148h23.111
	l0.011-26.92H25.501z"/>
<polygon fill="#3D9037" points="28.404,7.901 5.282,54.049 28.393,54.049 "/>
<ellipse transform="matrix(0.9993 0.0371 -0.0371 0.9993 0.6048 -1.1525)" fill="#FFFFFF" cx="31.392" cy="15.739" rx="1.258" ry="2.91"/>
<ellipse transform="matrix(0.9993 0.0372 -0.0372 0.9993 0.6078 -1.1579)" cx="31.392" cy="15.739" rx="0.295" ry="0.682"/>
<ellipse transform="matrix(0.9993 0.037 -0.037 0.9993 0.5147 -1.2694)" fill="#FFFFFF" cx="34.516" cy="13.257" rx="1.173" ry="2.713"/>
<ellipse transform="matrix(0.9993 0.0371 -0.0371 0.9993 0.515 -1.2701)" cx="34.516" cy="13.257" rx="0.275" ry="0.636"/>
<polygon fill="#E3D200" points="28.721,10.079 4.999,10.079 4.999,14.098 28.721,14.098 36.681,6.138 36.681,2.118 "/>
</svg>
