<?xml version="1.0" encoding="utf-8"?>
<!-- Generator: Adobe Illustrator 17.1.0, SVG Export Plug-In . SVG Version: 6.00 Build 0)  -->
<!DOCTYPE svg PUBLIC "-//W3C//DTD SVG 1.1//EN" "http://www.w3.org/Graphics/SVG/1.1/DTD/svg11.dtd">
<svg version="1.1" id="Layer_1" xmlns="http://www.w3.org/2000/svg" xmlns:xlink="http://www.w3.org/1999/xlink" x="0px" y="0px"
	 width="42.56px" height="41.244px" viewBox="0 0 42.56 41.244" enable-background="new 0 0 42.56 41.244" xml:space="preserve">
<polyline fill="#F2F2F3" points="4.999,35.772 8.284,41.244 37.561,41.244 33.488,35.772 4.999,35.772 "/>
<path fill="#3689C9" d="M33.228,7.468L30.726,36.94c0,0.259-0.214,0.508-0.605,0.738c-0.404,0.238-0.998,0.457-1.742,0.646
	c-0.1,0.026-0.202,0.051-0.307,0.075c-0.476,0.11-1.008,0.211-1.584,0.298c-0.09,0.014-0.182,0.028-0.275,0.041
	c-0.421,0.06-0.866,0.113-1.329,0.158c-0.093,0.01-0.187,0.018-0.282,0.026c-0.399,0.037-0.811,0.067-1.234,0.092
	c-0.107,0.007-0.216,0.012-0.324,0.018c-0.391,0.02-0.792,0.035-1.2,0.045l-0.249,0.005c-0.289,0.006-0.582,0.008-0.878,0.008
	c-0.179,0-0.356-0.001-0.532-0.002c-0.108-0.002-0.214-0.003-0.321-0.006c-0.476-0.008-0.943-0.024-1.398-0.046
	c-0.132-0.007-0.264-0.013-0.395-0.022c-0.389-0.023-0.768-0.05-1.137-0.083c-0.201-0.017-0.398-0.036-0.592-0.056
	c-0.374-0.039-0.736-0.083-1.082-0.131c-0.235-0.033-0.464-0.068-0.685-0.105c-0.444-0.075-0.858-0.156-1.237-0.245
	c-0.217-0.051-0.422-0.104-0.615-0.159c-0.51-0.145-0.936-0.305-1.263-0.475c-0.486-0.253-0.753-0.53-0.753-0.82L8.203,7.468H33.228
	"/>
<path fill="#3689C9" d="M33.228,7.468l-1.86,21.914l-0.432,5.095l-0.209,2.462c0,0.259-0.214,0.508-0.605,0.738
	c-0.404,0.238-0.998,0.457-1.742,0.646c-0.1,0.026-0.202,0.051-0.307,0.075c-0.476,0.11-1.008,0.211-1.584,0.298
	c-0.09,0.014-0.182,0.028-0.275,0.041c-0.421,0.06-0.866,0.113-1.329,0.158c-0.093,0.01-0.187,0.018-0.282,0.026
	c-0.399,0.037-0.811,0.067-1.234,0.092c-0.107,0.007-0.216,0.012-0.324,0.018c-0.391,0.02-0.792,0.035-1.2,0.045l-0.249,0.005
	c-0.289,0.006-0.582,0.008-0.878,0.008c-0.179,0-0.356-0.001-0.532-0.002c-0.108-0.002-0.214-0.003-0.321-0.006
	c-0.476-0.008-0.943-0.024-1.398-0.046c-0.132-0.007-0.264-0.013-0.395-0.022c-0.389-0.023-0.768-0.05-1.137-0.083
	c-0.201-0.017-0.398-0.036-0.592-0.056c-0.374-0.039-0.736-0.083-1.082-0.131c-0.235-0.033-0.464-0.068-0.685-0.105
	c-0.444-0.075-0.858-0.156-1.237-0.245c-0.217-0.051-0.422-0.104-0.615-0.159c-0.51-0.145-0.936-0.305-1.263-0.475
	c-0.486-0.253-0.753-0.53-0.753-0.82l-0.201-2.365L8.355,9.264L8.203,7.468H33.228"/>
<path fill="#165B92" d="M33.81,4.266v3.065c0,1.188-5.863,2.152-13.094,2.152c-7.232,0-13.095-0.964-13.095-2.152V4.266H33.81"/>
<path fill="#1D75BC" d="M33.81,4.266c0,1.188-5.863,2.151-13.094,2.151c-7.232,0-13.095-0.963-13.095-2.151
	c0-1.188,5.863-2.151,13.095-2.151C27.947,2.115,33.81,3.078,33.81,4.266"/>
<path fill="#6691CB" d="M20.716,2.815c-6.192,0-11.211,0.594-11.211,1.328c0,0.733,5.019,1.328,11.211,1.328
	c6.191,0,11.21-0.594,11.21-1.328C31.926,3.409,26.907,2.815,20.716,2.815"/>
<path fill="#165B92" d="M25.828,4.143H24.29l-0.613-2.118C23.478,1.453,22.94,1.07,22.335,1.07h-3.435
	c-0.63,0-1.185,0.415-1.363,1.019l-0.5,2.053H15.27l1.141-3.244C16.625,0.356,17.149,0,17.733,0h5.759
	c0.603,0,1.141,0.381,1.341,0.95L25.828,4.143z"/>
<path fill="#73A2D6" d="M8.355,9.264l2.35,27.676c0,0.29,0.268,0.567,0.753,0.82c0.327,0.17,0.753,0.33,1.263,0.475
	c0.193,0.055,0.398,0.108,0.615,0.159c0.379,0.089,0.793,0.171,1.237,0.245c0.221,0.037,0.45,0.072,0.685,0.105
	c0.346,0.048,0.708,0.092,1.082,0.131c0.194,0.021,0.391,0.039,0.592,0.056c0.368,0.033,0.747,0.061,1.137,0.083
	c0.13,0.008,0.263,0.015,0.395,0.022c0.456,0.022,0.922,0.038,1.398,0.046c0.107,0.003,0.213,0.004,0.321,0.006
	c0.176,0.002,0.353,0.002,0.532,0.002c0.296,0,0.589-0.002,0.878-0.008l0.249-0.005c0.408-0.01,0.809-0.025,1.2-0.045
	c0.109-0.006,0.217-0.011,0.324-0.018c0.423-0.025,0.836-0.056,1.234-0.092c0.095-0.008,0.189-0.017,0.282-0.026
	c0.463-0.045,0.908-0.098,1.329-0.158c0.093-0.013,0.185-0.027,0.275-0.041c0.576-0.087,1.107-0.188,1.584-0.298
	c0.105-0.024,0.207-0.049,0.307-0.075c0.744-0.189,1.338-0.408,1.742-0.646c0.392-0.23,0.605-0.479,0.605-0.738l0.347-4.09
	L8.355,9.264"/>
<path fill="#165B92" d="M30.935,34.477l-0.209,2.463c0,0.259-0.214,0.508-0.605,0.738c-0.404,0.238-0.998,0.456-1.742,0.646
	c-0.1,0.026-0.202,0.051-0.307,0.075c-0.476,0.111-1.008,0.211-1.584,0.298c-0.091,0.014-0.182,0.027-0.275,0.041
	c-0.422,0.06-0.866,0.113-1.329,0.158c-0.093,0.01-0.187,0.018-0.282,0.027c-0.399,0.037-0.811,0.067-1.235,0.092
	c-0.107,0.007-0.215,0.012-0.324,0.018c-0.392,0.02-0.792,0.035-1.201,0.045l-0.249,0.005c-0.289,0.006-0.582,0.008-0.878,0.008
	c-0.179,0-0.356-0.001-0.532-0.003c-0.108-0.002-0.215-0.003-0.321-0.006c-0.476-0.008-0.943-0.024-1.398-0.047
	c-0.132-0.007-0.264-0.013-0.395-0.022c-0.389-0.022-0.768-0.05-1.137-0.083c-0.201-0.017-0.398-0.036-0.592-0.057
	c-0.374-0.039-0.736-0.083-1.082-0.131c-0.235-0.033-0.464-0.068-0.685-0.105c-0.444-0.075-0.858-0.156-1.237-0.245
	c-0.217-0.051-0.422-0.104-0.615-0.159c-0.51-0.146-0.936-0.305-1.263-0.476c-0.486-0.253-0.753-0.53-0.753-0.82l-0.201-2.365
	C12.469,35.38,21.578,38.651,30.935,34.477z"/>
<polygon fill="#165B92" points="21.773,38.593 19.666,38.593 20.72,11.406 "/>
<polygon fill="#165B92" points="24.71,37.771 22.604,37.771 23.657,10.585 "/>
<polygon fill="#165B92" points="18.918,37.771 16.812,37.771 17.865,10.585 "/>
<polygon fill="#165B92" points="16.156,36.785 14.05,36.785 15.103,9.598 "/>
<polygon fill="#165B92" points="13.357,36.451 11.251,36.451 12.304,9.264 "/>
<polygon fill="#165B92" points="27.519,36.873 25.413,36.873 26.466,9.687 "/>
<polygon fill="#165B92" points="30.346,36.097 28.24,36.097 29.293,8.911 "/>
</svg>
