<?xml version="1.0" encoding="utf-8"?>
<!-- Generator: Adobe Illustrator 15.0.0, SVG Export Plug-In . SVG Version: 6.00 Build 0)  -->
<!DOCTYPE svg PUBLIC "-//W3C//DTD SVG 1.1//EN" "http://www.w3.org/Graphics/SVG/1.1/DTD/svg11.dtd">
<svg version="1.1" id="Layer_1" xmlns="http://www.w3.org/2000/svg" xmlns:xlink="http://www.w3.org/1999/xlink" x="0px" y="0px"
	 width="164.912px" height="150.38px" viewBox="0 0 164.912 150.38" enable-background="new 0 0 164.912 150.38"
	 xml:space="preserve">
<polygon fill="#4A4434" points="108.155,12.023 108.155,29.387 103.5,33.96 103.5,24.018 91.637,35.18 70.479,4.328 70.479,35.05 
	48.447,2.921 48.447,29.364 42.117,36.511 42.117,71.837 52.145,86.638 52.145,69.932 74.647,102.58 74.647,78.999 80.575,71.522 
	80.575,107.235 103.5,85.468 103.5,67.416 108.155,63.091 108.155,72.903 120.763,61.325 120.763,0 "/>
<path fill="#4A4434" d="M33.348,139.959c0-3.762,1.852-8.564,7.176-8.564c0.832,0,1.572,0.127,2.242,0.336l1.035-1.696
	c-1.043-0.278-2.14-0.434-3.277-0.434c-6.366,0-11.574,4.688-11.574,10.358c0,3.471,1.921,6.555,4.846,8.449l1.435-2.351
	C33.895,144.347,33.348,142.021,33.348,139.959"/>
<path fill="#4A4434" d="M46.057,130.876l-0.006,3.249c1.209,1.692,1.705,3.898,1.705,5.834c0,3.818-1.852,8.563-7.232,8.563
	c-1.176,0-2.174-0.241-3.029-0.643l-0.003,2.118c0.969,0.237,1.983,0.376,3.032,0.376c6.363,0,11.572-4.687,11.572-10.415
	C52.096,136.071,49.646,132.647,46.057,130.876"/>
<path fill="#4A4434" d="M16.878,149.626v-1.102c3.247,0,3.771-0.754,3.771-4.872v-8.467l-7.077,15.194h-0.985l-7.019-15.079v8.352
	c0,4.118,0.522,4.872,3.771,4.872v1.102H0v-1.102c3.248,0,3.77-0.754,3.77-4.872v-7.423c0-4.119-0.521-4.815-3.77-4.815v-1.102
	h7.134l6.901,14.791l6.901-14.791h7.019v1.102c-3.248,0-3.77,0.696-3.77,4.815v7.423c0,4.118,0.521,4.872,3.77,4.872v1.102H16.878z"
	/>
<path fill="#4A4434" d="M52.678,148.526c3.248,0,3.771-0.756,3.771-4.872v-7.425c0-4.117-0.522-4.814-3.771-4.814v-1.102h10.383
	c8.293,0,11.89,4.35,11.89,9.629c0,5.276-3.597,9.685-11.89,9.685H52.678V148.526z M63.235,132.053H60.45v12.585
	c0,2.668,0.291,3.19,2.379,3.19h0.406c6.03,0,7.133-4.408,7.133-7.946C70.368,136.46,69.266,132.053,63.235,132.053"/>
<path fill="#4A4434" d="M139.566,135.765h-0.928l-0.291-1.103c-0.521-1.914-1.16-2.609-5.277-2.609h-3.188v6.495
	c4.522,0,4.87-0.405,4.87-3.422h1.102v8.643h-1.102c0-3.017-0.348-3.423-4.87-3.423v2.668c0,4.118,0.521,4.814,3.536,4.814h0.812
	c4.117,0,4.756-0.696,5.277-2.61l0.292-1.044h0.868l-0.348,5.452h-18.211v-1.102c3.248,0,3.77-0.755,3.77-4.871v-7.425
	c0-4.117-0.521-4.814-3.77-4.814v-1.102h17.051L139.566,135.765z"/>
<path fill="#4A4434" d="M149.252,132.053c-4.176,0-4.814,0.695-5.277,2.609l-0.291,1.103h-0.986l0.465-5.452h21.344l0.406,5.452
	h-0.93l-0.289-1.103c-0.521-1.914-1.102-2.609-5.277-2.609h-2.611v11.601c0,4.116,0.523,4.872,3.771,4.872v1.101h-11.484v-1.101
	c3.189,0,3.77-0.756,3.77-4.872v-11.601H149.252z"/>
<path fill="#4A4434" d="M117.643,136.403h1.217v-6.844h-1.102c-0.174,0.697-0.463,1.334-0.754,1.566
	c-0.565-0.467-1.345-0.889-2.266-1.168v1.891C116.434,132.629,117.342,134.386,117.643,136.403"/>
<path fill="#4A4434" d="M116.715,138.955l-3.19-1.564c-2.784-1.277-4-2.089-4-3.598c0-1.336,1.283-2.22,2.755-2.352l1.05-1.773
	c-0.276-0.029-0.558-0.051-0.848-0.051c-3.597,0-6.206,2.378-6.206,5.162c0,2.552,1.738,4.466,4.059,5.568l3.307,1.565
	c2.377,1.103,3.711,2.262,3.711,3.771c0,1.739-1.508,2.783-3.363,2.783c-3.422,0-6.089-2.262-6.555-6.09h-1.158v8.004h1.102
	c0.115-0.812,0.637-1.682,0.928-1.972c0.869,0.754,2.9,1.972,5.22,1.972c3.886,0,7.075-2.552,7.075-6.206
	C120.6,142.435,119.498,140.289,116.715,138.955"/>
<path fill="#4A4434" d="M86.498,147.829c-3.016,0-3.539-0.695-3.539-4.813v-2.668c4.525,0,4.873,0.405,4.873,3.422h1.102v-8.643
	h-1.102c0,3.017-0.348,3.423-4.873,3.423v-6.495h3.191c4.118,0,4.756,0.694,5.277,2.608l0.289,1.104h0.93l-0.406-5.453H75.188v1.102
	c3.247,0,3.769,0.696,3.769,4.814v7.424c0,4.117-0.521,4.872-3.769,4.872v1.102h11.001l1.064-1.798H86.498z"/>
<path fill="#4A4434" d="M93.748,144.174h-0.871l-0.289,1.044c-0.442,1.625-0.979,2.37-3.646,2.56v1.849H93.4L93.748,144.174z"/>
</svg>
