<?xml version="1.0" encoding="utf-8"?>
<!-- Generator: Adobe Illustrator 17.0.0, SVG Export Plug-In . SVG Version: 6.00 Build 0)  -->
<!DOCTYPE svg PUBLIC "-//W3C//DTD SVG 1.1//EN" "http://www.w3.org/Graphics/SVG/1.1/DTD/svg11.dtd">
<svg version="1.1" id="Layer_1" xmlns="http://www.w3.org/2000/svg" xmlns:xlink="http://www.w3.org/1999/xlink" x="0px" y="0px"
	 width="868.52px" height="147.25px" viewBox="0 0 868.52 147.25" enable-background="new 0 0 868.52 147.25" xml:space="preserve">
<path fill="#FFFFFF" d="M124.32,22.85C111.15,9.68,92.92,1.52,72.82,1.52c-20.1,0-38.33,8.16-51.49,21.33
	C8.16,36.02,0,54.25,0,74.34c0,20.1,8.16,38.33,21.33,51.49c13.17,13.17,31.4,21.33,51.49,21.33c20.1,0,38.33-8.16,51.49-21.33
	c13.17-13.17,21.33-31.4,21.33-51.49h0C145.65,54.25,137.49,36.02,124.32,22.85z M137.85,74.34c0,17.97-7.27,34.2-19.05,45.98
	c-11.78,11.77-28.01,19.04-45.98,19.05c-17.97,0-34.2-7.27-45.98-19.05C15.07,108.55,7.8,92.31,7.79,74.34
	c0-17.97,7.27-34.2,19.05-45.98C38.62,16.59,54.85,9.32,72.82,9.32c17.97,0,34.2,7.27,45.98,19.05
	C130.58,40.14,137.85,56.38,137.85,74.34L137.85,74.34z M39.36,98.25h-1.87c-0.17,0-0.3,0.14-0.3,0.3v3.95H32.7v-3.95
	c0-0.16-0.13-0.3-0.3-0.3h-1.87c-0.16,0-0.3,0.14-0.3,0.3v10.39c0,0.16,0.14,0.3,0.3,0.3h1.87c0.17,0,0.3-0.14,0.3-0.3v-4.13h4.49
	v4.13c0,0.16,0.13,0.3,0.3,0.3h1.87c0.16,0,0.3-0.14,0.3-0.3V98.55C39.66,98.39,39.51,98.25,39.36,98.25z M48.21,98.25h-6.5
	c-0.17,0-0.3,0.14-0.3,0.3v10.39c0,0.16,0.13,0.3,0.3,0.3h6.5c0.17,0,0.3-0.14,0.3-0.3v-1.71c0-0.16-0.13-0.3-0.3-0.3h-4.35v-2.12
	h3.58c0.16,0,0.3-0.13,0.3-0.3v-1.71c0-0.16-0.14-0.3-0.3-0.3h-3.58v-1.95h4.35c0.17,0,0.3-0.14,0.3-0.3v-1.71
	C48.51,98.39,48.38,98.25,48.21,98.25z M55.55,100.46c0.77,0,1.54,0.28,2.12,0.8c0.11,0.11,0.28,0.11,0.39,0l1.22-1.27
	c0.13-0.13,0.13-0.31-0.02-0.44c-1.07-0.97-2.23-1.46-3.8-1.46c-3.14,0-5.67,2.53-5.67,5.67c0,3.14,2.53,5.63,5.67,5.63
	c1.4,0,2.75-0.49,3.81-1.52c0.11-0.11,0.13-0.31,0.02-0.42l-1.22-1.3c-0.09-0.11-0.3-0.11-0.41-0.02c-0.56,0.49-1.37,0.75-2.1,0.75
	c-1.77,0-3.09-1.44-3.09-3.19C52.48,101.94,53.78,100.46,55.55,100.46z M65.82,103.43l3.67-4.6c0.17-0.24,0.02-0.58-0.28-0.58h-1.98
	c-0.09,0-0.24,0.08-0.3,0.16l-3.48,4.35v-4.13c0-0.21-0.17-0.38-0.38-0.38h-1.84c-0.22,0-0.38,0.17-0.38,0.38v10.23
	c0,0.2,0.16,0.38,0.38,0.38h1.84c0.2,0,0.38-0.17,0.38-0.38v-4.68l3.63,4.93c0.03,0.05,0.17,0.11,0.28,0.11h2.17
	c0.3,0,0.47-0.35,0.3-0.58L65.82,103.43z M84.21,98.25h-2.04c-0.14,0-0.2,0.08-0.25,0.14l-2.18,3.22l-2.18-3.22
	c-0.05-0.06-0.13-0.14-0.25-0.14h-2.04c-0.25,0-0.38,0.25-0.25,0.46l3.47,5.24v4.99c0,0.16,0.13,0.3,0.3,0.3h1.87
	c0.16,0,0.3-0.14,0.3-0.3v-5.01l3.52-5.23C84.59,98.5,84.46,98.25,84.21,98.25z M92.2,98.25h-6.5c-0.17,0-0.3,0.14-0.3,0.3v10.39
	c0,0.16,0.13,0.3,0.3,0.3h6.5c0.17,0,0.3-0.14,0.3-0.3v-1.71c0-0.16-0.13-0.3-0.3-0.3h-4.35v-2.12h3.58c0.16,0,0.3-0.13,0.3-0.3
	v-1.71c0-0.16-0.14-0.3-0.3-0.3h-3.58v-1.95h4.35c0.17,0,0.3-0.14,0.3-0.3v-1.71C92.5,98.39,92.37,98.25,92.2,98.25z M98.79,98.27
	c-0.05-0.09-0.16-0.17-0.27-0.17h-0.16c-0.11,0-0.22,0.08-0.27,0.17l-4.91,10.56c-0.09,0.2,0.03,0.41,0.27,0.41h1.73
	c0.31,0,0.49-0.19,0.56-0.38l0.56-1.26h4.27l0.57,1.24c0.14,0.3,0.27,0.39,0.55,0.39h1.74c0.24,0,0.36-0.2,0.27-0.41L98.79,98.27z
	 M97.25,105.47l1.18-2.59h0.02l1.19,2.59H97.25z M113.79,98.25h-1.87c-0.17,0-0.3,0.14-0.3,0.3v3.95h-4.49v-3.95
	c0-0.16-0.13-0.3-0.3-0.3h-1.87c-0.16,0-0.3,0.14-0.3,0.3v10.39c0,0.16,0.14,0.3,0.3,0.3h1.87c0.17,0,0.3-0.14,0.3-0.3v-4.13h4.49
	v4.13c0,0.16,0.13,0.3,0.3,0.3h1.87c0.16,0,0.3-0.14,0.3-0.3V98.55C114.09,98.39,113.95,98.25,113.79,98.25z M30.2,91.15h83.99
	v-7.79H30.2V91.15z M113.03,37.43h-7.35c-0.68,0-1.17,0.56-1.17,1.17v15.56H86.84V38.61c0-0.62-0.5-1.17-1.17-1.17h-7.35
	c-0.62,0-1.17,0.56-1.17,1.17v37.65h9.7v-13h17.66v13h9.7V38.61C114.2,37.99,113.64,37.43,113.03,37.43z M38.23,76.25h28.33
	c4.93-4.05,8.06-10.19,8.06-17.14c0-12.36-9.88-22.3-22.23-22.3c-12.35,0-22.17,9.94-22.17,22.3C30.2,66.06,33.31,72.2,38.23,76.25z
	 M52.38,46.7c6.79,0,12.35,5.62,12.35,12.42c0,6.73-5.56,12.29-12.35,12.29c-6.73,0-12.29-5.56-12.29-12.29
	C40.09,52.32,45.65,46.7,52.38,46.7z"/>
<polygon fill="#FFFFFF" points="812.94,11.77 812.94,28.78 808.38,33.25 808.38,23.52 796.77,34.45 776.05,4.24 776.05,34.32 
	754.48,2.86 754.48,28.75 748.28,35.75 748.28,70.34 758.1,84.84 758.1,68.48 780.13,100.45 780.13,77.36 785.94,70.04 
	785.94,105.01 808.38,83.69 808.38,66.01 812.94,61.78 812.94,71.39 825.29,60.05 825.29,0 "/>
<path fill="#FFFFFF" d="M739.69,137.05c0-3.68,1.81-8.39,7.03-8.39c0.81,0,1.54,0.13,2.2,0.33l1.01-1.66
	c-1.02-0.27-2.09-0.43-3.21-0.43c-6.23,0-11.33,4.59-11.33,10.14c0,3.4,1.88,6.42,4.75,8.27l1.4-2.3
	C740.23,141.35,739.69,139.07,739.69,137.05z"/>
<path fill="#FFFFFF" d="M752.14,128.16l-0.01,3.18c1.18,1.66,1.67,3.82,1.67,5.71c0,3.74-1.81,8.39-7.08,8.39
	c-1.15,0-2.13-0.24-2.97-0.63l0,2.07c0.95,0.23,1.94,0.37,2.97,0.37c6.23,0,11.33-4.59,11.33-10.2
	C758.05,133.24,755.65,129.89,752.14,128.16z"/>
<path fill="#FFFFFF" d="M723.56,146.52v-1.08c3.18,0,3.69-0.74,3.69-4.77v-8.29l-6.93,14.88h-0.97l-6.87-14.77v8.18
	c0,4.03,0.51,4.77,3.69,4.77v1.08h-9.14v-1.08c3.18,0,3.69-0.74,3.69-4.77v-7.27c0-4.03-0.51-4.71-3.69-4.71v-1.08h6.99l6.76,14.48
	l6.76-14.48h6.87v1.08c-3.18,0-3.69,0.68-3.69,4.71v7.27c0,4.03,0.51,4.77,3.69,4.77v1.08H723.56z"/>
<path fill="#FFFFFF" d="M758.62,145.44c3.18,0,3.69-0.74,3.69-4.77v-7.27c0-4.03-0.51-4.71-3.69-4.71v-1.08h10.17
	c8.12,0,11.64,4.26,11.64,9.43c0,5.17-3.52,9.48-11.64,9.48h-10.17V145.44z M768.96,129.31c-0.23,0-2.73,0-2.73,0v12.32
	c0,2.61,0.29,3.12,2.33,3.12h0.4c5.91,0,6.98-4.32,6.98-7.78C775.94,133.62,774.86,129.31,768.96,129.31z"/>
<path fill="#FFFFFF" d="M843.7,132.94h-0.91l-0.28-1.08c-0.51-1.87-1.14-2.56-5.17-2.56h-3.12v6.36c4.43,0,4.77-0.4,4.77-3.35h1.08
	v8.46h-1.08c0-2.95-0.34-3.35-4.77-3.35v2.61c0,4.03,0.51,4.71,3.46,4.71h0.8c4.03,0,4.66-0.68,5.17-2.56l0.29-1.02h0.85l-0.34,5.34
	h-17.83v-1.08c3.18,0,3.69-0.74,3.69-4.77v-7.27c0-4.03-0.51-4.71-3.69-4.71v-1.08h16.7L843.7,132.94z"/>
<path fill="#FFFFFF" d="M853.18,129.31c-4.09,0-4.71,0.68-5.17,2.56l-0.28,1.08h-0.97l0.46-5.34h20.9l0.4,5.34h-0.91l-0.28-1.08
	c-0.51-1.87-1.08-2.56-5.17-2.56h-2.56v11.36c0,4.03,0.51,4.77,3.69,4.77v1.08h-11.25v-1.08c3.12,0,3.69-0.74,3.69-4.77v-11.36
	H853.18z"/>
<path fill="#FFFFFF" d="M822.23,133.57h1.19v-6.7h-1.08c-0.17,0.68-0.45,1.31-0.74,1.53c-0.55-0.46-1.32-0.87-2.22-1.14v1.85
	C821.05,129.87,821.94,131.59,822.23,133.57z"/>
<path fill="#FFFFFF" d="M821.32,136.07l-3.13-1.53c-2.73-1.25-3.92-2.04-3.92-3.52c0-1.31,1.26-2.17,2.7-2.3l1.03-1.74
	c-0.27-0.03-0.55-0.05-0.83-0.05c-3.52,0-6.08,2.33-6.08,5.05c0,2.5,1.7,4.37,3.97,5.45l3.24,1.53c2.33,1.08,3.63,2.21,3.63,3.69
	c0,1.7-1.48,2.73-3.29,2.73c-3.35,0-5.96-2.21-6.42-5.96h-1.13v7.84h1.08c0.11-0.79,0.62-1.65,0.91-1.93
	c0.85,0.74,2.84,1.93,5.11,1.93c3.81,0,6.93-2.5,6.93-6.08C825.13,139.47,824.05,137.37,821.32,136.07z"/>
<path fill="#FFFFFF" d="M791.74,144.76c-2.95,0-3.47-0.68-3.47-4.71v-2.61c4.43,0,4.77,0.4,4.77,3.35h1.08v-8.46h-1.08
	c0,2.95-0.34,3.35-4.77,3.35v-6.36h3.13c4.03,0,4.66,0.68,5.17,2.56l0.28,1.08h0.91l-0.4-5.34h-16.7v1.08
	c3.18,0,3.69,0.68,3.69,4.71v7.27c0,4.03-0.51,4.77-3.69,4.77v1.08h10.77l1.04-1.76H791.74z"/>
<path fill="#FFFFFF" d="M798.84,141.18h-0.85l-0.28,1.02c-0.43,1.59-0.96,2.32-3.57,2.51v1.81h4.37L798.84,141.18z"/>
<path fill="#FFFFFF" d="M486.9,49l-2.71,0.43v9.41c0.53-0.04,1.25-0.11,2.84-0.36c3.78-0.59,6.44-2.89,6.44-5.96
	C493.48,49.43,490.95,48.36,486.9,49z M458.68,53.08c-5.69,0.9-9.82,5.92-9.82,12.07c0,6.11,4.13,9.87,9.82,8.98
	c5.64-0.89,9.78-5.91,9.78-12.06C468.46,55.96,464.33,52.2,458.68,53.08z M304.72,57.54v61.85L547.97,81.1V19.25L304.72,57.54z
	 M341.31,96.75l-21.24,3.34v-4.5l3.33-0.52V74.73l-3.33,0.52v-4.5l12.22-1.92v4.5l-3.87,0.61v20.38l8.04-1.27v-4.15l4.85-0.76V96.75
	z M367.45,92.64l-21.86,3.44v-4.51l3.33-0.52V70.72l-3.33,0.52v-4.5l21.82-3.43v8.38l-4.8,0.76v-3.93l-8.67,1.36v7.85l8.84-1.39
	v4.28l-8.84,1.39v8.29l8.71-1.37v-3.92l4.8-0.75V92.64z M397.8,87.86l-4.8,0.76v-2.18c-2.04,1.93-4.67,3.45-7.95,3.97
	c-7.2,1.13-14.04-3.5-14.04-12.91c0-9.05,6.84-16.38,15.37-17.72c6.8-1.07,11.33,1.79,11.33,5.31c0,2.14-1.38,3.83-3.2,4.12
	c-2,0.31-3.38-0.72-3.38-2.63c0-0.58,0.13-1.18,0.31-1.57c-0.85-0.53-2.53-0.94-5.2-0.52c-5.69,0.9-10.04,5.82-10.04,12.15
	c0,6.46,4.67,9.88,9.6,9.1c3.07-0.48,5.2-1.49,7.07-2.98v-5.04l-7.29,1.15v-4.28l12.22-1.92V87.86z M432.69,82.68l-2.8,0.44
	l-7.82-16.83l-7.87,19.3l-2.8,0.44l-8-23.89l-3.11,0.49v-4.5l12.44-1.96v4.5l-3.86,0.61l4.75,14.68l7.24-18.22l2.67-0.42l7.24,15.94
	l4.45-16.13l-4,0.63v-4.5l12.44-1.96v4.5l-3.11,0.49L432.69,82.68z M458.55,78.84c-8.84,1.39-14.89-4.3-14.89-12.86
	c0-8.6,6.22-16.19,15.11-17.59c8.84-1.39,14.89,4.3,14.89,12.86C473.66,69.86,467.44,77.44,458.55,78.84z M500.99,71.62l-6.76,1.06
	l-5.87-10.22c-0.62,0.14-1.2,0.28-1.78,0.37c-0.93,0.15-1.78,0.28-2.4,0.33v6.6l3.64-0.57v4.5l-12,1.89v-4.5l3.33-0.53V50.22
	l-3.33,0.52v-4.5l11.33-1.79c6.71-1.05,11.51,1.09,11.51,7.06c0,3.79-2.31,7.05-5.51,8.85l4.49,7.27l3.33-0.52V71.62z M531.39,42
	l-3.15,0.5l-8.18,9.36l7.47,11.09l3.87-0.61v4.5l-7.02,1.1l-8.13-12.1l-4.22,4.81v4.73l3.64-0.57v4.51l-12,1.89v-4.51l3.33-0.52
	V45.84l-3.33,0.53v-4.5l12-1.89v4.41l-3.64,0.57v9.95l9.82-11.49l-3.33,0.53v-4.42l12.89-2.03V42z M536,65.89l-0.43,0.07v-0.4
	l-0.38,0.06v1.44l0.3-0.05v0.43l-1.12,0.17v-0.43l0.3-0.04V65.7l-0.38,0.06v0.4l-0.43,0.07V65.4l2.14-0.34V65.89z M539.26,66.85
	l-1.06,0.17v-0.43l0.29-0.05l-0.04-1.12l-0.54,1.24l-0.23,0.04l-0.55-1.07l-0.04,1.13l0.29-0.04v0.43l-1.05,0.17v-0.43l0.28-0.05
	l0.07-1.44l-0.32,0.05v-0.43l0.94-0.15l0.52,1.1l0.48-1.26l0.94-0.15v0.43l-0.32,0.05l0.07,1.42l0.28-0.04V66.85z M507.73,9.19
	l-0.21,15.43l37.94-5.97L507.73,9.19z M344.99,129.47l0.22-15.46l-38.01,5.98L344.99,129.47z"/>
</svg>
