<?xml version="1.0" encoding="utf-8"?>
<!-- Generator: Adobe Illustrator 15.0.0, SVG Export Plug-In . SVG Version: 6.00 Build 0)  -->
<!DOCTYPE svg PUBLIC "-//W3C//DTD SVG 1.1//EN" "http://www.w3.org/Graphics/SVG/1.1/DTD/svg11.dtd">
<svg version="1.1" id="Layer_1" xmlns="http://www.w3.org/2000/svg" xmlns:xlink="http://www.w3.org/1999/xlink" x="0px" y="0px"
	 width="248.411px" height="122.827px" viewBox="0 0 248.411 122.827" enable-background="new 0 0 248.411 122.827"
	 xml:space="preserve">
<polygon fill="#676154" points="0.022,112.522 41.117,122.827 41.375,104.432 "/>
<polygon fill="#676154" points="248.411,10.305 207.314,0 207.058,18.394 "/>
<path fill="#4A4434" d="M157.228,44.824c-5.81,0.914-10.028,6.042-10.028,12.325c0,6.239,4.219,10.085,10.028,9.169
	c5.765-0.908,9.984-6.035,9.984-12.317C167.212,47.761,162.992,43.917,157.228,44.824 M186.048,40.652l-2.768,0.435v9.61
	c0.545-0.04,1.271-0.108,2.903-0.366c3.857-0.608,6.581-2.949,6.581-6.091C192.765,41.097,190.18,40.001,186.048,40.652 M0,49.372
	v63.163l248.411-39.102V10.269L0,49.372z M37.367,89.421l-21.695,3.415v-4.601l3.406-0.534V66.933l-3.406,0.536v-4.6l12.482-1.963
	v4.599l-3.95,0.622V86.94l8.215-1.296v-4.232l4.948-0.779V89.421z M64.054,85.221l-22.33,3.514v-4.601l3.405-0.535V62.834
	l-3.405,0.535v-4.6l22.284-3.507v8.56l-4.902,0.773v-4.009l-8.849,1.393v8.017l9.03-1.422v4.371l-9.03,1.422v8.471l8.896-1.401
	V77.43l4.901-0.771V85.221z M95.051,80.341l-4.902,0.771v-2.229c-2.087,1.966-4.764,3.526-8.123,4.055
	c-7.351,1.158-14.34-3.571-14.34-13.179c0-9.245,6.989-16.723,15.701-18.094c6.945-1.092,11.574,1.823,11.574,5.42
	c0,2.186-1.407,3.91-3.267,4.202c-2.043,0.321-3.449-0.731-3.449-2.688c0-0.593,0.135-1.207,0.318-1.6
	c-0.864-0.546-2.588-0.958-5.311-0.53c-5.81,0.915-10.256,5.941-10.256,12.409c0,6.601,4.765,10.087,9.803,9.293
	c3.131-0.492,5.309-1.518,7.216-3.049v-5.145l-7.444,1.174v-4.373l12.48-1.966V80.341z M130.678,75.052l-2.858,0.45l-7.987-17.186
	l-8.033,19.708l-2.86,0.45l-8.169-24.399l-3.175,0.501v-4.6l12.706-2v4.599l-3.946,0.62l4.854,14.995l7.398-18.608l2.722-0.428
	l7.398,16.277l4.538-16.471l-4.085,0.642v-4.598l12.707-2.001v4.599l-3.177,0.502L130.678,75.052z M157.093,71.121
	c-9.032,1.423-15.205-4.392-15.205-13.135c0-8.787,6.354-16.529,15.432-17.958c9.03-1.422,15.202,4.394,15.202,13.138
	C172.521,61.954,166.169,69.693,157.093,71.121 M200.435,63.753l-6.898,1.086l-5.991-10.44c-0.635,0.143-1.224,0.281-1.814,0.375
	c-0.954,0.15-1.816,0.286-2.45,0.34v6.74l3.722-0.586v4.6l-12.254,1.931v-4.601l3.402-0.538V41.895l-3.402,0.536v-4.598
	l11.573-1.824c6.851-1.078,11.753,1.11,11.753,7.212c0,3.872-2.36,7.204-5.628,9.041l4.585,7.427l3.403-0.535V63.753z
	 M231.478,33.501l-3.222,0.506l-8.351,9.56l7.625,11.321l3.947-0.621v4.6l-7.171,1.128l-8.305-12.354l-4.312,4.914v4.827
	l3.723-0.587v4.602l-12.253,1.928v-4.602l3.402-0.534V37.421l-3.402,0.538v-4.6l12.253-1.928v4.508l-3.723,0.586v10.156
	l10.031-11.736l-3.404,0.538v-4.509l13.161-2.073V33.501z M236.183,57.896l-0.438,0.069v-0.405l-0.385,0.061v1.467l0.303-0.046
	v0.441l-1.144,0.178v-0.441l0.303-0.045v-1.469l-0.385,0.061v0.404l-0.44,0.069v-0.836l2.186-0.343V57.896z M239.511,58.878
	l-1.079,0.169v-0.44l0.292-0.047l-0.045-1.139l-0.547,1.27l-0.239,0.037l-0.558-1.096l-0.044,1.154l0.292-0.045v0.441l-1.07,0.169
	v-0.442l0.283-0.046l0.074-1.468l-0.33,0.05v-0.44l0.96-0.15l0.53,1.126l0.494-1.287l0.959-0.152v0.44l-0.33,0.052l0.073,1.447
	l0.284-0.045V58.878z"/>
<path fill="#4A4434" d="M162.809,40.11c-0.203-0.041-0.401-0.09-0.608-0.123C162.407,40.02,162.605,40.069,162.809,40.11"/>
<path fill="#4A4434" d="M159.553,39.837c-0.178,0.005-0.349-0.004-0.528,0.007C159.204,39.833,159.375,39.842,159.553,39.837"/>
<path fill="#4A4434" d="M164.247,40.49c-0.195-0.064-0.385-0.134-0.585-0.189C163.862,40.356,164.053,40.426,164.247,40.49"/>
<polygon fill="#4A4434" points="128.727,65.431 129.021,64.365 122.592,50.221 121.33,49.155 "/>
<path fill="#4A4434" d="M157.319,40.027c0.005-0.001,0.01-0.001,0.015-0.002C157.328,40.026,157.323,40.026,157.319,40.027
	c-8.92,1.404-15.194,8.905-15.411,17.501C142.125,48.932,148.401,41.431,157.319,40.027"/>
<polygon fill="#4A4434" points="132.899,50.283 130.154,60.249 133.267,48.96 129.181,49.602 130.442,50.67 "/>
<path fill="#4A4434" d="M153.037,66.091c0.183,0.054,0.368,0.097,0.556,0.14C153.406,66.188,153.218,66.145,153.037,66.091"/>
<path fill="#4A4434" d="M160.653,39.833c0.205,0.009,0.401,0.038,0.604,0.055C161.055,39.871,160.858,39.842,160.653,39.833"/>
<path fill="#4A4434" d="M153.915,66.298c0.162,0.028,0.326,0.053,0.492,0.074C154.241,66.351,154.076,66.328,153.915,66.298"/>
<path fill="#4A4434" d="M166.812,41.688c-0.167-0.105-0.332-0.211-0.505-0.307C166.479,41.477,166.645,41.583,166.812,41.688"/>
<path fill="#4A4434" d="M79.83,78.131c0.123,0.022,0.246,0.043,0.371,0.061C80.076,78.174,79.953,78.153,79.83,78.131"/>
<path fill="#4A4434" d="M76.852,76.933c0.334,0.222,0.685,0.412,1.048,0.58C77.538,77.345,77.186,77.154,76.852,76.933"/>
<path fill="#4A4434" d="M88.292,57.998c-0.003,0.024-0.008,0.046-0.011,0.07C88.285,58.044,88.29,58.022,88.292,57.998"/>
<polygon fill="#4A4434" points="83.833,72.215 90.015,71.244 90.015,69.977 82.572,71.15 "/>
<path fill="#4A4434" d="M155.296,66.441c-0.148-0.004-0.295-0.014-0.439-0.025C155.002,66.426,155.147,66.438,155.296,66.441"/>
<path fill="#4A4434" d="M81.045,78.27c-0.112-0.004-0.223-0.016-0.334-0.023C80.822,78.254,80.933,78.266,81.045,78.27"/>
<polygon fill="#4A4434" points="121.328,49.154 121.328,49.154 119.503,49.44 "/>
<path fill="#4A4434" d="M81.648,78.27c0.089-0.004,0.176-0.002,0.265-0.007C81.824,78.268,81.736,78.267,81.648,78.27"/>
<path fill="#4A4434" d="M76.799,76.9c-1.549-1.605-2.543-3.954-2.543-6.957c0-6.467,4.449-11.495,10.257-12.407
	c1.65-0.261,2.925-0.21,3.872-0.011c-0.001,0.004-0.002,0.009-0.003,0.013c0.051-0.202,0.111-0.39,0.18-0.541
	c-0.863-0.546-2.587-0.958-5.31-0.53c-5.81,0.915-10.256,5.942-10.256,12.41C72.996,72.633,74.541,75.377,76.799,76.9"/>
<path fill="#4A4434" d="M94.961,57.083c0,2.186-1.407,3.91-3.267,4.203c-1.235,0.194-2.231-0.121-2.83-0.828
	c0.019,0.023,0.034,0.051,0.054,0.073c0,0,0.963,0.991,1.628,1.365c0.599,0.436,1.425,0.612,2.41,0.458
	c1.86-0.293,3.266-2.016,3.266-4.202c0-0.77-0.215-1.508-0.617-2.181c0,0-0.001-0.008-0.002-0.012
	c-0.003-0.006-0.008-0.013-0.014-0.018c-0.215-0.358-0.483-0.698-0.803-1.014c-1.188-1.312-2.478-2.04-2.971-2.291
	C93.816,53.68,94.961,55.296,94.961,57.083"/>
<path fill="#4A4434" d="M88.562,59.999c0.05,0.098,0.105,0.191,0.167,0.279C88.668,60.19,88.612,60.097,88.562,59.999"/>
<path fill="#4A4434" d="M88.355,59.435c0.032,0.125,0.067,0.246,0.112,0.36C88.422,59.681,88.386,59.56,88.355,59.435"/>
<path fill="#4A4434" d="M165.581,41.019c-0.182-0.085-0.36-0.174-0.549-0.25C165.221,40.844,165.399,40.934,165.581,41.019"/>
<path fill="#4A4434" d="M192.164,42.067c-0.988-1.444-3.15-1.883-6.116-1.416l-2.769,0.436v9.609
	c0.544-0.039,1.27-0.107,2.894-0.364c-0.69,0.109-1.213,0.181-1.63,0.236v-8.412l2.767-0.437
	C189.344,41.399,191.002,41.504,192.164,42.067"/>
<path fill="#4A4434" d="M187.516,35.854c-0.389,0.04-0.786,0.091-1.19,0.154C186.729,35.944,187.126,35.895,187.516,35.854"/>
<path fill="#4A4434" d="M192.416,42.513c-0.071-0.157-0.155-0.304-0.25-0.442C192.261,42.209,192.344,42.357,192.416,42.513"/>
<polygon fill="#4A4434" points="178.151,43.159 178.151,41.895 174.748,42.431 176.01,43.499 "/>
<path fill="#4A4434" d="M192.597,43.001c-0.048-0.166-0.105-0.324-0.173-0.473C192.492,42.677,192.549,42.835,192.597,43.001"/>
<path fill="#4A4434" d="M155.882,66.437c0.119-0.005,0.236-0.003,0.356-0.011C156.118,66.434,156.001,66.432,155.882,66.437"/>
<polygon fill="#4A4434" points="216.956,49.059 216.003,47.641 211.69,52.555 211.69,57.382 215.411,56.795 212.952,57.183 
	212.952,53.623 "/>
<path fill="#4A4434" d="M188.231,55.594l-0.687-1.196c-0.635,0.144-1.224,0.282-1.813,0.376c-0.954,0.149-1.817,0.286-2.452,0.339
	v6.741l1.263-0.199v-5.474c0.635-0.054,1.496-0.191,2.451-0.34C187.399,55.778,187.81,55.688,188.231,55.594"/>
<polygon fill="#4A4434" points="218.317,35.482 218.317,35.482 219.578,36.548 220.469,36.41 221.721,34.945 "/>
<polygon fill="#4A4434" points="215.412,35.938 211.69,36.524 211.69,46.682 214.662,43.204 212.952,45.204 212.952,37.592 
	216.674,37.007 216.674,32.498 215.412,31.432 "/>
<polygon fill="#4A4434" points="206.562,38.688 206.562,37.421 203.159,37.958 203.159,33.358 215.412,31.43 203.159,33.358 
	203.159,37.958 204.42,39.025 "/>
<path fill="#4A4434" d="M192.726,43.622c0.024,0.196,0.038,0.402,0.038,0.618c0,2.553-1.797,4.578-4.54,5.573
	c2.743-0.995,4.541-3.02,4.541-5.573C192.765,44.023,192.749,43.818,192.726,43.622"/>
<path fill="#4A4434" d="M192.713,43.548c-0.023-0.174-0.058-0.34-0.101-0.498C192.656,43.208,192.688,43.375,192.713,43.548"/>
<path fill="#4A4434" d="M166.82,50.912c-0.06-0.221-0.13-0.433-0.201-0.644C166.69,50.478,166.761,50.69,166.82,50.912"/>
<path fill="#4A4434" d="M167.165,52.904c-0.013-0.154-0.038-0.3-0.056-0.45C167.128,52.604,167.152,52.75,167.165,52.904"/>
<path fill="#4A4434" d="M167.032,51.874c-0.034-0.197-0.08-0.386-0.124-0.577C166.952,51.487,166.998,51.677,167.032,51.874"/>
<path fill="#4A4434" d="M166.182,49.195c-0.117-0.241-0.244-0.471-0.379-0.695C165.938,48.723,166.064,48.955,166.182,49.195"/>
<path fill="#4A4434" d="M166.534,50.019c-0.087-0.235-0.185-0.46-0.287-0.682C166.351,49.558,166.447,49.785,166.534,50.019"/>
<path fill="#4A4434" d="M194.257,36.661l0.001,0.015c0.16,0.075,0.322,0.146,0.473,0.23
	C194.44,36.745,194.257,36.661,194.257,36.661"/>
<path fill="#4A4434" d="M189.688,35.753c-0.006,0-0.012,0-0.018,0C189.677,35.753,189.683,35.753,189.688,35.753"/>
<path fill="#4A4434" d="M165.767,48.438c-0.147-0.24-0.306-0.469-0.474-0.688C165.461,47.969,165.618,48.199,165.767,48.438"/>
<path fill="#4A4434" d="M157.228,44.823c-5.809,0.914-10.029,6.042-10.029,12.326c0,4.555,2.255,7.823,5.73,8.905
	c-0.723-0.227-1.395-0.545-2.002-0.953c-1.552-1.627-2.466-3.991-2.466-6.884c0-6.285,4.221-11.411,10.029-12.327
	c2.427-0.381,4.573,0.088,6.251,1.215c0.194,0.204,0.378,0.419,0.553,0.645C163.52,45.431,160.649,44.285,157.228,44.823"/>
<path fill="#4A4434" d="M188.637,35.77c-0.106,0.005-0.218,0.016-0.326,0.023C188.42,35.786,188.53,35.775,188.637,35.77"/>
<path fill="#4A4434" d="M88.245,58.601c0,0.223,0.023,0.433,0.059,0.633C88.268,59.034,88.245,58.825,88.245,58.601"/>
<polygon fill="#4A4434" points="119.832,58.316 111.799,78.023 108.939,78.474 110.203,79.541 113.062,79.092 120.735,60.261 "/>
<polygon fill="#4A4434" points="143.15,44.07 141.888,43.002 141.888,47.602 138.711,48.104 130.679,75.052 127.819,75.502 
	122.571,64.211 127.818,75.502 129.081,76.569 131.939,76.119 139.973,49.17 143.15,48.67 "/>
<path fill="#4A4434" d="M142.788,63.342c-0.063-0.18-0.132-0.357-0.189-0.541C142.656,62.984,142.724,63.162,142.788,63.342"/>
<path fill="#4A4434" d="M142.343,61.837c-0.044-0.186-0.097-0.367-0.134-0.557C142.247,61.471,142.298,61.652,142.343,61.837"/>
<path fill="#4A4434" d="M70.009,78.033c-0.106-0.156-0.211-0.311-0.311-0.475C69.798,77.723,69.903,77.877,70.009,78.033"/>
<path fill="#4A4434" d="M142.04,60.176c-0.021-0.169-0.053-0.331-0.07-0.503C141.987,59.845,142.019,60.007,142.04,60.176"/>
<path fill="#4A4434" d="M71.458,79.778c0.121,0.118,0.243,0.235,0.369,0.348C71.701,80.014,71.579,79.896,71.458,79.778"/>
<path fill="#4A4434" d="M70.864,79.146c-0.117-0.133-0.233-0.271-0.345-0.412C70.631,78.876,70.747,79.012,70.864,79.146"/>
<polygon fill="#4A4434" points="106.355,53.195 111.21,68.189 118.261,50.453 111.714,66.918 107.616,54.263 111.562,53.641 
	111.562,49.043 110.301,47.975 110.301,52.575 "/>
<polygon fill="#4A4434" points="95.051,64.812 95.051,80.34 90.149,81.112 91.412,82.182 96.314,81.408 96.314,65.879 "/>
<path fill="#4A4434" d="M90.149,78.881c-2.087,1.967-4.764,3.528-8.123,4.057c-3.497,0.55-6.903-0.246-9.522-2.252
	c0.075,0.058,0.144,0.127,0.22,0.183c2.717,2.662,6.586,3.765,10.565,3.138c2.72-0.43,4.985-1.541,6.86-2.99V78.881z"/>
<polygon fill="#4A4434" points="100.771,54.075 97.595,54.576 97.595,49.977 110.301,47.976 97.594,49.977 97.594,54.576 
	98.857,55.642 101.173,55.277 102.217,58.395 "/>
<path fill="#4A4434" d="M143.373,64.727c-0.082-0.166-0.163-0.33-0.237-0.502C143.21,64.396,143.291,64.561,143.373,64.727"/>
<path fill="#4A4434" d="M197.581,59.602l-3.872-6.275c3.267-1.835,5.628-5.168,5.628-9.038c0-1.868-0.47-3.358-1.304-4.506
	c-1.02-1.46-2.468-2.408-3.24-2.844c2.064,1.178,3.281,3.244,3.281,6.282c0,3.871-2.36,7.203-5.628,9.04l4.584,7.428l3.404-0.536
	v4.601l-6.898,1.086l1.263,1.066l6.899-1.085V60.22l-1.264-1.068L197.581,59.602z"/>
<polygon fill="#4A4434" points="185.188,61.553 187.002,61.268 187.002,65.867 174.748,67.797 176.011,68.863 188.263,66.936 
	188.263,62.334 187.002,61.267 "/>
<polygon fill="#4A4434" points="231.478,28.901 231.478,28.901 231.478,33.5 228.257,34.007 219.905,43.566 227.53,54.888 
	228.02,54.81 221.167,44.633 229.518,35.075 232.738,34.568 232.738,29.969 "/>
<polygon fill="#4A4434" points="231.478,54.267 231.478,58.867 224.307,59.995 221.091,55.21 224.306,59.995 225.567,61.063 
	232.737,59.934 232.737,55.334 "/>
<polygon fill="#4A4434" points="215.412,61.396 203.159,63.324 203.159,58.722 206.208,58.244 203.158,58.722 203.158,63.324 
	204.421,64.393 216.674,62.463 216.674,57.862 215.412,56.795 "/>
<path fill="#4A4434" d="M167.935,42.492c-0.149-0.122-0.3-0.244-0.457-0.359C167.634,42.247,167.785,42.37,167.935,42.492"/>
<path fill="#4A4434" d="M144.093,65.997c-0.095-0.147-0.188-0.296-0.277-0.448C143.904,65.701,143.997,65.85,144.093,65.997"/>
<path fill="#4A4434" d="M144.942,67.15c-0.104-0.126-0.206-0.256-0.306-0.387C144.737,66.895,144.837,67.024,144.942,67.15"/>
<path fill="#4A4434" d="M145.599,67.861c0.105,0.107,0.209,0.217,0.318,0.319C145.808,68.078,145.704,67.969,145.599,67.861"/>
<path fill="#4A4434" d="M168.732,43.184c-0.06-0.059-0.13-0.108-0.191-0.166c2.521,2.371,3.98,5.91,3.98,10.147
	c0,8.789-6.353,16.528-15.429,17.957c-4.193,0.66-7.757-0.255-10.386-2.282c0.079,0.061,0.149,0.133,0.23,0.192
	c2.687,2.641,6.653,3.905,11.416,3.157c9.076-1.43,15.429-9.168,15.429-17.958C173.782,49.425,171.913,45.506,168.732,43.184"/>
<path fill="#4A4434" d="M86.398,51.442c0.193,0.002,0.389-0.001,0.576,0.007C86.788,51.441,86.592,51.444,86.398,51.442"/>
<path fill="#4A4434" d="M91.721,52.589c-0.073-0.035-0.124-0.059-0.124-0.059v0.001c-0.03-0.015-0.065-0.027-0.096-0.041
	C91.573,52.524,91.65,52.554,91.721,52.589"/>
<path fill="#4A4434" d="M87.602,51.499c0.147,0.013,0.297,0.021,0.441,0.038C87.899,51.52,87.749,51.512,87.602,51.499"/>
<path fill="#4A4434" d="M78.991,77.93c0.13,0.039,0.262,0.072,0.395,0.104C79.254,78.002,79.121,77.969,78.991,77.93"/>
<path fill="#4A4434" d="M85.84,51.438c-0.245,0.006-0.499,0.026-0.752,0.043C85.341,51.464,85.595,51.444,85.84,51.438"/>
<polygon fill="#4A4434" points="59.287,68.574 59.287,72.944 50.256,74.367 50.256,82.838 51.518,82.64 51.518,75.434 
	60.549,74.014 60.549,69.643 "/>
<path fill="#4A4434" d="M84.643,51.507c-0.407,0.037-0.824,0.089-1.249,0.155C83.819,51.596,84.236,51.544,84.643,51.507"/>
<path fill="#4A4434" d="M69.27,76.783c-0.09-0.176-0.183-0.348-0.266-0.53C69.086,76.436,69.179,76.607,69.27,76.783"/>
<path fill="#4A4434" d="M90.833,52.203c-0.054-0.021-0.112-0.038-0.166-0.057C90.721,52.165,90.779,52.183,90.833,52.203"/>
<path fill="#4A4434" d="M78.192,77.648c0.137,0.057,0.277,0.104,0.417,0.153C78.469,77.753,78.328,77.705,78.192,77.648"/>
<path fill="#4A4434" d="M89.974,51.918c-0.078-0.022-0.161-0.039-0.24-0.06C89.813,51.88,89.896,51.896,89.974,51.918"/>
<path fill="#4A4434" d="M89.042,51.695c-0.106-0.021-0.219-0.035-0.327-0.054C88.824,51.66,88.937,51.674,89.042,51.695"/>
<path fill="#4A4434" d="M83.057,78.122c2.893-0.491,4.966-1.453,6.776-2.863C88.023,76.669,85.95,77.63,83.057,78.122"/>
<path fill="#4A4434" d="M67.855,72.117c-0.024-0.185-0.06-0.359-0.079-0.549C67.795,71.758,67.831,71.933,67.855,72.117"/>
<polygon fill="#4A4434" points="64.054,85.221 41.725,88.735 41.725,84.135 44.917,83.633 41.724,84.135 41.724,88.735 
	42.987,89.802 65.314,86.288 65.314,77.727 64.054,76.658 "/>
<path fill="#4A4434" d="M68.183,73.856c-0.05-0.201-0.108-0.394-0.151-0.601C68.075,73.463,68.133,73.655,68.183,73.856"/>
<path fill="#4A4434" d="M68.658,75.396c-0.072-0.192-0.149-0.38-0.213-0.579C68.509,75.016,68.586,75.203,68.658,75.396"/>
<polygon fill="#4A4434" points="37.367,80.633 37.367,89.421 15.672,92.836 16.935,93.903 38.627,90.489 38.627,81.699 "/>
<polygon fill="#4A4434" points="50.256,69.996 51.519,69.797 51.519,63.048 59.106,61.854 59.106,60.587 50.256,61.979 "/>
<polygon fill="#4A4434" points="45.129,64.1 45.129,62.834 41.725,63.369 41.725,58.77 64.008,55.263 64.007,55.263 41.724,58.77 
	41.724,63.369 42.987,64.436 "/>
<polygon fill="#4A4434" points="65.268,56.33 64.008,55.263 64.008,63.822 59.106,64.596 60.368,65.664 65.268,64.891 "/>
<polygon fill="#4A4434" points="19.078,68.199 19.078,66.934 15.672,67.469 16.935,68.537 "/>
<polygon fill="#4A4434" points="28.154,65.504 24.203,66.127 24.203,86.941 32.39,85.649 25.466,86.739 25.466,67.194 
	29.415,66.573 29.415,61.973 28.154,60.905 "/>
</svg>
