<?xml version="1.0" encoding="utf-8"?>
<!-- Generator: Adobe Illustrator 15.0.0, SVG Export Plug-In . SVG Version: 6.00 Build 0)  -->
<!DOCTYPE svg PUBLIC "-//W3C//DTD SVG 1.1//EN" "http://www.w3.org/Graphics/SVG/1.1/DTD/svg11.dtd">
<svg version="1.1" id="Layer_1" xmlns="http://www.w3.org/2000/svg" xmlns:xlink="http://www.w3.org/1999/xlink" x="0px" y="0px"
	 width="148.737px" height="148.737px" viewBox="0 0 148.737 148.737" enable-background="new 0 0 148.737 148.737"
	 xml:space="preserve">
<path fill="#4A4434" d="M126.955,21.781C113.509,8.33,94.892-0.002,74.369,0C53.845-0.002,35.227,8.33,21.782,21.781
	C8.33,35.227-0.002,53.844,0,74.367c-0.002,20.524,8.33,39.142,21.782,52.587c13.445,13.452,32.063,21.785,52.587,21.783
	c20.523,0.002,39.14-8.331,52.585-21.783c13.452-13.445,21.784-32.063,21.782-52.587C148.739,53.844,140.407,35.227,126.955,21.781
	 M140.778,74.367c-0.002,18.352-7.427,34.929-19.45,46.959c-12.031,12.023-28.607,19.448-46.958,19.451
	c-18.352-0.003-34.929-7.428-46.959-19.451C15.386,109.296,7.961,92.719,7.959,74.367C7.961,56.017,15.386,39.44,27.41,27.41
	C39.44,15.386,56.017,7.961,74.369,7.959c18.351,0.002,34.927,7.427,46.958,19.451C133.351,39.44,140.776,56.017,140.778,74.367z
	 M40.193,98.781h-1.908c-0.176,0-0.304,0.144-0.304,0.304v4.039h-4.584v-4.039c0-0.16-0.128-0.304-0.305-0.304h-1.907
	c-0.16,0-0.305,0.144-0.305,0.304v10.612c0,0.159,0.145,0.303,0.305,0.303h1.907c0.177,0,0.305-0.144,0.305-0.303v-4.217h4.584
	v4.217c0,0.159,0.128,0.303,0.304,0.303h1.908c0.16,0,0.304-0.144,0.304-0.303V99.085C40.497,98.925,40.353,98.781,40.193,98.781
	 M49.232,98.781h-6.636c-0.177,0-0.304,0.144-0.304,0.304v10.612c0,0.159,0.127,0.303,0.304,0.303h6.636
	c0.176,0,0.304-0.144,0.304-0.303v-1.749c0-0.16-0.128-0.304-0.304-0.304h-4.44v-2.164h3.655c0.16,0,0.304-0.129,0.304-0.305v-1.747
	c0-0.16-0.144-0.305-0.304-0.305h-3.655v-1.987h4.44c0.176,0,0.304-0.144,0.304-0.304v-1.748
	C49.536,98.925,49.408,98.781,49.232,98.781 M56.733,101.04c0.786,0,1.57,0.289,2.164,0.818c0.112,0.112,0.288,0.112,0.401,0
	l1.25-1.299c0.128-0.128,0.128-0.319-0.016-0.448c-1.09-0.994-2.276-1.49-3.879-1.49c-3.206,0-5.787,2.579-5.787,5.785
	s2.581,5.754,5.787,5.754c1.427,0,2.805-0.496,3.895-1.554c0.112-0.112,0.128-0.32,0.016-0.433l-1.25-1.331
	c-0.096-0.113-0.305-0.113-0.417-0.016c-0.577,0.496-1.395,0.769-2.148,0.769c-1.811,0-3.157-1.475-3.157-3.253
	C53.592,102.547,54.922,101.04,56.733,101.04 M67.215,104.07l3.75-4.696c0.177-0.24,0.016-0.593-0.289-0.593h-2.019
	c-0.096,0-0.24,0.08-0.305,0.159l-3.558,4.439v-4.214c0-0.21-0.176-0.385-0.385-0.385h-1.875c-0.224,0-0.384,0.175-0.384,0.385
	v10.449c0,0.21,0.16,0.385,0.384,0.385h1.875c0.209,0,0.385-0.175,0.385-0.385v-4.776l3.703,5.033
	c0.032,0.048,0.176,0.113,0.288,0.113h2.212c0.305,0,0.481-0.354,0.305-0.594L67.215,104.07z M85.998,98.781h-2.082
	c-0.146,0-0.209,0.08-0.256,0.144l-2.229,3.286l-2.229-3.286c-0.049-0.063-0.129-0.144-0.257-0.144h-2.084
	c-0.256,0-0.384,0.255-0.256,0.465l3.543,5.352v5.1c0,0.159,0.127,0.303,0.304,0.303h1.907c0.16,0,0.306-0.144,0.306-0.303v-5.114
	l3.59-5.337C86.384,99.036,86.255,98.781,85.998,98.781 M94.157,98.781h-6.636c-0.176,0-0.305,0.144-0.305,0.304v10.612
	c0,0.159,0.129,0.303,0.305,0.303h6.636c0.177,0,0.304-0.144,0.304-0.303v-1.749c0-0.16-0.127-0.304-0.304-0.304h-4.438v-2.164
	h3.654c0.159,0,0.303-0.129,0.303-0.305v-1.747c0-0.16-0.144-0.305-0.303-0.305h-3.654v-1.987h4.438
	c0.177,0,0.304-0.144,0.304-0.304v-1.748C94.46,98.925,94.333,98.781,94.157,98.781 M100.888,98.796
	c-0.049-0.095-0.16-0.175-0.272-0.175h-0.161c-0.111,0-0.224,0.08-0.271,0.175l-5.018,10.788C95.07,109.792,95.198,110,95.439,110
	h1.764c0.319,0,0.495-0.193,0.575-0.385l0.577-1.281h4.359l0.578,1.266c0.145,0.306,0.272,0.4,0.561,0.4h1.779
	c0.242,0,0.369-0.208,0.272-0.416L100.888,98.796z M99.317,106.154l1.203-2.645h0.015l1.219,2.645H99.317z M116.21,98.781h-1.907
	c-0.177,0-0.306,0.144-0.306,0.304v4.039h-4.584v-4.039c0-0.16-0.127-0.304-0.305-0.304h-1.906c-0.16,0-0.305,0.144-0.305,0.304
	v10.612c0,0.159,0.145,0.303,0.305,0.303h1.906c0.178,0,0.305-0.144,0.305-0.303v-4.217h4.584v4.217
	c0,0.159,0.129,0.303,0.306,0.303h1.907c0.16,0,0.304-0.144,0.304-0.303V99.085C116.514,98.925,116.371,98.781,116.21,98.781
	 M30.845,91.526h85.777v-7.959H30.845V91.526z M115.425,36.671h-7.506c-0.693,0-1.197,0.568-1.197,1.198v15.894H88.683V37.869
	c0-0.63-0.506-1.198-1.2-1.198h-7.504c-0.631,0-1.2,0.568-1.2,1.198v38.446h9.904v-13.28h18.039v13.28h9.902V37.869
	C116.625,37.239,116.056,36.671,115.425,36.671 M39.037,76.315h28.93c5.037-4.136,8.229-10.412,8.229-17.504
	c0-12.617-10.093-22.772-22.707-22.772c-12.614,0-22.644,10.155-22.644,22.772C30.845,65.904,34.017,72.18,39.037,76.315
	 M53.489,46.132c6.938,0,12.614,5.74,12.614,12.679c0,6.873-5.676,12.551-12.614,12.551c-6.875,0-12.551-5.678-12.551-12.551
	C40.938,51.872,46.614,46.132,53.489,46.132"/>
</svg>
