<?xml version="1.0" encoding="utf-8"?>
<!-- Generator: Adobe Illustrator 15.0.0, SVG Export Plug-In . SVG Version: 6.00 Build 0)  -->
<!DOCTYPE svg PUBLIC "-//W3C//DTD SVG 1.1//EN" "http://www.w3.org/Graphics/SVG/1.1/DTD/svg11.dtd">
<svg version="1.1" id="Layer_1" xmlns="http://www.w3.org/2000/svg" xmlns:xlink="http://www.w3.org/1999/xlink" x="0px" y="0px"
	 width="79.646px" height="109.567px" viewBox="107.791 77.455 79.646 109.567"
	 enable-background="new 107.791 77.455 79.646 109.567" xml:space="preserve">
<g>
	<path d="M146.249,187.021V151.58l-4.928,6.215v25.013l-22.503-32.646v16.729l-11.027-16.278v-35.668l6.33-7.147V79.931
		l22.032,32.129V81.337l21.74,31.702l12.28-11.555v9.907l3.656-3.592V90.432l13.608-12.978v62.712l-13.608,12.496v-9.803
		l-3.656,3.396v18.05L146.249,187.021z M147.249,148.709v35.984l21.924-20.817V145.82l5.656-5.253v9.82l11.608-10.66V79.79
		l-11.608,11.07v17.358l-5.656,5.557v-9.977l-11.444,10.769l-20.576-30.003v30.723l-22.032-32.129v25.019l-6.33,7.147v34.982
		l9.027,13.325v-16.683l22.503,32.646v-22.147L147.249,148.709z"/>
</g>
</svg>
