<?xml version="1.0" encoding="utf-8"?>
<!-- Generator: Adobe Illustrator 17.0.0, SVG Export Plug-In . SVG Version: 6.00 Build 0)  -->
<!DOCTYPE svg PUBLIC "-//W3C//DTD SVG 1.1//EN" "http://www.w3.org/Graphics/SVG/1.1/DTD/svg11.dtd">
<svg version="1.1" id="Layer_1" xmlns="http://www.w3.org/2000/svg" xmlns:xlink="http://www.w3.org/1999/xlink" x="0px" y="0px"
	 width="1492.607px" height="612.023px" viewBox="0 0 1492.607 612.023" enable-background="new 0 0 1492.607 612.023"
	 xml:space="preserve">
<rect x="0" y="0" opacity="0" fill="#83D2F6" width="1492.607" height="612.023"/>
<path d="M422.407,237.756h6.104l2.152-9.667h-5.065L422.407,237.756z M413.5,237.756h6.104l2.152-9.667h-5.065L413.5,237.756z
	 M387.976,232.969v18.425c0,0.507,0.089,0.98,0.269,1.419c0.179,0.439,0.423,0.823,0.733,1.15c0.309,0.328,0.671,0.584,1.085,0.77
	c0.414,0.186,0.863,0.278,1.345,0.278s0.931-0.093,1.345-0.278c0.414-0.186,0.779-0.442,1.095-0.77
	c0.315-0.328,0.562-0.711,0.742-1.15c0.179-0.439,0.269-0.912,0.269-1.419v-18.425h4.973c0.358,0,0.699-0.065,1.021-0.195
	c0.321-0.13,0.603-0.306,0.844-0.529s0.433-0.482,0.575-0.779c0.142-0.297,0.213-0.612,0.213-0.946s-0.071-0.652-0.213-0.956
	c-0.143-0.303-0.334-0.566-0.575-0.789s-0.523-0.399-0.844-0.529c-0.322-0.13-0.662-0.195-1.021-0.195h-16.94
	c-0.359,0-0.699,0.065-1.021,0.195c-0.322,0.13-0.603,0.306-0.844,0.529s-0.433,0.486-0.575,0.789
	c-0.143,0.303-0.213,0.622-0.213,0.956s0.071,0.649,0.213,0.946c0.142,0.297,0.334,0.557,0.575,0.779s0.522,0.399,0.844,0.529
	c0.321,0.13,0.662,0.195,1.021,0.195H387.976z M367.997,245.011l5.529,8.201c0.433,0.656,0.896,1.123,1.392,1.401
	c0.495,0.278,0.983,0.417,1.466,0.417c0.408,0,0.794-0.086,1.16-0.26c0.365-0.173,0.687-0.402,0.965-0.687
	c0.278-0.284,0.501-0.615,0.668-0.993c0.167-0.377,0.25-0.77,0.25-1.178c0-0.284-0.046-0.581-0.139-0.891
	c-0.093-0.309-0.245-0.606-0.455-0.891l-6.494-8.943l6.438-8.646c0.433-0.594,0.649-1.2,0.649-1.818
	c0-0.358-0.071-0.699-0.213-1.021c-0.143-0.321-0.337-0.603-0.584-0.844c-0.248-0.241-0.538-0.433-0.872-0.575
	c-0.334-0.142-0.687-0.213-1.058-0.213c-0.495,0-1.005,0.146-1.531,0.436c-0.526,0.291-1.024,0.776-1.494,1.457l-5.232,7.607
	l-5.251-7.793c-0.396-0.594-0.835-1.026-1.317-1.299c-0.482-0.272-0.965-0.408-1.447-0.408c-0.396,0-0.779,0.078-1.15,0.232
	c-0.371,0.155-0.696,0.365-0.974,0.631c-0.278,0.266-0.501,0.584-0.668,0.956s-0.25,0.773-0.25,1.206
	c0,0.334,0.059,0.681,0.176,1.039c0.117,0.359,0.312,0.718,0.584,1.076l5.938,7.979l-6.29,8.498
	c-0.359,0.482-0.616,0.946-0.77,1.392c-0.155,0.445-0.232,0.866-0.232,1.262c0,0.396,0.071,0.758,0.213,1.085
	c0.142,0.328,0.331,0.609,0.566,0.844c0.235,0.235,0.51,0.417,0.826,0.547s0.652,0.195,1.011,0.195c0.482,0,0.971-0.13,1.466-0.39
	c0.495-0.26,0.94-0.68,1.336-1.262L367.997,245.011z M352.247,255.012c0.334,0,0.646-0.062,0.937-0.186
	c0.291-0.124,0.547-0.293,0.77-0.51c0.223-0.216,0.396-0.47,0.52-0.761c0.124-0.291,0.186-0.603,0.186-0.937
	s-0.062-0.646-0.186-0.937c-0.124-0.291-0.297-0.547-0.52-0.77s-0.479-0.396-0.77-0.52c-0.291-0.124-0.603-0.186-0.937-0.186h-10.02
	v-6.494h8.721c0.358,0,0.696-0.062,1.011-0.186c0.315-0.124,0.59-0.293,0.826-0.51c0.235-0.216,0.42-0.47,0.557-0.761
	c0.136-0.291,0.204-0.603,0.204-0.937s-0.068-0.646-0.204-0.937c-0.136-0.291-0.322-0.547-0.557-0.77
	c-0.235-0.223-0.51-0.396-0.826-0.52c-0.315-0.124-0.653-0.186-1.011-0.186h-8.721v-6.012h9.556c0.358,0,0.696-0.062,1.011-0.186
	c0.315-0.124,0.59-0.293,0.826-0.51c0.235-0.216,0.42-0.47,0.557-0.761c0.136-0.291,0.204-0.603,0.204-0.937
	s-0.068-0.649-0.204-0.946c-0.136-0.297-0.322-0.553-0.557-0.77c-0.235-0.216-0.51-0.39-0.826-0.52s-0.653-0.195-1.011-0.195
	h-11.912c-0.965,0-1.732,0.124-2.301,0.371c-0.569,0.248-1.002,0.588-1.299,1.021c-0.297,0.433-0.489,0.95-0.575,1.549
	c-0.087,0.6-0.13,1.252-0.13,1.958v17.683c0,0.52,0.056,1.039,0.167,1.559s0.297,0.987,0.557,1.401
	c0.26,0.415,0.603,0.751,1.03,1.011s0.956,0.39,1.586,0.39H352.247z M318.76,232.969v18.425c0,0.507,0.089,0.98,0.269,1.419
	c0.179,0.439,0.423,0.823,0.733,1.15c0.309,0.328,0.671,0.584,1.085,0.77c0.414,0.186,0.863,0.278,1.345,0.278
	s0.931-0.093,1.345-0.278c0.414-0.186,0.779-0.442,1.095-0.77c0.315-0.328,0.562-0.711,0.742-1.15
	c0.179-0.439,0.269-0.912,0.269-1.419v-18.425h4.973c0.358,0,0.699-0.065,1.021-0.195c0.321-0.13,0.603-0.306,0.844-0.529
	s0.433-0.482,0.575-0.779c0.142-0.297,0.213-0.612,0.213-0.946s-0.071-0.652-0.213-0.956c-0.143-0.303-0.334-0.566-0.575-0.789
	s-0.523-0.399-0.844-0.529c-0.322-0.13-0.662-0.195-1.021-0.195h-16.94c-0.359,0-0.699,0.065-1.021,0.195
	c-0.322,0.13-0.603,0.306-0.844,0.529s-0.433,0.486-0.575,0.789c-0.143,0.303-0.213,0.622-0.213,0.956s0.071,0.649,0.213,0.946
	c0.142,0.297,0.334,0.557,0.575,0.779s0.522,0.399,0.844,0.529c0.321,0.13,0.662,0.195,1.021,0.195H318.76z"/>
<path d="M441.904,240.595v-8.368h3.433c0.742,0,1.419,0.068,2.032,0.204c0.611,0.136,1.138,0.359,1.576,0.668
	c0.439,0.31,0.782,0.714,1.03,1.215c0.247,0.501,0.371,1.185,0.371,2.05c0,0.878-0.13,1.577-0.39,2.097s-0.621,0.937-1.086,1.252
	c-0.463,0.315-1.023,0.542-1.679,0.677c-0.656,0.136-1.38,0.204-2.171,0.204H441.904z M441.904,244.733h4.249
	c1.633,0,3.123-0.17,4.472-0.51c1.348-0.34,2.502-0.856,3.461-1.549c0.958-0.692,1.7-1.562,2.227-2.607
	c0.525-1.045,0.788-2.279,0.788-3.702c0-1.645-0.304-3.006-0.909-4.082c-0.606-1.076-1.417-1.926-2.431-2.551
	c-1.015-0.625-2.181-1.061-3.497-1.308c-1.318-0.247-2.688-0.371-4.11-0.371h-6.698c-1.002,0-1.797,0.133-2.385,0.399
	c-0.587,0.266-1.032,0.628-1.336,1.085c-0.303,0.458-0.5,0.999-0.594,1.624c-0.092,0.625-0.139,1.29-0.139,1.995v18.239
	c0,0.507,0.09,0.98,0.27,1.419c0.179,0.439,0.423,0.823,0.732,1.15c0.309,0.328,0.671,0.584,1.086,0.77
	c0.414,0.186,0.862,0.278,1.345,0.278s0.931-0.093,1.345-0.278c0.415-0.186,0.779-0.442,1.096-0.77
	c0.314-0.328,0.565-0.711,0.751-1.15c0.186-0.439,0.278-0.912,0.278-1.419V244.733z"/>
<path d="M467.524,250.076l-0.019-18.406c0-0.507-0.09-0.98-0.269-1.419c-0.18-0.439-0.428-0.822-0.742-1.15
	c-0.316-0.328-0.681-0.584-1.096-0.77c-0.414-0.186-0.862-0.278-1.345-0.278s-0.931,0.093-1.345,0.278
	c-0.415,0.186-0.777,0.442-1.086,0.77c-0.31,0.328-0.554,0.711-0.732,1.15c-0.18,0.439-0.27,0.913-0.27,1.419v18.276
	c0,0.631,0.053,1.25,0.158,1.855c0.104,0.606,0.29,1.147,0.557,1.624c0.266,0.477,0.621,0.86,1.066,1.15
	c0.445,0.291,1.002,0.436,1.67,0.436h12.71c0.334,0,0.652-0.065,0.956-0.195c0.303-0.13,0.565-0.306,0.788-0.529
	s0.399-0.485,0.528-0.789c0.131-0.303,0.195-0.622,0.195-0.956s-0.064-0.652-0.195-0.956c-0.129-0.303-0.306-0.566-0.528-0.789
	s-0.485-0.399-0.788-0.529c-0.304-0.13-0.622-0.195-0.956-0.195H467.524z"/>
<path d="M1153.241,255.012c0.334,0,0.646-0.062,0.937-0.186c0.291-0.124,0.548-0.293,0.771-0.51c0.223-0.216,0.396-0.47,0.52-0.761
	c0.123-0.291,0.186-0.603,0.186-0.937s-0.062-0.646-0.186-0.937c-0.124-0.291-0.297-0.547-0.52-0.77s-0.479-0.396-0.771-0.52
	c-0.29-0.124-0.603-0.186-0.937-0.186h-10.02v-6.494h8.721c0.358,0,0.696-0.062,1.011-0.186c0.316-0.124,0.591-0.293,0.826-0.51
	c0.234-0.216,0.42-0.47,0.557-0.761c0.136-0.291,0.204-0.603,0.204-0.937s-0.068-0.646-0.204-0.937
	c-0.137-0.291-0.322-0.547-0.557-0.77c-0.235-0.223-0.51-0.396-0.826-0.52c-0.314-0.124-0.652-0.186-1.011-0.186h-8.721v-6.012
	h9.556c0.358,0,0.695-0.062,1.012-0.186c0.314-0.124,0.59-0.293,0.825-0.51c0.234-0.216,0.42-0.47,0.557-0.761
	c0.136-0.291,0.204-0.603,0.204-0.937s-0.068-0.649-0.204-0.946c-0.137-0.297-0.322-0.553-0.557-0.77
	c-0.235-0.216-0.511-0.39-0.825-0.52c-0.316-0.13-0.653-0.195-1.012-0.195h-11.912c-0.965,0-1.732,0.124-2.301,0.371
	c-0.569,0.248-1.002,0.588-1.299,1.021c-0.297,0.433-0.489,0.95-0.575,1.549c-0.087,0.6-0.13,1.252-0.13,1.958v17.683
	c0,0.52,0.056,1.039,0.167,1.559s0.297,0.987,0.557,1.401c0.26,0.415,0.603,0.751,1.03,1.011c0.426,0.26,0.955,0.39,1.586,0.39
	H1153.241z M1113.499,237.088l11.059,15.029c0.309,0.408,0.624,0.789,0.946,1.141c0.321,0.353,0.652,0.659,0.993,0.918
	c0.34,0.26,0.692,0.464,1.057,0.612c0.365,0.148,0.739,0.223,1.123,0.223c0.717,0,1.292-0.142,1.726-0.427
	c0.433-0.284,0.767-0.662,1.002-1.132c0.234-0.47,0.39-1.017,0.464-1.642c0.074-0.625,0.111-1.277,0.111-1.958v-18.889
	c0-0.408-0.077-0.789-0.232-1.141c-0.154-0.353-0.361-0.659-0.621-0.918s-0.566-0.467-0.918-0.622
	c-0.354-0.154-0.733-0.232-1.142-0.232s-0.788,0.078-1.142,0.232c-0.352,0.155-0.658,0.362-0.918,0.622s-0.464,0.566-0.612,0.918
	s-0.223,0.733-0.223,1.141v14.825l-10.947-14.844c-0.297-0.396-0.606-0.77-0.928-1.123c-0.322-0.353-0.656-0.659-1.002-0.918
	c-0.347-0.26-0.708-0.467-1.085-0.622c-0.378-0.154-0.765-0.232-1.16-0.232c-0.471,0-0.909,0.083-1.317,0.25
	s-0.764,0.412-1.067,0.733c-0.303,0.322-0.544,0.718-0.723,1.188c-0.18,0.47-0.27,1.008-0.27,1.614v20.262
	c0,0.408,0.074,0.789,0.223,1.141s0.353,0.659,0.612,0.918s0.565,0.467,0.919,0.622c0.352,0.155,0.732,0.232,1.141,0.232
	s0.789-0.077,1.141-0.232c0.354-0.154,0.662-0.362,0.928-0.622c0.267-0.26,0.477-0.566,0.631-0.918
	c0.155-0.353,0.232-0.733,0.232-1.141V237.088z M1103.001,231.67c0-0.507-0.09-0.98-0.27-1.419c-0.179-0.439-0.426-0.822-0.742-1.15
	c-0.314-0.328-0.68-0.584-1.094-0.77c-0.415-0.186-0.863-0.278-1.346-0.278s-0.931,0.093-1.346,0.278
	c-0.414,0.186-0.776,0.442-1.085,0.77c-0.31,0.328-0.554,0.711-0.733,1.15c-0.179,0.439-0.269,0.913-0.269,1.419v19.724
	c0,0.507,0.09,0.98,0.269,1.419c0.18,0.439,0.424,0.823,0.733,1.15c0.309,0.328,0.671,0.584,1.085,0.77
	c0.415,0.186,0.863,0.278,1.346,0.278s0.931-0.093,1.346-0.278c0.414-0.186,0.779-0.442,1.094-0.77
	c0.316-0.328,0.563-0.711,0.742-1.15c0.18-0.439,0.27-0.912,0.27-1.419V231.67z M1081.63,250.076l-0.019-18.406
	c0-0.507-0.09-0.98-0.269-1.419c-0.18-0.439-0.428-0.822-0.742-1.15c-0.316-0.328-0.681-0.584-1.096-0.77
	c-0.414-0.186-0.862-0.278-1.345-0.278s-0.931,0.093-1.345,0.278c-0.415,0.186-0.777,0.442-1.086,0.77
	c-0.31,0.328-0.554,0.711-0.732,1.15c-0.18,0.439-0.27,0.913-0.27,1.419v18.276c0,0.631,0.053,1.25,0.158,1.855
	c0.104,0.606,0.29,1.147,0.557,1.624c0.266,0.477,0.621,0.86,1.066,1.15c0.445,0.291,1.002,0.436,1.67,0.436h12.71
	c0.334,0,0.652-0.065,0.956-0.195c0.303-0.13,0.565-0.306,0.788-0.529s0.399-0.485,0.528-0.789c0.131-0.303,0.195-0.622,0.195-0.956
	s-0.064-0.652-0.195-0.956c-0.129-0.303-0.306-0.566-0.528-0.789s-0.485-0.399-0.788-0.529c-0.304-0.13-0.622-0.195-0.956-0.195
	H1081.63z M1040.613,237.088l11.059,15.029c0.309,0.408,0.624,0.789,0.946,1.141c0.321,0.353,0.652,0.659,0.993,0.918
	c0.34,0.26,0.692,0.464,1.057,0.612c0.365,0.148,0.739,0.223,1.123,0.223c0.717,0,1.292-0.142,1.726-0.427
	c0.433-0.284,0.767-0.662,1.002-1.132c0.234-0.47,0.39-1.017,0.464-1.642c0.074-0.625,0.111-1.277,0.111-1.958v-18.889
	c0-0.408-0.077-0.789-0.232-1.141c-0.154-0.353-0.361-0.659-0.621-0.918s-0.566-0.467-0.918-0.622
	c-0.354-0.154-0.733-0.232-1.142-0.232s-0.788,0.078-1.142,0.232c-0.352,0.155-0.658,0.362-0.918,0.622s-0.464,0.566-0.612,0.918
	s-0.223,0.733-0.223,1.141v14.825l-10.947-14.844c-0.297-0.396-0.606-0.77-0.928-1.123c-0.322-0.353-0.656-0.659-1.002-0.918
	c-0.347-0.26-0.708-0.467-1.085-0.622c-0.378-0.154-0.765-0.232-1.16-0.232c-0.471,0-0.909,0.083-1.317,0.25
	s-0.764,0.412-1.067,0.733c-0.303,0.322-0.544,0.718-0.723,1.188c-0.18,0.47-0.27,1.008-0.27,1.614v20.262
	c0,0.408,0.074,0.789,0.223,1.141s0.353,0.659,0.612,0.918s0.565,0.467,0.919,0.622c0.352,0.155,0.732,0.232,1.141,0.232
	s0.789-0.077,1.141-0.232c0.354-0.154,0.662-0.362,0.928-0.622c0.267-0.26,0.477-0.566,0.631-0.918
	c0.155-0.353,0.232-0.733,0.232-1.141V237.088z M1030.115,231.67c0-0.507-0.09-0.98-0.27-1.419c-0.179-0.439-0.426-0.822-0.742-1.15
	c-0.314-0.328-0.68-0.584-1.094-0.77c-0.415-0.186-0.863-0.278-1.346-0.278s-0.931,0.093-1.346,0.278
	c-0.414,0.186-0.776,0.442-1.085,0.77c-0.31,0.328-0.554,0.711-0.733,1.15c-0.179,0.439-0.269,0.913-0.269,1.419v19.724
	c0,0.507,0.09,0.98,0.269,1.419c0.18,0.439,0.424,0.823,0.733,1.15c0.309,0.328,0.671,0.584,1.085,0.77
	c0.415,0.186,0.863,0.278,1.346,0.278s0.931-0.093,1.346-0.278c0.414-0.186,0.779-0.442,1.094-0.77
	c0.316-0.328,0.563-0.711,0.742-1.15c0.18-0.439,0.27-0.912,0.27-1.419V231.67z M995.24,232.969v18.425
	c0,0.507,0.09,0.98,0.269,1.419c0.18,0.439,0.424,0.823,0.733,1.15c0.309,0.328,0.671,0.584,1.085,0.77
	c0.415,0.186,0.863,0.278,1.346,0.278s0.931-0.093,1.346-0.278c0.414-0.186,0.779-0.442,1.094-0.77
	c0.316-0.328,0.563-0.711,0.742-1.15c0.18-0.439,0.27-0.912,0.27-1.419v-18.425h4.973c0.358,0,0.698-0.065,1.021-0.195
	c0.321-0.13,0.603-0.306,0.845-0.529c0.24-0.223,0.433-0.482,0.574-0.779c0.143-0.297,0.214-0.612,0.214-0.946
	s-0.071-0.652-0.214-0.956c-0.142-0.303-0.334-0.566-0.574-0.789c-0.242-0.223-0.523-0.399-0.845-0.529
	c-0.322-0.13-0.662-0.195-1.021-0.195h-16.94c-0.359,0-0.699,0.065-1.021,0.195c-0.322,0.13-0.604,0.306-0.844,0.529
	c-0.242,0.223-0.434,0.486-0.576,0.789c-0.142,0.303-0.213,0.622-0.213,0.956s0.071,0.649,0.213,0.946
	c0.143,0.297,0.334,0.557,0.576,0.779c0.24,0.223,0.521,0.399,0.844,0.529c0.321,0.13,0.661,0.195,1.021,0.195H995.24z
	 M962.429,247.367c0.576,1.732,1.426,3.213,2.552,4.444c1.125,1.231,2.515,2.18,4.165,2.848c1.652,0.668,3.547,1.002,5.688,1.002
	c2.189,0,4.112-0.347,5.771-1.039c1.657-0.692,3.043-1.661,4.156-2.904s1.948-2.73,2.505-4.462c0.557-1.731,0.835-3.63,0.835-5.696
	c0-2.103-0.285-4.02-0.854-5.752c-0.569-1.731-1.41-3.219-2.523-4.462s-2.499-2.205-4.156-2.885
	c-1.658-0.68-3.569-1.021-5.733-1.021c-2.227,0-4.169,0.353-5.826,1.058c-1.658,0.705-3.037,1.683-4.138,2.932
	c-1.102,1.25-1.927,2.74-2.478,4.472c-0.55,1.732-0.825,3.618-0.825,5.659C961.567,243.7,961.855,245.636,962.429,247.367z
	 M969.146,237.598c0.242-1.156,0.609-2.13,1.104-2.922c0.494-0.792,1.122-1.395,1.884-1.809c0.76-0.414,1.66-0.622,2.699-0.622
	c1.051,0,1.957,0.208,2.719,0.622c0.76,0.415,1.388,1.018,1.883,1.809c0.494,0.792,0.863,1.766,1.104,2.922
	c0.242,1.157,0.362,2.477,0.362,3.961c0,3.08-0.501,5.399-1.503,6.958s-2.523,2.338-4.564,2.338c-2.078,0-3.606-0.782-4.583-2.347
	c-0.978-1.564-1.466-3.881-1.466-6.949C968.785,240.076,968.906,238.755,969.146,237.598z M944.742,240.595v-8.368h3.433
	c0.742,0,1.419,0.068,2.032,0.204c0.611,0.136,1.138,0.359,1.576,0.668c0.439,0.31,0.782,0.714,1.03,1.215
	c0.247,0.501,0.371,1.185,0.371,2.05c0,0.878-0.13,1.577-0.39,2.097s-0.621,0.937-1.086,1.252c-0.463,0.315-1.023,0.542-1.679,0.677
	c-0.656,0.136-1.38,0.204-2.171,0.204H944.742z M944.742,244.733h4.249c1.633,0,3.123-0.17,4.472-0.51
	c1.348-0.34,2.502-0.856,3.461-1.549c0.958-0.692,1.7-1.562,2.227-2.607c0.525-1.045,0.788-2.279,0.788-3.702
	c0-1.645-0.304-3.006-0.909-4.082c-0.606-1.076-1.417-1.926-2.431-2.551c-1.015-0.625-2.181-1.061-3.497-1.308
	c-1.318-0.247-2.688-0.371-4.11-0.371h-6.698c-1.002,0-1.797,0.133-2.385,0.399c-0.587,0.266-1.032,0.628-1.336,1.085
	c-0.303,0.458-0.5,0.999-0.594,1.624c-0.092,0.625-0.139,1.29-0.139,1.995v18.239c0,0.507,0.09,0.98,0.27,1.419
	c0.179,0.439,0.423,0.823,0.732,1.15c0.309,0.328,0.671,0.584,1.086,0.77c0.414,0.186,0.862,0.278,1.345,0.278
	s0.931-0.093,1.345-0.278c0.415-0.186,0.779-0.442,1.096-0.77c0.314-0.328,0.565-0.711,0.751-1.15
	c0.186-0.439,0.278-0.912,0.278-1.419V244.733z M919.5,233.785c0.279-0.358,0.644-0.652,1.096-0.881
	c0.451-0.229,0.965-0.396,1.539-0.501c0.576-0.105,1.16-0.158,1.754-0.158c0.631,0,1.209,0.031,1.734,0.093
	c0.526,0.062,1.036,0.161,1.531,0.297c0.494,0.136,0.992,0.31,1.494,0.52c0.5,0.21,1.041,0.464,1.623,0.761
	c0.309,0.161,0.649,0.241,1.021,0.241c0.284,0,0.56-0.052,0.825-0.158c0.267-0.105,0.498-0.25,0.696-0.436
	c0.197-0.186,0.355-0.408,0.474-0.668c0.117-0.26,0.176-0.544,0.176-0.854c0-0.532-0.158-1.014-0.473-1.447
	c-0.316-0.433-0.733-0.819-1.253-1.16c-0.52-0.34-1.116-0.637-1.79-0.891c-0.675-0.253-1.377-0.46-2.106-0.622
	c-0.73-0.161-1.46-0.281-2.189-0.362c-0.73-0.08-1.404-0.121-2.022-0.121c-1.707,0-3.244,0.192-4.611,0.575
	c-1.366,0.384-2.529,0.928-3.488,1.633c-0.958,0.705-1.694,1.559-2.207,2.561c-0.514,1.002-0.771,2.122-0.771,3.358
	c0,0.94,0.12,1.766,0.362,2.477c0.24,0.711,0.614,1.345,1.122,1.902c0.507,0.557,1.162,1.058,1.967,1.503
	c0.804,0.445,1.769,0.872,2.895,1.28l1.744,0.612c0.148,0.05,0.278,0.096,0.39,0.139c0.111,0.043,0.226,0.087,0.344,0.13
	c0.117,0.043,0.25,0.087,0.398,0.13c0.148,0.043,0.327,0.09,0.538,0.139l0.965,0.278c0.173,0.05,0.334,0.102,0.482,0.158
	s0.303,0.108,0.464,0.158l0.835,0.297c0.383,0.136,0.748,0.294,1.095,0.473c0.346,0.18,0.649,0.39,0.909,0.631
	s0.464,0.523,0.612,0.844c0.148,0.322,0.223,0.687,0.223,1.095c0,0.544-0.124,1.008-0.371,1.392
	c-0.248,0.384-0.584,0.696-1.012,0.937c-0.426,0.241-0.921,0.421-1.484,0.538c-0.562,0.118-1.159,0.176-1.79,0.176
	c-1.163,0-2.276-0.154-3.34-0.464c-1.064-0.309-2.022-0.655-2.876-1.039c-0.26-0.099-0.504-0.21-0.732-0.334
	c-0.229-0.124-0.452-0.238-0.668-0.343c-0.217-0.105-0.431-0.195-0.641-0.269c-0.211-0.074-0.427-0.111-0.649-0.111
	c-0.248,0-0.498,0.074-0.751,0.223c-0.254,0.148-0.482,0.343-0.688,0.584c-0.203,0.241-0.371,0.51-0.5,0.807
	c-0.131,0.297-0.195,0.6-0.195,0.909c0,0.482,0.154,0.937,0.464,1.364c0.309,0.427,0.735,0.82,1.28,1.178
	c0.544,0.359,1.181,0.681,1.911,0.965c0.729,0.285,1.509,0.526,2.338,0.724c0.828,0.198,1.688,0.349,2.579,0.455
	c0.891,0.105,1.774,0.158,2.653,0.158c1.707,0,3.244-0.195,4.61-0.584c1.367-0.39,2.533-0.949,3.498-1.679
	c0.965-0.729,1.704-1.614,2.217-2.653c0.514-1.039,0.771-2.208,0.771-3.507c0-1.188-0.207-2.205-0.622-3.052
	c-0.414-0.847-1.002-1.58-1.762-2.199c-0.762-0.618-1.677-1.15-2.746-1.596c-1.07-0.445-2.262-0.866-3.572-1.262
	c-0.816-0.235-1.627-0.464-2.431-0.687c-0.805-0.223-1.524-0.482-2.161-0.779c-0.638-0.297-1.154-0.649-1.55-1.058
	c-0.396-0.408-0.594-0.909-0.594-1.503C919.083,234.583,919.223,234.144,919.5,233.785z M882.872,239.612v-7.385h2.802
	c0.754,0,1.481,0.028,2.181,0.083c0.698,0.056,1.313,0.201,1.846,0.436c0.531,0.235,0.958,0.588,1.28,1.058
	c0.321,0.47,0.482,1.175,0.482,2.115c0,0.816-0.167,1.469-0.501,1.958c-0.334,0.489-0.77,0.86-1.309,1.113
	c-0.537,0.254-1.141,0.421-1.809,0.501c-0.668,0.081-1.336,0.121-2.004,0.121H882.872z M882.984,243.916h3.767
	c0.915,0,1.636,0.093,2.161,0.278c0.526,0.186,0.931,0.501,1.216,0.946c0.284,0.445,0.491,1.03,0.622,1.753
	c0.129,0.724,0.256,1.624,0.38,2.7c0.086,0.742,0.201,1.438,0.343,2.087c0.143,0.649,0.35,1.222,0.622,1.716
	c0.271,0.495,0.615,0.885,1.03,1.169c0.414,0.285,0.93,0.427,1.549,0.427c0.68,0,1.236-0.089,1.67-0.269
	c0.433-0.179,0.772-0.43,1.021-0.751c0.247-0.321,0.42-0.705,0.52-1.15c0.099-0.445,0.148-0.934,0.148-1.466
	c0-0.247-0.007-0.498-0.019-0.751c-0.013-0.253-0.031-0.516-0.056-0.789c-0.087-0.977-0.18-1.852-0.278-2.625
	c-0.1-0.773-0.229-1.462-0.39-2.069c-0.161-0.606-0.365-1.132-0.612-1.577c-0.248-0.445-0.569-0.826-0.965-1.141
	c-0.396-0.315-0.875-0.569-1.438-0.761c-0.563-0.191-1.241-0.337-2.032-0.436v-0.074c1.101-0.186,2.032-0.473,2.792-0.863
	c0.762-0.39,1.376-0.859,1.847-1.41c0.47-0.55,0.81-1.169,1.021-1.855c0.21-0.687,0.315-1.413,0.315-2.18
	c0-1.41-0.288-2.554-0.862-3.433c-0.576-0.878-1.343-1.564-2.301-2.06c-0.959-0.495-2.069-0.832-3.331-1.011
	c-1.262-0.179-2.579-0.269-3.952-0.269h-7.44c-0.569,0-1.11,0.071-1.624,0.213c-0.513,0.143-0.962,0.356-1.345,0.64
	c-0.384,0.285-0.689,0.64-0.919,1.067c-0.229,0.427-0.343,0.925-0.343,1.494v19.928c0,0.507,0.09,0.98,0.269,1.419
	c0.18,0.439,0.424,0.823,0.733,1.15c0.309,0.328,0.671,0.584,1.085,0.77c0.415,0.186,0.863,0.278,1.346,0.278
	s0.931-0.093,1.346-0.278c0.414-0.186,0.779-0.442,1.094-0.77c0.316-0.328,0.563-0.711,0.742-1.15c0.18-0.439,0.27-0.912,0.27-1.419
	V243.916z M864.637,245.772c0,0.891-0.14,1.658-0.417,2.301c-0.279,0.644-0.641,1.169-1.086,1.577s-0.949,0.711-1.512,0.909
	c-0.563,0.198-1.142,0.297-1.735,0.297c-0.582,0-1.153-0.099-1.716-0.297c-0.563-0.198-1.064-0.501-1.504-0.909
	c-0.438-0.408-0.795-0.934-1.066-1.577c-0.272-0.643-0.408-1.41-0.408-2.301l-0.019-14.102c0-0.507-0.09-0.98-0.269-1.419
	c-0.18-0.439-0.428-0.822-0.742-1.15c-0.316-0.328-0.681-0.584-1.096-0.77c-0.414-0.186-0.862-0.278-1.345-0.278
	s-0.931,0.093-1.345,0.278c-0.415,0.186-0.777,0.442-1.086,0.77c-0.31,0.328-0.554,0.711-0.732,1.15
	c-0.18,0.439-0.27,0.913-0.27,1.419v14.213c0,1.658,0.29,3.099,0.872,4.323c0.581,1.225,1.389,2.239,2.421,3.043
	c1.033,0.804,2.258,1.407,3.674,1.809c1.417,0.402,2.96,0.603,4.63,0.603c1.694,0,3.253-0.204,4.676-0.612
	c1.422-0.408,2.65-1.021,3.683-1.837c1.033-0.816,1.838-1.833,2.412-3.052c0.576-1.218,0.863-2.644,0.863-4.277V231.67
	c0-0.507-0.09-0.98-0.27-1.419c-0.179-0.439-0.426-0.822-0.742-1.15c-0.314-0.328-0.68-0.584-1.094-0.77
	c-0.415-0.186-0.863-0.278-1.346-0.278s-0.931,0.093-1.346,0.278c-0.414,0.186-0.776,0.442-1.085,0.77
	c-0.31,0.328-0.554,0.711-0.733,1.15c-0.179,0.439-0.269,0.913-0.269,1.419V245.772z M819.747,247.367
	c0.576,1.732,1.426,3.213,2.552,4.444c1.125,1.231,2.515,2.18,4.165,2.848c1.652,0.668,3.547,1.002,5.688,1.002
	c2.189,0,4.112-0.347,5.771-1.039c1.657-0.692,3.043-1.661,4.156-2.904s1.948-2.73,2.505-4.462c0.557-1.731,0.835-3.63,0.835-5.696
	c0-2.103-0.285-4.02-0.854-5.752c-0.569-1.731-1.41-3.219-2.523-4.462s-2.499-2.205-4.156-2.885
	c-1.658-0.68-3.569-1.021-5.733-1.021c-2.227,0-4.169,0.353-5.826,1.058c-1.658,0.705-3.037,1.683-4.138,2.932
	c-1.102,1.25-1.927,2.74-2.478,4.472c-0.55,1.732-0.825,3.618-0.825,5.659C818.885,243.7,819.173,245.636,819.747,247.367z
	 M826.464,237.598c0.242-1.156,0.609-2.13,1.104-2.922c0.494-0.792,1.122-1.395,1.884-1.809c0.76-0.414,1.66-0.622,2.699-0.622
	c1.051,0,1.957,0.208,2.719,0.622c0.76,0.415,1.388,1.018,1.883,1.809c0.494,0.792,0.863,1.766,1.104,2.922
	c0.242,1.157,0.362,2.477,0.362,3.961c0,3.08-0.501,5.399-1.503,6.958s-2.523,2.338-4.564,2.338c-2.078,0-3.606-0.782-4.583-2.347
	c-0.978-1.564-1.466-3.881-1.466-6.949C826.103,240.076,826.224,238.755,826.464,237.598z M811.151,244.584l7.106-11.819
	c0.234-0.383,0.401-0.751,0.501-1.104c0.099-0.353,0.148-0.689,0.148-1.011c0-0.383-0.068-0.736-0.204-1.058
	c-0.137-0.321-0.322-0.594-0.557-0.816c-0.235-0.223-0.51-0.396-0.826-0.52c-0.314-0.124-0.646-0.186-0.992-0.186
	c-0.582,0-1.157,0.18-1.726,0.538c-0.569,0.359-1.064,0.946-1.484,1.763l-5.084,9.778h-0.074l-4.88-9.704
	c-0.408-0.854-0.909-1.466-1.503-1.837s-1.188-0.557-1.781-0.557c-0.396,0-0.776,0.074-1.142,0.223
	c-0.364,0.148-0.686,0.359-0.965,0.631c-0.277,0.272-0.5,0.597-0.668,0.974c-0.166,0.377-0.25,0.795-0.25,1.252
	c0,0.347,0.049,0.702,0.148,1.067c0.099,0.365,0.266,0.739,0.501,1.123l6.81,11.374v6.698c0,0.507,0.09,0.98,0.27,1.419
	c0.179,0.439,0.423,0.823,0.732,1.15c0.309,0.328,0.671,0.584,1.086,0.77c0.414,0.186,0.862,0.278,1.345,0.278
	s0.931-0.093,1.345-0.278c0.415-0.186,0.779-0.442,1.096-0.77c0.314-0.328,0.565-0.711,0.751-1.15
	c0.186-0.439,0.284-0.912,0.297-1.419V244.584z M784.18,255.012c0.334,0,0.646-0.062,0.937-0.186
	c0.291-0.124,0.548-0.293,0.771-0.51c0.223-0.216,0.396-0.47,0.52-0.761c0.123-0.291,0.186-0.603,0.186-0.937
	s-0.062-0.646-0.186-0.937c-0.124-0.291-0.297-0.547-0.52-0.77s-0.479-0.396-0.771-0.52c-0.29-0.124-0.603-0.186-0.937-0.186h-10.02
	v-6.494h8.721c0.358,0,0.696-0.062,1.011-0.186c0.316-0.124,0.591-0.293,0.826-0.51c0.234-0.216,0.42-0.47,0.557-0.761
	c0.136-0.291,0.204-0.603,0.204-0.937s-0.068-0.646-0.204-0.937c-0.137-0.291-0.322-0.547-0.557-0.77
	c-0.235-0.223-0.51-0.396-0.826-0.52c-0.314-0.124-0.652-0.186-1.011-0.186h-8.721v-6.012h9.556c0.358,0,0.695-0.062,1.012-0.186
	c0.314-0.124,0.59-0.293,0.825-0.51c0.234-0.216,0.42-0.47,0.557-0.761c0.136-0.291,0.204-0.603,0.204-0.937
	s-0.068-0.649-0.204-0.946c-0.137-0.297-0.322-0.553-0.557-0.77c-0.235-0.216-0.511-0.39-0.825-0.52
	c-0.316-0.13-0.653-0.195-1.012-0.195h-11.912c-0.965,0-1.732,0.124-2.301,0.371c-0.569,0.248-1.002,0.588-1.299,1.021
	c-0.297,0.433-0.489,0.95-0.575,1.549c-0.087,0.6-0.13,1.252-0.13,1.958v17.683c0,0.52,0.056,1.039,0.167,1.559
	s0.297,0.987,0.557,1.401c0.26,0.415,0.603,0.751,1.03,1.011c0.426,0.26,0.955,0.39,1.586,0.39H784.18z M746.332,231.151
	c-0.161-0.544-0.365-1.011-0.612-1.401c-0.248-0.39-0.522-0.708-0.826-0.956c-0.303-0.247-0.624-0.43-0.965-0.547
	c-0.34-0.117-0.677-0.176-1.011-0.176c-0.396,0-0.773,0.074-1.132,0.223c-0.359,0.148-0.681,0.362-0.965,0.64
	c-0.285,0.278-0.51,0.609-0.678,0.993c-0.166,0.384-0.25,0.816-0.25,1.299c0,0.21,0.016,0.427,0.047,0.649
	c0.03,0.223,0.089,0.458,0.176,0.705l5.177,15.679c0.433,1.312,0.847,2.4,1.243,3.266c0.396,0.866,0.838,1.559,1.326,2.078
	c0.489,0.52,1.055,0.885,1.698,1.095c0.643,0.21,1.435,0.315,2.375,0.315c1.026,0,1.886-0.145,2.579-0.436
	c0.692-0.291,1.286-0.739,1.781-1.345c0.494-0.606,0.931-1.364,1.309-2.273c0.377-0.909,0.77-1.988,1.178-3.238l4.824-14.899
	c0.197-0.631,0.297-1.225,0.297-1.781c0-0.482-0.074-0.909-0.223-1.28s-0.35-0.68-0.604-0.928c-0.253-0.247-0.544-0.436-0.871-0.566
	c-0.328-0.13-0.672-0.195-1.03-0.195c-0.347,0-0.696,0.062-1.048,0.186c-0.354,0.124-0.688,0.31-1.002,0.557
	c-0.316,0.248-0.604,0.56-0.863,0.937c-0.26,0.377-0.464,0.826-0.612,1.345l-5.622,18.889h-0.093L746.332,231.151z M722.734,239.612
	v-7.385h2.802c0.754,0,1.481,0.028,2.181,0.083c0.698,0.056,1.313,0.201,1.846,0.436c0.531,0.235,0.958,0.588,1.28,1.058
	c0.321,0.47,0.482,1.175,0.482,2.115c0,0.816-0.167,1.469-0.501,1.958c-0.334,0.489-0.77,0.86-1.309,1.113
	c-0.537,0.254-1.141,0.421-1.809,0.501c-0.668,0.081-1.336,0.121-2.004,0.121H722.734z M722.845,243.916h3.767
	c0.915,0,1.636,0.093,2.161,0.278c0.526,0.186,0.931,0.501,1.216,0.946c0.284,0.445,0.491,1.03,0.622,1.753
	c0.129,0.724,0.256,1.624,0.38,2.7c0.086,0.742,0.201,1.438,0.343,2.087c0.143,0.649,0.35,1.222,0.622,1.716
	c0.271,0.495,0.615,0.885,1.03,1.169c0.414,0.285,0.93,0.427,1.549,0.427c0.68,0,1.236-0.089,1.67-0.269
	c0.433-0.179,0.772-0.43,1.021-0.751c0.247-0.321,0.42-0.705,0.52-1.15c0.099-0.445,0.148-0.934,0.148-1.466
	c0-0.247-0.007-0.498-0.019-0.751c-0.013-0.253-0.031-0.516-0.056-0.789c-0.087-0.977-0.18-1.852-0.278-2.625
	c-0.1-0.773-0.229-1.462-0.39-2.069c-0.161-0.606-0.365-1.132-0.612-1.577c-0.248-0.445-0.569-0.826-0.965-1.141
	c-0.396-0.315-0.875-0.569-1.438-0.761c-0.563-0.191-1.241-0.337-2.032-0.436v-0.074c1.101-0.186,2.032-0.473,2.792-0.863
	c0.762-0.39,1.376-0.859,1.847-1.41c0.47-0.55,0.81-1.169,1.021-1.855c0.21-0.687,0.315-1.413,0.315-2.18
	c0-1.41-0.288-2.554-0.862-3.433c-0.576-0.878-1.343-1.564-2.301-2.06c-0.959-0.495-2.069-0.832-3.331-1.011
	c-1.262-0.179-2.579-0.269-3.952-0.269h-7.44c-0.569,0-1.11,0.071-1.624,0.213c-0.513,0.143-0.962,0.356-1.345,0.64
	c-0.384,0.285-0.689,0.64-0.919,1.067c-0.229,0.427-0.343,0.925-0.343,1.494v19.928c0,0.507,0.09,0.98,0.269,1.419
	c0.18,0.439,0.424,0.823,0.733,1.15c0.309,0.328,0.671,0.584,1.085,0.77c0.415,0.186,0.863,0.278,1.346,0.278
	s0.931-0.093,1.346-0.278c0.414-0.186,0.779-0.442,1.094-0.77c0.316-0.328,0.563-0.711,0.742-1.15c0.18-0.439,0.27-0.912,0.27-1.419
	V243.916z M709.972,255.012c0.334,0,0.646-0.062,0.937-0.186c0.291-0.124,0.548-0.293,0.771-0.51c0.223-0.216,0.396-0.47,0.52-0.761
	c0.123-0.291,0.186-0.603,0.186-0.937s-0.062-0.646-0.186-0.937c-0.124-0.291-0.297-0.547-0.52-0.77s-0.479-0.396-0.771-0.52
	c-0.29-0.124-0.603-0.186-0.937-0.186h-10.02v-6.494h8.721c0.358,0,0.696-0.062,1.011-0.186c0.316-0.124,0.591-0.293,0.826-0.51
	c0.234-0.216,0.42-0.47,0.557-0.761c0.136-0.291,0.204-0.603,0.204-0.937s-0.068-0.646-0.204-0.937
	c-0.137-0.291-0.322-0.547-0.557-0.77c-0.235-0.223-0.51-0.396-0.826-0.52c-0.314-0.124-0.652-0.186-1.011-0.186h-8.721v-6.012
	h9.556c0.358,0,0.695-0.062,1.012-0.186c0.314-0.124,0.59-0.293,0.825-0.51c0.234-0.216,0.42-0.47,0.557-0.761
	c0.136-0.291,0.204-0.603,0.204-0.937s-0.068-0.649-0.204-0.946c-0.137-0.297-0.322-0.553-0.557-0.77
	c-0.235-0.216-0.511-0.39-0.825-0.52c-0.316-0.13-0.653-0.195-1.012-0.195h-11.912c-0.965,0-1.732,0.124-2.301,0.371
	c-0.569,0.248-1.002,0.588-1.299,1.021c-0.297,0.433-0.489,0.95-0.575,1.549c-0.087,0.6-0.13,1.252-0.13,1.958v17.683
	c0,0.52,0.056,1.039,0.167,1.559s0.297,0.987,0.557,1.401c0.26,0.415,0.603,0.751,1.03,1.011c0.426,0.26,0.955,0.39,1.586,0.39
	H709.972z M674.916,233.785c0.279-0.358,0.644-0.652,1.096-0.881c0.451-0.229,0.965-0.396,1.539-0.501
	c0.576-0.105,1.16-0.158,1.754-0.158c0.631,0,1.209,0.031,1.734,0.093c0.526,0.062,1.036,0.161,1.531,0.297
	c0.494,0.136,0.992,0.31,1.494,0.52c0.5,0.21,1.041,0.464,1.623,0.761c0.309,0.161,0.649,0.241,1.021,0.241
	c0.284,0,0.56-0.052,0.825-0.158c0.267-0.105,0.498-0.25,0.696-0.436c0.197-0.186,0.355-0.408,0.474-0.668
	c0.117-0.26,0.176-0.544,0.176-0.854c0-0.532-0.158-1.014-0.473-1.447c-0.316-0.433-0.733-0.819-1.253-1.16
	c-0.52-0.34-1.116-0.637-1.79-0.891c-0.675-0.253-1.377-0.46-2.106-0.622c-0.73-0.161-1.46-0.281-2.189-0.362
	c-0.73-0.08-1.404-0.121-2.022-0.121c-1.707,0-3.244,0.192-4.611,0.575c-1.366,0.384-2.529,0.928-3.488,1.633
	c-0.958,0.705-1.694,1.559-2.207,2.561c-0.514,1.002-0.771,2.122-0.771,3.358c0,0.94,0.12,1.766,0.362,2.477
	c0.24,0.711,0.614,1.345,1.122,1.902c0.507,0.557,1.162,1.058,1.967,1.503c0.804,0.445,1.769,0.872,2.895,1.28l1.744,0.612
	c0.148,0.05,0.278,0.096,0.39,0.139c0.111,0.043,0.226,0.087,0.344,0.13c0.117,0.043,0.25,0.087,0.398,0.13
	c0.148,0.043,0.327,0.09,0.538,0.139l0.965,0.278c0.173,0.05,0.334,0.102,0.482,0.158s0.303,0.108,0.464,0.158l0.835,0.297
	c0.383,0.136,0.748,0.294,1.095,0.473c0.346,0.18,0.649,0.39,0.909,0.631s0.464,0.523,0.612,0.844
	c0.148,0.322,0.223,0.687,0.223,1.095c0,0.544-0.124,1.008-0.371,1.392c-0.248,0.384-0.584,0.696-1.012,0.937
	c-0.426,0.241-0.921,0.421-1.484,0.538c-0.562,0.118-1.159,0.176-1.79,0.176c-1.163,0-2.276-0.154-3.34-0.464
	c-1.064-0.309-2.022-0.655-2.876-1.039c-0.26-0.099-0.504-0.21-0.732-0.334c-0.229-0.124-0.452-0.238-0.668-0.343
	c-0.217-0.105-0.431-0.195-0.641-0.269c-0.211-0.074-0.427-0.111-0.649-0.111c-0.248,0-0.498,0.074-0.751,0.223
	c-0.254,0.148-0.482,0.343-0.688,0.584c-0.203,0.241-0.371,0.51-0.5,0.807c-0.131,0.297-0.195,0.6-0.195,0.909
	c0,0.482,0.154,0.937,0.464,1.364c0.309,0.427,0.735,0.82,1.28,1.178c0.544,0.359,1.181,0.681,1.911,0.965
	c0.729,0.285,1.509,0.526,2.338,0.724c0.828,0.198,1.688,0.349,2.579,0.455c0.891,0.105,1.774,0.158,2.653,0.158
	c1.707,0,3.244-0.195,4.61-0.584c1.367-0.39,2.533-0.949,3.498-1.679c0.965-0.729,1.704-1.614,2.217-2.653
	c0.514-1.039,0.771-2.208,0.771-3.507c0-1.188-0.207-2.205-0.622-3.052c-0.414-0.847-1.002-1.58-1.762-2.199
	c-0.762-0.618-1.677-1.15-2.746-1.596c-1.07-0.445-2.262-0.866-3.572-1.262c-0.816-0.235-1.627-0.464-2.431-0.687
	c-0.805-0.223-1.524-0.482-2.161-0.779c-0.638-0.297-1.154-0.649-1.55-1.058c-0.396-0.408-0.594-0.909-0.594-1.503
	C674.499,234.583,674.639,234.144,674.916,233.785z M662.832,255.012c0.334,0,0.646-0.062,0.937-0.186
	c0.291-0.124,0.548-0.293,0.771-0.51c0.223-0.216,0.396-0.47,0.52-0.761c0.123-0.291,0.186-0.603,0.186-0.937
	s-0.062-0.646-0.186-0.937c-0.124-0.291-0.297-0.547-0.52-0.77s-0.479-0.396-0.771-0.52c-0.29-0.124-0.603-0.186-0.937-0.186h-10.02
	v-6.494h8.721c0.358,0,0.696-0.062,1.011-0.186c0.316-0.124,0.591-0.293,0.826-0.51c0.234-0.216,0.42-0.47,0.557-0.761
	c0.136-0.291,0.204-0.603,0.204-0.937s-0.068-0.646-0.204-0.937c-0.137-0.291-0.322-0.547-0.557-0.77
	c-0.235-0.223-0.51-0.396-0.826-0.52c-0.314-0.124-0.652-0.186-1.011-0.186h-8.721v-6.012h9.556c0.358,0,0.695-0.062,1.012-0.186
	c0.314-0.124,0.59-0.293,0.825-0.51c0.234-0.216,0.42-0.47,0.557-0.761c0.136-0.291,0.204-0.603,0.204-0.937
	s-0.068-0.649-0.204-0.946c-0.137-0.297-0.322-0.553-0.557-0.77c-0.235-0.216-0.511-0.39-0.825-0.52
	c-0.316-0.13-0.653-0.195-1.012-0.195h-11.912c-0.965,0-1.732,0.124-2.301,0.371c-0.569,0.248-1.002,0.588-1.299,1.021
	c-0.297,0.433-0.489,0.95-0.575,1.549c-0.087,0.6-0.13,1.252-0.13,1.958v17.683c0,0.52,0.056,1.039,0.167,1.559
	s0.297,0.987,0.557,1.401c0.26,0.415,0.603,0.751,1.03,1.011c0.426,0.26,0.955,0.39,1.586,0.39H662.832z M626.729,239.612v-7.385
	h2.802c0.754,0,1.481,0.028,2.181,0.083c0.698,0.056,1.313,0.201,1.846,0.436c0.531,0.235,0.958,0.588,1.28,1.058
	c0.321,0.47,0.482,1.175,0.482,2.115c0,0.816-0.167,1.469-0.501,1.958c-0.334,0.489-0.77,0.86-1.309,1.113
	c-0.537,0.254-1.141,0.421-1.809,0.501c-0.668,0.081-1.336,0.121-2.004,0.121H626.729z M626.84,243.916h3.767
	c0.915,0,1.636,0.093,2.161,0.278c0.526,0.186,0.931,0.501,1.216,0.946c0.284,0.445,0.491,1.03,0.622,1.753
	c0.129,0.724,0.256,1.624,0.38,2.7c0.086,0.742,0.201,1.438,0.343,2.087c0.143,0.649,0.35,1.222,0.622,1.716
	c0.271,0.495,0.615,0.885,1.03,1.169c0.414,0.285,0.93,0.427,1.549,0.427c0.68,0,1.236-0.089,1.67-0.269
	c0.433-0.179,0.772-0.43,1.021-0.751c0.247-0.321,0.42-0.705,0.52-1.15c0.099-0.445,0.148-0.934,0.148-1.466
	c0-0.247-0.007-0.498-0.019-0.751c-0.013-0.253-0.031-0.516-0.056-0.789c-0.087-0.977-0.18-1.852-0.278-2.625
	c-0.1-0.773-0.229-1.462-0.39-2.069c-0.161-0.606-0.365-1.132-0.612-1.577c-0.248-0.445-0.569-0.826-0.965-1.141
	c-0.396-0.315-0.875-0.569-1.438-0.761c-0.563-0.191-1.241-0.337-2.032-0.436v-0.074c1.101-0.186,2.032-0.473,2.792-0.863
	c0.762-0.39,1.376-0.859,1.847-1.41c0.47-0.55,0.81-1.169,1.021-1.855c0.21-0.687,0.315-1.413,0.315-2.18
	c0-1.41-0.288-2.554-0.862-3.433c-0.576-0.878-1.343-1.564-2.301-2.06c-0.959-0.495-2.069-0.832-3.331-1.011
	c-1.262-0.179-2.579-0.269-3.952-0.269h-7.44c-0.569,0-1.11,0.071-1.624,0.213c-0.513,0.143-0.962,0.356-1.345,0.64
	c-0.384,0.285-0.689,0.64-0.919,1.067c-0.229,0.427-0.343,0.925-0.343,1.494v19.928c0,0.507,0.09,0.98,0.269,1.419
	c0.18,0.439,0.424,0.823,0.733,1.15c0.309,0.328,0.671,0.584,1.085,0.77c0.415,0.186,0.863,0.278,1.346,0.278
	s0.931-0.093,1.346-0.278c0.414-0.186,0.779-0.442,1.094-0.77c0.316-0.328,0.563-0.711,0.742-1.15c0.18-0.439,0.27-0.912,0.27-1.419
	V243.916z M579.578,247.367c0.576,1.732,1.426,3.213,2.552,4.444c1.125,1.231,2.515,2.18,4.165,2.848
	c1.652,0.668,3.547,1.002,5.688,1.002c2.189,0,4.112-0.347,5.771-1.039c1.657-0.692,3.043-1.661,4.156-2.904s1.948-2.73,2.505-4.462
	c0.557-1.731,0.835-3.63,0.835-5.696c0-2.103-0.285-4.02-0.854-5.752c-0.569-1.731-1.41-3.219-2.523-4.462s-2.499-2.205-4.156-2.885
	c-1.658-0.68-3.569-1.021-5.733-1.021c-2.227,0-4.169,0.353-5.826,1.058c-1.658,0.705-3.037,1.683-4.138,2.932
	c-1.102,1.25-1.927,2.74-2.478,4.472c-0.55,1.732-0.825,3.618-0.825,5.659C578.716,243.7,579.004,245.636,579.578,247.367z
	 M586.295,237.598c0.242-1.156,0.609-2.13,1.104-2.922c0.494-0.792,1.122-1.395,1.884-1.809c0.76-0.414,1.66-0.622,2.699-0.622
	c1.051,0,1.957,0.208,2.719,0.622c0.76,0.415,1.388,1.018,1.883,1.809c0.494,0.792,0.863,1.766,1.104,2.922
	c0.242,1.157,0.362,2.477,0.362,3.961c0,3.08-0.501,5.399-1.503,6.958s-2.523,2.338-4.564,2.338c-2.078,0-3.606-0.782-4.583-2.347
	c-0.978-1.564-1.466-3.881-1.466-6.949C585.934,240.076,586.055,238.755,586.295,237.598z M564.748,232.969v18.425
	c0,0.507,0.09,0.98,0.269,1.419c0.18,0.439,0.424,0.823,0.733,1.15c0.309,0.328,0.671,0.584,1.085,0.77
	c0.415,0.186,0.863,0.278,1.346,0.278s0.931-0.093,1.346-0.278c0.414-0.186,0.779-0.442,1.094-0.77
	c0.316-0.328,0.563-0.711,0.742-1.15c0.18-0.439,0.27-0.912,0.27-1.419v-18.425h4.973c0.358,0,0.698-0.065,1.021-0.195
	c0.321-0.13,0.603-0.306,0.845-0.529c0.24-0.223,0.433-0.482,0.574-0.779c0.143-0.297,0.214-0.612,0.214-0.946
	s-0.071-0.652-0.214-0.956c-0.142-0.303-0.334-0.566-0.574-0.789c-0.242-0.223-0.523-0.399-0.845-0.529
	c-0.322-0.13-0.662-0.195-1.021-0.195h-16.94c-0.359,0-0.699,0.065-1.021,0.195c-0.322,0.13-0.604,0.306-0.844,0.529
	c-0.242,0.223-0.434,0.486-0.576,0.789c-0.142,0.303-0.213,0.622-0.213,0.956s0.071,0.649,0.213,0.946
	c0.143,0.297,0.334,0.557,0.576,0.779c0.24,0.223,0.521,0.399,0.844,0.529c0.321,0.13,0.661,0.195,1.021,0.195H564.748z
	 M539.429,228.089h-6.104l-2.171,9.667h5.065L539.429,228.089z M548.298,228.089h-6.123l-2.152,9.667h5.065L548.298,228.089z
	 M520.247,244.584l7.106-11.819c0.234-0.383,0.401-0.751,0.501-1.104c0.099-0.353,0.148-0.689,0.148-1.011
	c0-0.383-0.068-0.736-0.204-1.058c-0.137-0.321-0.322-0.594-0.557-0.816c-0.235-0.223-0.51-0.396-0.826-0.52
	c-0.314-0.124-0.646-0.186-0.992-0.186c-0.582,0-1.157,0.18-1.726,0.538c-0.569,0.359-1.064,0.946-1.484,1.763l-5.084,9.778h-0.074
	l-4.88-9.704c-0.408-0.854-0.909-1.466-1.503-1.837s-1.188-0.557-1.781-0.557c-0.396,0-0.776,0.074-1.142,0.223
	c-0.364,0.148-0.686,0.359-0.965,0.631c-0.277,0.272-0.5,0.597-0.668,0.974c-0.166,0.377-0.25,0.795-0.25,1.252
	c0,0.347,0.049,0.702,0.148,1.067c0.099,0.365,0.266,0.739,0.501,1.123l6.81,11.374v6.698c0,0.507,0.09,0.98,0.27,1.419
	c0.179,0.439,0.423,0.823,0.732,1.15c0.309,0.328,0.671,0.584,1.086,0.77c0.414,0.186,0.862,0.278,1.345,0.278
	s0.931-0.093,1.345-0.278c0.415-0.186,0.779-0.442,1.096-0.77c0.314-0.328,0.565-0.711,0.751-1.15
	c0.186-0.439,0.284-0.912,0.297-1.419V244.584z M501.343,235.901c-0.557-1.459-1.064-2.69-1.521-3.692
	c-0.458-1.002-0.94-1.809-1.447-2.421c-0.508-0.612-1.076-1.051-1.707-1.317c-0.631-0.266-1.392-0.399-2.282-0.399
	c-0.953,0-1.763,0.17-2.431,0.51c-0.668,0.34-1.259,0.844-1.772,1.512c-0.513,0.668-0.982,1.488-1.41,2.458
	c-0.426,0.971-0.875,2.087-1.345,3.349l-4.991,13.489c-0.087,0.223-0.18,0.455-0.278,0.696c-0.1,0.241-0.192,0.486-0.278,0.733
	c-0.087,0.248-0.158,0.486-0.213,0.714c-0.057,0.229-0.084,0.436-0.084,0.622c0,0.458,0.084,0.863,0.25,1.215
	c0.168,0.353,0.393,0.649,0.678,0.891c0.284,0.241,0.615,0.427,0.992,0.557c0.378,0.13,0.776,0.195,1.197,0.195
	c0.482,0,0.902-0.065,1.262-0.195c0.358-0.13,0.678-0.34,0.955-0.631c0.279-0.291,0.532-0.677,0.762-1.16
	c0.229-0.482,0.454-1.076,0.677-1.781l0.761-2.356h10.502l0.891,2.356c0.26,0.693,0.504,1.277,0.732,1.753
	c0.229,0.477,0.479,0.863,0.752,1.16c0.271,0.297,0.581,0.514,0.928,0.649c0.346,0.136,0.761,0.204,1.243,0.204
	c0.42,0,0.819-0.065,1.196-0.195c0.378-0.13,0.708-0.315,0.993-0.557c0.284-0.241,0.511-0.538,0.677-0.891
	c0.168-0.353,0.251-0.757,0.251-1.215c0-0.186-0.028-0.393-0.083-0.622c-0.057-0.229-0.128-0.467-0.214-0.714
	c-0.087-0.247-0.18-0.492-0.278-0.733c-0.1-0.241-0.192-0.473-0.278-0.696L501.343,235.901z M494.422,233.136l4.063,11.931h-8.238
	l4.082-11.931H494.422z"/>
<path d="M587.64,336.084c0.742,0.186,1.392,0.469,1.948,0.85s1,0.85,1.333,1.406c0.332,0.557,0.498,1.216,0.498,1.978
	c0,0.86-0.225,1.807-0.674,2.842c-0.45,1.036-1.084,2.139-1.904,3.311s-1.807,2.388-2.959,3.647
	c-1.153,1.26-2.432,2.534-3.838,3.823l-1.172,1.113c-0.41,0.391-0.898,0.825-1.465,1.304c-0.567,0.479-1.143,0.972-1.729,1.479
	l-4.277,3.633c-1.777,1.504-2.666,3.242-2.666,5.215c0,0.781,0.132,1.44,0.396,1.978c0.264,0.538,0.625,0.967,1.084,1.289
	c0.458,0.322,1,0.552,1.626,0.688c0.625,0.137,1.289,0.205,1.992,0.205h21.797c1.348,0,2.383-0.322,3.105-0.967
	c0.722-0.645,1.084-1.601,1.084-2.871c0-0.703-0.161-1.293-0.483-1.772c-0.322-0.479-0.747-0.864-1.274-1.157
	s-1.138-0.502-1.831-0.63c-0.693-0.127-1.421-0.19-2.183-0.19h-12.744c2.344-1.699,4.609-3.516,6.797-5.449
	c2.187-1.934,4.126-3.93,5.815-5.991c1.689-2.061,3.042-4.155,4.058-6.284c1.015-2.128,1.523-4.219,1.523-6.27
	c0-1.816-0.366-3.423-1.099-4.819c-0.732-1.396-1.743-2.568-3.032-3.516c-1.289-0.947-2.823-1.67-4.6-2.168
	c-1.777-0.498-3.721-0.747-5.83-0.747c-0.938,0-1.919,0.069-2.944,0.205c-1.025,0.137-2.065,0.327-3.12,0.571
	c-1.055,0.245-2.105,0.538-3.149,0.879c-1.045,0.342-2.056,0.718-3.032,1.128c-0.957,0.41-1.641,0.948-2.051,1.611
	c-0.41,0.664-0.615,1.348-0.615,2.051c0,0.508,0.088,0.986,0.264,1.436c0.176,0.45,0.415,0.845,0.718,1.187
	c0.303,0.342,0.664,0.611,1.084,0.806c0.42,0.195,0.883,0.293,1.392,0.293c0.449,0,0.927-0.098,1.436-0.293
	c0.605-0.234,1.25-0.479,1.934-0.732c0.684-0.253,1.381-0.479,2.095-0.674c0.713-0.195,1.44-0.356,2.183-0.483
	c0.742-0.127,1.475-0.19,2.197-0.19C586.126,335.806,586.897,335.899,587.64,336.084z M563.359,339.878
	c0.605-1.328,1.138-2.646,1.597-3.955c0.458-1.308,0.688-2.48,0.688-3.516c0-0.859-0.161-1.557-0.483-2.095
	c-0.322-0.537-0.776-0.957-1.362-1.26c-0.586-0.303-1.289-0.508-2.109-0.615c-0.82-0.107-1.729-0.161-2.725-0.161h-19.717
	c-3.497,0-5.244,1.27-5.244,3.809c0,0.684,0.127,1.265,0.381,1.743c0.253,0.479,0.615,0.869,1.084,1.172
	c0.469,0.303,1.021,0.523,1.655,0.659c0.634,0.137,1.333,0.205,2.095,0.205h15.469l-11.807,25.576
	c-0.391,0.82-0.743,1.646-1.055,2.476c-0.312,0.831-0.469,1.607-0.469,2.329c0,0.664,0.142,1.279,0.425,1.846
	c0.283,0.567,0.659,1.055,1.128,1.465s1.006,0.728,1.611,0.952c0.605,0.225,1.24,0.337,1.904,0.337c0.918,0,1.782-0.244,2.593-0.732
	c0.81-0.488,1.469-1.24,1.978-2.256L563.359,339.878z"/>
<path d="M617.605,328.965c-1.66,0.538-3.116,1.289-4.365,2.256c-1.25,0.967-2.31,2.124-3.179,3.472
	c-0.869,1.348-1.578,2.832-2.124,4.453c-0.547,1.622-0.942,3.35-1.187,5.186c-0.245,1.836-0.366,3.731-0.366,5.684
	c0,3.028,0.293,5.864,0.879,8.511c0.586,2.647,1.548,4.961,2.886,6.943c1.337,1.982,3.081,3.545,5.229,4.688
	c2.148,1.143,4.785,1.714,7.91,1.714c2.09,0,3.959-0.264,5.61-0.791c1.65-0.527,3.101-1.27,4.351-2.227
	c1.25-0.957,2.314-2.104,3.193-3.442c0.879-1.337,1.597-2.817,2.153-4.438c0.557-1.621,0.962-3.354,1.216-5.2
	s0.381-3.765,0.381-5.757c0-3.027-0.303-5.869-0.908-8.525c-0.605-2.656-1.577-4.97-2.915-6.943
	c-1.338-1.973-3.081-3.53-5.229-4.673c-2.149-1.143-4.766-1.714-7.852-1.714C621.16,328.159,619.265,328.428,617.605,328.965z
	 M626.57,336.421c0.839,0.723,1.494,1.733,1.963,3.032c0.469,1.299,0.786,2.847,0.952,4.644c0.166,1.797,0.249,3.77,0.249,5.918
	c0,2.208-0.088,4.209-0.264,6.006c-0.176,1.797-0.498,3.33-0.967,4.6c-0.469,1.27-1.124,2.256-1.963,2.959
	c-0.84,0.703-1.924,1.055-3.252,1.055c-1.348,0-2.442-0.352-3.281-1.055c-0.84-0.703-1.49-1.699-1.948-2.988
	c-0.459-1.289-0.772-2.832-0.938-4.629c-0.166-1.797-0.249-3.779-0.249-5.947s0.083-4.15,0.249-5.947
	c0.166-1.797,0.479-3.344,0.938-4.644c0.458-1.299,1.108-2.304,1.948-3.018c0.839-0.713,1.934-1.069,3.281-1.069
	S625.73,335.699,626.57,336.421z"/>
<path d="M679.317,346.031c-0.527,0-0.986,0.098-1.377,0.293c-0.391,0.195-0.718,0.444-0.981,0.747
	c-0.264,0.303-0.464,0.655-0.601,1.055c-0.137,0.4-0.205,0.806-0.205,1.216c0,0.879,0.273,1.636,0.82,2.271
	c0.547,0.635,1.328,0.952,2.344,0.952h2.08c2.461,0,4.365,0.518,5.713,1.553c1.348,1.036,2.021,2.5,2.021,4.395
	c0,0.957-0.181,1.768-0.542,2.432c-0.361,0.664-0.859,1.201-1.494,1.611s-1.377,0.708-2.227,0.894
	c-0.85,0.186-1.772,0.278-2.769,0.278c-0.801,0-1.597-0.063-2.388-0.19c-0.791-0.127-1.543-0.278-2.256-0.454
	s-1.367-0.352-1.963-0.527s-1.108-0.322-1.538-0.439h-0.264c-0.586,0-1.123,0.093-1.611,0.278c-0.488,0.186-0.898,0.435-1.23,0.747
	c-0.332,0.312-0.591,0.684-0.776,1.113c-0.186,0.43-0.278,0.879-0.278,1.348c0,0.938,0.312,1.729,0.938,2.373
	s1.475,1.162,2.549,1.553c0.781,0.293,1.602,0.562,2.461,0.806c0.859,0.245,1.724,0.444,2.593,0.601s1.714,0.278,2.534,0.366
	s1.602,0.132,2.344,0.132c2.305,0,4.458-0.234,6.46-0.703s3.745-1.201,5.229-2.197s2.656-2.266,3.516-3.809
	c0.859-1.542,1.289-3.379,1.289-5.508c0-1.348-0.181-2.607-0.542-3.779s-0.898-2.202-1.611-3.091
	c-0.713-0.889-1.592-1.63-2.637-2.227c-1.045-0.596-2.241-1-3.589-1.216v-0.117c1.016-0.195,1.978-0.576,2.886-1.143
	c0.908-0.566,1.699-1.27,2.373-2.109c0.674-0.839,1.211-1.792,1.611-2.856c0.4-1.064,0.601-2.202,0.601-3.413
	c0-1.718-0.352-3.291-1.055-4.717c-0.703-1.425-1.733-2.646-3.091-3.662c-1.357-1.015-3.022-1.802-4.995-2.358
	s-4.229-0.835-6.768-0.835c-4.414,0-7.686,0.503-9.814,1.509c-2.129,1.006-3.193,2.339-3.193,3.999c0,0.996,0.347,1.816,1.04,2.461
	s1.587,0.967,2.681,0.967c0.254,0,0.503-0.024,0.747-0.073c0.244-0.048,0.591-0.122,1.04-0.22l1.699-0.322
	c0.781-0.156,1.592-0.288,2.432-0.396c0.84-0.107,1.641-0.161,2.402-0.161c0.898,0,1.753,0.103,2.563,0.308s1.519,0.523,2.124,0.952
	c0.605,0.43,1.084,0.962,1.436,1.597c0.352,0.635,0.527,1.373,0.527,2.212c0,0.938-0.186,1.753-0.557,2.446
	c-0.371,0.693-0.874,1.27-1.509,1.729c-0.635,0.459-1.382,0.796-2.241,1.011c-0.859,0.215-1.787,0.322-2.783,0.322H679.317z
	 M660.866,358.628c0.547,0,1.074-0.068,1.582-0.205c0.508-0.136,0.957-0.341,1.348-0.615c0.391-0.273,0.708-0.63,0.952-1.069
	s0.366-0.971,0.366-1.597c0-0.703-0.142-1.279-0.425-1.729c-0.283-0.449-0.635-0.806-1.055-1.069s-0.879-0.449-1.377-0.557
	c-0.498-0.107-0.962-0.161-1.392-0.161h-9.697c-1.25,0-2.271,0.303-3.062,0.908c-0.791,0.605-1.187,1.475-1.187,2.607
	c0,0.508,0.098,0.972,0.293,1.392c0.195,0.42,0.454,0.787,0.776,1.099c0.322,0.312,0.703,0.557,1.143,0.732s0.894,0.264,1.362,0.264
	H660.866z"/>
<path d="M714.789,328.965c-1.66,0.538-3.115,1.289-4.365,2.256s-2.31,2.124-3.179,3.472s-1.577,2.832-2.124,4.453
	c-0.547,1.622-0.942,3.35-1.187,5.186c-0.244,1.836-0.366,3.731-0.366,5.684c0,3.028,0.293,5.864,0.879,8.511
	c0.586,2.647,1.548,4.961,2.886,6.943c1.338,1.982,3.081,3.545,5.229,4.688s4.785,1.714,7.91,1.714c2.09,0,3.96-0.264,5.61-0.791
	s3.101-1.27,4.351-2.227c1.25-0.957,2.314-2.104,3.193-3.442c0.879-1.337,1.597-2.817,2.153-4.438
	c0.557-1.621,0.962-3.354,1.216-5.2s0.381-3.765,0.381-5.757c0-3.027-0.303-5.869-0.908-8.525c-0.605-2.656-1.577-4.97-2.915-6.943
	c-1.338-1.973-3.081-3.53-5.229-4.673s-4.766-1.714-7.852-1.714C718.344,328.159,716.45,328.428,714.789,328.965z M723.754,336.421
	c0.84,0.723,1.494,1.733,1.963,3.032c0.469,1.299,0.786,2.847,0.952,4.644c0.166,1.797,0.249,3.77,0.249,5.918
	c0,2.208-0.088,4.209-0.264,6.006c-0.176,1.797-0.498,3.33-0.967,4.6c-0.469,1.27-1.123,2.256-1.963,2.959s-1.924,1.055-3.252,1.055
	c-1.348,0-2.441-0.352-3.281-1.055s-1.489-1.699-1.948-2.988s-0.771-2.832-0.938-4.629c-0.166-1.797-0.249-3.779-0.249-5.947
	s0.083-4.15,0.249-5.947c0.166-1.797,0.479-3.344,0.938-4.644c0.459-1.299,1.108-2.304,1.948-3.018
	c0.84-0.713,1.934-1.069,3.281-1.069S722.914,335.699,723.754,336.421z"/>
<path d="M769.013,339.878c0.605-1.328,1.138-2.646,1.597-3.955c0.459-1.308,0.688-2.48,0.688-3.516c0-0.859-0.161-1.557-0.483-2.095
	c-0.322-0.537-0.776-0.957-1.362-1.26c-0.586-0.303-1.289-0.508-2.109-0.615c-0.82-0.107-1.729-0.161-2.725-0.161h-19.717
	c-3.496,0-5.244,1.27-5.244,3.809c0,0.684,0.127,1.265,0.381,1.743c0.254,0.479,0.615,0.869,1.084,1.172
	c0.469,0.303,1.021,0.523,1.655,0.659c0.635,0.137,1.333,0.205,2.095,0.205h15.469l-11.807,25.576
	c-0.391,0.82-0.742,1.646-1.055,2.476c-0.312,0.831-0.469,1.607-0.469,2.329c0,0.664,0.142,1.279,0.425,1.846
	c0.283,0.567,0.659,1.055,1.128,1.465s1.006,0.728,1.611,0.952c0.605,0.225,1.24,0.337,1.904,0.337c0.918,0,1.782-0.244,2.593-0.732
	c0.811-0.488,1.47-1.24,1.978-2.256L769.013,339.878z"/>
<path d="M786.937,358.628c0.547,0,1.074-0.068,1.582-0.205c0.508-0.136,0.957-0.341,1.348-0.615c0.391-0.273,0.708-0.63,0.952-1.069
	s0.366-0.971,0.366-1.597c0-0.703-0.142-1.279-0.425-1.729c-0.283-0.449-0.635-0.806-1.055-1.069s-0.879-0.449-1.377-0.557
	c-0.498-0.107-0.962-0.161-1.392-0.161h-9.697c-1.25,0-2.271,0.303-3.062,0.908c-0.791,0.605-1.187,1.475-1.187,2.607
	c0,0.508,0.098,0.972,0.293,1.392c0.195,0.42,0.454,0.787,0.776,1.099c0.322,0.312,0.703,0.557,1.143,0.732s0.894,0.264,1.362,0.264
	H786.937z"/>
<path d="M936.442,339.878c0.605-1.328,1.138-2.646,1.597-3.955c0.459-1.308,0.688-2.48,0.688-3.516c0-0.859-0.161-1.557-0.483-2.095
	c-0.322-0.537-0.776-0.957-1.362-1.26c-0.586-0.303-1.289-0.508-2.109-0.615c-0.82-0.107-1.729-0.161-2.725-0.161H912.33
	c-3.496,0-5.244,1.27-5.244,3.809c0,0.684,0.127,1.265,0.381,1.743c0.254,0.479,0.615,0.869,1.084,1.172
	c0.469,0.303,1.021,0.523,1.655,0.659c0.635,0.137,1.333,0.205,2.095,0.205h15.469l-11.807,25.576
	c-0.391,0.82-0.742,1.646-1.055,2.476c-0.312,0.831-0.469,1.607-0.469,2.329c0,0.664,0.142,1.279,0.425,1.846
	c0.283,0.567,0.659,1.055,1.128,1.465s1.006,0.728,1.611,0.952c0.605,0.225,1.24,0.337,1.904,0.337c0.918,0,1.782-0.244,2.593-0.732
	c0.811-0.488,1.47-1.24,1.978-2.256L936.442,339.878z M899.885,339.878c0.605-1.328,1.138-2.646,1.597-3.955
	c0.459-1.308,0.688-2.48,0.688-3.516c0-0.859-0.161-1.557-0.483-2.095c-0.322-0.537-0.776-0.957-1.362-1.26
	c-0.586-0.303-1.289-0.508-2.109-0.615c-0.82-0.107-1.729-0.161-2.725-0.161h-19.717c-3.496,0-5.244,1.27-5.244,3.809
	c0,0.684,0.127,1.265,0.381,1.743c0.254,0.479,0.615,0.869,1.084,1.172c0.469,0.303,1.021,0.523,1.655,0.659
	c0.635,0.137,1.333,0.205,2.095,0.205h15.469l-11.807,25.576c-0.391,0.82-0.742,1.646-1.055,2.476
	c-0.312,0.831-0.469,1.607-0.469,2.329c0,0.664,0.142,1.279,0.425,1.846c0.283,0.567,0.659,1.055,1.128,1.465
	s1.006,0.728,1.611,0.952c0.605,0.225,1.24,0.337,1.904,0.337c0.918,0,1.782-0.244,2.593-0.732c0.811-0.488,1.47-1.24,1.978-2.256
	L899.885,339.878z M863.328,339.878c0.605-1.328,1.138-2.646,1.597-3.955c0.459-1.308,0.688-2.48,0.688-3.516
	c0-0.859-0.161-1.557-0.483-2.095c-0.322-0.537-0.776-0.957-1.362-1.26c-0.586-0.303-1.289-0.508-2.109-0.615
	c-0.82-0.107-1.729-0.161-2.725-0.161h-19.717c-3.496,0-5.244,1.27-5.244,3.809c0,0.684,0.127,1.265,0.381,1.743
	c0.254,0.479,0.615,0.869,1.084,1.172c0.469,0.303,1.021,0.523,1.655,0.659c0.635,0.137,1.333,0.205,2.095,0.205h15.469
	l-11.807,25.576c-0.391,0.82-0.742,1.646-1.055,2.476c-0.312,0.831-0.469,1.607-0.469,2.329c0,0.664,0.142,1.279,0.425,1.846
	c0.283,0.567,0.659,1.055,1.128,1.465s1.006,0.728,1.611,0.952c0.605,0.225,1.24,0.337,1.904,0.337c0.918,0,1.782-0.244,2.593-0.732
	c0.811-0.488,1.47-1.24,1.978-2.256L863.328,339.878z M799.262,349.986c0,1.66,0.361,2.886,1.084,3.677s1.699,1.187,2.93,1.187
	c0.84,0,1.538-0.136,2.095-0.41c0.557-0.273,1.055-0.615,1.494-1.025s0.854-0.859,1.245-1.348c0.391-0.488,0.83-0.938,1.318-1.348
	s1.069-0.751,1.743-1.025c0.674-0.273,1.509-0.41,2.505-0.41c0.879,0,1.68,0.171,2.402,0.513c0.723,0.342,1.348,0.845,1.875,1.509
	c0.527,0.664,0.933,1.475,1.216,2.432c0.283,0.957,0.425,2.051,0.425,3.281c0,1.309-0.186,2.442-0.557,3.398
	c-0.371,0.957-0.879,1.753-1.523,2.388c-0.645,0.635-1.411,1.104-2.3,1.406c-0.889,0.303-1.851,0.454-2.886,0.454
	c-0.762,0-1.514-0.059-2.256-0.176s-1.455-0.303-2.139-0.557c-0.625-0.215-1.216-0.498-1.772-0.85s-1.084-0.688-1.582-1.011
	s-0.957-0.601-1.377-0.835s-0.815-0.352-1.187-0.352c-0.41,0-0.786,0.088-1.128,0.264s-0.635,0.4-0.879,0.674
	c-0.244,0.274-0.435,0.596-0.571,0.967c-0.137,0.371-0.205,0.743-0.205,1.113c0,0.469,0.117,0.948,0.352,1.436
	c0.273,1.074,0.869,2.002,1.787,2.783c0.918,0.781,2.007,1.431,3.267,1.948c1.26,0.518,2.627,0.903,4.102,1.157
	c1.475,0.253,2.915,0.381,4.321,0.381c2.344,0,4.551-0.322,6.621-0.967s3.872-1.572,5.405-2.783c1.533-1.211,2.744-2.69,3.633-4.438
	c0.889-1.748,1.333-3.735,1.333-5.962s-0.322-4.223-0.967-5.991c-0.645-1.768-1.538-3.271-2.681-4.512
	c-1.143-1.24-2.5-2.192-4.072-2.856c-1.572-0.664-3.286-0.996-5.142-0.996c-3.789,0-6.953,1.201-9.492,3.604l0.293-11.396h16.055
	c1.367,0,2.422-0.283,3.164-0.85c0.742-0.566,1.113-1.455,1.113-2.666c0-0.625-0.098-1.157-0.293-1.597s-0.464-0.801-0.806-1.084
	c-0.342-0.283-0.737-0.493-1.187-0.63c-0.449-0.136-0.928-0.205-1.436-0.205h-18.838c-1.133,0-2.109,0.063-2.93,0.19
	c-0.82,0.127-1.494,0.366-2.021,0.718s-0.918,0.84-1.172,1.465c-0.254,0.625-0.381,1.446-0.381,2.461V349.986z"/>
<path d="M1187.102,285.697v-2H279.66l0-80h905.442l0,82H1187.102v-2V285.697h2v-84c0-0.527-0.213-1.042-0.586-1.414
	c-0.372-0.372-0.888-0.586-1.414-0.586H277.66c-0.527,0-1.042,0.213-1.414,0.586c-0.372,0.372-0.586,0.888-0.586,1.414v84
	c0,0.527,0.213,1.042,0.586,1.414s0.888,0.586,1.414,0.586h909.442c0.527,0,1.042-0.213,1.414-0.586s0.586-0.888,0.586-1.414
	H1187.102z"/>
</svg>
