<?xml version="1.0" encoding="utf-8"?>
<!-- Generator: Adobe Illustrator 17.0.0, SVG Export Plug-In . SVG Version: 6.00 Build 0)  -->
<!DOCTYPE svg PUBLIC "-//W3C//DTD SVG 1.1//EN" "http://www.w3.org/Graphics/SVG/1.1/DTD/svg11.dtd">
<svg version="1.1" id="Layer_1" xmlns="http://www.w3.org/2000/svg" xmlns:xlink="http://www.w3.org/1999/xlink" x="0px" y="0px"
	 width="146.11px" height="273.031px" viewBox="0 0 146.11 273.031" enable-background="new 0 0 146.11 273.031"
	 xml:space="preserve">
<rect x="103.866" y="60.062" fill="#73856F" width="7.8" height="212.97"/>
<rect x="34.444" y="60.062" fill="#73856F" width="7.8" height="212.97"/>
<rect x="4.998" fill="#73856F" width="131.823" height="80.342"/>
<rect x="9.288" fill="#5EBF84" width="131.823" height="80.342"/>
<path fill="#FFFFFF" d="M98.756,31.192c0,0-11.507,14.842-25.701,14.842c-14.194,0-25.701-14.842-25.701-14.842
	S58.86,16.35,73.055,16.35C87.25,16.35,98.756,31.192,98.756,31.192z"/>
<circle cx="73.055" cy="31.192" r="9.149"/>
<polygon fill="#FFFFFF" points="42.387,57.425 40.521,54.351 42.071,54.351 43.082,56.141 44.1,54.351 45.623,54.351 43.756,57.404 
	43.756,59.264 42.387,59.264 "/>
<path fill="#FFFFFF" d="M45.174,56.822v-0.015c0-1.41,1.137-2.555,2.653-2.555s2.64,1.13,2.64,2.541v0.014
	c0,1.411-1.138,2.556-2.653,2.556C46.297,59.363,45.174,58.232,45.174,56.822z M49.076,56.822v-0.015
	c0-0.709-0.512-1.326-1.263-1.326c-0.744,0-1.243,0.604-1.243,1.312v0.014c0,0.709,0.513,1.327,1.257,1.327
	C48.578,58.134,49.076,57.531,49.076,56.822z"/>
<path fill="#FFFFFF" d="M50.833,57.109v-2.758h1.383v2.73c0,0.709,0.357,1.046,0.905,1.046s0.905-0.323,0.905-1.011v-2.766h1.383
	v2.724c0,1.586-0.905,2.28-2.302,2.28C51.71,59.355,50.833,58.647,50.833,57.109z"/>
<path fill="#FFFFFF" d="M59.86,54.316h1.312l2.092,4.948h-1.46l-0.358-0.877h-1.895L59.2,59.264h-1.432L59.86,54.316z
	 M61.054,57.326l-0.548-1.396l-0.555,1.396H61.054z"/>
<path fill="#FFFFFF" d="M63.603,54.351h2.323c0.751,0,1.271,0.196,1.6,0.533c0.288,0.28,0.436,0.66,0.436,1.145v0.014
	c0,0.751-0.4,1.249-1.011,1.509l1.172,1.713H66.55l-0.989-1.488h-0.014h-0.583v1.488h-1.361V54.351z M65.862,56.709
	c0.463,0,0.729-0.225,0.729-0.583v-0.014c0-0.386-0.28-0.583-0.736-0.583h-0.892v1.18H65.862z"/>
<polygon fill="#FFFFFF" points="68.65,54.351 72.602,54.351 72.602,55.509 69.998,55.509 69.998,56.253 72.356,56.253 
	72.356,57.326 69.998,57.326 69.998,58.106 72.637,58.106 72.637,59.264 68.65,59.264 "/>
<path fill="#FFFFFF" d="M74.905,58.533l0.758-0.905c0.484,0.387,1.024,0.59,1.593,0.59c0.365,0,0.562-0.126,0.562-0.337v-0.014
	c0-0.204-0.162-0.316-0.829-0.471c-1.046-0.238-1.853-0.533-1.853-1.544v-0.015c0-0.912,0.723-1.572,1.902-1.572
	c0.835,0,1.487,0.225,2.021,0.653l-0.682,0.962c-0.449-0.316-0.94-0.484-1.375-0.484c-0.33,0-0.491,0.14-0.491,0.315v0.015
	c0,0.225,0.168,0.322,0.849,0.477c1.131,0.246,1.832,0.611,1.832,1.53v0.015c0,1.003-0.793,1.6-1.986,1.6
	C76.337,59.348,75.509,59.074,74.905,58.533z"/>
<path fill="#FFFFFF" d="M79.714,54.351h2.105c1.242,0,2.042,0.639,2.042,1.727v0.014c0,1.158-0.891,1.769-2.112,1.769h-0.674v1.404
	h-1.361V54.351z M81.721,56.793c0.484,0,0.779-0.253,0.779-0.639v-0.014c0-0.422-0.295-0.646-0.786-0.646h-0.639v1.299H81.721z"/>
<polygon fill="#FFFFFF" points="84.298,54.351 88.249,54.351 88.249,55.509 85.646,55.509 85.646,56.253 88.004,56.253 
	88.004,57.326 85.646,57.326 85.646,58.106 88.284,58.106 88.284,59.264 84.298,59.264 "/>
<path fill="#FFFFFF" d="M88.776,56.822v-0.015c0-1.432,1.103-2.555,2.59-2.555c1.004,0,1.649,0.421,2.085,1.025l-1.024,0.793
	c-0.281-0.352-0.604-0.576-1.074-0.576c-0.688,0-1.172,0.583-1.172,1.299v0.014c0,0.737,0.484,1.312,1.172,1.312
	c0.513,0,0.814-0.238,1.109-0.596l1.024,0.729c-0.463,0.639-1.088,1.109-2.176,1.109C89.906,59.363,88.776,58.288,88.776,56.822z"/>
<rect x="93.957" y="54.351" fill="#FFFFFF" width="1.369" height="4.913"/>
<path fill="#FFFFFF" d="M97.924,54.316h1.312l2.092,4.948h-1.46l-0.358-0.877h-1.895l-0.352,0.877h-1.432L97.924,54.316z
	 M99.117,57.326l-0.548-1.396l-0.555,1.396H99.117z"/>
<polygon fill="#FFFFFF" points="101.666,54.351 103.027,54.351 103.027,58.071 105.407,58.071 105.407,59.264 101.666,59.264 "/>
</svg>
