<?xml version="1.0" encoding="utf-8"?>
<!-- Generator: Adobe Illustrator 17.0.0, SVG Export Plug-In . SVG Version: 6.00 Build 0)  -->
<!DOCTYPE svg PUBLIC "-//W3C//DTD SVG 1.1//EN" "http://www.w3.org/Graphics/SVG/1.1/DTD/svg11.dtd">
<svg version="1.1" id="Layer_1" xmlns="http://www.w3.org/2000/svg" xmlns:xlink="http://www.w3.org/1999/xlink" x="0px" y="0px"
	 width="476.03px" height="240.837px" viewBox="0 0 476.03 240.837" enable-background="new 0 0 476.03 240.837"
	 xml:space="preserve">
<path fill="#59BA47" d="M471.031,240.837H4.999L168.093,70.08l17.515-18.332l34.895-36.534l2.44-2.555
	c8.323-8.714,21.82-8.714,30.144,0l2.44,2.555l34.895,36.534l17.515,18.332L471.031,240.837z"/>
<path fill="#51A947" d="M101.956,240.837H12.732c-2.854,0-4.283-3.612-2.265-5.725L168.093,70.08l17.515-18.332l34.895-36.534
	l0.175-0.183c9.575-10.025,25.099-10.025,34.674,0l0.175,0.183l30.189,31.607c1.898,1.987,0.76,5.391-1.908,5.704l-1.708,0.201
	c-0.727,0.085-1.405,0.429-1.919,0.974L104.233,239.842C103.631,240.478,102.811,240.837,101.956,240.837z"/>
<polygon fill="#72C059" points="238.018,97.373 379.201,240.837 470.149,240.837 282.007,43.862 "/>
<path fill="#E7E8E9" d="M289.028,45.625l-37.335,39.089c-8.323,8.714-21.82,8.714-30.144,0l-37.335-39.089L219.11,9.091l2.44-2.555
	c8.323-8.715,21.82-8.715,30.144,0l2.44,2.555L289.028,45.625z"/>
<path fill="#E7E8E9" d="M236.624,27.428L201.73,63.962l-2.44,2.555c-8.323,8.714-21.82,8.714-30.144,0l-2.446-2.561l17.515-18.332
	L219.11,9.091L236.624,27.428z"/>
</svg>
