<?xml version="1.0" encoding="utf-8"?>
<!-- Generator: Adobe Illustrator 17.0.0, SVG Export Plug-In . SVG Version: 6.00 Build 0)  -->
<!DOCTYPE svg PUBLIC "-//W3C//DTD SVG 1.1//EN" "http://www.w3.org/Graphics/SVG/1.1/DTD/svg11.dtd">
<svg version="1.1" id="Layer_1" xmlns="http://www.w3.org/2000/svg" xmlns:xlink="http://www.w3.org/1999/xlink" x="0px" y="0px"
	 width="344.45px" height="172.837px" viewBox="0 0 344.45 172.837" enable-background="new 0 0 344.45 172.837"
	 xml:space="preserve">
<path fill="#59BA47" d="M339.449,172.837H5.001L122.046,50.293l12.57-13.156l25.042-26.219l1.751-1.833
	c5.973-6.254,15.659-6.254,21.633,0l1.751,1.833l25.042,26.219l12.57,13.156L339.449,172.837z"/>
<path fill="#51A947" d="M74.582,172.837H10.55c-2.048,0-3.074-2.592-1.625-4.109L122.046,50.293l12.57-13.156l25.042-26.219
	l0.126-0.132c6.871-7.194,18.012-7.194,24.884,0l0.126,0.132l21.665,22.683c1.362,1.426,0.545,3.869-1.369,4.094l-1.225,0.144
	c-0.522,0.061-1.008,0.308-1.377,0.699L76.216,172.123C75.784,172.58,75.196,172.837,74.582,172.837z"/>
<polygon fill="#72C059" points="172.227,69.88 273.548,172.837 338.816,172.837 203.796,31.477 "/>
<path fill="#E7E8E9" d="M208.835,32.743l-26.793,28.052c-5.973,6.254-15.659,6.254-21.633,0l-26.793-28.052l25.042-26.219
	l1.751-1.833c5.973-6.254,15.659-6.254,21.633,0l1.751,1.833L208.835,32.743z"/>
<path fill="#E7E8E9" d="M171.227,19.684l-25.042,26.219l-1.751,1.833c-5.973,6.254-15.659,6.254-21.633,0l-1.755-1.838l12.57-13.156
	l25.042-26.219L171.227,19.684z"/>
</svg>
