<?xml version="1.0" encoding="utf-8"?>
<!-- Generator: Adobe Illustrator 17.0.0, SVG Export Plug-In . SVG Version: 6.00 Build 0)  -->
<!DOCTYPE svg PUBLIC "-//W3C//DTD SVG 1.1//EN" "http://www.w3.org/Graphics/SVG/1.1/DTD/svg11.dtd">
<svg version="1.1" id="Layer_1" xmlns="http://www.w3.org/2000/svg" xmlns:xlink="http://www.w3.org/1999/xlink" x="0px" y="0px"
	 width="725.01px" height="374.67px" viewBox="5 0 725.01 374.67" enable-background="new 5 0 725.01 374.67" xml:space="preserve">
<path fill="#59BA47" d="M730.01,374.67H5l253.73-265.65l27.25-28.52l54.29-56.84l3.8-3.97c12.95-13.56,33.95-13.56,46.89,0l3.8,3.97
	l54.29,56.84l27.25,28.52L730.01,374.67z"/>
<path fill="#51A947" d="M155.84,374.67H17.03c-4.44,0-6.66-5.62-3.52-8.91l245.22-256.74l27.25-28.52l54.29-56.84l0.27-0.29
	c14.9-15.6,39.05-15.6,53.94,0l0.27,0.29l46.97,49.17c2.95,3.09,1.18,8.39-2.97,8.87l-2.66,0.31c-1.13,0.13-2.18,0.67-2.99,1.51
	L159.38,373.12C158.44,374.11,157.17,374.67,155.84,374.67z"/>
<polygon fill="#72C059" points="367.51,151.48 587.15,374.67 728.64,374.67 435.94,68.24 "/>
<path fill="#E7E8E9" d="M446.87,70.98l-58.08,60.81c-12.95,13.56-33.95,13.56-46.89,0l-58.08-60.81l54.29-56.84l3.8-3.97
	c12.95-13.56,33.95-13.56,46.89,0l3.8,3.97L446.87,70.98z"/>
<path fill="#E7E8E9" d="M365.34,42.67l-54.29,56.84l-3.8,3.97c-12.95,13.56-33.95,13.56-46.89,0l-3.81-3.98l27.25-28.52l54.29-56.84
	L365.34,42.67z"/>
</svg>
