<?xml version="1.0" encoding="utf-8"?>
<!-- Generator: Adobe Illustrator 17.0.0, SVG Export Plug-In . SVG Version: 6.00 Build 0)  -->
<!DOCTYPE svg PUBLIC "-//W3C//DTD SVG 1.1//EN" "http://www.w3.org/Graphics/SVG/1.1/DTD/svg11.dtd">
<svg version="1.1" id="Layer_1" xmlns="http://www.w3.org/2000/svg" xmlns:xlink="http://www.w3.org/1999/xlink" x="0px" y="0px"
	 width="208.78px" height="102.727px" viewBox="0 0 208.78 102.727" enable-background="new 0 0 208.78 102.727"
	 xml:space="preserve">
<path fill="#59BA47" d="M203.781,102.727H4.999l69.567-72.835l7.471-7.819L96.92,6.489l1.041-1.09c3.55-3.717,9.307-3.717,12.858,0
	l1.041,1.09l14.884,15.583l7.471,7.819L203.781,102.727z"/>
<path fill="#51A947" d="M46.355,102.727H8.297c-1.217,0-1.827-1.541-0.966-2.442l67.234-70.393l7.471-7.819L96.92,6.489l0.075-0.078
	c4.084-4.276,10.706-4.276,14.79,0l0.075,0.078l12.877,13.482c0.81,0.848,0.324,2.299-0.814,2.433l-0.728,0.086
	c-0.31,0.036-0.599,0.183-0.819,0.415l-75.05,79.398C47.069,102.574,46.72,102.727,46.355,102.727z"/>
<polygon fill="#72C059" points="104.391,41.534 164.612,102.727 203.405,102.727 123.155,18.709 "/>
<path fill="#E7E8E9" d="M126.149,19.461l-15.925,16.673c-3.55,3.717-9.307,3.717-12.858,0L81.442,19.461L96.326,3.878l1.041-1.09
	c3.55-3.717,9.307-3.717,12.858,0l1.041,1.09L126.149,19.461z"/>
<path fill="#E7E8E9" d="M103.797,11.699L88.913,27.283l-1.041,1.09c-3.55,3.717-9.307,3.717-12.858,0l-1.043-1.092l7.471-7.819
	L96.326,3.878L103.797,11.699z"/>
</svg>
