<?xml version="1.0" encoding="utf-8"?>
<!-- Generator: Adobe Illustrator 17.0.0, SVG Export Plug-In . SVG Version: 6.00 Build 0)  -->
<!DOCTYPE svg PUBLIC "-//W3C//DTD SVG 1.1//EN" "http://www.w3.org/Graphics/SVG/1.1/DTD/svg11.dtd">
<svg version="1.1" id="Layer_1" xmlns="http://www.w3.org/2000/svg" xmlns:xlink="http://www.w3.org/1999/xlink" x="0px" y="0px"
	 width="1928.01px" height="711.937px" viewBox="0 0 1928.01 711.937" enable-background="new 0 0 1928.01 711.937"
	 xml:space="preserve">
<path fill="#59BA47" d="M1130.374,711.937H4.999L534.45,157.611c18.355-19.217,48.118-19.217,66.473,0L1130.374,711.937z"/>
<path fill="#59BA47" d="M1923.011,711.937H797.636l89.704-93.918l27.968-29.282l385.304-403.406
	c32.981-34.531,86.444-34.531,119.425,0l37.401,39.158L1923.011,711.937z"/>
<path fill="#59BA47" d="M1627.492,552.508H502.117l502.975-526.621c32.981-34.516,86.444-34.516,119.425,0l78.296,81.988
	L1627.492,552.508z"/>
<path fill="#50A646" d="M636.285,194.634L4.999,711.937L534.45,157.611c18.355-19.217,48.118-19.217,66.473,0L636.285,194.634z"/>
<path fill="#50A646" d="M1160.204,63.258l-658.088,489.25l502.975-526.621c32.981-34.516,86.444-34.516,119.425,0L1160.204,63.258z"
	/>
<path fill="#50A646" d="M1457.437,224.489l-542.13,364.249l385.304-403.406c32.981-34.531,86.444-34.531,119.425,0L1457.437,224.489
	z"/>
<polygon fill="#81C44E" points="740.793,304.052 715.915,330.099 578.034,242.368 636.285,194.634 "/>
<polygon fill="#81C44E" points="1160.262,63.556 1120.234,93.315 1271.782,214.432 1288.528,197.856 "/>
<polygon fill="#81C44E" points="1420.114,249.565 1457.437,224.489 1752.106,533.003 "/>
</svg>
