<?xml version="1.0" encoding="utf-8"?>
<!-- Generator: Adobe Illustrator 17.0.0, SVG Export Plug-In . SVG Version: 6.00 Build 0)  -->
<!DOCTYPE svg PUBLIC "-//W3C//DTD SVG 1.1//EN" "http://www.w3.org/Graphics/SVG/1.1/DTD/svg11.dtd">
<svg version="1.1" id="Layer_1" xmlns="http://www.w3.org/2000/svg" xmlns:xlink="http://www.w3.org/1999/xlink" x="0px" y="0px"
	 width="1264.95px" height="648.532px" viewBox="0 0 1264.95 648.532" enable-background="new 0 0 1264.95 648.532"
	 xml:space="preserve">
<path fill="#59BA47" d="M1259.948,648.532H5.002l439.186-459.819l47.165-49.364l93.966-98.38l6.571-6.879
	c22.413-23.467,58.758-23.467,81.172,0l6.571,6.879l93.966,98.38l47.165,49.364L1259.948,648.532z"/>
<path fill="#51A947" d="M266.091,648.532H25.826c-7.685,0-11.533-9.728-6.099-15.417l424.461-444.403l47.165-49.364l93.966-98.38
	l0.472-0.494c25.783-26.995,67.586-26.995,93.37,0l0.472,0.494l81.294,85.113c5.111,5.351,2.046,14.516-5.137,15.36l-4.598,0.54
	c-1.958,0.23-3.782,1.156-5.169,2.622l-473.8,501.249C270.602,647.567,268.394,648.532,266.091,648.532z"/>
<polygon fill="#72C059" points="632.483,262.208 1012.666,648.532 1257.573,648.532 750.939,118.112 "/>
<path fill="#E7E8E9" d="M769.845,122.86L669.308,228.12c-22.413,23.466-58.758,23.466-81.172,0L487.6,122.86l93.966-98.38
	l6.571-6.879c22.413-23.467,58.758-23.467,81.172,0l6.571,6.879L769.845,122.86z"/>
<path fill="#E7E8E9" d="M628.731,73.86l-93.966,98.38l-6.571,6.88c-22.413,23.466-58.758,23.466-81.171,0l-6.587-6.896L487.6,122.86
	l93.966-98.38L628.731,73.86z"/>
</svg>
