<?xml version="1.0" encoding="utf-8"?>
<!-- Generator: Adobe Illustrator 17.0.0, SVG Export Plug-In . SVG Version: 6.00 Build 0)  -->
<!DOCTYPE svg PUBLIC "-//W3C//DTD SVG 1.1//EN" "http://www.w3.org/Graphics/SVG/1.1/DTD/svg11.dtd">
<svg version="1.1" id="Layer_1" xmlns="http://www.w3.org/2000/svg" xmlns:xlink="http://www.w3.org/1999/xlink" x="0px" y="0px"
	 width="742.31px" height="273.506px" viewBox="0 0 742.31 273.506" enable-background="new 0 0 742.31 273.506"
	 xml:space="preserve">
<path fill="#59BA47" d="M434.676,273.506H4.999L207.148,61.861c7.008-7.337,18.372-7.337,25.38,0L434.676,273.506z"/>
<path fill="#59BA47" d="M737.311,273.506H307.634l34.25-35.859l10.678-11.18L499.674,72.444c12.592-13.184,33.005-13.184,45.598,0
	l14.28,14.951L737.311,273.506z"/>
<path fill="#59BA47" d="M626.116,210.952H196.439L388.478,9.884c12.592-13.178,33.005-13.178,45.597,0l29.894,31.304
	L626.116,210.952z"/>
<path fill="#50A646" d="M246.029,75.996L4.999,273.506L207.148,61.861c7.008-7.337,18.372-7.337,25.38,0L246.029,75.996z"/>
<path fill="#50A646" d="M447.702,24.152L196.439,210.952L388.478,9.884c12.592-13.178,33.005-13.178,45.597,0L447.702,24.152z"/>
<path fill="#50A646" d="M559.551,87.395L352.562,226.468L499.674,72.444c12.592-13.184,33.005-13.184,45.598,0L559.551,87.395z"/>
<polygon fill="#81C44E" points="285.931,117.773 276.432,127.718 223.788,94.221 246.029,75.996 "/>
<polygon fill="#81C44E" points="447.724,24.266 432.441,35.628 490.303,81.872 496.697,75.543 "/>
<polygon fill="#81C44E" points="545.301,96.969 559.551,87.395 672.058,205.188 "/>
</svg>
