<?xml version="1.0" encoding="utf-8"?>
<!-- Generator: Adobe Illustrator 17.0.0, SVG Export Plug-In . SVG Version: 6.00 Build 0)  -->
<!DOCTYPE svg PUBLIC "-//W3C//DTD SVG 1.1//EN" "http://www.w3.org/Graphics/SVG/1.1/DTD/svg11.dtd">
<svg version="1.1" id="Layer_1" xmlns="http://www.w3.org/2000/svg" xmlns:xlink="http://www.w3.org/1999/xlink" x="0px" y="0px"
	 width="445.09px" height="165.923px" viewBox="0 0 445.09 165.923" enable-background="new 0 0 445.09 165.923"
	 xml:space="preserve">
<path fill="#59BA47" d="M260.285,165.923H4.999L125.103,40.177c4.164-4.359,10.915-4.359,15.079,0L260.285,165.923z"/>
<path fill="#59BA47" d="M440.091,165.923H184.805l20.349-21.305l6.344-6.642l87.404-91.511c7.482-7.833,19.609-7.833,27.091,0
	l8.484,8.883L440.091,165.923z"/>
<path fill="#59BA47" d="M377.591,125.334H122.305L236.402,5.872c7.482-7.83,19.609-7.83,27.091,0l17.761,18.599L377.591,125.334z"/>
<path fill="#50A646" d="M148.203,48.575L4.999,165.923L125.103,40.177c4.164-4.359,10.915-4.359,15.079,0L148.203,48.575z"/>
<path fill="#50A646" d="M271.589,14.35L122.305,125.334L236.402,5.872c7.482-7.83,19.609-7.83,27.091,0L271.589,14.35z"/>
<path fill="#50A646" d="M334.477,55.347l-122.979,82.628l87.404-91.511c7.482-7.833,19.609-7.833,27.091,0L334.477,55.347z"/>
<polygon fill="#81C44E" points="171.91,73.396 166.267,79.305 134.99,59.403 148.203,48.575 "/>
<polygon fill="#81C44E" points="271.602,14.417 262.522,21.168 296.9,48.643 300.698,44.883 "/>
<polygon fill="#81C44E" points="326.011,61.036 334.477,55.347 401.322,125.332 "/>
</svg>
