<?xml version="1.0" encoding="utf-8"?>
<!-- Generator: Adobe Illustrator 17.0.0, SVG Export Plug-In . SVG Version: 6.00 Build 0)  -->
<!DOCTYPE svg PUBLIC "-//W3C//DTD SVG 1.1//EN" "http://www.w3.org/Graphics/SVG/1.1/DTD/svg11.dtd">
<svg version="1.1" id="Layer_1" xmlns="http://www.w3.org/2000/svg" xmlns:xlink="http://www.w3.org/1999/xlink" x="0px" y="0px"
	 width="267.52px" height="95.207px" viewBox="0 0 267.52 95.207" enable-background="new 0 0 267.52 95.207" xml:space="preserve">
<path fill="#59BA47" d="M156.098,95.207H4.998L76.085,20.78c2.464-2.58,6.461-2.58,8.925,0L156.098,95.207z"/>
<path fill="#59BA47" d="M262.522,95.207h-151.1l12.044-12.61l3.755-3.932l51.733-54.164c4.428-4.636,11.607-4.636,16.035,0
	l5.022,5.258L262.522,95.207z"/>
<path fill="#59BA47" d="M222.529,74.183h-151.1l67.533-70.707c4.428-4.634,11.606-4.634,16.035,0l10.512,11.008L222.529,74.183z"/>
<path fill="#50A646" d="M89.758,25.751L4.998,95.207L76.085,20.78c2.464-2.58,6.461-2.58,8.925,0L89.758,25.751z"/>
<path fill="#50A646" d="M159.788,8.493l-88.359,65.69l67.533-70.707c4.428-4.634,11.606-4.634,16.035,0L159.788,8.493z"/>
<path fill="#50A646" d="M200.011,29.759l-72.79,48.906l51.733-54.164c4.428-4.636,11.607-4.636,16.035,0L200.011,29.759z"/>
<polygon fill="#81C44E" points="103.79,40.442 100.45,43.939 81.937,32.16 89.758,25.751 "/>
<polygon fill="#81C44E" points="159.796,8.533 154.422,12.529 174.769,28.791 177.018,26.565 "/>
<polygon fill="#81C44E" points="195,33.126 200.011,29.759 239.575,71.182 "/>
</svg>
