<?xml version="1.0" encoding="utf-8"?>
<!-- Generator: Adobe Illustrator 17.0.0, SVG Export Plug-In . SVG Version: 6.00 Build 0)  -->
<!DOCTYPE svg PUBLIC "-//W3C//DTD SVG 1.1//EN" "http://www.w3.org/Graphics/SVG/1.1/DTD/svg11.dtd">
<svg version="1.1" id="Layer_1" xmlns="http://www.w3.org/2000/svg" xmlns:xlink="http://www.w3.org/1999/xlink" x="0px" y="0px"
	 width="998.26px" height="370.54px" viewBox="5 0 998.26 370.54" enable-background="new 5 0 998.26 370.54" xml:space="preserve">
<path fill="#59BA47" d="M590.71,370.54H5l275.56-288.5c9.55-10,25.05-10,34.6,0L590.71,370.54z"/>
<path fill="#59BA47" d="M1003.26,370.54H417.54l46.69-48.87l14.56-15.24L679.32,96.46c17.17-17.98,44.99-17.98,62.16,0l19.47,20.37
	L1003.26,370.54z"/>
<path fill="#59BA47" d="M849.44,287.56H263.72L525.5,13.47c17.17-17.96,44.99-17.96,62.16,0l40.75,42.68L849.44,287.56z"/>
<path fill="#50A646" d="M333.56,101.3L5,370.54l275.56-288.5c9.55-10,25.05-10,34.6,0L333.56,101.3z"/>
<path fill="#50A646" d="M606.23,32.92L263.72,287.56L525.5,13.47c17.17-17.96,44.99-17.96,62.16,0L606.23,32.92z"/>
<path fill="#50A646" d="M760.93,116.83L478.78,306.42L679.31,96.46c17.17-17.98,44.99-17.98,62.16,0L760.93,116.83z"/>
<polygon fill="#81C44E" points="387.95,158.25 375,171.81 303.24,126.14 333.56,101.3 "/>
<polygon fill="#81C44E" points="606.27,33.09 585.43,48.57 664.31,111.6 673.02,102.98 "/>
<polygon fill="#81C44E" points="741.51,129.89 760.93,116.83 914.3,277.41 "/>
</svg>
