<?xml version="1.0" encoding="utf-8"?>
<!-- Generator: Adobe Illustrator 17.0.0, SVG Export Plug-In . SVG Version: 6.00 Build 0)  -->
<!DOCTYPE svg PUBLIC "-//W3C//DTD SVG 1.1//EN" "http://www.w3.org/Graphics/SVG/1.1/DTD/svg11.dtd">
<svg version="1.1" id="Layer_1" xmlns="http://www.w3.org/2000/svg" xmlns:xlink="http://www.w3.org/1999/xlink" x="0px" y="0px"
	 width="338.58px" height="370.728px" viewBox="0 0 338.58 370.728" enable-background="new 0 0 338.58 370.728"
	 xml:space="preserve">
<polyline fill="#E4E5E6" points="81.155,370.728 5,300.405 257.425,300.405 333.58,370.728 81.155,370.728 "/>
<polyline fill="#80C29F" points="88.092,360.906 29.63,307.381 243.375,307.381 301.838,360.906 88.092,360.906 "/>
<path fill="#C26CAB" d="M249.957,332.119c0,9.769-37.011,17.689-82.667,17.689s-82.667-7.92-82.667-17.689
	s37.011-17.689,82.667-17.689S249.957,322.349,249.957,332.119"/>
<polyline fill="#C26CAB" points="249.957,332.119 84.623,332.119 84.623,79.795 249.957,79.795 249.957,332.119 "/>
<path fill="#C679B2" d="M249.957,79.795L249.957,79.795L249.957,79.795c0,0.462-0.083,0.92-0.246,1.374
	c-1.123,3.919-7.38,14.961-42.247,16.316l42.493,207.92v-5V79.795"/>
<path fill="#C26CAB" d="M249.957,79.795c0,9.77-37.011,17.689-82.667,17.689s-82.667-7.92-82.667-17.689
	c0-9.769,37.011-17.689,82.667-17.689S249.957,70.026,249.957,79.795"/>
<path fill="#54AC75" d="M223.957,77.131c0,6.697-25.37,12.125-56.667,12.125s-56.666-5.428-56.666-12.125
	s25.37-12.126,56.666-12.126S223.957,70.434,223.957,77.131"/>
<polyline fill="#54AC75" points="223.957,77.131 110.624,77.131 110.624,40.843 223.957,40.843 223.957,77.131 "/>
<path fill="#80C29F" d="M223.957,40.843c0,6.697-25.37,12.126-56.667,12.126s-56.666-5.429-56.666-12.126
	c0-6.696,25.37-12.125,56.666-12.125S223.957,34.146,223.957,40.843"/>
<path fill="#9E6F94" d="M166.425,332.119H84.623c0,0,5.545,17.657,87.526,17.657L166.425,332.119"/>
<path fill="#9E6F94" d="M84.623,79.795L84.623,79.795v252.324l0,0h81.802l-81-249.85C84.897,81.46,84.623,80.634,84.623,79.795"/>
<path fill="#9E6F94" d="M84.623,79.795L84.623,79.795L84.623,79.795c0,0.84,0.273,1.666,0.802,2.474L84.623,79.795"/>
<path fill="#CBCCCE" d="M109.464,42.5v24.654c0.384-0.08,0.769-0.16,1.16-0.238V43.406L109.464,42.5"/>
<path fill="#A57099" d="M110.624,66.916c-0.391,0.079-0.776,0.158-1.16,0.238v12.641c0,0,1.638,0.62,4.66,1.542
	c-2.264-1.31-3.5-2.727-3.5-4.205l0,0V66.916"/>
<path fill="#649875" d="M153.785,77.131h-43.162l0,0c0,1.478,1.237,2.895,3.5,4.205c8.781,2.679,29.246,7.91,55.166,7.91
	L153.785,77.131"/>
<polyline fill="#649875" points="110.624,43.406 110.624,66.916 110.624,77.131 153.785,77.131 110.624,43.406 "/>
<path fill="#D1D3D4" d="M141.877,40.843V2.5c0-1.381-1.119-2.5-2.5-2.5c-1.381,0-2.5,1.119-2.5,2.5v38.343
	c0,1.381,1.119,2.5,2.5,2.5C140.758,43.343,141.877,42.223,141.877,40.843"/>
<path fill="#D1D3D4" d="M153.297,40.843V2.5c0-1.381-1.119-2.5-2.5-2.5c-1.381,0-2.5,1.119-2.5,2.5v38.343
	c0,1.381,1.119,2.5,2.5,2.5C152.178,43.343,153.297,42.223,153.297,40.843"/>
<path fill="#D1D3D4" d="M168.234,40.843V2.5c0-1.381-1.119-2.5-2.5-2.5c-1.381,0-2.5,1.119-2.5,2.5v38.343
	c0,1.381,1.119,2.5,2.5,2.5C167.114,43.343,168.234,42.223,168.234,40.843"/>
<path fill="#727273" d="M230.671,122.677c-44.845,8.555-90.903,8.555-135.748,0c0.625-3.274,1.249-6.548,1.874-9.823
	c43.607,8.319,88.393,8.319,132,0C229.422,116.129,230.046,119.403,230.671,122.677z"/>
<path fill="#99A3B0" d="M95.7,122.795c0.366-3.313,0.731-6.626,1.097-9.939c43.867,4.844,88.133,4.844,132,0
	C185.297,121.012,140.663,124.405,95.7,122.795z"/>
<path fill="#727273" d="M230.671,153.762c-44.845,8.555-90.903,8.555-135.748,0c0.625-3.274,1.249-6.548,1.874-9.823
	c43.607,8.319,88.393,8.319,132,0C229.422,147.213,230.046,150.487,230.671,153.762z"/>
<path fill="#99A3B0" d="M95.7,153.879c0.366-3.313,0.731-6.626,1.097-9.939c43.867,4.844,88.133,4.844,132,0
	C185.297,152.096,140.663,155.49,95.7,153.879z"/>
<path fill="#727273" d="M230.671,182.526c-44.845,8.555-90.903,8.555-135.748,0c0.625-3.274,1.249-6.548,1.874-9.823
	c43.607,8.319,88.393,8.319,132,0C229.422,175.977,230.046,179.252,230.671,182.526z"/>
<path fill="#99A3B0" d="M95.7,182.643c0.366-3.313,0.731-6.626,1.097-9.939c43.867,4.844,88.133,4.844,132,0
	C185.297,180.86,140.663,184.254,95.7,182.643z"/>
<path fill="#727273" d="M230.671,213.61c-44.845,8.555-90.903,8.555-135.748,0c0.625-3.274,1.249-6.548,1.874-9.823
	c43.607,8.319,88.393,8.319,132,0C229.422,207.062,230.046,210.336,230.671,213.61z"/>
<path fill="#99A3B0" d="M95.7,213.727c0.366-3.313,0.731-6.626,1.097-9.939c43.867,4.844,88.133,4.844,132,0
	C185.297,211.945,140.663,215.338,95.7,213.727z"/>
<path fill="#727273" d="M230.671,245.321c-44.845,8.555-90.903,8.555-135.748,0c0.625-3.274,1.249-6.548,1.874-9.823
	c43.607,8.319,88.393,8.319,132,0C229.422,238.773,230.046,242.047,230.671,245.321z"/>
<path fill="#99A3B0" d="M95.7,245.438c0.366-3.313,0.731-6.626,1.097-9.939c43.867,4.844,88.133,4.844,132,0
	C185.297,243.656,140.663,247.049,95.7,245.438z"/>
<path fill="#727273" d="M230.671,276.406c-44.845,8.555-90.903,8.555-135.748,0c0.625-3.274,1.249-6.548,1.874-9.823
	c43.607,8.319,88.393,8.319,132,0C229.422,269.857,230.046,273.131,230.671,276.406z"/>
<path fill="#99A3B0" d="M95.7,276.523c0.366-3.313,0.731-6.626,1.097-9.939c43.867,4.844,88.133,4.844,132,0
	C185.297,274.74,140.663,278.134,95.7,276.523z"/>
<path fill="#727273" d="M230.671,310.227c-44.845,8.555-90.903,8.555-135.748,0c0.625-3.274,1.249-6.548,1.874-9.823
	c43.607,8.319,88.393,8.319,132,0C229.422,303.678,230.046,306.953,230.671,310.227z"/>
<path fill="#99A3B0" d="M95.7,310.344c0.366-3.313,0.731-6.626,1.097-9.939c43.867,4.844,88.133,4.844,132,0
	C185.297,308.561,140.663,311.955,95.7,310.344z"/>
<rect x="163.816" y="326.191" fill="#2F433B" width="16.667" height="24"/>
<path fill="#67B280" d="M223.957,77.131h-25.124l2.68,9.663C201.513,86.794,214.203,84.999,223.957,77.131"/>
<path fill="#67B280" d="M223.957,42.5c0,0-0.32,0.205-0.945,0.56c-2.001,2.317-7.079,4.403-14.294,6.056
	c-4.593,1.475-10.154,2.886-16.587,3.852l6.703,24.163h25.124l0,0V42.5"/>
<path fill="#8CC7A7" d="M223.011,43.06c-1.945,1.104-6.845,3.664-14.294,6.056C215.932,47.463,221.011,45.377,223.011,43.06"/>
</svg>
