<?xml version="1.0" encoding="utf-8"?>
<!-- Generator: Adobe Illustrator 17.0.0, SVG Export Plug-In . SVG Version: 6.00 Build 0)  -->
<!DOCTYPE svg PUBLIC "-//W3C//DTD SVG 1.1//EN" "http://www.w3.org/Graphics/SVG/1.1/DTD/svg11.dtd">
<svg version="1.1" id="Layer_1" xmlns="http://www.w3.org/2000/svg" xmlns:xlink="http://www.w3.org/1999/xlink" x="0px" y="0px"
	 width="308.59px" height="563.501px" viewBox="0 0 308.59 563.501" enable-background="new 0 0 308.59 563.501"
	 xml:space="preserve">
<polyline fill="#E4E5E6" points="74.204,563.501 4.998,499.596 234.386,499.596 303.592,563.501 74.204,563.501 "/>
<polyline fill="#B8A9C2" points="80.508,554.576 27.381,505.936 221.619,505.936 274.746,554.576 80.508,554.576 "/>
<polyline fill="#939598" points="208.5,511.436 89.058,545.4 51.961,511.436 51.961,31.709 208.5,31.709 245.597,65.672 
	208.5,511.436 "/>
<polyline fill="#E7E8E9" points="245.597,545.4 89.058,545.4 89.058,65.672 245.597,65.672 245.597,545.4 "/>
<polyline fill="#897E91" points="89.058,65.672 51.961,31.709 208.5,31.709 245.597,65.672 89.058,65.672 "/>
<path d="M100.614,43.52V17.427c0-2.485-2.015-4.5-4.5-4.5c-2.485,0-4.5,2.015-4.5,4.5V43.52c0,2.485,2.015,4.5,4.5,4.5
	C98.599,48.02,100.614,46.005,100.614,43.52"/>
<path d="M110.309,43.52V4.5c0-2.485-2.015-4.5-4.5-4.5c-2.485,0-4.5,2.015-4.5,4.5v39.02c0,2.485,2.015,4.5,4.5,4.5
	C108.295,48.02,110.309,46.005,110.309,43.52"/>
<path d="M198.213,43.52V24.01c0-2.485-2.015-4.5-4.5-4.5c-2.485,0-4.5,2.015-4.5,4.5v19.51c0,2.485,2.015,4.5,4.5,4.5
	C196.198,48.02,198.213,46.005,198.213,43.52"/>
<polyline fill="#8C839A" points="51.961,31.709 51.961,31.709 51.961,511.436 89.058,545.4 51.961,31.709 "/>
<polyline fill="#CAC4CF" points="245.597,65.672 89.058,65.672 89.058,545.4 245.597,65.672 "/>
<rect x="127.9" y="78.489" width="12.927" height="31.295"/>
<rect x="99.346" y="78.489" width="12.927" height="31.295"/>
<rect x="156.986" y="78.489" width="12.927" height="31.295"/>
<rect x="187.479" y="78.489" width="12.927" height="31.295"/>
<rect x="217.858" y="78.489" width="12.927" height="31.295"/>
<rect x="127.9" y="137.307" width="12.927" height="15.648"/>
<rect x="99.346" y="137.307" width="12.927" height="15.648"/>
<rect x="156.986" y="137.307" width="12.927" height="15.648"/>
<rect x="187.479" y="137.307" width="12.927" height="15.648"/>
<rect x="217.858" y="137.307" width="12.927" height="15.648"/>
<rect x="127.9" y="180.612" width="12.927" height="15.648"/>
<rect x="99.346" y="180.612" width="12.927" height="15.648"/>
<rect x="156.986" y="180.612" width="12.927" height="15.648"/>
<rect x="187.479" y="180.612" width="12.927" height="15.648"/>
<rect x="217.858" y="180.612" width="12.927" height="15.648"/>
<rect x="127.9" y="224.442" width="12.927" height="15.648"/>
<rect x="99.346" y="224.442" width="12.927" height="15.648"/>
<rect x="156.986" y="224.442" width="12.927" height="15.648"/>
<rect x="187.479" y="224.442" width="12.927" height="15.648"/>
<rect x="217.858" y="224.442" width="12.927" height="15.648"/>
<rect x="127.9" y="266.149" width="12.927" height="15.648"/>
<rect x="99.346" y="266.149" width="12.927" height="15.648"/>
<rect x="156.986" y="266.149" width="12.927" height="15.648"/>
<rect x="187.479" y="266.149" width="12.927" height="15.648"/>
<rect x="217.858" y="266.149" width="12.927" height="15.648"/>
<rect x="127.9" y="309.455" width="12.927" height="15.648"/>
<rect x="99.346" y="309.455" width="12.927" height="15.648"/>
<rect x="156.986" y="309.455" width="12.927" height="15.648"/>
<rect x="187.479" y="309.455" width="12.927" height="15.648"/>
<rect x="217.858" y="309.455" width="12.927" height="15.648"/>
<rect x="127.9" y="353.285" width="12.927" height="15.648"/>
<rect x="99.346" y="353.285" width="12.927" height="15.648"/>
<rect x="156.986" y="353.285" width="12.927" height="15.648"/>
<rect x="187.479" y="353.285" width="12.927" height="15.648"/>
<rect x="217.858" y="353.285" width="12.927" height="15.648"/>
<rect x="127.9" y="392.876" width="12.927" height="15.648"/>
<rect x="99.346" y="392.876" width="12.927" height="15.648"/>
<rect x="156.986" y="392.876" width="12.927" height="15.648"/>
<rect x="187.479" y="392.876" width="12.927" height="15.648"/>
<rect x="217.858" y="392.876" width="12.927" height="15.648"/>
<rect x="127.9" y="436.181" width="12.927" height="15.648"/>
<rect x="99.346" y="436.181" width="12.927" height="15.648"/>
<rect x="156.986" y="436.181" width="12.927" height="15.648"/>
<rect x="187.479" y="436.181" width="12.927" height="15.648"/>
<rect x="217.858" y="436.181" width="12.927" height="15.648"/>
<rect x="127.9" y="480.011" width="12.927" height="15.648"/>
<rect x="99.346" y="480.011" width="12.927" height="15.648"/>
<rect x="156.986" y="480.011" width="12.927" height="15.648"/>
<rect x="156.986" y="515.112" width="12.927" height="30.288"/>
<rect x="187.249" y="515.112" width="12.927" height="30.288"/>
<rect x="187.479" y="480.011" width="12.927" height="15.648"/>
<rect x="217.858" y="480.011" width="12.927" height="15.648"/>
</svg>
