<?xml version="1.0" encoding="utf-8"?>
<!-- Generator: Adobe Illustrator 17.0.0, SVG Export Plug-In . SVG Version: 6.00 Build 0)  -->
<!DOCTYPE svg PUBLIC "-//W3C//DTD SVG 1.1//EN" "http://www.w3.org/Graphics/SVG/1.1/DTD/svg11.dtd">
<svg version="1.1" id="Layer_1" xmlns="http://www.w3.org/2000/svg" xmlns:xlink="http://www.w3.org/1999/xlink" x="0px" y="0px"
	 width="338.58px" height="273.243px" viewBox="0 0 338.58 273.243" enable-background="new 0 0 338.58 273.243"
	 xml:space="preserve">
<polyline fill="#E4E5E6" points="81.155,273.243 5,202.92 257.425,202.92 333.58,273.243 81.155,273.243 "/>
<polyline fill="#809158" points="88.092,263.422 29.629,209.897 243.375,209.897 301.838,263.422 88.092,263.422 "/>
<polyline fill="#6A9885" points="226,215.949 94.562,253.324 53.739,215.949 53.739,23.228 226,23.228 266.823,60.602 226,215.949 
	"/>
<polyline fill="#C4E4CB" points="266.823,253.324 94.562,253.324 94.562,60.602 266.823,60.602 266.823,253.324 "/>
<polyline fill="#B1C9B5" points="94.562,60.602 94.562,60.602 94.562,253.324 266.823,253.324 151.948,202.92 138.906,170.577 
	138.906,189.683 105.573,189.683 105.573,141.683 127.255,141.683 118.922,121.016 105.573,121.016 105.573,87.909 94.562,60.602 
	"/>
<polyline fill="#809158" points="94.562,60.602 53.739,23.228 226,23.228 266.823,60.602 94.562,60.602 "/>
<polyline fill="#6A9885" points="126.517,38.91 99.981,46.455 91.739,38.91 91.739,0 126.517,0 134.759,7.546 126.517,38.91 "/>
<polyline fill="#C4E4CB" points="134.759,46.455 99.981,46.455 99.981,7.546 134.759,7.546 134.759,46.455 "/>
<polygon fill="#809158" points="99.981,7.546 91.739,0 126.518,0 134.759,7.546 "/>
<polyline fill="#6A9885" points="211.726,38.91 185.189,46.455 176.948,38.91 176.948,0 211.726,0 219.968,7.546 211.726,38.91 "/>
<polyline fill="#C4E4CB" points="219.968,46.455 185.189,46.455 185.189,7.546 219.968,7.546 219.968,46.455 "/>
<polygon fill="#809158" points="185.19,7.546 176.948,0 211.726,0 219.968,7.546 "/>
<polyline fill="#415C51" points="138.906,121.016 105.573,121.016 105.573,73.016 138.906,73.016 138.906,121.016 "/>
<polyline fill="#415C51" points="248.239,121.016 214.906,121.016 214.906,73.016 248.239,73.016 248.239,121.016 "/>
<polyline fill="#415C51" points="193.614,121.016 160.281,121.016 160.281,73.016 193.614,73.016 193.614,121.016 "/>
<polyline fill="#65776D" points="214.906,73.016 214.906,73.016 214.906,121.016 248.239,121.016 214.906,73.016 "/>
<polyline fill="#65776D" points="160.281,73.016 160.281,73.016 160.281,121.016 193.614,121.016 160.281,73.016 "/>
<polyline fill="#65776D" points="105.573,73.016 105.573,73.016 105.573,121.016 138.906,121.016 105.573,73.016 "/>
<polyline fill="#415C51" points="138.906,189.683 105.573,189.683 105.573,141.683 138.906,141.683 138.906,189.683 "/>
<polyline fill="#415C51" points="248.239,189.683 214.906,189.683 214.906,141.683 248.239,141.683 248.239,189.683 "/>
<polyline fill="#415C51" points="193.614,189.683 160.281,189.683 160.281,141.683 193.614,141.683 193.614,189.683 "/>
<rect x="151.948" y="228.707" fill="#2F433B" width="16.667" height="24"/>
<rect x="219.281" y="228.707" fill="#2F433B" width="16.667" height="24"/>
<polyline fill="#65776D" points="214.906,141.683 214.906,141.683 214.906,189.683 248.239,189.683 214.906,141.683 "/>
<polyline fill="#65776D" points="160.281,141.683 160.281,141.683 160.281,189.683 193.614,189.683 160.281,141.683 "/>
<polyline fill="#65776D" points="105.573,141.683 105.573,141.683 105.573,189.683 138.906,189.683 105.573,141.683 "/>
<polyline fill="#5F8373" points="53.739,23.228 53.739,23.228 53.739,215.949 94.562,253.324 53.739,23.228 "/>
<polyline fill="#B3CCAC" points="99.981,9.371 99.981,46.455 122.239,46.455 99.981,9.371 "/>
<polyline fill="#B3CCAC" points="185.329,9.371 185.329,46.455 207.587,46.455 185.329,9.371 "/>
</svg>
