<?xml version="1.0" encoding="utf-8"?>
<!-- Generator: Adobe Illustrator 17.0.0, SVG Export Plug-In . SVG Version: 6.00 Build 0)  -->
<!DOCTYPE svg PUBLIC "-//W3C//DTD SVG 1.1//EN" "http://www.w3.org/Graphics/SVG/1.1/DTD/svg11.dtd">
<svg version="1.1" id="Layer_1" xmlns="http://www.w3.org/2000/svg" xmlns:xlink="http://www.w3.org/1999/xlink" x="0px" y="0px"
	 width="463.78px" height="268.416px" viewBox="0 0 463.78 268.416" enable-background="new 0 0 463.78 268.416"
	 xml:space="preserve">
<polyline fill="#E6E6E4" points="81.153,268.416 4.998,198.093 382.627,198.093 458.782,268.416 81.153,268.416 "/>
<polyline fill="#92635A" points="88.091,258.594 29.628,205.069 368.576,205.069 427.039,258.594 88.091,258.594 "/>
<polyline fill="#988A6A" points="351.201,211.122 94.561,248.496 53.738,211.122 53.738,82.789 351.201,82.789 392.024,120.163 
	351.201,211.122 "/>
<polyline fill="#E3D6C4" points="392.024,248.496 94.561,248.496 94.561,120.163 392.024,120.163 392.024,248.496 "/>
<polyline fill="#B0A698" points="351.115,224.472 135.471,224.472 135.471,144.188 351.115,144.188 351.115,224.472 "/>
<polyline fill="#9B968D" points="147.115,144.188 135.471,144.188 135.471,224.472 317.675,224.472 281.361,207.378 
	163.728,207.378 163.728,188.807 241.906,188.807 221.977,179.426 163.728,179.426 163.728,160.855 182.523,160.855 
	147.115,144.188 "/>
<polyline fill="#CAC0B1" points="143.782,120.163 94.561,120.163 94.561,248.496 392.024,248.496 345.552,224.472 135.471,224.472 
	135.471,144.188 190.251,144.187 143.782,120.163 "/>
<polyline fill="#9F978B" points="135.471,144.188 135.471,144.188 135.471,224.472 345.552,224.472 317.675,224.472 
	135.471,224.472 135.471,144.188 "/>
<polyline fill="#92635A" points="94.561,120.163 53.738,82.789 351.201,82.789 392.024,120.163 94.561,120.163 "/>
<polygon fill="#BF8175" points="102.448,113.497 74.405,89.455 343.782,89.455 371.358,113.497 "/>
<polygon fill="#94645B" points="98.602,101.414 87.981,92.308 190.004,92.308 200.448,101.414 "/>
<polygon fill="#94645B" points="313.115,101.414 302.494,92.308 340.671,92.308 351.115,101.414 "/>
<polyline fill="#83775E" points="53.738,82.789 53.738,82.789 53.738,211.122 94.561,248.496 53.738,82.789 "/>
<ellipse fill="#61423C" cx="125.061" cy="94.906" rx="9.387" ry="2.718"/>
<polyline fill="#61423C" points="134.448,94.906 115.674,94.906 115.674,2.718 134.448,2.718 134.448,94.906 "/>
<ellipse cx="125.061" cy="2.718" rx="9.387" ry="2.718"/>
<path fill="#90766F" d="M134.448,15.028c0,1.5-4.201,2.71-9.387,2.71c-5.186,0-9.387-1.21-9.387-2.71v13.395
	c0,1.5,4.201,2.72,9.387,2.72c5.186,0,9.387-1.22,9.387-2.72V15.028"/>
<ellipse fill="#61423C" cx="163.728" cy="94.906" rx="9.387" ry="2.718"/>
<polyline fill="#61423C" points="173.115,94.906 154.341,94.906 154.341,2.718 173.115,2.718 173.115,94.906 "/>
<ellipse cx="163.728" cy="2.718" rx="9.387" ry="2.718"/>
<path fill="#90766F" d="M173.115,15.028c0,1.5-4.201,2.71-9.387,2.71c-5.186,0-9.386-1.21-9.386-2.71v13.395
	c0,1.5,4.201,2.72,9.386,2.72c5.186,0,9.387-1.22,9.387-2.72V15.028"/>
<ellipse fill="#61423C" cx="327.061" cy="94.906" rx="9.387" ry="2.718"/>
<polyline fill="#61423C" points="336.448,94.906 317.674,94.906 317.674,34.232 336.448,34.232 336.448,94.906 "/>
<ellipse cx="327.061" cy="34.232" rx="9.387" ry="2.718"/>
<path fill="#90766F" d="M336.448,46.542c0,1.5-4.201,2.71-9.387,2.71c-5.186,0-9.387-1.21-9.387-2.71v13.395
	c0,1.5,4.201,2.72,9.387,2.72c5.186,0,9.387-1.22,9.387-2.72V46.542"/>
<polyline fill="#9F998F" points="327.061,160.855 182.523,160.855 221.977,179.426 327.061,179.426 327.061,160.855 "/>
<polyline fill="#8C8983" points="182.523,160.855 163.728,160.855 163.728,179.426 221.977,179.426 182.523,160.855 "/>
<polyline fill="#9F998F" points="327.061,188.807 241.906,188.807 281.361,207.378 327.061,207.378 327.061,188.807 "/>
<polyline fill="#8C8983" points="241.906,188.807 163.728,188.807 163.728,207.378 281.361,207.378 241.906,188.807 "/>
</svg>
