<?xml version="1.0" encoding="utf-8"?>
<!-- Generator: Adobe Illustrator 17.0.0, SVG Export Plug-In . SVG Version: 6.00 Build 0)  -->
<!DOCTYPE svg PUBLIC "-//W3C//DTD SVG 1.1//EN" "http://www.w3.org/Graphics/SVG/1.1/DTD/svg11.dtd">
<svg version="1.1" id="Layer_1" xmlns="http://www.w3.org/2000/svg" xmlns:xlink="http://www.w3.org/1999/xlink" x="0px" y="0px"
	 width="361.61px" height="369.749px" viewBox="0 0 361.61 369.749" enable-background="new 0 0 361.61 369.749"
	 xml:space="preserve">
<polyline fill="#F2F2F3" points="90.418,369.749 5.002,290.387 271.192,290.387 356.608,369.749 90.418,369.749 "/>
<polyline fill="#E4E5E6" points="97.533,361.566 28.328,297.661 261.351,297.661 330.556,361.566 97.533,361.566 "/>
<polyline fill="#F1E0A6" points="124.038,350.635 78.925,306.247 265.452,306.247 236.92,350.635 124.038,350.635 "/>
<polyline fill="#DBB22A" points="250.458,309.501 225.75,343.465 131.016,343.465 93.919,309.501 93.919,13.349 250.458,13.349 
	250.458,309.501 "/>
<polyline fill="#F1CD57" points="225.75,343.465 131.016,343.465 131.016,47.312 225.75,47.312 225.75,343.465 "/>
<polyline fill="#F1C73A" points="131.016,47.312 93.919,13.349 250.458,13.349 225.75,47.312 131.016,47.312 "/>
<path fill="#DFBC48" d="M179.053,22.116c-7.334,0-13.28,1.217-13.28,2.718s5.946,2.717,13.28,2.717
	c7.334,0,13.279-1.216,13.279-2.717S186.387,22.116,179.053,22.116"/>
<path fill="#DFBC48" d="M208.523,22.116c-7.215,0-13.064,1.217-13.064,2.718s5.849,2.717,13.064,2.717
	c7.215,0,13.064-1.216,13.064-2.717S215.738,22.116,208.523,22.116"/>
<polyline fill="#F1DA8E" points="225.75,47.312 250.458,13.349 250.458,309.501 225.75,343.465 225.75,47.312 "/>
<path fill="#A7AAAC" d="M224.314,20.884c-6.446,5.065-15.294,4.559-19.764-1.129c-4.469-5.688-2.867-14.405,3.578-19.47
	L224.314,20.884z"/>
<ellipse transform="matrix(-0.7863 0.6178 -0.6178 -0.7863 392.7762 -114.6816)" fill="#E7E8E9" cx="216.221" cy="10.585" rx="3.938" ry="13.098"/>
<path fill="#A7AAAC" d="M194.485,20.884c-6.446,5.065-15.294,4.559-19.764-1.129c-4.469-5.688-2.867-14.405,3.578-19.47
	L194.485,20.884z"/>
<ellipse transform="matrix(-0.7863 0.6178 -0.6178 -0.7863 339.4924 -96.252)" fill="#E7E8E9" cx="186.392" cy="10.585" rx="3.938" ry="13.098"/>
<polyline fill="#CBA938" points="93.919,13.349 93.919,13.349 93.919,309.501 131.016,343.465 93.919,13.349 "/>
<path fill="#F2D066" d="M217.841,61.477L217.841,61.477v10.561h-78.723V61.477H217.841 M225.75,47.312h-94.734v296.152
	l15.911-49.741h-7.81v-10.561h11.188l9.766-30.531h-20.955V242.07h24.333l7.339-22.942h-31.672v-10.561h35.05l7.958-24.879h-43.009
	v-10.562h46.387l8.342-26.077h-54.729v-10.562h58.107l8.831-27.605h-66.938V98.32h70.316L225.75,47.312"/>
<polyline fill="#F2CA4D" points="225.75,47.312 224.314,47.312 131.016,47.312 225.75,47.312 "/>
<polyline fill="#731F1A" points="217.841,72.038 139.118,72.038 139.118,61.477 217.841,61.477 217.841,72.038 "/>
<polyline fill="#96594A" points="217.841,61.477 139.118,61.477 139.118,72.038 217.841,61.477 "/>
<polyline fill="#731F1A" points="217.841,108.882 139.118,108.882 139.118,98.32 217.841,98.32 217.841,108.882 "/>
<polyline fill="#96594A" points="217.841,98.32 209.434,98.32 139.118,98.32 139.118,108.882 217.841,98.32 "/>
<polyline fill="#731F1A" points="217.841,147.049 139.118,147.049 139.118,136.487 217.841,136.487 217.841,147.049 "/>
<polyline fill="#96594A" points="217.841,136.487 197.225,136.487 139.118,136.487 139.118,147.049 217.841,136.487 "/>
<polyline fill="#731F1A" points="217.841,183.687 139.118,183.687 139.118,173.126 217.841,173.126 217.841,183.687 "/>
<polyline fill="#96594A" points="217.841,173.126 185.505,173.126 139.118,173.126 139.118,183.687 217.841,173.126 "/>
<polyline fill="#731F1A" points="217.841,219.128 139.118,219.128 139.118,208.567 217.841,208.567 217.841,219.128 "/>
<polyline fill="#96594A" points="217.841,208.567 174.168,208.567 139.118,208.567 139.118,219.128 217.841,208.567 "/>
<polyline fill="#731F1A" points="217.841,252.631 139.118,252.631 139.118,242.07 217.841,242.07 217.841,252.631 "/>
<polyline fill="#96594A" points="217.841,242.07 163.451,242.07 139.118,242.07 139.118,252.631 217.841,242.07 "/>
<polyline fill="#731F1A" points="217.841,293.723 139.118,293.723 139.118,283.162 217.841,283.162 217.841,293.723 "/>
<rect x="154.869" y="322.586" fill="#731F1A" width="47.221" height="20.878"/>
<polyline fill="#96594A" points="217.841,283.162 150.306,283.162 139.118,283.162 139.118,293.723 217.841,283.162 "/>
<polyline fill="#F4E1A6" points="250.458,13.349 225.75,47.312 225.75,343.465 250.458,13.349 "/>
</svg>
