<?xml version="1.0" encoding="utf-8"?>
<!-- Generator: Adobe Illustrator 17.0.0, SVG Export Plug-In . SVG Version: 6.00 Build 0)  -->
<!DOCTYPE svg PUBLIC "-//W3C//DTD SVG 1.1//EN" "http://www.w3.org/Graphics/SVG/1.1/DTD/svg11.dtd">
<svg version="1.1" id="Layer_1" xmlns="http://www.w3.org/2000/svg" xmlns:xlink="http://www.w3.org/1999/xlink" x="0px" y="0px"
	 width="338.58px" height="336.446px" viewBox="0 0 338.58 336.446" enable-background="new 0 0 338.58 336.446"
	 xml:space="preserve">
<polyline fill="#E6E4E4" points="81.155,336.446 5,266.123 257.425,266.123 333.58,336.446 81.155,336.446 "/>
<polyline fill="#6A5992" points="88.092,326.624 29.63,273.1 243.375,273.1 301.838,326.624 88.092,326.624 "/>
<polyline fill="#986A80" points="226,279.152 94.563,316.527 53.74,279.152 53.74,0 226,0 266.823,37.374 226,279.152 "/>
<polyline fill="#E3C4DE" points="266.823,316.527 94.563,316.527 94.563,37.374 266.823,37.374 266.823,316.527 "/>
<path fill="#CBB0C4" d="M105.573,204.885h33.333v48h-33.333V204.885 M160.281,204.885h33.333v48h-33.333V204.885 M105.573,136.219
	h33.333v48h-33.333V136.219 M94.563,37.374L94.563,37.374v279.152h172.26l-39.272-63.641h-12.644v-20.491l-29.729-48.176h-24.897
	v-40.346l-21.375-34.639v5.881h-33.333v-48h7.343L94.563,37.374"/>
<polyline fill="#6A5992" points="94.563,37.374 53.74,0 226,0 266.823,37.374 94.563,37.374 "/>
<polyline fill="#5C424E" points="138.906,184.219 105.573,184.219 105.573,136.219 138.906,136.219 138.906,184.219 "/>
<polyline fill="#5C424E" points="248.24,184.219 214.906,184.219 214.906,136.219 248.24,136.219 248.24,184.219 "/>
<polyline fill="#5C424E" points="193.615,184.219 160.281,184.219 160.281,136.219 193.615,136.219 193.615,184.219 "/>
<polyline fill="#79616A" points="214.906,136.219 214.906,136.219 214.906,184.219 248.24,184.219 214.906,136.219 "/>
<polyline fill="#79616A" points="160.281,136.219 160.281,136.219 160.281,184.219 193.615,184.219 160.281,136.219 "/>
<polyline fill="#79616A" points="105.573,136.219 105.573,136.219 105.573,184.219 138.906,184.219 105.573,136.219 "/>
<polyline fill="#5C424E" points="138.906,115.116 105.573,115.116 105.573,67.116 138.906,67.116 138.906,115.116 "/>
<polyline fill="#5C424E" points="248.24,115.116 214.906,115.116 214.906,67.116 248.24,67.116 248.24,115.116 "/>
<polyline fill="#5C424E" points="193.615,115.116 160.281,115.116 160.281,67.116 193.615,67.116 193.615,115.116 "/>
<polyline fill="#79616A" points="214.906,67.116 214.906,67.116 214.906,115.116 248.24,115.116 214.906,67.116 "/>
<polyline fill="#79616A" points="160.281,67.116 160.281,67.116 160.281,115.116 193.615,115.116 160.281,67.116 "/>
<polyline fill="#79616A" points="105.573,67.116 105.573,67.116 105.573,115.116 138.906,115.116 105.573,67.116 "/>
<polyline fill="#5C424E" points="138.906,252.885 105.573,252.885 105.573,204.885 138.906,204.885 138.906,252.885 "/>
<polyline fill="#5C424E" points="248.24,252.885 214.906,252.885 214.906,204.885 248.24,204.885 248.24,252.885 "/>
<polyline fill="#5C424E" points="193.615,252.885 160.281,252.885 160.281,204.885 193.615,204.885 193.615,252.885 "/>
<rect x="219.281" y="291.91" fill="#432F38" width="16.667" height="24"/>
<polyline fill="#79616A" points="214.906,204.885 214.906,204.885 214.906,252.885 248.24,252.885 214.906,204.885 "/>
<polyline fill="#79616A" points="160.281,204.885 160.281,204.885 160.281,252.885 193.615,252.885 160.281,204.885 "/>
<polyline fill="#79616A" points="105.573,204.885 105.573,204.885 105.573,252.885 138.906,252.885 105.573,204.885 "/>
<polyline fill="#835F70" points="53.74,0 53.74,0 53.74,279.152 94.563,316.527 53.74,0 "/>
</svg>
