<?xml version="1.0" encoding="utf-8"?>
<!-- Generator: Adobe Illustrator 17.0.0, SVG Export Plug-In . SVG Version: 6.00 Build 0)  -->
<!DOCTYPE svg PUBLIC "-//W3C//DTD SVG 1.1//EN" "http://www.w3.org/Graphics/SVG/1.1/DTD/svg11.dtd">
<svg version="1.1" id="Layer_1" xmlns="http://www.w3.org/2000/svg" xmlns:xlink="http://www.w3.org/1999/xlink" x="0px" y="0px"
	 width="384.77px" height="617.514px" viewBox="0 0 384.77 617.514" enable-background="new 0 0 384.77 617.514"
	 xml:space="preserve">
<polyline fill="#F2F2F3" points="86.74,617.514 5,541.338 298.03,541.338 379.77,617.514 86.74,617.514 "/>
<polyline fill="#A7CDD6" points="93.821,609.155 29.432,549.697 289.132,549.697 353.52,609.155 93.821,609.155 "/>
<polyline fill="#C98857" points="276.013,486.282 238.916,452.318 282.923,452.318 320.021,486.282 276.013,486.282 "/>
<polyline fill="#8B5E3C" points="261.806,561.537 142.893,590.98 105.267,561.537 105.267,81.81 261.806,81.81 298.904,115.773 
	261.806,561.537 "/>
<polyline fill="#E19963" points="298.901,115.219 298.901,594.94 142.362,594.94 142.362,457.446 214.986,457.446 214.986,115.219 
	298.901,115.219 "/>
<polyline fill="#C98857" points="142.364,115.773 105.267,81.81 261.806,81.81 298.904,115.773 142.364,115.773 "/>
<polyline fill="#9C6943" points="159.935,109.085 136.805,86.631 256.817,86.631 279.946,109.085 159.935,109.085 "/>
<polyline fill="#8B5E3C" points="238.916,435.724 139.566,471.164 105.267,437.2 105.267,27.623 190.64,29.939 216.197,61.586 
	238.916,435.724 "/>
<polyline fill="#E19963" points="238.916,61.587 238.916,471.163 142.362,471.163 142.362,61.587 238.916,61.587 "/>
<polyline fill="#C98857" points="142.364,61.586 105.267,27.623 201.819,27.623 238.916,61.586 142.364,61.586 "/>
<polygon fill="#9C6943" points="147.444,53.753 123.49,31.822 194.085,31.822 218.039,53.753 "/>
<polyline fill="#8B5E3C" points="142.362,560.06 98.354,594.94 61.258,561.537 61.258,302.286 94.087,304.603 119.644,336.25 
	142.362,560.06 "/>
<polyline fill="#E19963" points="152.283,335.691 152.283,594.94 98.354,594.94 98.354,335.691 152.283,335.691 "/>
<polyline fill="#E19963" points="320.906,486.282 320.906,594.94 275.568,594.94 275.568,486.282 320.906,486.282 "/>
<polyline fill="#C98857" points="98.355,336.25 61.258,302.286 105.265,302.286 142.362,336.25 98.355,336.25 "/>
<polygon fill="#9C6943" points="102.602,328.263 80.942,308.012 100.723,308.012 122.383,328.263 "/>
<path fill="#D1D3D4" d="M144.863,41.52V2.5c0-1.381-1.119-2.5-2.5-2.5c-1.381,0-2.5,1.119-2.5,2.5v39.02c0,1.381,1.119,2.5,2.5,2.5
	C143.743,44.02,144.863,42.9,144.863,41.52"/>
<path fill="#D1D3D4" d="M151.451,41.52V11.206c0-1.381-1.119-2.5-2.5-2.5c-1.381,0-2.5,1.119-2.5,2.5V41.52
	c0,1.381,1.119,2.5,2.5,2.5C150.332,44.02,151.451,42.9,151.451,41.52"/>
<polyline fill="#D8D9DB" points="238.916,61.586 216.197,61.586 238.916,61.587 238.916,61.586 "/>
<polyline fill="#7F5E44" points="216.197,61.586 142.364,61.586 216.197,61.587 216.197,61.586 "/>
<polyline fill="#C39068" points="238.916,61.587 216.197,61.587 142.362,61.587 142.362,335.691 142.559,335.691 238.916,61.586 "/>
<polyline fill="#B3845E" points="238.916,61.586 142.364,61.586 216.197,61.586 238.916,61.586 "/>
<polyline fill="#C39068" points="142.559,335.691 142.362,335.691 142.362,336.25 142.559,335.691 "/>
<polyline fill="#C39068" points="142.362,336.25 98.355,336.25 98.354,594.94 142.362,336.25 "/>
<polyline fill="#D8D9DB" points="238.916,61.586 238.916,61.586 238.916,61.587 238.916,81.81 238.916,61.586 "/>
<polyline fill="#C39068" points="238.916,61.587 238.916,61.587 142.559,335.691 152.283,335.691 152.283,410.886 238.916,115.219 
	238.916,109.085 238.916,86.631 238.916,81.81 238.916,61.587 "/>
<polyline fill="#C39068" points="152.283,335.691 142.559,335.691 142.362,336.25 98.354,594.94 152.283,410.886 152.283,335.691 
	"/>
<polyline fill="#AC8768" points="238.916,61.587 238.916,61.587 142.559,335.691 238.916,61.586 "/>
<polyline fill="#C5C6C8" points="105.267,27.623 105.265,302.286 105.267,302.288 105.267,81.81 105.267,27.623 "/>
<polyline fill="#795D47" points="105.267,27.623 105.267,81.81 105.267,302.288 141.752,335.691 142.295,335.691 105.267,27.623 "/>
<polyline fill="#B58B69" points="142.295,335.691 141.752,335.691 142.362,336.25 142.295,335.691 "/>
<polyline fill="#C5C6C8" points="61.258,302.286 59.895,302.286 61.152,541.338 61.258,541.338 61.258,302.286 "/>
<polyline fill="#BDBFC1" points="61.258,541.338 61.152,541.338 61.196,549.697 61.258,549.697 61.258,541.338 "/>
<polyline fill="#94AAB1" points="61.258,549.697 61.196,549.697 61.258,561.537 61.258,549.697 "/>
<polyline fill="#795D47" points="61.258,302.286 61.258,541.338 61.258,549.697 61.258,561.537 98.354,594.94 61.258,302.286 "/>
<polyline fill="#D29565" points="239.006,115.773 238.916,115.773 238.916,259.1 252.274,227.183 243.426,227.183 243.426,207.191 
	253.785,207.191 239.006,115.773 "/>
<polyline fill="#BF865B" points="238.916,115.219 238.916,115.219 238.916,115.773 239.006,115.773 238.916,115.219 "/>
<polyline fill="#D29565" points="238.916,115.219 152.283,410.886 152.283,466.089 238.916,259.1 238.916,115.773 238.916,115.219 
	"/>
<polyline fill="#D29565" points="152.283,410.886 98.354,594.94 152.283,466.089 152.283,410.886 "/>
<rect x="152.283" y="75.424" fill="#448B9C" width="12.419" height="19.992"/>
<rect x="184.429" y="105.777" fill="#448B9C" width="12.419" height="19.992"/>
<rect x="156.215" y="151.455" fill="#448B9C" width="12.419" height="19.992"/>
<rect x="211.829" y="151.455" fill="#448B9C" width="12.419" height="19.992"/>
<polyline fill="#448B9C" points="281.778,171.447 269.359,171.447 269.359,151.455 281.778,151.455 281.778,171.447 "/>
<rect x="185.267" y="207.19" fill="#448B9C" width="12.419" height="19.992"/>
<polyline fill="#448B9C" points="255.845,227.183 243.426,227.183 243.426,207.191 255.845,207.191 255.845,227.183 "/>
<rect x="214.422" y="252.625" fill="#448B9C" width="12.419" height="19.992"/>
<rect x="156.215" y="252.625" fill="#448B9C" width="12.419" height="19.992"/>
<polyline fill="#448B9C" points="281.778,329.264 269.359,329.264 269.359,309.272 281.778,309.272 281.778,329.264 "/>
<rect x="186.175" y="309.272" fill="#448B9C" width="12.419" height="19.992"/>
<rect x="117.28" y="373.812" fill="#448B9C" width="12.419" height="19.992"/>
<rect x="158.493" y="373.812" fill="#448B9C" width="12.419" height="19.992"/>
<rect x="232.706" y="373.812" fill="#448B9C" width="12.419" height="19.992"/>
<rect x="232.706" y="429.396" fill="#448B9C" width="12.419" height="19.992"/>
<rect x="136.153" y="425.728" fill="#448B9C" width="12.419" height="19.992"/>
<rect x="111.07" y="489.39" fill="#448B9C" width="12.419" height="19.992"/>
<rect x="173.756" y="489.39" fill="#448B9C" width="12.419" height="19.992"/>
<rect x="156.215" y="567.959" fill="#9C6943" width="12.419" height="27.099"/>
<rect x="202.166" y="567.959" fill="#9C6943" width="12.419" height="27.099"/>
<rect x="261.317" y="567.959" fill="#9C6943" width="12.419" height="27.099"/>
<rect x="273.737" y="489.39" fill="#448B9C" width="12.419" height="19.992"/>
<polyline fill="#F1F6F7" points="298.904,115.773 298.904,115.773 298.901,115.8 298.901,466.947 298.904,466.949 298.904,115.773 
	"/>
<polyline fill="#C69166" points="298.901,466.947 298.901,486.268 298.904,486.282 298.904,466.949 298.901,466.947 "/>
<polyline fill="#DBA071" points="298.904,115.773 281.778,156.691 281.778,171.447 275.602,171.447 255.845,218.651 
	255.845,219.938 270.287,309.272 281.778,309.272 281.778,329.264 273.52,329.264 298.901,486.268 298.901,466.947 298.901,115.8 
	298.901,115.779 "/>
<polyline fill="#CF9C72" points="298.904,115.773 239.006,115.773 253.785,207.191 255.845,207.191 255.845,218.651 
	275.602,171.447 269.359,171.447 269.359,151.455 281.778,151.455 281.778,156.691 298.904,115.773 298.901,115.773 "/>
<polyline fill="#BD8F69" points="238.916,115.219 239.006,115.773 298.904,115.773 238.916,115.219 "/>
<polyline fill="#5393A3" points="281.778,151.455 269.359,151.455 269.359,171.447 275.602,171.447 281.778,171.447 
	281.778,156.691 281.778,151.455 "/>
<polyline fill="#5393A3" points="255.845,207.191 253.785,207.191 255.845,219.938 255.845,218.651 255.845,207.191 "/>
<polyline fill="#5393A3" points="281.778,309.272 270.287,309.272 273.52,329.264 281.778,329.264 281.778,309.272 "/>
<polyline fill="#D6A87E" points="320.906,486.282 320.021,486.282 298.904,486.282 320.906,594.94 320.906,486.282 "/>
</svg>
