<?xml version="1.0" encoding="utf-8"?>
<!-- Generator: Adobe Illustrator 17.0.0, SVG Export Plug-In . SVG Version: 6.00 Build 0)  -->
<!DOCTYPE svg PUBLIC "-//W3C//DTD SVG 1.1//EN" "http://www.w3.org/Graphics/SVG/1.1/DTD/svg11.dtd">
<svg version="1.1" id="Layer_1" xmlns="http://www.w3.org/2000/svg" xmlns:xlink="http://www.w3.org/1999/xlink" x="0px" y="0px"
	 width="359.01px" height="634.929px" viewBox="0 0 359.01 634.929" enable-background="new 0 0 359.01 634.929"
	 xml:space="preserve">
<polygon fill="#E4E5E6" points="4.998,544.417 109.539,634.929 354.012,634.929 249.471,544.417 "/>
<polygon fill="#C7C8CA" points="53.462,554.431 121.4,612.56 298.163,612.56 230.226,554.431 "/>
<path fill="#00A3E1" d="M155.557,0v43.331c0,0-74.694-6.19-74.694,99.041c0,123.802,0,420.805,0,420.805l42.483,35.745h81.666V64.57
	L198.46,0.193C198.46,0.193,155.665,0,155.557,0z"/>
<path fill="#67C2E7" d="M197.85,0.193v43.331c0,0-74.694-6.19-74.694,99.041c0,123.802,0,456.357,0,456.357h139.897V64.57
	C263.053,64.57,260.989,0.193,197.85,0.193z"/>
<polygon fill="#A6D5EA" points="123.156,598.922 263.053,598.922 263.053,64.57 "/>
<rect x="143.617" y="125.286" width="25.29" height="25.29"/>
<rect x="182.473" y="125.286" width="25.29" height="25.29"/>
<rect x="221.328" y="125.286" width="25.29" height="25.29"/>
<rect x="143.617" y="207.072" width="25.29" height="25.29"/>
<rect x="182.473" y="207.072" width="25.29" height="25.29"/>
<rect x="221.328" y="207.072" width="25.29" height="25.29"/>
<rect x="143.617" y="288.858" width="25.29" height="25.29"/>
<rect x="182.473" y="288.858" width="25.29" height="25.29"/>
<rect x="221.328" y="288.858" width="25.29" height="25.29"/>
<rect x="143.617" y="370.644" width="25.29" height="25.29"/>
<rect x="182.473" y="370.644" width="25.29" height="25.29"/>
<rect x="221.328" y="370.644" width="25.29" height="25.29"/>
<rect x="143.617" y="452.43" width="25.29" height="25.29"/>
<rect x="182.473" y="452.43" width="25.29" height="25.29"/>
<rect x="221.328" y="452.43" width="25.29" height="25.29"/>
<rect x="167.159" y="570.521" width="59.801" height="28.644"/>
<polygon fill="#00A3E1" points="226.959,570.521 167.159,570.521 184.747,584.09 244.547,584.09 "/>
<path fill="#A6D5EA" d="M142.328,53.04c0,1.741-1.411,3.152-3.151,3.152c-1.74,0-3.151-1.411-3.151-3.152V15.794
	c0-1.74,1.411-3.151,3.151-3.151c1.741,0,3.151,1.411,3.151,3.151V53.04z"/>
<path fill="#A6D5EA" d="M132.482,53.491c0,1.74-1.411,3.151-3.151,3.151c-1.74,0-3.151-1.411-3.151-3.151v-7.094
	c0-1.74,1.411-3.151,3.151-3.151c1.741,0,3.151,1.411,3.151,3.151V53.491z"/>
<path fill="#0096CE" d="M80.863,142.372c0,123.802,0,420.805,0,420.805l42.483,35.745C123.345,598.922,80.863,37.141,80.863,142.372
	z"/>
<rect x="123.209" y="620.458" fill="#69B0AD" width="8.179" height="12.117"/>
<rect x="126.117" y="620.458" fill="#7ACCC8" width="8.179" height="12.117"/>
<rect x="150.52" y="620.458" fill="#69B0AD" width="8.179" height="12.117"/>
<rect x="153.428" y="620.458" fill="#7ACCC8" width="8.179" height="12.117"/>
</svg>
