<?xml version="1.0" encoding="utf-8"?>
<!-- Generator: Adobe Illustrator 15.0.0, SVG Export Plug-In . SVG Version: 6.00 Build 0)  -->
<!DOCTYPE svg PUBLIC "-//W3C//DTD SVG 1.0//EN" "http://www.w3.org/TR/2001/REC-SVG-20010904/DTD/svg10.dtd">
<svg version="1.0" id="Layer_1" xmlns="http://www.w3.org/2000/svg" xmlns:xlink="http://www.w3.org/1999/xlink" x="0px" y="0px"
	 width="53.16px" height="117.42px" viewBox="0 0 53.16 117.42" enable-background="new 0 0 53.16 117.42" xml:space="preserve">
<polygon points="49.101,0 26.58,18.918 4.06,0 6.207,32.884 26.58,30.051 46.954,32.884 "/>
<polygon fill="#FAA21B" points="35.971,31.912 4.06,36.35 4.06,0 "/>
<polygon fill="#FAA21B" points="17.189,31.912 49.101,36.35 49.101,0 "/>
<path fill="#FAA21B" d="M24.456,115.381c0,1.126-0.913,2.039-2.039,2.039s-2.039-0.913-2.039-2.039V78.733
	c0-1.126,0.913-2.039,2.039-2.039s2.039,0.913,2.039,2.039V115.381z"/>
<path fill="#FAA21B" d="M32.053,115.381c0,1.126-0.912,2.039-2.038,2.039c-1.127,0-2.039-0.913-2.039-2.039V78.733
	c0-1.126,0.912-2.039,2.039-2.039c1.126,0,2.038,0.913,2.038,2.039V115.381z"/>
<path fill="#FFDA00" d="M53.16,89.513c0,0,0-41.065,0-41.092c-0.07-14.621-11.944-26.45-26.58-26.45
	c-14.607,0-26.462,11.869-26.579,26.45C0.001,48.477,0,89.513,0,89.513c0,0.021,0.005,0.038,0.005,0.057H0v2.726l2.38,2.527
	l3.421-3.421l3.421,3.421l3.422-3.421l3.421,3.421l3.421-3.421l3.422,3.421l3.421-3.421l3.421,3.421l3.422-3.421l3.421,3.421
	l3.421-3.421l3.422,3.421l3.422-3.421l3.421,3.421l2.883-2.821v-2.432h-0.005C53.155,89.551,53.16,89.533,53.16,89.513"/>
<g opacity="0.05">
	<g>
		<defs>
			<rect id="SVGID_1_" x="1.436" y="21.348" width="26.441" height="72.849"/>
		</defs>
		<clipPath id="SVGID_2_">
			<use xlink:href="#SVGID_1_"  overflow="visible"/>
		</clipPath>
		<path clip-path="url(#SVGID_2_)" d="M27.874,21.348C13.333,21.427,1.556,33.262,1.438,47.793c0,0.057,0,41.094,0,41.094
			c0,0.019,0.005,0.036,0.006,0.057H1.438v2.724l2.379,2.529l3.421-3.422l3.423,3.422l3.42-3.422l3.422,3.422l3.421-3.422
			l3.422,3.422l3.422-3.422l0.106,0.107V21.348z"/>
	</g>
</g>
<path fill="#FAA21B" d="M26.58,60.028c-6.574,0-11.925-5.348-11.925-11.924c0-6.574,5.351-11.925,11.925-11.925
	s11.925,5.351,11.925,11.925C38.505,54.681,33.154,60.028,26.58,60.028"/>
<path fill="#FFFFFF" d="M37.671,47.149c0,6.125-4.965,11.091-11.091,11.091c-6.125,0-11.091-4.966-11.091-11.091
	s4.966-11.091,11.091-11.091C32.706,36.059,37.671,41.024,37.671,47.149"/>
<path fill="#FAA21B" d="M29.36,40.938c0,1.536-1.244,2.78-2.779,2.78c-1.537,0-2.781-1.244-2.781-2.78s1.244-2.779,2.781-2.779
	C28.116,38.159,29.36,39.402,29.36,40.938"/>
</svg>
