<?xml version="1.0" encoding="utf-8"?>
<!-- Generator: Adobe Illustrator 15.0.0, SVG Export Plug-In . SVG Version: 6.00 Build 0)  -->
<!DOCTYPE svg PUBLIC "-//W3C//DTD SVG 1.1//EN" "http://www.w3.org/Graphics/SVG/1.1/DTD/svg11.dtd">
<svg version="1.1" id="Layer_1" xmlns="http://www.w3.org/2000/svg" xmlns:xlink="http://www.w3.org/1999/xlink" x="0px" y="0px"
	 width="53.16px" height="117.42px" viewBox="0 0 53.16 117.42" enable-background="new 0 0 53.16 117.42" xml:space="preserve">
<polygon fill="#F9A11B" points="26.844,1.732 26.844,32.31 26.033,32.31 26.033,1.732 6.14,33.748 46.735,33.748 "/>
<path fill="#F9A11B" d="M24.345,115.411c0,1.11-0.9,2.009-2.009,2.009c-1.109,0-2.009-0.898-2.009-2.009V79.304
	c0-1.109,0.9-2.008,2.009-2.008c1.109,0,2.009,0.898,2.009,2.008V115.411z"/>
<path fill="#F9A11B" d="M31.83,115.411c0,1.11-0.899,2.009-2.009,2.009s-2.009-0.898-2.009-2.009V79.304
	c0-1.109,0.899-2.008,2.009-2.008s2.009,0.898,2.009,2.008V115.411z"/>
<path fill="#FFD900" d="M52.626,89.925c0,0,0-40.459,0-40.486c-0.069-14.405-11.768-26.06-26.188-26.06
	c-14.393,0-26.073,11.695-26.188,26.06c0,0.055,0,40.486,0,40.486c0,0.02,0.005,0.037,0.005,0.056H0.25v2.685l2.344,2.491
	l3.371-3.37l3.371,3.37l3.371-3.37l3.371,3.37l3.371-3.37l3.372,3.37l3.37-3.37l3.371,3.37l3.37-3.37l3.372,3.37l3.371-3.37
	l3.37,3.37l3.371-3.37l3.371,3.37l2.84-2.779V89.98H52.62C52.621,89.962,52.626,89.944,52.626,89.925"/>
<path opacity="0.1" fill="#231F20" d="M26.291,23.382C11.967,23.462,0.365,35.122,0.25,49.438c0,0.055,0,40.487,0,40.487
	c0,0.019,0.005,0.036,0.006,0.056H0.25v2.684l2.344,2.492l3.371-3.371l3.371,3.371l3.371-3.371l3.371,3.371l3.372-3.371l3.37,3.371
	l3.372-3.371l0.101,0.102V23.382z"/>
<path fill="#F9A11B" d="M26.438,60.875c-6.478,0-11.749-5.269-11.749-11.748c0-6.478,5.271-11.749,11.749-11.749
	s11.749,5.271,11.749,11.749C38.187,55.606,32.916,60.875,26.438,60.875"/>
<path fill="#FFFFFF" d="M37.366,48.186c0,6.035-4.893,10.928-10.928,10.928c-6.035,0-10.928-4.893-10.928-10.928
	c0-6.035,4.893-10.928,10.928-10.928C32.474,37.258,37.366,42.151,37.366,48.186"/>
<path fill="#F9A11B" d="M29.177,42.067c0,1.513-1.226,2.738-2.739,2.738s-2.739-1.226-2.739-2.738c0-1.513,1.226-2.739,2.739-2.739
	S29.177,40.554,29.177,42.067"/>
</svg>
