<?xml version="1.0" encoding="utf-8"?>
<!-- Generator: Adobe Illustrator 15.0.0, SVG Export Plug-In . SVG Version: 6.00 Build 0)  -->
<!DOCTYPE svg PUBLIC "-//W3C//DTD SVG 1.0//EN" "http://www.w3.org/TR/2001/REC-SVG-20010904/DTD/svg10.dtd">
<svg version="1.0" id="Layer_1" xmlns="http://www.w3.org/2000/svg" xmlns:xlink="http://www.w3.org/1999/xlink" x="0px" y="0px"
	 width="53.16px" height="117.42px" viewBox="0 0 53.16 117.42" enable-background="new 0 0 53.16 117.42" xml:space="preserve">
<g>
	<polyline points="49.102,0 26.58,18.918 4.06,0 6.207,32.884 26.58,30.051 46.954,32.884 49.102,0 	"/>
	<polyline fill="#FAA21B" points="35.971,31.912 4.06,36.35 4.06,0 35.971,31.912 	"/>
	<polyline fill="#FAA21B" points="17.189,31.912 49.102,36.35 49.102,0 17.189,31.912 	"/>
	<path fill="#FAA21B" d="M24.456,115.381c0,1.126-0.913,2.039-2.039,2.039s-2.039-0.913-2.039-2.039V78.733
		c0-1.127,0.913-2.039,2.039-2.039s2.039,0.912,2.039,2.039V115.381"/>
	<path fill="#FAA21B" d="M32.053,115.381c0,1.126-0.912,2.039-2.037,2.039c-1.127,0-2.039-0.913-2.039-2.039V78.733
		c0-1.127,0.912-2.039,2.039-2.039c1.125,0,2.037,0.912,2.037,2.039V115.381z"/>
	<path fill="#FFDA00" d="M53.16,89.513V48.421c-0.07-14.621-11.944-26.45-26.58-26.45c-14.607,0-26.462,11.869-26.579,26.45
		L0,89.513l0.005,0.057H0v2.727l2.38,2.527l3.421-3.422l3.421,3.422l3.422-3.422l3.421,3.422l3.421-3.422l3.422,3.422l3.421-3.422
		l3.421,3.422l3.422-3.422l3.421,3.422l3.421-3.422l3.422,3.422l3.422-3.422l3.422,3.422l2.883-2.821v-2.433h-0.005L53.16,89.513"/>
	<path fill="#F2CF00" d="M26.58,21.971c-0.182,0-0.363,0.002-0.544,0.005c-3.259,0.066-6.374,0.723-9.244,1.867
		C7.784,28.071,1.524,37.218,1.438,47.793v41.095l0.006,0.057H1.438v2.724l1.986,2.111l2.377-2.378l0.405,0.405l1.032-1.032
		l3.017,3.017l2.39-2.39l0.405,0.405l1.032-1.032l3.016,3.017l2.389-2.39l0.406,0.406l1.032-1.033l3.016,3.017l0.516-0.516
		l1.873-1.874l0.406,0.406l1.033-1.033l0.106,0.107v-68.88c-0.249-0.012-0.499-0.02-0.749-0.025
		C26.943,21.973,26.762,21.971,26.58,21.971z"/>
	<path fill="#FAA21B" d="M26.58,60.028c-6.574,0-11.925-5.348-11.925-11.924c0-6.574,5.351-11.925,11.925-11.925
		s11.925,5.351,11.925,11.925C38.505,54.681,33.154,60.028,26.58,60.028"/>
	<path fill="#FFFFFF" d="M37.671,47.149c0,6.125-4.965,11.091-11.091,11.091c-6.125,0-11.091-4.966-11.091-11.091
		s4.966-11.091,11.091-11.091C32.706,36.059,37.671,41.024,37.671,47.149"/>
	<path fill="#FAA21B" d="M29.359,40.938c0,1.536-1.243,2.78-2.778,2.78c-1.537,0-2.781-1.244-2.781-2.78s1.244-2.779,2.781-2.779
		C28.116,38.159,29.359,39.402,29.359,40.938"/>
</g>
</svg>
