<?xml version="1.0" encoding="utf-8"?>
<!-- Generator: Adobe Illustrator 15.0.0, SVG Export Plug-In . SVG Version: 6.00 Build 0)  -->
<!DOCTYPE svg PUBLIC "-//W3C//DTD SVG 1.0//EN" "http://www.w3.org/TR/2001/REC-SVG-20010904/DTD/svg10.dtd">
<svg version="1.0" id="Layer_1" xmlns="http://www.w3.org/2000/svg" xmlns:xlink="http://www.w3.org/1999/xlink" x="0px" y="0px"
	 width="97.529px" height="129.771px" viewBox="0 0 97.529 129.771" enable-background="new 0 0 97.529 129.771"
	 xml:space="preserve">
<g>
	<path fill="#089DCD" d="M97.53,4.417c0,5.89-21.834,30.632-48.766,30.632S0,10.306,0,4.417S97.53-1.473,97.53,4.417"/>
	<path fill="#067DA4" d="M91.188,5.223c0,1.541-18.994,2.79-42.423,2.79c-23.43,0-42.423-1.249-42.423-2.79s18.993-2.79,42.423-2.79
		C72.194,2.433,91.188,3.682,91.188,5.223"/>
	<path fill="#089DCD" d="M48.497,124.771c0,2.75-0.792,5-1.76,5s-1.759-2.25-1.759-5v-8.505c0-2.75,0.791-5,1.759-5
		s1.76,2.25,1.76,5V124.771"/>
	<path fill="#089DCD" d="M55.143,124.771c0,2.75-0.792,5-1.759,5s-1.759-2.25-1.759-5v-8.505c0-2.75,0.792-5,1.759-5
		s1.759,2.25,1.759,5V124.771z"/>
	<path fill="#089DCD" d="M61.788,124.771c0,2.75-0.791,5-1.759,5c-0.969,0-1.76-2.25-1.76-5v-8.505c0-2.75,0.791-5,1.76-5
		c0.968,0,1.759,2.25,1.759,5V124.771z"/>
	<path fill="#089DCD" d="M68.435,124.771c0,2.75-0.792,5-1.76,5c-0.967,0-1.758-2.25-1.758-5v-8.505c0-2.75,0.791-5,1.758-5
		c0.968,0,1.76,2.25,1.76,5V124.771z"/>
	<path fill="#089DCD" d="M35.205,124.771c0,2.75-0.792,5-1.76,5c-0.967,0-1.759-2.25-1.759-5v-8.505c0-2.75,0.792-5,1.759-5
		c0.968,0,1.76,2.25,1.76,5V124.771"/>
	<path fill="#089DCD" d="M28.559,124.771c0,2.75-0.792,5-1.759,5c-0.968,0-1.759-2.25-1.759-5v-8.505c0-2.75,0.791-5,1.759-5
		c0.967,0,1.759,2.25,1.759,5V124.771"/>
	<path fill="#089DCD" d="M75.081,124.771c0,2.75-0.793,5-1.761,5s-1.759-2.25-1.759-5v-8.505c0-2.75,0.791-5,1.759-5
		s1.761,2.25,1.761,5V124.771z"/>
	<path fill="#089DCD" d="M41.851,124.771c0,2.75-0.792,5-1.759,5c-0.968,0-1.759-2.25-1.759-5v-8.505c0-2.75,0.791-5,1.759-5
		c0.967,0,1.759,2.25,1.759,5V124.771"/>
	<path fill="#089DCD" d="M77.829,116.218c1.074,0,1.955-0.88,1.955-1.954l-0.001-46.38C79.704,51.383,66.304,38.03,49.784,38.03
		c-16.487,0-29.868,13.396-29.999,29.854l-0.001,46.38c0,1.074,0.879,1.954,1.953,1.954H77.829"/>
	<path fill="#0B90BB" d="M49.621,38.035c-15.146,0.081-27.635,11.464-29.575,26.11v0.001c-0.002,0.016-0.004,0.029-0.006,0.045
		c0,0.001,0,0.003,0,0.004c-0.002,0.013-0.004,0.028-0.006,0.042c0,0.003,0,0.004-0.001,0.007c-0.001,0.013-0.003,0.026-0.005,0.039
		c0,0.003,0,0.006-0.001,0.009c-0.001,0.012-0.003,0.024-0.005,0.037c0,0.004-0.001,0.009-0.001,0.013
		c-0.001,0.012-0.003,0.022-0.004,0.034c0,0.004-0.001,0.01-0.001,0.014c-0.001,0.011-0.003,0.022-0.004,0.033
		c-0.001,0.006-0.001,0.01-0.002,0.016c-0.001,0.011-0.002,0.02-0.004,0.031c0,0.006-0.001,0.011-0.002,0.017
		c-0.001,0.01-0.002,0.019-0.003,0.029c-0.001,0.007-0.002,0.014-0.002,0.021c-0.001,0.008-0.002,0.018-0.003,0.026
		c0,0.007-0.001,0.015-0.002,0.021c-0.001,0.008-0.002,0.017-0.003,0.025s-0.002,0.016-0.003,0.024c0,0.007-0.001,0.016-0.002,0.022
		c-0.001,0.008-0.002,0.018-0.003,0.025c0,0.007-0.001,0.014-0.002,0.021c-0.001,0.01-0.002,0.018-0.003,0.027
		c-0.001,0.007-0.001,0.013-0.002,0.02c-0.001,0.01-0.002,0.02-0.003,0.029c0,0.006-0.001,0.011-0.002,0.017
		c-0.001,0.011-0.002,0.021-0.003,0.031c0,0.005-0.001,0.01-0.002,0.015c-0.001,0.011-0.002,0.023-0.003,0.034
		c0,0.005-0.001,0.008-0.001,0.013c-0.001,0.012-0.002,0.025-0.004,0.037c0,0.004,0,0.005-0.001,0.009
		c-0.001,0.013-0.003,0.026-0.004,0.039c0,0.002-0.001,0.006-0.001,0.008c-0.001,0.014-0.003,0.027-0.004,0.041
		c0,0.002,0,0.003,0,0.005c-0.001,0.015-0.003,0.028-0.004,0.042c0,0.001,0,0.003,0,0.004c-0.001,0.016-0.003,0.03-0.004,0.046v0
		c-0.091,0.911-0.141,1.833-0.148,2.765l-0.001,46.38c0,1.074,0.879,1.954,1.954,1.954h27.883V38.035"/>
	<path fill="#067DA4" d="M63.685,67.145c0,7.822-6.343,14.165-14.166,14.165s-14.165-6.343-14.165-14.165
		c0-7.823,6.342-14.165,14.165-14.165C57.342,52.979,63.685,59.321,63.685,67.145"/>
	<path fill="#FFFFFF" d="M62.038,66.449c0,6.914-5.605,12.519-12.521,12.519C42.605,78.968,37,73.363,37,66.449
		s5.604-12.52,12.518-12.52C56.433,53.93,62.038,59.535,62.038,66.449"/>
	<path fill="#089DCD" d="M52.657,59.438c0,1.732-1.405,3.139-3.14,3.139c-1.732,0-3.138-1.405-3.138-3.139
		c0-1.732,1.405-3.139,3.138-3.139C51.252,56.301,52.657,57.706,52.657,59.438"/>
</g>
</svg>
