<?xml version="1.0" encoding="utf-8"?>
<!-- Generator: Adobe Illustrator 15.0.0, SVG Export Plug-In . SVG Version: 6.00 Build 0)  -->
<!DOCTYPE svg PUBLIC "-//W3C//DTD SVG 1.1//EN" "http://www.w3.org/Graphics/SVG/1.1/DTD/svg11.dtd">
<svg version="1.1" id="Layer_1" xmlns="http://www.w3.org/2000/svg" xmlns:xlink="http://www.w3.org/1999/xlink" x="0px" y="0px"
	 width="118.468px" height="169.985px" viewBox="0 0 118.468 169.985" enable-background="new 0 0 118.468 169.985"
	 xml:space="preserve">
<g opacity="0.1">
	<g>
		<defs>
			<rect id="SVGID_1_" x="15.694" y="165" width="89.032" height="4.985"/>
		</defs>
		<clipPath id="SVGID_2_">
			<use xlink:href="#SVGID_1_"  overflow="visible"/>
		</clipPath>
		<path clip-path="url(#SVGID_2_)" fill="#9B4A83" d="M104.727,167.493c0,1.377-19.931,2.493-44.517,2.493
			c-24.585,0-44.516-1.116-44.516-2.493S35.625,165,60.21,165C84.796,165,104.727,166.116,104.727,167.493"/>
	</g>
</g>
<path fill="#009DD0" d="M118.468,5.365c0,7.154-26.521,37.208-59.234,37.208C26.52,42.573,0,12.52,0,5.365
	C0-1.789,118.468-1.789,118.468,5.365"/>
<path fill="#007DA6" d="M110.765,6.344c0,1.871-23.071,3.389-51.531,3.389c-28.459,0-51.53-1.518-51.53-3.389
	c0-1.871,23.071-3.389,51.53-3.389C87.693,2.956,110.765,4.474,110.765,6.344"/>
<path fill="#009DD0" d="M58.908,152.63c0,2.75-0.961,5-2.137,5c-1.175,0-2.136-2.25-2.136-5v-12.478c0-2.75,0.961-5,2.136-5
	c1.176,0,2.137,2.25,2.137,5V152.63z"/>
<path fill="#009DD0" d="M66.98,152.63c0,2.75-0.961,5-2.137,5c-1.175,0-2.136-2.25-2.136-5v-12.478c0-2.75,0.961-5,2.136-5
	c1.176,0,2.137,2.25,2.137,5V152.63z"/>
<path fill="#009DD0" d="M75.054,152.63c0,2.75-0.961,5-2.138,5c-1.174,0-2.135-2.25-2.135-5v-12.478c0-2.75,0.961-5,2.135-5
	c1.177,0,2.138,2.25,2.138,5V152.63z"/>
<path fill="#009DD0" d="M83.127,152.63c0,2.75-0.963,5-2.138,5s-2.136-2.25-2.136-5v-12.478c0-2.75,0.961-5,2.136-5
	s2.138,2.25,2.138,5V152.63z"/>
<path fill="#009DD0" d="M42.763,152.63c0,2.75-0.962,5-2.137,5c-1.175,0-2.136-2.25-2.136-5v-12.478c0-2.75,0.961-5,2.136-5
	c1.175,0,2.137,2.25,2.137,5V152.63z"/>
<path fill="#009DD0" d="M34.69,152.63c0,2.75-0.961,5-2.137,5c-1.175,0-2.136-2.25-2.136-5v-12.478c0-2.75,0.961-5,2.136-5
	c1.176,0,2.137,2.25,2.137,5V152.63z"/>
<path fill="#009DD0" d="M91.199,152.63c0,2.75-0.961,5-2.137,5s-2.137-2.25-2.137-5v-12.478c0-2.75,0.961-5,2.137-5
	s2.137,2.25,2.137,5V152.63z"/>
<path fill="#009DD0" d="M50.836,152.63c0,2.75-0.961,5-2.137,5c-1.175,0-2.136-2.25-2.136-5v-12.478c0-2.75,0.961-5,2.136-5
	c1.176,0,2.137,2.25,2.137,5V152.63z"/>
<path fill="#009DD0" d="M94.538,141.167c1.306,0,2.374-1.067,2.374-2.373c0,0,0-56.299,0-56.337
	c-0.098-20.043-16.374-36.261-36.44-36.261c-20.027,0-36.279,16.272-36.439,36.261c-0.001,0.077-0.001,56.337-0.001,56.337
	c0,1.306,1.068,2.373,2.374,2.373H94.538z"/>
<g opacity="0.1">
	<g>
		<defs>
			<rect id="SVGID_3_" x="24.031" y="46.201" width="36.242" height="94.967"/>
		</defs>
		<clipPath id="SVGID_4_">
			<use xlink:href="#SVGID_3_"  overflow="visible"/>
		</clipPath>
		<path clip-path="url(#SVGID_4_)" d="M60.274,46.201c-19.935,0.107-36.082,16.334-36.241,36.256
			c-0.001,0.077-0.002,56.337-0.002,56.337c0,1.306,1.069,2.373,2.375,2.373h33.868V46.201z"/>
	</g>
</g>
<path fill="#007DA6" d="M77.355,81.56c0,9.503-7.703,17.206-17.206,17.206c-9.503,0-17.206-7.703-17.206-17.206
	s7.703-17.206,17.206-17.206C69.652,64.354,77.355,72.057,77.355,81.56"/>
<path fill="#FFFFFF" d="M75.355,80.715c0,8.397-6.808,15.206-15.206,15.206s-15.206-6.809-15.206-15.206
	c0-8.398,6.808-15.206,15.206-15.206S75.355,72.317,75.355,80.715"/>
<path fill="#009DD0" d="M63.961,72.2c0,2.105-1.705,3.811-3.811,3.811c-2.106,0-3.812-1.706-3.812-3.811s1.706-3.811,3.812-3.811
	C62.256,68.389,63.961,70.095,63.961,72.2"/>
</svg>
