<?xml version="1.0" encoding="utf-8"?>
<!-- Generator: Adobe Illustrator 15.0.0, SVG Export Plug-In . SVG Version: 6.00 Build 0)  -->
<!DOCTYPE svg PUBLIC "-//W3C//DTD SVG 1.1//EN" "http://www.w3.org/Graphics/SVG/1.1/DTD/svg11.dtd">
<svg version="1.1" id="Layer_1" xmlns="http://www.w3.org/2000/svg" xmlns:xlink="http://www.w3.org/1999/xlink" x="0px" y="0px"
	 width="97.53px" height="132.942px" viewBox="0 0 97.53 132.942" enable-background="new 0 0 97.53 132.942" xml:space="preserve">
<path fill="#70934A" d="M86.218,130.891c0,1.133-16.408,2.052-36.648,2.052c-20.241,0-36.649-0.919-36.649-2.052
	s16.408-2.052,36.649-2.052C69.81,128.839,86.218,129.758,86.218,130.891"/>
<path fill="#009DD0" d="M97.53,4.417c0,5.889-21.833,30.632-48.765,30.632S0,10.306,0,4.417C0-1.473,97.53-1.473,97.53,4.417"/>
<path fill="#007DA6" d="M91.188,5.223c0,1.541-18.994,2.79-42.423,2.79c-23.43,0-42.423-1.249-42.423-2.79s18.993-2.79,42.423-2.79
	C72.194,2.433,91.188,3.682,91.188,5.223"/>
<path fill="#009DD0" d="M48.497,124.77c0,2.75-0.792,5-1.759,5c-0.968,0-1.759-2.25-1.759-5v-8.504c0-2.75,0.791-5,1.759-5
	c0.967,0,1.759,2.25,1.759,5V124.77z"/>
<path fill="#009DD0" d="M55.144,124.77c0,2.75-0.793,5-1.76,5c-0.968,0-1.759-2.25-1.759-5v-8.504c0-2.75,0.791-5,1.759-5
	c0.967,0,1.76,2.25,1.76,5V124.77z"/>
<path fill="#009DD0" d="M61.789,124.77c0,2.75-0.792,5-1.759,5c-0.969,0-1.76-2.25-1.76-5v-8.504c0-2.75,0.791-5,1.76-5
	c0.967,0,1.759,2.25,1.759,5V124.77z"/>
<path fill="#009DD0" d="M68.435,124.77c0,2.75-0.791,5-1.759,5s-1.759-2.25-1.759-5v-8.504c0-2.75,0.791-5,1.759-5
	s1.759,2.25,1.759,5V124.77z"/>
<path fill="#009DD0" d="M35.206,124.77c0,2.75-0.792,5-1.759,5c-0.967,0-1.759-2.25-1.759-5v-8.504c0-2.75,0.792-5,1.759-5
	c0.967,0,1.759,2.25,1.759,5V124.77z"/>
<path fill="#009DD0" d="M28.56,124.77c0,2.75-0.792,5-1.759,5c-0.968,0-1.759-2.25-1.759-5v-8.504c0-2.75,0.791-5,1.759-5
	c0.967,0,1.759,2.25,1.759,5V124.77z"/>
<path fill="#009DD0" d="M75.081,124.77c0,2.75-0.792,5-1.76,5c-0.967,0-1.758-2.25-1.758-5v-8.504c0-2.75,0.791-5,1.758-5
	c0.968,0,1.76,2.25,1.76,5V124.77z"/>
<path fill="#009DD0" d="M41.852,124.77c0,2.75-0.792,5-1.759,5c-0.968,0-1.759-2.25-1.759-5v-8.504c0-2.75,0.791-5,1.759-5
	c0.967,0,1.759,2.25,1.759,5V124.77z"/>
<path fill="#009DD0" d="M77.829,116.218c1.076,0,1.955-0.88,1.955-1.955c0,0,0-46.348,0-46.379c-0.08-16.501-13.48-29.854-30-29.854
	c-16.487,0-29.868,13.397-29.999,29.854c-0.001,0.062-0.001,46.379-0.001,46.379c0,1.075,0.879,1.955,1.954,1.955H77.829z"/>
<g opacity="0.1">
	<g>
		<defs>
			<rect id="SVGID_1_" x="19.785" y="38.035" width="29.837" height="78.183"/>
		</defs>
		<clipPath id="SVGID_2_">
			<use xlink:href="#SVGID_1_"  overflow="visible"/>
		</clipPath>
		<path clip-path="url(#SVGID_2_)" d="M49.622,38.035c-16.412,0.088-29.705,13.446-29.836,29.848
			c-0.001,0.064-0.001,46.38-0.001,46.38c0,1.075,0.879,1.955,1.955,1.955h27.882V38.035z"/>
	</g>
</g>
<path fill="#007DA6" d="M63.685,67.145c0,7.823-6.342,14.165-14.165,14.165s-14.165-6.342-14.165-14.165s6.342-14.165,14.165-14.165
	S63.685,59.321,63.685,67.145"/>
<path fill="#FFFFFF" d="M62.038,66.449c0,6.914-5.605,12.519-12.519,12.519c-6.913,0-12.518-5.604-12.518-12.519
	s5.605-12.52,12.518-12.52C56.433,53.93,62.038,59.535,62.038,66.449"/>
<path fill="#009DD0" d="M52.657,59.438c0,1.733-1.405,3.139-3.138,3.139s-3.138-1.405-3.138-3.139c0-1.732,1.405-3.138,3.138-3.138
	S52.657,57.706,52.657,59.438"/>
</svg>
