<?xml version="1.0" encoding="utf-8"?>
<!-- Generator: Adobe Illustrator 15.0.0, SVG Export Plug-In . SVG Version: 6.00 Build 0)  -->
<!DOCTYPE svg PUBLIC "-//W3C//DTD SVG 1.1//EN" "http://www.w3.org/Graphics/SVG/1.1/DTD/svg11.dtd">
<svg version="1.1" id="Layer_1" xmlns="http://www.w3.org/2000/svg" xmlns:xlink="http://www.w3.org/1999/xlink" x="0px" y="0px"
	 width="128.108px" height="170.302px" viewBox="0 0 128.108 170.302" enable-background="new 0 0 128.108 170.302"
	 xml:space="preserve">
<path d="M61.145,163.488c0,3.748-1.784,6.814-3.966,6.814s-3.967-3.066-3.967-6.814V83.13c0-3.747,1.785-6.814,3.967-6.814
	s3.966,3.067,3.966,6.814V163.488z"/>
<path d="M76.836,163.488c0,3.748-1.785,6.814-3.966,6.814c-2.183,0-3.968-3.066-3.968-6.814V83.13c0-3.747,1.785-6.814,3.968-6.814
	c2.181,0,3.966,3.067,3.966,6.814V163.488z"/>
<path d="M128.108,71.843c0,35.376-28.679,64.055-64.055,64.055S0,107.219,0,71.843C0,36.468,28.678,7.79,64.054,7.79
	S128.108,36.468,128.108,71.843"/>
<path d="M115.191,14.697c0,8.117-22.924,14.697-51.201,14.697c-28.278,0-51.201-6.58-51.201-14.697S35.712,0,63.99,0
	C92.268,0,115.191,6.58,115.191,14.697"/>
<path fill="#FFFFFF" d="M98.564,11.566c0,3.916-15.479,7.091-34.574,7.091s-34.575-3.175-34.575-7.091s15.48-7.091,34.575-7.091
	S98.564,7.65,98.564,11.566"/>
<path fill="#FFFFFF" d="M58.401,88.914c0.02,2.994,2.449,5.416,5.448,5.416c2.998,0,5.428-2.422,5.447-5.416H58.401z"/>
<path fill="#FFFFFF" d="M100.088,72.983c0-8.412-6.818-15.231-15.23-15.231s-15.231,6.819-15.231,15.231s6.819,15.23,15.231,15.23
	S100.088,81.395,100.088,72.983"/>
<path fill="#FFFFFF" d="M58.203,72.983c0-8.412-6.818-15.231-15.23-15.231s-15.231,6.819-15.231,15.231s6.819,15.23,15.231,15.23
	S58.203,81.395,58.203,72.983"/>
</svg>
