<?xml version="1.0" encoding="utf-8"?>
<!-- Generator: Adobe Illustrator 15.0.0, SVG Export Plug-In . SVG Version: 6.00 Build 0)  -->
<!DOCTYPE svg PUBLIC "-//W3C//DTD SVG 1.0//EN" "http://www.w3.org/TR/2001/REC-SVG-20010904/DTD/svg10.dtd">
<svg version="1.0" id="Layer_1" xmlns="http://www.w3.org/2000/svg" xmlns:xlink="http://www.w3.org/1999/xlink" x="0px" y="0px"
	 width="83.349px" height="110.802px" viewBox="0 0 83.349 110.802" enable-background="new 0 0 83.349 110.802"
	 xml:space="preserve">
<path fill="#9D2C39" d="M39.782,106.368c0,2.438-1.162,4.434-2.58,4.434c-1.42,0-2.581-1.995-2.581-4.434V54.086
	c0-2.438,1.161-4.433,2.581-4.433c1.418,0,2.58,1.995,2.58,4.433V106.368z"/>
<path fill="#9D2C39" d="M49.99,106.368c0,2.438-1.161,4.434-2.58,4.434s-2.58-1.995-2.58-4.434V54.086
	c0-2.438,1.161-4.433,2.58-4.433s2.58,1.995,2.58,4.433V106.368z"/>
<path fill="#BB3747" d="M83.349,46.742c0,23.017-18.658,41.675-41.674,41.675C18.658,88.417,0,69.759,0,46.742
	C0,23.727,18.658,5.068,41.675,5.068C64.69,5.068,83.349,23.727,83.349,46.742"/>
<path fill="#B23443" d="M41.324,5.077C18.47,5.267,0,23.844,0,46.742c0,22.899,18.47,41.477,41.324,41.666V5.077z"/>
<path fill="#FFFFFF" d="M63.777,46.723c0,4.671-3.787,8.458-8.458,8.458c-4.672,0-8.458-3.787-8.458-8.458s3.786-8.458,8.458-8.458
	C59.99,38.265,63.777,42.052,63.777,46.723"/>
<path fill="#BB3747" d="M58.871,43.036c0,1.902-1.544,3.445-3.446,3.445c-1.903,0-3.446-1.543-3.446-3.445
	c0-1.903,1.543-3.447,3.446-3.447C57.327,39.589,58.871,41.133,58.871,43.036"/>
<path fill="#FFFFFF" d="M36.331,46.723c0,4.671-3.787,8.458-8.458,8.458c-4.672,0-8.459-3.787-8.459-8.458s3.787-8.458,8.459-8.458
	C32.544,38.265,36.331,42.052,36.331,46.723"/>
<path fill="#BB3747" d="M31.424,43.036c0,1.902-1.543,3.445-3.445,3.445s-3.445-1.543-3.445-3.445c0-1.903,1.543-3.447,3.445-3.447
	S31.424,41.133,31.424,43.036"/>
<path fill="#9D2C39" d="M45.088,57.825c0,1.959-1.588,3.547-3.547,3.547s-3.547-1.588-3.547-3.547c0-1.958,1.588-3.547,3.547-3.547
	S45.088,55.867,45.088,57.825"/>
<path fill="#BB3747" d="M74.945,9.562c0,5.281-14.914,9.562-33.312,9.562c-18.397,0-33.312-4.28-33.312-9.562S23.235,0,41.633,0
	C60.031,0,74.945,4.281,74.945,9.562"/>
<path fill="#9D2C39" d="M64.127,7.524c0,2.55-10.07,4.614-22.494,4.614c-12.423,0-22.494-2.064-22.494-4.614
	c0-2.547,10.071-4.613,22.494-4.613C54.057,2.911,64.127,4.978,64.127,7.524"/>
</svg>
