<?xml version="1.0" encoding="utf-8"?>
<!-- Generator: Adobe Illustrator 15.0.0, SVG Export Plug-In . SVG Version: 6.00 Build 0)  -->
<!DOCTYPE svg PUBLIC "-//W3C//DTD SVG 1.0//EN" "http://www.w3.org/TR/2001/REC-SVG-20010904/DTD/svg10.dtd">
<svg version="1.0" id="Layer_1" xmlns="http://www.w3.org/2000/svg" xmlns:xlink="http://www.w3.org/1999/xlink" x="0px" y="0px"
	 width="139.744px" height="167.598px" viewBox="0 0 139.744 167.598" enable-background="new 0 0 139.744 167.598"
	 xml:space="preserve">
<path fill="#9EB13B" d="M59.626,151.407c0,2.706-2.194,4.9-4.901,4.9c-2.706,0-4.9-2.194-4.9-4.9V91.375c0-2.707,2.194-4.9,4.9-4.9
	c2.707,0,4.901,2.193,4.901,4.9V151.407z"/>
<path fill="#9EB13B" d="M88.795,151.407c0,2.706-2.194,4.9-4.901,4.9c-2.705,0-4.899-2.194-4.899-4.9V91.375
	c0-2.707,2.194-4.9,4.899-4.9c2.707,0,4.901,2.193,4.901,4.9V151.407z"/>
<path fill="#82942F" d="M50.244,16.123c-56,0-56,84,0,84v-4.09c-50.547,0-50.547-75.82,0-75.82V16.123z"/>
<path fill="#82942F" d="M89.744,16.123c56,0,56,84,0,84v-4.09c50.547,0,50.547-75.82,0-75.82V16.123z"/>
<path fill="#9EB13B" d="M104.076,141.258c1.307,0,2.374-1.067,2.374-2.374c0,0,0-56.299,0-56.337
	c-0.098-20.043-16.374-36.261-36.44-36.261c-20.027,0-36.279,16.272-36.439,36.261c-0.001,0.077-0.001,56.337-0.001,56.337
	c0,1.307,1.068,2.374,2.374,2.374H104.076z"/>
<g opacity="0.1">
	<g>
		<g>
			<defs>
				<rect id="SVGID_1_" x="33.57" y="46.295" width="36.04" height="94.961"/>
			</defs>
			<clipPath id="SVGID_2_">
				<use xlink:href="#SVGID_1_"  overflow="visible"/>
			</clipPath>
			<path clip-path="url(#SVGID_2_)" d="M69.61,46.295C49.769,46.51,33.73,62.691,33.571,82.546
				c-0.001,0.077-0.001,56.337-0.001,56.337c0,1.306,1.068,2.374,2.374,2.374H69.61V46.295z"/>
		</g>
	</g>
</g>
<path fill="#82942F" d="M101.133,82.914c0,4.394-3.562,7.955-7.952,7.955c-4.395,0-7.955-3.562-7.955-7.955
	c0-4.393,3.562-7.954,7.955-7.954C97.571,74.96,101.133,78.521,101.133,82.914"/>
<path fill="#FFFFFF" d="M100.153,81.914c0,3.853-3.123,6.976-6.975,6.976c-3.854,0-6.975-3.123-6.975-6.976
	c0-3.852,3.121-6.975,6.975-6.975C97.03,74.939,100.153,78.062,100.153,81.914"/>
<path fill="#82942F" d="M96.106,78.873c0,1.569-1.271,2.841-2.84,2.841c-1.57,0-2.842-1.271-2.842-2.841
	c0-1.568,1.271-2.841,2.842-2.841C94.836,76.032,96.106,77.304,96.106,78.873"/>
<path fill="#82942F" d="M106.451,122.433H95.272v-15.441H89.81v15.441H49.09v-15.441h-5.463v15.441H33.57c0,9.251,0,16.45,0,16.45
	c0,1.307,1.069,2.374,2.375,2.374h68.131c1.307,0,2.375-1.067,2.375-2.374C106.451,138.884,106.451,131.684,106.451,122.433"/>
<path d="M112.047,107.487c-1.885-6.789-20.334-12.118-42.827-12.118c-22.488,0-40.933,5.327-42.825,12.113h-0.002
	c0,0.001,0.001,0.002,0.001,0.003s-0.001,0.001-0.001,0.002h0.001c0.246,1.606,1.622,2.844,3.298,2.844
	c1.677,0,3.053-1.236,3.299-2.844h0.023c0.246,1.606,1.622,2.844,3.299,2.844c1.676,0,3.052-1.236,3.298-2.844h0.153
	c0.246,1.606,1.622,2.844,3.299,2.844c1.599,0,2.912-1.128,3.245-2.627c0.332,1.499,1.646,2.627,3.245,2.627
	c1.677,0,3.053-1.236,3.298-2.844h0.024c0.245,1.606,1.621,2.844,3.298,2.844c1.677,0,3.053-1.236,3.298-2.844h0.024
	c0.246,1.606,1.621,2.844,3.298,2.844c1.677,0,3.053-1.236,3.298-2.844h0.024c0.246,1.606,1.622,2.844,3.298,2.844
	c1.677,0,3.052-1.236,3.298-2.844h0.022c0.246,1.606,1.623,2.844,3.3,2.844c1.6,0,2.911-1.128,3.245-2.627
	c0.332,1.499,1.646,2.627,3.244,2.627c1.679,0,3.054-1.236,3.299-2.844h0.023c0.244,1.606,1.621,2.844,3.299,2.844
	c1.676,0,3.053-1.236,3.297-2.844h0.023c0.246,1.606,1.621,2.844,3.299,2.844s3.053-1.236,3.299-2.844h0.023
	c0.246,1.606,1.621,2.844,3.297,2.844c1.506,0,2.76-0.996,3.182-2.361c0.422,1.365,1.677,2.361,3.181,2.361
	c1.678,0,3.053-1.236,3.299-2.844H112.047z"/>
<path fill="#82942F" d="M114.22,60.958c0,3.828-19.654-3.697-43.9-3.697s-43.901,7.525-43.901,3.697s19.655-17.56,43.901-17.56
	C94.563,43.398,114.22,57.13,114.22,60.958"/>
<path fill="#82942F" d="M90.724,46.565c0,5.851-9.136,10.594-20.404,10.594c-11.269,0-20.403-4.743-20.403-10.594
	c0-5.789,6.813-10.494,17.917-10.593c0.119-0.001-0.414,3.807,2.486,3.807s2.332-3.808,2.433-3.807
	C83.881,36.056,90.724,40.766,90.724,46.565"/>
<path fill="#82942F" d="M77.524,80.807c0,4.394-3.562,7.953-7.955,7.953s-7.954-3.561-7.954-7.953c0-4.394,3.561-7.954,7.954-7.954
	C73.963,72.853,77.524,76.414,77.524,80.807"/>
<path fill="#FFFFFF" d="M76.545,79.807c0,3.852-3.123,6.976-6.975,6.976s-6.974-3.124-6.974-6.976c0-3.853,3.122-6.976,6.974-6.976
	S76.545,75.955,76.545,79.807"/>
<path fill="#82942F" d="M72.499,76.766c0,1.568-1.271,2.841-2.841,2.841s-2.841-1.272-2.841-2.841c0-1.569,1.272-2.842,2.841-2.842
	S72.499,75.197,72.499,76.766"/>
<path fill="#82942F" d="M53.288,82.979c0,4.393-3.561,7.954-7.954,7.954s-7.954-3.562-7.954-7.954c0-4.393,3.561-7.954,7.954-7.954
	S53.288,78.587,53.288,82.979"/>
<path fill="#FFFFFF" d="M52.309,81.979c0,3.852-3.123,6.975-6.975,6.975s-6.974-3.123-6.974-6.975c0-3.853,3.122-6.976,6.974-6.976
	S52.309,78.128,52.309,81.979"/>
<path fill="#82942F" d="M48.263,78.939c0,1.568-1.272,2.841-2.841,2.841c-1.569,0-2.841-1.272-2.841-2.841
	c0-1.569,1.272-2.841,2.841-2.841C46.991,76.098,48.263,77.37,48.263,78.939"/>
<path fill="#9EB13B" d="M139.744,6.18c0,1.723-11.8,3.587-13.933,6.602C117.742,24.183,137.72,28.46,69.872,28.46
	c-67.673,0-47.757-4.18-55.877-15.59C11.821,9.815,0,7.919,0,6.18C0-2.06,139.744-2.06,139.744,6.18"/>
<path fill="#82942F" d="M125.087,6.158c0,1.709-24.721,3.095-55.215,3.095c-30.495,0-55.216-1.386-55.216-3.095
	s24.721-3.095,55.216-3.095C100.366,3.063,125.087,4.449,125.087,6.158"/>
</svg>
