<?xml version="1.0" encoding="utf-8"?>
<!-- Generator: Adobe Illustrator 15.0.0, SVG Export Plug-In . SVG Version: 6.00 Build 0)  -->
<!DOCTYPE svg PUBLIC "-//W3C//DTD SVG 1.0//EN" "http://www.w3.org/TR/2001/REC-SVG-20010904/DTD/svg10.dtd">
<svg version="1.0" id="Layer_1" xmlns="http://www.w3.org/2000/svg" xmlns:xlink="http://www.w3.org/1999/xlink" x="0px" y="0px"
	 width="101.558px" height="113.595px" viewBox="0 0 101.558 113.595" enable-background="new 0 0 101.558 113.595"
	 xml:space="preserve">
<path fill="#9EB13B" d="M43.332,110.033c0,1.968-1.594,3.562-3.562,3.562c-1.965,0-3.561-1.594-3.561-3.562V66.406
	c0-1.968,1.596-3.562,3.561-3.562c1.969,0,3.562,1.595,3.562,3.562V110.033z"/>
<path fill="#9EB13B" d="M64.53,110.033c0,1.968-1.595,3.562-3.562,3.562s-3.562-1.594-3.562-3.562V66.406
	c0-1.968,1.595-3.562,3.562-3.562s3.562,1.595,3.562,3.562V110.033z"/>
<path fill="#82942F" d="M36.515,11.717c-40.697,0-40.697,61.047,0,61.047v-2.973c-36.734,0-36.734-55.102,0-55.102V11.717z"/>
<path fill="#82942F" d="M65.221,11.717c40.697,0,40.697,61.047,0,61.047v-2.973c36.734,0,36.734-55.102,0-55.102V11.717z"/>
<path fill="#9EB13B" d="M75.636,102.657c0.95,0,1.726-0.776,1.726-1.726c0,0,0-40.913,0-40.942
	c-0.07-14.565-11.899-26.352-26.482-26.352c-14.554,0-26.365,11.825-26.482,26.352c0,0.057,0,40.942,0,40.942
	c0,0.949,0.776,1.726,1.726,1.726H75.636z"/>
<g opacity="0.1">
	<g>
		<defs>
			<rect id="SVGID_1_" x="24.396" y="33.646" width="26.191" height="69.011"/>
		</defs>
		<clipPath id="SVGID_2_">
			<use xlink:href="#SVGID_1_"  overflow="visible"/>
		</clipPath>
		<path clip-path="url(#SVGID_2_)" d="M50.588,33.646C36.17,33.802,24.514,45.561,24.396,59.99c0,0.056,0,40.941,0,40.941
			c0,0.949,0.776,1.726,1.726,1.726h24.466V33.646z"/>
	</g>
</g>
<path fill="#82942F" d="M73.497,60.256c0,3.193-2.588,5.782-5.78,5.782s-5.78-2.589-5.78-5.782c0-3.191,2.588-5.779,5.78-5.779
	S73.497,57.064,73.497,60.256"/>
<path fill="#FFFFFF" d="M72.785,59.53c0,2.799-2.27,5.068-5.069,5.068c-2.799,0-5.067-2.27-5.067-5.068
	c0-2.8,2.269-5.069,5.067-5.069C70.516,54.461,72.785,56.73,72.785,59.53"/>
<path fill="#82942F" d="M69.846,57.32c0,1.141-0.925,2.064-2.065,2.064c-1.14,0-2.064-0.924-2.064-2.064s0.925-2.064,2.064-2.064
	C68.921,55.256,69.846,56.18,69.846,57.32"/>
<path fill="#82942F" d="M77.361,88.977h-8.123V77.755H65.27v11.222H35.677V77.755h-3.971v11.222h-7.31c0,6.723,0,11.955,0,11.955
	c0,0.949,0.776,1.726,1.727,1.726h49.513c0.95,0,1.726-0.776,1.726-1.726C77.361,100.932,77.361,95.699,77.361,88.977"/>
<path d="M81.429,78.115c-1.37-4.935-14.777-8.807-31.124-8.807c-16.344,0-29.747,3.872-31.123,8.803h-0.001c0,0.001,0,0.002,0,0.002
	c0,0.001,0,0.001,0,0.002l0,0c0.18,1.168,1.18,2.067,2.397,2.067c1.219,0,2.218-0.899,2.396-2.067h0.018
	c0.179,1.168,1.179,2.067,2.397,2.067c1.218,0,2.218-0.899,2.396-2.067h0.111c0.179,1.168,1.179,2.067,2.397,2.067
	c1.162,0,2.117-0.821,2.358-1.91c0.242,1.089,1.196,1.91,2.358,1.91c1.219,0,2.219-0.899,2.396-2.067h0.018
	c0.178,1.168,1.179,2.067,2.396,2.067c1.219,0,2.219-0.899,2.397-2.067h0.017c0.18,1.168,1.179,2.067,2.398,2.067
	c1.218,0,2.218-0.899,2.396-2.067h0.018c0.179,1.168,1.179,2.067,2.396,2.067c1.219,0,2.219-0.899,2.397-2.067h0.017
	c0.179,1.168,1.18,2.067,2.397,2.067c1.163,0,2.116-0.821,2.358-1.91c0.242,1.089,1.196,1.91,2.358,1.91
	c1.22,0,2.219-0.899,2.397-2.067h0.018c0.178,1.168,1.178,2.067,2.396,2.067s2.219-0.899,2.396-2.067h0.017
	c0.18,1.168,1.179,2.067,2.397,2.067s2.219-0.899,2.397-2.067h0.018c0.179,1.168,1.178,2.067,2.396,2.067
	c1.094,0,2.006-0.725,2.312-1.717c0.306,0.992,1.218,1.717,2.311,1.717c1.22,0,2.218-0.899,2.397-2.067H81.429z"/>
<path fill="#82942F" d="M83.008,44.301c0,2.782-14.284-2.687-31.904-2.687c-17.619,0-31.904,5.469-31.904,2.687
	s14.285-12.762,31.904-12.762C68.724,31.539,83.008,41.519,83.008,44.301"/>
<path fill="#82942F" d="M65.932,33.841c0,4.252-6.639,7.698-14.828,7.698c-8.188,0-14.828-3.446-14.828-7.698
	c0-4.207,4.952-7.626,13.022-7.698c0.086,0-0.301,2.767,1.806,2.767c2.107,0,1.694-2.767,1.768-2.767
	C60.96,26.203,65.932,29.627,65.932,33.841"/>
<path fill="#82942F" d="M56.341,58.726c0,3.192-2.589,5.78-5.781,5.78s-5.78-2.588-5.78-5.78s2.588-5.781,5.78-5.781
	S56.341,55.533,56.341,58.726"/>
<path fill="#FFFFFF" d="M55.629,57.999c0,2.8-2.27,5.069-5.069,5.069c-2.799,0-5.068-2.27-5.068-5.069s2.27-5.069,5.068-5.069
	C53.359,52.93,55.629,55.199,55.629,57.999"/>
<path fill="#82942F" d="M52.688,55.79c0,1.139-0.925,2.063-2.064,2.063s-2.064-0.925-2.064-2.063c0-1.142,0.925-2.066,2.064-2.066
	S52.688,54.648,52.688,55.79"/>
<path fill="#82942F" d="M38.727,60.305c0,3.192-2.589,5.78-5.781,5.78c-3.191,0-5.78-2.588-5.78-5.78s2.589-5.78,5.78-5.78
	C36.138,54.524,38.727,57.112,38.727,60.305"/>
<path fill="#FFFFFF" d="M38.015,59.578c0,2.799-2.27,5.068-5.069,5.068c-2.799,0-5.068-2.27-5.068-5.068
	c0-2.8,2.27-5.069,5.068-5.069C35.745,54.509,38.015,56.778,38.015,59.578"/>
<path fill="#82942F" d="M35.074,57.367c0,1.142-0.925,2.065-2.064,2.065c-1.141,0-2.064-0.924-2.064-2.065
	c0-1.14,0.924-2.062,2.064-2.062C34.149,55.305,35.074,56.228,35.074,57.367"/>
<path fill="#9EB13B" d="M101.558,4.491c0,1.252-8.575,2.607-10.125,4.798c-5.864,8.286,8.653,11.395-40.653,11.395
	c-49.182,0-34.707-3.039-40.608-11.33C8.591,7.134,0,5.755,0,4.491C0-1.497,101.558-1.497,101.558,4.491"/>
<path fill="#82942F" d="M90.906,4.476c0,1.242-17.967,2.249-40.127,2.249c-22.162,0-40.128-1.007-40.128-2.249
	c0-1.243,17.966-2.249,40.128-2.249C72.939,2.227,90.906,3.232,90.906,4.476"/>
</svg>
