<?xml version="1.0" encoding="utf-8"?>
<!-- Generator: Adobe Illustrator 15.0.0, SVG Export Plug-In . SVG Version: 6.00 Build 0)  -->
<!DOCTYPE svg PUBLIC "-//W3C//DTD SVG 1.0//EN" "http://www.w3.org/TR/2001/REC-SVG-20010904/DTD/svg10.dtd">
<svg version="1.0" id="Layer_1" xmlns="http://www.w3.org/2000/svg" xmlns:xlink="http://www.w3.org/1999/xlink" x="0px" y="0px"
	 width="88.934px" height="112.667px" viewBox="0 0 88.934 112.667" enable-background="new 0 0 88.934 112.667"
	 xml:space="preserve">
<g>
	<path fill="#F195BC" d="M41.393,107.667c0,2.75-1.136,5-2.522,5s-2.521-2.25-2.521-5V57.045c0-2.75,1.135-5,2.521-5
		s2.522,2.25,2.522,5V107.667"/>
	<path fill="#F195BC" d="M51.368,107.667c0,2.75-1.135,5-2.521,5c-1.388,0-2.522-2.25-2.522-5V57.045c0-2.75,1.135-5,2.522-5
		c1.387,0,2.521,2.25,2.521,5V107.667"/>
	<path fill="#F195BC" d="M88.934,5.316c0,0-7.767-5.316-44.467-5.316C7.766,0,0,5.316,0,5.316s4.362,79.191,44.149,79.191
		C83.938,84.508,88.934,5.316,88.934,5.316"/>
	<path fill="#DC88AC" d="M43.983,27.386V0.001C8.05,0.047,0.15,5.218,0.003,5.316v0.038c0.113,1.937,4.849,78.927,43.98,79.15
		V57.438c-8.105-0.108-14.66-6.632-14.82-14.723v-0.607C29.323,34.018,35.878,27.494,43.983,27.386z M25.823,69.103
		c-0.038,0.679-0.351,1.34-0.92,1.803c-0.457,0.37-1.004,0.553-1.549,0.559h-0.05c-0.719-0.007-1.43-0.322-1.918-0.924
		c-4.827-5.953-8.798-14.176-11.974-24.473c-3.974-12.914-5.65-25.892-6.305-32.434c-0.137-1.374,0.865-2.599,2.239-2.735
		l0.229-0.013h0.042c1.261,0.011,2.336,0.97,2.464,2.252c0.629,6.339,2.288,19.063,6.109,31.458
		c3.041,9.889,6.824,17.566,11.076,22.792c0.344,0.425,0.526,0.928,0.555,1.435V69.103z"/>
	<path fill="#DC88AC" d="M44.188,27.385c-0.068,0-0.137,0-0.205,0.001v30.053c0.068,0.001,0.137,0.001,0.205,0.001
		c8.214,0,14.889-6.592,15.024-14.773v-0.508C59.077,33.977,52.402,27.385,44.188,27.385z"/>
	<path fill="#C97D9E" d="M43.983,57.438V27.386c-8.105,0.108-14.66,6.632-14.82,14.723v0.607
		C29.323,50.807,35.878,57.33,43.983,57.438z"/>
	<path fill="#FFFFFF" d="M57.363,40.354c0,7.277-5.898,13.176-13.176,13.176c-7.276,0-13.176-5.898-13.176-13.176
		c0-7.276,5.899-13.176,13.176-13.176C51.465,27.179,57.363,33.078,57.363,40.354"/>
	<path fill="#F195BC" d="M47.49,32.977c0,1.824-1.479,3.303-3.302,3.303c-1.824,0-3.303-1.479-3.303-3.303s1.479-3.303,3.303-3.303
		C46.012,29.674,47.49,31.152,47.49,32.977"/>
	<path fill="#994C82" d="M82.251,6.499c0,1.208-16.727,2.188-37.361,2.188c-20.634,0-37.36-0.979-37.36-2.188
		s16.727-3.216,37.36-3.216C65.524,3.283,82.251,5.291,82.251,6.499"/>
	<path fill="#994C82" d="M46.458,63.723c0.014,0.763,0.042,2.756-0.931,3.461c-0.95,0.746-2.419,0.746-3.37,0
		c-0.972-0.705-0.943-2.698-0.93-3.461c-0.014-0.789-0.042-0.055,0.93,0.65c0.951,0.746,2.42,0.746,3.37,0
		C46.5,63.668,46.472,62.934,46.458,63.723"/>
	<path fill="#FFFFFF" d="M42.711,65.099c-0.033,0.11-0.057,0.226-0.057,0.347c0,0.659,0.535,1.195,1.196,1.195
		s1.196-0.536,1.196-1.195c0-0.121-0.022-0.236-0.056-0.347C44.276,65.414,43.426,65.414,42.711,65.099"/>
	<path fill="#E3A1BD" d="M14.192,44.596c-3.821-12.395-5.48-25.119-6.109-31.458c-0.128-1.282-1.203-2.241-2.464-2.252H5.577
		c-0.076,0.001-0.152,0.005-0.229,0.013c-1.374,0.137-2.376,1.361-2.239,2.735c0.654,6.542,2.331,19.52,6.305,32.434
		c3.176,10.297,7.146,18.52,11.974,24.473c0.488,0.602,1.199,0.917,1.918,0.924h0.05c0.545-0.006,1.092-0.188,1.549-0.559
		c0.569-0.463,0.882-1.124,0.92-1.803v-0.28c-0.028-0.507-0.211-1.01-0.555-1.435C21.017,62.162,17.233,54.484,14.192,44.596z"/>
</g>
</svg>
