<?xml version="1.0" encoding="utf-8"?>
<!-- Generator: Adobe Illustrator 15.0.0, SVG Export Plug-In . SVG Version: 6.00 Build 0)  -->
<!DOCTYPE svg PUBLIC "-//W3C//DTD SVG 1.1//EN" "http://www.w3.org/Graphics/SVG/1.1/DTD/svg11.dtd">
<svg version="1.1" id="Layer_1" xmlns="http://www.w3.org/2000/svg" xmlns:xlink="http://www.w3.org/1999/xlink" x="0px" y="0px"
	 width="88.935px" height="115.423px" viewBox="0 0 88.935 115.423" enable-background="new 0 0 88.935 115.423"
	 xml:space="preserve">
<path fill="#70934A" d="M83.014,113.264c0,1.192-17.271,2.159-38.573,2.159c-21.302,0-38.572-0.967-38.572-2.159
	c0-1.193,17.271-2.16,38.572-2.16C65.743,111.104,83.014,112.07,83.014,113.264"/>
<path fill="#F494BE" d="M41.393,107.667c0,2.75-1.135,5-2.522,5c-1.387,0-2.521-2.25-2.521-5V57.045c0-2.75,1.135-5,2.521-5
	c1.388,0,2.522,2.25,2.522,5V107.667z"/>
<path fill="#F494BE" d="M51.369,107.667c0,2.75-1.136,5-2.522,5s-2.521-2.25-2.521-5V57.045c0-2.75,1.135-5,2.521-5
	s2.522,2.25,2.522,5V107.667z"/>
<path fill="#F494BE" d="M88.935,5.316c0,0-7.768-5.316-44.467-5.316C7.767,0,0,5.316,0,5.316s4.362,79.191,44.15,79.191
	S88.935,5.316,88.935,5.316"/>
<g opacity="0.1">
	<g>
		<defs>
			<rect id="SVGID_1_" x="0.004" y="0.001" width="43.979" height="84.504"/>
		</defs>
		<clipPath id="SVGID_2_">
			<use xlink:href="#SVGID_1_"  overflow="visible"/>
		</clipPath>
		<path clip-path="url(#SVGID_2_)" d="M43.988,0.001C7.703,0.047,0.001,5.317,0.001,5.317s4.35,78.971,43.987,79.188V0.001z"/>
	</g>
</g>
<g opacity="0.1">
	<g>
		<defs>
			<rect id="SVGID_3_" x="29.164" y="27.385" width="30.05" height="30.055"/>
		</defs>
		<clipPath id="SVGID_4_">
			<use xlink:href="#SVGID_3_"  overflow="visible"/>
		</clipPath>
		<path clip-path="url(#SVGID_4_)" d="M59.216,42.412c0,8.299-6.729,15.027-15.027,15.027c-8.3,0-15.027-6.729-15.027-15.027
			s6.728-15.027,15.027-15.027C52.487,27.385,59.216,34.113,59.216,42.412"/>
	</g>
</g>
<path fill="#FFFFFF" d="M57.364,40.354c0,7.277-5.899,13.176-13.176,13.176c-7.277,0-13.177-5.898-13.177-13.176
	c0-7.276,5.899-13.176,13.177-13.176C51.465,27.179,57.364,33.078,57.364,40.354"/>
<path fill="#F494BE" d="M47.491,32.977c0,1.824-1.479,3.303-3.304,3.303c-1.823,0-3.302-1.479-3.302-3.303s1.479-3.303,3.302-3.303
	C46.012,29.674,47.491,31.152,47.491,32.977"/>
<path fill="#9B4A83" d="M82.252,6.499c0,1.208-16.728,2.188-37.361,2.188S7.529,7.707,7.529,6.499s16.728-3.216,37.361-3.216
	S82.252,5.291,82.252,6.499"/>
<path fill="#9B4A83" d="M46.458,63.723c0.014,0.763,0.042,2.756-0.93,3.461c-0.951,0.746-2.419,0.746-3.37,0
	c-0.972-0.705-0.944-2.698-0.931-3.461c-0.014-0.789-0.041-0.055,0.931,0.65c0.951,0.746,2.419,0.746,3.37,0
	C46.5,63.668,46.472,62.934,46.458,63.723"/>
<path fill="#FFFFFF" d="M42.711,65.099c-0.032,0.11-0.057,0.226-0.057,0.347c0,0.659,0.536,1.195,1.197,1.195
	s1.196-0.536,1.196-1.195c0-0.121-0.023-0.236-0.057-0.347C44.276,65.414,43.427,65.414,42.711,65.099"/>
<g opacity="0.2">
	<g>
		<defs>
			<rect id="SVGID_5_" x="3.094" y="10.886" width="22.729" height="60.578"/>
		</defs>
		<clipPath id="SVGID_6_">
			<use xlink:href="#SVGID_5_"  overflow="visible"/>
		</clipPath>
		
			<path clip-path="url(#SVGID_6_)" fill="none" stroke="#FFFFFF" stroke-width="5" stroke-linecap="round" stroke-linejoin="round" stroke-miterlimit="10" d="
			M5.597,13.386c0.642,6.44,2.31,19.291,6.207,31.946c3.107,10.092,6.984,18.042,11.523,23.632"/>
	</g>
</g>
</svg>
