<?xml version="1.0" encoding="utf-8"?>
<!-- Generator: Adobe Illustrator 15.0.0, SVG Export Plug-In . SVG Version: 6.00 Build 0)  -->
<!DOCTYPE svg PUBLIC "-//W3C//DTD SVG 1.1//EN" "http://www.w3.org/Graphics/SVG/1.1/DTD/svg11.dtd">
<svg version="1.1" id="Layer_1" xmlns="http://www.w3.org/2000/svg" xmlns:xlink="http://www.w3.org/1999/xlink" x="0px" y="0px"
	 width="140.848px" height="177.207px" viewBox="0 0 140.848 177.207" enable-background="new 0 0 140.848 177.207"
	 xml:space="preserve">
<path d="M66.624,170.393c0,3.748-1.785,6.814-3.966,6.814c-2.183,0-3.968-3.066-3.968-6.814v-81.72c0-3.748,1.785-6.814,3.968-6.814
	c2.181,0,3.966,3.066,3.966,6.814V170.393z"/>
<path d="M82.314,170.393c0,3.748-1.785,6.814-3.966,6.814c-2.182,0-3.967-3.066-3.967-6.814v-81.72c0-3.748,1.785-6.814,3.967-6.814
	c2.181,0,3.966,3.066,3.966,6.814V170.393z"/>
<path d="M140.417,8.362c0,0-12.216-8.362-69.939-8.362C12.752,0,0.538,8.362,0.538,8.362s-11.28,124.555,69.479,124.555
	S140.417,8.362,140.417,8.362"/>
<path fill="#FFFFFF" d="M129.906,10.222c0,1.899-26.309,3.439-58.763,3.439s-58.763-1.54-58.763-3.439s26.309-5.059,58.763-5.059
	S129.906,8.323,129.906,10.222"/>
<path fill="#FFFFFF" d="M74.934,57.736c0,2.869-2.326,5.195-5.195,5.195c-2.868,0-5.193-2.326-5.193-5.195s2.325-5.194,5.193-5.194
	C72.608,52.542,74.934,54.867,74.934,57.736"/>
<rect x="61.274" y="125.816" fill="#FFFFFF" width="2.715" height="46.148"/>
<path fill="#FFFFFF" d="M63.214,125.417c0,0.979-0.795,1.772-1.773,1.772c-0.979,0-1.772-0.794-1.772-1.772
	c0-0.979,0.793-1.773,1.772-1.773C62.419,123.644,63.214,124.438,63.214,125.417"/>
<path fill="#FFFFFF" d="M65.593,125.417c0,0.979-0.794,1.772-1.772,1.772c-0.979,0-1.773-0.794-1.773-1.772
	c0-0.979,0.794-1.773,1.773-1.773C64.799,123.644,65.593,124.438,65.593,125.417"/>
<path fill="#FFFFFF" d="M62.631,171.575c-0.979,0-1.773-0.794-1.773-1.772c0-0.979,0.794-1.772,1.773-1.772
	c0.979,0,1.772,0.793,1.772,1.772C64.404,170.781,63.61,171.575,62.631,171.575"/>
<path fill="#FFFFFF" d="M62.631,173.955c-0.979,0-1.773-0.794-1.773-1.772c0-0.979,0.794-1.772,1.773-1.772
	c0.979,0,1.772,0.793,1.772,1.772C64.404,173.161,63.61,173.955,62.631,173.955"/>
<rect x="77.016" y="125.816" fill="#FFFFFF" width="2.715" height="46.148"/>
<path fill="#FFFFFF" d="M78.957,125.417c0,0.979-0.794,1.772-1.773,1.772c-0.979,0-1.772-0.794-1.772-1.772
	c0-0.979,0.794-1.773,1.772-1.773C78.163,123.644,78.957,124.438,78.957,125.417"/>
<path fill="#FFFFFF" d="M81.336,125.417c0,0.979-0.794,1.772-1.773,1.772c-0.979,0-1.771-0.794-1.771-1.772
	c0-0.979,0.793-1.773,1.771-1.773C80.542,123.644,81.336,124.438,81.336,125.417"/>
<path fill="#FFFFFF" d="M78.374,171.575c-0.979,0-1.772-0.794-1.772-1.772c0-0.979,0.794-1.772,1.772-1.772
	c0.979,0,1.773,0.793,1.773,1.772C80.147,170.781,79.353,171.575,78.374,171.575"/>
<path fill="#FFFFFF" d="M78.374,173.955c-0.979,0-1.772-0.794-1.772-1.772c0-0.979,0.794-1.772,1.772-1.772
	c0.979,0,1.773,0.793,1.773,1.772C80.147,173.161,79.353,173.955,78.374,173.955"/>
<path fill="#FFFFFF" d="M65.848,105.965c2.116,0,3.833-1.716,3.833-3.833h-7.666C62.015,104.249,63.731,105.965,65.848,105.965"/>
<path fill="#FFFFFF" d="M73.848,105.965c2.116,0,3.833-1.716,3.833-3.833h-7.666C70.015,104.249,71.731,105.965,73.848,105.965"/>
<path fill="#FFFFFF" d="M93.746,65.457c0,13.054-10.582,23.636-23.637,23.636c-13.054,0-23.636-10.582-23.636-23.636
	s10.582-23.636,23.636-23.636C83.164,41.821,93.746,52.403,93.746,65.457"/>
<rect x="68.698" y="57.757" transform="matrix(0.7071 0.7071 -0.7071 0.7071 66.82 -30.4032)" width="2.824" height="15.4"/>
<rect x="68.698" y="57.757" transform="matrix(0.7069 -0.7073 0.7073 0.7069 -25.7494 68.77)" width="2.824" height="15.4"/>
</svg>
