<?xml version="1.0" encoding="utf-8"?>
<!-- Generator: Adobe Illustrator 15.0.0, SVG Export Plug-In . SVG Version: 6.00 Build 0)  -->
<!DOCTYPE svg PUBLIC "-//W3C//DTD SVG 1.0//EN" "http://www.w3.org/TR/2001/REC-SVG-20010904/DTD/svg10.dtd">
<svg version="1.0" id="Layer_1" xmlns="http://www.w3.org/2000/svg" xmlns:xlink="http://www.w3.org/1999/xlink" x="0px" y="0px"
	 width="88.936px" height="115.422px" viewBox="0 0 88.936 115.422" enable-background="new 0 0 88.936 115.422"
	 xml:space="preserve">
<path fill="#F494BE" d="M41.393,107.667c0,2.75-1.136,5-2.522,5s-2.521-2.25-2.521-5V57.045c0-2.75,1.135-5,2.521-5
	c1.388,0,2.522,2.25,2.522,5V107.667z"/>
<path fill="#F494BE" d="M51.369,107.667c0,2.75-1.136,5-2.521,5c-1.387,0-2.521-2.25-2.521-5V57.045c0-2.75,1.135-5,2.521-5
	c1.386,0,2.521,2.25,2.521,5V107.667z"/>
<path fill="#F494BE" d="M88.935,5.316c0,0-7.769-5.316-44.468-5.316C7.767,0,0,5.316,0,5.316s4.362,79.19,44.15,79.19
	S88.935,5.316,88.935,5.316"/>
<g opacity="0.1">
	<g>
		<g>
			<defs>
				<rect id="SVGID_1_" x="0.004" y="0.001" width="43.979" height="84.503"/>
			</defs>
			<clipPath id="SVGID_2_">
				<use xlink:href="#SVGID_1_"  overflow="visible"/>
			</clipPath>
			<path clip-path="url(#SVGID_2_)" d="M43.988,0.001C7.703,0.047,0.001,5.317,0.001,5.317s4.351,78.971,43.987,79.188V0.001z"/>
		</g>
	</g>
</g>
<g opacity="0.1">
	<g>
		<g>
			<defs>
				<rect id="SVGID_3_" x="29.164" y="27.385" width="30.05" height="30.055"/>
			</defs>
			<clipPath id="SVGID_4_">
				<use xlink:href="#SVGID_3_"  overflow="visible"/>
			</clipPath>
			<path clip-path="url(#SVGID_4_)" d="M59.216,42.412c0,8.299-6.729,15.027-15.026,15.027c-8.3,0-15.027-6.729-15.027-15.027
				s6.729-15.027,15.027-15.027C52.487,27.385,59.216,34.113,59.216,42.412"/>
		</g>
	</g>
</g>
<path fill="#FFFFFF" d="M57.364,40.354c0,7.277-5.899,13.176-13.176,13.176c-7.277,0-13.177-5.898-13.177-13.176
	c0-7.276,5.898-13.176,13.177-13.176C51.465,27.179,57.364,33.078,57.364,40.354"/>
<path fill="#F494BE" d="M47.491,32.977c0,1.824-1.479,3.303-3.304,3.303c-1.823,0-3.303-1.479-3.303-3.303
	c0-1.824,1.479-3.303,3.303-3.303C46.012,29.674,47.491,31.152,47.491,32.977"/>
<path fill="#9B4A83" d="M82.252,6.499c0,1.208-16.728,2.188-37.36,2.188c-20.634,0-37.362-0.98-37.362-2.188
	S24.257,3.283,44.89,3.283C65.523,3.283,82.252,5.291,82.252,6.499"/>
<path fill="#9B4A83" d="M46.458,63.723c0.015,0.763,0.042,2.756-0.93,3.461c-0.951,0.746-2.419,0.746-3.37,0
	c-0.972-0.705-0.944-2.698-0.931-3.461c-0.015-0.789-0.041-0.055,0.931,0.65c0.951,0.746,2.419,0.746,3.37,0
	C46.5,63.668,46.472,62.934,46.458,63.723"/>
<path fill="#FFFFFF" d="M42.711,65.099c-0.031,0.11-0.057,0.226-0.057,0.347c0,0.659,0.536,1.195,1.197,1.195
	s1.195-0.536,1.195-1.195c0-0.121-0.022-0.236-0.057-0.347C44.276,65.415,43.427,65.415,42.711,65.099"/>
<g opacity="0.2">
	<g>
		<g>
			<defs>
				<rect id="SVGID_5_" x="3.094" y="10.886" width="22.729" height="60.578"/>
			</defs>
			<clipPath id="SVGID_6_">
				<use xlink:href="#SVGID_5_"  overflow="visible"/>
			</clipPath>
			
				<path clip-path="url(#SVGID_6_)" fill="none" stroke="#FFFFFF" stroke-width="5" stroke-linecap="round" stroke-linejoin="round" stroke-miterlimit="10" d="
				M5.597,13.386c0.642,6.44,2.31,19.291,6.207,31.946c3.106,10.092,6.983,18.042,11.522,23.631"/>
		</g>
	</g>
</g>
</svg>
