<?xml version="1.0" encoding="utf-8"?>
<!-- Generator: Adobe Illustrator 15.0.0, SVG Export Plug-In . SVG Version: 6.00 Build 0)  -->
<!DOCTYPE svg PUBLIC "-//W3C//DTD SVG 1.1//EN" "http://www.w3.org/Graphics/SVG/1.1/DTD/svg11.dtd">
<svg version="1.1" id="Layer_1" xmlns="http://www.w3.org/2000/svg" xmlns:xlink="http://www.w3.org/1999/xlink" x="0px" y="0px"
	 width="73.387px" height="131.262px" viewBox="0 0 73.387 131.262" enable-background="new 0 0 73.387 131.262"
	 xml:space="preserve">
<g opacity="0.1">
	<g>
		<defs>
			<rect id="SVGID_1_" y="127.152" width="73.387" height="4.109"/>
		</defs>
		<clipPath id="SVGID_2_">
			<use xlink:href="#SVGID_1_"  overflow="visible"/>
		</clipPath>
		<path clip-path="url(#SVGID_2_)" fill="#9B4A83" d="M73.387,129.208c0,1.135-16.428,2.055-36.693,2.055
			c-20.265,0-36.693-0.92-36.693-2.055s16.428-2.056,36.693-2.056C56.959,127.152,73.387,128.073,73.387,129.208"/>
	</g>
</g>
<path fill="#8B9FAA" d="M70.027,75.925V63.033c0-1.076-0.881-1.957-1.957-1.957H53.125c-1.077,0-1.957,0.881-1.957,1.957V91.62
	c0,1.075,0.88,1.957,1.957,1.957H68.07c1.076,0,1.957-0.882,1.957-1.957V75.925z"/>
<path fill="#8B9FAA" d="M22.219,75.925V63.033c0-1.076-0.88-1.957-1.957-1.957H5.316c-1.077,0-1.957,0.881-1.957,1.957V91.62
	c0,1.075,0.88,1.957,1.957,1.957h14.946c1.077,0,1.957-0.882,1.957-1.957V75.925z"/>
<path fill="#8B9FAA" d="M38.824,40.937c0,0.477-0.391,0.864-0.866,0.864h-2.53c-0.476,0-0.865-0.388-0.865-0.864V28.055
	c0-0.475,0.389-0.864,0.865-0.864h2.53c0.475,0,0.866,0.39,0.866,0.864V40.937z"/>
<path fill="#8B9FAA" d="M41.605,121.999c0,1.097-0.898,1.995-1.996,1.995h-5.833c-1.097,0-1.994-0.898-1.994-1.995V92.293
	c0-1.097,0.897-1.994,1.994-1.994h5.833c1.098,0,1.996,0.897,1.996,1.994V121.999z"/>
<path fill="#ADC6D2" d="M64.773,102.182c1.076,0,1.957-0.88,1.957-1.956V43.316c0,0-5.247-4.958-30.037-4.958
	c-24.79,0-30.036,4.958-30.036,4.958l-0.001,56.909c0,1.076,0.881,1.956,1.957,1.956H64.773z"/>
<g opacity="0.05">
	<g>
		<defs>
			<rect id="SVGID_3_" x="6.657" y="38.361" width="29.875" height="63.82"/>
		</defs>
		<clipPath id="SVGID_4_">
			<use xlink:href="#SVGID_3_"  overflow="visible"/>
		</clipPath>
		<path clip-path="url(#SVGID_4_)" d="M36.532,38.361c-24.648,0.021-29.875,4.956-29.875,4.956l-0.001,56.907
			c0,1.077,0.881,1.957,1.957,1.957h27.919V38.361z"/>
	</g>
</g>
<path d="M47.213,118.932c0,5.811-4.71,10.521-10.519,10.521c-5.81,0-10.52-4.71-10.52-10.521c0-5.809,4.71-10.52,10.52-10.52
	C42.503,108.412,47.213,113.123,47.213,118.932"/>
<path fill="#8B9FAA" d="M42.463,118.932c0,3.188-2.583,5.77-5.77,5.77c-3.186,0-5.769-2.582-5.769-5.77
	c0-3.186,2.583-5.77,5.769-5.77C39.88,113.162,42.463,115.746,42.463,118.932"/>
<path d="M37.763,118.932c0,0.592-0.479,1.071-1.069,1.071c-0.591,0-1.07-0.479-1.07-1.071c0-0.591,0.479-1.069,1.07-1.069
	C37.284,117.862,37.763,118.341,37.763,118.932"/>
<path fill="#8B9FAA" d="M21.841,87.865c-1.097,0-1.995-0.898-1.995-1.995v-5.834c0-1.097,0.898-1.995,1.995-1.995h29.706
	c1.097,0,1.994,0.898,1.994,1.995v5.834c0,1.097-0.897,1.995-1.994,1.995H21.841z"/>
<rect x="21.925" y="79.655" fill="#FFFFFF" width="5.387" height="2.141"/>
<rect x="27.963" y="79.655" fill="#FFFFFF" width="5.387" height="2.141"/>
<rect x="34" y="79.655" fill="#FFFFFF" width="5.388" height="2.141"/>
<rect x="40.037" y="79.655" fill="#FFFFFF" width="5.388" height="2.141"/>
<rect x="46.074" y="79.655" fill="#FFFFFF" width="5.389" height="2.141"/>
<rect x="21.925" y="84.111" fill="#FFFFFF" width="5.387" height="2.141"/>
<rect x="27.963" y="84.111" fill="#FFFFFF" width="5.387" height="2.141"/>
<rect x="34" y="84.111" fill="#FFFFFF" width="5.388" height="2.141"/>
<rect x="40.037" y="84.111" fill="#FFFFFF" width="5.388" height="2.141"/>
<rect x="46.074" y="84.111" fill="#FFFFFF" width="5.389" height="2.141"/>
<path fill="#ADC6D2" d="M66.729,16.733V3.842c0-1.076-0.88-1.957-1.956-1.957H8.613c-1.076,0-1.957,0.881-1.957,1.957v28.586
	c0,1.077,0.88,1.958,1.957,1.958h56.16c1.076,0,1.956-0.881,1.956-1.958V16.733z"/>
<g opacity="0.05">
	<g>
		<defs>
			<rect id="SVGID_5_" x="6.657" y="1.885" width="60.074" height="32.501"/>
		</defs>
		<clipPath id="SVGID_6_">
			<use xlink:href="#SVGID_5_"  overflow="visible"/>
		</clipPath>
		<path clip-path="url(#SVGID_6_)" d="M66.73,3.843c0-1.077-0.881-1.958-1.957-1.958H8.614c-1.076,0-1.958,0.881-1.958,1.958v28.585
			c0,1.077,0.881,1.958,1.957,1.958L66.73,3.843z"/>
	</g>
</g>
<path fill="#ADC6D2" d="M68.992,1.85c0-1.018-0.833-1.85-1.852-1.85H6.246C5.228,0,4.396,0.832,4.396,1.85v1.31
	c0,1.019,0.832,1.852,1.851,1.852h60.895c1.019,0,1.852-0.833,1.852-1.852V1.85z"/>
<path fill="#8B9FAA" d="M66.73,95.411H6.657v0.824H66.73V95.411z M66.73,58.817H6.657v0.824H66.73V58.817z"/>
<path fill="#8B9FAA" d="M51.304,58.806c0,8.07-6.542,14.612-14.61,14.612c-8.069,0-14.61-6.542-14.61-14.612
	c0-8.067,6.542-14.61,14.61-14.61C44.762,44.195,51.304,50.738,51.304,58.806"/>
<path fill="#FFFFFF" d="M49.228,58.806c0,6.924-5.611,12.536-12.534,12.536S24.16,65.729,24.16,58.806
	c0-6.921,5.612-12.532,12.534-12.532S49.228,51.885,49.228,58.806"/>
<path fill="#8B9FAA" d="M39.832,51.393c0,1.765-1.43,3.194-3.193,3.194c-1.764,0-3.194-1.43-3.194-3.194
	c0-1.763,1.43-3.194,3.194-3.194C38.402,48.198,39.832,49.63,39.832,51.393"/>
<path fill="#8B9FAA" d="M57.631,29.009c0,1.316-1.068,2.384-2.385,2.384c-1.315,0-2.382-1.067-2.382-2.384s1.066-2.383,2.382-2.383
	C56.562,26.626,57.631,27.692,57.631,29.009"/>
<path fill="#8B9FAA" d="M63.827,29.009c0,1.316-1.067,2.384-2.384,2.384c-1.315,0-2.383-1.067-2.383-2.384s1.067-2.383,2.383-2.383
	C62.76,26.626,63.827,27.692,63.827,29.009"/>
</svg>
