<?xml version="1.0" encoding="utf-8"?>
<!-- Generator: Adobe Illustrator 17.0.0, SVG Export Plug-In . SVG Version: 6.00 Build 0)  -->
<!DOCTYPE svg PUBLIC "-//W3C//DTD SVG 1.1//EN" "http://www.w3.org/Graphics/SVG/1.1/DTD/svg11.dtd">
<svg version="1.1" id="Layer_1" xmlns="http://www.w3.org/2000/svg" xmlns:xlink="http://www.w3.org/1999/xlink" x="0px" y="0px"
	 width="799.998px" height="160.41px" viewBox="0 0 799.998 160.41" enable-background="new 0 0 799.998 160.41"
	 xml:space="preserve">
<path fill="none" stroke="#FFFFFF" stroke-width="10" stroke-miterlimit="10" d="M382.924,99.473L216.722,64.209L382.924,26.49
	c3.455,0,6.282,2.827,6.282,6.282V93.19C389.206,96.646,386.379,99.473,382.924,99.473z"/>
<path fill="#CE202B" d="M762.839,87.65c-119.674-15.862-239.349,33.377-359.023,17.515c-23.944-3.085-40.346-27.561-36.635-50.621v0
	c3.711-23.105,24.795-36.465,47.092-33.616C526.976,35.866,639.679-10.504,752.382,4.434c22.297,2.849,43.381,26.975,47.092,50.111
	v0C803.184,77.725,786.784,90.735,762.839,87.65z"/>
<path fill="#FFFFFF" d="M434.085,72.088c-0.928,2.74-2.37,4.803-4.327,6.173c-2.008,1.352-4.282,1.929-6.812,1.711
	c-2.283-0.252-4.127-1.013-5.527-2.264c-1.432-1.213-2.415-2.557-2.953-4.018c-0.158-0.475-0.299-0.928-0.421-1.359
	c-0.109-0.443-0.176-0.992-0.206-1.647c-0.054-1.227,0.125-3.552,0.537-6.973c0.419-3.476,0.796-5.792,1.134-6.946
	c0.352-1.153,0.786-2.067,1.303-2.744c0.858-1.305,2.115-2.413,3.768-3.339c1.627-0.942,3.561-1.322,5.804-1.156
	c2.746,0.263,4.891,1.28,6.445,3.079c1.552,1.812,2.429,3.976,2.623,6.506c-1.536-0.089-3.073-0.188-4.609-0.297
	c-0.224-1.233-0.754-2.308-1.59-3.23c-0.88-0.884-2.011-1.396-3.395-1.543c-1.024-0.06-1.925,0.073-2.704,0.402
	c-0.793,0.342-1.456,0.798-1.986,1.37c-0.639,0.59-1.109,1.381-1.412,2.378c-0.336,1.049-0.677,3.048-1.022,5.997
	c-0.345,2.95-0.473,4.957-0.383,6.021c0.064,1.062,0.343,1.943,0.839,2.646c0.392,0.663,0.946,1.223,1.659,1.679
	c0.692,0.521,1.557,0.83,2.595,0.919c2.473,0.212,4.474-1.019,5.991-3.665C430.987,71.898,432.536,71.998,434.085,72.088z"/>
<path fill="#FFFFFF" d="M437.607,65.629c0.362-3.488,0.702-5.817,1.02-6.989c0.332-1.17,0.751-2.109,1.257-2.816
	c0.835-1.346,2.069-2.523,3.703-3.543c1.608-1.034,3.532-1.529,5.774-1.501c2.263,0.083,4.097,0.674,5.509,1.788
	c1.399,1.1,2.371,2.339,2.914,3.726c0.417,0.728,0.666,1.682,0.744,2.861c0.065,1.179-0.057,3.51-0.367,6.992
	c-0.305,3.428-0.596,5.744-0.876,6.951c-0.293,1.207-0.717,2.172-1.273,2.897c-0.8,1.382-2.012,2.597-3.638,3.636
	c-1.643,1.079-3.626,1.626-5.947,1.624c-2.285-0.112-4.137-0.753-5.555-1.909c-1.45-1.116-2.454-2.388-3.014-3.805
	c-0.166-0.462-0.314-0.904-0.443-1.323c-0.116-0.433-0.192-0.974-0.232-1.623C437.111,71.376,437.251,69.055,437.607,65.629z
	 M441.967,65.826c-0.297,2.954-0.392,4.956-0.284,6.008c0.081,1.051,0.374,1.911,0.88,2.577c0.402,0.634,0.964,1.157,1.684,1.566
	c0.7,0.476,1.568,0.729,2.605,0.755c1.05,0.026,1.981-0.183,2.796-0.621c0.766-0.372,1.398-0.864,1.893-1.476
	c0.631-0.639,1.1-1.478,1.409-2.52c0.294-1.042,0.578-3.039,0.85-5.994c0.272-2.953,0.357-4.967,0.26-6.041
	c-0.117-1.019-0.427-1.854-0.931-2.509c-0.375-0.624-0.903-1.148-1.584-1.574c-0.723-0.411-1.598-0.644-2.631-0.697
	c-1.024,0.002-1.921,0.19-2.694,0.565c-0.787,0.389-1.442,0.883-1.961,1.485c-0.627,0.626-1.085,1.442-1.371,2.452
	C442.571,60.865,442.264,62.873,441.967,65.826z"/>
<path fill="#FFFFFF" d="M465.33,51.121c1.356-0.016,2.711-0.039,4.067-0.067c3.72,7.016,7.506,13.972,11.358,20.873l0.08-0.004
	c0.515-7.102,1.03-14.205,1.546-21.307c1.438-0.066,2.876-0.139,4.314-0.216c-0.694,9.989-1.388,19.978-2.081,29.967
	c-1.391,0.075-2.783,0.145-4.174,0.21c-3.874-6.898-7.682-13.851-11.424-20.863l-0.079,0.002c-0.58,7.105-1.16,14.209-1.741,21.314
	c-1.469,0.031-2.938,0.056-4.406,0.073C463.636,71.11,464.483,61.115,465.33,51.121z"/>
<path fill="#FFFFFF" d="M502.057,62.786c3.409-0.273,6.818-0.572,10.226-0.893c-0.103,2.029-0.206,4.058-0.308,6.087
	c-0.204,2.998-1.323,5.6-3.368,7.799c-2.056,2.184-4.578,3.432-7.547,3.725c-2.286,0.129-4.161-0.305-5.621-1.291
	c-1.49-0.943-2.542-2.087-3.154-3.424c-0.184-0.438-0.348-0.857-0.493-1.257c-0.132-0.414-0.23-0.94-0.294-1.577
	c-0.12-1.193-0.068-3.501,0.156-6.926c0.227-3.48,0.477-5.815,0.75-7.005c0.287-1.192,0.668-2.165,1.147-2.919
	c0.781-1.429,1.97-2.737,3.563-3.928c1.566-1.203,3.468-1.903,5.709-2.11c2.746-0.193,4.936,0.467,6.583,1.995
	c1.643,1.541,2.634,3.537,2.967,5.998c-1.535,0.144-3.07,0.284-4.605,0.419c-0.29-1.179-0.876-2.155-1.759-2.928
	c-0.924-0.73-2.077-1.051-3.462-0.967c-1.022,0.109-1.911,0.39-2.667,0.843c-0.77,0.469-1.405,1.028-1.901,1.679
	c-0.602,0.687-1.028,1.544-1.274,2.573c-0.277,1.085-0.507,3.104-0.691,6.055c-0.183,2.951-0.202,4.94-0.054,5.968
	c0.121,1.03,0.446,1.847,0.978,2.45c0.427,0.583,1.007,1.039,1.742,1.366c0.717,0.395,1.595,0.553,2.631,0.47
	c1.715-0.137,3.166-0.862,4.347-2.166c1.179-1.25,1.829-2.817,1.957-4.7c0.028-0.522,0.056-1.044,0.084-1.566
	c-1.963,0.174-3.926,0.339-5.889,0.497C501.892,65.63,501.975,64.208,502.057,62.786z"/>
<path fill="#FFFFFF" d="M518.801,47.855c3.711-0.376,7.422-0.777,11.134-1.197c2.374-0.269,4.286,0.159,5.744,1.292
	c1.756,1.274,2.635,3.282,2.623,6.031c-0.182,4.061-2.121,7.048-5.835,8.937c2.064,4.161,4.15,8.313,6.256,12.456
	c-1.745,0.213-3.49,0.422-5.236,0.628c-1.859-4.02-3.699-8.047-5.521-12.082c-1.865,0.209-3.73,0.413-5.595,0.611
	c-0.185,4.26-0.37,8.52-0.554,12.78c-1.469,0.156-2.938,0.309-4.406,0.458C517.875,67.797,518.338,57.826,518.801,47.855z
	 M522.546,60.515c2.202-0.234,4.404-0.476,6.606-0.725c1.636-0.212,2.882-0.848,3.732-1.903c0.835-0.984,1.276-2.128,1.322-3.429
	c0.027-1.558-0.411-2.631-1.316-3.221c-0.712-0.532-1.761-0.717-3.15-0.56c-2.266,0.257-4.533,0.506-6.799,0.747
	C522.809,54.455,522.678,57.485,522.546,60.515z"/>
<path fill="#FFFFFF" d="M558.192,66.22c-3.662,0.49-7.325,0.972-10.987,1.44c-0.799,2.32-1.601,4.639-2.408,6.959
	c-1.557,0.197-3.114,0.391-4.671,0.583c3.831-10.387,7.587-20.779,11.269-31.171c1.205-0.157,2.41-0.315,3.615-0.474
	c3.249,9.484,6.572,18.949,9.97,28.397c-1.551,0.212-3.101,0.422-4.651,0.631C559.613,70.464,558.901,68.342,558.192,66.22z
	 M557.016,62.384c-1.312-4.162-2.611-8.327-3.897-12.496l-0.079,0.01c-1.476,4.531-2.964,9.061-4.465,13.592
	C551.388,63.128,554.202,62.759,557.016,62.384z"/>
<path fill="#FFFFFF" d="M570.945,45.393c-2.611,0.36-5.222,0.719-7.833,1.073c0.019-1.334,0.039-2.669,0.058-4.003
	c6.646-0.902,13.293-1.829,19.939-2.756c0,1.332,0,2.663-0.001,3.995c-2.613,0.364-5.225,0.729-7.838,1.091
	c-0.05,8.587-0.1,17.175-0.15,25.762c-1.469,0.204-2.938,0.407-4.406,0.61C570.792,62.575,570.869,53.984,570.945,45.393z"/>
<path fill="#FFFFFF" d="M587.215,61.667c2.311,1.627,5.067,2.231,8.256,1.818c3.773-0.575,5.667-2.215,5.685-4.925
	c-0.002-2.218-1.274-3.378-3.813-3.478c-1.163-0.003-2.438-0.012-3.823-0.024c-2.483-0.078-4.375-0.76-5.669-2.05
	c-1.335-1.324-2-3.069-2.004-5.232c-0.005-2.599,0.822-4.81,2.472-6.632c1.598-1.801,3.864-2.92,6.805-3.353
	c3.541-0.408,6.629,0.194,9.282,1.801c-0.785,1.34-1.572,2.682-2.361,4.023c-2.168-1.176-4.537-1.614-7.113-1.313
	c-1.333,0.184-2.442,0.686-3.328,1.502c-0.925,0.85-1.399,1.991-1.418,3.423c0.004,0.856,0.329,1.587,0.977,2.19
	c0.648,0.618,1.683,0.964,3.105,1.039c0.789,0.028,1.868,0.035,3.239,0.023c2.7,0.01,4.706,0.736,6.022,2.177
	c1.3,1.415,1.972,3.176,2.005,5.28c-0.05,5.696-3.411,9.031-10.079,10.034c-4.311,0.596-8.024-0.239-11.117-2.514
	C585.3,64.194,586.259,62.93,587.215,61.667z"/>
<path fill="#FFFFFF" d="M630.104,46.841c3.409-0.408,6.817-0.802,10.226-1.178c0.082,2.005,0.165,4.011,0.247,6.016
	c0.069,2.965-0.821,5.551-2.682,7.77c-1.873,2.206-4.3,3.511-7.265,3.921c-2.291,0.22-4.219-0.113-5.778-1.007
	c-1.587-0.849-2.749-1.912-3.488-3.192c-0.224-0.42-0.428-0.823-0.61-1.207c-0.171-0.4-0.318-0.911-0.44-1.535
	c-0.23-1.167-0.388-3.444-0.478-6.831c-0.09-3.441-0.053-5.757,0.113-6.947c0.18-1.192,0.475-2.174,0.886-2.947
	c0.656-1.456,1.732-2.816,3.226-4.075c1.466-1.27,3.317-2.055,5.556-2.35c2.748-0.302,5.017,0.285,6.817,1.751
	c1.799,1.481,2.981,3.434,3.542,5.859c-1.535,0.17-3.07,0.343-4.606,0.519c-0.4-1.155-1.081-2.102-2.041-2.836
	c-0.999-0.69-2.189-0.966-3.577-0.827c-1.019,0.149-1.89,0.467-2.609,0.949c-0.733,0.498-1.32,1.081-1.76,1.749
	c-0.544,0.708-0.894,1.575-1.046,2.602c-0.179,1.085-0.226,3.087-0.141,6.004c0.086,2.919,0.249,4.879,0.493,5.884
	c0.216,1.008,0.619,1.795,1.209,2.364c0.483,0.553,1.109,0.974,1.879,1.261c0.759,0.356,1.656,0.472,2.693,0.348
	c1.715-0.206,3.11-0.969,4.181-2.293c1.073-1.269,1.585-2.834,1.542-4.696c-0.02-0.516-0.039-1.032-0.059-1.548
	c-1.963,0.225-3.926,0.455-5.889,0.69C630.199,49.654,630.151,48.247,630.104,46.841z"/>
<path fill="#FFFFFF" d="M645.619,31.727c3.711-0.386,7.422-0.748,11.134-1.082c2.373-0.214,4.347,0.271,5.924,1.444
	c1.892,1.324,2.965,3.351,3.206,6.072c0.19,4.015-1.499,6.879-5.078,8.637c2.468,4.178,4.958,8.364,7.469,12.561
	c-1.745,0.133-3.49,0.273-5.236,0.419c-2.248-4.039-4.477-8.071-6.688-12.097c-1.865,0.171-3.73,0.349-5.595,0.534
	c0.204,4.21,0.409,8.421,0.613,12.631c-1.469,0.145-2.938,0.294-4.406,0.447C646.513,51.437,646.066,41.582,645.619,31.727z
	 M650.561,44.245c2.202-0.218,4.404-0.427,6.606-0.626c1.634-0.175,2.834-0.768,3.597-1.787c0.754-0.949,1.095-2.065,1.021-3.352
	c-0.115-1.541-0.658-2.618-1.626-3.228c-0.768-0.547-1.846-0.76-3.235-0.635c-2.266,0.204-4.533,0.419-6.799,0.643
	C650.271,38.255,650.416,41.25,650.561,44.245z"/>
<path fill="#FFFFFF" d="M687.13,51.586c-3.662,0.161-7.325,0.36-10.987,0.591c-0.595,2.247-1.194,4.496-1.797,6.746
	c-1.557,0.104-3.114,0.214-4.671,0.329c2.92-10.102,5.766-20.17,8.537-30.203c1.205-0.069,2.41-0.134,3.615-0.195
	c4.16,9.659,8.393,19.347,12.702,29.069c-1.551,0.048-3.101,0.103-4.652,0.165C688.958,55.92,688.042,53.752,687.13,51.586z
	 M685.587,47.681c-1.71-4.238-3.407-8.471-5.092-12.699l-0.079,0.004c-1.077,4.377-2.167,8.761-3.27,13.15
	C679.96,47.964,682.774,47.812,685.587,47.681z"/>
<path fill="#FFFFFF" d="M696.023,28.326c3.324-0.077,6.647-0.12,9.97-0.126c3.859,0.021,6.905,1.721,9.158,5.047
	c0.798,1.118,1.348,2.288,1.65,3.505c0.261,1.217,0.537,3.315,0.826,6.295c0.308,3.169,0.41,5.378,0.307,6.627
	c-0.044,0.632-0.149,1.195-0.313,1.689c-0.178,0.481-0.402,0.981-0.67,1.501c-0.716,1.373-1.788,2.5-3.221,3.389
	c-1.412,0.956-3.213,1.43-5.395,1.436c-3.295,0.008-6.59,0.052-9.885,0.128C697.641,47.987,696.832,38.156,696.023,28.326z
	 M702.498,53.53c1.754-0.025,3.508-0.04,5.262-0.045c2.47-0.007,4.187-0.852,5.141-2.558c0.432-0.631,0.667-1.431,0.708-2.403
	c0.029-0.957-0.078-2.754-0.327-5.389c-0.241-2.566-0.474-4.406-0.696-5.515c-0.261-1.109-0.719-2.013-1.373-2.707
	c-1.366-1.727-3.143-2.568-5.336-2.508c-1.727,0.005-3.455,0.02-5.182,0.044C701.297,39.476,701.897,46.503,702.498,53.53z"/>
<path fill="#FFFFFF" d="M724.674,50.835c2.503,2.019,5.356,3.122,8.546,3.336c3.768,0.17,5.527-1.044,5.279-3.731
	c-0.219-2.198-1.622-3.622-4.204-4.23c-1.179-0.236-2.472-0.495-3.878-0.772c-2.525-0.551-4.508-1.569-5.947-3.077
	c-1.482-1.55-2.328-3.393-2.544-5.54c-0.26-2.578,0.363-4.631,1.856-6.144c1.444-1.5,3.63-2.198,6.568-2.053
	c3.549,0.288,6.737,1.534,9.583,3.705c-0.664,1.158-1.33,2.318-1.998,3.481c-2.313-1.627-4.754-2.546-7.337-2.75
	c-1.334-0.077-2.408,0.211-3.226,0.855c-0.855,0.671-1.223,1.717-1.102,3.132c0.088,0.85,0.49,1.634,1.205,2.352
	c0.718,0.733,1.799,1.269,3.249,1.618c0.803,0.18,1.897,0.398,3.285,0.661c2.737,0.552,4.841,1.701,6.315,3.413
	c1.457,1.684,2.31,3.579,2.549,5.672c0.508,5.645-2.571,8.172-9.231,7.853c-4.31-0.252-8.157-1.74-11.515-4.518
	C722.981,53.008,723.829,51.92,724.674,50.835z"/>
<path fill="#FFFFFF" d="M745.358,30.054c1.707,0.172,3.414,0.357,5.121,0.555c0.382,7.354,0.757,14.709,1.122,22.064
	c-0.689-0.077-1.377-0.151-2.066-0.224C748.135,44.982,746.742,37.517,745.358,30.054z M748.905,55.428
	c1.384,0.142,2.768,0.292,4.151,0.45c0.17,1.404,0.341,2.808,0.512,4.212c-1.388-0.159-2.776-0.31-4.164-0.452
	C749.238,58.236,749.072,56.832,748.905,55.428z"/>
<path fill="#6E161D" d="M88.434,88.23h36.899c7.713,0,11.727-6.311,8.92-14.024l-21.904-60.182C109.541,6.311,100.933,0,93.219,0
	H56.321c-7.713,0-11.727,6.311-8.92,14.024l21.904,60.182C72.113,81.919,80.721,88.23,88.434,88.23z"/>
<path fill="#CE202B" d="M210.956,100.245H48.634c-15.436,0-28.065-12.629-28.065-28.065v0c0-15.436,12.629-28.065,28.065-28.065
	h162.322c15.436,0,28.065,12.629,28.065,28.065v0C239.021,87.616,226.392,100.245,210.956,100.245z"/>
<path fill="#6E161D" d="M195.874,68.985h20.802c4.348,0,6.611-3.558,5.029-7.906l-12.349-33.928
	c-1.583-4.348-6.435-7.906-10.784-7.906H177.77c-4.348,0-6.611,3.558-5.029,7.906l12.349,33.928
	C186.673,65.427,191.525,68.985,195.874,68.985z"/>
<path fill="#CE202B" d="M135.098,45.768c25.561-0.691,34.84-2.017,47.667-8.29c12.828-6.273,9.273-34.227,26.365-33.562h0
	c17.092,0.665,30.532,15.192,29.867,32.284l-1.65,42.445C236.682,95.736,109.537,46.458,135.098,45.768z"/>
<path fill="#CE202B" d="M197.221,54.544c0,7.894-54.272,16.739-59.476,21.943c-5.204,5.204-12.38,8.43-20.274,8.43H70.285
	c-15.788,0-28.704-12.916-28.704-28.704c0-3.56,0.657-6.974,1.856-10.124c0.086-0.223,0.172-0.445,0.263-0.668
	c0.116-0.288,0.238-0.571,0.364-0.85c1.441-3.237,3.469-6.154,5.947-8.632c5.204-5.204,9.189-8.425,17.133-9.386
	c2.397-0.293,5.416-0.46,8.491-0.546c7.095-0.207,14.478-0.005,15.191,0.015c7.469-0.091,16.582,0.228,26.645,1.487
	C144.512,30.887,197.221,38.756,197.221,54.544z"/>
<path fill="#8F1924" d="M209,105.954h20.802c4.348,0,6.611-3.558,5.029-7.906L222.481,64.12c-1.583-4.348-6.435-7.906-10.784-7.906
	h-20.802c-4.348,0-6.611,3.558-5.029,7.906l12.349,33.928C199.798,102.396,204.651,105.954,209,105.954z"/>
<path fill="#8F1924" d="M110.59,160.41h36.899c7.713,0,11.727-6.311,8.92-14.024l-21.904-60.182
	c-2.807-7.713-11.415-14.024-19.129-14.024H78.477c-7.713,0-11.727,6.311-8.92,14.024l21.904,60.182
	C94.269,154.1,102.877,160.41,110.59,160.41z"/>
<path fill="#FFFFFF" d="M37.555,44.674L7.594,97.8c-1.097,1.945-3.586,2.639-5.531,1.542h0c-1.945-1.097-2.639-3.586-1.542-5.531
	l29.961-53.126c1.097-1.945,3.586-2.639,5.531-1.542C37.958,40.24,38.652,42.729,37.555,44.674z"/>
<path fill="#FFFFFF" d="M9.104,40.125l27.139,54.621c0.994,2,0.17,4.449-1.829,5.443h0c-2,0.994-4.449,0.17-5.443-1.829
	L1.832,43.739c-0.994-2-0.17-4.449,1.829-5.443h0C5.661,37.302,8.111,38.125,9.104,40.125z"/>
<path fill="#A09F9F" d="M19.038,73.992L19.038,73.992c-2.122,0-3.859-1.736-3.859-3.859c0-2.122,1.736-3.859,3.859-3.859h0
	c2.122,0,3.859,1.736,3.859,3.859C22.897,72.255,21.16,73.992,19.038,73.992z"/>
<path fill="#FFFFFF" d="M90.827,26.022v18.549H44.064c1.441-3.237,3.469-6.154,5.947-8.632c5.204-5.204,9.189-8.425,17.133-9.386
	c2.397-0.293,5.416-0.46,8.491-0.546C82.73,25.8,90.114,26.002,90.827,26.022z"/>
</svg>
