<?xml version="1.0" encoding="utf-8"?>
<!-- Generator: Adobe Illustrator 17.0.0, SVG Export Plug-In . SVG Version: 6.00 Build 0)  -->
<!DOCTYPE svg PUBLIC "-//W3C//DTD SVG 1.1//EN" "http://www.w3.org/Graphics/SVG/1.1/DTD/svg11.dtd">
<svg version="1.1" id="Layer_1" xmlns="http://www.w3.org/2000/svg" xmlns:xlink="http://www.w3.org/1999/xlink" x="0px" y="0px"
	 width="143.528px" height="88.247px" viewBox="0 0 143.528 88.247" enable-background="new 0 0 143.528 88.247"
	 xml:space="preserve">
<path fill="#FFFFFF" d="M143.528,55.788c0-10.848-6.279-20.294-15.379-24.901c0.106-0.984,0.164-1.982,0.164-2.993v0
	C128.313,12.552,115.761,0,100.419,0h0C91.32,0,83.204,4.415,78.104,11.208C73.004,4.415,64.887,0,55.788,0h0
	C40.446,0,27.894,12.552,27.894,27.894v0C12.552,27.894,0,40.446,0,55.788s12.552,27.894,27.894,27.894h0
	c6.778,0,13.009-2.453,17.856-6.511c5.106,6.716,13.173,11.075,22.21,11.075h0c11.088,0,20.716-6.559,25.204-15.987
	c5.089,6.913,13.277,11.422,22.469,11.422h0C130.976,83.682,143.528,71.13,143.528,55.788z"/>
</svg>
