<?xml version="1.0" encoding="utf-8"?>
<!-- Generator: Adobe Illustrator 17.0.0, SVG Export Plug-In . SVG Version: 6.00 Build 0)  -->
<!DOCTYPE svg PUBLIC "-//W3C//DTD SVG 1.1//EN" "http://www.w3.org/Graphics/SVG/1.1/DTD/svg11.dtd">
<svg version="1.1" id="Layer_1" xmlns="http://www.w3.org/2000/svg" xmlns:xlink="http://www.w3.org/1999/xlink" x="0px" y="0px"
	 width="146.92px" height="96.727px" viewBox="0 0 146.92 96.727" enable-background="new 0 0 146.92 96.727" xml:space="preserve">
<path fill="#FFFFFF" d="M132.793,36.087c-3.687-11.471-14.039-19.732-26.238-19.732c-2.099,0-4.136,0.246-6.1,0.71
	c-1.466-1.907-3.158-3.62-5.037-5.088C90.803,8.37,85.081,6.233,78.883,6.233c-6.132,0-11.792,2.086-16.377,5.616
	C60.7,9.276,58.502,7.025,56,5.199C51.514,1.923,46.064,0,40.181,0c-7.795,0-14.837,3.374-19.865,8.804
	c-0.995,1.071-1.909,2.224-2.732,3.445c-3.203,4.722-5.083,10.494-5.083,16.724c0,1.535,0.117,3.042,0.336,4.513
	C5.121,38.624,0,47.66,0,57.947c0,16,12.389,28.972,27.675,28.972c4.068,0,7.93-0.917,11.407-2.566
	c5.001,7.478,13.296,12.373,22.683,12.373c8.305,0,15.751-3.834,20.823-9.898c3.926,2.234,8.421,3.505,13.203,3.505
	c4.191,0,8.166-0.98,11.728-2.725c0.552,0.271,1.117,0.524,1.688,0.754c2.806,1.15,5.838,1.829,9.005,1.947
	c0.339,0.017,0.684,0.023,1.03,0.023c0.904,0,1.802-0.044,2.683-0.135c12.17-1.227,22.038-10.707,24.433-23.026
	c0.368-1.876,0.559-3.82,0.559-5.812C146.92,50.508,141.224,41.053,132.793,36.087z"/>
</svg>
