<?xml version="1.0" encoding="utf-8"?>
<!-- Generator: Adobe Illustrator 17.0.0, SVG Export Plug-In . SVG Version: 6.00 Build 0)  -->
<!DOCTYPE svg PUBLIC "-//W3C//DTD SVG 1.1//EN" "http://www.w3.org/Graphics/SVG/1.1/DTD/svg11.dtd">
<svg version="1.1" id="Layer_1" xmlns="http://www.w3.org/2000/svg" xmlns:xlink="http://www.w3.org/1999/xlink" x="0px" y="0px"
	 width="188.877px" height="111.968px" viewBox="0 0 188.877 111.968" enable-background="new 0 0 188.877 111.968"
	 xml:space="preserve">
<path fill="#FFFFFF" d="M180.524,59.658c-0.244-9.81-5.609-18.406-13.517-23.19c0.881-2.705,1.362-5.585,1.362-8.574
	C168.37,12.552,155.818,0,140.476,0h0c-14.891,0-27.152,11.826-27.86,26.55c-3.69-1.809-7.83-2.829-12.197-2.829h0
	c-9.098,0-17.215,4.415-22.315,11.208c-5.1-6.793-13.217-11.208-22.315-11.208h0c-15.342,0-27.894,12.552-27.894,27.894v0h0
	C12.552,51.615,0,64.168,0,79.509v0c0,15.342,12.552,27.894,27.894,27.894h0c6.778,0,13.009-2.453,17.856-6.511
	c5.106,6.716,13.172,11.075,22.21,11.075h0c11.088,0,20.716-6.559,25.204-15.987c5.089,6.913,13.277,11.422,22.469,11.422h0
	c0.888,0,1.765-0.047,2.632-0.129c4.302,2.719,9.385,4.302,14.823,4.302h0c6.606,0,12.692-2.332,17.484-6.207
	c3.221,1.307,6.734,2.034,10.41,2.034h0c15.342,0,27.894-12.552,27.894-27.894v0C188.877,71.76,185.671,64.726,180.524,59.658z"/>
</svg>
