<?xml version="1.0" encoding="utf-8"?>
<!-- Generator: Adobe Illustrator 17.0.0, SVG Export Plug-In . SVG Version: 6.00 Build 0)  -->
<!DOCTYPE svg PUBLIC "-//W3C//DTD SVG 1.1//EN" "http://www.w3.org/Graphics/SVG/1.1/DTD/svg11.dtd">
<svg version="1.1" id="Layer_1" xmlns="http://www.w3.org/2000/svg" xmlns:xlink="http://www.w3.org/1999/xlink" x="0px" y="0px"
	 width="725.438px" height="544.783px" viewBox="0 0 725.438 544.783" enable-background="new 0 0 725.438 544.783"
	 xml:space="preserve">
<g>
	<path fill="#D8D9D8" d="M583.47,129.644H111.25c-0.292,0-0.372-0.425-0.099-0.533l2.073-0.719l3.232-1.2h-3.276
		c-0.151,0-0.924,1.3-0.924,1.451l-2.452,28.582c0,0.113,0.092,0.214,0.2,0.252c24.382,8.526,49.866,12.788,75.336,12.788
		c27.265,0,54.539-4.886,80.467-14.655c0.122-0.047,0.259,0,0.329,0.108c0.146,0.245,0.294,0.489,0.44,0.734
		c0.104,0.17,0.354,0.17,0.458,0c0.151-0.245,0.297-0.49,0.443-0.735c0.066-0.108,0.203-0.155,0.325-0.108
		c25.927,9.77,53.193,14.655,80.458,14.655c26.691,0,53.372-4.678,78.809-14.038l0.137-0.118l0.236-0.387
		c0.066-0.113,0.203-0.16,0.325-0.113c0.127,0.047,0.254,0.094,0.381,0.141h0.188c0.132-0.047,0.259-0.094,0.386-0.141
		c0.122-0.047,0.259,0,0.325,0.113l0.235,0.387l0.137,0.118c25.438,9.36,52.119,14.038,78.804,14.038
		c25.367,0,50.724-4.226,75.012-12.681l0.239-0.095c0.089-0.038,0.145-0.108,0.145-0.207v-1.267l0.077-26.101
		C583.671,129.794,583.597,129.644,583.47,129.644z M583.096,381.942c-0.061-0.123-0.031-0.371-0.125-0.371H131.902l-0.203,0.305
		l-21.481,25.99c-0.146,0.17-0.009,0.385,0.217,0.389l20.491,0.286h0.038l365.886,6.269l86.407,1.7h-0.248v-34.258L583.096,381.942z
		"/>
	<polygon fill="#EAEAEA" points="582.439,414.691 109.046,414.691 110.272,128.34 582.439,128.34 	"/>
	<polygon fill="#C0BFBF" points="699.394,457.627 699.394,543.973 1.134,543.973 1.106,541.283 0.427,471.34 52.645,471.34 
		54.199,471.307 68.388,471.005 81.988,470.718 96.176,470.416 101.947,470.294 123.964,469.827 129.73,469.705 151.748,469.239 
		157.518,469.116 179.536,468.65 185.306,468.528 207.324,468.061 213.094,467.939 235.112,467.472 240.883,467.35 262.9,466.884 
		268.666,466.761 290.684,466.295 296.454,466.172 318.472,465.706 324.242,465.583 346.26,465.112 352.03,464.99 374.048,464.523 
		379.814,464.401 401.836,463.934 407.602,463.812 429.62,463.346 435.39,463.223 457.408,462.757 463.178,462.635 485.196,462.168 
		490.966,462.046 512.984,461.579 518.75,461.457 540.767,460.99 546.538,460.868 568.556,460.402 574.326,460.279 596.344,459.813 
		602.114,459.69 624.132,459.224 629.902,459.101 641.745,458.847 644.44,458.791 651.92,458.635 654.351,458.583 654.506,458.578 
		657.686,458.512 679.703,458.046 685.474,457.924 	"/>
	<path fill="#D8D9D8" d="M225.277,249.287h-42.844c-9.634,0-17.445-7.811-17.445-17.445V114.121c0-9.635,7.81-17.445,17.445-17.445
		h42.844c9.634,0,17.445,7.81,17.445,17.445v117.721C242.722,241.476,234.912,249.287,225.277,249.287z"/>
	<path fill="#D8D9D8" d="M505.402,249.287h-42.844c-9.635,0-17.445-7.811-17.445-17.445V114.121c0-9.635,7.81-17.445,17.445-17.445
		h42.844c9.634,0,17.445,7.81,17.445,17.445v117.721C522.847,241.476,515.036,249.287,505.402,249.287z"/>
	<rect x="49.776" y="426.735" fill="#3D3D3C" width="594.664" height="57.748"/>
	<path fill="#D8D9D8" d="M302.011,215.377L302.011,215.377c-4.423,0-8.008-3.585-8.008-8.008v-68.775
		c0-4.423,3.585-8.008,8.008-8.008c4.423,0,8.008,3.585,8.008,8.008v68.775C310.019,211.792,306.433,215.377,302.011,215.377z"/>
	<path fill="#D8D9D8" d="M409.138,214.906L409.138,214.906c-4.423,0-8.008-3.585-8.008-8.008v-68.775
		c0-4.423,3.585-8.008,8.008-8.008c4.423,0,8.008,3.585,8.008,8.008v68.775C417.146,211.321,413.561,214.906,409.138,214.906z"/>
	<path fill="#ABABAB" d="M281.605,121.814c-24.448,19.206-50.606,29.12-75.816,32.08c-23.523,2.921-46.219-0.068-65.336-3.062
		c-1.351-0.208-2.682-0.414-3.996-0.618c-6.561,9.221-13.315,17.757-20.273,25.541c5.051,1.456,10.34,3.022,15.83,4.579
		c20.946,5.988,44.703,11.572,69.058,11.514c26.346,0.095,53.403-6.537,79.053-21.916c-4.086-2.341-8.111-4.837-12.07-7.475
		c4.834-12.619,9.553-25.456,14.164-38.457C282.014,123.27,281.809,122.543,281.605,121.814"/>
	<path fill="#ABABAB" d="M283.037,121.686c-0.272,0.773-0.546,1.543-0.819,2.314c-4.61,13-9.33,25.838-14.164,38.457
		c3.959,2.636,7.984,5.134,12.07,7.475c24.329,14.016,50.723,22.003,77.054,21.916c25.843,0.079,51.653-7.596,75.377-20.527
		c-4.827-2.757-9.609-5.806-14.337-9.15c3.618-12.75,7.116-25.265,10.485-37.48c-22.215,13.253-46.999,21.041-71.84,20.741
		C331.444,145.299,305.952,136.664,283.037,121.686 M430.25,123.762c-0.199,0.121-0.399,0.242-0.598,0.362
		c0.343,0.264,0.688,0.531,1.031,0.792C430.539,124.532,430.394,124.147,430.25,123.762"/>
	<path fill="#ABABAB" d="M429,123.617c-0.099,0.358-0.197,0.715-0.296,1.073c-3.369,12.214-6.867,24.73-10.485,37.48
		c4.728,3.343,9.51,6.393,14.337,9.15c25.395,14.601,52.047,20.617,77.904,20.527c24.325,0.057,47.957-5.188,68.591-10.08
		c-3.132-8.632-6.265-17.262-9.399-25.888c-18.686,1.356-41.179,3.591-64.632,0.31c-24.579-3.278-50.201-12.762-74.336-31.272
		c-0.344-0.263-0.688-0.527-1.031-0.792C429.435,123.956,429.216,123.787,429,123.617"/>
	<rect x="109.846" y="128.34" fill="#D8D9D8" width="41.919" height="292.211"/>
	<polygon fill="#535151" points="657.422,455.663 657.686,455.399 666.504,446.58 666.504,402.362 645.933,421.044 	"/>
	<polygon fill="#2D2C2C" points="101.945,409.05 666.505,402.36 642.085,427.021 87.353,427.021 	"/>
	<polygon fill="#C2C1C1" points="427.404,355.98 427.404,354.141 288.908,354.141 288.908,205.071 425.565,205.071 425.565,355.98 
		427.404,355.98 427.404,354.141 427.404,355.98 429.243,355.98 429.243,201.394 285.23,201.394 285.23,357.819 429.243,357.819 
		429.243,355.98 	"/>
	<path fill="#ABABAB" d="M294.003,325.002L294.003,325.002c-4.126,0-7.471-3.345-7.471-7.471V210.703
		c0-4.126,3.345-7.471,7.471-7.471h0c4.126,0,7.471,3.345,7.471,7.471v106.827C301.473,321.657,298.129,325.002,294.003,325.002z"/>
	<path fill="#ABABAB" d="M427.941,210.703L427.941,210.703c0,4.126-3.345,7.471-7.471,7.471H293.128
		c-4.126,0-7.471-3.345-7.471-7.471s3.345-7.471,7.471-7.471H420.47C424.596,203.233,427.941,206.577,427.941,210.703z"/>
	<path fill="#C2C1C1" d="M294.003,329.584L294.003,329.584c-4.126,0-7.471-3.345-7.471-7.471v-4.145
		c0-4.126,3.345-7.471,7.471-7.471c4.126,0,7.471,3.345,7.471,7.471v4.145C301.473,326.24,298.129,329.584,294.003,329.584z"/>
	<path fill="#ABABAB" d="M418.985,325.002L418.985,325.002c-4.126,0-7.471-3.345-7.471-7.471V210.703
		c0-4.126,3.345-7.471,7.471-7.471c4.126,0,7.471,3.345,7.471,7.471v106.827C426.456,321.657,423.111,325.002,418.985,325.002z"/>
	<path fill="#C2C1C1" d="M418.985,329.584L418.985,329.584c-4.126,0-7.471-3.345-7.471-7.471v-4.145
		c0-4.126,3.345-7.471,7.471-7.471c4.126,0,7.471,3.345,7.471,7.471v4.145C426.456,326.24,423.111,329.584,418.985,329.584z"/>
	<rect x="541.737" y="127.112" fill="#D8D9D8" width="41.919" height="288.807"/>
	<g>
		<path fill="#EAEAEA" d="M76.056,533.341c-0.062,0.05-0.128,0.093-0.19,0.141C78.744,535.68,82.328,537,86.229,537
			c5.894,0,11.091-2.981,14.168-7.518c-1.856-2.736-2.942-6.037-2.942-9.592V419.623l-14.468-0.015v98.742
			C82.988,524.492,80.264,529.943,76.056,533.341z"/>
		<path fill="#EAEAEA" d="M100.398,529.483c3.077,4.536,8.274,7.518,14.168,7.518h0c5.894,0,11.091-2.981,14.168-7.518
			c-1.856-2.736-2.942-6.037-2.942-9.592V419.652l-28.337-0.029V519.89C97.456,523.446,98.542,526.747,100.398,529.483z"/>
		<path fill="#EAEAEA" d="M128.735,529.483c3.077,4.536,8.274,7.518,14.168,7.518h0c5.894,0,11.091-2.981,14.168-7.518
			c-1.856-2.736-2.942-6.037-2.942-9.592v-100.21l-28.337-0.029V519.89C125.793,523.446,126.879,526.747,128.735,529.483z"/>
		<path fill="#EAEAEA" d="M157.071,529.483c3.077,4.536,8.274,7.518,14.168,7.518s11.091-2.981,14.168-7.518
			c-1.856-2.736-2.942-6.037-2.942-9.592V419.709l-28.337-0.029v100.21C154.13,523.446,155.215,526.747,157.071,529.483z"/>
		<path fill="#EAEAEA" d="M185.408,529.483c3.077,4.536,8.274,7.518,14.168,7.518h0c5.894,0,11.091-2.981,14.168-7.518
			c-1.856-2.736-2.942-6.037-2.942-9.592V419.738l-28.337-0.029V519.89C182.466,523.446,183.552,526.747,185.408,529.483z"/>
		<path fill="#EAEAEA" d="M213.745,529.483c3.077,4.536,8.274,7.518,14.168,7.518h0c5.894,0,11.091-2.981,14.168-7.518
			c-1.856-2.736-2.942-6.037-2.942-9.592V419.767l-28.337-0.029V519.89C210.803,523.446,211.889,526.747,213.745,529.483z"/>
		<path fill="#EAEAEA" d="M242.082,529.483c3.077,4.536,8.274,7.518,14.168,7.518h0c5.894,0,11.091-2.981,14.168-7.518
			c-1.856-2.736-2.942-6.037-2.942-9.592V419.796l-28.337-0.029V519.89C239.14,523.446,240.226,526.747,242.082,529.483z"/>
		<path fill="#EAEAEA" d="M270.418,529.483c3.077,4.536,8.274,7.518,14.168,7.518c5.894,0,11.091-2.981,14.168-7.518
			c-1.856-2.736-2.942-6.037-2.942-9.592V419.825l-28.337-0.029V519.89C267.477,523.446,268.562,526.747,270.418,529.483z"/>
		<path fill="#EAEAEA" d="M298.755,529.483c3.077,4.536,8.274,7.518,14.168,7.518s11.091-2.981,14.168-7.518
			c-1.856-2.736-2.942-6.037-2.942-9.592V419.853l-28.337-0.029V519.89C295.813,523.446,296.899,526.747,298.755,529.483z"/>
		<path fill="#EAEAEA" d="M327.092,529.483c3.077,4.536,8.274,7.518,14.168,7.518h0c5.894,0,11.091-2.981,14.168-7.518
			c-1.856-2.736-2.942-6.037-2.942-9.592V419.882l-28.337-0.029V519.89C324.15,523.446,325.236,526.747,327.092,529.483z"/>
		<path fill="#EAEAEA" d="M355.429,529.483c3.077,4.536,8.274,7.518,14.168,7.518s11.091-2.981,14.168-7.518
			c-1.856-2.736-2.942-6.037-2.942-9.592v-99.979l-28.337-0.029V519.89C352.487,523.446,353.573,526.747,355.429,529.483z"/>
		<path fill="#EAEAEA" d="M383.765,529.483c3.077,4.536,8.274,7.518,14.168,7.518c5.894,0,11.091-2.981,14.168-7.518
			c-1.856-2.736-2.942-6.037-2.942-9.592V419.94l-28.337-0.029v99.979C380.824,523.446,381.909,526.747,383.765,529.483z"/>
		<path fill="#EAEAEA" d="M412.102,529.483c3.077,4.536,8.274,7.518,14.168,7.518c5.894,0,11.091-2.982,14.168-7.518
			c-1.856-2.736-2.942-6.037-2.942-9.592v-99.922l-28.337-0.029v99.951C409.16,523.446,410.246,526.747,412.102,529.483z"/>
		<path fill="#EAEAEA" d="M440.439,529.483c3.077,4.536,8.274,7.518,14.168,7.518h0c5.894,0,11.091-2.981,14.168-7.518
			c-1.856-2.736-2.942-6.037-2.942-9.592v-99.893l-28.337-0.029v99.922C437.497,523.446,438.583,526.747,440.439,529.483z"/>
		<path fill="#EAEAEA" d="M468.776,529.483c3.077,4.536,8.274,7.518,14.168,7.518c5.894,0,11.091-2.981,14.168-7.518
			c-1.856-2.736-2.942-6.037-2.942-9.592v-99.864l-28.337-0.029v99.893C465.834,523.446,466.92,526.747,468.776,529.483z"/>
		<path fill="#EAEAEA" d="M497.112,529.483c3.077,4.536,8.274,7.518,14.168,7.518c5.894,0,11.091-2.981,14.168-7.518
			c-1.856-2.736-2.942-6.037-2.942-9.592v-99.836l-28.337-0.029v99.864C494.171,523.446,495.256,526.747,497.112,529.483z"/>
		<path fill="#EAEAEA" d="M525.449,529.483c3.077,4.536,8.274,7.518,14.168,7.518h0c5.894,0,11.091-2.981,14.168-7.518
			c-1.856-2.736-2.942-6.037-2.942-9.592v-99.807l-28.337-0.029v99.836C522.507,523.446,523.593,526.747,525.449,529.483z"/>
		<path fill="#EAEAEA" d="M553.786,529.483c3.077,4.536,8.274,7.518,14.168,7.518c5.894,0,11.091-2.981,14.168-7.518
			c-1.856-2.736-2.942-6.037-2.942-9.592v-99.778l-28.337-0.029v99.807C550.844,523.446,551.93,526.747,553.786,529.483z"/>
		<path fill="#EAEAEA" d="M582.123,529.483c3.077,4.536,8.274,7.518,14.168,7.518c5.894,0,11.091-2.981,14.168-7.518
			c-1.856-2.736-2.942-6.037-2.942-9.592v-99.749l-28.337-0.029v99.778C579.181,523.446,580.267,526.747,582.123,529.483z"/>
		<path fill="#EAEAEA" d="M610.459,529.483c3.077,4.536,8.274,7.518,14.168,7.518h0c6.042,0,11.341-3.14,14.385-7.868
			c-0.07-0.108-0.145-0.211-0.213-0.321c-1.859-2.984-2.945-6.586-2.945-10.461v-98.18l-28.338-0.029v99.749
			C607.518,523.446,608.603,526.747,610.459,529.483z"/>
		<path fill="#EAEAEA" d="M638.8,528.811c0.068,0.109,0.143,0.213,0.213,0.321c3.097,4.759,8.19,7.868,13.954,7.868
			c5.894,0,11.087-3.246,14.167-8.189c-1.859-2.984-2.94-6.586-2.94-10.461v-38.283l-21.276-0.035l-0.252-59.856l-6.81-0.007v98.18
			C635.855,522.225,636.941,525.827,638.8,528.811z"/>
		<path fill="#EAEAEA" d="M667.133,528.811c3.079,4.943,8.272,8.189,14.167,8.189s11.092-3.246,14.171-8.189
			c1.854-2.984,2.94-6.586,2.94-10.461v-38.227l-34.218-0.056v38.283C664.193,522.225,665.274,525.827,667.133,528.811z"/>
		<path fill="#EAEAEA" d="M20.432,468.989l-20.005,8.359L0,477.54l0.506,56.874c2.551,1.644,5.524,2.586,8.7,2.586
			c5.894,0,11.092-3.246,14.171-8.189c-1.859-2.984-2.945-6.586-2.945-10.461V468.989z"/>
		<path fill="#EAEAEA" d="M20.432,518.35c0,3.875,1.086,7.477,2.945,10.461c3.074,4.943,8.272,8.189,14.167,8.189
			c5.894,0,11.087-3.246,14.167-8.189c-1.854-2.984-2.94-6.586-2.94-10.461v-81.244l-0.95,0.371v20.068l-27.388,11.444V518.35z"/>
		<path fill="#EAEAEA" d="M51.71,528.811c3.079,4.943,8.272,8.189,14.166,8.189c3.732,0,7.179-1.31,9.989-3.518
			c0.062-0.049,0.128-0.092,0.19-0.141c4.208-3.398,6.932-8.849,6.932-14.99v-98.742l-34.218-0.035v17.533v81.244
			C48.77,522.225,49.856,525.827,51.71,528.811z"/>
	</g>
	<polygon fill="#D8D9D8" points="108.798,128.953 346.545,6.074 582.687,129.432 	"/>
	<polygon fill="#EAEAEA" points="172.036,112.277 347.382,21.65 521.545,112.63 	"/>
	<polygon fill="#ABABAB" points="725.438,508.43 699.024,543.779 699.326,474.051 707.423,466.052 713.194,460.352 725.438,448.26 	
		"/>
	<path fill="#ABABAB" d="M581.988,128.293l26.451-16.532L370.681,0l-23.088,5.461c0,0,109.657,59.698,116.195,63.988
		C470.327,73.74,581.988,128.293,581.988,128.293z"/>
	<polygon fill="#C2C1C1" points="48.55,453.868 48.862,471.34 48.843,471.693 48.434,471.688 1.04,471.552 48.434,453.736 	"/>
	<polygon fill="#ABABAB" points="666.621,448.26 642.917,473.969 643.278,420.116 666.213,402.225 	"/>
	<path fill="#ABABAB" d="M608.439,111.76c0,0-26.961,15.416-26.962,15.715l1.152,296.754c-0.001,0.803,0.969,1.205,1.536,0.638
		l22.859-16.729c0.168-0.168,0.263-0.396,0.264-0.635l0.333-183.979L608.439,111.76z"/>
	<path fill="#C2C1C1" d="M65.622,440.596c59.761,16.184,122.756,16.184,182.517,0c3.39-0.917,6.917,0.97,7.893,4.288
		c0.582,2.001,1.163,4.004,1.745,6.005c0.976,3.317-1.134,6.858-4.73,7.831c-62.975,17.055-129.358,17.054-192.333,0
		c-3.596-0.972-5.706-4.514-4.73-7.831c0.582-2.001,1.163-4.004,1.745-6.005C58.705,441.566,62.232,439.679,65.622,440.596z"/>
	<path fill="#C2C1C1" d="M254.981,440.596c59.761,16.184,122.756,16.184,182.517,0c3.39-0.917,6.917,0.97,7.893,4.288
		c0.582,2.001,1.163,4.004,1.745,6.005c0.976,3.317-1.135,6.858-4.73,7.831c-62.975,17.055-129.358,17.054-192.333,0
		c-3.596-0.972-5.706-4.514-4.73-7.831c0.582-2.001,1.163-4.004,1.745-6.005C248.064,441.566,251.592,439.679,254.981,440.596z"/>
	<path fill="#C2C1C1" d="M443.345,440.596c59.761,16.184,122.756,16.184,182.517,0c3.39-0.917,6.917,0.97,7.893,4.288
		c0.582,2.001,1.163,4.004,1.745,6.005c0.976,3.317-1.134,6.858-4.73,7.831c-62.975,17.055-129.358,17.054-192.333,0
		c-3.596-0.972-5.706-4.514-4.73-7.831c0.582-2.001,1.163-4.004,1.745-6.005C436.428,441.566,439.955,439.679,443.345,440.596z"/>
	<polygon fill="#C2C1C1" points="666.621,448.26 725.438,448.26 699.326,474.051 642.917,473.969 	"/>
	<polygon fill="#C2C1C1" points="48.434,420.185 643.278,420.116 666.213,402.225 91.415,402.921 	"/>
	<path fill="#ABABAB" d="M353.059,298.109c0,0.211,0.231,0.064,0.822-0.051c0.366-0.04,0.353-0.123,0.333-0.237
		c-0.02-0.116-0.088-0.083-0.251-0.083c-0.162,0-0.305,0.096-0.591,0.153c-0.142,0-0.115-0.417-0.115-0.608
		c0-0.193,0.237-0.226,0.502-0.244c0.143,0,0.191-0.007,0.191-0.16c0-0.155-0.191-0.104-0.516-0.046
		c-0.265,0.02-0.218-0.127-0.218-0.127s-0.02-0.212-0.02-0.405s0.136-0.206,0.625-0.302c0.245,0,0.354,0.032,0.354-0.159
		c0-0.194-0.231-0.084-0.231-0.084s-0.347,0.058-0.774,0.136c-0.306,0.019-0.273,0.295-0.273,0.295S352.978,297.241,353.059,298.109
		 M355.171,295.883c0,0,0.034-0.148,0.319-0.109c0.205,0.075,0.496,0.217,0.516,0.738c0.021,0.268-0.169,0.641-0.454,0.833
		c-0.286,0.173-0.34,0.128-0.34-0.025C355.151,296.319,355.171,295.883,355.171,295.883 M354.92,297.704
		c0,0.249,0.143,0.191,0.611,0.039c0.732-0.411,0.774-0.963,0.753-1.291c-0.061-0.827-0.632-0.948-1.08-0.929
		c-0.448-0.019-0.353,0.217-0.353,0.217S354.941,297.358,354.92,297.704 M363.599,297.415c0.102-0.308,0.244-1.077,0.244-1.211
		c0,0,0.061-0.193,0.286-0.136c0.224,0.058,0.489,0.5,0.346,0.887c-0.142,0.481-0.223,0.789-0.753,0.769
		C363.558,297.685,363.558,297.628,363.599,297.415 M363.783,297.994c0.753-0.098,0.875-0.54,0.957-0.868
		c0.122-1.097-0.529-1.288-0.836-1.386c-0.162-0.096-0.244,0.078-0.244,0.078s-0.305,1.231-0.448,1.982
		C363.171,298.032,363.375,298.012,363.783,297.994 M361.643,296.395c0.143-0.384,0.183-0.5,0.183-0.5s0.143-0.173,0.163,0.039
		c0.041,0.365,0.162,0.827-0.244,0.711C361.745,296.645,361.521,296.664,361.643,296.395 M361.032,297.647
		c0.123,0.02,0.163-0.116,0.163-0.116s0.082-0.21,0.183-0.481c0.101-0.192,0.286-0.115,0.529-0.077
		c0.244,0.039,0.224,0.288,0.224,0.596c0,0.193,0.075,0.231,0.218,0.231c0.142,0,0.142,0,0.142-0.172
		c0-0.174-0.17-1.541-0.251-1.964c-0.123-0.306-0.475-0.306-0.557-0.095c-0.245,0.422-0.571,1.367-0.774,1.809
		C360.808,297.569,360.91,297.628,361.032,297.647 M351.158,296.684c0.02-0.172,0.116-0.245,0.318-0.129
		c0.204,0.116,0.543,0.398,0.523,0.822c-0.061,0.423-0.393,0.961-0.781,0.731C351.219,298.109,351.138,296.857,351.158,296.684
		 M351.253,298.538c0.205,0,0.497-0.142,0.598-0.257c0.326-0.287,0.367-0.634,0.387-0.942c0.041-0.772-0.475-0.931-0.781-1.046
		c-0.55-0.134-0.537,0.159-0.537,0.159s0,1.27,0.02,1.829C350.94,298.512,351.09,298.538,351.253,298.538 M342.574,298.749
		c0.122,0.019,0.095-0.006,0.095-0.199c0-0.192-0.048-0.481-0.048-0.674c0-0.192,0.217-0.185,0.217-0.185h0.285
		c0.143,0,0.109-0.007,0.109-0.083c0-0.174-0.231-0.142-0.516-0.161c-0.204,0-0.136-0.283-0.136-0.494
		c0-0.213,0.217-0.148,0.217-0.148s0,0.058,0.509,0.058c0.286,0,0.102-0.186-0.041-0.205c-0.143-0.02-0.468-0.097-0.713-0.114
		c-0.244-0.021-0.272,0.005-0.272,0.236c0,0.231,0.122,1.829,0.122,1.829S342.452,298.73,342.574,298.749 M348.747,298.865
		c0.163-0.038,0.109-0.193,0.109-0.193s-0.061-1.039-0.061-1.193c0-0.153,0.169-0.019,0.169-0.019s0.393,0.597,0.883,1.193
		c0.183,0.154,0.231-0.044,0.231-0.238c0-0.191-0.116-1.501-0.116-1.654s-0.012-0.238-0.155-0.238c-0.143,0-0.109,0.026-0.109,0.181
		c0,0.153,0.041,0.538,0.062,1.077c0.027,0.321-0.176,0.115-0.176,0.115s-0.53-0.68-0.774-1.065
		c-0.184-0.25-0.347-0.153-0.366-0.038c-0.021,0.116,0.06,0.899,0.101,1.919C348.544,298.943,348.747,298.865,348.747,298.865
		 M371.85,297.685c-0.183,0-0.136,0.135-0.136,0.135s0,1.135-0.02,1.791c0,0.21,0.095,0.21,0.237,0.229
		c0.143,0.019,0.123-0.27,0.123-0.27s0.02-1.02,0.02-1.617C372.176,297.609,371.85,297.685,371.85,297.685 M344.693,296.998
		c0,0,0.462-0.044,0.462,0.878c0,0.443-0.157,0.803-0.422,0.803c-0.265,0-0.455-0.341-0.455-0.726
		C344.279,297.569,344.326,297.133,344.693,296.998 M344.754,298.943c0.571,0,0.659-0.566,0.72-1.066
		c0.061-1.116-0.802-1.123-0.802-1.123c-0.529,0.097-0.678,0.566-0.699,1.027C343.974,298.704,344.347,298.904,344.754,298.943
		 M347.402,298.828c0.448-0.136,0.333-0.875,0.292-1.644c0-0.462-0.19-0.486-0.19-0.486c-0.224,0.076-0.129,0.256-0.129,0.256
		s0.041,0.328,0.041,0.942c0.041,0.232,0.041,0.52-0.123,0.674c-0.305,0.192-0.393,0.116-0.577-0.115s-0.183-0.886-0.163-1.329
		c0.041-0.346-0.109-0.333-0.21-0.333c-0.102,0-0.069,0.064-0.109,0.218c-0.041,0.154,0,0.865,0.082,1.482
		C346.52,299.051,347.117,299.057,347.402,298.828 M373.418,299.435c-0.142,0-0.326-0.076-0.366-0.385
		c-0.021-0.21,0.081-0.308,0.244-0.347c0,0,0.454-0.153,0.435,0.405C373.71,299.379,373.561,299.435,373.418,299.435
		 M373.357,297.762c0.183,0,0.244,0.115,0.244,0.25s0.02,0.212-0.244,0.308c0,0-0.266,0.039-0.266-0.23
		C373.092,297.82,373.174,297.762,373.357,297.762 M373.847,298.262c0.224-0.674-0.286-0.712-0.286-0.712
		c-0.143-0.096-0.285-0.115-0.428-0.038c-0.387,0.231-0.398,0.702-0.265,0.827c0.061,0.058,0.041,0.174,0.02,0.29
		c-0.143,0.115-0.149,0.249-0.149,0.538c0,0.521,0.515,0.578,0.659,0.578c0.142,0,0.366-0.077,0.467-0.153
		c0.347-0.25,0.205-0.75,0.041-0.981C373.907,298.609,373.745,298.475,373.847,298.262 M357.134,283.95
		c0.299,0,0.299,0.051,0.299,0.23c0,0.181-0.19,0.155-0.435,0.155C356.998,284.335,356.835,283.95,357.134,283.95 M356.998,285.515
		c0,0-0.027-0.051,0-0.513c0.027-0.436,0.245-0.154,0.761,0.488c0.108,0.23,0.244,0.077,0.435,0.05
		c0.19-0.23-0.109-0.359-0.299-0.667c0-0.128-0.244-0.206-0.082-0.282c0.163-0.078,0.191-0.256,0.191-0.412
		c0-0.614-0.815-0.589-1.141-0.589c-0.326,0-0.462,0.05-0.462,0.308c0,0.257,0.054,1.668,0.054,1.668
		C356.917,285.951,356.998,285.515,356.998,285.515 M357.134,282.025c0-0.308-0.163-0.257-0.814-0.18
		c-0.191,0-0.191-0.231-0.191-0.231s-0.027-0.717-0.027-1.026c0-0.308-0.326-0.18-0.326-0.18c-0.217,0-0.271,0.103-0.271,0.282
		c0,0.18,0,0.795,0.081,1.488c0,0.258,0.19,0.18,0.354,0.18c0.162,0,0.625-0.102,0.924-0.102
		C357.161,282.256,357.134,282.205,357.134,282.025 M355.695,288.005c-0.055-0.438-0.082-0.513-0.381-0.513
		c-0.298,0-0.244,0.154-0.244,0.384s0.081,1.489,0.081,1.489c0.027,0.102,0.109,0.077,0.435,0.077c0.326,0,0.163-0.309,0.163-0.309
		S355.749,288.441,355.695,288.005 M355.613,285.643c0-0.36-0.353-0.257-0.707-0.205c0,0-0.326,0.102-0.326-0.079
		c0-0.179,0.108-0.28,0.298-0.28c0.191,0,0.326-0.181,0.326-0.206c0-0.18-0.217-0.18-0.326-0.18c-0.109,0-0.244,0.077-0.244-0.127
		c0-0.308,0.408-0.257,0.625-0.257c0.217,0,0.272-0.129,0.272-0.283s-0.163-0.18-0.326-0.18c-0.163,0-0.625,0.052-0.896,0.103
		c-0.272,0.051-0.326,0.179-0.326,0.333s0.055,1.438,0.055,1.438c-0.055,0.308,0.272,0.282,0.272,0.282s0.272,0,0.869-0.078
		C355.532,285.875,355.613,285.823,355.613,285.643 M354.119,287.696c-0.272-0.05-0.326,0-0.597,0.822
		c-0.163,0.512-0.381,0.025-0.381,0.025l-0.298-0.385c-0.055-0.18-0.081-0.231-0.353-0.103c-0.272,0.129-0.136,0.282-0.136,0.282
		s0.298,0.437,0.787,1.206c0.109,0.231,0.163,0.18,0.435,0.18c0.272,0,0.326-0.257,0.326-0.461c0,0,0.136-0.487,0.326-1.181
		C354.282,287.876,354.254,287.748,354.119,287.696 M359.416,288.106c0,0.206,0.027,1.104,0.027,1.104s0.136,0.103,0.272,0.103
		s0.299,0.026,0.272-0.128c-0.027-0.154,0-0.796-0.027-1.053c-0.026-0.256,0.19-0.256,0.408-0.256c0.217,0,0.217-0.024,0.272-0.23
		c0.055-0.282-0.272-0.232-0.272-0.232s-0.924-0.025-1.25-0.025c-0.326,0-0.461,0.078-0.461,0.205c0,0.128,0.109,0.283,0.408,0.309
		C359.361,287.851,359.416,287.902,359.416,288.106 M359.687,268.297c0,0,0.924-0.154,0.707,0.359
		c-0.245,0.309-0.435,0.359-0.625,0.309C359.579,268.912,358.9,268.656,359.687,268.297 M359.158,268.72
		c0.061,0.308,0.366,0.417,0.876,0.475c0.428,0,0.502-0.341,0.604-0.859c0.061-0.405-0.237-0.417-0.237-0.417l-0.632-0.033
		c-0.774,0-0.632,0.257-0.632,0.257S359.097,268.411,359.158,268.72 M357.677,268.232c0.218,0,0.604,0.039,0.577,0.296
		c-0.027,0.257-0.19,0.43-0.597,0.43c0,0-0.503-0.147-0.503-0.405C357.154,268.297,357.595,268.232,357.677,268.232
		 M357.834,269.169c0.693,0,0.638-0.546,0.638-0.989c0-0.327-0.393-0.321-0.393-0.321l-0.958,0.007
		c-0.305,0.019-0.272,0.391-0.109,0.815C357.236,269.163,357.426,269.131,357.834,269.169 M359.226,285.617
		c0.298,0,0.272-0.308,0.272-0.308s-0.027-0.949-0.027-1.411c0.054-0.437-0.299-0.333-0.299-0.333c-0.462,0-0.299,0.281-0.299,0.281
		s0.027,0.206-0.027,1.361C358.845,285.617,359.117,285.592,359.226,285.617 M357.46,288.184c-0.136,0-0.353-0.079-0.353-0.079
		v-0.332c0,0,0.136-0.052,0.298-0.052c0.164,0,0.326,0.052,0.326,0.206C357.732,288.081,357.595,288.184,357.46,288.184
		 M358.139,288.62c-0.136-0.206-0.136-0.206-0.055-0.385c0.109-0.154,0.082-0.231,0.055-0.437c-0.217-0.54-0.679-0.385-1.114-0.385
		c-0.435,0-0.435,0.103-0.435,0.282c0,0.18,0.109,1.566,0.109,1.566s-0.026,0.128,0.272,0.128c0.299,0,0.191-0.205,0.191-0.205
		s0.027-0.052,0-0.438c0.191-0.358,0.354-0.153,0.815,0.412c0.136,0.18,0.272,0.18,0.408,0.078c0.136-0.104,0.027-0.206,0.027-0.206
		S358.356,288.903,358.139,288.62 M359.063,282.178c0.19,0,0.217-0.026,0.408-0.487c0,0,0.352-0.744,0.543-1.206
		c0.081-0.154,0.081-0.206-0.218-0.257c-0.298-0.051-0.353,0.18-0.353,0.18s-0.109,0.18-0.298,0.693
		c-0.273,0.359-0.354-0.026-0.354-0.026l-0.326-0.693c0-0.153-0.026-0.153-0.353-0.128c-0.326,0.026-0.19,0.257-0.19,0.257
		s0.217,0.564,0.678,1.488C358.683,282.153,358.872,282.178,359.063,282.178 M392.976,288.582c-0.184,0.761-0.313,1.63-0.591,2.595
		c-1.016,3.519-3.022,8.291-7.884,13.61c-1.362,1.257-5.9,6.231-14.705,8.883c-2.255,0.68-4.79,1.243-7.623,1.508
		c-0.978,0.039-11.531,1.349-21.962-5.35c-2.811-1.809-9.942-6.62-13.202-15.358c-0.733-1.77-4.034-8.853-1.549-18.244
		c0.49-1.887,2.043-9.008,9.417-16.013c1.304-1.194,8.96-8.776,23.465-9.238c0,0,10.227-0.809,19.72,5.312
		c1.956,1.193,7.742,4.465,12.59,13.857C391.061,270.952,394.809,278.535,392.976,288.582 M393.424,274.994
		c-2.69-9.854-10.023-16.051-11.042-16.86c-10.839-8.699-23.062-8.044-23.062-8.044c-13.527-0.077-22.41,7.102-23.754,8.219
		c-7.015,6.083-9.769,12.798-10.928,17.454c-0.724,2.916-0.891,4.993-0.969,5.66c-0.652,7.775,2.73,14.473,4.564,17.744
		c3.992,6.852,10.675,11.086,11.449,11.626c5.156,2.911,9.513,4.254,12.757,4.911c3.064,0.621,5.134,0.63,5.945,0.63
		c3.097-0.01,5.794-0.247,8.095-0.677c2.778-0.52,4.978-1.293,6.605-1.944c2.027-0.808,3.167-1.495,3.431-1.651
		c11.368-6.369,14.994-15.896,15.483-16.974c0.497-1.231,0.962-2.431,1.289-3.594c0.495-1.761,0.774-3.437,0.954-5.003
		C394.859,281.108,393.946,276.992,393.424,274.994 M386.553,274.173c0.054,0.436-0.313,0.642-0.557,0.642
		c-0.244,0-0.557-0.231-0.72-0.642c-0.108-0.564-0.108-0.719,0.162-1.231c0.381-0.397-0.108-0.385-0.108-0.385l-0.408,0.179
		c-0.298,0.232-0.217,0.411-0.162,0.719c0.109,0.206,0.081,0.796,0.434,1.361c0.598,0.821,1.359,0.654,1.821,0.36
		c0.679-0.36,0.461-1.438,0.434-2.029c-0.026-0.538,0.245-0.718,0.353-0.77c0.436-0.026,0.734,0.514,0.816,1.001
		c0.081,0.308-0.027,0.615-0.217,0.847c-0.381,0.359-0.069,0.513,0.488,0.231c0.354-0.051,0.163-0.334,0.027-0.54
		c0,0,0.068-0.653-0.217-1.258c-0.138-0.583-0.437-0.764-0.722-0.843c-0.216-0.061-0.426-0.08-0.554-0.08
		C386.281,272.069,386.416,273.198,386.553,274.173 M389.405,277.637c-0.38,0.025-0.312,0.231-0.055,0.294
		c0.299,0.052,0.516,0.193,0.543,0.629c0.026,0.437-0.299,0.411-0.299,0.411l-2.662,0.436c-0.244-0.025-0.217-0.206-0.217-0.206
		c-0.434-0.359-0.38,0.129-0.38,0.129s0.081,0.384,0.191,1.103c0,0.488,0.244,0.333,0.38,0.052c0-0.154,0.326-0.257,0.326-0.257
		s1.739-0.257,2.391-0.36c0.272,0,0.408-0.05,0.489,0.257c0.055,0.308-0.027,0.36-0.353,0.744c-0.217,0.385,0.081,0.358,0.625,0.205
		c0.136-0.052,0.191-0.102,0.191-0.308c0-0.205-0.217-1.95-0.408-2.925C390.11,277.432,389.893,277.535,389.405,277.637
		 M386.362,276.675l-0.272-0.039c-0.394-0.462-0.407,0.129-0.407,0.129s0.136,0.179,0.298,1c0.027,0.308,0.3,0.257,0.354,0
		c0.054-0.255,0.353-0.243,0.353-0.243s1.658-0.5,2.391-0.681c0.163-0.051,0.38-0.205,0.597-0.025
		c0.3,0.309,0.354,0.025,0.326-0.231c-0.026-0.256-0.026-0.333-0.299-0.974c-0.272-0.642-0.298-0.09-0.461,0.09
		c-0.097,0.053-0.834,0.339-1.562,0.556C386.976,276.467,386.362,276.675,386.362,276.675 M387.717,294.735
		c-0.046-0.066-0.118-0.12-0.303-0.227c-0.219-0.119-0.43-0.195-0.647-0.2c-0.168-0.007-0.337,0.025-0.514,0.143
		c-0.368,0.193-0.938,0.79-1.264,0.712c-0.265-0.096-0.468-0.212-0.06-0.634c0.244-0.289,0.529-0.481,0.814-0.481
		c0.347-0.077,0.57-0.097,0.142-0.347c-0.427-0.251-0.59-0.328-0.509,0.096c-0.183,0.154-0.346,0.27-0.346,0.27
		s-0.958,0.655-0.611,1.501c0.142,0.231,0.367,0.48,0.876,0.327c0.305-0.115,0.529-0.25,0.795-0.482c0,0,0.174-0.11,0.393-0.237
		c0.22-0.128,0.483-0.271,0.666-0.184c0.142,0.115,0.427,0.558-0.02,0.943c-0.387,0.29-0.693,0.327-0.693,0.327
		c-0.347-0.019-0.561,0.153-0.214,0.347c0.346,0.191,0.621,0.423,0.662,0.038c0.02-0.27,0.223-0.404,0.366-0.461
		c0.347-0.271,0.632-0.54,0.55-1.136C387.781,294.885,387.763,294.803,387.717,294.735 M390.328,281.563l-0.109,0.244
		c0,0-0.191,0.161-1.114,0.771c-0.232,0.152-0.509,0.309-0.842,0.524h-1.141c-0.435-0.487-0.435,0.026-0.435,0.026
		s0,0.128,0.027,1.051c0,0.462,0.217,0.36,0.354,0.181c0.135-0.181,0.271-0.181,0.271-0.181s0.108-0.024,0.788-0.024
		c0.299,0,0.517,0.18,0.517,0.18l1.493,1.282c0.136,0.771,0.448,0.283,0.448,0.283s0.088-0.36,0.068-0.719
		c-0.014-0.244-0.108-0.282-0.325-0.154c-0.163,0.027-0.76-0.514-1.169-0.899c-0.298-0.255,0.082-0.538,0.082-0.538
		s0.543-0.385,1.005-0.719c0.489,0.077,0.38-0.18,0.38-0.18s0.017-0.214,0.01-0.487c-0.005-0.169-0.036-0.362-0.036-0.539
		C390.6,281.203,390.328,281.563,390.328,281.563 M352.625,286.182c0.217-0.642,0.326-1.155,0.461-1.694
		c0.082-0.153,0-0.256-0.272-0.23c-0.272,0.051-0.244,0.128-0.299,0.333c-0.054,0.205-0.109,0.59-0.109,0.59
		c-0.271,0.411-0.326,0.077-0.326,0.077s-0.273-0.41-0.38-0.616c-0.109-0.205-0.218-0.205-0.408-0.076
		c-0.19,0.127-0.109,0.333-0.109,0.333s0.299,0.514,0.842,1.411C352.163,286.567,352.462,286.439,352.625,286.182 M381.717,262.701
		c-0.055,0.129-0.218,0.232-0.218,0.232c-1.058,0.487-1.792,0.718-1.792,0.718s-0.353,0.103-0.272-0.23
		c0.381-1.231,0.652-1.976,0.652-1.976l0.163-0.153c0.272,0.025,0.354-0.205,0.055-0.334c-0.734-0.59-0.788-0.616-0.788-0.616
		s-0.326-0.18-0.273,0.18c0.055,0.256,0,0.308,0,0.308l-0.869,2.745c-0.217,0.462-0.299,0.616-0.081,0.847
		c0.244,0.232,0.516,0.167,0.869-0.012c1.006-0.411,2.717-1.142,2.717-1.142c0.407,0,0.869,0,0.515-0.333
		C381.989,262.548,381.799,262.292,381.717,262.701 M391.917,281.73c0,2.793,0.381,5.854-1.871,11.619
		c-0.448,1.146-1.039,2.399-1.714,3.777c-1.345,2.233-5.787,10.277-16.828,14.55c-2.079,0.655-5.46,2.348-13.814,2.271
		c-1.874-0.115-9.656-0.153-18.579-6.35c-1.752-1.193-8.231-5.891-11.408-15.358c-0.99-3.165-2.909-8.208-0.529-17.11
		c0.168-0.629,0.378-1.277,0.59-1.944c0.108-0.306,0.493-1.399,1.232-2.946c1.777-3.717,5.822-10.054,14.597-14.375
		c1.467-0.654,6.396-3.464,15.523-3.58c0,0,14.628-0.77,25.221,10.97C385.357,264.409,391.346,271.029,391.917,281.73
		 M381.079,259.636c-9.372-8.007-22.098-7.725-22.098-7.725c-7.493,0.239-13.112,2.331-16.945,4.397
		c-3.588,1.935-5.612,3.844-6.143,4.328c-7.987,7.198-9.209,14.589-9.82,17.36c-0.72,4.076-0.511,7.486,0.026,10.122
		c0.24,1.182,0.595,2.207,0.877,3.067c0.372,1.134,0.689,1.98,0.89,2.515c0.387,0.985,0.805,1.885,1.208,2.712
		c1.179,2.422,2.386,4.211,3.54,5.622c1.688,2.06,3.176,3.296,4.176,4.139c8.963,7.621,18.946,8.006,21.472,8.16
		c2.615-0.011,4.906-0.177,6.9-0.518c1.769-0.3,3.303-0.75,4.622-1.164c2.803-0.879,4.635-1.824,5.673-2.4
		c1.833-0.949,3.406-2.007,4.824-3.107c2.652-2.059,4.663-4.27,6.111-6.235c2.204-2.987,3.204-5.402,3.407-5.823
		c3.952-8.545,2.404-16.436,1.956-18.322C389.594,266.526,382.26,260.636,381.079,259.636 M380.305,265.845
		c-0.354-0.103-0.462,0.064-0.354,0.372c0.354,0.256,0.788,0.874,1.604,1.925c0.352,0.333,0.733,0.128,0.95,0.026
		c0.217-0.103,0.109-0.309-0.163-0.309s-0.407-0.025-0.407-0.025c-0.516-0.359-0.738-0.917-0.815-1.052
		c-0.19-0.282,0.136-0.462,0.136-0.462s0.462-0.359,0.707-0.487c0.19-0.128,0.272-0.078,0.516,0.102
		c0.272,0.36,0.326,0.437,0.326,0.437s-0.191,0.591,0.217,0.309l0.38-0.257c0.325-0.231,0.108-0.308-0.163-0.257
		c-0.19,0-0.38-0.231-0.597-0.565c-0.081-0.205,0.244-0.461,0.516-0.667c0.272-0.153,0.38-0.05,0.38-0.05l0.679,0.821
		c0.19,0.256,0.272,0.308,0.217,0.693c-0.109,0.461,0.136,0.283,0.435,0c0.217-0.282,0.027-0.462,0.027-0.462
		s-1.277-1.642-1.766-2.207c-0.325-0.282-0.543,0.437-0.543,0.437l-1.031,0.796L380.305,265.845z M384.868,268.733l0.815-0.463
		c0,0,0.325-0.23,0.571,0.18c0.38,0.769,0.733,1.18,0.081,1.514c-0.408,0.154-0.897,0.154-1.277-0.411
		C384.705,269.04,384.624,268.912,384.868,268.733 M382.831,269.784c0.353,0.385,0.38,0.18,0.353-0.051
		c-0.055-0.154,0.163-0.23,0.163-0.23s0.434-0.334,0.896-0.385c0.353,0.025,0.353,0.359,0.244,0.641
		c-0.082,0.129-0.191,0.411-0.598,1.129c-0.244,0.385-0.041,0.745,0.204,1.207c0.244,0.358,0.244,0.179,0.244-0.206
		c-0.08-0.488,0.394-1.052,0.611-1.412c0.082-0.205,0.272-0.128,0.707,0.181c0.625,0.23,0.707,0.102,1.059-0.181
		c0.543-0.385,0.38-1.026,0.38-1.026s-0.679-1.386-1.058-2.054c-0.299-0.615-0.475-0.5-0.504-0.012
		c0.028,0.154-2.675,1.526-2.675,1.526C382.124,268.63,382.342,268.938,382.831,269.784 M385.641,298.436
		c-0.223,0.019-0.346-0.04-0.509-0.155c-0.916-0.559-1.344-0.789-1.344-0.789c-0.163-0.134-0.489-0.289,0.081-0.653
		c0.183-0.175,0.53-0.231,0.53-0.231c0.122-0.096,0.143-0.155-0.082-0.251c-0.285-0.096-0.428-0.231-0.529-0.038
		c-0.326,0.5-1.365,2.001-1.365,2.001s-0.205,0.116-0.041,0.347c0.163,0.231,0.387,0.559,0.428,0.077c-0.02-0.328,0-0.347,0-0.347
		s0.204-0.538,0.347-0.462l1.691,1.059c0,0,0.183,0.155,0.183,0.309s0.183,0.229,0.244,0.038c0.469-0.75,0.53-0.828,0.53-0.828
		S385.927,298.224,385.641,298.436 M361.215,310.81c-0.468-0.192-0.774-0.384-0.774-0.384s-0.264-0.423,0.244-0.481
		c0.49-0.038,0.917,0.096,1.019,0.269c0.123,0.097,0.326,0.038,0.286-0.249c-0.041-0.29-0.163-0.328-0.286-0.251h-1.1
		c0,0-0.671-0.038-0.795,0.732c0,0.269,0.225,0.769,0.999,0.943c0.794,0.23,0.876,0.306,0.876,0.576c0,0.269-0.469,0.5-0.938,0.404
		c-0.57-0.23-0.693-0.327-0.693-0.327s-0.244-0.268-0.264,0.135c-0.02,0.403-0.02,0.673,0.387,0.442
		c0.162-0.059,0.468,0.02,0.671,0.02c0.53,0.134,1.406-0.096,1.426-0.886C362.295,310.985,361.643,311.004,361.215,310.81
		 M375.211,297.934c-0.123,0.078-0.449,0.098-0.449-0.212c0-0.192,0.082-0.308,0.225-0.308
		C374.987,297.415,375.497,297.281,375.211,297.934 M375.028,297.126c-0.244,0-0.55,0.213-0.55,0.541
		c0,0.327,0.082,0.423,0.326,0.557c0.122,0.096,0.306,0.057,0.306,0.057c0.08,0.134,0,0.347-0.143,0.789
		c-0.123,0.289,0.061,0.232,0.183,0.172c0.123-0.056,0.102,0,0.224-0.288c0.082-0.231,0.184-0.77,0.225-1.212
		C375.66,297.184,375.272,297.126,375.028,297.126 M383.389,301.534l-0.028,0.019L383.389,301.534
		c-0.017-0.006-0.058-0.013-0.151-0.021c0,0-1.1-0.828-1.752-1.442c-0.285-0.461,0.326-0.559,0.733-0.597
		c0.367-0.058,0.123-0.211-0.162-0.309c-0.266-0.096-0.306-0.077-0.509,0.077c-0.163,0.117-0.693,0.771-1.202,1.387
		c-0.366,0.423-0.347,0.404-0.143,0.846c0.285,0.31,0.224,0.117,0.266-0.307c0-0.212,0.06-0.25,0.243-0.463
		c0.081-0.135,0.102-0.192,0.306-0.096c1.284,1.001,1.691,1.539,1.691,1.539c-0.02,0.309,0.041,0.443,0.224,0.309
		c0,0,0.041-0.038,0.713-0.809C383.73,301.327,383.474,301.476,383.389,301.534 M364.454,310.964l-0.529,0.135
		c-0.204,0-0.102-0.115,0-0.616c0.143-0.231,0.163-0.154,0.509,0.193C364.597,310.925,364.454,310.964,364.454,310.964
		 M366.227,311.561c-0.326-0.077-0.428-0.328-0.428-0.328c-0.653-0.788-1.447-1.751-1.447-1.751s-0.142-0.23-0.51-0.077
		c-0.386,0.097-0.508,0.097-0.142,0.54c-0.028,0.157-0.036,0.299-0.065,0.431c-0.14,0.643-0.301,0.975-0.301,0.975l-0.286,0.846
		c-0.183,0.135-0.346,0.365,0.081,0.309c0.692-0.116,0.835-0.154,0.468-0.346c0,0,0-0.04-0.122-0.155l0.101-0.403
		c0,0,0.062-0.211,0.347-0.271l0.693-0.115c0,0,0.183-0.039,0.306,0.135c0.244,0.269,0.386,0.461,0.305,0.578
		c-0.143,0.115-0.204,0.327,0.163,0.212c0.198-0.073,0.364-0.148,0.502-0.195c0.302-0.097,0.455-0.114,0.455-0.114
		S366.635,311.715,366.227,311.561 M373.812,300.258c-0.733,0.153-2.173,0.294-3.612,0.218c-0.244-0.077-0.244-0.207,0-0.513
		c0.38-0.488,1.223-1.822,1.412-2.591c0,0,0.055-0.156,0.244-0.181c0.218-0.025,2.907-0.103,5.542-1.925
		c0.597-0.358,0.76-0.589,0.76-0.282c-0.055,1.233-0.19,2.694-0.38,2.951C377.507,298.37,376.936,299.512,373.812,300.258
		 M374.41,301.245c-0.814,0.59-2.825,1.951-3.124,2.052c-0.407,0.232-0.597,0.13-0.434-0.306c0.326-0.643,0.652-1.335-0.082-1.001
		c0,0-0.353,0.102-0.38-0.103c-0.244-0.746-0.326-0.899-0.326-0.899s-0.027-0.204,0.326-0.128c0.353,0.078,2.038,0.206,3.45-0.231
		c0.326-0.077,0.434-0.077,0.461,0.077C374.301,300.706,374.6,301.141,374.41,301.245 M366.804,305.094
		c-1.032,0.257-1.82,0.411-2.852,0.283c-0.707-0.129-0.95-0.257-0.435-0.514c0.598-0.104,1.847-0.179,2.989-0.898
		c0.379-0.18,0.461-0.41,0-0.205c-0.761,0.23-1.386,0.488-3.912,0.743c0,0-0.326-0.102,0.027-0.564
		c0.597-0.462,2.309-1.412,3.558-1.412c0.597-0.051,0.678-0.179,0.977-0.152c0.299,0.025,2.255-0.078,2.989-0.078
		c0.774-0.091,0.801-0.116,0.625,0.282C370.471,303.094,370.281,303.734,366.804,305.094 M362.363,305.986
		c-0.101,0.232-0.108,0.251-0.272,0.245c-0.312-0.013-1.324-0.617-1.528-0.598c0,0-0.408-0.134-0.408-0.384
		c-0.122-0.271-0.081-0.424,0.245-0.309c0.366,0.117,1.86,0.74,1.86,0.74S362.464,305.756,362.363,305.986 M357.548,304.344
		c0,0-0.204-0.038-0.204-0.231c0-0.191-0.061-0.403,0.204-0.403h2.099c0.407,0,0.775,0,0.713,0.327
		c-0.062,0.327-0.122,0.327-0.408,0.327C359.667,304.363,357.548,304.344,357.548,304.344 M359.667,306.192
		c-0.265,0.229-0.49,0.346-0.896,0.346c-0.408,0-0.917-0.155-1.059-0.75c-0.021-0.482,0.02-0.885,0.325-0.982h1.385
		c0,0,0.205-0.039,0.306,0.211C359.83,305.266,360.053,305.633,359.667,306.192 M357.284,305.588
		c-0.279,0.113-0.886,0.393-1.305,0.542c-0.226,0.083-0.385,0.112-0.385,0.112s-0.068,0.2-0.293-0.089
		c-0.223-0.289-0.115-0.43,0.17-0.488c0.387-0.114,1.162-0.352,1.59-0.622c0.285-0.077,0.36-0.121,0.36,0.089
		C357.419,305.345,357.447,305.551,357.284,305.588 M352.883,305.524c-0.55-0.096-2.492-0.333-3.674-1.758
		c-0.937-0.885-1.019-1.058-1.182-1.424c0,0-0.012-0.403,0.333-0.269c0.468,0.134,0.856,0.429,4.523,0.68
		c0.774,0.058,1.12,0.154,2.791,1.02c0.266,0.231,0.448,0.5,0.123,0.5c-0.999,0.116-0.896,0.199-2.974-0.012
		c-0.653-0.038-0.897-0.187-1.1-0.206c-0.53-0.153-0.754-0.231-0.754-0.231s-0.366,0,0,0.231c0.693,0.231,1.854,0.705,3.81,0.725
		c0.692-0.058,1.12,0.123,0.835,0.352C355.327,305.364,354.269,305.524,352.883,305.524 M347.138,300.225
		c0,0-0.307-0.192,0.101-0.211c0.408-0.018,3.198-0.225,3.32-0.244c0.245-0.096,0.692-0.179,0.897-0.044
		c0.366,0.385,1.12,1.02,1.141,1.963c0,0.192-0.122,0.423-0.692,0c-0.571-0.462-1.609-1.251-1.977-1.424
		c-0.366-0.174-0.265,0.056-0.041,0.211c0.306,0.29,1.487,1.385,1.63,1.578s0.101,0.289-0.163,0.27
		c-0.632-0.097-1.304,0.039-2.771-0.924c-0.565-0.37-0.909-0.668-1.119-0.847C347.131,300.268,347.138,300.225,347.138,300.225
		 M346.751,300.61c-0.266,0.481-0.489,1.348-0.632,1.694c-0.205,0.347-0.184,0.481-0.368,0.309
		c-0.957-0.636-2.016-1.213-3.829-2.926c0,0-0.163-0.192,0.122-0.116c0.286,0.078,1.671,0.359,3.85,0.386
		c0.429,0.097,0.571,0.097,0.672,0.269C346.771,300.38,346.893,300.476,346.751,300.61 M354.364,299.038l0.706-0.127
		c0,0,0.218-0.078,0.218,0.179c0,0.257-0.055,0.642-0.055,0.642s-0.027,0.103-0.272-0.025
		C354.418,299.193,354.309,299.27,354.364,299.038 M353.555,300.186c0.117,0.204,0.402,0.602,0.669,1.016
		c0.34,0.525,0.666,1.08,0.757,1.294c0.346,0.5,0.611,0.865,0.346,0.807c-0.59-0.268-0.977-0.5-1.141-0.5
		c-0.386-0.308-0.896-0.846-1.284-1.617c-0.366-0.442-0.814-1.539-0.814-1.539s-0.183-0.136,0.285-0.193
		c0.692-0.134,0.957-0.173,1.283-0.25c0.326-0.077,0.367-0.019,0.509,0.097c0.163,0.133,0.977,0.789,1.386,1.347
		c0.468,0.635,0.753,1.5,0.855,2.328c0.021,0.406-0.204,0.54-0.489,0.309c-0.326-0.596-1.202-2.04-1.629-2.482l-0.591-0.674
		C353.698,300.129,353.453,299.996,353.555,300.186 M340.619,298.243c-0.286-0.615-0.618-1.791-0.944-3.407
		c0,0,0.142-0.153,0.244,0.039c0.101,0.193,0.984,1.239,4.55,1.257c3.198-0.057,4.44-0.07,7.171-0.705
		c2.853-0.597,4.333-0.833,4.944-0.853c0.102,0,0.115,0.019,0.156,0.153c0.041,0.134,0.265,2.765,0.325,3.111
		c0.062,0.347-0.006,0.417-0.129,0.417c-0.855,0.114-2.526,0.442-3.402,0.461c-1.1,0.27-2.608,0.617-5.134,0.732
		c-0.605,0.028-1.199,0.08-1.775,0.082c-1.829,0.005-3.469-0.147-4.663-0.396C341.006,298.788,340.741,298.647,340.619,298.243
		 M341.128,294.272l0.571-0.154c0.183-0.231,0.373-0.302,0.393,0.044c0.163,0.597,0.319,1.175,0.34,1.329
		c0.02,0.153,0,0.153-0.162,0.153c-0.815-0.191-0.958-0.211-0.978-0.442C341.148,294.721,341.067,294.503,341.128,294.272
		 M340.72,294.258c0.081,0.521,0.123,0.772,0.123,0.772s0.041,0.229-0.082,0.154c-0.428-0.27-0.407-0.328-0.468-0.501
		c-0.244-0.77-0.387-0.848-0.061-1.039c0.326-0.194,0.529-0.29,0.835-0.231c0.305,0.057,0.346,0.116,0.346,0.269
		s0.041,0.205-0.101,0.224c-0.143,0.021-0.448,0.091-0.448,0.091S340.598,294.029,340.72,294.258 M339.552,293.296
		c-0.326-0.423-1.201-1.404-1.773-1.866c-0.59-0.52-0.665-0.674-0.379-0.771c0.386,0,1.609-0.172,3.85,0.887
		c0.285,0.192,0.509,0.327,0.509,0.539c0.041,0.27,0.408,1.019,0.652,1.404c0.163,0.288,0.448,0.559,0.713,0.731
		c0.265,0.174,0.387,0.231,0.428,0.521c0.041,0.289,0.082,0.5,0.082,0.712c0,0.21,0,0.306-0.123,0.306
		c-0.123,0-0.061,0.098-0.387-0.229c-0.326-0.328-0.57-0.731-0.591-0.962c-0.081-0.405-0.06-1.058-1.181-1.386
		c-0.448-0.289-0.34-0.41-0.808-0.662c-0.367-0.249-0.414-0.173-0.169,0.097c0.285,0.27,0.557,0.411,0.333,0.546
		c0,0-0.353,0.14-0.537,0.237C339.947,293.495,339.776,293.567,339.552,293.296 M339.587,293.971
		c-0.042,0.133-0.191,0.365-0.17,0.807c0.021,0.405,0.082,0.347-0.041,0.5c-0.244,0.29-0.468,0.501-0.508,0.674
		c-0.124,0.135-0.183,0.173-0.286,0.019c-0.59-0.846-1.263-1.751-2.099-3.579c0,0,0-0.153,0.123-0.289l0.408-0.596
		c0,0,0.041-0.193,0.305-0.039c0.286,0.153,0.958,0.577,1.61,1.598C339.58,293.797,339.627,293.835,339.587,293.971 M335.81,285.464
		c0,0,0-0.212,0.286,0.057c0.285,0.27,0.529,0.597,1.222,0.789c0.774,0.616,1.691,1.309,2.038,1.56
		c0.387,0.461,0.957,1.058,1.223,2.174c0.142,0.597,0.223,1.058-0.062,0.867c-0.794-0.886-1.487-1.868-1.65-1.905
		c-0.124-0.347-0.611-0.694-0.835-0.886c-0.225-0.193-0.34-0.308-0.238-0.019l1.732,2.271c0,0,0.266,0.256,0.082,0.351
		c-0.571-0.038-1.189-0.12-1.597-0.506c-0.55-0.5-1.161-0.731-2.037-3.367C335.729,285.848,335.81,285.464,335.81,285.464
		 M335.825,287.658c-0.109,0.128-0.557,0.462-0.557,0.462s-0.23,0.116-0.23-0.167c-0.163-0.846-0.489-2.182-0.516-3.13
		c-0.055-0.334-0.028-0.513-0.028-0.513s-0.04-0.116,0.286-0.449c0.544-0.514,0.76-0.719,0.951-0.899
		c0.19-0.178,0.19-0.115,0.38,0.167c0.163,0.411,1.114,2.258,1.223,2.515c0.109,0.257,0.19,0.462-0.164,0.385
		c-0.434-0.18-0.393-0.128-1.181-0.924c-0.19-0.231-0.461-0.05-0.461,0.385c0,0.513-0.163,0.692,0.299,1.847
		C335.933,287.567,335.933,287.53,335.825,287.658 M334.778,279.819c0.191-1.001,0.516-2.413,0.597-2.669
		c0.082-0.257,0.082-0.283,0.381-0.436c0.298-0.154,0.706-0.412,0.706-0.412s0.354-0.206,0.244,0.078
		c-0.163,0.308-0.489,1.796-0.326,2.488c0,0.258-0.082,0.258-0.217,0.359c-0.137,0.104-1.141,0.795-1.141,0.795
		S334.724,280.203,334.778,279.819 M337.168,272.838c0.49-1,0.897-1.642,0.897-1.642s0.19-0.257,0.38-0.308
		c0.087-0.024,2.023-0.812,4.097-1.617c2.458-0.954,5.111-1.951,5.111-1.951l5.813-2.078c0,0,0.897-0.334,0.081-0.206
		c-1.167,0.309-10.294,2.72-10.729,2.746c-1.223,0.282-1.901,0.591-2.2,0.565c-0.299-0.025-0.163-0.103-0.027-0.334
		c0.326-0.385,1.902-1.873,1.902-1.873s0.19-0.18,0.326-0.18c0.679-0.102,10.594-1.848,11.028-1.848
		c0.462-0.025,0.408-0.141-0.082-0.141c-0.489,0-7.904,0.013-7.904,0.013s-0.625-0.026,0.163-0.411
		c1.032-0.539,2.499-1.257,2.499-1.257c1.956,0.231,5.296,0.616,5.677,0.693c0.38,0.077,0.515,0.077,0.026-0.154
		c-0.896-0.256-3.64-1.129-3.64-1.129s-0.244-0.153,0.109-0.256c0.679-0.257,1.386-0.488,1.386-0.488s0.19-0.102,0.679,0.052
		c0.489,0.153,2.091,0.795,2.091,0.795s0.475,0.282,0.258-0.025c0,0-1.127-0.847-1.291-0.847c-0.19-0.128-0.19-0.359,0.082-0.333
		c0.353-0.078,0.733-0.18,0.733-0.18s0.326-0.077,0.653,0.205c0.326,0.283,1.059,1.13,0.543,0.155
		c-0.19-0.463-0.326-0.565,0.136-0.565c0.652-0.052,2.554-0.206,2.554-0.206s0.435-0.025,0.461,0.153
		c0.027,0.18,0.082,0.36,0.245-0.05c0.108-0.077,0.108-0.026,0.298-0.026c0.191,0,0.679,0.026,0.679,0.026s0.272,0.05,0.245,0.282
		c-0.137,0.333-0.163,0.487,0.162,0.206c0.38-0.36,0.435-0.438,0.733-0.438c0.299,0,1.169,0.129,1.169,0.129s0.38,0.025,0.135,0.154
		c-0.461,0.308-0.93,0.589-0.93,0.589s-0.564,0.411,0.279,0.052c0.977-0.359,1.521-0.616,1.521-0.616h0.326
		c0.381,0.051,0.842,0.153,0.842,0.153s0.38,0.078,0.109,0.206c-0.542,0.257-1.276,0.642-2.173,0.95
		c-0.462,0.127-0.625,0.41,0.217,0.127c0.869-0.23,2.417-0.692,2.853-0.846c0.353-0.078,0.407-0.027,0.733,0.025
		c0.326,0.051,0.815,0.153,1.059,0.308c0.244,0.154,0.299,0.18,0,0.231c-0.208,0.035-1.819,0.42-2.855,0.662
		c-0.455,0.106-0.799,0.154-0.866,0.185c-0.679,0.078-0.978,0.309,0.326,0.103c1.466-0.18,5.161-0.41,5.161-0.41
		s0.353-0.052,0.57,0.102c0.354,0.153,1.548,0.77,1.548,0.77s0.218,0.18-0.108,0.18c-0.788,0-7.007,0.077-7.007,0.077
		s-0.924,0.078,0.271,0.154c1.549,0.129,8.556,0.796,8.556,0.796s0.435,0.051,0.598,0.179c0.163,0.128,0.977,0.745,0.977,0.745
		s0.299,0.205-0.054,0.205c-1.385-0.103-9.507-1.077-9.507-1.077s-1.821-0.256-0.217,0.102c1.33,0.263,6.891,1.421,9.781,2.044
		c1.061,0.23,1.763,0.42,1.763,0.42s0.191-0.026,0.38,0.18c0.191,0.206,1.169,1.18,1.169,1.18s0.23,0.212-0.069,0.212
		c-1.684-0.334-12.916-3.034-12.916-3.034s-1.195-0.231-0.244,0.102c0.951,0.334,14.64,4.824,14.64,4.824s0.326-0.025,0.489,0.257
		c0.11,0.185,0.377,0.579,0.609,0.986c0.348,0.609,0.668,1.246,0.668,1.246s0.218,0.256-0.054,0.23
		c-0.167-0.062-0.732-0.228-1.553-0.551c-3.858-1.522-13.353-5.341-13.577-5.3c-0.707-0.333-1.114-0.486-0.515-0.05
		c0.788,0.461,13.147,7.532,13.147,7.532s0.054,0.077,0,0.206c-0.245,0.358-0.87,2.013-0.87,2.578
		c-0.027,0.154,0.027,0.359-0.244,0.154c-0.978-0.745-11.245-8.34-11.654-8.673c-0.461-0.282-0.815-0.463-0.516-0.026
		c0.381,0.462,10.295,10.316,10.295,10.316s0.163,0.18,0.163,0.488c-0.026,0.461-0.461,2.463-0.408,3.079
		c0,0.436,0,0.436-0.244,0.23c-1.168-1.333-2.01-2.437-2.174-2.591c-0.162-0.179-0.162-0.462-0.162-0.898c0-0.82,0-1.719-0.027-1.95
		c-0.027-0.231-0.266-1.335-2.825-1.257c0,0-0.379-0.381-0.966-1.063c-1.128-1.31-3.029-3.589-4.494-5.43
		c-0.38-0.488-0.571-0.385-0.326,0.026c0.489,0.667,4.481,6.928,4.481,6.928s0.164,0.256,0.028,0.309
		c-0.19,0.23-0.815,0.873-0.597,1.693c0,0.308,0.026,0.487-0.218,0.077c-0.341-0.663-1.457-2.617-2.382-4.23
		c-0.545-0.948-0.997-1.779-1.258-2.159c-0.842-1.616-0.788-1.54-0.788-1.54c-0.191-0.359-0.381-0.488-0.244,0
		c0.298,0.848,3.07,7.467,3.07,7.467s0.162,0.385-0.082,0.385c-1.276-0.334-1.684-0.461-1.684-0.461s-0.299-0.052-0.326-0.334
		c-0.461-1.72-1.521-5.234-1.575-5.492c-0.054-0.257-0.272-0.411-0.245-0.052c0.028,0.36,0.761,4.876,0.761,4.876
		s0.244,0.693-0.217,0.668c-0.869-0.231-1.386-0.283-1.386-0.283s-0.217,0.025-0.217-0.282c0-1.488,0.19-6.03,0.19-6.03
		c0.326-0.231,0.3-0.488,0.3-0.693c0-0.206,0.054-0.36,0.217-0.36c0.162,0,0.352-0.41,0.081-0.77
		c0.136-0.385,0.136-0.539-0.027-0.641c0.136-0.488,0.272-0.796,0.49-0.847c0.163-0.052,0.271-0.026,0.353-0.359
		c0.082-0.333,0.137-0.437,0.407-0.437c0.273,0,0.605,0.103,0.605-0.462c0-0.282,0.075-0.635-0.93-0.687
		c-0.462-0.05-0.544-0.083-0.326-0.544c0.097-0.642,0.242-1.299-0.435-2.077c-0.08-0.093-0.166-0.188-0.272-0.284
		c0.055,0.589,0.041,1.129-0.175,0.847c-0.327-0.565-0.653-0.77-0.653-1.463c0.055-0.487,0.176-0.693-0.095-0.487
		c-0.271,0.308-0.489,0.77-0.597,0.77c-0.46-0.695-1.169-1.471-2.043-1.94c-0.416-0.224-0.871-0.388-1.353-0.421
		c-0.217-0.025-0.272,0.129-0.027,0.309c0.354,0.308,1.121,1.007,0.68,1.571c-0.543-0.411-0.897-0.7-1.413-0.7
		c0,0-0.244-0.025,0.026,0.154c0.273,0.18,0.653,0.822,0.245,1.745c-0.298,0.412-0.38,0.668-0.49,0.231
		c-0.108-0.436-0.054-0.514,0.055-0.693c0.109-0.179-0.055-0.231-0.272-0.05c-0.298,0.256-1.181,1.282-0.827,2.412
		c0.108,0.308,0.094,0.621-0.286,0.621c-0.516,0-1.249-0.006-1.195,0.636c0.109,0.283,0.081,0.539,0.652,0.539
		c0.272,0.025,0.435,0.103,0.461,0.281c0.027,0.231,0.108,0.437,0.381,0.462c0.272,0.206,0.38,0.617,0.38,0.949
		c-0.081,0.206-0.055,0.36,0.026,0.464c-0.108,0.281-0.244,0.871,0.19,1.025c0.217,0.129,0.136,0.309,0.136,0.309
		s0,0.282,0.353,0.539c0.109,0.179,0.109,0.308,0.109,0.539c0,0.231,0.326,5.774,0.326,5.774s0.081,0.231-0.055,0.283
		c-0.163,0.076-1.575,0.41-1.901,0.282c0-1.592,0.489-5.389,0.597-5.929c0.055-0.229,0.055-0.717-0.19-0.281
		c-0.299,1-1.575,5.595-1.575,5.929c-0.136,0.461-0.163,0.642-0.571,0.718c-1.195,0.153-2.146,0.308-2.146,0.308
		s-0.217,0-0.109-0.334c0.625-1.258,2.988-6.903,3.477-7.853c0.217-0.333-0.013-0.333-0.176-0.025
		c-0.136,0.27-1.297,2.202-2.335,3.872c-0.432,0.694-0.826,1.343-1.126,1.81c-0.279,0.435-0.478,0.708-0.478,0.708
		s-0.123,0.462-0.422,0.128c-0.516-0.616-1.032-1.001-1.249-1.001c-0.136,0-0.102-0.076,0.169-0.436
		c0.435-0.513,4.095-5.363,4.584-6.184c0.298-0.411,0.298-0.539-0.136-0.205c-0.252,0.283-1.898,2.1-3.25,3.507
		c-0.973,1.014-1.783,1.779-1.783,1.779l-1.636,1.668c-0.435,0.41-1.073,0.923-1.127,1.257c-0.598,0.642-2.119,2.233-2.473,2.694
		c-0.326,0.334-0.353,0.206-0.353-0.102c-0.162-0.923-0.516-2.053-0.516-2.284c0-0.232,0-0.245,0.191-0.411
		c0.4-0.402,1.679-1.52,3.071-2.771c1.723-1.549,3.62-3.276,4.236-3.772c1.413-1.154,2.662-2.284,2.989-2.566
		c0.326-0.282,0.57-0.564-0.326-0.025c-1.086,0.795-3.042,2.156-3.259,2.309c-0.734,0.487-6.003,4.164-6.003,4.164
		s-0.31,0.244-0.733,0.524c-0.924,0.613-2.391,1.548-2.391,1.548s-0.217,0.206-0.272-0.025c-0.434-1.207-0.625-1.643-0.625-1.643
		s-0.055-0.152,0.191-0.308c0.274-0.185,4.637-2.649,7.514-4.37c1.11-0.664,1.998-1.202,2.346-1.48
		c1.658-1.079,3.314-2.053,3.695-2.284c0.38-0.231,0.597-0.564,0.19-0.359c-0.76,0.282-8.448,3.792-8.448,3.792
		c-1.087,0.486-5.433,2.444-6.491,2.726C337.196,273.223,336.978,273.326,337.168,272.838 M382.804,277.271
		c0.223,0.173,0.244,0.289,0.325,0.48c0.082,0.405,0.557,2.516,0.577,4.248c0.02,0.27,0.02,0.231-0.142,0.173
		c-0.652-0.462-1.101-0.827-1.101-0.827c0.163-1.559,0.143-2.175,0.143-2.406c0-0.232-0.122-0.654-0.529-0.365
		c-0.509,0.5-1.345,1.269-1.345,1.269s-0.264,0.059-0.223-0.172c0.106-0.702,0.305-1.966,0.027-3.081
		c-0.042-0.171-0.082-0.339-0.15-0.5c0,0,0-0.25,0.184-0.095C380.793,276.149,382.58,277.099,382.804,277.271 M383.401,287.138
		c-0.183,0.827-0.509,2.444-1.019,3.657c-0.204,0.423-0.122,0.423-0.386,0.21c-0.448-0.48-0.571-0.5-0.387-0.674
		c0.204-0.423,0.427-0.865,0.468-1.019c0.041-0.154-0.02-0.327-0.183-0.29c-0.407,0.058-0.713,0.271-1.528,0.173
		c-0.183-0.211-0.326-0.191-0.163-0.404c0.224-0.269,1.345-1.578,1.875-2.964c0.101-0.135,0.142-0.115,0.265,0.019
		c0.122,0.135,1.039,1.021,1.039,1.021S383.482,286.947,383.401,287.138 M376.501,294.06c0,0-0.435,0.051-0.163-0.283
		c0.273-0.178,0.408-0.255,0.761-0.308c0.353-0.05,0.76-0.05,0.788,0.283c0.026,0.334,0.136,0.616-0.081,0.822
		c-0.625,0.487-0.761,0.64-0.761,0.309c-0.081-0.721,0-0.9-0.272-0.849L376.501,294.06z M375.849,294.42
		c0.244,0,0.436,0.102,0.652,0.051c0.109,0.104,0.136,0.104,0.136,0.232s0.055,0.539-0.026,0.641c-0.218,0.18-0.598,0.36-0.598,0.36
		s-0.217,0.077-0.217-0.104c-0.136-0.846-0.191-0.975-0.191-0.975S375.605,294.42,375.849,294.42 M363.26,299.309
		c-0.218,0.23-0.422,0.422-0.612,0.524c-0.19,0.104-0.271,0-0.271-0.128s-0.082-0.59-0.056-0.77l0.789,0.179
		C363.11,299.115,363.422,299.128,363.26,299.309 M360.258,297.934c0.027-0.281,0.108-2.591,0.163-3.051
		c0.054-0.284,0.135-0.284,0.461-0.284c0.326,0,3.07,0.256,3.64,0.642c1.331,0.384,1.984,0.59,2.119,0.616
		c0.136,0.025,0.435,0,0.244,0.307c-0.244,0.59-0.909,1.848-0.992,2.412c-0.108,0.539-0.149,0.693-0.34,0.231
		c-0.081-1.129-0.026-1.592-0.461-1.18c-0.597,0.487-1.114,1.052-1.114,1.052s-0.244,0.128-0.461,0.024c0,0-2.526-0.435-3.015-0.461
		C360.312,298.166,360.231,298.218,360.258,297.934 M364.821,294.932c-1.019-0.179-2.743-0.59-3.042-0.59
		c0,0-0.217-0.102-0.271-0.385c-0.056-0.282-0.191-0.538,0.135-0.538c0.326,0,1.711,0.179,2.853,0.461
		c0.326,0.102,0.298,0.076,0.352,0.255C364.903,294.317,365.093,294.959,364.821,294.932 M368.434,296.254
		c-0.299,0.463-1.155,1.913-1.155,1.913s-0.095,0.103-0.448,0.334c-0.516,0.384-0.597,0.179-0.49-0.257
		c0-0.255,0.19-0.565,0.354-1.206c0.841-1.489,1.494-1.976,2.091-2.49c0.571-0.283,0.679-0.461,1.223-0.872
		c0.299-0.283,0.299-0.181,0.326,0.206c0.082,0.975-0.299,1.795-0.571,2.642c-0.109,0.206-0.515,0.54-1.304,0.898
		c-0.529,0.411-0.285-0.129-0.285-0.129s0.285-0.564,0.611-1.231C368.896,295.574,368.814,295.689,368.434,296.254 M378.444,282.41
		c0,2.078-0.109,2.258-0.326,2.669c-0.326,0.615-0.53,1-0.747,0.769c-0.136-0.488-0.068-0.718-0.041-1.103
		c0.081-0.822-0.062-1.489-0.116-1.977c-0.163-1.103-0.197-1.206-0.197-1.206s-0.095-0.437-0.123,0.077
		c0.081,0.975,0.224,2.72,0.169,3.182c-0.054,0.359-0.237,0.642-0.237,0.642s-0.136,0.359-0.38,0
		c-0.516-0.924-0.91-1.489-0.91-2.156c0-1.078,0.435-3.824,0.462-4.234c0.026-0.667,0.094-0.731,0.231-0.834
		c0.136-0.103,0.42,0.039,0.665,0.424C377.357,279.358,378.416,280.665,378.444,282.41 M380.039,280.055
		c-0.223,0.385-0.529,0.771-0.774,0.693c-0.244-0.077-0.163-0.423-0.143-0.712c0.101-0.462,0.347-0.75,0.306-1.251
		c-0.042-1.04-0.102-1.521-0.163-1.77c-0.081-0.308-0.183-0.212-0.183-0.06c0.02,0.541-0.02,1.811-0.163,2.503
		c-0.224,0.942-0.244,1.039-0.346,1.117c-0.102,0.077-0.205,0.114-0.347-0.097c-0.265-0.558-0.509-1.039-0.367-2.251
		c0.143-0.675,0.102-1.463,0.387-2.042c0.244-0.789,0.571-1.423,1.161-2.29c0,0,0.163-0.289,0.367,0.058
		c0.143,0.27,0.102,0.405,0.123,0.558s0.122,1.059,0.326,1.81C380.427,277.322,380.611,278.613,380.039,280.055 M381.771,282.423
		c-0.326,0.75-0.835,1.578-1.548,2.059c-0.652,0.366-0.774,0.501-0.999,0.328c-0.224-0.173-0.006-0.309,0.156-0.52
		c0.266-0.366,0.999-1.174,1.365-2.194c0.244-0.597,0.414-0.75,0.089-0.52c-0.266,0.288-0.429,0.596-0.612,0.827
		c-0.244,0.405-0.794,1.443-1.201,1.694c0,0-0.082,0.289-0.224-0.019c-0.062-0.405-0.143-1.021,0.02-1.675
		c0.162-0.481,0.427-1,1.283-1.732c0.897-0.79,1.651-1.463,1.834-1.674c0.183-0.212,0.407-0.405,0.407,0.019
		C382.342,279.613,382.424,280.96,381.771,282.423 M379.897,286.369c-0.183,0.172-0.815,0.731-1.141,0.905
		c-0.408,0.25-1.121,0.692-1.549,1.115c0,0-0.244,0.115-0.244-0.116c0.02-0.403-0.082-0.846,0.387-1.54
		c0.468-0.54,0.957-1.02,2.241-1.636c1.141-0.673,1.854-1.039,2.12-1.29c0.264-0.25,0.427-0.404,0.529-0.134
		c0.101,0.271,0.123,0.366,0.041,0.731c-0.163,0.578-0.51,2.406-2.404,4.215c-0.611,0.48-1.325,0.846-2.526,1.155
		c-0.387,0-0.611-0.019-0.306-0.5c0.449-0.56,0.734-0.981,1.568-1.405c0.55-0.366,1.182-1.059,1.325-1.348
		C380.182,286.291,380.019,286.118,379.897,286.369 M374.62,283.424c0.468-0.077,0.529,0.116,0.877,0.655
		c0.752,1.462,1.038,2.078,1.161,3.079c0.183,2.156-0.632,3.174-0.938,3.619c-0.223,0.249-0.448,0.076-0.448,0.076
		s-0.101-0.211-0.162-0.521c-0.021-0.153-0.042-0.288,0.122-0.557c0.142-0.135,0.102-0.404,0.123-1
		c0.203-0.29,0.122-1.501,0.102-2.137c0-0.559-0.143,0-0.143,0c-0.101,1.578-0.244,1.905-0.428,2.733
		c-0.041,0.212-0.143,0.212-0.285,0c-0.082-0.385-0.489-0.982-0.571-1.329c-0.081-0.153-0.081-0.191-0.061-0.711
		c0.061-0.943,0.408-2.367,0.529-2.906C374.498,283.982,374.478,283.501,374.62,283.424 M373.602,284.944
		c0.265,0.443,0.387,0.521,0.347,0.771c-0.062,0.48-0.101,0.808-0.224,0.808c0,0-0.245-0.731-0.265-1.039
		C373.418,284.944,373.399,284.617,373.602,284.944 M374.546,290.57c0.271,0.616,0.244,1.411-0.408,2.053
		c-0.489,0.623-1.466,1.232-3.477,1.334c-0.054-0.641-0.026-0.692-0.026-0.692c0.842-0.026,2.743,0.127,3.07-1.693
		c0.027-0.334,0.081-0.437,0.408-0.155c0.135,0.104,0.379,0.155,0.244-0.461c-0.191-0.693-0.76-1.874-2.581-1.823
		c-0.625,0-1.643,0.026-2.35,0.976c-0.298,0.385-0.434,0.897-0.407,1.308c0.081,0.258,0.176,0.591,0.72-0.077
		c0.109-0.231,0.258-0.05,0.258,0.103c0,0.155-0.014,0.809,0.557,0.271c0.542,0,1.249,0.154,1.792,0.025
		c0.543-0.128,0.802-0.475,0.746-0.783c-0.054-0.308-0.067-0.526-0.937-0.526c-0.57,0.102-0.788,0.127-1.059,0.436
		c-0.38,0.385-0.896,0.885-0.896,0.603c-0.081-1.026-0.109-1.077,0.218-1.308c0.325-0.231,0.597-0.424,1.466-0.501
		c0.87-0.076,1.318-0.063,1.535,0.937c0.109,0.461,0.258,0.95-0.557,1.463c-0.652,0.578-1.494,0.526-1.901,0.461
		c-0.815,0.026-2.309,0.052-2.282-1.282c0.026-0.795,0.407-1.642,0.434-2.257c0.109-1.002,0.217-3.978,0.109-4.954
		c-0.217-2.182-0.599-4.516-0.924-5.312c0,0-0.055-0.616,0.489-1.282c0.462-0.462,0.869-0.796,1.711-0.796
		c0.842,0,1.956,0.436,1.956,1.052c0,0.821,0.055,4.131,0.707,8.647C373.487,287.876,373.677,288.747,374.546,290.57
		 M357.84,277.663c0,0.154-0.271,0.256-0.461,0.102c-0.082-1.231-0.258-5.03-0.258-5.03s0.041-0.152,0.231-0.179
		c0.19-0.025,0.243,0.153,0.271,0.385C357.651,273.172,357.84,277.51,357.84,277.663 M359.226,273.043
		c-0.081,1.181-0.137,4.132-0.137,4.389s-0.115,0.468-0.441,0.211c-0.023-0.861-0.064-3.696-0.072-4.586
		c-0.002-0.17,0.011-0.269,0.011-0.269s0.041-0.257,0.231-0.257C358.818,272.531,359.252,272.428,359.226,273.043 M360.203,272.556
		c0,0,0.408,0.026,0.408,0.334c-0.055,1.848-0.136,4.336-0.136,4.62c0,0.282-0.326,0.282-0.461,0.102
		c-0.055-1.335,0.081-4.85,0.081-4.85S360.068,272.556,360.203,272.556 M356.59,271.607c0.163,0,3.613-0.078,4.048-0.078
		c0.434,0,0.597,0,0.597,0.232c0,0.23-0.163,5.568-0.163,5.722s-0.299,0.461-0.407,0.103c-0.055-0.745,0.136-4.414,0.136-4.825
		c0-0.411,0.026-0.745-0.462-0.771c-0.325,0-0.517,0.104-0.489,0.487c0.054,0.616-0.028,2.207,0,2.926
		c0.027,1.155-0.065,1.977-0.055,2.13c0.013,0.205-0.292,0.455-0.516,0c0.081-1.463,0.109-4.773,0.109-5.057
		c0-0.281-0.197-0.417-0.543-0.5c-0.272,0.025-0.543,0.167-0.543,0.423c0.055,0.718,0.177,5.095,0.177,5.222
		c0,0.128-0.258,0.27-0.475,0.039c0-1.489-0.081-4.696-0.109-5.055c-0.027-0.359-0.136-0.526-0.571-0.526
		c-0.291,0.019-0.421,0.013-0.421,0.396c0,0.359,0.098,1.87,0.163,3.158c0.048,0.929,0.074,1.741,0.074,1.923
		c0.136,0.437-0.34,0.487-0.442,0.18l-0.298-5.953C356.401,271.786,356.428,271.607,356.59,271.607 M356.291,270.613
		c0.734,0.051,4.7,0.019,4.917,0.019c0.218,0,0.476,0.211,0.055,0.437c-0.23,0.035-1.039,0.085-1.949,0.102
		c-1.126,0.021-2.439,0.004-3.042-0.025C356.272,271.145,355.613,270.613,356.291,270.613 M355.749,269.74
		c0.924,0,5.27-0.006,5.677-0.006c0.172,0,0.334-0.004,0.432,0.059c0.107,0.068,0.136,0.209,0.012,0.335l-0.118,0.068
		c-0.49,0.179-1.956,0.134-2.88,0.16c-1.141,0.026-2.716-0.019-3.124-0.044C355.749,270.311,355.151,270.124,355.749,269.74
		 M355.532,268.733c0,0-0.109-0.437,0.163-0.437c0.271,0,0.352,0.179,0.352,0.359S355.775,269.169,355.532,268.733 M361.969,268.501
		c-0.027,0.181-0.055,0.36-0.326,0.385c0,0-0.163,0-0.163-0.282c0-0.282,0.163-0.231,0.354-0.308
		C361.985,268.235,361.997,268.323,361.969,268.501 M354.906,267.501c0,0,2.533-0.026,4.679-0.026c1.466,0,2.751,0.026,2.928,0.026
		c0.163,0.025,0.191,0.371-0.218,0.371c-0.598,0-0.856,0.013-0.91,0.168c-0.135,0.359-0.468,0.962,0.319,1.09
		c0.245,0.077,0.36,0.294,0.035,0.398c-0.525,0-2.636,0.021-4.164,0.036c-0.929,0.01-1.657,0.008-1.717,0.021
		c-0.23,0.051-0.38-0.314-0.055-0.417c0.354-0.154,0.693-0.103,0.422-0.719c-0.218-0.693-0.258-0.616-0.964-0.616
		C354.879,267.783,354.825,267.834,354.906,267.501 M358.736,266.295c2.078-0.064,3.613,0.031,4.211,0.109
		c0.597,0.077,0.692,0.07,0.692,0.328c0,0.256,0.041,0.396-0.394,0.372c-0.591-0.019-4.966-0.019-7.41-0.022
		c-0.927,0-1.576-0.011-1.635-0.003c-0.245,0.025-0.449-0.064-0.475-0.27c0,0-0.041-0.321,0.393-0.372
		C354.662,266.333,356.781,266.243,358.736,266.295 M357.433,263.164c-0.217,0.59-0.435,1-0.19,2.129
		c-0.027,0.514-0.136,0.59-0.707,0.385c-0.228-0.237-0.283-0.481-0.302-0.722c-0.025-0.332,0.066-0.661,0.302-0.972
		c0.272-0.462,0.489-1.257,0.136-1.822c0,0,0.054-0.282,0.272-0.051C357.216,262.343,357.595,262.83,357.433,263.164
		 M359.932,265.243c-0.163,0.333-0.802,0.654-1.141,0.411c-0.435-0.488-0.597-0.898-0.38-1.848c0.217-0.539,0.326-0.821,0.326-1
		c0,0,0.109-0.257,0.218,0C359.226,263.241,360.312,264.37,359.932,265.243 M359.822,263.754c0,0-0.379-0.642-0.625-0.898
		c-0.326-0.308-0.326-0.384-0.461-0.589c-0.136-0.206-0.163-0.154-0.163,0.128c0.011,0.157,0.027,0.314,0,0.463
		c-0.039,0.214-0.137,0.412-0.217,0.563c-0.136,0.257-0.448,0.95-0.149,1.873c0.047,0.212-0.15,0.385-0.367,0.154
		c-0.299-0.436-0.652-0.873-0.136-2.181c0.191-0.513,0.462-1.488-0.326-2.31l-0.068-0.084c-0.02-0.063,0.013-0.132,0.176-0.069
		c0.097,0.019,0.329,0.098,0.619,0.252c0.842,0.443,2.179,1.413,2.179,2.595C360.312,263.908,360.231,264.319,359.822,263.754
		 M361.752,265.012c0.271-0.539,0.352-0.822,0.352-0.949c0,0,0.191-0.334,0.299,0.205c0.109,0.616,0.082,1.128-0.108,1.36
		c-0.353,0.308-0.706,0.539-0.896,0.256C361.263,265.628,361.508,265.423,361.752,265.012 M360.556,263.447
		c0-0.231,0.191-0.693,0.191-0.693s0.163-0.173,0.19,0.007c0.163,0.565,0.191,0.711,0.381,1.019c0.191,0.36,0.272,0.796,0.081,1.232
		c-0.217,0.462-0.55,0.853-0.931,0.647c-0.19-0.153-0.291-0.237-0.047-0.775C360.584,264.165,360.556,263.677,360.556,263.447
		 M356.156,265.654c0.163,0.256,0.217,0.333-0.137,0.333c-0.353,0-0.76-0.282-0.869-0.949c-0.108-0.667,0.191-1.027,0.381-1.411
		c0,0,0.19-0.128,0.19,0.051C355.721,263.856,355.667,264.832,356.156,265.654 M343.043,283.27c0,0-0.305,0.076-0.183-0.097
		c0.123-0.443,0.387-0.982,0.692-1.135c0.468-0.559,0.991-1.231,1.155-1.329c0.163-0.095,0.15,0.058,0.15,0.289
		c-0.102,1.04-0.367,2.906-0.999,4.677c-0.305,0.904-0.366,1.04-0.447,0.77c-0.122-0.828-0.021-2.002,0.142-2.866
		C343.573,283.27,343.471,283.097,343.043,283.27 M337.814,279.401c0.123,1,0.299,2.136,0.422,2.56c0,0,0,0.288-0.225,0.116
		c-0.447-0.443-0.998-1.174-1.242-3.099c-0.143-1.116-0.143-1.694,0.652-3.657c0.183-0.559,0.265-0.732,0.326-0.924
		c0.061-0.193,0.326-0.328,0.387,0.153c0.062,0.5,0.265,0.943,0.55,1.559c0.255,0.74,0.651,1.624,0.782,2.602
		c0.026,0.194,0.029,0.393,0.033,0.594c-0.029,0.486-0.048,0.865-0.079,1.166c-0.059,0.545-0.133,0.837-0.186,1.047
		c-0.143,0.424-0.224,0.559-0.387,0.405c-0.326-0.712-0.57-1.443-0.651-2.06c-0.163-1.192-0.225-1.346-0.266-1.712
		c-0.041-0.365-0.101-0.52-0.143-0.288c-0.012,0.075-0.038,0.136-0.032,0.326C337.768,278.576,337.855,279.195,337.814,279.401
		 M338.195,284.443c0.14,0.255,0.43,0.74,0.677,1.211c0.184,0.348,0.339,0.689,0.476,0.925c0.367,0.578,0.299,0.597,0.299,0.597
		s0.034,0.237-0.17,0.18c-0.204-0.059-0.482-0.025-0.971-0.603c-0.509-0.655-0.651-0.77-0.937-1.25
		c-0.489-0.886-1.045-1.868-1.596-3.331c-0.224-0.75-0.326-1.02,0.713-0.404c0.958,0.456,2.642,1.52,3.356,3.542
		c0.244,0.635,0.265,1.021,0.265,1.348c-0.062,0.634-0.048,0.731-0.252,0.481c-0.468-0.75-1.106-2.001-1.575-2.521
		C338.195,284.115,338.072,284.212,338.195,284.443 M341.067,280.576c-0.081,0.442-0.13,1.058-0.312,1.443
		c-0.245,0.577-0.204,0.77-0.692,1.539c0,0-0.286,0.405-0.49,0.058c-0.183-0.346-0.183-0.442-0.101-1.732
		c0.143-0.924,0.237-1.482,0.706-2.501c0.428-0.847,0.639-1.329,0.741-1.752c0.162-0.481,0.272-0.75,0.495-0.231
		c0.082,0.52,0.17,1.039,0.272,1.308c0.224,0.886,0.632,2.118,0.245,3.234c-0.204,0.905-0.456,1.643-1.148,2.219
		c-0.265,0.174-0.333,0.219-0.414-0.089c0.142-0.404,0.7-2.034,0.74-2.573C341.128,280.709,341.148,280.287,341.067,280.576
		 M341.923,286.811c-0.183,0.635-0.422,1.751-0.442,2.406c-0.02,0.944-0.088,1.135-0.251,1.115c-0.162-0.018-0.428-0.788-0.55-1.135
		c-0.101-0.519-0.51-1.442,0.489-3.406c0.063-0.113,0.094-0.216,0.148-0.312c0.467-0.813,0.747-1.052,1.604-1.862
		c0,0,0.225-0.134,0.225,0.115c-0.041,0.962-0.095,3.907-0.116,4.311c-0.041,0.423-0.116,0.443-0.156,0.578
		c-0.204,0.558-0.652,1.367-0.795,1.616c-0.143,0.443-0.279,0.398-0.319,0.264c-0.102-0.443-0.007-1.861,0.095-2.496
		c0.204-1.175,0.19-1.02,0.19-1.02S342.167,286.465,341.923,286.811 M345.814,295.818c-0.244,0.077-0.977,0.039-1.1,0.039
		c-0.122,0-0.163-0.078-0.224-0.213c-0.265-0.481-0.672-1.04-0.061-0.846c0,0,0.447,0.134,0.917,0.134
		c0.162,0,0.183-0.058,0.265,0.116C345.691,295.221,345.956,295.74,345.814,295.818 M347.444,295.703
		c-0.02,0.056-0.041,0.056-0.163,0.056c-0.123,0-0.917,0.059-0.917,0.059c-0.286-0.5-0.53-0.962-0.286-0.905
		c0,0,0.611-0.115,0.856-0.173c0.244-0.058,0.285,0.058,0.367,0.211C347.383,295.106,347.444,295.472,347.444,295.703
		 M348.421,294.604c-0.204,0.808-0.244,0.925-0.244,0.925s-0.122,0.347-0.285,0.115c-0.244-0.789-0.326-0.923-0.326-1.04
		l0.734-0.134C348.299,294.47,348.442,294.451,348.421,294.604 M352.449,293.351c-0.984,0.128-1.96,0.217-2.866,0.426
		c-0.61,0.101-1.154,0.22-1.645,0.303c-1.804,0.308-2.907,0.428-4.059,0.006c-0.758-0.391-1.601-0.873-1.77-2.176
		c-0.031-0.238-0.012-0.504,0.004-0.802c0.109-0.513,1.006-2.206,1.386-3.156c0.139-0.584,0.323-1.354,0.57-2.145
		c0.284-0.905,0.632-1.838,0.734-2.551c0.19-1.412,0.516-2.746,0.543-4.209c0.108-1.026,0.108-2.464,2.038-2.566
		c0.28,0.021,0.744,0.061,1.161,0.303c0.672,0.393,1.365,1.378,1.039,1.957c0,0-0.49,1.898-0.734,2.617
		c-0.272,1.104-0.788,3.156-0.788,5.132c-0.136,1.156-0.217,2.617,0.055,4.337c0.026,0.436,0.054,0.949-0.163,1.104
		c-0.516,0.538-0.707,0.974-2.309,1c-0.761-0.026-1.929-0.231-2.146-1.746c0.109-0.385,0.38-0.847,0.57-1.025
		c0.435-0.181,0.951-0.257,1.413-0.257c0.461,0,1.467,0.154,1.44,0.59c-0.027,0.437-0.027,0.923-0.326,0.77
		c-0.57-0.385-1.466-0.796-2.526-0.308c-0.217,0.153-0.19,0.616,0.055,0.77c0.165,0.109,0.561,0.393,1.193,0.409
		c0.161,0.005,0.341-0.01,0.535-0.04c0.301-0.046,0.635-0.145,0.987-0.395c0.326-0.231,0.408-0.257,0.544-0.153
		c0.135,0.101,0.434,0.255,0.353-0.309c-0.018-0.567-0.161-1.142-0.858-1.5c-0.374-0.191-0.909-0.329-1.668-0.347
		c-1.059,0-1.603,0.179-2.336,1.077c-0.244,0.463-0.49,0.822-0.408,1.283c0.081,0.462,0.272,0.847,0.542,0.334
		c0,0,0.272-0.643,0.327-0.129c0.135,0.513,0.461,1.693,2.281,1.643c0.733-0.051,1.684,0,2.363-1.079
		c0.38-0.589,0.543-0.795,0.408-1.77c-0.136-1.078-0.191-1.591,0.19-4.286c0.109-1.848,0.381-3.799,0.543-4.517
		c0.218-1.051,0.543-2.489,0.543-2.489s0.081-0.308,0.325-0.282c0.244,0.025,2.608-0.153,3.886-0.463
		c1.602-0.282,3.694-0.717,5.432-0.717c1.358,0.025,2.363-0.257,7.524,1.283c1.059,0.231,1.467,0.18,1.493,0.488
		c0.082,0.872,0.625,4.259,0.49,7.775c-0.136,2.053-0.217,2.387-0.299,2.9c-0.081,0.642-0.461,1.513,0.896,2.36
		c0.707,0.334,0.815,0.385,0.598,0.513c-0.57,0.411-0.68,0.692-1.331,0.667c-0.652-0.051-2.038-0.308-2.717-0.36
		c-1.141-0.204-4.209-0.807-6.764-0.782C357.718,292.859,355.062,293.01,352.449,293.351 M352.251,293.841
		c0.265-0.058,1.684-0.274,3.07-0.392c0.204,0.02,0.224-0.018,0.224,0.117c-0.02,0.595,0.026,0.84-0.218,0.84
		c-0.448,0.153-3.008,0.559-3.212,0.674c0,0-0.306,0.025-0.224-0.283c0.123-0.596,0.163-0.79,0.163-0.79
		S352.027,293.881,352.251,293.841 M359.972,299.455c-0.052,0.763-0.097,1.961-0.152,2.79c-0.03,0.465-0.093,0.815-0.093,0.905
		c-0.02,0.232-0.101,0.173-0.204,0.211c-0.102,0.04-0.916,0.04-1.324-0.019c-0.366-0.039-0.366-0.058-0.366-0.268
		c-0.144-0.655-0.34-2.271-0.381-3.042c-0.101-1.212-0.305-2.348-0.244-2.829c-0.143-1.156-0.305-3.31-0.305-3.542
		c0-0.231,0.116-0.243,0.278-0.224c0.163,0.017,0.34,0.056,0.34,0.23c0,0.289,0.23,4.574,0.271,4.921
		c0.041,0.808,0.184,2.541,0.184,2.771c0,0.232,0.143,0.5,0.163,0.115c-0.02-0.77-0.265-7.62-0.265-7.774c0-0.153,0-0.27,0.162-0.27
		c0.163,0,0.367,0.038,0.367,0.27c0,0.596,0.204,8.238,0.204,8.448c0,0.54,0.013,0.54,0.013,0.54s0.109,0.5,0.191,0
		c0.061-0.887-0.061-4.331-0.061-4.331s-0.042-4.484,0-4.677c0.041-0.192,0.081-0.269,0.305-0.232
		c0.224,0.04,0.366,0.02,0.347,0.309c-0.02,0.29-0.143,7.333-0.143,7.507c-0.02,0.403,0.143,0.674,0.204,0.096
		c0.04-0.354,0.066-1.736,0.111-3.065c0.048-1.414,0.1-2.766,0.1-2.766l0.054-1.791c0,0-0.02-0.27,0.142-0.27
		c0.164,0,0.388-0.057,0.388,0.212c0,0.169-0.008,0.824-0.053,1.637C360.115,296.91,359.959,299.112,359.972,299.455
		 M363.409,301.117c-0.571,0.717-1.48,1.667-1.67,1.719c-0.191,0.179-0.341,0.321-0.341,0.321s-0.408,0.192-0.353-0.27
		c0.353-0.872,0.516-1.718,1.059-2.231c0.572-0.591,1.468-1.104,2.255-2.027c0,0,0.354-0.283,0.517-0.487
		c0.162-0.207,0.434-0.103,0.434,0.204c0.027,0.744,0.109,0.976-0.027,1.592c-0.272,1.026-0.162,1.859-1.738,2.989
		c-1.168,0.693-1.304,0.705-1.548,0.705c-0.244,0-0.354,0.025,0.108-0.461c0.761-0.949,1.196-1.361,1.277-1.565
		c0.136-0.385,0.272-0.539,0.272-0.539S363.816,300.706,363.409,301.117 M368.733,299.142c-0.543,0.46-0.897,0.563-1.141,0.77
		c-0.215,0.204-0.393,0.374-0.569,0.518c-0.157,0.128-0.312,0.226-0.49,0.431c-0.38,0.436-1.032,0.925-1.032,0.925
		s-0.516,0.383-0.354-0.257c0.326-0.95,0.381-1.284,0.734-1.695c0.571-0.615,1.032-1.411,2.934-2.36
		c1.657-0.821,2.227-1.079,2.227-1.079s0.597-0.178,0.408,0.309c-0.191,0.487-0.489,1.719-1.549,3.129
		c-0.447,0.558-0.783,0.974-1.062,1.246c-0.464,0.456-0.764,0.582-1.138,0.808c-0.788,0.308-1.276,0.359-1.494,0.103
		c-0.081-0.232,0.326-0.643,0.816-1.156c0.814-0.667,1.601-1.31,1.846-1.564C369.113,299.013,369.085,298.91,368.733,299.142
		 M371.747,296.184c-0.101-0.155-0.162-0.174,0.041-0.366c0.347-0.27,1.752-1.463,1.976-1.636s0.163-0.347-0.122-0.211
		c-0.408,0.365-0.632,0.404-0.857,0.692c-0.61,0.423-1.528,1.059-1.772,1.059c0,0-0.183,0.135-0.183-0.136
		c0.061-0.576,0.102-0.711,0.224-0.884c0.123-0.173,0.184-0.309,0.53-0.309c0.611-0.153,2.119-0.559,3.096-1.752
		c0.286-0.539,0.509-0.923,0.571-1.077c0.061-0.154,0-0.193,0.224-0.289c0.266-0.116,0.611-0.271,0.856-0.327
		c0.244-0.058,0.571-0.097,0.347,0.481c-0.326,0.654-0.999,2.193-1.711,3.059c-0.734,0.943-1.263,1.642-2.444,2.144
		c-0.551,0.191-0.632,0.244-0.632,0.031C371.891,296.452,371.952,296.223,371.747,296.184 M379.163,292.297
		c-0.672,0.404-1.629,0.885-2.832,0.961c-0.224,0.038-0.326,0.115-0.203-0.134c0.284-0.521,0.304-0.731,0.651-0.924
		c0.448-0.366,2.058-1.02,2.343-1.155c0.489-0.212,0.469-0.423,0.101-0.288c-0.631,0.288-0.896,0.365-0.998,0.385
		c-0.55,0.154-0.713,0.172-1.162,0.462l-0.142,0.018c0,0,0.415-0.551,0.02-0.943c-0.123-0.173,0.122-0.192,0.325-0.385
		c0.408-0.25,0.754-0.654,3.688-0.943c0.305-0.038,0.386-0.019,0.57-0.077c0.184-0.058,0.305-0.019,0.205,0.134
		C381.506,289.851,381.242,290.814,379.163,292.297 M378.607,297.345c-0.163,0.154-0.258,0.026-0.231-0.18
		c0.027-0.207,0.136-1.822,0.272-2.412c0.136-0.643-0.136-1.181-0.516-1.438l-0.055-0.128c0,0,0.653-0.411,0.761-0.283
		c0.38,0.59,1.372,2.157,1.372,2.157C379.965,295.599,378.688,297.191,378.607,297.345 M380.414,295.677
		c2.824-4.374,3.477-8.866,3.7-11.06c0.026-1.004,0.046-1.953-0.016-2.847c-0.206-3.014-0.897-5.419-1.691-7.314
		c-1.112-2.652-2.426-4.298-3.081-5.198c-7.945-10.239-20.372-9.719-20.372-9.719c-4.171,0.087-7.609,0.979-10.404,2.205
		c-5.78,2.535-8.803,6.481-9.847,7.726c-3.535,4.942-4.453,9.427-4.625,12.586c-0.125,2.302,0.115,3.889,0.183,4.408
		c1.752,8.931,6.03,12.433,8.068,14.357c1.371,1.071,2.734,2.001,4.059,2.743c1.524,0.854,2.998,1.475,4.378,1.964
		c1.323,0.469,2.562,0.822,3.672,1.051c2.92,0.602,4.972,0.438,5.452,0.42c10.961-0.808,16.238-6.467,17.582-7.737
		C378.653,298.106,379.62,296.906,380.414,295.677 M376.739,298.185c-0.142-0.019-0.326-0.096-0.306-0.385
		c0.02-0.289,0.306-0.385,0.306-0.385s0.346-0.019,0.326,0.328C376.984,298.109,376.881,298.204,376.739,298.185 M376.8,296.529
		c0.123,0,0.408,0.406-0.041,0.54c0,0-0.244-0.019-0.244-0.211C376.515,296.664,376.678,296.529,376.8,296.529 M376.739,296.26
		c-0.652,0.153-0.529,0.674-0.408,0.866c0.122,0.134,0.02,0.213,0.02,0.251c0,0.123-0.149,0.153-0.169,0.443
		c0.02,0.595,0.271,0.673,0.515,0.673c0.245,0,0.286-0.058,0.469-0.27c0.428-0.693-0.02-1.117-0.02-1.117
		C377.33,296.529,377.065,296.146,376.739,296.26 M344.326,303.402c-2.404-1.656-7.335-5.043-10.309-13.357
		c-0.61-2.271-2.566-6.698,0.938-16.32c0.856-1.771,2.75-6.428,9.107-10.663c0.856-0.462,6.662-4.696,15.381-4.427
		c0,0,12.346-0.25,19.884,9.064c0.632,0.669,5.189,5.339,5.834,13.974c0.062,0.817,0.047,1.67,0.033,2.56
		c-0.041,1.962-0.162,7.582-6.192,14.934c-1.875,1.926-6.275,6.949-16.298,8.527C359.972,308.002,352.556,308.905,344.326,303.402
		 M380.074,298.475c5.42-6.929,5.42-12.24,5.541-14.05c0.366-8.276-3.789-14.051-4.767-15.436
		c-5.104-6.816-11.796-9.271-16.518-10.176c-3.385-0.648-5.743-0.5-5.743-0.5c-3.588,0.071-6.698,0.818-9.312,1.799
		c-2.015,0.756-3.734,1.63-5.149,2.532c-2.773,1.769-4.347,3.515-4.703,3.958c-3.588,3.854-5.277,7.77-6.071,10.896
		c-0.722,2.839-0.734,5.027-0.734,5.924c0.285,9.2,5.907,15.397,6.845,16.397c1.559,1.557,3.126,2.846,4.664,3.881
		c6.978,4.705,13.326,4.576,15.396,4.639c1.443-0.067,2.804-0.186,4.085-0.411C374.621,306.002,379.672,298.956,380.074,298.475
		 M381.467,303.498c-0.307-0.27-0.449-0.462-0.367,0c0,0.25,0.019,0.365,0.019,0.365c-0.591,0.539-0.733,0.615-0.733,0.615
		s-0.123,0.174-0.223,0.019l-0.14-0.115c-0.438-0.406-0.492-0.52-0.492-0.52s-0.143-0.174,0.081-0.385
		c0.225-0.211,0.244-0.231,0.449-0.211c0.162-0.039,0.183-0.077,0-0.251c-0.306-0.268-0.429-0.364-0.469-0.058
		c-0.061,0.174-0.347,0.346-0.347,0.346c-0.101,0.098-0.265,0.039-0.427-0.095c-0.163-0.134-0.326-0.289-0.02-0.634
		c0.366-0.348,0.59-0.597,0.917-0.463c0.266,0.077,0.428,0.096,0.204-0.172c-0.245-0.271-0.306-0.366-0.55-0.25
		c-0.428,0.346-1.405,1.288-1.405,1.288s-0.16,0.092-0.256,0.192c-0.115,0.12-0.134,0.252,0.398,0.252c0,0,1.182,1.115,1.366,1.519
		c0.122,0.155,0.101,0.29,0.101,0.29c0,0.232,0.123,0.309,0.408,0.038c0.549-0.52,1.385-1.23,1.527-1.422
		C381.669,303.651,381.669,303.651,381.467,303.498 M377.494,305.132c0,0-0.347,0-0.938,0.04c-0.49,0-0.49-0.212-0.408-0.462
		c0.163-0.443,0.672-0.404,1.223-0.347c0.305,0.02,0.143-0.193-0.061-0.385c-0.266-0.346-0.367-0.114-0.408,0.02
		c0,0-0.041,0.058-0.408,0.172c-0.289,0.017-0.473,0.103-0.617,0.208c-0.359,0.26-0.355,0.705-0.341,0.967
		c0.062,0.206,0.138,0.317,0.229,0.398c0.179,0.165,0.409,0.159,0.667,0.159c0.204,0,0.734-0.077,1.426-0.115
		c0.571,0.23,0.408,0.365,0.122,0.712c-0.468,0.307-0.794,0.288-0.794,0.288s-0.163-0.077-0.347-0.096
		c-0.243-0.192-0.285,0.115-0.285,0.115l0.306,0.444c0.183,0.211,0.325,0.115,0.468-0.116c0,0,0.061-0.019,0.651-0.307
		c0.592-0.289,0.693-0.75,0.714-0.981C378.695,305.132,378.023,305.056,377.494,305.132 M374.885,305.557
		c0.305-0.481-0.162-0.251-0.162-0.251s-0.041-0.018-0.429,0.251c-0.326,0.192-0.142,0.25,0.123,0.308
		c0.306,0.096,0.53,0.712,0.938,1.27c0.244,0.327,0.102,0.848-0.041,0.982c-0.428,0.328-0.59,0.231-1.039-0.114
		c-0.549-0.655-0.896-1.483-0.896-1.483c0.224-0.635-0.143-0.365-0.61-0.038c-0.673,0.153-0.408,0.346-0.306,0.366
		c0.101,0.019,0.142,0.057,0.386,0.326c0.183,0.192,0.429,0.789,0.693,1.174l0.157,0.122c0.549,0.438,1.055,0.258,1.595,0.013
		c0.876-0.521,0.489-1.174,0.306-1.579C375.537,306.787,375.11,306.095,374.885,305.557 M372.99,309.31
		c-0.244,0-0.285-0.172-0.285-0.172s-0.346-0.471-0.611-0.992c-0.172-0.334-0.263-0.689-0.367-0.954
		c0.102-0.365-0.162-0.249-0.652,0.021c-0.366,0.172-0.203,0.307-0.061,0.326l0.082,0.077c0,0,0.041,0.04,0.265,0.501
		c0.183,0.366,0.061,0.385,0.061,0.385s-0.041,0-0.713,0.268c-0.306,0.174-0.367,0.021-0.367,0.021s-0.163-0.232-0.346-0.674
		c0.142-0.693-0.205-0.327-0.734-0.134c-0.408,0.134-0.205,0.23-0.082,0.249c0.123,0.02,0.204,0.098,0.204,0.098l0.795,1.982
		l-0.02,0.172c-0.224,0.231-0.061,0.347,0.163,0.251c0.142-0.096,0.305-0.135,0.753-0.289c0.265-0.117,0.163-0.328-0.061-0.348
		c-0.162-0.019-0.183-0.133-0.183-0.133s-0.142-0.251-0.285-0.579c-0.082-0.248,0.143-0.327,0.143-0.327s0.163-0.077,0.632-0.307
		c0.366-0.098,0.366-0.039,0.59,0.23c0.123,0.192,0.347,0.346,0.286,0.712c-0.061,0.366,0.244,0.192,0.244,0.192l0.468-0.249
		C373.154,309.482,373.133,309.366,372.99,309.31 M368.793,310.426c0,0,0.021-0.134-0.121,0.309
		c-0.368,0.655-0.897,0.385-1.163,0.191c-0.814-0.538-0.652-1.423-0.366-1.905c0.305-0.404,0.977-0.096,1.284,0.077
		c0.265,0.155,0.265-0.096,0.265-0.096l-0.204-0.577c-0.245-0.193-0.428,0.173-0.428,0.173h-0.531c-0.346-0.039-0.55,0-0.774,0.193
		c-0.591,0.442-0.672,1.212-0.407,1.944c0.306,0.75,1.223,0.866,1.692,0.77c0.774-0.115,0.834-0.519,1.08-0.963
		C368.978,309.924,368.793,310.426,368.793,310.426 M332.327,293.894l0.489-0.174c0,0,0.306-0.097,0.367,0.289
		c0.061,0.328,0.081,0.462-0.123,0.559c-0.204,0.096-0.53,0.115-0.693-0.135C332.164,294.143,332.184,294.029,332.327,293.894
		 M331.859,295.395c-0.428,0.115-0.672,0.134-1.019-0.328c-0.224-0.365-0.244-0.443-0.041-0.539c0,0,0.279-0.114,0.527-0.223
		c0.137-0.058,0.264-0.145,0.329-0.145c0.183,0,0.346-0.058,0.468,0.367C332.286,294.972,332.164,295.259,331.859,295.395
		 M332.592,295.163c0-0.115-0.02-0.153,0.163-0.096c0.305,0.134,0.489,0.058,0.672-0.019c0.367-0.578,0.123-0.944,0-1.154
		c0,0-0.224-0.366-0.51-0.943c-0.142-0.5-0.305-0.31-0.305-0.193c0,0.114-0.041,0.134-0.204,0.249
		c-0.386,0.212-1.956,0.789-1.956,0.789h-0.244c-0.347-0.249-0.265,0-0.142,0.406c0.121,0.268,0.427,0.827,0.856,1.597
		c0.346,0.461,0.916,0.385,1.141,0.326C332.612,295.876,332.592,295.357,332.592,295.163 M346.099,306.884l-0.347-0.231
		c-0.448-0.289-0.305,0.096-0.305,0.096l0.082,0.251l-0.49,0.884c-0.265,0.404-0.468-0.115-0.468-0.115s0-0.058-0.244-1.078
		c-0.204-0.789-0.244-0.924-0.672-1.174c-0.53-0.269-0.285,0.134-0.285,0.134l-0.042,0.328l-1.127,1.649
		c-0.611,0-0.299,0.199-0.299,0.199s0,0.038,0.49,0.328c0.265,0.174,0.163-0.116,0.102-0.347c0,0,0.326-0.48,0.671-1.097
		c0.082-0.211,0.347-0.25,0.408,0c0.061,0.251,0.305,1.482,0.55,2.31c0.306,0.539,0.509,0.193,0.815-0.191
		c0,0,0.55-1.001,0.814-1.482c0,0,0.102-0.116,0.245-0.213C346.282,306.981,346.099,306.884,346.099,306.884 M330.643,271.6
		c-0.135-0.105-0.131-0.315-0.072-0.527c0.048-0.172,0.181-0.347,0.235-0.467l0.084-0.109c0,0,0.059-0.097,0.358-0.007
		c0,0,0.378,0.192,0.82,0.432c0.625,0.34,1.44,0.807,1.44,0.807c0.184,0.589,0.34,0.186,0.34,0.186s0.143-0.347,0.428-0.846
		c0.251-0.321,0.034-0.449-0.21-0.257c-0.218,0.11-0.374,0.026-0.374,0.026s-0.554-0.319-1.098-0.62
		c-0.413-0.227-0.821-0.424-0.979-0.573c-0.258-0.097-0.161-0.257-0.161-0.257s0.014-0.025,0.156-0.275
		c0.123-0.206,0.265-0.276,0.354-0.334c0.067-0.058,0.109-0.039,0.298-0.051c0.183,0,0.286-0.09,0.299-0.148
		c0.014-0.078-0.016-0.084-0.213-0.187c-0.686-0.283-0.774,0.096-0.774,0.096c-0.176,0.13-0.363,0.475-0.616,0.896
		c-0.273,0.453-0.571,0.994-0.803,1.453c-0.286,0.539-0.211,0.616,0.033,0.924C330.596,272.03,330.766,271.793,330.643,271.6
		 M352.169,309.694c0.082-0.172,0.062-0.212,0.347-0.366c0.306-0.154-0.081-0.27-0.408-0.327c-0.326-0.058-0.447,0.04-0.447,0.04
		s-0.448,0.422-1.141,1.115c-0.448,0.425-0.55-0.058-0.55-0.058s-0.143-0.596-0.326-1.405c0-0.423-0.224-0.5-0.774-0.75
		c-0.489-0.134-0.305,0.136-0.204,0.213c0.102,0.076,0.102,0.134,0.081,0.364c-0.02,0.29-0.692,1.792-0.692,1.792
		c-0.041,0.153-0.184,0.172-0.184,0.172c-0.468-0.019-0.184,0.212-0.184,0.212s0.124,0.039,0.591,0.211
		c0.266,0.174,0.367-0.23,0.102-0.25c0,0,0.143-0.501,0.408-1.212c0.265-0.25,0.286-0.231,0.346,0.097
		c0.041,0.218,0.103,0.438,0.168,0.83c0.032,0.193,0.07,0.43,0.117,0.729c0.204,0.327,0.265,0.25,0.408,0.115
		c0.143-0.115,0.834-0.808,1.386-1.291c0.244-0.153,0.203,0.097,0.203,0.097s-0.02,0.019-0.305,1.001l-0.184,0.383
		c-0.305,0.117-0.121,0.251-0.121,0.251s0.224,0.078,0.752,0.193c0.307,0.058,0.225-0.076,0.042-0.27c0,0,0.03-0.166,0.102-0.404
		C351.844,310.711,352.089,309.974,352.169,309.694 M335.331,263.741c0.28-0.013,0.347,0.019,0.347,0.019l0.836,0.693
		c0.38,0.308,1.148,1.04,1.148,1.04s0.095,0.083,0.067,0.224c-0.026,0.18-0.088,0.29,0,0.341c0.089,0.051,0.157,0.064,0.273-0.064
		c0.434-0.469,1.534-1.598,1.534-1.598l0.544-0.5c0,0,0.048-0.199-0.102-0.385c-0.176-0.219-0.258-0.334-0.428-0.289
		c-0.068,0.032-0.089,0.07-0.054,0.352c-0.02,0.302-0.014,0.392-0.13,0.521c-0.21,0.263-0.72,0.75-0.72,0.75
		s-0.169,0.154-0.34,0.057c-0.312-0.224-0.781-0.705-0.781-0.705s-0.13-0.154,0.081-0.36c0.258-0.269,0.353-0.358,0.353-0.358
		s0.055-0.058,0.231-0.052c0.176,0.007,0.361-0.006,0.266-0.166c-0.123-0.18-0.15-0.295-0.523-0.431
		c-0.095-0.012-0.198-0.006-0.163,0.199c0.007,0.154,0,0.212-0.075,0.263c-0.122,0.103-0.393,0.346-0.393,0.346
		s-0.218,0.141-0.354,0.064c-0.312-0.212-0.496-0.301-0.597-0.5c-0.088-0.18-0.042-0.34,0.041-0.436
		c0.176-0.206,0.597-0.731,0.856-0.803c0.123-0.032,0.279-0.083,0.707-0.019c0.156-0.007,0.305-0.083,0.156-0.238
		c-0.231-0.141-0.448-0.359-0.659-0.289c-0.136,0.025-0.169,0.039-0.299,0.141c-0.258,0.205-1.263,1.193-1.263,1.193
		c-0.143,0.167-0.318,0.455-0.639,0.686C335.168,263.517,335.06,263.741,335.331,263.741 M340.7,260.078
		c0.435,0.282,0.76,0.431,0.76,0.431s0.326,0.218,0.136,0.372l-0.625,0.539c0,0-0.272,0.154-0.38-0.154
		c-0.108-0.616-0.217-1.078-0.217-1.078S340.292,259.847,340.7,260.078 M339.784,259.854l0.146,0.098
		c0.064,0.235,0.249,0.806,0.386,1.399c0.195,0.835,0.317,1.684,0.317,1.684c-0.192,0.33-0.055,0.396,0.154,0.296
		c0.116-0.055,0.228-0.156,0.383-0.303l0.122-0.101c0.145-0.18,0.003-0.266-0.169-0.2c-0.142,0.012-0.203-0.09-0.284-0.398
		c-0.082-0.308,0.067-0.475,0.067-0.475s0.326-0.206,1.019-0.821c0.098-0.041,0.176-0.078,0.261-0.069
		c0.161,0.016,0.315,0.149,0.69,0.402c-0.089,0.458,0.052,0.456,0.382,0.213c0.2-0.148,0.515-0.385,0.812-0.662
		c0.123-0.211-0.145-0.192-0.28-0.187c-0.136,0.007-0.194-0.057-0.194-0.057s-0.394-0.187-0.926-0.475
		c-0.523-0.283-1.177-0.664-1.723-0.988c-0.152-0.09-0.272-0.169-0.374-0.195c-0.116-0.029-0.188,0.001-0.274,0.041
		c-0.165,0.074-0.328,0.23-0.573,0.424C339.356,259.789,339.784,259.854,339.784,259.854 M329.149,274.448
		c0.31-0.702,0.293-1.09,0.95-1.09c0.225,0.042,0.401,0.16,0.534,0.347c0.109,0.154,0.194,0.354,0.194,0.596
		c-0.163,0.846-0.313,0.962-0.572,0.886c-0.57-0.115-0.964-0.238-0.964-0.238S328.979,274.91,329.149,274.448 M328.864,275.706
		c0,0,0.111,0,0.292,0.033c0.323,0.061,0.868,0.188,1.385,0.316c0.592,0.148,1.181,0.266,1.44,0.479
		c0.123,0.538,0.244,0.154,0.408-0.616c0.285-0.692-0.285-0.231-0.285-0.231s-0.326,0.013-0.978-0.257
		c-0.448-0.269,0-0.609,0.244-0.686c0.11-0.035,0.273-0.083,0.46-0.135c0.227-0.063,0.49-0.155,0.737-0.217
		c0.366-0.079,0.508-0.283,0.72-0.9c0.18-0.438-0.03-0.368-0.174-0.256l-0.112,0.142c-0.285,0.27-0.489,0.34-1.263,0.5
		c-0.4,0.122-0.421,0.155-0.503-0.23c-0.014-0.244-0.094-0.421-0.168-0.553c-0.136-0.24-0.356-0.322-0.647-0.372
		c-0.978,0-1.193,0.628-1.27,0.848c-0.068,0.19-0.182,0.462-0.364,0.916c-0.137,0.337-0.233,0.745-0.389,1.189
		C328.328,276.251,328.864,275.706,328.864,275.706 M332.551,267.508c0,0,0.23,0.092,0.502,0.264
		c0.282,0.178,0.654,0.418,0.992,0.635c0.488,0.308,0.909,0.583,0.909,0.583l0.159,0.199c0,0.07-0.027,0.366,0.211,0.211
		c0.272-0.377,0.649-0.949,0.649-0.949c0.041-0.193-0.326-0.039-0.326-0.039c-0.449-0.076-1.06-0.654-1.06-0.654
		s-0.155-0.122,0.048-0.469c0.204-0.346,0.53-0.692,0.53-0.692s0.087-0.167,0.302-0.161c0.072,0.002,0.131,0.041,0.235,0.09
		c0.206,0.097,0.386,0.248,0.557,0.391c0.167,0.142,0.328,0.277,0.291,0.354c-0.078,0.512,0.18,0.14,0.238,0.063
		c0.652-0.77,0.672-0.77,0.672-0.77s0.143-0.282-0.347-0.09c-0.085-0.058-0.224-0.128-0.393-0.247
		c-0.333-0.233-0.778-0.582-1.147-0.875c-0.429-0.342-0.783-0.648-0.783-0.648c-0.041-0.045-0.058-0.141-0.058-0.27
		c0.014-0.231-0.252-0.155-0.308-0.103c-0.408,0.424-1.121,1.065-0.306,0.988l0.165,0.06c0.637,0.418,0.866,0.733,0.718,0.838
		c-0.039,0.148-0.283,0.38-0.393,0.524c-0.242,0.313-0.348,0.477-0.348,0.477s-0.211,0.232-0.489,0.013l-0.154-0.076
		c-0.584-0.299-0.613-0.475-0.613-0.475c-0.034-0.36-0.312-0.193-0.353-0.039C332.246,267.296,331.777,267.699,332.551,267.508
		 M345.671,309.233c-0.448,0.019-0.325,0.519-0.325,0.519l-0.02,0.116c0,0-0.306,0.153-0.244,0.269c0.061,0.115,0.305,0.096,0.632,0
		c0.243-0.135,0.366-0.23,0.386-0.481C346.12,309.233,345.834,309.252,345.671,309.233 M339.559,303.303
		c0,0.213,0.224,0.098,0.224,0.098s0.02-0.02,0.163-0.461c0.06-0.193,0.02-0.193-0.184-0.366c0,0-0.333-0.268-0.734-0.694
		c-0.209-0.224-0.392-0.492-0.651-0.789c-0.163-0.212-0.326-0.097-0.814,0.02c-0.449,0.096,0.142,0.249,0.142,0.249l0.305-0.02
		l0.347,0.366c0.041,0.079,0.095,0.079,0.034,0.251c-0.029,0.067-0.728,0.736-1.143,1.126c-0.174,0.164-0.318,0.277-0.318,0.277
		c-0.671-0.058-0.312,0.212-0.312,0.212s0.129,0.231,0.659,0.636c0.224,0.152,0.244,0.076,0.244-0.251c0,0,0.101-0.135,0.428-0.481
		c0.408-0.463,0.917-0.827,1.141-0.944C339.477,302.515,339.6,302.843,339.559,303.303 M360.638,284.078
		c0.326,0,0.19,0.359,0.19,0.359l-0.081,1.053c-0.026,0.255,0.163,0.205,0.408,0.205c0.244,0,0.19-0.179,0.19-0.179
		s0.027-0.411,0.082-1.155c0.054-0.232,0.38-0.219,0.571-0.245c0.19-0.024,0.176-0.012,0.23-0.166
		c0.055-0.155-0.041-0.18-0.421-0.282c-0.489-0.063-1.208-0.039-1.372-0.039c-0.163,0-0.272,0.051-0.272,0.179
		C360.163,283.937,360.312,284.103,360.638,284.078 M336.137,299.302l0.239-0.039c0.14,0.037,0.283,0.165,0.371,0.307
		c0.144,0.231,0.347,0.521,0.266,0.867c-0.082,0.347,0.162,0.212,0.162,0.212s0.021,0,0.367-0.231
		c0.204-0.115-0.204-0.385-0.204-0.385l-0.183-0.403c-0.591-0.982-1.263-0.616-1.549-0.443c-0.509,0.326-0.367,1.039-0.163,1.366
		c0.183,0.519,0.163,0.655,0.021,0.866c-0.204,0.25-0.571,0.057-0.734-0.153c-0.367-0.5-0.204-1.289-0.204-1.289
		c-0.122-0.271-0.387,0-0.652,0.307c-0.224,0.212,0.041,0.27,0.041,0.27s0.061,0.019,0.223,0.153c0,0,0.143,0.655,0.55,1.04
		c0.448,0.403,1.182,0.346,1.426,0.095c0.468-0.691,0.183-1.25,0.02-1.691C335.994,299.725,335.953,299.417,336.137,299.302
		 M331.318,285.585c0.025-0.198-0.049-0.499-0.017-0.661c0.123-0.236-0.23-0.333-0.312-0.102c-0.081,0.232-0.421,0.224-0.421,0.224
		s-0.013-0.006-1.236-0.044c-0.653,0,0-0.462,0-0.462s0.348-0.287,0.742-0.616c0.43-0.36,0.916-0.774,1.065-0.956l0.182-0.208
		c0.061-0.134,0.035-0.279,0.035-0.452l-0.043-0.212c-0.082-0.091-0.229-0.083-0.229-0.083s-0.371-0.01-1.568-0.073
		c-0.135-0.008-0.28-0.005-0.434-0.016c-0.297-0.021-0.633-0.06-1.013-0.079c0,0-0.061-0.019-0.191-0.179
		c-0.168-0.222-0.29-0.201-0.344-0.073c-0.026,0.059-0.026,0.145-0.034,0.24c-0.018,0.194-0.022,0.428-0.022,0.565
		c0,0.346,0.265,0.262,0.265,0.262s0.024-0.003,0.121-0.084l0.206-0.191c0,0,0.218-0.005,1.122,0.016
		c0.201,0.005,0.438,0.017,0.711,0.024c0.367,0,0.164,0.346,0.164,0.346s-0.909,0.76-1.618,1.371
		c-0.454,0.392-0.827,0.739-0.827,0.739c0,0.002,0.003,0.037,0.041,0.815c0.043,0.29,0.167,0.306,0.252,0.253l0.115-0.144
		l0.244-0.237l2.649-0.006C331.185,285.901,331.291,285.804,331.318,285.585 M328.132,278.606c0,0,0.041-0.456,0.639-0.559
		c0.333-0.076,0.625-0.096,1.114-0.012c0.428,0.096,1.392,0.34,1.432,1.117c-0.02,0.333,0.041,0.52-0.503,0.807
		c-0.258,0.142-0.333,0.174-0.93,0.174c-0.653-0.045-1.013-0.122-1.325-0.372C328.253,279.414,327.935,279.189,328.132,278.606
		 M330.025,280.941c0.971-0.154,1.259-0.674,1.381-0.867c0.198-0.269,0.261-0.482,0.283-0.923c0.095-0.809-0.236-1.291-0.685-1.597
		c-0.238-0.162-0.51-0.293-0.773-0.357c-0.303-0.074-0.597-0.042-0.818-0.054c-0.772,0.077-1.249,0.506-1.485,0.917
		c-0.238,0.413-0.233,0.808-0.233,0.808C327.533,280.505,329.006,281.056,330.025,280.941 M357.508,310.599
		c-0.163-0.059-0.367-0.173-0.387-0.328c0-0.192,0.224-0.365,0.549-0.365c0.387,0,0.714,0.134,0.958,0.404
		c0.224,0.27,0.326,0.057,0.347-0.29c0-0.327-0.184-0.365-0.305-0.231c0,0-0.306-0.077-0.917-0.134
		c-0.513-0.025-0.805,0.156-0.969,0.351c-0.102,0.123-0.164,0.252-0.171,0.342c0,0.712,0.408,0.905,0.937,1.098
		c0.733,0.21,0.815,0.307,0.896,0.557c0.082,0.251-0.123,0.385-0.591,0.481c-0.448,0-0.998-0.442-0.998-0.442
		c-0.387-0.328-0.326,0-0.306,0.423c0,0.25,0.101,0.174,0.225,0.174c0.122,0,0.244-0.038,0.244-0.038s0.019,0,0.346-0.021
		c0.082,0.039,0.286,0.155,0.591,0.193c0.958-0.077,0.958-0.5,1.08-0.846C359.219,310.985,357.853,310.773,357.508,310.599
		 M332.714,298.59c0,0-0.429-0.636,0.142-1.25c0.326-0.385,1.447-1.155,2.119-0.328c0.183,0.309,0.123,0.923-0.305,1.289
		C334.242,298.666,333.529,299.128,332.714,298.59 M334.995,298.975c0.168-0.158,0.266-0.316,0.348-0.471
		c0.336-0.641,0.057-1.236-0.124-1.609c-0.917-1.403-2.383-0.595-2.383-0.595c-1.243,1.078-0.509,2.116-0.224,2.541
		C333.611,299.725,334.629,299.242,334.995,298.975 M341.82,304.882c-0.101,0.579-0.163,0.906-0.937,1.501
		c-0.326,0.116-0.693,0.27-0.999-0.057c-0.285-0.347-0.428-0.77,0.143-1.617c0.204-0.268,0.625-0.604,1.042-0.632
		c0.124-0.01,0.247,0.021,0.363,0.073C341.433,304.151,341.923,304.344,341.82,304.882 M342.31,305.922
		c0.428-1.135-0.673-1.905-0.673-1.905c-0.367-0.209-0.702-0.27-0.999-0.267c-0.654,0.002-1.119,0.381-1.344,0.633
		c-0.57,1.02,0.021,1.732,0.326,2.021c0.205,0.23,0.632,0.351,1.141,0.468C341.678,306.948,342.106,306.307,342.31,305.922
		 M356.162,253.862c0.747-0.077,1.331-0.257,1.453,0.539c0,0.231,0.014,0.54-0.692,0.86c-0.747,0.051-0.828,0.051-0.828,0.051
		s-0.176-0.012-0.163-0.218c-0.041-0.551-0.082-0.77-0.082-0.77l-0.026-0.039C355.823,254.285,355.673,253.9,356.162,253.862
		 M354.668,253.939c0.123,0,0.312,0.141,0.366,0.334c0,0.192,0.232,1.629,0.259,2.078c0.026,0.333-0.014,0.539-0.109,0.667
		c-0.299,0.18-0.068,0.219,0.122,0.219c0.191,0,0.476-0.052,0.911-0.103c0.312-0.051,0.067-0.192-0.136-0.347
		c0,0-0.082-0.308-0.082-0.885c0.095-0.436,0.55-0.244,0.707-0.084c0.157,0.161,0.733,0.892,1.032,1.13
		c0.123,0.115,0.55,0.109,0.857,0.115c0.075,0,0.278,0,0.278-0.102c0-0.103-0.081-0.109-0.38-0.251
		c-0.543-0.345-0.72-0.673-0.924-0.956c-0.176-0.275,0.094-0.377,0.34-0.5c0.543-0.339,0.557-0.775,0.557-0.904
		c-0.278-1.065-1.27-0.912-1.895-0.892c-0.394,0.025-1.291,0.16-1.63,0.199c-0.217,0.007-0.326,0.013-0.347,0.141
		C354.573,253.926,354.668,253.939,354.668,253.939 M363.734,288.005c-0.081,0.461,0,0.539,0.462,1.051
		c0.244,0.385-0.218,0.283-0.218,0.283c-0.217-0.026-0.298-0.207-0.461-0.051c-0.163,0.281,0.109,0.384,0.516,0.539
		c0.299,0.051,0.543,0.153,0.734-0.257c0.19-0.667-0.15-0.769-0.34-0.975c-0.109-0.18-0.095-0.333,0.122-0.231
		c0.218,0.103,0.244,0.078,0.354-0.077c0.108-0.154,0.054-0.231-0.218-0.359C364.197,287.696,363.816,287.876,363.734,288.005
		 M354.37,311.061c-0.183,0-0.53-0.097-0.53-0.097s-0.061-0.077,0-0.23c0.205-0.347,0.367-0.694,0.53-0.347
		C354.533,310.964,354.553,311.061,354.37,311.061 M355.756,312.388c-0.224-0.289-0.286-0.77-0.347-0.904
		c-0.096-0.302-0.218-0.686-0.303-1.025c-0.079-0.309-0.127-0.579-0.165-0.708c-0.102-0.23-0.245-0.308-0.53-0.308
		c-0.366-0.078-0.509-0.097-0.366,0.193c-0.02,0.172-0.13,0.423-0.13,0.423c-0.428,0.712-1.032,1.52-1.032,1.52
		s-0.204,0.194-0.407,0.211c-0.205,0.02-0.286,0.212-0.082,0.232c0.57,0.116,0.632,0.109,0.632,0.109s0.57,0.147,0.081-0.341
		l0.326-0.481c0,0,0.041-0.038,0.224-0.038c0.183,0,0.652,0.057,0.652,0.057s0.367,0.097,0.386,0.347
		c0.102,0.347,0.306,0.463,0,0.636c-0.081,0.058-0.142,0.172,0.163,0.193c0.306,0.018,0.958,0.115,0.958,0.115
		S356,312.581,355.756,312.388 M376.608,261.058c-0.354,0.44-0.772,0.861-0.772,0.861c-0.788,0.154-0.218,0.373,0.597,0.834
		c0.217,0.243,0.286-0.309,0.286-0.309s0.547-0.719,1.039-1.374c0.212-0.28,0.391-0.548,0.548-0.745
		c0.313-0.391,0.451-0.318,0.451-0.318c0.366-0.193,0.122-0.334-0.653-0.757c-0.529-0.539-0.38,0.347-0.38,0.347
		S377.131,260.406,376.608,261.058 M365.31,286.644c0.543,0.103,0.734-0.103,0.842-0.41c0.109-0.54-0.407-0.771-0.625-1.027
		c0-0.283,0.163-0.206,0.489-0.052c0.299-0.102,0.218-0.282,0.055-0.436c-0.707-0.438-1.006-0.027-1.06,0.229
		c0,0.515,0.19,0.617,0.543,0.951c0.272,0.384-0.299,0.282-0.299,0.282c-0.108-0.205-0.244-0.231-0.407-0.103
		C364.685,286.336,364.876,286.439,365.31,286.644 M343.801,258.821c0.578,0.192,0.877,0.092,1.222-0.005
		c0.274-0.067,0.542-0.142,0.778-0.22c0.257-0.015,0.45,0.07,0.574,0.169c0.19,0.154,0.219,0.376,0.071,0.602
		c-0.543,0.705-1.379,0.526-1.379,0.526c-0.937-0.308-0.781-0.064-0.496,0.321c0.279,0.378,0.646,0.192,0.646,0.192
		s0.251-0.109,1.188-0.533c0.489-0.25,0.561-0.474,0.643-0.687c0.116-0.256,0.042-0.528,0.042-0.616c0,0-0.028-0.044-0.11-0.212
		c-0.387-0.827-1.243-0.641-1.515-0.578c-0.381,0.091-0.788,0.167-1.38,0.207c-0.414-0.058-0.311-0.443-0.21-0.604
		c0.244-0.282,0.428-0.34,0.761-0.468c0.461-0.147,0.611-0.05,0.794,0.026c0.183,0.077,0.258,0.146,0.387,0.109
		c0.15-0.154,0.055-0.27-0.162-0.603c-0.205-0.276-0.483,0-0.483,0s-0.041,0.051-0.224,0.121c-0.435,0.045-0.801,0.238-0.958,0.302
		c-0.727,0.302-0.842,0.738-0.835,1.02C343.108,258.475,343.577,258.738,343.801,258.821 M372.074,259.135l-0.326,0.462
		c0,0-0.95-0.013-0.013,0.411c0.367,0.346,0.789,0.321,0.462-0.141l0.108-0.27l0.747-1.271c0,0,0.366-0.616,0.408,0.154
		c0.204,0.923,0.529,2.348,0.652,2.578c0.122,0.232,0.326,0.578,0.651,0.154c0.119-0.186,0.203-0.364,0.309-0.534
		c0.392-0.632,0.73-1.15,0.97-1.507c0.231-0.344,0.419-0.538,0.419-0.538c0.394-0.051,0.747-0.153,0.137-0.423
		c-0.611-0.347-0.748-0.424-0.572,0.115c-0.366,0.68-0.95,1.579-0.95,1.579s-0.34,0.308-0.38-0.154
		c-0.326-1.694-0.543-2.541-0.543-2.541s0.014-0.272-0.489-0.551c-0.625-0.347-0.816-0.167-0.462,0.256
		C373.161,257.377,372.074,259.135,372.074,259.135 M362.838,287.646c-0.217-0.026-0.244,0.025-0.38,0.256
		c-0.163,0.41-0.272,0.719-0.461,0.461c-0.326-0.667-0.272-0.692-0.272-0.692s-0.109-0.179-0.326-0.154
		c-0.217,0.026-0.272,0-0.217,0.257c0,0,0.515,1.207,0.515,1.437c0.137,0.231,0.245,0.206,0.381,0.231s0.326,0,0.38-0.256
		c0.49-1.104,0.57-1.359,0.57-1.359S363.055,287.671,362.838,287.646 M350.79,254.716c0.109,0.038,0.251,0.289,0.251,0.289
		c0.003,0.02,0.104,0.383,0.209,0.829c0.134,0.565,0.281,1.26,0.334,1.55c0.034,0.18-0.026,0.263-0.026,0.263
		c-0.048,0.09-0.17,0.128-0.157,0.257c0.014,0.128,0.238,0.103,0.238,0.103s0.054-0.014,0.38-0.097
		c0.163-0.096,1.426-0.328,1.997-0.443c0.455-0.019,0.414-0.23,0.414-0.23s0-0.117-0.006-0.341
		c-0.143-0.456-0.326-0.007-0.496,0.161c-0.136,0.128-0.509,0.18-1.006,0.276c-0.441,0.115-0.482-0.142-0.482-0.142
		s-0.109-0.359-0.198-0.854c-0.068-0.43,0.198-0.48,0.198-0.48s0.197-0.058,0.461-0.09c0.265-0.032,0.36,0.039,0.442,0.11
		l0.23,0.019c0.109-0.116,0.007-0.256-0.055-0.596c-0.074-0.392-0.278-0.129-0.379,0.038c-0.116,0.186-0.387,0.186-0.782,0.23
		c-0.279,0-0.305-0.141-0.305-0.141s-0.116-0.174-0.163-0.738c-0.027-0.32,0.346-0.34,0.346-0.34s0.469-0.09,0.714-0.115
		c0.244-0.026,0.455,0,0.549,0.07c0.095,0.071,0.109,0.123,0.238,0.142c0.183,0.012,0.109-0.18,0.074-0.314
		c-0.074-0.328-0.305-0.263-0.549-0.219c-0.849,0.09-2.113,0.379-2.54,0.507C350.477,254.542,350.667,254.663,350.79,254.716
		 M361.018,282.358c0.353,0,0.325-0.051,0.516-0.359c0.191-0.18,0.218-0.026,0.38,0.179c0.082,0.205,0.163,0.258,0.489,0.258
		c0.3,0,0-0.488-0.19-0.873c-0.163-0.18,0.081-0.437,0.081-0.437s0.136-0.179,0.299-0.333c0.163-0.154,0.136-0.18-0.136-0.282
		c-0.299-0.103-0.354,0.128-0.354,0.128l-0.149,0.205c-0.108,0.282-0.312-0.18-0.366-0.333c-0.055-0.155-0.299-0.155-0.49-0.155
		c-0.19,0-0.136,0.207,0.218,0.745c0.162,0.181,0.081,0.256-0.408,0.898C360.666,282.307,360.91,282.358,361.018,282.358
		 M346.701,256.614c0.123,0,0.163-0.09,0.218-0.212c0.081-0.154,0.136-0.289,0.441-0.487c0.197-0.128,0.505-0.244,0.674,0.141
		c0,0,0.333,0.826,0.592,1.513c0.17,0.453,0.305,0.867,0.305,0.867s-0.449,0.648,0.203,0.34c0.639-0.192,1.46-0.462,0.673-0.642
		c-0.244-0.23-0.226-0.34-0.233-0.384c-0.211-0.59-0.815-2.175-0.815-2.175s-0.061-0.154,0.211-0.237
		c0.299-0.103,0.468-0.212,0.958,0.025c0.101,0.045,0.36,0.097,0.25-0.206c-0.122-0.217-0.236-0.333-0.433-0.423
		c-0.279-0.029-0.368,0.102-0.463,0.128c-0.325,0.089-1.461,0.456-1.461,0.456c-0.753,0.256-1.186,0.43-1.186,0.43
		s-0.097,0.308-0.09,0.468C346.551,256.467,346.578,256.614,346.701,256.614 M359.647,257.108c0.748,0.038,1.181,0.179,0.448-0.437
		l0.082-1.655c0,0,0.081-0.448,0.407-0.025c0.571,0.693,1.467,1.758,1.467,1.758s0.11,0.113,0.258,0.263
		c0.31,0.315,0.78,0.702,0.734-0.071c0.163-2.117,0.299-2.657,0.299-2.657s0.068-0.218,0.312-0.218s0.353-0.256-0.381-0.295
		c-0.774-0.077-0.746-0.025-0.339,0.398c-0.081,1.193-0.15,1.655-0.15,1.655s0.082,0.54-0.326,0.115
		c-0.496-0.62-0.936-1.086-1.212-1.433c-0.565-0.708-0.662-0.915-0.662-0.915s-0.217-0.193-0.665-0.193
		c-0.448,0-0.747,0.051-0.096,0.539c0.041,0.808-0.19,2.618-0.19,2.618S358.887,257.069,359.647,257.108 M363.272,284.592
		c0.218-0.333,0.3,0.025,0.3,0.025v0.333C363.11,285.054,363.218,284.925,363.272,284.592 M362.321,285.695
		c0.436,0.308,0.517,0.102,0.653-0.128c0.054-0.207,0.191-0.257,0.353-0.232c0.163,0.025,0.354,0.078,0.354,0.36
		c0,0.283,0.272,0.359,0.461,0.359c0.19,0,0.109-0.103,0.055-0.333s-0.136-0.59-0.218-1.207c-0.081-0.461-0.244-0.564-0.516-0.59
		c-0.271-0.025-0.271-0.025-0.435,0.334c-0.217,0.281-0.407,0.897-0.407,0.897C362.458,285.335,362.321,285.695,362.321,285.695
		 M368.57,258.674c0.451,0.128,0.834,0.254,1.175,0.247c0.582-0.014,0.996-0.323,1.433-0.978c0.693-1.462,0.746-1.681,1.032-1.642
		c0.285-0.039,0.313-0.167-0.055-0.321c-0.366-0.154-0.249-0.116-0.561-0.206c-0.285-0.09-0.217,0.154-0.149,0.206l0.054,0.243
		c0,0-0.205,0.383-0.365,0.708c-0.11,0.223-0.208,0.454-0.391,0.705c-0.121,0.176-0.232,0.38-0.348,0.521
		c-0.311,0.38-0.655,0.54-1.31,0.287c-0.733-0.346-0.57-0.885-0.407-1.616c0.285-0.923,0.53-1.5,0.815-1.5
		c0.326-0.039,0.38-0.115-0.191-0.347c-1.059-0.423-1.1-0.385-1.018-0.115c0.08,0.192-0.042,0.347-0.042,0.347
		s-0.04,0.318-0.145,0.669c-0.076,0.259-0.186,0.536-0.289,0.716C367.605,257.442,367.47,258.288,368.57,258.674"/>
	<rect x="0.427" y="471.629" fill="#D8D9D8" width="61.051" height="13.152"/>
	<rect x="0.427" y="472.198" fill="#D8D9D8" width="13.152" height="72.585"/>
	<rect x="630.107" y="471.629" fill="#D8D9D8" width="61.051" height="13.152"/>
	<rect x="48.344" y="419.832" fill="#D8D9D8" width="594.797" height="13.152"/>
	<rect x="3.462" y="528.593" fill="#D8D9D8" width="689.884" height="13.152"/>
	<rect x="687.71" y="471.585" fill="#D8D9D8" width="13.152" height="72.585"/>
	<rect x="48.496" y="420.185" fill="#D8D9D8" width="13.152" height="51.443"/>
	<rect x="629.937" y="420.185" fill="#D8D9D8" width="13.152" height="51.443"/>
	<polygon fill="#BCBCBC" points="499.318,356.543 453.345,356.543 450.894,354.598 450.894,329.927 499.318,329.927 	"/>
	<polygon fill="#808080" points="499.318,329.927 510.778,336.581 510.778,353.955 499.318,356.543 	"/>
	<polygon fill="#BCBCBC" points="491.371,410.876 459.026,410.882 459.026,354.694 491.371,354.688 	"/>
	<polygon fill="#808080" points="491.371,410.876 502.091,403.852 502.091,354.7 491.371,354.7 	"/>
	<polygon fill="#808080" points="491.371,356.543 453.345,356.543 450.894,354.694 491.371,354.694 	"/>
</g>
</svg>
