<?xml version="1.0" encoding="utf-8"?>
<!-- Generator: Adobe Illustrator 15.0.0, SVG Export Plug-In . SVG Version: 6.00 Build 0)  -->
<!DOCTYPE svg PUBLIC "-//W3C//DTD SVG 1.1//EN" "http://www.w3.org/Graphics/SVG/1.1/DTD/svg11.dtd">
<svg version="1.1" id="Layer_1" xmlns="http://www.w3.org/2000/svg" xmlns:xlink="http://www.w3.org/1999/xlink" x="0px" y="0px"
	 width="83.428px" height="134.103px" viewBox="256.652 353.328 83.428 134.103"
	 enable-background="new 256.652 353.328 83.428 134.103" xml:space="preserve">
<path fill="#EC1C24" d="M300.125,406.733v-32.045c0-1.392-1.127-2.52-2.52-2.52c-1.392,0-2.519,1.128-2.519,2.52v32.045
	c0,1.391,1.127,2.519,2.519,2.519C298.998,409.252,300.125,408.124,300.125,406.733"/>
<path fill="#4D4D4D" d="M340.076,445.173c0.301,23.037-18.131,41.955-41.166,42.254c-23.036,0.303-41.953-18.129-42.255-41.166
	c-0.3-23.035,18.132-41.954,41.167-42.254C320.859,403.707,339.776,422.138,340.076,445.173"/>
<path fill="#231F20" d="M297.471,404.021c-22.871,0.487-41.114,19.322-40.815,42.24c0.3,22.918,19.027,41.271,41.902,41.162
	L297.471,404.021z"/>
<path fill="#231F20" d="M310.843,404.232c0.034,2.71-2.497,4.94-5.657,4.98l-13.56,0.177c-3.159,0.042-5.749-2.122-5.785-4.832
	l-0.076-5.837c-0.036-2.711,2.498-4.94,5.657-4.982l13.56-0.177c3.16-0.041,5.749,2.123,5.784,4.833L310.843,404.232z"/>
<path opacity="0.2392" fill="#FFFFFF" enable-background="new    " d="M285.133,417.723h-5.973
	c-6.386,4.394-11.031,10.855-13.262,18.144v12.762h5.628c0.569-0.701,0.906-1.598,0.894-2.572c-0.12-9.188,4.478-17.564,12.3-22.412
	c0.145-0.09,0.283-0.188,0.412-0.293L285.133,417.723"/>
<path fill="#EC1C24" d="M305.021,372.277c0,4.21-3.414,7.624-7.624,7.624s-7.624-3.414-7.624-7.624s7.624-18.949,7.624-18.949
	S305.021,368.067,305.021,372.277"/>
<path fill="#F9A719" d="M300.691,373.751c0,1.819-1.475,3.295-3.294,3.295s-3.295-1.476-3.295-3.295s3.295-8.189,3.295-8.189
	S300.691,371.932,300.691,373.751"/>
</svg>
