<?xml version="1.0" encoding="utf-8"?>
<!-- Generator: Adobe Illustrator 15.0.0, SVG Export Plug-In . SVG Version: 6.00 Build 0)  -->
<!DOCTYPE svg PUBLIC "-//W3C//DTD SVG 1.1//EN" "http://www.w3.org/Graphics/SVG/1.1/DTD/svg11.dtd">
<svg version="1.1" id="Layer_1" xmlns="http://www.w3.org/2000/svg" xmlns:xlink="http://www.w3.org/1999/xlink" x="0px" y="0px"
	 width="84.584px" height="78.91px" viewBox="0 0 84.584 78.91" enable-background="new 0 0 84.584 78.91" xml:space="preserve">
<circle cx="39.887" cy="37.808" r="29.252"/>
<path fill="#4C4C4C" d="M40.034,8.554h-0.326c-12.587,0.07-24.165,8.322-27.89,21.021c-0.777,2.65-1.163,5.322-1.189,7.953v0.586
	c0.126,12.457,8.265,23.899,20.783,27.686h0.007L47.883,9.676C45.267,8.932,42.63,8.569,40.034,8.554"/>
<path d="M55.908,19.79c0.884-0.71,19.434-10.109,19.434-10.109L63.271,28.195L55.908,19.79z"/>
<path d="M32.586,20.864C32.036,19.874,25.916,0,25.916,0l16.201,15.034L32.586,20.864z"/>
<path d="M19.136,41.24C18.057,40.892,0,30.578,0,30.578l22.102-0.11L19.136,41.24z"/>
<path d="M66.414,37.885c1.046,0.438,18.17,12.234,18.17,12.234l-22.032-1.75L66.414,37.885z"/>
<path d="M50.966,57.136c0.1,1.129-2.404,21.771-2.404,21.771L39.887,58.58L50.966,57.136z"/>
</svg>
