<?xml version="1.0" encoding="utf-8"?>
<!-- Generator: Adobe Illustrator 15.0.0, SVG Export Plug-In . SVG Version: 6.00 Build 0)  -->
<!DOCTYPE svg PUBLIC "-//W3C//DTD SVG 1.1//EN" "http://www.w3.org/Graphics/SVG/1.1/DTD/svg11.dtd">
<svg version="1.1" id="Layer_1" xmlns="http://www.w3.org/2000/svg" xmlns:xlink="http://www.w3.org/1999/xlink" x="0px" y="0px"
	 width="54.749px" height="61.592px" viewBox="0 0 54.749 61.592" enable-background="new 0 0 54.749 61.592" xml:space="preserve">
<path fill="#DE3A26" d="M43.764,25.783c3.944,0,7.422-2.707,3.105-10.513c-0.808-1.053-2.211-1.56-3.724-1.56
	c-3.894,0-8.517,3.35-5.618,9.356C38.505,24.666,41.23,25.783,43.764,25.783z"/>
<path fill="#DE3A26" d="M11.587,47.485c9.115,0,20.552-13.629,5.652-30.744c-1.858-1.951-3.573-2.794-5.117-2.794
	c-7.491,0-10.977,19.817-7.384,29.083c0.146,0.284,0.304,0.569,0.461,0.855c0.16,0.293,0.315,0.586,0.487,0.882
	c0.041,0.07,0.088,0.142,0.13,0.213C7.341,46.696,9.396,47.485,11.587,47.485z"/>
<path fill="#DE3A26" d="M42.221,55.295c-1.953-4.465-1.301-14.701-2.711-15.572c-2.168,1.307-3.688,10.89-8.35,19.93
	C33.871,58.456,40.594,56.494,42.221,55.295z"/>
<path fill="#DE3A26" d="M28.587,11.501c0.728-0.603,1.295-0.915,1.677-0.915c0.65,0,0.795,0.848,0.412,2.455
	c-0.249,0.275-0.526,0.516-0.816,0.738c1.398-0.471,3.137-1.037,5.457-1.656l0.258,0.966c-3.195,0.852-5.268,1.601-6.906,2.146
	c-1.635,0.545-2.866,0.897-4.311,0.897c-1.889-0.003-4.035-0.588-7.944-1.967l0.334-0.943c1.386,0.49,2.53,0.87,3.517,1.16
	c-0.787-0.512-1.989-1.403-1.842-1.995c1.526,0.54,2.532,1.306,3.202,1.306c0.139,0,0.264-0.033,0.376-0.108
	c0.084-0.056,0.156-0.078,0.221-0.078c0.116,0,0.205,0.07,0.283,0.141c0.077,0.07,0.144,0.141,0.212,0.141
	c0.123,0,0.254-0.225,0.478-1.074c0.381-1.457,1.247-3.022,1.649-3.022c0.17,0,0.257,0.276,0.192,0.953
	c-0.007,0.083-0.007,0.154-0.011,0.232c0.268-0.836,0.581-1.719,0.925-2.61c-1.135,0.208-2.173,0.406-2.983,0.564
	c-1.061,0.207-1.731,0.344-1.732,0.344l-0.066,0.009c0,0-0.067,0.004-0.205,0.017c-0.139,0.013-0.343,0.033-0.607,0.063
	c-0.528,0.06-1.296,0.161-2.24,0.323c-1.891,0.323-4.495,0.89-7.338,1.86l-0.015,0.005c-2.283,0.698-4.741,2.691-6.608,5.69
	C2.284,20.139,0.999,24.13,1,28.802c0,4.249,1.073,9.072,3.738,14.228c-3.593-9.266-0.107-29.083,7.384-29.083
	c1.544,0,3.259,0.843,5.117,2.794c14.899,17.115,3.463,30.744-5.652,30.744c-2.19,0-4.246-0.789-5.771-2.505
	c2.549,4.34,6.235,8.888,11.39,13.513c0.362,0.236,1.019,0.51,1.838,0.756c0.835,0.253,1.841,0.488,2.907,0.688
	c2.132,0.399,4.513,0.656,6.291,0.655c0.646,0,1.213-0.034,1.646-0.103c0.432-0.062,0.732-0.185,0.8-0.247l0.026-0.02
	c0.891-0.604,2.365-1.116,4.04-1.656c1.67-0.534,3.521-1.073,5.06-1.631c1.023-0.37,1.911-0.754,2.485-1.124
	c0.328-0.209,0.547-0.416,0.637-0.562h0.001c0.147-0.307,0.387-0.685,0.729-1.203c0.361-0.547,0.823-1.227,1.353-2.028
	c1.059-1.602,2.383-3.689,3.677-6.139c2.592-4.9,5.056-11.246,5.054-18.018c0-1.227-0.082-2.468-0.257-3.718
	c-1.281-4.544-3.545-8.622-6.584-11.661c-3.049-3.046-6.866-5.053-11.296-5.478l-0.023-0.002c-0.103-0.015-0.26-0.025-0.454-0.024
	c-0.968-0.002-2.782,0.225-4.765,0.533c-0.235,0.444-0.472,0.917-0.701,1.408C29.283,9.741,28.92,10.618,28.587,11.501z
	 M43.146,13.71c1.513,0,2.916,0.507,3.724,1.56c4.316,7.806,0.839,10.513-3.105,10.513c-2.533,0-5.259-1.117-6.236-2.716
	C34.629,17.06,39.252,13.71,43.146,13.71z M39.51,39.723c1.41,0.871,0.758,11.107,2.711,15.572c-1.627,1.198-8.35,3.16-11.061,4.357
	C35.822,50.613,37.342,41.03,39.51,39.723z"/>
<path fill="#DE3A26" d="M24.144,14.925c0.003-0.751,0.211-1.755,0.541-2.933c0.101-0.357,0.217-0.732,0.34-1.114
	c0.004-0.078,0.004-0.15,0.011-0.232c0.064-0.677-0.022-0.953-0.192-0.953c-0.402,0-1.269,1.565-1.649,3.022
	c-0.224,0.85-0.354,1.074-0.478,1.074c-0.068,0-0.135-0.07-0.212-0.141c-0.078-0.07-0.167-0.141-0.283-0.141
	c-0.064,0-0.137,0.022-0.221,0.078c-0.112,0.075-0.237,0.108-0.376,0.108c-0.67,0-1.676-0.766-3.202-1.306
	c-0.147,0.592,1.055,1.483,1.842,1.995c1.675,0.494,2.869,0.719,3.895,0.742C24.154,15.059,24.144,14.996,24.144,14.925z"/>
<path fill="#DE3A26" d="M28.352,14.289c0.457-0.152,0.959-0.324,1.508-0.509c0.29-0.223,0.567-0.463,0.816-0.738
	c0.383-1.607,0.238-2.455-0.412-2.455c-0.382,0-0.949,0.312-1.677,0.915c-0.384,1.021-0.708,2.039-0.949,3.015
	C27.871,14.443,28.095,14.374,28.352,14.289z"/>
<path fill="#DE3A26" d="M5.199,43.885c0.16,0.293,0.315,0.586,0.487,0.882C5.515,44.471,5.359,44.178,5.199,43.885z"/>
<polygon fill="#010101" points="35.731,6.014 35.721,6.012 35.708,6.011 35.66,6.508 "/>
<path fill="#010101" d="M35.66,6.508l0.048-0.497c-0.171-0.022-0.357-0.033-0.573-0.033c-0.945,0.002-2.456,0.179-4.144,0.429
	c-0.105,0.177-0.212,0.36-0.319,0.552C32.912,6.618,34.877,6.396,35.66,6.508z"/>
<polygon fill="#010101" points="35.731,6.013 35.721,6.012 35.731,6.014 "/>
<path fill="#010101" d="M30.998,60.635l0.279,0.408c0.009-0.007,0.021-0.009,0.03-0.016L30.998,60.635z"/>
<path fill="#010101" d="M21.133,8.686l-0.101-0.49c0,0,0.012-0.002,0.033-0.007c-0.341,0.026-4.993,0.397-10.597,2.307l0.146,0.478
	C16.363,9.013,21.133,8.686,21.133,8.686z"/>
<polygon fill="#010101" points="10.469,10.496 10.467,10.497 10.454,10.501 10.615,10.974 "/>
<path fill="#010101" d="M16.904,58.894C-9.117,35.586,1.4,13.806,10.615,10.974l-0.161-0.473c-2.587,0.804-5.181,2.959-7.149,6.111
	C1.335,19.773,0,23.947,0,28.802c-0.002,8.646,4.24,19.424,16.57,30.464l0.057,0.044c0.515,0.34,1.241,0.625,2.127,0.896
	c2.647,0.799,6.685,1.384,9.488,1.387c0.682,0,1.29-0.034,1.802-0.114c0.499-0.085,0.9-0.192,1.233-0.435l-0.279-0.408
	C29.48,61.833,19.283,60.476,16.904,58.894z"/>
<polygon fill="#010101" points="35.708,6.01 35.708,6.011 35.721,6.012 "/>
<path fill="#010101" d="M54.479,23.971l-0.014-0.065c-1.321-4.701-3.663-8.941-6.851-12.13c-3.18-3.182-7.216-5.311-11.884-5.762
	L35.66,6.508c9.107,0.871,15.723,8.276,18.324,17.534c2.168,15.356-9.654,29.301-10.625,31.476
	c-1.242,1.961-9.977,3.483-12.361,5.118l0.31,0.393c-0.009,0.007-0.021,0.009-0.03,0.016l0.003,0.004
	c0.513-0.354,1.486-0.758,2.644-1.153c1.739-0.598,3.908-1.207,5.771-1.854c0.933-0.325,1.79-0.659,2.493-1.017
	c0.702-0.363,1.26-0.728,1.593-1.238l0.035-0.063c0.079-0.184,0.329-0.59,0.684-1.123c2.497-3.791,10.241-14.464,10.249-26.736
	C54.749,26.581,54.664,25.282,54.479,23.971z"/>
<path fill="#010101" d="M21.133,8.686l-0.034-0.499c-0.001,0-0.021,0.001-0.033,0.002c-0.021,0.004-0.033,0.007-0.033,0.007
	L21.133,8.686z"/>
<polygon fill="#010101" points="10.454,10.501 10.454,10.501 10.467,10.497 "/>
<polygon fill="#010101" points="10.469,10.496 10.467,10.497 10.469,10.496 "/>
<path fill="#010101" d="M21.133,8.686c0,0,2.268-0.463,5.031-0.965c0.073-0.183,0.145-0.366,0.219-0.548
	c-2.714,0.489-5.02,0.956-5.317,1.017c0.012-0.001,0.032-0.002,0.033-0.002L21.133,8.686z"/>
<path fill="#010101" d="M5.789,44.953c0.009,0.01,0.019,0.018,0.027,0.027c-0.042-0.071-0.089-0.143-0.13-0.213
	C5.723,44.829,5.753,44.89,5.789,44.953z"/>
<path fill="#010101" d="M4.738,43.03c0.007,0.02,0.014,0.042,0.021,0.062c0.137,0.263,0.294,0.529,0.439,0.794
	C5.042,43.599,4.885,43.314,4.738,43.03z"/>
<path fill="#010101" d="M5.199,43.885c-0.146-0.265-0.303-0.531-0.439-0.794c0.196,0.498,0.412,0.964,0.649,1.396
	c0.122,0.162,0.249,0.317,0.38,0.466c-0.036-0.062-0.066-0.124-0.103-0.186C5.515,44.471,5.359,44.178,5.199,43.885z"/>
<path fill="#010101" d="M17.206,58.493c-5.154-4.625-8.841-9.173-11.39-13.513c-0.009-0.01-0.019-0.018-0.027-0.027
	c-0.131-0.148-0.258-0.304-0.38-0.466c-0.237-0.432-0.453-0.897-0.649-1.396c-0.008-0.02-0.015-0.042-0.021-0.062
	C2.073,37.875,1,33.051,1,28.802c-0.001-4.672,1.284-8.663,3.153-11.66c1.867-2.999,4.325-4.992,6.608-5.69l0.015-0.005
	c2.843-0.97,5.447-1.537,7.338-1.86c0.944-0.162,1.712-0.263,2.24-0.323c0.265-0.03,0.469-0.05,0.607-0.063
	c0.138-0.012,0.205-0.017,0.205-0.017l0.066-0.009l-0.101-0.49c0,0-4.77,0.327-10.518,2.288C1.4,13.806-9.117,35.586,16.904,58.894
	l0.277-0.416C17.188,58.483,17.199,58.488,17.206,58.493z"/>
<path fill="#010101" d="M42.902,55.313l0.457,0.204l-0.422-0.268C42.928,55.269,42.91,55.294,42.902,55.313z"/>
<path fill="#010101" d="M42.938,55.25L42.938,55.25c-0.091,0.146-0.31,0.354-0.638,0.562c-0.574,0.37-1.462,0.754-2.485,1.124
	c-1.538,0.558-3.39,1.097-5.06,1.631c-1.675,0.54-3.149,1.053-4.04,1.656l-0.026,0.02c-0.067,0.062-0.368,0.185-0.8,0.247
	c-0.434,0.068-1.001,0.103-1.646,0.103c-1.778,0.001-4.159-0.256-6.291-0.655c-1.066-0.2-2.072-0.436-2.907-0.688
	c-0.819-0.246-1.476-0.52-1.838-0.756c0.012,0.01,0.021,0.02,0.032,0.029l-0.334,0.372c2.379,1.582,12.576,2.938,14.094,1.741
	c2.385-1.635,11.119-3.157,12.361-5.118l-0.457-0.204C42.91,55.294,42.928,55.269,42.938,55.25z"/>
<path fill="#010101" d="M22.966,8.832c0.811-0.158,1.849-0.356,2.983-0.564c0.016-0.041,0.03-0.082,0.046-0.123
	c0.055-0.142,0.113-0.283,0.169-0.425c-2.764,0.502-5.031,0.965-5.031,0.965l0.101,0.49C21.234,9.176,21.905,9.039,22.966,8.832z"/>
<path fill="#010101" d="M30.672,6.959c-0.1,0.179-0.2,0.362-0.302,0.553c1.982-0.309,3.797-0.535,4.765-0.533
	c0.194,0,0.352,0.009,0.454,0.024l0.023,0.002c4.43,0.425,8.247,2.431,11.296,5.478c3.039,3.039,5.303,7.117,6.584,11.661
	c-0.001-0.011-0.001-0.021-0.003-0.032l0.495-0.07C51.383,14.784,44.768,7.379,35.66,6.508C34.877,6.396,32.912,6.618,30.672,6.959z
	"/>
<path fill="#010101" d="M53.492,24.144c0.175,1.25,0.257,2.491,0.257,3.718c0.002,6.771-2.462,13.117-5.054,18.018
	c-1.294,2.449-2.618,4.537-3.677,6.139c-0.529,0.802-0.991,1.481-1.353,2.028c-0.342,0.519-0.581,0.896-0.729,1.203l0.422,0.268
	c0.971-2.175,12.793-16.119,10.625-31.476l-0.481,0.136C53.5,24.167,53.496,24.156,53.492,24.144z"/>
<path fill="#010101" d="M17.206,58.493c-0.007-0.005-0.018-0.01-0.024-0.015l-0.277,0.416l0.334-0.372
	C17.228,58.512,17.218,58.502,17.206,58.493z"/>
<path fill="#010101" d="M53.492,24.144c0.004,0.012,0.008,0.022,0.011,0.033l0.481-0.136l-0.495,0.07
	C53.491,24.123,53.491,24.133,53.492,24.144z"/>
<path fill="#010101" d="M27.638,14.516c-0.038,0.155-0.086,0.315-0.12,0.467c0.837-0.274,1.641-0.666,2.342-1.203
	c-0.549,0.185-1.051,0.356-1.508,0.509C28.095,14.374,27.871,14.443,27.638,14.516z"/>
<path fill="#010101" d="M23.798,15.556c0.142,0,0.294-0.01,0.441-0.015c-0.029-0.051-0.053-0.105-0.062-0.166
	c-0.013-0.079-0.013-0.166-0.019-0.249c-1.025-0.023-2.22-0.248-3.895-0.742c0.372,0.242,0.652,0.4,0.652,0.4
	C20.566,15.136,21.919,15.556,23.798,15.556z"/>
<path fill="#010101" d="M27.489,15.095c-0.045,0.206-0.215,0.363-0.425,0.391l-2.33,0.304c-0.207,0.026-0.397-0.077-0.495-0.248
	c-0.147,0.005-0.3,0.015-0.441,0.015c-1.879,0-3.231-0.42-2.882-0.771c0,0-0.28-0.158-0.652-0.4c-0.986-0.29-2.131-0.67-3.517-1.16
	l-0.334,0.943c3.909,1.379,6.056,1.964,7.944,1.967c1.444,0,2.676-0.353,4.311-0.897c1.639-0.546,3.711-1.295,6.906-2.146
	l-0.258-0.966c-2.32,0.619-4.059,1.185-5.457,1.656c-0.701,0.537-1.505,0.929-2.342,1.203C27.51,15.02,27.497,15.059,27.489,15.095z
	"/>
<path fill="#482D12" d="M31.556,3.881l0.087-0.074c0.182-0.125,0.396-0.176,0.58-0.174c0.282,0.003,0.501,0.092,0.683,0.168
	c0.065,0.029,0.12,0.054,0.175,0.08c0.035-0.131,0.105-0.249,0.228-0.316c0.237-0.129,0.376-0.254,0.445-0.349
	c0.069-0.096,0.082-0.154,0.085-0.224c0.001-0.087-0.04-0.224-0.158-0.393c-0.116-0.167-0.303-0.356-0.529-0.536
	c-0.453-0.361-1.065-0.688-1.567-0.877C31.258,1.06,30.964,0.999,30.863,1l-0.026,0.016l-0.184,0.163
	c-0.153,0.159-0.35,0.413-0.562,0.735c-0.428,0.646-0.93,1.564-1.441,2.618c-0.366,0.754-0.732,1.586-1.09,2.434
	c0.723-0.126,1.45-0.249,2.169-0.363C30.37,5.437,31.003,4.479,31.556,3.881z"/>
<path fill="#482D12" d="M26.6,14.538c0.144-0.613,0.322-1.241,0.526-1.877c-0.446,0.284-0.831,0.44-1.137,0.44
	c-0.202,0-0.37-0.065-0.511-0.185c-0.184,0.737-0.296,1.36-0.319,1.809L26.6,14.538z"/>
<path fill="#482D12" d="M25.479,12.917c0.141,0.119,0.309,0.185,0.511,0.185c0.306,0,0.69-0.156,1.137-0.44
	c0.453-1.416,1.021-2.853,1.638-4.166c0.127-0.268,0.254-0.53,0.382-0.786c-0.684,0.113-1.37,0.232-2.042,0.351
	c-0.468,1.177-0.895,2.362-1.229,3.437C25.717,12.002,25.59,12.471,25.479,12.917z"/>
<path fill="#482D12" d="M29.729,6.602c-0.719,0.115-1.446,0.237-2.169,0.363c-0.077,0.182-0.154,0.363-0.229,0.547
	c0.694-0.122,1.401-0.243,2.1-0.357C29.529,6.965,29.629,6.782,29.729,6.602z"/>
<path fill="#482D12" d="M29.43,7.155c-0.698,0.114-1.405,0.235-2.1,0.357c-0.075,0.184-0.152,0.363-0.227,0.548
	c0.672-0.119,1.358-0.238,2.042-0.351C29.24,7.52,29.335,7.336,29.43,7.155z"/>
<path fill="#010101" d="M26.966,7.069c1.398-3.37,3.052-6.455,3.815-6.565c0.977-0.109,5.312,2.11,2.766,3.5h0.5
	c-0.001,0.1-0.009,0.191-0.022,0.282c0.209-0.141,0.395-0.292,0.529-0.471c0.186-0.244,0.286-0.538,0.284-0.823
	c-0.006-0.491-0.25-0.893-0.552-1.233c-0.46-0.511-1.104-0.926-1.732-1.238c-0.314-0.154-0.623-0.281-0.908-0.371
	C31.359,0.061,31.107,0.002,30.856,0l-0.131,0.007L30.71,0.009c-0.235,0.038-0.398,0.146-0.553,0.268
	c-0.284,0.234-0.549,0.567-0.842,0.998c-0.887,1.314-1.976,3.554-2.933,5.898c0.153-0.028,0.307-0.055,0.462-0.083
	C26.885,7.083,26.926,7.076,26.966,7.069z"/>
<path fill="#010101" d="M31.922,4.222l0.279,0.415l0.021-0.003c0.001,0,0.003,0.001,0.004,0.001c0.02-0.022,0.042-0.051,0.062-0.072
	L31.922,4.222z"/>
<path fill="#010101" d="M33.547,4.004c0,1.158-0.977-0.218-1.625,0.218l0.366,0.34c-0.02,0.021-0.042,0.049-0.062,0.072
	c0.048-0.004,0.2,0.042,0.374,0.127c0.09,0.041,0.186,0.087,0.294,0.13c0.11,0.041,0.231,0.086,0.407,0.088
	c0.1,0,0.224-0.021,0.341-0.084c0.181-0.097,0.293-0.273,0.34-0.422c0.021-0.062,0.032-0.125,0.042-0.187
	c-0.079,0.053-0.149,0.108-0.238,0.157L33.547,4.004z"/>
<path fill="#010101" d="M33.547,4.004l0.239,0.439c0.089-0.049,0.159-0.104,0.238-0.157c0.014-0.09,0.021-0.182,0.022-0.282H33.547z
	"/>
<path fill="#010101" d="M32.201,4.636l-0.279-0.415c-0.454,0.489-1,1.292-1.564,2.28c0.216-0.033,0.423-0.063,0.634-0.094
	c0.455-0.766,0.883-1.382,1.235-1.773c-0.001,0-0.003-0.001-0.004-0.001L32.201,4.636z"/>
<path fill="#010101" d="M27.813,12.152c0.122-0.101,0.238-0.19,0.368-0.308c0.145-0.131,0.272-0.232,0.405-0.342
	c0.333-0.884,0.696-1.761,1.082-2.582c0.229-0.491,0.466-0.963,0.701-1.408c-0.202,0.031-0.406,0.064-0.611,0.097
	C29.055,8.978,28.362,10.566,27.813,12.152z"/>
<path fill="#010101" d="M24.144,14.925c0,0.07,0.011,0.134,0.015,0.201c0.065,0.002,0.135,0.008,0.199,0.008
	c0.099,0,0.192-0.014,0.289-0.018l-0.041-0.319l0.043-0.006c0.022-0.623,0.196-1.496,0.477-2.511
	c-0.098-0.355-0.132-0.824-0.101-1.402c-0.123,0.382-0.239,0.757-0.34,1.114C24.354,13.17,24.146,14.174,24.144,14.925z"/>
<path fill="#010101" d="M24.648,14.792l-0.043,0.006l0.041,0.319c0.003,0,0.005,0,0.007,0C24.646,15.017,24.645,14.91,24.648,14.792
	z"/>
<path fill="#010101" d="M25.125,12.281c0.341-1.235,0.836-2.675,1.4-4.117c-0.194,0.035-0.388,0.07-0.576,0.104
	c-0.344,0.891-0.657,1.774-0.925,2.61C24.993,11.457,25.027,11.926,25.125,12.281z"/>
<path fill="#010101" d="M27.638,14.516c0.241-0.976,0.565-1.994,0.949-3.015c-0.133,0.11-0.261,0.211-0.405,0.342
	c-0.13,0.118-0.246,0.208-0.368,0.308c-0.298,0.861-0.552,1.717-0.742,2.537C27.25,14.637,27.446,14.577,27.638,14.516z"/>
<path fill="#010101" d="M30.05,7.056c0.21-0.033,0.417-0.065,0.622-0.097c0.107-0.192,0.214-0.375,0.319-0.552
	c-0.211,0.031-0.418,0.061-0.634,0.094C30.255,6.68,30.152,6.866,30.05,7.056z"/>
<path fill="#010101" d="M26.742,7.616c0.073-0.183,0.148-0.366,0.224-0.547c-0.04,0.007-0.081,0.014-0.121,0.021
	c-0.155,0.028-0.309,0.055-0.462,0.083c-0.074,0.182-0.146,0.365-0.219,0.548C26.354,7.686,26.547,7.651,26.742,7.616z"/>
<path fill="#010101" d="M25.949,8.268c0.188-0.035,0.382-0.069,0.576-0.104c0.071-0.183,0.143-0.365,0.217-0.547
	c-0.195,0.035-0.388,0.07-0.578,0.104c-0.056,0.142-0.114,0.283-0.169,0.425C25.979,8.187,25.965,8.227,25.949,8.268z"/>
<path fill="#010101" d="M30.37,7.512c0.102-0.19,0.202-0.374,0.302-0.553C30.467,6.99,30.26,7.022,30.05,7.056
	c-0.097,0.18-0.194,0.364-0.291,0.553C29.964,7.576,30.168,7.543,30.37,7.512z"/>
<path fill="#010101" d="M24.734,15.79l2.33-0.304c0.21-0.027,0.38-0.185,0.425-0.391c0.008-0.036,0.021-0.075,0.028-0.112
	c-0.938,0.31-1.912,0.477-2.818,0.54L24.734,15.79z"/>
<path fill="#010101" d="M24.239,15.542c0.098,0.171,0.288,0.274,0.495,0.248l-0.035-0.267
	C24.542,15.534,24.392,15.537,24.239,15.542z"/>
<path fill="#010101" d="M24.67,15.293l-0.023-0.177c-0.097,0.004-0.19,0.018-0.289,0.018c-0.064,0-0.134-0.006-0.199-0.008
	c0.006,0.083,0.006,0.17,0.019,0.249c0.01,0.061,0.033,0.115,0.062,0.166c0.152-0.005,0.303-0.008,0.46-0.019L24.67,15.293z"/>
<path fill="#010101" d="M24.653,15.117c-0.002,0-0.004,0-0.007,0l0.023,0.177C24.661,15.241,24.658,15.177,24.653,15.117z"/>
<path fill="#010101" d="M24.67,15.293l0.029,0.229c0.906-0.063,1.88-0.23,2.818-0.54c0.034-0.151,0.082-0.312,0.12-0.467
	c-0.191,0.061-0.388,0.121-0.566,0.173c-0.023,0.1-0.05,0.202-0.071,0.301L24.67,15.293z"/>
<path fill="#010101" d="M33.038,4.141l-0.003,0.013l0.014-0.029l0.118-0.109l0.135-0.036l0.021,0.001L33.3,3.974
	c-0.042-0.012-0.124-0.049-0.22-0.093c-0.011,0.042-0.033,0.079-0.033,0.123L33.038,4.141z"/>
<polygon fill="#010101" points="33.035,4.154 33.158,4.19 33.049,4.125 "/>
<polygon fill="#010101" points="30.84,0.915 30.853,0.999 30.841,0.917 "/>
<polygon fill="#010101" points="30.853,0.999 30.875,0.994 30.841,0.917 "/>
<polygon fill="#010101" points="33.049,4.125 33.158,4.19 33.159,4.19 "/>
<polygon fill="#010101" points="33.302,4.122 33.322,3.981 33.302,3.979 "/>
<polygon fill="#010101" points="33.159,4.19 33.158,4.19 33.307,4.278 33.167,4.016 33.049,4.125 "/>
<polygon fill="#010101" points="33.167,4.016 33.302,4.269 33.302,4.122 33.302,3.979 "/>
<path fill="#010101" d="M30.875,0.994L30.863,1c0.101-0.002,0.395,0.06,0.72,0.187c0.502,0.189,1.114,0.516,1.567,0.877
	c0.227,0.179,0.413,0.368,0.529,0.536c0.118,0.169,0.159,0.305,0.158,0.393c-0.003,0.07-0.016,0.128-0.085,0.224
	c-0.069,0.094-0.208,0.219-0.445,0.349c-0.122,0.067-0.192,0.185-0.228,0.316c0.096,0.044,0.178,0.081,0.22,0.093l0.022,0.007
	l-0.021,0.141v0.146l-0.135-0.253l0.14,0.262L33.158,4.19l-0.123-0.036l0.003-0.013l0.009-0.137c0-0.044,0.022-0.082,0.033-0.123
	c-0.055-0.025-0.109-0.051-0.175-0.08c-0.182-0.076-0.4-0.166-0.683-0.168c-0.184-0.001-0.398,0.049-0.58,0.174l-0.087,0.074
	c-0.553,0.598-1.186,1.556-1.827,2.721c0.21-0.034,0.422-0.068,0.629-0.101c0.564-0.988,1.11-1.791,1.564-2.28
	c0.648-0.436,1.625,0.94,1.625-0.218c2.547-1.39-1.789-3.609-2.766-3.5l0.06,0.413L30.875,0.994z"/>
<polygon fill="#010101" points="30.856,1 30.863,1 30.875,0.994 30.853,0.999 30.84,0.915 30.841,0.917 30.781,0.504 30.837,1.001 
	"/>
<path fill="#010101" d="M28.649,4.531c0.512-1.054,1.014-1.972,1.441-2.618c0.213-0.322,0.409-0.576,0.562-0.735l0.184-0.163
	L30.863,1c-0.002,0-0.005,0-0.007,0l-0.02,0.001l-0.056-0.497c-0.764,0.11-2.417,3.195-3.815,6.565
	C27.162,7.034,27.361,7,27.56,6.965C27.917,6.117,28.283,5.285,28.649,4.531z"/>
<path fill="#010101" d="M25.159,14.725c0.023-0.448,0.136-1.071,0.319-1.809c-0.159-0.135-0.275-0.351-0.354-0.636
	c-0.28,1.015-0.454,1.888-0.477,2.511L25.159,14.725z"/>
<path fill="#010101" d="M26.6,14.538l0.336-0.044l0.029,0.224c0.036-0.011,0.069-0.018,0.106-0.028
	c0.19-0.82,0.444-1.676,0.742-2.537c-0.245,0.203-0.475,0.374-0.688,0.509C26.922,13.296,26.743,13.924,26.6,14.538z"/>
<path fill="#010101" d="M25.144,14.925c0,0.065,0.007,0.108,0.011,0.161c0.445-0.046,0.897-0.134,1.369-0.252
	c0.021-0.097,0.054-0.199,0.076-0.297l-1.44,0.188C25.156,14.789,25.144,14.87,25.144,14.925z"/>
<path fill="#010101" d="M25.479,12.917c0.111-0.445,0.238-0.914,0.396-1.42c0.334-1.075,0.761-2.26,1.229-3.437
	c-0.194,0.035-0.388,0.069-0.578,0.104c-0.564,1.442-1.06,2.882-1.4,4.117C25.203,12.566,25.319,12.782,25.479,12.917z"/>
<path fill="#010101" d="M24.653,15.117c0.168-0.007,0.336-0.014,0.501-0.03c-0.004-0.053-0.011-0.096-0.011-0.161
	c0-0.056,0.013-0.137,0.016-0.2l-0.511,0.066C24.645,14.91,24.646,15.017,24.653,15.117z"/>
<path fill="#010101" d="M26.965,14.717l-0.029-0.224L26.6,14.538c-0.022,0.098-0.055,0.2-0.076,0.297
	C26.667,14.798,26.814,14.76,26.965,14.717z"/>
<path fill="#010101" d="M27.126,12.661c0.213-0.135,0.442-0.306,0.688-0.509c0.549-1.586,1.241-3.174,1.945-4.543
	c-0.128,0.021-0.254,0.041-0.382,0.062c-0.077,0.013-0.154,0.026-0.231,0.039c-0.128,0.256-0.255,0.518-0.382,0.786
	C28.147,9.808,27.579,11.245,27.126,12.661z"/>
<path fill="#010101" d="M29.43,7.155c0.208-0.034,0.415-0.067,0.62-0.1c0.103-0.19,0.205-0.375,0.308-0.554
	c-0.207,0.032-0.419,0.067-0.629,0.101C29.629,6.782,29.529,6.965,29.43,7.155z"/>
<path fill="#010101" d="M27.56,6.965C27.361,7,27.162,7.034,26.966,7.069c-0.075,0.182-0.15,0.364-0.224,0.547
	c0.194-0.035,0.391-0.069,0.588-0.104C27.405,7.328,27.482,7.147,27.56,6.965z"/>
<path fill="#010101" d="M29.146,7.709c0.077-0.013,0.154-0.026,0.231-0.039c0.128-0.021,0.254-0.041,0.382-0.062
	c0.097-0.189,0.194-0.373,0.291-0.553c-0.205,0.032-0.412,0.065-0.62,0.1C29.335,7.336,29.24,7.52,29.146,7.709z"/>
<path fill="#010101" d="M27.104,8.06c0.074-0.185,0.151-0.364,0.227-0.548c-0.197,0.035-0.394,0.069-0.588,0.104
	c-0.074,0.182-0.146,0.365-0.217,0.547C26.716,8.129,26.909,8.095,27.104,8.06z"/>
<path fill="#010101" d="M24.67,15.293L27,14.99l-0.489-0.105c0.004-0.017,0.009-0.033,0.013-0.05
	c-0.472,0.118-0.924,0.206-1.369,0.252c0.004,0.041,0.004,0.094,0.009,0.125L24.67,15.293z"/>
<path fill="#010101" d="M27.071,14.689c-0.037,0.011-0.07,0.018-0.106,0.028L27,14.99C27.021,14.891,27.048,14.789,27.071,14.689z"
	/>
<path fill="#010101" d="M26.511,14.884L27,14.99l-0.035-0.272c-0.15,0.043-0.298,0.081-0.441,0.117
	C26.52,14.851,26.515,14.868,26.511,14.884z"/>
<path fill="#010101" d="M24.67,15.293l0.493-0.082c-0.005-0.031-0.005-0.084-0.009-0.125c-0.165,0.017-0.333,0.023-0.501,0.03
	C24.658,15.177,24.661,15.241,24.67,15.293z"/>
</svg>
