<?xml version="1.0" encoding="utf-8"?>
<!-- Generator: Adobe Illustrator 15.0.0, SVG Export Plug-In . SVG Version: 6.00 Build 0)  -->
<!DOCTYPE svg PUBLIC "-//W3C//DTD SVG 1.1//EN" "http://www.w3.org/Graphics/SVG/1.1/DTD/svg11.dtd">
<svg version="1.1" id="Layer_1" xmlns="http://www.w3.org/2000/svg" xmlns:xlink="http://www.w3.org/1999/xlink" x="0px" y="0px"
	 width="246.166px" height="347.241px" viewBox="0 0 246.166 347.241" enable-background="new 0 0 246.166 347.241"
	 xml:space="preserve">
<polygon fill="#F7D070" points="246,347.241 26.031,347.241 0,321.604 0,315.258 26.031,315.258 223.25,311.887 246,339.908 "/>
<polygon fill="#E0BD66" points="26.031,347.241 0,321.604 0,315.258 26.031,339.5 "/>
<rect x="6.562" y="209" fill="#726C78" width="3.5" height="106.259"/>
<rect x="45.499" y="123" fill="#F47D55" width="180.667" height="217.5"/>
<rect x="45.499" y="320" fill="#FF936E" width="180.667" height="20.5"/>
<polygon fill="#D96F4C" points="45.499,340.5 24.499,322.356 24.499,108.643 45.499,108.643 "/>
<polygon fill="#517781" points="237.666,123 36.394,123 137.029,12.167 "/>
<polygon fill="#608D99" points="225.56,123 48.501,123 137.03,25.5 "/>
<rect x="160.666" y="124.459" fill="#F7D070" width="8.333" height="7.333"/>
<rect x="171.666" y="124.459" fill="#F7D070" width="8.333" height="7.333"/>
<rect x="182.166" y="124.459" fill="#F7D070" width="8.333" height="7.333"/>
<rect x="192.666" y="124.459" fill="#F7D070" width="8.333" height="7.333"/>
<rect x="203.583" y="124.459" fill="#F7D070" width="8.333" height="7.333"/>
<rect x="214.916" y="124.459" fill="#F7D070" width="8.333" height="7.333"/>
<rect x="47.5" y="124.459" fill="#F7D070" width="8.333" height="7.333"/>
<rect x="58.5" y="124.459" fill="#F7D070" width="8.333" height="7.333"/>
<polygon fill="#F7D070" points="246,234.241 26.031,234.241 6.563,215 6.563,208.654 26.031,226.908 246,226.908 "/>
<rect x="69" y="124.459" fill="#F7D070" width="8.333" height="7.333"/>
<rect x="79.5" y="124.459" fill="#F7D070" width="8.333" height="7.333"/>
<rect x="90.416" y="124.459" fill="#F7D070" width="8.333" height="7.333"/>
<rect x="101.75" y="124.459" fill="#F7D070" width="8.333" height="7.333"/>
<rect x="112.666" y="91.81" fill="#517781" width="46.333" height="68.809"/>
<rect x="112.666" y="271.69" fill="#517781" width="46.333" height="68.81"/>
<g>
	<g opacity="0.1">
		<g>
			<defs>
				<rect id="SVGID_1_" x="45.496" y="123" width="180.67" height="74.259"/>
			</defs>
			<clipPath id="SVGID_2_">
				<use xlink:href="#SVGID_1_"  overflow="visible"/>
			</clipPath>
			<polygon clip-path="url(#SVGID_2_)" fill="#434541" points="226.166,197.259 45.499,197.259 45.499,123 126.281,160.105 			"/>
		</g>
	</g>
	<g opacity="0.1">
		<g>
			<defs>
				<rect id="SVGID_3_" x="45.496" y="234.562" width="162.25" height="105.938"/>
			</defs>
			<clipPath id="SVGID_4_">
				<use xlink:href="#SVGID_3_"  overflow="visible"/>
			</clipPath>
			<polygon clip-path="url(#SVGID_4_)" fill="#434541" points="207.749,340.5 45.499,340.5 45.499,234.562 116.832,286.819 			"/>
		</g>
	</g>
</g>
<rect x="116.833" y="96.107" fill="#F7D070" width="38" height="60.213"/>
<rect x="116.833" y="277" fill="#F7D070" width="38" height="63.5"/>
<rect x="120.916" y="100.063" fill="#517781" width="29.833" height="52.301"/>
<polygon fill="#5D5862" points="36.395,123 13.999,109.5 116.028,0 137.03,12.167 "/>
<polygon fill="#726C78" points="158.999,91.81 112.666,91.81 122.666,85.75 148.999,85.75 "/>
<polygon fill="#5D5862" points="112.666,160.619 158.999,160.619 148.999,166.679 122.666,166.679 "/>
<rect x="122.204" y="101.679" fill="#AED1D4" width="26.92" height="49.071"/>
<rect x="52.895" y="250.104" fill="#608D99" width="53.209" height="53.79"/>
<g>
	<g opacity="0.32">
		<g>
			<defs>
				<rect id="SVGID_5_" x="122.206" y="105.5" width="27.13" height="45.25"/>
			</defs>
			<clipPath id="SVGID_6_">
				<use xlink:href="#SVGID_5_"  overflow="visible"/>
			</clipPath>
			<polygon clip-path="url(#SVGID_6_)" fill="#FFFFFF" points="149.333,150.75 122.205,150.75 122.205,105.5 			"/>
		</g>
	</g>
</g>
<rect x="55.041" y="252.465" fill="#AED1D4" width="48.541" height="49.07"/>
<rect x="165.874" y="250.104" fill="#608D99" width="53.209" height="53.79"/>
<g>
	<g opacity="0.32">
		<g>
			<defs>
				<rect id="SVGID_7_" x="55.036" y="256.285" width="48.92" height="45.25"/>
			</defs>
			<clipPath id="SVGID_8_">
				<use xlink:href="#SVGID_7_"  overflow="visible"/>
			</clipPath>
			<polygon clip-path="url(#SVGID_8_)" fill="#FFFFFF" points="103.958,301.535 55.041,301.535 55.041,256.285 			"/>
		</g>
	</g>
</g>
<rect x="168.208" y="252.465" fill="#AED1D4" width="48.541" height="49.07"/>
<g>
	<g opacity="0.32">
		<g>
			<defs>
				<rect id="SVGID_9_" x="168.206" y="256.285" width="48.92" height="45.25"/>
			</defs>
			<clipPath id="SVGID_10_">
				<use xlink:href="#SVGID_9_"  overflow="visible"/>
			</clipPath>
			<polygon clip-path="url(#SVGID_10_)" fill="#FFFFFF" points="217.124,301.535 168.207,301.535 168.207,256.285 			"/>
		</g>
	</g>
</g>
<polygon fill="#726C78" points="26.031,226.908 246.166,226.908 226.166,198.238 45.499,198.238 "/>
<polyline fill="#5D5862" points="45.499,198.237 24.499,181.602 6.563,208.654 26.031,226.907 "/>
<g>
	<path fill="#5D5862" d="M151.487,311.887c0,1.306-1.059,2.363-2.363,2.363c-1.306,0-2.362-1.058-2.362-2.363
		c0-1.305,1.057-2.362,2.362-2.362C150.429,309.524,151.487,310.582,151.487,311.887"/>
	<rect x="242.499" y="234.24" fill="#726C78" width="3.5" height="106.26"/>
	<rect x="26.031" y="234.24" fill="#726C78" width="3.5" height="106.26"/>
	<rect x="26.031" y="340.5" fill="#FFDC82" width="219.968" height="6.74"/>
	<rect x="45.499" y="178.25" fill="#FF936E" width="180.667" height="19.987"/>
	<g opacity="0.1">
		<g>
			<defs>
				<rect id="SVGID_11_" x="24.496" y="115.83" width="21" height="82.407"/>
			</defs>
			<clipPath id="SVGID_12_">
				<use xlink:href="#SVGID_11_"  overflow="visible"/>
			</clipPath>
			<polygon clip-path="url(#SVGID_12_)" fill="#434541" points="24.499,181.602 24.499,115.829 45.499,198.237 			"/>
		</g>
	</g>
	<g opacity="0.1">
		<g>
			<defs>
				<rect id="SVGID_13_" x="48.496" y="25.5" width="88.53" height="97.5"/>
			</defs>
			<clipPath id="SVGID_14_">
				<use xlink:href="#SVGID_13_"  overflow="visible"/>
			</clipPath>
			<polygon clip-path="url(#SVGID_14_)" fill="#434541" points="137.03,25.5 98.749,123 48.501,123 			"/>
		</g>
	</g>
</g>
</svg>
