<?xml version="1.0" encoding="utf-8"?>
<!-- Generator: Adobe Illustrator 15.0.0, SVG Export Plug-In . SVG Version: 6.00 Build 0)  -->
<!DOCTYPE svg PUBLIC "-//W3C//DTD SVG 1.1//EN" "http://www.w3.org/Graphics/SVG/1.1/DTD/svg11.dtd">
<svg version="1.1" id="Layer_1" xmlns="http://www.w3.org/2000/svg" xmlns:xlink="http://www.w3.org/1999/xlink" x="0px" y="0px"
	 width="331.098px" height="211.399px" viewBox="0 0 331.098 211.399" enable-background="new 0 0 331.098 211.399"
	 xml:space="preserve">
<polyline fill="#729196" points="0,164.109 59.234,211.399 59.234,51.765 0,4.475 0,164.109 "/>
<polyline fill="#86ABB0" points="5.809,128.842 37,155.492 37,51.419 5.809,24.768 5.809,128.842 "/>
<polyline fill="#668287" points="0,164.109 59.234,211.399 59.234,177.518 0,130.228 0,164.109 "/>
<polyline fill="#8EB5BD" points="59.235,211.399 331.098,211.399 331.098,51.765 59.235,51.765 59.235,211.399 "/>
<polyline fill="#7C9FA6" points="59.235,211.399 331.098,211.399 331.098,177.518 59.235,177.518 59.235,211.399 "/>
<polyline fill="#5F787E" points="331.098,51.765 59.235,51.765 0,4.475 265.5,4.475 331.098,51.765 "/>
<polyline fill="#AED1D4" points="121.367,172.935 65.956,172.935 65.956,63.931 121.367,63.931 121.367,172.935 "/>
<polygon fill="#C8E0E2" points="66,173.268 121.367,173.268 66,118.437 "/>
<polyline fill="#AED1D4" points="181.528,172.935 126.117,172.935 126.117,63.931 181.528,63.931 181.528,172.935 "/>
<polygon fill="#C8E0E2" points="126,173.268 181.528,173.268 126,118.436 "/>
<polyline fill="#AED1D4" points="241.528,172.935 186.117,172.935 186.117,63.931 241.528,63.931 241.528,172.935 "/>
<polygon fill="#C8E0E2" points="186,173.268 241.528,173.268 186,118.436 "/>
<polyline fill="#AED1D4" points="301.278,172.935 245.867,172.935 245.867,63.931 301.278,63.931 301.278,172.935 "/>
<polygon fill="#C8E0E2" points="246,173.268 301.278,173.268 246,118.436 "/>
<polygon fill="#6A878B" points="37,133.728 37,155.492 5.906,128.844 5.906,128.844 6,128.842 6,24.768 0,4.475 0,130.228 
	46.662,167.48 "/>
<polygon fill="#7D9FA4" points="6,128.844 6,56.024 37,155.492 37,133.728 5.905,25.268 6,25.268 6,128.842 "/>
<polygon fill="#8FA9AC" points="6,128.844 6,128.844 37.189,155.492 6,56.024 "/>
<polygon fill="#5F797D" points="0,130.228 0,164.109 59,211.396 59,211.386 46.547,167.48 "/>
<polygon fill="#587075" points="23,11.268 63.25,43.268 301.277,43.268 255.25,11.268 "/>
<polygon fill="#7D8182" points="51.617,25.601 61.116,33.185 61.116,7.585 51.617,0.001 "/>
<polygon fill="#65696A" points="104.715,7.584 61.116,7.584 51.617,0 95.08,0 "/>
<polygon fill="#7D8182" points="116.617,25.601 126.116,33.185 126.116,7.585 116.617,0.001 "/>
<rect x="126.117" y="7.585" fill="#A1A8A9" width="43.598" height="25.6"/>
<polygon fill="#65696A" points="169.715,7.584 126.116,7.584 116.617,0 160.08,0 "/>
<rect x="61.117" y="7.585" fill="#A1A8A9" width="43.598" height="25.6"/>
</svg>
