<?xml version="1.0" encoding="utf-8"?>
<!-- Generator: Adobe Illustrator 15.0.0, SVG Export Plug-In . SVG Version: 6.00 Build 0)  -->
<!DOCTYPE svg PUBLIC "-//W3C//DTD SVG 1.1//EN" "http://www.w3.org/Graphics/SVG/1.1/DTD/svg11.dtd">
<svg version="1.1" id="Layer_1" xmlns="http://www.w3.org/2000/svg" xmlns:xlink="http://www.w3.org/1999/xlink" x="0px" y="0px"
	 width="318.401px" height="324.003px" viewBox="0 0 318.401 324.003" enable-background="new 0 0 318.401 324.003"
	 xml:space="preserve">
<rect y="195.722" fill="#B8B464" width="285.137" height="10"/>
<polygon fill="#B8B464" points="285.138,206.896 318.401,235.223 318.401,225.223 285.138,196.896 "/>
<rect y="7.078" fill="#B8B464" width="285.137" height="10"/>
<polygon fill="#B8B464" points="285.138,18.25 318.401,46.577 318.401,36.577 285.138,8.25 "/>
<polygon fill="#965853" points="6.514,295.676 39.901,324.002 39.901,28.327 6.514,0 "/>
<rect x="39.902" y="28.328" fill="#BD6E67" width="271.862" height="295.676"/>
<rect x="33.264" y="36.578" fill="#CFCA71" width="285.138" height="10"/>
<polygon fill="#B8B464" points="0,18.25 33.264,46.577 33.264,36.577 0,7.077 "/>
<polygon fill="#A8A55B" points="0,7.077 33.264,36.577 39.902,36.577 6.513,7.077 "/>
<rect x="33.264" y="225.222" fill="#CFCA71" width="285.138" height="10"/>
<rect x="33.264" y="235.222" fill="#965853" width="278.5" height="3.938"/>
<rect x="33.264" y="46.577" fill="#965853" width="278.5" height="3.938"/>
<polygon fill="#B8B464" points="0,206.896 33.264,235.223 33.264,225.223 0,195.723 "/>
<polygon fill="#A8A55B" points="0,195.723 33.264,225.223 39.902,225.223 6.513,195.723 "/>
<polygon fill="#7E4A45" points="311.765,28.327 39.902,28.327 6.514,0 277.536,0 "/>
<rect x="155.902" y="246.911" fill="#CFCA71" width="42.5" height="77.093"/>
<rect x="255.902" y="246.911" fill="#CFCA71" width="42.5" height="77.093"/>
<rect x="159.902" y="251.411" fill="#5E5E53" width="35.5" height="72.593"/>
<rect x="259.402" y="251.411" fill="#5E5E53" width="35.5" height="72.593"/>
<rect x="171.777" y="307.566" fill="#CFCA71" width="11.75" height="3.689"/>
<rect x="271.277" y="307.566" fill="#CFCA71" width="11.75" height="3.689"/>
<g>
	<path fill="#CFCA71" d="M189.39,295.161c0,1.512-1.227,2.738-2.738,2.738s-2.737-1.227-2.737-2.738s1.226-2.738,2.737-2.738
		S189.39,293.649,189.39,295.161"/>
	<rect x="56.402" y="246.911" fill="#CFCA71" width="42.5" height="77.093"/>
	<rect x="53.652" y="66.937" fill="#965853" width="49" height="64.982"/>
	<rect x="53.652" y="140.411" fill="#965853" width="49" height="64.983"/>
	<rect x="56.402" y="70.112" fill="#ADAA5E" width="42.5" height="58.632"/>
	<rect x="59.902" y="251.411" fill="#5E5E53" width="35.5" height="72.593"/>
	<rect x="72.277" y="307.566" fill="#CFCA71" width="11.75" height="3.689"/>
	<path fill="#CFCA71" d="M89.89,295.161c0,1.512-1.227,2.738-2.738,2.738s-2.737-1.227-2.737-2.738s1.226-2.738,2.737-2.738
		S89.89,293.649,89.89,295.161"/>
	<path fill="#CFCA71" d="M290.612,295.161c0,1.512-1.226,2.738-2.737,2.738c-1.511,0-2.737-1.227-2.737-2.738
		s1.227-2.738,2.737-2.738C289.387,292.422,290.612,293.649,290.612,295.161"/>
	<rect x="60.692" y="73.744" fill="#AED1D4" width="33.92" height="51.368"/>
	<g opacity="0.32">
		<g>
			<defs>
				<rect id="SVGID_1_" x="60.687" y="99.427" width="33.92" height="25.685"/>
			</defs>
			<clipPath id="SVGID_2_">
				<use xlink:href="#SVGID_1_"  overflow="visible"/>
			</clipPath>
			<polygon clip-path="url(#SVGID_2_)" fill="#FFFFFF" points="94.611,125.112 60.691,125.112 60.691,99.427 			"/>
		</g>
	</g>
	<rect x="113.389" y="66.937" fill="#965853" width="49" height="64.982"/>
	<rect x="113.389" y="140.411" fill="#965853" width="49" height="64.983"/>
	<rect x="116.639" y="70.112" fill="#ADAA5E" width="42.5" height="58.632"/>
	<rect x="120.929" y="73.744" fill="#AED1D4" width="33.92" height="51.368"/>
	<g opacity="0.32">
		<g>
			<defs>
				<rect id="SVGID_3_" x="120.927" y="99.427" width="33.92" height="25.685"/>
			</defs>
			<clipPath id="SVGID_4_">
				<use xlink:href="#SVGID_3_"  overflow="visible"/>
			</clipPath>
			<polygon clip-path="url(#SVGID_4_)" fill="#FFFFFF" points="154.849,125.112 120.929,125.112 120.929,99.427 			"/>
		</g>
	</g>
	<rect x="176.639" y="66.937" fill="#965853" width="49" height="64.982"/>
	<rect x="176.639" y="140.411" fill="#965853" width="49" height="64.983"/>
	<rect x="179.889" y="70.112" fill="#ADAA5E" width="42.5" height="58.632"/>
	<rect x="184.179" y="73.744" fill="#AED1D4" width="33.92" height="51.368"/>
	<g opacity="0.32">
		<g>
			<defs>
				<rect id="SVGID_5_" x="184.177" y="99.427" width="33.92" height="25.685"/>
			</defs>
			<clipPath id="SVGID_6_">
				<use xlink:href="#SVGID_5_"  overflow="visible"/>
			</clipPath>
			<polygon clip-path="url(#SVGID_6_)" fill="#FFFFFF" points="218.099,125.112 184.179,125.112 184.179,99.427 			"/>
		</g>
	</g>
	<rect x="234.902" y="66.937" fill="#965853" width="49" height="64.982"/>
	<rect x="238.152" y="70.112" fill="#ADAA5E" width="42.5" height="58.632"/>
	<rect x="242.442" y="73.744" fill="#AED1D4" width="33.92" height="51.368"/>
	<g opacity="0.32">
		<g>
			<defs>
				<rect id="SVGID_7_" x="242.437" y="99.427" width="33.92" height="25.685"/>
			</defs>
			<clipPath id="SVGID_8_">
				<use xlink:href="#SVGID_7_"  overflow="visible"/>
			</clipPath>
			<polygon clip-path="url(#SVGID_8_)" fill="#FFFFFF" points="276.361,125.112 242.441,125.112 242.441,99.427 			"/>
		</g>
	</g>
	<rect x="234.902" y="140.411" fill="#965853" width="49" height="64.983"/>
	<rect x="238.152" y="143.585" fill="#ADAA5E" width="42.5" height="58.632"/>
	<rect x="242.442" y="147.217" fill="#AED1D4" width="33.92" height="51.368"/>
	<g opacity="0.32">
		<g>
			<defs>
				<rect id="SVGID_9_" x="242.437" y="172.902" width="33.92" height="25.684"/>
			</defs>
			<clipPath id="SVGID_10_">
				<use xlink:href="#SVGID_9_"  overflow="visible"/>
			</clipPath>
			<polygon clip-path="url(#SVGID_10_)" fill="#FFFFFF" points="276.361,198.585 242.441,198.585 242.441,172.902 			"/>
		</g>
	</g>
	<rect x="116.639" y="143.585" fill="#ADAA5E" width="42.5" height="58.632"/>
	<rect x="120.929" y="147.217" fill="#AED1D4" width="33.92" height="51.368"/>
	<g opacity="0.32">
		<g>
			<defs>
				<rect id="SVGID_11_" x="120.927" y="172.902" width="33.92" height="25.684"/>
			</defs>
			<clipPath id="SVGID_12_">
				<use xlink:href="#SVGID_11_"  overflow="visible"/>
			</clipPath>
			<polygon clip-path="url(#SVGID_12_)" fill="#FFFFFF" points="154.849,198.585 120.929,198.585 120.929,172.902 			"/>
		</g>
	</g>
	<rect x="56.902" y="143.585" fill="#ADAA5E" width="42.5" height="58.632"/>
	<rect x="61.192" y="147.217" fill="#AED1D4" width="33.92" height="51.368"/>
	<g opacity="0.32">
		<g>
			<defs>
				<rect id="SVGID_13_" x="61.187" y="172.902" width="33.92" height="25.684"/>
			</defs>
			<clipPath id="SVGID_14_">
				<use xlink:href="#SVGID_13_"  overflow="visible"/>
			</clipPath>
			<polygon clip-path="url(#SVGID_14_)" fill="#FFFFFF" points="95.111,198.585 61.191,198.585 61.191,172.902 			"/>
		</g>
	</g>
	<rect x="179.889" y="143.585" fill="#ADAA5E" width="42.5" height="58.632"/>
	<rect x="184.179" y="147.217" fill="#AED1D4" width="33.92" height="51.368"/>
	<g opacity="0.32">
		<g>
			<defs>
				<rect id="SVGID_15_" x="184.177" y="172.902" width="33.92" height="25.684"/>
			</defs>
			<clipPath id="SVGID_16_">
				<use xlink:href="#SVGID_15_"  overflow="visible"/>
			</clipPath>
			<polygon clip-path="url(#SVGID_16_)" fill="#FFFFFF" points="218.099,198.585 184.179,198.585 184.179,172.902 			"/>
		</g>
	</g>
	<polygon fill="#854E49" points="6.514,23.797 39.901,225.223 6.514,195.723 	"/>
	<polygon fill="#854E49" points="6.514,212.443 39.901,324.003 6.514,295.675 	"/>
	<g opacity="0.06">
		<g>
			<defs>
				<rect id="SVGID_17_" x="39.897" y="239.336" width="198.25" height="84.667"/>
			</defs>
			<clipPath id="SVGID_18_">
				<use xlink:href="#SVGID_17_"  overflow="visible"/>
			</clipPath>
			<polygon clip-path="url(#SVGID_18_)" points="39.902,239.336 39.902,324.002 238.151,324.002 			"/>
		</g>
	</g>
	<g opacity="0.06">
		<g>
			<defs>
				<rect id="SVGID_19_" x="39.897" y="51.417" width="195" height="174.708"/>
			</defs>
			<clipPath id="SVGID_20_">
				<use xlink:href="#SVGID_19_"  overflow="visible"/>
			</clipPath>
			<polygon clip-path="url(#SVGID_20_)" points="39.902,51.417 234.901,226.125 39.902,226.125 			"/>
		</g>
	</g>
	<g opacity="0.06">
		<g>
			<defs>
				<rect id="SVGID_21_" x="39.897" y="28.744" width="195" height="7.834"/>
			</defs>
			<clipPath id="SVGID_22_">
				<use xlink:href="#SVGID_21_"  overflow="visible"/>
			</clipPath>
			<polygon clip-path="url(#SVGID_22_)" points="39.902,28.744 234.901,36.577 39.902,36.577 			"/>
		</g>
	</g>
</g>
</svg>
