<?xml version="1.0" encoding="utf-8"?>
<!-- Generator: Adobe Illustrator 17.0.0, SVG Export Plug-In . SVG Version: 6.00 Build 0)  -->
<!DOCTYPE svg PUBLIC "-//W3C//DTD SVG 1.1//EN" "http://www.w3.org/Graphics/SVG/1.1/DTD/svg11.dtd">
<svg version="1.1" id="Layer_1" xmlns="http://www.w3.org/2000/svg" xmlns:xlink="http://www.w3.org/1999/xlink" x="0px" y="0px"
	 width="55.35px" height="67.324px" viewBox="0 0 55.35 67.324" enable-background="new 0 0 55.35 67.324" xml:space="preserve">
<polyline fill="#A49150" points="26.497,67.324 19.995,67.324 19.995,54.581 26.497,54.581 26.497,67.324 "/>
<polyline fill="#A49150" points="35.055,67.324 28.554,67.324 28.554,54.581 35.055,54.581 35.055,67.324 "/>
<polyline fill="#4B5321" points="43.154,30.519 31.886,30.519 34.579,41.06 39.119,40.272 43.154,30.519 "/>
<polygon fill="#6F733C" points="43.153,9.41 20.489,9.41 11.998,17.311 24.496,17.84 35.046,17.748 "/>
<polyline fill="#A49150" points="35.099,38.51 35.099,33.89 43.154,25.986 43.154,9.41 35.12,17.311 18.911,17.311 18.911,63.459 
	35.109,63.459 43.154,56.347 43.154,30.519 35.099,38.51 "/>
<path fill="#A49150" d="M32.217,36.539c-0.796,0-1.441-0.645-1.441-1.441s0.645-1.441,1.441-1.441h2.903V17.311H11.998v46.148
	h23.111l0.011-26.92H32.217"/>
<polyline fill="#988851" points="35.12,17.311 11.998,63.459 35.109,63.459 35.12,17.311 "/>
<ellipse transform="matrix(0.9993 0.0371 -0.0371 0.9993 0.9581 -1.3949)" fill="#FFFFFF" cx="38.108" cy="25.148" rx="1.258" ry="2.91"/>
<ellipse transform="matrix(0.9993 0.0372 -0.0372 0.9993 0.9628 -1.4015)" cx="38.108" cy="25.148" rx="0.295" ry="0.682"/>
<ellipse transform="matrix(0.9993 0.037 -0.037 0.9993 0.8678 -1.5116)" fill="#FFFFFF" cx="41.233" cy="22.667" rx="1.173" ry="2.713"/>
<ellipse transform="matrix(0.9993 0.0371 -0.0371 0.9993 0.8682 -1.5122)" cx="41.233" cy="22.667" rx="0.275" ry="0.636"/>
<path d="M39.97,8.638C38.174,3.604,33.369,0,27.719,0c-6.118,0-11.244,4.224-12.634,9.914C8.935,11.078,4.914,12.745,5,14.4
	c0.135,2.605,10.397,4.19,22.92,3.54c12.523-0.65,22.565-3.289,22.43-5.895C50.264,10.401,46.144,9.164,39.97,8.638z"/>
<polyline fill="#D1D3D4" points="35.099,38.51 35.099,33.89 43.154,25.986 43.154,24.67 35.12,32.571 18.911,32.571 18.911,63.459 
	35.109,63.459 43.154,56.347 43.154,30.519 35.099,38.51 "/>
<polyline fill="#877A47" points="35.117,32.571 27.474,32.571 35.117,32.571 "/>
<polyline fill="#424A1B" points="35.116,33.873 35.116,33.873 35.116,33.873 35.116,33.873 "/>
<polyline fill="#877A47" points="35.116,33.873 35.099,33.89 35.099,38.51 35.099,38.51 35.099,33.89 35.116,33.873 "/>
<polyline fill="#BABCBE" points="35.117,32.571 35.117,32.571 27.474,32.571 18.911,49.662 18.911,63.459 35.109,63.459 
	35.115,38.494 35.099,38.51 35.099,38.51 35.099,38.51 35.099,33.89 35.116,33.873 35.116,33.873 35.117,32.571 "/>
<path fill="#D1D3D4" d="M21.882,21.44c0,0.394-0.319,0.714-0.714,0.714h-3.806c-0.394,0-0.714-0.319-0.714-0.714
	c0-0.394,0.319-0.714,0.714-0.714h3.806C21.563,20.727,21.882,21.046,21.882,21.44z"/>
<path fill="#D1D3D4" d="M21.882,30.44c0,0.394-0.319,0.714-0.714,0.714h-3.806c-0.394,0-0.714-0.319-0.714-0.714
	s0.319-0.714,0.714-0.714h3.806C21.563,29.726,21.882,30.046,21.882,30.44z"/>
<path fill="#D1D3D4" d="M21.882,28.64c0,0.394-0.319,0.714-0.714,0.714h-3.806c-0.394,0-0.714-0.319-0.714-0.714
	c0-0.394,0.319-0.714,0.714-0.714h3.806C21.563,27.926,21.882,28.246,21.882,28.64z"/>
<path fill="#D1D3D4" d="M21.882,26.84c0,0.394-0.319,0.714-0.714,0.714h-3.806c-0.394,0-0.714-0.319-0.714-0.714
	s0.319-0.714,0.714-0.714h3.806C21.563,26.126,21.882,26.446,21.882,26.84z"/>
<path fill="#D1D3D4" d="M21.882,25.04c0,0.394-0.319,0.714-0.714,0.714h-3.806c-0.394,0-0.714-0.319-0.714-0.714
	c0-0.394,0.319-0.714,0.714-0.714h3.806C21.563,24.326,21.882,24.646,21.882,25.04z"/>
<path fill="#D1D3D4" d="M21.882,23.24c0,0.394-0.319,0.714-0.714,0.714h-3.806c-0.394,0-0.714-0.319-0.714-0.714
	s0.319-0.714,0.714-0.714h3.806C21.563,22.527,21.882,22.846,21.882,23.24z"/>
<path fill="#D1D3D4" d="M21.724,23.621c-0.218,0.329-0.66,0.418-0.989,0.201l-3.766-1.775c-0.328-0.218-0.418-0.66-0.201-0.989
	s0.66-0.418,0.989-0.201l3.766,1.775C21.852,22.85,21.942,23.293,21.724,23.621z"/>
<path fill="#D1D3D4" d="M21.724,25.421c-0.218,0.328-0.66,0.418-0.989,0.201l-3.766-1.775c-0.328-0.218-0.418-0.66-0.201-0.989
	c0.218-0.329,0.66-0.418,0.989-0.201l3.766,1.775C21.852,24.65,21.942,25.093,21.724,25.421z"/>
<path fill="#D1D3D4" d="M21.724,27.221c-0.218,0.329-0.66,0.418-0.989,0.201l-3.766-1.775c-0.328-0.218-0.418-0.66-0.201-0.989
	s0.66-0.418,0.989-0.201l3.766,1.775C21.852,26.45,21.942,26.893,21.724,27.221z"/>
<path fill="#D1D3D4" d="M21.724,29.021c-0.218,0.328-0.66,0.418-0.989,0.201l-3.766-1.775c-0.328-0.218-0.418-0.66-0.201-0.989
	s0.66-0.418,0.989-0.201l3.766,1.775C21.852,28.25,21.942,28.693,21.724,29.021z"/>
<path fill="#D1D3D4" d="M21.724,30.821c-0.218,0.329-0.66,0.418-0.989,0.201l-3.766-1.775c-0.328-0.218-0.418-0.66-0.201-0.989
	c0.218-0.328,0.66-0.418,0.989-0.201l3.766,1.774C21.852,30.05,21.942,30.492,21.724,30.821z"/>
</svg>
