<?xml version="1.0" encoding="utf-8"?>
<!-- Generator: Adobe Illustrator 17.0.0, SVG Export Plug-In . SVG Version: 6.00 Build 0)  -->
<!DOCTYPE svg PUBLIC "-//W3C//DTD SVG 1.1//EN" "http://www.w3.org/Graphics/SVG/1.1/DTD/svg11.dtd">
<svg version="1.1" id="Layer_1" xmlns="http://www.w3.org/2000/svg" xmlns:xlink="http://www.w3.org/1999/xlink" x="0px" y="0px"
	 width="41.16px" height="57.915px" viewBox="0 0 41.16 57.915" enable-background="new 0 0 41.16 57.915" xml:space="preserve">
<rect x="12.935" y="45.172" fill="#00AAB0" width="6.501" height="12.743"/>
<rect x="21.494" y="45.172" fill="#00AAB0" width="6.501" height="12.743"/>
<polygon fill="#008D91" points="36.158,21.11 24.89,21.11 27.583,31.651 32.123,30.862 "/>
<polygon fill="#009DA2" points="36.158,0 13.493,0 5.002,7.901 17.5,8.431 28.05,8.338 "/>
<polygon fill="#00AAB0" points="28.103,29.101 28.103,24.481 36.158,16.576 36.158,0 28.124,7.901 11.915,7.901 11.915,54.049 
	28.113,54.049 36.158,46.938 36.158,21.11 "/>
<path fill="#00AAB0" d="M25.222,27.129c-0.796,0-1.441-0.645-1.441-1.442s0.645-1.442,1.441-1.442h2.903V7.901H5.002v46.148h23.111
	l0.011-26.92H25.222z"/>
<polygon fill="#009DA2" points="28.124,7.901 5.002,54.049 28.113,54.049 "/>
<ellipse transform="matrix(0.9993 0.0371 -0.0371 0.9993 0.6046 -1.1421)" fill="#FFFFFF" cx="31.112" cy="15.739" rx="1.258" ry="2.91"/>
<ellipse transform="matrix(0.9993 0.0372 -0.0372 0.9993 0.6077 -1.1477)" cx="31.112" cy="15.739" rx="0.295" ry="0.682"/>
<ellipse transform="matrix(0.9993 0.037 -0.037 0.9993 0.5145 -1.2591)" fill="#FFFFFF" cx="34.237" cy="13.257" rx="1.173" ry="2.713"/>
<ellipse transform="matrix(0.9993 0.0371 -0.0371 0.9993 0.5147 -1.2595)" cx="34.237" cy="13.257" rx="0.275" ry="0.636"/>
<path d="M35.71,10.775c-0.135-0.304-0.309-0.569-0.534-0.768c-0.223-0.198-0.503-0.325-0.814-0.337l-0.004,0h-0.005
	c-0.316-0.002-0.604,0.123-0.838,0.324c-0.352,0.303-0.602,0.763-0.78,1.293c-0.165,0.497-0.258,1.06-0.289,1.626
	c-0.105-0.168-0.22-0.323-0.36-0.448c-0.233-0.208-0.523-0.341-0.847-0.354l-0.004,0H31.23c-0.329-0.002-0.629,0.13-0.873,0.341
	c-0.367,0.318-0.629,0.804-0.815,1.365c-0.185,0.561-0.291,1.202-0.316,1.841l-0.003,0.154H14.34v0.508h14.895
	c0.033,0.686,0.154,1.347,0.385,1.885c0.139,0.32,0.316,0.599,0.544,0.807c0.227,0.209,0.512,0.343,0.829,0.356l0.003,0h0.003
	l0.037,0.001h0.003c0.329,0.002,0.629-0.129,0.873-0.341c0.368-0.319,0.629-0.804,0.816-1.365c0.181-0.551,0.286-1.177,0.313-1.804
	c0.086,0.129,0.183,0.244,0.292,0.343c0.218,0.198,0.492,0.326,0.796,0.338l0.003,0h0.003l0.036,0.001h0.003
	c0.315,0.002,0.604-0.123,0.838-0.324c0.352-0.303,0.602-0.763,0.78-1.293c0.176-0.531,0.277-1.136,0.301-1.74l0.005-0.252
	C36.1,12.154,35.979,11.383,35.71,10.775z M32.554,15.802c-0.03,0.79-0.2,1.588-0.476,2.162c-0.138,0.287-0.301,0.517-0.476,0.666
	c-0.176,0.15-0.355,0.224-0.561,0.224l-0.029,0c-0.201-0.01-0.368-0.086-0.528-0.23c-0.238-0.215-0.441-0.597-0.575-1.075
	c-0.135-0.477-0.203-1.045-0.2-1.619l0.005-0.25c0.03-0.791,0.2-1.589,0.477-2.163c0.138-0.287,0.301-0.516,0.476-0.666
	c0.175-0.149,0.353-0.222,0.557-0.224c0.21,0.011,0.383,0.088,0.546,0.231c0.245,0.216,0.451,0.597,0.587,1.075
	c0.137,0.477,0.205,1.045,0.203,1.618L32.554,15.802z M35.604,13.164c-0.028,0.743-0.189,1.493-0.451,2.031
	c-0.13,0.269-0.285,0.484-0.449,0.623c-0.166,0.14-0.333,0.209-0.527,0.209l-0.028,0c-0.189-0.009-0.346-0.08-0.496-0.214
	c-0.224-0.2-0.417-0.559-0.544-1.008c-0.128-0.448-0.193-0.983-0.191-1.523l0.005-0.233c0.029-0.744,0.189-1.494,0.451-2.032
	c0.13-0.269,0.285-0.484,0.449-0.623c0.164-0.139,0.331-0.207,0.523-0.208c0.198,0.01,0.361,0.082,0.514,0.216
	c0.231,0.201,0.426,0.558,0.555,1.007c0.13,0.448,0.195,0.982,0.193,1.522L35.604,13.164z"/>
</svg>
