<?xml version="1.0" encoding="utf-8"?>
<!-- Generator: Adobe Illustrator 17.0.0, SVG Export Plug-In . SVG Version: 6.00 Build 0)  -->
<!DOCTYPE svg PUBLIC "-//W3C//DTD SVG 1.1//EN" "http://www.w3.org/Graphics/SVG/1.1/DTD/svg11.dtd">
<svg version="1.1" id="Layer_1" xmlns="http://www.w3.org/2000/svg" xmlns:xlink="http://www.w3.org/1999/xlink" x="0px" y="0px"
	 width="53.3px" height="118.674px" viewBox="0 0 53.3 118.674" enable-background="new 0 0 53.3 118.674" xml:space="preserve">
<path fill="#59BA47" d="M44.689,96.423c0.049,3.067-1.791,5.265-6.177,6.007l-5.918,0.712l-21.482,2.583
	c-2.954,0-5.35-2.172-5.96-4.976c-0.074-0.342-0.122-0.694-0.142-1.053c-0.025-0.494,0.003-1,0.093-1.512l1.39-8.001l0.189-1.089
	l1.656-9.532l0.19-1.088l1.656-9.533l0.188-1.089l1.656-9.53l0.19-1.089l1.656-9.532l0.189-1.089l1.656-9.532l0.19-1.089l1.656-9.53
	l0.188-1.089l1.656-9.533l0.19-1.089l1.656-9.53l0.189-1.089L22.163,0l0.926,3.929l0.245,1.036l2.154,9.141l0.246,1.041l2.15,9.117
	l0.245,1.041l2.148,9.115l0.246,1.041l2.15,9.117l0.245,1.041l2.148,9.115l0.246,1.041l2.148,9.115l0.246,1.041l2.148,9.117
	l0.246,1.041l2.148,9.115l0.246,1.041l1.973,8.372c0.055,0.255,0.101,0.504,0.136,0.75C44.655,95.728,44.684,96.081,44.689,96.423z"
	/>
<path fill="#59BA47" d="M44.689,96.423c0.049,3.067-1.791,5.265-6.177,6.007l-5.918,0.712l-21.482,2.583
	c-2.954,0-5.35-2.172-5.96-4.976c-0.074-0.342-0.122-0.694-0.142-1.053c-0.025-0.494,0.003-1,0.093-1.512l1.39-8.001l0.189-1.089
	l1.656-9.532l0.19-1.088l1.656-9.533l0.188-1.089l1.656-9.53l0.19-1.089l1.656-9.532l0.189-1.089l1.656-9.532l0.19-1.089l1.656-9.53
	l0.188-1.089l1.656-9.533l0.19-1.089l1.656-9.53l0.189-1.089L22.163,0l0.926,3.929l0.245,1.036l2.154,9.141l0.246,1.041l2.15,9.117
	l0.245,1.041l2.148,9.115l0.246,1.041l2.15,9.117l0.245,1.041l2.148,9.115l0.246,1.041l2.148,9.115l0.246,1.041l2.148,9.117
	l0.246,1.041l2.148,9.115l0.246,1.041l1.973,8.372c0.055,0.255,0.101,0.504,0.136,0.75C44.655,95.728,44.684,96.081,44.689,96.423z"
	/>
<polygon fill="#9D8B31" points="28.24,116.393 25.346,117.15 24.016,116.393 24.016,104.172 28.231,103.666 "/>
<polygon fill="#8F7F30" points="27.133,116.682 25.346,117.15 24.016,116.393 24.016,104.172 24.493,104.116 "/>
<polygon fill="#81C44E" points="22.163,0 44.603,95.364 18.423,52.293 "/>
<path fill="#50A646" d="M37.008,102.611l-25.883,3.112l-0.03,0.002c-2.947-0.007-5.336-2.177-5.945-4.976
	c-0.074-0.342-0.122-0.694-0.142-1.053c-0.025-0.494,0.003-1,0.093-1.512l1.39-8.001l0.189-1.089l1.656-9.532l0.19-1.088
	l1.656-9.533l0.188-1.089l1.656-9.53l0.19-1.089l1.656-9.532l0.189-1.089l1.656-9.532l0.19-1.089l1.656-9.53l0.188-1.089
	l1.656-9.533l0.19-1.089l1.656-9.53l0.188-1.08l0.004-0.018l0.006-0.025c0.069-0.273,0.455-0.204,0.435,0.077l-6.443,89.442
	c-0.182,2.527,1.492,4.788,3.875,5.233l17.7,3.304C37.273,102.199,37.262,102.581,37.008,102.611z"/>
</svg>
