<?xml version="1.0" encoding="utf-8"?>
<!-- Generator: Adobe Illustrator 17.0.0, SVG Export Plug-In . SVG Version: 6.00 Build 0)  -->
<!DOCTYPE svg PUBLIC "-//W3C//DTD SVG 1.1//EN" "http://www.w3.org/Graphics/SVG/1.1/DTD/svg11.dtd">
<svg version="1.1" id="Layer_1" xmlns="http://www.w3.org/2000/svg" xmlns:xlink="http://www.w3.org/1999/xlink" x="0px" y="0px"
	 width="42.12px" height="88.025px" viewBox="0 0 42.12 88.025" enable-background="new 0 0 42.12 88.025" xml:space="preserve">
<polygon fill="#E4E5E6" points="20.977,88.025 6.516,86.709 20.157,84.641 37.119,86.618 "/>
<path fill="#59BA47" d="M34.44,71.52c0.036,2.275-1.328,3.905-4.582,4.456l-4.39,0.528L9.534,78.42
	c-2.191,0-3.968-1.611-4.421-3.691c-0.055-0.254-0.09-0.515-0.105-0.781c-0.018-0.366,0.002-0.742,0.069-1.121l1.031-5.934
	l0.141-0.808l1.229-7.07l0.141-0.807l1.229-7.071l0.14-0.808l1.229-7.069l0.141-0.808l1.229-7.07l0.141-0.808l1.229-7.07
	l0.141-0.808l1.229-7.069l0.14-0.808l1.229-7.071l0.141-0.808l1.229-7.069L17.2,3.064L17.732,0l0.687,2.914L18.6,3.683l1.598,6.78
	l0.182,0.772l1.595,6.762l0.181,0.772l1.594,6.761l0.182,0.772l1.595,6.762l0.181,0.772l1.594,6.761l0.182,0.772l1.594,6.761
	l0.182,0.772l1.594,6.762l0.182,0.772l1.594,6.761l0.182,0.772l1.464,6.21c0.041,0.189,0.075,0.374,0.101,0.556
	C34.415,71.005,34.437,71.266,34.44,71.52z"/>
<path fill="#59BA47" d="M34.44,71.52c0.036,2.275-1.328,3.905-4.582,4.456l-4.39,0.528L9.534,78.42
	c-2.191,0-3.968-1.611-4.421-3.691c-0.055-0.254-0.09-0.515-0.105-0.781c-0.018-0.366,0.002-0.742,0.069-1.121l1.031-5.934
	l0.141-0.808l1.229-7.07l0.141-0.807l1.229-7.071l0.14-0.808l1.229-7.069l0.141-0.808l1.229-7.07l0.141-0.808l1.229-7.07
	l0.141-0.808l1.229-7.069l0.14-0.808l1.229-7.071l0.141-0.808l1.229-7.069L17.2,3.064L17.732,0l0.687,2.914L18.6,3.683l1.598,6.78
	l0.182,0.772l1.595,6.762l0.181,0.772l1.594,6.761l0.182,0.772l1.595,6.762l0.181,0.772l1.594,6.761l0.182,0.772l1.594,6.761
	l0.182,0.772l1.594,6.762l0.182,0.772l1.594,6.761l0.182,0.772l1.464,6.21c0.041,0.189,0.075,0.374,0.101,0.556
	C34.415,71.005,34.437,71.266,34.44,71.52z"/>
<polygon fill="#9D8B31" points="22.239,86.333 20.093,86.894 19.106,86.333 19.106,77.268 22.233,76.892 "/>
<polygon fill="#8F7F30" points="21.418,86.547 20.093,86.894 19.106,86.333 19.106,77.268 19.46,77.226 "/>
<polygon fill="#81C44E" points="17.732,0 34.377,70.735 14.958,38.787 "/>
<path fill="#50A646" d="M28.743,76.11L9.545,78.418L9.523,78.42c-2.186-0.005-3.958-1.615-4.41-3.691
	c-0.055-0.254-0.09-0.515-0.105-0.781c-0.018-0.366,0.002-0.742,0.069-1.121l1.031-5.934l0.141-0.808l1.229-7.07l0.141-0.807
	l1.229-7.071l0.14-0.808l1.229-7.069l0.141-0.808l1.229-7.07l0.141-0.808l1.229-7.07l0.141-0.808l1.229-7.069l0.14-0.808
	l1.229-7.071l0.141-0.808l1.229-7.069l0.139-0.801l0.003-0.013l0.005-0.018c0.051-0.202,0.338-0.151,0.323,0.057L12.75,69.438
	c-0.135,1.874,1.107,3.551,2.874,3.881l13.129,2.45C28.939,75.805,28.931,76.088,28.743,76.11z"/>
</svg>
