<?xml version="1.0" encoding="utf-8"?>
<!-- Generator: Adobe Illustrator 17.0.0, SVG Export Plug-In . SVG Version: 6.00 Build 0)  -->
<!DOCTYPE svg PUBLIC "-//W3C//DTD SVG 1.1//EN" "http://www.w3.org/Graphics/SVG/1.1/DTD/svg11.dtd">
<svg version="1.1" id="Layer_1" xmlns="http://www.w3.org/2000/svg" xmlns:xlink="http://www.w3.org/1999/xlink" x="0px" y="0px"
	 width="29.9px" height="54.554px" viewBox="0 0 29.9 54.554" enable-background="new 0 0 29.9 54.554" xml:space="preserve">
<polygon fill="#E4E5E6" points="14.898,54.554 5.936,53.739 14.39,52.456 24.902,53.682 "/>
<path fill="#59BA47" d="M23.242,44.325c0.023,1.41-0.823,2.42-2.84,2.761l-2.721,0.327l-9.875,1.187
	c-1.358,0-2.459-0.998-2.74-2.287c-0.034-0.157-0.056-0.319-0.065-0.484c-0.011-0.227,0.001-0.459,0.042-0.695l0.639-3.678
	l0.087-0.501l0.761-4.382l0.087-0.5l0.761-4.382l0.087-0.501l0.761-4.381l0.087-0.501l0.761-4.382l0.087-0.501l0.761-4.382
	l0.087-0.501l0.761-4.381l0.086-0.501l0.761-4.382l0.087-0.501l0.761-4.381l0.087-0.501L12.887,0l0.426,1.806l0.112,0.476
	l0.99,4.202l0.113,0.478l0.988,4.191l0.112,0.478l0.988,4.19l0.113,0.478l0.988,4.191l0.112,0.478l0.988,4.19l0.113,0.478
	l0.988,4.19l0.113,0.478l0.988,4.191l0.113,0.478l0.988,4.19l0.113,0.478l0.907,3.848c0.025,0.117,0.047,0.232,0.062,0.345
	C23.227,44.005,23.24,44.168,23.242,44.325z"/>
<path fill="#59BA47" d="M23.242,44.325c0.023,1.41-0.823,2.42-2.84,2.761l-2.721,0.327l-9.875,1.187
	c-1.358,0-2.459-0.998-2.74-2.287c-0.034-0.157-0.056-0.319-0.065-0.484c-0.011-0.227,0.001-0.459,0.042-0.695l0.639-3.678
	l0.087-0.501l0.761-4.382l0.087-0.5l0.761-4.382l0.087-0.501l0.761-4.381l0.087-0.501l0.761-4.382l0.087-0.501l0.761-4.382
	l0.087-0.501l0.761-4.381l0.086-0.501l0.761-4.382l0.087-0.501l0.761-4.381l0.087-0.501L12.887,0l0.426,1.806l0.112,0.476
	l0.99,4.202l0.113,0.478l0.988,4.191l0.112,0.478l0.988,4.19l0.113,0.478l0.988,4.191l0.112,0.478l0.988,4.19l0.113,0.478
	l0.988,4.19l0.113,0.478l0.988,4.191l0.113,0.478l0.988,4.19l0.113,0.478l0.907,3.848c0.025,0.117,0.047,0.232,0.062,0.345
	C23.227,44.005,23.24,44.168,23.242,44.325z"/>
<polygon fill="#9D8B31" points="15.681,53.505 14.351,53.853 13.739,53.505 13.739,47.887 15.677,47.654 "/>
<polygon fill="#8F7F30" points="15.172,53.638 14.351,53.853 13.739,53.505 13.739,47.887 13.958,47.861 "/>
<polygon fill="#81C44E" points="12.887,0 23.203,43.838 11.168,24.039 "/>
<path fill="#50A646" d="M19.711,47.17L7.813,48.6L7.8,48.601c-1.355-0.003-2.453-1.001-2.733-2.287
	c-0.034-0.157-0.056-0.319-0.065-0.484c-0.011-0.227,0.001-0.459,0.042-0.695l0.639-3.678l0.087-0.501l0.761-4.382l0.087-0.5
	l0.761-4.382l0.087-0.501l0.761-4.381l0.087-0.501l0.761-4.382l0.087-0.501l0.761-4.382l0.087-0.501l0.761-4.381l0.086-0.501
	l0.761-4.382l0.087-0.501l0.761-4.381l0.086-0.496l0.002-0.008l0.003-0.011c0.032-0.125,0.209-0.094,0.2,0.035L9.8,43.035
	c-0.084,1.162,0.686,2.201,1.781,2.406l8.137,1.519C19.833,46.98,19.828,47.156,19.711,47.17z"/>
</svg>
