<?xml version="1.0" encoding="utf-8"?>
<!-- Generator: Adobe Illustrator 15.0.0, SVG Export Plug-In . SVG Version: 6.00 Build 0)  -->
<!DOCTYPE svg PUBLIC "-//W3C//DTD SVG 1.1//EN" "http://www.w3.org/Graphics/SVG/1.1/DTD/svg11.dtd">
<svg version="1.1" id="Layer_1" xmlns="http://www.w3.org/2000/svg" xmlns:xlink="http://www.w3.org/1999/xlink" x="0px" y="0px"
	 width="663px" height="248px" viewBox="0 0 663 248" enable-background="new 0 0 663 248" xml:space="preserve">
<path fill="#DBDCDD" d="M663,86V0H0v86H663z M603,63h31v5h-31V63z M543,63h30v5h-30V63z M483,63h30v5h-30V63z M423,63h30v5h-30V63z
	 M362,63h31v5h-31V63z M302,63h30v5h-30V63z M242,63h30v5h-30V63z M182,63h30v5h-30V63z M121,63h30v5h-30V63z M61,63h30v5H61V63z
	 M1,63h30v5H1V63z"/>
<rect x="1" y="63" fill="#FFFFFF" width="30" height="5"/>
<rect x="242" y="63" fill="#FFFFFF" width="30" height="5"/>
<rect x="182" y="63" fill="#FFFFFF" width="30" height="5"/>
<rect x="121" y="63" fill="#FFFFFF" width="30" height="5"/>
<rect x="302" y="63" fill="#FFFFFF" width="30" height="5"/>
<rect x="61" y="63" fill="#FFFFFF" width="30" height="5"/>
<rect x="423" y="63" fill="#FFFFFF" width="30" height="5"/>
<rect x="362" y="63" fill="#FFFFFF" width="31" height="5"/>
<rect x="543" y="63" fill="#FFFFFF" width="30" height="5"/>
<rect x="603" y="63" fill="#FFFFFF" width="31" height="5"/>
<rect x="483" y="63" fill="#FFFFFF" width="30" height="5"/>
<rect y="242" fill="#C0C1C3" width="663" height="6"/>
<rect y="162" fill="#DBDCDD" width="663" height="78"/>
<rect y="156" fill="#DBDCDD" width="663" height="6"/>
<polygon fill="#DBDCDD" points="0,154 0,154 0,154 30,154 30,149 60,149 60,154 90,154 90,149 121,149 121,154 151,154 151,149 
	181,149 181,154 211,154 211,149 241,149 241,154 271,154 271,149 301,149 301,154 332,154 332,149 362,149 362,154 392,154 
	392,149 422,149 422,154 452,154 452,149 482,149 482,154 512,154 512,149 543,149 543,154 573,154 573,149 603,149 603,154 
	633,154 633,149 663,149 663,86 0,86 0,149 "/>
<polygon fill="#DBDCDD" points="633,154 603,154 573,154 543,154 512,154 482,154 452,154 422,154 392,154 362,154 332,154 301,154 
	271,154 241,154 211,154 181,154 151,154 121,154 90,154 60,154 30,154 0.039,154 0,154 0,156 663,156 663,154 "/>
<rect y="240" fill="#DBDCDD" width="663" height="2"/>
<rect x="452" y="149" fill="#FFFFFF" width="30" height="5"/>
<rect x="211" y="149" fill="#FFFFFF" width="30" height="5"/>
<rect x="332" y="149" fill="#FFFFFF" width="30" height="5"/>
<rect x="512" y="149" fill="#FFFFFF" width="31" height="5"/>
<rect x="271" y="149" fill="#FFFFFF" width="30" height="5"/>
<rect x="392" y="149" fill="#FFFFFF" width="30" height="5"/>
<rect x="573" y="149" fill="#FFFFFF" width="30" height="5"/>
<polygon fill="#FFFFFF" points="663,153.901 663,149 633,149 633,154 663,154 "/>
<rect x="151" y="149" fill="#FFFFFF" width="30" height="5"/>
<rect x="90" y="149" fill="#FFFFFF" width="31" height="5"/>
<rect x="30" y="149" fill="#FFFFFF" width="30" height="5"/>
<rect y="153.901" fill="#FFFFFF" width="0.039" height="0.099"/>
</svg>
