<?xml version="1.0" encoding="utf-8"?>
<!-- Generator: Adobe Illustrator 17.0.0, SVG Export Plug-In . SVG Version: 6.00 Build 0)  -->
<!DOCTYPE svg PUBLIC "-//W3C//DTD SVG 1.1//EN" "http://www.w3.org/Graphics/SVG/1.1/DTD/svg11.dtd">
<svg version="1.1" id="Layer_1" xmlns="http://www.w3.org/2000/svg" xmlns:xlink="http://www.w3.org/1999/xlink" x="0px" y="0px"
	 width="41.16px" height="57.915px" viewBox="0 0 41.16 57.915" enable-background="new 0 0 41.16 57.915" xml:space="preserve">
<rect x="12.999" y="45.172" fill="#F58020" width="6.501" height="12.743"/>
<rect x="21.558" y="45.172" fill="#F58020" width="6.502" height="12.743"/>
<polygon fill="#F26522" points="36.158,21.11 24.89,21.11 27.583,31.651 32.123,30.862 "/>
<polygon fill="#F58020" points="36.158,0 13.493,0 5.002,7.901 17.5,8.431 28.05,8.338 "/>
<polygon fill="#F89A38" points="28.103,29.101 28.103,24.481 36.158,16.576 36.158,0 28.124,7.901 11.915,7.901 11.915,54.049 
	28.114,54.049 36.158,46.938 36.158,21.11 "/>
<path fill="#F89A38" d="M25.222,27.129c-0.796,0-1.442-0.645-1.442-1.442s0.645-1.442,1.442-1.442h2.903V7.901H5.002v46.148h23.111
	l0.011-26.92H25.222z"/>
<polygon fill="#F58020" points="28.124,7.901 5.002,54.049 28.113,54.049 "/>
<ellipse transform="matrix(0.9993 0.0371 -0.0371 0.9993 0.6046 -1.1421)" fill="#FFFFFF" cx="31.112" cy="15.739" rx="1.258" ry="2.91"/>
<ellipse transform="matrix(0.9993 0.0372 -0.0372 0.9993 0.6076 -1.1475)" cx="31.112" cy="15.739" rx="0.295" ry="0.682"/>
<ellipse transform="matrix(0.9993 0.037 -0.037 0.9993 0.5145 -1.2591)" fill="#FFFFFF" cx="34.237" cy="13.257" rx="1.173" ry="2.713"/>
<ellipse transform="matrix(0.9993 0.0371 -0.0371 0.9993 0.5148 -1.2597)" cx="34.237" cy="13.257" rx="0.275" ry="0.636"/>
<polygon points="28.134,29.051 28.134,24.464 36.158,16.576 36.158,15.26 28.124,23.161 11.915,54.049 28.114,54.049 36.158,46.938 
	36.158,21.11 "/>
</svg>
