<?xml version="1.0" encoding="utf-8"?>
<!-- Generator: Adobe Illustrator 17.0.0, SVG Export Plug-In . SVG Version: 6.00 Build 0)  -->
<!DOCTYPE svg PUBLIC "-//W3C//DTD SVG 1.1//EN" "http://www.w3.org/Graphics/SVG/1.1/DTD/svg11.dtd">
<svg version="1.1" id="Layer_1" xmlns="http://www.w3.org/2000/svg" xmlns:xlink="http://www.w3.org/1999/xlink" x="0px" y="0px"
	 width="41.2px" height="77.397px" viewBox="0 0 41.2 77.397" enable-background="new 0 0 41.2 77.397" xml:space="preserve">
<rect x="13.174" y="64.654" fill="#F9A77F" width="6.501" height="12.743"/>
<rect x="21.733" y="64.654" fill="#F9A77F" width="6.501" height="12.743"/>
<polygon fill="#DDA4CA" points="28.137,48.583 28.137,43.963 36.192,36.058 36.192,19.482 28.158,27.383 11.949,27.383 
	11.949,73.531 28.147,73.531 36.192,66.42 36.192,40.592 "/>
<polygon fill="#D78863" points="36.192,40.592 24.924,40.592 27.617,51.133 32.157,50.344 "/>
<polygon fill="#F79A6F" points="36.192,19.482 13.527,19.482 5.037,27.383 17.534,27.913 28.084,27.82 "/>
<polygon fill="#F9A77F" points="28.137,48.583 28.137,43.963 36.192,36.058 36.192,19.482 28.158,27.383 11.949,27.383 
	11.949,73.531 28.147,73.531 36.192,66.42 36.192,40.592 "/>
<path fill="#F9A77F" d="M25.256,46.611c-0.796,0-1.442-0.645-1.442-1.442s0.645-1.442,1.442-1.442h2.903V27.383H5.037v46.148h23.111
	l0.011-26.92H25.256z"/>
<polygon fill="#F79A6F" points="28.159,27.383 5.037,73.531 28.147,73.531 "/>
<ellipse transform="matrix(0.9993 0.037 -0.037 0.9993 1.2077 -1.1909)" fill="#FFFFFF" cx="32.767" cy="32.02" rx="1.661" ry="3.84"/>
<ellipse transform="matrix(0.9993 0.0372 -0.0372 0.9993 1.2124 -1.1954)" cx="32.767" cy="32.02" rx="0.389" ry="0.9"/>
<polygon fill="#DE7478" points="36.192,40.592 28.137,48.583 28.137,43.963 36.195,36.054 36.197,34.556 28.133,42.499 
	28.133,50.063 36.172,42.123 "/>
<path fill="#F58258" d="M36.198,23.314v-7.748C36.198,6.969,29.229,0,20.633,0S5.002,6.969,5.002,15.565V27.61
	c0,0,4.764,1.736,15.57,1.549C32.994,28.945,36.198,23.314,36.198,23.314z"/>
<ellipse fill="#F79A6F" cx="10.684" cy="14.666" rx="3" ry="3.6"/>
</svg>
