<?xml version="1.0" encoding="utf-8"?>
<!-- Generator: Adobe Illustrator 17.0.0, SVG Export Plug-In . SVG Version: 6.00 Build 0)  -->
<!DOCTYPE svg PUBLIC "-//W3C//DTD SVG 1.1//EN" "http://www.w3.org/Graphics/SVG/1.1/DTD/svg11.dtd">
<svg version="1.1" id="Layer_1" xmlns="http://www.w3.org/2000/svg" xmlns:xlink="http://www.w3.org/1999/xlink" x="0px" y="0px"
	 width="41.16px" height="57.915px" viewBox="0 0 41.16 57.915" enable-background="new 0 0 41.16 57.915" xml:space="preserve">
<rect x="13.127" y="45.172" fill="#DDA4CA" width="6.501" height="12.743"/>
<rect x="21.685" y="45.172" fill="#DDA4CA" width="6.502" height="12.743"/>
<polygon fill="#DDA4CA" points="28.101,29.101 28.101,24.481 36.155,16.576 36.155,0 28.122,7.901 11.913,7.901 11.913,54.049 
	28.111,54.049 36.155,46.938 36.155,21.11 "/>
<polygon fill="#D071AA" points="36.155,21.11 24.888,21.11 27.581,31.651 32.121,30.862 "/>
<polygon fill="#D68FBE" points="36.155,0 13.491,0 5,7.901 17.497,8.431 28.048,8.338 "/>
<polygon fill="#DDA4CA" points="28.101,29.101 28.101,24.481 36.155,16.576 36.155,0 28.122,7.901 11.913,7.901 11.913,54.049 
	28.111,54.049 36.155,46.938 36.155,21.11 "/>
<path fill="#DDA4CA" d="M25.219,27.129c-0.796,0-1.442-0.645-1.442-1.442s0.645-1.442,1.442-1.442h2.903V7.901H5v46.148h23.111
	l0.011-26.92H25.219z"/>
<polygon fill="#D68FBE" points="28.122,7.901 5,54.049 28.111,54.049 "/>
<ellipse transform="matrix(0.9993 0.0371 -0.0371 0.9993 0.6046 -1.142)" fill="#FFFFFF" cx="31.11" cy="15.739" rx="1.258" ry="2.91"/>
<ellipse transform="matrix(0.9993 0.0372 -0.0372 0.9993 0.6076 -1.1474)" cx="31.11" cy="15.739" rx="0.295" ry="0.682"/>
<ellipse transform="matrix(0.9993 0.037 -0.037 0.9993 0.5145 -1.2589)" fill="#FFFFFF" cx="34.234" cy="13.257" rx="1.173" ry="2.713"/>
<ellipse transform="matrix(0.9993 0.0371 -0.0371 0.9993 0.5147 -1.2594)" cx="34.234" cy="13.257" rx="0.275" ry="0.636"/>
<polygon fill="#D80B8C" points="36.155,21.11 28.101,29.101 28.101,24.481 36.158,16.572 36.16,15.074 28.096,23.017 28.096,30.581 
	36.136,22.641 "/>
<path fill="#EEE809" d="M22.515,26.095h-0.262c0,1.368-0.554,2.604-1.45,3.5c-0.897,0.896-2.132,1.45-3.5,1.45
	c-1.368,0-2.604-0.554-3.5-1.45c-0.896-0.897-1.45-2.132-1.45-3.5c0-1.368,0.554-2.604,1.45-3.5c0.897-0.896,2.132-1.45,3.5-1.45
	c1.368,0,2.604,0.554,3.5,1.45c0.896,0.897,1.45,2.132,1.45,3.5H22.515h0.262c0-3.023-2.451-5.474-5.474-5.474
	c-3.023,0-5.474,2.451-5.474,5.474c0,3.023,2.451,5.474,5.474,5.474c3.023,0,5.474-2.451,5.474-5.474H22.515z"/>
</svg>
