<?xml version="1.0" encoding="utf-8"?>
<!-- Generator: Adobe Illustrator 15.0.0, SVG Export Plug-In . SVG Version: 6.00 Build 0)  -->
<!DOCTYPE svg PUBLIC "-//W3C//DTD SVG 1.1//EN" "http://www.w3.org/Graphics/SVG/1.1/DTD/svg11.dtd">
<svg version="1.1" id="Layer_1" xmlns="http://www.w3.org/2000/svg" xmlns:xlink="http://www.w3.org/1999/xlink" x="0px" y="0px"
	 width="844px" height="248px" viewBox="0 0 844 248" enable-background="new 0 0 844 248" xml:space="preserve">
<rect x="-0.498" y="242" fill="#A09957" width="844" height="6"/>
<rect x="-0.498" fill="#C4AE72" width="844" height="242"/>
<path fill="#E8D09C" d="M813.012,154h30.139v-5h-30.139V154z M752.739,154h30.137v-5h-30.137V154z M692.464,154h30.138v-5h-30.138
	V154z M632.191,154h30.137v-5h-30.137V154z M571.917,154h30.137v-5h-30.137V154z M511.643,154h30.139v-5h-30.139V154L511.643,154z
	 M451.37,154h30.137v-5H451.37V154z M391.095,154h30.139v-5h-30.139V154z M330.822,154h30.137v-5h-30.137V154z M270.547,154h30.137
	v-5h-30.137V154z M210.274,154h30.137v-5h-30.137V154z M150,154h30.137v-5H150V154z M89.726,154h30.137v-5H89.726V154z M29.452,154
	h30.137v-5H29.452V154z"/>
<path fill="#E8D09C" d="M783.56,68h30.139v-5H783.56V68z M723.286,68h30.138v-5h-30.138V68z M663.012,68h30.139v-5h-30.139V68z
	 M602.739,68h30.137v-5h-30.137V68z M542.464,68h30.138v-5h-30.138V68z M482.191,68h30.137v-5h-30.137V68z M421.917,68h30.137v-5
	h-30.137V68z M361.643,68h30.137v-5h-30.137V68z M301.37,68h30.137v-5H301.37V68z M241.095,68h30.137v-5h-30.137V68z M180.822,68
	h30.137v-5h-30.137V68z M120.547,68h30.137v-5h-30.137V68z M60.274,68h30.137v-5H60.274V68z M0,68h30.137v-5H0V68z"/>
</svg>
