<?xml version="1.0" encoding="utf-8"?>
<!-- Generator: Adobe Illustrator 17.0.0, SVG Export Plug-In . SVG Version: 6.00 Build 0)  -->
<!DOCTYPE svg PUBLIC "-//W3C//DTD SVG 1.1//EN" "http://www.w3.org/Graphics/SVG/1.1/DTD/svg11.dtd">
<svg version="1.1" id="Layer_1" xmlns="http://www.w3.org/2000/svg" xmlns:xlink="http://www.w3.org/1999/xlink" x="0px" y="0px"
	 width="278.77px" height="220.973px" viewBox="0 0 278.77 220.973" enable-background="new 0 0 278.77 220.973"
	 xml:space="preserve">
<polyline fill="#E1CF9F" points="258.97,220.973 37.838,220.973 37.838,129.921 258.97,129.921 258.97,220.973 "/>
<polyline fill="#EEE4CB" points="258.97,129.238 37.838,129.238 37.838,129.921 257.312,129.921 258.97,129.238 "/>
<path fill="#D5BF87" d="M95.998,152.361c-11.987,0-21.842,9.303-22.724,21.069h15.164h15.112h15.169v13.557l11.699-4.817h-2.891
	h-8.794l-0.011-8.74C117.84,161.664,107.985,152.361,95.998,152.361 M257.312,129.921H37.838v2.555v87.814l40.879-16.832h-5.443
	V173.43l0,0l-0.005,8.734l-8.8,0.006H45.485h-7.648v-4.342h29.9c0.804-16.517,11.453-30.566,28.261-30.566
	c16.808,0,27.456,14.049,28.26,30.566h16.704L257.312,129.921"/>
<polyline fill="#C1B28B" points="37.838,220.973 19.8,205.314 19.8,116.579 37.838,132.476 37.838,220.973 "/>
<polyline fill="#5E2A25" points="31.442,169.667 25.321,164.352 25.321,134.238 31.442,139.633 31.442,169.667 "/>
<polyline fill="#D1D2D1" points="26.049,163.422 26.049,136.844 30.715,140.956 30.715,167.472 26.049,163.422 "/>
<path fill="#4D7135" d="M26.267,137.328l4.228,3.727v25.939l-4.228-3.671V137.328 M25.83,136.36v27.161l5.103,4.43v-27.094
	L25.83,136.36"/>
<polyline fill="#C1C1C2" points="26.267,137.328 26.267,163.117 30.496,141.202 30.496,141.054 26.267,137.328 "/>
<polyline fill="#7D8E6D" points="26.242,137.295 26.242,163.25 26.267,163.117 26.267,137.328 30.496,141.054 30.496,141.202 
	30.521,141.072 26.242,137.295 "/>
<rect x="34.997" y="127.366" fill="#5E2A25" width="238.774" height="5.111"/>
<polygon fill="#492D2C" points="18.502,112.79 34.997,127.366 34.997,132.476 18.502,117.901 "/>
<polygon fill="#475E34" points="23.037,127.856 4.999,112.196 122.499,0 148.404,8.03 "/>
<polygon fill="#4E7034" points="170.228,86.808 226.439,86.808 226.439,59.59 170.228,32.373 "/>
<path fill="#5E2A25" d="M228.624,88.993h-60.581V28.887l60.581,29.334V88.993z M172.413,84.623h51.841V60.96l-51.841-25.102V84.623z
	"/>
<polyline fill="#4D7135" points="23.037,127.658 148.404,8.03 273.771,127.658 23.037,127.658 "/>
<polygon fill="#E1CF9F" points="67.923,90.959 92.804,67.28 117.686,90.959 "/>
<polygon fill="#E1CF9F" points="99.054,60.749 148.404,13.91 197.754,60.749 "/>
<path fill="#5E2A25" d="M124.259,177.828c-0.804-16.517-11.452-30.566-28.26-30.566c-16.808,0-27.456,14.049-28.261,30.566h-29.9
	v4.342h7.648h18.984l8.8-0.006l0.005-8.734c0.882-11.766,10.736-21.069,22.724-21.069c11.987,0,21.842,9.303,22.724,21.069
	l0.011,8.74h8.794h92.967c0.039-2.918,0.048-1.447,0.05-4.342H124.259"/>
<path fill="#5E2A25" d="M258.97,177.749h-25.197c-0.002,1.464,0.039,2.942,0,4.418l25.197,0.003V177.749z"/>
<rect x="168.632" y="156.513" fill="#5E2A25" width="27.392" height="64.461"/>
<path fill="#5E2A25" d="M227.177,166.659c3.644,0,6.608,2.964,6.608,6.608v13.543c0,3.644-2.964,6.608-6.608,6.608
	s-6.608-2.964-6.608-6.608v-13.543C220.569,169.624,223.533,166.659,227.177,166.659 M227.177,162.289
	c-6.063,0-10.978,4.915-10.978,10.978v13.543c0,6.063,4.915,10.978,10.978,10.978s10.978-4.915,10.978-10.978v-13.543
	C238.155,167.204,233.24,162.289,227.177,162.289z"/>
<polyline fill="#D1D2D1" points="73.93,202.803 73.93,174.085 87.805,174.085 87.805,202.803 73.93,202.803 "/>
<path fill="#4D7135" d="M87.149,174.741v27.407H74.585v-27.407H87.149 M88.46,173.43H73.274v30.028H88.46V173.43"/>
<polyline fill="#D1D2D1" points="89.094,202.803 89.094,174.085 102.902,174.085 102.902,202.803 89.094,202.803 "/>
<path fill="#4D7135" d="M102.247,174.741v27.407H89.749v-27.407H102.247 M103.558,173.43h-15.12v30.028h15.12V173.43"/>
<polyline fill="#D1D2D1" points="104.205,202.803 104.205,174.085 118.063,174.085 118.063,202.803 104.205,202.803 "/>
<path fill="#4D7135" d="M117.407,174.741v27.407h-12.546v-27.407H117.407 M118.718,173.43H103.55v30.028h15.169V173.43"/>
<path fill="#B2B3B3" d="M73.989,172.803c1.195-11.135,10.727-19.758,22.006-19.758c11.279,0,20.811,8.623,22.006,19.758H73.989z"/>
<path fill="#4D7135" d="M95.995,153.7c5.444,0,10.641,2.049,14.632,5.77c3.622,3.377,5.945,7.836,6.631,12.677H74.731
	c0.686-4.841,3.009-9.299,6.631-12.677C85.354,155.75,90.55,153.7,95.995,153.7 M95.995,152.389
	c-11.987,0-21.842,9.303-22.724,21.069h45.447C117.837,161.693,107.982,152.389,95.995,152.389z"/>
<path fill="#D1D2D1" d="M227.159,192.734c-3.286,0-5.959-2.673-5.959-5.959v-13.574c0-3.286,2.673-5.959,5.959-5.959
	s5.959,2.673,5.959,5.959v13.574C233.118,190.061,230.445,192.734,227.159,192.734z"/>
<path fill="#4D7135" d="M227.159,167.897c2.924,0,5.304,2.379,5.304,5.304v13.574c0,2.924-2.379,5.304-5.304,5.304
	c-2.924,0-5.304-2.379-5.304-5.304v-13.574C221.855,170.276,224.235,167.897,227.159,167.897 M227.159,166.586
	c-3.653,0-6.615,2.961-6.615,6.615v13.574c0,3.653,2.962,6.615,6.615,6.615c3.653,0,6.615-2.962,6.615-6.615v-13.574
	C233.774,169.548,230.812,166.586,227.159,166.586z"/>
<polyline fill="#D1D2D1" points="159.548,89.938 137.26,89.938 137.26,61.38 159.548,61.38 159.548,89.938 "/>
<path fill="#5D2A24" d="M160.203,90.594h-23.599v-29.87h23.599V90.594 M137.915,89.282h20.977V62.035h-20.977V89.282"/>
<polyline fill="#C1C1C2" points="158.893,62.212 137.915,62.212 137.915,89.098 158.893,62.22 158.893,62.212 "/>
<path fill="#88665F" d="M137.915,62.212h-0.006v26.894l0.006-0.008V62.212 M158.899,62.212h-0.006v0.008L158.899,62.212"/>
<polyline fill="#C1C1C2" points="87.128,174.764 74.612,174.764 74.612,202.127 87.128,174.764 "/>
<polyline fill="#C1C1C2" points="102.247,174.764 89.749,174.764 89.749,202.107 102.247,174.785 102.247,174.764 "/>
<path fill="#7D8E6D" d="M89.749,174.764H89.74v27.363l0.009-0.021V174.764 M102.256,174.764h-0.009v0.021L102.256,174.764"/>
<polyline fill="#C1C1C2" points="117.392,174.764 104.876,174.764 104.876,202.127 117.392,174.764 "/>
<rect x="63.244" y="90.438" fill="#5D2A24" width="59.284" height="4.37"/>
<rect x="97.345" y="57.515" fill="#5D2A24" width="102.19" height="4.37"/>
<circle fill="#201D10" cx="191.669" cy="193.104" r="1.952"/>
<polygon fill="#5E2A25" points="270.529,130.558 148.247,13.92 29.36,127.818 23.189,127.81 148.24,7.873 273.546,127.396 "/>
<polygon fill="#5E2A25" points="29.288,127.856 23.002,127.821 92.64,61.175 163.037,128.29 160.021,131.453 92.647,67.219 "/>
</svg>
