<?xml version="1.0" encoding="utf-8"?>
<!-- Generator: Adobe Illustrator 17.0.0, SVG Export Plug-In . SVG Version: 6.00 Build 0)  -->
<!DOCTYPE svg PUBLIC "-//W3C//DTD SVG 1.1//EN" "http://www.w3.org/Graphics/SVG/1.1/DTD/svg11.dtd">
<svg version="1.1" id="Layer_1" xmlns="http://www.w3.org/2000/svg" xmlns:xlink="http://www.w3.org/1999/xlink" x="0px" y="0px"
	 width="144.97px" height="216.389px" viewBox="0 0 144.97 216.389" enable-background="new 0 0 144.97 216.389"
	 xml:space="preserve">
<rect x="114.198" y="43.907" transform="matrix(-0.7071 -0.7071 0.7071 -0.7071 164.6446 173.5378)" fill="#CFCECE" width="8.131" height="17.526"/>
<rect x="24.627" y="43.908" transform="matrix(-0.7071 0.7071 -0.7071 -0.7071 86.2247 69.6267)" fill="#CFCECE" width="8.131" height="17.527"/>
<rect x="45.609" y="15" fill="#D7D6D6" width="54" height="31"/>
<polyline fill="#CFCECE" points="99.609,46 45.609,46 45.609,15 "/>
<path fill="#D7D6D6" d="M129.609,216V77.93c0-17.962-15.099-31.93-33.957-31.93H49.747C30.89,46,15.609,59.968,15.609,77.93V216
	H129.609z"/>
<path fill="#CFCECE" d="M129.609,78v-0.07c0-17.962-15.099-31.93-33.957-31.93H49.747C30.89,46,15.609,59.968,15.609,77.93V78
	H129.609z"/>
<polygon fill="#A09F9F" points="103.777,15 41.26,15 36.562,8 108.475,8 "/>
<path fill="#A09F9F" d="M117.541,7.5c0,0.399-0.757,0.5-1.691,0.5H29.188c-0.934,0-1.691-0.101-1.691-0.5S28.254,7,29.188,7h86.662
	C116.784,7,117.541,7.101,117.541,7.5z"/>
<path fill="#CFCECE" d="M27.969,6.532L27.969,6.532C27.969,3.638,31.498,0,33.771,0h77.495c2.273,0,5.801,3.534,5.801,6.428"/>
<polygon fill="#CFCECE" points="15.376,77.027 129.341,216.389 15.363,216.389 "/>
<rect x="13.609" y="78" fill="#636464" width="117" height="7"/>
<rect x="13.609" y="77" fill="#A09F9F" width="117" height="8"/>
<rect x="54.609" y="195" fill="#666665" width="37" height="3"/>
<rect x="54.609" y="195" fill="#A09F9F" width="37" height="2"/>
<rect x="56.609" y="170" fill="#EFEFEF" width="34" height="24"/>
<path fill="#A09F9F" d="M90.609,194h-35v-25h35V194z M56.609,194h33v-24h-33V194z"/>
<polyline fill="#E2E2E2" points="56.609,170 56.609,194 89.609,194 "/>
<rect x="8.609" y="195" fill="#666665" width="37" height="3"/>
<rect x="8.609" y="195" fill="#A09F9F" width="37" height="2"/>
<rect x="100.513" y="195" fill="#666665" width="37" height="3"/>
<rect x="100.513" y="195" fill="#A09F9F" width="37" height="2"/>
<rect x="9.609" y="170" fill="#EFEFEF" width="34" height="24"/>
<path fill="#A09F9F" d="M44.609,194h-35v-25h35V194z M9.609,194h34v-24h-34C9.609,170,9.609,194,9.609,194z"/>
<polyline fill="#E2E2E2" points="9.609,170 9.609,194 43.609,194 "/>
<path fill="none" d="M129.609,216V77.93c0-17.962-15.099-31.93-33.957-31.93H49.747C30.89,46,15.609,59.968,15.609,77.93V216
	H129.609z"/>
<path fill="none" d="M130.609,217V78.93c0-17.962-15.099-31.93-33.957-31.93H50.747C31.89,47,16.609,60.968,16.609,78.93V217
	H130.609z"/>
<path fill="none" d="M129.609,216V77.93c0-17.962-15.099-31.93-33.957-31.93H49.747C30.89,46,15.609,59.968,15.609,77.93V216
	H129.609z"/>
<rect x="102.609" y="170" fill="#EFEFEF" width="34" height="24"/>
<path fill="none" d="M129.609,216V77.93c0-17.962-15.099-31.93-33.957-31.93H49.747C30.89,46,15.609,59.968,15.609,77.93V216
	H129.609z"/>
<path fill="#A09F9F" d="M136.609,194h-35v-25h35V194z M102.609,194h34v-24h-34C102.609,170,102.609,194,102.609,194z"/>
<path fill="none" d="M129.609,216V77.93c0-17.962-15.099-31.93-33.957-31.93H49.747C30.89,46,15.609,59.968,15.609,77.93V216
	H129.609z"/>
<polyline fill="#E2E2E2" points="102.609,170 102.609,194 136.609,194 "/>
<path fill="#F4E2C1" d="M92.574,168.815v-14.066H53.86v14.231h0.048v0.692c0,0.858,0.696,1.554,1.554,1.554
	c0.595,0,1.106-0.338,1.367-0.829c0.261,0.491,0.772,0.829,1.367,0.829s1.106-0.338,1.367-0.829
	c0.261,0.491,0.772,0.829,1.367,0.829s1.106-0.338,1.367-0.829c0.261,0.491,0.772,0.829,1.367,0.829
	c0.595,0,1.106-0.338,1.367-0.829c0.261,0.491,0.772,0.829,1.367,0.829c0.595,0,1.106-0.338,1.367-0.829
	c0.261,0.491,0.772,0.829,1.367,0.829s1.106-0.338,1.367-0.829c0.261,0.491,0.772,0.829,1.367,0.829s1.106-0.338,1.367-0.829
	c0.261,0.491,0.772,0.829,1.367,0.829s1.106-0.338,1.367-0.829c0.261,0.491,0.772,0.829,1.367,0.829s1.106-0.338,1.367-0.829
	c0.261,0.491,0.772,0.829,1.367,0.829c0.616,0,1.162-0.361,1.424-0.881c0.251,0.52,0.779,0.881,1.395,0.881
	c0.595,0,1.106-0.338,1.367-0.829c0.261,0.491,0.772,0.829,1.367,0.829s1.106-0.338,1.367-0.829
	c0.261,0.491,0.772,0.829,1.367,0.829s1.106-0.338,1.367-0.829c0.261,0.491,0.88,0.829,1.475,0.829s1.115-0.338,1.377-0.829
	L92.574,168.815L92.574,168.815z"/>
<rect x="65.289" y="153.941" fill="#E2AD60" width="1.203" height="19.895"/>
<rect x="72.304" y="153.941" fill="#E2AD60" width="1.203" height="19.895"/>
<rect x="79.315" y="153.941" fill="#E2AD60" width="1.203" height="19.895"/>
<rect x="58.277" y="153.941" fill="#E2AD60" width="1.203" height="19.895"/>
<rect x="56.672" y="153.941" fill="#E2AD60" width="0.297" height="19.895"/>
<rect x="54.793" y="153.941" fill="#E2AD60" width="0.297" height="19.895"/>
<rect x="61.17" y="153.941" fill="#E2AD60" width="0.297" height="19.895"/>
<rect x="63.258" y="153.941" fill="#E2AD60" width="0.297" height="19.895"/>
<rect x="68.182" y="153.941" fill="#E2AD60" width="0.297" height="19.895"/>
<rect x="70.27" y="153.941" fill="#E2AD60" width="0.297" height="19.895"/>
<rect x="75.2" y="153.941" fill="#E2AD60" width="0.297" height="19.895"/>
<rect x="77.282" y="153.941" fill="#E2AD60" width="0.297" height="19.895"/>
<rect x="82.211" y="153.941" fill="#E2AD60" width="0.297" height="19.895"/>
<rect x="86.275" y="153.941" fill="#E2AD60" width="1.203" height="19.895"/>
<rect x="84.237" y="153.941" fill="#E2AD60" width="0.297" height="19.895"/>
<rect x="89.167" y="153.941" fill="#E2AD60" width="0.297" height="19.895"/>
<rect x="91.256" y="153.941" fill="#E2AD60" width="0.297" height="19.895"/>
<path fill="#070808" d="M98.003,147.179H48.626V97.801h49.377V147.179z M48.948,146.857h48.734V98.123H48.948V146.857z"/>
<path fill="#070808" d="M96.82,145.995H49.81v-47.01h47.01V145.995z M50.131,145.673h46.366V99.307H50.131V145.673z"/>
<circle fill="#CFCECE" cx="45.596" cy="11.438" r="0.976"/>
<circle fill="#CFCECE" cx="59.058" cy="11.438" r="0.976"/>
<circle fill="#CFCECE" cx="72.519" cy="11.438" r="0.976"/>
<circle fill="#CFCECE" cx="85.98" cy="11.438" r="0.976"/>
<circle fill="#CFCECE" cx="99.441" cy="11.438" r="0.976"/>
<path fill="#E5D5BA" d="M32.728,154.722v14.094v0.853c0,0.858,0.696,1.554,1.554,1.554c0.595,0,1.106-0.338,1.367-0.829
	c0.261,0.491,0.772,0.829,1.367,0.829s1.106-0.338,1.367-0.829c0.261,0.491,0.772,0.829,1.367,0.829s1.106-0.338,1.367-0.829
	c0.261,0.491,0.772,0.829,1.367,0.829s1.106-0.338,1.367-0.829c0.261,0.491,0.647,0.829,1.243,0.829
	c0.595,0,0.964-0.338,1.225-0.829v-1.577v-0.005v-14.089L32.728,154.722L32.728,154.722z"/>
<path fill="#F4E2C1" d="M5.002,169.668c0,0.858,0.696,1.554,1.554,1.554c0.595,0,1.106-0.338,1.367-0.829
	c0.261,0.491,0.772,0.829,1.367,0.829s1.106-0.338,1.367-0.829c0.261,0.491,0.772,0.829,1.367,0.829s1.106-0.338,1.367-0.829
	c0.261,0.491,0.772,0.829,1.367,0.829s1.106-0.338,1.367-0.829c0.261,0.491,0.772,0.829,1.367,0.829s1.106-0.338,1.367-0.829
	c0.261,0.491,0.772,0.829,1.367,0.829s1.106-0.338,1.367-0.829c0.261,0.491,0.772,0.829,1.367,0.829s1.106-0.338,1.367-0.829
	c0.261,0.491,0.772,0.829,1.367,0.829s1.106-0.338,1.367-0.829c0.261,0.491,0.772,0.829,1.367,0.829
	c0.595,0,1.106-0.338,1.367-0.829c0.261,0.491,0.772,0.829,1.367,0.829c0.858,0,1.59-0.696,1.59-1.554v-0.857H5.002V169.668z"/>
<rect x="14.751" y="168.815" fill="#E2AD60" width="1.203" height="2.75"/>
<rect x="21.334" y="168.815" fill="#E2AD60" width="1.203" height="2.75"/>
<rect x="27.912" y="168.815" fill="#E2AD60" width="1.203" height="2.75"/>
<rect x="8.172" y="168.815" fill="#E2AD60" width="1.203" height="2.75"/>
<rect x="6.567" y="168.815" fill="#E2AD60" width="0.297" height="2.75"/>
<rect x="11.064" y="168.815" fill="#E2AD60" width="0.297" height="2.75"/>
<rect x="13.153" y="168.815" fill="#E2AD60" width="0.297" height="2.75"/>
<rect x="17.644" y="168.815" fill="#E2AD60" width="0.297" height="2.75"/>
<rect x="19.732" y="168.815" fill="#E2AD60" width="0.297" height="2.75"/>
<rect x="24.229" y="168.815" fill="#E2AD60" width="0.297" height="2.75"/>
<rect x="26.311" y="168.815" fill="#E2AD60" width="0.297" height="2.75"/>
<rect x="30.808" y="168.815" fill="#E2AD60" width="0.297" height="2.75"/>
<path fill="none" d="M32.728,154.722v14.094v0.853c0,0.858,0.696,1.554,1.554,1.554c0.595,0,1.106-0.338,1.367-0.829
	c0.261,0.491,0.772,0.829,1.367,0.829s1.106-0.338,1.367-0.829c0.261,0.491,0.772,0.829,1.367,0.829s1.106-0.338,1.367-0.829
	c0.261,0.491,0.772,0.829,1.367,0.829s1.106-0.338,1.367-0.829c0.261,0.491,0.647,0.829,1.243,0.829
	c0.595,0,0.964-0.338,1.225-0.829v-1.577v-0.005v-14.089L32.728,154.722L32.728,154.722z"/>
<rect x="37.452" y="154.754" fill="#E2AD60" width="0.597" height="16.811"/>
<path fill="none" d="M32.728,154.722v14.094v0.853c0,0.858,0.696,1.554,1.554,1.554c0.595,0,1.106-0.338,1.367-0.829
	c0.261,0.491,0.772,0.829,1.367,0.829s1.106-0.338,1.367-0.829c0.261,0.491,0.772,0.829,1.367,0.829s1.106-0.338,1.367-0.829
	c0.261,0.491,0.772,0.829,1.367,0.829s1.106-0.338,1.367-0.829c0.261,0.491,0.647,0.829,1.243,0.829
	c0.595,0,0.964-0.338,1.225-0.829v-1.577v-0.005v-14.089L32.728,154.722L32.728,154.722z"/>
<rect x="40.718" y="154.754" fill="#E2AD60" width="0.597" height="16.811"/>
<path fill="none" d="M32.728,154.722v14.094v0.853c0,0.858,0.696,1.554,1.554,1.554c0.595,0,1.106-0.338,1.367-0.829
	c0.261,0.491,0.772,0.829,1.367,0.829s1.106-0.338,1.367-0.829c0.261,0.491,0.772,0.829,1.367,0.829s1.106-0.338,1.367-0.829
	c0.261,0.491,0.772,0.829,1.367,0.829s1.106-0.338,1.367-0.829c0.261,0.491,0.647,0.829,1.243,0.829
	c0.595,0,0.964-0.338,1.225-0.829v-1.577v-0.005v-14.089L32.728,154.722L32.728,154.722z"/>
<rect x="43.983" y="154.754" fill="#E2AD60" width="0.597" height="16.811"/>
<path fill="none" d="M32.728,154.722v14.094v0.853c0,0.858,0.696,1.554,1.554,1.554c0.595,0,1.106-0.338,1.367-0.829
	c0.261,0.491,0.772,0.829,1.367,0.829s1.106-0.338,1.367-0.829c0.261,0.491,0.772,0.829,1.367,0.829s1.106-0.338,1.367-0.829
	c0.261,0.491,0.772,0.829,1.367,0.829s1.106-0.338,1.367-0.829c0.261,0.491,0.647,0.829,1.243,0.829
	c0.595,0,0.964-0.338,1.225-0.829v-1.577v-0.005v-14.089L32.728,154.722L32.728,154.722z"/>
<rect x="34.187" y="154.754" fill="#E2AD60" width="0.597" height="16.811"/>
<path fill="none" d="M32.728,154.722v14.094v0.853c0,0.858,0.696,1.554,1.554,1.554c0.595,0,1.106-0.338,1.367-0.829
	c0.261,0.491,0.772,0.829,1.367,0.829s1.106-0.338,1.367-0.829c0.261,0.491,0.772,0.829,1.367,0.829s1.106-0.338,1.367-0.829
	c0.261,0.491,0.772,0.829,1.367,0.829s1.106-0.338,1.367-0.829c0.261,0.491,0.647,0.829,1.243,0.829
	c0.595,0,0.964-0.338,1.225-0.829v-1.577v-0.005v-14.089L32.728,154.722L32.728,154.722z"/>
<rect x="33.39" y="154.754" fill="#E2AD60" width="0.148" height="16.811"/>
<path fill="none" d="M32.728,154.722v14.094v0.853c0,0.858,0.696,1.554,1.554,1.554c0.595,0,1.106-0.338,1.367-0.829
	c0.261,0.491,0.772,0.829,1.367,0.829s1.106-0.338,1.367-0.829c0.261,0.491,0.772,0.829,1.367,0.829s1.106-0.338,1.367-0.829
	c0.261,0.491,0.772,0.829,1.367,0.829s1.106-0.338,1.367-0.829c0.261,0.491,0.647,0.829,1.243,0.829
	c0.595,0,0.964-0.338,1.225-0.829v-1.577v-0.005v-14.089L32.728,154.722L32.728,154.722z"/>
<rect x="35.622" y="154.754" fill="#E2AD60" width="0.148" height="16.811"/>
<path fill="none" d="M32.728,154.722v14.094v0.853c0,0.858,0.696,1.554,1.554,1.554c0.595,0,1.106-0.338,1.367-0.829
	c0.261,0.491,0.772,0.829,1.367,0.829s1.106-0.338,1.367-0.829c0.261,0.491,0.772,0.829,1.367,0.829s1.106-0.338,1.367-0.829
	c0.261,0.491,0.772,0.829,1.367,0.829s1.106-0.338,1.367-0.829c0.261,0.491,0.647,0.829,1.243,0.829
	c0.595,0,0.964-0.338,1.225-0.829v-1.577v-0.005v-14.089L32.728,154.722L32.728,154.722z"/>
<rect x="36.659" y="154.754" fill="#E2AD60" width="0.148" height="16.811"/>
<path fill="none" d="M32.728,154.722v14.094v0.853c0,0.858,0.696,1.554,1.554,1.554c0.595,0,1.106-0.338,1.367-0.829
	c0.261,0.491,0.772,0.829,1.367,0.829s1.106-0.338,1.367-0.829c0.261,0.491,0.772,0.829,1.367,0.829s1.106-0.338,1.367-0.829
	c0.261,0.491,0.772,0.829,1.367,0.829s1.106-0.338,1.367-0.829c0.261,0.491,0.647,0.829,1.243,0.829
	c0.595,0,0.964-0.338,1.225-0.829v-1.577v-0.005v-14.089L32.728,154.722L32.728,154.722z"/>
<rect x="38.887" y="154.754" fill="#E2AD60" width="0.147" height="16.811"/>
<path fill="none" d="M32.728,154.722v14.094v0.853c0,0.858,0.696,1.554,1.554,1.554c0.595,0,1.106-0.338,1.367-0.829
	c0.261,0.491,0.772,0.829,1.367,0.829s1.106-0.338,1.367-0.829c0.261,0.491,0.772,0.829,1.367,0.829s1.106-0.338,1.367-0.829
	c0.261,0.491,0.772,0.829,1.367,0.829s1.106-0.338,1.367-0.829c0.261,0.491,0.647,0.829,1.243,0.829
	c0.595,0,0.964-0.338,1.225-0.829v-1.577v-0.005v-14.089L32.728,154.722L32.728,154.722z"/>
<rect x="39.924" y="154.754" fill="#E2AD60" width="0.148" height="16.811"/>
<path fill="none" d="M32.728,154.722v14.094v0.853c0,0.858,0.696,1.554,1.554,1.554c0.595,0,1.106-0.338,1.367-0.829
	c0.261,0.491,0.772,0.829,1.367,0.829s1.106-0.338,1.367-0.829c0.261,0.491,0.772,0.829,1.367,0.829s1.106-0.338,1.367-0.829
	c0.261,0.491,0.772,0.829,1.367,0.829s1.106-0.338,1.367-0.829c0.261,0.491,0.647,0.829,1.243,0.829
	c0.595,0,0.964-0.338,1.225-0.829v-1.577v-0.005v-14.089L32.728,154.722L32.728,154.722z"/>
<rect x="42.155" y="154.754" fill="#E2AD60" width="0.148" height="16.811"/>
<path fill="none" d="M32.728,154.722v14.094v0.853c0,0.858,0.696,1.554,1.554,1.554c0.595,0,1.106-0.338,1.367-0.829
	c0.261,0.491,0.772,0.829,1.367,0.829s1.106-0.338,1.367-0.829c0.261,0.491,0.772,0.829,1.367,0.829s1.106-0.338,1.367-0.829
	c0.261,0.491,0.772,0.829,1.367,0.829s1.106-0.338,1.367-0.829c0.261,0.491,0.647,0.829,1.243,0.829
	c0.595,0,0.964-0.338,1.225-0.829v-1.577v-0.005v-14.089L32.728,154.722L32.728,154.722z"/>
<rect x="43.189" y="154.754" fill="#E2AD60" width="0.148" height="16.811"/>
<path fill="none" d="M32.728,154.722v14.094v0.853c0,0.858,0.696,1.554,1.554,1.554c0.595,0,1.106-0.338,1.367-0.829
	c0.261,0.491,0.772,0.829,1.367,0.829s1.106-0.338,1.367-0.829c0.261,0.491,0.772,0.829,1.367,0.829s1.106-0.338,1.367-0.829
	c0.261,0.491,0.772,0.829,1.367,0.829s1.106-0.338,1.367-0.829c0.261,0.491,0.647,0.829,1.243,0.829
	c0.595,0,0.964-0.338,1.225-0.829v-1.577v-0.005v-14.089L32.728,154.722L32.728,154.722z"/>
<rect x="45.42" y="154.754" fill="#E2AD60" width="0.148" height="16.811"/>
<polygon fill="#F4E2C1" points="5.002,169 32.728,169 46.319,155 18.594,155 "/>
<rect x="35.045" y="151.016" transform="matrix(-0.7177 -0.6963 0.6963 -0.7177 -51.6001 302.3231)" fill="#E2AD60" width="0.865" height="21.209"/>
<rect x="28.464" y="151.016" transform="matrix(-0.7177 -0.6963 0.6963 -0.7177 -62.9039 297.7407)" fill="#E2AD60" width="0.865" height="21.209"/>
<rect x="21.883" y="151.016" transform="matrix(-0.7177 -0.6963 0.6963 -0.7177 -74.2077 293.1584)" fill="#E2AD60" width="0.865" height="21.209"/>
<rect x="15.303" y="151.016" transform="matrix(-0.7177 -0.6963 0.6963 -0.7177 -85.5116 288.5761)" fill="#E2AD60" width="0.865" height="21.209"/>
<rect x="33.316" y="151.016" transform="matrix(-0.7177 -0.6963 0.6963 -0.7177 -55.1265 300.8937)" fill="#E2AD60" width="0.216" height="21.209"/>
<rect x="26.736" y="151.016" transform="matrix(-0.7177 -0.6963 0.6963 -0.7177 -66.4303 296.3115)" fill="#E2AD60" width="0.216" height="21.209"/>
<rect x="20.155" y="151.016" transform="matrix(-0.7177 -0.6963 0.6963 -0.7177 -77.7342 291.7295)" fill="#E2AD60" width="0.216" height="21.209"/>
<rect x="13.574" y="151.016" transform="matrix(-0.7177 -0.6963 0.6963 -0.7177 -89.0381 287.1473)" fill="#E2AD60" width="0.216" height="21.209"/>
<rect x="37.812" y="151.028" transform="matrix(-0.7175 -0.6966 0.6966 -0.7175 -47.4634 304.0156)" fill="#E2AD60" width="0.216" height="21.211"/>
<rect x="31.232" y="151.016" transform="matrix(-0.7177 -0.6963 0.6963 -0.7177 -58.7077 299.442)" fill="#E2AD60" width="0.216" height="21.209"/>
<rect x="24.651" y="151.016" transform="matrix(-0.7177 -0.6963 0.6963 -0.7177 -70.0117 294.8598)" fill="#E2AD60" width="0.216" height="21.209"/>
<rect x="18.07" y="151.016" transform="matrix(-0.7177 -0.6963 0.6963 -0.7177 -81.3155 290.2775)" fill="#E2AD60" width="0.216" height="21.209"/>
<path fill="#E5D5BA" d="M112.242,154.722v14.094v0.853c0,0.858-0.696,1.554-1.554,1.554c-0.595,0-1.106-0.338-1.367-0.829
	c-0.261,0.491-0.772,0.829-1.367,0.829s-1.106-0.338-1.367-0.829c-0.261,0.491-0.772,0.829-1.367,0.829s-1.106-0.338-1.367-0.829
	c-0.261,0.491-0.772,0.829-1.367,0.829s-1.106-0.338-1.367-0.829c-0.261,0.491-0.648,0.829-1.243,0.829
	c-0.595,0-0.964-0.338-1.225-0.829v-1.577v-0.005v-14.089L112.242,154.722L112.242,154.722z"/>
<path fill="#F4E2C1" d="M139.968,169.668c0,0.858-0.696,1.554-1.554,1.554c-0.595,0-1.106-0.338-1.367-0.829
	c-0.261,0.491-0.772,0.829-1.367,0.829s-1.106-0.338-1.367-0.829c-0.261,0.491-0.772,0.829-1.367,0.829s-1.106-0.338-1.367-0.829
	c-0.261,0.491-0.772,0.829-1.367,0.829s-1.106-0.338-1.367-0.829c-0.261,0.491-0.772,0.829-1.367,0.829
	c-0.595,0-1.106-0.338-1.367-0.829c-0.261,0.491-0.772,0.829-1.367,0.829s-1.106-0.338-1.367-0.829
	c-0.261,0.491-0.772,0.829-1.367,0.829s-1.106-0.338-1.367-0.829c-0.261,0.491-0.772,0.829-1.367,0.829s-1.106-0.338-1.367-0.829
	c-0.261,0.491-0.772,0.829-1.367,0.829s-1.106-0.338-1.367-0.829c-0.261,0.491-0.772,0.829-1.367,0.829
	c-0.858,0-1.59-0.696-1.59-1.554v-0.857h27.751v0.857H139.968z"/>
<rect x="129.017" y="168.815" fill="#E2AD60" width="1.203" height="2.75"/>
<rect x="122.434" y="168.815" fill="#E2AD60" width="1.203" height="2.75"/>
<rect x="115.855" y="168.815" fill="#E2AD60" width="1.203" height="2.75"/>
<rect x="135.596" y="168.815" fill="#E2AD60" width="1.203" height="2.75"/>
<rect x="138.106" y="168.815" fill="#E2AD60" width="0.297" height="2.75"/>
<rect x="133.608" y="168.815" fill="#E2AD60" width="0.297" height="2.75"/>
<rect x="131.52" y="168.815" fill="#E2AD60" width="0.297" height="2.75"/>
<rect x="127.029" y="168.815" fill="#E2AD60" width="0.297" height="2.75"/>
<rect x="124.94" y="168.815" fill="#E2AD60" width="0.297" height="2.75"/>
<rect x="120.443" y="168.815" fill="#E2AD60" width="0.297" height="2.75"/>
<rect x="118.361" y="168.815" fill="#E2AD60" width="0.297" height="2.75"/>
<rect x="113.864" y="168.815" fill="#E2AD60" width="0.297" height="2.75"/>
<path fill="none" d="M112.242,154.722v14.094v0.853c0,0.858-0.696,1.554-1.554,1.554c-0.595,0-1.106-0.338-1.367-0.829
	c-0.261,0.491-0.772,0.829-1.367,0.829s-1.106-0.338-1.367-0.829c-0.261,0.491-0.772,0.829-1.367,0.829s-1.106-0.338-1.367-0.829
	c-0.261,0.491-0.772,0.829-1.367,0.829s-1.106-0.338-1.367-0.829c-0.261,0.491-0.648,0.829-1.243,0.829
	c-0.595,0-0.964-0.338-1.225-0.829v-1.577v-0.005v-14.089L112.242,154.722L112.242,154.722z"/>
<rect x="106.922" y="154.754" fill="#E2AD60" width="0.597" height="16.811"/>
<path fill="none" d="M112.242,154.722v14.094v0.853c0,0.858-0.696,1.554-1.554,1.554c-0.595,0-1.106-0.338-1.367-0.829
	c-0.261,0.491-0.772,0.829-1.367,0.829s-1.106-0.338-1.367-0.829c-0.261,0.491-0.772,0.829-1.367,0.829s-1.106-0.338-1.367-0.829
	c-0.261,0.491-0.772,0.829-1.367,0.829s-1.106-0.338-1.367-0.829c-0.261,0.491-0.648,0.829-1.243,0.829
	c-0.595,0-0.964-0.338-1.225-0.829v-1.577v-0.005v-14.089L112.242,154.722L112.242,154.722z"/>
<rect x="103.655" y="154.754" fill="#E2AD60" width="0.597" height="16.811"/>
<path fill="none" d="M112.242,154.722v14.094v0.853c0,0.858-0.696,1.554-1.554,1.554c-0.595,0-1.106-0.338-1.367-0.829
	c-0.261,0.491-0.772,0.829-1.367,0.829s-1.106-0.338-1.367-0.829c-0.261,0.491-0.772,0.829-1.367,0.829s-1.106-0.338-1.367-0.829
	c-0.261,0.491-0.772,0.829-1.367,0.829s-1.106-0.338-1.367-0.829c-0.261,0.491-0.648,0.829-1.243,0.829
	c-0.595,0-0.964-0.338-1.225-0.829v-1.577v-0.005v-14.089L112.242,154.722L112.242,154.722z"/>
<rect x="100.39" y="154.754" fill="#E2AD60" width="0.597" height="16.811"/>
<path fill="none" d="M112.242,154.722v14.094v0.853c0,0.858-0.696,1.554-1.554,1.554c-0.595,0-1.106-0.338-1.367-0.829
	c-0.261,0.491-0.772,0.829-1.367,0.829s-1.106-0.338-1.367-0.829c-0.261,0.491-0.772,0.829-1.367,0.829s-1.106-0.338-1.367-0.829
	c-0.261,0.491-0.772,0.829-1.367,0.829s-1.106-0.338-1.367-0.829c-0.261,0.491-0.648,0.829-1.243,0.829
	c-0.595,0-0.964-0.338-1.225-0.829v-1.577v-0.005v-14.089L112.242,154.722L112.242,154.722z"/>
<rect x="110.186" y="154.754" fill="#E2AD60" width="0.597" height="16.811"/>
<path fill="none" d="M112.242,154.722v14.094v0.853c0,0.858-0.696,1.554-1.554,1.554c-0.595,0-1.106-0.338-1.367-0.829
	c-0.261,0.491-0.772,0.829-1.367,0.829s-1.106-0.338-1.367-0.829c-0.261,0.491-0.772,0.829-1.367,0.829s-1.106-0.338-1.367-0.829
	c-0.261,0.491-0.772,0.829-1.367,0.829s-1.106-0.338-1.367-0.829c-0.261,0.491-0.648,0.829-1.243,0.829
	c-0.595,0-0.964-0.338-1.225-0.829v-1.577v-0.005v-14.089L112.242,154.722L112.242,154.722z"/>
<rect x="111.432" y="154.754" fill="#E2AD60" width="0.148" height="16.811"/>
<path fill="none" d="M112.242,154.722v14.094v0.853c0,0.858-0.696,1.554-1.554,1.554c-0.595,0-1.106-0.338-1.367-0.829
	c-0.261,0.491-0.772,0.829-1.367,0.829s-1.106-0.338-1.367-0.829c-0.261,0.491-0.772,0.829-1.367,0.829s-1.106-0.338-1.367-0.829
	c-0.261,0.491-0.772,0.829-1.367,0.829s-1.106-0.338-1.367-0.829c-0.261,0.491-0.648,0.829-1.243,0.829
	c-0.595,0-0.964-0.338-1.225-0.829v-1.577v-0.005v-14.089L112.242,154.722L112.242,154.722z"/>
<rect x="109.2" y="154.754" fill="#E2AD60" width="0.148" height="16.811"/>
<path fill="none" d="M112.242,154.722v14.094v0.853c0,0.858-0.696,1.554-1.554,1.554c-0.595,0-1.106-0.338-1.367-0.829
	c-0.261,0.491-0.772,0.829-1.367,0.829s-1.106-0.338-1.367-0.829c-0.261,0.491-0.772,0.829-1.367,0.829s-1.106-0.338-1.367-0.829
	c-0.261,0.491-0.772,0.829-1.367,0.829s-1.106-0.338-1.367-0.829c-0.261,0.491-0.648,0.829-1.243,0.829
	c-0.595,0-0.964-0.338-1.225-0.829v-1.577v-0.005v-14.089L112.242,154.722L112.242,154.722z"/>
<rect x="108.164" y="154.754" fill="#E2AD60" width="0.148" height="16.811"/>
<path fill="none" d="M112.242,154.722v14.094v0.853c0,0.858-0.696,1.554-1.554,1.554c-0.595,0-1.106-0.338-1.367-0.829
	c-0.261,0.491-0.772,0.829-1.367,0.829s-1.106-0.338-1.367-0.829c-0.261,0.491-0.772,0.829-1.367,0.829s-1.106-0.338-1.367-0.829
	c-0.261,0.491-0.772,0.829-1.367,0.829s-1.106-0.338-1.367-0.829c-0.261,0.491-0.648,0.829-1.243,0.829
	c-0.595,0-0.964-0.338-1.225-0.829v-1.577v-0.005v-14.089L112.242,154.722L112.242,154.722z"/>
<rect x="105.935" y="154.754" fill="none" width="0.148" height="16.811"/>
<path fill="none" d="M112.242,154.722v14.094v0.853c0,0.858-0.696,1.554-1.554,1.554c-0.595,0-1.106-0.338-1.367-0.829
	c-0.261,0.491-0.772,0.829-1.367,0.829s-1.106-0.338-1.367-0.829c-0.261,0.491-0.772,0.829-1.367,0.829s-1.106-0.338-1.367-0.829
	c-0.261,0.491-0.772,0.829-1.367,0.829s-1.106-0.338-1.367-0.829c-0.261,0.491-0.648,0.829-1.243,0.829
	c-0.595,0-0.964-0.338-1.225-0.829v-1.577v-0.005v-14.089L112.242,154.722L112.242,154.722z"/>
<rect x="104.898" y="154.754" fill="#E2AD60" width="0.148" height="16.811"/>
<path fill="none" d="M112.242,154.722v14.094v0.853c0,0.858-0.696,1.554-1.554,1.554c-0.595,0-1.106-0.338-1.367-0.829
	c-0.261,0.491-0.772,0.829-1.367,0.829s-1.106-0.338-1.367-0.829c-0.261,0.491-0.772,0.829-1.367,0.829s-1.106-0.338-1.367-0.829
	c-0.261,0.491-0.772,0.829-1.367,0.829s-1.106-0.338-1.367-0.829c-0.261,0.491-0.648,0.829-1.243,0.829
	c-0.595,0-0.964-0.338-1.225-0.829v-1.577v-0.005v-14.089L112.242,154.722L112.242,154.722z"/>
<rect x="102.667" y="154.754" fill="#E2AD60" width="0.148" height="16.811"/>
<path fill="none" d="M112.242,154.722v14.094v0.853c0,0.858-0.696,1.554-1.554,1.554c-0.595,0-1.106-0.338-1.367-0.829
	c-0.261,0.491-0.772,0.829-1.367,0.829s-1.106-0.338-1.367-0.829c-0.261,0.491-0.772,0.829-1.367,0.829s-1.106-0.338-1.367-0.829
	c-0.261,0.491-0.772,0.829-1.367,0.829s-1.106-0.338-1.367-0.829c-0.261,0.491-0.648,0.829-1.243,0.829
	c-0.595,0-0.964-0.338-1.225-0.829v-1.577v-0.005v-14.089L112.242,154.722L112.242,154.722z"/>
<rect x="101.634" y="154.754" fill="#E2AD60" width="0.148" height="16.811"/>
<path fill="none" d="M112.242,154.722v14.094v0.853c0,0.858-0.696,1.554-1.554,1.554c-0.595,0-1.106-0.338-1.367-0.829
	c-0.261,0.491-0.772,0.829-1.367,0.829s-1.106-0.338-1.367-0.829c-0.261,0.491-0.772,0.829-1.367,0.829s-1.106-0.338-1.367-0.829
	c-0.261,0.491-0.772,0.829-1.367,0.829s-1.106-0.338-1.367-0.829c-0.261,0.491-0.648,0.829-1.243,0.829
	c-0.595,0-0.964-0.338-1.225-0.829v-1.577v-0.005v-14.089L112.242,154.722L112.242,154.722z"/>
<rect x="99.402" y="154.754" fill="#E2AD60" width="0.148" height="16.811"/>
<polygon fill="#F4E2C1" points="139.968,169 112.242,169 98.651,155 126.376,155 "/>
<rect x="109.065" y="151.031" transform="matrix(0.7177 -0.6963 0.6963 0.7177 -81.643 121.8713)" fill="#E2AD60" width="0.865" height="21.209"/>
<rect x="115.646" y="151.031" transform="matrix(0.7177 -0.6963 0.6963 0.7177 -79.7852 126.4541)" fill="#E2AD60" width="0.865" height="21.209"/>
<rect x="122.214" y="151.023" transform="matrix(0.7177 -0.6964 0.6964 0.7177 -77.9281 131.04)" fill="#E2AD60" width="0.865" height="21.211"/>
<rect x="128.795" y="151.023" transform="matrix(0.7177 -0.6964 0.6964 0.7177 -76.0703 135.6229)" fill="#E2AD60" width="0.865" height="21.211"/>
<rect x="111.443" y="151.031" transform="matrix(0.7177 -0.6963 0.6963 0.7177 -81.063 123.3013)" fill="#E2AD60" width="0.216" height="21.209"/>
<rect x="118.024" y="151.031" transform="matrix(0.7177 -0.6963 0.6963 0.7177 -79.2052 127.8841)" fill="#E2AD60" width="0.216" height="21.209"/>
<rect x="124.606" y="151.031" transform="matrix(0.7177 -0.6963 0.6963 0.7177 -77.3476 132.4667)" fill="#E2AD60" width="0.216" height="21.209"/>
<rect x="131.187" y="151.031" transform="matrix(0.7177 -0.6963 0.6963 0.7177 -75.4897 137.0495)" fill="#E2AD60" width="0.216" height="21.209"/>
<rect x="106.947" y="151.031" transform="matrix(0.7177 -0.6963 0.6963 0.7177 -82.3323 120.1704)" fill="#E2AD60" width="0.216" height="21.209"/>
<rect x="113.528" y="151.031" transform="matrix(0.7177 -0.6963 0.6963 0.7177 -80.4745 124.7532)" fill="#E2AD60" width="0.216" height="21.209"/>
<rect x="120.109" y="151.031" transform="matrix(0.7177 -0.6963 0.6963 0.7177 -78.6167 129.336)" fill="#E2AD60" width="0.216" height="21.209"/>
<rect x="126.691" y="151.031" transform="matrix(0.7177 -0.6963 0.6963 0.7177 -76.7589 133.9187)" fill="#E2AD60" width="0.216" height="21.209"/>
</svg>
