<?xml version="1.0" encoding="utf-8"?>
<!-- Generator: Adobe Illustrator 17.0.0, SVG Export Plug-In . SVG Version: 6.00 Build 0)  -->
<!DOCTYPE svg PUBLIC "-//W3C//DTD SVG 1.1//EN" "http://www.w3.org/Graphics/SVG/1.1/DTD/svg11.dtd">
<svg version="1.1" id="Layer_1" xmlns="http://www.w3.org/2000/svg" xmlns:xlink="http://www.w3.org/1999/xlink" x="0px" y="0px"
	 width="144.97px" height="216.389px" viewBox="0 0 144.97 216.389" enable-background="new 0 0 144.97 216.389"
	 xml:space="preserve">
<rect x="114.198" y="43.908" transform="matrix(0.7071 0.7071 -0.7071 0.7071 71.8827 -68.1979)" fill="#CFCECE" width="8.131" height="17.526"/>
<rect x="24.627" y="43.908" transform="matrix(0.7071 -0.7071 0.7071 0.7071 -28.8403 35.7155)" fill="#CFCECE" width="8.131" height="17.527"/>
<rect x="45.609" y="15" fill="#D7D6D6" width="54" height="31"/>
<polyline fill="#CFCECE" points="99.609,46 45.609,46 45.609,15 "/>
<path fill="#D7D6D6" d="M129.609,216V77.93c0-17.962-15.099-31.93-33.957-31.93H49.747C30.89,46,15.609,59.968,15.609,77.93V216
	H129.609z"/>
<path fill="#CFCECE" d="M129.609,78v-0.07c0-17.962-15.099-31.93-33.957-31.93H49.747C30.89,46,15.609,59.968,15.609,77.93V78
	H129.609z"/>
<polygon fill="#A09F9F" points="103.777,15 41.26,15 36.562,8 108.475,8 "/>
<path fill="#A09F9F" d="M117.541,7.5c0,0.399-0.757,0.5-1.691,0.5H29.188c-0.934,0-1.691-0.101-1.691-0.5S28.254,7,29.188,7h86.662
	C116.784,7,117.541,7.101,117.541,7.5z"/>
<path fill="#CFCECE" d="M27.969,6.532L27.969,6.532C27.969,3.638,31.498,0,33.771,0h77.495c2.273,0,5.801,3.534,5.801,6.428"/>
<polygon fill="#CFCECE" points="15.376,77.027 129.341,216.389 15.363,216.389 "/>
<rect x="13.609" y="78" fill="#636464" width="117" height="7"/>
<rect x="13.609" y="77" fill="#A09F9F" width="117" height="8"/>
<rect x="54.609" y="195" fill="#666665" width="37" height="3"/>
<rect x="54.609" y="195" fill="#A09F9F" width="37" height="2"/>
<rect x="56.609" y="170" fill="#EFEFEF" width="34" height="24"/>
<path fill="#A09F9F" d="M90.609,194h-35v-25h35V194z M56.609,194h33v-24h-33V194z"/>
<polyline fill="#E2E2E2" points="56.609,170 56.609,194 89.609,194 "/>
<rect x="8.609" y="195" fill="#666665" width="37" height="3"/>
<rect x="8.609" y="195" fill="#A09F9F" width="37" height="2"/>
<rect x="9.609" y="170" fill="#EFEFEF" width="34" height="24"/>
<path fill="#A09F9F" d="M44.609,194h-35v-25h35V194z M9.609,194h34v-24h-34V194z"/>
<polyline fill="#E2E2E2" points="9.609,170 9.609,194 43.609,194 "/>
<g>
	<defs>
		<path id="SVGID_1_" d="M129.609,216V77.93c0-17.962-15.099-31.93-33.957-31.93H49.747C30.89,46,15.609,59.968,15.609,77.93V216
			H129.609z"/>
	</defs>
	<clipPath id="SVGID_2_">
		<use xlink:href="#SVGID_1_"  overflow="visible"/>
	</clipPath>
	<rect x="100.609" y="195" clip-path="url(#SVGID_2_)" fill="#666665" width="38" height="3"/>
	<rect x="100.609" y="195" clip-path="url(#SVGID_2_)" fill="#A09F9F" width="38" height="2"/>
	<rect x="102.609" y="170" clip-path="url(#SVGID_2_)" fill="#EFEFEF" width="34" height="24"/>
	<path clip-path="url(#SVGID_2_)" fill="#A09F9F" d="M136.609,194h-35v-25h35V194z M102.609,194h34v-24h-34V194z"/>
	<polyline clip-path="url(#SVGID_2_)" fill="#E2E2E2" points="102.609,170 102.609,194 136.609,194 	"/>
</g>
<path fill="#F4E2C1" d="M92.574,168.815v-14.066H53.86v14.231h0.048v0.692c0,0.858,0.696,1.554,1.554,1.554
	c0.595,0,1.106-0.338,1.367-0.829c0.261,0.491,0.772,0.829,1.367,0.829c0.595,0,1.106-0.338,1.367-0.829
	c0.261,0.491,0.772,0.829,1.367,0.829c0.595,0,1.106-0.338,1.367-0.829c0.261,0.491,0.772,0.829,1.367,0.829
	c0.595,0,1.106-0.338,1.367-0.829c0.261,0.491,0.772,0.829,1.367,0.829c0.595,0,1.106-0.338,1.367-0.829
	c0.261,0.491,0.772,0.829,1.367,0.829s1.106-0.338,1.367-0.829c0.261,0.491,0.772,0.829,1.367,0.829s1.106-0.338,1.367-0.829
	c0.261,0.491,0.772,0.829,1.367,0.829s1.106-0.338,1.367-0.829c0.261,0.491,0.772,0.829,1.367,0.829s1.106-0.338,1.367-0.829
	c0.261,0.491,0.772,0.829,1.367,0.829c0.616,0,1.162-0.361,1.424-0.881c0.251,0.52,0.779,0.881,1.395,0.881
	c0.595,0,1.106-0.338,1.367-0.829c0.261,0.491,0.772,0.829,1.367,0.829s1.106-0.338,1.367-0.829
	c0.261,0.491,0.772,0.829,1.367,0.829s1.106-0.338,1.367-0.829c0.261,0.491,0.88,0.829,1.475,0.829c0.595,0,1.115-0.338,1.377-0.829
	L92.574,168.815L92.574,168.815z"/>
<rect x="65.289" y="153.941" fill="#E2AD60" width="1.203" height="19.895"/>
<rect x="72.304" y="153.941" fill="#E2AD60" width="1.203" height="19.895"/>
<rect x="79.315" y="153.941" fill="#E2AD60" width="1.203" height="19.895"/>
<rect x="58.277" y="153.941" fill="#E2AD60" width="1.203" height="19.895"/>
<rect x="56.672" y="153.941" fill="#E2AD60" width="0.297" height="19.895"/>
<rect x="54.793" y="153.941" fill="#E2AD60" width="0.297" height="19.895"/>
<rect x="61.17" y="153.941" fill="#E2AD60" width="0.297" height="19.895"/>
<rect x="63.258" y="153.941" fill="#E2AD60" width="0.297" height="19.895"/>
<rect x="68.182" y="153.941" fill="#E2AD60" width="0.297" height="19.895"/>
<rect x="70.27" y="153.941" fill="#E2AD60" width="0.297" height="19.895"/>
<rect x="75.2" y="153.941" fill="#E2AD60" width="0.297" height="19.895"/>
<rect x="77.282" y="153.941" fill="#E2AD60" width="0.297" height="19.895"/>
<rect x="82.211" y="153.941" fill="#E2AD60" width="0.297" height="19.895"/>
<rect x="86.275" y="153.941" fill="#E2AD60" width="1.203" height="19.895"/>
<rect x="84.237" y="153.941" fill="#E2AD60" width="0.297" height="19.895"/>
<rect x="89.167" y="153.941" fill="#E2AD60" width="0.297" height="19.895"/>
<rect x="91.256" y="153.941" fill="#E2AD60" width="0.297" height="19.895"/>
<path fill="#070808" d="M98.003,147.179H48.626V97.801h49.377V147.179z M48.948,146.857h48.734V98.123H48.948V146.857z"/>
<path fill="#070808" d="M96.82,145.995h-47.01v-47.01h47.01V145.995z M50.131,145.673h46.366V99.307H50.131V145.673z"/>
<circle fill="#CFCECE" cx="45.596" cy="11.438" r="0.976"/>
<circle fill="#CFCECE" cx="59.058" cy="11.438" r="0.976"/>
<circle fill="#CFCECE" cx="72.519" cy="11.438" r="0.976"/>
<circle fill="#CFCECE" cx="85.98" cy="11.438" r="0.976"/>
<circle fill="#CFCECE" cx="99.441" cy="11.438" r="0.976"/>
<path fill="#E5D5BA" d="M32.728,154.722v14.094v0.853c0,0.858,0.696,1.554,1.554,1.554c0.595,0,1.106-0.338,1.367-0.829
	c0.261,0.491,0.772,0.829,1.367,0.829s1.106-0.338,1.367-0.829c0.261,0.491,0.772,0.829,1.367,0.829
	c0.595,0,1.106-0.338,1.367-0.829c0.261,0.491,0.772,0.829,1.367,0.829c0.595,0,1.106-0.338,1.367-0.829
	c0.261,0.491,0.647,0.829,1.243,0.829c0.595,0,0.964-0.338,1.225-0.829v-1.577v-0.005v-14.089H32.728z"/>
<path fill="#F4E2C1" d="M5.002,169.668c0,0.858,0.696,1.554,1.554,1.554c0.595,0,1.106-0.338,1.367-0.829
	c0.261,0.491,0.772,0.829,1.367,0.829s1.106-0.338,1.367-0.829c0.261,0.491,0.772,0.829,1.367,0.829s1.106-0.338,1.367-0.829
	c0.261,0.491,0.772,0.829,1.367,0.829s1.106-0.338,1.367-0.829c0.261,0.491,0.772,0.829,1.367,0.829s1.106-0.338,1.367-0.829
	c0.261,0.491,0.772,0.829,1.367,0.829s1.106-0.338,1.367-0.829c0.261,0.491,0.772,0.829,1.367,0.829s1.106-0.338,1.367-0.829
	c0.261,0.491,0.772,0.829,1.367,0.829s1.106-0.338,1.367-0.829c0.261,0.491,0.772,0.829,1.367,0.829
	c0.595,0,1.106-0.338,1.367-0.829c0.261,0.491,0.772,0.829,1.367,0.829c0.858,0,1.59-0.696,1.59-1.554v-0.857H5.002V169.668z"/>
<rect x="14.751" y="168.815" fill="#E2AD60" width="1.203" height="2.75"/>
<rect x="21.334" y="168.815" fill="#E2AD60" width="1.203" height="2.75"/>
<rect x="27.912" y="168.815" fill="#E2AD60" width="1.203" height="2.75"/>
<rect x="8.172" y="168.815" fill="#E2AD60" width="1.203" height="2.75"/>
<rect x="6.567" y="168.815" fill="#E2AD60" width="0.297" height="2.75"/>
<rect x="11.064" y="168.815" fill="#E2AD60" width="0.297" height="2.75"/>
<rect x="13.153" y="168.815" fill="#E2AD60" width="0.297" height="2.75"/>
<rect x="17.644" y="168.815" fill="#E2AD60" width="0.297" height="2.75"/>
<rect x="19.732" y="168.815" fill="#E2AD60" width="0.297" height="2.75"/>
<rect x="24.229" y="168.815" fill="#E2AD60" width="0.297" height="2.75"/>
<rect x="26.311" y="168.815" fill="#E2AD60" width="0.297" height="2.75"/>
<rect x="30.808" y="168.815" fill="#E2AD60" width="0.297" height="2.75"/>
<g>
	<defs>
		<path id="SVGID_3_" d="M32.728,154.722v14.094v0.853c0,0.858,0.696,1.554,1.554,1.554c0.595,0,1.106-0.338,1.367-0.829
			c0.261,0.491,0.772,0.829,1.367,0.829s1.106-0.338,1.367-0.829c0.261,0.491,0.772,0.829,1.367,0.829
			c0.595,0,1.106-0.338,1.367-0.829c0.261,0.491,0.772,0.829,1.367,0.829c0.595,0,1.106-0.338,1.367-0.829
			c0.261,0.491,0.647,0.829,1.243,0.829c0.595,0,0.964-0.338,1.225-0.829v-1.577v-0.005v-14.089H32.728z"/>
	</defs>
	<clipPath id="SVGID_4_">
		<use xlink:href="#SVGID_3_"  overflow="visible"/>
	</clipPath>
	<rect x="37.452" y="154.754" clip-path="url(#SVGID_4_)" fill="#E2AD60" width="0.597" height="16.811"/>
	<rect x="40.718" y="154.754" clip-path="url(#SVGID_4_)" fill="#E2AD60" width="0.597" height="16.811"/>
	<rect x="43.983" y="154.754" clip-path="url(#SVGID_4_)" fill="#E2AD60" width="0.597" height="16.811"/>
	<rect x="34.187" y="154.754" clip-path="url(#SVGID_4_)" fill="#E2AD60" width="0.597" height="16.811"/>
	<rect x="33.39" y="154.754" clip-path="url(#SVGID_4_)" fill="#E2AD60" width="0.148" height="16.811"/>
	<rect x="35.622" y="154.754" clip-path="url(#SVGID_4_)" fill="#E2AD60" width="0.148" height="16.811"/>
	<rect x="36.659" y="154.754" clip-path="url(#SVGID_4_)" fill="#E2AD60" width="0.148" height="16.811"/>
	<rect x="38.887" y="154.754" clip-path="url(#SVGID_4_)" fill="#E2AD60" width="0.147" height="16.811"/>
	<rect x="39.924" y="154.754" clip-path="url(#SVGID_4_)" fill="#E2AD60" width="0.148" height="16.811"/>
	<rect x="42.155" y="154.754" clip-path="url(#SVGID_4_)" fill="#E2AD60" width="0.148" height="16.811"/>
	<rect x="43.189" y="154.754" clip-path="url(#SVGID_4_)" fill="#E2AD60" width="0.148" height="16.811"/>
	<rect x="45.42" y="154.754" clip-path="url(#SVGID_4_)" fill="#E2AD60" width="0.148" height="16.811"/>
</g>
<polygon fill="#F4E2C1" points="5.002,169 32.728,169 46.319,155 18.594,155 "/>
<rect x="35.046" y="151.023" transform="matrix(0.7177 0.6963 -0.6963 0.7177 122.5559 20.9162)" fill="#E2AD60" width="0.865" height="21.21"/>
<rect x="28.465" y="151.023" transform="matrix(0.7177 0.6963 -0.6963 0.7177 120.6984 25.4985)" fill="#E2AD60" width="0.865" height="21.21"/>
<rect x="21.884" y="151.023" transform="matrix(0.7177 0.6963 -0.6963 0.7177 118.8409 30.0808)" fill="#E2AD60" width="0.865" height="21.21"/>
<rect x="15.303" y="151.023" transform="matrix(0.7177 0.6963 -0.6963 0.7177 116.9834 34.6632)" fill="#E2AD60" width="0.865" height="21.21"/>
<rect x="33.317" y="151.023" transform="matrix(0.7177 0.6963 -0.6963 0.7177 121.9768 22.3461)" fill="#E2AD60" width="0.216" height="21.21"/>
<rect x="26.736" y="151.023" transform="matrix(0.7177 0.6963 -0.6963 0.7177 120.1193 26.9285)" fill="#E2AD60" width="0.216" height="21.21"/>
<rect x="20.155" y="151.023" transform="matrix(0.7177 0.6963 -0.6963 0.7177 118.2618 31.511)" fill="#E2AD60" width="0.216" height="21.21"/>
<rect x="13.574" y="151.023" transform="matrix(0.7177 0.6963 -0.6963 0.7177 116.4043 36.0934)" fill="#E2AD60" width="0.216" height="21.21"/>
<rect x="37.813" y="151.023" transform="matrix(0.7175 0.6966 -0.6966 0.7175 123.3018 19.2491)" fill="#E2AD60" width="0.216" height="21.21"/>
<rect x="31.232" y="151.023" transform="matrix(0.7177 0.6963 -0.6963 0.7177 121.3884 23.7979)" fill="#E2AD60" width="0.216" height="21.21"/>
<rect x="24.651" y="151.023" transform="matrix(0.7177 0.6963 -0.6963 0.7177 119.5308 28.3803)" fill="#E2AD60" width="0.216" height="21.21"/>
<rect x="18.07" y="151.023" transform="matrix(0.7177 0.6963 -0.6963 0.7177 117.6733 32.9627)" fill="#E2AD60" width="0.216" height="21.21"/>
<path fill="#E5D5BA" d="M112.242,154.722v14.094v0.853c0,0.858-0.696,1.554-1.554,1.554c-0.595,0-1.106-0.338-1.367-0.829
	c-0.261,0.491-0.772,0.829-1.367,0.829s-1.106-0.338-1.367-0.829c-0.261,0.491-0.772,0.829-1.367,0.829s-1.106-0.338-1.367-0.829
	c-0.261,0.491-0.772,0.829-1.367,0.829s-1.106-0.338-1.367-0.829c-0.261,0.491-0.648,0.829-1.243,0.829
	c-0.595,0-0.964-0.338-1.225-0.829v-1.577v-0.005v-14.089H112.242z"/>
<path fill="#F4E2C1" d="M139.968,169.668c0,0.858-0.696,1.554-1.554,1.554c-0.595,0-1.106-0.338-1.367-0.829
	c-0.261,0.491-0.772,0.829-1.367,0.829c-0.595,0-1.106-0.338-1.367-0.829c-0.261,0.491-0.772,0.829-1.367,0.829
	c-0.595,0-1.106-0.338-1.367-0.829c-0.261,0.491-0.772,0.829-1.367,0.829c-0.595,0-1.106-0.338-1.367-0.829
	c-0.261,0.491-0.772,0.829-1.367,0.829c-0.595,0-1.106-0.338-1.367-0.829c-0.261,0.491-0.772,0.829-1.367,0.829
	s-1.106-0.338-1.367-0.829c-0.261,0.491-0.772,0.829-1.367,0.829s-1.106-0.338-1.367-0.829c-0.261,0.491-0.772,0.829-1.367,0.829
	s-1.106-0.338-1.367-0.829c-0.261,0.491-0.772,0.829-1.367,0.829s-1.106-0.338-1.367-0.829c-0.261,0.491-0.772,0.829-1.367,0.829
	c-0.858,0-1.59-0.696-1.59-1.554v-0.857h27.751V169.668z"/>
<rect x="129.017" y="168.815" fill="#E2AD60" width="1.203" height="2.75"/>
<rect x="122.434" y="168.815" fill="#E2AD60" width="1.203" height="2.75"/>
<rect x="115.855" y="168.815" fill="#E2AD60" width="1.203" height="2.75"/>
<rect x="135.596" y="168.815" fill="#E2AD60" width="1.203" height="2.75"/>
<rect x="138.106" y="168.815" fill="#E2AD60" width="0.297" height="2.75"/>
<rect x="133.608" y="168.815" fill="#E2AD60" width="0.297" height="2.75"/>
<rect x="131.52" y="168.815" fill="#E2AD60" width="0.297" height="2.75"/>
<rect x="127.029" y="168.815" fill="#E2AD60" width="0.297" height="2.75"/>
<rect x="124.94" y="168.815" fill="#E2AD60" width="0.297" height="2.75"/>
<rect x="120.443" y="168.815" fill="#E2AD60" width="0.297" height="2.75"/>
<rect x="118.361" y="168.815" fill="#E2AD60" width="0.297" height="2.75"/>
<rect x="113.864" y="168.815" fill="#E2AD60" width="0.297" height="2.75"/>
<g>
	<defs>
		<path id="SVGID_5_" d="M112.242,154.722v14.094v0.853c0,0.858-0.696,1.554-1.554,1.554c-0.595,0-1.106-0.338-1.367-0.829
			c-0.261,0.491-0.772,0.829-1.367,0.829s-1.106-0.338-1.367-0.829c-0.261,0.491-0.772,0.829-1.367,0.829s-1.106-0.338-1.367-0.829
			c-0.261,0.491-0.772,0.829-1.367,0.829s-1.106-0.338-1.367-0.829c-0.261,0.491-0.648,0.829-1.243,0.829
			c-0.595,0-0.964-0.338-1.225-0.829v-1.577v-0.005v-14.089H112.242z"/>
	</defs>
	<clipPath id="SVGID_6_">
		<use xlink:href="#SVGID_5_"  overflow="visible"/>
	</clipPath>
	<rect x="106.922" y="154.754" clip-path="url(#SVGID_6_)" fill="#E2AD60" width="0.597" height="16.811"/>
	<rect x="103.655" y="154.754" clip-path="url(#SVGID_6_)" fill="#E2AD60" width="0.597" height="16.811"/>
	<rect x="100.39" y="154.754" clip-path="url(#SVGID_6_)" fill="#E2AD60" width="0.597" height="16.811"/>
	<rect x="110.186" y="154.754" clip-path="url(#SVGID_6_)" fill="#E2AD60" width="0.597" height="16.811"/>
	<rect x="111.432" y="154.754" clip-path="url(#SVGID_6_)" fill="#E2AD60" width="0.148" height="16.811"/>
	<rect x="109.2" y="154.754" clip-path="url(#SVGID_6_)" fill="#E2AD60" width="0.148" height="16.811"/>
	<rect x="108.164" y="154.754" clip-path="url(#SVGID_6_)" fill="#E2AD60" width="0.148" height="16.811"/>
	<rect x="105.935" y="154.754" clip-path="url(#SVGID_6_)" fill="#E2AD60" width="0.148" height="16.811"/>
	<rect x="104.898" y="154.754" clip-path="url(#SVGID_6_)" fill="#E2AD60" width="0.148" height="16.811"/>
	<rect x="102.667" y="154.754" clip-path="url(#SVGID_6_)" fill="#E2AD60" width="0.148" height="16.811"/>
	<rect x="101.634" y="154.754" clip-path="url(#SVGID_6_)" fill="#E2AD60" width="0.148" height="16.811"/>
	<rect x="99.402" y="154.754" clip-path="url(#SVGID_6_)" fill="#E2AD60" width="0.148" height="16.811"/>
</g>
<polygon fill="#F4E2C1" points="139.968,169 112.242,169 98.651,155 126.376,155 "/>
<rect x="109.059" y="151.023" transform="matrix(-0.7177 0.6963 -0.6963 -0.7177 300.6209 201.3974)" fill="#E2AD60" width="0.865" height="21.21"/>
<rect x="115.64" y="151.023" transform="matrix(-0.7177 0.6963 -0.6963 -0.7177 311.9255 196.815)" fill="#E2AD60" width="0.865" height="21.21"/>
<rect x="122.221" y="151.023" transform="matrix(-0.7177 0.6964 -0.6964 -0.7177 323.2331 192.2129)" fill="#E2AD60" width="0.865" height="21.21"/>
<rect x="128.802" y="151.023" transform="matrix(-0.7177 0.6964 -0.6964 -0.7177 334.5372 187.63)" fill="#E2AD60" width="0.865" height="21.21"/>
<rect x="111.437" y="151.023" transform="matrix(-0.7177 0.6963 -0.6963 -0.7177 304.1484 199.9672)" fill="#E2AD60" width="0.216" height="21.21"/>
<rect x="118.018" y="151.023" transform="matrix(-0.7177 0.6963 -0.6963 -0.7177 315.453 195.3848)" fill="#E2AD60" width="0.216" height="21.21"/>
<rect x="124.599" y="151.023" transform="matrix(-0.7177 0.6963 -0.6963 -0.7177 326.7574 190.8025)" fill="#E2AD60" width="0.216" height="21.21"/>
<rect x="131.18" y="151.023" transform="matrix(-0.7177 0.6963 -0.6963 -0.7177 338.062 186.22)" fill="#E2AD60" width="0.216" height="21.21"/>
<rect x="106.941" y="151.023" transform="matrix(-0.7177 0.6963 -0.6963 -0.7177 296.4253 203.0979)" fill="#E2AD60" width="0.216" height="21.21"/>
<rect x="113.522" y="151.023" transform="matrix(-0.7177 0.6963 -0.6963 -0.7177 307.7299 198.5155)" fill="#E2AD60" width="0.216" height="21.21"/>
<rect x="120.103" y="151.023" transform="matrix(-0.7177 0.6963 -0.6963 -0.7177 319.0345 193.933)" fill="#E2AD60" width="0.216" height="21.21"/>
<rect x="126.684" y="151.023" transform="matrix(-0.7177 0.6963 -0.6963 -0.7177 330.339 189.3506)" fill="#E2AD60" width="0.216" height="21.21"/>
</svg>
