<?xml version="1.0" encoding="utf-8"?>
<!-- Generator: Adobe Illustrator 17.0.0, SVG Export Plug-In . SVG Version: 6.00 Build 0)  -->
<!DOCTYPE svg PUBLIC "-//W3C//DTD SVG 1.1//EN" "http://www.w3.org/Graphics/SVG/1.1/DTD/svg11.dtd">
<svg version="1.1" id="Layer_1" xmlns="http://www.w3.org/2000/svg" xmlns:xlink="http://www.w3.org/1999/xlink" x="0px" y="0px"
	 width="403.04px" height="276.946px" viewBox="0 0 403.04 276.946" enable-background="new 0 0 403.04 276.946"
	 xml:space="preserve">
<rect x="36.504" y="90.115" fill="#6B574B" width="361.535" height="186.83"/>
<polyline fill="#675249" points="36.504,276.946 36.504,90.115 398.039,90.115 "/>
<rect x="86.774" y="145.098" fill="#443832" width="56.046" height="39.948"/>
<path fill="#281A11" d="M143.464,185.689H86.131v-41.235h57.333L143.464,185.689L143.464,185.689z M87.418,184.402h54.759v-38.661
	H87.418V184.402z"/>
<polyline fill="#332D2A" points="86.774,185.046 86.774,145.098 142.82,145.098 "/>
<rect x="55.906" y="145.098" fill="#443832" width="13.455" height="29.006"/>
<path fill="#281A11" d="M70.004,174.748H55.262v-30.294h14.742V174.748z M56.55,173.46h12.167v-27.719H56.55V173.46z"/>
<rect x="149.694" y="145.098" fill="#443832" width="56.046" height="39.948"/>
<path fill="#281A11" d="M206.383,185.689H149.05v-41.235h57.333V185.689z M150.337,184.402h54.758v-38.661h-54.758V184.402z"/>
<rect x="212.917" y="145.098" fill="#443832" width="56.046" height="39.948"/>
<path fill="#281A11" d="M269.607,185.689h-57.333v-41.235h57.333V185.689z M213.561,184.402h54.759v-38.661h-54.759V184.402z"/>
<polyline fill="#332D2A" points="149.758,185.046 149.758,145.098 205.804,145.098 "/>
<polyline fill="#332D2A" points="212.885,185.046 212.885,145.098 268.931,145.098 "/>
<rect x="302.07" y="145.098" fill="#443832" width="56.046" height="39.948"/>
<path fill="#281A11" d="M358.759,185.689h-57.333v-41.235h57.333V185.689z M302.714,184.402h54.758v-38.661h-54.758V184.402z"/>
<polyline fill="#332D2A" points="302.102,185.046 302.102,145.098 358.148,145.098 "/>
<rect x="302.07" y="209.814" fill="#443832" width="48.322" height="30.904"/>
<path fill="#281A11" d="M351.036,241.362h-49.609v-32.191h49.609V241.362z M302.714,240.075h47.035v-29.617h-47.035V240.075z"/>
<rect x="142.82" y="225.266" fill="#443832" width="23.492" height="50.207"/>
<path fill="#281A11" d="M166.956,276.118h-24.779v-51.495h24.779V276.118z M143.464,274.83h22.205v-48.92h-22.205V274.83z"/>
<rect x="86.774" y="225.266" fill="#443832" width="31.507" height="25.104"/>
<path fill="#281A11" d="M118.924,251.014H86.131v-26.391h32.794L118.924,251.014L118.924,251.014z M87.418,249.727h30.219V225.91
	H87.418V249.727z"/>
<rect x="53.607" y="225.266" fill="#443832" width="15.753" height="25.104"/>
<path fill="#281A11" d="M70.004,251.014h-17.04v-26.391h17.041L70.004,251.014L70.004,251.014z M54.251,249.727h14.466V225.91
	H54.251V249.727z"/>
<polygon fill="#5A483E" points="36.504,90.019 36.504,276.849 5.001,250.556 5.001,62.719 "/>
<polyline fill="#473933" points="398.039,90.116 36.504,90.116 5.001,62.719 366.536,62.719 398.039,90.116 "/>
<polyline fill="#352B27" points="388.861,87.308 39.924,87.308 13.57,64.918 363.801,64.918 388.861,87.308 "/>
<rect x="240.297" y="145.098" fill="#2B1C12" width="1.287" height="39.948"/>
<rect x="212.853" y="154.497" fill="#2B1C12" width="56.11" height="1.287"/>
<rect x="212.853" y="164.795" fill="#2B1C12" width="56.11" height="1.287"/>
<rect x="212.853" y="174.449" fill="#2B1C12" width="56.11" height="1.287"/>
<rect x="189.279" y="226.194" fill="#443832" width="54.273" height="49.28"/>
<path fill="#281A11" d="M244.195,276.118h-55.56V225.55h55.56V276.118z M189.923,274.83h52.985v-47.993h-52.985V274.83z"/>
<polyline fill="#332D2A" points="189.955,274.743 189.955,226.73 242.974,226.73 "/>
<polyline fill="#332D2A" points="302.751,240.041 302.751,210.417 349.795,210.417 "/>
<polyline fill="#332D2A" points="87.376,249.834 87.376,225.871 117.68,225.871 "/>
<polyline fill="#332D2A" points="54.209,249.834 54.209,225.871 68.776,225.871 "/>
<polyline fill="#332D2A" points="56.542,173.529 56.542,145.756 68.717,145.756 "/>
<polyline fill="#332D2A" points="143.349,274.669 143.349,225.833 165.542,225.833 "/>
<rect x="224.779" y="226.194" fill="#2B1C12" width="1.287" height="49.28"/>
<rect x="206.329" y="226.194" fill="#2B1C12" width="1.287" height="49.28"/>
<rect x="189.216" y="234.711" fill="#2B1C12" width="54.335" height="1.287"/>
<rect x="189.216" y="245.152" fill="#2B1C12" width="54.335" height="1.287"/>
<rect x="189.216" y="255.593" fill="#2B1C12" width="54.335" height="1.287"/>
<rect x="189.216" y="266.034" fill="#2B1C12" width="54.335" height="1.287"/>
<rect x="329.481" y="145.098" fill="#2B1C12" width="1.287" height="39.948"/>
<rect x="302.038" y="154.497" fill="#2B1C12" width="56.11" height="1.287"/>
<rect x="302.038" y="164.795" fill="#2B1C12" width="56.11" height="1.287"/>
<rect x="302.038" y="174.449" fill="#2B1C12" width="56.11" height="1.287"/>
<rect x="177.138" y="145.098" fill="#2B1C12" width="1.287" height="39.948"/>
<rect x="149.694" y="154.497" fill="#2B1C12" width="56.11" height="1.287"/>
<rect x="149.694" y="164.795" fill="#2B1C12" width="56.11" height="1.287"/>
<rect x="149.694" y="174.449" fill="#2B1C12" width="56.11" height="1.287"/>
<rect x="114.186" y="145.098" fill="#2B1C12" width="1.287" height="39.948"/>
<rect x="86.742" y="154.497" fill="#2B1C12" width="56.11" height="1.287"/>
<rect x="86.742" y="164.795" fill="#2B1C12" width="56.11" height="1.287"/>
<rect x="86.742" y="174.449" fill="#2B1C12" width="56.11" height="1.287"/>
<rect x="213.147" y="124.69" fill="#332D2A" width="6.866" height="2.896"/>
<path fill="#AF9989" d="M220.174,127.747h-7.188v-3.218h7.188V127.747z M213.308,127.426h6.545v-2.574h-6.545V127.426z"/>
<rect x="216.349" y="127.586" fill="#51493B" width="6.866" height="2.896"/>
<path fill="#AF9989" d="M223.377,130.644h-7.188v-3.218h7.188V130.644z M216.51,130.322h6.545v-2.574h-6.545V130.322z"/>
<rect x="209.483" y="127.586" fill="#685446" width="6.866" height="2.896"/>
<path fill="#AF9989" d="M216.51,130.644h-7.188v-3.218h7.188V130.644z M209.644,130.322h6.545v-2.574h-6.545V130.322z"/>
<rect x="213.147" y="130.483" fill="#51493B" width="6.866" height="2.896"/>
<path fill="#AF9989" d="M220.174,133.54h-7.188v-3.218h7.188V133.54z M213.308,133.218h6.545v-2.574h-6.545V133.218z"/>
<rect x="216.349" y="133.379" fill="#332D2A" width="6.866" height="2.896"/>
<path fill="#AF9989" d="M223.377,136.436h-7.188v-3.218h7.188V136.436z M216.51,136.114h6.545v-2.574h-6.545V136.114z"/>
<rect x="292.943" y="110.209" fill="#332D2A" width="6.866" height="2.896"/>
<path fill="#AF9989" d="M299.971,113.266h-7.188v-3.218h7.188V113.266z M293.105,112.944h6.544v-2.574h-6.544V112.944z"/>
<rect x="219.783" y="136.275" fill="#685446" width="6.866" height="2.896"/>
<path fill="#AF9989" d="M226.81,139.333h-7.188v-3.218h7.188V139.333z M219.943,139.011h6.545v-2.574h-6.545V139.011z"/>
<rect x="296.377" y="107.312" fill="#685446" width="6.866" height="2.896"/>
<path fill="#AF9989" d="M303.404,110.37h-7.188v-3.218h7.188V110.37z M296.538,110.048h6.545v-2.574h-6.545V110.048z"/>
<rect x="296.377" y="113.105" fill="#685446" width="6.866" height="2.896"/>
<path fill="#AF9989" d="M303.404,116.162h-7.188v-3.218h7.188V116.162z M296.538,115.84h6.545v-2.574h-6.545V115.84z"/>
<rect x="296.377" y="196.885" fill="#332D2A" width="6.866" height="2.896"/>
<path fill="#AF9989" d="M303.404,199.942h-7.188v-3.218h7.188V199.942z M296.538,199.621h6.545v-2.575h-6.545V199.621z"/>
<rect x="206.28" y="130.483" fill="#332D2A" width="6.866" height="2.896"/>
<path fill="#AF9989" d="M213.308,133.54h-7.188v-3.218h7.188V133.54z M206.441,133.218h6.545v-2.574h-6.545V133.218z"/>
<rect x="127.555" y="113.105" fill="#332D2A" width="6.866" height="2.896"/>
<path fill="#AF9989" d="M134.582,116.162h-7.188v-3.218h7.188V116.162z M127.716,115.84h6.545v-2.574h-6.545V115.84z"/>
<rect x="130.988" y="116.001" fill="#51493B" width="6.866" height="2.896"/>
<path fill="#AF9989" d="M138.016,119.058h-7.188v-3.218h7.188V119.058z M131.149,118.737h6.545v-2.574h-6.545V118.737z"/>
<rect x="139.272" y="214.906" fill="#332D2A" width="6.866" height="2.896"/>
<path fill="#AF9989" d="M146.299,217.963h-7.188v-3.218h7.188V217.963z M139.433,217.641h6.544v-2.574h-6.544V217.641z"/>
<rect x="136.069" y="212.009" fill="#51493B" width="6.866" height="2.896"/>
<path fill="#AF9989" d="M143.096,215.066h-7.188v-3.218h7.188V215.066z M136.23,214.745h6.545v-2.574h-6.545V214.745z"/>
<rect x="142.935" y="212.009" fill="#685446" width="6.866" height="2.896"/>
<path fill="#AF9989" d="M149.962,215.066h-7.188v-3.218h7.188V215.066z M143.096,214.745h6.545v-2.574h-6.545V214.745z"/>
<rect x="139.272" y="209.113" fill="#51493B" width="6.866" height="2.896"/>
<path fill="#AF9989" d="M146.299,212.17h-7.188v-3.218h7.188V212.17z M139.433,211.848h6.544v-2.574h-6.544V211.848z"/>
<rect x="136.069" y="206.217" fill="#332D2A" width="6.866" height="2.896"/>
<path fill="#AF9989" d="M143.096,209.274h-7.188v-3.218h7.188V209.274z M136.23,208.952h6.545v-2.574h-6.545V208.952z"/>
<rect x="132.636" y="203.32" fill="#685446" width="6.866" height="2.896"/>
<path fill="#AF9989" d="M139.663,206.378h-7.188v-3.218h7.188V206.378z M132.797,206.056h6.545v-2.574h-6.545V206.056z"/>
<rect x="146.138" y="209.113" fill="#332D2A" width="6.866" height="2.896"/>
<path fill="#AF9989" d="M153.165,212.17h-7.188v-3.218h7.188V212.17z M146.299,211.848h6.545v-2.574h-6.545V211.848z"/>
<rect x="46.726" y="207.656" fill="#332D2A" width="6.866" height="2.896"/>
<path fill="#AF9989" d="M53.753,210.713h-7.188v-3.218h7.188V210.713z M46.887,210.392h6.545v-2.574h-6.545V210.392z"/>
<rect x="50.39" y="204.76" fill="#685446" width="6.866" height="2.896"/>
<path fill="#AF9989" d="M57.417,207.817h-7.188v-3.218h7.188V207.817z M50.551,207.495h6.545v-2.574h-6.545L50.551,207.495z"/>
<rect x="46.726" y="201.864" fill="#51493B" width="6.866" height="2.896"/>
<path fill="#AF9989" d="M53.753,204.921h-7.188v-3.218h7.188V204.921z M46.887,204.599h6.545v-2.574h-6.545V204.599z"/>
<rect x="39.86" y="201.864" fill="#332D2A" width="6.866" height="2.896"/>
<path fill="#AF9989" d="M46.887,204.921h-7.188v-3.218h7.188V204.921z M40.021,204.599h6.544v-2.574h-6.544V204.599z"/>
<rect x="83.309" y="263.781" fill="#332D2A" width="6.866" height="2.896"/>
<path fill="#AF9989" d="M90.336,266.839h-7.188v-3.218h7.188V266.839z M83.47,266.517h6.545v-2.574H83.47V266.517z"/>
<rect x="43.524" y="198.967" fill="#332D2A" width="6.866" height="2.896"/>
<path fill="#AF9989" d="M50.551,202.025h-7.188v-3.218h7.188V202.025z M43.684,201.703h6.545v-2.574h-6.545V201.703z"/>
<rect x="53.593" y="201.864" fill="#332D2A" width="6.866" height="2.896"/>
<path fill="#AF9989" d="M60.62,204.921h-7.188v-3.218h7.188V204.921z M53.753,204.599h6.545v-2.574h-6.545V204.599z"/>
<rect x="358.116" y="111.657" fill="#332D2A" width="6.866" height="2.896"/>
<path fill="#AF9989" d="M365.143,114.714h-7.188v-3.218h7.188V114.714z M358.277,114.392h6.545v-2.574h-6.545V114.392z"/>
<rect x="361.318" y="114.553" fill="#51493B" width="6.866" height="2.896"/>
<path fill="#AF9989" d="M368.346,117.61h-7.188v-3.218h7.188V117.61z M361.479,117.289h6.545v-2.574h-6.545V117.289z"/>
<rect x="354.452" y="114.553" fill="#685446" width="6.866" height="2.896"/>
<path fill="#AF9989" d="M361.479,117.61h-7.188v-3.218h7.188V117.61z M354.613,117.289h6.545v-2.574h-6.545V117.289z"/>
<rect x="358.116" y="117.45" fill="#51493B" width="6.866" height="2.896"/>
<path fill="#AF9989" d="M365.143,120.507h-7.188v-3.218h7.188V120.507z M358.277,120.185h6.545v-2.574h-6.545V120.185z"/>
<rect x="364.982" y="117.45" fill="#332D2A" width="6.866" height="2.896"/>
<path fill="#AF9989" d="M372.009,120.507h-7.188v-3.218h7.188V120.507z M365.143,120.185h6.545v-2.574h-6.545V120.185z"/>
<rect x="361.318" y="120.346" fill="#332D2A" width="6.866" height="2.896"/>
<path fill="#AF9989" d="M368.346,123.403h-7.188v-3.218h7.188V123.403z M361.479,123.081h6.545v-2.574h-6.545V123.081z"/>
<rect x="364.751" y="123.242" fill="#685446" width="6.866" height="2.896"/>
<path fill="#AF9989" d="M371.779,126.299h-7.188v-3.218h7.188V126.299z M364.913,125.977h6.544v-2.574h-6.544V125.977z"/>
<rect x="351.249" y="117.45" fill="#332D2A" width="6.866" height="2.896"/>
<path fill="#AF9989" d="M358.277,120.507h-7.188v-3.218h7.188V120.507z M351.41,120.185h6.545v-2.574h-6.545V120.185z"/>
<rect x="64.102" y="108.761" fill="#332D2A" width="6.866" height="2.896"/>
<path fill="#AF9989" d="M71.13,111.818h-7.188V108.6h7.188V111.818z M64.263,111.496h6.545v-2.574h-6.545V111.496z"/>
<rect x="60.9" y="105.864" fill="#51493B" width="6.866" height="2.896"/>
<path fill="#AF9989" d="M67.927,108.921h-7.188v-3.218h7.188V108.921z M61.061,108.6h6.544v-2.574h-6.544
	C61.061,106.026,61.061,108.6,61.061,108.6z"/>
<rect x="67.766" y="105.864" fill="#685446" width="6.866" height="2.896"/>
<path fill="#AF9989" d="M74.793,108.921h-7.188v-3.218h7.188V108.921z M67.927,108.6h6.545v-2.574h-6.545V108.6z"/>
<rect x="64.102" y="102.968" fill="#51493B" width="6.866" height="2.896"/>
<path fill="#AF9989" d="M71.13,106.025h-7.188v-3.218h7.188V106.025z M64.263,105.703h6.545v-2.575h-6.545V105.703z"/>
<rect x="57.236" y="102.968" fill="#332D2A" width="6.866" height="2.896"/>
<path fill="#AF9989" d="M64.263,106.025h-7.188v-3.218h7.188V106.025z M57.397,105.703h6.545v-2.575h-6.545
	C57.397,103.128,57.397,105.703,57.397,105.703z"/>
<rect x="60.9" y="100.072" fill="#332D2A" width="6.866" height="2.896"/>
<path fill="#AF9989" d="M67.927,103.129h-7.188v-3.218h7.188V103.129z M61.061,102.807h6.544v-2.574h-6.544
	C61.061,100.233,61.061,102.807,61.061,102.807z"/>
<rect x="74.619" y="105.864" fill="#685446" width="6.866" height="2.896"/>
<path fill="#AF9989" d="M81.647,108.921h-7.188v-3.218h7.188V108.921z M74.78,108.6h6.545v-2.574H74.78V108.6z"/>
<rect x="70.969" y="102.968" fill="#332D2A" width="6.866" height="2.896"/>
<path fill="#AF9989" d="M77.996,106.025h-7.188v-3.218h7.188V106.025z M71.13,105.703h6.544v-2.575H71.13V105.703z"/>
<rect x="269.775" y="254.179" fill="#332D2A" width="6.866" height="2.896"/>
<path fill="#AF9989" d="M276.803,257.236h-7.188v-3.218h7.188V257.236z M269.936,256.914h6.544v-2.574h-6.544V256.914z"/>
<rect x="266.573" y="251.282" fill="#51493B" width="6.866" height="2.896"/>
<path fill="#AF9989" d="M273.6,254.34h-7.188v-3.218h7.188V254.34z M266.733,254.018h6.545v-2.574h-6.545V254.018z"/>
<rect x="269.775" y="248.386" fill="#51493B" width="6.866" height="2.896"/>
<path fill="#AF9989" d="M276.803,251.443h-7.188v-3.218h7.188V251.443z M269.936,251.122h6.544v-2.574h-6.544V251.122z"/>
<rect x="273.439" y="257.075" fill="#332D2A" width="6.866" height="2.896"/>
<path fill="#AF9989" d="M280.466,260.132h-7.188v-3.218h7.188V260.132z M273.6,259.811h6.545v-2.574H273.6V259.811z"/>
<rect x="266.573" y="245.49" fill="#332D2A" width="6.866" height="2.896"/>
<path fill="#AF9989" d="M273.6,248.547h-7.188v-3.218h7.188V248.547z M266.733,248.225h6.545v-2.574h-6.545V248.225z"/>
<rect x="276.642" y="254.179" fill="#685446" width="6.866" height="2.896"/>
<path fill="#AF9989" d="M283.669,257.236h-7.188v-3.218h7.188V257.236z M276.803,256.914h6.545v-2.574h-6.545V256.914z"/>
<rect x="276.642" y="248.386" fill="#332D2A" width="6.866" height="2.896"/>
<path fill="#AF9989" d="M283.669,251.443h-7.188v-3.218h7.188V251.443z M276.803,251.122h6.545v-2.574h-6.545V251.122z"/>
<rect x="370.244" y="212.001" fill="#332D2A" width="6.866" height="2.896"/>
<path fill="#AF9989" d="M377.272,215.058h-7.188v-3.218h7.188V215.058z M370.405,214.736h6.545v-2.574h-6.545V214.736z"/>
<rect x="367.042" y="209.104" fill="#51493B" width="6.866" height="2.896"/>
<path fill="#AF9989" d="M374.069,212.162h-7.188v-3.218h7.188V212.162z M367.203,211.84h6.545v-2.574h-6.545V211.84z"/>
<rect x="373.908" y="209.104" fill="#685446" width="6.866" height="2.896"/>
<path fill="#AF9989" d="M380.935,212.162h-7.188v-3.218h7.188V212.162z M374.069,211.84h6.545v-2.574h-6.545V211.84z"/>
<rect x="370.244" y="206.208" fill="#51493B" width="6.866" height="2.896"/>
<path fill="#AF9989" d="M377.272,209.265h-7.188v-3.218h7.188V209.265z M370.405,208.944h6.545v-2.574h-6.545V208.944z"/>
<rect x="380.544" y="214.905" fill="#332D2A" width="6.866" height="2.896"/>
<path fill="#AF9989" d="M387.571,217.963h-7.188v-3.218h7.188V217.963z M380.705,217.641h6.545v-2.574h-6.545V217.641z"/>
<rect x="367.042" y="203.312" fill="#332D2A" width="6.866" height="2.896"/>
<path fill="#AF9989" d="M374.069,206.369h-7.188v-3.218h7.188V206.369z M367.203,206.047h6.545v-2.575h-6.545V206.047z"/>
<rect x="377.341" y="212.009" fill="#685446" width="6.866" height="2.896"/>
<path fill="#AF9989" d="M384.369,215.066h-7.188v-3.218h7.188V215.066z M377.502,214.745h6.545v-2.574h-6.545V214.745z"/>
<rect x="377.111" y="206.208" fill="#332D2A" width="6.866" height="2.896"/>
<path fill="#AF9989" d="M384.138,209.265h-7.188v-3.218h7.188V209.265z M377.272,208.944h6.545v-2.574h-6.545V208.944z"/>
<rect x="246.309" y="11.87" transform="matrix(0.9849 0.1734 -0.1734 0.9849 11.3523 -42.1828)" width="1.609" height="64.029"/>
<rect x="251.657" y="12.076" width="22.989" height="1.609"/>
<rect x="248.691" y="34.417" width="28.922" height="1.609"/>
<rect x="244.951" y="55.656" width="36.401" height="1.609"/>
<rect x="247.121" y="43.095" transform="matrix(0.1734 0.9849 -0.9849 0.1734 273.9728 -238.6232)" width="64.035" height="1.609"/>
<rect x="238.205" y="43.095" transform="matrix(0.1734 0.9849 -0.9849 0.1734 266.6029 -229.8423)" width="64.035" height="1.609"/>
<rect x="242.713" y="12.076" width="22.989" height="1.609"/>
<rect x="239.746" y="34.417" width="28.922" height="1.609"/>
<rect x="236.007" y="55.656" width="36.401" height="1.609"/>
<rect x="237.414" y="11.887" transform="matrix(0.9848 0.1734 -0.1734 0.9848 11.2213 -40.6441)" width="1.609" height="64.023"/>
<rect x="239.416" y="23.244" transform="matrix(0.7455 0.6665 -0.6665 0.7455 81.2246 -164.6212)" width="33.519" height="1.609"/>
<rect x="251.531" y="26.36" transform="matrix(0.5453 0.8383 -0.8383 0.5453 153.171 -190.6764)" width="1.609" height="38.964"/>
<rect x="233.86" y="65.142" transform="matrix(0.9026 0.4305 -0.4305 0.9026 53.3154 -103.7359)" width="44.06" height="1.609"/>
<rect x="260.372" y="7.297" transform="matrix(0.6664 0.7456 -0.7456 0.6664 105.0659 -186.707)" width="1.609" height="33.519"/>
<rect x="245.531" y="45.048" transform="matrix(0.8383 0.5452 -0.5452 0.8383 67.85 -137.0707)" width="38.96" height="1.609"/>
<rect x="260.662" y="43.914" transform="matrix(0.4305 0.9026 -0.9026 0.4305 208.4265 -198.4423)" width="1.609" height="44.06"/>
<rect x="312.328" y="11.56" transform="matrix(0.9849 0.1734 -0.1734 0.9849 12.2985 -53.6346)" width="1.609" height="64.029"/>
<rect x="317.682" y="11.771" width="22.989" height="1.609"/>
<rect x="314.715" y="34.112" width="28.922" height="1.609"/>
<rect x="310.976" y="55.351" width="36.401" height="1.609"/>
<rect x="313.145" y="42.79" transform="matrix(0.1734 0.9849 -0.9849 0.1734 328.2482 -303.8991)" width="64.035" height="1.609"/>
<rect x="304.229" y="42.79" transform="matrix(0.1734 0.9849 -0.9849 0.1734 320.8779 -295.1182)" width="64.035" height="1.609"/>
<rect x="308.737" y="11.771" width="22.989" height="1.609"/>
<rect x="305.771" y="34.112" width="28.922" height="1.609"/>
<rect x="302.032" y="55.351" width="36.401" height="1.609"/>
<rect x="303.412" y="11.565" transform="matrix(0.9849 0.1734 -0.1734 0.9849 12.1643 -52.0885)" width="1.609" height="64.029"/>
<rect x="305.441" y="22.94" transform="matrix(0.7455 0.6665 -0.6665 0.7455 97.825 -208.7041)" width="33.519" height="1.609"/>
<rect x="317.554" y="26.055" transform="matrix(0.5453 0.8383 -0.8383 0.5453 182.9386 -246.16)" width="1.609" height="38.964"/>
<rect x="299.883" y="64.838" transform="matrix(0.9026 0.4305 -0.4305 0.9026 59.6157 -132.1886)" width="44.06" height="1.609"/>
<rect x="326.414" y="6.98" transform="matrix(0.6665 0.7455 -0.7455 0.6665 126.8244 -236.0252)" width="1.609" height="33.519"/>
<rect x="311.554" y="44.746" transform="matrix(0.8383 0.5452 -0.5452 0.8383 78.3609 -173.1152)" width="38.96" height="1.609"/>
<rect x="326.686" y="43.61" transform="matrix(0.4305 0.9026 -0.9026 0.4305 245.7532 -258.2086)" width="1.609" height="44.06"/>
<path fill="#FFFFFF" d="M240.911,18.278c0,0.799-0.228,1.336-0.684,1.6c-0.457,0.263-1.119,0.241-1.986-0.094
	c-0.89-0.346-1.56-0.837-2.008-1.44c-0.449-0.604-0.673-1.323-0.673-2.145c0-1.305,0-2.61,0-3.915
	c-1.339-2.895-2.678-5.859-4.016-8.897c-0.143-0.329-0.251-0.64-0.322-0.929c-0.072-0.29-0.108-0.563-0.108-0.82
	c0-0.657,0.253-1.063,0.758-1.236c0.505-0.173,1.131-0.063,1.878,0.312c0.513,0.258,0.952,0.594,1.318,1.019
	c0.366,0.424,0.692,0.969,0.979,1.639c0.732,1.761,1.463,3.501,2.195,5.222c0.743-1.171,1.486-2.363,2.229-3.574
	c0.271-0.43,0.598-0.708,0.979-0.838s0.843-0.116,1.386,0.036c0.717,0.2,1.305,0.563,1.765,1.104c0.46,0.54,0.69,1.141,0.69,1.813
	c0,0.264-0.034,0.518-0.102,0.763c-0.068,0.245-0.166,0.462-0.294,0.65c-1.328,1.997-2.655,3.936-3.982,5.814
	C240.911,15.668,240.911,16.973,240.911,18.278z"/>
<path d="M239.483,20.379c-0.395,0-0.852-0.1-1.358-0.296c-0.932-0.362-1.656-0.883-2.15-1.548c-0.489-0.658-0.737-1.444-0.737-2.337
	v-3.844c-1.339-2.897-2.681-5.87-3.989-8.838c-0.15-0.345-0.265-0.675-0.34-0.982c-0.078-0.312-0.117-0.614-0.117-0.897
	c0-0.998,0.531-1.389,0.976-1.541c0.585-0.2,1.285-0.094,2.127,0.329c0.552,0.277,1.029,0.646,1.417,1.096
	c0.387,0.448,0.733,1.028,1.031,1.723c0.645,1.552,1.301,3.115,1.955,4.658c0.628-0.996,1.265-2.019,1.898-3.051
	c0.312-0.493,0.698-0.82,1.149-0.974c0.438-0.15,0.967-0.14,1.577,0.031c0.782,0.219,1.429,0.624,1.923,1.206
	c0.509,0.598,0.767,1.278,0.767,2.022c0,0.292-0.038,0.577-0.114,0.849c-0.077,0.277-0.19,0.528-0.338,0.745
	c-1.318,1.983-2.64,3.913-3.927,5.735v3.812c0,0.922-0.284,1.554-0.845,1.879C240.131,20.304,239.826,20.379,239.483,20.379z
	 M232.374,0.644c-0.143,0-0.277,0.021-0.398,0.062c-0.252,0.086-0.541,0.27-0.541,0.932c0,0.231,0.033,0.48,0.098,0.742
	c0.067,0.272,0.17,0.567,0.305,0.878c1.316,2.985,2.666,5.977,4.013,8.89l0.03,0.064v3.985c0,0.751,0.205,1.408,0.61,1.953
	c0.421,0.566,1.049,1.014,1.866,1.332c0.747,0.289,1.336,0.33,1.708,0.116c0.347-0.201,0.523-0.645,0.523-1.321V14.26l0.059-0.083
	c1.302-1.842,2.64-3.795,3.977-5.806c0.11-0.161,0.194-0.348,0.252-0.558c0.06-0.216,0.091-0.443,0.09-0.677
	c0-0.595-0.2-1.12-0.613-1.605c-0.416-0.489-0.941-0.817-1.607-1.003c-0.48-0.135-0.882-0.149-1.195-0.042s-0.578,0.338-0.81,0.705
	c-0.743,1.211-1.494,2.415-2.229,3.574l-0.328,0.517l-0.24-0.564c-0.734-1.727-1.473-3.484-2.196-5.224
	c-0.27-0.631-0.582-1.155-0.925-1.552c-0.338-0.391-0.736-0.698-1.219-0.941C233.133,0.765,232.718,0.644,232.374,0.644z"/>
<path fill="#FFFFFF" d="M253.933,12.875c0-0.747,0.224-1.332,0.673-1.764s1.043-0.636,1.782-0.624
	c0.754,0.012,1.348,0.236,1.782,0.687c0.434,0.451,0.65,1.065,0.651,1.849c0,2.613,0,5.227,0,7.84c0,0.769-0.19,1.359-0.571,1.764
	s-0.941,0.61-1.68,0.601c-0.709-0.009-1.252-0.219-1.629-0.614c-0.377-0.396-0.573-0.963-0.588-1.695
	c-0.498,0.767-1.101,1.319-1.81,1.645s-1.55,0.436-2.523,0.31c-0.92-0.12-1.718-0.436-2.393-0.933s-1.182-1.139-1.522-1.911
	c-0.204-0.457-0.347-0.983-0.43-1.574s-0.124-1.457-0.125-2.595c0-1.29,0-2.579,0-3.869c0-0.905,0.204-1.542,0.611-1.917
	c0.407-0.376,1.007-0.485,1.799-0.35c0.799,0.136,1.412,0.456,1.839,0.981c0.426,0.525,0.639,1.228,0.639,2.118
	c0,1.282,0,2.564,0,3.847c0,0.935,0.125,1.598,0.373,1.984c0.249,0.387,0.679,0.614,1.29,0.67c0.611,0.055,1.069-0.12,1.375-0.515
	c0.306-0.395,0.458-1.013,0.458-1.85C253.933,15.598,253.933,14.236,253.933,12.875z"/>
<path d="M256.617,23.551h-0.052c-0.791-0.01-1.416-0.25-1.858-0.714c-0.275-0.289-0.467-0.654-0.575-1.091
	c-0.428,0.49-0.915,0.862-1.456,1.11c-0.771,0.355-1.681,0.469-2.699,0.337c-0.962-0.125-1.817-0.459-2.542-0.992
	c-0.715-0.526-1.261-1.213-1.625-2.041c-0.214-0.481-0.367-1.039-0.454-1.658c-0.086-0.609-0.128-1.473-0.128-2.64v-3.869
	c0-1.006,0.234-1.711,0.715-2.154c0.477-0.439,1.169-0.585,2.071-0.431c0.881,0.15,1.566,0.519,2.034,1.096
	c0.472,0.581,0.711,1.362,0.711,2.321v3.847c0,1.082,0.175,1.582,0.322,1.811c0.197,0.306,0.54,0.477,1.048,0.523
	c0.488,0.045,0.852-0.082,1.091-0.391c0.26-0.335,0.391-0.891,0.391-1.653v-4.084c0-0.832,0.26-1.503,0.772-1.996
	c0.492-0.474,1.147-0.714,1.945-0.714h0.065c0.844,0.013,1.52,0.277,2.009,0.786c0.491,0.51,0.74,1.208,0.74,2.073v7.84
	c0,0.852-0.222,1.519-0.659,1.985C258.045,23.314,257.417,23.551,256.617,23.551z M254.652,19.865l0.022,1.047
	c0.013,0.648,0.181,1.146,0.5,1.48c0.318,0.333,0.789,0.507,1.4,0.515h0.044c0.616,0,1.086-0.168,1.398-0.5
	c0.321-0.342,0.484-0.861,0.484-1.544v-7.84c0-0.702-0.183-1.234-0.561-1.626c-0.37-0.385-0.879-0.578-1.555-0.588h-0.055
	c-0.635,0-1.125,0.175-1.498,0.534c-0.386,0.372-0.574,0.873-0.574,1.532v4.084c0,0.92-0.172,1.59-0.526,2.047
	c-0.334,0.431-0.81,0.65-1.416,0.65l-0.242-0.011c-0.709-0.064-1.224-0.339-1.531-0.816c-0.286-0.444-0.425-1.15-0.425-2.159v-3.847
	c0-0.819-0.185-1.445-0.567-1.915c-0.372-0.458-0.909-0.742-1.643-0.867c-0.698-0.119-1.199-0.032-1.527,0.27
	c-0.337,0.31-0.507,0.875-0.507,1.68v3.869c0,1.121,0.041,1.979,0.121,2.55c0.079,0.56,0.215,1.06,0.405,1.488
	c0.319,0.725,0.796,1.325,1.419,1.783c0.636,0.468,1.391,0.762,2.244,0.873c0.895,0.116,1.687,0.021,2.347-0.283
	c0.647-0.297,1.21-0.811,1.675-1.528L254.652,19.865z"/>
<path fill="#FFFFFF" d="M265.914,11.99c0.543-0.79,1.15-1.404,1.822-1.847s1.437-0.733,2.297-0.878
	c0.86-0.144,1.603-0.101,2.229,0.138c0.626,0.239,1.12,0.67,1.482,1.298c0.596-0.861,1.248-1.541,1.957-2.044
	c0.709-0.503,1.508-0.859,2.399-1.07c1.448-0.345,2.572-0.259,3.371,0.282c0.8,0.54,1.199,1.481,1.199,2.831
	c0,2.036,0,4.073,0,6.109c0,0.762-0.219,1.423-0.656,1.983c-0.438,0.56-1.022,0.933-1.754,1.118
	c-0.739,0.186-1.326,0.101-1.759-0.251c-0.434-0.352-0.65-0.922-0.651-1.706c0-1.414,0-2.828,0-4.243
	c0-0.784-0.132-1.315-0.396-1.593s-0.698-0.347-1.301-0.212c-0.573,0.128-0.998,0.402-1.273,0.827s-0.413,1.017-0.413,1.779
	c0,1.422,0,2.844,0,4.265c0,0.784-0.213,1.439-0.639,1.96s-1.016,0.856-1.771,0.998c-0.739,0.139-1.322,0.013-1.748-0.37
	c-0.426-0.384-0.639-0.97-0.639-1.754c0-1.358,0-2.715,0-4.073c0-0.845-0.134-1.428-0.402-1.751s-0.707-0.436-1.318-0.348
	c-0.543,0.079-0.956,0.319-1.239,0.725c-0.283,0.406-0.424,0.963-0.424,1.672c0,1.444,0,2.889,0,4.333
	c0,0.746-0.224,1.375-0.673,1.881c-0.449,0.505-1.035,0.797-1.759,0.866c-0.739,0.07-1.322-0.113-1.748-0.539
	c-0.426-0.426-0.639-1.034-0.639-1.818c0-2.61,0-5.219,0-7.829c0-0.777,0.188-1.376,0.566-1.802
	c0.377-0.426,0.928-0.667,1.652-0.734c0.679-0.063,1.208,0.055,1.59,0.362C265.656,10.862,265.869,11.339,265.914,11.99z"/>
<path d="M263.556,23.252c-0.683,0-1.247-0.218-1.677-0.648c-0.487-0.487-0.734-1.175-0.734-2.046v-7.829
	c0-0.853,0.218-1.531,0.646-2.016c0.427-0.484,1.054-0.767,1.863-0.842c0.769-0.072,1.378,0.074,1.821,0.432
	c0.283,0.229,0.489,0.534,0.616,0.912c0.449-0.546,0.94-0.996,1.465-1.343c0.702-0.463,1.516-0.775,2.42-0.927
	c0.919-0.155,1.724-0.103,2.397,0.155c0.551,0.21,1.013,0.557,1.378,1.035c0.541-0.712,1.131-1.297,1.76-1.743
	c0.737-0.523,1.582-0.9,2.51-1.121c1.547-0.368,2.759-0.258,3.626,0.328c0.89,0.601,1.341,1.643,1.341,3.098v6.109
	c0,0.832-0.244,1.566-0.724,2.181c-0.482,0.616-1.131,1.031-1.929,1.231c-0.837,0.211-1.528,0.103-2.041-0.313
	c-0.511-0.415-0.77-1.073-0.77-1.956v-4.243c0-0.866-0.167-1.224-0.307-1.371c-0.179-0.189-0.516-0.227-0.997-0.119
	c-0.494,0.11-0.844,0.335-1.073,0.688c-0.239,0.37-0.361,0.909-0.361,1.604v4.265c0,0.858-0.24,1.586-0.712,2.163
	c-0.475,0.582-1.135,0.955-1.96,1.111c-0.836,0.157-1.52,0.005-2.023-0.448c-0.495-0.446-0.746-1.116-0.746-1.993v-4.073
	c0-0.95-0.178-1.365-0.328-1.546c-0.19-0.23-0.531-0.306-1.024-0.234c-0.457,0.066-0.791,0.259-1.021,0.591
	c-0.244,0.35-0.367,0.85-0.367,1.489v4.333c0,0.826-0.254,1.531-0.754,2.094c-0.505,0.569-1.168,0.896-1.969,0.973
	C263.772,23.246,263.663,23.252,263.556,23.252z M264.025,10.497c-0.099,0-0.203,0.005-0.31,0.015
	c-0.65,0.06-1.121,0.265-1.441,0.627c-0.322,0.364-0.485,0.898-0.485,1.589v7.829c0,0.694,0.183,1.229,0.545,1.591
	c0.362,0.361,0.854,0.507,1.49,0.446c0.643-0.061,1.15-0.309,1.549-0.759c0.398-0.449,0.592-0.994,0.592-1.667v-4.333
	c0-0.772,0.162-1.397,0.482-1.856c0.333-0.479,0.823-0.768,1.457-0.86c0.729-0.105,1.271,0.05,1.612,0.46
	c0.32,0.386,0.476,1.026,0.476,1.956v4.073c0,0.687,0.179,1.197,0.533,1.515c0.353,0.318,0.838,0.412,1.473,0.293
	c0.672-0.127,1.204-0.425,1.581-0.886c0.376-0.46,0.567-1.05,0.567-1.756V14.51c0-0.821,0.156-1.478,0.465-1.954
	c0.32-0.494,0.816-0.819,1.473-0.966c0.725-0.162,1.261-0.058,1.604,0.304c0.326,0.343,0.485,0.937,0.485,1.815v4.243
	c0,0.68,0.179,1.17,0.531,1.456c0.355,0.288,0.843,0.349,1.478,0.189c0.656-0.165,1.187-0.503,1.579-1.004
	c0.396-0.506,0.588-1.09,0.588-1.785v-6.109c0-1.245-0.346-2.084-1.057-2.565c-0.711-0.48-1.759-0.558-3.117-0.235
	c-0.848,0.202-1.617,0.545-2.287,1.02c-0.676,0.479-1.308,1.141-1.879,1.965l-0.289,0.418l-0.254-0.44
	c-0.326-0.565-0.757-0.943-1.318-1.158c-0.565-0.216-1.258-0.256-2.061-0.121c-0.815,0.137-1.546,0.416-2.173,0.829
	c-0.635,0.419-1.219,1.011-1.734,1.761l-0.522,0.759l-0.064-0.919c-0.04-0.562-0.21-0.957-0.52-1.208
	C264.817,10.598,264.474,10.497,264.025,10.497z"/>
<path fill="#FFFFFF" d="M293.814,10.051c-0.762,0.222-1.339,0.209-1.731-0.039c-0.392-0.248-0.588-0.727-0.588-1.436
	s0.202-1.309,0.605-1.799c0.404-0.491,0.99-0.848,1.759-1.073c3.737-1.089,7.474-2.176,11.212-3.158
	c0.769-0.202,1.352-0.158,1.748,0.126c0.396,0.285,0.594,0.801,0.594,1.548c0,0.672-0.198,1.231-0.594,1.682
	s-0.971,0.773-1.725,0.971c-0.988,0.259-1.976,0.526-2.964,0.798c0,3.368,0,6.735,0,10.103c0,0.792-0.228,1.458-0.684,2
	s-1.114,0.933-1.974,1.177c-0.852,0.242-1.514,0.212-1.985-0.094c-0.472-0.305-0.707-0.857-0.707-1.657c0-3.338,0-6.675,0-10.013
	C295.789,9.475,294.801,9.763,293.814,10.051z"/>
<path d="M298.449,21.435c-0.442,0-0.825-0.103-1.139-0.306c-0.567-0.367-0.854-1.016-0.854-1.927V9.618
	c-0.851,0.247-1.701,0.495-2.552,0.742c-0.855,0.249-1.521,0.223-1.993-0.076c-0.49-0.31-0.738-0.884-0.738-1.708
	c0-0.782,0.228-1.456,0.678-2.004c0.443-0.539,1.089-0.935,1.918-1.177c3.645-1.062,7.413-2.16,11.22-3.16
	c0.864-0.227,1.541-0.166,2.017,0.176c0.483,0.347,0.728,0.956,0.728,1.809c0,0.748-0.227,1.385-0.674,1.895
	c-0.435,0.496-1.069,0.856-1.885,1.07c-0.908,0.238-1.816,0.483-2.724,0.732v9.858c0,0.865-0.256,1.608-0.76,2.207
	c-0.495,0.588-1.213,1.018-2.132,1.28C299.153,21.377,298.78,21.435,298.449,21.435z M297.099,8.761v10.441
	c0,0.689,0.183,1.143,0.56,1.387c0.386,0.25,0.969,0.268,1.722,0.054c0.794-0.225,1.405-0.587,1.816-1.075
	c0.41-0.486,0.609-1.073,0.609-1.792V7.427l0.236-0.065c0.989-0.273,1.979-0.54,2.968-0.8c0.69-0.181,1.216-0.474,1.565-0.872
	c0.346-0.394,0.514-0.875,0.514-1.47c0-0.634-0.155-1.067-0.46-1.286c-0.313-0.224-0.817-0.25-1.478-0.076
	c-3.799,0.997-7.563,2.094-11.204,3.155c-0.702,0.205-1.241,0.53-1.601,0.968c-0.358,0.436-0.532,0.958-0.532,1.595
	c0,0.588,0.148,0.98,0.439,1.164c0.306,0.194,0.809,0.194,1.469,0.002c0.988-0.288,1.977-0.576,2.965-0.862L297.099,8.761z"/>
<path fill="#FFFFFF" d="M305.421,12.954c0-2.036,0.62-3.805,1.861-5.29c1.241-1.482,2.939-2.485,5.097-2.947
	c2.149-0.46,3.845-0.178,5.085,0.788c1.241,0.968,1.861,2.489,1.861,4.524c0,2.053-0.618,3.751-1.855,5.132
	c-1.237,1.382-2.934,2.275-5.091,2.737c-2.157,0.463-3.856,0.29-5.097-0.577C306.041,16.455,305.421,15.007,305.421,12.954z
	 M310.365,11.737c0,1.139,0.156,1.921,0.469,2.348s0.828,0.56,1.544,0.407s1.235-0.509,1.556-1.075
	c0.32-0.566,0.481-1.413,0.481-2.545c0-1.124-0.16-1.901-0.481-2.331c-0.321-0.429-0.839-0.572-1.556-0.419
	c-0.717,0.153-1.231,0.514-1.544,1.075C310.522,9.759,310.365,10.606,310.365,11.737z"/>
<path d="M310.238,18.469c-1.243,0-2.3-0.298-3.14-0.885c-1.326-0.925-1.999-2.483-1.998-4.63c0-2.11,0.651-3.959,1.936-5.496
	c1.303-1.556,3.078-2.584,5.276-3.056c2.214-0.473,4.024-0.184,5.351,0.849c1.317,1.028,1.985,2.635,1.985,4.778
	c0,2.113-0.652,3.912-1.938,5.346c-1.274,1.424-2.996,2.352-5.264,2.837C311.651,18.383,310.908,18.469,310.238,18.469z
	 M314.268,4.824c-0.562,0-1.175,0.07-1.822,0.208c-2.055,0.44-3.709,1.396-4.917,2.839c-1.185,1.418-1.786,3.128-1.786,5.083
	c0,1.952,0.563,3.294,1.723,4.102c0.74,0.518,1.647,0.769,2.771,0.769c0.625,0,1.323-0.082,2.074-0.243
	c2.13-0.456,3.739-1.318,4.919-2.637c1.193-1.332,1.773-2.94,1.773-4.917c0-1.934-0.584-3.37-1.737-4.27
	C316.47,5.139,315.461,4.824,314.268,4.824z M311.849,14.876L311.849,14.876c-0.553,0-0.982-0.202-1.274-0.6
	c-0.358-0.489-0.532-1.319-0.532-2.538c0-1.198,0.167-2.08,0.51-2.696c0.36-0.646,0.952-1.061,1.758-1.233
	c0.843-0.181,1.481,0.006,1.881,0.541c0.366,0.491,0.544,1.317,0.545,2.524c0,1.199-0.171,2.083-0.523,2.703
	c-0.365,0.644-0.959,1.058-1.768,1.231C312.234,14.852,312.033,14.876,311.849,14.876z M312.898,8.385
	c-0.136,0-0.289,0.018-0.452,0.053c-0.626,0.134-1.061,0.434-1.331,0.917c-0.284,0.51-0.429,1.312-0.429,2.383
	c0,1.324,0.221,1.904,0.407,2.158c0.168,0.23,0.408,0.337,0.754,0.337c0.139,0,0.294-0.018,0.463-0.054
	c0.63-0.135,1.069-0.435,1.343-0.919c0.291-0.514,0.439-1.317,0.439-2.386c0-1.306-0.227-1.884-0.417-2.139
	C313.502,8.499,313.247,8.385,312.898,8.385z"/>
<path fill="#FFFFFF" d="M329.463,13.965c-0.143,0.552-0.385,0.961-0.724,1.232s-0.796,0.414-1.369,0.437
	c-0.471,0.019-0.943,0.043-1.414,0.071c-0.558,0.034-1.007-0.07-1.346-0.319c-0.339-0.248-0.615-0.686-0.826-1.316
	c-0.856-2.532-1.712-5.05-2.568-7.554c-0.06-0.181-0.104-0.347-0.13-0.499c-0.026-0.151-0.039-0.299-0.04-0.442
	c0-0.671,0.207-1.228,0.622-1.665s0.98-0.695,1.697-0.764c0.581-0.056,1.045,0.072,1.392,0.377s0.607,0.815,0.781,1.528
	c0.464,1.862,0.928,3.729,1.392,5.601c0.543-2.163,1.086-4.321,1.629-6.471c0.106-0.425,0.319-0.755,0.639-0.99
	c0.321-0.234,0.726-0.351,1.216-0.348c0.332,0.002,0.664,0.008,0.996,0.016c0.475,0.011,0.873,0.141,1.193,0.386
	c0.32,0.244,0.53,0.582,0.628,1.01c0.543,2.168,1.086,4.344,1.629,6.528c0.441-1.841,0.882-3.677,1.324-5.507
	c0.158-0.684,0.415-1.178,0.769-1.478c0.354-0.299,0.815-0.411,1.38-0.326c0.694,0.104,1.239,0.386,1.635,0.832
	s0.594,1.001,0.594,1.657c0,0.166-0.013,0.331-0.04,0.496c-0.026,0.165-0.062,0.326-0.107,0.483
	c-0.811,2.446-1.622,4.913-2.432,7.399c-0.196,0.606-0.468,1.026-0.815,1.264c-0.347,0.239-0.799,0.326-1.358,0.269
	c-0.464-0.047-0.928-0.088-1.391-0.124c-0.581-0.044-1.043-0.203-1.386-0.484c-0.343-0.282-0.586-0.699-0.73-1.255
	c-0.468-1.919-0.935-3.832-1.403-5.74C330.421,10.162,329.942,12.061,329.463,13.965z"/>
<path d="M336.126,16.211c-0.112,0-0.229-0.006-0.349-0.019c-0.461-0.047-0.922-0.088-1.383-0.123
	c-0.649-0.049-1.176-0.237-1.566-0.557c-0.396-0.325-0.677-0.804-0.837-1.423c-0.366-1.501-0.731-2.996-1.096-4.488
	c-0.373,1.478-0.746,2.958-1.12,4.443c-0.161,0.619-0.442,1.091-0.836,1.405c-0.389,0.31-0.913,0.481-1.557,0.506
	c-0.469,0.019-0.938,0.042-1.408,0.071c-0.639,0.039-1.158-0.089-1.556-0.38c-0.399-0.292-0.707-0.774-0.941-1.473
	c-0.856-2.531-1.712-5.048-2.568-7.552c-0.066-0.198-0.114-0.381-0.143-0.547c-0.029-0.169-0.044-0.336-0.044-0.497
	c0-0.755,0.239-1.389,0.711-1.887c0.472-0.497,1.111-0.787,1.9-0.863c0.672-0.064,1.219,0.09,1.635,0.456
	c0.401,0.353,0.689,0.907,0.881,1.693c0.36,1.446,0.72,2.895,1.081,4.348c0.438-1.745,0.877-3.485,1.315-5.22
	c0.124-0.498,0.38-0.892,0.761-1.171c0.373-0.272,0.838-0.41,1.384-0.41c0.358,0.003,0.692,0.008,1.025,0.016
	c0.54,0.013,1.004,0.165,1.381,0.451c0.38,0.29,0.631,0.692,0.747,1.194c0.436,1.74,0.873,3.489,1.31,5.244
	c0.339-1.412,0.678-2.821,1.017-4.226c0.173-0.749,0.468-1.305,0.874-1.648c0.427-0.361,0.982-0.497,1.636-0.398
	c0.762,0.115,1.377,0.43,1.828,0.937c0.448,0.505,0.675,1.134,0.675,1.87c0,0.182-0.015,0.366-0.044,0.547
	c-0.028,0.177-0.067,0.352-0.116,0.521c-0.815,2.458-1.625,4.924-2.436,7.41c-0.217,0.67-0.533,1.151-0.938,1.43
	C337.02,16.095,336.608,16.211,336.126,16.211z M330.904,6.937l0.308,1.255c0.468,1.908,0.935,3.822,1.403,5.741
	c0.124,0.48,0.333,0.846,0.621,1.082c0.289,0.238,0.684,0.373,1.206,0.412c0.466,0.036,0.933,0.077,1.4,0.124
	c0.48,0.049,0.861-0.02,1.143-0.214c0.286-0.197,0.518-0.566,0.691-1.098c0.811-2.487,1.622-4.954,2.433-7.401
	c0.038-0.132,0.071-0.281,0.095-0.432c0.024-0.147,0.036-0.297,0.036-0.445c0-0.574-0.173-1.059-0.513-1.443
	c-0.348-0.391-0.833-0.636-1.442-0.728c-0.47-0.07-0.839,0.012-1.125,0.254c-0.298,0.252-0.521,0.691-0.663,1.304
	c-0.442,1.833-0.883,3.668-1.324,5.509l-0.307,1.282l-0.318-1.279c-0.543-2.184-1.086-4.359-1.629-6.527
	c-0.084-0.363-0.25-0.633-0.511-0.832c-0.266-0.203-0.605-0.31-1.006-0.32c-0.33-0.008-0.66-0.013-0.991-0.016
	c-0.426,0-0.764,0.096-1.024,0.286s-0.429,0.454-0.516,0.807c-0.543,2.151-1.086,4.308-1.629,6.472l-0.314,1.251l-0.311-1.252
	c-0.464-1.872-0.928-3.738-1.392-5.6c-0.157-0.646-0.386-1.105-0.681-1.364c-0.282-0.248-0.663-0.345-1.148-0.298
	c-0.63,0.061-1.133,0.285-1.494,0.666c-0.359,0.379-0.534,0.851-0.534,1.444c0,0.124,0.012,0.254,0.035,0.387
	c0.024,0.135,0.063,0.287,0.118,0.452c0.855,2.502,1.712,5.02,2.568,7.552c0.188,0.562,0.427,0.952,0.711,1.159
	c0.277,0.203,0.655,0.287,1.137,0.257c0.474-0.029,0.947-0.053,1.421-0.071c0.504-0.02,0.901-0.144,1.181-0.367
	c0.282-0.225,0.489-0.582,0.613-1.061c0.478-1.902,0.957-3.801,1.436-5.695L330.904,6.937z"/>
<path fill="#FFFFFF" d="M347.813,16.086c0,0.747-0.225,1.265-0.673,1.564c-0.449,0.3-1.043,0.329-1.782,0.108
	c-0.754-0.226-1.348-0.612-1.782-1.177c-0.433-0.565-0.651-1.239-0.651-2.031c0-2.61,0-5.219,0-7.829
	c0-0.776,0.189-1.32,0.566-1.622s0.928-0.356,1.652-0.143c0.717,0.212,1.267,0.583,1.652,1.096s0.585,1.142,0.6,1.879
	c0.498-0.626,1.099-0.999,1.805-1.104c0.705-0.105,1.548,0.052,2.529,0.497c0.913,0.415,1.708,0.999,2.387,1.731
	c0.679,0.732,1.188,1.554,1.527,2.445c0.203,0.536,0.347,1.112,0.43,1.725c0.083,0.613,0.124,1.489,0.125,2.628
	c0,1.29,0,2.579,0,3.869c0,0.898-0.204,1.458-0.611,1.691c-0.407,0.233-1.007,0.135-1.799-0.268c-0.8-0.406-1.412-0.927-1.839-1.592
	c-0.426-0.663-0.639-1.431-0.639-2.314c0-1.282,0-2.564,0-3.847c0-0.935-0.125-1.634-0.373-2.093
	c-0.249-0.459-0.679-0.82-1.29-1.066c-0.619-0.248-1.078-0.217-1.38,0.079c-0.302,0.296-0.453,0.865-0.453,1.703
	C347.813,13.371,347.813,14.729,347.813,16.086z"/>
<path d="M355.076,21.857c-0.4,0-0.87-0.14-1.435-0.428c-0.868-0.441-1.51-0.998-1.964-1.705c-0.458-0.713-0.69-1.55-0.69-2.488
	V13.39c0-0.878-0.113-1.53-0.334-1.94c-0.215-0.396-0.594-0.706-1.127-0.92c-0.481-0.193-0.824-0.196-1.035,0.011
	c-0.162,0.159-0.356,0.544-0.356,1.473v4.073c0,0.854-0.275,1.471-0.817,1.831c-0.523,0.349-1.211,0.401-2.053,0.148
	c-0.823-0.247-1.478-0.681-1.945-1.29c-0.476-0.621-0.717-1.37-0.717-2.227V6.72c0-0.877,0.23-1.507,0.686-1.873
	c0.465-0.373,1.123-0.443,1.944-0.201c0.775,0.229,1.386,0.636,1.818,1.211c0.293,0.391,0.49,0.842,0.589,1.349
	c0.445-0.382,0.95-0.617,1.51-0.7c0.779-0.116,1.692,0.06,2.709,0.523c0.935,0.426,1.773,1.033,2.49,1.805
	c0.699,0.754,1.234,1.612,1.592,2.549c0.211,0.558,0.362,1.163,0.448,1.796c0.084,0.624,0.127,1.523,0.127,2.671v3.869
	c0,1.029-0.253,1.673-0.773,1.97C355.552,21.801,355.327,21.857,355.076,21.857z M348.909,9.743c0.255,0,0.544,0.064,0.857,0.19
	c0.676,0.272,1.164,0.679,1.453,1.211c0.278,0.512,0.412,1.246,0.412,2.246v3.847c0,0.824,0.192,1.524,0.588,2.14
	c0.389,0.608,0.95,1.091,1.713,1.479c0.688,0.35,1.196,0.447,1.493,0.276c0.371-0.212,0.449-0.885,0.449-1.412v-3.869
	c0-1.119-0.041-1.989-0.122-2.585c-0.079-0.585-0.218-1.142-0.412-1.654c-0.328-0.86-0.82-1.647-1.462-2.34
	c-0.658-0.709-1.427-1.267-2.284-1.657c-0.901-0.409-1.696-0.569-2.348-0.472c-0.623,0.093-1.146,0.416-1.6,0.986l-0.556,0.699
	l-0.018-0.892c-0.014-0.667-0.194-1.236-0.535-1.692c-0.347-0.462-0.847-0.792-1.486-0.98c-0.606-0.178-1.063-0.152-1.359,0.085
	c-0.295,0.238-0.445,0.699-0.445,1.371v7.829c-0.001,0.722,0.191,1.323,0.584,1.835c0.389,0.507,0.918,0.855,1.619,1.065
	c0.65,0.196,1.149,0.175,1.511-0.067c0.356-0.238,0.53-0.661,0.53-1.296v-4.073c0-0.938,0.179-1.57,0.549-1.932
	C348.27,9.857,348.562,9.743,348.909,9.743z"/>
<path fill="#E0E0E0" d="M185.874,72.718H68.677c-2.282,0-4.132-1.653-4.132-3.692c0,0-3.93-3.387-4.082-11.111
	c-0.152-7.723,4.082-19,4.082-19c0-2.04,1.85-3.693,4.132-3.693h93.855c2.282,0,22.951,10.298,31.233,18.748
	C202.047,62.42,188.156,72.718,185.874,72.718"/>
<path fill="#6B6B6B" d="M72.701,54.509V42.62c0-1.151,0.802-2.083,1.791-2.083h28.175c0.989,0,1.791,0.933,1.791,2.083v11.889
	H72.701"/>
<path fill="#BABABA" d="M104.457,54.509v2.287c0,1.151-0.802,2.083-1.791,2.083H74.492c-0.989,0-1.791-0.933-1.791-2.083v-2.287
	H104.457"/>
<path d="M102.667,59.041H74.492c-1.076,0-1.952-1.007-1.952-2.244V42.62c0-1.238,0.875-2.244,1.952-2.244h28.175
	c1.076,0,1.952,1.007,1.952,2.244v14.176C104.619,58.034,103.743,59.041,102.667,59.041 M74.492,40.697
	c-0.899,0-1.63,0.862-1.63,1.922v14.176c0,1.06,0.731,1.922,1.63,1.922h28.175c0.899,0,1.63-0.862,1.63-1.922V42.62
	c0-1.06-0.731-1.922-1.63-1.922L74.492,40.697"/>
<path fill="#787878" d="M123.61,52.444c0,0.843-0.314,1.526-0.701,1.526H111.88c-0.387,0-0.701-0.683-0.701-1.526V42.062
	c0-0.843,0.314-1.526,0.701-1.526h11.029c0.387,0,0.701,0.683,0.701,1.526L123.61,52.444"/>
<path d="M122.909,54.13H111.88c-0.492,0-0.862-0.725-0.862-1.687V42.062c0-0.962,0.371-1.687,0.862-1.687h11.029
	c0.492,0,0.862,0.725,0.862,1.687v10.381C123.771,53.405,123.4,54.13,122.909,54.13 M111.88,40.697c-0.255,0-0.54,0.584-0.54,1.365
	v10.381c0,0.781,0.285,1.365,0.54,1.365h11.029c0.255,0,0.541-0.584,0.541-1.365V42.062c0-0.781-0.285-1.365-0.541-1.365H111.88"/>
<path fill="#787878" d="M140.704,56.796c0,1.151-0.272,2.083-0.608,2.083h-9.564c-0.336,0-0.608-0.933-0.608-2.083V42.62
	c0-1.151,0.272-2.083,0.608-2.083h9.564c0.336,0,0.608,0.933,0.608,2.083V56.796"/>
<path d="M140.096,59.041h-9.564c-0.529,0-0.769-1.163-0.769-2.244V42.62c0-1.081,0.24-2.244,0.769-2.244h9.564
	c0.529,0,0.769,1.163,0.769,2.244v14.176C140.865,57.877,140.624,59.041,140.096,59.041 M130.532,40.697
	c-0.134,0-0.447,0.654-0.447,1.922v14.176c0,1.269,0.313,1.922,0.447,1.922h9.564c0.134,0,0.447-0.654,0.447-1.922V42.62
	c0-1.268-0.313-1.922-0.447-1.922L130.532,40.697"/>
<path fill="#5F605F" d="M137.455,45.6l-7.371,2.887v8.309c0,1.269,0.313,1.922,0.447,1.922h0.084L137.455,45.6"/>
<path d="M130.085,48.487l-0.161,0.063v8.246c0,1.151,0.272,2.083,0.608,2.083l0.084-0.161h-0.084c-0.134,0-0.447-0.654-0.447-1.922
	V48.487"/>
<path fill="#787878" d="M155.716,56.796c0,1.151-0.272,2.083-0.608,2.083h-9.564c-0.336,0-0.608-0.933-0.608-2.083V42.62
	c0-1.151,0.272-2.083,0.608-2.083h9.564c0.336,0,0.608,0.933,0.608,2.083V56.796"/>
<path d="M155.108,59.041h-9.564c-0.528,0-0.768-1.163-0.768-2.244V42.62c0-1.081,0.24-2.244,0.768-2.244h9.564
	c0.528,0,0.769,1.163,0.769,2.244v14.176C155.877,57.877,155.637,59.041,155.108,59.041 M145.544,40.697
	c-0.133,0-0.447,0.654-0.447,1.922v14.176c0,1.269,0.313,1.922,0.447,1.922h9.564c0.134,0,0.447-0.654,0.447-1.922V42.62
	c0-1.268-0.313-1.922-0.447-1.922L145.544,40.697"/>
<path fill="#5F605F" d="M155.024,40.697h-5.051l-4.876,1.91v0.013v14.176c0,1.269,0.313,1.922,0.447,1.922h0.084L155.024,40.697"/>
<path d="M145.097,42.607l-0.161,0.063v14.126c0,1.151,0.272,2.083,0.608,2.083l0.084-0.161h-0.084c-0.133,0-0.447-0.654-0.447-1.922
	V42.62V42.607 M155.108,40.536h-4.725l-0.411,0.161h5.051L155.108,40.536"/>
<path fill="#787878" d="M195.244,55.879c-0.384-0.643-0.864-1.282-1.479-1.909c-4.49-4.581-12.616-9.701-19.483-13.433h-9.764
	c-1.05,0-1.902,0.788-1.902,1.762V54.29c0,0.973,0.852,1.762,1.902,1.762h29.917C194.725,56.052,194.998,55.987,195.244,55.879z"/>
<path d="M195.325,56.018c-0.053-0.093-0.104-0.185-0.161-0.278c-0.222,0.095-0.468,0.152-0.728,0.152h-29.917
	c-0.96,0-1.741-0.718-1.741-1.601V42.299c0-0.884,0.781-1.602,1.741-1.602h10.059c-0.199-0.109-0.396-0.214-0.593-0.321h-9.466
	c-1.137,0-2.063,0.862-2.063,1.923v11.992c0,1.06,0.926,1.923,2.063,1.923h29.917C194.755,56.214,195.054,56.14,195.325,56.018z"/>
<path fill="#8FC663" d="M60.767,61.132c0.951,5.454,3.778,7.893,3.778,7.893c0,2.039,1.85,3.692,4.132,3.692h3.599
	c-0.105-0.434-0.167-0.885-0.167-1.351c0-3.163,2.564-5.727,5.727-5.727s5.727,2.564,5.727,5.727c0,0.466-0.062,0.917-0.167,1.351
	h82.256c-0.105-0.434-0.167-0.885-0.167-1.351c0-3.163,2.564-5.727,5.727-5.727s5.727,2.564,5.727,5.727
	c0,0.466-0.062,0.917-0.167,1.351h9.104c1.652,0,9.388-5.398,10.39-11.585L60.767,61.132"/>
<polyline points="174.251,56.053 173.929,56.053 173.929,40.536 174.251,40.536 174.251,56.053 "/>
<polyline points="174.09,50.336 162.617,50.336 162.617,50.014 174.09,50.014 174.09,50.336 "/>
<polyline points="168.514,56.053 168.192,56.053 168.192,50.175 168.514,50.175 168.514,56.053 "/>
<path fill="#5F605F" d="M168.17,50.336h-5.393v3.955c0,0.392,0.154,0.751,0.409,1.029L168.17,50.336"/>
<path d="M162.777,50.336h-0.161v4.298l0.476,0.78l0.094-0.094c-0.255-0.279-0.409-0.638-0.409-1.029V50.336"/>
<polyline points="168.331,50.175 162.617,50.175 162.617,50.336 162.777,50.336 168.17,50.336 168.192,50.314 168.192,50.175 
	168.331,50.175 "/>
<polyline points="168.331,50.175 168.192,50.175 168.192,50.314 168.331,50.175 "/>
<polyline fill="#5F605F" points="173.911,50.336 168.514,50.336 168.514,55.887 173.911,50.336 "/>
<polyline points="174.068,50.175 168.353,50.175 168.514,50.175 168.514,50.336 173.911,50.336 174.068,50.175 "/>
<polyline points="168.514,50.175 168.353,50.175 168.353,54.634 168.353,56.053 168.514,55.887 168.514,50.336 168.514,50.175 "/>
<path fill="#5F605F" d="M173.923,40.697h-9.404c-0.96,0-1.741,0.718-1.741,1.602v7.715h0.031L173.923,40.697"/>
<path d="M174.115,40.536h-9.597l-1.07,0.305l-0.532,0.507l-0.299,0.95v7.715h0.161v-7.715c0-0.883,0.781-1.602,1.741-1.602h9.404
	l0.006-0.005v-0.156L174.115,40.536"/>
<polyline points="174.115,40.536 173.929,40.536 173.929,40.692 174.115,40.536 "/>
<polyline points="162.808,50.014 162.777,50.014 162.617,50.014 162.617,50.175 162.808,50.014 "/>
<g>
	<g>
		<path fill="#78965E" d="M61.526,64.045h133.776c0.459-0.938,0.797-1.914,0.958-2.913H60.775
			C60.965,62.219,61.224,63.193,61.526,64.045z"/>
	</g>
</g>
<path fill="#C1C1C0" d="M143.951,33.68c0-0.074-0.144-0.135-0.322-0.135h-10.298c-0.178,0-0.322,0.06-0.322,0.135v1.406
	c0,0.074,0.144,0.135,0.322,0.135h10.298c0.178,0,0.322-0.06,0.322-0.135V33.68z"/>
<path fill="#C1C1C0" d="M120.942,33.68c0-0.074-0.099-0.135-0.221-0.135h-7.064c-0.122,0-0.221,0.06-0.221,0.135v1.406
	c0,0.074,0.099,0.135,0.221,0.135h7.064c0.122,0,0.221-0.06,0.221-0.135V33.68z"/>
<path fill="#151515" d="M82.978,71.43c0,2.84-2.302,5.142-5.142,5.142s-5.142-2.302-5.142-5.142s2.302-5.142,5.142-5.142
	C80.675,66.288,82.978,68.59,82.978,71.43"/>
<path fill="#787878" d="M81.3,71.43c0,1.914-1.551,3.465-3.465,3.465s-3.465-1.551-3.465-3.465s1.551-3.465,3.465-3.465
	S81.3,69.516,81.3,71.43"/>
<path fill="#BABABA" d="M80.957,71.43c0,1.724-1.398,3.122-3.122,3.122s-3.122-1.398-3.122-3.122s1.398-3.122,3.122-3.122
	S80.957,69.706,80.957,71.43"/>
<circle fill="#151515" cx="171.21" cy="71.43" r="5.142"/>
<circle fill="#787878" cx="171.21" cy="71.43" r="3.465"/>
<circle fill="#BABABA" cx="171.21" cy="71.43" r="3.024"/>
<path fill="none" d="M72.701,54.509V42.62c0-1.151,0.802-2.083,1.791-2.083h28.175c0.989,0,1.791,0.933,1.791,2.083v11.889H72.701"
	/>
<polyline fill="#E0E0E0" points="101.242,54.853 76.443,54.853 76.443,42.992 101.242,42.992 101.242,54.853 "/>
<path fill="#EEEDED" d="M60.459,57.508c0,0.14,0.001,0.279,0.004,0.416c0.036,1.84,0.287,3.434,0.648,4.795h0.003
	c-0.362-1.363-0.614-2.961-0.651-4.805C60.46,57.78,60.459,57.645,60.459,57.508"/>
<path fill="#453832" d="M61.114,62.719h-0.003c0.216,0.816,0.472,1.548,0.746,2.199h0.004
	C61.587,64.267,61.331,63.536,61.114,62.719"/>
<path fill="#332926" d="M61.861,64.918h-0.004c1.183,2.819,2.688,4.117,2.688,4.117c0,1.909,1.622,3.48,3.701,3.672l0.02-0.008
	c-2.089-0.184-3.721-1.759-3.721-3.674l-0.001-0.001C64.511,68.995,63.03,67.698,61.861,64.918"/>
<path fill="#D4D5D5" d="M77.835,65.64c-3.105,0-5.633,2.471-5.724,5.554l0.603-0.236c0.239-2.618,2.44-4.67,5.121-4.67
	c1.321,0,2.526,0.499,3.437,1.318l0.647-0.253C80.88,66.295,79.434,65.64,77.835,65.64 M74.492,59.041
	c-1.076,0-1.952-1.007-1.952-2.244V42.62c0-1.238,0.875-2.244,1.952-2.244h28.175c1.076,0,1.952,1.007,1.952,2.244v14.176
	c0,1.238-0.876,2.244-1.952,2.244H74.492 M162.532,35.232h-62.167c-0.086,0.008-0.182,0.013-0.283,0.013H78.797
	c-0.101,0-0.197-0.005-0.283-0.013h-9.837c-2.282,0-4.132,1.653-4.132,3.693c0,0-4.085,10.879-4.086,18.584
	c0,0.136,0.001,0.272,0.004,0.406c0.036,1.845,0.288,3.442,0.651,4.805c0.217,0.816,0.473,1.548,0.747,2.199
	c1.169,2.78,2.65,4.077,2.684,4.106c-0.037-0.033-1.822-1.597-3.02-4.979h-0.001c-0.302-0.854-0.567-1.823-0.757-2.913H97.8
	l17.877-7.002h-3.796c-0.492,0-0.862-0.725-0.862-1.687V42.062c0-0.962,0.371-1.687,0.862-1.687h11.029
	c0.492,0,0.862,0.725,0.862,1.687v8.898l5.992-2.347V42.62c0-1.081,0.24-2.244,0.769-2.244h9.564c0.529,0,0.769,1.163,0.769,2.244
	v1.645l3.911-1.532V42.62c0-1.081,0.24-2.244,0.768-2.244h5.251l12.634-4.948C163.021,35.299,162.716,35.232,162.532,35.232"/>
<path fill="#676868" d="M102.667,40.697H74.492c-0.899,0-1.63,0.862-1.63,1.922v11.889h4.495h-0.914V42.992h24.798v11.517h-0.917
	h3.972V42.62C104.297,41.56,103.565,40.697,102.667,40.697"/>
<path fill="#B2B2B2" d="M104.297,54.509h-3.972v0.005H77.357v-0.005h-4.495v2.287c0,1.06,0.731,1.922,1.63,1.922h28.175
	c0.899,0,1.63-0.862,1.63-1.922L104.297,54.509"/>
<path d="M72.862,54.509V42.62c0-1.06,0.731-1.922,1.63-1.922h28.175c0.899,0,1.63,0.862,1.63,1.922v11.889v2.287
	c0,1.06-0.731,1.922-1.63,1.922H74.492c-0.899,0-1.63-0.862-1.63-1.922V54.509 M102.667,40.376H74.492
	c-1.076,0-1.952,1.007-1.952,2.244v14.176c0,1.238,0.875,2.244,1.952,2.244h28.175c1.076,0,1.952-1.007,1.952-2.244V42.62
	C104.619,41.382,103.743,40.376,102.667,40.376"/>
<path fill="#737374" d="M123.023,40.735L111.8,53.79l0.08,0.019h4.618l6.951-2.723v-9.024
	C123.449,41.397,123.242,40.875,123.023,40.735"/>
<path d="M122.909,40.376H111.88c-0.492,0-0.862,0.725-0.862,1.687v10.381c0,0.962,0.371,1.687,0.862,1.687h3.796l0.822-0.322h-4.618
	l-0.08-0.019l-0.154,0.179l-0.46-1.331l0.123-11.055l0.338-1.047h11.548l-0.17,0.198c0.219,0.14,0.426,0.662,0.426,1.328v9.024
	l0.322-0.126v-8.898C123.771,41.101,123.4,40.376,122.909,40.376"/>
<path fill="#737374" d="M140.096,40.697h-0.084l-2.556,4.903l3.087-1.209V42.62C140.543,41.352,140.229,40.697,140.096,40.697"/>
<path d="M140.096,40.376h-9.564c-0.529,0-0.769,1.163-0.769,2.244v5.993l0.161-0.063v-5.93c0-1.151,0.272-2.083,0.608-2.083h9.564
	l-0.084,0.161h0.084c0.134,0,0.447,0.654,0.447,1.922v1.771l0.322-0.126V42.62C140.865,41.539,140.624,40.376,140.096,40.376"/>
<path fill="#5C5D5D" d="M140.012,40.697h-9.48c-0.134,0-0.447,0.654-0.447,1.922v5.867l7.371-2.887L140.012,40.697"/>
<path d="M140.096,40.536h-9.564c-0.336,0-0.608,0.933-0.608,2.083v5.93l0.161-0.063V42.62c0-1.268,0.313-1.922,0.447-1.922h9.48
	L140.096,40.536"/>
<path d="M150.795,40.376h-5.251c-0.528,0-0.768,1.163-0.768,2.244v0.113l0.161-0.063v-0.05c0-1.151,0.272-2.083,0.608-2.083h4.839
	L150.795,40.376"/>
<path fill="#5C5D5D" d="M149.973,40.697h-4.429c-0.133,0-0.444,0.65-0.447,1.91L149.973,40.697"/>
<path d="M150.384,40.536h-4.839c-0.336,0-0.608,0.933-0.608,2.083v0.05l0.161-0.063c0.002-1.26,0.314-1.91,0.447-1.91h4.429
	L150.384,40.536"/>
<path fill="#89BE61" d="M90.362,64.045H61.524c1.198,3.382,2.983,4.947,3.02,4.979l0.001,0.001c0,1.915,1.632,3.49,3.721,3.674
	l3.845-1.506c0.091-3.083,2.619-5.554,5.724-5.554c1.599,0,3.045,0.655,4.084,1.713L90.362,64.045"/>
<path fill="#5C5D5D" d="M122.909,40.697H111.88c-0.255,0-0.54,0.584-0.54,1.365v10.381c0,0.7,0.229,1.241,0.46,1.346l11.223-13.055
	L122.909,40.697"/>
<path d="M123.194,40.536h-11.548l-0.338,1.047l-0.123,11.055l0.46,1.331l0.154-0.179c-0.231-0.105-0.46-0.646-0.46-1.346V42.062
	c0-0.781,0.285-1.365,0.54-1.365h11.029l0.115,0.037L123.194,40.536"/>
<path fill="#74915C" d="M97.799,61.132H60.766c0.19,1.09,0.455,2.059,0.757,2.913h0.001h28.838L97.799,61.132"/>
<path fill="#141414" d="M77.835,66.288c-2.68,0-4.882,2.051-5.121,4.67l1.871-0.733c0.49-1.319,1.76-2.26,3.25-2.26
	c0.564,0,1.096,0.135,1.566,0.373l1.871-0.733C80.361,66.786,79.157,66.288,77.835,66.288"/>
<path fill="#737374" d="M77.835,67.965c-1.49,0-2.76,0.94-3.25,2.26l0.45-0.176c0.51-1.031,1.572-1.74,2.8-1.74
	c0.394,0,0.77,0.073,1.117,0.206l0.449-0.176C78.931,68.099,78.399,67.965,77.835,67.965"/>
<path fill="#B2B2B2" d="M77.835,68.308c-1.228,0-2.29,0.709-2.8,1.74l3.917-1.534C78.605,68.381,78.229,68.308,77.835,68.308"/>
<path fill="#D4D5D5" d="M77.357,48.591v-5.049h22.968v5.049H77.357 M101.242,42.992H76.443v11.517h0.914v-5.405h5.085v-0.459h1.953
	v0.459h15.93v0.009v5.395h0.917L101.242,42.992"/>
<path fill="none" d="M82.442,48.645v0.459h-5.085v5.409h22.968v-5.4v-0.009h-15.93v-0.459H82.442 M77.357,43.542v5.049h22.968
	v-5.049H77.357 M78.797,33.562c-0.369,0-0.666,0.063-0.666,0.135v1.413c0,0.072,0.297,0.135,0.666,0.135h21.285
	c0.369,0,0.666-0.063,0.666-0.135v-1.413c0-0.072-0.297-0.135-0.666-0.135H78.797"/>
<rect x="77.027" y="33.253" fill="none" width="24" height="21.6"/>
</svg>
