<?xml version="1.0" encoding="utf-8"?>
<!-- Generator: Adobe Illustrator 17.0.0, SVG Export Plug-In . SVG Version: 6.00 Build 0)  -->
<!DOCTYPE svg PUBLIC "-//W3C//DTD SVG 1.1//EN" "http://www.w3.org/Graphics/SVG/1.1/DTD/svg11.dtd">
<svg version="1.1" id="Layer_1" xmlns="http://www.w3.org/2000/svg" xmlns:xlink="http://www.w3.org/1999/xlink" x="0px" y="0px"
	 width="199.73px" height="227.207px" viewBox="0 0 199.73 227.207" enable-background="new 0 0 199.73 227.207"
	 xml:space="preserve">
<rect x="26.414" y="39.495" fill="#C9C9C9" width="119.891" height="187.712"/>
<polyline fill="#B5B5B6" points="26.414,227.207 26.414,39.495 146.305,39.495 "/>
<rect x="100.6" y="149.754" fill="#4A494A" width="24.016" height="75.809"/>
<path fill="#4A494A" d="M126.255,227.201H98.961v-79.087h27.294V227.201z M102.239,223.924h20.739v-72.531h-20.739V223.924z"/>
<rect x="100.461" y="167.446" fill="#39B5DF" width="24.294" height="59.761"/>
<rect x="104.114" y="173.346" fill="#A9A8A8" width="16.988" height="18.878"/>
<rect x="109.602" y="201.748" fill="#848484" width="6.013" height="1.837"/>
<polyline fill="#848484" points="121.102,173.346 104.114,173.346 104.114,192.224 "/>
<polygon fill="#A09F9F" points="26.391,40.135 26.391,227.207 5,209.354 5,21.598 "/>
<polyline fill="#787878" points="26.414,39.495 146.305,39.495 125.178,21.598 5,21.642 "/>
<rect x="56.812" y="69.973" fill="#A9A8A8" width="19.262" height="53.966"/>
<path fill="#E5E5E5" d="M76.621,124.486H56.266V69.427h20.355V124.486z M57.358,123.393h18.17V70.519h-18.17V123.393z"/>
<rect x="45.032" y="159.575" fill="#A9A8A8" width="31.919" height="45.847"/>
<rect x="45.032" y="159.575" fill="#A9A8A8" width="31.919" height="49.428"/>
<path fill="#F4F4F4" d="M77.607,209.658h-33.23v-50.739h33.23V209.658z M45.688,208.347h30.608V160.23H45.688V208.347z"/>
<polyline fill="#848484" points="45.726,208.162 45.726,160.334 76.074,160.334 "/>
<polyline fill="#848484" points="57.381,123.393 57.381,70.514 75.508,70.514 "/>
<rect x="90.819" y="69.973" fill="#A9A8A8" width="19.263" height="53.966"/>
<path fill="#E5E5E5" d="M110.628,124.486H90.273V69.427h20.355C110.628,69.427,110.628,124.486,110.628,124.486z M91.365,123.393
	h18.17V70.519h-18.17V123.393z"/>
<polyline fill="#848484" points="91.387,123.393 91.387,70.514 109.514,70.514 "/>
<rect x="135.953" y="149.754" fill="#E5E5E5" width="1.53" height="77.454"/>
<polygon fill="#726152" points="28.205,149.672 86.36,134.167 144.515,149.672 "/>
<rect x="36.327" y="150.562" fill="#E5E5E5" width="1.53" height="76.646"/>
<polygon fill="#848484" points="95.592,207.435 26.391,207.435 26.391,206.154 94.034,206.154 "/>
<rect x="129.231" y="206.154" fill="#9B9A9A" width="1.688" height="21.053"/>
<polygon fill="#848484" points="130.79,207.435 146.305,207.435 146.305,206.154 129.231,206.154 "/>
<rect x="26.391" y="207.435" fill="#A9A8A8" width="69.201" height="19.772"/>
<rect x="130.919" y="207.435" fill="#A9A8A8" width="15.386" height="19.772"/>
<circle fill="#3F403F" cx="121.102" cy="198.127" r="1.658"/>
<polygon fill="#847164" points="194.73,227.207 146.305,187.4 146.305,136.483 194.73,176.29 "/>
<polygon fill="#6D5F55" points="148.941,138.65 146.305,136.483 146.305,187.4 148.941,187.4 "/>
<polygon fill="#6D5F55" points="153.31,142.241 153.31,192.904 155.946,192.904 155.946,144.408 "/>
<polygon fill="#6D5F55" points="165.756,152.472 165.756,201.748 168.392,201.748 168.392,154.639 "/>
<polygon fill="#6D5F55" points="163.404,150.539 163.404,197.327 164.722,197.327 164.722,151.622 "/>
<polygon fill="#6D5F55" points="172.935,158.374 172.935,209.069 175.571,209.069 175.571,160.541 "/>
<polygon fill="#6D5F55" points="180.124,164.283 180.124,214.996 182.76,214.996 182.76,166.45 "/>
<polygon fill="#6D5F55" points="187.367,170.237 187.102,170.237 187.102,220.937 187.367,221.154 189.738,221.154 189.738,172.186 
	"/>
<polygon fill="#938276" points="185.025,168.312 185.025,217.785 186.343,217.785 186.343,169.396 "/>
<polygon fill="#938276" points="177.488,162.117 177.488,210.115 178.806,210.115 178.806,163.2 "/>
<polygon fill="#938276" points="169.199,155.303 169.199,205.421 170.517,205.421 170.517,156.386 "/>
<polygon fill="#938276" points="161.399,148.891 161.399,198.126 162.717,198.126 162.717,149.974 "/>
<polygon fill="#938276" points="156.716,145.041 156.716,194.43 158.034,194.43 158.034,146.125 "/>
<polygon fill="#938276" points="150.129,139.626 150.129,190.363 151.447,190.363 151.447,140.71 "/>
<polygon fill="#6D5F55" points="159.059,146.967 159.059,197.327 160.377,197.327 160.377,148.051 "/>
<rect x="146.305" y="176.29" fill="#BCA16C" width="48.425" height="50.917"/>
<rect x="148.79" y="176.29" fill="#D1B17D" width="1.998" height="50.917"/>
<rect x="154.628" y="176.29" fill="#D1B17D" width="2.747" height="50.917"/>
<rect x="161.399" y="176.29" fill="#D1B17D" width="1.374" height="50.917"/>
<rect x="166.388" y="176.29" fill="#D1B17D" width="1.373" height="50.917"/>
<rect x="173.395" y="176.29" fill="#D1B17D" width="1.717" height="50.917"/>
<rect x="178.806" y="176.29" fill="#D1B17D" width="2.636" height="50.917"/>
<rect x="183.092" y="176.29" fill="#B1966D" width="1.933" height="50.917"/>
<rect x="168.585" y="176.29" fill="#B1966D" width="1.933" height="50.917"/>
<rect x="158.092" y="176.29" fill="#B1966D" width="1.933" height="50.917"/>
<rect x="150.788" y="176.29" fill="#B1966D" width="1.933" height="50.917"/>
<rect x="192.797" y="176.29" fill="#B1966D" width="1.933" height="50.917"/>
<rect x="185.025" y="176.29" fill="#D1B17D" width="2.077" height="50.917"/>
<rect x="189.857" y="176.29" fill="#D1B17D" width="2.077" height="50.917"/>
<rect x="26.391" y="131.423" fill="#707071" width="119.914" height="0.874"/>
<rect x="53.629" y="67.758" fill="#515251" width="25.5" height="1.967"/>
<rect x="87.7" y="67.758" fill="#515251" width="25.5" height="1.967"/>
<rect x="28.205" y="149.753" fill="#A09F9F" width="116.31" height="2.868"/>
<rect x="26.403" y="39.494" fill="#726152" width="119.914" height="4.152"/>
<rect x="53.623" y="64.812" fill="#848484" width="25.5" height="4.37"/>
<rect x="53.629" y="127.291" fill="#515251" width="25.5" height="1.967"/>
<rect x="87.7" y="64.812" fill="#848484" width="25.5" height="4.37"/>
<rect x="53.623" y="124.376" fill="#848484" width="25.5" height="4.37"/>
<rect x="87.7" y="127.291" fill="#515251" width="25.5" height="1.967"/>
<rect x="87.7" y="124.376" fill="#848484" width="25.5" height="4.37"/>
<polygon fill="#574C45" points="26.403,43.718 5,25.865 5,21.598 26.414,39.495 "/>
<rect x="26.981" y="16.164" fill="#969696" width="1.748" height="11.275"/>
<polygon fill="none" points="27.806,17.007 28.044,16.703 28.038,16.717 27.801,17.021 "/>
<polyline fill="#5B5D5D" points="28.038,16.717 27.801,17.021 27.806,17.007 28.044,16.703 28.038,16.717 "/>
<path fill="none" d="M30.012,20.227l-0.237,0.305c-0.021,0.027-0.101,0.047-0.197,0.048l0.237-0.305
	C29.912,20.274,29.991,20.254,30.012,20.227z"/>
<path fill="#5B5D5D" d="M30.012,20.227l-0.237,0.305c-0.021,0.027-0.101,0.047-0.197,0.048l0.237-0.305
	C29.912,20.274,29.991,20.254,30.012,20.227"/>
<polygon fill="#585A5A" points="29.815,20.275 29.578,20.58 28.082,20.589 28.319,20.284 "/>
<polygon fill="#585A5A" points="28.114,20.224 27.876,20.529 27.801,17.021 28.038,16.717 "/>
<path fill="#8B8C8C" d="M29.822,16.651l0.12,0.055l0.075,3.507c0,0.033-0.09,0.061-0.202,0.062l-1.496,0.009l-0.084-0.005
	l-0.122-0.055l-0.075-3.507c0-0.033,0.09-0.061,0.203-0.062l1.498-0.009L29.822,16.651z"/>
<polygon fill="none" points="28.319,20.284 28.082,20.589 27.998,20.584 27.876,20.529 28.114,20.224 28.236,20.279 "/>
<polyline fill="#5B5D5D" points="28.319,20.284 28.082,20.589 27.998,20.584 27.876,20.529 28.114,20.224 28.236,20.279 
	28.319,20.284 "/>
<path fill="#B2B3B3" d="M22.475,11.152c1.219,4.757,6.283,7.941,10.486,6.865s5.952-6.006,4.734-10.763
	c-1.219-4.757-6.184-7.942-10.387-6.865C23.105,1.465,21.257,6.395,22.475,11.152z"/>
<path fill="#CFCECE" d="M22.954,10.899c1.219,4.757,6.15,7.975,10.212,6.935c4.062-1.041,5.718-5.946,4.499-10.703
	s-6.054-7.975-10.117-6.935C23.486,1.237,21.735,6.142,22.954,10.899z"/>
<ellipse transform="matrix(0.1937 -0.9811 0.9811 0.1937 13.921 45.2977)" fill="#DEDDDD" cx="34.518" cy="14.18" rx="1.064" ry="1.204"/>
<polygon fill="none" points="36.943,19.391 36.281,19.779 36.219,19.794 36.881,19.405 "/>
<polyline fill="#5B5D5D" points="36.943,19.391 36.281,19.779 36.219,19.794 36.881,19.405 36.943,19.391 "/>
<polygon fill="none" points="29.346,18.372 30.008,17.983 29.955,18.078 29.293,18.467 "/>
<polyline fill="#5B5D5D" points="29.955,18.078 29.293,18.467 29.346,18.372 30.008,17.983 29.955,18.078 "/>
<polygon fill="#585A5A" points="36.881,19.405 36.219,19.794 29.416,19.441 30.078,19.052 "/>
<polygon fill="#585A5A" points="29.961,18.931 29.299,19.32 29.293,18.467 29.955,18.078 "/>
<polygon fill="#909190" points="36.872,18.321 36.99,18.442 36.997,19.296 36.881,19.405 30.078,19.052 29.961,18.931 
	29.955,18.078 30.071,17.968 "/>
<polygon fill="none" points="30.078,19.052 29.416,19.441 29.299,19.32 29.961,18.931 "/>
<polyline fill="#5B5D5D" points="30.078,19.052 29.416,19.441 29.299,19.32 29.961,18.931 30.078,19.052 "/>
<ellipse transform="matrix(0.1937 -0.9811 0.9811 0.1937 14.2501 45.9101)" fill="#B2B3B3" cx="35.055" cy="14.286" rx="1.246" ry="1.162"/>
<ellipse transform="matrix(0.1936 -0.9811 0.9811 0.1936 14.2694 46.1591)" fill="#999999" cx="35.214" cy="14.399" rx="1.045" ry="0.984"/>
<path fill="#B2B3B3" d="M34.841,14.295c-0.041,0.218,0.103,0.427,0.321,0.468l1.246,0.233c0.218,0.041,0.427-0.103,0.468-0.321
	s-0.103-0.427-0.321-0.468l-1.246-0.233C35.092,13.934,34.882,14.078,34.841,14.295z"/>
<path fill="none" d="M37.224,19.347l-2.714-1.064c-0.047-0.018-0.063-0.186-0.033-0.386l2.714,1.064
	C37.162,19.161,37.178,19.328,37.224,19.347z"/>
<path fill="#5B5D5D" d="M37.224,19.347l-2.714-1.064c-0.047-0.018-0.063-0.186-0.033-0.386l2.714,1.064
	C37.162,19.161,37.178,19.328,37.224,19.347"/>
<polygon fill="none" points="35.645,13.245 38.359,14.31 38.353,14.308 35.639,13.244 "/>
<polyline fill="#676969" points="38.353,14.308 35.639,13.244 35.645,13.245 38.359,14.31 38.353,14.308 "/>
<polygon fill="#686A6A" points="37.937,14.267 35.223,13.203 35.639,13.244 38.353,14.308 "/>
<polygon fill="#595B5B" points="37.191,18.961 34.477,17.896 35.079,13.569 37.793,14.633 "/>
<path fill="#898A8A" d="M37.937,14.267l0.416,0.041c0.051,0.006,0.07,0.179,0.041,0.386l-0.604,4.329
	c-0.028,0.203-0.092,0.366-0.142,0.366l-0.417-0.041c-0.051-0.006-0.07-0.179-0.039-0.388l0.602-4.327
	C37.823,14.43,37.886,14.267,37.937,14.267z"/>
<path fill="none" d="M37.793,14.633l-2.714-1.064c0.03-0.203,0.094-0.366,0.144-0.366l2.714,1.064
	C37.886,14.267,37.823,14.43,37.793,14.633z"/>
<path fill="#5B5D5D" d="M37.793,14.633l-2.714-1.064c0.022-0.145,0.06-0.271,0.099-0.33l2.714,1.064
	C37.853,14.363,37.814,14.488,37.793,14.633"/>
<path fill="none" d="M37.793,14.633l-2.714-1.064c0.03-0.203,0.094-0.366,0.144-0.366l2.714,1.064
	C37.886,14.267,37.823,14.43,37.793,14.633z"/>
<polyline fill="#5D5F5F" points="37.892,14.304 35.178,13.239 35.195,13.218 37.909,14.282 37.892,14.304 "/>
<path fill="none" d="M37.793,14.633l-2.714-1.064c0.03-0.203,0.094-0.366,0.144-0.366l2.714,1.064
	C37.886,14.267,37.823,14.43,37.793,14.633z"/>
<polyline fill="#606261" points="37.909,14.282 35.195,13.218 35.204,13.21 37.918,14.274 37.909,14.282 "/>
<path fill="none" d="M37.793,14.633l-2.714-1.064c0.03-0.203,0.094-0.366,0.144-0.366l2.714,1.064
	C37.886,14.267,37.823,14.43,37.793,14.633z"/>
<polyline fill="#626464" points="37.918,14.274 35.204,13.21 35.212,13.205 37.926,14.27 37.918,14.274 "/>
<path fill="none" d="M37.793,14.633l-2.714-1.064c0.03-0.203,0.094-0.366,0.144-0.366l2.714,1.064
	C37.886,14.267,37.823,14.43,37.793,14.633z"/>
<polyline fill="#656766" points="37.926,14.27 35.212,13.205 35.22,13.203 37.934,14.267 37.926,14.27 "/>
<path fill="none" d="M37.793,14.633l-2.714-1.064c0.03-0.203,0.094-0.366,0.144-0.366l2.714,1.064
	C37.886,14.267,37.823,14.43,37.793,14.633z"/>
<polyline fill="#676969" points="37.934,14.267 35.22,13.203 35.223,13.203 37.937,14.267 37.934,14.267 "/>
<circle fill="#969696" cx="32.797" cy="11.977" r="0.264"/>
<circle fill="#969696" cx="30.101" cy="12.242" r="0.264"/>
<circle fill="#969696" cx="33.326" cy="15.899" r="0.265"/>
<circle fill="#969696" cx="30.68" cy="16.296" r="0.264"/>
<polygon fill="#B2B3B3" points="27.407,4.166 27.682,4.13 27.957,4.665 28.085,4.078 28.355,4.042 28.112,4.982 27.884,5.012 "/>
<rect x="28.503" y="4.01" transform="matrix(0.9915 -0.1299 0.1299 0.9915 -0.3364 3.7566)" fill="#B2B3B3" width="0.249" height="0.894"/>
<path fill="#B2B3B3" d="M28.855,3.977l0.342-0.045c0.317-0.041,0.524,0.117,0.557,0.373v0.003c0.033,0.256-0.128,0.47-0.447,0.512
	L28.97,4.864L28.855,3.977z M29.288,4.601c0.147-0.019,0.234-0.113,0.215-0.256V4.343C29.484,4.2,29.376,4.131,29.229,4.15
	l-0.1,0.013l0.059,0.451L29.288,4.601z"/>
<polygon fill="#B2B3B3" points="29.823,3.851 30.536,3.757 30.563,3.966 30.094,4.028 30.111,4.162 30.537,4.106 30.562,4.3 
	30.136,4.356 30.155,4.496 30.631,4.434 30.658,4.643 29.939,4.737 "/>
<path fill="#B2B3B3" d="M30.689,4.191V4.188c-0.033-0.255,0.145-0.488,0.419-0.524c0.273-0.036,0.503,0.142,0.536,0.396v0.003
	c0.033,0.255-0.145,0.488-0.418,0.524C30.952,4.623,30.723,4.445,30.689,4.191z M31.394,4.099V4.096
	c-0.017-0.128-0.124-0.227-0.259-0.21C31,3.904,30.924,4.025,30.941,4.153v0.003c0.017,0.128,0.124,0.227,0.258,0.21
	C31.334,4.347,31.41,4.227,31.394,4.099z"/>
<polygon fill="#B2B3B3" points="27.93,5.468 27.611,5.51 27.577,5.252 28.51,5.13 28.544,5.388 28.225,5.43 28.33,6.235 
	28.035,6.274 "/>
<path fill="#B2B3B3" d="M28.703,5.712l-0.078-0.597l0.299-0.039l0.077,0.591c0.02,0.154,0.107,0.216,0.226,0.201
	c0.119-0.016,0.187-0.096,0.167-0.245l-0.078-0.599l0.299-0.039l0.077,0.59c0.045,0.344-0.131,0.52-0.434,0.559
	C28.955,6.173,28.747,6.045,28.703,5.712z"/>
<path fill="#B2B3B3" d="M29.791,4.962l0.546-0.071c0.134-0.017,0.232,0.004,0.303,0.058l0.091,0.163v0.003
	c0.016,0.123-0.044,0.205-0.133,0.259c0.135,0.026,0.226,0.088,0.245,0.232v0.003c0.024,0.182-0.111,0.313-0.365,0.346L29.93,6.026
	L29.791,4.962z M30.319,5.324l0.128-0.111V5.21l-0.146-0.074l-0.192,0.025l0.024,0.187L30.319,5.324z M30.414,5.722l0.129-0.116
	V5.603c-0.007-0.058-0.058-0.09-0.157-0.077L30.16,5.555l0.026,0.196L30.414,5.722z"/>
<polygon fill="#B2B3B3" points="30.877,4.82 31.733,4.708 31.766,4.959 31.202,5.033 31.223,5.194 31.733,5.127 31.764,5.36 
	31.253,5.426 31.275,5.595 31.847,5.52 31.879,5.771 31.016,5.884 "/>
</svg>
