<?xml version="1.0" encoding="utf-8"?>
<!-- Generator: Adobe Illustrator 17.0.0, SVG Export Plug-In . SVG Version: 6.00 Build 0)  -->
<!DOCTYPE svg PUBLIC "-//W3C//DTD SVG 1.1//EN" "http://www.w3.org/Graphics/SVG/1.1/DTD/svg11.dtd">
<svg version="1.1" id="Layer_1" xmlns="http://www.w3.org/2000/svg" xmlns:xlink="http://www.w3.org/1999/xlink" x="0px" y="0px"
	 width="890.61px" height="175.687px" viewBox="0 0 890.61 175.687" enable-background="new 0 0 890.61 175.687"
	 xml:space="preserve">
<polygon fill="#213321" points="885.612,92.363 417.119,92.363 396.68,84.109 865.174,84.109 "/>
<polyline fill="#284139" points="417.119,92.363 417.119,156.82 537.081,156.82 537.081,100.151 605.734,100.151 605.734,156.82 
	801.736,156.82 801.736,120.88 825.319,120.88 825.319,156.82 841.041,156.82 841.041,120.88 864.624,120.88 864.624,156.82 
	885.612,156.82 885.612,92.363 417.119,92.363 "/>
<polyline fill="#3D6053" points="559.755,156.456 536.755,156.456 536.755,99.923 559.755,99.923 559.755,156.456 "/>
<path d="M560.077,156.778h-23.644V99.601h23.644V156.778 M537.077,156.134h22.357v-55.89h-22.357V156.134"/>
<polyline fill="#27483B" points="559.216,100.499 537.276,100.499 537.276,155.879 559.216,100.499 "/>
<polyline fill="#3D6053" points="582.756,156.456 559.755,156.456 559.755,99.923 582.756,99.923 582.756,156.456 "/>
<path d="M583.078,156.778h-23.645V99.601h23.645V156.778 M560.077,156.134h22.357v-55.89h-22.357V156.134"/>
<polyline fill="#3D6053" points="605.757,156.456 582.756,156.456 582.756,99.923 605.757,99.923 605.757,156.456 "/>
<path d="M606.079,156.778h-23.644V99.601h23.644V156.778 M583.078,156.134h22.357v-55.89h-22.357V156.134"/>
<polyline fill="#27483B" points="582.226,100.499 560.285,100.499 560.285,155.879 582.226,100.499 "/>
<polyline fill="#27483B" points="605.227,100.499 583.286,100.499 583.286,155.879 605.227,100.499 "/>
<polyline fill="#3D6053" points="801.473,156.659 801.473,121.044 825.158,121.044 825.158,156.659 801.473,156.659 "/>
<path d="M824.997,121.205v35.293h-23.363v-35.293H824.997 M825.319,120.883h-24.007v35.937h24.007V120.883"/>
<polyline fill="#3D6053" points="841.132,156.659 841.132,121.044 864.463,121.044 864.463,156.659 841.132,156.659 "/>
<path d="M864.302,121.205v35.293h-23.009v-35.293H864.302 M864.624,120.883h-23.653v35.937h23.653V120.883"/>
<path fill="#020202" d="M623.711,112.773H518.626l52.543-24.599L623.711,112.773z M522.965,111.808h96.407l-48.203-22.567
	L522.965,111.808z"/>
<polyline fill="#27483B" points="824.997,121.205 801.634,121.205 801.634,156.181 824.997,121.362 824.997,121.205 "/>
<polyline points="825.319,120.883 801.736,120.883 801.312,120.883 801.312,156.661 801.634,156.181 801.634,121.205 
	824.997,121.205 824.997,121.362 825.319,120.883 "/>
<polyline fill="#8F9C95" points="864.624,120.88 841.041,120.88 841.041,120.883 864.622,120.883 864.624,120.88 "/>
<polyline fill="#163127" points="864.624,120.88 840.971,120.88 840.971,120.883 841.041,120.883 841.041,120.88 864.624,120.88 "/>
<polyline fill="#27483B" points="864.302,121.205 841.293,121.205 841.293,156.331 864.302,121.369 864.302,121.205 "/>
<polyline points="864.622,120.883 841.041,120.883 840.971,120.883 840.971,156.82 841.293,156.331 841.293,121.205 
	864.302,121.205 864.302,121.369 864.622,120.883 "/>
<polyline fill="#163127" points="756.179,102.365 671.28,102.365 671.28,129.527 756.179,129.527 756.179,102.365 "/>
<polyline fill="#3D6053" points="756.179,102.365 756.179,129.527 671.28,129.527 "/>
<rect x="551.659" y="103.706" transform="matrix(0.7071 0.7071 -0.7071 0.7071 238.6003 -367.6649)" fill="#050606" width="22.917" height="0.965"/>
<rect x="578.591" y="93.205" transform="matrix(0.7072 0.707 -0.707 0.7072 243.3751 -378.8635)" fill="#050606" width="0.965" height="22.36"/>
<polygon fill="#3D6053" points="517.484,113.066 512.347,108.438 565.553,83.924 571.221,87.863 "/>
<polygon fill="#3D6053" points="570.513,88.552 565.377,83.924 619.261,109.018 624.929,112.957 "/>
<rect x="532.644" y="112.291" fill="#020202" width="0.965" height="44.53"/>
<rect x="608.725" y="112.291" fill="#020202" width="0.965" height="44.53"/>
<polyline fill="#284139" points="453.081,175.687 40.397,175.687 40.397,30.265 453.081,30.265 453.081,175.687 "/>
<polygon fill="#213321" points="453.08,30.265 40.397,30.265 19.959,2.964 432.642,2.964 "/>
<polygon fill="#3D6053" points="40.397,175.687 4.998,145.99 4.998,0 19.959,2.964 40.397,30.265 "/>
<polyline fill="#030202" points="432.642,2.964 19.959,2.964 4.998,0 406.798,0 "/>
<polyline fill="#3D6053" points="131.428,175.322 102.779,175.322 102.779,123.021 131.428,123.021 131.428,175.322 "/>
<path d="M131.589,175.483h-28.971V122.86h28.971V175.483 M102.94,175.161h28.328v-51.979H102.94V175.161"/>
<polyline fill="#27483B" points="131.173,123.292 103.079,123.292 103.079,175.113 131.173,123.292 "/>
<polyline fill="#A09F9F" points="192.045,153.604 145.752,153.604 145.752,131.885 192.045,131.885 192.045,153.604 "/>
<path d="M192.206,153.764h-46.615v-22.04h46.615V153.764 M145.914,153.443h45.971v-21.397h-45.971V153.443"/>
<polyline fill="#8D8C8C" points="169.129,132.138 145.983,132.138 145.983,153.338 169.129,132.138 "/>
<polyline fill="#243C34" points="192.276,132.138 192.206,132.138 192.206,132.202 192.276,132.138 "/>
<polyline fill="#8D8C8C" points="191.885,132.138 169.129,132.138 169.129,153.338 191.885,132.496 191.885,132.138 "/>
<polyline points="192.206,132.138 191.885,132.138 191.885,132.496 192.206,132.202 192.206,132.138 "/>
<polyline fill="#A09F9F" points="160.077,82.076 131.428,82.076 131.428,53.821 160.077,53.821 160.077,82.076 "/>
<path d="M160.238,82.237h-28.971V53.661h28.971V82.237 M131.589,81.915h28.327V53.983h-28.327V81.915"/>
<polyline fill="#888787" points="159.808,54.085 131.61,54.085 131.61,81.763 159.808,54.085 "/>
<polyline fill="#A09F9F" points="277.944,76.86 259.873,76.86 259.873,59.037 277.944,59.037 277.944,76.86 "/>
<path d="M278.105,77.021h-18.393V58.877h18.393V77.021 M260.034,76.699h17.75v-17.5h-17.75V76.699"/>
<polyline fill="#888787" points="277.775,59.204 260.034,59.204 260.034,76.617 277.775,59.204 "/>
<polyline points="260.034,59.204 259.988,59.204 259.988,76.663 260.034,76.617 260.034,59.204 "/>
<polyline fill="#A09F9F" points="380.924,76.86 362.852,76.86 362.852,59.037 380.924,59.037 380.924,76.86 "/>
<path d="M381.084,77.021h-18.393V58.877h18.393V77.021 M363.014,76.699h17.749v-17.5h-17.749V76.699"/>
<polyline fill="#888787" points="380.754,59.204 363.014,59.204 363.014,76.617 380.754,59.204 "/>
<polyline points="363.014,59.204 362.967,59.204 362.967,76.663 363.014,76.617 363.014,59.204 "/>
<rect x="168.738" y="131.885" width="0.322" height="21.719"/>
<path fill="#561C21" d="M304.108,38.158h6.773c1.66,0,2.83,0.415,3.603,1.189c0.528,0.528,0.849,1.226,0.849,2.132v0.038
	c0,1.528-0.868,2.434-2.038,2.943c1.604,0.528,2.622,1.434,2.622,3.226v0.038c0,2.264-1.849,3.641-4.999,3.641h-6.811V38.158z
	 M309.975,43.421c1.113,0,1.736-0.377,1.736-1.151v-0.038c0-0.717-0.566-1.132-1.66-1.132h-2.377v2.321H309.975z M310.504,48.421
	c1.113,0,1.754-0.434,1.754-1.207v-0.038c0-0.717-0.566-1.189-1.792-1.189h-2.792v2.434H310.504z"/>
<polygon fill="#561C21" points="317.598,38.158 328.219,38.158 328.219,41.271 321.22,41.271 321.22,43.27 327.559,43.27 
	327.559,46.157 321.22,46.157 321.22,48.251 328.313,48.251 328.313,51.364 317.598,51.364 "/>
<polygon fill="#561C21" points="330.181,38.158 340.803,38.158 340.803,41.271 333.804,41.271 333.804,43.27 340.142,43.27 
	340.142,46.157 333.804,46.157 333.804,48.251 340.897,48.251 340.897,51.364 330.181,51.364 "/>
<path fill="#561C21" d="M342.765,38.158h6.245c2.019,0,3.415,0.528,4.301,1.434c0.774,0.755,1.17,1.773,1.17,3.075v0.038
	c0,2.019-1.075,3.358-2.717,4.056l3.151,4.603h-4.226l-2.66-4h-0.038h-1.566v4h-3.66V38.158z M348.84,44.497
	c1.245,0,1.962-0.604,1.962-1.566v-0.038c0-1.038-0.755-1.566-1.981-1.566h-2.396v3.169H348.84z"/>
<path fill="#561C21" d="M361.556,38.158h5.66c3.339,0,5.49,1.717,5.49,4.641v0.038c0,3.113-2.396,4.754-5.678,4.754h-1.811v3.773
	h-3.66V38.158z M366.952,44.723c1.302,0,2.094-0.679,2.094-1.717v-0.038c0-1.132-0.792-1.736-2.113-1.736h-1.717v3.49H366.952z"/>
<polygon fill="#561C21" points="374.253,38.158 377.913,38.158 377.913,48.156 384.309,48.156 384.309,51.364 374.253,51.364 "/>
<path fill="#561C21" d="M390.441,38.063h3.528l5.622,13.3h-3.924l-0.962-2.358h-5.094l-0.943,2.358h-3.849L390.441,38.063z
	 M393.648,46.157l-1.472-3.754l-1.49,3.754H393.648z"/>
<path fill="#561C21" d="M399.573,44.798v-0.038c0-3.849,2.962-6.867,6.962-6.867c2.698,0,4.433,1.132,5.603,2.754l-2.755,2.132
	c-0.755-0.943-1.622-1.547-2.886-1.547c-1.849,0-3.151,1.566-3.151,3.49v0.038c0,1.981,1.302,3.528,3.151,3.528
	c1.377,0,2.188-0.641,2.981-1.604l2.754,1.962c-1.245,1.717-2.924,2.981-5.849,2.981C402.61,51.628,399.573,48.741,399.573,44.798z"
	/>
<polygon fill="#561C21" points="413.798,38.158 424.42,38.158 424.42,41.271 417.421,41.271 417.421,43.27 423.759,43.27 
	423.759,46.157 417.421,46.157 417.421,48.251 424.514,48.251 424.514,51.364 413.798,51.364 "/>
<path fill="#932E34" d="M303.135,37.24h6.773c1.66,0,2.83,0.415,3.603,1.188c0.528,0.528,0.849,1.226,0.849,2.132v0.038
	c0,1.528-0.868,2.434-2.038,2.943c1.604,0.528,2.623,1.434,2.623,3.226v0.038c0,2.264-1.849,3.641-5,3.641h-6.811V37.24z
	 M309.003,42.504c1.113,0,1.736-0.377,1.736-1.151v-0.038c0-0.717-0.566-1.132-1.66-1.132h-2.377v2.321H309.003z M309.531,47.503
	c1.113,0,1.754-0.434,1.754-1.207v-0.038c0-0.717-0.566-1.188-1.792-1.188h-2.792v2.434H309.531z"/>
<polygon fill="#932E34" points="316.625,37.24 327.246,37.24 327.246,40.353 320.247,40.353 320.247,42.353 326.586,42.353 
	326.586,45.24 320.247,45.24 320.247,47.334 327.341,47.334 327.341,50.447 316.625,50.447 "/>
<polygon fill="#932E34" points="329.209,37.24 339.83,37.24 339.83,40.353 332.831,40.353 332.831,42.353 339.17,42.353 
	339.17,45.24 332.831,45.24 332.831,47.334 339.925,47.334 339.925,50.447 329.209,50.447 "/>
<path fill="#932E34" d="M341.793,37.24h6.245c2.019,0,3.415,0.528,4.301,1.434c0.774,0.755,1.17,1.773,1.17,3.075v0.038
	c0,2.019-1.075,3.358-2.717,4.056l3.151,4.603h-4.226l-2.66-4h-0.038h-1.566v4h-3.66V37.24z M347.867,43.579
	c1.245,0,1.962-0.604,1.962-1.566v-0.038c0-1.038-0.755-1.566-1.981-1.566h-2.396v3.169H347.867z"/>
<path fill="#932E34" d="M360.584,37.24h5.66c3.339,0,5.49,1.717,5.49,4.641v0.038c0,3.113-2.396,4.754-5.678,4.754h-1.811v3.773
	h-3.66V37.24z M365.979,43.806c1.302,0,2.094-0.679,2.094-1.717v-0.038c0-1.132-0.792-1.736-2.113-1.736h-1.717v3.49H365.979z"/>
<polygon fill="#932E34" points="373.281,37.24 376.941,37.24 376.941,47.239 383.336,47.239 383.336,50.447 373.281,50.447 "/>
<path fill="#932E34" d="M389.468,37.146h3.528l5.622,13.3h-3.924l-0.962-2.358h-5.094l-0.943,2.358h-3.849L389.468,37.146z
	 M392.675,45.24l-1.472-3.754l-1.49,3.754H392.675z"/>
<path fill="#932E34" d="M398.6,43.881v-0.038c0-3.849,2.962-6.867,6.962-6.867c2.698,0,4.433,1.132,5.603,2.755l-2.755,2.132
	c-0.755-0.943-1.622-1.547-2.886-1.547c-1.849,0-3.151,1.566-3.151,3.49v0.038c0,1.981,1.302,3.528,3.151,3.528
	c1.377,0,2.188-0.641,2.981-1.604l2.754,1.962c-1.245,1.717-2.924,2.981-5.849,2.981C401.638,50.711,398.6,47.824,398.6,43.881z"/>
<polygon fill="#932E34" points="412.826,37.24 423.447,37.24 423.447,40.353 416.448,40.353 416.448,42.353 422.787,42.353 
	422.787,45.24 416.448,45.24 416.448,47.334 423.542,47.334 423.542,50.447 412.826,50.447 "/>
<polygon fill="#CEBF72" points="500.952,166.512 496.85,166.512 497.383,155.391 500.419,155.391 "/>
<polygon fill="#B7A767" points="496.099,165.518 496.85,166.512 497.383,155.391 496.584,155.391 "/>
<polygon fill="#CEBF72" points="484.69,166.512 480.588,166.512 481.274,153.037 484.31,153.037 "/>
<polygon fill="#B7A767" points="479.837,165.518 480.588,166.512 481.274,153.037 480.474,153.037 "/>
<polygon fill="#918450" points="484.296,158.61 479.977,152.692 479.977,150.003 484.296,155.921 "/>
<polygon fill="#CEBF72" points="507.675,154.862 482.567,154.862 478.248,148.944 503.356,148.944 "/>
<polygon fill="#CEBF72" points="489.467,171.93 484.554,171.93 485.192,158.61 488.829,158.61 "/>
<polygon fill="#B7A767" points="483.654,170.704 484.554,171.895 485.192,158.575 484.315,157.408 "/>
<rect x="484.296" y="155.921" fill="#CEBF72" width="21.65" height="2.689"/>
<polygon fill="#CEBF72" points="505.598,171.895 500.685,171.895 501.323,158.575 504.96,158.575 "/>
<rect x="482.567" y="154.862" fill="#B1A262" width="25.108" height="1.059"/>
<polygon fill="#B7A767" points="478.248,150.003 482.567,155.921 482.567,154.862 478.248,148.944 "/>
<polygon fill="#B7A767" points="499.785,170.704 500.685,171.895 501.323,158.575 500.366,158.575 "/>
<ellipse fill="#9B8E57" cx="486.115" cy="157.265" rx="0.446" ry="0.461"/>
<ellipse fill="#9B8E57" cx="495.121" cy="157.265" rx="0.446" ry="0.461"/>
<ellipse fill="#9B8E57" cx="504.123" cy="157.265" rx="0.446" ry="0.461"/>
<polygon fill="#CEBF72" points="514.552,171.895 512.455,171.895 512.91,167.149 514.097,167.149 "/>
<polygon fill="#918450" points="511.814,171.046 512.455,171.895 512.91,167.149 512.228,167.149 "/>
<polygon fill="#CEBF72" points="519.583,171.895 517.486,171.895 517.941,167.149 519.129,167.149 "/>
<polygon fill="#918450" points="516.845,171.046 517.486,171.895 517.941,167.149 517.259,167.149 "/>
<polygon fill="#CEBF72" points="509.521,165.062 507.424,165.062 507.878,160.316 509.066,160.316 "/>
<polygon fill="#918450" points="506.782,164.213 507.424,165.062 507.878,160.316 507.196,160.316 "/>
<polygon fill="#918450" points="511.446,168.33 506.13,161.041 506.13,159.462 511.446,166.751 "/>
<rect x="511.445" y="166.751" fill="#B1A262" width="9.237" height="1.579"/>
<polygon fill="#CEBF72" points="520.682,166.751 511.446,166.751 506.13,159.462 515.367,159.462 "/>
<polygon fill="#CEBF72" points="473.5,171.895 471.403,171.895 471.858,167.149 473.045,167.149 "/>
<polygon fill="#918450" points="470.762,171.046 471.403,171.895 471.858,167.149 471.176,167.149 "/>
<polygon fill="#CEBF72" points="478.531,171.895 476.434,171.895 476.889,167.149 478.077,167.149 "/>
<polygon fill="#918450" points="475.793,171.046 476.434,171.895 476.889,167.149 476.207,167.149 "/>
<polygon fill="#CEBF72" points="468.469,165.062 466.372,165.062 466.826,160.316 468.014,160.316 "/>
<polygon fill="#918450" points="465.73,164.213 466.372,165.062 466.826,160.316 466.144,160.316 "/>
<polygon fill="#918450" points="470.393,168.33 465.078,161.041 465.078,159.462 470.393,166.751 "/>
<rect x="470.393" y="166.751" fill="#B1A262" width="9.237" height="1.579"/>
<polygon fill="#CEBF72" points="479.63,166.751 470.393,166.751 465.078,159.462 474.315,159.462 "/>
<polygon fill="#CEBF72" points="651.858,166.512 647.756,166.512 648.289,155.391 651.325,155.391 "/>
<polygon fill="#B7A767" points="647.005,165.518 647.756,166.512 648.289,155.391 647.49,155.391 "/>
<polygon fill="#CEBF72" points="635.596,166.512 631.495,166.512 632.18,153.037 635.216,153.037 "/>
<polygon fill="#B7A767" points="630.743,165.518 631.495,166.512 632.18,153.037 631.381,153.037 "/>
<polygon fill="#918450" points="635.203,158.61 630.883,152.692 630.883,150.003 635.203,155.921 "/>
<polygon fill="#CEBF72" points="658.581,154.862 633.474,154.862 629.154,148.944 654.262,148.944 "/>
<polygon fill="#CEBF72" points="640.373,171.93 635.461,171.93 636.099,158.61 639.735,158.61 "/>
<polygon fill="#B7A767" points="634.561,170.704 635.461,171.895 636.099,158.575 635.221,157.408 "/>
<rect x="635.203" y="155.921" fill="#CEBF72" width="21.65" height="2.689"/>
<polygon fill="#CEBF72" points="656.504,171.895 651.591,171.895 652.229,158.575 655.866,158.575 "/>
<rect x="633.474" y="154.862" fill="#B1A262" width="25.108" height="1.059"/>
<polygon fill="#B7A767" points="629.154,150.003 633.474,155.921 633.474,154.862 629.154,148.944 "/>
<polygon fill="#B7A767" points="650.691,170.704 651.591,171.895 652.229,158.575 651.272,158.575 "/>
<ellipse fill="#9B8E57" cx="637.021" cy="157.265" rx="0.446" ry="0.461"/>
<ellipse fill="#9B8E57" cx="646.027" cy="157.265" rx="0.446" ry="0.461"/>
<ellipse fill="#9B8E57" cx="655.029" cy="157.265" rx="0.446" ry="0.461"/>
<polygon fill="#CEBF72" points="665.458,171.895 663.361,171.895 663.816,167.149 665.004,167.149 "/>
<polygon fill="#918450" points="662.72,171.046 663.361,171.895 663.816,167.149 663.134,167.149 "/>
<polygon fill="#CEBF72" points="670.49,171.895 668.392,171.895 668.847,167.149 670.035,167.149 "/>
<polygon fill="#918450" points="667.751,171.046 668.392,171.895 668.847,167.149 668.165,167.149 "/>
<polygon fill="#CEBF72" points="660.427,165.062 658.33,165.062 658.785,160.316 659.972,160.316 "/>
<polygon fill="#918450" points="657.689,164.213 658.33,165.062 658.785,160.316 658.103,160.316 "/>
<polygon fill="#918450" points="662.352,168.33 657.036,161.041 657.036,159.462 662.352,166.751 "/>
<rect x="662.352" y="166.751" fill="#B1A262" width="9.237" height="1.579"/>
<polygon fill="#CEBF72" points="671.589,166.751 662.352,166.751 657.036,159.462 666.273,159.462 "/>
<polygon fill="#CEBF72" points="624.406,171.895 622.309,171.895 622.764,167.149 623.952,167.149 "/>
<polygon fill="#918450" points="621.668,171.046 622.309,171.895 622.764,167.149 622.082,167.149 "/>
<polygon fill="#CEBF72" points="629.438,171.895 627.34,171.895 627.795,167.149 628.983,167.149 "/>
<polygon fill="#918450" points="626.699,171.046 627.34,171.895 627.795,167.149 627.113,167.149 "/>
<polygon fill="#CEBF72" points="619.375,165.062 617.278,165.062 617.733,160.316 618.92,160.316 "/>
<polygon fill="#918450" points="616.637,164.213 617.278,165.062 617.733,160.316 617.051,160.316 "/>
<polygon fill="#918450" points="621.3,168.33 615.984,161.041 615.984,159.462 621.3,166.751 "/>
<rect x="621.3" y="166.751" fill="#B1A262" width="9.237" height="1.579"/>
<polygon fill="#CEBF72" points="630.536,166.751 621.3,166.751 615.984,159.462 625.221,159.462 "/>
<polygon fill="#CEBF72" points="716.244,166.512 712.142,166.512 712.675,155.391 715.711,155.391 "/>
<polygon fill="#B7A767" points="711.391,165.518 712.142,166.512 712.675,155.391 711.876,155.391 "/>
<polygon fill="#CEBF72" points="699.982,166.512 695.881,166.512 696.566,153.037 699.602,153.037 "/>
<polygon fill="#B7A767" points="695.129,165.518 695.881,166.512 696.566,153.037 695.767,153.037 "/>
<polygon fill="#918450" points="699.589,158.61 695.269,152.692 695.269,150.003 699.589,155.921 "/>
<polygon fill="#CEBF72" points="722.967,154.862 697.86,154.862 693.54,148.944 718.648,148.944 "/>
<polygon fill="#CEBF72" points="704.759,171.93 699.847,171.93 700.485,158.61 704.121,158.61 "/>
<polygon fill="#B7A767" points="698.947,170.704 699.847,171.895 700.485,158.575 699.607,157.408 "/>
<rect x="699.589" y="155.921" fill="#CEBF72" width="21.65" height="2.689"/>
<polygon fill="#CEBF72" points="720.89,171.895 715.977,171.895 716.615,158.575 720.252,158.575 "/>
<rect x="697.86" y="154.862" fill="#B1A262" width="25.108" height="1.059"/>
<polygon fill="#B7A767" points="693.54,150.003 697.86,155.921 697.86,154.862 693.54,148.944 "/>
<polygon fill="#B7A767" points="715.077,170.704 715.977,171.895 716.615,158.575 715.658,158.575 "/>
<ellipse fill="#9B8E57" cx="701.407" cy="157.265" rx="0.446" ry="0.461"/>
<ellipse fill="#9B8E57" cx="710.414" cy="157.265" rx="0.446" ry="0.461"/>
<ellipse fill="#9B8E57" cx="719.415" cy="157.265" rx="0.446" ry="0.461"/>
<polygon fill="#CEBF72" points="729.844,171.895 727.747,171.895 728.202,167.149 729.39,167.149 "/>
<polygon fill="#918450" points="727.106,171.046 727.747,171.895 728.202,167.149 727.52,167.149 "/>
<polygon fill="#CEBF72" points="734.875,171.895 732.778,171.895 733.233,167.149 734.421,167.149 "/>
<polygon fill="#918450" points="732.137,171.046 732.778,171.895 733.233,167.149 732.551,167.149 "/>
<polygon fill="#CEBF72" points="724.813,165.062 722.716,165.062 723.171,160.316 724.358,160.316 "/>
<polygon fill="#918450" points="722.075,164.213 722.716,165.062 723.171,160.316 722.489,160.316 "/>
<polygon fill="#918450" points="726.738,168.33 721.422,161.041 721.422,159.462 726.738,166.751 "/>
<rect x="726.738" y="166.751" fill="#B1A262" width="9.237" height="1.579"/>
<polygon fill="#CEBF72" points="735.975,166.751 726.738,166.751 721.422,159.462 730.659,159.462 "/>
<polygon fill="#CEBF72" points="688.792,171.895 686.695,171.895 687.15,167.149 688.338,167.149 "/>
<polygon fill="#918450" points="686.054,171.046 686.695,171.895 687.15,167.149 686.468,167.149 "/>
<polygon fill="#CEBF72" points="693.823,171.895 691.726,171.895 692.181,167.149 693.369,167.149 "/>
<polygon fill="#918450" points="691.085,171.046 691.726,171.895 692.181,167.149 691.499,167.149 "/>
<polygon fill="#CEBF72" points="683.761,165.062 681.664,165.062 682.119,160.316 683.306,160.316 "/>
<polygon fill="#918450" points="681.023,164.213 681.664,165.062 682.119,160.316 681.437,160.316 "/>
<polygon fill="#918450" points="685.686,168.33 680.37,161.041 680.37,159.462 685.686,166.751 "/>
<rect x="685.686" y="166.751" fill="#B1A262" width="9.237" height="1.579"/>
<polygon fill="#CEBF72" points="694.922,166.751 685.686,166.751 680.37,159.462 689.607,159.462 "/>
<polygon fill="#CEBF72" points="780.006,166.512 775.904,166.512 776.437,155.391 779.473,155.391 "/>
<polygon fill="#B7A767" points="775.153,165.518 775.904,166.512 776.437,155.391 775.638,155.391 "/>
<polygon fill="#CEBF72" points="763.744,166.512 759.642,166.512 760.327,153.037 763.364,153.037 "/>
<polygon fill="#B7A767" points="758.891,165.518 759.642,166.512 760.327,153.037 759.528,153.037 "/>
<polygon fill="#918450" points="763.35,158.61 759.031,152.692 759.031,150.003 763.35,155.921 "/>
<polygon fill="#CEBF72" points="786.729,154.862 761.621,154.862 757.302,148.944 782.41,148.944 "/>
<polygon fill="#CEBF72" points="768.521,171.93 763.608,171.93 764.246,158.61 767.883,158.61 "/>
<polygon fill="#B7A767" points="762.708,170.704 763.608,171.895 764.246,158.575 763.369,157.408 "/>
<rect x="763.35" y="155.921" fill="#CEBF72" width="21.65" height="2.689"/>
<polygon fill="#CEBF72" points="784.652,171.895 779.739,171.895 780.377,158.575 784.014,158.575 "/>
<rect x="761.621" y="154.862" fill="#B1A262" width="25.108" height="1.059"/>
<polygon fill="#B7A767" points="757.302,150.003 761.621,155.921 761.621,154.862 757.302,148.944 "/>
<polygon fill="#B7A767" points="778.839,170.704 779.739,171.895 780.377,158.575 779.42,158.575 "/>
<ellipse fill="#9B8E57" cx="765.169" cy="157.265" rx="0.446" ry="0.461"/>
<ellipse fill="#9B8E57" cx="774.175" cy="157.265" rx="0.446" ry="0.461"/>
<ellipse fill="#9B8E57" cx="783.177" cy="157.265" rx="0.446" ry="0.461"/>
<polygon fill="#CEBF72" points="793.606,171.895 791.509,171.895 791.964,167.149 793.151,167.149 "/>
<polygon fill="#918450" points="790.868,171.046 791.509,171.895 791.964,167.149 791.281,167.149 "/>
<polygon fill="#CEBF72" points="798.637,171.895 796.54,171.895 796.995,167.149 798.182,167.149 "/>
<polygon fill="#918450" points="795.899,171.046 796.54,171.895 796.995,167.149 796.313,167.149 "/>
<polygon fill="#CEBF72" points="788.575,165.062 786.478,165.062 786.932,160.316 788.12,160.316 "/>
<polygon fill="#918450" points="785.836,164.213 786.478,165.062 786.932,160.316 786.25,160.316 "/>
<polygon fill="#918450" points="790.499,168.33 785.184,161.041 785.184,159.462 790.499,166.751 "/>
<rect x="790.499" y="166.751" fill="#B1A262" width="9.237" height="1.579"/>
<polygon fill="#CEBF72" points="799.736,166.751 790.499,166.751 785.184,159.462 794.421,159.462 "/>
<polygon fill="#CEBF72" points="752.554,171.895 750.457,171.895 750.911,167.149 752.099,167.149 "/>
<polygon fill="#918450" points="749.816,171.046 750.457,171.895 750.911,167.149 750.229,167.149 "/>
<polygon fill="#CEBF72" points="757.585,171.895 755.488,171.895 755.943,167.149 757.13,167.149 "/>
<polygon fill="#918450" points="754.847,171.046 755.488,171.895 755.943,167.149 755.261,167.149 "/>
<polygon fill="#CEBF72" points="747.523,165.062 745.426,165.062 745.88,160.316 747.068,160.316 "/>
<polygon fill="#918450" points="744.784,164.213 745.426,165.062 745.88,160.316 745.198,160.316 "/>
<polygon fill="#918450" points="749.447,168.33 744.132,161.041 744.132,159.462 749.447,166.751 "/>
<rect x="749.447" y="166.751" fill="#B1A262" width="9.237" height="1.579"/>
<polygon fill="#CEBF72" points="758.684,166.751 749.447,166.751 744.132,159.462 753.369,159.462 "/>
</svg>
