<?xml version="1.0" encoding="utf-8"?>
<!-- Generator: Adobe Illustrator 17.0.0, SVG Export Plug-In . SVG Version: 6.00 Build 0)  -->
<!DOCTYPE svg PUBLIC "-//W3C//DTD SVG 1.1//EN" "http://www.w3.org/Graphics/SVG/1.1/DTD/svg11.dtd">
<svg version="1.1" id="Layer_1" xmlns="http://www.w3.org/2000/svg" xmlns:xlink="http://www.w3.org/1999/xlink" x="0px" y="0px"
	 width="2616.03px" height="738.888px" viewBox="0 0 2616.03 738.888" enable-background="new 0 0 2616.03 738.888"
	 xml:space="preserve">
<path fill="#D1D2D3" d="M568.488,738.888H234.039l117.045-122.544l12.57-13.156l25.042-26.219l1.751-1.833
	c5.973-6.254,15.659-6.254,21.633,0l1.751,1.833l25.042,26.219l12.57,13.156L568.488,738.888z"/>
<path fill="#D1D2D3" d="M1060.095,738.888H594.062l163.095-170.757l17.515-18.332l34.895-36.534l2.44-2.555
	c8.323-8.714,21.82-8.714,30.144,0l2.44,2.555l34.895,36.534L897,568.131L1060.095,738.888z"/>
<path fill="#D1D2D3" d="M2611.029,738.888h-1467.09l513.429-537.55l55.138-57.709l109.85-115.011l7.682-8.042
	c26.202-27.434,68.691-27.434,94.893,0l7.681,8.042l109.85,115.011l55.138,57.709L2611.029,738.888z"/>
<path fill="#D1D2D3" d="M203.784,738.888H5.001l69.567-72.835l7.471-7.819l14.884-15.583l1.041-1.09
	c3.55-3.717,9.307-3.717,12.858,0l1.041,1.09l14.884,15.583l7.471,7.819L203.784,738.888z"/>
</svg>
