<?xml version="1.0" encoding="utf-8"?>
<!-- Generator: Adobe Illustrator 17.0.0, SVG Export Plug-In . SVG Version: 6.00 Build 0)  -->
<!DOCTYPE svg PUBLIC "-//W3C//DTD SVG 1.1//EN" "http://www.w3.org/Graphics/SVG/1.1/DTD/svg11.dtd">
<svg version="1.1" id="Layer_1" xmlns="http://www.w3.org/2000/svg" xmlns:xlink="http://www.w3.org/1999/xlink" x="0px" y="0px"
	 width="872.51px" height="247.38px" viewBox="0 0 872.51 247.38" enable-background="new 0 0 872.51 247.38" xml:space="preserve">
<g>
	<path opacity="0.1" fill="#000000" d="M150.26,201.95l-8.38-8.78l-0.59-0.61c-2-2.09-5.24-2.09-7.24,0l-0.59,0.61
		l-8.38,8.78l-4.21,4.4l-39.19,41.03h111.98l-39.19-41.03L150.26,201.95z"/>
	<path opacity="0.1" fill="#000000" d="M297.78,184.07l-11.68-12.23l-0.82-0.86c-2.78-2.92-7.3-2.92-10.09,0
		l-0.82,0.86l-11.68,12.23l-5.86,6.14l-54.61,57.17h156.03l-54.61-57.17L297.78,184.07z"/>
	<path opacity="0.1" fill="#000000" d="M705.61,67.41l-18.46-19.32L650.37,9.58l-2.57-2.69c-8.77-9.19-23-9.19-31.77,0
		l-2.57,2.69l-36.78,38.51l-18.46,19.32l-171.9,179.97h491.2L705.61,67.41z"/>
	<path opacity="0.1" fill="#000000" d="M45.75,220.38l-4.98-5.22l-0.35-0.36c-1.18-1.24-3.11-1.24-4.3,0l-0.35,0.36
		l-4.98,5.22l-2.5,2.62L5,247.38h66.55L48.25,223L45.75,220.38z"/>
</g>
</svg>
