<?xml version="1.0" encoding="utf-8"?>
<!-- Generator: Adobe Illustrator 17.0.0, SVG Export Plug-In . SVG Version: 6.00 Build 0)  -->
<!DOCTYPE svg PUBLIC "-//W3C//DTD SVG 1.1//EN" "http://www.w3.org/Graphics/SVG/1.1/DTD/svg11.dtd">
<svg version="1.1" id="Layer_1" xmlns="http://www.w3.org/2000/svg" xmlns:xlink="http://www.w3.org/1999/xlink" x="0px" y="0px"
	 width="262.82px" height="334.03px" viewBox="0 0 262.82 334.03" enable-background="new 0 0 262.82 334.03" xml:space="preserve">
<path fill="#231F20" d="M73.32,139.36c-13.25,7.76-45.46,27.11-51.53,35.25L4.63,197.78c-5.25,7.03-5.93,16.06-2.55,23.53l5.58-5.06
	l-3.91,8.12c0.94,1.44,2.05,2.79,3.32,4.02l7.62-6.9l-4.53,9.41c1.39,0.95,2.86,1.74,4.36,2.35l7.19-6.51l-3.67,7.62
	c1.72,0.4,3.47,0.59,5.22,0.59c5.09,0,10.13-1.66,14.26-4.86l-4.97-17.62l21.36-59.56L73.32,139.36"/>
<path fill="#231F20" d="M189.82,139.54l19.26,13.4l15.53,59.56l-3.78,13.04l0.08,0.1c4.57,6.11,11.57,9.34,18.65,9.34
	c1.75,0,3.5-0.2,5.22-0.59l-3.67-7.62l7.19,6.51c1.51-0.61,2.97-1.4,4.36-2.35l-4.53-9.41l7.62,6.9c1.27-1.23,2.38-2.58,3.32-4.02
	l-3.91-8.12l5.58,5.06c3.38-7.47,2.7-16.5-2.55-23.53l-17.16-23.18C235.01,166.53,203.25,147.42,189.82,139.54"/>
<path fill="#231F20" d="M159.06,305.33l-0.27,0.19h-24.26l-0.01,4.24c-0.03,9.23,5.12,17.27,12.71,21.37
	c3.4,1.84,7.29,2.89,11.43,2.9c0.02,0,0.05,0,0.07,0c3.53,0,6.89-0.76,9.92-2.12c8.33-3.75,14.16-12.07,14.28-21.78
	c-0.16,13.15-10.8,23.76-23.94,23.9L159.06,305.33 M182.99,288.82L182.99,288.82l-0.06,21.07c0,0.08,0,0.15,0,0.23
	c0-0.07,0-0.15,0-0.23L182.99,288.82"/>
<path fill="#3E3D3F" d="M182.99,288.82l-23.93,16.51l-0.08,28.69c13.14-0.14,23.78-10.75,23.94-23.9c0,0,0-0.01,0-0.01
	c0-0.07,0-0.15,0-0.23L182.99,288.82"/>
<path fill="#231F20" d="M74.88,289.16l0.06,20.73c0.03,9.89,5.98,18.37,14.48,22.1c2.98,1.31,6.27,2.03,9.72,2.03
	c0.02,0,0.05,0,0.07,0c4.11-0.01,7.97-1.04,11.35-2.86c7.63-4.09,12.81-12.15,12.79-21.42l-0.01-4.24H99.22l-0.42-0.28l0.08,28.79
	c-13.22-0.14-23.91-10.87-23.94-24.13L74.88,289.16"/>
<path fill="#3E3D3F" d="M74.88,289.16l0.06,20.73c0.04,13.26,10.73,23.99,23.94,24.13l-0.08-28.79L74.88,289.16"/>
<path fill="#231F20" d="M224.62,212.5h-28.95l-36.88,93.02H99.22L49.34,272l-16.79-59.5l4.97,17.62L49.34,272l25.54,17.16
	l23.93,16.08l0.42,0.28h24.11h11.2h24.26l0.27-0.19l23.93-16.51L207.36,272l13.47-46.47L224.62,212.5 M86.47,130.15l-13.15,9.2
	l-19.41,13.58L32.55,212.5l21.36-59.56L86.47,130.15L86.47,130.15"/>
<polyline fill="#323031" points="195.66,212.5 61.85,212.5 99.22,305.52 49.34,272 32.55,212.5 49.34,272 99.22,305.52 
	158.78,305.52 195.66,212.5 "/>
<polyline fill="#231F20" points="61.85,212.5 32.55,212.5 49.34,272 99.22,305.52 61.85,212.5 "/>
<polyline opacity="0.349" fill="#636568" points="173.97,128.52 173.97,128.52 189.81,139.54 189.82,139.54 173.97,128.52 "/>
<polyline fill="#3E3D3F" points="189.81,139.54 209.08,152.94 224.62,212.5 209.08,152.94 189.82,139.54 189.81,139.54 "/>
<polyline fill="#3E3D3F" points="173.97,128.52 173.55,129.96 167.93,133.84 195.66,212.5 224.62,212.5 209.08,152.94 
	189.81,139.54 173.97,128.52 "/>
<polyline fill="#49494B" points="167.93,133.84 146.7,148.49 113.77,148.49 93.6,134.95 61.85,212.5 195.66,212.5 167.93,133.84 "/>
<polyline fill="#3E3D3F" points="86.47,130.15 53.91,152.94 32.55,212.5 61.85,212.5 93.6,134.95 86.47,130.15 "/>
<path fill="#231F20" d="M103.91,39.6c-8.02,0-14.64,6.39-14.87,14.46c0,0.12-0.26,9.57-0.27,9.68l0.47,0.01l4.4-3.08
	c0.05-1.97,0.11-3.98,0.11-4.03c0.18-6.53,4.72-11.72,10.19-11.72c0.08,0,0.16,0,0.25,0c2.71,0.08,5.14,1.42,6.9,3.54l2.68-1.87
	h2.79c-2.55-4.08-7.04-6.85-12.21-7C104.2,39.61,104.06,39.6,103.91,39.6"/>
<path fill="#3E3D3F" d="M103.95,44.94c-5.47,0-10.01,5.19-10.19,11.72c0,0.05-0.06,2.06-0.11,4.03l17.44-12.21
	c-1.76-2.12-4.18-3.46-6.9-3.54C104.11,44.94,104.03,44.94,103.95,44.94"/>
<path fill="#231F20" d="M159.83,39.6c-5.3,0-9.98,2.79-12.62,7h2.08l3.13,2.18c1.87-2.37,4.52-3.84,7.44-3.84c0.08,0,0.16,0,0.25,0
	c5.58,0.16,9.95,5.66,9.76,12.28c0,0.04-0.05,1.79-0.1,3.62l4.69,3.26c0.06-1.95,0.26-9.1,0.27-9.2c0.23-8.22-6.24-15.07-14.46-15.3
	C160.12,39.61,159.98,39.6,159.83,39.6"/>
<path fill="#3E3D3F" d="M159.87,44.94c-2.92,0-5.57,1.48-7.44,3.84l17.34,12.06c0.05-1.83,0.1-3.57,0.1-3.62
	c0.19-6.63-4.18-12.13-9.76-12.28C160.03,44.94,159.95,44.94,159.87,44.94"/>
<polyline fill="#231F20" points="183.09,97.07 167.08,97.07 146.7,148.49 113.77,148.49 86.19,129.96 76.9,97.07 86.19,129.96 
	86.47,130.15 86.47,130.15 93.6,134.95 113.77,148.49 146.7,148.49 167.93,133.84 173.55,129.96 173.97,128.52 183.09,97.07 "/>
<polyline fill="#3E3D3F" points="167.08,97.07 93.1,97.07 113.77,148.49 86.19,129.96 76.9,97.07 86.19,129.96 113.77,148.49 
	146.7,148.49 167.08,97.07 "/>
<polyline fill="#231F20" points="93.1,97.07 76.9,97.07 86.19,129.96 113.77,148.49 93.1,97.07 "/>
<polyline fill="#3E3D3F" points="149.3,46.61 167.08,97.07 183.09,97.07 174.5,64.14 169.77,60.85 152.43,48.79 149.3,46.61 "/>
<polyline fill="#515254" points="149.3,46.61 116.55,46.61 113.77,46.61 93.1,97.07 167.08,97.07 149.3,46.61 "/>
<polyline fill="#3E3D3F" points="113.77,46.61 111.09,48.48 93.64,60.69 88.71,64.14 76.9,97.07 93.1,97.07 113.77,46.61 "/>
<circle fill="#FFFFFF" cx="126.27" cy="88.59" r="3.08"/>
<circle fill="#FFFFFF" cx="135.68" cy="88.59" r="3.08"/>
<circle fill="#231F20" cx="131.01" cy="118.97" r="1.94"/>
<path fill="#231F20" d="M130.46,104.83v13.12c0,0.28,0.23,0.52,0.51,0.52c0.28,0,0.52-0.23,0.52-0.52v-13.12
	c0-0.28-0.23-0.51-0.52-0.51C130.69,104.32,130.46,104.55,130.46,104.83"/>
<polygon fill="#231F20" points="143.36,97.09 130.98,109.47 118.6,97.09 "/>
<path fill="#636467" d="M119.61,1.85l0,0.04c0,0.42-0.07,0.74-0.17,1.02c-0.19,0.5-0.53,0.94-1.06,1.43
	c-0.39,0.36-0.88,0.73-1.41,1.14c-0.79,0.61-1.69,1.28-2.46,2.25c-0.38,0.48-0.72,1.05-0.95,1.69c-0.24,0.64-0.37,1.36-0.37,2.13
	l0,0.08l0-0.02c0.01,0.79,0.15,1.52,0.4,2.18c0.44,1.15,1.2,2.01,1.95,2.68c0.57,0.51,1.15,0.92,1.68,1.32
	c0.8,0.58,1.48,1.11,1.9,1.64c0.21,0.26,0.36,0.52,0.47,0.81c0.11,0.29,0.17,0.61,0.18,1.02v-0.01l0,0.04
	c0,0.42-0.07,0.74-0.17,1.02c-0.19,0.5-0.53,0.94-1.06,1.43c-0.39,0.36-0.88,0.73-1.41,1.14c-0.79,0.61-1.69,1.28-2.46,2.25
	c-0.38,0.48-0.72,1.05-0.95,1.69c-0.24,0.64-0.37,1.36-0.37,2.13l0,0.07l0-0.01c0.01,0.79,0.15,1.52,0.4,2.18
	c0.44,1.15,1.2,2.01,1.95,2.68c0.57,0.51,1.15,0.92,1.68,1.32c0.8,0.58,1.48,1.11,1.9,1.64c0.21,0.26,0.36,0.52,0.47,0.81
	c0.11,0.29,0.17,0.61,0.18,1.02c0.01,0.9,0.74,1.62,1.64,1.61c0.9-0.01,1.62-0.74,1.61-1.64c-0.01-0.79-0.15-1.52-0.4-2.18
	c-0.44-1.15-1.2-2.01-1.95-2.68c-0.57-0.51-1.15-0.92-1.68-1.32c-0.8-0.58-1.48-1.11-1.9-1.64c-0.21-0.26-0.36-0.52-0.47-0.81
	c-0.11-0.29-0.17-0.61-0.18-1.02l0-0.01l0-0.02c0-0.42,0.07-0.74,0.17-1.03c0.19-0.5,0.53-0.94,1.06-1.43
	c0.39-0.36,0.88-0.73,1.41-1.14c0.79-0.61,1.69-1.28,2.46-2.25c0.38-0.48,0.72-1.05,0.95-1.69c0.24-0.64,0.37-1.36,0.37-2.13l0-0.05
	v-0.01c-0.01-0.79-0.15-1.52-0.4-2.18c-0.44-1.15-1.2-2.01-1.95-2.68c-0.57-0.51-1.15-0.92-1.68-1.32c-0.8-0.58-1.48-1.11-1.9-1.64
	c-0.21-0.26-0.36-0.52-0.47-0.81c-0.11-0.29-0.17-0.61-0.18-1.02l0-0.02l0-0.02c0-0.42,0.07-0.74,0.17-1.02
	c0.19-0.5,0.53-0.94,1.06-1.43c0.39-0.36,0.88-0.73,1.41-1.14c0.79-0.61,1.69-1.28,2.46-2.25c0.38-0.48,0.72-1.05,0.95-1.69
	c0.24-0.64,0.37-1.36,0.37-2.13l0-0.05c0-0.9-0.74-1.62-1.63-1.62C120.33,0.22,119.6,0.95,119.61,1.85L119.61,1.85z"/>
<path fill="#636467" d="M132.18,1.74l0,0.04c0,0.42-0.07,0.74-0.17,1.02c-0.19,0.5-0.53,0.94-1.06,1.43
	c-0.39,0.36-0.88,0.73-1.41,1.14c-0.79,0.61-1.69,1.28-2.46,2.25c-0.38,0.48-0.72,1.05-0.95,1.69c-0.24,0.64-0.37,1.36-0.37,2.13
	l0,0.08l1.63-0.03l-1.63,0.01c0.01,0.79,0.15,1.52,0.4,2.18c0.44,1.15,1.2,2.01,1.95,2.68c0.57,0.51,1.15,0.92,1.68,1.32
	c0.8,0.58,1.48,1.11,1.9,1.64c0.21,0.26,0.36,0.52,0.47,0.81c0.11,0.29,0.17,0.61,0.18,1.02v-0.01l0,0.04
	c0,0.42-0.07,0.74-0.17,1.02c-0.19,0.5-0.53,0.94-1.06,1.43c-0.39,0.36-0.88,0.73-1.41,1.14c-0.79,0.61-1.69,1.28-2.46,2.25
	c-0.38,0.48-0.72,1.05-0.95,1.69c-0.24,0.64-0.37,1.36-0.37,2.13l0,0.08l1.63-0.03l-1.63,0.01c0.01,0.79,0.15,1.52,0.4,2.18
	c0.44,1.15,1.2,2.01,1.95,2.68c0.57,0.51,1.15,0.92,1.68,1.32c0.8,0.58,1.48,1.11,1.9,1.64c0.21,0.26,0.36,0.52,0.47,0.81
	c0.11,0.29,0.17,0.61,0.18,1.02c0.01,0.9,0.74,1.62,1.64,1.61c0.9-0.01,1.62-0.74,1.61-1.64c-0.01-0.79-0.15-1.52-0.4-2.18
	c-0.44-1.15-1.2-2.01-1.95-2.68c-0.57-0.51-1.15-0.92-1.68-1.32c-0.8-0.58-1.48-1.11-1.9-1.64c-0.21-0.26-0.36-0.52-0.47-0.81
	c-0.11-0.29-0.17-0.61-0.18-1.02l0-0.02l0-0.01c0-0.42,0.07-0.74,0.17-1.03c0.19-0.5,0.53-0.94,1.06-1.43
	c0.39-0.36,0.88-0.73,1.41-1.14c0.79-0.61,1.69-1.28,2.46-2.25c0.38-0.48,0.72-1.05,0.95-1.69c0.24-0.64,0.37-1.36,0.37-2.13l0-0.05
	v-0.01c-0.01-0.79-0.15-1.52-0.4-2.18c-0.44-1.15-1.2-2.01-1.95-2.68c-0.57-0.51-1.15-0.92-1.68-1.32c-0.8-0.58-1.48-1.11-1.9-1.64
	c-0.21-0.26-0.36-0.52-0.47-0.81c-0.11-0.29-0.17-0.61-0.18-1.02l0-0.02l0-0.01c0-0.42,0.07-0.74,0.17-1.02
	c0.19-0.5,0.53-0.94,1.06-1.43c0.39-0.36,0.88-0.73,1.41-1.14c0.79-0.61,1.69-1.28,2.46-2.25c0.38-0.48,0.72-1.05,0.95-1.69
	c0.24-0.64,0.37-1.36,0.37-2.13l0-0.05c0-0.9-0.74-1.62-1.63-1.62C132.9,0.11,132.18,0.84,132.18,1.74L132.18,1.74z"/>
<path fill="#636467" d="M144.75,1.63l0,0.04c0,0.42-0.07,0.74-0.17,1.02c-0.19,0.5-0.53,0.94-1.06,1.43
	c-0.39,0.36-0.88,0.73-1.41,1.14c-0.79,0.61-1.69,1.28-2.46,2.25c-0.38,0.48-0.72,1.05-0.95,1.69c-0.24,0.64-0.37,1.36-0.37,2.13
	l0,0.09l1.63-0.04l-1.63,0.01c0.01,0.79,0.15,1.52,0.4,2.18c0.44,1.15,1.2,2.01,1.95,2.68c0.57,0.51,1.15,0.92,1.68,1.32
	c0.8,0.58,1.48,1.11,1.9,1.64c0.21,0.26,0.36,0.52,0.47,0.81c0.11,0.29,0.17,0.61,0.18,1.02v-0.01l0,0.04
	c0,0.42-0.07,0.74-0.17,1.02c-0.19,0.5-0.53,0.94-1.06,1.43c-0.39,0.36-0.88,0.73-1.41,1.14c-0.79,0.61-1.69,1.28-2.46,2.25
	c-0.38,0.48-0.72,1.05-0.95,1.69c-0.24,0.64-0.37,1.36-0.37,2.13l0,0.09l1.63-0.04l-1.63,0.01c0.01,0.79,0.15,1.52,0.4,2.18
	c0.44,1.15,1.2,2.01,1.95,2.68c0.57,0.51,1.15,0.92,1.68,1.32c0.8,0.58,1.48,1.11,1.9,1.64c0.21,0.26,0.36,0.52,0.47,0.81
	c0.11,0.29,0.17,0.61,0.18,1.02c0.01,0.9,0.74,1.62,1.64,1.61c0.9-0.01,1.62-0.74,1.61-1.64c-0.01-0.79-0.15-1.52-0.4-2.18
	c-0.44-1.15-1.2-2.01-1.95-2.68c-0.57-0.51-1.15-0.92-1.68-1.32c-0.8-0.58-1.48-1.11-1.9-1.64c-0.21-0.26-0.36-0.52-0.47-0.81
	c-0.11-0.29-0.17-0.61-0.18-1.02l0-0.03l-0.19,0l0.19,0l0,0l-0.19,0l0.19,0l0-0.01c0-0.42,0.07-0.74,0.17-1.03
	c0.19-0.5,0.53-0.94,1.06-1.43c0.39-0.36,0.88-0.73,1.41-1.14c0.79-0.61,1.69-1.28,2.46-2.25c0.38-0.48,0.72-1.05,0.95-1.69
	c0.24-0.64,0.37-1.36,0.37-2.13l0-0.05v-0.01c-0.01-0.79-0.15-1.52-0.4-2.18c-0.44-1.15-1.2-2.01-1.95-2.68
	c-0.57-0.51-1.15-0.92-1.68-1.32c-0.8-0.58-1.48-1.11-1.9-1.64c-0.21-0.26-0.36-0.52-0.47-0.81c-0.11-0.29-0.17-0.61-0.18-1.02
	l0-0.03l-0.21,0.01l0.21,0l0,0l-0.21,0.01l0.21,0l0-0.01c0-0.42,0.07-0.74,0.17-1.02c0.19-0.5,0.53-0.94,1.06-1.43
	c0.39-0.36,0.88-0.73,1.41-1.14c0.79-0.61,1.69-1.28,2.46-2.25c0.38-0.48,0.72-1.05,0.95-1.69c0.24-0.64,0.37-1.36,0.37-2.13l0-0.05
	c0-0.9-0.74-1.62-1.63-1.62C145.47,0,144.75,0.74,144.75,1.63L144.75,1.63z"/>
</svg>
