<?xml version="1.0" encoding="utf-8"?>
<!-- Generator: Adobe Illustrator 17.0.0, SVG Export Plug-In . SVG Version: 6.00 Build 0)  -->
<!DOCTYPE svg PUBLIC "-//W3C//DTD SVG 1.1//EN" "http://www.w3.org/Graphics/SVG/1.1/DTD/svg11.dtd">
<svg version="1.1" id="Layer_1" xmlns="http://www.w3.org/2000/svg" xmlns:xlink="http://www.w3.org/1999/xlink" x="0px" y="0px"
	 width="238.83px" height="308.65px" viewBox="0 0 238.83 308.65" enable-background="new 0 0 238.83 308.65" xml:space="preserve">
<path fill="#396DB4" d="M43.95,135.94c5.64,11.72,48.01-8.86,42.36-20.57L44.77,29.91c-3.85-8-11.64-12.83-19.93-13.29l1.93,7.38
	l-5.46-7.31c-1.73,0.17-3.46,0.53-5.16,1.1l2.63,10.06l-6.33-8.47c-1.51,0.81-2.89,1.75-4.15,2.82l2.48,9.5l-5.13-6.86
	c-5.87,6.88-7.49,16.84-3.31,25.52L43.95,135.94z"/>
<path fill="#396DB4" d="M194.88,135.94c-5.64,11.72-48.01-8.86-42.36-20.57l41.55-85.46c3.85-8,11.64-12.83,19.93-13.29l-1.93,7.38
	l5.46-7.31c1.73,0.17,3.46,0.53,5.16,1.1l-2.63,10.06l6.33-8.47c1.51,0.81,2.89,1.75,4.15,2.82l-2.48,9.5l5.13-6.86
	c5.87,6.88,7.49,16.84,3.31,25.52L194.88,135.94z"/>
<path fill="#335CA2" d="M125.42,266.11c-0.04,13.53,10.9,24.53,24.43,24.56l0,0c13.53,0.04,24.53-10.9,24.56-24.43l0.16-57.74
	c0.04-13.53-10.9-24.53-24.43-24.56l0,0c-13.53-0.04-24.53,10.9-24.56,24.43L125.42,266.11z"/>
<path opacity="0.27" fill="#396DB4" d="M150.46,183.96c13.38,0.21,24.15,11.13,24.11,24.56l-0.16,57.74
	c-0.04,13.42-10.86,24.28-24.23,24.42L150.46,183.96z"/>
<path fill="#335CA2" d="M114.12,284.09c0.04,13.53-10.9,24.53-24.43,24.56l0,0c-13.53,0.04-24.53-10.9-24.56-24.43l-0.16-57.74
	c-0.04-13.53,10.9-24.53,24.43-24.56l0,0c13.53-0.04,24.53,10.9,24.56,24.43L114.12,284.09z"/>
<path opacity="0.27" fill="#396DB4" d="M89.07,201.93c-13.38,0.21-24.15,11.13-24.11,24.56l0.16,57.74
	c0.04,13.42,10.86,24.28,24.23,24.42L89.07,201.93z"/>
<polygon fill="#396DB4" points="216.6,174.96 216.6,174.96 200.88,114.69 154.74,82.6 89.7,82.6 43.85,114.69 22.23,174.96 
	39.22,235.18 89.7,269.1 149.98,269.1 199.14,235.18 "/>
<polygon opacity="0.18" fill="#396DB4" points="187.3,174.96 154.74,82.6 89.7,82.6 43.85,114.69 22.23,174.96 39.22,235.18 
	89.7,269.1 149.98,269.1 "/>
<polygon fill="#3663AE" points="89.7,269.1 39.22,235.18 22.23,174.96 43.85,114.69 89.7,82.6 89.7,82.6 51.88,174.96 89.7,269.1 
	"/>
<polygon fill="#396DB4" points="118.8,174.96 118.8,174.96 118.8,174.96 118.8,174.96 118.8,174.96 118.8,174.96 "/>
<polygon opacity="0.27" fill="#396DB4" points="22.23,174.96 43.85,114.69 89.7,82.6 154.74,82.6 200.88,114.69 216.6,174.96 
	216.6,174.96 "/>
<path fill="#3663AE" d="M109.23,25.29c0.01-0.12,0.28-9.68,0.29-9.8c0.24-8.32-6.32-15.25-14.63-15.48
	C86.57-0.23,79.64,6.32,79.4,14.64c0,0.12-0.27,9.68-0.27,9.8L109.23,25.29z"/>
<path fill="#396DB4" d="M104.38,25.74c0-0.09,0.23-7.81,0.23-7.9c0.19-6.71-4.23-12.27-9.88-12.43
	c-5.64-0.16-10.37,5.15-10.56,11.85c0,0.09-0.22,7.81-0.22,7.9L104.38,25.74z"/>
<path fill="#3663AE" d="M165.82,25.29c0.01-0.12,0.28-9.68,0.29-9.8c0.24-8.32-6.32-15.25-14.63-15.48
	c-8.32-0.24-15.25,6.32-15.48,14.63c0,0.12-0.27,9.68-0.27,9.8L165.82,25.29z"/>
<path fill="#396DB4" d="M160.97,25.74c0-0.09,0.23-7.81,0.23-7.9c0.19-6.71-4.23-12.27-9.88-12.43
	c-5.64-0.16-10.37,5.15-10.56,11.85c0,0.09-0.22,7.81-0.22,7.9L160.97,25.74z"/>
<polygon fill="#396DB4" points="174.58,58.15 174.58,58.15 165.89,24.83 140.38,7.09 104.42,7.09 79.07,24.83 67.12,58.15 
	76.51,91.44 104.42,110.2 137.75,110.2 164.92,91.44 "/>
<polygon opacity="0.18" fill="#396DB4" points="158.38,58.15 140.38,7.09 104.42,7.09 79.07,24.83 67.12,58.15 76.51,91.44 
	104.42,110.2 137.75,110.2 "/>
<polygon fill="#3663AE" points="104.42,110.2 76.51,91.44 67.12,58.15 79.07,24.83 104.42,7.09 104.42,7.09 83.51,58.15 
	104.42,110.2 "/>
<polygon fill="#396DB4" points="120.51,58.15 120.51,58.15 120.51,58.15 120.51,58.15 120.51,58.15 120.51,58.15 "/>
<polygon opacity="0.27" fill="#396DB4" points="67.12,58.15 79.07,24.83 104.42,7.09 140.38,7.09 165.89,24.83 174.58,58.15 
	174.58,58.15 "/>
<circle fill="#FFFFFF" cx="117.08" cy="49.57" r="3.11"/>
<circle fill="#FFFFFF" cx="126.6" cy="49.57" r="3.11"/>
<path fill="#231F20" d="M121.32,66.01v13.28c0,0.29,0.23,0.52,0.52,0.52c0.29,0,0.52-0.23,0.52-0.52V66.01
	c0-0.29-0.23-0.52-0.52-0.52C121.55,65.49,121.32,65.72,121.32,66.01"/>
<polygon fill="#231F20" points="134.37,58.17 121.84,70.7 109.31,58.17 "/>
<path fill="#231F20" d="M130.47,76.47c-5.12,3.69-12.03,3.69-17.15,0c-0.33-0.24-0.78-0.22-1.01,0.07
	c-0.23,0.29-0.14,0.75,0.23,1.01c5.58,4.03,13.13,4.03,18.71,0c0.37-0.26,0.46-0.74,0.23-1.01
	C131.24,76.25,130.8,76.23,130.47,76.47"/>
</svg>
