<?xml version="1.0" encoding="utf-8"?>
<!-- Generator: Adobe Illustrator 17.0.0, SVG Export Plug-In . SVG Version: 6.00 Build 0)  -->
<!DOCTYPE svg PUBLIC "-//W3C//DTD SVG 1.1//EN" "http://www.w3.org/Graphics/SVG/1.1/DTD/svg11.dtd">
<svg version="1.1" id="Layer_1" xmlns="http://www.w3.org/2000/svg" xmlns:xlink="http://www.w3.org/1999/xlink" x="0px" y="0px"
	 width="217.126px" height="280.603px" viewBox="0.526 0 217.126 280.603" enable-background="new 0.526 0 217.126 280.603"
	 xml:space="preserve">
<path fill="#386CB4" d="M40.482,123.59c5.131,10.652,43.644-8.053,38.513-18.705L41.224,27.188
	C37.72,19.912,30.64,15.521,23.11,15.101l1.752,6.706l-4.965-6.644c-1.574,0.15-3.148,0.484-4.695,0.999l2.39,9.145l-5.754-7.701
	c-1.37,0.732-2.631,1.592-3.773,2.562l2.257,8.638l-4.66-6.236c-5.339,6.255-6.81,15.312-3.012,23.197L40.482,123.59"/>
<path fill="#386CB4" d="M177.696,123.59c-5.131,10.652-43.643-8.053-38.513-18.705l37.771-77.698
	c3.504-7.276,10.584-11.667,18.115-12.087l-1.752,6.706l4.965-6.644c1.575,0.15,3.148,0.484,4.695,0.999l-2.39,9.145l5.754-7.701
	c1.37,0.732,2.631,1.592,3.773,2.562l-2.257,8.638l4.66-6.236c5.339,6.255,6.81,15.312,3.012,23.197L177.696,123.59"/>
<path fill="#325BA1" d="M114.551,241.932c-0.035,12.299,9.907,22.298,22.206,22.333c12.299,0.035,22.298-9.907,22.333-22.206
	l0.15-52.492c0.035-12.299-9.907-22.298-22.206-22.333c-12.299-0.035-22.297,9.907-22.333,22.206L114.551,241.932"/>
<path fill="#C9D7EB" d="M158.853,245.249c0,0.001,0,0.002,0,0.003C158.853,245.251,158.853,245.251,158.853,245.249
	 M158.859,245.211c-0.001,0.004-0.001,0.008-0.002,0.011C158.858,245.219,158.858,245.215,158.859,245.211 M158.864,245.175
	c-0.001,0.005-0.002,0.012-0.002,0.017C158.862,245.186,158.863,245.18,158.864,245.175 M158.87,245.136
	c-0.001,0.008-0.002,0.016-0.003,0.024C158.867,245.152,158.868,245.144,158.87,245.136 M158.875,245.099
	c-0.001,0.01-0.003,0.02-0.004,0.03C158.872,245.119,158.873,245.109,158.875,245.099 M159.126,229.296L159.126,229.296
	l-0.036,12.764c-0.003,1.031-0.076,2.045-0.214,3.039c0.139-0.993,0.211-2.008,0.214-3.039L159.126,229.296"/>
<path fill="#3E6EB3" d="M159.126,229.296l-22.013,15.19l-0.053,19.773c11.078-0.117,20.227-8.323,21.793-19.006
	c0-0.001,0-0.002,0-0.003c0.001-0.009,0.003-0.018,0.004-0.027c0.001-0.004,0.001-0.008,0.002-0.011
	c0.001-0.007,0.002-0.013,0.003-0.02c0.001-0.005,0.002-0.012,0.002-0.017c0.001-0.005,0.001-0.009,0.002-0.014
	c0.001-0.008,0.002-0.016,0.003-0.024c0-0.002,0.001-0.005,0.001-0.007c0.001-0.01,0.003-0.02,0.004-0.03c0-0.001,0-0.001,0-0.001
	c0.138-0.993,0.211-2.008,0.214-3.039L159.126,229.296"/>
<path fill="#325BA1" d="M104.272,258.27c0.035,12.299-9.907,22.298-22.206,22.333c-12.299,0.035-22.298-9.907-22.333-22.206
	l-0.15-52.492c-0.035-12.299,9.907-22.298,22.206-22.333c12.299-0.035,22.298,9.907,22.333,22.206L104.272,258.27"/>
<path fill="#C9D7EB" d="M59.975,261.621c0,0.001,0,0.003,0.001,0.005C59.975,261.624,59.975,261.622,59.975,261.621 M59.969,261.583
	c0.001,0.004,0.001,0.008,0.002,0.012C59.97,261.591,59.97,261.587,59.969,261.583 M59.964,261.546
	c0.001,0.006,0.002,0.012,0.003,0.018C59.965,261.558,59.965,261.553,59.964,261.546 M59.958,261.508
	c0.001,0.008,0.002,0.017,0.004,0.025C59.961,261.525,59.959,261.516,59.958,261.508 M59.953,261.472
	c0.001,0.01,0.003,0.021,0.004,0.031C59.956,261.493,59.955,261.482,59.953,261.472 M59.659,232.189l0.075,26.208
	c0.003,1.043,0.078,2.069,0.219,3.073c-0.142-1.004-0.216-2.03-0.219-3.073L59.659,232.189"/>
<path fill="#3E6EB3" d="M59.652,229.578l0.007,2.611l0.075,26.208c0.003,1.043,0.078,2.069,0.219,3.073c0,0.001,0,0.001,0,0.002
	c0.001,0.01,0.003,0.021,0.004,0.031c0,0.002,0,0.003,0.001,0.005c0.001,0.008,0.002,0.017,0.004,0.025
	c0.001,0.004,0.001,0.009,0.002,0.013c0.001,0.007,0.002,0.012,0.003,0.018c0.001,0.006,0.002,0.013,0.003,0.018
	c0.001,0.004,0.001,0.008,0.002,0.012c0.001,0.009,0.002,0.017,0.004,0.025c0,0.001,0,0.003,0.001,0.005
	c1.581,10.666,10.722,18.854,21.788,18.97l-0.096-36.225L59.652,229.578"/>
<polyline fill="#386CB4" points="197.443,159.064 183.151,104.27 141.206,75.098 82.078,75.098 40.388,104.27 20.735,159.064 
	36.184,213.809 82.078,244.647 136.878,244.647 181.569,213.809 197.443,159.064 "/>
<polyline fill="#4077BE" points="40.388,104.27 20.735,159.064 36.184,213.809 82.078,244.647 136.878,244.647 170.805,159.064 
	47.696,159.064 82.078,244.647 36.184,213.809 20.735,159.064 40.388,104.27 "/>
<polyline fill="#3562AD" points="82.078,244.647 36.184,213.809 20.735,159.064 40.388,104.27 82.078,75.098 47.696,159.064 
	82.078,244.647 "/>
<polyline fill="#C9D7EB" points="184.526,109.541 184.526,109.541 197.443,159.064 184.526,109.541 "/>
<polyline fill="#447DC2" points="150.848,81.804 150.848,81.804 183.151,104.27 184.526,109.541 184.526,109.541 183.152,104.27 
	150.848,81.804 "/>
<polyline fill="#447DC2" points="150.848,81.804 150.463,83.133 145.295,86.698 170.805,159.064 197.443,159.064 184.526,109.541 
	183.151,104.27 150.848,81.804 "/>
<polyline fill="#4B87CA" points="145.295,86.698 125.755,100.182 95.458,100.182 76.911,87.719 47.696,159.064 170.805,159.064 
	145.295,86.698 "/>
<polyline fill="#4174BD" points="70.346,83.308 40.388,104.27 20.735,159.064 47.696,159.064 76.911,87.719 70.346,83.308 "/>
<path fill="#3562AD" d="M99.831,22.989c0.006-0.106,0.257-8.802,0.26-8.909c0.214-7.56-5.742-13.862-13.302-14.075
	c-7.56-0.214-13.862,5.742-14.075,13.301c-0.003,0.106-0.243,8.803-0.244,8.909L99.831,22.989"/>
<path fill="#386CB4" d="M95.42,23.401l0.209-7.184c0.172-6.097-3.848-11.157-8.979-11.302c-5.131-0.145-9.43,4.68-9.603,10.777
	l-0.198,7.185L95.42,23.401"/>
<path fill="#3562AD" d="M151.28,22.989c0.006-0.106,0.257-8.802,0.26-8.909c0.214-7.56-5.742-13.862-13.302-14.075
	c-7.56-0.214-13.862,5.742-14.075,13.301c-0.003,0.106-0.243,8.803-0.244,8.909L151.28,22.989"/>
<path fill="#386CB4" d="M146.87,23.401l0.209-7.184c0.172-6.097-3.848-11.157-8.979-11.302c-5.131-0.145-9.43,4.68-9.603,10.777
	l-0.198,7.185L146.87,23.401"/>
<polyline fill="#386CB4" points="159.24,52.866 151.338,22.572 128.148,6.445 95.458,6.445 72.41,22.572 61.544,52.866 
	70.085,83.133 95.458,100.182 125.755,100.182 150.463,83.133 159.24,52.866 "/>
<polyline fill="#4077BE" points="72.41,22.572 61.544,52.866 70.085,83.133 95.458,100.182 125.755,100.182 144.512,52.866 
	76.45,52.866 95.458,100.182 70.085,83.133 61.544,52.866 72.41,22.572 "/>
<polyline fill="#3562AD" points="95.458,100.182 70.085,83.133 61.544,52.866 72.41,22.572 95.458,6.445 76.45,52.866 
	95.458,100.182 "/>
<polyline fill="#447DC2" points="128.148,6.445 144.512,52.866 159.24,52.866 151.338,22.572 146.982,19.543 131.03,8.449 
	128.148,6.445 "/>
<polyline fill="#4B87CA" points="128.148,6.445 98.021,6.445 95.458,6.445 76.45,52.866 144.512,52.866 128.148,6.445 "/>
<polyline fill="#4174BD" points="95.458,6.445 72.41,22.572 61.544,52.866 76.45,52.866 95.458,6.445 "/>
<circle fill="#FFFFFF" cx="106.967" cy="45.066" r="2.831"/>
<circle fill="#FFFFFF" cx="115.623" cy="45.066" r="2.831"/>
<path fill="#231F20" d="M110.821,60.012v12.073c0,0.262,0.212,0.474,0.474,0.474s0.474-0.212,0.474-0.474V60.012
	c0-0.262-0.212-0.474-0.474-0.474S110.821,59.751,110.821,60.012"/>
<polygon fill="#231F20" points="122.687,52.885 111.295,64.277 99.902,52.885 "/>
<path fill="#231F20" d="M119.137,69.521c-4.65,3.354-10.939,3.354-15.59,0c-0.3-0.214-0.707-0.197-0.919,0.062
	c-0.212,0.26-0.123,0.681,0.209,0.922c5.074,3.66,11.935,3.66,17.009,0c0.333-0.24,0.421-0.669,0.209-0.922
	C119.844,69.324,119.437,69.307,119.137,69.521"/>
</svg>
