<?xml version="1.0" encoding="utf-8"?>
<!-- Generator: Adobe Illustrator 17.0.0, SVG Export Plug-In . SVG Version: 6.00 Build 0)  -->
<!DOCTYPE svg PUBLIC "-//W3C//DTD SVG 1.1//EN" "http://www.w3.org/Graphics/SVG/1.1/DTD/svg11.dtd">
<svg version="1.1" id="Layer_1" xmlns="http://www.w3.org/2000/svg" xmlns:xlink="http://www.w3.org/1999/xlink" x="0px" y="0px"
	 width="238.828px" height="308.65px" viewBox="0 0 238.828 308.65" enable-background="new 0 0 238.828 308.65"
	 xml:space="preserve">
<path fill="#396DB4" d="M43.949,135.944c5.643,11.716,48.006-8.858,42.362-20.575L44.766,29.905
	c-3.855-8.003-11.642-12.833-19.925-13.295l1.927,7.376l-5.461-7.308c-1.732,0.165-3.463,0.532-5.165,1.098l2.629,10.059l-6.33-8.47
	c-1.507,0.805-2.894,1.752-4.15,2.818l2.483,9.502l-5.126-6.859c-5.873,6.881-7.49,16.842-3.313,25.515L43.949,135.944z"/>
<path fill="#396DB4" d="M194.879,135.944c-5.643,11.716-48.006-8.858-42.362-20.575l41.546-85.464
	c3.855-8.003,11.642-12.833,19.925-13.295l-1.927,7.376l5.461-7.308c1.732,0.165,3.463,0.532,5.165,1.098l-2.629,10.059l6.33-8.47
	c1.507,0.805,2.894,1.752,4.15,2.818l-2.483,9.502l5.126-6.859c5.873,6.881,7.49,16.842,3.313,25.515L194.879,135.944z"/>
<path fill="#335CA2" d="M125.422,266.114c-0.039,13.528,10.897,24.526,24.425,24.565l0,0c13.528,0.039,24.526-10.897,24.565-24.425
	l0.165-57.738c0.039-13.528-10.897-24.526-24.425-24.565l0,0c-13.528-0.039-24.526,10.897-24.565,24.425L125.422,266.114z"/>
<path opacity="0.27" fill="#396DB4" d="M150.464,183.959c13.383,0.207,24.151,11.133,24.112,24.556l-0.164,57.738
	c-0.038,13.416-10.857,24.277-24.231,24.418L150.464,183.959z"/>
<path fill="#335CA2" d="M114.116,284.085c0.039,13.528-10.897,24.526-24.425,24.565l0,0c-13.528,0.039-24.526-10.897-24.565-24.425
	l-0.165-57.738c-0.039-13.528,10.897-24.526,24.425-24.565l0,0c13.528-0.039,24.526,10.897,24.565,24.425L114.116,284.085z"/>
<path opacity="0.27" fill="#396DB4" d="M89.073,201.93c-13.383,0.207-24.151,11.133-24.112,24.556l0.164,57.738
	c0.038,13.416,10.857,24.277,24.231,24.418L89.073,201.93z"/>
<polygon fill="#396DB4" points="216.599,174.963 216.599,174.963 200.879,114.692 154.741,82.605 89.703,82.605 43.846,114.692 
	22.229,174.963 39.222,235.18 89.703,269.101 149.98,269.101 199.138,235.18 "/>
<polygon opacity="0.18" fill="#396DB4" points="187.299,174.963 154.741,82.605 89.703,82.605 43.846,114.692 22.229,174.963 
	39.222,235.18 89.703,269.101 149.98,269.101 "/>
<polygon fill="#3663AE" points="89.703,269.101 39.222,235.18 22.229,174.963 43.846,114.692 89.703,82.605 89.703,82.605 
	51.885,174.963 89.703,269.101 "/>
<polygon fill="#396DB4" points="118.802,174.963 118.802,174.963 118.802,174.963 118.802,174.963 118.802,174.963 118.802,174.963 
	"/>
<polygon opacity="0.27" fill="#396DB4" points="22.229,174.963 43.846,114.692 89.703,82.605 154.741,82.605 200.879,114.692 
	216.599,174.963 216.599,174.963 "/>
<path fill="#3663AE" d="M109.23,25.287c0.006-0.116,0.283-9.682,0.286-9.799c0.235-8.315-6.315-15.247-14.631-15.482
	c-8.315-0.235-15.247,6.315-15.482,14.631c-0.003,0.117-0.267,9.683-0.268,9.799L109.23,25.287z"/>
<path fill="#396DB4" d="M104.379,25.74c0.005-0.094,0.227-7.808,0.229-7.903c0.19-6.706-4.232-12.272-9.876-12.431
	c-5.644-0.16-10.373,5.148-10.562,11.854c-0.003,0.094-0.217,7.809-0.217,7.903L104.379,25.74z"/>
<path fill="#3663AE" d="M165.822,25.287c0.006-0.116,0.283-9.682,0.286-9.799c0.235-8.315-6.316-15.247-14.631-15.482
	c-8.315-0.235-15.247,6.315-15.482,14.631c-0.003,0.117-0.268,9.683-0.268,9.799L165.822,25.287z"/>
<path fill="#396DB4" d="M160.971,25.74c0.005-0.094,0.227-7.808,0.229-7.903c0.19-6.706-4.232-12.272-9.876-12.431
	c-5.644-0.16-10.373,5.148-10.562,11.854c-0.003,0.094-0.217,7.809-0.217,7.903L160.971,25.74z"/>
<polygon fill="#396DB4" points="174.577,58.15 174.577,58.15 165.886,24.828 140.378,7.089 104.421,7.089 79.068,24.828 
	67.117,58.15 76.512,91.442 104.421,110.195 137.746,110.195 164.923,91.442 "/>
<polygon opacity="0.18" fill="#396DB4" points="158.378,58.15 140.378,7.089 104.421,7.089 79.068,24.828 67.117,58.15 
	76.512,91.442 104.421,110.195 137.746,110.195 "/>
<polygon fill="#3663AE" points="104.421,110.195 76.512,91.442 67.117,58.15 79.068,24.828 104.421,7.089 104.421,7.089 
	83.513,58.15 104.421,110.195 "/>
<polygon fill="#396DB4" points="120.508,58.15 120.508,58.15 120.508,58.15 120.508,58.15 120.508,58.15 120.508,58.15 "/>
<polygon opacity="0.27" fill="#396DB4" points="67.117,58.15 79.068,24.828 104.421,7.089 140.378,7.089 165.886,24.828 
	174.577,58.15 174.577,58.15 "/>
<circle fill="#FFFFFF" cx="117.079" cy="49.571" r="3.114"/>
<circle fill="#FFFFFF" cx="126.601" cy="49.571" r="3.114"/>
<path fill="#231F20" d="M121.319,66.011v13.28c0,0.288,0.233,0.521,0.521,0.521c0.288,0,0.521-0.233,0.521-0.521v-13.28
	c0-0.288-0.233-0.521-0.521-0.521C121.552,65.49,121.319,65.723,121.319,66.011"/>
<polygon fill="#231F20" points="134.371,58.171 121.84,70.702 109.309,58.171 "/>
<path fill="#231F20" d="M130.466,76.47c-5.115,3.689-12.033,3.689-17.148,0c-0.33-0.236-0.778-0.217-1.011,0.069
	c-0.233,0.286-0.135,0.75,0.23,1.014c5.581,4.026,13.128,4.026,18.709,0c0.366-0.264,0.463-0.736,0.23-1.014
	C131.244,76.254,130.796,76.235,130.466,76.47"/>
</svg>
