<?xml version="1.0" encoding="utf-8"?>
<!-- Generator: Adobe Illustrator 17.0.0, SVG Export Plug-In . SVG Version: 6.00 Build 0)  -->
<!DOCTYPE svg PUBLIC "-//W3C//DTD SVG 1.1//EN" "http://www.w3.org/Graphics/SVG/1.1/DTD/svg11.dtd">
<svg version="1.1" xmlns="http://www.w3.org/2000/svg" xmlns:xlink="http://www.w3.org/1999/xlink" x="0px" y="0px"
	 width="768.729px" height="626.575px" viewBox="4.195 -0.175 768.729 626.575"
	 enable-background="new 4.195 -0.175 768.729 626.575" xml:space="preserve">
<g id="Layer_2" display="none">
</g>
<g id="Layer_1">
	<path fill="#559D6A" d="M771.332,234.733c-23.982-0.815-48.322-1.24-72.968-1.24c-383.379,0-694.169,101.067-694.169,225.739
		c0,66.271,87.817,125.871,227.671,167.168h539.466V234.733z"/>
	<path fill="#559D6A" d="M198.004,321.639c-22.599,0-42.138,16.292-45.611,38.622c-3.819,24.55,4.126,59.389,51.384,100.36
		c52.135,45.198,145.454,82.935,218.408,107.627c61.714,20.887,126.527,31.112,191.676,30.393l157.471-1.739V321.639H198.004z"/>
	<path fill="#F2F2F2" d="M742.687,328.954H191.068c-5.906,0-7.326,2.63-4.205,7.644c11.358,18.243-20.323,60.466,38.861,107.448
		c65.218,51.773,222.616,106.368,262.691,127.562c11.372,6.014,24.065,9.077,36.928,8.923l245.989-2.944V353.364L742.687,328.954z"
		/>
	<path fill="#D9D8D7" d="M435.843,494.405c-8.568,0-12.128,10.967-5.193,15.999l27.431,19.905c7.923,5.749,17.46,8.845,27.249,8.845
		h286.002v-44.749H435.843z"/>
	<polygon fill="#BDBEBF" points="500.847,84.274 288.751,38.289 288.751,335.823 500.847,486.857 771.332,486.857 771.332,187.622 	
		"/>
	<polygon fill="#D2D3D3" points="500.847,84.274 500.847,486.857 288.751,335.823 288.751,38.289 	"/>
	<polygon fill="#808184" points="500.847,66.103 266.766,24.935 266.766,38.289 500.847,91.292 771.332,200.925 771.332,178.547 	
		"/>
	<polygon fill="#E3F3F7" points="490.508,464.573 296.225,330.108 296.225,52.416 493.037,96.379 	"/>
	<polygon fill="#FFFFFF" points="490.508,464.573 296.225,330.108 296.225,330.108 493.037,183.521 	"/>
	<polygon fill="#E3F3F7" points="521.126,106.585 521.126,471.802 771.332,471.802 771.332,208.605 	"/>
	<polygon fill="#FFFFFF" points="521.126,471.802 768.594,471.802 521.126,171.475 	"/>
	<line fill="none" stroke="#BDBEBF" stroke-width="2" stroke-miterlimit="10" x1="514.803" y1="413.74" x2="772.52" y2="413.74"/>
	<path fill="none" stroke="#BDBEBF" stroke-width="2" stroke-miterlimit="10" d="M581.183,475.075"/>
	<path fill="none" stroke="#BDBEBF" stroke-width="2" stroke-miterlimit="10" d="M581.183,379.59"/>
	<polygon fill="#A7A8AB" points="500.847,66.103 500.847,91.292 266.766,38.289 266.766,24.935 	"/>
	<polygon fill="#559D6A" points="300.517,359.375 233.015,359.375 209.63,342.864 277.132,342.864 	"/>
	<polygon fill="#467E56" points="248.098,357.748 234.884,357.748 216.107,344.491 229.322,344.491 	"/>
	<polygon fill="#467E56" points="294.024,357.748 280.81,357.748 262.033,344.491 275.248,344.491 	"/>
	<polygon fill="#559D6A" points="334.267,382.987 266.766,382.987 239.624,364.061 307.125,364.061 	"/>
	<polygon fill="#559D6A" points="371.256,410.585 303.754,410.585 273.196,388.707 340.697,388.707 	"/>
	<polygon fill="#467E56" points="280.089,380.152 266.875,380.152 248.098,366.895 261.313,366.895 	"/>
	<polygon fill="#467E56" points="326.016,380.152 312.801,380.152 294.024,366.895 307.239,366.895 	"/>
	<polygon fill="#467E56" points="316.202,406.274 302.988,406.274 284.211,393.017 297.426,393.017 	"/>
	<polygon fill="#467E56" points="362.128,406.274 348.914,406.274 330.137,393.017 343.352,393.017 	"/>
	<polygon fill="#559D6A" points="464.579,480.863 397.077,480.863 308.511,416.292 376.013,416.292 	"/>
	<polygon fill="#ADD199" points="375.553,457.214 347.422,436.703 394.936,436.703 423.067,457.214 	"/>
	<polygon fill="#559D6A" points="585.661,572.912 518.159,572.912 481.36,549.646 548.861,549.646 	"/>
	<polygon fill="#467E56" points="526.695,567.246 513.48,567.246 494.703,553.989 507.918,553.989 	"/>
	<polygon fill="#467E56" points="572.621,567.246 559.406,567.246 540.629,553.989 553.844,553.989 	"/>
	<line fill="none" stroke="#D2D3D3" stroke-width="2" stroke-miterlimit="10" x1="292.65" y1="89.314" x2="497.544" y2="144.661"/>
	<line fill="none" stroke="#D2D3D3" stroke-width="2" stroke-miterlimit="10" x1="292.65" y1="141.766" x2="498.14" y2="201.185"/>
	<line fill="none" stroke="#D2D3D3" stroke-width="2" stroke-miterlimit="10" x1="292.65" y1="188.61" x2="497.544" y2="262.573"/>
	
		<line fill="none" stroke="#D2D3D3" stroke-width="2" stroke-miterlimit="10" x1="292.054" y1="238.252" x2="497.544" y2="328.954"/>
	<line fill="none" stroke="#D2D3D3" stroke-width="2" stroke-miterlimit="10" x1="292.054" y1="287.53" x2="493.037" y2="405.497"/>
	<line fill="none" stroke="#D2D3D3" stroke-width="2" stroke-miterlimit="10" x1="326.752" y1="59.235" x2="326.752" y2="353.628"/>
	<line fill="none" stroke="#D2D3D3" stroke-width="2" stroke-miterlimit="10" x1="377.437" y1="67.528" x2="377.437" y2="389.463"/>
	<line fill="none" stroke="#D2D3D3" stroke-width="2" stroke-miterlimit="10" x1="431.606" y1="81.071" x2="431.606" y2="430.815"/>
	
		<line fill="none" stroke="#BDBEBF" stroke-width="2" stroke-miterlimit="10" x1="514.803" y1="144.661" x2="623.406" y2="144.661"/>
	
		<line fill="none" stroke="#BDBEBF" stroke-width="2" stroke-miterlimit="10" x1="518.159" y1="201.185" x2="759.266" y2="201.185"/>
	
		<line fill="none" stroke="#BDBEBF" stroke-width="2" stroke-miterlimit="10" x1="514.803" y1="335.753" x2="771.332" y2="335.753"/>
	
		<line fill="none" stroke="#BDBEBF" stroke-width="2" stroke-miterlimit="10" x1="581.183" y1="127.585" x2="581.183" y2="475.075"/>
	<line fill="none" stroke="#BDBEBF" stroke-width="2" stroke-miterlimit="10" x1="648.283" y1="154.67" x2="648.283" y2="477.919"/>
	<line fill="none" stroke="#BDBEBF" stroke-width="2" stroke-miterlimit="10" x1="722.32" y1="188.61" x2="722.32" y2="475.075"/>
	<path fill="#E6E6E5" d="M203.939,353.628l207.845,160.148C411.784,513.776,176.265,446.014,203.939,353.628z"/>
	<path fill="#D2D3D3" d="M637.537,406.381v142.1c0,7.796-6.335,9.421-14.131,9.421c-3.898,0-7.431-0.412-9.998-1.79
		c-2.555-1.378-4.133-3.733-4.133-7.631v-142.1c0-7.807,6.324-14.131,14.131-14.131c3.898,0,7.431,1.578,9.986,4.133
		C635.947,398.938,637.537,402.471,637.537,406.381z"/>
	<path fill="#D2D3D3" d="M736.451,548.477c0,7.804-6.327,9.421-14.131,9.421l0,0c-7.804,0-14.131-1.616-14.131-9.421V406.381
		c0-7.804,6.327-14.131,14.131-14.131l0,0c7.804,0,14.131,6.327,14.131,14.131V548.477z"/>
	<polygon fill="#D2D3D3" points="604.342,403.252 505.993,353.628 505.993,294.171 604.342,343.795 	"/>
	<polygon fill="#E6E6E5" points="505.993,294.171 604.342,343.795 771.332,343.795 771.332,294.171 	"/>
	<ellipse fill="#BDBEBF" cx="664.792" cy="311.181" rx="80.861" ry="11.214"/>
	<path fill="#808184" d="M745.653,311.181c0,6.193-36.203,11.214-80.861,11.214v-22.428
		C709.45,299.968,745.653,304.988,745.653,311.181z"/>
	<path fill="#BDBEBF" d="M637.537,396.537v151.944c0,7.796-6.335,9.421-14.131,9.421V398.609L637.537,396.537z"/>
	<path fill="#BDBEBF" d="M736.451,398.609V548.48c0,7.796-6.335,9.421-14.131,9.421V400.682L736.451,398.609z"/>
	<rect x="604.342" y="343.795" fill="#808184" width="166.99" height="59.457"/>
	<path fill="#559D6A" d="M771.332,593.324H630.471c0,0,17.988,13.574,43.834,33.076h97.027V593.324z"/>
	<polygon fill="#F2F2F2" points="771.332,568.15 623.406,568.15 702.246,626.4 771.332,626.4 	"/>
	<polygon fill="#BDBEBF" points="771.332,334.433 660.698,351.497 660.698,570.333 739.433,626.4 771.332,626.4 	"/>
	<polygon fill="#D2D3D3" points="771.332,333.906 660.698,350.396 660.698,570.333 739.433,626.4 771.332,626.4 	"/>
	<polygon fill="#E3F3F7" points="771.332,343.631 668.172,357.666 668.172,564.617 757.439,626.4 771.332,626.4 	"/>
	<polygon fill="#FFFFFF" points="771.332,487.784 668.172,564.617 757.439,626.4 771.332,626.4 	"/>
	<polygon fill="#A7A8AB" points="638.713,337.155 638.713,357.592 771.332,339.581 771.332,316.452 	"/>
	
		<line fill="none" stroke="#D2D3D3" stroke-width="2" stroke-miterlimit="10" x1="746.064" y1="345.829" x2="771.517" y2="352.704"/>
	<line fill="none" stroke="#D2D3D3" stroke-width="2" stroke-miterlimit="10" x1="664.598" y1="376.275" x2="772.515" y2="407.48"/>
	<line fill="none" stroke="#D2D3D3" stroke-width="2" stroke-miterlimit="10" x1="664.598" y1="423.12" x2="772.52" y2="462.077"/>
	<line fill="none" stroke="#D2D3D3" stroke-width="2" stroke-miterlimit="10" x1="664.002" y1="472.762" x2="772.52" y2="520.661"/>
	
		<line fill="none" stroke="#D2D3D3" stroke-width="2" stroke-miterlimit="10" x1="698.699" y1="351.497" x2="698.699" y2="588.138"/>
	
		<line fill="none" stroke="#D2D3D3" stroke-width="2" stroke-miterlimit="10" x1="749.384" y1="343.933" x2="749.384" y2="623.973"/>
	<path fill="#D2D3D3" d="M322.226-0.175V0v34.689L437.63,54.985v-55.16C399.348-0.175,360.708-0.175,322.226-0.175z"/>
	<path fill="#697D82" d="M348.413,0.075l0.988,0.114l0-0.364c-0.329,0-0.659,0-0.988,0L348.413,0.075z"/>
	<path fill="#697D82" d="M353.195-0.175l0.262,0.838l1.062,0.124l0-0.962C354.078-0.175,353.637-0.175,353.195-0.175z"/>
	<path fill="#697D82" d="M357.911-0.175l0.227,1.386l1.158,0.136l0.276-1.522C359.018-0.175,358.465-0.175,357.911-0.175z"/>
	<path fill="#697D82" d="M364.135,0.13l0-0.305c-0.35,0-0.7,0-1.05,0l0.001,1.963l4.574,0.534l-0.001-1.801L364.135,0.13z"/>
	<path fill="#697D82" d="M369.023,2.481l0.989,0.115l-0.002-2.771c-0.33,0-0.659,0-0.989,0L369.023,2.481z"/>
	<path fill="#697D82" d="M374.246-0.175c0.005,0.124,0.008,0.245,0.013,0.37l-0.024,0.022c-0.028-0.129-0.06-0.262-0.09-0.392
		c-0.343,0-0.686,0-1.028,0l0.95,3.245l1.062,0.124l-0.003-3.369C374.833-0.175,374.539-0.175,374.246-0.175z"/>
	<path fill="#697D82" d="M378.505-0.175l0.003,3.765l1.061,0.124l-0.004-3.889C379.212-0.175,378.858-0.175,378.505-0.175z"/>
	<path fill="#697D82" d="M382.955-0.175l0.004,4.282l1.05,0.123l-0.004-4.405C383.655-0.175,383.305-0.175,382.955-0.175z"/>
	<path fill="#697D82" d="M391.363-0.175c-0.402,2.139-1.184,3.539-2.287,3.415c-1.022-0.115-1.773-1.491-2.198-3.415
		c-0.393,0-0.786,0-1.179,0c0.563,3.089,1.775,5.099,3.32,5.281c1.602,0.188,2.974-1.611,3.516-5.281
		C392.144-0.175,391.754-0.175,391.363-0.175z"/>
	<path fill="#697D82" d="M394.158,5.416l0.991,0.114l-0.007-5.705c-0.33,0-0.661,0-0.991,0L394.158,5.416z"/>
	<path fill="#697D82" d="M399.301-0.175c0.02,1.027,0.049,2.031,0.091,3.074l-0.024,0.024c-0.205-1.008-0.434-2.034-0.693-3.098
		c-0.385,0-0.77,0-1.154,0l1.682,6.179l1.062,0.124l-0.008-6.303C399.939-0.175,399.619-0.175,399.301-0.175z"/>
	<path fill="#697D82" d="M342.872,31.323c-0.674,0.479-2.024,0.798-3.752,0.396c-4.006-0.932-7.021-6.211-7.021-14.642
		c0-8.049,3.013-13.093,7.417-12.492c1.77,0.241,2.887,1.106,3.372,1.649l-0.442,2.748c-0.695-0.735-1.686-1.354-2.866-1.527
		c-3.329-0.488-5.541,3.068-5.541,9.867c0,6.338,2.003,10.856,5.46,11.626c1.118,0.249,2.256,0.067,2.993-0.443L342.872,31.323z"/>
	<path fill="#697D82" d="M352.522,21.478l-5.523-1.035l0.003,9.771l6.156,1.361l0.001,2.998l-7.99-1.847l-0.008-26.932l7.67,1.058
		l0.001,2.994l-5.837-0.864l0.003,8.566l5.522,0.98L352.522,21.478z"/>
	<path fill="#697D82" d="M355.542,35.124l-0.014-27.9L357.53,7.5l4.56,15.053c1.056,3.549,1.88,6.733,2.557,9.814l0.042-0.034
		c-0.171-3.874-0.216-7.379-0.219-11.856l-0.008-12.022l1.728,0.238l0.02,28.896l-1.855-0.429l-4.52-15.404
		c-0.992-3.322-1.943-6.699-2.661-9.853l-0.064,0.032c0.108,3.554,0.151,6.934,0.154,11.597l0.006,11.991L355.542,35.124z"/>
	<path fill="#697D82" d="M372.091,12.741l-4.32-0.64l-0.002-3.189l10.514,1.45l0.003,3.297l-4.341-0.643l0.022,26.368l-1.855-0.429
		L372.091,12.741z"/>
	<path fill="#697D82" d="M387.233,27.985l-5.523-1.035l0.01,10.94l6.156,1.361l0.004,3.349l-7.99-1.847l-0.028-30.174l7.67,1.058
		l0.003,3.345l-5.837-0.864l0.009,9.591l5.522,0.98L387.233,27.985z"/>
	<path fill="#697D82" d="M390.229,12.424c0.926-0.287,2.253-0.337,3.518-0.163c1.96,0.269,3.225,1.244,4.112,3.163
		c0.718,1.525,1.122,3.766,1.125,6.231c0.005,4.221-1.172,6.802-2.667,7.657v0.141c1.097,1.054,1.753,3.448,2.094,6.827
		c0.469,4.551,0.81,7.709,1.107,9.011l-1.897-0.439c-0.233-0.95-0.553-3.758-0.958-7.801c-0.427-4.463-1.188-6.254-2.853-6.712
		l-1.728-0.33l0.015,13.566l-1.834-0.424L390.229,12.424z M392.078,26.943l1.876,0.341c1.96,0.356,3.2-1.824,3.196-5.455
		c-0.005-4.104-1.335-6.09-3.273-6.421c-0.885-0.13-1.517-0.037-1.812,0.106L392.078,26.943z"/>
	<polygon fill="#A7A8AB" points="437.63,54.985 445.345,56.341 445.345,0 437.63,0 	"/>
	<polygon fill="#84B48F" points="759.372,621.726 751.145,626.4 767.34,626.4 	"/>
	<polygon fill="#84B48F" points="698.699,603.824 698.805,588.562 712.075,581.023 725.239,588.745 725.133,604.007 
		711.863,611.546 	"/>
	<circle fill="#559D6A" cx="705.84" cy="592.32" r="2.944"/>
	<circle fill="#559D6A" cx="713.2" cy="587.61" r="2.944"/>
	<circle fill="#559D6A" cx="713.2" cy="596.285" r="2.944"/>
	<circle fill="#559D6A" cx="720.658" cy="592.32" r="2.944"/>
	<circle fill="#559D6A" cx="706.233" cy="600.76" r="2.944"/>
	<circle fill="#559D6A" cx="713.2" cy="605.372" r="2.944"/>
	<circle fill="#559D6A" cx="719.775" cy="599.484" r="2.944"/>
	<rect x="666.941" y="569.547" fill="#C2986B" width="2.462" height="45.5"/>
	<polygon fill="#84B48F" points="654.902,577.086 655.008,561.825 668.278,554.286 681.442,562.008 681.336,577.27 668.066,584.809 
			"/>
	<circle fill="#559D6A" cx="662.043" cy="565.583" r="2.944"/>
	<circle fill="#559D6A" cx="669.403" cy="560.873" r="2.944"/>
	<circle fill="#559D6A" cx="669.403" cy="569.547" r="2.944"/>
	<circle fill="#559D6A" cx="676.861" cy="565.583" r="2.944"/>
	<circle fill="#559D6A" cx="662.436" cy="574.022" r="2.944"/>
	<circle fill="#559D6A" cx="669.403" cy="578.635" r="2.944"/>
	<circle fill="#559D6A" cx="675.978" cy="572.747" r="2.944"/>
	<rect x="532.279" y="516.72" fill="#C2986B" width="2.462" height="45.5"/>
	<polygon fill="#84B48F" points="520.241,524.26 520.346,508.998 533.616,501.459 546.78,509.181 546.674,524.443 533.405,531.982 	
		"/>
	<circle fill="#559D6A" cx="527.381" cy="512.756" r="2.944"/>
	<circle fill="#559D6A" cx="534.741" cy="508.046" r="2.944"/>
	<circle fill="#559D6A" cx="534.741" cy="516.72" r="2.944"/>
	<circle fill="#559D6A" cx="542.2" cy="512.756" r="2.944"/>
	<circle fill="#559D6A" cx="527.774" cy="521.196" r="2.944"/>
	<circle fill="#559D6A" cx="534.741" cy="525.808" r="2.944"/>
	<circle fill="#559D6A" cx="541.316" cy="519.92" r="2.944"/>
	<rect x="322.059" y="354.146" fill="#C2986B" width="2.462" height="45.5"/>
	<polygon fill="#84B48F" points="310.02,361.685 310.126,346.424 323.396,338.884 336.56,346.607 336.454,361.868 323.184,369.408 	
		"/>
	<circle fill="#559D6A" cx="315.881" cy="349.975" r="2.944"/>
	<circle fill="#559D6A" cx="323.241" cy="345.265" r="2.944"/>
	<circle fill="#559D6A" cx="323.241" cy="353.939" r="2.944"/>
	<circle fill="#559D6A" cx="330.699" cy="349.975" r="2.944"/>
	<circle fill="#559D6A" cx="316.273" cy="358.415" r="2.944"/>
	<circle fill="#559D6A" cx="323.241" cy="363.027" r="2.944"/>
	<circle fill="#559D6A" cx="329.816" cy="357.139" r="2.944"/>
	<rect x="285.714" y="324.773" fill="#C2986B" width="2.462" height="45.5"/>
	<polygon fill="#84B48F" points="273.676,332.312 273.781,317.05 287.051,309.511 300.215,317.234 300.109,332.495 286.84,340.034 	
		"/>
	<circle fill="#559D6A" cx="279.55" cy="320.602" r="2.944"/>
	<circle fill="#559D6A" cx="286.91" cy="315.892" r="2.944"/>
	<circle fill="#559D6A" cx="286.91" cy="324.566" r="2.944"/>
	<circle fill="#559D6A" cx="294.368" cy="320.602" r="2.944"/>
	<circle fill="#559D6A" cx="279.942" cy="329.042" r="2.944"/>
	<circle fill="#559D6A" cx="286.91" cy="333.654" r="2.944"/>
	<circle fill="#559D6A" cx="293.485" cy="327.766" r="2.944"/>
	<rect x="253.842" y="302.791" fill="#C2986B" width="2.462" height="45.5"/>
	<polygon fill="#84B48F" points="241.804,310.33 241.909,295.069 255.179,287.53 268.343,295.252 268.237,310.514 254.968,318.053 	
		"/>
	<circle fill="#559D6A" cx="247.215" cy="298.827" r="2.944"/>
	<circle fill="#559D6A" cx="254.575" cy="294.117" r="2.944"/>
	<circle fill="#559D6A" cx="254.575" cy="302.791" r="2.944"/>
	<circle fill="#559D6A" cx="262.033" cy="298.827" r="2.944"/>
	<circle fill="#559D6A" cx="247.608" cy="307.266" r="2.944"/>
	<circle fill="#559D6A" cx="254.575" cy="311.879" r="2.944"/>
	<circle fill="#559D6A" cx="261.15" cy="305.991" r="2.944"/>
</g>
</svg>
