<?xml version="1.0" encoding="utf-8"?>
<!-- Generator: Adobe Illustrator 17.0.0, SVG Export Plug-In . SVG Version: 6.00 Build 0)  -->
<!DOCTYPE svg PUBLIC "-//W3C//DTD SVG 1.1//EN" "http://www.w3.org/Graphics/SVG/1.1/DTD/svg11.dtd">
<svg version="1.1" id="Layer_1" xmlns="http://www.w3.org/2000/svg" xmlns:xlink="http://www.w3.org/1999/xlink" x="0px" y="0px"
	 width="772.521px" height="626.65px" viewBox="0 0 772.521 626.65" enable-background="new 0 0 772.521 626.65"
	 xml:space="preserve">
<g>
	<defs>
		<rect id="SVGID_3_" x="-762.328" y="0" width="1534.85" height="626.65"/>
	</defs>
	<clipPath id="SVGID_1_">
		<use xlink:href="#SVGID_3_"  overflow="visible"/>
	</clipPath>
	<g clip-path="url(#SVGID_1_)">
		<path fill="#FFFFFF" d="M531.716,86.72c0,17.144,13.275,31.043,29.654,31.043c4.359,0,8.497-0.982,12.223-2.749
			c5.359,8.013,14.247,13.258,24.305,13.258c8.899,0,16.877-4.108,22.312-10.606c4.207,2.394,9.023,3.756,14.147,3.756
			c4.491,0,8.75-1.05,12.566-2.92c0.592,0.29,1.197,0.561,1.809,0.808c3.007,1.232,6.255,1.96,9.649,2.086
			c0.363,0.018,0.733,0.025,1.104,0.025c0.969,0,1.931-0.047,2.875-0.145c13.04-1.315,23.613-11.472,26.18-24.672
			c0.394-2.01,0.599-4.093,0.599-6.227c0-11.628-6.103-21.759-15.136-27.08c-3.951-12.291-15.043-21.143-28.114-21.143
			c-2.249,0-4.432,0.264-6.536,0.761c-1.571-2.043-3.384-3.879-5.397-5.452c-4.944-3.865-11.075-6.154-17.717-6.154
			c-6.57,0-12.635,2.235-17.548,6.017c-1.934-2.757-4.29-5.169-6.971-7.125c-4.806-3.51-10.646-5.571-16.949-5.571
			c-8.352,0-15.898,3.615-21.285,9.433c-1.066,1.148-2.045,2.383-2.927,3.691c-3.432,5.06-5.446,11.244-5.446,17.92
			c0,1.645,0.125,3.26,0.36,4.836C537.203,66.015,531.716,75.697,531.716,86.72z"/>
		<ellipse fill="#559D6A" cx="698.364" cy="459.232" rx="694.169" ry="225.739"/>
		<g>
			<path fill="#559D6A" d="M198.004,321.639c-22.599,0-42.138,16.292-45.611,38.622c-3.819,24.55,4.126,59.389,51.384,100.36
				c52.135,45.198,145.454,82.935,218.408,107.627c61.714,20.887,126.527,31.112,191.676,30.393l481.395-5.317L771.377,321.639
				H198.004z"/>
			<path fill="#F2F2F2" d="M191.068,328.954c-5.906,0-7.326,2.63-4.205,7.644c11.358,18.243-20.323,60.466,38.861,107.448
				c65.218,51.773,222.616,106.368,262.691,127.562c11.372,6.014,24.065,9.077,36.928,8.923l505.462-6.049L742.687,328.954H191.068z
				"/>
			<path fill="#D9D8D7" d="M1030.805,539.154H485.33c-9.789,0-19.326-3.096-27.249-8.845l-27.431-19.905
				c-6.935-5.032-3.375-15.999,5.193-15.999H977.42L1030.805,539.154z"/>
			<polygon fill="#BDBEBF" points="873.614,226.703 873.614,486.857 500.847,486.857 288.751,335.823 288.751,38.289 
				500.847,84.274 			"/>
			<polygon fill="#D2D3D3" points="500.847,84.274 500.847,486.857 288.751,335.823 288.751,38.289 			"/>
			<polygon fill="#808184" points="932.494,245.545 932.494,266.247 500.847,91.292 500.847,91.292 266.766,38.289 266.766,24.935 
				500.847,66.103 500.847,66.103 			"/>
			<polygon fill="#E3F3F7" points="490.508,464.573 296.225,330.108 296.225,52.416 493.037,96.379 			"/>
			<polygon fill="#FFFFFF" points="490.508,464.573 296.225,330.108 296.225,330.108 493.037,183.521 			"/>
			<polygon fill="#E3F3F7" points="865.768,471.802 521.126,471.802 521.126,106.585 865.768,247.111 			"/>
			<polygon fill="#FFFFFF" points="865.768,471.802 521.126,471.802 521.126,171.475 768.594,471.802 			"/>
			
				<line fill="none" stroke="#BDBEBF" stroke-width="2" stroke-miterlimit="10" x1="514.803" y1="413.74" x2="865.768" y2="413.74"/>
			<path fill="none" stroke="#BDBEBF" stroke-width="2" stroke-miterlimit="10" d="M581.183,475.075"/>
			<path fill="none" stroke="#BDBEBF" stroke-width="2" stroke-miterlimit="10" d="M581.183,379.59"/>
			<polygon fill="#A7A8AB" points="500.847,66.103 500.847,91.292 266.766,38.289 266.766,24.935 			"/>
			<polygon fill="#559D6A" points="300.517,359.375 233.015,359.375 209.63,342.864 277.132,342.864 			"/>
			<polygon fill="#467E56" points="248.098,357.748 234.884,357.748 216.107,344.491 229.322,344.491 			"/>
			<polygon fill="#467E56" points="294.024,357.748 280.81,357.748 262.033,344.491 275.248,344.491 			"/>
			<polygon fill="#559D6A" points="334.267,382.987 266.766,382.987 239.624,364.061 307.125,364.061 			"/>
			<polygon fill="#559D6A" points="371.256,410.585 303.754,410.585 273.196,388.707 340.697,388.707 			"/>
			<polygon fill="#467E56" points="280.089,380.152 266.875,380.152 248.098,366.895 261.313,366.895 			"/>
			<polygon fill="#467E56" points="326.016,380.152 312.801,380.152 294.024,366.895 307.239,366.895 			"/>
			<polygon fill="#467E56" points="316.202,406.274 302.988,406.274 284.211,393.017 297.426,393.017 			"/>
			<polygon fill="#467E56" points="362.128,406.274 348.914,406.274 330.137,393.017 343.352,393.017 			"/>
			<polygon fill="#559D6A" points="464.579,480.863 397.077,480.863 308.511,416.292 376.013,416.292 			"/>
			<polygon fill="#ADD199" points="375.553,457.214 347.422,436.703 394.936,436.703 423.067,457.214 			"/>
			<polygon fill="#559D6A" points="585.661,572.912 518.159,572.912 481.36,549.646 548.861,549.646 			"/>
			<polygon fill="#467E56" points="526.695,567.246 513.48,567.246 494.703,553.989 507.918,553.989 			"/>
			<polygon fill="#467E56" points="572.621,567.246 559.406,567.246 540.629,553.989 553.844,553.989 			"/>
			
				<line fill="none" stroke="#D2D3D3" stroke-width="2" stroke-miterlimit="10" x1="292.65" y1="89.314" x2="497.544" y2="144.661"/>
			
				<line fill="none" stroke="#D2D3D3" stroke-width="2" stroke-miterlimit="10" x1="292.65" y1="141.766" x2="498.14" y2="201.185"/>
			
				<line fill="none" stroke="#D2D3D3" stroke-width="2" stroke-miterlimit="10" x1="292.65" y1="188.61" x2="497.544" y2="262.573"/>
			
				<line fill="none" stroke="#D2D3D3" stroke-width="2" stroke-miterlimit="10" x1="292.054" y1="238.252" x2="497.544" y2="328.954"/>
			
				<line fill="none" stroke="#D2D3D3" stroke-width="2" stroke-miterlimit="10" x1="292.054" y1="287.53" x2="493.037" y2="405.497"/>
			
				<line fill="none" stroke="#D2D3D3" stroke-width="2" stroke-miterlimit="10" x1="326.752" y1="59.235" x2="326.752" y2="353.628"/>
			
				<line fill="none" stroke="#D2D3D3" stroke-width="2" stroke-miterlimit="10" x1="377.437" y1="67.528" x2="377.437" y2="389.463"/>
			
				<line fill="none" stroke="#D2D3D3" stroke-width="2" stroke-miterlimit="10" x1="431.606" y1="81.071" x2="431.606" y2="430.815"/>
			
				<line fill="none" stroke="#BDBEBF" stroke-width="2" stroke-miterlimit="10" x1="514.803" y1="144.661" x2="623.406" y2="144.661"/>
			
				<line fill="none" stroke="#BDBEBF" stroke-width="2" stroke-miterlimit="10" x1="518.159" y1="201.185" x2="759.266" y2="201.185"/>
			
				<line fill="none" stroke="#BDBEBF" stroke-width="2" stroke-miterlimit="10" x1="514.803" y1="266.106" x2="869.671" y2="266.106"/>
			
				<line fill="none" stroke="#BDBEBF" stroke-width="2" stroke-miterlimit="10" x1="514.803" y1="335.753" x2="869.671" y2="335.753"/>
			
				<line fill="none" stroke="#BDBEBF" stroke-width="2" stroke-miterlimit="10" x1="581.183" y1="127.585" x2="581.183" y2="475.075"/>
			
				<line fill="none" stroke="#BDBEBF" stroke-width="2" stroke-miterlimit="10" x1="648.283" y1="154.67" x2="648.283" y2="477.919"/>
			<line fill="none" stroke="#BDBEBF" stroke-width="2" stroke-miterlimit="10" x1="722.32" y1="188.61" x2="722.32" y2="475.075"/>
			<path fill="#E6E6E5" d="M203.939,353.628l207.845,160.148C411.784,513.776,176.265,446.014,203.939,353.628z"/>
			<path fill="#D2D3D3" d="M637.537,406.381v142.1c0,7.796-6.335,9.421-14.131,9.421c-3.898,0-7.431-0.412-9.998-1.79
				c-2.555-1.378-4.133-3.733-4.133-7.631v-142.1c0-7.807,6.324-14.131,14.131-14.131c3.898,0,7.431,1.578,9.986,4.133
				C635.947,398.938,637.537,402.471,637.537,406.381z"/>
			<path fill="#D2D3D3" d="M736.451,548.477c0,7.804-6.327,9.421-14.131,9.421l0,0c-7.804,0-14.131-1.616-14.131-9.421V406.381
				c0-7.804,6.327-14.131,14.131-14.131l0,0c7.804,0,14.131,6.327,14.131,14.131V548.477z"/>
			<polygon fill="#D2D3D3" points="604.342,403.252 505.993,353.628 505.993,294.171 604.342,343.795 			"/>
			<polygon fill="#E6E6E5" points="1050.431,343.795 604.342,343.795 505.993,294.171 924.821,294.171 			"/>
			<ellipse fill="#BDBEBF" cx="664.792" cy="311.181" rx="80.861" ry="11.214"/>
			<path fill="#808184" d="M745.653,311.181c0,6.193-36.203,11.214-80.861,11.214v-22.428
				C709.45,299.968,745.653,304.988,745.653,311.181z"/>
			<path fill="#BDBEBF" d="M637.537,396.537v151.944c0,7.796-6.335,9.421-14.131,9.421V398.609L637.537,396.537z"/>
			<path fill="#BDBEBF" d="M736.451,398.609v149.871c0,7.796-6.335,9.421-14.131,9.421V400.682L736.451,398.609z"/>
			<rect x="604.342" y="343.795" fill="#808184" width="446.089" height="59.457"/>
			<g>
				<path fill="#559D6A" d="M1363.474,764.467l-491.459,0c-9.549,0-18.832-3.106-26.456-8.856
					c-46.491-35.067-215.088-162.287-215.088-162.287h389.759L1363.474,764.467z"/>
				<path fill="#F2F2F2" d="M1310.434,747.98H888.562c-14.133,0-27.895-4.532-39.262-12.931L623.406,568.15h332.47L1310.434,747.98z
					"/>
				<polygon fill="#BDBEBF" points="1245.562,380.152 1245.562,721.367 872.795,721.367 660.698,570.333 660.698,351.497 
					872.795,318.783 				"/>
				<polygon fill="#D2D3D3" points="872.795,318.783 872.795,721.367 660.698,570.333 660.698,350.396 				"/>
				<polygon fill="#E3F3F7" points="862.455,699.083 668.172,564.617 668.172,357.666 864.985,330.889 				"/>
				<polygon fill="#FFFFFF" points="862.455,699.083 668.172,564.617 668.172,564.617 864.985,418.031 				"/>
				<polygon fill="#A7A8AB" points="872.795,300.613 872.795,325.802 638.713,357.592 638.713,337.155 				"/>
				
					<line fill="none" stroke="#D2D3D3" stroke-width="2" stroke-miterlimit="10" x1="746.064" y1="345.829" x2="869.492" y2="379.17"/>
				
					<line fill="none" stroke="#D2D3D3" stroke-width="2" stroke-miterlimit="10" x1="664.598" y1="376.275" x2="870.088" y2="435.695"/>
				
					<line fill="none" stroke="#D2D3D3" stroke-width="2" stroke-miterlimit="10" x1="664.598" y1="423.12" x2="869.492" y2="497.082"/>
				
					<line fill="none" stroke="#D2D3D3" stroke-width="2" stroke-miterlimit="10" x1="664.002" y1="472.762" x2="869.492" y2="563.463"/>
				
					<line fill="none" stroke="#D2D3D3" stroke-width="2" stroke-miterlimit="10" x1="664.002" y1="522.039" x2="864.985" y2="640.007"/>
				
					<line fill="none" stroke="#D2D3D3" stroke-width="2" stroke-miterlimit="10" x1="698.699" y1="351.497" x2="698.699" y2="588.138"/>
				
					<line fill="none" stroke="#D2D3D3" stroke-width="2" stroke-miterlimit="10" x1="749.384" y1="343.933" x2="749.384" y2="623.973"/>
			</g>
			<polygon fill="#D2D3D3" points="322.226,-25.502 322.226,34.689 437.63,54.985 437.63,-20.791 			"/>
			<g>
				<g>
					<path fill="#697D82" d="M348.413,0.075l-0.005-15.601l1.146,0.072l2.609,8.159c0.604,1.911,1.075,3.626,1.462,5.291
						l0.024-0.021c-0.097-2.131-0.122-4.065-0.123-6.537l-0.003-6.642l0.989,0.063l0.007,15.928l-1.062-0.124l-2.586-8.284
						c-0.568-1.798-1.112-3.634-1.522-5.362l-0.036,0.021c0.061,1.978,0.086,3.861,0.086,6.462l0.002,6.689L348.413,0.075z"/>
					<path fill="#697D82" d="M358.138,1.211l-2.663-16.289l1.134,0.072l1.271,8.015c0.351,2.209,0.654,4.202,0.872,6.117
						l0.024,0.003c0.228-1.846,0.565-3.852,0.926-5.933l1.37-7.92l1.122,0.071l-2.898,16L358.138,1.211z"/>
					<path fill="#697D82" d="M367.292-5.509l-3.161-0.29l0.004,5.929l3.524,0.391l0.001,1.801l-4.574-0.534l-0.01-16.386
						l4.391,0.278l0.001,1.801l-3.342-0.231l0.003,5.196l3.161,0.272L367.292-5.509z"/>
					<path fill="#697D82" d="M369.023,2.481l-0.012-16.704l1.146,0.072l2.613,8.718c0.605,2.04,1.077,3.872,1.465,5.65l0.024-0.022
						c-0.098-2.278-0.124-4.346-0.127-6.991l-0.006-7.104l0.989,0.063l0.014,17.031l-1.062-0.124l-2.589-8.844
						c-0.569-1.921-1.113-3.883-1.524-5.73l-0.036,0.023c0.062,2.118,0.087,4.133,0.089,6.917l0.005,7.16L369.023,2.481z"/>
					<path fill="#697D82" d="M378.494-11.733l-2.473-0.171l-0.002-1.875l6.02,0.381l0.002,1.911l-2.486-0.172l0.014,15.373
						l-1.061-0.124L378.494-11.733z"/>
					<path fill="#697D82" d="M383.992-13.276l0.017,17.506l-1.05-0.123l-0.017-17.45L383.992-13.276z"/>
					<path fill="#697D82" d="M392.784-3.918c0.007,6.188-1.69,9.268-3.766,9.024c-2.148-0.253-3.66-4.029-3.665-9.349
						c-0.006-5.581,1.595-9.133,3.766-8.997C391.339-13.103,392.778-9.253,392.784-3.918z M386.474-4.195
						c0.004,3.768,0.949,7.249,2.602,7.435c1.665,0.187,2.603-3.083,2.598-7.15c-0.004-3.563-0.852-7.341-2.602-7.46
						C387.335-11.489,386.47-8.068,386.474-4.195z"/>
					<path fill="#697D82" d="M394.158,5.416l-0.021-18.05l1.146,0.072l2.617,9.398c0.606,2.198,1.079,4.171,1.468,6.087l0.024-0.024
						c-0.1-2.458-0.127-4.69-0.13-7.544l-0.009-7.667l0.989,0.063l0.023,18.377l-1.062-0.124l-2.593-9.527
						c-0.57-2.07-1.115-4.186-1.527-6.179l-0.036,0.025c0.063,2.287,0.089,4.464,0.093,7.472l0.009,7.735L394.158,5.416z"/>
					<path fill="#697D82" d="M342.872,31.323c-0.674,0.479-2.024,0.798-3.752,0.396c-4.006-0.932-7.021-6.211-7.021-14.642
						c0-8.049,3.013-13.093,7.417-12.492c1.77,0.241,2.887,1.106,3.372,1.649l-0.442,2.748c-0.695-0.735-1.686-1.354-2.866-1.527
						c-3.329-0.488-5.541,3.068-5.541,9.867c0,6.338,2.003,10.856,5.46,11.626c1.118,0.249,2.256,0.067,2.993-0.443L342.872,31.323z
						"/>
					<path fill="#697D82" d="M352.522,21.478l-5.523-1.035l0.003,9.771l6.156,1.361l0.001,2.998l-7.99-1.847l-0.008-26.932
						l7.67,1.058l0.001,2.994l-5.837-0.864l0.003,8.566l5.522,0.98L352.522,21.478z"/>
					<path fill="#697D82" d="M355.542,35.124l-0.014-27.9l2.002,0.276l4.56,15.053c1.056,3.549,1.88,6.733,2.557,9.814l0.042-0.034
						c-0.171-3.874-0.216-7.379-0.219-11.856l-0.008-12.022l1.728,0.238l0.02,28.896l-1.855-0.429l-4.52-15.404
						c-0.992-3.322-1.943-6.699-2.661-9.853l-0.064,0.032c0.108,3.554,0.151,6.934,0.154,11.597l0.006,11.991L355.542,35.124z"/>
					<path fill="#697D82" d="M372.091,12.741l-4.32-0.64l-0.002-3.189l10.514,1.45l0.003,3.297l-4.341-0.643l0.022,26.368
						l-1.855-0.429L372.091,12.741z"/>
					<path fill="#697D82" d="M387.233,27.985l-5.523-1.035l0.01,10.94l6.156,1.361l0.004,3.349l-7.99-1.847l-0.028-30.174
						l7.67,1.058l0.003,3.345l-5.837-0.864l0.009,9.591l5.522,0.98L387.233,27.985z"/>
					<path fill="#697D82" d="M390.229,12.424c0.926-0.287,2.253-0.337,3.518-0.163c1.96,0.269,3.225,1.244,4.112,3.163
						c0.718,1.525,1.122,3.766,1.125,6.231c0.005,4.221-1.172,6.802-2.667,7.657l0,0.141c1.097,1.054,1.753,3.448,2.094,6.827
						c0.469,4.551,0.81,7.709,1.107,9.011l-1.897-0.439c-0.233-0.95-0.553-3.758-0.958-7.801c-0.427-4.463-1.188-6.254-2.853-6.712
						l-1.728-0.33l0.015,13.566l-1.834-0.424L390.229,12.424z M392.078,26.943l1.876,0.341c1.96,0.356,3.2-1.824,3.196-5.455
						c-0.005-4.104-1.335-6.09-3.273-6.421c-0.885-0.13-1.517-0.037-1.812,0.106L392.078,26.943z"/>
				</g>
			</g>
			<polygon fill="#A7A8AB" points="445.345,56.341 437.63,54.985 437.63,-20.791 445.345,-19.025 			"/>
			<polygon fill="#84B48F" points="745.997,644.526 746.102,629.265 759.372,621.726 772.536,629.448 772.43,644.71 
				759.161,652.249 			"/>
			<circle fill="#559D6A" cx="760.497" cy="628.313" r="2.944"/>
			<rect x="710.738" y="596.285" fill="#C2986B" width="2.462" height="45.5"/>
			<polygon fill="#84B48F" points="698.699,603.824 698.805,588.562 712.075,581.023 725.239,588.745 725.133,604.007 
				711.863,611.546 			"/>
			<circle fill="#559D6A" cx="705.84" cy="592.32" r="2.944"/>
			<circle fill="#559D6A" cx="713.2" cy="587.61" r="2.944"/>
			<circle fill="#559D6A" cx="713.2" cy="596.285" r="2.944"/>
			<circle fill="#559D6A" cx="720.658" cy="592.32" r="2.944"/>
			<circle fill="#559D6A" cx="706.233" cy="600.76" r="2.944"/>
			<circle fill="#559D6A" cx="713.2" cy="605.372" r="2.944"/>
			<circle fill="#559D6A" cx="719.775" cy="599.484" r="2.944"/>
			<rect x="666.941" y="569.547" fill="#C2986B" width="2.462" height="45.5"/>
			<polygon fill="#84B48F" points="654.902,577.086 655.008,561.825 668.278,554.286 681.442,562.008 681.336,577.27 
				668.066,584.809 			"/>
			<circle fill="#559D6A" cx="662.043" cy="565.583" r="2.944"/>
			<circle fill="#559D6A" cx="669.403" cy="560.873" r="2.944"/>
			<circle fill="#559D6A" cx="669.403" cy="569.547" r="2.944"/>
			<circle fill="#559D6A" cx="676.861" cy="565.583" r="2.944"/>
			<circle fill="#559D6A" cx="662.436" cy="574.022" r="2.944"/>
			<circle fill="#559D6A" cx="669.403" cy="578.635" r="2.944"/>
			<circle fill="#559D6A" cx="675.978" cy="572.747" r="2.944"/>
			<rect x="532.279" y="516.72" fill="#C2986B" width="2.462" height="45.5"/>
			<polygon fill="#84B48F" points="520.241,524.26 520.346,508.998 533.616,501.459 546.78,509.181 546.674,524.443 
				533.405,531.982 			"/>
			<circle fill="#559D6A" cx="527.381" cy="512.756" r="2.944"/>
			<circle fill="#559D6A" cx="534.741" cy="508.046" r="2.944"/>
			<circle fill="#559D6A" cx="534.741" cy="516.72" r="2.944"/>
			<circle fill="#559D6A" cx="542.2" cy="512.756" r="2.944"/>
			<circle fill="#559D6A" cx="527.774" cy="521.196" r="2.944"/>
			<circle fill="#559D6A" cx="534.741" cy="525.808" r="2.944"/>
			<circle fill="#559D6A" cx="541.316" cy="519.92" r="2.944"/>
			<rect x="322.059" y="354.146" fill="#C2986B" width="2.462" height="45.5"/>
			<polygon fill="#84B48F" points="310.02,361.685 310.126,346.424 323.396,338.884 336.56,346.607 336.454,361.868 
				323.184,369.408 			"/>
			<circle fill="#559D6A" cx="315.881" cy="349.975" r="2.944"/>
			<circle fill="#559D6A" cx="323.241" cy="345.265" r="2.944"/>
			<circle fill="#559D6A" cx="323.241" cy="353.939" r="2.944"/>
			<circle fill="#559D6A" cx="330.699" cy="349.975" r="2.944"/>
			<circle fill="#559D6A" cx="316.273" cy="358.415" r="2.944"/>
			<circle fill="#559D6A" cx="323.241" cy="363.027" r="2.944"/>
			<circle fill="#559D6A" cx="329.816" cy="357.139" r="2.944"/>
			<rect x="285.714" y="324.773" fill="#C2986B" width="2.462" height="45.5"/>
			<polygon fill="#84B48F" points="273.676,332.312 273.781,317.05 287.051,309.511 300.215,317.234 300.109,332.495 
				286.84,340.034 			"/>
			<circle fill="#559D6A" cx="279.55" cy="320.602" r="2.944"/>
			<circle fill="#559D6A" cx="286.91" cy="315.892" r="2.944"/>
			<circle fill="#559D6A" cx="286.91" cy="324.566" r="2.944"/>
			<circle fill="#559D6A" cx="294.368" cy="320.602" r="2.944"/>
			<circle fill="#559D6A" cx="279.942" cy="329.042" r="2.944"/>
			<circle fill="#559D6A" cx="286.91" cy="333.654" r="2.944"/>
			<circle fill="#559D6A" cx="293.485" cy="327.766" r="2.944"/>
			<rect x="253.842" y="302.791" fill="#C2986B" width="2.462" height="45.5"/>
			<polygon fill="#84B48F" points="241.804,310.33 241.909,295.069 255.179,287.53 268.343,295.252 268.237,310.514 
				254.968,318.053 			"/>
			<circle fill="#559D6A" cx="247.215" cy="298.827" r="2.944"/>
			<circle fill="#559D6A" cx="254.575" cy="294.117" r="2.944"/>
			<circle fill="#559D6A" cx="254.575" cy="302.791" r="2.944"/>
			<circle fill="#559D6A" cx="262.033" cy="298.827" r="2.944"/>
			<circle fill="#559D6A" cx="247.608" cy="307.266" r="2.944"/>
			<circle fill="#559D6A" cx="254.575" cy="311.879" r="2.944"/>
			<circle fill="#559D6A" cx="261.15" cy="305.991" r="2.944"/>
		</g>
	</g>
</g>
</svg>
