<?xml version="1.0" encoding="utf-8"?>
<!-- Generator: Adobe Illustrator 17.0.0, SVG Export Plug-In . SVG Version: 6.00 Build 0)  -->
<!DOCTYPE svg PUBLIC "-//W3C//DTD SVG 1.1//EN" "http://www.w3.org/Graphics/SVG/1.1/DTD/svg11.dtd">
<svg version="1.1" id="Layer_1" xmlns="http://www.w3.org/2000/svg" xmlns:xlink="http://www.w3.org/1999/xlink" x="0px" y="0px"
	 width="256.63px" height="137.74px" viewBox="0 0 256.63 137.74" enable-background="new 0 0 256.63 137.74" xml:space="preserve">
<path fill="#C6C7C9" d="M79.16,56.24h100.68c-0.02-0.83-0.06-8.75-0.11-9.58C177.88,20.59,156.1,0,129.49,0
	c-26.6,0-48.39,20.59-50.22,46.68C79.21,47.5,79.17,55.41,79.16,56.24z"/>
<polygon fill="#DDA5CB" points="139.34,43.62 139.34,36.76 151.31,30.42 151.31,11.55 139.37,12.11 115.27,12.11 115.27,80.71 
	139.35,80.71 151.31,70.14 151.31,37.16 "/>
<polygon fill="#CD6028" points="151.31,37.16 134.56,37.16 138.57,47.41 145.31,46.24 "/>
<polygon fill="#CD6028" points="151.31,11.55 117.62,11.55 105,12.11 123.58,12.89 139.26,12.76 "/>
<path fill="#83816B" d="M142.86,38.45l0.31,0.08l2.4-1.85l1.06-4.84l-2.58,1.2L142.86,38.45z M147.27,30.97l-1.19,5.42l0.31,0.08
	l2.4-1.85l1.06-4.84L147.27,30.97z"/>
<path fill="#DED9B0" d="M143.17,38.52l2.71-1.78l1.06-4.84l-2.58,1.2L143.17,38.52z M147.57,31.05l-1.19,5.42l2.71-1.78l1.06-4.84
	L147.57,31.05z"/>
<polygon fill="#E56925" points="139.34,43.62 139.34,36.76 151.31,30.42 151.31,11.55 139.37,12.11 115.27,12.11 115.27,80.71 
	139.35,80.71 151.31,70.14 151.31,37.16 "/>
<path fill="#E56925" d="M135.05,40.69c-1.18,0-2.14-0.96-2.14-2.14c0-1.18,0.96-2.14,2.14-2.14h4.32v-24.3H105v68.6h34.36
	l0.02-40.02H135.05z"/>
<polygon opacity="0.4" fill="#E56925" points="139.37,12.11 105,80.71 139.35,80.71 "/>
<ellipse transform="matrix(0.9993 0.037 -0.037 0.9993 0.902 -5.3879)" fill="#FFFFFF" cx="145.86" cy="21.65" rx="2.47" ry="5.71"/>
<ellipse transform="matrix(0.9993 0.037 -0.037 0.9993 0.908 -5.3937)" fill="#231F20" cx="146.02" cy="21.81" rx="0.58" ry="1.34"/>
<path opacity="0.25" fill="#58A4C3" d="M79.16,56.24h100.68c-0.02-0.83-0.06-8.75-0.11-9.58C177.88,20.59,156.1,0,129.49,0
	c-26.6,0-48.39,20.59-50.22,46.68C79.21,47.5,79.17,55.41,79.16,56.24z"/>
<circle fill="#C6C7C9" cx="105.11" cy="22.44" r="6.54"/>
<rect x="86.08" y="109.55" fill="#231F20" width="86.98" height="25.26"/>
<path fill="#464648" d="M175.49,135.57c0,1.2-0.97,2.17-2.17,2.17H86.55c-1.2,0-2.17-0.97-2.17-2.17v-0.51
	c0-1.2,0.97-2.17,2.17-2.17h86.78c1.2,0,2.17,0.97,2.17,2.17V135.57z"/>
<path fill="#EB2227" d="M58.11,89.7c0,7.11-13.01,12.88-29.06,12.88S0,89.7,0,89.7s13.01-12.88,29.06-12.88S58.11,82.59,58.11,89.7z
	"/>
<path fill="#E1D11F" d="M52.43,89.7c0,4.22-7.72,7.64-17.24,7.64S17.95,89.7,17.95,89.7s7.72-7.64,17.24-7.64
	S52.43,85.48,52.43,89.7z"/>
<ellipse fill="#231F20" cx="48.9" cy="88.11" rx="19.62" ry="49.26"/>
<path fill="#EB2227" d="M178.04,54.86c-0.75-0.04-108.06-0.06-122.91-0.08c-0.28-0.04-0.57-0.07-0.85-0.07
	c-0.28,0-0.56,0.02-0.84,0.06c0,0,0,0-0.01,0v0c-7.3,1.09-13.09,16.3-13.09,34.91c0,19.31,6.24,34.97,13.93,34.97
	c0.32,0,0.63-0.03,0.94-0.08c15.19-0.01,122.08-0.04,122.83-0.08c25.71-1.28,46-16.38,46-34.82
	C224.05,71.24,203.76,56.14,178.04,54.86z"/>
<path fill="#F15C25" d="M224.05,89.52c-0.12-18.37-20.37-33.39-46.01-34.66c-0.75-0.04-108.06-0.06-122.91-0.08
	c-0.28-0.04-0.57-0.07-0.85-0.07c-0.28,0-0.56,0.02-0.84,0.06c0,0,0,0-0.01,0v0C46.15,55.88,40.38,71,40.35,89.52H224.05z"/>
<path fill="#231F20" d="M186.78,88.83c0,4.34-24.48,7.85-54.68,7.85s-54.68-7.85-54.68-7.85s24.48-7.85,54.68-7.85
	S186.78,84.5,186.78,88.83z"/>
<path fill="#231F20" d="M222.46,84.7v8.26c19.44-0.76,34.17-4.13,34.17-4.13S241.9,85.46,222.46,84.7z"/>
<ellipse fill="#231F20" cx="222.59" cy="88.82" rx="1.44" ry="4.15"/>
</svg>
