<?xml version="1.0" encoding="utf-8"?>
<!-- Generator: Adobe Illustrator 17.0.0, SVG Export Plug-In . SVG Version: 6.00 Build 0)  -->
<!DOCTYPE svg PUBLIC "-//W3C//DTD SVG 1.1//EN" "http://www.w3.org/Graphics/SVG/1.1/DTD/svg11.dtd">
<svg version="1.1" id="Layer_1" xmlns="http://www.w3.org/2000/svg" xmlns:xlink="http://www.w3.org/1999/xlink" x="0px" y="0px"
	 width="266.6px" height="237.91px" viewBox="0 0 266.6 237.91" enable-background="new 0 0 266.6 237.91" xml:space="preserve">
<g id="beam">
	<path fill="#0091C7" d="M109.45,67.16v89.75c0,0.55,0.45,1,1,1s1-0.45,1-1V67.16c0-0.55-0.45-1-1-1
		C109.9,66.16,109.45,66.6,109.45,67.16"/>
	<path fill="#009EDA" d="M117.31,67.16v89.75c0,0.55,0.45,1,1,1s1-0.45,1-1V67.16c0-0.55-0.45-1-1-1
		C117.75,66.16,117.31,66.6,117.31,67.16"/>
	<path fill="#00A3DB" d="M125.16,67.16v89.75c0,0.55,0.45,1,1,1s1-0.45,1-1V67.16c0-0.55-0.45-1-1-1S125.16,66.6,125.16,67.16"/>
	<path fill="#00B8F1" d="M133.02,67.16v89.75c0,0.55,0.45,1,1,1s1-0.45,1-1V67.16c0-0.55-0.45-1-1-1S133.02,66.6,133.02,67.16"/>
	<path fill="#00ADEE" d="M148.73,67.16v89.75c0,0.55,0.45,1,1,1s1-0.45,1-1V67.16c0-0.55-0.45-1-1-1S148.73,66.6,148.73,67.16"/>
	<path fill="#00A3DB" d="M156.59,67.16v89.75c0,0.55,0.45,1,1,1s1-0.45,1-1V67.16c0-0.55-0.45-1-1-1S156.59,66.6,156.59,67.16"/>
	<path fill="#009EDA" d="M164.45,67.16v89.75c0,0.55,0.45,1,1,1s1-0.45,1-1V67.16c0-0.55-0.45-1-1-1S164.45,66.6,164.45,67.16"/>
	<path fill="#0083B5" d="M172.3,67.16v89.75c0,0.55,0.45,1,1,1s1-0.45,1-1V67.16c0-0.55-0.45-1-1-1S172.3,66.6,172.3,67.16"/>
	<path fill="#00B8F1" d="M140.88,67.16v89.75c0,0.55,0.45,1,1,1s1-0.45,1-1V67.16c0-0.55-0.45-1-1-1S140.88,66.6,140.88,67.16"/>
	<path fill="#0083B5" d="M105.52,67.16v89.75c0,0.55,0.45,1,1,1s1-0.45,1-1V67.16c0-0.55-0.45-1-1-1
		C105.97,66.16,105.52,66.6,105.52,67.16"/>
	<path fill="#009EDA" d="M113.38,67.16v89.75c0,0.55,0.45,1,1,1s1-0.45,1-1V67.16c0-0.55-0.45-1-1-1
		C113.83,66.16,113.38,66.6,113.38,67.16"/>
	<path fill="#00A3DB" d="M121.24,67.16v89.75c0,0.55,0.45,1,1,1s1-0.45,1-1V67.16c0-0.55-0.45-1-1-1
		C121.68,66.16,121.24,66.6,121.24,67.16"/>
	<path fill="#00ADEE" d="M129.09,67.16v89.75c0,0.55,0.45,1,1,1s1-0.45,1-1V67.16c0-0.55-0.45-1-1-1S129.09,66.6,129.09,67.16"/>
	<path fill="#00B8F1" d="M144.81,67.16v89.75c0,0.55,0.45,1,1,1s1-0.45,1-1V67.16c0-0.55-0.45-1-1-1
		C145.25,66.16,144.81,66.6,144.81,67.16"/>
	<path fill="#00A3DB" d="M152.66,67.16v89.75c0,0.55,0.45,1,1,1s1-0.45,1-1V67.16c0-0.55-0.45-1-1-1S152.66,66.6,152.66,67.16"/>
	<path fill="#009EDA" d="M160.52,67.16v89.75c0,0.55,0.45,1,1,1s1-0.45,1-1V67.16c0-0.55-0.45-1-1-1S160.52,66.6,160.52,67.16"/>
	<path fill="#0091C7" d="M168.38,67.16v89.75c0,0.55,0.45,1,1,1s1-0.45,1-1V67.16c0-0.55-0.45-1-1-1
		C168.82,66.16,168.38,66.6,168.38,67.16"/>
	<path fill="#00B8F1" d="M136.95,67.16v89.75c0,0.55,0.45,1,1,1s1-0.45,1-1V67.16c0-0.55-0.45-1-1-1S136.95,66.6,136.95,67.16"/>
</g>
<path fill="#C4C6C7" d="M89.13,85.71h100.68c-0.02-0.83-0.06-8.75-0.11-9.58c-1.84-26.08-23.62-46.67-50.22-46.67
	S91.09,50.05,89.26,76.14C89.19,76.96,89.15,84.88,89.13,85.71z"/>
<g id="face-beam">
	<polygon fill="#DCA4CA" points="149.31,73.65 149.31,62.61 161.29,56.27 161.29,41.02 149.34,41.57 125.25,41.57 125.25,110.74 
		149.33,110.74 161.29,100.16 161.29,69.18 	"/>
	<polygon fill="#CB5F28" points="161.29,69.18 141.26,69.22 148.52,79.21 155.29,76.27 	"/>
	<polygon fill="#CB5F28" points="161.29,41.02 127.59,41.02 114.97,41.57 133.55,42.36 149.23,42.22 	"/>
	<g>
		<path fill="#81806A" d="M152.74,65.06l0.31,0.08l2.4-1.85l1.06-4.84l-2.58,1.2L152.74,65.06z M157.14,57.59l-1.19,5.42l0.31,0.08
			l2.4-1.85l1.06-4.84L157.14,57.59z"/>
		<path fill="#DDD8AF" d="M153.04,65.14l2.71-1.78l1.06-4.84l-2.58,1.2L153.04,65.14z M157.44,57.66l-1.19,5.42l2.71-1.78l1.06-4.84
			L157.44,57.66z"/>
	</g>
	<polygon fill="#E46825" points="149.31,77.72 149.31,62.61 161.29,56.27 161.29,41.02 149.34,41.57 125.25,41.57 125.25,110.74 
		149.33,110.74 161.29,100.16 161.29,69.18 	"/>
	<path fill="#E46825" d="M145.03,70.72c-1.18,0-2.14-0.96-2.14-2.14s0.96-2.14,2.14-2.14h4.32V41.57h-34.37v69.16h34.36l0.02-40.02
		L145.03,70.72L145.03,70.72z"/>
	<g>
		
			<ellipse transform="matrix(-0.9993 -0.037 0.037 -0.9993 309.8341 109.0643)" fill="#FFFFFF" cx="155.926" cy="51.665" rx="2.47" ry="5.71"/>
		
			<ellipse transform="matrix(-0.9993 -0.037 0.037 -0.9993 307.4107 110.3193)" fill="#221F1F" cx="154.726" cy="52.315" rx="0.58" ry="1.34"/>
	</g>
	<g opacity="0.3">
		<path fill="#F4C3A8" d="M149.34,41.57l-34.37,69.17h34.36L149.34,41.57 M149.34,41.57L149.34,41.57"/>
	</g>
	<polygon fill="#E46825" points="149.58,57.83 160.92,52.85 161.08,55.62 149.62,61.79 	"/>
</g>
<g id="face-default">
	<polygon fill="#DCA4CA" points="149.31,73.09 149.31,66.22 161.29,59.88 161.29,41.02 149.34,41.57 125.25,41.57 125.25,110.18 
		149.33,110.18 161.29,99.61 161.29,66.62 	"/>
	<polygon fill="#CB5F28" points="161.29,66.62 144.54,66.62 148.54,76.88 155.29,75.71 	"/>
	<polygon fill="#CB5F28" points="161.29,41.02 127.59,41.02 114.97,41.57 133.55,42.36 149.23,42.22 	"/>
	<path fill="#81806A" d="M152.84,67.91l0.31,0.08l2.4-1.85l1.06-4.84l-2.58,1.2L152.84,67.91z M157.24,60.44l-1.19,5.42l0.31,0.08
		l2.4-1.85l1.06-4.84L157.24,60.44z"/>
	<path fill="#DDD8AF" d="M153.15,67.99l2.71-1.78l1.06-4.84l-2.58,1.2L153.15,67.99z M157.55,60.51l-1.19,5.42l2.71-1.78l1.06-4.84
		L157.55,60.51z"/>
	<polygon fill="#E46825" points="149.31,73.09 149.31,66.22 161.29,59.88 161.29,41.02 149.34,41.57 125.25,41.57 125.25,110.18 
		149.33,110.18 161.29,99.61 161.29,66.62 	"/>
	<path fill="#E46825" d="M145.03,70.16c-1.18,0-2.14-0.96-2.14-2.14s0.96-2.14,2.14-2.14h4.32v-24.3h-34.37v68.6h34.36l0.02-40.02
		H145.03z"/>
	<g opacity="0.3">
		<path fill="#F4C3A7" d="M149.34,41.57l-34.37,68.61h34.36L149.34,41.57 M149.34,41.57L149.34,41.57"/>
	</g>
	
		<ellipse transform="matrix(-0.9993 -0.037 0.037 -0.9993 309.6544 107.9601)" fill="#FFFFFF" cx="155.826" cy="51.115" rx="2.47" ry="5.71"/>
	
		<ellipse transform="matrix(-0.9993 -0.037 0.037 -0.9993 309.9692 108.2669)" fill="#221F1F" cx="155.986" cy="51.265" rx="0.58" ry="1.34"/>
</g>
<path opacity="0.2" fill="#57A3C2" enable-background="new    " d="M89.13,85.71h100.68c-0.02-0.83-0.06-8.75-0.11-9.58
	c-1.84-26.08-23.62-46.67-50.22-46.67S91.09,50.05,89.26,76.14C89.19,76.96,89.15,84.88,89.13,85.71z"/>
<circle opacity="0.4" fill="#C4C6C7" enable-background="new    " cx="115.09" cy="51.91" r="6.54"/>
<g id="beam-port">
	<rect x="96.05" y="139.02" fill="#221F1F" width="86.98" height="25.26"/>
	<path fill="#454547" d="M185.47,165.04c0,1.2-0.97,2.17-2.17,2.17H96.52c-1.2,0-2.17-0.97-2.17-2.17v-0.51
		c0-1.2,0.97-2.17,2.17-2.17h86.78c1.2,0,2.17,0.97,2.17,2.17L185.47,165.04L185.47,165.04z"/>
</g>
<g id="flame-small">
	<path fill="#EA2127" d="M68.31,119.17c0,7.11-13.01,12.88-29.06,12.88s-29.06-12.88-29.06-12.88s13.01-12.88,29.06-12.88
		S68.31,112.06,68.31,119.17z"/>
	<path fill="#E0D020" d="M62.62,119.17c0,4.22-7.72,7.64-17.24,7.64s-17.24-7.64-17.24-7.64s7.72-7.64,17.24-7.64
		S62.62,114.95,62.62,119.17z"/>
</g>
<g id="flame-large">
	<path fill="#EA2127" d="M68.09,119.17c0,8.33-15.24,15.09-34.04,15.09S0,119.17,0,119.17s15.24-15.09,34.04-15.09
		S68.09,110.84,68.09,119.17z"/>
	<path fill="#E0D020" d="M61.43,119.17c0,4.94-9.04,8.95-20.2,8.95s-20.2-8.95-20.2-8.95s9.04-8.95,20.2-8.95
		S61.43,114.22,61.43,119.17z"/>
</g>
<ellipse fill="#221F1F" cx="58.87" cy="117.58" rx="19.62" ry="49.26"/>
<path fill="#EA2127" d="M188.02,84.33c-0.75-0.04-108.06-0.06-122.91-0.08c-0.28-0.04-0.57-0.07-0.85-0.07s-0.56,0.02-0.84,0.06
	c0,0,0,0-0.01,0l0,0c-7.3,1.09-13.09,16.3-13.09,34.91c0,19.31,6.24,34.97,13.93,34.97c0.32,0,0.63-0.03,0.94-0.08
	c15.19-0.01,122.08-0.04,122.83-0.08c25.71-1.28,46-16.38,46-34.82C234.03,100.7,213.73,85.6,188.02,84.33z"/>
<path fill="#F05B24" d="M234.03,118.99c-0.12-18.37-20.37-33.39-46.01-34.66c-0.75-0.04-108.06-0.06-122.91-0.08
	c-0.28-0.04-0.57-0.07-0.85-0.07s-0.56,0.02-0.84,0.06c0,0,0,0-0.01,0l0,0c-7.28,1.09-13.05,16.21-13.09,34.74h183.71L234.03,118.99
	L234.03,118.99z"/>
<path fill="#221F1F" d="M196.76,118.3c0,4.34-24.48,7.85-54.68,7.85S87.4,118.3,87.4,118.3s24.48-7.85,54.68-7.85
	S196.76,113.96,196.76,118.3z"/>
<path fill="#221F1F" d="M232.44,114.17v8.26c19.44-0.76,34.17-4.13,34.17-4.13S251.87,114.92,232.44,114.17z"/>
<ellipse fill="#221F1F" cx="232.57" cy="118.29" rx="1.44" ry="4.15"/>
<g id="guides">
	<rect x="0" y="118.92" fill="#FFFFFF" fill-opacity="0" width="12.33" height="118.92"/>
	<rect x="0" y="0" fill="#FFFFFF" fill-opacity="0" width="12.33" height="118.92"/>
</g>
</svg>
