<?xml version="1.0" encoding="utf-8"?>
<!-- Generator: Adobe Illustrator 15.0.0, SVG Export Plug-In . SVG Version: 6.00 Build 0)  -->
<!DOCTYPE svg PUBLIC "-//W3C//DTD SVG 1.1//EN" "http://www.w3.org/Graphics/SVG/1.1/DTD/svg11.dtd">
<svg version="1.1" id="Layer_1" xmlns="http://www.w3.org/2000/svg" xmlns:xlink="http://www.w3.org/1999/xlink" x="0px" y="0px"
	 width="250.205px" height="216.51px" viewBox="0 0 250.205 216.51" enable-background="new 0 0 250.205 216.51"
	 xml:space="preserve">
<polygon fill="#FFFFDC" points="39.969,169.979 65.594,170.104 136.125,47.385 237.123,215.691 249.674,192.799 136.469,0.791 "/>
<path d="M39.969,169.979l-0.002,0.531l25.625,0.125c0.191,0.001,0.368-0.101,0.463-0.267l70.08-121.934l100.532,167.531
	c0.098,0.163,0.276,0.262,0.467,0.258c0.189-0.004,0.364-0.109,0.455-0.275l12.551-22.893c0.091-0.165,0.088-0.363-0.008-0.525
	L136.927,0.521c-0.097-0.164-0.272-0.263-0.462-0.261c-0.189,0.001-0.363,0.103-0.458,0.268l-96.5,169.187
	c-0.093,0.164-0.092,0.366,0.001,0.529c0.094,0.163,0.27,0.265,0.458,0.266L39.969,169.979l0.462,0.264L136.477,1.851
	l112.586,190.958l-11.96,21.815L136.581,47.111c-0.098-0.162-0.272-0.26-0.461-0.258c-0.188,0.001-0.362,0.103-0.456,0.267
	L65.287,169.57l-25.316-0.123L39.969,169.979l0.462,0.264L39.969,169.979z"/>
<polygon fill="#C9E1D4" points="0.531,193.604 12.406,215.979 237.211,215.824 136.139,47.4 123.455,69.476 196.641,193.468 "/>
<path d="M0.531,193.604l-0.47,0.249l11.875,22.375c0.092,0.174,0.273,0.282,0.47,0.282l224.804-0.154
	c0.191,0,0.368-0.103,0.463-0.27c0.094-0.167,0.092-0.371-0.007-0.535L136.595,47.127c-0.098-0.162-0.272-0.26-0.461-0.258
	c-0.188,0.001-0.362,0.104-0.456,0.267l-12.684,22.075c-0.095,0.166-0.094,0.37,0.003,0.535l72.713,123.191L0.531,193.072
	c-0.187,0-0.359,0.098-0.455,0.258c-0.096,0.159-0.101,0.357-0.014,0.522L0.531,193.604l0,0.531l196.109-0.136
	c0.19,0,0.367-0.103,0.462-0.268c0.094-0.165,0.093-0.37-0.004-0.534L124.07,69.472l12.078-21.022l100.124,166.843l-223.547,0.153
	L1,193.354L0.531,193.604l0,0.531L0.531,193.604z"/>
<polygon fill="#E2D8E5" points="108.962,0.532 0.545,193.566 196.67,193.51 182.787,170.053 39.855,170.073 136.58,0.795 "/>
<path d="M108.962,0.532l-0.463-0.26L0.082,193.306c-0.092,0.164-0.09,0.367,0.005,0.529c0.095,0.162,0.271,0.263,0.458,0.263
	l196.125-0.057c0.191,0,0.367-0.102,0.462-0.269c0.095-0.166,0.093-0.368-0.005-0.533l-13.883-23.457
	c-0.096-0.162-0.269-0.261-0.457-0.261l-142.016,0.021l96.27-168.483c0.094-0.164,0.094-0.365,0-0.528s-0.268-0.265-0.456-0.267
	L108.967,0c-0.193-0.001-0.374,0.103-0.468,0.271L108.962,0.532l-0.005,0.531l26.711,0.255L39.394,169.81
	c-0.094,0.165-0.094,0.366,0.002,0.53c0.095,0.164,0.27,0.265,0.459,0.265l142.629-0.021l13.254,22.395L1.453,193.034L109.426,0.792
	L108.962,0.532l-0.005,0.531L108.962,0.532z"/>
</svg>
