<?xml version="1.0" encoding="utf-8"?>
<!-- Generator: Adobe Illustrator 17.0.0, SVG Export Plug-In . SVG Version: 6.00 Build 0)  -->
<!DOCTYPE svg PUBLIC "-//W3C//DTD SVG 1.1//EN" "http://www.w3.org/Graphics/SVG/1.1/DTD/svg11.dtd">
<svg version="1.1" id="Layer_1" xmlns="http://www.w3.org/2000/svg" xmlns:xlink="http://www.w3.org/1999/xlink" x="0px" y="0px"
	 width="139.963px" height="327.773px" viewBox="0 0 139.963 327.773" enable-background="new 0 0 139.963 327.773"
	 xml:space="preserve">
<g>
	<g>
		<path fill="#550F17" d="M34.568,248.325c-40.377,0-40.377,60.565,0,60.565c0-5.287,0-10.575,0-15.862
			c-19.227,0-19.227-28.84,0-28.84C34.568,258.9,34.568,253.613,34.568,248.325z"/>
		<path fill="#550F17" d="M119.442,263.902c17.988,0,17.988-26.983,0-26.983c0,2.356,0,4.711,0,7.067c8.566,0,8.566,12.849,0,12.849
			C119.442,259.19,119.442,261.546,119.442,263.902z"/>
		<g>
			<path fill="#A83342" d="M27.785,58.582c-8.198,0-14.844,6.646-14.844,14.844S19.587,88.27,27.785,88.27
				s14.844-6.646,14.844-14.844S35.983,58.582,27.785,58.582z M27.785,84.913c-6.344,0-11.487-5.143-11.487-11.487
				c0-6.344,5.143-11.487,11.487-11.487s11.487,5.143,11.487,11.487C39.272,79.77,34.129,84.913,27.785,84.913z"/>
			<circle fill="#A83342" cx="27.785" cy="73.426" r="11.554"/>
			<path fill="#550F17" d="M27.785,59.553c-7.661,0-13.872,6.211-13.872,13.872s6.211,13.872,13.872,13.872
				s13.872-6.211,13.872-13.872S35.447,59.553,27.785,59.553z M27.785,84.16c-5.929,0-10.735-4.806-10.735-10.735
				S21.856,62.69,27.785,62.69S38.52,67.496,38.52,73.425S33.714,84.16,27.785,84.16z"/>
			<rect x="16.119" y="72.862" fill="#550F17" width="23.333" height="1.127"/>
		</g>
		<circle fill="#550F17" cx="122.8" cy="100.616" r="7.735"/>
		<path fill="#550F17" d="M121.532,105.114c24.575,0,24.575-36.863,0-36.863c0,3.218,0,6.436,0,9.655
			c11.702,0,11.702,17.554,0,17.554C121.532,98.677,121.532,101.895,121.532,105.114z"/>
		<path fill="#A83342" d="M122.622,319.589c0,4.501-3.683,8.184-8.184,8.184H31.672c-4.501,0-8.184-3.683-8.184-8.184l0-311.405
			C23.488,3.683,27.171,0,31.672,0l82.766,0c4.501,0,8.184,3.683,8.184,8.184V319.589z"/>
		<path opacity="0.2" fill="#A83342" enable-background="new    " d="M31.672,327.773c-4.501,0-8.184-3.683-8.184-8.184l0-311.405
			C23.488,3.683,27.171,0,31.672,0l82.766,0c4.501,0,8.184,3.683,8.184,8.184L31.672,327.773z"/>
		<rect x="39.856" y="16.368" fill="none" stroke="#731012" stroke-miterlimit="10" width="66.397" height="295.036"/>
		<rect x="63.273" y="224.477" fill="none" stroke="#731012" stroke-miterlimit="10" width="19.563" height="86.927"/>
		<g>
			<rect x="39.693" y="258.504" fill="#731012" width="20.188" height="21.007"/>
			<rect x="0.007" y="129.65" fill="#731012" width="21.007" height="109.902"/>
			<path fill="#731012" d="M39.842,258.515c-9.457-0.12-18.824-6.481-18.824-19.091H0.011c0,26.615,19.871,39.977,39.831,40.098
				C39.842,279.522,39.842,258.515,39.842,258.515z"/>
		</g>
		<path fill="#731012" d="M21.007,129.694c0.12-9.457,6.481-18.824,19.091-18.824V89.863c-26.615,0-39.977,19.871-40.098,39.831
			L21.007,129.694L21.007,129.694z"/>
		<g>
			<g>
				<path fill="#731012" d="M51.802,226.203c-3.261,0-5.915-2.653-5.915-5.915v-77.237c0-3.261,2.653-5.915,5.915-5.915h41.75
					c3.261,0,5.915,2.653,5.915,5.915v77.237c0,3.261-2.653,5.915-5.915,5.915L51.802,226.203z"/>
				<path fill="#A83342" d="M97.726,220.288c0,2.306-1.869,4.175-4.175,4.175h-41.75c-2.306,0-4.175-1.869-4.175-4.175v-77.237
					c0-2.306,1.869-4.175,4.175-4.175h41.75c2.306,0,4.175,1.869,4.175,4.175C97.726,143.051,97.726,220.288,97.726,220.288z"/>
				<g>
					<circle fill="#731012" cx="72.677" cy="137.43" r="15.108"/>
					<path fill="#731012" d="M72.676,157.31c-10.962,0-19.88-8.918-19.88-19.88s8.918-19.88,19.88-19.88s19.88,8.918,19.88,19.88
						C92.556,148.392,83.638,157.31,72.676,157.31z M72.676,125.132c-6.781,0-12.298,5.517-12.298,12.298
						s5.517,12.298,12.298,12.298c6.781,0,12.298-5.517,12.298-12.298C84.975,130.649,79.458,125.132,72.676,125.132z"/>
					<path fill="#A83342" d="M90.817,137.43c0-10.019-8.122-18.14-18.14-18.14s-18.14,8.122-18.14,18.14s8.122,18.14,18.14,18.14
						S90.817,147.449,90.817,137.43z M58.639,137.43c0-7.753,6.285-14.038,14.038-14.038s14.038,6.285,14.038,14.038
						c0,7.753-6.285,14.038-14.038,14.038S58.639,145.183,58.639,137.43z"/>
					<rect x="71.94" y="122.175" fill="#A83342" width="1.474" height="30.511"/>
				</g>
			</g>
			<g>
				<circle fill="#731012" cx="83.458" cy="209.251" r="3.605"/>
				<circle fill="#731012" cx="62.208" cy="209.251" r="3.605"/>
			</g>
			<path fill="#731012" d="M73.298,187.831c1.98,0,3.771-0.802,5.069-2.099c1.297-1.297,2.099-3.088,2.099-5.068
				s-0.802-3.771-2.099-5.069c-1.297-1.297-3.089-2.099-5.069-2.099s-3.771,0.802-5.068,2.099s-2.099,3.089-2.099,5.069
				s0.802,3.77,2.099,5.068C69.528,187.029,71.318,187.831,73.298,187.831z M73.297,174.341c3.494,0,6.323,2.83,6.323,6.323
				c0,3.492-2.83,6.323-6.323,6.323c-3.492,0-6.323-2.832-6.323-6.323C66.974,177.171,69.806,174.341,73.297,174.341z
				 M73.298,166.272c-3.975,0-7.571,1.611-10.176,4.215c-2.577,2.578-4.179,6.128-4.212,10.054h6.977
				c0.066-4.039,3.357-7.292,7.411-7.292s7.346,3.253,7.412,7.291h6.977c-0.033-3.926-1.635-7.476-4.212-10.054
				C80.87,167.882,77.273,166.272,73.298,166.272z M90.579,178.937H88.88c-0.084-0.767-0.222-1.518-0.413-2.247l1.572-0.614
				c0.223-0.087,0.333-0.339,0.246-0.562l-0.941-2.409c-0.087-0.223-0.339-0.333-0.561-0.246l-1.556,0.608
				c-0.45-0.869-0.978-1.69-1.577-2.455l1.164-1.164c0.169-0.169,0.169-0.444,0-0.613l-1.829-1.829
				c-0.169-0.169-0.444-0.169-0.613,0l-1.133,1.133c-0.598-0.491-1.234-0.937-1.901-1.337l0.001-0.003l0.629-1.438
				c0.095-0.218-0.004-0.474-0.223-0.571l-2.37-1.038c-0.221-0.095-0.476,0.004-0.571,0.225l-0.608,1.386l-0.002,0.005
				c-0.935-0.307-1.909-0.528-2.912-0.655v-1.473c0-0.239-0.194-0.433-0.433-0.433h-2.586c-0.239,0-0.433,0.194-0.433,0.433v1.414
				c-0.807,0.075-1.596,0.21-2.362,0.402l-0.499-1.277c-0.087-0.223-0.339-0.333-0.562-0.246l-2.409,0.941
				c-0.223,0.087-0.333,0.339-0.246,0.562l0.481,1.23c-0.918,0.464-1.783,1.016-2.586,1.644l-0.906-0.906
				c-0.169-0.169-0.444-0.169-0.613,0l-1.829,1.829c-0.169,0.169-0.169,0.444,0,0.613l0.875,0.875
				c-0.519,0.633-0.987,1.308-1.404,2.018l-1.113-0.488c-0.219-0.096-0.475,0.004-0.571,0.223l-1.038,2.369
				c-0.096,0.219,0.004,0.475,0.223,0.571l1.089,0.477c-0.312,0.977-0.53,1.995-0.645,3.044h-1.182
				c-0.239,0-0.433,0.194-0.433,0.433v2.586c0,0.239,0.194,0.434,0.433,0.434h1.182c0.091,0.831,0.248,1.642,0.464,2.429
				l-1.107,0.432c-0.223,0.087-0.333,0.339-0.246,0.561l0.941,2.409c0.087,0.223,0.339,0.333,0.561,0.246l1.125-0.44
				c0.489,0.916,1.064,1.779,1.718,2.576l-0.874,0.874c-0.169,0.169-0.169,0.443,0,0.612l1.829,1.829
				c0.169,0.169,0.443,0.169,0.612,0l0.904-0.902l0.003-0.003c0.638,0.499,1.314,0.95,2.025,1.347l-0.526,1.201
				c-0.096,0.219,0.004,0.475,0.223,0.571l2.369,1.038c0.219,0.096,0.475-0.004,0.571-0.223l0.547-1.248
				c0.957,0.282,1.951,0.477,2.974,0.572v1.414c0,0.239,0.194,0.433,0.433,0.433h2.586c0.239,0,0.433-0.194,0.433-0.433v-1.473
				c0.791-0.1,1.563-0.258,2.312-0.472l0.549,1.406c0.087,0.223,0.339,0.333,0.561,0.246l2.409-0.941
				c0.223-0.087,0.333-0.339,0.246-0.561l-0.568-1.452c0.868-0.473,1.686-1.027,2.445-1.65l1.133,1.133
				c0.169,0.169,0.444,0.169,0.613,0l1.829-1.829c0.169-0.169,0.169-0.444,0-0.613l-1.164-1.164c0.472-0.603,0.9-1.24,1.28-1.909
				l1.526,0.668c0.219,0.096,0.475-0.004,0.571-0.223l1.038-2.369c0.096-0.219-0.004-0.475-0.223-0.571l-1.544-0.676
				c0.279-0.916,0.475-1.867,0.582-2.845h1.699c0.239,0,0.433-0.194,0.433-0.434v-2.586
				C91.013,179.131,90.819,178.937,90.579,178.937z M73.298,195.303c-8.085,0-14.638-6.553-14.638-14.638
				c0-8.087,6.553-14.64,14.638-14.64c8.087,0,14.64,6.553,14.64,14.64C87.937,188.749,81.384,195.302,73.298,195.303z
				 M73.298,188.078c-4.053,0-7.344-3.253-7.411-7.29H58.91c0.033,3.925,1.635,7.475,4.212,10.052
				c2.605,2.604,6.202,4.215,10.176,4.215c3.975,0,7.573-1.611,10.178-4.215c2.578-2.578,4.179-6.128,4.212-10.053h-6.977
				C80.644,184.825,77.352,188.078,73.298,188.078z"/>
		</g>
		<rect x="39.641" y="89.852" fill="#731012" width="81.734" height="21.007"/>
		<g>
			<circle fill="#731012" cx="52.788" cy="269.195" r="13.095"/>
			<path fill="#731012" d="M40.098,110.87v-0.011h81.277V89.852H39.641v0.022C13.334,90.103,0.12,109.85,0,129.694h0.007l0,109.858
				h0.007c0.065,26.528,19.9,39.849,39.828,39.969v-0.01h20.039v-21.007H39.693v0.005c-9.406-0.185-18.675-6.543-18.675-19.086
				h-0.004l0-109.773h-0.006C21.147,120.208,27.507,110.87,40.098,110.87z"/>
			<g opacity="0.5">
				<path fill="#FFFFFF" d="M39.842,273.373c-0.113,0-0.226,0.003-0.338,0.009l0.065,1.226l0.017-1.228
					c-8.093-0.11-16.465-2.848-22.772-8.388c-3.156-2.771-5.806-6.24-7.679-10.46c-1.872-4.22-2.968-9.197-2.983-14.996v-0.003
					c-0.001-0.105-0.003-0.209-0.009-0.314l-1.226,0.064h1.228v-109.59v-0.027l-0.005-0.215l-1.227,0.027l1.228,0.015
					c0.098-8.048,2.806-16.397,8.3-22.71c2.748-3.159,6.189-5.819,10.375-7.709c4.187-1.889,9.125-3.012,14.879-3.063h0.003
					c0.174-0.002,0.347-0.011,0.519-0.027c0.675-0.062,1.172-0.66,1.109-1.335c-0.062-0.675-0.66-1.172-1.335-1.109
					c-0.105,0.01-0.212,0.015-0.321,0.016h0.003c-6.061,0.052-11.352,1.241-15.868,3.28c-6.777,3.057-11.787,8.022-15.096,13.807
					c-3.312,5.787-4.943,12.392-5.023,18.819v0.043l0.004,0.202v109.578l0.002,0.064l0.006,0.198v-0.003
					c0.014,6.105,1.175,11.435,3.194,15.986c3.028,6.829,7.984,11.883,13.777,15.223c5.795,3.343,12.423,4.994,18.884,5.084
					l0.082-0.002l0.209-0.005c0.678,0,1.228-0.55,1.228-1.228C41.07,273.923,40.52,273.373,39.842,273.373L39.842,273.373z"/>
			</g>
		</g>
		<path fill="none" stroke="#A83342" stroke-miterlimit="10" d="M16.103,239.424"/>
		<path fill="#731012" d="M124.643,115.575c0,0.309-0.253,0.562-0.562,0.562h-4.044c-0.309,0-0.562-0.253-0.562-0.562V86.017
			c0-0.309,0.253-0.562,0.562-0.562h4.044c0.309,0,0.562,0.253,0.562,0.562V115.575z"/>
		<rect x="88.766" y="298.493" fill="none" stroke="#731012" stroke-miterlimit="10" width="17.46" height="12.959"/>
		<path fill="#731012" d="M102.188,272.543v-0.002c17.837,0.028,19.191,24.754,4.062,28.532c0,1.491,0.04,5.66,0.04,7.003
			c24.26-3.922,22.882-42.379-4.133-42.379v0.002c-19.302-0.03-19.302-28.983,0-29.014v0.001c13.911,0,21.023-10.197,21.338-20.625
			c0-0.007,0-81.157,0-81.157l-6.847-0.007c0,0.01-0.001,81.163-0.001,81.172c-0.315,6.993-5.135,13.759-14.46,13.773v-0.001
			C73.721,229.843,73.721,272.543,102.188,272.543z"/>
		<path opacity="0.5" fill="#FFFFFF" enable-background="new    " d="M122.17,134.898c0,3.667-0.001,80.238-0.001,81.118
			c-0.285,8.793-6.039,17.648-18.271,17.688c-0.028-0.001-0.087-0.001-0.089-0.001c-11.902,0.019-17.456,8.812-17.456,17.491
			c0,8.678,5.996,17.472,17.456,17.491c0.002,0,0.003,0,0.005,0c0.032,0,0.063,0,0.095-0.002c5.677,0.022,10.408,1.981,13.688,5.67
			c2.956,3.325,4.584,7.834,4.584,12.696s-1.628,9.371-4.584,12.696c-2.706,3.044-6.4,4.911-10.799,5.482v-0.897
			c9.53-1.382,14.501-9.368,14.507-17.266c0.007-8.686-5.987-17.488-17.456-17.506c-0.002,0-0.003,0-0.005,0
			c-0.032,0-0.063,0-0.095,0.002c-5.677-0.022-10.408-1.981-13.688-5.67c-2.956-3.325-4.584-7.834-4.584-12.696
			s1.628-9.371,4.584-12.696c3.281-3.692,8.017-5.651,13.699-5.67c0.028,0.001,0.087,0.001,0.089,0.001
			c11.466-0.018,17.076-8.629,17.436-16.623c0.003-0.065,0.003-0.065,0.004-32.726c0-10.658,0-43.698,0-48.58h0.881V134.898z"/>
		<g>
			<path fill="#A83342" d="M86.118,239.443c-5.729,0-10.373,4.644-10.373,10.373s4.644,10.373,10.373,10.373
				c5.729,0,10.373-4.644,10.373-10.373S91.846,239.443,86.118,239.443z M86.118,257.843c-4.433,0-8.027-3.594-8.027-8.027
				s3.594-8.027,8.027-8.027s8.027,3.594,8.027,8.027S90.551,257.843,86.118,257.843z"/>
			<circle fill="#A83342" cx="86.118" cy="249.816" r="8.074"/>
			<path fill="#731012" d="M86.118,240.122c-5.354,0-9.694,4.34-9.694,9.694s4.34,9.694,9.694,9.694c5.354,0,9.694-4.34,9.694-9.694
				C95.811,244.462,91.471,240.122,86.118,240.122z M86.118,257.317c-4.143,0-7.502-3.359-7.502-7.502
				c0-4.143,3.359-7.502,7.502-7.502s7.502,3.359,7.502,7.502C93.619,253.959,90.261,257.317,86.118,257.317z"/>
			<rect x="77.965" y="249.421" fill="#731012" width="16.305" height="0.788"/>
		</g>
		<g>
			<circle fill="#731012" cx="120.085" cy="132.326" r="12.462"/>
			<circle fill="#A83342" cx="120.085" cy="132.326" r="10.772"/>
			<circle fill="#731012" cx="122.719" cy="127.261" r="2.557"/>
		</g>
		<path fill="#731012" d="M73.279,80.298c-0.428,0-0.806-0.26-0.974-0.651c-13.434-0.516-23.933-11.414-23.933-24.884
			c0-13.454,10.481-24.346,23.898-24.88c0.144-0.432,0.547-0.739,1.009-0.739c0.463,0,0.866,0.306,1.009,0.739
			c13.418,0.533,23.9,11.426,23.9,24.88c0,13.472-10.5,24.369-23.936,24.884C74.084,80.038,73.707,80.298,73.279,80.298z
			 M73.733,78.257c0.216,0.102,0.39,0.27,0.496,0.482c6.054-0.236,11.737-2.719,16.022-7.003c4.533-4.533,7.029-10.561,7.029-16.973
			c0-6.411-2.496-12.438-7.029-16.971c-4.294-4.292-9.99-6.776-16.058-7.004c-0.109,0.173-0.269,0.311-0.462,0.399v10.332
			c0.241,0.113,0.43,0.313,0.53,0.561c6.606,0.506,11.755,6.045,11.755,12.684c0,6.64-5.149,12.179-11.755,12.685
			c-0.1,0.247-0.289,0.447-0.529,0.56L73.733,78.257L73.733,78.257z M72.363,30.788c-6.066,0.228-11.761,2.712-16.054,7.004
			c-4.533,4.533-7.029,10.56-7.029,16.971c0,6.412,2.497,12.44,7.029,16.973c4.284,4.284,9.967,6.767,16.02,7.003
			c0.107-0.213,0.281-0.381,0.498-0.483V68.009c-0.242-0.113-0.43-0.313-0.531-0.561c-6.603-0.507-11.751-6.046-11.752-12.685
			c0-6.638,5.148-12.177,11.752-12.684c0.1-0.248,0.289-0.448,0.53-0.561V31.186C72.632,31.099,72.472,30.962,72.363,30.788z
			 M73.279,65.97c0.398,0,0.756,0.224,0.94,0.573c2.811-0.221,5.442-1.43,7.426-3.413c2.234-2.235,3.464-5.206,3.464-8.366
			c0-3.159-1.23-6.13-3.464-8.364c-1.985-1.984-4.616-3.192-7.426-3.413c-0.184,0.349-0.542,0.573-0.94,0.573
			s-0.757-0.224-0.94-0.573c-2.809,0.221-5.439,1.43-7.424,3.413c-2.234,2.234-3.464,5.204-3.464,8.364s1.231,6.131,3.465,8.366
			c1.984,1.983,4.614,3.191,7.423,3.413C72.522,66.193,72.88,65.97,73.279,65.97z"/>
		<g>
			<path fill="#A83342" d="M40.06,6.185c-5.729,0-10.373,4.644-10.373,10.373c0,5.729,4.644,10.373,10.373,10.373
				s10.373-4.644,10.373-10.373S45.789,6.185,40.06,6.185z M40.06,24.585c-4.433,0-8.027-3.594-8.027-8.027s3.594-8.027,8.027-8.027
				s8.027,3.594,8.027,8.027C48.087,20.991,44.493,24.585,40.06,24.585z"/>
			<circle fill="#A83342" cx="40.06" cy="16.558" r="8.074"/>
			<path fill="#731012" d="M40.06,6.864c-5.354,0-9.694,4.34-9.694,9.694s4.34,9.694,9.694,9.694s9.694-4.34,9.694-9.694
				S45.414,6.864,40.06,6.864z M40.06,24.06c-4.143,0-7.502-3.359-7.502-7.502s3.359-7.502,7.502-7.502s7.502,3.359,7.502,7.502
				C47.562,20.701,44.203,24.06,40.06,24.06z"/>
			<rect x="31.908" y="16.164" fill="#731012" width="16.305" height="0.788"/>
		</g>
		<g>
			<rect x="93.942" y="304.149" fill="#731012" width="4.981" height="1.966"/>
			<g>
				<polygon fill="#731012" points="99.01,302.399 101.698,305.087 99.01,307.775 				"/>
			</g>
		</g>
	</g>
</g>
</svg>
