<?xml version="1.0" encoding="utf-8"?>
<!-- Generator: Adobe Illustrator 17.0.0, SVG Export Plug-In . SVG Version: 6.00 Build 0)  -->
<!DOCTYPE svg PUBLIC "-//W3C//DTD SVG 1.1//EN" "http://www.w3.org/Graphics/SVG/1.1/DTD/svg11.dtd">
<svg version="1.1" id="Layer_1" xmlns="http://www.w3.org/2000/svg" xmlns:xlink="http://www.w3.org/1999/xlink" x="0px" y="0px"
	 width="139.963px" height="327.774px" viewBox="0 0 139.963 327.774" enable-background="new 0 0 139.963 327.774"
	 xml:space="preserve">
<g>
	<path fill="#2C9A6C" d="M105.395,79.448c40.377,0,40.377-60.565,0-60.565c0,5.287,0,10.575,0,15.862c19.227,0,19.227,28.84,0,28.84
		C105.395,68.873,105.395,74.16,105.395,79.448z"/>
	<path fill="#2C9A6C" d="M20.521,63.871c-17.988,0-17.988,26.983,0,26.983c0-2.356,0-4.711,0-7.067c-8.566,0-8.566-12.849,0-12.849
		C20.521,68.583,20.521,66.227,20.521,63.871z"/>
	<g>
		<path fill="#75C69A" d="M112.178,269.191c8.198,0,14.844-6.646,14.844-14.844s-6.646-14.844-14.844-14.844
			s-14.844,6.646-14.844,14.844S103.98,269.191,112.178,269.191z M112.178,242.86c6.344,0,11.487,5.143,11.487,11.487
			c0,6.344-5.143,11.487-11.487,11.487c-6.344,0-11.487-5.143-11.487-11.487C100.691,248.003,105.834,242.86,112.178,242.86z"/>
		<circle fill="#75C69A" cx="112.178" cy="254.347" r="11.554"/>
		<path fill="#2C9A6C" d="M112.178,268.22c7.661,0,13.872-6.211,13.872-13.872c0-7.661-6.211-13.872-13.872-13.872
			s-13.872,6.211-13.872,13.872C98.306,262.009,104.516,268.22,112.178,268.22z M112.178,243.613
			c5.929,0,10.735,4.806,10.735,10.735s-4.806,10.735-10.735,10.735c-5.929,0-10.735-4.806-10.735-10.735
			S106.249,243.613,112.178,243.613z"/>
		<rect x="100.511" y="253.784" fill="#2C9A6C" width="23.333" height="1.127"/>
	</g>
	<circle fill="#2C9A6C" cx="17.163" cy="227.157" r="7.735"/>
	<path fill="#2C9A6C" d="M18.431,222.659c-24.575,0-24.575,36.863,0,36.863c0-3.218,0-6.436,0-9.655
		c-11.702,0-11.702-17.554,0-17.554C18.431,229.096,18.431,225.878,18.431,222.659z"/>
	<path fill="#75C69A" d="M17.341,8.184C17.341,3.683,21.024,0,25.525,0l82.766,0c4.501,0,8.184,3.683,8.184,8.184v311.405
		c0,4.501-3.683,8.184-8.184,8.184H25.525c-4.501,0-8.184-3.683-8.184-8.184V8.184z"/>
	<path opacity="0.12" fill="#F5928D" d="M108.291,0c4.501,0,8.184,3.683,8.184,8.184v311.405c0,4.501-3.683,8.184-8.184,8.184
		H25.525c-4.501,0-8.184-3.683-8.184-8.184L108.291,0z"/>
	<rect x="33.71" y="16.369" fill="none" stroke="#59BE8C" stroke-miterlimit="10" width="66.397" height="295.036"/>
	<rect x="57.127" y="16.369" fill="none" stroke="#59BE8C" stroke-miterlimit="10" width="19.563" height="86.927"/>
	<g>
		<rect x="80.082" y="48.262" fill="#46B97C" width="20.188" height="21.007"/>
		<rect x="118.949" y="88.221" fill="#46B97C" width="21.007" height="109.902"/>
		<path fill="#46B97C" d="M100.121,69.258c9.457,0.12,18.824,6.481,18.824,19.091h21.007c0-26.615-19.871-39.977-39.831-40.098
			V69.258z"/>
	</g>
	<path fill="#46B97C" d="M118.956,198.079c-0.12,9.457-6.481,18.824-19.091,18.824v21.007c26.615,0,39.977-19.871,40.098-39.831
		H118.956z"/>
	<g>
		<g>
			<path fill="#46B97C" d="M88.161,101.57c3.261,0,5.915,2.653,5.915,5.915v77.237c0,3.261-2.653,5.915-5.915,5.915h-41.75
				c-3.261,0-5.915-2.653-5.915-5.915v-77.237c0-3.261,2.653-5.915,5.915-5.915H88.161z"/>
			<path fill="#75C69A" d="M42.237,107.485c0-2.306,1.869-4.175,4.175-4.175h41.75c2.306,0,4.175,1.869,4.175,4.175v77.237
				c0,2.306-1.869,4.175-4.175,4.175h-41.75c-2.306,0-4.175-1.869-4.175-4.175V107.485z"/>
			<g>
				<circle fill="#46B97C" cx="67.286" cy="190.343" r="15.108"/>
				<path fill="#46B97C" d="M67.287,170.463c10.962,0,19.88,8.918,19.88,19.88c0,10.962-8.918,19.88-19.88,19.88
					s-19.88-8.918-19.88-19.88C47.407,179.381,56.325,170.463,67.287,170.463z M67.287,202.641c6.781,0,12.298-5.517,12.298-12.298
					c0-6.781-5.517-12.298-12.298-12.298c-6.781,0-12.298,5.517-12.298,12.298C54.988,197.124,60.505,202.641,67.287,202.641z"/>
				<path fill="#75C69A" d="M49.146,190.343c0,10.019,8.122,18.14,18.14,18.14c10.018,0,18.14-8.122,18.14-18.14
					c0-10.018-8.122-18.14-18.14-18.14C57.268,172.203,49.146,180.324,49.146,190.343z M81.324,190.343
					c0,7.753-6.285,14.038-14.038,14.038s-14.038-6.285-14.038-14.038c0-7.753,6.285-14.038,14.038-14.038
					S81.324,182.59,81.324,190.343z"/>
				<rect x="66.549" y="175.087" fill="#75C69A" width="1.474" height="30.511"/>
			</g>
		</g>
		<g>
			<circle fill="#46B97C" cx="56.505" cy="118.522" r="3.605"/>
			<circle fill="#46B97C" cx="77.755" cy="118.522" r="3.605"/>
		</g>
		<path fill="#46B97C" d="M66.665,139.942c-1.98,0-3.771,0.802-5.069,2.099c-1.297,1.297-2.099,3.088-2.099,5.068
			c0,1.98,0.802,3.771,2.099,5.069c1.297,1.297,3.089,2.099,5.069,2.099c1.98,0,3.771-0.802,5.068-2.099
			c1.297-1.297,2.099-3.089,2.099-5.069c0-1.98-0.802-3.77-2.099-5.068C70.435,140.744,68.645,139.942,66.665,139.942z
			 M66.666,153.432c-3.494,0-6.323-2.83-6.323-6.323c0-3.492,2.83-6.323,6.323-6.323c3.492,0,6.323,2.832,6.323,6.323
			C72.989,150.602,70.157,153.432,66.666,153.432z M66.665,161.501c3.975,0,7.571-1.611,10.176-4.215
			c2.577-2.578,4.179-6.128,4.212-10.054h-6.977c-0.066,4.039-3.357,7.292-7.411,7.292c-4.054,0-7.346-3.253-7.412-7.291h-6.977
			c0.033,3.926,1.635,7.476,4.212,10.054C59.093,159.891,62.69,161.501,66.665,161.501z M49.384,148.836h1.699
			c0.084,0.767,0.222,1.518,0.413,2.247l-1.572,0.614c-0.223,0.087-0.333,0.339-0.246,0.562l0.941,2.409
			c0.087,0.223,0.339,0.333,0.561,0.246l1.556-0.608c0.45,0.869,0.978,1.69,1.577,2.455l-1.164,1.164
			c-0.169,0.169-0.169,0.444,0,0.613l1.829,1.829c0.169,0.169,0.444,0.169,0.613,0l1.133-1.133c0.598,0.491,1.234,0.937,1.901,1.337
			l-0.001,0.003l-0.629,1.438c-0.095,0.218,0.004,0.474,0.223,0.571l2.37,1.038c0.221,0.095,0.476-0.004,0.571-0.225l0.608-1.386
			l0.002-0.005c0.935,0.307,1.909,0.528,2.912,0.655v1.473c0,0.239,0.194,0.433,0.433,0.433h2.586c0.239,0,0.433-0.194,0.433-0.433
			v-1.414c0.807-0.075,1.596-0.21,2.362-0.402l0.499,1.277c0.087,0.223,0.339,0.333,0.562,0.246l2.409-0.941
			c0.223-0.087,0.333-0.339,0.246-0.562l-0.481-1.23c0.918-0.464,1.783-1.016,2.586-1.644l0.906,0.906
			c0.169,0.169,0.444,0.169,0.613,0l1.829-1.829c0.169-0.169,0.169-0.444,0-0.613l-0.875-0.875c0.519-0.633,0.987-1.308,1.404-2.018
			l1.113,0.488c0.219,0.096,0.475-0.004,0.571-0.223l1.038-2.369c0.096-0.219-0.004-0.475-0.223-0.571l-1.089-0.477
			c0.312-0.977,0.53-1.995,0.645-3.044h1.182c0.239,0,0.433-0.194,0.433-0.433v-2.586c0-0.239-0.194-0.434-0.433-0.434h-1.182
			c-0.091-0.831-0.248-1.642-0.464-2.429l1.107-0.432c0.223-0.087,0.333-0.339,0.246-0.561l-0.941-2.409
			c-0.087-0.223-0.339-0.333-0.561-0.246l-1.125,0.44c-0.489-0.916-1.064-1.779-1.718-2.576l0.874-0.874
			c0.169-0.169,0.169-0.443,0-0.612l-1.829-1.829c-0.169-0.169-0.443-0.169-0.612,0l-0.904,0.902l-0.003,0.003
			c-0.638-0.499-1.314-0.95-2.025-1.347l0.526-1.201c0.096-0.219-0.004-0.475-0.223-0.571l-2.369-1.038
			c-0.219-0.096-0.475,0.004-0.571,0.223l-0.547,1.248c-0.957-0.282-1.951-0.477-2.974-0.572v-1.414
			c0-0.239-0.194-0.433-0.433-0.433h-2.586c-0.239,0-0.433,0.194-0.433,0.433v1.473c-0.791,0.1-1.563,0.258-2.312,0.472
			l-0.549-1.406c-0.087-0.223-0.339-0.333-0.561-0.246l-2.409,0.941c-0.223,0.087-0.333,0.339-0.246,0.561l0.568,1.452
			c-0.868,0.473-1.686,1.027-2.445,1.65l-1.133-1.133c-0.169-0.169-0.444-0.169-0.613,0l-1.829,1.829
			c-0.169,0.169-0.169,0.444,0,0.613l1.164,1.164c-0.472,0.603-0.9,1.24-1.28,1.909l-1.526-0.668
			c-0.219-0.096-0.475,0.004-0.571,0.223l-1.038,2.369c-0.096,0.219,0.004,0.475,0.223,0.571l1.544,0.676
			c-0.279,0.916-0.475,1.867-0.582,2.845h-1.699c-0.239,0-0.433,0.194-0.433,0.434v2.586
			C48.95,148.642,49.144,148.836,49.384,148.836z M66.665,132.47c8.085,0,14.638,6.553,14.638,14.638
			c0,8.087-6.553,14.64-14.638,14.64c-8.087,0-14.64-6.553-14.64-14.64C52.026,139.024,58.579,132.471,66.665,132.47z
			 M66.665,139.695c4.053,0,7.344,3.253,7.411,7.29h6.977c-0.033-3.925-1.635-7.475-4.212-10.052
			c-2.605-2.604-6.202-4.215-10.176-4.215c-3.975,0-7.573,1.611-10.178,4.215c-2.578,2.578-4.179,6.128-4.212,10.053h6.977
			C59.319,142.948,62.611,139.695,66.665,139.695z"/>
	</g>
	<rect x="18.588" y="216.914" fill="#46B97C" width="81.734" height="21.007"/>
	<g>
		<circle fill="#46B97C" cx="87.175" cy="58.578" r="13.095"/>
		<path fill="#46B97C" d="M99.865,216.903v0.011H18.588v21.007h81.734v-0.022c26.307-0.229,39.521-19.976,39.641-39.82h-0.007
			V88.221h-0.007c-0.065-26.528-19.9-39.849-39.828-39.969v0.01H80.082v21.007h20.188v-0.005
			c9.406,0.185,18.675,6.543,18.675,19.086h0.004v109.773h0.006C118.816,207.565,112.456,216.903,99.865,216.903z"/>
		<g opacity="0.5">
			<path fill="#FFFFFF" d="M100.121,54.4c0.113,0,0.226-0.003,0.338-0.009l-0.065-1.226l-0.017,1.228
				c8.093,0.11,16.465,2.848,22.772,8.388c3.156,2.771,5.806,6.24,7.679,10.46c1.872,4.22,2.968,9.197,2.983,14.996v0.003
				c0.001,0.105,0.003,0.209,0.009,0.314l1.226-0.064h-1.228v109.59l0,0.027l0.005,0.215l1.227-0.027l-1.228-0.015
				c-0.098,8.048-2.806,16.397-8.3,22.71c-2.748,3.159-6.189,5.819-10.375,7.709c-4.187,1.889-9.125,3.012-14.879,3.063l-0.003,0
				c-0.174,0.002-0.347,0.011-0.519,0.027c-0.675,0.062-1.172,0.66-1.109,1.335c0.062,0.675,0.66,1.172,1.335,1.109
				c0.105-0.01,0.212-0.015,0.321-0.016l-0.003,0c6.061-0.052,11.352-1.241,15.868-3.28c6.777-3.057,11.787-8.022,15.096-13.807
				c3.312-5.787,4.943-12.392,5.023-18.819l0-0.043l-0.004-0.202V88.488l-0.002-0.064l-0.006-0.198v0.003
				c-0.014-6.105-1.175-11.435-3.194-15.986c-3.028-6.829-7.984-11.883-13.777-15.223c-5.795-3.343-12.423-4.994-18.884-5.084
				l-0.082,0.002l-0.209,0.005c-0.678,0-1.228,0.55-1.228,1.228C98.893,53.85,99.443,54.4,100.121,54.4L100.121,54.4z"/>
		</g>
	</g>
	<path fill="none" stroke="#A83342" stroke-miterlimit="10" d="M123.86,88.349"/>
	<path fill="#46B97C" d="M15.32,212.198c0-0.309,0.253-0.562,0.562-0.562h4.044c0.309,0,0.562,0.253,0.562,0.562v29.558
		c0,0.309-0.253,0.562-0.562,0.562h-4.044c-0.309,0-0.562-0.253-0.562-0.562V212.198z"/>
	<rect x="33.737" y="16.321" fill="none" stroke="#59BE8C" stroke-miterlimit="10" width="17.46" height="12.959"/>
	<path fill="#46B97C" d="M37.775,55.23v0.002c-17.837-0.028-19.191-24.754-4.062-28.532c0-1.491-0.04-5.66-0.04-7.003
		c-24.26,3.922-22.882,42.379,4.133,42.379v-0.002c19.302,0.03,19.302,28.983,0,29.014v-0.001
		c-13.911,0-21.023,10.197-21.338,20.625c0,0.007,0,81.157,0,81.157l6.847,0.007c0-0.01,0.001-81.163,0.001-81.172
		c0.315-6.993,5.135-13.759,14.46-13.773v0.001C66.242,97.93,66.242,55.23,37.775,55.23z"/>
	<path opacity="0.5" fill="#FFFFFF" d="M17.793,192.875c0-3.667,0.001-80.238,0.001-81.118c0.285-8.793,6.039-17.648,18.271-17.688
		c0.028,0.001,0.087,0.001,0.089,0.001c11.902-0.019,17.456-8.812,17.456-17.491c0-8.678-5.996-17.472-17.456-17.491
		c-0.002,0-0.003,0-0.005,0c-0.032,0-0.063,0-0.095,0.002c-5.677-0.022-10.408-1.981-13.688-5.67
		c-2.956-3.325-4.584-7.834-4.584-12.696s1.628-9.371,4.584-12.696c2.706-3.044,6.4-4.911,10.799-5.482v0.897
		c-9.53,1.382-14.501,9.368-14.507,17.266c-0.007,8.686,5.987,17.488,17.456,17.506c0.002,0,0.003,0,0.005,0
		c0.032,0,0.063,0,0.095-0.002c5.677,0.022,10.408,1.981,13.688,5.67c2.956,3.325,4.584,7.834,4.584,12.696
		c0,4.862-1.628,9.371-4.584,12.696c-3.281,3.692-8.017,5.651-13.699,5.67c-0.028-0.001-0.087-0.001-0.089-0.001
		c-11.466,0.018-17.076,8.629-17.436,16.623c-0.003,0.065-0.003,0.065-0.004,32.726c0,10.658,0,43.698,0,48.58H17.793z"/>
	<g>
		<path fill="#75C69A" d="M53.845,88.33c5.729,0,10.373-4.644,10.373-10.373c0-5.729-4.644-10.373-10.373-10.373
			s-10.373,4.644-10.373,10.373C43.472,83.686,48.117,88.33,53.845,88.33z M53.845,69.93c4.433,0,8.027,3.594,8.027,8.027
			s-3.594,8.027-8.027,8.027s-8.027-3.594-8.027-8.027S49.412,69.93,53.845,69.93z"/>
		<circle fill="#75C69A" cx="53.845" cy="77.957" r="8.074"/>
		<path fill="#46B97C" d="M53.845,87.651c5.354,0,9.694-4.34,9.694-9.694c0-5.354-4.34-9.694-9.694-9.694s-9.694,4.34-9.694,9.694
			C44.152,83.311,48.492,87.651,53.845,87.651z M53.845,70.456c4.143,0,7.502,3.359,7.502,7.502c0,4.143-3.359,7.502-7.502,7.502
			s-7.502-3.359-7.502-7.502C46.344,73.814,49.702,70.456,53.845,70.456z"/>
		<rect x="45.693" y="77.564" fill="#46B97C" width="16.305" height="0.788"/>
	</g>
	<g>
		<circle fill="#46B97C" cx="19.878" cy="195.447" r="12.462"/>
		<circle fill="#75C69A" cx="19.878" cy="195.447" r="10.772"/>
		<circle fill="#46B97C" cx="17.244" cy="200.512" r="2.557"/>
	</g>
	<path fill="#46B97C" d="M66.684,247.475c0.428,0,0.806,0.26,0.974,0.651c13.434,0.516,23.933,11.414,23.933,24.884
		c0,13.454-10.481,24.346-23.898,24.88c-0.144,0.432-0.547,0.739-1.009,0.739c-0.463,0-0.866-0.306-1.009-0.739
		c-13.418-0.533-23.9-11.426-23.9-24.88c0-13.472,10.5-24.369,23.936-24.884C65.879,247.735,66.256,247.475,66.684,247.475z
		 M66.23,249.516c-0.216-0.102-0.39-0.27-0.496-0.482c-6.054,0.236-11.737,2.719-16.022,7.003
		c-4.533,4.533-7.029,10.561-7.029,16.973c0,6.411,2.496,12.438,7.029,16.971c4.294,4.292,9.99,6.776,16.058,7.004
		c0.109-0.173,0.269-0.311,0.462-0.399v-10.332c-0.241-0.113-0.43-0.313-0.53-0.561c-6.606-0.506-11.755-6.045-11.755-12.684
		c0-6.64,5.149-12.179,11.755-12.685c0.1-0.247,0.289-0.447,0.529-0.56V249.516z M67.6,296.985
		c6.066-0.228,11.761-2.712,16.054-7.004c4.533-4.533,7.029-10.56,7.029-16.971c0-6.412-2.497-12.44-7.029-16.973
		c-4.284-4.284-9.967-6.767-16.02-7.003c-0.107,0.213-0.281,0.381-0.498,0.483v10.247c0.242,0.113,0.43,0.313,0.531,0.561
		c6.603,0.507,11.751,6.046,11.752,12.685c0,6.638-5.148,12.177-11.752,12.684c-0.1,0.248-0.289,0.448-0.53,0.561v10.332
		C67.331,296.674,67.491,296.811,67.6,296.985z M66.684,261.803c-0.398,0-0.756-0.224-0.94-0.573
		c-2.811,0.221-5.442,1.43-7.426,3.413c-2.234,2.235-3.464,5.206-3.464,8.366c0,3.159,1.23,6.13,3.464,8.364
		c1.985,1.984,4.616,3.192,7.426,3.413c0.184-0.349,0.542-0.573,0.94-0.573s0.757,0.224,0.94,0.573
		c2.809-0.221,5.439-1.43,7.424-3.413c2.234-2.234,3.464-5.204,3.464-8.364c0-3.16-1.231-6.131-3.465-8.366
		c-1.984-1.983-4.614-3.191-7.423-3.413C67.441,261.58,67.083,261.803,66.684,261.803z"/>
	<g>
		<path fill="#75C69A" d="M99.903,321.588c5.729,0,10.373-4.644,10.373-10.373c0-5.729-4.644-10.373-10.373-10.373
			c-5.729,0-10.373,4.644-10.373,10.373C89.53,316.944,94.174,321.588,99.903,321.588z M99.903,303.188
			c4.433,0,8.027,3.594,8.027,8.027c0,4.433-3.594,8.027-8.027,8.027c-4.433,0-8.027-3.594-8.027-8.027
			C91.876,306.782,95.47,303.188,99.903,303.188z"/>
		<circle fill="#75C69A" cx="99.903" cy="311.215" r="8.074"/>
		<path fill="#46B97C" d="M99.903,320.909c5.354,0,9.694-4.34,9.694-9.694c0-5.354-4.34-9.694-9.694-9.694
			c-5.354,0-9.694,4.34-9.694,9.694C90.209,316.569,94.549,320.909,99.903,320.909z M99.903,303.713
			c4.143,0,7.502,3.359,7.502,7.502c0,4.143-3.359,7.502-7.502,7.502c-4.143,0-7.502-3.359-7.502-7.502
			C92.401,307.072,95.76,303.713,99.903,303.713z"/>
		<rect x="91.75" y="310.821" fill="#46B97C" width="16.305" height="0.788"/>
	</g>
	<g>
		<rect x="41.04" y="21.658" fill="#46B97C" width="4.981" height="1.966"/>
		<g>
			<polygon fill="#46B97C" points="40.953,25.374 38.265,22.686 40.953,19.998 			"/>
		</g>
	</g>
</g>
</svg>
