<?xml version="1.0" encoding="utf-8"?>
<!-- Generator: Adobe Illustrator 17.0.0, SVG Export Plug-In . SVG Version: 6.00 Build 0)  -->
<!DOCTYPE svg PUBLIC "-//W3C//DTD SVG 1.1//EN" "http://www.w3.org/Graphics/SVG/1.1/DTD/svg11.dtd">
<svg version="1.1" id="Layer_1" xmlns="http://www.w3.org/2000/svg" xmlns:xlink="http://www.w3.org/1999/xlink" x="0px" y="0px"
	 width="139.963px" height="500.764px" viewBox="0 -1.173 139.963 500.764" enable-background="new 0 -1.173 139.963 500.764"
	 xml:space="preserve">
<g>
	<g>
		<path fill="#2C9A6C" d="M105.395,78.275c40.377,0,40.377-60.565,0-60.565c0,5.287,0,10.575,0,15.862
			c19.227,0,19.227,28.84,0,28.84C105.395,67.7,105.395,72.988,105.395,78.275z"/>
		<path fill="#2C9A6C" d="M20.521,62.698c-17.988,0-17.988,26.983,0,26.983c0-2.356,0-4.711,0-7.067c-8.566,0-8.566-12.849,0-12.849
			C20.521,67.41,20.521,65.054,20.521,62.698z"/>
		<g>
			<path fill="#75C69A" d="M112.177,268.019c8.198,0,14.844-6.646,14.844-14.844c0-8.198-6.646-14.844-14.844-14.844
				s-14.844,6.646-14.844,14.844C97.333,261.373,103.979,268.019,112.177,268.019z M112.177,241.687
				c6.344,0,11.487,5.143,11.487,11.487c0,6.344-5.143,11.487-11.487,11.487s-11.487-5.143-11.487-11.487
				C100.69,246.83,105.833,241.687,112.177,241.687z"/>
			<circle fill="#75C69A" cx="112.177" cy="253.175" r="11.554"/>
			<path fill="#2C9A6C" d="M112.177,267.047c7.661,0,13.872-6.211,13.872-13.872s-6.211-13.872-13.872-13.872
				s-13.872,6.211-13.872,13.872S104.516,267.047,112.177,267.047z M112.177,242.44c5.929,0,10.735,4.806,10.735,10.735
				c0,5.929-4.806,10.735-10.735,10.735s-10.735-4.806-10.735-10.735C101.442,247.246,106.249,242.44,112.177,242.44z"/>
			<rect x="100.511" y="252.611" fill="#2C9A6C" width="23.333" height="1.127"/>
		</g>
		<circle fill="#2C9A6C" cx="17.163" cy="225.984" r="7.735"/>
		<path fill="#2C9A6C" d="M18.431,221.487c-24.575,0-24.575,36.863,0,36.863c0-3.218,0-6.436,0-9.655
			c-11.702,0-11.702-17.554,0-17.554C18.431,227.923,18.431,224.705,18.431,221.487z"/>
		<path fill="#75C69A" d="M17.34,7.012c0-4.501,3.683-8.184,8.184-8.184h82.767c4.501,0,8.184,3.683,8.184,8.184v311.404
			c0,4.501-3.683,8.184-8.184,8.184H25.525c-4.501,0-8.184-3.683-8.184-8.184L17.34,7.012L17.34,7.012z"/>
		<path opacity="0.12" fill="#F5928D" enable-background="new    " d="M108.291-1.173c4.501,0,8.184,3.683,8.184,8.184v311.405
			c0,4.501-3.683,8.184-8.184,8.184H25.525c-4.501,0-8.184-3.683-8.184-8.184L108.291-1.173z"/>
		<rect x="33.709" y="15.196" fill="none" stroke="#59BE8C" stroke-miterlimit="10" width="66.397" height="295.036"/>
		<rect x="57.126" y="15.196" fill="none" stroke="#59BE8C" stroke-miterlimit="10" width="19.563" height="86.927"/>
		<g>
			<rect x="80.082" y="47.089" fill="#46B97C" width="20.188" height="21.007"/>
			<rect x="118.949" y="87.048" fill="#46B97C" width="21.007" height="109.902"/>
			<path fill="#46B97C" d="M100.121,68.085c9.457,0.12,18.824,6.481,18.824,19.091h21.007c0-26.615-19.871-39.977-39.831-40.098
				C100.121,47.078,100.121,68.085,100.121,68.085z"/>
		</g>
		<path fill="#46B97C" d="M118.956,196.906c-0.12,9.457-6.481,18.824-19.091,18.824v21.007c26.615,0,39.977-19.871,40.098-39.831
			H118.956z"/>
		<g>
			<g>
				<path fill="#46B97C" d="M88.161,100.397c3.261,0,5.915,2.653,5.915,5.915v77.237c0,3.261-2.653,5.915-5.915,5.915h-41.75
					c-3.261,0-5.915-2.653-5.915-5.915v-77.237c0-3.261,2.653-5.915,5.915-5.915H88.161z"/>
				<path fill="#75C69A" d="M42.236,106.312c0-2.306,1.869-4.175,4.175-4.175h41.75c2.306,0,4.175,1.869,4.175,4.175v77.237
					c0,2.306-1.869,4.175-4.175,4.175h-41.75c-2.306,0-4.175-1.869-4.175-4.175V106.312z"/>
				<g>
					<circle fill="#46B97C" cx="67.286" cy="189.17" r="15.108"/>
					<path fill="#46B97C" d="M67.286,169.29c10.962,0,19.88,8.918,19.88,19.88s-8.918,19.88-19.88,19.88s-19.88-8.918-19.88-19.88
						S56.325,169.29,67.286,169.29z M67.286,201.468c6.781,0,12.298-5.517,12.298-12.298s-5.517-12.298-12.298-12.298
						s-12.298,5.517-12.298,12.298S60.505,201.468,67.286,201.468z"/>
					<path fill="#75C69A" d="M49.146,189.17c0,10.018,8.122,18.14,18.14,18.14s18.14-8.122,18.14-18.14s-8.122-18.14-18.14-18.14
						S49.146,179.152,49.146,189.17z M81.324,189.17c0,7.753-6.285,14.038-14.038,14.038s-14.038-6.285-14.038-14.038
						s6.285-14.038,14.038-14.038S81.324,181.417,81.324,189.17z"/>
					<rect x="66.549" y="173.915" fill="#75C69A" width="1.474" height="30.511"/>
				</g>
			</g>
			<g>
				<circle fill="#46B97C" cx="56.505" cy="117.349" r="3.605"/>
				<circle fill="#46B97C" cx="77.755" cy="117.349" r="3.605"/>
			</g>
			<path fill="#46B97C" d="M66.665,138.769c-1.98,0-3.771,0.802-5.069,2.099c-1.297,1.297-2.099,3.088-2.099,5.068
				c0,1.98,0.802,3.771,2.099,5.069c1.297,1.297,3.089,2.099,5.069,2.099s3.771-0.802,5.068-2.099s2.099-3.089,2.099-5.069
				s-0.802-3.77-2.099-5.068C70.435,139.571,68.644,138.769,66.665,138.769z M66.665,152.259c-3.494,0-6.323-2.83-6.323-6.323
				c0-3.492,2.83-6.323,6.323-6.323c3.492,0,6.323,2.832,6.323,6.323C72.989,149.429,70.157,152.259,66.665,152.259z
				 M66.665,160.329c3.975,0,7.571-1.611,10.176-4.215c2.577-2.578,4.179-6.128,4.212-10.054h-6.977
				c-0.066,4.039-3.357,7.292-7.411,7.292s-7.346-3.253-7.412-7.291h-6.977c0.033,3.926,1.635,7.476,4.212,10.054
				C59.092,158.718,62.69,160.328,66.665,160.329z M49.384,147.663h1.699c0.084,0.767,0.222,1.518,0.413,2.247l-1.572,0.614
				c-0.223,0.087-0.333,0.339-0.246,0.561l0.941,2.409c0.087,0.223,0.339,0.333,0.561,0.246l1.556-0.608
				c0.45,0.869,0.978,1.69,1.577,2.455l-1.164,1.164c-0.169,0.169-0.169,0.444,0,0.613l1.829,1.829c0.169,0.169,0.444,0.169,0.613,0
				l1.133-1.133c0.598,0.491,1.234,0.937,1.901,1.337l-0.001,0.003l-0.629,1.438c-0.095,0.218,0.004,0.474,0.223,0.571l2.37,1.038
				c0.221,0.095,0.476-0.004,0.571-0.225l0.608-1.386l0.002-0.005c0.935,0.307,1.909,0.528,2.912,0.655v1.473
				c0,0.239,0.194,0.433,0.433,0.433H67.7c0.239,0,0.433-0.194,0.433-0.433v-1.414c0.807-0.075,1.596-0.21,2.362-0.402l0.499,1.277
				c0.087,0.223,0.339,0.333,0.562,0.246l2.409-0.941c0.223-0.087,0.333-0.339,0.246-0.561l-0.481-1.23
				c0.918-0.464,1.783-1.016,2.586-1.644l0.906,0.906c0.169,0.169,0.444,0.169,0.613,0l1.829-1.829c0.169-0.169,0.169-0.444,0-0.613
				l-0.875-0.875c0.519-0.633,0.987-1.308,1.404-2.018l1.113,0.488c0.219,0.096,0.475-0.004,0.571-0.223l1.038-2.369
				c0.096-0.219-0.004-0.475-0.223-0.571l-1.089-0.477c0.312-0.977,0.53-1.995,0.645-3.044h1.182c0.239,0,0.433-0.194,0.433-0.433
				v-2.586c0-0.239-0.194-0.434-0.433-0.434h-1.182c-0.091-0.831-0.248-1.642-0.464-2.429l1.107-0.432
				c0.223-0.087,0.333-0.339,0.246-0.561l-0.941-2.409c-0.087-0.223-0.339-0.333-0.561-0.246l-1.125,0.44
				c-0.489-0.916-1.064-1.779-1.718-2.576l0.874-0.874c0.169-0.169,0.169-0.443,0-0.612l-1.829-1.829
				c-0.169-0.169-0.443-0.169-0.612,0l-0.904,0.902l-0.003,0.003c-0.638-0.499-1.314-0.95-2.025-1.347l0.526-1.201
				c0.096-0.219-0.004-0.475-0.223-0.571l-2.369-1.038c-0.219-0.096-0.475,0.004-0.571,0.223l-0.547,1.248
				c-0.957-0.282-1.951-0.477-2.974-0.572v-1.414c0-0.239-0.194-0.433-0.433-0.433h-2.586c-0.239,0-0.433,0.194-0.433,0.433v1.473
				c-0.791,0.1-1.563,0.258-2.312,0.472l-0.549-1.406c-0.087-0.223-0.339-0.333-0.561-0.246l-2.409,0.941
				c-0.223,0.087-0.333,0.339-0.246,0.561l0.568,1.452c-0.868,0.473-1.686,1.027-2.445,1.65l-1.133-1.133
				c-0.169-0.169-0.444-0.169-0.613,0l-1.829,1.829c-0.169,0.169-0.169,0.444,0,0.613l1.164,1.164c-0.472,0.603-0.9,1.24-1.28,1.909
				l-1.526-0.668c-0.219-0.096-0.475,0.004-0.571,0.223l-1.038,2.369c-0.096,0.219,0.004,0.475,0.223,0.571l1.544,0.676
				c-0.279,0.916-0.475,1.867-0.582,2.845h-1.699c-0.239,0-0.433,0.194-0.433,0.434v2.586
				C48.95,147.469,49.144,147.663,49.384,147.663z M66.665,131.298c8.085,0,14.638,6.553,14.638,14.638
				c0,8.087-6.553,14.64-14.638,14.64c-8.087,0-14.64-6.553-14.64-14.64C52.025,137.851,58.579,131.298,66.665,131.298z
				 M66.665,138.522c4.053,0,7.344,3.253,7.411,7.29h6.977c-0.033-3.925-1.635-7.475-4.212-10.052
				c-2.605-2.604-6.202-4.215-10.176-4.215c-3.975,0-7.573,1.611-10.178,4.215c-2.578,2.578-4.179,6.128-4.212,10.053h6.978
				C59.319,141.775,62.61,138.522,66.665,138.522z"/>
		</g>
		<rect x="18.588" y="215.741" fill="#46B97C" width="81.734" height="21.007"/>
		<g>
			<circle fill="#46B97C" cx="87.175" cy="57.405" r="13.095"/>
			<path fill="#46B97C" d="M99.865,215.73v0.011H18.588v21.007h81.734v-0.022c26.307-0.229,39.521-19.976,39.641-39.82h-0.007
				V87.048h-0.007c-0.065-26.528-19.9-39.849-39.828-39.969v0.01H80.082v21.007h20.188v-0.005
				c9.406,0.185,18.675,6.543,18.675,19.086h0.004V196.95h0.006C118.815,206.392,112.455,215.73,99.865,215.73z"/>
			<g opacity="0.5">
				<path fill="#FFFFFF" d="M100.121,53.227c0.113,0,0.226-0.003,0.338-0.009l-0.065-1.226l-0.017,1.228
					c8.093,0.11,16.465,2.848,22.772,8.388c3.156,2.771,5.806,6.24,7.679,10.46c1.872,4.22,2.968,9.197,2.983,14.996v0.003
					c0,0.105,0.003,0.209,0.009,0.314l1.226-0.064h-1.228v109.59v0.027l0.005,0.215l1.227-0.027l-1.228-0.015
					c-0.098,8.048-2.806,16.397-8.3,22.71c-2.748,3.159-6.189,5.819-10.375,7.709c-4.187,1.889-9.125,3.012-14.879,3.063h-0.003
					c-0.174,0.002-0.347,0.011-0.519,0.027c-0.675,0.062-1.172,0.66-1.109,1.335c0.062,0.675,0.66,1.172,1.335,1.109
					c0.105-0.01,0.212-0.015,0.321-0.016h-0.003c6.061-0.052,11.352-1.241,15.868-3.28c6.777-3.057,11.787-8.022,15.096-13.807
					c3.312-5.787,4.943-12.392,5.023-18.819v-0.043l-0.004-0.202V87.317l-0.002-0.064l-0.006-0.198v0.003
					c-0.014-6.105-1.175-11.435-3.194-15.986c-3.028-6.829-7.984-11.883-13.777-15.223c-5.795-3.343-12.423-4.994-18.884-5.084
					l-0.082,0.002l-0.209,0.005c-0.678,0-1.228,0.55-1.228,1.228C98.893,52.677,99.443,53.227,100.121,53.227L100.121,53.227z"/>
			</g>
		</g>
		<path fill="none" stroke="#A83342" stroke-miterlimit="10" d="M123.86,87.176"/>
		<path fill="#46B97C" d="M15.32,211.026c0-0.309,0.253-0.562,0.562-0.562h4.044c0.309,0,0.562,0.253,0.562,0.562v29.558
			c0,0.309-0.253,0.562-0.562,0.562h-4.044c-0.309,0-0.562-0.253-0.562-0.562V211.026z"/>
		<rect x="33.737" y="15.148" fill="none" stroke="#59BE8C" stroke-miterlimit="10" width="17.46" height="12.959"/>
		<path fill="#46B97C" d="M37.775,54.057v0.002c-17.837-0.028-19.191-24.754-4.062-28.532c0-1.491-0.04-5.66-0.04-7.003
			c-24.26,3.922-22.882,42.379,4.133,42.379v-0.002c19.302,0.03,19.302,28.983,0,29.014v-0.001
			c-13.911,0-21.023,10.197-21.338,20.625c0,0.007,0,81.157-0.001,81.165h6.847c0-0.01,0.001-81.163,0.001-81.172
			c0.315-6.993,5.135-13.759,14.46-13.773v0.001C66.242,96.757,66.242,54.057,37.775,54.057z"/>
		<path opacity="0.5" fill="#FFFFFF" enable-background="new    " d="M17.792,191.702c0-3.667,0.001-80.238,0.001-81.118
			c0.285-8.793,6.039-17.648,18.271-17.688c0.028,0.001,0.087,0.001,0.089,0.001c11.902-0.019,17.456-8.812,17.456-17.491
			c0-8.678-5.996-17.473-17.456-17.491c-0.002,0-0.003,0-0.005,0c-0.032,0-0.063,0-0.095,0.002
			c-5.677-0.022-10.408-1.981-13.688-5.67c-2.956-3.325-4.584-7.834-4.584-12.696s1.628-9.371,4.584-12.696
			c2.706-3.044,6.4-4.911,10.799-5.482v0.897c-9.53,1.382-14.501,9.368-14.507,17.266c-0.007,8.686,5.987,17.488,17.456,17.506
			c0.002,0,0.003,0,0.005,0c0.032,0,0.063,0,0.095-0.002c5.677,0.022,10.408,1.981,13.688,5.67
			c2.956,3.325,4.584,7.834,4.584,12.696s-1.628,9.371-4.584,12.696c-3.281,3.692-8.017,5.651-13.699,5.67
			c-0.028-0.001-0.087-0.001-0.089-0.001c-11.466,0.018-17.076,8.629-17.436,16.623c-0.003,0.065-0.003,0.065-0.004,32.726
			c0,10.658,0,43.698,0,48.58h-0.881V191.702z"/>
		<g>
			<path fill="#75C69A" d="M53.845,87.157c5.729,0,10.373-4.644,10.373-10.373c0-5.729-4.644-10.373-10.373-10.373
				s-10.373,4.644-10.373,10.373S48.116,87.157,53.845,87.157z M53.845,68.757c4.433,0,8.027,3.594,8.027,8.027
				s-3.594,8.027-8.027,8.027s-8.027-3.594-8.027-8.027S49.412,68.757,53.845,68.757z"/>
			<circle fill="#75C69A" cx="53.845" cy="76.785" r="8.074"/>
			<path fill="#46B97C" d="M53.845,86.478c5.354,0,9.694-4.34,9.694-9.694s-4.34-9.694-9.694-9.694s-9.694,4.34-9.694,9.694
				S48.491,86.478,53.845,86.478z M53.845,69.283c4.143,0,7.502,3.359,7.502,7.502s-3.359,7.502-7.502,7.502
				s-7.502-3.359-7.502-7.502S49.702,69.283,53.845,69.283z"/>
			<rect x="45.692" y="76.39" fill="#46B97C" width="16.305" height="0.788"/>
		</g>
		<g>
			<circle fill="#46B97C" cx="19.878" cy="194.274" r="12.462"/>
			<circle fill="#75C69A" cx="19.878" cy="194.274" r="10.772"/>
			<circle fill="#46B97C" cx="17.243" cy="199.34" r="2.557"/>
		</g>
		<path fill="#46B97C" d="M66.684,246.302c0.428,0,0.806,0.26,0.974,0.651c13.434,0.516,23.933,11.414,23.933,24.884
			c0,13.454-10.481,24.346-23.898,24.88c-0.144,0.432-0.547,0.739-1.009,0.739c-0.463,0-0.866-0.306-1.009-0.739
			c-13.418-0.533-23.9-11.425-23.9-24.88c0-13.472,10.5-24.369,23.936-24.884C65.879,246.562,66.256,246.302,66.684,246.302z
			 M66.23,248.343c-0.216-0.102-0.39-0.27-0.496-0.482c-6.054,0.236-11.737,2.719-16.022,7.003
			c-4.533,4.533-7.029,10.561-7.029,16.973c0,6.411,2.496,12.438,7.029,16.971c4.294,4.292,9.99,6.776,16.058,7.004
			c0.109-0.173,0.269-0.311,0.462-0.399v-10.332c-0.241-0.113-0.43-0.313-0.53-0.561c-6.606-0.506-11.755-6.045-11.755-12.684
			c0-6.64,5.149-12.179,11.755-12.685c0.1-0.247,0.289-0.447,0.529-0.56L66.23,248.343L66.23,248.343z M67.6,295.812
			c6.066-0.228,11.761-2.712,16.054-7.004c4.533-4.533,7.029-10.56,7.029-16.971c0-6.412-2.497-12.44-7.029-16.973
			c-4.284-4.284-9.967-6.767-16.02-7.003c-0.107,0.213-0.281,0.381-0.498,0.483v10.247c0.242,0.113,0.43,0.313,0.531,0.561
			c6.603,0.507,11.751,6.046,11.752,12.685c0,6.638-5.148,12.177-11.752,12.684c-0.1,0.248-0.289,0.448-0.53,0.561v10.332
			C67.331,295.501,67.491,295.638,67.6,295.812z M66.684,260.631c-0.398,0-0.756-0.224-0.94-0.573
			c-2.811,0.221-5.442,1.43-7.426,3.413c-2.234,2.235-3.464,5.206-3.464,8.366c0,3.159,1.23,6.13,3.464,8.364
			c1.985,1.984,4.616,3.192,7.426,3.413c0.184-0.349,0.542-0.573,0.94-0.573s0.757,0.224,0.94,0.573
			c2.809-0.221,5.439-1.43,7.424-3.413c2.234-2.234,3.464-5.204,3.464-8.364s-1.231-6.131-3.465-8.366
			c-1.984-1.983-4.614-3.191-7.423-3.413C67.441,260.407,67.083,260.631,66.684,260.631z"/>
		<g>
			<path fill="#75C69A" d="M99.903,320.415c5.729,0,10.373-4.644,10.373-10.373s-4.644-10.373-10.373-10.373
				c-5.729,0-10.373,4.644-10.373,10.373S94.174,320.415,99.903,320.415z M99.903,302.015c4.433,0,8.027,3.594,8.027,8.027
				s-3.594,8.027-8.027,8.027s-8.027-3.594-8.027-8.027C91.875,305.609,95.469,302.015,99.903,302.015z"/>
			<circle fill="#75C69A" cx="99.903" cy="310.042" r="8.074"/>
			<path fill="#46B97C" d="M99.903,319.736c5.354,0,9.694-4.34,9.694-9.694s-4.34-9.694-9.694-9.694
				c-5.354,0-9.694,4.34-9.694,9.694S94.549,319.736,99.903,319.736z M99.903,302.54c4.143,0,7.502,3.359,7.502,7.502
				s-3.359,7.502-7.502,7.502s-7.502-3.359-7.502-7.502S95.76,302.54,99.903,302.54z"/>
			<rect x="91.75" y="309.648" fill="#46B97C" width="16.305" height="0.788"/>
		</g>
		<g>
			<rect x="41.04" y="20.486" fill="#46B97C" width="4.981" height="1.966"/>
			<g>
				<polygon fill="#46B97C" points="40.953,24.201 38.265,21.513 40.953,18.825 				"/>
			</g>
		</g>
	</g>
	<g>
		<path fill="#46B97C" d="M46.94,408.237c-0.367,2.965-1.615,5.455-3.662,7.275c-2.214,1.968-5.215,3.052-8.449,3.052
			c-3.235,0-6.235-1.084-8.449-3.052c-2.034-1.808-3.279-4.278-3.655-7.217c-0.002-0.019-0.005-2.043-0.007-2.063h3.661
			c0.004,0.019,0.008,2.044,0.011,2.063c0.875,4.386,4.677,6.668,8.439,6.668c3.778,0,7.597-2.302,8.45-6.726H46.94z"/>
		<path fill="#46B97C" d="M112.464,334.839c3.833,0.475,7.052,2.088,9.405,4.734c2.544,2.862,3.945,6.741,3.945,10.923
			s-1.401,8.061-3.945,10.923c-2.353,2.646-5.571,4.259-9.405,4.734v-4.733c5.719-1.102,8.695-6.039,8.695-10.924
			s-2.976-9.821-8.695-10.924V334.839z"/>
		<path fill="#46B97C" d="M112.464,366.375c3.833,0.475,7.052,2.088,9.405,4.734c2.544,2.862,3.945,6.741,3.945,10.923
			s-1.401,8.061-3.945,10.923c-2.353,2.646-5.571,4.259-9.405,4.734v-4.733c5.719-1.102,8.695-6.039,8.695-10.924
			c0-4.884-2.976-9.821-8.695-10.924V366.375z"/>
		<g>
			<rect x="16.92" y="366.067" fill="#2C9A6C" width="8.51" height="3.639"/>
			<g>
				<path fill="#75C69A" d="M19.627,372.538c2.569-2.569,2.569-6.734,0-9.303s-6.734-2.569-9.303,0
					c-2.569,2.569-2.569,6.734,0,9.303C12.893,375.107,17.058,375.107,19.627,372.538z M11.376,364.287
					c1.988-1.988,5.211-1.988,7.199,0s1.988,5.211,0,7.199s-5.211,1.988-7.199,0C9.388,369.498,9.388,366.275,11.376,364.287z"/>
				<circle fill="#75C69A" cx="14.976" cy="367.886" r="5.12"/>
				<path fill="#46B97C" d="M19.323,372.233c2.401-2.401,2.401-6.293,0-8.694s-6.293-2.401-8.694,0s-2.401,6.293,0,8.694
					C13.029,374.634,16.922,374.634,19.323,372.233z M11.612,364.522c1.858-1.858,4.87-1.858,6.728,0
					c1.858,1.858,1.858,4.87,0,6.728s-4.87,1.858-6.728,0C9.754,369.392,9.754,366.38,11.612,364.522z"/>
				
					<rect x="14.726" y="362.719" transform="matrix(0.7071 0.7071 -0.7071 0.7071 264.5228 97.1628)" fill="#46B97C" width="0.5" height="10.34"/>
			</g>
		</g>
		<g>
			<circle fill="#46B97C" cx="98.237" cy="391.241" r="1.381"/>
			<circle fill="#46B97C" cx="32.096" cy="391.241" r="1.381"/>
		</g>
		<g>
			<path fill="#75C69A" d="M22.371,367.949c0,3.826-2.985,6.946-6.752,7.181v24.563c0,4.501,3.683,8.184,8.184,8.184h82.766
				c4.501,0,8.184-3.683,8.184-8.184v-63.488c0-4.501-3.683-8.184-8.184-8.184H23.803c-4.501,0-8.184,3.683-8.184,8.184v24.563
				C19.386,361.002,22.371,364.123,22.371,367.949z"/>
			<path opacity="0.5" fill="none" stroke="#FFFFFF" stroke-miterlimit="10" enable-background="new    " d="M106.569,332.113
				c2.256,0,4.092,1.836,4.092,4.092v63.488c0,2.256-1.836,4.092-4.092,4.092H23.804c-2.256,0-4.092-1.836-4.092-4.092v-21.411
				c3.987-1.757,6.751-5.748,6.751-10.333c0-4.585-2.765-8.576-6.751-10.333v-21.411c0-2.256,1.836-4.092,4.092-4.092
				L106.569,332.113L106.569,332.113z"/>
			<g>
				<path opacity="0.12" fill="#F5928D" enable-background="new    " d="M106.569,327.702c4.501,0,8.184,3.683,8.184,8.184v63.489
					c0,4.501-3.683,8.184-8.184,8.184H23.803c-4.501,0-8.184-3.683-8.184-8.184L106.569,327.702z"/>
				<rect x="31.988" y="344.071" fill="none" stroke="#59BE8C" stroke-miterlimit="10" width="66.397" height="47.119"/>
			</g>
			<g>
				<path fill="#75C69A" d="M38.546,367.192c0,14.78,11.981,26.761,26.761,26.761s26.761-11.981,26.761-26.761
					s-11.981-26.761-26.761-26.761C50.528,340.431,38.546,352.413,38.546,367.192z M86.017,367.192
					c0,11.437-9.272,20.709-20.709,20.709c-11.437,0-20.709-9.272-20.709-20.709s9.272-20.709,20.709-20.709
					S86.017,355.755,86.017,367.192z"/>
				<circle fill="#75C69A" cx="65.307" cy="367.192" r="20.829"/>
				<path fill="#46B97C" d="M40.299,367.192c0,13.812,11.197,25.009,25.009,25.009s25.009-11.197,25.009-25.009
					s-11.197-25.009-25.009-25.009C51.495,342.184,40.299,353.38,40.299,367.192z M84.661,367.192
					c0,10.688-8.665,19.353-19.353,19.353s-19.353-8.665-19.353-19.353c0-10.688,8.665-19.353,19.353-19.353
					S84.661,356.504,84.661,367.192z"/>
				<rect x="64.291" y="346.161" fill="#46B97C" width="2.033" height="42.064"/>
			</g>
			<g>
				<circle fill="#46B97C" cx="98.262" cy="344.401" r="1.381"/>
				<circle fill="#46B97C" cx="32.121" cy="344.401" r="1.381"/>
			</g>
		</g>
		<polygon fill="#46B97C" points="43.301,397.635 46.933,397.635 46.94,408.25 43.301,408.239 		"/>
		<g>
			<circle fill="#46B97C" cx="45.123" cy="397.711" r="4.273"/>
			<circle fill="#75C69A" cx="45.123" cy="397.711" r="3.694"/>
			<circle fill="#46B97C" cx="46.86" cy="398.614" r="0.877"/>
		</g>
	</g>
	<g>
		<path fill="#46B97C" d="M46.94,489.264c-0.367,2.965-1.615,5.455-3.662,7.275c-2.214,1.968-5.215,3.052-8.449,3.052
			c-3.235,0-6.235-1.084-8.449-3.052c-2.034-1.808-3.279-4.278-3.655-7.217c-0.002-0.019-0.005-2.043-0.007-2.063h3.661
			c0.004,0.019,0.008,2.044,0.011,2.063c0.875,4.386,4.677,6.668,8.439,6.668c3.778,0,7.597-2.302,8.45-6.726
			C43.279,489.264,46.94,489.264,46.94,489.264z"/>
		<path fill="#46B97C" d="M112.464,415.866c3.833,0.475,7.052,2.088,9.405,4.734c2.544,2.862,3.945,6.741,3.945,10.923
			s-1.401,8.061-3.945,10.923c-2.353,2.646-5.571,4.259-9.405,4.734v-4.733c5.719-1.102,8.695-6.039,8.695-10.924
			c0-4.885-2.976-9.821-8.695-10.924V415.866z"/>
		<path fill="#46B97C" d="M112.464,447.402c3.833,0.475,7.052,2.088,9.405,4.734c2.544,2.862,3.945,6.741,3.945,10.923
			s-1.401,8.061-3.945,10.923c-2.353,2.646-5.571,4.259-9.405,4.734v-4.733c5.719-1.102,8.695-6.039,8.695-10.924
			s-2.976-9.821-8.695-10.924V447.402z"/>
		<g>
			<rect x="16.92" y="447.094" fill="#2C9A6C" width="8.51" height="3.639"/>
			<g>
				<path fill="#75C69A" d="M19.627,453.565c2.569-2.569,2.569-6.734,0-9.303s-6.734-2.569-9.303,0
					c-2.569,2.569-2.569,6.734,0,9.303C12.893,456.134,17.058,456.134,19.627,453.565z M11.376,445.314
					c1.988-1.988,5.211-1.988,7.199,0c1.988,1.988,1.988,5.211,0,7.199c-1.988,1.988-5.211,1.988-7.199,0
					C9.388,450.525,9.388,447.302,11.376,445.314z"/>
				<circle fill="#75C69A" cx="14.976" cy="448.914" r="5.12"/>
				<path fill="#46B97C" d="M19.323,453.261c2.401-2.401,2.401-6.293,0-8.694s-6.293-2.401-8.694,0s-2.401,6.293,0,8.694
					C13.029,455.662,16.922,455.662,19.323,453.261z M11.612,445.55c1.858-1.858,4.87-1.858,6.728,0s1.858,4.87,0,6.728
					s-4.87,1.858-6.728,0C9.754,450.42,9.754,447.408,11.612,445.55z"/>
				
					<rect x="14.726" y="443.745" transform="matrix(0.7071 0.7071 -0.7071 0.7071 321.8175 120.8943)" fill="#46B97C" width="0.5" height="10.34"/>
			</g>
		</g>
		<g>
			<circle fill="#46B97C" cx="98.237" cy="472.269" r="1.381"/>
			<circle fill="#46B97C" cx="32.096" cy="472.269" r="1.381"/>
		</g>
		<g>
			<path fill="#75C69A" d="M22.371,448.976c0,3.826-2.985,6.946-6.752,7.181v24.563c0,4.501,3.683,8.184,8.184,8.184h82.766
				c4.501,0,8.184-3.683,8.184-8.184v-63.488c0-4.501-3.683-8.184-8.184-8.184H23.803c-4.501,0-8.184,3.683-8.184,8.184v24.563
				C19.386,442.03,22.371,445.15,22.371,448.976z"/>
			<path opacity="0.5" fill="none" stroke="#FFFFFF" stroke-miterlimit="10" enable-background="new    " d="M106.569,413.14
				c2.256,0,4.092,1.836,4.092,4.092v63.488c0,2.256-1.836,4.092-4.092,4.092H23.804c-2.256,0-4.092-1.836-4.092-4.092v-21.412
				c3.987-1.757,6.751-5.748,6.751-10.333c0-4.585-2.765-8.576-6.751-10.333v-21.411c0-2.256,1.836-4.092,4.092-4.092h82.765V413.14
				z"/>
			<g>
				<path opacity="0.12" fill="#F5928D" enable-background="new    " d="M106.569,408.729c4.501,0,8.184,3.683,8.184,8.184v63.489
					c0,4.501-3.683,8.184-8.184,8.184H23.803c-4.501,0-8.184-3.683-8.184-8.184L106.569,408.729z"/>
				<rect x="31.988" y="425.098" fill="none" stroke="#59BE8C" stroke-miterlimit="10" width="66.397" height="47.119"/>
			</g>
			<g>
				<path fill="#75C69A" d="M38.546,448.22c0,14.78,11.981,26.761,26.761,26.761S92.068,463,92.068,448.22
					s-11.981-26.761-26.761-26.761C50.528,421.459,38.546,433.44,38.546,448.22z M86.017,448.22
					c0,11.437-9.272,20.709-20.709,20.709c-11.437,0-20.709-9.272-20.709-20.709c0-11.437,9.272-20.709,20.709-20.709
					S86.017,436.782,86.017,448.22z"/>
				<circle fill="#75C69A" cx="65.307" cy="448.22" r="20.829"/>
				<path fill="#46B97C" d="M40.299,448.22c0,13.812,11.197,25.009,25.009,25.009s25.009-11.197,25.009-25.009
					c0-13.812-11.197-25.009-25.009-25.009C51.495,423.211,40.299,434.408,40.299,448.22z M84.661,448.22
					c0,10.688-8.665,19.353-19.353,19.353s-19.353-8.665-19.353-19.353c0-10.688,8.664-19.353,19.352-19.353
					S84.661,437.531,84.661,448.22z"/>
				<rect x="64.291" y="427.188" fill="#46B97C" width="2.033" height="42.064"/>
			</g>
			<g>
				<circle fill="#46B97C" cx="98.262" cy="425.428" r="1.381"/>
				<circle fill="#46B97C" cx="32.121" cy="425.428" r="1.381"/>
			</g>
		</g>
		<polygon fill="#46B97C" points="43.301,478.663 46.933,478.663 46.94,489.277 43.301,489.267 		"/>
		<g>
			<circle fill="#46B97C" cx="45.123" cy="478.738" r="4.273"/>
			<circle fill="#75C69A" cx="45.123" cy="478.738" r="3.694"/>
			<circle fill="#46B97C" cx="46.86" cy="479.642" r="0.877"/>
		</g>
	</g>
</g>
</svg>
