<?xml version="1.0" encoding="utf-8"?>
<!-- Generator: Adobe Illustrator 17.0.0, SVG Export Plug-In . SVG Version: 6.00 Build 0)  -->
<!DOCTYPE svg PUBLIC "-//W3C//DTD SVG 1.1//EN" "http://www.w3.org/Graphics/SVG/1.1/DTD/svg11.dtd">
<svg version="1.1" id="Layer_1" xmlns="http://www.w3.org/2000/svg" xmlns:xlink="http://www.w3.org/1999/xlink" x="0px" y="0px"
	 width="134.827px" height="171.293px" viewBox="0 3 134.827 171.293" enable-background="new 0 3 134.827 171.293"
	 xml:space="preserve">
<g>
	<path fill="#46B97C" d="M55.134,28.676c1.053,0,1.906,0.854,1.906,1.906v2.428c0,1.053-0.854,1.906-1.906,1.906H9.429
		c-2.357,0.019-3.193,1.764-3.188,3.254c0.005,1.487,0.855,3.225,3.233,3.229c3.545,0,6.524,1.636,8.171,4.488
		c1.751,3.034,1.752,6.954,0,9.987c-1.647,2.853-4.626,4.489-8.174,4.489c-2.386,0.004-3.232,1.75-3.23,3.244
		c0.001,1.494,0.85,3.239,3.241,3.239h45.652c1.053,0,1.906,0.854,1.906,1.906v2.428c0,1.053-0.854,1.906-1.906,1.906H9.385
		C3.187,73.026-0.023,68.245,0,63.553c0.023-4.687,3.287-9.431,9.482-9.431c2.384-0.004,3.231-1.748,3.231-3.241
		s-0.847-3.238-3.234-3.242c-6.192,0-9.456-4.744-9.479-9.43c-0.023-4.692,3.187-9.473,9.367-9.533c0.006,0,0.109-0.001,0.115-0.001
		L55.134,28.676z"/>
	<g>
		<polygon fill="#2C9A6C" points="58.295,152.603 72.149,152.603 97.757,174.293 32.686,174.293 		"/>
		<g>
			<path fill="#75C69A" d="M15.651,11.33c0-4.502,3.683-8.185,8.185-8.185h82.771c4.502,0,8.185,3.683,8.185,8.185v146.161
				c0,4.502-3.683,8.185-8.185,8.185H23.836c-4.502,0-8.185-3.683-8.185-8.185V11.33z"/>
			<path opacity="0.12" fill="#F5928D" enable-background="new    " d="M106.607,3.145c4.502,0,8.185,3.683,8.185,8.185v146.161
				c0,4.502-3.683,8.185-8.185,8.185H23.836c-4.502,0-8.185-3.683-8.185-8.185L106.607,3.145z"/>
			<rect x="32.021" y="19.515" fill="none" stroke="#59BE8C" stroke-miterlimit="10" width="66.401" height="120.839"/>
		</g>
		<path fill="#46B97C" d="M65.994,43.061V16.035c3.249-0.382,5.77-3.141,5.77-6.493C71.764,5.929,68.835,3,65.222,3
			S58.68,5.929,58.68,9.542c0,3.351,2.521,6.11,5.77,6.493v27.026c-3.249,0.383-5.77,3.141-5.77,6.493
			c0,3.613,2.929,6.542,6.542,6.542c3.613,0,6.542-2.929,6.542-6.542C71.764,46.202,69.242,43.444,65.994,43.061z M63.339,9.542
			c0-1.038,0.845-1.883,1.882-1.883c1.038,0,1.883,0.845,1.883,1.883s-0.845,1.883-1.883,1.883
			C64.184,11.425,63.339,10.581,63.339,9.542z M65.221,51.436c-1.038,0-1.882-0.845-1.882-1.882c0-1.038,0.845-1.883,1.882-1.883
			c1.038,0,1.883,0.845,1.883,1.883C67.104,50.592,66.26,51.436,65.221,51.436z M65.221,48.86c-0.383,0-0.694,0.312-0.694,0.695
			s0.311,0.694,0.694,0.694s0.695-0.311,0.695-0.694S65.605,48.86,65.221,48.86z M65.916,9.542c0-0.383-0.311-0.695-0.695-0.695
			c-0.383,0-0.694,0.312-0.694,0.695s0.311,0.695,0.694,0.695C65.605,10.237,65.916,9.925,65.916,9.542z"/>
		<g>
			<path fill="#46B97C" d="M38.459,135.756c0,14.781,11.982,26.763,26.763,26.763s26.763-11.982,26.763-26.763
				s-11.982-26.763-26.763-26.763S38.459,120.975,38.459,135.756z M85.932,135.756c0,11.438-9.272,20.71-20.71,20.71
				s-20.71-9.272-20.71-20.71s9.272-20.71,20.71-20.71S85.932,124.318,85.932,135.756z"/>
			<circle fill="#46B97C" cx="65.222" cy="135.756" r="20.83"/>
			<path fill="#75C69A" d="M40.211,135.756c0,13.813,11.198,25.01,25.01,25.01c13.813,0,25.01-11.198,25.01-25.01
				s-11.198-25.01-25.01-25.01C51.409,110.745,40.211,121.943,40.211,135.756z M84.576,135.756c0,10.689-8.665,19.354-19.354,19.354
				s-19.354-8.665-19.354-19.354s8.665-19.354,19.354-19.354S84.576,125.067,84.576,135.756z"/>
			<rect x="64.205" y="114.722" fill="#75C69A" width="2.033" height="42.067"/>
		</g>
		<path fill="#46B97C" d="M83.277,31.228c0.303,0.303,0.386,0.753,0.229,1.149c9.134,9.865,8.852,24.994-0.673,34.519
			C73.32,76.409,58.206,76.7,48.342,67.59c-0.407,0.204-0.909,0.136-1.236-0.191s-0.396-0.829-0.191-1.236
			c-9.111-9.865-8.821-24.979,0.692-34.493c9.526-9.526,24.656-9.807,34.521-0.671C82.524,30.842,82.974,30.925,83.277,31.228z
			 M81.513,32.35c-0.081-0.225-0.085-0.467-0.01-0.692c-4.447-4.114-10.222-6.377-16.282-6.378c-6.411,0-12.438,2.498-16.972,7.032
			c-4.533,4.533-7.03,10.56-7.03,16.971c0.001,6.071,2.273,11.856,6.402,16.307c0.2-0.046,0.41-0.03,0.609,0.045l7.306-7.306
			c-0.09-0.251-0.082-0.525,0.022-0.771c-4.313-5.029-4.038-12.586,0.657-17.281s12.253-4.971,17.282-0.658
			c0.246-0.104,0.52-0.112,0.77-0.022L81.513,32.35z M48.916,66.885c4.45,4.128,10.234,6.399,16.305,6.4
			c6.41,0,12.437-2.497,16.971-7.03c4.534-4.534,7.031-10.562,7.032-16.972c0-6.059-2.263-11.833-6.376-16.28
			c-0.226,0.075-0.468,0.071-0.693-0.011l-7.245,7.245c0.091,0.251,0.083,0.526-0.021,0.772c4.311,5.027,4.034,12.584-0.66,17.279
			c-4.694,4.693-12.251,4.97-17.278,0.659c-0.246,0.104-0.521,0.112-0.772,0.022l-7.306,7.306
			C48.946,66.475,48.962,66.685,48.916,66.885z M73.145,41.36c-0.282-0.282-0.376-0.693-0.26-1.07
			c-2.144-1.831-4.859-2.837-7.664-2.838c-3.16,0.001-6.131,1.232-8.365,3.466s-3.465,5.205-3.465,8.364
			c0.001,2.806,1.007,5.521,2.838,7.664c0.377-0.117,0.788-0.022,1.07,0.26s0.377,0.693,0.26,1.07
			c2.143,1.83,4.857,2.835,7.663,2.836c3.159,0,6.129-1.23,8.364-3.465c2.234-2.235,3.465-5.206,3.466-8.366
			c-0.001-2.805-1.006-5.519-2.836-7.662C73.839,41.737,73.427,41.642,73.145,41.36z"/>
	</g>
	<g>
		<g>
			<g>
				<rect x="12.637" y="93.593" fill="#46B97C" width="18.984" height="5.277"/>
			</g>
			<g>
				<rect x="12.637" y="86.319" fill="#46B97C" width="18.984" height="5.277"/>
			</g>
		</g>
		<path fill="#46B97C" d="M35.182,93.069c0-0.225-0.183-0.408-0.409-0.408s-0.408,0.183-0.408,0.408s0.183,0.409,0.408,0.409
			S35.182,93.295,35.182,93.069z M31.621,84.558v16.073c0,0.847,0.687,1.534,1.534,1.534h16.728c3.478,0,6.298-2.82,6.298-6.298
			v-6.546c0-3.478-2.82-6.298-6.298-6.298H33.155C32.308,83.024,31.621,83.711,31.621,84.558z M33.667,93.069
			c0-0.61,0.496-1.106,1.107-1.106s1.107,0.496,1.107,1.106s-0.496,1.107-1.107,1.107S33.667,93.68,33.667,93.069z M52.417,93.073
			c0,2.996-2.437,5.426-5.433,5.426c-3.003,0-5.433-2.43-5.433-5.426c0-3.003,2.43-5.433,5.433-5.433
			C49.98,87.64,52.417,90.07,52.417,93.073z"/>
		<g>
			<path fill="#75C69A" d="M46.436,85.937c3.671,0,6.658,2.987,6.658,6.658s-2.987,6.658-6.658,6.658s-6.658-2.987-6.658-6.658
				C39.778,88.923,42.764,85.937,46.436,85.937z"/>
			<path fill="#46B97C" d="M45.383,92.595c0,0.581,0.471,1.052,1.052,1.052c0.581,0,1.052-0.471,1.052-1.052
				s-0.471-1.052-1.052-1.052C45.855,91.542,45.383,92.013,45.383,92.595z M41.272,92.595c0,2.852,2.312,5.163,5.163,5.163
				c2.852,0,5.163-2.312,5.163-5.163c0-2.852-2.312-5.163-5.163-5.163C43.584,87.431,41.272,89.743,41.272,92.595z M48.904,92.595
				c0,1.363-1.105,2.468-2.468,2.468s-2.468-1.105-2.468-2.468s1.105-2.468,2.468-2.468C47.799,90.126,48.904,91.231,48.904,92.595z
				"/>
		</g>
	</g>
	<g>
		<g>
			<g>
				<rect x="98.806" y="86.319" fill="#46B97C" width="18.984" height="5.277"/>
			</g>
			<g>
				<rect x="98.806" y="93.593" fill="#46B97C" width="18.984" height="5.277"/>
			</g>
		</g>
		<path fill="#46B97C" d="M95.245,92.12c0,0.225,0.183,0.408,0.409,0.408c0.225,0,0.408-0.183,0.408-0.408s-0.183-0.409-0.408-0.409
			C95.428,91.711,95.245,91.894,95.245,92.12z M98.806,100.631V84.558c0-0.847-0.687-1.534-1.534-1.534H80.544
			c-3.478,0-6.298,2.82-6.298,6.298v6.546c0,3.478,2.82,6.298,6.298,6.298h16.728C98.12,102.165,98.806,101.478,98.806,100.631z
			 M96.76,92.12c0,0.61-0.496,1.106-1.107,1.106s-1.107-0.496-1.107-1.106s0.496-1.107,1.107-1.107S96.76,91.509,96.76,92.12z
			 M78.01,92.116c0-2.996,2.437-5.426,5.433-5.426c3.003,0,5.433,2.43,5.433,5.426c0,3.003-2.43,5.433-5.433,5.433
			C80.448,97.549,78.01,95.119,78.01,92.116z"/>
		<g>
			<path fill="#75C69A" d="M83.991,99.253c-3.671,0-6.658-2.987-6.658-6.658s2.987-6.658,6.658-6.658s6.658,2.987,6.658,6.658
				C90.649,96.266,87.663,99.253,83.991,99.253z"/>
			<path fill="#46B97C" d="M85.044,92.595c0-0.581-0.471-1.052-1.052-1.052s-1.052,0.471-1.052,1.052s0.471,1.052,1.052,1.052
				S85.044,93.176,85.044,92.595z M89.155,92.595c0-2.852-2.312-5.163-5.163-5.163s-5.163,2.312-5.163,5.163
				c0,2.852,2.312,5.163,5.163,5.163S89.155,95.446,89.155,92.595z M81.523,92.595c0-1.363,1.105-2.468,2.468-2.468
				s2.468,1.105,2.468,2.468s-1.105,2.468-2.468,2.468S81.523,93.958,81.523,92.595z"/>
		</g>
	</g>
	<path fill="#46B97C" d="M120.039,56.87c4.246,0.526,7.812,2.313,10.418,5.244c2.818,3.171,4.37,7.467,4.37,12.1
		s-1.552,8.929-4.37,12.1c-2.589,2.913-6.125,4.695-10.335,5.234c-0.027,0.004-2.926,0.007-2.954,0.01v-5.243
		c0.028-0.005,2.927-0.011,2.955-0.016c6.281-1.253,9.549-6.697,9.549-12.084c0-5.411-3.297-10.879-9.632-12.1L120.039,56.87
		L120.039,56.87z"/>
	<polygon fill="#46B97C" points="104.858,62.08 104.858,56.879 120.057,56.87 120.042,62.08 	"/>
	<g>
		<circle fill="#46B97C" cx="106.603" cy="59.472" r="6.119"/>
		<circle fill="#75C69A" cx="106.603" cy="59.472" r="5.29"/>
		<circle fill="#46B97C" cx="107.896" cy="56.985" r="1.256"/>
	</g>
</g>
</svg>
