<?xml version="1.0" encoding="utf-8"?>
<!-- Generator: Adobe Illustrator 17.0.0, SVG Export Plug-In . SVG Version: 6.00 Build 0)  -->
<!DOCTYPE svg PUBLIC "-//W3C//DTD SVG 1.1//EN" "http://www.w3.org/Graphics/SVG/1.1/DTD/svg11.dtd">
<svg version="1.1" id="Layer_1" xmlns="http://www.w3.org/2000/svg" xmlns:xlink="http://www.w3.org/1999/xlink" x="0px" y="0px"
	 width="121.8px" height="354.523px" viewBox="0 0 121.8 354.523" enable-background="new 0 0 121.8 354.523" xml:space="preserve">
<g>
	<g>
		<path fill="#731012" d="M83.256,273.983c0.367-2.965,1.615-5.455,3.662-7.275c2.214-1.968,5.215-3.052,8.45-3.052
			c3.235,0,6.236,1.084,8.45,3.052c2.034,1.808,3.279,4.278,3.655,7.218c0.002,0.019,0.005,2.044,0.007,2.063h-3.662
			c-0.004-0.019-0.008-2.044-0.011-2.064c-0.875-4.386-4.677-6.668-8.439-6.668c-3.779,0-7.598,2.302-8.451,6.727H83.256z"/>
		<path fill="#731012" d="M17.727,347.386c-3.834-0.475-7.052-2.088-9.405-4.734c-2.544-2.862-3.945-6.741-3.945-10.923
			s1.401-8.061,3.945-10.923c2.353-2.647,5.572-4.26,9.405-4.734v4.734c-5.719,1.102-8.696,6.04-8.696,10.924
			s2.976,9.822,8.696,10.924V347.386z"/>
		<path fill="#731012" d="M17.727,315.848c-3.834-0.475-7.052-2.088-9.405-4.734c-2.544-2.862-3.945-6.741-3.945-10.923
			c0-4.182,1.401-8.061,3.945-10.923c2.353-2.647,5.572-4.26,9.405-4.734v4.734c-5.719,1.102-8.696,6.04-8.696,10.924
			s2.976,9.822,8.696,10.924V315.848z"/>
		<g>
			<rect x="104.766" y="312.517" fill="#550F17" width="8.51" height="3.64"/>
			<g>
				<path fill="#A83342" d="M110.569,309.684c-2.569,2.569-2.569,6.735,0,9.304c2.569,2.569,6.735,2.569,9.304,0
					c2.569-2.569,2.569-6.735,0-9.304C117.304,307.115,113.139,307.115,110.569,309.684z M118.821,317.936
					c-1.988,1.988-5.212,1.988-7.2,0s-1.988-5.212,0-7.2c1.988-1.988,5.212-1.988,7.2,0
					C120.81,312.725,120.81,315.948,118.821,317.936z"/>
				<circle fill="#A83342" cx="115.221" cy="314.336" r="5.121"/>
				<path fill="#731012" d="M110.874,309.989c-2.401,2.401-2.401,6.294,0,8.695s6.294,2.401,8.695,0
					c2.401-2.401,2.401-6.294,0-8.695C117.168,307.588,113.275,307.588,110.874,309.989z M118.586,317.701
					c-1.858,1.858-4.87,1.858-6.728,0c-1.858-1.858-1.858-4.87,0-6.728c1.858-1.858,4.87-1.858,6.728,0
					C120.444,312.83,120.444,315.843,118.586,317.701z"/>
				
					<rect x="114.972" y="309.166" transform="matrix(0.7071 0.7071 -0.7071 0.7071 256.017 10.5931)" fill="#731012" width="0.5" height="10.341"/>
			</g>
		</g>
		<g>
			<circle fill="#731012" cx="31.955" cy="290.98" r="1.381"/>
			<circle fill="#731012" cx="98.1" cy="290.98" r="1.381"/>
		</g>
		<path fill="#A83342" d="M107.826,314.274c0-3.826,2.985-6.947,6.752-7.181v-24.565c0-4.502-3.683-8.185-8.185-8.185H23.622
			c-4.502,0-8.185,3.683-8.185,8.185v63.492c0,4.502,3.683,8.185,8.185,8.185h82.771c4.502,0,8.185-3.683,8.185-8.185v-24.565
			C110.811,321.221,107.826,318.1,107.826,314.274z"/>
		<path opacity="0.5" fill="none" stroke="#FFFFFF" stroke-miterlimit="10" d="M23.622,350.112c-2.256,0-4.092-1.836-4.092-4.092
			v-63.492c0-2.256,1.836-4.092,4.092-4.092h82.771c2.256,0,4.092,1.836,4.092,4.092v21.413c-3.987,1.757-6.752,5.749-6.752,10.334
			s2.765,8.577,6.752,10.334v21.412c0,2.256-1.836,4.092-4.092,4.092H23.622z"/>
		<g>
			<path opacity="0.2" fill="#A83342" d="M23.622,354.523c-4.502,0-8.185-3.683-8.185-8.185v-63.492
				c0-4.502,3.683-8.185,8.185-8.185h82.771c4.502,0,8.185,3.683,8.185,8.185L23.622,354.523z"/>
			<rect x="31.807" y="291.031" fill="none" stroke="#731012" stroke-miterlimit="10" width="66.401" height="47.122"/>
		</g>
		<g>
			<path fill="#A83342" d="M91.649,315.03c0-14.781-11.982-26.763-26.763-26.763S38.124,300.25,38.124,315.03
				s11.982,26.763,26.763,26.763S91.649,329.811,91.649,315.03z M44.176,315.03c0-11.438,9.272-20.71,20.71-20.71
				s20.71,9.272,20.71,20.71s-9.272,20.71-20.71,20.71S44.176,326.468,44.176,315.03z"/>
			<circle fill="#A83342" cx="64.887" cy="315.03" r="20.83"/>
			<path fill="#731012" d="M89.897,315.03c0-13.813-11.198-25.01-25.01-25.01s-25.01,11.198-25.01,25.01s11.198,25.01,25.01,25.01
				S89.897,328.843,89.897,315.03z M45.532,315.03c0-10.689,8.665-19.354,19.354-19.354s19.354,8.665,19.354,19.354
				c0,10.689-8.665,19.354-19.354,19.354S45.532,325.719,45.532,315.03z"/>
			<rect x="63.87" y="293.997" fill="#731012" width="2.033" height="42.067"/>
		</g>
		<g>
			<circle fill="#731012" cx="31.93" cy="337.823" r="1.381"/>
			<circle fill="#731012" cx="98.075" cy="337.823" r="1.381"/>
		</g>
		<g>
			<circle fill="#731012" cx="31.93" cy="290.82" r="1.381"/>
			<circle fill="#731012" cx="98.075" cy="290.82" r="1.381"/>
		</g>
		<polygon fill="#731012" points="86.894,284.585 83.262,284.585 83.256,273.97 86.894,273.981 		"/>
		<g>
			<circle fill="#731012" cx="85.073" cy="284.51" r="4.274"/>
			<circle fill="#A83342" cx="85.073" cy="284.51" r="3.694"/>
			<circle fill="#731012" cx="83.336" cy="283.606" r="0.877"/>
		</g>
	</g>
	<g>
		<g>
			<rect x="6.563" y="142.464" fill="#550F17" width="11.05" height="41.743"/>
			<rect x="6.563" y="187.072" fill="#550F17" width="11.05" height="20.462"/>
		</g>
		<g>
			<rect x="104.715" y="221.585" fill="#550F17" width="11.05" height="41.743"/>
		</g>
		<rect x="29.072" y="14.369" fill="#550F17" width="66.708" height="28.647"/>
		<g>
			<path fill="#550F17" d="M20.181,135.034c-5.795-0.718-10.661-3.156-14.217-7.157C2.118,123.55,0,117.687,0,111.365
				c0-6.322,2.118-12.186,5.963-16.512c3.557-4.001,8.422-6.439,14.217-7.157v7.155c-8.646,1.666-13.145,9.13-13.145,16.514
				c0,7.384,4.499,14.847,13.145,16.514V135.034z"/>
			<path fill="#550F17" d="M20.181,87.36c-5.795-0.718-10.661-3.156-14.217-7.157C2.118,75.877,0,70.013,0,63.691
				s2.118-12.186,5.963-16.512c3.557-4.001,8.422-6.439,14.217-7.157v7.155c-8.646,1.666-13.145,9.13-13.145,16.514
				s4.499,14.847,13.145,16.514V87.36z"/>
		</g>
		<path fill="#A83342" d="M111.701,263.224c0,4.502-3.683,8.185-8.185,8.185H20.745c-4.502,0-8.185-3.683-8.185-8.185V31.117
			c0-4.502,3.683-8.185,8.185-8.185h82.771c4.502,0,8.185,3.683,8.185,8.185V263.224z"/>
		<path opacity="0.2" fill="#A83342" d="M20.745,271.409c-4.502,0-8.185-3.683-8.185-8.185V31.117c0-4.502,3.683-8.185,8.185-8.185
			h82.771c4.502,0,8.185,3.683,8.185,8.185L20.745,271.409z"/>
		<rect x="28.93" y="39.58" fill="none" stroke="#731012" stroke-miterlimit="10" width="66.401" height="215.737"/>
		<rect x="34.41" y="39.674" fill="none" stroke="#731012" stroke-miterlimit="10" width="14.841" height="44.774"/>
		<rect x="34.41" y="140.895" fill="none" stroke="#731012" stroke-miterlimit="10" width="14.841" height="10.67"/>
		<path fill="#A83342" d="M111.701,11.109c0,4.502-3.683,8.185-8.185,8.185H20.745c-4.502,0-8.185-3.683-8.185-8.185V8.185
			C12.56,3.683,16.243,0,20.745,0h82.771c4.502,0,8.185,3.683,8.185,8.185V11.109z"/>
		<g>
			<circle fill="#731012" cx="66.362" cy="60.346" r="13.095"/>
			<path fill="#731012" d="M79.052,218.671v0.011H10.918v21.007h68.591v-0.022c26.307-0.229,39.521-19.976,39.641-39.82h-0.007
				V89.989h-0.007c-0.065-26.528-19.9-39.849-39.828-39.969v0.01H59.269v21.007h20.188v-0.005
				c9.406,0.185,18.675,6.543,18.675,19.086h0.004v109.773h0.006C98.003,209.333,91.643,218.671,79.052,218.671z"/>
			<g opacity="0.5">
				<path fill="#FFFFFF" d="M79.308,56.168c0.113,0,0.226-0.003,0.338-0.009l-0.065-1.226l-0.017,1.228
					c8.093,0.11,16.465,2.848,22.772,8.388c3.156,2.771,5.806,6.24,7.679,10.46c1.872,4.22,2.968,9.197,2.983,14.996v0.003
					c0,0.105,0.003,0.209,0.009,0.314l1.226-0.064h-1.228v109.59l0,0.027l0.005,0.215l1.227-0.027l-1.228-0.015
					c-0.098,8.048-2.806,16.397-8.3,22.71c-2.748,3.159-6.189,5.819-10.375,7.709c-4.187,1.889-9.125,3.012-14.879,3.063l-0.003,0
					c-0.174,0.002-0.347,0.011-0.519,0.027c-0.675,0.062-1.172,0.66-1.109,1.335c0.062,0.675,0.66,1.172,1.335,1.109
					c0.105-0.01,0.212-0.015,0.321-0.016l-0.003,0c6.061-0.052,11.352-1.241,15.868-3.28c6.777-3.057,11.787-8.022,15.096-13.807
					c3.312-5.787,4.943-12.392,5.023-18.819l0-0.043l-0.004-0.202V90.257l-0.002-0.064l-0.006-0.198v0.003
					c-0.014-6.105-1.175-11.435-3.194-15.986c-3.028-6.829-7.984-11.883-13.777-15.223c-5.795-3.343-12.423-4.994-18.884-5.084
					l-0.082,0.002l-0.209,0.005c-0.678,0-1.228,0.55-1.228,1.228C78.08,55.618,78.63,56.168,79.308,56.168L79.308,56.168z"/>
			</g>
		</g>
		<circle fill="#731012" cx="11.642" cy="229.179" r="10.553"/>
		<g>
			<circle fill="#731012" cx="68.238" cy="247.775" r="2.225"/>
			<circle fill="#731012" cx="55.123" cy="247.775" r="2.225"/>
		</g>
		<g>
			<circle fill="#731012" cx="41.742" cy="73.65" r="2.225"/>
			<circle fill="#731012" cx="41.742" cy="60.536" r="2.225"/>
		</g>
		<path fill="#731012" d="M62.682,193.134c2.904,0,5.531-1.176,7.433-3.078c1.902-1.903,3.078-4.529,3.079-7.432
			c0-2.904-1.176-5.531-3.079-7.433c-1.903-1.902-4.53-3.078-7.433-3.079c-2.903,0-5.53,1.176-7.432,3.079
			c-1.902,1.903-3.078,4.53-3.078,7.433c0,2.903,1.176,5.529,3.078,7.432C57.152,191.958,59.779,193.134,62.682,193.134z
			 M62.681,173.351c5.124,0,9.273,4.15,9.273,9.273c0,5.121-4.15,9.274-9.273,9.274c-5.121,0-9.273-4.153-9.273-9.274
			C53.408,177.501,57.56,173.351,62.681,173.351z M62.681,161.517c-5.829,0-11.104,2.362-14.923,6.182
			c-3.78,3.78-6.128,8.987-6.177,14.745h10.232c0.097-5.923,4.924-10.694,10.868-10.694c5.946,0,10.773,4.77,10.87,10.693h10.233
			c-0.049-5.758-2.397-10.964-6.177-14.744C73.787,163.878,68.511,161.517,62.681,161.517z M88.025,180.091h-2.491
			c-0.123-1.125-0.326-2.226-0.605-3.295l2.306-0.901c0.327-0.128,0.488-0.496,0.361-0.823l-1.381-3.533
			c-0.128-0.327-0.496-0.488-0.823-0.361l-2.282,0.892c-0.66-1.275-1.435-2.479-2.312-3.6l1.708-1.708
			c0.248-0.248,0.248-0.651,0-0.899l-2.682-2.682c-0.248-0.248-0.651-0.248-0.899,0l-1.662,1.662
			c-0.877-0.72-1.809-1.375-2.788-1.961l0.002-0.004l0.923-2.109c0.14-0.32-0.006-0.694-0.327-0.837l-3.475-1.522
			c-0.323-0.139-0.698,0.006-0.837,0.33l-0.891,2.032l-0.003,0.007c-1.371-0.451-2.799-0.774-4.271-0.96v-2.16
			c0-0.351-0.285-0.636-0.636-0.636h-3.793c-0.351,0-0.636,0.285-0.636,0.636v2.074c-1.183,0.11-2.34,0.308-3.464,0.59l-0.732-1.873
			c-0.128-0.327-0.496-0.488-0.823-0.361l-3.533,1.381c-0.327,0.128-0.488,0.496-0.361,0.823l0.705,1.804
			c-1.346,0.681-2.615,1.49-3.793,2.411L47.2,163.18c-0.248-0.248-0.651-0.248-0.899,0l-2.682,2.682
			c-0.248,0.248-0.248,0.651,0,0.899l1.283,1.283c-0.761,0.928-1.448,1.918-2.058,2.959l-1.633-0.715
			c-0.322-0.141-0.696,0.006-0.837,0.327l-1.522,3.474c-0.141,0.322,0.006,0.696,0.327,0.837l1.598,0.7
			c-0.457,1.432-0.777,2.925-0.946,4.464h-1.733c-0.351,0-0.636,0.285-0.636,0.636v3.793c0,0.351,0.285,0.636,0.636,0.636h1.733
			c0.134,1.219,0.364,2.408,0.681,3.562l-1.623,0.634c-0.327,0.128-0.488,0.496-0.361,0.823l1.381,3.533
			c0.128,0.327,0.496,0.488,0.823,0.361l1.65-0.645c0.716,1.344,1.56,2.609,2.519,3.778l-1.282,1.282
			c-0.247,0.247-0.247,0.65,0,0.897l2.683,2.682c0.247,0.247,0.65,0.247,0.897,0l1.325-1.322l0.004-0.004
			c0.935,0.732,1.927,1.393,2.97,1.975l-0.771,1.761c-0.141,0.322,0.006,0.697,0.327,0.837l3.474,1.522
			c0.322,0.141,0.696-0.006,0.837-0.327l0.802-1.831c1.403,0.414,2.861,0.699,4.362,0.838v2.074c0,0.351,0.285,0.636,0.636,0.636
			h3.793c0.351,0,0.636-0.285,0.636-0.636v-2.16c1.16-0.147,2.292-0.379,3.391-0.692l0.806,2.061
			c0.128,0.327,0.496,0.488,0.823,0.361l3.533-1.381c0.327-0.128,0.488-0.496,0.361-0.823l-0.832-2.13
			c1.273-0.694,2.473-1.506,3.586-2.419l1.662,1.662c0.248,0.248,0.651,0.248,0.899,0l2.682-2.682c0.248-0.248,0.248-0.651,0-0.899
			l-1.707-1.707c0.692-0.884,1.319-1.819,1.878-2.799l2.238,0.98c0.322,0.141,0.696-0.006,0.837-0.327l1.522-3.474
			c0.141-0.322-0.006-0.696-0.327-0.837l-2.264-0.992c0.409-1.343,0.697-2.738,0.854-4.172h2.491c0.351,0,0.636-0.285,0.636-0.636
			v-3.793C88.661,180.375,88.376,180.091,88.025,180.091z M62.681,204.091c-11.857,0-21.467-9.611-21.467-21.467
			c0-11.859,9.611-21.47,21.467-21.47c11.859,0,21.47,9.611,21.47,21.47C84.151,194.481,74.54,204.091,62.681,204.091z
			 M62.682,193.496c-5.944,0-10.771-4.77-10.868-10.691H41.581c0.049,5.756,2.397,10.962,6.177,14.742
			c3.82,3.819,9.095,6.181,14.923,6.181c5.83,0,11.106-2.362,14.926-6.181c3.78-3.78,6.128-8.986,6.177-14.743H73.552
			C73.454,188.726,68.628,193.496,62.682,193.496z"/>
		<line fill="none" stroke="#731012" stroke-miterlimit="10" x1="28.987" y1="137.003" x2="95.264" y2="137.003"/>
		<path fill="#731012" d="M95.166,117.125c-1.774-0.816-3.13-2.527-3.134-5.144h0.001c0-11.213-16.82-11.213-16.82,0h0.001
			c-0.012,7.607-11.429,7.603-11.429-0.012h-0.003c-0.012-11.201-16.819-11.197-16.819,0.012h0.001
			c-0.012,7.603-11.417,7.603-11.429,0h0c0-4.919-3.238-7.672-6.872-8.276v2.755c2.258,0.565,4.171,2.398,4.176,5.509h0
			c0,11.213,16.82,11.213,16.82,0h-0.001c0.012-7.607,11.429-7.603,11.429,0.012h0.003c0.012,11.201,16.819,11.197,16.819-0.012
			h-0.001c0.012-7.603,11.417-7.603,11.429,0h-0.001c0,4.443,2.641,7.125,5.83,8.047V117.125z"/>
		<g>
			<path fill="#A83342" d="M87.242,127.268c-5.315-5.315-13.934-5.315-19.249,0c-5.315,5.315-5.315,13.934,0,19.249
				s13.934,5.315,19.249,0S92.558,132.584,87.242,127.268z M70.17,144.341c-4.113-4.113-4.113-10.783,0-14.896
				s10.783-4.113,14.896,0c4.113,4.113,4.113,10.783,0,14.896C80.952,148.454,74.283,148.454,70.17,144.341z"/>
			<circle fill="#A83342" cx="77.618" cy="136.893" r="10.594"/>
			<path fill="#731012" d="M86.612,127.898c-4.967-4.967-13.021-4.967-17.989,0c-4.967,4.967-4.967,13.021,0,17.989
				c4.967,4.967,13.021,4.967,17.989,0C91.58,140.92,91.58,132.866,86.612,127.898z M70.658,143.853
				c-3.844-3.844-3.844-10.077,0-13.921c3.844-3.844,10.077-3.844,13.921,0c3.844,3.844,3.844,10.077,0,13.921
				C80.734,147.697,74.502,147.697,70.658,143.853z"/>
			
				<rect x="77.101" y="126.195" transform="matrix(-0.7071 0.7071 -0.7071 -0.7071 229.2999 178.8065)" fill="#731012" width="1.034" height="21.395"/>
		</g>
	</g>
</g>
</svg>
