<?xml version="1.0" encoding="utf-8"?>
<!-- Generator: Adobe Illustrator 17.0.0, SVG Export Plug-In . SVG Version: 6.00 Build 0)  -->
<!DOCTYPE svg PUBLIC "-//W3C//DTD SVG 1.1//EN" "http://www.w3.org/Graphics/SVG/1.1/DTD/svg11.dtd">
<svg version="1.1" id="Layer_1" xmlns="http://www.w3.org/2000/svg" xmlns:xlink="http://www.w3.org/1999/xlink" x="0px" y="0px"
	 width="119.15px" height="271.409px" viewBox="0 0 119.15 271.409" enable-background="new 0 0 119.15 271.409"
	 xml:space="preserve">
<g>
	<g>
		<rect x="6.563" y="142.464" fill="#2C9A6C" width="11.05" height="41.743"/>
		<rect x="6.563" y="187.072" fill="#2C9A6C" width="11.05" height="20.462"/>
	</g>
	<g>
		<rect x="104.715" y="221.585" fill="#2C9A6C" width="11.05" height="41.743"/>
	</g>
	<rect x="29.072" y="14.369" fill="#2C9A6C" width="66.708" height="28.647"/>
	<g>
		<path fill="#2C9A6C" d="M20.181,135.034c-5.795-0.718-10.661-3.156-14.217-7.157C2.118,123.55,0,117.687,0,111.365
			c0-6.322,2.118-12.186,5.963-16.512c3.557-4.001,8.422-6.439,14.217-7.157v7.155c-8.646,1.666-13.145,9.13-13.145,16.514
			c0,7.384,4.499,14.847,13.145,16.514V135.034z"/>
		<path fill="#2C9A6C" d="M20.181,87.36c-5.795-0.718-10.661-3.156-14.217-7.157C2.118,75.877,0,70.013,0,63.691
			s2.118-12.186,5.963-16.512c3.557-4.001,8.422-6.439,14.217-7.157v7.155c-8.646,1.666-13.145,9.13-13.145,16.514
			s4.499,14.847,13.145,16.514V87.36z"/>
	</g>
	<path fill="#75C69A" d="M111.701,263.224c0,4.502-3.683,8.185-8.185,8.185H20.745c-4.502,0-8.185-3.683-8.185-8.185V31.117
		c0-4.502,3.683-8.185,8.185-8.185h82.771c4.502,0,8.185,3.683,8.185,8.185V263.224z"/>
	<path opacity="0.12" fill="#F5928D" d="M20.745,271.409c-4.502,0-8.185-3.683-8.185-8.185V31.117c0-4.502,3.683-8.185,8.185-8.185
		h82.771c4.502,0,8.185,3.683,8.185,8.185L20.745,271.409z"/>
	<rect x="28.93" y="39.58" fill="none" stroke="#59BE8C" stroke-miterlimit="10" width="66.401" height="215.737"/>
	<rect x="34.41" y="39.674" fill="none" stroke="#59BE8C" stroke-miterlimit="10" width="14.841" height="44.774"/>
	<rect x="34.41" y="140.895" fill="none" stroke="#59BE8C" stroke-miterlimit="10" width="14.841" height="10.67"/>
	<path fill="#75C69A" d="M111.701,11.109c0,4.502-3.683,8.185-8.185,8.185H20.745c-4.502,0-8.185-3.683-8.185-8.185V8.185
		C12.56,3.683,16.243,0,20.745,0h82.771c4.502,0,8.185,3.683,8.185,8.185V11.109z"/>
	<g>
		<circle fill="#46B97C" cx="66.362" cy="60.346" r="13.095"/>
		<path fill="#46B97C" d="M79.052,218.671v0.011H10.918v21.007h68.591v-0.022c26.307-0.229,39.521-19.976,39.641-39.82h-0.007
			V89.989h-0.007c-0.065-26.528-19.9-39.849-39.828-39.969v0.01H59.269v21.007h20.188v-0.005
			c9.406,0.185,18.675,6.543,18.675,19.086h0.004v109.773h0.006C98.003,209.333,91.643,218.671,79.052,218.671z"/>
		<g opacity="0.5">
			<path fill="#FFFFFF" d="M79.308,56.168c0.113,0,0.226-0.003,0.338-0.009l-0.065-1.226l-0.017,1.228
				c8.093,0.11,16.465,2.848,22.772,8.388c3.156,2.771,5.806,6.24,7.679,10.46c1.872,4.22,2.968,9.197,2.983,14.996v0.003
				c0,0.105,0.003,0.209,0.009,0.314l1.226-0.064h-1.228v109.59l0,0.027l0.005,0.215l1.227-0.027l-1.228-0.015
				c-0.098,8.048-2.806,16.397-8.3,22.71c-2.748,3.159-6.189,5.819-10.375,7.709c-4.187,1.889-9.125,3.012-14.879,3.063l-0.003,0
				c-0.174,0.002-0.347,0.011-0.519,0.027c-0.675,0.062-1.172,0.66-1.109,1.335c0.062,0.675,0.66,1.172,1.335,1.109
				c0.105-0.01,0.212-0.015,0.321-0.016l-0.003,0c6.061-0.052,11.352-1.241,15.868-3.28c6.777-3.057,11.787-8.022,15.096-13.807
				c3.312-5.787,4.943-12.392,5.023-18.819l0-0.043l-0.004-0.202V90.257l-0.002-0.064l-0.006-0.198v0.003
				c-0.014-6.105-1.175-11.435-3.194-15.986c-3.028-6.829-7.984-11.883-13.777-15.223c-5.795-3.343-12.423-4.994-18.884-5.084
				l-0.082,0.002l-0.209,0.005c-0.678,0-1.228,0.55-1.228,1.228C78.08,55.618,78.63,56.168,79.308,56.168L79.308,56.168z"/>
		</g>
	</g>
	<circle fill="#46B97C" cx="11.642" cy="229.179" r="10.553"/>
	<g>
		<circle fill="#46B97C" cx="68.238" cy="247.775" r="2.225"/>
		<circle fill="#46B97C" cx="55.123" cy="247.775" r="2.225"/>
	</g>
	<g>
		<circle fill="#46B97C" cx="41.742" cy="73.65" r="2.225"/>
		<circle fill="#46B97C" cx="41.742" cy="60.536" r="2.225"/>
	</g>
	<path fill="#46B97C" d="M62.682,193.134c2.904,0,5.531-1.176,7.433-3.078c1.902-1.903,3.078-4.529,3.079-7.432
		c0-2.904-1.176-5.531-3.079-7.433c-1.903-1.902-4.53-3.078-7.433-3.079c-2.903,0-5.53,1.176-7.432,3.079
		c-1.902,1.903-3.078,4.53-3.078,7.433c0,2.903,1.176,5.529,3.078,7.432C57.152,191.958,59.779,193.134,62.682,193.134z
		 M62.681,173.351c5.124,0,9.273,4.15,9.273,9.273c0,5.121-4.15,9.274-9.273,9.274c-5.121,0-9.273-4.153-9.273-9.274
		C53.408,177.501,57.56,173.351,62.681,173.351z M62.681,161.517c-5.829,0-11.104,2.362-14.923,6.182
		c-3.78,3.78-6.128,8.987-6.177,14.745h10.232c0.097-5.923,4.924-10.694,10.868-10.694c5.946,0,10.773,4.77,10.87,10.693h10.233
		c-0.049-5.758-2.397-10.964-6.177-14.744C73.787,163.878,68.511,161.517,62.681,161.517z M88.025,180.091h-2.491
		c-0.123-1.125-0.326-2.226-0.605-3.295l2.306-0.901c0.327-0.128,0.488-0.496,0.361-0.823l-1.381-3.533
		c-0.128-0.327-0.496-0.488-0.823-0.361l-2.282,0.892c-0.66-1.275-1.435-2.479-2.312-3.6l1.708-1.708
		c0.248-0.248,0.248-0.651,0-0.899l-2.682-2.682c-0.248-0.248-0.651-0.248-0.899,0l-1.662,1.662
		c-0.877-0.72-1.809-1.375-2.788-1.961l0.002-0.004l0.923-2.109c0.14-0.32-0.006-0.694-0.327-0.837l-3.475-1.522
		c-0.323-0.139-0.698,0.006-0.837,0.33l-0.891,2.032l-0.003,0.007c-1.371-0.451-2.799-0.774-4.271-0.96v-2.16
		c0-0.351-0.285-0.636-0.636-0.636h-3.793c-0.351,0-0.636,0.285-0.636,0.636v2.074c-1.183,0.11-2.34,0.308-3.464,0.59l-0.732-1.873
		c-0.128-0.327-0.496-0.488-0.823-0.361l-3.533,1.381c-0.327,0.128-0.488,0.496-0.361,0.823l0.705,1.804
		c-1.346,0.681-2.615,1.49-3.793,2.411L47.2,163.18c-0.248-0.248-0.651-0.248-0.899,0l-2.682,2.682
		c-0.248,0.248-0.248,0.651,0,0.899l1.283,1.283c-0.761,0.928-1.448,1.918-2.058,2.959l-1.633-0.715
		c-0.322-0.141-0.696,0.006-0.837,0.327l-1.522,3.474c-0.141,0.322,0.006,0.696,0.327,0.837l1.598,0.7
		c-0.457,1.432-0.777,2.925-0.946,4.464h-1.733c-0.351,0-0.636,0.285-0.636,0.636v3.793c0,0.351,0.285,0.636,0.636,0.636h1.733
		c0.134,1.219,0.364,2.408,0.681,3.562l-1.623,0.634c-0.327,0.128-0.488,0.496-0.361,0.823l1.381,3.533
		c0.128,0.327,0.496,0.488,0.823,0.361l1.65-0.645c0.716,1.344,1.56,2.609,2.519,3.778l-1.282,1.282
		c-0.247,0.247-0.247,0.65,0,0.897l2.683,2.682c0.247,0.247,0.65,0.247,0.897,0l1.325-1.322l0.004-0.004
		c0.935,0.732,1.927,1.393,2.97,1.975l-0.771,1.761c-0.141,0.322,0.006,0.697,0.327,0.837l3.474,1.522
		c0.322,0.141,0.696-0.006,0.837-0.327l0.802-1.831c1.403,0.414,2.861,0.699,4.362,0.838v2.074c0,0.351,0.285,0.636,0.636,0.636
		h3.793c0.351,0,0.636-0.285,0.636-0.636v-2.16c1.16-0.147,2.292-0.379,3.391-0.692l0.806,2.061
		c0.128,0.327,0.496,0.488,0.823,0.361l3.533-1.381c0.327-0.128,0.488-0.496,0.361-0.823l-0.832-2.13
		c1.273-0.694,2.473-1.506,3.586-2.419l1.662,1.662c0.248,0.248,0.651,0.248,0.899,0l2.682-2.682c0.248-0.248,0.248-0.651,0-0.899
		l-1.707-1.707c0.692-0.884,1.319-1.819,1.878-2.799l2.238,0.98c0.322,0.141,0.696-0.006,0.837-0.327l1.522-3.474
		c0.141-0.322-0.006-0.696-0.327-0.837l-2.264-0.992c0.409-1.343,0.697-2.738,0.854-4.172h2.491c0.351,0,0.636-0.285,0.636-0.636
		v-3.793C88.661,180.375,88.376,180.091,88.025,180.091z M62.681,204.091c-11.857,0-21.467-9.611-21.467-21.467
		c0-11.859,9.611-21.47,21.467-21.47c11.859,0,21.47,9.611,21.47,21.47C84.151,194.481,74.54,204.091,62.681,204.091z
		 M62.682,193.496c-5.944,0-10.771-4.77-10.868-10.691H41.581c0.049,5.756,2.397,10.962,6.177,14.742
		c3.82,3.819,9.095,6.181,14.923,6.181c5.83,0,11.106-2.362,14.926-6.181c3.78-3.78,6.128-8.986,6.177-14.743H73.552
		C73.454,188.726,68.628,193.496,62.682,193.496z"/>
	<line fill="none" stroke="#59BE8C" stroke-miterlimit="10" x1="28.987" y1="137.003" x2="95.264" y2="137.003"/>
	<path fill="#46B97C" d="M95.166,117.125c-1.774-0.816-3.13-2.527-3.134-5.144h0.001c0-11.213-16.82-11.213-16.82,0h0.001
		c-0.012,7.607-11.429,7.603-11.429-0.012h-0.003c-0.012-11.201-16.819-11.197-16.819,0.012h0.001
		c-0.012,7.603-11.417,7.603-11.429,0h0c0-4.919-3.238-7.672-6.872-8.276v2.755c2.258,0.565,4.171,2.398,4.176,5.509h0
		c0,11.213,16.82,11.213,16.82,0h-0.001c0.012-7.607,11.429-7.603,11.429,0.012h0.003c0.012,11.201,16.819,11.197,16.819-0.012
		h-0.001c0.012-7.603,11.417-7.603,11.429,0h-0.001c0,4.443,2.641,7.125,5.83,8.047V117.125z"/>
	<g>
		<path fill="#75C69A" d="M87.242,127.268c-5.315-5.315-13.934-5.315-19.249,0c-5.315,5.315-5.315,13.934,0,19.249
			s13.934,5.315,19.249,0S92.558,132.584,87.242,127.268z M70.17,144.341c-4.113-4.113-4.113-10.783,0-14.896s10.783-4.113,14.896,0
			c4.113,4.113,4.113,10.783,0,14.896C80.952,148.454,74.283,148.454,70.17,144.341z"/>
		<circle fill="#75C69A" cx="77.618" cy="136.893" r="10.594"/>
		<path fill="#46B97C" d="M86.612,127.898c-4.967-4.967-13.021-4.967-17.989,0c-4.967,4.967-4.967,13.021,0,17.989
			c4.967,4.967,13.021,4.967,17.989,0C91.58,140.92,91.58,132.866,86.612,127.898z M70.658,143.853
			c-3.844-3.844-3.844-10.077,0-13.921c3.844-3.844,10.077-3.844,13.921,0c3.844,3.844,3.844,10.077,0,13.921
			C80.734,147.697,74.502,147.697,70.658,143.853z"/>
		
			<rect x="77.101" y="126.195" transform="matrix(-0.7071 0.7071 -0.7071 -0.7071 229.2999 178.8065)" fill="#46B97C" width="1.034" height="21.395"/>
	</g>
</g>
</svg>
