<?xml version="1.0" encoding="utf-8"?>
<!-- Generator: Adobe Illustrator 17.0.0, SVG Export Plug-In . SVG Version: 6.00 Build 0)  -->
<!DOCTYPE svg PUBLIC "-//W3C//DTD SVG 1.1//EN" "http://www.w3.org/Graphics/SVG/1.1/DTD/svg11.dtd">
<svg version="1.1" id="Layer_1" xmlns="http://www.w3.org/2000/svg" xmlns:xlink="http://www.w3.org/1999/xlink" x="0px" y="0px"
	 width="119.15px" height="271.409px" viewBox="0 0 119.15 271.409" enable-background="new 0 0 119.15 271.409"
	 xml:space="preserve">
<g>
	<g>
		<rect x="101.537" y="87.202" fill="#2C9A6C" width="11.05" height="41.743"/>
		<rect x="101.537" y="63.875" fill="#2C9A6C" width="11.05" height="20.462"/>
	</g>
	<g>
		<rect x="3.385" y="8.081" fill="#2C9A6C" width="11.05" height="41.743"/>
	</g>
	<rect x="23.37" y="228.393" fill="#2C9A6C" width="66.708" height="28.647"/>
	<g>
		<path fill="#2C9A6C" d="M98.969,136.375c5.795,0.718,10.661,3.156,14.217,7.157c3.846,4.327,5.964,10.19,5.964,16.512
			c0,6.322-2.118,12.186-5.963,16.512c-3.557,4.001-8.422,6.439-14.217,7.157v-7.155c8.646-1.666,13.145-9.13,13.145-16.514
			s-4.499-14.847-13.145-16.514L98.969,136.375L98.969,136.375z"/>
		<path fill="#2C9A6C" d="M98.969,184.049c5.795,0.718,10.661,3.156,14.217,7.157c3.846,4.326,5.964,10.19,5.964,16.512
			c0,6.322-2.118,12.186-5.963,16.512c-3.557,4.001-8.422,6.439-14.217,7.157v-7.155c8.646-1.666,13.145-9.13,13.145-16.514
			c0-7.384-4.499-14.847-13.145-16.514L98.969,184.049L98.969,184.049z"/>
	</g>
	<path fill="#75C69A" d="M7.449,8.185C7.449,3.683,11.132,0,15.634,0l82.771,0c4.502,0,8.185,3.683,8.185,8.185v232.107
		c0,4.502-3.683,8.185-8.185,8.185l-82.771,0c-4.502,0-8.185-3.683-8.185-8.185C7.449,240.292,7.449,8.185,7.449,8.185z"/>
	<path opacity="0.12" fill="#F5928D" enable-background="new    " d="M98.405,0c4.502,0,8.185,3.683,8.185,8.185v232.107
		c0,4.502-3.683,8.185-8.185,8.185l-82.771,0c-4.502,0-8.185-3.683-8.185-8.185L98.405,0z"/>
	<rect x="23.819" y="16.092" fill="none" stroke="#59BE8C" stroke-miterlimit="10" width="66.401" height="215.737"/>
	<rect x="69.899" y="186.961" fill="none" stroke="#59BE8C" stroke-miterlimit="10" width="14.841" height="44.774"/>
	<rect x="69.899" y="119.844" fill="none" stroke="#59BE8C" stroke-miterlimit="10" width="14.841" height="10.67"/>
	<path fill="#75C69A" d="M7.449,260.3c0-4.502,3.683-8.185,8.185-8.185h82.771c4.502,0,8.185,3.683,8.185,8.185v2.924
		c0,4.502-3.683,8.185-8.185,8.185H15.634c-4.502,0-8.185-3.683-8.185-8.185C7.449,263.224,7.449,260.3,7.449,260.3z"/>
	<g>
		<circle fill="#46B97C" cx="52.788" cy="211.063" r="13.095"/>
		<path fill="#46B97C" d="M40.098,52.738v-0.011h68.134V31.72H39.641v0.022C13.334,31.971,0.12,51.718,0,71.562h0.007l0,109.858
			h0.007c0.065,26.528,19.9,39.849,39.828,39.969v-0.01h20.039v-21.007l-20.188,0v0.005c-9.406-0.185-18.675-6.543-18.675-19.086
			h-0.004V71.518h-0.006C21.147,62.076,27.507,52.738,40.098,52.738z"/>
		<g opacity="0.5">
			<path fill="#FFFFFF" d="M39.842,215.241c-0.113,0-0.226,0.003-0.338,0.009l0.065,1.226l0.017-1.228
				c-8.093-0.11-16.465-2.848-22.772-8.388c-3.156-2.771-5.806-6.24-7.679-10.46c-1.872-4.22-2.968-9.197-2.983-14.996v-0.003
				c0-0.105-0.003-0.209-0.009-0.314l-1.226,0.064h1.228V71.561v-0.027L6.14,71.319l-1.227,0.027l1.228,0.015
				c0.098-8.048,2.806-16.397,8.3-22.71c2.748-3.159,6.189-5.819,10.375-7.709c4.187-1.889,9.125-3.012,14.879-3.063h0.003
				c0.174-0.002,0.347-0.011,0.519-0.027c0.675-0.062,1.172-0.66,1.109-1.335c-0.062-0.675-0.66-1.172-1.335-1.109
				c-0.105,0.01-0.212,0.015-0.321,0.016h0.003c-6.061,0.052-11.352,1.241-15.868,3.28c-6.777,3.057-11.787,8.022-15.096,13.807
				C5.397,58.298,3.766,64.903,3.686,71.33v0.043l0.004,0.202v109.577l0.002,0.064l0.006,0.198v-0.003
				c0.014,6.105,1.175,11.435,3.194,15.986c3.028,6.829,7.984,11.883,13.777,15.223c5.795,3.343,12.423,4.994,18.884,5.084
				l0.082-0.002l0.209-0.005c0.678,0,1.228-0.55,1.228-1.228C41.07,215.791,40.52,215.241,39.842,215.241L39.842,215.241z"/>
		</g>
	</g>
	<circle fill="#46B97C" cx="107.508" cy="42.23" r="10.553"/>
	<g>
		<circle fill="#46B97C" cx="50.912" cy="23.634" r="2.225"/>
		<circle fill="#46B97C" cx="64.027" cy="23.634" r="2.225"/>
	</g>
	<g>
		<circle fill="#46B97C" cx="77.408" cy="197.759" r="2.225"/>
		<circle fill="#46B97C" cx="77.408" cy="210.873" r="2.225"/>
	</g>
	<path fill="#46B97C" d="M56.468,78.275c-2.904,0-5.531,1.176-7.433,3.078c-1.902,1.903-3.078,4.529-3.079,7.432
		c0,2.904,1.176,5.531,3.079,7.433s4.53,3.078,7.433,3.079c2.903,0,5.53-1.176,7.432-3.079s3.078-4.53,3.078-7.433
		s-1.176-5.529-3.078-7.432C61.998,79.451,59.371,78.275,56.468,78.275z M56.469,98.058c-5.124,0-9.273-4.15-9.273-9.273
		c0-5.121,4.15-9.274,9.273-9.274c5.121,0,9.273,4.153,9.273,9.274C65.742,93.908,61.59,98.058,56.469,98.058z M56.469,109.892
		c5.829,0,11.104-2.362,14.923-6.182c3.78-3.78,6.128-8.987,6.177-14.745H67.337c-0.097,5.923-4.924,10.694-10.868,10.694
		c-5.946,0-10.773-4.77-10.87-10.693H35.366c0.049,5.758,2.397,10.964,6.177,14.744C45.363,107.531,50.639,109.892,56.469,109.892z
		 M31.125,91.318h2.491c0.123,1.125,0.326,2.226,0.605,3.295l-2.306,0.901c-0.327,0.128-0.488,0.496-0.361,0.823l1.381,3.533
		c0.128,0.327,0.496,0.488,0.823,0.361l2.282-0.892c0.66,1.275,1.435,2.479,2.312,3.6l-1.708,1.708
		c-0.248,0.248-0.248,0.651,0,0.899l2.682,2.682c0.248,0.248,0.651,0.248,0.899,0l1.662-1.662c0.877,0.72,1.809,1.375,2.788,1.961
		l-0.002,0.004l-0.923,2.109c-0.14,0.32,0.006,0.694,0.327,0.837l3.475,1.522c0.323,0.139,0.698-0.006,0.837-0.33l0.891-2.032
		l0.003-0.007c1.371,0.451,2.799,0.774,4.271,0.96v2.16c0,0.351,0.285,0.636,0.636,0.636h3.793c0.351,0,0.636-0.285,0.636-0.636
		v-2.074c1.183-0.11,2.34-0.308,3.464-0.59l0.732,1.873c0.128,0.327,0.496,0.488,0.823,0.361l3.533-1.381
		c0.327-0.128,0.488-0.496,0.361-0.823l-0.705-1.804c1.346-0.681,2.615-1.49,3.793-2.411l1.33,1.328
		c0.248,0.248,0.651,0.248,0.899,0l2.682-2.682c0.248-0.248,0.248-0.651,0-0.899l-1.283-1.283c0.761-0.928,1.448-1.918,2.058-2.959
		l1.633,0.715c0.322,0.141,0.696-0.006,0.837-0.327l1.522-3.474c0.141-0.322-0.006-0.696-0.327-0.837l-1.598-0.7
		c0.457-1.432,0.777-2.925,0.946-4.464h1.733c0.351,0,0.636-0.285,0.636-0.636V86.89c0-0.351-0.285-0.636-0.636-0.636h-1.733
		c-0.134-1.219-0.364-2.408-0.681-3.562l1.623-0.634c0.327-0.128,0.488-0.496,0.361-0.823l-1.381-3.533
		c-0.128-0.327-0.496-0.488-0.823-0.361l-1.65,0.645c-0.716-1.344-1.56-2.609-2.519-3.778l1.282-1.282
		c0.247-0.247,0.247-0.65,0-0.897l-2.683-2.682c-0.247-0.247-0.65-0.247-0.897,0l-1.325,1.322l-0.004,0.004
		c-0.935-0.732-1.927-1.393-2.97-1.975l0.771-1.761c0.141-0.322-0.006-0.697-0.327-0.837l-3.474-1.522
		c-0.322-0.141-0.696,0.006-0.837,0.327l-0.802,1.831c-1.403-0.414-2.861-0.699-4.362-0.838v-2.074c0-0.351-0.285-0.636-0.636-0.636
		h-3.793c-0.351,0-0.636,0.285-0.636,0.636v2.16c-1.16,0.147-2.292,0.379-3.391,0.692l-0.806-2.061
		c-0.128-0.327-0.496-0.488-0.823-0.361l-3.533,1.381c-0.327,0.128-0.488,0.496-0.361,0.823l0.832,2.13
		c-1.273,0.694-2.473,1.506-3.586,2.419l-1.662-1.662c-0.248-0.248-0.651-0.248-0.899,0l-2.682,2.682
		c-0.248,0.248-0.248,0.651,0,0.899l1.707,1.707c-0.692,0.884-1.319,1.819-1.878,2.799l-2.238-0.98
		c-0.322-0.141-0.696,0.006-0.837,0.327l-1.522,3.474c-0.141,0.322,0.006,0.696,0.327,0.837l2.264,0.992
		c-0.409,1.343-0.697,2.738-0.854,4.172h-2.491c-0.351,0-0.636,0.285-0.636,0.636v3.793C30.489,91.034,30.774,91.318,31.125,91.318z
		 M56.469,67.318c11.857,0,21.467,9.611,21.467,21.467c0,11.859-9.611,21.47-21.467,21.47c-11.859,0-21.47-9.611-21.47-21.47
		C34.999,76.928,44.61,67.318,56.469,67.318z M56.468,77.913c5.944,0,10.771,4.77,10.868,10.691h10.233
		c-0.049-5.756-2.397-10.962-6.177-14.742c-3.82-3.819-9.095-6.181-14.923-6.181c-5.83,0-11.106,2.362-14.926,6.181
		c-3.78,3.78-6.128,8.986-6.177,14.743h10.232C45.696,82.683,50.522,77.913,56.468,77.913z"/>
	<line fill="none" stroke="#59BE8C" stroke-miterlimit="10" x1="90.163" y1="134.406" x2="23.886" y2="134.406"/>
	<path fill="#46B97C" d="M23.984,154.284c1.774,0.816,3.13,2.527,3.134,5.144h-0.001c0,11.213,16.82,11.213,16.82,0h-0.001
		c0.012-7.607,11.429-7.603,11.429,0.012h0.003c0.012,11.201,16.819,11.197,16.819-0.012h-0.001c0.012-7.603,11.417-7.603,11.429,0
		l0,0c0,4.919,3.238,7.672,6.872,8.276v-2.755c-2.258-0.565-4.171-2.398-4.176-5.509l0,0c0-11.213-16.82-11.213-16.82,0h0.001
		c-0.012,7.607-11.429,7.603-11.429-0.012H58.06c-0.012-11.201-16.819-11.197-16.819,0.012h0.001
		c-0.012,7.603-11.417,7.603-11.429,0h0.001c0-4.443-2.641-7.125-5.83-8.047V154.284z"/>
	<g>
		<path fill="#75C69A" d="M31.908,144.141c5.315,5.315,13.934,5.315,19.249,0s5.315-13.934,0-19.249s-13.934-5.315-19.249,0
			S26.592,138.825,31.908,144.141z M48.98,127.068c4.113,4.113,4.113,10.783,0,14.896s-10.783,4.113-14.896,0
			s-4.113-10.783,0-14.896C38.198,122.955,44.867,122.955,48.98,127.068z"/>
		<circle fill="#75C69A" cx="41.532" cy="134.516" r="10.594"/>
		<path fill="#46B97C" d="M32.538,143.511c4.967,4.967,13.021,4.967,17.989,0c4.967-4.967,4.967-13.021,0-17.989
			c-4.967-4.967-13.021-4.967-17.989,0C27.57,130.489,27.57,138.543,32.538,143.511z M48.492,127.556
			c3.844,3.844,3.844,10.077,0,13.921s-10.077,3.844-13.921,0c-3.844-3.844-3.844-10.077,0-13.921
			C38.416,123.712,44.648,123.712,48.492,127.556z"/>
		
			<rect x="41.013" y="123.818" transform="matrix(-0.7071 0.7071 -0.7071 -0.7071 166.0137 200.2658)" fill="#46B97C" width="1.034" height="21.395"/>
	</g>
</g>
</svg>
