<?xml version="1.0" encoding="utf-8"?>
<!-- Generator: Adobe Illustrator 17.0.0, SVG Export Plug-In . SVG Version: 6.00 Build 0)  -->
<!DOCTYPE svg PUBLIC "-//W3C//DTD SVG 1.1//EN" "http://www.w3.org/Graphics/SVG/1.1/DTD/svg11.dtd">
<svg version="1.1" id="Layer_1" xmlns="http://www.w3.org/2000/svg" xmlns:xlink="http://www.w3.org/1999/xlink" x="0px" y="0px"
	 width="117.417px" height="90.861px" viewBox="0 0 117.417 90.861" enable-background="new 0 0 117.417 90.861"
	 xml:space="preserve">
<g>
	<path fill="#46B97C" d="M38.542,80.535c-0.367,2.965-1.615,5.455-3.662,7.275c-2.214,1.968-5.215,3.051-8.449,3.051
		s-6.235-1.084-8.449-3.051c-2.034-1.808-3.279-4.278-3.655-7.217c-0.002-0.019-0.005-2.043-0.007-2.063h3.661
		c0.004,0.019,0.008,2.044,0.011,2.063c0.875,4.386,4.677,6.668,8.439,6.668c3.778,0,7.597-2.302,8.45-6.726H38.542z"/>
	<path fill="#46B97C" d="M104.067,7.137c3.833,0.475,7.052,2.088,9.405,4.734c2.544,2.862,3.945,6.741,3.945,10.923
		s-1.401,8.061-3.945,10.923c-2.353,2.646-5.571,4.259-9.405,4.734v-4.733c5.719-1.102,8.695-6.039,8.695-10.924
		s-2.976-9.821-8.695-10.924V7.137z"/>
	<path fill="#46B97C" d="M104.067,38.673c3.833,0.475,7.052,2.088,9.405,4.734c2.544,2.862,3.945,6.741,3.945,10.923
		s-1.401,8.061-3.945,10.923c-2.353,2.646-5.571,4.259-9.405,4.734v-4.733c5.719-1.102,8.695-6.039,8.695-10.924
		s-2.976-9.821-8.695-10.924V38.673z"/>
	<g>
		<rect x="8.524" y="38.365" fill="#2C9A6C" width="8.51" height="3.639"/>
		<g>
			<path fill="#75C69A" d="M11.23,44.836c2.569-2.569,2.569-6.734,0-9.303s-6.734-2.569-9.303,0s-2.569,6.734,0,9.303
				S8.661,47.405,11.23,44.836z M2.979,36.585c1.988-1.988,5.211-1.988,7.199,0s1.988,5.211,0,7.199s-5.211,1.988-7.199,0
				S0.991,38.573,2.979,36.585z"/>
			<circle fill="#75C69A" cx="6.579" cy="40.184" r="5.12"/>
			<path fill="#46B97C" d="M10.926,44.532c2.401-2.401,2.401-6.293,0-8.694s-6.293-2.401-8.694,0s-2.401,6.293,0,8.694
				C4.632,46.932,8.525,46.932,10.926,44.532z M3.214,36.82c1.858-1.858,4.87-1.858,6.728,0s1.858,4.87,0,6.728s-4.87,1.858-6.728,0
				S1.357,38.678,3.214,36.82z"/>
			
				<rect x="6.328" y="35.015" transform="matrix(-0.7071 -0.7071 0.7071 -0.7071 -17.1858 73.2512)" fill="#46B97C" width="0.5" height="10.34"/>
		</g>
	</g>
	<g>
		<circle fill="#46B97C" cx="89.84" cy="63.539" r="1.381"/>
		<circle fill="#46B97C" cx="23.699" cy="63.539" r="1.381"/>
	</g>
	<g>
		<path fill="#75C69A" d="M13.974,40.247c0,3.826-2.985,6.946-6.752,7.181v24.563c0,4.501,3.683,8.184,8.184,8.184h82.766
			c4.501,0,8.184-3.683,8.184-8.184V8.503c0-4.501-3.683-8.184-8.184-8.184H15.406c-4.501,0-8.184,3.683-8.184,8.184v24.563
			C10.989,33.3,13.974,36.421,13.974,40.247z"/>
		<path opacity="0.5" fill="none" stroke="#FFFFFF" stroke-miterlimit="10" enable-background="new    " d="M98.172,4.411
			c2.256,0,4.092,1.836,4.092,4.092v63.488c0,2.256-1.836,4.092-4.092,4.092H15.407c-2.256,0-4.092-1.836-4.092-4.092V50.579
			c3.987-1.757,6.751-5.748,6.751-10.333s-2.765-8.576-6.751-10.333V8.503c0-2.256,1.836-4.092,4.092-4.092
			C15.407,4.411,98.172,4.411,98.172,4.411z"/>
		<g>
			<path opacity="0.12" fill="#F5928D" enable-background="new    " d="M98.172,0c4.501,0,8.184,3.683,8.184,8.184v63.488
				c0,4.501-3.683,8.184-8.184,8.184H15.406c-4.501,0-8.184-3.683-8.184-8.184L98.172,0z"/>
			<rect x="23.591" y="16.369" fill="none" stroke="#59BE8C" stroke-miterlimit="10" width="66.397" height="47.119"/>
		</g>
		<g>
			<path fill="#75C69A" d="M30.149,39.49c0,14.78,11.981,26.761,26.761,26.761S83.671,54.27,83.671,39.49S71.69,12.729,56.91,12.729
				S30.149,24.711,30.149,39.49z M77.619,39.49c0,11.437-9.272,20.709-20.709,20.709S36.201,50.928,36.201,39.49
				s9.272-20.709,20.709-20.709S77.619,28.053,77.619,39.49z"/>
			<circle fill="#75C69A" cx="56.91" cy="39.49" r="20.829"/>
			<path fill="#46B97C" d="M31.901,39.49c0,13.812,11.197,25.009,25.009,25.009S81.919,53.302,81.919,39.49
				S70.722,14.482,56.91,14.482S31.901,25.678,31.901,39.49z M76.263,39.49c0,10.688-8.665,19.353-19.353,19.353
				S37.557,50.179,37.557,39.49s8.665-19.353,19.353-19.353S76.263,28.802,76.263,39.49z"/>
			<rect x="55.894" y="18.458" fill="#46B97C" width="2.033" height="42.064"/>
		</g>
		<g>
			<circle fill="#46B97C" cx="89.864" cy="16.699" r="1.381"/>
			<circle fill="#46B97C" cx="23.724" cy="16.699" r="1.381"/>
		</g>
	</g>
	<polygon fill="#46B97C" points="34.904,69.934 38.536,69.934 38.542,80.548 34.904,80.537 	"/>
	<g>
		<circle fill="#46B97C" cx="36.725" cy="70.009" r="4.273"/>
		<circle fill="#75C69A" cx="36.725" cy="70.009" r="3.694"/>
		<circle fill="#46B97C" cx="38.462" cy="70.912" r="0.877"/>
	</g>
</g>
</svg>
