<?xml version="1.0" encoding="utf-8"?>
<!-- Generator: Adobe Illustrator 17.0.0, SVG Export Plug-In . SVG Version: 6.00 Build 0)  -->
<!DOCTYPE svg PUBLIC "-//W3C//DTD SVG 1.1//EN" "http://www.w3.org/Graphics/SVG/1.1/DTD/svg11.dtd">
<svg version="1.1" id="Layer_1" xmlns="http://www.w3.org/2000/svg" xmlns:xlink="http://www.w3.org/1999/xlink" x="0px" y="0px"
	 width="121.8px" height="354.523px" viewBox="0 0 121.8 354.523" enable-background="new 0 0 121.8 354.523" xml:space="preserve">
<g>
	<g>
		<path fill="#46B97C" d="M38.544,80.54c-0.367,2.965-1.615,5.455-3.662,7.275c-2.214,1.968-5.215,3.052-8.45,3.052
			s-6.236-1.084-8.45-3.052c-2.034-1.808-3.279-4.278-3.655-7.218c-0.002-0.019-0.005-2.044-0.007-2.063h3.662
			c0.004,0.019,0.008,2.044,0.011,2.064c0.875,4.386,4.677,6.668,8.439,6.668c3.779,0,7.598-2.302,8.451-6.727L38.544,80.54
			L38.544,80.54z"/>
		<path fill="#46B97C" d="M104.073,7.137c3.834,0.475,7.052,2.088,9.405,4.734c2.544,2.862,3.945,6.741,3.945,10.923
			s-1.401,8.061-3.945,10.923c-2.353,2.647-5.572,4.26-9.405,4.734v-4.734c5.719-1.102,8.696-6.04,8.696-10.924
			s-2.976-9.822-8.696-10.924V7.137z"/>
		<path fill="#46B97C" d="M104.073,38.675c3.834,0.475,7.052,2.088,9.405,4.734c2.544,2.862,3.945,6.741,3.945,10.923
			s-1.401,8.061-3.945,10.923c-2.353,2.647-5.572,4.26-9.405,4.734v-4.734c5.719-1.102,8.696-6.04,8.696-10.924
			s-2.976-9.822-8.696-10.924V38.675z"/>
		<g>
			<rect x="8.524" y="38.366" fill="#2C9A6C" width="8.51" height="3.64"/>
			<g>
				<path fill="#75C69A" d="M11.231,44.839c2.569-2.569,2.569-6.735,0-9.304s-6.735-2.569-9.304,0s-2.569,6.735,0,9.304
					S8.661,47.408,11.231,44.839z M2.979,36.587c1.988-1.988,5.212-1.988,7.2,0s1.988,5.212,0,7.2s-5.212,1.988-7.2,0
					C0.99,41.798,0.99,38.575,2.979,36.587z"/>
				<circle fill="#75C69A" cx="6.579" cy="40.187" r="5.121"/>
				<path fill="#46B97C" d="M10.926,44.534c2.401-2.401,2.401-6.294,0-8.695s-6.294-2.401-8.695,0s-2.401,6.294,0,8.695
					S8.525,46.935,10.926,44.534z M3.214,36.822c1.858-1.858,4.87-1.858,6.728,0c1.858,1.858,1.858,4.87,0,6.728
					s-4.87,1.858-6.728,0C1.356,41.693,1.356,38.68,3.214,36.822z"/>
				
					<rect x="6.327" y="35.019" transform="matrix(0.7071 0.7071 -0.7071 0.7071 30.3442 7.1208)" fill="#46B97C" width="0.5" height="10.341"/>
			</g>
		</g>
		<g>
			<circle fill="#46B97C" cx="89.845" cy="63.543" r="1.381"/>
			<circle fill="#46B97C" cx="23.7" cy="63.543" r="1.381"/>
		</g>
		<path fill="#75C69A" d="M13.974,40.249c0,3.826-2.985,6.947-6.752,7.181v24.565c0,4.502,3.683,8.185,8.185,8.185h82.771
			c4.502,0,8.185-3.683,8.185-8.185V8.503c0-4.502-3.683-8.185-8.185-8.185H15.407c-4.502,0-8.185,3.683-8.185,8.185v24.565
			C10.989,33.302,13.974,36.423,13.974,40.249z"/>
		<path opacity="0.5" fill="none" stroke="#FFFFFF" stroke-miterlimit="10" enable-background="new    " d="M98.178,4.411
			c2.256,0,4.092,1.836,4.092,4.092v63.492c0,2.256-1.836,4.092-4.092,4.092H15.407c-2.256,0-4.092-1.836-4.092-4.092V50.582
			c3.987-1.757,6.752-5.749,6.752-10.334s-2.765-8.577-6.752-10.334V8.502c0-2.256,1.836-4.092,4.092-4.092L98.178,4.411
			L98.178,4.411z"/>
		<g>
			<path opacity="0.12" fill="#F5928D" enable-background="new    " d="M98.178,0c4.502,0,8.185,3.683,8.185,8.185v63.492
				c0,4.502-3.683,8.185-8.185,8.185H15.407c-4.502,0-8.185-3.683-8.185-8.185L98.178,0z"/>
			<rect x="23.592" y="16.37" fill="none" stroke="#59BE8C" stroke-miterlimit="10" width="66.401" height="47.122"/>
		</g>
		<g>
			<path fill="#75C69A" d="M30.151,39.493c0,14.781,11.982,26.763,26.763,26.763s26.762-11.983,26.762-26.763
				S71.694,12.73,56.913,12.73S30.151,24.712,30.151,39.493z M77.624,39.493c0,11.438-9.272,20.71-20.71,20.71
				s-20.71-9.272-20.71-20.71s9.272-20.71,20.71-20.71S77.624,28.055,77.624,39.493z"/>
			<circle fill="#75C69A" cx="56.913" cy="39.493" r="20.83"/>
			<path fill="#46B97C" d="M31.903,39.493c0,13.813,11.198,25.01,25.01,25.01s25.01-11.198,25.01-25.01s-11.198-25.01-25.01-25.01
				S31.903,25.68,31.903,39.493z M76.268,39.493c0,10.689-8.665,19.354-19.354,19.354S37.56,50.182,37.56,39.493
				s8.665-19.354,19.354-19.354S76.268,28.804,76.268,39.493z"/>
			<rect x="55.897" y="18.459" fill="#46B97C" width="2.033" height="42.067"/>
		</g>
		<g>
			<circle fill="#46B97C" cx="89.87" cy="16.7" r="1.381"/>
			<circle fill="#46B97C" cx="23.725" cy="16.7" r="1.381"/>
		</g>
		<g>
			<circle fill="#46B97C" cx="89.87" cy="63.703" r="1.381"/>
			<circle fill="#46B97C" cx="23.725" cy="63.703" r="1.381"/>
		</g>
		<polygon fill="#46B97C" points="34.906,69.938 38.538,69.938 38.544,80.553 34.906,80.542 		"/>
		<g>
			<circle fill="#46B97C" cx="36.727" cy="70.013" r="4.274"/>
			<circle fill="#75C69A" cx="36.727" cy="70.013" r="3.694"/>
			<circle fill="#46B97C" cx="38.464" cy="70.917" r="0.877"/>
		</g>
	</g>
	<g>
		<g>
			<rect x="104.187" y="170.316" fill="#2C9A6C" width="11.05" height="41.743"/>
			<rect x="104.187" y="146.989" fill="#2C9A6C" width="11.05" height="20.462"/>
		</g>
		<g>
			<rect x="6.035" y="91.195" fill="#2C9A6C" width="11.05" height="41.743"/>
		</g>
		<rect x="26.02" y="311.507" fill="#2C9A6C" width="66.708" height="28.647"/>
		<g>
			<path fill="#2C9A6C" d="M101.619,219.489c5.795,0.718,10.661,3.156,14.217,7.157c3.846,4.327,5.964,10.19,5.964,16.512
				c0,6.322-2.118,12.186-5.963,16.512c-3.557,4.001-8.422,6.439-14.217,7.157v-7.155c8.646-1.666,13.145-9.13,13.145-16.514
				s-4.499-14.847-13.145-16.514L101.619,219.489L101.619,219.489z"/>
			<path fill="#2C9A6C" d="M101.619,267.163c5.795,0.718,10.661,3.156,14.217,7.157c3.846,4.326,5.964,10.19,5.964,16.512
				s-2.118,12.186-5.963,16.512c-3.557,4.001-8.422,6.439-14.217,7.157v-7.155c8.646-1.666,13.145-9.13,13.145-16.514
				s-4.499-14.847-13.145-16.514L101.619,267.163L101.619,267.163z"/>
		</g>
		<path fill="#75C69A" d="M10.099,91.299c0-4.502,3.683-8.185,8.185-8.185h82.771c4.502,0,8.185,3.683,8.185,8.185v232.107
			c0,4.502-3.683,8.185-8.185,8.185H18.284c-4.502,0-8.185-3.683-8.185-8.185C10.099,323.406,10.099,91.299,10.099,91.299z"/>
		<path opacity="0.12" fill="#F5928D" enable-background="new    " d="M101.055,83.114c4.502,0,8.185,3.683,8.185,8.185v232.107
			c0,4.502-3.683,8.185-8.185,8.185H18.284c-4.502,0-8.185-3.683-8.185-8.185L101.055,83.114z"/>
		<rect x="26.469" y="99.206" fill="none" stroke="#59BE8C" stroke-miterlimit="10" width="66.401" height="215.737"/>
		<rect x="72.549" y="270.075" fill="none" stroke="#59BE8C" stroke-miterlimit="10" width="14.841" height="44.774"/>
		<rect x="72.549" y="202.958" fill="none" stroke="#59BE8C" stroke-miterlimit="10" width="14.841" height="10.67"/>
		<path fill="#75C69A" d="M10.099,343.414c0-4.502,3.683-8.185,8.185-8.185h82.771c4.502,0,8.185,3.683,8.185,8.185v2.924
			c0,4.502-3.683,8.185-8.185,8.185H18.284c-4.502,0-8.185-3.683-8.185-8.185C10.099,346.338,10.099,343.414,10.099,343.414z"/>
		<g>
			<circle fill="#46B97C" cx="55.438" cy="294.177" r="13.095"/>
			<path fill="#46B97C" d="M42.748,135.852v-0.011h68.134v-21.007H42.291v0.022c-26.307,0.229-39.521,19.976-39.641,39.82h0.007
				v109.858h0.007c0.065,26.528,19.9,39.849,39.828,39.969v-0.01h20.039v-21.007H42.343v0.005
				c-9.406-0.185-18.675-6.543-18.675-19.086h-0.004V154.632h-0.006C23.797,145.19,30.157,135.852,42.748,135.852z"/>
			<g opacity="0.5">
				<path fill="#FFFFFF" d="M42.492,298.355c-0.113,0-0.226,0.003-0.338,0.009l0.065,1.226l0.017-1.228
					c-8.093-0.11-16.465-2.848-22.772-8.388c-3.156-2.771-5.806-6.24-7.679-10.46c-1.872-4.22-2.968-9.197-2.983-14.996v-0.003
					c0-0.105-0.003-0.209-0.009-0.314l-1.226,0.064h1.228v-109.59v-0.027l-0.005-0.215l-1.227,0.027l1.228,0.015
					c0.098-8.048,2.806-16.397,8.3-22.71c2.748-3.159,6.189-5.819,10.375-7.709c4.187-1.889,9.125-3.012,14.879-3.063h0.003
					c0.174-0.002,0.347-0.011,0.519-0.027c0.675-0.062,1.172-0.66,1.109-1.335c-0.062-0.675-0.66-1.172-1.335-1.109
					c-0.105,0.01-0.212,0.015-0.321,0.016h0.003c-6.061,0.052-11.352,1.241-15.868,3.28c-6.777,3.057-11.787,8.022-15.096,13.807
					c-3.312,5.787-4.943,12.392-5.023,18.819v0.043l0.004,0.202v109.577l0.002,0.064l0.006,0.198v-0.003
					c0.014,6.105,1.175,11.435,3.194,15.986c3.028,6.829,7.984,11.883,13.777,15.223c5.795,3.343,12.423,4.994,18.884,5.084
					l0.082-0.002l0.209-0.005c0.678,0,1.228-0.55,1.228-1.228C43.72,298.905,43.17,298.355,42.492,298.355L42.492,298.355z"/>
			</g>
		</g>
		<circle fill="#46B97C" cx="110.158" cy="125.344" r="10.553"/>
		<g>
			<circle fill="#46B97C" cx="53.562" cy="106.748" r="2.225"/>
			<circle fill="#46B97C" cx="66.677" cy="106.748" r="2.225"/>
		</g>
		<g>
			<circle fill="#46B97C" cx="80.058" cy="280.873" r="2.225"/>
			<circle fill="#46B97C" cx="80.058" cy="293.987" r="2.225"/>
		</g>
		<path fill="#46B97C" d="M59.118,161.389c-2.904,0-5.531,1.176-7.433,3.078c-1.902,1.903-3.078,4.529-3.079,7.432
			c0,2.904,1.176,5.531,3.079,7.433s4.53,3.078,7.433,3.079c2.903,0,5.53-1.176,7.432-3.079s3.078-4.53,3.078-7.433
			s-1.176-5.529-3.078-7.432C64.648,162.565,62.021,161.389,59.118,161.389z M59.119,181.172c-5.124,0-9.273-4.15-9.273-9.273
			c0-5.121,4.15-9.274,9.273-9.274c5.121,0,9.273,4.153,9.273,9.274C68.392,177.022,64.24,181.172,59.119,181.172z M59.119,193.006
			c5.829,0,11.104-2.362,14.923-6.182c3.78-3.78,6.128-8.987,6.177-14.745H69.987c-0.097,5.923-4.924,10.694-10.868,10.694
			c-5.946,0-10.773-4.77-10.87-10.693H38.016c0.049,5.758,2.397,10.964,6.177,14.744C48.013,190.645,53.289,193.006,59.119,193.006z
			 M33.775,174.432h2.491c0.123,1.125,0.326,2.226,0.605,3.295l-2.306,0.901c-0.327,0.128-0.488,0.496-0.361,0.823l1.381,3.533
			c0.128,0.327,0.496,0.488,0.823,0.361l2.282-0.892c0.66,1.275,1.435,2.479,2.312,3.6l-1.708,1.708
			c-0.248,0.248-0.248,0.651,0,0.899l2.682,2.682c0.248,0.248,0.651,0.248,0.899,0l1.662-1.662c0.877,0.72,1.809,1.375,2.788,1.961
			l-0.002,0.004l-0.923,2.109c-0.14,0.32,0.006,0.694,0.327,0.837l3.475,1.522c0.323,0.139,0.698-0.006,0.837-0.33l0.891-2.032
			l0.003-0.007c1.371,0.451,2.799,0.774,4.271,0.96v2.16c0,0.351,0.285,0.636,0.636,0.636h3.793c0.351,0,0.636-0.285,0.636-0.636
			v-2.074c1.183-0.11,2.34-0.308,3.464-0.59l0.732,1.873c0.128,0.327,0.496,0.488,0.823,0.361l3.533-1.381
			c0.327-0.128,0.488-0.496,0.361-0.823l-0.705-1.804c1.346-0.681,2.615-1.49,3.793-2.411l1.33,1.328
			c0.248,0.248,0.651,0.248,0.899,0l2.682-2.682c0.248-0.248,0.248-0.651,0-0.899l-1.283-1.283c0.761-0.928,1.448-1.918,2.058-2.959
			l1.633,0.715c0.322,0.141,0.696-0.006,0.837-0.327l1.522-3.474c0.141-0.322-0.006-0.696-0.327-0.837l-1.598-0.7
			c0.457-1.432,0.777-2.925,0.946-4.464h1.733c0.351,0,0.636-0.285,0.636-0.636v-3.793c0-0.351-0.285-0.636-0.636-0.636h-1.733
			c-0.134-1.219-0.364-2.408-0.681-3.562l1.623-0.634c0.327-0.128,0.488-0.496,0.361-0.823l-1.381-3.533
			c-0.128-0.327-0.496-0.488-0.823-0.361l-1.65,0.645c-0.716-1.344-1.56-2.609-2.519-3.778l1.282-1.282
			c0.247-0.247,0.247-0.65,0-0.897l-2.683-2.682c-0.247-0.247-0.65-0.247-0.897,0l-1.325,1.322l-0.004,0.004
			c-0.935-0.732-1.927-1.393-2.97-1.975l0.771-1.761c0.141-0.322-0.006-0.697-0.327-0.837l-3.474-1.522
			c-0.322-0.141-0.696,0.006-0.837,0.327l-0.802,1.831c-1.403-0.414-2.861-0.699-4.362-0.838v-2.074
			c0-0.351-0.285-0.636-0.636-0.636h-3.793c-0.351,0-0.636,0.285-0.636,0.636v2.16c-1.16,0.147-2.292,0.379-3.391,0.692
			l-0.806-2.061c-0.128-0.327-0.496-0.488-0.823-0.361l-3.533,1.381c-0.327,0.128-0.488,0.496-0.361,0.823l0.832,2.13
			c-1.273,0.694-2.473,1.506-3.586,2.419l-1.662-1.662c-0.248-0.248-0.651-0.248-0.899,0l-2.682,2.682
			c-0.248,0.248-0.248,0.651,0,0.899l1.707,1.707c-0.692,0.884-1.319,1.819-1.878,2.799l-2.238-0.98
			c-0.322-0.141-0.696,0.006-0.837,0.327l-1.522,3.474c-0.141,0.322,0.006,0.696,0.327,0.837l2.264,0.992
			c-0.409,1.343-0.697,2.738-0.854,4.172h-2.491c-0.351,0-0.636,0.285-0.636,0.636v3.793
			C33.139,174.148,33.424,174.432,33.775,174.432z M59.119,150.432c11.857,0,21.467,9.611,21.467,21.467
			c0,11.859-9.611,21.47-21.467,21.47c-11.859,0-21.47-9.611-21.47-21.47C37.649,160.042,47.26,150.432,59.119,150.432z
			 M59.118,161.027c5.944,0,10.771,4.77,10.868,10.691h10.233c-0.049-5.756-2.397-10.962-6.177-14.742
			c-3.82-3.819-9.095-6.181-14.923-6.181c-5.83,0-11.106,2.362-14.926,6.181c-3.78,3.78-6.128,8.986-6.177,14.743h10.232
			C48.346,165.797,53.172,161.027,59.118,161.027z"/>
		<line fill="none" stroke="#59BE8C" stroke-miterlimit="10" x1="92.813" y1="217.52" x2="26.536" y2="217.52"/>
		<path fill="#46B97C" d="M26.634,237.398c1.774,0.816,3.13,2.527,3.134,5.144h-0.001c0,11.213,16.82,11.213,16.82,0h-0.001
			c0.012-7.607,11.429-7.603,11.429,0.012h0.003c0.012,11.201,16.819,11.197,16.819-0.012h-0.001c0.012-7.603,11.417-7.603,11.429,0
			l0,0c0,4.919,3.238,7.672,6.872,8.276v-2.755c-2.258-0.565-4.171-2.398-4.176-5.509l0,0c0-11.213-16.82-11.213-16.82,0h0.001
			c-0.012,7.607-11.429,7.603-11.429-0.012H60.71c-0.012-11.201-16.819-11.197-16.819,0.012h0.001
			c-0.012,7.603-11.417,7.603-11.429,0h0.001c0-4.443-2.641-7.125-5.83-8.047V237.398z"/>
		<g>
			<path fill="#75C69A" d="M34.558,227.255c5.315,5.315,13.934,5.315,19.249,0s5.315-13.934,0-19.249s-13.934-5.315-19.249,0
				S29.242,221.939,34.558,227.255z M51.63,210.182c4.113,4.113,4.113,10.783,0,14.896s-10.783,4.113-14.896,0
				s-4.113-10.783,0-14.896C40.848,206.069,47.517,206.069,51.63,210.182z"/>
			<circle fill="#75C69A" cx="44.182" cy="217.63" r="10.594"/>
			<path fill="#46B97C" d="M35.188,226.625c4.967,4.967,13.021,4.967,17.989,0c4.967-4.967,4.967-13.021,0-17.989
				c-4.967-4.967-13.021-4.967-17.989,0C30.22,213.603,30.22,221.657,35.188,226.625z M51.142,210.67
				c3.844,3.844,3.844,10.077,0,13.921s-10.077,3.844-13.921,0c-3.844-3.844-3.844-10.077,0-13.921
				C41.066,206.826,47.298,206.826,51.142,210.67z"/>
			
				<rect x="43.663" y="206.932" transform="matrix(-0.7071 0.7071 -0.7071 -0.7071 229.3078 340.2766)" fill="#46B97C" width="1.034" height="21.395"/>
		</g>
	</g>
</g>
</svg>
