<?xml version="1.0" encoding="utf-8"?>
<!-- Generator: Adobe Illustrator 17.0.0, SVG Export Plug-In . SVG Version: 6.00 Build 0)  -->
<!DOCTYPE svg PUBLIC "-//W3C//DTD SVG 1.1//EN" "http://www.w3.org/Graphics/SVG/1.1/DTD/svg11.dtd">
<svg version="1.1" id="Layer_1" xmlns="http://www.w3.org/2000/svg" xmlns:xlink="http://www.w3.org/1999/xlink" x="0px" y="0px"
	 width="84.422px" height="84.461px" viewBox="0 0 84.422 84.461" enable-background="new 0 0 84.422 84.461" xml:space="preserve">
<g id="bolt-top">
	<path fill="#554A64" d="M12.35,72.092c-16.466-16.466-16.466-43.257,0-59.723C20.326,4.393,30.93,0,42.211,0
		c11.281,0,21.885,4.393,29.862,12.369c16.466,16.466,16.466,43.257,0,59.723c-7.976,7.976-18.581,12.369-29.862,12.369
		C30.931,84.461,20.326,80.068,12.35,72.092z"/>
	<path fill="#2D3653" d="M15.174,69.267c14.932,14.932,39.141,14.932,54.073,0c14.932-14.932,14.932-39.141,0-54.073
		s-39.141-14.932-54.073,0C0.242,30.126,0.242,54.335,15.174,69.267z M22.416,64.223l41.787-41.787
		c10.473,11.616,10.117,29.531-1.07,40.717C51.947,74.339,34.032,74.696,22.416,64.223z M21.289,21.308
		c11.187-11.187,29.101-11.543,40.717-1.07L20.219,62.025C9.746,50.41,10.102,32.495,21.289,21.308z"/>
</g>
</svg>
