<?xml version="1.0" encoding="utf-8"?>
<!-- Generator: Adobe Illustrator 17.0.0, SVG Export Plug-In . SVG Version: 6.00 Build 0)  -->
<!DOCTYPE svg PUBLIC "-//W3C//DTD SVG 1.1//EN" "http://www.w3.org/Graphics/SVG/1.1/DTD/svg11.dtd">
<svg version="1.1" id="Layer_1" xmlns="http://www.w3.org/2000/svg" xmlns:xlink="http://www.w3.org/1999/xlink" x="0px" y="0px"
	 width="354.426px" height="240.716px" viewBox="0 0 354.426 240.716" enable-background="new 0 0 354.426 240.716"
	 xml:space="preserve">
<rect y="0" fill="#FFFFFF" fill-opacity="0" width="354.426" height="240.716"/>
<g>
	<g>
		<path fill="#FFFFFF" d="M54.926,92.716c-0.166,3.998-3.451,7.191-7.49,7.191s-7.323-3.193-7.49-7.191H54.926z"/>
		<path fill="#FFFFFF" d="M69.812,92.716c-0.166,3.998-3.451,7.191-7.49,7.191s-7.323-3.193-7.49-7.191H69.812z"/>
		<path fill="#FFFFFF" d="M84.572,92.716c-0.167,3.998-3.451,7.191-7.49,7.191s-7.323-3.193-7.49-7.191H84.572z"/>
	</g>
	<path fill="#2C3553" d="M95.049,9.619v83.629H39.921c-5.295,0-9.587-4.292-9.587-9.587V19.206c0-5.295,4.292-9.587,9.587-9.587
		H95.049z"/>
</g>
<g>
	<path fill="#3F1031" d="M211.703,6.179c0-3.412-2.766-6.179-6.179-6.179l-59.322,0c-3.412,0-6.179,2.766-6.179,6.179l0,0
		c0,3.412,2.766,6.179,6.179,6.179h59.322C208.936,12.358,211.703,9.592,211.703,6.179L211.703,6.179z"/>
	<path fill="#3F1031" d="M211.703,156.072c0-3.413-2.766-6.18-6.179-6.179h-59.322c-3.412,0-6.179,2.766-6.179,6.179l0,0
		c0,3.412,2.766,6.179,6.179,6.179h59.322C208.936,162.251,211.703,159.485,211.703,156.072L211.703,156.072z"/>
</g>
<path fill="#2C3553" d="M235.922,207.443c0-4.633-3.756-8.389-8.389-8.389h-80.535c-4.633,0-8.389,3.756-8.389,8.389l0,0
	c0,4.633,3.756,8.389,8.389,8.389h80.535C232.166,215.832,235.922,212.076,235.922,207.443L235.922,207.443z"/>
<g>
	<g>
		<path fill="#544964" d="M238.061,19.207v123.838c0,5.295-4.292,9.587-9.587,9.587H95.049V9.619h133.425
			C233.769,9.619,238.062,13.912,238.061,19.207z"/>
	</g>
</g>
<rect x="198.704" y="104.037" fill="#2C3553" width="28.762" height="77.491"/>
<g id="bolt-bottom">
	<circle fill="#544964" cx="212.495" cy="207.689" r="24.837"/>
	<path fill="#544964" d="M235.848,231.043c12.898-12.897,12.898-33.809,0-46.707c-12.897-12.898-33.809-12.898-46.707,0
		c-12.898,12.897-12.898,33.809,0,46.707C202.039,243.941,222.95,243.94,235.848,231.043z M194.423,189.616
		c9.981-9.981,26.164-9.981,36.145,0s9.981,26.164,0,36.145s-26.164,9.981-36.145,0C184.442,215.78,184.442,199.598,194.423,189.616
		z"/>
	<path fill="#2C3553" d="M233.582,228.776c11.646-11.646,11.646-30.528,0-42.174s-30.528-11.646-42.174,0s-11.646,30.528,0,42.174
		C203.054,240.422,221.936,240.422,233.582,228.776z M196.177,191.371c9.012-9.012,23.624-9.012,32.636,0
		c9.012,9.012,9.012,23.624,0,32.636s-23.624,9.012-32.636,0C187.165,214.995,187.165,200.383,196.177,191.371z"/>
	
		<rect x="211.285" y="182.61" transform="matrix(0.7071 0.7071 -0.7071 0.7071 209.0972 -89.4274)" fill="#2C3553" width="2.424" height="50.159"/>
</g>
<g id="bolt-top">
	<path fill="#544964" d="M210.882,123.628c-11.281,0-21.886-4.393-29.862-12.369c-16.466-16.466-16.466-43.257,0-59.723
		c7.977-7.976,18.581-12.369,29.862-12.369c11.28,0,21.885,4.393,29.861,12.369c16.466,16.466,16.466,43.257,0,59.723
		C232.767,119.235,222.162,123.628,210.882,123.628z"/>
	<path fill="#2C3553" d="M237.919,54.361c-14.932-14.932-39.141-14.932-54.073,0s-14.932,39.141,0,54.073
		c14.932,14.932,39.141,14.932,54.073,0S252.851,69.293,237.919,54.361z M189.96,102.32c-11.187-11.186-11.543-29.101-1.07-40.717
		l41.787,41.787C219.061,113.863,201.146,113.506,189.96,102.32z M232.874,101.192l-41.787-41.787
		c11.616-10.473,29.53-10.117,40.717,1.07C242.991,71.662,243.347,89.577,232.874,101.192z"/>
</g>
<g>
	<path fill="#2C3553" d="M123.324,61.246c0,16.881-20.461,30.57-28.347,30.638c-0.019,0-0.042,0.003-0.061,0.003
		c-7.843,0-22.798-13.719-22.798-30.642s14.955-30.642,22.798-30.642c0.019,0,0.041,0.003,0.061,0.003
		C102.864,30.673,123.324,44.365,123.324,61.246z"/>
	<circle fill="#FFFFFF" cx="89.509" cy="60.591" r="20.997"/>
	<rect x="71.362" y="55.56" fill="#231F20" width="2.463" height="8.26"/>
</g>
</svg>
