<?xml version="1.0" encoding="utf-8"?>
<!-- Generator: Adobe Illustrator 17.0.0, SVG Export Plug-In . SVG Version: 6.00 Build 0)  -->
<!DOCTYPE svg PUBLIC "-//W3C//DTD SVG 1.1//EN" "http://www.w3.org/Graphics/SVG/1.1/DTD/svg11.dtd">
<svg version="1.1" id="Layer_1" xmlns="http://www.w3.org/2000/svg" xmlns:xlink="http://www.w3.org/1999/xlink" x="0px" y="0px"
	 width="295.921px" height="286.504px" viewBox="0 0 295.921 286.504" enable-background="new 0 0 295.921 286.504"
	 xml:space="preserve">
<path fill="#3F1031" d="M27.768,85.573C5.741,71.97,25.658,38.65,48.07,51.61l4.79-8.014c-33.097-19.345-62.593,30-29.883,49.991
	L27.768,85.573z"/>
<ellipse transform="matrix(0.8585 0.5129 -0.5129 0.8585 31.7784 -19.1106)" fill="#3F1031" cx="50.513" cy="48.019" rx="3.791" ry="6.393"/>
<ellipse transform="matrix(0.8585 0.5129 -0.5129 0.8585 49.7076 -0.3585)" fill="#3F1031" cx="25.503" cy="89.878" rx="3.791" ry="6.393"/>
<path fill="#2C3553" d="M0,144.006c0,78.699,63.799,142.498,142.498,142.498c78.7,0,142.498-63.799,142.498-142.498
	c0-78.7-63.799-142.498-142.498-142.498C63.799,1.508,0,65.307,0,144.006"/>
<path fill="#A096A6" d="M142.407,286.504c0.03,0,0.06,0,0.09,0C142.469,286.504,142.436,286.504,142.407,286.504 M195.61,276.277
	c-16.413,6.596-34.34,10.227-53.112,10.227c0,0,0,0,0,0C161.27,286.504,179.198,282.873,195.61,276.277 M267.261,75.106
	c11.302,20.421,17.735,43.909,17.735,68.901c0,0,0,0,0,0C284.996,119.014,278.563,95.526,267.261,75.106 M142.498,1.508
	c-0.03,0-0.06,0-0.091,0C142.436,1.508,142.469,1.508,142.498,1.508 M142.498,1.508L142.498,1.508
	c21.284,0,41.475,4.665,59.613,13.031C183.974,6.173,163.782,1.508,142.498,1.508"/>
<path fill="#3F3E5A" d="M142.498,1.508C142.498,1.508,142.498,1.508,142.498,1.508c-0.029,0-0.062,0-0.091,0
	c-2.998,0.002-5.971,0.108-8.923,0.292c74.498,4.652,133.484,66.535,133.484,142.206s-58.986,137.554-133.484,142.206
	c2.952,0.184,5.925,0.29,8.923,0.292c0.029,0,0.062,0,0.091,0c0,0,0,0,0,0c18.772,0,36.699-3.631,53.112-10.227
	c52.396-21.057,89.386-72.343,89.386-132.271c0-24.992-6.433-48.48-17.735-68.901c-14.662-26.493-37.521-47.823-65.151-60.567
	C183.974,6.173,163.782,1.508,142.498,1.508"/>
<path fill="#2C3553" d="M55.982,144.006c0-69.118,49.212-126.736,114.507-139.742c-9.051-1.803-18.41-2.756-27.991-2.756
	C63.799,1.508,0,65.307,0,144.006s63.799,142.498,142.498,142.498c9.581,0,18.94-0.953,27.991-2.756
	C105.194,270.742,55.982,213.124,55.982,144.006z"/>
<path fill="#544964" d="M23.4,65.757l0.779,0.298c4.888,1.867,10.392,3.627,16.358,5.23c27.297,7.326,63.507,11.362,101.961,11.363
	c25.155,0,49.926-1.771,71.636-5.123c18.558-2.866,34.265-6.725,46.684-11.47l0.779-0.297c-1.755-2.665-3.595-5.269-5.52-7.806
	c-4.233,1.557-8.938,3.036-14.016,4.398c-26.529,7.124-61.88,11.047-99.544,11.047c-24.712,0-48.994-1.734-70.242-5.015
	c-16.917-2.61-31.869-6.214-43.35-10.437C26.998,60.484,25.156,63.09,23.4,65.757z M143.21,82.652h-1.423v174.571h1.423V82.652z"/>
<path fill="#2C3553" d="M25.448,62.731c4.795,1.832,10.151,3.543,16.012,5.118c25.915,6.956,61.609,11.24,101.038,11.242
	c25.874,0,50.143-1.847,71.092-5.081c18.193-2.81,33.873-6.661,45.958-11.278c-0.419-0.603-0.84-1.204-1.268-1.799
	c-4.584,1.729-9.705,3.355-15.297,4.855c-25.659,6.891-61.214,11.17-100.485,11.169c-25.772,0-49.941-1.841-70.766-5.056
	c-17.828-2.751-33.198-6.517-45.012-10.972C26.291,61.524,25.868,62.127,25.448,62.731z"/>
<path fill="#3F1031" d="M92.907,126.851c6.737-12.555,2.531-28.483-9.394-35.575c-11.925-7.093-27.053-2.665-33.79,9.89
	c-6.737,12.555-2.531,28.483,9.394,35.575C71.042,143.833,86.17,139.405,92.907,126.851z"/>
<path fill="#544964" d="M87.803,125.648c5.682-11.379,2.135-25.816-7.923-32.244c-10.058-6.429-22.817-2.415-28.499,8.964
	c-5.682,11.379-2.135,25.816,7.923,32.244C69.362,141.041,82.122,137.027,87.803,125.648z"/>
<path fill="#2C3553" d="M63.371,116.772c1.349-2.702,0.507-6.129-1.881-7.655c-2.388-1.526-5.417-0.573-6.766,2.128
	c-1.349,2.702-0.507,6.129,1.881,7.655C58.993,120.426,62.022,119.473,63.371,116.772z"/>
<path fill="#2C3553" d="M194.661,11.359c-1.106,1.066-2.607,1.725-4.265,1.725H94.6c-1.657,0-3.159-0.659-4.265-1.725
	c16.155-6.358,33.751-9.851,52.163-9.851C160.91,1.508,178.507,5.001,194.661,11.359z"/>
<path fill="#2C3553" d="M93.799,5.542c0,3.061,2.481,5.542,5.542,5.542h86.313c3.061,0,5.542-2.481,5.542-5.542
	c0-3.061-2.481-5.542-5.542-5.542H99.342C96.281,0,93.799,2.481,93.799,5.542z"/>
<path fill="#3F1031" d="M129.527,59.88c7.295,7.295,19.122,7.295,26.416,0c7.295-7.295,7.295-19.122,0-26.416
	c-7.295-7.295-19.122-7.295-26.416,0C122.232,40.758,122.232,52.585,129.527,59.88z M132.514,56.893
	c-5.645-5.645-5.645-14.797,0-20.442c5.645-5.645,14.797-5.645,20.442,0c5.645,5.645,5.645,14.797,0,20.442
	C147.312,62.538,138.159,62.538,132.514,56.893z"/>
<circle fill="#544964" cx="142.498" cy="44.063" r="15.557"/>
<path fill="#2C3553" d="M129.29,57.271c7.295,7.295,19.122,7.295,26.416,0c7.295-7.295,7.295-19.122,0-26.416
	c-7.295-7.295-19.122-7.295-26.416,0C121.995,38.149,121.995,49.976,129.29,57.271z M132.277,54.284
	c-5.645-5.645-5.645-14.797,0-20.442c5.645-5.645,14.797-5.645,20.442,0c5.645,5.645,5.645,14.797,0,20.442
	C147.074,59.929,137.922,59.929,132.277,54.284z"/>
<rect x="141.739" y="28.354" transform="matrix(0.7071 0.7071 -0.7071 0.7071 72.8955 -87.8567)" fill="#2C3553" width="1.518" height="31.418"/>
<circle fill="#2C3553" cx="200.353" cy="41.021" r="24.257"/>
<circle fill="#3F1031" cx="201.47" cy="39.903" r="23.467"/>
<path fill="#2C3553" d="M208.76,32.613c3.254,3.254,6.038,6.78,8.078,10.215c2.53-4.36,1.366-10.686-3.121-15.173
	c-4.486-4.486-10.812-5.65-15.172-3.121C201.978,26.573,205.503,29.357,208.76,32.613z M198.402,42.972
	c5.172,5.172,12.793,5.936,17.023,1.707c0.177-0.177,0.332-0.368,0.492-0.556l-0.113-0.196c-1.994-3.441-4.785-6.998-8.072-10.284
	c-3.289-3.288-6.845-6.079-10.284-8.071l-0.196-0.113c-0.188,0.159-0.379,0.314-0.556,0.491
	C192.465,30.178,193.23,37.8,198.402,42.972z"/>
<circle fill="#3F1031" cx="204.263" cy="37.111" r="23.467"/>
<path fill="#544964" d="M211.552,29.82c3.254,3.254,6.038,6.78,8.078,10.215c2.53-4.36,1.366-10.686-3.121-15.173
	c-4.486-4.486-10.812-5.65-15.172-3.121C204.771,23.781,208.296,26.564,211.552,29.82z M201.195,40.179
	c5.172,5.172,12.793,5.936,17.023,1.707c0.177-0.177,0.332-0.368,0.492-0.556l-0.113-0.196c-1.994-3.441-4.785-6.998-8.072-10.284
	c-3.289-3.288-6.845-6.079-10.284-8.071l-0.196-0.113c-0.188,0.159-0.379,0.314-0.556,0.491
	C195.258,27.385,196.023,35.007,201.195,40.179z"/>
<circle fill="#2C3553" cx="84.643" cy="41.021" r="24.257"/>
<circle fill="#3F1031" cx="83.526" cy="39.903" r="23.467"/>
<path fill="#2C3553" d="M86.451,24.535c-4.36-2.529-10.686-1.365-15.172,3.121c-4.487,4.487-5.65,10.813-3.121,15.173
	c2.041-3.436,4.825-6.962,8.078-10.215C79.493,29.357,83.018,26.573,86.451,24.535z M88.301,25.949
	c-0.177-0.177-0.368-0.332-0.556-0.491l-0.196,0.113c-3.439,1.992-6.996,4.783-10.284,8.071c-3.286,3.286-6.078,6.843-8.072,10.284
	l-0.113,0.196c0.159,0.188,0.315,0.38,0.492,0.556c4.229,4.229,11.851,3.465,17.023-1.707C91.766,37.8,92.531,30.178,88.301,25.949z
	"/>
<circle fill="#3F1031" cx="80.733" cy="37.111" r="23.467"/>
<path fill="#544964" d="M83.658,21.742c-4.36-2.529-10.686-1.365-15.172,3.121c-4.487,4.487-5.65,10.813-3.121,15.173
	c2.041-3.436,4.825-6.962,8.078-10.215C76.7,26.564,80.226,23.781,83.658,21.742z M85.509,23.156
	c-0.177-0.177-0.368-0.332-0.556-0.491l-0.196,0.113c-3.439,1.992-6.996,4.783-10.284,8.071c-3.286,3.286-6.078,6.843-8.072,10.284
	l-0.113,0.196c0.159,0.188,0.315,0.38,0.492,0.556c4.229,4.229,11.851,3.465,17.023-1.707
	C88.974,35.007,89.738,27.385,85.509,23.156z"/>
<path fill="#3F1031" d="M258.38,83.369c22.027-13.604,2.11-46.924-20.302-33.964l-4.79-8.014c33.097-19.345,62.593,30,29.883,49.991
	L258.38,83.369z"/>
<ellipse transform="matrix(-0.8585 0.5129 -0.5129 -0.8585 461.4142 -35.7114)" fill="#3F1031" cx="235.635" cy="45.814" rx="3.791" ry="6.393"/>
<ellipse transform="matrix(-0.8585 0.5129 -0.5129 -0.8585 529.3621 29.2547)" fill="#3F1031" cx="260.644" cy="87.674" rx="3.791" ry="6.393"/>
<path fill="#3F1031" d="M267.094,151.002c25.888-0.276,26.037-39.094,0.152-39.569l0.036-9.336
	c38.332,0.524,38.112,58.012-0.224,58.242L267.094,151.002z"/>
<ellipse transform="matrix(-1 -0.0041 0.0041 -1 533.5796 215.2768)" fill="#3F1031" cx="267.008" cy="107.097" rx="3.791" ry="6.393"/>
<ellipse transform="matrix(-1 -0.0041 0.0041 -1 532.9854 312.798)" fill="#3F1031" cx="266.81" cy="155.858" rx="3.791" ry="6.393"/>
</svg>
