<?xml version="1.0" encoding="utf-8"?>
<!-- Generator: Adobe Illustrator 17.0.0, SVG Export Plug-In . SVG Version: 6.00 Build 0)  -->
<!DOCTYPE svg PUBLIC "-//W3C//DTD SVG 1.1//EN" "http://www.w3.org/Graphics/SVG/1.1/DTD/svg11.dtd">
<svg version="1.1" id="Layer_1" xmlns="http://www.w3.org/2000/svg" xmlns:xlink="http://www.w3.org/1999/xlink" x="0px" y="0px"
	 width="354.426px" height="240.716px" viewBox="0 0 354.426 240.716" enable-background="new 0 0 354.426 240.716"
	 xml:space="preserve">
<rect y="0" fill="#FFFFFF" fill-opacity="0" width="354.426" height="240.716"/>
<g>
	<g>
		<g>
			<g>
				<rect x="42.345" y="121.962" fill="#554A64" width="5.95" height="9.598"/>
			</g>
			<g>
				<rect x="48.296" y="121.962" fill="#3F1131" width="51.963" height="9.598"/>
			</g>
		</g>
		<g>
			<g>
				<rect x="42.345" y="111.05" fill="#554A64" width="5.95" height="9.598"/>
			</g>
			<g>
				<rect x="48.296" y="111.05" fill="#3F1131" width="51.963" height="9.598"/>
			</g>
		</g>
	</g>
	<g>
		<g>
			<rect x="0.001" y="124.483" fill="#554A64" width="4.113" height="6.399"/>
		</g>
		<g>
			<rect x="0.001" y="111.729" fill="#554A64" width="4.113" height="6.399"/>
		</g>
	</g>
	<g>
		<path fill="#2D3653" d="M5.858,134.879h37.226c1.824,0,3.302-1.478,3.302-3.302v-20.545c0-1.824-1.478-3.302-3.302-3.302H5.858
			c-1.824,0-3.302,1.478-3.302,3.302v20.545C2.556,133.401,4.034,134.879,5.858,134.879z"/>
		<g>
			<path fill="#554A64" d="M13.535,126.463c-1.414-0.003-2.559-1.148-2.562-2.562v-5.192c0.003-1.414,1.148-2.559,2.562-2.562
				h21.873c1.414,0.003,2.559,1.148,2.562,2.562v5.192c-0.003,1.414-1.148,2.559-2.562,2.562H13.535v-0.732v-0.732h21.873
				c0.302,0,0.573-0.122,0.775-0.323c0.201-0.203,0.323-0.474,0.323-0.775v-5.192c0-0.302-0.122-0.573-0.323-0.775
				c-0.203-0.201-0.474-0.323-0.775-0.323H13.535c-0.302,0-0.573,0.122-0.775,0.323c-0.201,0.203-0.323,0.474-0.323,0.775v5.192
				c0,0.302,0.122,0.573,0.323,0.775c0.203,0.201,0.474,0.323,0.775,0.323v0.732V126.463z"/>
		</g>
	</g>
</g>
</svg>
