<?xml version="1.0" encoding="utf-8"?>
<!-- Generator: Adobe Illustrator 17.0.0, SVG Export Plug-In . SVG Version: 6.00 Build 0)  -->
<!DOCTYPE svg PUBLIC "-//W3C//DTD SVG 1.1//EN" "http://www.w3.org/Graphics/SVG/1.1/DTD/svg11.dtd">
<svg version="1.1" id="Layer_1" xmlns="http://www.w3.org/2000/svg" xmlns:xlink="http://www.w3.org/1999/xlink" x="0px" y="0px"
	 width="66.054px" height="66.054px" viewBox="0 0 66.054 66.054" enable-background="new 0 0 66.054 66.054" xml:space="preserve">
<g id="bolt-bottom">
	<circle fill="#554A64" cx="33.026" cy="33.026" r="24.837"/>
	<path fill="#554A64" d="M56.381,56.38c12.898-12.898,12.898-33.81,0-46.707c-12.898-12.898-33.81-12.898-46.707,0
		c-12.898,12.898-12.898,33.81,0,46.707S43.482,69.278,56.381,56.38z M51.099,51.098c-9.981,9.981-26.164,9.981-36.145,0
		s-9.981-26.164,0-36.145s26.164-9.981,36.145,0C61.079,24.936,61.079,41.117,51.099,51.098z"/>
	<path fill="#2D3653" d="M54.114,54.113c11.646-11.646,11.646-30.528,0-42.174s-30.528-11.646-42.174,0s-11.646,30.528,0,42.174
		S42.467,65.759,54.114,54.113z M49.344,49.345c-9.012,9.012-23.624,9.012-32.636,0s-9.012-23.624,0-32.636s23.624-9.012,32.636,0
		S58.356,40.332,49.344,49.345z"/>
	
		<rect x="31.812" y="7.947" transform="matrix(-0.7071 0.7071 -0.7071 -0.7071 79.7295 33.0278)" fill="#2D3653" width="2.424" height="50.159"/>
</g>
</svg>
