<?xml version="1.0" encoding="utf-8"?>
<!-- Generator: Adobe Illustrator 17.0.0, SVG Export Plug-In . SVG Version: 6.00 Build 0)  -->
<!DOCTYPE svg PUBLIC "-//W3C//DTD SVG 1.1//EN" "http://www.w3.org/Graphics/SVG/1.1/DTD/svg11.dtd">
<svg version="1.1" id="Layer_1" xmlns="http://www.w3.org/2000/svg" xmlns:xlink="http://www.w3.org/1999/xlink" x="0px" y="0px"
	 width="354.426px" height="240.716px" viewBox="0 0 354.426 240.716" enable-background="new 0 0 354.426 240.716"
	 xml:space="preserve">
<rect x="0" y="0" opacity="0" fill="#FFFFFF" width="354.426" height="240.716"/>
<g>
	<g>
		<path fill="#FFFFFF" d="M314.48,92.716c-0.167,3.998-3.451,7.191-7.49,7.191s-7.324-3.193-7.49-7.191H314.48z"/>
		<path fill="#FFFFFF" d="M299.594,92.716c-0.167,3.998-3.451,7.191-7.49,7.191s-7.324-3.193-7.49-7.191H299.594z"/>
		<path fill="#FFFFFF" d="M284.834,92.716c-0.167,3.998-3.451,7.191-7.49,7.191c-4.039,0-7.323-3.193-7.49-7.191H284.834z"/>
	</g>
	<path fill="#2C3553" d="M314.505,9.619c5.295,0,9.587,4.292,9.587,9.587v64.455c0,5.295-4.292,9.587-9.587,9.587h-55.128V9.619
		H314.505z"/>
</g>
<g>
	<path fill="#3F1031" d="M142.723,6.179c0,3.413,2.767,6.179,6.179,6.179h59.322c3.413,0,6.179-2.767,6.179-6.179l0,0
		c0-3.413-2.767-6.179-6.179-6.179l-59.322,0C145.489,0,142.723,2.767,142.723,6.179L142.723,6.179z"/>
	<path fill="#3F1031" d="M142.723,156.072c0,3.413,2.767,6.179,6.179,6.179h59.322c3.413,0,6.179-2.767,6.179-6.179l0,0
		c0-3.413-2.767-6.179-6.179-6.179h-59.322C145.489,149.892,142.723,152.659,142.723,156.072L142.723,156.072z"/>
</g>
<path fill="#2C3553" d="M118.504,207.443c0,4.633,3.756,8.389,8.389,8.389h80.535c4.633,0,8.389-3.756,8.389-8.389l0,0
	c0-4.633-3.756-8.389-8.389-8.389h-80.535C122.26,199.054,118.504,202.81,118.504,207.443L118.504,207.443z"/>
<g>
	<g>
		<path fill="#544964" d="M125.952,9.619h133.425v143.013H125.952c-5.295,0-9.587-4.292-9.587-9.587V19.207
			C116.364,13.912,120.657,9.619,125.952,9.619z"/>
	</g>
</g>
<rect x="126.96" y="104.037" fill="#2C3553" width="28.762" height="77.491"/>
<g id="bolt-bottom">
	<circle fill="#544964" cx="141.931" cy="207.689" r="24.837"/>
	<path fill="#544964" d="M165.285,231.043c12.898-12.898,12.898-33.81,0-46.707c-12.898-12.898-33.81-12.898-46.707,0
		c-12.898,12.898-12.898,33.81,0,46.707S152.387,243.941,165.285,231.043z M160.003,225.761c-9.981,9.981-26.164,9.981-36.145,0
		c-9.981-9.981-9.981-26.164,0-36.145c9.981-9.981,26.164-9.981,36.145,0C169.984,199.598,169.984,215.78,160.003,225.761z"/>
	<path fill="#2C3553" d="M163.018,228.776c11.646-11.646,11.646-30.528,0-42.174c-11.646-11.646-30.528-11.646-42.174,0
		c-11.646,11.646-11.646,30.528,0,42.174C132.49,240.422,151.372,240.422,163.018,228.776z M158.249,224.007
		c-9.012,9.012-23.624,9.012-32.636,0s-9.012-23.624,0-32.636s23.624-9.012,32.636,0S167.261,214.995,158.249,224.007z"/>
	
		<rect x="140.719" y="182.61" transform="matrix(0.7071 -0.7071 0.7071 0.7071 -105.2877 161.1911)" fill="#2C3553" width="2.424" height="50.159"/>
</g>
<g id="bolt-top">
	<path fill="#544964" d="M113.683,111.259c-16.466-16.466-16.466-43.257,0-59.723c7.976-7.976,18.581-12.369,29.861-12.369
		c11.281,0,21.885,4.393,29.862,12.369c16.466,16.466,16.466,43.257,0,59.723c-7.976,7.976-18.581,12.369-29.862,12.369
		C132.264,123.628,121.659,119.235,113.683,111.259z"/>
	<path fill="#2C3553" d="M116.507,108.434c14.932,14.932,39.141,14.932,54.073,0c14.932-14.932,14.932-39.141,0-54.073
		c-14.932-14.932-39.141-14.932-54.073,0C101.575,69.293,101.575,93.502,116.507,108.434z M123.749,103.39l41.787-41.787
		c10.473,11.616,10.117,29.531-1.07,40.717C153.28,113.506,135.365,113.863,123.749,103.39z M122.622,60.475
		c11.187-11.187,29.101-11.543,40.717-1.07l-41.787,41.787C111.079,89.577,111.435,71.662,122.622,60.475z"/>
</g>
<g>
	<path fill="#2C3553" d="M259.449,30.606c0.02,0,0.042-0.003,0.061-0.003c7.843,0,22.798,13.719,22.798,30.642
		s-14.955,30.642-22.798,30.642c-0.019,0-0.042-0.003-0.061-0.003c-7.886-0.068-28.347-13.757-28.347-30.638
		S251.562,30.673,259.449,30.606z"/>
	<circle fill="#FFFFFF" cx="264.917" cy="60.591" r="20.997"/>
	<rect x="280.601" y="55.56" fill="#231F20" width="2.463" height="8.26"/>
</g>
</svg>
