<?xml version="1.0" encoding="utf-8"?>
<!-- Generator: Adobe Illustrator 17.0.0, SVG Export Plug-In . SVG Version: 6.00 Build 0)  -->
<!DOCTYPE svg PUBLIC "-//W3C//DTD SVG 1.1//EN" "http://www.w3.org/Graphics/SVG/1.1/DTD/svg11.dtd">
<svg version="1.1" id="Layer_1" xmlns="http://www.w3.org/2000/svg" xmlns:xlink="http://www.w3.org/1999/xlink" x="0px" y="0px"
	 width="295.921px" height="286.504px" viewBox="0 0 295.921 286.504" enable-background="new 0 0 295.921 286.504"
	 xml:space="preserve">
<path fill="#3F1031" d="M27.768,200.931c-22.027,13.604-2.11,46.924,20.302,33.964l4.79,8.014
	c-33.097,19.345-62.593-30-29.883-49.991L27.768,200.931z"/>
<ellipse transform="matrix(0.8585 -0.5129 0.5129 0.8585 -115.1677 59.6646)" fill="#3F1031" cx="50.513" cy="238.486" rx="3.791" ry="6.393"/>
<ellipse transform="matrix(0.8585 -0.5129 0.5129 0.8585 -97.2377 40.912)" fill="#3F1031" cx="25.503" cy="196.626" rx="3.791" ry="6.393"/>
<path fill="#2C3553" d="M0,142.498C0,63.799,63.799,0,142.498,0s142.498,63.799,142.498,142.498
	c0,78.7-63.799,142.498-142.498,142.498S0,221.198,0,142.498"/>
<path fill="#A096A6" d="M142.407,284.996c0.03,0,0.061,0,0.091,0C142.469,284.996,142.436,284.996,142.407,284.996 M142.356,284.996
	C142.356,284.996,142.356,284.996,142.356,284.996L142.356,284.996 M270.281,205.636c-0.002,0.004-0.006,0.012-0.008,0.016
	C270.275,205.648,270.279,205.64,270.281,205.636 M284.996,142.498c0,22.547-5.236,43.87-14.559,62.821
	C279.76,186.368,284.996,165.045,284.996,142.498L284.996,142.498 M151.5,0.28c0.26,0.016,0.516,0.033,0.776,0.05
	C152.016,0.313,151.76,0.296,151.5,0.28 M147.961,0.103c0.471,0.018,0.944,0.038,1.414,0.06
	C148.905,0.141,148.432,0.121,147.961,0.103 M142.356,0C142.356,0,142.356,0,142.356,0L142.356,0 M142.498,0
	c-0.03,0-0.061,0-0.091,0C142.436,0,142.469,0,142.498,0L142.498,0L142.498,0"/>
<path fill="#3F3E5A" d="M142.498,0c-0.029,0-0.063,0-0.091,0c-0.017,0-0.034,0-0.05,0h-0.001c-2.981,0.003-5.937,0.109-8.871,0.292
	c74.498,4.652,133.484,66.535,133.484,142.206c0,75.671-58.986,137.554-133.484,142.206c2.935,0.183,5.891,0.289,8.872,0.292h0.001
	c0.017,0,0.034,0,0.051,0c0.029,0,0.062,0,0.091,0l0,0c56.022,0,104.492-32.325,127.774-79.344c0.002-0.004,0.006-0.012,0.008-0.016
	c0.052-0.105,0.105-0.211,0.156-0.316c9.323-18.951,14.559-40.274,14.559-62.821c0-75.414-58.581-137.145-132.721-142.168
	c-0.26-0.018-0.516-0.034-0.776-0.05c-0.705-0.044-1.417-0.083-2.124-0.117c-0.47-0.022-0.943-0.042-1.414-0.06
	C146.148,0.034,144.328,0,142.498,0L142.498,0"/>
<path fill="#2C3553" d="M55.982,142.498c0,69.118,49.212,126.736,114.507,139.742c-9.051,1.803-18.41,2.756-27.991,2.756
	C63.799,284.996,0,221.198,0,142.498S63.799,0,142.498,0c9.581,0,18.94,0.953,27.991,2.756
	C105.194,15.763,55.982,73.38,55.982,142.498z"/>
<path fill="#544964" d="M28.925,228.56c11.481-4.223,26.433-7.827,43.35-10.437c21.248-3.281,45.53-5.015,70.242-5.015
	c37.663,0,73.015,3.923,99.544,11.047c5.078,1.362,9.783,2.841,14.016,4.398c1.925-2.537,3.765-5.14,5.52-7.806l-0.779-0.297
	c-12.42-4.745-28.126-8.604-46.684-11.47c-21.709-3.352-46.48-5.123-71.636-5.123c-38.455,0.001-74.665,4.037-101.961,11.363
	c-5.966,1.603-11.47,3.363-16.358,5.23l-0.779,0.298C25.156,223.415,26.998,226.021,28.925,228.56z M143.21,29.281h-1.423v174.571
	h1.423V29.281z"/>
<path fill="#2C3553" d="M26.72,225.578c11.814-4.455,27.184-8.221,45.012-10.972c20.825-3.215,44.994-5.056,70.766-5.056
	c39.27-0.001,74.826,4.278,100.485,11.169c5.592,1.5,10.713,3.126,15.297,4.855c0.428-0.596,0.849-1.197,1.268-1.799
	c-12.085-4.618-27.765-8.468-45.958-11.278c-20.949-3.234-45.218-5.081-71.092-5.081c-39.429,0.001-75.123,4.286-101.038,11.242
	c-5.861,1.575-11.217,3.285-16.012,5.117C25.868,224.378,26.291,224.98,26.72,225.578z"/>
<path fill="#3F1031" d="M92.907,159.654c6.737,12.555,2.531,28.483-9.394,35.575c-11.925,7.093-27.053,2.665-33.79-9.89
	c-6.737-12.555-2.531-28.483,9.394-35.575C71.042,142.671,86.17,147.099,92.907,159.654z"/>
<path fill="#544964" d="M87.803,160.856c5.682,11.379,2.135,25.816-7.923,32.244c-10.058,6.429-22.817,2.415-28.499-8.964
	c-5.682-11.379-2.135-25.816,7.923-32.244C69.362,145.463,82.122,149.477,87.803,160.856z"/>
<path fill="#2C3553" d="M63.371,169.733c1.349,2.702,0.507,6.129-1.881,7.655c-2.388,1.526-5.417,0.573-6.766-2.128
	c-1.349-2.702-0.507-6.129,1.881-7.655C58.993,166.079,62.022,167.031,63.371,169.733z"/>
<path fill="#2C3553" d="M194.661,275.145c-1.106-1.066-2.607-1.725-4.265-1.725H94.6c-1.657,0-3.159,0.659-4.265,1.725
	c16.155,6.358,33.751,9.851,52.163,9.851C160.91,284.996,178.507,281.503,194.661,275.145z"/>
<path fill="#2C3553" d="M93.799,280.962c0-3.061,2.481-5.542,5.542-5.542h86.313c3.061,0,5.542,2.481,5.542,5.542
	c0,3.061-2.481,5.542-5.542,5.542H99.342C96.281,286.504,93.799,284.023,93.799,280.962z"/>
<path fill="#3F1031" d="M129.527,253.041c7.295,7.295,19.122,7.295,26.416,0c7.295-7.295,7.295-19.122,0-26.416
	c-7.295-7.295-19.122-7.295-26.416,0C122.232,233.919,122.232,245.746,129.527,253.041z M152.957,229.611
	c5.645,5.645,5.645,14.797,0,20.442c-5.645,5.645-14.797,5.645-20.442,0c-5.645-5.645-5.645-14.797,0-20.442
	C138.159,223.966,147.312,223.966,152.957,229.611z"/>
<circle fill="#544964" cx="142.498" cy="242.442" r="15.557"/>
<path fill="#2C3553" d="M129.29,255.65c7.295,7.295,19.122,7.295,26.416,0c7.295-7.295,7.295-19.122,0-26.416
	c-7.295-7.295-19.122-7.295-26.416,0C121.995,236.528,121.995,248.355,129.29,255.65z M152.719,232.221
	c5.645,5.645,5.645,14.797,0,20.442c-5.645,5.645-14.797,5.645-20.442,0c-5.645-5.645-5.645-14.797,0-20.442
	C137.922,226.576,147.074,226.576,152.719,232.221z"/>
<rect x="141.739" y="226.733" transform="matrix(0.7071 -0.7071 0.7071 0.7071 -129.6966 171.7749)" fill="#2C3553" width="1.518" height="31.418"/>
<circle fill="#2C3553" cx="200.353" cy="245.484" r="24.257"/>
<circle fill="#3F1031" cx="201.47" cy="246.601" r="23.467"/>
<path fill="#2C3553" d="M198.546,261.97c4.36,2.529,10.686,1.365,15.172-3.121c4.487-4.487,5.65-10.813,3.121-15.173
	c-2.041,3.436-4.825,6.962-8.078,10.215C205.503,257.147,201.978,259.931,198.546,261.97z M196.695,260.555
	c0.177,0.177,0.368,0.332,0.556,0.491l0.196-0.113c3.439-1.992,6.996-4.783,10.284-8.071c3.286-3.286,6.078-6.843,8.072-10.284
	l0.113-0.196c-0.159-0.188-0.315-0.38-0.492-0.556c-4.229-4.229-11.851-3.465-17.023,1.707
	C193.23,248.705,192.466,256.326,196.695,260.555z"/>
<circle fill="#3F1031" cx="204.263" cy="249.394" r="23.467"/>
<path fill="#544964" d="M201.339,264.763c4.36,2.529,10.686,1.365,15.172-3.121c4.487-4.487,5.65-10.813,3.121-15.173
	c-2.041,3.436-4.825,6.962-8.078,10.215C208.296,259.94,204.771,262.724,201.339,264.763z M199.488,263.348
	c0.177,0.177,0.368,0.332,0.556,0.491l0.196-0.113c3.439-1.992,6.996-4.783,10.284-8.071c3.286-3.286,6.078-6.843,8.072-10.284
	l0.113-0.196c-0.159-0.188-0.315-0.38-0.492-0.556c-4.229-4.229-11.851-3.465-17.023,1.707
	C196.023,251.498,195.258,259.119,199.488,263.348z"/>
<circle fill="#2C3553" cx="84.644" cy="245.484" r="24.257"/>
<circle fill="#3F1031" cx="83.526" cy="246.601" r="23.467"/>
<path fill="#2C3553" d="M76.237,253.891c-3.254-3.254-6.038-6.78-8.078-10.215c-2.53,4.36-1.366,10.686,3.121,15.173
	c4.486,4.486,10.812,5.65,15.172,3.121C83.018,259.931,79.493,257.147,76.237,253.891z M86.595,243.533
	c-5.172-5.172-12.793-5.936-17.023-1.707c-0.177,0.177-0.332,0.368-0.492,0.556l0.113,0.196c1.994,3.441,4.785,6.998,8.072,10.284
	c3.289,3.288,6.845,6.079,10.284,8.071l0.196,0.113c0.188-0.159,0.379-0.314,0.556-0.491
	C92.531,256.326,91.767,248.705,86.595,243.533z"/>
<circle fill="#3F1031" cx="80.733" cy="249.394" r="23.467"/>
<path fill="#544964" d="M73.444,256.684c-3.254-3.254-6.038-6.779-8.078-10.215c-2.53,4.36-1.366,10.686,3.121,15.173
	c4.486,4.486,10.812,5.65,15.172,3.121C80.226,262.724,76.701,259.94,73.444,256.684z M83.802,246.326
	c-5.172-5.172-12.793-5.936-17.023-1.707c-0.177,0.177-0.332,0.368-0.492,0.556l0.113,0.196c1.994,3.441,4.785,6.998,8.072,10.284
	c3.289,3.288,6.845,6.079,10.284,8.071l0.196,0.113c0.188-0.159,0.379-0.314,0.556-0.491
	C89.738,259.119,88.974,251.498,83.802,246.326z"/>
<path fill="#3F1031" d="M258.38,203.136c22.027,13.604,2.11,46.924-20.302,33.964l-4.79,8.014
	c33.097,19.345,62.593-30,29.883-49.991L258.38,203.136z"/>
<ellipse transform="matrix(-0.8585 -0.5129 0.5129 -0.8585 314.4688 568.1668)" fill="#3F1031" cx="235.635" cy="240.69" rx="3.791" ry="6.393"/>
<ellipse transform="matrix(-0.8585 -0.5129 0.5129 -0.8585 382.4165 503.1999)" fill="#3F1031" cx="260.644" cy="198.831" rx="3.791" ry="6.393"/>
<path fill="#3F1031" d="M267.094,135.503c25.887,0.276,26.037,39.094,0.152,39.569l0.036,9.336
	c38.332-0.524,38.112-58.012-0.224-58.242L267.094,135.503z"/>
<ellipse transform="matrix(-1 0.0041 -0.0041 -1 534.7432 357.7297)" fill="#3F1031" cx="267.008" cy="179.408" rx="3.791" ry="6.393"/>
<ellipse transform="matrix(-1 0.0041 -0.0041 -1 534.1491 260.2086)" fill="#3F1031" cx="266.81" cy="130.647" rx="3.791" ry="6.393"/>
</svg>
