<?xml version="1.0" encoding="utf-8"?>
<!-- Generator: Adobe Illustrator 17.0.0, SVG Export Plug-In . SVG Version: 6.00 Build 0)  -->
<!DOCTYPE svg PUBLIC "-//W3C//DTD SVG 1.1//EN" "http://www.w3.org/Graphics/SVG/1.1/DTD/svg11.dtd">
<svg version="1.1" id="Layer_1" xmlns="http://www.w3.org/2000/svg" xmlns:xlink="http://www.w3.org/1999/xlink" x="0px" y="0px"
	 width="354.426px" height="240.716px" viewBox="0 0 354.426 240.716" enable-background="new 0 0 354.426 240.716"
	 xml:space="preserve">
<rect x="0" y="0" opacity="0" fill="#FFFFFF" width="354.426" height="240.716"/>
<g>
	<g>
		<path fill="#FFFFFF" d="M269.854,103.638c0.167-3.998,3.451-7.191,7.49-7.191s7.324,3.193,7.49,7.191H269.854z"/>
		<path fill="#FFFFFF" d="M284.74,103.638c0.167-3.998,3.451-7.191,7.49-7.191s7.324,3.193,7.49,7.191H284.74z"/>
		<path fill="#FFFFFF" d="M299.499,103.638c0.167-3.998,3.451-7.191,7.49-7.191s7.324,3.193,7.49,7.191H299.499z"/>
	</g>
	<path fill="#2D3653" d="M268.757,22.085v71.824c0,5.295,4.292,9.587,9.587,9.587h45.54v39.548c0,5.295-4.292,9.587-9.587,9.587
		h-55.128V22.085H268.757z"/>
</g>
</svg>
