<?xml version="1.0" encoding="utf-8"?>
<!-- Generator: Adobe Illustrator 17.0.0, SVG Export Plug-In . SVG Version: 6.00 Build 0)  -->
<!DOCTYPE svg PUBLIC "-//W3C//DTD SVG 1.1//EN" "http://www.w3.org/Graphics/SVG/1.1/DTD/svg11.dtd">
<svg version="1.1" id="Layer_1" xmlns="http://www.w3.org/2000/svg" xmlns:xlink="http://www.w3.org/1999/xlink" x="0px" y="0px"
	 width="354.426px" height="240.716px" viewBox="0 0 354.426 240.716" enable-background="new 0 0 354.426 240.716"
	 xml:space="preserve">
<rect y="0" fill="#FFFFFF" fill-opacity="0" width="354.426" height="240.716"/>
<g>
	<g>
		<path fill="#FFFFFF" d="M69.592,103.638c0.166-3.998,3.451-7.191,7.49-7.191s7.323,3.193,7.49,7.191H69.592z"/>
		<path fill="#FFFFFF" d="M54.706,103.638c0.166-3.998,3.451-7.191,7.49-7.191s7.323,3.193,7.49,7.191H54.706z"/>
		<path fill="#FFFFFF" d="M39.947,103.638c0.166-3.998,3.451-7.191,7.49-7.191s7.323,3.193,7.49,7.191H39.947z"/>
	</g>
	<path fill="#2D3653" d="M95.257,22.085v130.546H40.129c-5.295,0-9.587-4.292-9.587-9.587v-39.548h45.54
		c5.295,0,9.587-4.292,9.587-9.587V22.085H95.257z"/>
</g>
</svg>
