<?xml version="1.0" encoding="utf-8"?>
<!-- Generator: Adobe Illustrator 17.0.0, SVG Export Plug-In . SVG Version: 6.00 Build 0)  -->
<!DOCTYPE svg PUBLIC "-//W3C//DTD SVG 1.1//EN" "http://www.w3.org/Graphics/SVG/1.1/DTD/svg11.dtd">
<svg version="1.1" id="Layer_1" xmlns="http://www.w3.org/2000/svg" xmlns:xlink="http://www.w3.org/1999/xlink" x="0px" y="0px"
	 width="354.426px" height="240.716px" viewBox="0 0 354.426 240.716" enable-background="new 0 0 354.426 240.716"
	 xml:space="preserve">
<rect fill="#FFFFFF" fill-opacity="0" width="354.426" height="240.716"/>
<g>
	<g>
		<g>
			<g>
				<rect x="306.131" y="121.962" fill="#554A64" width="5.95" height="9.598"/>
			</g>
			<g>
				<rect x="254.167" y="121.962" fill="#3F1131" width="51.963" height="9.598"/>
			</g>
		</g>
		<g>
			<g>
				<rect x="306.131" y="111.05" fill="#554A64" width="5.95" height="9.598"/>
			</g>
			<g>
				<rect x="254.167" y="111.05" fill="#3F1131" width="51.963" height="9.598"/>
			</g>
		</g>
	</g>
	<g>
		<g>
			<rect x="350.312" y="124.483" fill="#554A64" width="4.113" height="6.399"/>
		</g>
		<g>
			<rect x="350.312" y="111.729" fill="#554A64" width="4.113" height="6.399"/>
		</g>
	</g>
	<g>
		<path fill="#2D3653" d="M351.87,131.577v-20.545c0-1.824-1.478-3.302-3.302-3.302h-37.226c-1.824,0-3.302,1.478-3.302,3.302
			v20.545c0,1.824,1.478,3.302,3.302,3.302h37.226C350.392,134.879,351.87,133.401,351.87,131.577z"/>
		<g>
			<path fill="#554A64" d="M340.891,125.731v-0.732c0.301,0,0.572-0.122,0.775-0.323c0.201-0.202,0.323-0.473,0.323-0.775v-5.192
				c0-0.301-0.122-0.572-0.323-0.775c-0.202-0.201-0.473-0.323-0.775-0.323h-21.873c-0.301,0-0.572,0.122-0.775,0.323
				c-0.201,0.202-0.323,0.473-0.323,0.775v5.192c0,0.301,0.122,0.572,0.323,0.775c0.202,0.201,0.473,0.323,0.775,0.323h21.873
				V125.731v0.732h-21.873c-1.414-0.003-2.559-1.148-2.562-2.562v-5.192c0.003-1.414,1.148-2.559,2.562-2.562h21.873
				c1.414,0.003,2.559,1.148,2.562,2.562v5.192c-0.003,1.414-1.148,2.559-2.562,2.562V125.731z"/>
		</g>
	</g>
</g>
</svg>
