<?xml version="1.0" encoding="utf-8"?>
<!-- Generator: Adobe Illustrator 17.0.0, SVG Export Plug-In . SVG Version: 6.00 Build 0)  -->
<!DOCTYPE svg PUBLIC "-//W3C//DTD SVG 1.1//EN" "http://www.w3.org/Graphics/SVG/1.1/DTD/svg11.dtd">
<svg version="1.1" id="Layer_1" xmlns="http://www.w3.org/2000/svg" xmlns:xlink="http://www.w3.org/1999/xlink" x="0px" y="0px"
	 width="1242.266px" height="6px" viewBox="0 0 1242.266 6" enable-background="new 0 0 1242.266 6" xml:space="preserve">
<path fill="#FFFFFF" d="M5.5,0H3C1.343,0,0,1.343,0,3c0,1.657,1.343,3,3,3h2.5c1.657,0,3-1.343,3-3C8.5,1.343,7.157,0,5.5,0"/>
<path fill="#FFFFFF" d="M22.435,0h-4.981c-1.657,0-3,1.343-3,3c0,1.657,1.343,3,3,3h4.981c1.657,0,3-1.343,3-3
	C25.435,1.343,24.092,0,22.435,0 M39.37,0h-4.981c-1.657,0-3,1.343-3,3c0,1.657,1.343,3,3,3h4.981c1.657,0,3-1.343,3-3
	C42.37,1.343,41.027,0,39.37,0 M56.305,0h-4.981c-1.657,0-3,1.343-3,3c0,1.657,1.343,3,3,3h4.981c1.657,0,3-1.343,3-3
	C59.305,1.343,57.961,0,56.305,0 M73.24,0h-4.981c-1.657,0-3,1.343-3,3c0,1.657,1.343,3,3,3h4.981c1.657,0,3-1.343,3-3
	C76.24,1.343,74.896,0,73.24,0 M90.174,0h-4.981c-1.657,0-3,1.343-3,3c0,1.657,1.343,3,3,3h4.981c1.657,0,3-1.343,3-3
	C93.174,1.343,91.831,0,90.174,0 M107.109,0h-4.981c-1.657,0-3,1.343-3,3c0,1.657,1.343,3,3,3h4.981c1.657,0,3-1.343,3-3
	C110.109,1.343,108.766,0,107.109,0 M124.044,0h-4.981c-1.657,0-3,1.343-3,3c0,1.657,1.343,3,3,3h4.981c1.657,0,3-1.343,3-3
	C127.044,1.343,125.701,0,124.044,0 M140.979,0h-4.981c-1.657,0-3,1.343-3,3c0,1.657,1.343,3,3,3h4.981c1.657,0,3-1.343,3-3
	C143.979,1.343,142.636,0,140.979,0 M157.914,0h-4.981c-1.657,0-3,1.343-3,3c0,1.657,1.343,3,3,3h4.981c1.657,0,3-1.343,3-3
	C160.914,1.343,159.571,0,157.914,0 M174.849,0h-4.981c-1.657,0-3,1.343-3,3c0,1.657,1.343,3,3,3h4.981c1.657,0,3-1.343,3-3
	C177.849,1.343,176.506,0,174.849,0 M191.784,0h-4.981c-1.657,0-3,1.343-3,3c0,1.657,1.343,3,3,3h4.981c1.657,0,3-1.343,3-3
	C194.784,1.343,193.441,0,191.784,0 M208.719,0h-4.981c-1.657,0-3,1.343-3,3c0,1.657,1.343,3,3,3h4.981c1.657,0,3-1.343,3-3
	C211.719,1.343,210.375,0,208.719,0 M225.653,0h-4.981c-1.657,0-3,1.343-3,3c0,1.657,1.343,3,3,3h4.981c1.657,0,3-1.343,3-3
	C228.653,1.343,227.31,0,225.653,0 M242.588,0h-4.981c-1.657,0-3,1.343-3,3c0,1.657,1.343,3,3,3h4.981c1.657,0,3-1.343,3-3
	C245.588,1.343,244.245,0,242.588,0 M259.523,0h-4.981c-1.657,0-3,1.343-3,3c0,1.657,1.343,3,3,3h4.981c1.657,0,3-1.343,3-3
	C262.523,1.343,261.18,0,259.523,0 M276.458,0h-4.981c-1.657,0-3,1.343-3,3c0,1.657,1.343,3,3,3h4.981c1.657,0,3-1.343,3-3
	C279.458,1.343,278.115,0,276.458,0 M293.393,0h-4.981c-1.657,0-3,1.343-3,3c0,1.657,1.343,3,3,3h4.981c1.657,0,3-1.343,3-3
	C296.393,1.343,295.05,0,293.393,0 M310.328,0h-4.981c-1.657,0-3,1.343-3,3c0,1.657,1.343,3,3,3h4.981c1.657,0,3-1.343,3-3
	C313.328,1.343,311.985,0,310.328,0 M327.263,0h-4.981c-1.657,0-3,1.343-3,3c0,1.657,1.343,3,3,3h4.981c1.657,0,3-1.343,3-3
	C330.263,1.343,328.919,0,327.263,0 M344.198,0h-4.981c-1.657,0-3,1.343-3,3c0,1.657,1.343,3,3,3h4.981c1.657,0,3-1.343,3-3
	C347.197,1.343,345.854,0,344.198,0 M361.132,0h-4.981c-1.657,0-3,1.343-3,3c0,1.657,1.343,3,3,3h4.981c1.657,0,3-1.343,3-3
	C364.132,1.343,362.789,0,361.132,0 M378.067,0h-4.981c-1.657,0-3,1.343-3,3c0,1.657,1.343,3,3,3h4.981c1.657,0,3-1.343,3-3
	C381.067,1.343,379.724,0,378.067,0 M395.002,0h-4.981c-1.657,0-3,1.343-3,3c0,1.657,1.343,3,3,3h4.981c1.657,0,3-1.343,3-3
	C398.002,1.343,396.659,0,395.002,0 M411.937,0h-4.981c-1.657,0-3,1.343-3,3c0,1.657,1.343,3,3,3h4.981c1.657,0,3-1.343,3-3
	C414.937,1.343,413.594,0,411.937,0 M428.872,0h-4.981c-1.657,0-3,1.343-3,3c0,1.657,1.343,3,3,3h4.981c1.657,0,3-1.343,3-3
	C431.872,1.343,430.528,0,428.872,0 M445.806,0h-4.981c-1.657,0-3,1.343-3,3c0,1.657,1.343,3,3,3h4.981c1.657,0,3-1.343,3-3
	C448.807,1.343,447.463,0,445.806,0 M462.741,0h-4.981c-1.657,0-3,1.343-3,3c0,1.657,1.343,3,3,3h4.981c1.657,0,3-1.343,3-3
	C465.741,1.343,464.398,0,462.741,0 M479.676,0h-4.981c-1.657,0-3,1.343-3,3c0,1.657,1.343,3,3,3h4.981c1.657,0,3-1.343,3-3
	C482.676,1.343,481.333,0,479.676,0 M496.611,0h-4.981c-1.657,0-3,1.343-3,3c0,1.657,1.343,3,3,3h4.981c1.657,0,3-1.343,3-3
	C499.611,1.343,498.268,0,496.611,0 M513.546,0h-4.981c-1.657,0-3,1.343-3,3c0,1.657,1.343,3,3,3h4.981c1.657,0,3-1.343,3-3
	C516.546,1.343,515.203,0,513.546,0 M530.481,0H525.5c-1.657,0-3,1.343-3,3c0,1.657,1.343,3,3,3h4.981c1.657,0,3-1.343,3-3
	C533.481,1.343,532.137,0,530.481,0 M547.415,0h-4.981c-1.657,0-3,1.343-3,3c0,1.657,1.343,3,3,3h4.981c1.657,0,3-1.343,3-3
	C550.416,1.343,549.072,0,547.415,0 M564.35,0h-4.981c-1.657,0-3,1.343-3,3c0,1.657,1.343,3,3,3h4.981c1.657,0,3-1.343,3-3
	C567.35,1.343,566.007,0,564.35,0 M581.285,0h-4.981c-1.657,0-3,1.343-3,3c0,1.657,1.343,3,3,3h4.981c1.657,0,3-1.343,3-3
	C584.285,1.343,582.942,0,581.285,0 M598.22,0h-4.981c-1.657,0-3,1.343-3,3c0,1.657,1.343,3,3,3h4.981c1.657,0,3-1.343,3-3
	C601.22,1.343,599.877,0,598.22,0 M615.155,0h-4.981c-1.657,0-3,1.343-3,3c0,1.657,1.343,3,3,3h4.981c1.657,0,3-1.343,3-3
	C618.155,1.343,616.812,0,615.155,0 M632.09,0h-4.981c-1.657,0-3,1.343-3,3c0,1.657,1.343,3,3,3h4.981c1.657,0,3-1.343,3-3
	C635.09,1.343,633.746,0,632.09,0 M649.024,0h-4.981c-1.657,0-3,1.343-3,3c0,1.657,1.343,3,3,3h4.981c1.657,0,3-1.343,3-3
	C652.024,1.343,650.681,0,649.024,0 M665.959,0h-4.981c-1.657,0-3,1.343-3,3c0,1.657,1.343,3,3,3h4.981c1.657,0,3-1.343,3-3
	C668.959,1.343,667.616,0,665.959,0 M682.894,0h-4.981c-1.657,0-3,1.343-3,3c0,1.657,1.343,3,3,3h4.981c1.657,0,3-1.343,3-3
	C685.894,1.343,684.551,0,682.894,0 M699.829,0h-4.981c-1.657,0-3,1.343-3,3c0,1.657,1.343,3,3,3h4.981c1.657,0,3-1.343,3-3
	C702.829,1.343,701.485,0,699.829,0 M716.763,0h-4.981c-1.657,0-3,1.343-3,3c0,1.657,1.343,3,3,3h4.981c1.657,0,3-1.343,3-3
	C719.763,1.343,718.42,0,716.763,0 M733.698,0h-4.981c-1.657,0-3,1.343-3,3c0,1.657,1.343,3,3,3h4.981c1.657,0,3-1.343,3-3
	C736.698,1.343,735.355,0,733.698,0 M750.633,0h-4.981c-1.657,0-3,1.343-3,3c0,1.657,1.343,3,3,3h4.981c1.657,0,3-1.343,3-3
	C753.633,1.343,752.29,0,750.633,0 M767.568,0h-4.981c-1.657,0-3,1.343-3,3c0,1.657,1.343,3,3,3h4.981c1.657,0,3-1.343,3-3
	C770.568,1.343,769.225,0,767.568,0 M784.502,0h-4.981c-1.657,0-3,1.343-3,3c0,1.657,1.343,3,3,3h4.981c1.657,0,3-1.343,3-3
	C787.502,1.343,786.159,0,784.502,0 M801.437,0h-4.981c-1.657,0-3,1.343-3,3c0,1.657,1.343,3,3,3h4.981c1.657,0,3-1.343,3-3
	C804.437,1.343,803.094,0,801.437,0 M818.372,0h-4.981c-1.657,0-3,1.343-3,3c0,1.657,1.343,3,3,3h4.981c1.657,0,3-1.343,3-3
	C821.372,1.343,820.029,0,818.372,0 M835.307,0h-4.981c-1.657,0-3,1.343-3,3c0,1.657,1.343,3,3,3h4.981c1.657,0,3-1.343,3-3
	C838.307,1.343,836.963,0,835.307,0 M852.241,0h-4.981c-1.657,0-3,1.343-3,3c0,1.657,1.343,3,3,3h4.981c1.657,0,3-1.343,3-3
	C855.242,1.343,853.898,0,852.241,0 M869.176,0h-4.981c-1.657,0-3,1.343-3,3c0,1.657,1.343,3,3,3h4.981c1.657,0,3-1.343,3-3
	C872.176,1.343,870.833,0,869.176,0 M886.111,0h-4.981c-1.657,0-3,1.343-3,3c0,1.657,1.343,3,3,3h4.981c1.657,0,3-1.343,3-3
	C889.111,1.343,887.768,0,886.111,0 M903.046,0h-4.981c-1.657,0-3,1.343-3,3c0,1.657,1.343,3,3,3h4.981c1.657,0,3-1.343,3-3
	C906.046,1.343,904.703,0,903.046,0 M919.981,0H915c-1.657,0-3,1.343-3,3c0,1.657,1.343,3,3,3h4.981c1.657,0,3-1.343,3-3
	C922.98,1.343,921.637,0,919.981,0 M936.915,0h-4.981c-1.657,0-3,1.343-3,3c0,1.657,1.343,3,3,3h4.981c1.657,0,3-1.343,3-3
	C939.915,1.343,938.572,0,936.915,0 M953.85,0h-4.981c-1.657,0-3,1.343-3,3c0,1.657,1.343,3,3,3h4.981c1.657,0,3-1.343,3-3
	C956.85,1.343,955.507,0,953.85,0 M970.785,0h-4.981c-1.657,0-3,1.343-3,3c0,1.657,1.343,3,3,3h4.981c1.657,0,3-1.343,3-3
	C973.785,1.343,972.442,0,970.785,0 M987.719,0h-4.981c-1.657,0-3,1.343-3,3c0,1.657,1.343,3,3,3h4.981c1.657,0,3-1.343,3-3
	C990.72,1.343,989.376,0,987.719,0 M1004.654,0h-4.981c-1.657,0-3,1.343-3,3c0,1.657,1.343,3,3,3h4.981c1.657,0,3-1.343,3-3
	C1007.654,1.343,1006.311,0,1004.654,0 M1021.589,0h-4.981c-1.657,0-3,1.343-3,3c0,1.657,1.343,3,3,3h4.981c1.657,0,3-1.343,3-3
	C1024.589,1.343,1023.246,0,1021.589,0 M1038.524,0h-4.981c-1.657,0-3,1.343-3,3c0,1.657,1.343,3,3,3h4.981c1.657,0,3-1.343,3-3
	C1041.524,1.343,1040.181,0,1038.524,0 M1055.459,0h-4.981c-1.657,0-3,1.343-3,3c0,1.657,1.343,3,3,3h4.981c1.657,0,3-1.343,3-3
	C1058.458,1.343,1057.115,0,1055.459,0 M1072.393,0h-4.981c-1.657,0-3,1.343-3,3c0,1.657,1.343,3,3,3h4.981c1.657,0,3-1.343,3-3
	C1075.393,1.343,1074.05,0,1072.393,0 M1089.328,0h-4.981c-1.657,0-3,1.343-3,3c0,1.657,1.343,3,3,3h4.981c1.657,0,3-1.343,3-3
	C1092.328,1.343,1090.985,0,1089.328,0 M1106.263,0h-4.981c-1.657,0-3,1.343-3,3c0,1.657,1.343,3,3,3h4.981c1.657,0,3-1.343,3-3
	C1109.263,1.343,1107.92,0,1106.263,0 M1123.198,0h-4.981c-1.657,0-3,1.343-3,3c0,1.657,1.343,3,3,3h4.981c1.657,0,3-1.343,3-3
	C1126.198,1.343,1124.854,0,1123.198,0 M1140.132,0h-4.981c-1.657,0-3,1.343-3,3c0,1.657,1.343,3,3,3h4.981c1.657,0,3-1.343,3-3
	C1143.132,1.343,1141.789,0,1140.132,0 M1157.067,0h-4.981c-1.657,0-3,1.343-3,3c0,1.657,1.343,3,3,3h4.981c1.657,0,3-1.343,3-3
	C1160.067,1.343,1158.724,0,1157.067,0 M1174.002,0h-4.981c-1.657,0-3,1.343-3,3c0,1.657,1.343,3,3,3h4.981c1.657,0,3-1.343,3-3
	C1177.002,1.343,1175.659,0,1174.002,0 M1190.937,0h-4.981c-1.657,0-3,1.343-3,3c0,1.657,1.343,3,3,3h4.981c1.657,0,3-1.343,3-3
	C1193.937,1.343,1192.593,0,1190.937,0 M1207.871,0h-4.981c-1.657,0-3,1.343-3,3c0,1.657,1.343,3,3,3h4.981c1.657,0,3-1.343,3-3
	C1210.871,1.343,1209.528,0,1207.871,0 M1224.806,0h-4.981c-1.657,0-3,1.343-3,3c0,1.657,1.343,3,3,3h4.981c1.656,0,3-1.343,3-3
	C1227.806,1.343,1226.463,0,1224.806,0"/>
<path fill="#FFFFFF" d="M1239.266,0h-2.5c-1.657,0-3,1.343-3,3c0,1.657,1.343,3,3,3h2.5c1.657,0,3-1.343,3-3
	C1242.266,1.343,1240.923,0,1239.266,0"/>
</svg>
