<?xml version="1.0" encoding="utf-8"?>
<!-- Generator: Adobe Illustrator 15.0.0, SVG Export Plug-In . SVG Version: 6.00 Build 0)  -->
<!DOCTYPE svg PUBLIC "-//W3C//DTD SVG 1.1//EN" "http://www.w3.org/Graphics/SVG/1.1/DTD/svg11.dtd">
<svg version="1.1" id="Layer_1" xmlns="http://www.w3.org/2000/svg" xmlns:xlink="http://www.w3.org/1999/xlink" x="0px" y="0px"
	 width="208.937px" height="102px" viewBox="0 0 208.937 102" enable-background="new 0 0 208.937 102" xml:space="preserve">
<g>
	
		<linearGradient id="SVGID_1_" gradientUnits="userSpaceOnUse" x1="-851.8481" y1="593.9619" x2="-850.8481" y2="593.9619" gradientTransform="matrix(208.9368 0 0 -208.9368 177982.3594 124151.5859)">
		<stop  offset="0" style="stop-color:#C1D82F"/>
		<stop  offset="0.4389" style="stop-color:#6ABD45"/>
		<stop  offset="0.8219" style="stop-color:#00AC4E"/>
		<stop  offset="1" style="stop-color:#00A651"/>
	</linearGradient>
	<path fill="url(#SVGID_1_)" d="M104.469,0C47.591,0,1.329,45.441,0,102h208.937C207.609,45.441,161.347,0,104.469,0z
		 M26.449,46.208c1.098-1.297,3.039-1.458,4.335-0.36c1.296,1.099,1.458,3.039,0.36,4.335c-1.098,1.298-3.039,1.458-4.335,0.36
		C25.512,49.445,25.351,47.504,26.449,46.208z M32.519,62.295c-1.098,1.297-3.039,1.458-4.335,0.36
		c-1.297-1.099-1.458-3.039-0.36-4.335c1.098-1.297,3.039-1.458,4.335-0.36S33.617,60.999,32.519,62.295z M36.387,34.471
		c1.098-1.297,3.039-1.458,4.335-0.36c1.296,1.098,1.458,3.039,0.36,4.335c-1.098,1.297-3.039,1.458-4.335,0.36
		C35.45,37.707,35.29,35.767,36.387,34.471z M37.978,46.328c1.098-1.297,3.039-1.457,4.335-0.359
		c1.296,1.098,1.458,3.039,0.36,4.335c-1.098,1.297-3.039,1.458-4.335,0.36C37.041,49.565,36.879,47.625,37.978,46.328z
		 M44.692,61.654c-1.098,1.297-3.039,1.458-4.335,0.359c-1.297-1.098-1.458-3.039-0.36-4.335c1.098-1.297,3.039-1.458,4.335-0.359
		C45.628,58.417,45.79,60.358,44.692,61.654z M48.13,34.337c1.098-1.297,3.039-1.458,4.335-0.359
		c1.296,1.098,1.458,3.039,0.36,4.335c-1.098,1.297-3.039,1.458-4.335,0.359C47.193,37.574,47.032,35.633,48.13,34.337z
		 M54.63,49.916c-1.098,1.298-3.039,1.459-4.335,0.36c-1.297-1.098-1.458-3.039-0.36-4.335c1.098-1.297,3.039-1.458,4.335-0.36
		C55.566,46.68,55.729,48.62,54.63,49.916z"/>
	<circle fill="#E7E867" cx="28.797" cy="48.195" r="3.076"/>
	<circle fill="#E7E867" cx="38.735" cy="36.458" r="3.076"/>
	<circle fill="#E7E867" cx="42.345" cy="59.667" r="3.076"/>
	<circle fill="#E7E867" cx="52.283" cy="47.929" r="3.076"/>
	<circle fill="#E7E867" cx="40.325" cy="48.316" r="3.076"/>
	<circle fill="#E7E867" cx="50.478" cy="36.325" r="3.076"/>
	<circle fill="#E7E867" cx="30.172" cy="60.308" r="3.076"/>
</g>
</svg>
