<?xml version="1.0" encoding="utf-8"?>
<!-- Generator: Adobe Illustrator 15.0.0, SVG Export Plug-In . SVG Version: 6.00 Build 0)  -->
<!DOCTYPE svg PUBLIC "-//W3C//DTD SVG 1.0//EN" "http://www.w3.org/TR/2001/REC-SVG-20010904/DTD/svg10.dtd">
<svg version="1.0" id="Layer_1" xmlns="http://www.w3.org/2000/svg" xmlns:xlink="http://www.w3.org/1999/xlink" x="0px" y="0px"
	 width="208.829px" height="100.301px" viewBox="0 0 208.829 100.301" enable-background="new 0 0 208.829 100.301"
	 xml:space="preserve">
<linearGradient id="SVGID_1_" gradientUnits="userSpaceOnUse" x1="0" y1="50.1504" x2="208.8291" y2="50.1504">
	<stop  offset="0" style="stop-color:#C0D440"/>
	<stop  offset="0.2854" style="stop-color:#97C349"/>
	<stop  offset="0.7719" style="stop-color:#4BAC51"/>
	<stop  offset="1" style="stop-color:#00A453"/>
</linearGradient>
<path fill="#ffffff" d="M104.415,0C48.107,0,2.202,44.532,0,100.301h208.829C206.628,44.532,160.723,0,104.415,0z"/><!-- url(#SVGID_1_) -->
<path fill="#E6E671" d="M30.73,45.847c1.297,1.099,1.458,3.039,0.359,4.335c-1.098,1.297-3.039,1.458-4.335,0.36
	c-1.297-1.098-1.458-3.039-0.359-4.335C27.493,44.91,29.435,44.749,30.73,45.847"/>
<path fill="#E6E671" d="M40.668,34.109c1.298,1.098,1.458,3.039,0.36,4.335c-1.098,1.297-3.039,1.458-4.335,0.36
	c-1.297-1.099-1.458-3.039-0.36-4.335C37.432,33.173,39.372,33.012,40.668,34.109"/>
<path fill="#E6E671" d="M44.278,57.318c1.297,1.098,1.458,3.039,0.36,4.335c-1.099,1.297-3.039,1.458-4.335,0.359
	c-1.298-1.098-1.458-3.039-0.36-4.335C41.041,56.381,42.981,56.22,44.278,57.318"/>
<path fill="#E6E671" d="M54.217,45.581c1.297,1.098,1.458,3.038,0.359,4.335c-1.098,1.297-3.039,1.458-4.335,0.359
	c-1.297-1.098-1.458-3.039-0.359-4.335C50.979,44.644,52.92,44.482,54.217,45.581"/>
<path fill="#E6E671" d="M42.259,45.968c1.296,1.098,1.458,3.039,0.359,4.335c-1.098,1.297-3.039,1.458-4.335,0.36
	c-1.297-1.099-1.458-3.039-0.359-4.335C39.021,45.03,40.961,44.87,42.259,45.968"/>
<path fill="#E6E671" d="M52.412,33.977c1.295,1.098,1.457,3.039,0.359,4.335c-1.098,1.297-3.039,1.458-4.335,0.359
	c-1.297-1.098-1.458-3.039-0.36-4.335C49.175,33.039,51.114,32.878,52.412,33.977"/>
<path fill="#E6E671" d="M32.105,57.959c1.297,1.098,1.458,3.039,0.359,4.335c-1.098,1.297-3.039,1.458-4.335,0.36
	c-1.297-1.099-1.458-3.039-0.359-4.335C28.868,57.022,30.81,56.861,32.105,57.959"/>
</svg>
