<?xml version="1.0" encoding="utf-8"?>
<!-- Generator: Adobe Illustrator 15.0.0, SVG Export Plug-In . SVG Version: 6.00 Build 0)  -->
<!DOCTYPE svg PUBLIC "-//W3C//DTD SVG 1.0//EN" "http://www.w3.org/TR/2001/REC-SVG-20010904/DTD/svg10.dtd">
<svg version="1.0" id="Layer_1" xmlns="http://www.w3.org/2000/svg" xmlns:xlink="http://www.w3.org/1999/xlink" x="0px" y="0px"
	 width="208.936px" height="102px" viewBox="0 0 208.936 102" enable-background="new 0 0 208.936 102" xml:space="preserve">
<g>
	
<!-- 		<linearGradient id="SVGID_1_" gradientUnits="userSpaceOnUse" x1="-857.3555" y1="593.9619" x2="-856.3555" y2="593.9619" gradientTransform="matrix(208.9368 0 0 -208.9368 179133 124151.5859)">
		<stop  offset="0" style="stop-color:#C1D82F"/>
		<stop  offset="0.4389" style="stop-color:#6ABD45"/>
		<stop  offset="0.8219" style="stop-color:#00AC4E"/>
		<stop  offset="1" style="stop-color:#00A651"/>
	</linearGradient>
	<path fill="url(#SVGID_1_)" d="M104.468,0C47.59,0,1.327,45.441,0,102h208.936C207.607,45.441,161.345,0,104.468,0z"/> -->
	<path fill="#14923C" d="M104.468,0C47.59,0,1.327,45.441,0,102h208.936C207.607,45.441,161.345,0,104.468,0z"/>
	<path fill="#E7E867" d="M30.783,45.848c1.296,1.099,1.458,3.039,0.36,4.335c-1.099,1.298-3.039,1.458-4.335,0.36
		c-1.298-1.098-1.459-3.039-0.36-4.335C27.546,44.911,29.486,44.75,30.783,45.848"/>
	<path fill="#E7E867" d="M40.722,34.11c1.296,1.098,1.458,3.039,0.359,4.335c-1.098,1.297-3.039,1.458-4.335,0.36
		c-1.297-1.099-1.458-3.039-0.359-4.335C37.484,33.174,39.424,33.013,40.722,34.11"/>
	<path fill="#E7E867" d="M44.331,57.319c1.297,1.098,1.458,3.039,0.36,4.335c-1.099,1.297-3.039,1.458-4.335,0.359
		c-1.298-1.098-1.458-3.039-0.36-4.335C41.094,56.382,43.034,56.221,44.331,57.319"/>
	<path fill="#E7E867" d="M54.27,45.581c1.297,1.099,1.458,3.039,0.359,4.335c-1.098,1.298-3.039,1.459-4.335,0.36
		c-1.297-1.098-1.458-3.039-0.359-4.335C51.032,44.645,52.973,44.483,54.27,45.581"/>
	<path fill="#E7E867" d="M42.312,45.969c1.297,1.098,1.458,3.039,0.359,4.335c-1.098,1.297-3.039,1.458-4.335,0.36
		c-1.297-1.099-1.458-3.039-0.359-4.336C39.074,45.031,41.014,44.871,42.312,45.969"/>
	<path fill="#E7E867" d="M52.465,33.978c1.297,1.098,1.457,3.039,0.359,4.335c-1.098,1.297-3.039,1.458-4.335,0.359
		c-1.297-1.098-1.458-3.039-0.36-4.335C49.228,33.04,51.167,32.879,52.465,33.978"/>
	<path fill="#E7E867" d="M32.158,57.96c1.296,1.098,1.458,3.039,0.36,4.335c-1.099,1.297-3.039,1.458-4.335,0.36
		c-1.298-1.099-1.459-3.039-0.36-4.335C28.921,57.023,30.861,56.862,32.158,57.96"/>
</g>
</svg>
