<?xml version="1.0" encoding="utf-8"?>
<!-- Generator: Adobe Illustrator 15.0.0, SVG Export Plug-In . SVG Version: 6.00 Build 0)  -->
<!DOCTYPE svg PUBLIC "-//W3C//DTD SVG 1.1//EN" "http://www.w3.org/Graphics/SVG/1.1/DTD/svg11.dtd">
<svg version="1.1" id="Layer_1" xmlns="http://www.w3.org/2000/svg" xmlns:xlink="http://www.w3.org/1999/xlink" x="0px" y="0px"
	 width="110.613px" height="54px" viewBox="0 0 110.613 54" enable-background="new 0 0 110.613 54" xml:space="preserve">
<g>
	<defs>
		<path id="SVGID_1_" d="M0,54h110.613C109.909,24.057,85.418,0,55.306,0C25.194,0,0.703,24.057,0,54"/>
	</defs>
	<clipPath id="SVGID_2_">
		<use xlink:href="#SVGID_1_"  overflow="visible"/>
	</clipPath>
	
		<linearGradient id="SVGID_3_" gradientUnits="userSpaceOnUse" x1="-901.1841" y1="571.9238" x2="-900.1841" y2="571.9238" gradientTransform="matrix(110.6136 0 0 -110.6136 99683.2891 63289.5469)">
		<stop  offset="0" style="stop-color:#C1D82F"/>
		<stop  offset="0.4389" style="stop-color:#6ABD45"/>
		<stop  offset="0.8219" style="stop-color:#00AC4E"/>
		<stop  offset="1" style="stop-color:#00A651"/>
	</linearGradient>
	<rect clip-path="url(#SVGID_2_)" fill="url(#SVGID_3_)" width="110.613" height="54"/>
	<path clip-path="url(#SVGID_2_)" fill="#E7E867" d="M21.012,27.753c1.296,1.098,1.458,3.039,0.36,4.335
		c-1.098,1.297-3.039,1.458-4.335,0.36c-1.297-1.099-1.458-3.039-0.36-4.335C17.774,26.815,19.715,26.655,21.012,27.753"/>
	<path clip-path="url(#SVGID_2_)" fill="#E7E867" d="M30.95,16.016c1.296,1.098,1.458,3.039,0.36,4.335
		c-1.098,1.297-3.039,1.458-4.335,0.359c-1.297-1.098-1.458-3.039-0.36-4.335C27.713,15.078,29.653,14.917,30.95,16.016"/>
	<path clip-path="url(#SVGID_2_)" fill="#E7E867" d="M34.56,39.224c1.297,1.099,1.458,3.039,0.36,4.335
		c-1.098,1.297-3.039,1.458-4.335,0.36c-1.297-1.098-1.458-3.039-0.36-4.335C31.323,38.287,33.264,38.126,34.56,39.224"/>
	<path clip-path="url(#SVGID_2_)" fill="#E7E867" d="M44.498,27.486c1.297,1.098,1.458,3.039,0.36,4.335
		c-1.098,1.297-3.039,1.458-4.335,0.36c-1.297-1.099-1.458-3.039-0.36-4.335C41.261,26.55,43.202,26.389,44.498,27.486"/>
	<path clip-path="url(#SVGID_2_)" fill="#E7E867" d="M32.54,27.873c1.296,1.099,1.458,3.039,0.36,4.336
		c-1.098,1.297-3.039,1.457-4.335,0.359c-1.297-1.098-1.458-3.039-0.36-4.335C29.303,26.937,31.243,26.775,32.54,27.873"/>
	<path clip-path="url(#SVGID_2_)" fill="#E7E867" d="M42.693,15.882c1.297,1.099,1.458,3.039,0.36,4.335
		c-1.098,1.297-3.039,1.458-4.335,0.36c-1.297-1.098-1.458-3.039-0.36-4.335C39.456,14.945,41.396,14.784,42.693,15.882"/>
	<path clip-path="url(#SVGID_2_)" fill="#E7E867" d="M22.387,39.865c1.297,1.098,1.458,3.039,0.36,4.335
		c-1.098,1.297-3.039,1.458-4.335,0.359c-1.297-1.098-1.458-3.039-0.36-4.335C19.149,38.928,21.09,38.767,22.387,39.865"/>
</g>
</svg>
