<?xml version="1.0" encoding="utf-8"?>
<!-- Generator: Adobe Illustrator 15.0.0, SVG Export Plug-In . SVG Version: 6.00 Build 0)  -->
<!DOCTYPE svg PUBLIC "-//W3C//DTD SVG 1.0//EN" "http://www.w3.org/TR/2001/REC-SVG-20010904/DTD/svg10.dtd">
<svg version="1.0" id="Layer_1" xmlns="http://www.w3.org/2000/svg" xmlns:xlink="http://www.w3.org/1999/xlink" x="0px" y="0px"
	 width="111.204px" height="148.72px" viewBox="0 0 111.204 148.72" enable-background="new 0 0 111.204 148.72"
	 xml:space="preserve">
<path d="M111.204,127c0,5.33,0,10.66,0,16c-33.221,9.25-77.71,6.33-111-2c-0.93-9.59,1.19-16.15,9-17c0.18-42.27,1.61-79.63,1-124
	c1.33,0,2.67,0,4,0c0,5.33,0,10.66,0,16c23.94-7.27,57.83-3.18,82,1c1.54-4.79,1.86-10.81,2-17c0.67,0,1.33,0,2,0
	c0,40.66,0,81.33,0,122C102.124,125.41,108.054,124.82,111.204,127z M107.204,138c1,0,2,0,3,0c-1.07-3.38,0.29-8.16-2-7
	C108.564,133.199,110.004,136.32,107.204,138z M106.204,140c0-4,0-8,0-12c-1,0-2,0-3,0c-14.08-3.38-33.25-2-57-2
	c-20.17,0-46.64-3.27-42,12C36.754,147.199,78.724,150.35,106.204,140z M97.204,68c0-7.34,0-14.67,0-22c-24.33-5.98-59.37-4.84-84,0
	c0,7.33,0,14.66,0,22C39.154,65.12,71.214,65.27,97.204,68z M97.204,43c0-7.34,0-14.67,0-22c-24.29-4.91-58.04-9.32-83-2
	c0.4,8.4-0.33,15.67-1,23C40.504,35.79,70.084,38.18,97.204,43z M96.204,97c-0.27-8.42,0.39-20.75,0-26
	c-28.359-3.39-55.71-3.58-83,2c0.66,8.01-1.32,18.65,1,25C40.814,94.3,67.834,94.48,96.204,97z M96.204,121c0-7,0-14,0-21
	c-28.2-2.49-57.86-3.16-83,1c0,6.33,0,12.66,0,19C36.234,124.52,74.224,124.76,96.204,121z"/>
<path d="M110.204,138c-1,0-2,0-3,0c2.8-1.68,1.36-4.801,1-7C110.494,129.84,109.134,134.62,110.204,138z"/>
<path fill="#D1D1D1" d="M106.204,128c0,4,0,8,0,12c-27.48,10.35-69.45,7.199-102-2c-4.64-15.27,21.83-12,42-12
	c23.75,0,42.92-1.38,57,2C104.204,128,105.204,128,106.204,128z"/>
<path fill="#B5B5B5" d="M14.204,0c28,0,56,0,84,0c-0.14,6.19-0.46,12.21-2,17c-24.17-4.18-58.06-8.27-82-1
	C14.204,10.66,14.204,5.33,14.204,0z"/>
<path fill="#B2B2B2" d="M97.204,46c0,7.33,0,14.66,0,22c-25.99-2.73-58.05-2.88-84,0c0-7.34,0-14.67,0-22
	C37.834,41.16,72.874,40.02,97.204,46z"/>
<path fill="#BCBCBC" d="M97.204,21c0,7.33,0,14.66,0,22c-27.12-4.82-56.7-7.21-84-1c0.67-7.33,1.4-14.6,1-23
	C39.164,11.68,72.914,16.09,97.204,21z"/>
<path fill="#B2B2B2" d="M96.204,71c0.39,5.25-0.27,17.58,0,26c-28.37-2.52-55.39-2.7-82,1c-2.32-6.35-0.34-16.99-1-25
	C40.494,67.42,67.845,67.61,96.204,71z"/>
<path fill="#AFAFAF" d="M96.204,100c0,7,0,14,0,21c-21.98,3.76-59.97,3.52-83-1c0-6.34,0-12.67,0-19
	C38.344,96.84,68.004,97.51,96.204,100z"/>
</svg>
