<?xml version="1.0" encoding="utf-8"?>
<!-- Generator: Adobe Illustrator 17.0.0, SVG Export Plug-In . SVG Version: 6.00 Build 0)  -->
<!DOCTYPE svg PUBLIC "-//W3C//DTD SVG 1.1//EN" "http://www.w3.org/Graphics/SVG/1.1/DTD/svg11.dtd">
<svg version="1.1" id="Layer_1" xmlns="http://www.w3.org/2000/svg" xmlns:xlink="http://www.w3.org/1999/xlink" x="0px" y="0px"
	 width="1288.557px" height="309.46px" viewBox="0 0 1288.557 309.46" enable-background="new 0 0 1288.557 309.46"
	 xml:space="preserve">
<g>
	<path fill="#9C1C28" d="M1130.057,251.062c-4.174-0.31-7.767-3.614-8.029-7.408c-2.798-40.384-5.675-80.766-8.63-121.146
		c-0.263-3.607,2.596-6.301,6.389-5.995c55.868,8.903,112.122,21.461,168.763,39.493c0.598-0.395-44.073,53.009-44.416,53.488
		c0.299,3.968,40.593,61.385,33.412,60.001c-0.269-0.055-0.533-0.128-0.797-0.2l0.004,0.037
		C1227.789,259.832,1178.89,254.108,1130.057,251.062z"/>
	<path fill="#72171E" d="M1130.057,251.062c-4.174-0.31-7.769-3.616-8.029-7.408c-2.798-40.384-5.675-80.766-8.63-121.146
		c-0.153-2.109,0.762-3.898,2.304-4.966c-1.224,1.403-1.157,3.813,0.812,5.499c17.571,13.719,35.361,27.75,53.369,42.147
		c2.719,30.107,5.395,60.214,8.027,90.32C1161.949,253.715,1145.998,252.246,1130.057,251.062"/>
	<path fill="#CE202B" d="M1150.721,161.377c-294.847-29.541-586.044,49.104-873.59-13.929c-10.227-2.229-19.185-1.269-20.01,2.404
		c-9.022,40.398-18.123,80.775-27.301,121.129c-0.838,3.663,7.167,8.79,17.883,11.182c301.018,67.503,605.686-15.078,914.006,13.656
		c10.982,1.028,19.623-0.942,19.302-4.615c-3.484-40.37-7.045-80.74-10.685-121.112
		C1169.991,166.427,1161.219,162.435,1150.721,161.377"/>
</g>
<g>
	<path fill="#9C1C28" d="M17.647,135.946l0.006-0.038c-0.265,0.022-17.391-6.169-17.653-6.291
		c15.876-6.911,61.12-55.107,60.957-55.397c0.475-4.056-23.09-57.315-22.969-74.216c0.255,0.054,0.501,0.126,0.746,0.197L38.766,0
		c51.301,10.853,102.601,16.476,153.902,18.49c3.777,0.149,6.527,3.218,6.147,6.885c-4.287,41.042-8.574,82.084-12.861,123.126
		c-0.401,3.854-4.083,6.872-8.225,6.707C124.368,153.096,71.008,147.235,17.647,135.946z"/>
	<path fill="#72171E" d="M177.729,155.208c-15.816-0.626-31.633-1.581-47.449-2.91c3.702-30.604,7.404-61.208,11.105-91.812
		c18.301-11.214,36.406-22.876,54.317-34.916c2.012-1.503,2.16-3.966,0.99-5.543c1.495,1.272,2.346,3.204,2.123,5.347
		c-4.287,41.042-8.574,82.084-12.861,123.126C185.553,152.353,181.871,155.372,177.729,155.208z"/>
	<path fill="#A11E22" d="M1058.897,55.796c1.196,30.031,2.285,60.066,3.266,90.106c7.87,7.692,21.944,36.7,11.104,34.274
		c-269.313-57.38-561.418,25.449-832.668,37.507c2.934-9.669,8.128-27.109,8.45-30.843
		c-39.087-35.041-74.834-71.941-111.241-111.284c0.122-1.002,0.863-1.896,2.077-2.67c3.283-2.076,10.062-3.152,17.7-2.644
		c293.758,19.626,587.516-86.994,881.275-25.376C1049.335,47.058,1058.296,52.096,1058.897,55.796z"/>
	<path fill="#CE202B" d="M1057.26,45.631c6.564,40.785,13.129,81.571,19.693,122.356c0.602,3.721-7.719,4.622-18.593,2.346
		c-305.349-64.055-610.698,46.898-916.047,26.311c-9.161-0.615-16.589-3.408-18.427-6.509c-0.346-0.578-0.496-1.179-0.426-1.762
		c4.993-41.033,9.986-82.065,14.979-123.098c0.144-1.179,1.13-2.215,2.735-3.065c3.469-1.801,9.836-2.722,16.97-2.243
		c293.051,19.757,586.101-86.727,879.152-25.252C1047.725,36.899,1056.66,41.931,1057.26,45.631z"/>
</g>
<path fill="#FFFFFF" d="M431.935,235.856c0.287-1.808-0.015-3.12-0.903-3.939c-0.889-0.819-2.185-1.283-3.885-1.398
	c-1.02-0.069-1.981-0.08-2.882-0.035c-0.903,0.045-1.757,0.121-2.566,0.226c-0.807,0.105-1.576,0.218-2.309,0.339
	c-0.73,0.12-1.427,0.232-2.087,0.335c-0.542,0.088-1.017,0.119-1.427,0.087c-0.747-0.058-1.384-0.339-1.909-0.85
	c-0.525-0.509-0.718-1.172-0.583-1.991c0.131-0.794,0.461-1.477,0.992-2.044c0.529-0.57,1.199-1.044,2.008-1.43
	c0.808-0.386,1.722-0.685,2.742-0.903c1.019-0.218,2.081-0.375,3.184-0.47c1.102-0.094,2.224-0.139,3.369-0.135
	c1.142,0.004,2.235,0.04,3.275,0.11c2.173,0.145,4.124,0.503,5.863,1.079c1.738,0.577,3.173,1.441,4.306,2.595
	c1.133,1.154,1.932,2.622,2.399,4.408c0.464,1.785,0.501,3.951,0.105,6.491c-0.67,4.306-1.341,8.612-2.013,12.918
	c-0.131,0.84-0.315,1.643-0.549,2.413c-0.237,0.768-0.571,1.443-1.008,2.026c-0.438,0.584-1.006,1.034-1.701,1.353
	c-0.698,0.318-1.571,0.446-2.624,0.383c-1.646-0.1-2.784-0.688-3.409-1.759c-0.628-1.073-0.788-2.555-0.486-4.449
	c-0.769,1.059-1.645,1.959-2.63,2.699c-0.983,0.741-2.033,1.33-3.142,1.765c-1.11,0.437-2.264,0.739-3.459,0.905
	c-1.195,0.164-2.388,0.205-3.576,0.119c-1.601-0.116-3.05-0.449-4.351-0.993c-1.299-0.545-2.378-1.26-3.239-2.146
	c-0.86-0.884-1.476-1.914-1.846-3.088c-0.372-1.174-0.439-2.46-0.205-3.857c0.327-1.956,1.039-3.597,2.138-4.926
	c1.097-1.329,2.542-2.369,4.337-3.124c1.794-0.754,3.909-1.249,6.351-1.484c2.44-0.238,5.183-0.253,8.227-0.052
	c1.091,0.072,2.182,0.143,3.273,0.213C431.788,236.782,431.861,236.319,431.935,235.856z M430.915,242.053
	c-1.541-0.141-3.081-0.221-4.619-0.239c-1.54-0.016-2.941,0.121-4.209,0.413c-1.266,0.292-2.332,0.775-3.19,1.454
	c-0.861,0.676-1.39,1.641-1.595,2.887c-0.113,0.689-0.079,1.322,0.103,1.902c0.182,0.58,0.485,1.09,0.91,1.535
	c0.422,0.445,0.954,0.798,1.592,1.061c0.638,0.262,1.368,0.423,2.192,0.48c1.05,0.072,2.043-0.039,2.979-0.335
	c0.935-0.296,1.779-0.764,2.525-1.399c0.748-0.636,1.383-1.432,1.904-2.386c0.522-0.958,0.883-2.07,1.085-3.34
	C430.699,243.409,430.807,242.731,430.915,242.053z"/>
<path fill="#FFFFFF" d="M454.892,225.673c0.587-2.218,1.173-4.436,1.758-6.654c0.165-0.641,0.382-1.283,0.648-1.92
	c0.266-0.64,0.627-1.219,1.079-1.74c0.454-0.521,1.022-0.933,1.703-1.239c0.682-0.305,1.531-0.436,2.544-0.391
	c1.488,0.066,2.49,0.608,3.01,1.628c0.52,1.018,0.633,2.508,0.344,4.468c-0.31,2.102-0.621,4.203-0.932,6.305
	c1.268,0.052,2.537,0.103,3.806,0.152c1.155,0.044,2.054,0.354,2.701,0.932c0.644,0.574,0.881,1.456,0.709,2.642
	c-0.16,1.099-0.666,1.909-1.517,2.429c-0.853,0.523-1.938,0.757-3.254,0.706c-1.146-0.045-2.293-0.091-3.439-0.138
	c-0.604,4.072-1.208,8.145-1.813,12.217c-0.193,1.292-0.333,2.392-0.421,3.299c-0.088,0.908-0.05,1.653,0.117,2.233
	c0.167,0.58,0.482,1.006,0.948,1.275c0.466,0.267,1.167,0.42,2.105,0.458c0.661,0.025,1.303,0.076,1.924,0.155
	c0.619,0.079,1.155,0.234,1.603,0.466c0.449,0.234,0.784,0.567,1.008,0.996c0.226,0.432,0.284,1.013,0.177,1.746
	c-0.119,0.818-0.433,1.47-0.939,1.949c-0.509,0.48-1.189,0.839-2.04,1.079c-0.855,0.239-1.853,0.383-3,0.434
	c-1.15,0.054-2.42,0.051-3.819-0.009c-1.598-0.089-3.025-0.378-4.276-0.869c-1.251-0.491-2.282-1.226-3.088-2.21
	c-0.808-0.981-1.353-2.233-1.641-3.755c-0.283-1.523-0.262-3.373,0.069-5.548c0.732-4.803,1.462-9.606,2.192-14.409
	c-0.522-0.025-1.044-0.051-1.566-0.077c-1.224-0.062-2.205-0.388-2.937-0.98c-0.73-0.592-1.003-1.502-0.815-2.73
	c0.149-0.968,0.592-1.732,1.329-2.291c0.736-0.558,1.761-0.804,3.074-0.739C453.126,225.586,454.009,225.63,454.892,225.673z"/>
<path fill="#FFFFFF" d="M508.334,254.969c-0.094,0.713-0.326,1.375-0.693,1.986c-0.369,0.611-0.83,1.14-1.382,1.586
	c-0.555,0.446-1.175,0.799-1.864,1.061c-0.688,0.259-1.411,0.383-2.168,0.372c-0.758-0.013-1.443-0.159-2.061-0.439
	c-0.615-0.281-1.133-0.653-1.553-1.114c-0.419-0.462-0.723-1.003-0.915-1.624c-0.191-0.619-0.238-1.284-0.141-1.997
	c1.608-11.775,3.21-23.551,4.805-35.327c0.143-1.056,0.435-1.993,0.873-2.806c0.438-0.813,0.971-1.496,1.6-2.048
	c0.629-0.55,1.335-0.965,2.119-1.245c0.784-0.279,1.604-0.411,2.461-0.399c0.724,0.011,1.41,0.155,2.064,0.433
	c0.652,0.28,1.264,0.649,1.836,1.11c0.573,0.461,1.113,1.002,1.62,1.623c0.506,0.622,0.985,1.282,1.439,1.977
	c5.541,8.699,11.139,17.364,16.792,25.995c1.076-8.62,2.149-17.241,3.218-25.861c0.088-0.712,0.306-1.377,0.654-1.991
	c0.346-0.616,0.785-1.15,1.316-1.603c0.53-0.454,1.136-0.816,1.812-1.089c0.676-0.27,1.387-0.406,2.133-0.408
	c0.744-0.002,1.423,0.131,2.035,0.396c0.609,0.267,1.125,0.627,1.546,1.078c0.418,0.45,0.734,0.982,0.943,1.596
	c0.208,0.614,0.269,1.277,0.184,1.989c-1.323,10.984-2.652,21.968-3.987,32.953c-0.144,1.187-0.35,2.325-0.62,3.417
	c-0.27,1.09-0.674,2.046-1.209,2.868c-0.536,0.824-1.236,1.483-2.099,1.982c-0.865,0.5-1.962,0.752-3.291,0.754
	c-0.713,0.002-1.39-0.126-2.035-0.384c-0.644-0.26-1.254-0.616-1.828-1.068c-0.574-0.453-1.12-0.987-1.637-1.602
	c-0.52-0.616-1.018-1.281-1.501-1.994c-5.722-8.75-11.386-17.534-16.993-26.354C510.651,237.518,509.494,246.244,508.334,254.969z"
	/>
<path fill="#FFFFFF" d="M552.802,236.644c0.421-3.561,1.317-6.856,2.682-9.888c1.365-3.032,3.182-5.648,5.451-7.853
	c2.266-2.204,4.985-3.943,8.154-5.221c3.17-1.278,6.785-1.955,10.852-2.037c3.957-0.081,7.383,0.434,10.29,1.545
	c2.905,1.112,5.266,2.722,7.081,4.837c1.814,2.111,3.091,4.661,3.829,7.652c0.736,2.991,0.919,6.32,0.545,9.989
	c-0.369,3.604-1.222,6.933-2.562,9.981c-1.342,3.052-3.157,5.692-5.448,7.918c-2.291,2.225-5.041,3.982-8.249,5.267
	c-3.208,1.283-6.846,1.969-10.915,2.05c-3.973,0.079-7.43-0.443-10.362-1.56c-2.93-1.118-5.315-2.74-7.147-4.861
	c-1.834-2.123-3.103-4.692-3.809-7.703C552.49,243.75,552.359,240.378,552.802,236.644z M566.093,236.479
	c-0.61,5.353-0.173,9.381,1.325,12.081c1.497,2.701,4.174,4.017,8.023,3.94c3.781-0.076,6.749-1.5,8.897-4.263
	c2.145-2.763,3.504-6.832,4.076-12.207c0.275-2.591,0.298-4.889,0.07-6.895c-0.229-2.007-0.723-3.691-1.484-5.051
	c-0.76-1.359-1.799-2.385-3.115-3.077c-1.317-0.692-2.937-1.017-4.864-0.978c-1.902,0.039-3.591,0.432-5.066,1.18
	c-1.475,0.748-2.745,1.821-3.808,3.216c-1.062,1.398-1.931,3.107-2.604,5.132C566.872,231.582,566.388,233.888,566.093,236.479z"/>
<path fill="#FFFFFF" d="M621.159,252.115c-0.085,0.886-0.329,1.716-0.736,2.494c-0.406,0.779-0.931,1.464-1.572,2.057
	c-0.64,0.594-1.362,1.066-2.164,1.417c-0.803,0.352-1.65,0.543-2.548,0.574c-0.897,0.031-1.714-0.102-2.452-0.401
	c-0.738-0.297-1.368-0.722-1.885-1.275c-0.517-0.551-0.905-1.206-1.16-1.962c-0.255-0.754-0.339-1.574-0.251-2.46
	c1.157-11.588,2.309-23.176,3.453-34.763c0.099-0.992,0.393-1.868,0.885-2.627c0.492-0.757,1.114-1.396,1.864-1.916
	c0.751-0.518,1.609-0.92,2.571-1.201c0.964-0.279,1.967-0.438,3.007-0.475c4.539-0.161,9.079-0.332,13.62-0.512
	c2.513-0.1,4.911-0.043,7.194,0.172c2.281,0.218,4.263,0.719,5.946,1.504c1.681,0.786,2.985,1.922,3.909,3.405
	c0.924,1.485,1.284,3.455,1.073,5.915c-0.115,1.337-0.418,2.613-0.907,3.826c-0.49,1.216-1.209,2.323-2.159,3.32
	c-0.948,0.998-2.155,1.869-3.617,2.609c-1.462,0.741-3.225,1.315-5.285,1.724l-0.012,0.13c1.445,0.111,2.672,0.312,3.683,0.602
	c1.008,0.289,1.853,0.693,2.538,1.211c0.682,0.517,1.217,1.154,1.608,1.911c0.389,0.756,0.688,1.656,0.894,2.699
	c0.205,1.043,0.342,2.236,0.408,3.576c0.065,1.34,0.107,2.858,0.121,4.555c0.004,0.472-0.002,0.928-0.016,1.369
	c-0.015,0.442-0.043,0.878-0.08,1.309c-0.08,0.929-0.246,1.784-0.496,2.567c-0.253,0.787-0.632,1.47-1.139,2.051
	c-0.511,0.582-1.179,1.045-2.013,1.394c-0.833,0.35-1.883,0.552-3.149,0.607c-1.15,0.05-2.09-0.158-2.814-0.622
	c-0.726-0.463-1.303-1.115-1.731-1.957c-0.428-0.842-0.723-1.824-0.884-2.945c-0.163-1.122-0.263-2.327-0.306-3.616
	c-0.06-1.866-0.153-3.425-0.279-4.677c-0.126-1.251-0.416-2.255-0.872-3.011c-0.457-0.755-1.154-1.275-2.095-1.56
	c-0.944-0.282-2.26-0.391-3.951-0.325c-2.32,0.091-4.639,0.179-6.958,0.264C621.99,243.42,621.575,247.767,621.159,252.115z
	 M628.383,231.364c1.233-0.047,2.469-0.164,3.713-0.355c1.245-0.188,2.381-0.522,3.414-1.006c1.032-0.483,1.893-1.163,2.585-2.043
	c0.693-0.876,1.101-2.026,1.229-3.451c0.147-1.639-0.038-2.855-0.556-3.653c-0.519-0.792-1.246-1.377-2.184-1.746
	c-0.941-0.37-2.047-0.578-3.319-0.625c-1.274-0.046-2.603-0.043-3.988,0.011c-1.714,0.066-3.428,0.131-5.141,0.194
	c-0.406,4.294-0.814,8.587-1.222,12.881C624.736,231.503,626.56,231.434,628.383,231.364z"/>
<path fill="#FFFFFF" d="M661.665,218.388c-0.657,0.031-1.273-0.053-1.846-0.251c-0.573-0.199-1.065-0.482-1.474-0.85
	c-0.41-0.367-0.725-0.804-0.943-1.31c-0.217-0.504-0.301-1.05-0.252-1.631c0.048-0.583,0.225-1.143,0.529-1.683
	c0.305-0.541,0.695-1.017,1.169-1.425c0.474-0.409,1.015-0.74,1.624-0.994c0.608-0.254,1.242-0.397,1.897-0.427
	c10.346-0.49,20.696-1.018,31.052-1.573c0.658-0.035,1.274,0.045,1.847,0.238c0.574,0.194,1.069,0.474,1.482,0.838
	c0.415,0.363,0.735,0.803,0.961,1.316c0.224,0.512,0.315,1.06,0.274,1.642c-0.041,0.581-0.209,1.138-0.507,1.669
	c-0.299,0.532-0.683,1.004-1.155,1.416c-0.469,0.412-1.009,0.746-1.616,1.005c-0.607,0.258-1.242,0.405-1.902,0.44
	c-3.048,0.163-6.096,0.324-9.144,0.483c-0.802,10.701-1.61,21.403-2.422,32.105c-0.068,0.885-0.296,1.717-0.688,2.499
	c-0.391,0.783-0.903,1.475-1.535,2.077c-0.629,0.602-1.344,1.085-2.139,1.447c-0.798,0.364-1.645,0.568-2.543,0.614
	c-0.897,0.045-1.719-0.074-2.466-0.359c-0.745-0.284-1.384-0.697-1.912-1.24c-0.532-0.542-0.933-1.188-1.205-1.938
	c-0.271-0.747-0.371-1.563-0.3-2.448c0.858-10.705,1.71-21.41,2.558-32.114C667.893,218.09,664.779,218.241,661.665,218.388z"/>
<path fill="#FFFFFF" d="M733.941,212.232c0.052-0.882,0.271-1.717,0.655-2.499c0.386-0.786,0.879-1.478,1.479-2.082
	c0.601-0.605,1.294-1.091,2.071-1.458c0.779-0.367,1.612-0.577,2.496-0.629c0.888-0.052,1.701,0.06,2.445,0.338
	c0.744,0.277,1.391,0.684,1.938,1.22c0.548,0.536,0.967,1.177,1.254,1.921c0.288,0.743,0.411,1.557,0.363,2.438
	c-0.618,11.436-1.243,22.873-1.874,34.311c-0.049,0.883-0.26,1.716-0.639,2.499c-0.376,0.786-0.873,1.479-1.493,2.084
	c-0.618,0.606-1.325,1.093-2.117,1.462c-0.791,0.37-1.635,0.581-2.538,0.635c-0.899,0.053-1.726-0.058-2.479-0.337
	c-0.753-0.277-1.402-0.683-1.945-1.219c-0.54-0.536-0.959-1.176-1.247-1.922c-0.287-0.743-0.405-1.556-0.353-2.439
	c0.252-4.445,0.503-8.889,0.754-13.334c-5.901,0.347-11.799,0.69-17.697,1.027c-0.288,4.447-0.577,8.895-0.867,13.343
	c-0.058,0.884-0.279,1.717-0.662,2.5c-0.386,0.785-0.889,1.478-1.515,2.083c-0.626,0.606-1.333,1.09-2.127,1.457
	c-0.794,0.368-1.64,0.577-2.539,0.627c-0.899,0.051-1.724-0.064-2.474-0.345c-0.753-0.279-1.394-0.688-1.93-1.228
	c-0.537-0.537-0.946-1.18-1.227-1.927c-0.28-0.745-0.391-1.559-0.329-2.443c0.795-11.451,1.583-22.902,2.366-34.352
	c0.06-0.883,0.281-1.717,0.663-2.499c0.381-0.784,0.875-1.475,1.482-2.079c0.606-0.602,1.298-1.086,2.083-1.451
	c0.781-0.365,1.615-0.573,2.5-0.622c0.884-0.049,1.696,0.066,2.437,0.346c0.738,0.28,1.379,0.689,1.921,1.226
	c0.544,0.538,0.952,1.179,1.234,1.926c0.281,0.744,0.394,1.559,0.336,2.442c-0.252,3.931-0.504,7.861-0.758,11.792
	c5.88-0.335,11.762-0.677,17.644-1.023C733.483,220.09,733.712,216.161,733.941,212.232z"/>
<path fill="#FFFFFF" d="M761.141,251.076c-1.178,0.072-2.153-0.095-2.925-0.498c-0.774-0.404-1.386-0.951-1.833-1.643
	c-0.448-0.691-0.751-1.483-0.911-2.373c-0.16-0.89-0.219-1.788-0.171-2.692c0.53-10.25,1.054-20.5,1.574-30.749
	c0.062-1.226,0.2-2.365,0.411-3.417c0.212-1.052,0.61-1.972,1.194-2.758c0.584-0.786,1.409-1.425,2.474-1.918
	c1.069-0.492,2.487-0.792,4.259-0.898c7.296-0.437,14.593-0.876,21.894-1.311c0.661-0.04,1.276,0.037,1.847,0.226
	c0.574,0.191,1.066,0.462,1.484,0.813c0.417,0.35,0.74,0.775,0.972,1.276c0.23,0.5,0.333,1.042,0.31,1.623
	c-0.022,0.579-0.17,1.129-0.439,1.648c-0.272,0.52-0.63,0.981-1.077,1.383c-0.45,0.402-0.968,0.727-1.559,0.978
	c-0.591,0.25-1.214,0.393-1.878,0.434c-5.872,0.351-11.743,0.704-17.612,1.056c-0.163,3.483-0.326,6.966-0.49,10.45
	c5.376-0.324,10.753-0.648,16.131-0.971c0.663-0.04,1.283,0.031,1.857,0.211c0.576,0.18,1.073,0.449,1.492,0.81
	c0.419,0.361,0.747,0.786,0.977,1.275c0.231,0.491,0.336,1.025,0.313,1.604c-0.025,0.58-0.173,1.133-0.444,1.653
	c-0.271,0.519-0.635,0.98-1.085,1.382c-0.453,0.402-0.973,0.728-1.569,0.978c-0.594,0.252-1.223,0.396-1.889,0.436
	c-5.393,0.324-10.785,0.65-16.176,0.976c-0.178,3.763-0.356,7.526-0.535,11.289c6.217-0.376,12.435-0.753,18.655-1.128
	c0.621-0.037,1.198,0.037,1.732,0.217c0.532,0.182,0.998,0.454,1.398,0.816c0.398,0.363,0.706,0.789,0.916,1.28
	c0.208,0.49,0.304,1.026,0.281,1.607c-0.025,0.578-0.162,1.129-0.411,1.647c-0.25,0.52-0.593,0.98-1.024,1.38
	c-0.431,0.401-0.923,0.726-1.474,0.975c-0.553,0.248-1.14,0.39-1.764,0.427C777.741,250.069,769.44,250.574,761.141,251.076z"/>
<path fill="#FFFFFF" d="M842.166,236.561c0.153,0.376,0.317,0.768,0.491,1.177c0.174,0.409,0.338,0.822,0.49,1.242
	c0.15,0.421,0.275,0.826,0.369,1.216c0.094,0.393,0.139,0.746,0.131,1.069c-0.018,0.794-0.189,1.504-0.516,2.133
	c-0.325,0.628-0.759,1.166-1.301,1.614c-0.543,0.446-1.169,0.802-1.878,1.066c-0.712,0.264-1.462,0.419-2.248,0.464
	c-0.902,0.05-1.675-0.024-2.316-0.225c-0.639-0.2-1.211-0.543-1.703-1.027c-0.494-0.487-0.947-1.131-1.352-1.933
	c-0.405-0.801-0.835-1.79-1.288-2.964c-0.517-1.331-1.034-2.662-1.549-3.993c-6.522,0.37-13.042,0.749-19.56,1.133
	c-0.518,1.391-1.037,2.782-1.556,4.173c-0.457,1.249-0.915,2.305-1.37,3.166c-0.456,0.865-0.953,1.564-1.491,2.099
	c-0.538,0.535-1.146,0.935-1.823,1.2c-0.68,0.265-1.47,0.426-2.372,0.48c-0.785,0.047-1.526-0.022-2.221-0.206
	c-0.697-0.184-1.302-0.469-1.819-0.855c-0.515-0.387-0.917-0.878-1.206-1.471c-0.285-0.594-0.416-1.287-0.386-2.083
	c0.013-0.323,0.078-0.684,0.197-1.089c0.119-0.404,0.268-0.825,0.446-1.265c0.176-0.438,0.367-0.872,0.566-1.303
	c0.198-0.43,0.388-0.844,0.564-1.237c3.393-7.994,6.759-15.983,10.099-23.969c0.942-2.242,1.835-4.227,2.678-5.959
	c0.843-1.733,1.755-3.204,2.737-4.419c0.986-1.214,2.098-2.15,3.347-2.813c1.246-0.661,2.747-1.042,4.499-1.142
	c1.64-0.093,3.033,0.057,4.181,0.453c1.149,0.395,2.177,1.096,3.081,2.107c0.906,1.009,1.758,2.36,2.556,4.049
	c0.8,1.692,1.68,3.774,2.646,6.247C836.229,221.317,839.187,228.939,842.166,236.561z M820.469,209.633
	c-2.716,7.044-5.451,14.091-8.206,21.141c5.103-0.299,10.206-0.594,15.311-0.884c-2.327-6.755-4.638-13.511-6.934-20.267
	L820.469,209.633z"/>
<path fill="#FFFFFF" d="M862.389,210.755c-0.015,1.028,0.337,1.878,1.059,2.547c0.722,0.67,1.67,1.231,2.843,1.687
	c1.173,0.454,2.503,0.838,3.987,1.151c1.487,0.311,2.983,0.634,4.492,0.968c2.423,0.565,4.628,1.189,6.603,1.867
	c1.981,0.678,3.672,1.52,5.078,2.524c1.406,1.006,2.487,2.224,3.249,3.656c0.761,1.432,1.134,3.175,1.121,5.229
	c-0.016,2.246-0.508,4.291-1.481,6.132c-0.972,1.842-2.366,3.437-4.182,4.784c-1.819,1.347-4.011,2.419-6.576,3.218
	c-2.568,0.797-5.448,1.275-8.644,1.434c-1.645,0.083-3.3,0.075-4.965-0.02c-1.664-0.098-3.267-0.278-4.813-0.538
	c-1.543-0.263-2.994-0.604-4.35-1.025c-1.358-0.42-2.536-0.914-3.541-1.482c-1.006-0.567-1.789-1.205-2.35-1.915
	c-0.563-0.708-0.835-1.48-0.818-2.315c0.011-0.537,0.143-1.068,0.396-1.595c0.253-0.529,0.574-1.011,0.963-1.449
	c0.389-0.439,0.823-0.798,1.3-1.082c0.477-0.282,0.949-0.435,1.407-0.46c0.417-0.022,0.818,0.021,1.208,0.127
	c0.389,0.11,0.784,0.245,1.185,0.404c0.399,0.16,0.81,0.337,1.234,0.529c0.422,0.192,0.873,0.362,1.355,0.507
	c1.579,0.581,3.359,1.088,5.335,1.522c1.976,0.435,4.054,0.596,6.223,0.488c1.179-0.059,2.294-0.217,3.349-0.472
	c1.053-0.255,1.98-0.611,2.781-1.067c0.803-0.456,1.438-1.028,1.906-1.714c0.468-0.686,0.709-1.498,0.718-2.441
	c0.009-0.707-0.124-1.332-0.392-1.875c-0.272-0.545-0.646-1.014-1.127-1.407c-0.477-0.395-1.037-0.731-1.677-1.01
	c-0.642-0.279-1.32-0.519-2.028-0.719c-0.516-0.146-1.031-0.293-1.547-0.439c-0.297-0.07-0.586-0.148-0.857-0.23
	c-0.276-0.083-0.575-0.158-0.896-0.229c-0.596-0.13-1.191-0.261-1.787-0.391c-0.39-0.066-0.724-0.13-0.997-0.191
	c-0.277-0.062-0.522-0.123-0.739-0.189c-0.217-0.063-0.429-0.128-0.635-0.193c-0.206-0.063-0.445-0.133-0.72-0.205
	c-1.075-0.298-2.15-0.596-3.225-0.893c-2.081-0.6-3.86-1.247-5.339-1.94c-1.48-0.694-2.679-1.498-3.6-2.412
	c-0.924-0.916-1.594-1.977-2.018-3.186c-0.422-1.208-0.615-2.628-0.584-4.257c0.044-2.143,0.553-4.108,1.536-5.896
	c0.981-1.785,2.365-3.335,4.155-4.648c1.79-1.314,3.946-2.368,6.477-3.159c2.528-0.792,5.362-1.267,8.508-1.42
	c1.138-0.055,2.38-0.046,3.722,0.028c1.343,0.076,2.685,0.22,4.028,0.436c1.342,0.215,2.634,0.512,3.872,0.894
	c1.239,0.382,2.336,0.845,3.289,1.391c0.956,0.545,1.721,1.179,2.297,1.901c0.576,0.723,0.863,1.545,0.857,2.466
	c-0.003,0.534-0.113,1.032-0.334,1.491c-0.221,0.458-0.517,0.857-0.884,1.196c-0.37,0.335-0.799,0.608-1.293,0.812
	c-0.493,0.204-1.002,0.318-1.529,0.343c-0.686,0.031-1.317-0.079-1.884-0.331c-1.07-0.464-2.068-0.856-2.991-1.177
	c-0.922-0.32-1.837-0.576-2.75-0.768c-0.912-0.192-1.854-0.318-2.823-0.38c-0.97-0.059-2.037-0.061-3.204-0.004
	c-1.098,0.054-2.176,0.198-3.243,0.433c-1.066,0.235-2.017,0.573-2.857,1.011c-0.841,0.438-1.523,0.982-2.047,1.627
	C862.673,209.081,862.403,209.854,862.389,210.755z"/>
<path fill="#FFFFFF" d="M899.183,205.342c-0.663,0.028-1.29-0.058-1.885-0.257c-0.594-0.2-1.113-0.482-1.557-0.848
	c-0.445-0.365-0.796-0.8-1.057-1.303c-0.26-0.501-0.389-1.041-0.385-1.619c0.002-0.578,0.135-1.134,0.401-1.669
	c0.265-0.536,0.622-1.008,1.068-1.411c0.446-0.404,0.966-0.732,1.561-0.981c0.596-0.25,1.222-0.388,1.882-0.416
	c10.414-0.436,20.833-0.826,31.257-1.16c0.661-0.021,1.293,0.071,1.887,0.276c0.595,0.205,1.118,0.494,1.567,0.865
	c0.448,0.37,0.805,0.814,1.074,1.33c0.265,0.514,0.405,1.06,0.409,1.637c0.004,0.576-0.122,1.125-0.381,1.645
	c-0.259,0.522-0.61,0.983-1.053,1.38c-0.443,0.398-0.962,0.718-1.555,0.962c-0.595,0.243-1.223,0.375-1.888,0.397
	c-3.068,0.099-6.136,0.203-9.204,0.311c0.042,10.613,0.079,21.226,0.111,31.84c0.004,0.877-0.163,1.701-0.495,2.471
	c-0.333,0.773-0.794,1.451-1.386,2.04c-0.586,0.59-1.273,1.058-2.047,1.408c-0.776,0.351-1.617,0.543-2.52,0.578
	c-0.904,0.035-1.745-0.093-2.522-0.384c-0.776-0.29-1.453-0.706-2.03-1.25c-0.58-0.543-1.037-1.188-1.372-1.935
	c-0.334-0.744-0.501-1.555-0.5-2.432c0.013-10.619,0.022-21.238,0.025-31.856C905.452,205.083,902.317,205.211,899.183,205.342z"/>
<path fill="#FFFFFF" d="M948.1,241.723c-1.184,0.031-2.175-0.164-2.981-0.591c-0.805-0.425-1.456-0.988-1.949-1.691
	c-0.494-0.701-0.849-1.498-1.067-2.389c-0.217-0.89-0.33-1.784-0.339-2.682c-0.099-10.178-0.203-20.355-0.312-30.531
	c-0.012-1.218,0.056-2.347,0.204-3.386c0.148-1.04,0.495-1.942,1.036-2.704c0.538-0.763,1.333-1.372,2.377-1.827
	c1.046-0.456,2.46-0.706,4.241-0.75c7.333-0.184,14.668-0.338,22.006-0.456c0.664-0.011,1.289,0.092,1.877,0.306
	c0.589,0.216,1.104,0.507,1.547,0.874c0.442,0.368,0.793,0.804,1.059,1.312c0.263,0.508,0.4,1.051,0.413,1.628
	c0.013,0.575-0.101,1.116-0.341,1.619c-0.241,0.505-0.577,0.949-1.001,1.327c-0.43,0.381-0.932,0.682-1.512,0.904
	c-0.581,0.223-1.2,0.34-1.868,0.35c-5.902,0.097-11.802,0.216-17.702,0.356c0.051,3.458,0.102,6.916,0.151,10.375
	c5.403-0.13,10.807-0.242,16.213-0.336c0.666-0.013,1.297,0.084,1.886,0.287c0.591,0.204,1.109,0.493,1.555,0.87
	c0.441,0.378,0.8,0.814,1.064,1.311c0.263,0.498,0.404,1.035,0.415,1.61c0.012,0.575-0.106,1.117-0.346,1.623
	c-0.243,0.505-0.581,0.947-1.009,1.327c-0.431,0.38-0.939,0.682-1.523,0.905c-0.583,0.225-1.21,0.341-1.879,0.354
	c-5.42,0.096-10.84,0.21-16.257,0.342c0.053,3.736,0.106,7.472,0.158,11.208c6.248-0.154,12.497-0.285,18.748-0.391
	c0.626-0.011,1.211,0.087,1.76,0.289c0.549,0.205,1.036,0.496,1.46,0.873c0.427,0.379,0.761,0.815,1.004,1.314
	c0.239,0.499,0.368,1.034,0.381,1.611c0.011,0.574-0.092,1.116-0.312,1.621c-0.221,0.504-0.539,0.947-0.949,1.326
	c-0.409,0.381-0.886,0.682-1.427,0.905c-0.541,0.222-1.126,0.338-1.753,0.35C964.783,241.307,956.44,241.495,948.1,241.723z"/>
<path fill="#FFFFFF" d="M998.902,234.63c0.026,0.875-0.12,1.689-0.435,2.447c-0.315,0.761-0.761,1.422-1.337,1.991
	c-0.574,0.57-1.251,1.016-2.019,1.341c-0.77,0.327-1.607,0.493-2.513,0.501c-0.907,0.008-1.751-0.145-2.538-0.458
	c-0.786-0.312-1.476-0.745-2.071-1.305c-0.594-0.559-1.069-1.214-1.424-1.969c-0.354-0.752-0.541-1.565-0.562-2.439
	c-0.278-11.45-0.564-22.9-0.854-34.349c-0.025-0.98,0.163-1.841,0.568-2.58c0.405-0.739,0.956-1.357,1.651-1.854
	c0.697-0.496,1.516-0.871,2.458-1.126c0.943-0.25,1.939-0.381,2.991-0.387c4.587-0.029,9.174-0.042,13.762-0.039
	c2.54,0.002,4.981,0.163,7.328,0.481c2.342,0.321,4.421,0.914,6.227,1.777c1.806,0.866,3.273,2.061,4.398,3.582
	c1.126,1.522,1.736,3.497,1.833,5.924c0.052,1.32-0.095,2.568-0.442,3.746c-0.346,1.179-0.935,2.237-1.777,3.176
	c-0.839,0.939-1.954,1.739-3.348,2.399c-1.392,0.661-3.11,1.145-5.153,1.457l0.005,0.128c1.481,0.175,2.752,0.434,3.816,0.769
	c1.06,0.337,1.97,0.779,2.73,1.327c0.757,0.547,1.384,1.208,1.873,1.978c0.489,0.77,0.906,1.679,1.247,2.723
	c0.34,1.046,0.625,2.235,0.862,3.568c0.236,1.334,0.467,2.84,0.695,4.524c0.063,0.468,0.115,0.919,0.155,1.357
	c0.038,0.438,0.068,0.869,0.084,1.294c0.034,0.917-0.026,1.756-0.183,2.52c-0.158,0.766-0.459,1.422-0.901,1.973
	c-0.445,0.549-1.068,0.975-1.869,1.278c-0.801,0.304-1.844,0.451-3.123,0.444c-1.163-0.007-2.14-0.256-2.935-0.748
	c-0.793-0.493-1.464-1.166-2.004-2.02c-0.539-0.854-0.962-1.84-1.266-2.958c-0.307-1.119-0.56-2.318-0.765-3.598
	c-0.294-1.852-0.582-3.402-0.869-4.649c-0.284-1.246-0.704-2.253-1.262-3.021c-0.557-0.767-1.331-1.311-2.323-1.633
	c-0.993-0.318-2.343-0.479-4.05-0.476c-2.344,0.004-4.687,0.011-7.03,0.023C998.656,226.042,998.78,230.336,998.902,234.63z
	 M1003.633,214.313c1.245-0.003,2.487-0.072,3.725-0.212c1.24-0.138,2.352-0.424,3.339-0.859c0.99-0.436,1.777-1.072,2.372-1.912
	c0.591-0.839,0.865-1.96,0.815-3.366c-0.056-1.619-0.397-2.834-1.023-3.646c-0.626-0.81-1.439-1.42-2.438-1.825
	c-1.001-0.408-2.148-0.659-3.448-0.757c-1.3-0.096-2.647-0.143-4.047-0.141c-1.732,0.003-3.463,0.008-5.195,0.015
	c0.125,4.241,0.25,8.482,0.374,12.722C999.949,214.323,1001.791,214.317,1003.633,214.313z"/>
<path fill="#FFFFFF" d="M1047.534,236.19c0.031,0.703-0.085,1.353-0.348,1.954c-0.262,0.601-0.636,1.12-1.115,1.558
	c-0.481,0.435-1.047,0.781-1.698,1.036c-0.651,0.254-1.362,0.374-2.129,0.361c-0.769-0.012-1.486-0.157-2.162-0.434
	c-0.672-0.277-1.261-0.643-1.77-1.096c-0.507-0.455-0.912-0.987-1.216-1.597c-0.305-0.611-0.469-1.267-0.497-1.97
	c-0.478-11.619-0.961-23.239-1.451-34.857c-0.044-1.042,0.081-1.967,0.38-2.77c0.297-0.802,0.715-1.476,1.254-2.021
	c0.538-0.542,1.177-0.952,1.921-1.225c0.744-0.273,1.55-0.401,2.419-0.384c0.735,0.014,1.456,0.162,2.167,0.44
	c0.709,0.281,1.397,0.653,2.057,1.114c0.663,0.46,1.306,1,1.931,1.62c0.625,0.619,1.228,1.277,1.811,1.97
	c7.168,8.669,14.392,17.374,21.673,26.118c-0.45-8.492-0.903-16.983-1.359-25.475c-0.037-0.701,0.065-1.351,0.308-1.946
	c0.24-0.597,0.593-1.109,1.049-1.536c0.457-0.428,1.005-0.763,1.644-1.005c0.638-0.238,1.336-0.343,2.092-0.314
	c0.757,0.031,1.47,0.193,2.138,0.483c0.668,0.294,1.257,0.674,1.763,1.141c0.507,0.466,0.92,1.008,1.243,1.627
	c0.321,0.618,0.503,1.279,0.543,1.98c0.621,10.815,1.235,21.631,1.845,32.447c0.067,1.168,0.061,2.285-0.019,3.354
	c-0.079,1.066-0.317,1.994-0.714,2.784c-0.398,0.791-0.991,1.412-1.777,1.868c-0.787,0.457-1.858,0.66-3.207,0.609
	c-0.724-0.028-1.431-0.181-2.134-0.461c-0.699-0.281-1.382-0.657-2.044-1.123c-0.664-0.47-1.314-1.017-1.949-1.643
	c-0.638-0.627-1.263-1.299-1.88-2.02c-7.369-8.838-14.681-17.636-21.935-26.399C1046.761,218.98,1047.149,227.585,1047.534,236.19z"
	/>
<path fill="#FFFFFF" d="M1100.535,235.029c0.882,0.048,1.701,0.198,2.459,0.452c0.756,0.255,1.413,0.582,1.973,0.986
	c0.557,0.401,1.005,0.856,1.339,1.363c0.333,0.505,0.518,1.034,0.554,1.587c0.038,0.592-0.078,1.132-0.349,1.613
	c-0.269,0.481-0.669,0.886-1.193,1.215c-0.525,0.331-1.153,0.576-1.885,0.737c-0.732,0.161-1.531,0.217-2.392,0.17
	c-0.932-0.051-1.775-0.2-2.535-0.452c-0.757-0.252-1.416-0.572-1.974-0.961c-0.557-0.388-0.995-0.839-1.317-1.353
	c-0.321-0.512-0.5-1.058-0.533-1.631c-0.033-0.531,0.077-1.034,0.326-1.508c0.249-0.473,0.626-0.884,1.125-1.23
	c0.501-0.344,1.123-0.609,1.864-0.793C1098.736,235.042,1099.581,234.978,1100.535,235.029z M1100.258,230.601
	c-0.883-0.048-1.647-0.269-2.296-0.665c-0.65-0.392-1.199-0.919-1.657-1.579c-0.457-0.659-0.816-1.43-1.075-2.31
	c-0.262-0.881-0.449-1.834-0.557-2.856c-0.839-7.506-1.678-15.013-2.517-22.519c-0.029-0.109-0.053-0.289-0.069-0.545
	c-0.042-0.7,0.092-1.314,0.402-1.837c0.311-0.523,0.743-0.962,1.29-1.313c0.549-0.351,1.195-0.608,1.941-0.769
	c0.743-0.162,1.517-0.218,2.318-0.173c0.803,0.045,1.59,0.19,2.36,0.436c0.769,0.245,1.454,0.577,2.052,0.992
	c0.598,0.416,1.088,0.905,1.468,1.468c0.38,0.562,0.592,1.195,0.638,1.894c0.017,0.256,0.018,0.436,0.002,0.541
	c0.112,7.461,0.218,14.923,0.32,22.385c0.021,1.017-0.047,1.955-0.198,2.814c-0.153,0.857-0.406,1.594-0.76,2.209
	c-0.353,0.616-0.831,1.086-1.434,1.41C1101.882,230.51,1101.14,230.648,1100.258,230.601z"/>
<path fill="#A09F9F" d="M282.09,140.434c0.94-0.036,1.697,0.052,2.27,0.266c0.573,0.215,0.998,0.558,1.275,1.03
	c0.278,0.473,0.444,1.07,0.498,1.787c0.055,0.72,0.046,1.553-0.024,2.501c-0.251,3.365-0.502,6.731-0.753,10.096
	c-0.131,1.762-0.37,3.253-0.714,4.472c-0.345,1.218-0.9,2.248-1.665,3.089c-0.766,0.841-1.804,1.53-3.117,2.063
	c-1.313,0.534-3,0.984-5.065,1.348c-0.886,0.167-1.833,0.339-2.84,0.518c-1.009,0.18-2.034,0.342-3.076,0.487
	c-1.043,0.144-2.071,0.27-3.086,0.379c-1.017,0.109-1.961,0.174-2.836,0.198c-4.28,0.115-8.098-0.314-11.449-1.276
	c-3.353-0.962-6.151-2.488-8.394-4.57c-2.243-2.081-3.869-4.741-4.876-7.971c-1.007-3.231-1.312-7.051-0.918-11.457
	c0.317-3.547,1.163-6.889,2.536-10.028c1.372-3.139,3.283-5.888,5.731-8.254c2.448-2.366,5.453-4.253,9.018-5.672
	c3.565-1.419,7.702-2.184,12.418-2.31c1.533-0.041,3.046-0.012,4.544,0.09c1.496,0.102,2.935,0.253,4.317,0.456
	c1.381,0.203,2.7,0.462,3.953,0.778c1.255,0.316,2.403,0.667,3.449,1.056c1.046,0.39,1.803,0.94,2.277,1.652
	c0.471,0.714,0.676,1.499,0.612,2.357c-0.106,1.402-0.64,2.481-1.608,3.239c-0.967,0.758-2.124,1.163-3.469,1.212
	c-0.672,0.025-1.552-0.073-2.636-0.294c-1.084-0.221-2.245-0.475-3.48-0.762c-1.235-0.286-2.497-0.539-3.784-0.759
	c-1.288-0.22-2.471-0.316-3.552-0.286c-2.641,0.073-4.935,0.53-6.887,1.375c-1.952,0.846-3.591,2.036-4.921,3.573
	c-1.329,1.538-2.362,3.396-3.101,5.575c-0.738,2.178-1.224,4.623-1.454,7.334c-0.256,3.005-0.226,5.548,0.093,7.629
	c0.318,2.081,0.968,3.767,1.947,5.056c0.98,1.288,2.3,2.209,3.961,2.757c1.661,0.549,3.691,0.794,6.092,0.73
	c1.455-0.039,2.92-0.12,4.393-0.243c1.474-0.123,2.914-0.365,4.321-0.726c0.29-3.693,0.58-7.386,0.87-11.08
	c-1.619,0.052-3.239,0.102-4.858,0.15c-0.75,0.022-1.433-0.021-2.051-0.128c-0.619-0.106-1.151-0.295-1.6-0.565
	c-0.448-0.269-0.786-0.632-1.014-1.088c-0.228-0.457-0.315-1.024-0.259-1.701c0.084-1.039,0.522-1.896,1.311-2.571
	c0.789-0.674,1.943-1.032,3.462-1.076c2.387-0.069,4.738-0.135,7.051-0.202C277.315,140.604,279.679,140.525,282.09,140.434z"/>
<path fill="#A09F9F" d="M309.034,159c-0.062,0.925-0.297,1.799-0.703,2.619c-0.406,0.821-0.939,1.548-1.6,2.179
	c-0.66,0.631-1.409,1.138-2.246,1.519c-0.838,0.382-1.73,0.597-2.678,0.645c-0.948,0.048-1.817-0.077-2.608-0.376
	c-0.79-0.299-1.468-0.733-2.033-1.302c-0.564-0.569-0.995-1.247-1.29-2.032c-0.295-0.784-0.408-1.64-0.343-2.566
	c0.867-12.127,1.734-24.254,2.601-36.382c0.075-1.039,0.361-1.959,0.86-2.758c0.499-0.801,1.138-1.478,1.918-2.034
	c0.778-0.555,1.675-0.986,2.687-1.297c1.012-0.309,2.069-0.492,3.171-0.549c4.802-0.249,9.604-0.517,14.405-0.804
	c2.658-0.159,5.198-0.153,7.621,0.018c2.422,0.172,4.534,0.645,6.338,1.423c1.803,0.777,3.215,1.928,4.236,3.452
	c1.02,1.526,1.458,3.573,1.307,6.146c-0.082,1.399-0.365,2.739-0.847,4.02c-0.483,1.281-1.212,2.456-2.187,3.523
	c-0.975,1.067-2.225,2.006-3.751,2.817c-1.527,0.81-3.374,1.455-5.541,1.932l-0.008,0.135c1.532,0.082,2.837,0.26,3.913,0.537
	c1.078,0.276,1.983,0.676,2.722,1.199c0.738,0.523,1.325,1.173,1.759,1.954c0.435,0.779,0.777,1.71,1.026,2.794
	c0.249,1.084,0.428,2.324,0.539,3.721c0.11,1.398,0.198,2.982,0.263,4.751c0.019,0.494,0.027,0.972,0.025,1.431
	c-0.004,0.461-0.018,0.917-0.044,1.369c-0.057,0.97-0.207,1.868-0.449,2.694c-0.242,0.826-0.623,1.549-1.144,2.17
	c-0.521,0.621-1.216,1.124-2.086,1.508c-0.871,0.386-1.974,0.623-3.31,0.712c-1.216,0.081-2.214-0.111-2.997-0.577
	c-0.783-0.465-1.412-1.134-1.891-2.002c-0.478-0.869-0.819-1.887-1.024-3.055c-0.205-1.166-0.351-2.422-0.434-3.766
	c-0.12-1.948-0.264-3.574-0.435-4.879c-0.172-1.304-0.509-2.345-1.014-3.125c-0.504-0.778-1.259-1.304-2.264-1.58
	c-1.006-0.276-2.402-0.36-4.189-0.255c-2.452,0.144-4.904,0.283-7.356,0.417C309.648,149.9,309.341,154.45,309.034,159z
	 M316.053,137.18c1.301-0.075,2.608-0.225,3.919-0.449c1.311-0.225,2.506-0.601,3.583-1.129c1.077-0.526,1.969-1.257,2.675-2.19
	c0.707-0.933,1.106-2.144,1.199-3.634c0.108-1.716-0.125-2.982-0.695-3.801c-0.572-0.818-1.359-1.409-2.364-1.774
	c-1.006-0.365-2.183-0.558-3.533-0.579c-1.349-0.021-2.758,0.012-4.221,0.096c-1.812,0.104-3.624,0.206-5.437,0.305
	c-0.303,4.493-0.607,8.986-0.91,13.479C312.197,137.4,314.125,137.291,316.053,137.18z"/>
<path fill="#A09F9F" d="M394.006,148.964c0.152,0.39,0.316,0.796,0.492,1.217c0.175,0.421,0.337,0.849,0.489,1.283
	c0.152,0.436,0.273,0.856,0.364,1.263c0.092,0.407,0.13,0.779,0.116,1.117c-0.035,0.833-0.229,1.587-0.584,2.26
	c-0.354,0.673-0.821,1.255-1.398,1.747c-0.578,0.49-1.242,0.889-1.993,1.194c-0.752,0.305-1.541,0.496-2.367,0.571
	c-0.948,0.087-1.758,0.036-2.426-0.15c-0.67-0.185-1.26-0.526-1.77-1.018c-0.511-0.494-0.97-1.154-1.38-1.982
	c-0.411-0.827-0.842-1.849-1.293-3.067c-0.517-1.38-1.033-2.76-1.548-4.14c-6.855,0.604-13.711,1.181-20.567,1.728
	c-0.572,1.472-1.144,2.944-1.717,4.415c-0.504,1.32-1.005,2.437-1.501,3.353c-0.495,0.915-1.031,1.659-1.606,2.231
	c-0.575,0.573-1.222,1.005-1.939,1.296c-0.718,0.291-1.55,0.473-2.499,0.545c-0.826,0.063-1.604,0.003-2.332-0.178
	c-0.728-0.181-1.36-0.471-1.893-0.869c-0.534-0.399-0.947-0.909-1.238-1.527c-0.292-0.619-0.414-1.346-0.366-2.18
	c0.019-0.339,0.096-0.719,0.228-1.145c0.134-0.426,0.297-0.87,0.492-1.335c0.194-0.463,0.402-0.922,0.62-1.376
	c0.219-0.455,0.424-0.891,0.617-1.31c3.72-8.442,7.417-16.89,11.089-25.343c1.037-2.372,2.016-4.477,2.937-6.313
	c0.921-1.836,1.911-3.404,2.969-4.702c1.057-1.298,2.249-2.309,3.574-3.037c1.324-0.726,2.909-1.165,4.753-1.32
	c1.724-0.145,3.185-0.029,4.384,0.351c1.198,0.38,2.262,1.084,3.193,2.115c0.93,1.03,1.796,2.42,2.601,4.166
	c0.804,1.748,1.686,3.904,2.648,6.467C388.083,133.189,391.032,141.08,394.006,148.964z M371.768,121.433
	c-2.999,7.472-6.016,14.94-9.05,22.406c5.367-0.433,10.733-0.885,16.1-1.353c-2.307-7.017-4.597-14.04-6.87-21.068L371.768,121.433z
	"/>
<path fill="#A09F9F" d="M409.541,157.679c-1.312,0.129-2.392-0.013-3.234-0.425c-0.844-0.411-1.506-0.999-1.983-1.76
	c-0.479-0.762-0.794-1.646-0.948-2.653c-0.154-1.006-0.209-2.051-0.167-3.132c0.418-10.589,0.836-21.177,1.254-31.766
	c0.059-1.509,0.267-2.832,0.622-3.966c0.355-1.134,0.907-2.084,1.652-2.852c0.746-0.768,1.706-1.378,2.881-1.83
	c1.175-0.45,2.612-0.759,4.312-0.928c2.97-0.294,5.94-0.592,8.91-0.893c9.794-0.995,17.118,0.248,21.998,3.776
	c4.878,3.527,7.226,9.499,7.016,17.936c-0.103,4.117-0.881,7.769-2.339,10.955c-1.458,3.187-3.481,5.912-6.071,8.175
	c-2.591,2.263-5.687,4.068-9.288,5.412c-3.6,1.342-7.578,2.237-11.929,2.681C418,156.841,413.771,157.264,409.541,157.679z
	 M416.482,149.451c1.661-0.166,3.322-0.334,4.984-0.503c2.764-0.281,5.15-0.818,7.158-1.61c2.006-0.79,3.681-1.965,5.019-3.517
	c1.338-1.554,2.347-3.416,3.026-5.585c0.678-2.169,1.062-4.785,1.152-7.847c0.166-5.694-0.974-9.802-3.413-12.328
	c-2.439-2.527-6.259-3.52-11.467-2.991c-1.752,0.178-3.504,0.355-5.257,0.53C417.283,126.885,416.883,138.168,416.482,149.451z"/>
<path fill="#A09F9F" d="M492.377,106.398c0.012-0.92,0.197-1.8,0.555-2.637c0.357-0.838,0.84-1.589,1.447-2.253
	c0.606-0.664,1.312-1.211,2.119-1.641c0.807-0.43,1.678-0.699,2.611-0.807c0.934-0.108,1.8-0.04,2.599,0.204
	c0.799,0.244,1.501,0.628,2.107,1.152c0.605,0.524,1.078,1.164,1.419,1.922c0.341,0.756,0.507,1.595,0.499,2.515
	c-0.077,8.6-0.153,17.201-0.23,25.801c-0.027,2.964-0.612,5.618-1.76,7.961c-1.148,2.344-2.745,4.374-4.787,6.091
	c-2.044,1.717-4.468,3.107-7.273,4.17c-2.805,1.063-5.875,1.786-9.205,2.166c-3.282,0.374-6.31,0.352-9.079-0.064
	c-2.77-0.416-5.154-1.243-7.151-2.478c-1.997-1.235-3.542-2.904-4.631-5.004c-1.091-2.1-1.599-4.657-1.532-7.671
	c0.194-8.614,0.388-17.227,0.583-25.841c0.021-0.921,0.214-1.801,0.58-2.637c0.366-0.837,0.855-1.587,1.467-2.249
	c0.612-0.662,1.323-1.207,2.133-1.633c0.81-0.427,1.682-0.692,2.615-0.796c0.934-0.104,1.799-0.033,2.595,0.215
	c0.796,0.247,1.493,0.635,2.093,1.161c0.601,0.527,1.066,1.17,1.399,1.929c0.332,0.758,0.49,1.599,0.474,2.52
	c-0.146,8.541-0.292,17.082-0.438,25.624c-0.03,1.618,0.21,2.982,0.722,4.091c0.511,1.109,1.191,1.985,2.038,2.63
	c0.847,0.644,1.82,1.084,2.917,1.318c1.097,0.234,2.215,0.287,3.355,0.157c1.164-0.133,2.3-0.443,3.409-0.929
	c1.108-0.486,2.104-1.15,2.987-1.991c0.883-0.842,1.605-1.878,2.164-3.108c0.56-1.231,0.85-2.655,0.872-4.272
	C492.156,123.472,492.267,114.935,492.377,106.398z"/>
<path fill="#A09F9F" d="M559.636,130.672c0.172,0.384,0.357,0.783,0.555,1.197c0.198,0.414,0.381,0.835,0.555,1.263
	c0.174,0.429,0.316,0.844,0.429,1.246c0.112,0.402,0.17,0.77,0.172,1.107c0.007,0.829-0.152,1.582-0.474,2.259
	c-0.322,0.677-0.762,1.267-1.318,1.77c-0.556,0.501-1.204,0.914-1.943,1.235c-0.74,0.322-1.523,0.532-2.349,0.628
	c-0.948,0.111-1.763,0.083-2.444-0.085c-0.682-0.166-1.291-0.488-1.829-0.963c-0.538-0.476-1.032-1.119-1.484-1.93
	c-0.454-0.809-0.938-1.812-1.451-3.009c-0.588-1.355-1.175-2.711-1.761-4.067c-6.856,0.804-13.711,1.61-20.567,2.414
	c-0.501,1.483-1.002,2.966-1.504,4.45c-0.441,1.33-0.887,2.459-1.34,3.388c-0.452,0.928-0.952,1.688-1.501,2.278
	c-0.549,0.592-1.176,1.046-1.882,1.364c-0.706,0.318-1.533,0.533-2.481,0.644c-0.826,0.097-1.609,0.07-2.349-0.079
	c-0.74-0.149-1.388-0.41-1.943-0.781c-0.556-0.373-0.995-0.861-1.319-1.462c-0.324-0.601-0.481-1.318-0.476-2.148
	c0.002-0.337,0.061-0.718,0.172-1.147c0.112-0.429,0.255-0.876,0.428-1.346c0.172-0.468,0.358-0.933,0.554-1.393
	c0.198-0.461,0.382-0.903,0.554-1.327c3.314-8.541,6.604-17.08,9.871-25.617c0.923-2.396,1.801-4.524,2.634-6.382
	c0.834-1.858,1.75-3.453,2.747-4.781c0.997-1.328,2.143-2.376,3.438-3.146c1.295-0.769,2.862-1.26,4.707-1.477
	c1.724-0.202,3.197-0.135,4.42,0.204c1.223,0.339,2.326,1.005,3.312,2c0.985,0.994,1.925,2.348,2.82,4.059
	c0.895,1.712,1.888,3.828,2.982,6.347C552.901,115.151,556.257,122.912,559.636,130.672z M535.931,103.974
	c-2.64,7.522-5.297,15.045-7.972,22.571c5.367-0.63,10.733-1.26,16.1-1.89c-2.667-6.899-5.316-13.799-7.948-20.702L535.931,103.974z
	"/>
<path fill="#A09F9F" d="M564.159,100.367c-0.697,0.081-1.358,0.04-1.984-0.123c-0.626-0.162-1.174-0.418-1.646-0.767
	c-0.471-0.349-0.847-0.777-1.127-1.282c-0.28-0.506-0.422-1.062-0.427-1.666c-0.005-0.606,0.129-1.198,0.401-1.78
	c0.271-0.581,0.639-1.101,1.104-1.559c0.464-0.458,1.005-0.84,1.627-1.148c0.62-0.308,1.279-0.503,1.973-0.583
	c10.933-1.272,21.866-2.531,32.799-3.763c0.694-0.078,1.355-0.034,1.983,0.131c0.627,0.165,1.178,0.423,1.654,0.773
	c0.475,0.35,0.856,0.785,1.143,1.302c0.287,0.518,0.437,1.078,0.449,1.683c0.012,0.603-0.115,1.189-0.379,1.758
	c-0.265,0.567-0.627,1.08-1.087,1.535c-0.461,0.455-0.999,0.835-1.62,1.14c-0.62,0.305-1.278,0.497-1.974,0.576
	c-3.218,0.362-6.436,0.727-9.654,1.094c0.177,11.117,0.354,22.233,0.53,33.35c0.014,0.917-0.148,1.794-0.487,2.629
	c-0.34,0.835-0.814,1.585-1.425,2.249c-0.611,0.664-1.321,1.211-2.13,1.64c-0.81,0.429-1.688,0.698-2.636,0.807
	c-0.948,0.109-1.832,0.042-2.65-0.2c-0.819-0.242-1.535-0.625-2.15-1.149c-0.614-0.523-1.103-1.163-1.464-1.918
	c-0.362-0.754-0.548-1.591-0.558-2.509c-0.132-11.122-0.263-22.244-0.395-33.366C570.739,99.603,567.449,99.984,564.159,100.367z"/>
<path fill="#A09F9F" d="M622.928,127.145c0.024,0.916-0.129,1.791-0.46,2.622c-0.331,0.832-0.8,1.579-1.403,2.238
	c-0.604,0.66-1.309,1.202-2.115,1.626c-0.805,0.424-1.683,0.688-2.63,0.792c-0.948,0.104-1.833,0.032-2.655-0.214
	c-0.823-0.246-1.544-0.632-2.164-1.158c-0.621-0.526-1.117-1.166-1.486-1.922c-0.371-0.754-0.565-1.591-0.585-2.508
	c-0.266-11.892-0.533-23.784-0.799-35.676c-0.021-0.917,0.134-1.792,0.464-2.624c0.329-0.833,0.788-1.579,1.373-2.238
	c0.585-0.659,1.275-1.2,2.07-1.624c0.795-0.424,1.659-0.687,2.593-0.789c0.933-0.102,1.807-0.029,2.617,0.219
	c0.812,0.248,1.529,0.636,2.156,1.162c0.626,0.526,1.124,1.168,1.493,1.925c0.368,0.756,0.566,1.593,0.589,2.509
	C622.299,103.371,622.614,115.258,622.928,127.145z"/>
<path fill="#A09F9F" d="M631.505,108.397c-0.107-3.689,0.33-7.154,1.306-10.398c0.977-3.242,2.501-6.105,4.565-8.585
	c2.065-2.48,4.681-4.523,7.848-6.126c3.168-1.601,6.903-2.617,11.212-3.044c4.19-0.414,7.911-0.158,11.171,0.764
	c3.26,0.923,6.016,2.408,8.273,4.451c2.256,2.045,4.007,4.581,5.253,7.605c1.245,3.026,1.955,6.435,2.126,10.23
	c0.168,3.729-0.22,7.205-1.171,10.428c-0.95,3.225-2.468,6.058-4.554,8.504c-2.087,2.445-4.735,4.447-7.94,6.008
	c-3.206,1.56-6.964,2.552-11.267,2.977c-4.208,0.416-7.954,0.188-11.239-0.687c-3.286-0.876-6.067-2.309-8.345-4.302
	c-2.277-1.995-4.025-4.496-5.243-7.508C632.282,115.705,631.618,112.266,631.505,108.397z M645.584,106.931
	c0.185,5.543,1.28,9.629,3.29,12.261c2.009,2.634,5.057,3.744,9.131,3.341c4.001-0.396,6.931-2.091,8.781-5.094
	c1.85-3.003,2.658-7.281,2.432-12.843c-0.109-2.679-0.441-5.041-0.995-7.084c-0.555-2.043-1.341-3.734-2.359-5.071
	c-1.019-1.337-2.28-2.308-3.786-2.913c-1.505-0.604-3.278-0.806-5.318-0.605c-2.015,0.199-3.75,0.748-5.199,1.644
	c-1.451,0.897-2.632,2.109-3.544,3.637c-0.913,1.528-1.569,3.361-1.967,5.498C645.649,101.84,645.494,104.25,645.584,106.931z"/>
<path fill="#A09F9F" d="M704.098,120.587c0.038,0.736-0.079,1.435-0.35,2.096c-0.272,0.661-0.656,1.248-1.155,1.76
	c-0.5,0.512-1.087,0.936-1.767,1.273c-0.678,0.338-1.419,0.54-2.221,0.607c-0.802,0.068-1.557-0.007-2.263-0.228
	c-0.706-0.219-1.325-0.542-1.859-0.966c-0.533-0.424-0.959-0.943-1.281-1.553c-0.321-0.61-0.5-1.284-0.535-2.021
	c-0.58-12.185-1.159-24.37-1.739-36.555c-0.052-1.094,0.076-2.079,0.383-2.958c0.308-0.878,0.741-1.633,1.3-2.264
	c0.558-0.63,1.225-1.13,2.001-1.498c0.777-0.37,1.618-0.592,2.529-0.669c0.767-0.065,1.522,0.013,2.266,0.23
	c0.745,0.218,1.464,0.534,2.159,0.946c0.694,0.413,1.37,0.913,2.025,1.498c0.657,0.585,1.292,1.211,1.904,1.878
	c7.541,8.351,15.14,16.729,22.797,25.139c-0.522-8.908-1.043-17.816-1.565-26.724c-0.043-0.736,0.06-1.432,0.312-2.088
	c0.249-0.656,0.613-1.237,1.088-1.74c0.475-0.503,1.046-0.919,1.711-1.245c0.665-0.326,1.396-0.517,2.185-0.571
	c0.791-0.054,1.536,0.036,2.235,0.268c0.7,0.232,1.314,0.566,1.846,1.001c0.535,0.434,0.968,0.96,1.308,1.576
	c0.34,0.615,0.531,1.291,0.577,2.027c0.704,11.347,1.408,22.694,2.112,34.041c0.076,1.226,0.074,2.407,0,3.542
	c-0.075,1.135-0.318,2.141-0.728,3.019c-0.409,0.879-1.023,1.602-1.843,2.171c-0.818,0.571-1.933,0.903-3.344,1.001
	c-0.751,0.052-1.496-0.03-2.229-0.248c-0.731-0.218-1.448-0.536-2.142-0.958c-0.697-0.42-1.378-0.926-2.047-1.515
	c-0.669-0.591-1.326-1.231-1.974-1.923c-7.752-8.505-15.445-16.977-23.079-25.422C703.177,102.538,703.638,111.563,704.098,120.587z
	"/>
<path fill="#A09F9F" d="M814.193,119.829c-1.314,0.029-2.422-0.19-3.325-0.659c-0.902-0.469-1.643-1.097-2.22-1.886
	c-0.576-0.788-1.002-1.686-1.28-2.696c-0.277-1.008-0.459-2.047-0.547-3.116c-0.861-10.467-1.723-20.935-2.584-31.402
	c-0.123-1.492-0.074-2.789,0.148-3.888c0.221-1.1,0.663-2.003,1.326-2.712c0.66-0.709,1.559-1.245,2.693-1.606
	c1.133-0.36,2.549-0.559,4.251-0.594c2.97-0.061,5.939-0.112,8.909-0.154c9.795-0.137,17.363,1.867,22.736,5.899
	c5.37,4.034,8.473,10.247,9.284,18.596c0.395,4.075,0.05,7.61-1.041,10.606c-1.089,2.997-2.81,5.473-5.159,7.438
	c-2.35,1.965-5.266,3.43-8.75,4.405c-3.485,0.973-7.403,1.485-11.754,1.543C822.651,119.66,818.422,119.735,814.193,119.829z
	 M820.219,112.214c1.661-0.029,3.323-0.055,4.984-0.079c2.765-0.039,5.116-0.354,7.052-0.951c1.934-0.596,3.487-1.598,4.655-3.007
	c1.167-1.41,1.963-3.156,2.388-5.24c0.424-2.084,0.496-4.64,0.215-7.67c-0.523-5.633-2.176-9.829-4.952-12.577
	c-2.777-2.748-6.765-4.103-11.974-4.032c-1.752,0.024-3.504,0.052-5.257,0.083C818.293,89.9,819.256,101.057,820.219,112.214z"/>
<path fill="#A09F9F" d="M905.549,110.894c0.213,0.41,0.443,0.837,0.685,1.282c0.244,0.444,0.475,0.893,0.694,1.347
	c0.219,0.455,0.408,0.891,0.564,1.31c0.155,0.418,0.253,0.793,0.29,1.128c0.092,0.824,0.011,1.545-0.246,2.163
	c-0.256,0.617-0.64,1.13-1.15,1.536c-0.511,0.405-1.122,0.706-1.838,0.903c-0.716,0.197-1.487,0.276-2.313,0.237
	c-0.947-0.045-1.776-0.205-2.482-0.481c-0.708-0.275-1.359-0.692-1.951-1.25c-0.594-0.559-1.161-1.276-1.703-2.152
	c-0.543-0.876-1.137-1.948-1.782-3.217c-0.735-1.438-1.471-2.876-2.205-4.313c-6.856-0.271-13.711-0.479-20.567-0.629
	c-0.352,1.403-0.705,2.807-1.059,4.211c-0.308,1.26-0.644,2.32-1.004,3.18c-0.361,0.859-0.79,1.547-1.284,2.059
	c-0.492,0.513-1.082,0.881-1.763,1.103c-0.682,0.222-1.495,0.326-2.444,0.312c-0.826-0.012-1.622-0.141-2.385-0.384
	c-0.764-0.243-1.446-0.585-2.05-1.025c-0.601-0.441-1.096-0.981-1.487-1.619c-0.389-0.638-0.624-1.369-0.705-2.193
	c-0.033-0.334-0.015-0.706,0.055-1.117c0.07-0.411,0.167-0.838,0.292-1.283c0.127-0.443,0.265-0.881,0.417-1.313
	c0.152-0.432,0.293-0.848,0.423-1.247c2.466-8.058,4.908-16.104,7.326-24.137c0.686-2.254,1.35-4.246,2.003-5.976
	c0.648-1.73,1.411-3.186,2.281-4.365c0.872-1.179,1.924-2.058,3.153-2.637c1.232-0.578,2.767-0.84,4.612-0.783
	c1.724,0.053,3.221,0.34,4.496,0.862c1.272,0.521,2.458,1.351,3.56,2.491c1.101,1.139,2.194,2.629,3.277,4.468
	c1.083,1.84,2.308,4.097,3.679,6.771C897.117,94.373,901.321,102.625,905.549,110.894z M878.776,80.661
	c-1.89,7.08-3.796,14.168-5.721,21.265c5.366,0.127,10.733,0.291,16.099,0.492c-3.417-7.26-6.816-14.511-10.198-21.752
	L878.776,80.661z"/>
<path fill="#A09F9F" d="M934.93,116.386c0.086,0.911-0.006,1.749-0.273,2.511c-0.268,0.763-0.678,1.416-1.226,1.959
	c-0.548,0.543-1.209,0.951-1.984,1.225c-0.774,0.274-1.636,0.376-2.583,0.308c-0.948-0.068-1.849-0.298-2.702-0.689
	c-0.855-0.391-1.619-0.902-2.296-1.534c-0.675-0.631-1.237-1.354-1.68-2.169c-0.446-0.814-0.721-1.678-0.828-2.591
	c-0.47-4.023-0.94-8.045-1.41-12.068c-5.233-7.122-10.437-14.213-15.615-21.277c-0.535-0.715-0.935-1.406-1.2-2.073
	c-0.268-0.667-0.434-1.313-0.505-1.937c-0.094-0.824-0.015-1.568,0.231-2.23c0.249-0.662,0.613-1.224,1.097-1.686
	c0.483-0.461,1.063-0.806,1.739-1.034c0.676-0.229,1.398-0.32,2.164-0.276c1.15,0.066,2.336,0.469,3.565,1.207
	c1.227,0.739,2.325,1.902,3.295,3.49c3.83,6.028,7.677,12.071,11.541,18.129l0.146,0.011c2.604-5.632,5.19-11.249,7.758-16.852
	c0.634-1.404,1.465-2.382,2.487-2.935c1.021-0.553,2.095-0.778,3.222-0.678c0.669,0.06,1.324,0.228,1.963,0.507
	c0.638,0.278,1.211,0.639,1.716,1.082c0.504,0.443,0.926,0.968,1.263,1.572c0.336,0.605,0.547,1.253,0.634,1.944
	c0.073,0.58,0.052,1.178-0.06,1.796c-0.112,0.617-0.353,1.251-0.723,1.899c-3.71,6.676-7.449,13.382-11.219,20.117
	C933.941,108.205,934.436,112.295,934.93,116.386z"/>
<path fill="#FFFFFF" d="M284.982,134.58c0.939-0.037,1.694,0.05,2.266,0.263c0.572,0.214,0.996,0.557,1.274,1.028
	c0.277,0.473,0.443,1.069,0.499,1.786c0.055,0.72,0.047,1.553-0.023,2.501c-0.249,3.365-0.497,6.73-0.746,10.095
	c-0.13,1.762-0.367,3.253-0.71,4.472c-0.344,1.218-0.897,2.249-1.661,3.091c-0.764,0.842-1.8,1.532-3.11,2.068
	c-1.309,0.536-2.995,0.989-5.056,1.355c-0.885,0.168-1.83,0.341-2.835,0.522c-1.007,0.181-2.03,0.345-3.07,0.492
	c-1.041,0.146-2.068,0.273-3.081,0.383c-1.014,0.11-1.958,0.177-2.831,0.202c-4.273,0.122-8.084-0.301-11.43-1.257
	c-3.348-0.956-6.142-2.477-8.382-4.555c-2.24-2.077-3.865-4.733-4.872-7.962c-1.008-3.228-1.313-7.048-0.923-11.454
	c0.314-3.547,1.158-6.89,2.526-10.031c1.368-3.141,3.275-5.893,5.717-8.263c2.442-2.37,5.442-4.261,8.999-5.687
	c3.558-1.425,7.687-2.196,12.395-2.33c1.53-0.044,3.042-0.016,4.536,0.083c1.494,0.1,2.93,0.249,4.31,0.45
	c1.379,0.201,2.695,0.457,3.947,0.772c1.251,0.314,2.399,0.664,3.443,1.05c1.045,0.388,1.801,0.937,2.274,1.649
	c0.472,0.713,0.676,1.498,0.612,2.356c-0.104,1.402-0.638,2.481-1.603,3.241c-0.966,0.76-2.119,1.166-3.462,1.217
	c-0.671,0.026-1.55-0.071-2.632-0.29c-1.083-0.219-2.241-0.471-3.475-0.756c-1.233-0.284-2.492-0.535-3.778-0.754
	c-1.287-0.218-2.467-0.312-3.546-0.28c-2.636,0.077-4.926,0.538-6.874,1.386c-1.948,0.849-3.584,2.041-4.91,3.581
	c-1.326,1.54-2.357,3.399-3.092,5.579c-0.735,2.179-1.218,4.625-1.447,7.335c-0.253,3.005-0.222,5.548,0.098,7.628
	c0.318,2.08,0.968,3.764,1.946,5.052c0.979,1.286,2.297,2.205,3.956,2.75c1.659,0.546,3.685,0.788,6.082,0.72
	c1.453-0.041,2.914-0.124,4.385-0.25c1.471-0.125,2.909-0.369,4.313-0.732c0.287-3.693,0.574-7.386,0.862-11.079
	c-1.616,0.055-3.233,0.107-4.849,0.157c-0.748,0.023-1.43-0.018-2.047-0.124c-0.618-0.105-1.15-0.293-1.597-0.563
	c-0.448-0.269-0.785-0.631-1.013-1.087c-0.228-0.456-0.315-1.023-0.26-1.7c0.084-1.04,0.52-1.897,1.307-2.573
	c0.787-0.675,1.938-1.035,3.456-1.081c2.383-0.072,4.729-0.143,7.039-0.213C280.216,134.758,282.574,134.675,284.982,134.58z"/>
<path fill="#FFFFFF" d="M311.892,153.107c-0.061,0.925-0.295,1.799-0.7,2.619c-0.405,0.822-0.937,1.549-1.596,2.181
	c-0.659,0.632-1.406,1.14-2.241,1.522c-0.837,0.383-1.727,0.599-2.673,0.648c-0.947,0.049-1.815-0.075-2.604-0.372
	c-0.789-0.298-1.466-0.731-2.03-1.299c-0.564-0.568-0.993-1.245-1.289-2.03c-0.295-0.784-0.409-1.64-0.344-2.565
	c0.858-12.127,1.716-24.253,2.574-36.38c0.074-1.039,0.359-1.959,0.857-2.759c0.498-0.801,1.136-1.479,1.914-2.036
	c0.777-0.556,1.671-0.989,2.682-1.3c1.01-0.31,2.065-0.495,3.165-0.553c4.793-0.255,9.587-0.529,14.38-0.822
	c2.653-0.162,5.189-0.159,7.608,0.009c2.419,0.169,4.527,0.64,6.328,1.416c1.8,0.775,3.21,1.924,4.231,3.447
	c1.02,1.524,1.457,3.571,1.308,6.144c-0.081,1.399-0.362,2.739-0.843,4.021c-0.482,1.282-1.208,2.457-2.181,3.525
	c-0.973,1.068-2.22,2.009-3.743,2.821c-1.523,0.811-3.366,1.459-5.53,1.938l-0.008,0.135c1.529,0.08,2.832,0.256,3.907,0.533
	c1.075,0.275,1.981,0.674,2.718,1.196c0.737,0.522,1.323,1.172,1.757,1.951c0.434,0.778,0.777,1.709,1.026,2.793
	c0.249,1.084,0.429,2.324,0.54,3.72c0.111,1.398,0.2,2.981,0.266,4.751c0.019,0.494,0.027,0.971,0.026,1.431
	c-0.003,0.461-0.017,0.917-0.043,1.369c-0.056,0.969-0.204,1.868-0.446,2.694c-0.241,0.826-0.621,1.55-1.14,2.171
	c-0.519,0.622-1.213,1.125-2.081,1.511c-0.869,0.387-1.97,0.625-3.304,0.716c-1.214,0.083-2.211-0.109-2.992-0.573
	c-0.781-0.464-1.411-1.132-1.889-1.999c-0.477-0.869-0.82-1.886-1.024-3.053c-0.205-1.166-0.352-2.422-0.436-3.765
	c-0.12-1.948-0.266-3.574-0.437-4.878c-0.172-1.304-0.51-2.345-1.014-3.123c-0.504-0.777-1.259-1.303-2.261-1.578
	c-1.004-0.275-2.397-0.357-4.183-0.25c-2.448,0.147-4.896,0.289-7.344,0.426C312.499,144.008,312.196,148.557,311.892,153.107z
	 M318.885,131.281c1.3-0.077,2.604-0.228,3.912-0.454c1.309-0.226,2.501-0.604,3.576-1.133c1.075-0.528,1.965-1.259,2.669-2.193
	c0.705-0.933,1.103-2.145,1.194-3.635c0.105-1.716-0.127-2.981-0.696-3.8c-0.571-0.817-1.358-1.407-2.361-1.771
	c-1.004-0.364-2.18-0.555-3.527-0.574c-1.347-0.019-2.753,0.015-4.214,0.101c-1.809,0.107-3.618,0.211-5.427,0.312
	c-0.3,4.493-0.6,8.986-0.901,13.478C315.036,131.506,316.96,131.395,318.885,131.281z"/>
<path fill="#FFFFFF" d="M396.715,142.988c0.152,0.39,0.316,0.795,0.492,1.217c0.175,0.42,0.338,0.848,0.489,1.283
	c0.151,0.436,0.273,0.856,0.364,1.263c0.093,0.407,0.131,0.778,0.117,1.116c-0.034,0.833-0.228,1.587-0.582,2.26
	c-0.353,0.673-0.819,1.256-1.395,1.748c-0.577,0.491-1.239,0.89-1.989,1.195c-0.75,0.305-1.538,0.497-2.362,0.573
	c-0.946,0.087-1.755,0.038-2.422-0.149c-0.669-0.185-1.258-0.525-1.768-1.017c-0.51-0.493-0.969-1.153-1.379-1.981
	c-0.41-0.826-0.842-1.848-1.293-3.066c-0.517-1.379-1.033-2.759-1.548-4.138c-6.844,0.609-13.688,1.192-20.531,1.745
	c-0.57,1.472-1.14,2.944-1.711,4.416c-0.503,1.32-1.001,2.438-1.496,3.354c-0.495,0.915-1.028,1.66-1.602,2.232
	c-0.573,0.573-1.219,1.006-1.935,1.297c-0.716,0.292-1.548,0.475-2.494,0.548c-0.825,0.064-1.601,0.004-2.328-0.176
	c-0.728-0.18-1.357-0.47-1.891-0.867c-0.533-0.398-0.946-0.908-1.237-1.526c-0.291-0.618-0.414-1.345-0.367-2.18
	c0.019-0.339,0.095-0.719,0.227-1.145c0.133-0.426,0.296-0.87,0.491-1.335c0.194-0.464,0.4-0.923,0.619-1.376
	c0.218-0.455,0.423-0.892,0.615-1.31c3.709-8.445,7.393-16.896,11.054-25.351c1.034-2.373,2.009-4.478,2.928-6.315
	c0.919-1.837,1.905-3.406,2.961-4.704c1.055-1.299,2.243-2.311,3.566-3.04c1.322-0.727,2.903-1.168,4.744-1.324
	c1.721-0.146,3.179-0.031,4.376,0.348c1.196,0.379,2.259,1.082,3.189,2.112c0.93,1.029,1.795,2.418,2.6,4.164
	c0.803,1.747,1.686,3.902,2.648,6.464C390.791,127.219,393.741,135.108,396.715,142.988z M374.496,115.477
	c-2.989,7.473-5.996,14.944-9.02,22.412c5.357-0.438,10.715-0.894,16.072-1.366c-2.308-7.015-4.599-14.035-6.872-21.061
	L374.496,115.477z"/>
<path fill="#FFFFFF" d="M412.23,151.693c-1.31,0.13-2.387-0.012-3.229-0.423c-0.843-0.411-1.503-0.998-1.981-1.759
	c-0.478-0.761-0.794-1.645-0.948-2.652c-0.155-1.006-0.21-2.05-0.169-3.132c0.41-10.588,0.82-21.176,1.231-31.763
	c0.058-1.509,0.265-2.832,0.619-3.966c0.353-1.134,0.904-2.085,1.647-2.853c0.744-0.768,1.703-1.379,2.875-1.831
	c1.173-0.451,2.607-0.761,4.304-0.93c2.965-0.296,5.929-0.595,8.894-0.898c9.777-1,17.09,0.24,21.964,3.766
	c4.873,3.525,7.221,9.496,7.017,17.932c-0.1,4.116-0.873,7.769-2.327,10.955c-1.453,3.187-3.472,5.912-6.056,8.176
	c-2.584,2.264-5.675,4.07-9.269,5.415c-3.594,1.343-7.565,2.241-11.907,2.686C420.675,150.85,416.453,151.275,412.23,151.693z
	 M419.154,143.462c1.658-0.167,3.317-0.336,4.975-0.505c2.761-0.282,5.141-0.821,7.145-1.613c2.003-0.791,3.672-1.966,5.008-3.519
	c1.336-1.554,2.341-3.417,3.017-5.586c0.676-2.169,1.058-4.785,1.145-7.846c0.162-5.693-0.979-9.801-3.416-12.325
	c-2.438-2.526-6.251-3.517-11.45-2.985c-1.749,0.179-3.499,0.357-5.247,0.533C419.939,120.897,419.547,132.179,419.154,143.462z"/>
<path fill="#FFFFFF" d="M494.894,100.389c0.012-0.92,0.196-1.8,0.552-2.637c0.356-0.838,0.837-1.589,1.443-2.253
	c0.605-0.664,1.309-1.211,2.114-1.641c0.805-0.43,1.673-0.699,2.606-0.807c0.932-0.108,1.797-0.04,2.595,0.204
	c0.798,0.244,1.499,0.628,2.104,1.152c0.605,0.524,1.077,1.164,1.418,1.922c0.341,0.756,0.507,1.595,0.5,2.515
	c-0.07,8.6-0.141,17.199-0.211,25.799c-0.024,2.964-0.607,5.618-1.751,7.96c-1.145,2.343-2.737,4.373-4.775,6.09
	c-2.039,1.717-4.459,3.107-7.259,4.17c-2.799,1.063-5.863,1.786-9.189,2.167c-3.277,0.375-6.299,0.353-9.065-0.063
	c-2.765-0.416-5.146-1.242-7.141-2.477c-1.995-1.235-3.538-2.902-4.627-5.002c-1.091-2.1-1.601-4.656-1.535-7.67
	c0.188-8.613,0.376-17.226,0.564-25.839c0.02-0.921,0.213-1.801,0.577-2.637c0.365-0.837,0.852-1.587,1.463-2.249
	c0.61-0.662,1.319-1.207,2.128-1.634c0.808-0.427,1.678-0.692,2.61-0.797c0.932-0.104,1.795-0.033,2.591,0.214
	c0.795,0.247,1.491,0.634,2.09,1.161c0.6,0.527,1.065,1.17,1.398,1.929c0.332,0.758,0.491,1.599,0.475,2.52
	c-0.14,8.541-0.28,17.081-0.419,25.622c-0.029,1.618,0.212,2.982,0.723,4.09c0.511,1.108,1.191,1.985,2.036,2.629
	c0.846,0.644,1.817,1.083,2.913,1.318c1.095,0.234,2.212,0.287,3.35,0.157c1.161-0.133,2.296-0.443,3.403-0.929
	c1.106-0.486,2.099-1.15,2.981-1.991c0.881-0.842,1.601-1.878,2.158-3.108c0.558-1.231,0.848-2.655,0.867-4.272
	C494.685,117.462,494.79,108.925,494.894,100.389z"/>
<path fill="#FFFFFF" d="M562.061,124.67c0.173,0.384,0.357,0.783,0.555,1.198c0.196,0.414,0.382,0.835,0.555,1.263
	c0.173,0.429,0.317,0.844,0.429,1.246c0.113,0.402,0.17,0.77,0.173,1.107c0.007,0.829-0.15,1.582-0.472,2.259
	c-0.321,0.676-0.759,1.266-1.314,1.769c-0.554,0.501-1.201,0.913-1.939,1.234c-0.739,0.322-1.52,0.531-2.345,0.627
	c-0.946,0.111-1.76,0.082-2.441-0.086c-0.682-0.166-1.289-0.488-1.827-0.963c-0.537-0.476-1.03-1.119-1.483-1.93
	c-0.453-0.809-0.937-1.812-1.451-3.009c-0.588-1.355-1.175-2.711-1.761-4.067c-6.844,0.802-13.688,1.607-20.531,2.41
	c-0.499,1.483-0.998,2.966-1.498,4.449c-0.439,1.329-0.885,2.459-1.335,3.387c-0.452,0.927-0.95,1.688-1.497,2.278
	c-0.548,0.591-1.174,1.046-1.878,1.364c-0.705,0.318-1.531,0.533-2.477,0.644c-0.825,0.097-1.607,0.07-2.345-0.079
	c-0.739-0.149-1.386-0.41-1.941-0.781c-0.556-0.373-0.994-0.861-1.317-1.462c-0.323-0.601-0.482-1.318-0.477-2.148
	c0.002-0.337,0.06-0.718,0.171-1.147c0.112-0.429,0.254-0.876,0.426-1.346c0.172-0.468,0.356-0.933,0.552-1.393
	c0.196-0.461,0.381-0.903,0.552-1.327c3.302-8.54,6.581-17.078,9.836-25.614c0.92-2.396,1.794-4.523,2.625-6.381
	c0.831-1.858,1.744-3.452,2.739-4.78c0.995-1.328,2.137-2.376,3.43-3.145c1.291-0.768,2.858-1.26,4.698-1.476
	c1.72-0.202,3.193-0.134,4.412,0.205c1.22,0.339,2.323,1.005,3.308,2.001c0.985,0.994,1.924,2.349,2.818,4.06
	c0.894,1.712,1.888,3.828,2.982,6.347C555.325,109.149,558.68,116.91,562.061,124.67z M538.374,97.969
	c-2.63,7.52-5.277,15.043-7.942,22.568c5.357-0.629,10.715-1.258,16.072-1.887c-2.667-6.899-5.317-13.799-7.95-20.702
	L538.374,97.969z"/>
<path fill="#FFFFFF" d="M566.553,94.37c-0.695,0.081-1.355,0.039-1.981-0.123c-0.625-0.163-1.174-0.418-1.643-0.767
	c-0.471-0.349-0.846-0.777-1.126-1.282c-0.28-0.506-0.422-1.062-0.427-1.666c-0.005-0.606,0.128-1.198,0.399-1.779
	c0.27-0.581,0.637-1.101,1.101-1.559c0.462-0.458,1.004-0.84,1.623-1.147c0.62-0.307,1.275-0.502,1.969-0.583
	c10.914-1.268,21.828-2.522,32.742-3.747c0.693-0.078,1.353-0.033,1.979,0.132c0.626,0.165,1.177,0.423,1.652,0.774
	c0.475,0.351,0.855,0.785,1.142,1.303c0.286,0.518,0.436,1.078,0.45,1.683c0.013,0.603-0.113,1.189-0.377,1.758
	c-0.264,0.567-0.625,1.079-1.084,1.534c-0.46,0.455-0.998,0.835-1.616,1.139c-0.619,0.305-1.276,0.497-1.971,0.575
	c-3.212,0.361-6.425,0.724-9.637,1.089c0.185,11.116,0.37,22.231,0.555,33.347c0.015,0.917-0.147,1.794-0.484,2.628
	c-0.338,0.835-0.811,1.585-1.42,2.248c-0.61,0.664-1.316,1.21-2.125,1.639c-0.807,0.429-1.685,0.697-2.631,0.806
	c-0.946,0.108-1.829,0.041-2.646-0.201c-0.817-0.243-1.533-0.626-2.147-1.149c-0.614-0.524-1.102-1.163-1.464-1.918
	c-0.362-0.754-0.548-1.591-0.559-2.509c-0.14-11.121-0.28-22.242-0.42-33.363C573.122,93.608,569.837,93.989,566.553,94.37z"/>
<path fill="#FFFFFF" d="M625.246,121.177c0.026,0.916-0.129,1.791-0.457,2.622c-0.331,0.832-0.797,1.578-1.399,2.237
	c-0.603,0.659-1.306,1.201-2.11,1.624c-0.804,0.424-1.679,0.687-2.625,0.79c-0.947,0.103-1.83,0.031-2.651-0.215
	c-0.821-0.247-1.542-0.633-2.162-1.159c-0.62-0.526-1.115-1.167-1.485-1.923c-0.37-0.755-0.566-1.592-0.586-2.508
	c-0.275-11.891-0.55-23.782-0.825-35.673c-0.021-0.917,0.133-1.792,0.461-2.624c0.329-0.833,0.785-1.579,1.369-2.237
	c0.583-0.658,1.271-1.199,2.065-1.622c0.792-0.423,1.655-0.686,2.588-0.787c0.932-0.101,1.802-0.028,2.613,0.221
	c0.81,0.249,1.527,0.637,2.153,1.163c0.625,0.527,1.123,1.169,1.492,1.926c0.369,0.756,0.565,1.593,0.59,2.509
	C624.6,97.406,624.923,109.292,625.246,121.177z"/>
<path fill="#FFFFFF" d="M633.794,102.438c-0.111-3.689,0.323-7.153,1.296-10.396c0.973-3.241,2.491-6.102,4.55-8.581
	c2.06-2.478,4.669-4.519,7.83-6.119c3.16-1.598,6.889-2.611,11.191-3.033c4.182-0.41,7.897-0.15,11.153,0.774
	c3.255,0.926,6.008,2.413,8.262,4.459c2.253,2.047,4.005,4.584,5.25,7.61c1.245,3.027,1.957,6.437,2.131,10.231
	c0.171,3.729-0.215,7.203-1.161,10.426c-0.945,3.223-2.458,6.054-4.54,8.498c-2.081,2.443-4.723,4.441-7.922,6
	c-3.2,1.557-6.95,2.545-11.246,2.966c-4.2,0.412-7.941,0.181-11.221-0.697c-3.28-0.879-6.059-2.314-8.334-4.308
	c-2.275-1.996-4.021-4.499-5.24-7.511C634.575,109.746,633.91,106.306,633.794,102.438z M647.849,100.983
	c0.189,5.543,1.285,9.629,3.295,12.263c2.009,2.635,5.051,3.748,9.118,3.348c3.995-0.392,6.918-2.084,8.762-5.085
	c1.845-3.001,2.649-7.278,2.417-12.839c-0.111-2.679-0.445-5.04-0.999-7.084c-0.556-2.043-1.342-3.735-2.36-5.073
	c-1.018-1.338-2.278-2.309-3.782-2.916c-1.504-0.605-3.274-0.809-5.31-0.61c-2.014,0.197-3.743,0.745-5.189,1.64
	c-1.448,0.896-2.626,2.107-3.535,3.633c-0.91,1.527-1.563,3.359-1.959,5.496C647.909,95.893,647.757,98.302,647.849,100.983z"/>
<path fill="#FFFFFF" d="M706.278,114.697c0.038,0.736-0.078,1.435-0.348,2.095c-0.272,0.66-0.655,1.247-1.151,1.758
	c-0.499,0.511-1.085,0.935-1.763,1.271c-0.677,0.337-1.416,0.538-2.217,0.605c-0.801,0.067-1.554-0.009-2.259-0.23
	c-0.705-0.22-1.324-0.543-1.856-0.968c-0.532-0.425-0.959-0.944-1.281-1.554c-0.321-0.611-0.5-1.285-0.536-2.021
	c-0.589-12.184-1.177-24.369-1.766-36.553c-0.054-1.094,0.073-2.079,0.38-2.958c0.307-0.877,0.738-1.632,1.296-2.262
	c0.556-0.629,1.223-1.128,1.997-1.496c0.775-0.369,1.615-0.59,2.524-0.666c0.765-0.064,1.519,0.014,2.263,0.233
	c0.744,0.218,1.462,0.535,2.156,0.949c0.693,0.414,1.369,0.914,2.024,1.5c0.655,0.585,1.289,1.212,1.901,1.88
	c7.536,8.359,15.129,16.745,22.781,25.164c-0.528-8.907-1.057-17.815-1.585-26.722c-0.043-0.736,0.059-1.432,0.309-2.087
	c0.248-0.655,0.611-1.236,1.085-1.738c0.474-0.503,1.045-0.917,1.709-1.242c0.664-0.325,1.392-0.515,2.18-0.568
	c0.789-0.053,1.531,0.038,2.231,0.271c0.698,0.233,1.313,0.568,1.844,1.003c0.532,0.435,0.966,0.962,1.307,1.577
	c0.339,0.616,0.532,1.292,0.578,2.028c0.712,11.347,1.425,22.693,2.137,34.04c0.077,1.226,0.077,2.406,0.003,3.542
	c-0.074,1.134-0.315,2.14-0.724,3.017c-0.407,0.878-1.02,1.6-1.838,2.169c-0.816,0.57-1.93,0.901-3.337,0.996
	c-0.752,0.051-1.495-0.032-2.226-0.251c-0.731-0.219-1.446-0.538-2.14-0.96c-0.694-0.421-1.376-0.927-2.044-1.518
	c-0.668-0.592-1.327-1.233-1.974-1.925c-7.746-8.514-15.433-16.994-23.061-25.447C705.344,96.649,705.811,105.673,706.278,114.697z"
	/>
<path fill="#FFFFFF" d="M816.188,114.099c-1.312,0.027-2.419-0.195-3.32-0.665c-0.901-0.47-1.64-1.1-2.218-1.889
	c-0.576-0.789-1.002-1.688-1.281-2.697c-0.276-1.008-0.46-2.047-0.549-3.117c-0.869-10.467-1.738-20.934-2.607-31.402
	c-0.123-1.492-0.077-2.788,0.144-3.887c0.221-1.099,0.662-2.002,1.322-2.709c0.659-0.707,1.555-1.242,2.687-1.602
	c1.132-0.358,2.544-0.555,4.243-0.587c2.964-0.055,5.929-0.102,8.893-0.138c9.778-0.119,17.335,1.899,22.702,5.94
	c5.363,4.044,8.468,10.261,9.285,18.611c0.398,4.075,0.057,7.609-1.029,10.602c-1.086,2.994-2.8,5.467-5.143,7.427
	c-2.343,1.961-5.255,3.419-8.731,4.388c-3.477,0.967-7.39,1.471-11.733,1.521C824.631,113.944,820.409,114.012,816.188,114.099z
	 M822.197,106.496c1.659-0.026,3.317-0.05,4.975-0.07c2.76-0.034,5.106-0.345,7.039-0.938c1.929-0.592,3.481-1.592,4.644-2.998
	c1.165-1.408,1.957-3.152,2.379-5.234c0.421-2.083,0.492-4.638,0.208-7.668c-0.526-5.633-2.182-9.832-4.955-12.584
	c-2.776-2.753-6.758-4.115-11.957-4.053c-1.749,0.021-3.498,0.045-5.247,0.073C820.254,84.181,821.225,95.339,822.197,106.496z"/>
<path fill="#FFFFFF" d="M907.378,105.344c0.214,0.41,0.443,0.838,0.685,1.283c0.243,0.444,0.475,0.894,0.694,1.349
	c0.22,0.456,0.409,0.892,0.565,1.311c0.154,0.419,0.253,0.794,0.29,1.128c0.094,0.824,0.013,1.545-0.243,2.162
	c-0.255,0.617-0.638,1.128-1.146,1.533c-0.508,0.404-1.122,0.704-1.834,0.899c-0.714,0.195-1.484,0.273-2.308,0.232
	c-0.945-0.047-1.773-0.209-2.479-0.487c-0.707-0.276-1.356-0.695-1.949-1.253c-0.593-0.56-1.16-1.278-1.702-2.156
	c-0.542-0.876-1.137-1.95-1.782-3.22c-0.736-1.44-1.471-2.879-2.205-4.317c-6.844-0.285-13.688-0.508-20.532-0.672
	c-0.35,1.402-0.702,2.805-1.053,4.208c-0.306,1.259-0.64,2.318-0.999,3.178c-0.36,0.858-0.788,1.545-1.28,2.056
	c-0.492,0.512-1.078,0.878-1.759,1.099c-0.681,0.22-1.491,0.323-2.439,0.307c-0.825-0.014-1.619-0.144-2.381-0.388
	c-0.764-0.245-1.446-0.588-2.047-1.029c-0.6-0.442-1.096-0.983-1.486-1.621c-0.39-0.638-0.624-1.37-0.705-2.194
	c-0.033-0.334-0.015-0.705,0.053-1.117c0.068-0.411,0.165-0.838,0.291-1.282c0.127-0.443,0.263-0.881,0.415-1.311
	c0.151-0.432,0.292-0.847,0.421-1.246c2.454-8.052,4.884-16.091,7.291-24.118c0.68-2.252,1.345-4.243,1.994-5.971
	c0.646-1.729,1.404-3.183,2.273-4.36c0.87-1.177,1.917-2.053,3.144-2.63c1.228-0.575,2.762-0.834,4.603-0.774
	c1.721,0.056,3.218,0.347,4.488,0.871c1.272,0.524,2.455,1.356,3.556,2.498c1.099,1.141,2.193,2.633,3.275,4.474
	c1.083,1.842,2.308,4.101,3.679,6.778C898.945,88.807,903.15,97.068,907.378,105.344z M880.624,75.06
	c-1.88,7.075-3.777,14.158-5.691,21.249c5.357,0.138,10.714,0.313,16.072,0.526c-3.417-7.266-6.818-14.522-10.201-21.769
	L880.624,75.06z"/>
<path fill="#FFFFFF" d="M936.711,110.9c0.086,0.911-0.004,1.749-0.27,2.51c-0.267,0.762-0.676,1.414-1.222,1.956
	c-0.547,0.542-1.207,0.948-1.979,1.22c-0.774,0.272-1.632,0.372-2.578,0.302c-0.947-0.071-1.845-0.302-2.698-0.695
	c-0.853-0.393-1.617-0.906-2.294-1.539c-0.674-0.633-1.236-1.357-1.68-2.172c-0.445-0.814-0.721-1.679-0.829-2.592
	c-0.473-4.023-0.946-8.046-1.419-12.069c-5.23-7.132-10.432-14.234-15.607-21.307c-0.535-0.716-0.935-1.408-1.2-2.075
	c-0.268-0.667-0.435-1.314-0.506-1.938c-0.094-0.824-0.017-1.567,0.229-2.229c0.247-0.661,0.612-1.223,1.094-1.683
	c0.481-0.46,1.061-0.803,1.735-1.03c0.675-0.227,1.394-0.317,2.16-0.271c1.147,0.069,2.334,0.474,3.559,1.215
	c1.226,0.741,2.324,1.907,3.292,3.496c3.829,6.035,7.675,12.085,11.537,18.152l0.145,0.011c2.594-5.625,5.17-11.235,7.728-16.83
	c0.631-1.402,1.457-2.378,2.479-2.928c1.02-0.55,2.092-0.773,3.215-0.671c0.668,0.061,1.323,0.231,1.96,0.512
	c0.638,0.279,1.208,0.642,1.714,1.086c0.503,0.444,0.926,0.97,1.262,1.575c0.334,0.606,0.548,1.254,0.635,1.945
	c0.073,0.58,0.054,1.178-0.058,1.796c-0.111,0.617-0.353,1.25-0.72,1.897c-3.697,6.666-7.423,13.361-11.179,20.086
	C935.716,102.719,936.214,106.809,936.711,110.9z"/>
</svg>
