<?xml version="1.0" encoding="utf-8"?>
<!-- Generator: Adobe Illustrator 17.0.0, SVG Export Plug-In . SVG Version: 6.00 Build 0)  -->
<!DOCTYPE svg PUBLIC "-//W3C//DTD SVG 1.1//EN" "http://www.w3.org/Graphics/SVG/1.1/DTD/svg11.dtd">
<svg version="1.1" id="Layer_1" xmlns="http://www.w3.org/2000/svg" xmlns:xlink="http://www.w3.org/1999/xlink" x="0px" y="0px"
	 width="445.909px" height="103.824px" viewBox="0 0 445.909 103.824" enable-background="new 0 0 445.909 103.824"
	 xml:space="preserve">
<path fill="#3F1031" d="M18.798,7.661C13.4,8.329,8.868,10.6,5.555,14.327C1.972,18.357,0,23.819,0,29.708
	c0,5.889,1.972,11.351,5.555,15.381c3.313,3.727,7.845,5.998,13.243,6.666V45.09c-8.054-1.552-12.244-8.504-12.244-15.382
	s4.191-13.83,12.244-15.382V7.661z"/>
<path fill="#3F1031" d="M18.798,52.069c-5.398,0.669-9.93,2.94-13.243,6.666C1.972,62.765,0,68.227,0,74.116
	c0,5.889,1.972,11.351,5.555,15.381c3.313,3.727,7.845,5.998,13.243,6.666v-6.665c-8.054-1.552-12.244-8.504-12.244-15.382
	s4.191-13.83,12.244-15.382V52.069z"/>
<rect x="35.112" y="24.526" fill="#010101" width="394.447" height="62.947"/>
<path fill="#010101" d="M445.909,95.649c0,4.497-3.679,8.176-8.176,8.176H26.936c-4.497,0-8.176-3.679-8.176-8.176V16.351
	c0-4.497,3.679-8.176,8.176-8.176h410.798c4.497,0,8.176,3.679,8.176,8.176V95.649z"/>
<path fill="#2C3553" d="M445.909,87.473c0,4.497-3.679,8.176-8.176,8.176H26.936c-4.497,0-8.176-3.679-8.176-8.176V8.176
	C18.76,3.679,22.439,0,26.936,0h410.798c4.497,0,8.176,3.679,8.176,8.176V87.473z"/>
<rect x="26.936" y="8.175" opacity="0.5" fill="none" stroke="#FFFFFF" stroke-miterlimit="10" width="410.798" height="79.298"/>
<rect x="35.112" y="16.351" fill="#010101" width="394.447" height="62.947"/>
</svg>
