<?xml version="1.0" encoding="utf-8"?>
<!-- Generator: Adobe Illustrator 17.0.0, SVG Export Plug-In . SVG Version: 6.00 Build 0)  -->
<!DOCTYPE svg PUBLIC "-//W3C//DTD SVG 1.1//EN" "http://www.w3.org/Graphics/SVG/1.1/DTD/svg11.dtd">
<svg version="1.1" id="Layer_1" xmlns="http://www.w3.org/2000/svg" xmlns:xlink="http://www.w3.org/1999/xlink" x="0px" y="0px"
	 width="492.71px" height="95.071px" viewBox="0 0 492.71 95.071" enable-background="new 0 0 492.71 95.071" xml:space="preserve">
<path fill="#FFFFFF" d="M44.496,40.06c0.278-0.358,0.643-0.652,1.095-0.881c0.451-0.229,0.965-0.396,1.54-0.502
	c0.575-0.104,1.16-0.157,1.753-0.157c0.631,0,1.209,0.031,1.735,0.093c0.525,0.062,1.036,0.161,1.531,0.297
	c0.495,0.137,0.993,0.31,1.494,0.52c0.501,0.211,1.042,0.464,1.624,0.761c0.309,0.161,0.649,0.241,1.021,0.241
	c0.284,0,0.56-0.053,0.826-0.158c0.266-0.104,0.498-0.25,0.696-0.436c0.198-0.186,0.355-0.408,0.473-0.668
	c0.117-0.26,0.176-0.544,0.176-0.854c0-0.531-0.158-1.014-0.473-1.447c-0.315-0.433-0.733-0.819-1.252-1.16
	c-0.52-0.34-1.117-0.637-1.791-0.891c-0.674-0.253-1.376-0.46-2.106-0.621c-0.73-0.16-1.46-0.281-2.189-0.361
	c-0.73-0.081-1.404-0.121-2.022-0.121c-1.707,0-3.244,0.192-4.611,0.575c-1.367,0.384-2.53,0.928-3.488,1.633
	c-0.959,0.705-1.695,1.559-2.208,2.561c-0.514,1.002-0.77,2.122-0.77,3.358c0,0.94,0.121,1.766,0.362,2.477
	c0.241,0.712,0.615,1.346,1.123,1.902c0.507,0.557,1.163,1.058,1.967,1.503c0.804,0.445,1.769,0.872,2.895,1.28l1.744,0.612
	c0.148,0.05,0.278,0.096,0.39,0.14c0.111,0.043,0.226,0.086,0.343,0.129c0.117,0.044,0.25,0.087,0.399,0.131
	c0.148,0.043,0.328,0.09,0.538,0.139l0.965,0.278c0.173,0.05,0.334,0.103,0.482,0.157c0.148,0.057,0.303,0.109,0.464,0.158
	l0.835,0.297c0.383,0.137,0.748,0.294,1.095,0.473c0.346,0.18,0.649,0.391,0.909,0.631c0.26,0.242,0.464,0.523,0.612,0.845
	c0.148,0.322,0.223,0.687,0.223,1.095c0,0.545-0.124,1.009-0.371,1.392c-0.248,0.384-0.584,0.696-1.011,0.937
	c-0.427,0.242-0.922,0.421-1.484,0.539c-0.563,0.117-1.16,0.176-1.791,0.176c-1.163,0-2.276-0.154-3.34-0.464
	c-1.064-0.309-2.022-0.655-2.876-1.039c-0.26-0.099-0.504-0.21-0.733-0.334c-0.229-0.123-0.452-0.238-0.668-0.343
	c-0.217-0.105-0.43-0.195-0.64-0.27c-0.21-0.074-0.427-0.111-0.649-0.111c-0.248,0-0.498,0.074-0.751,0.223
	c-0.254,0.148-0.482,0.344-0.687,0.584c-0.204,0.242-0.371,0.511-0.501,0.808s-0.195,0.601-0.195,0.909
	c0,0.482,0.154,0.938,0.464,1.363c0.309,0.428,0.736,0.82,1.28,1.179c0.544,0.359,1.181,0.681,1.911,0.965
	c0.729,0.285,1.509,0.526,2.338,0.724c0.829,0.197,1.688,0.35,2.579,0.455c0.891,0.104,1.775,0.157,2.653,0.157
	c1.707,0,3.244-0.194,4.611-0.585c1.367-0.389,2.533-0.948,3.498-1.679c0.965-0.729,1.704-1.614,2.217-2.653
	c0.513-1.039,0.77-2.208,0.77-3.507c0-1.188-0.208-2.205-0.622-3.052c-0.415-0.848-1.002-1.58-1.763-2.199
	c-0.761-0.618-1.676-1.15-2.746-1.596c-1.07-0.445-2.261-0.865-3.572-1.262c-0.816-0.234-1.627-0.464-2.431-0.687
	c-0.804-0.223-1.525-0.482-2.162-0.779c-0.637-0.297-1.154-0.649-1.549-1.058c-0.396-0.408-0.594-0.909-0.594-1.503
	C44.078,40.858,44.217,40.419,44.496,40.06z"/>
<path fill="#FFFFFF" d="M67.552,39.243v18.425c0,0.508,0.089,0.98,0.269,1.419c0.179,0.439,0.423,0.823,0.733,1.15
	c0.309,0.328,0.671,0.585,1.085,0.771c0.414,0.186,0.863,0.278,1.345,0.278s0.931-0.093,1.345-0.278
	c0.414-0.186,0.779-0.442,1.095-0.771c0.315-0.327,0.562-0.711,0.742-1.15c0.179-0.438,0.269-0.911,0.269-1.419V39.243h4.973
	c0.358,0,0.699-0.064,1.021-0.195c0.321-0.129,0.603-0.306,0.844-0.528s0.433-0.482,0.575-0.779
	c0.142-0.297,0.213-0.612,0.213-0.946s-0.071-0.652-0.213-0.955c-0.143-0.304-0.334-0.566-0.575-0.789s-0.523-0.398-0.844-0.529
	c-0.322-0.129-0.662-0.194-1.021-0.194h-16.94c-0.359,0-0.699,0.065-1.021,0.194c-0.322,0.131-0.603,0.307-0.844,0.529
	s-0.433,0.485-0.575,0.789c-0.143,0.303-0.213,0.621-0.213,0.955s0.071,0.649,0.213,0.946c0.142,0.297,0.334,0.557,0.575,0.779
	s0.522,0.399,0.844,0.528c0.321,0.131,0.662,0.195,1.021,0.195H67.552z"/>
<path fill="#FFFFFF" d="M101.079,61.286c0.334,0,0.646-0.062,0.937-0.186c0.291-0.123,0.547-0.294,0.77-0.51
	c0.223-0.217,0.396-0.471,0.52-0.762c0.124-0.29,0.186-0.603,0.186-0.937s-0.062-0.646-0.186-0.937
	c-0.124-0.291-0.297-0.548-0.52-0.771s-0.479-0.396-0.77-0.52c-0.291-0.123-0.603-0.186-0.937-0.186h-10.02v-6.494h8.721
	c0.358,0,0.696-0.062,1.011-0.186c0.315-0.123,0.59-0.294,0.826-0.511c0.235-0.216,0.42-0.47,0.557-0.76
	c0.136-0.291,0.204-0.604,0.204-0.938s-0.068-0.646-0.204-0.938c-0.136-0.29-0.322-0.547-0.557-0.77
	c-0.235-0.223-0.51-0.396-0.826-0.52c-0.315-0.123-0.653-0.186-1.011-0.186h-8.721v-6.012h9.556c0.358,0,0.696-0.062,1.011-0.186
	c0.315-0.123,0.59-0.294,0.826-0.51c0.235-0.217,0.42-0.471,0.557-0.762c0.136-0.29,0.204-0.603,0.204-0.937
	s-0.068-0.649-0.204-0.946c-0.136-0.297-0.322-0.554-0.557-0.77c-0.235-0.217-0.51-0.391-0.826-0.52
	c-0.315-0.131-0.653-0.195-1.011-0.195H88.703c-0.965,0-1.732,0.124-2.301,0.371c-0.569,0.248-1.002,0.588-1.299,1.021
	c-0.297,0.434-0.489,0.949-0.575,1.55c-0.087,0.6-0.13,1.252-0.13,1.957v17.683c0,0.52,0.056,1.039,0.167,1.559
	s0.297,0.986,0.557,1.401c0.26,0.414,0.603,0.751,1.03,1.011s0.956,0.39,1.586,0.39H101.079z"/>
<path fill="#FFFFFF" d="M113.914,46.869v-8.368h3.433c0.742,0,1.419,0.068,2.032,0.204c0.612,0.137,1.138,0.359,1.577,0.668
	c0.439,0.31,0.782,0.714,1.03,1.216c0.247,0.5,0.371,1.185,0.371,2.05c0,0.879-0.13,1.577-0.39,2.097s-0.622,0.938-1.085,1.252
	c-0.464,0.316-1.024,0.542-1.679,0.678c-0.656,0.137-1.379,0.204-2.171,0.204H113.914z M113.914,51.007h4.249
	c1.633,0,3.123-0.17,4.472-0.51c1.348-0.341,2.501-0.856,3.46-1.55c0.958-0.692,1.701-1.562,2.227-2.606
	c0.525-1.046,0.789-2.279,0.789-3.702c0-1.645-0.303-3.006-0.909-4.082c-0.606-1.076-1.417-1.927-2.431-2.552
	c-1.015-0.624-2.18-1.06-3.498-1.308c-1.317-0.247-2.688-0.371-4.11-0.371h-6.698c-1.002,0-1.797,0.133-2.384,0.399
	c-0.588,0.266-1.033,0.628-1.336,1.085c-0.303,0.458-0.501,0.999-0.594,1.624c-0.093,0.624-0.139,1.289-0.139,1.994v18.239
	c0,0.508,0.089,0.98,0.269,1.419c0.179,0.439,0.423,0.823,0.733,1.15c0.309,0.328,0.671,0.585,1.085,0.771
	c0.414,0.186,0.863,0.278,1.345,0.278s0.931-0.093,1.345-0.278c0.414-0.186,0.779-0.442,1.095-0.771
	c0.315-0.327,0.566-0.711,0.751-1.15c0.186-0.438,0.278-0.911,0.278-1.419V51.007z"/>
<path fill="#FFFFFF" d="M162.413,43.363l11.059,15.029c0.309,0.408,0.625,0.789,0.946,1.141c0.321,0.354,0.652,0.659,0.993,0.919
	c0.34,0.26,0.692,0.464,1.058,0.612c0.365,0.148,0.739,0.223,1.123,0.223c0.717,0,1.292-0.142,1.726-0.427
	c0.433-0.284,0.767-0.661,1.002-1.132c0.235-0.47,0.39-1.018,0.464-1.643c0.074-0.624,0.111-1.276,0.111-1.957V37.24
	c0-0.408-0.078-0.789-0.232-1.141c-0.155-0.354-0.362-0.659-0.622-0.919s-0.566-0.467-0.918-0.622
	c-0.353-0.154-0.733-0.231-1.141-0.231s-0.789,0.077-1.141,0.231c-0.353,0.155-0.659,0.362-0.918,0.622s-0.464,0.565-0.612,0.919
	c-0.148,0.352-0.223,0.732-0.223,1.141v14.825l-10.947-14.844c-0.297-0.396-0.606-0.771-0.928-1.122
	c-0.322-0.354-0.656-0.659-1.002-0.919c-0.347-0.26-0.708-0.467-1.085-0.622c-0.377-0.154-0.764-0.231-1.16-0.231
	c-0.47,0-0.909,0.083-1.317,0.251c-0.408,0.166-0.764,0.411-1.067,0.732c-0.303,0.322-0.544,0.718-0.724,1.188
	c-0.18,0.471-0.269,1.009-0.269,1.614v20.262c0,0.408,0.074,0.788,0.223,1.142c0.148,0.352,0.353,0.658,0.612,0.918
	s0.566,0.467,0.918,0.621c0.353,0.155,0.733,0.232,1.141,0.232s0.789-0.077,1.141-0.232c0.353-0.154,0.662-0.361,0.928-0.621
	c0.266-0.26,0.476-0.566,0.631-0.918c0.154-0.354,0.232-0.733,0.232-1.142V43.363z M150.964,37.945c0-0.507-0.09-0.98-0.269-1.42
	c-0.18-0.438-0.427-0.822-0.742-1.15c-0.315-0.327-0.681-0.584-1.095-0.77c-0.415-0.186-0.863-0.278-1.345-0.278
	s-0.931,0.093-1.345,0.278c-0.415,0.186-0.776,0.442-1.085,0.77c-0.31,0.328-0.554,0.712-0.733,1.15
	c-0.18,0.439-0.269,0.913-0.269,1.42v19.724c0,0.508,0.089,0.98,0.269,1.419c0.179,0.439,0.423,0.823,0.733,1.15
	c0.309,0.328,0.671,0.585,1.085,0.771c0.414,0.186,0.863,0.278,1.345,0.278s0.931-0.093,1.345-0.278
	c0.414-0.186,0.779-0.442,1.095-0.771c0.315-0.327,0.562-0.711,0.742-1.15c0.179-0.438,0.269-0.911,0.269-1.419V37.945z"/>
<path fill="#FFFFFF" d="M188.786,39.243v18.425c0,0.508,0.089,0.98,0.269,1.419c0.179,0.439,0.423,0.823,0.733,1.15
	c0.309,0.328,0.671,0.585,1.085,0.771c0.414,0.186,0.863,0.278,1.345,0.278s0.931-0.093,1.345-0.278
	c0.414-0.186,0.779-0.442,1.095-0.771c0.315-0.327,0.562-0.711,0.742-1.15c0.179-0.438,0.269-0.911,0.269-1.419V39.243h4.973
	c0.358,0,0.699-0.064,1.021-0.195c0.321-0.129,0.603-0.306,0.844-0.528s0.433-0.482,0.575-0.779
	c0.142-0.297,0.213-0.612,0.213-0.946s-0.071-0.652-0.213-0.955c-0.143-0.304-0.334-0.566-0.575-0.789s-0.523-0.398-0.844-0.529
	c-0.322-0.129-0.662-0.194-1.021-0.194h-16.94c-0.359,0-0.699,0.065-1.021,0.194c-0.322,0.131-0.603,0.307-0.844,0.529
	s-0.433,0.485-0.575,0.789c-0.143,0.303-0.213,0.621-0.213,0.955s0.071,0.649,0.213,0.946c0.142,0.297,0.334,0.557,0.575,0.779
	s0.522,0.399,0.844,0.528c0.321,0.131,0.662,0.195,1.021,0.195H188.786z"/>
<path fill="#FFFFFF" d="M203.653,53.642c0.575,1.732,1.425,3.213,2.551,4.443c1.125,1.231,2.514,2.181,4.166,2.849
	s3.547,1.002,5.687,1.002c2.189,0,4.113-0.347,5.771-1.039c1.657-0.692,3.043-1.661,4.156-2.903c1.113-1.244,1.948-2.73,2.505-4.463
	c0.557-1.731,0.835-3.63,0.835-5.696c0-2.103-0.285-4.02-0.854-5.752c-0.569-1.731-1.41-3.22-2.523-4.462
	c-1.113-1.244-2.499-2.205-4.156-2.886c-1.658-0.68-3.569-1.021-5.733-1.021c-2.227,0-4.169,0.353-5.826,1.058
	c-1.658,0.705-3.037,1.683-4.138,2.932c-1.101,1.25-1.927,2.74-2.477,4.472c-0.551,1.732-0.826,3.618-0.826,5.659
	C202.79,49.975,203.078,51.91,203.653,53.642z M210.37,43.872c0.241-1.156,0.609-2.13,1.104-2.922
	c0.495-0.791,1.123-1.395,1.883-1.809c0.761-0.415,1.661-0.622,2.7-0.622c1.051,0,1.958,0.207,2.718,0.622
	c0.761,0.414,1.388,1.018,1.883,1.809c0.495,0.792,0.863,1.766,1.104,2.922c0.241,1.157,0.362,2.478,0.362,3.962
	c0,3.08-0.501,5.399-1.503,6.958s-2.523,2.338-4.564,2.338c-2.078,0-3.606-0.782-4.583-2.348c-0.978-1.564-1.466-3.88-1.466-6.948
	C210.008,46.35,210.128,45.03,210.37,43.872z"/>
<path fill="#FFFFFF" d="M253.928,50.859l7.106-11.819c0.235-0.383,0.402-0.751,0.501-1.104c0.099-0.352,0.148-0.688,0.148-1.011
	c0-0.383-0.068-0.735-0.204-1.058c-0.136-0.321-0.322-0.594-0.557-0.816c-0.235-0.223-0.51-0.396-0.826-0.52
	c-0.315-0.123-0.646-0.186-0.993-0.186c-0.582,0-1.157,0.18-1.726,0.538c-0.569,0.359-1.064,0.946-1.484,1.763l-5.084,9.778h-0.074
	l-4.88-9.704c-0.408-0.854-0.909-1.466-1.503-1.837s-1.188-0.557-1.781-0.557c-0.396,0-0.776,0.074-1.141,0.223
	c-0.365,0.148-0.687,0.359-0.965,0.631c-0.278,0.272-0.501,0.597-0.668,0.974c-0.167,0.378-0.25,0.796-0.25,1.253
	c0,0.347,0.049,0.702,0.148,1.067c0.099,0.364,0.266,0.739,0.501,1.122l6.81,11.374v6.698c0,0.508,0.089,0.98,0.269,1.419
	c0.179,0.439,0.423,0.823,0.733,1.15c0.309,0.328,0.671,0.585,1.085,0.771c0.414,0.186,0.863,0.278,1.345,0.278
	s0.931-0.093,1.345-0.278c0.414-0.186,0.779-0.442,1.095-0.771c0.315-0.327,0.566-0.711,0.751-1.15
	c0.186-0.438,0.284-0.911,0.297-1.419V50.859z"/>
<path fill="#FFFFFF" d="M262.561,53.642c0.575,1.732,1.425,3.213,2.551,4.443c1.125,1.231,2.514,2.181,4.166,2.849
	s3.547,1.002,5.687,1.002c2.189,0,4.113-0.347,5.771-1.039c1.657-0.692,3.043-1.661,4.156-2.903c1.113-1.244,1.948-2.73,2.505-4.463
	c0.557-1.731,0.835-3.63,0.835-5.696c0-2.103-0.285-4.02-0.854-5.752c-0.569-1.731-1.41-3.22-2.523-4.462
	c-1.113-1.244-2.499-2.205-4.156-2.886c-1.658-0.68-3.569-1.021-5.733-1.021c-2.227,0-4.169,0.353-5.826,1.058
	c-1.658,0.705-3.037,1.683-4.138,2.932c-1.101,1.25-1.927,2.74-2.477,4.472c-0.551,1.732-0.826,3.618-0.826,5.659
	C261.698,49.975,261.985,51.91,262.561,53.642z M269.277,43.872c0.241-1.156,0.609-2.13,1.104-2.922
	c0.495-0.791,1.123-1.395,1.883-1.809c0.761-0.415,1.661-0.622,2.7-0.622c1.051,0,1.958,0.207,2.718,0.622
	c0.761,0.414,1.388,1.018,1.883,1.809c0.495,0.792,0.863,1.766,1.104,2.922c0.241,1.157,0.362,2.478,0.362,3.962
	c0,3.08-0.501,5.399-1.503,6.958s-2.523,2.338-4.564,2.338c-2.078,0-3.606-0.782-4.583-2.348c-0.978-1.564-1.466-3.88-1.466-6.948
	C268.916,46.35,269.036,45.03,269.277,43.872z"/>
<path fill="#FFFFFF" d="M307.456,52.046c0,0.891-0.139,1.658-0.417,2.301c-0.278,0.644-0.64,1.169-1.085,1.577
	s-0.95,0.712-1.512,0.909c-0.563,0.198-1.141,0.297-1.735,0.297c-0.582,0-1.154-0.099-1.716-0.297
	c-0.563-0.197-1.064-0.501-1.503-0.909c-0.439-0.408-0.795-0.934-1.067-1.577c-0.272-0.643-0.408-1.41-0.408-2.301l-0.019-14.102
	c0-0.507-0.09-0.98-0.269-1.42c-0.18-0.438-0.427-0.822-0.742-1.15c-0.315-0.327-0.681-0.584-1.095-0.77
	c-0.415-0.186-0.863-0.278-1.345-0.278s-0.931,0.093-1.345,0.278c-0.415,0.186-0.776,0.442-1.085,0.77
	c-0.31,0.328-0.554,0.712-0.733,1.15c-0.18,0.439-0.269,0.913-0.269,1.42v14.213c0,1.658,0.291,3.099,0.872,4.323
	c0.581,1.225,1.388,2.239,2.421,3.043c1.033,0.805,2.257,1.407,3.674,1.81c1.416,0.401,2.959,0.603,4.629,0.603
	c1.694,0,3.253-0.204,4.676-0.612c1.422-0.408,2.65-1.021,3.683-1.837c1.033-0.816,1.837-1.834,2.412-3.052
	c0.575-1.219,0.863-2.645,0.863-4.277V37.945c0-0.507-0.09-0.98-0.269-1.42c-0.18-0.438-0.427-0.822-0.742-1.15
	c-0.315-0.327-0.681-0.584-1.095-0.77c-0.415-0.186-0.863-0.278-1.345-0.278s-0.931,0.093-1.345,0.278
	c-0.415,0.186-0.776,0.442-1.085,0.77c-0.31,0.328-0.554,0.712-0.733,1.15c-0.18,0.439-0.269,0.913-0.269,1.42V52.046z"/>
<path fill="#FFFFFF" d="M325.73,45.886v-7.385h2.802c0.754,0,1.481,0.027,2.18,0.084c0.699,0.055,1.314,0.201,1.846,0.436
	c0.532,0.235,0.958,0.588,1.28,1.058c0.321,0.471,0.482,1.176,0.482,2.115c0,0.816-0.167,1.469-0.501,1.958
	c-0.334,0.488-0.77,0.859-1.308,1.113c-0.538,0.253-1.141,0.42-1.809,0.5c-0.668,0.081-1.336,0.121-2.004,0.121H325.73z
	 M325.841,50.191h3.767c0.915,0,1.636,0.093,2.162,0.278c0.525,0.186,0.931,0.501,1.215,0.946c0.284,0.445,0.492,1.029,0.622,1.754
	c0.13,0.723,0.256,1.623,0.38,2.699c0.086,0.742,0.201,1.438,0.343,2.088c0.142,0.648,0.349,1.222,0.622,1.716
	c0.272,0.495,0.615,0.885,1.03,1.169c0.414,0.285,0.931,0.427,1.549,0.427c0.68,0,1.237-0.09,1.67-0.269
	c0.433-0.18,0.773-0.43,1.021-0.752c0.247-0.321,0.42-0.705,0.52-1.15c0.099-0.445,0.148-0.934,0.148-1.466
	c0-0.247-0.006-0.498-0.019-0.751c-0.013-0.254-0.031-0.517-0.056-0.789c-0.087-0.977-0.18-1.853-0.278-2.625
	c-0.099-0.773-0.229-1.463-0.39-2.069c-0.161-0.605-0.365-1.132-0.612-1.577c-0.248-0.445-0.569-0.826-0.965-1.141
	c-0.396-0.316-0.875-0.569-1.438-0.762c-0.563-0.191-1.24-0.336-2.032-0.436v-0.074c1.101-0.186,2.032-0.473,2.792-0.863
	c0.761-0.389,1.376-0.859,1.846-1.41c0.47-0.55,0.81-1.168,1.021-1.855c0.21-0.686,0.315-1.412,0.315-2.18
	c0-1.41-0.288-2.554-0.863-3.433c-0.575-0.878-1.342-1.564-2.301-2.06c-0.959-0.494-2.069-0.832-3.331-1.012
	c-1.262-0.179-2.579-0.269-3.952-0.269h-7.44c-0.569,0-1.11,0.071-1.624,0.214c-0.514,0.142-0.962,0.355-1.345,0.64
	c-0.384,0.285-0.69,0.64-0.918,1.067c-0.229,0.426-0.343,0.925-0.343,1.493v19.928c0,0.508,0.089,0.98,0.269,1.419
	c0.179,0.439,0.423,0.823,0.733,1.15c0.309,0.328,0.671,0.585,1.085,0.771c0.414,0.186,0.863,0.278,1.345,0.278
	s0.931-0.093,1.345-0.278c0.414-0.186,0.779-0.442,1.095-0.771c0.315-0.327,0.562-0.711,0.742-1.15
	c0.179-0.438,0.269-0.911,0.269-1.419V50.191z"/>
<path fill="#FFFFFF" d="M362.439,56.481L374.5,39.392c0.309-0.433,0.578-0.896,0.807-1.392c0.229-0.494,0.343-0.952,0.343-1.373
	c0-0.42-0.083-0.779-0.25-1.076s-0.393-0.535-0.677-0.714c-0.285-0.18-0.616-0.31-0.993-0.391c-0.377-0.08-0.783-0.12-1.215-0.12
	h-15.549c-0.334,0-0.646,0.062-0.937,0.186c-0.291,0.124-0.544,0.297-0.761,0.52c-0.217,0.223-0.387,0.479-0.51,0.771
	c-0.124,0.29-0.186,0.603-0.186,0.937s0.062,0.646,0.186,0.937c0.124,0.291,0.293,0.545,0.51,0.762
	c0.216,0.216,0.47,0.387,0.761,0.51c0.291,0.124,0.603,0.186,0.937,0.186h10.483c-2.004,2.846-3.999,5.685-5.984,8.517
	c-1.985,2.833-3.986,5.672-6.002,8.517c-0.322,0.458-0.597,0.946-0.826,1.466c-0.229,0.52-0.343,0.983-0.343,1.392
	c0,0.31,0.059,0.604,0.176,0.881c0.117,0.279,0.291,0.52,0.52,0.725c0.229,0.203,0.516,0.364,0.863,0.482
	c0.346,0.117,0.742,0.176,1.188,0.176h16.235c0.334,0,0.646-0.062,0.937-0.186c0.291-0.123,0.547-0.294,0.77-0.51
	c0.223-0.217,0.396-0.471,0.52-0.762c0.124-0.29,0.186-0.603,0.186-0.937s-0.062-0.646-0.186-0.937
	c-0.124-0.291-0.297-0.548-0.52-0.771s-0.479-0.396-0.77-0.52c-0.291-0.123-0.603-0.186-0.937-0.186H362.439z"/>
<path fill="#FFFFFF" d="M413.592,43.363l11.059,15.029c0.309,0.408,0.625,0.789,0.946,1.141c0.321,0.354,0.652,0.659,0.993,0.919
	c0.34,0.26,0.692,0.464,1.058,0.612c0.365,0.148,0.739,0.223,1.123,0.223c0.717,0,1.292-0.142,1.726-0.427
	c0.433-0.284,0.767-0.661,1.002-1.132c0.235-0.47,0.39-1.018,0.464-1.643c0.074-0.624,0.111-1.276,0.111-1.957V37.24
	c0-0.408-0.078-0.789-0.232-1.141c-0.155-0.354-0.362-0.659-0.622-0.919s-0.566-0.467-0.918-0.622
	c-0.353-0.154-0.733-0.231-1.141-0.231s-0.789,0.077-1.141,0.231c-0.353,0.155-0.659,0.362-0.918,0.622s-0.464,0.565-0.612,0.919
	c-0.148,0.352-0.223,0.732-0.223,1.141v14.825l-10.947-14.844c-0.297-0.396-0.606-0.771-0.928-1.122
	c-0.322-0.354-0.656-0.659-1.002-0.919c-0.347-0.26-0.708-0.467-1.085-0.622c-0.377-0.154-0.764-0.231-1.16-0.231
	c-0.47,0-0.909,0.083-1.317,0.251c-0.408,0.166-0.764,0.411-1.067,0.732c-0.303,0.322-0.544,0.718-0.724,1.188
	c-0.18,0.471-0.269,1.009-0.269,1.614v20.262c0,0.408,0.074,0.788,0.223,1.142c0.148,0.352,0.353,0.658,0.612,0.918
	s0.566,0.467,0.918,0.621c0.353,0.155,0.733,0.232,1.141,0.232s0.789-0.077,1.141-0.232c0.353-0.154,0.662-0.361,0.928-0.621
	c0.266-0.26,0.476-0.566,0.631-0.918c0.154-0.354,0.232-0.733,0.232-1.142V43.363z M377.735,53.642
	c0.575,1.732,1.425,3.213,2.551,4.443c1.125,1.231,2.514,2.181,4.166,2.849s3.547,1.002,5.687,1.002
	c2.189,0,4.113-0.347,5.771-1.039c1.657-0.692,3.043-1.661,4.156-2.903c1.113-1.244,1.948-2.73,2.505-4.463
	c0.557-1.731,0.835-3.63,0.835-5.696c0-2.103-0.285-4.02-0.854-5.752c-0.569-1.731-1.41-3.22-2.523-4.462
	c-1.113-1.244-2.499-2.205-4.156-2.886c-1.658-0.68-3.569-1.021-5.733-1.021c-2.227,0-4.169,0.353-5.826,1.058
	c-1.658,0.705-3.037,1.683-4.138,2.932c-1.101,1.25-1.927,2.74-2.477,4.472c-0.551,1.732-0.826,3.618-0.826,5.659
	C376.872,49.975,377.16,51.91,377.735,53.642z M384.452,43.872c0.241-1.156,0.609-2.13,1.104-2.922
	c0.495-0.791,1.123-1.395,1.883-1.809c0.761-0.415,1.661-0.622,2.7-0.622c1.051,0,1.958,0.207,2.718,0.622
	c0.761,0.414,1.388,1.018,1.883,1.809c0.495,0.792,0.863,1.766,1.104,2.922c0.241,1.157,0.362,2.478,0.362,3.962
	c0,3.08-0.501,5.399-1.503,6.958s-2.523,2.338-4.564,2.338c-2.078,0-3.606-0.782-4.583-2.348c-0.978-1.564-1.466-3.88-1.466-6.948
	C384.09,46.35,384.21,45.03,384.452,43.872z"/>
<path fill="#FFFFFF" d="M452.382,61.286c0.334,0,0.646-0.062,0.937-0.186c0.291-0.123,0.547-0.294,0.77-0.51
	c0.223-0.217,0.396-0.471,0.52-0.762c0.124-0.29,0.186-0.603,0.186-0.937s-0.062-0.646-0.186-0.937
	c-0.124-0.291-0.297-0.548-0.52-0.771s-0.479-0.396-0.77-0.52c-0.291-0.123-0.603-0.186-0.937-0.186h-10.02v-6.494h8.721
	c0.358,0,0.696-0.062,1.011-0.186c0.315-0.123,0.59-0.294,0.826-0.511c0.235-0.216,0.42-0.47,0.557-0.76
	c0.136-0.291,0.204-0.604,0.204-0.938s-0.068-0.646-0.204-0.938c-0.136-0.29-0.322-0.547-0.557-0.77
	c-0.235-0.223-0.51-0.396-0.826-0.52c-0.315-0.123-0.653-0.186-1.011-0.186h-8.721v-6.012h9.556c0.358,0,0.696-0.062,1.011-0.186
	c0.315-0.123,0.59-0.294,0.826-0.51c0.235-0.217,0.42-0.471,0.557-0.762c0.136-0.29,0.204-0.603,0.204-0.937
	s-0.068-0.649-0.204-0.946c-0.136-0.297-0.322-0.554-0.557-0.77c-0.235-0.217-0.51-0.391-0.826-0.52
	c-0.315-0.131-0.653-0.195-1.011-0.195h-11.912c-0.965,0-1.732,0.124-2.301,0.371c-0.569,0.248-1.002,0.588-1.299,1.021
	c-0.297,0.434-0.489,0.949-0.575,1.55c-0.087,0.6-0.13,1.252-0.13,1.957v17.683c0,0.52,0.056,1.039,0.167,1.559
	s0.297,0.986,0.557,1.401c0.26,0.414,0.603,0.751,1.03,1.011s0.956,0.39,1.586,0.39H452.382z"/>
<path fill="#FFFFFF" d="M487.104,89.535v-2H7.606v-80h477.498v82H487.104v-2V89.535h2v-84c0-0.527-0.213-1.042-0.586-1.414
	c-0.372-0.372-0.888-0.586-1.414-0.586H5.606c-0.527,0-1.042,0.213-1.414,0.586C3.819,4.494,3.606,5.009,3.606,5.535v84
	c0,0.527,0.213,1.042,0.586,1.414c0.372,0.372,0.888,0.586,1.414,0.586h481.498c0.527,0,1.042-0.213,1.414-0.586
	c0.372-0.372,0.586-0.888,0.586-1.414H487.104z"/>
<circle fill="#FFFFFF" cx="486.043" cy="6.667" r="6.667"/>
<circle fill="#FFFFFF" cx="6.667" cy="6.667" r="6.667"/>
<circle fill="#FFFFFF" cx="486.043" cy="88.404" r="6.667"/>
<circle fill="#FFFFFF" cx="6.667" cy="88.404" r="6.667"/>
</svg>
