<?xml version="1.0" encoding="utf-8"?>
<!-- Generator: Adobe Illustrator 17.0.0, SVG Export Plug-In . SVG Version: 6.00 Build 0)  -->
<!DOCTYPE svg PUBLIC "-//W3C//DTD SVG 1.1//EN" "http://www.w3.org/Graphics/SVG/1.1/DTD/svg11.dtd">
<svg version="1.1" id="Layer_1" xmlns="http://www.w3.org/2000/svg" xmlns:xlink="http://www.w3.org/1999/xlink" x="0px" y="0px"
	 width="591.149px" height="143.687px" viewBox="0 0 591.149 143.687" enable-background="new 0 0 591.149 143.687"
	 xml:space="preserve">
<rect x="22.629" y="33.943" fill="#010101" width="545.891" height="87.114"/>
<path fill="#010101" d="M591.149,132.372c0,6.223-5.091,11.314-11.314,11.314H11.314C5.091,143.687,0,138.595,0,132.372V22.629
	c0-6.223,5.091-11.314,11.314-11.314h568.52c6.223,0,11.314,5.091,11.314,11.314V132.372z"/>
<path fill="#2C3553" d="M591.149,121.058c0,6.223-5.091,11.314-11.314,11.314H11.314C5.091,132.372,0,127.281,0,121.058V11.314
	C0,5.091,5.091,0,11.314,0h568.52c6.223,0,11.314,5.091,11.314,11.314V121.058z"/>
<rect x="11.315" y="11.314" opacity="0.5" fill="none" stroke="#FFFFFF" stroke-miterlimit="10" width="568.52" height="109.743"/>
<rect x="22.629" y="22.629" fill="#010101" width="545.891" height="87.114"/>
<path fill="#54ffaf" d="M87.887,65.34c-2.535-0.013-5.11-0.02-7.725-0.02c-1.663,0-2.898,0.383-3.703,1.149
	c-0.807,0.766-1.209,1.756-1.209,2.971c0,0.792,0.146,1.459,0.437,2c0.29,0.542,0.692,0.978,1.208,1.307
	c0.515,0.331,1.115,0.568,1.802,0.713c0.687,0.146,1.439,0.218,2.259,0.218h5.308v12.953c-1.505,0.37-3.057,0.601-4.654,0.693
	c-1.599,0.093-3.189,0.139-4.773,0.139c-2.614,0-4.853-0.343-6.714-1.03c-1.862-0.686-3.388-1.795-4.576-3.327
	c-1.188-1.531-2.053-3.519-2.594-5.962c-0.542-2.442-0.812-5.42-0.812-8.933c0-3.169,0.304-6.021,0.911-8.556
	s1.571-4.687,2.892-6.457c1.32-1.769,3.017-3.123,5.09-4.061c2.073-0.937,4.562-1.406,7.468-1.406c1.188,0,2.501,0.152,3.941,0.456
	c1.438,0.304,2.852,0.647,4.238,1.03c1.387,0.383,2.687,0.727,3.901,1.03c1.215,0.304,2.192,0.456,2.932,0.456
	c1.479,0,2.72-0.422,3.724-1.268c1.003-0.845,1.505-2.086,1.505-3.724c0-1.003-0.291-1.935-0.871-2.793
	c-0.581-0.858-1.466-1.538-2.654-2.04c-1.188-0.501-2.489-0.963-3.901-1.386c-1.413-0.422-2.892-0.779-4.437-1.069
	s-3.149-0.521-4.813-0.693c-1.663-0.171-3.341-0.258-5.03-0.258c-5.203,0-9.705,0.792-13.508,2.377s-6.939,3.743-9.408,6.477
	c-2.47,2.733-4.305,5.929-5.506,9.586c-1.202,3.658-1.803,7.56-1.803,11.706c0,5.149,0.706,9.619,2.119,13.409
	s3.439,6.919,6.081,9.388c2.64,2.469,5.829,4.305,9.566,5.506c3.736,1.202,7.929,1.802,12.576,1.802c0.951,0,1.975-0.046,3.07-0.139
	c1.096-0.093,2.205-0.205,3.327-0.336c1.122-0.132,2.225-0.284,3.308-0.456c1.083-0.172,2.1-0.337,3.051-0.495
	c2.218-0.343,4.021-0.798,5.407-1.367c1.386-0.567,2.462-1.327,3.229-2.278c0.766-0.951,1.287-2.132,1.564-3.545
	c0.277-1.412,0.416-3.149,0.416-5.209V72.093c0-1.109-0.06-2.086-0.179-2.932c-0.119-0.845-0.351-1.551-0.693-2.119
	c-0.343-0.567-0.839-0.99-1.485-1.268c-0.647-0.277-1.485-0.416-2.516-0.416C93.01,65.359,90.422,65.353,87.887,65.34z"/>
<path fill="#54ffaf" d="M287.349,96.336c0.713,0,1.38-0.132,2-0.396c0.62-0.264,1.169-0.627,1.645-1.089
	c0.476-0.462,0.845-1.003,1.109-1.624c0.264-0.621,0.396-1.288,0.396-2c0-0.713-0.132-1.38-0.396-2
	c-0.265-0.62-0.634-1.168-1.109-1.644c-0.476-0.475-1.024-0.845-1.645-1.109c-0.62-0.264-1.287-0.396-2-0.396h-21.391V72.212h18.618
	c0.766,0,1.485-0.132,2.158-0.396c0.674-0.264,1.261-0.627,1.763-1.089c0.502-0.462,0.897-1.003,1.188-1.624
	c0.29-0.62,0.436-1.288,0.436-2s-0.146-1.38-0.436-2c-0.291-0.62-0.687-1.168-1.188-1.644c-0.502-0.475-1.089-0.845-1.763-1.109
	c-0.673-0.264-1.393-0.396-2.158-0.396h-18.618V49.118h20.4c0.766,0,1.485-0.132,2.159-0.396c0.673-0.264,1.261-0.627,1.763-1.089
	c0.501-0.461,0.897-1.003,1.188-1.624c0.29-0.62,0.436-1.287,0.436-2c0-0.713-0.146-1.386-0.436-2.02
	c-0.291-0.634-0.688-1.182-1.188-1.644c-0.502-0.462-1.09-0.832-1.763-1.109c-0.674-0.277-1.394-0.416-2.159-0.416h-25.432
	c-2.06,0-3.697,0.264-4.911,0.792c-1.216,0.529-2.14,1.255-2.773,2.179c-0.634,0.925-1.043,2.027-1.228,3.308
	c-0.186,1.281-0.277,2.674-0.277,4.179v37.75c0,1.109,0.118,2.218,0.356,3.328c0.237,1.109,0.634,2.106,1.188,2.991
	c0.555,0.885,1.287,1.604,2.198,2.159c0.911,0.555,2.04,0.832,3.387,0.832H287.349z M227.335,90.592
	c0,0.792,0.152,1.545,0.456,2.258c0.303,0.713,0.713,1.327,1.228,1.842c0.516,0.515,1.129,0.925,1.843,1.228
	c0.713,0.304,1.465,0.456,2.258,0.456c0.792,0,1.545-0.151,2.258-0.456c0.713-0.303,1.333-0.713,1.861-1.228
	c0.528-0.515,0.944-1.129,1.248-1.842s0.455-1.466,0.455-2.258V52.604c0-2.482-0.197-4.602-0.594-6.358
	c-0.396-1.756-0.997-3.189-1.803-4.298c-0.806-1.109-1.835-1.915-3.09-2.417c-1.254-0.501-2.727-0.752-4.416-0.752
	c-1.559,0-2.945,0.343-4.159,1.03c-1.216,0.687-2.338,1.664-3.367,2.931c-1.03,1.268-2.001,2.812-2.912,4.635
	s-1.842,3.869-2.792,6.14l-10.695,25.55h-0.317l-10.576-25.55c-1.109-2.667-2.133-4.938-3.07-6.813
	c-0.938-1.875-1.901-3.4-2.892-4.575c-0.99-1.175-2.06-2.026-3.209-2.555c-1.148-0.528-2.489-0.792-4.021-0.792
	c-2.139,0-3.862,0.363-5.169,1.089c-1.308,0.727-2.324,1.75-3.051,3.07c-0.727,1.321-1.208,2.925-1.445,4.813
	c-0.238,1.888-0.356,3.981-0.356,6.278v36.562c0,0.792,0.151,1.545,0.455,2.258s0.713,1.327,1.229,1.842
	c0.515,0.515,1.129,0.925,1.842,1.228c0.713,0.304,1.466,0.456,2.258,0.456s1.545-0.151,2.258-0.456
	c0.713-0.303,1.333-0.713,1.862-1.228c0.527-0.515,0.943-1.129,1.247-1.842s0.456-1.466,0.456-2.258V52.802L195.091,83.7
	c0.66,1.664,1.32,3.123,1.98,4.377c0.66,1.255,1.367,2.298,2.119,3.129c0.753,0.832,1.578,1.453,2.477,1.862
	c0.897,0.41,1.94,0.614,3.129,0.614c1.294,0,2.437-0.271,3.427-0.812c0.99-0.541,1.882-1.268,2.674-2.178
	c0.792-0.911,1.498-1.974,2.119-3.189c0.62-1.214,1.208-2.496,1.763-3.842l0.515-1.308c0.37-0.897,0.852-2.073,1.446-3.525
	c0.594-1.452,1.261-3.103,2-4.952c0.739-1.848,1.506-3.75,2.298-5.704c1.848-4.542,3.947-9.718,6.298-15.528V90.592z
	 M148.982,55.535c-1.188-3.116-2.271-5.744-3.248-7.883c-0.978-2.139-2.007-3.862-3.09-5.169s-2.298-2.244-3.645-2.812
	c-1.347-0.567-2.971-0.852-4.872-0.852c-2.034,0-3.764,0.363-5.189,1.089c-1.426,0.727-2.687,1.802-3.783,3.229
	c-1.096,1.426-2.099,3.176-3.01,5.249c-0.911,2.073-1.869,4.456-2.872,7.15l-10.656,28.798c-0.185,0.475-0.383,0.97-0.594,1.485
	c-0.212,0.515-0.41,1.037-0.595,1.564c-0.185,0.529-0.336,1.037-0.455,1.525c-0.119,0.489-0.179,0.931-0.179,1.327
	c0,0.977,0.179,1.842,0.535,2.594c0.356,0.753,0.838,1.387,1.446,1.901c0.606,0.515,1.312,0.911,2.119,1.188
	c0.805,0.277,1.656,0.416,2.555,0.416c1.03,0,1.928-0.139,2.693-0.416s1.446-0.726,2.04-1.347c0.595-0.62,1.136-1.446,1.624-2.476
	c0.488-1.03,0.971-2.297,1.446-3.803l1.624-5.031h22.421l1.901,5.031c0.555,1.479,1.075,2.727,1.564,3.744
	c0.488,1.017,1.023,1.842,1.604,2.476c0.58,0.634,1.241,1.096,1.98,1.387s1.624,0.436,2.654,0.436c0.897,0,1.749-0.139,2.555-0.416
	s1.512-0.673,2.119-1.188c0.607-0.515,1.09-1.148,1.446-1.901c0.356-0.752,0.534-1.617,0.534-2.594c0-0.396-0.06-0.838-0.178-1.327
	c-0.119-0.488-0.271-0.997-0.456-1.525c-0.185-0.528-0.383-1.049-0.594-1.564c-0.212-0.515-0.41-1.01-0.595-1.485L148.982,55.535z
	 M134.207,49.633l8.675,25.471h-17.588l8.715-25.471H134.207z"/>
<path fill="#54ffaf" d="M327.178,80.016c1.229,3.698,3.044,6.86,5.447,9.487c2.402,2.628,5.367,4.654,8.893,6.081
	c3.525,1.426,7.572,2.139,12.142,2.139c4.674,0,8.78-0.739,12.319-2.218c3.538-1.479,6.496-3.545,8.873-6.199
	c2.377-2.654,4.159-5.829,5.348-9.527c1.188-3.697,1.782-7.75,1.782-12.161c0-4.489-0.607-8.583-1.821-12.28
	c-1.216-3.697-3.011-6.873-5.388-9.526c-2.377-2.654-5.335-4.708-8.873-6.16c-3.539-1.452-7.619-2.179-12.24-2.179
	c-4.754,0-8.9,0.753-12.438,2.258c-3.539,1.505-6.483,3.592-8.834,6.259c-2.351,2.667-4.113,5.85-5.288,9.546
	c-1.175,3.698-1.763,7.725-1.763,12.082C325.336,72.186,325.95,76.319,327.178,80.016z M341.518,59.16
	c0.516-2.469,1.301-4.549,2.357-6.239c1.056-1.69,2.396-2.977,4.021-3.862c1.624-0.885,3.545-1.327,5.764-1.327
	c2.244,0,4.179,0.442,5.803,1.327c1.624,0.885,2.965,2.172,4.021,3.862c1.056,1.69,1.842,3.77,2.356,6.239
	c0.515,2.47,0.772,5.288,0.772,8.458c0,6.575-1.069,11.527-3.209,14.854c-2.139,3.327-5.387,4.991-9.744,4.991
	c-4.437,0-7.698-1.67-9.784-5.011c-2.087-3.34-3.13-8.285-3.13-14.834C340.745,64.448,341.003,61.63,341.518,59.16z"/>
<path fill="#54ffaf" d="M510.561,63.458V47.692h5.981c1.61,0,3.162,0.06,4.654,0.178c1.491,0.119,2.806,0.43,3.941,0.931
	c1.135,0.502,2.046,1.254,2.733,2.258c0.687,1.004,1.03,2.509,1.03,4.516c0,1.743-0.357,3.136-1.07,4.179
	c-0.713,1.043-1.644,1.836-2.792,2.377c-1.149,0.542-2.437,0.898-3.862,1.069c-1.427,0.172-2.853,0.257-4.278,0.257H510.561z
	 M510.799,72.648h8.041c1.954,0,3.492,0.198,4.615,0.594c1.122,0.396,1.987,1.07,2.595,2.021s1.05,2.198,1.327,3.743
	s0.548,3.466,0.812,5.764c0.185,1.584,0.43,3.07,0.733,4.457c0.303,1.386,0.746,2.608,1.327,3.664
	c0.58,1.057,1.313,1.888,2.198,2.496c0.885,0.608,1.986,0.911,3.308,0.911c1.452,0,2.641-0.191,3.565-0.574
	c0.924-0.383,1.649-0.917,2.179-1.604c0.527-0.687,0.897-1.505,1.108-2.456s0.317-1.994,0.317-3.129c0-0.528-0.014-1.062-0.04-1.604
	c-0.026-0.541-0.066-1.103-0.118-1.684c-0.186-2.086-0.384-3.955-0.595-5.605c-0.212-1.65-0.489-3.123-0.832-4.417
	s-0.779-2.417-1.307-3.367c-0.529-0.951-1.215-1.763-2.061-2.436c-0.845-0.673-1.868-1.214-3.069-1.624
	c-1.202-0.409-2.648-0.719-4.338-0.931v-0.158c2.351-0.396,4.338-1.01,5.962-1.842c1.624-0.832,2.938-1.835,3.941-3.01
	c1.003-1.175,1.729-2.496,2.179-3.961c0.448-1.466,0.673-3.017,0.673-4.654c0-3.011-0.613-5.453-1.842-7.329
	c-1.228-1.875-2.865-3.34-4.912-4.397c-2.046-1.056-4.416-1.775-7.11-2.159c-2.693-0.382-5.506-0.574-8.438-0.574h-15.884
	c-1.215,0-2.371,0.152-3.467,0.456s-2.054,0.759-2.871,1.366c-0.819,0.608-1.473,1.367-1.961,2.278
	c-0.489,0.911-0.733,1.975-0.733,3.189v42.543c0,1.083,0.191,2.093,0.574,3.031s0.904,1.756,1.565,2.456
	c0.659,0.7,1.432,1.248,2.317,1.644c0.884,0.396,1.842,0.594,2.871,0.594c1.03,0,1.987-0.198,2.872-0.594s1.664-0.944,2.338-1.644
	c0.673-0.699,1.201-1.518,1.584-2.456s0.574-1.947,0.574-3.031V72.648z M481.288,96.336c0.713,0,1.38-0.132,2-0.396
	c0.62-0.264,1.169-0.627,1.645-1.089c0.476-0.462,0.845-1.003,1.109-1.624c0.264-0.621,0.396-1.288,0.396-2
	c0-0.713-0.132-1.38-0.396-2c-0.265-0.62-0.634-1.168-1.109-1.644c-0.476-0.475-1.024-0.845-1.645-1.109
	c-0.62-0.264-1.287-0.396-2-0.396h-21.391V72.212h18.618c0.766,0,1.485-0.132,2.158-0.396c0.674-0.264,1.261-0.627,1.763-1.089
	c0.502-0.462,0.897-1.003,1.188-1.624c0.29-0.62,0.436-1.288,0.436-2s-0.146-1.38-0.436-2c-0.291-0.62-0.687-1.168-1.188-1.644
	c-0.502-0.475-1.089-0.845-1.763-1.109c-0.673-0.264-1.393-0.396-2.158-0.396h-18.618V49.118h20.4c0.766,0,1.485-0.132,2.159-0.396
	c0.673-0.264,1.261-0.627,1.763-1.089c0.501-0.461,0.897-1.003,1.188-1.624c0.29-0.62,0.436-1.287,0.436-2
	c0-0.713-0.146-1.386-0.436-2.02c-0.291-0.634-0.688-1.182-1.188-1.644c-0.502-0.462-1.09-0.832-1.763-1.109
	c-0.674-0.277-1.394-0.416-2.159-0.416h-25.432c-2.06,0-3.697,0.264-4.911,0.792c-1.216,0.529-2.14,1.255-2.773,2.179
	c-0.634,0.925-1.043,2.027-1.228,3.308c-0.186,1.281-0.277,2.674-0.277,4.179v37.75c0,1.109,0.118,2.218,0.356,3.328
	c0.237,1.109,0.634,2.106,1.188,2.991c0.555,0.885,1.287,1.604,2.198,2.159c0.911,0.555,2.04,0.832,3.387,0.832H481.288z
	 M398.459,45.395c-0.344-1.162-0.779-2.159-1.308-2.991c-0.528-0.832-1.116-1.512-1.763-2.04c-0.647-0.528-1.334-0.917-2.06-1.169
	c-0.727-0.25-1.446-0.376-2.159-0.376c-0.846,0-1.65,0.158-2.416,0.475c-0.767,0.317-1.453,0.772-2.061,1.367
	s-1.089,1.301-1.445,2.119c-0.356,0.819-0.535,1.743-0.535,2.773c0,0.449,0.033,0.911,0.1,1.387c0.065,0.475,0.19,0.977,0.376,1.505
	l11.052,33.473c0.924,2.799,1.809,5.124,2.654,6.972c0.845,1.849,1.788,3.328,2.832,4.437c1.043,1.109,2.251,1.889,3.625,2.337
	c1.372,0.449,3.062,0.673,5.07,0.673c2.191,0,4.026-0.31,5.506-0.931c1.479-0.621,2.746-1.578,3.803-2.872
	c1.056-1.293,1.986-2.912,2.793-4.853c0.805-1.941,1.644-4.245,2.515-6.913l10.3-31.809c0.422-1.347,0.634-2.614,0.634-3.803
	c0-1.03-0.158-1.941-0.476-2.733c-0.316-0.792-0.746-1.452-1.287-1.98c-0.542-0.528-1.163-0.931-1.862-1.208
	c-0.7-0.277-1.433-0.416-2.198-0.416c-0.739,0-1.485,0.132-2.238,0.396c-0.752,0.264-1.466,0.661-2.139,1.188
	c-0.674,0.528-1.287,1.195-1.842,2c-0.555,0.806-0.99,1.763-1.308,2.872l-12.003,40.326h-0.197L398.459,45.395z"/>
</svg>
