<?xml version="1.0" encoding="utf-8"?>
<!-- Generator: Adobe Illustrator 17.0.0, SVG Export Plug-In . SVG Version: 6.00 Build 0)  -->
<!DOCTYPE svg PUBLIC "-//W3C//DTD SVG 1.1//EN" "http://www.w3.org/Graphics/SVG/1.1/DTD/svg11.dtd">
<svg version="1.1" id="Layer_1" xmlns="http://www.w3.org/2000/svg" xmlns:xlink="http://www.w3.org/1999/xlink" x="0px" y="0px"
	 width="181.143px" height="181.144px" viewBox="0 0 181.143 181.144" enable-background="new 0 0 181.143 181.144"
	 xml:space="preserve">
<path fill="#FFFFFF" d="M91.915,53.383c-10.274,0-19.567,4.161-26.299,10.891c-6.731,6.731-10.892,16.024-10.892,26.295
	c0,10.274,4.161,19.568,10.892,26.3c6.732,6.731,16.026,10.892,26.299,10.892c10.271,0,19.564-4.161,26.295-10.892
	c6.73-6.732,10.891-16.026,10.891-26.3c0-10.271-4.161-19.564-10.891-26.295C111.479,57.544,102.187,53.383,91.915,53.383z
	 M91.918,123.376c-18.128,0-32.81-14.682-32.81-32.81c0-18.117,14.683-32.81,32.81-32.81c18.117,0,32.81,14.693,32.81,32.81
	C124.728,108.694,110.035,123.376,91.918,123.376z M91.918,165.246c20.622,0,39.286-8.356,52.8-21.871
	c13.372-13.375,21.681-31.796,21.854-52.167h-36.203c-0.343,20.956-17.42,37.835-38.453,37.835
	c-21.037,0-38.114-16.878-38.458-37.833H17.255c0.173,20.371,8.481,38.791,21.855,52.165
	C52.625,156.89,71.291,165.246,91.918,165.246z M2.249,99.531h8.815c0.436,3.979,1.152,7.874,2.141,11.659l-8.157,3.188
	c-1.157,0.452-1.728,1.756-1.276,2.913l4.885,12.499c0.452,1.157,1.757,1.728,2.913,1.276l8.074-3.155
	c2.334,4.51,5.077,8.77,8.181,12.738l-6.042,6.042c-0.878,0.878-0.878,2.302,0,3.181l9.489,9.489c0.878,0.878,2.302,0.878,3.181,0
	l5.881-5.881c3.103,2.547,6.402,4.864,9.864,6.936l-0.006,0.014l-3.265,7.461c-0.494,1.133,0.022,2.457,1.156,2.962l12.296,5.385
	c1.144,0.494,2.468-0.022,2.962-1.167l3.152-7.191l0.011-0.026c4.851,1.594,9.903,2.739,15.109,3.397v7.644
	c0,1.242,1.007,2.249,2.249,2.249h13.42c1.242,0,2.249-1.007,2.249-2.249v-7.338c4.186-0.389,8.28-1.09,12.257-2.088l2.59,6.628
	c0.452,1.157,1.757,1.728,2.913,1.276l12.499-4.885c1.157-0.452,1.728-1.756,1.276-2.913l-2.494-6.382
	c4.762-2.408,9.252-5.27,13.419-8.531l4.699,4.699c0.878,0.878,2.302,0.878,3.181,0l9.489-9.489c0.878-0.878,0.878-2.302,0-3.181
	l-4.539-4.539c2.694-3.282,5.122-6.786,7.283-10.468l5.776,2.53c1.138,0.498,2.464-0.02,2.962-1.158l5.384-12.292
	c0.498-1.138-0.02-2.464-1.158-2.963l-5.652-2.475c1.617-5.068,2.749-10.349,3.346-15.795h6.132c1.242,0,2.249-1.007,2.249-2.249
	V83.862c0-1.242-1.007-2.249-2.249-2.249h-6.131c-0.472-4.313-1.289-8.52-2.409-12.603l5.741-2.244
	c1.157-0.452,1.728-1.756,1.276-2.913l-4.885-12.499c-0.452-1.157-1.757-1.728-2.913-1.276l-5.837,2.281
	c-2.535-4.755-5.521-9.232-8.913-13.365l4.536-4.537c0.875-0.875,0.875-2.3,0-3.175l-9.491-9.491c-0.875-0.875-2.3-0.875-3.175,0
	l-4.689,4.678l-0.013,0.013c-3.308-2.588-6.816-4.93-10.507-6.989l2.729-6.23c0.498-1.138-0.02-2.464-1.158-2.963l-12.292-5.384
	c-1.138-0.499-2.464,0.02-2.962,1.158l-2.837,6.478c-4.965-1.464-10.123-2.473-15.433-2.965V2.249C99.531,1.007,98.524,0,97.281,0
	l-13.42,0c-1.242,0-2.249,1.007-2.249,2.249v7.644c-4.103,0.519-8.108,1.341-11.997,2.447l-2.85-7.293
	c-0.452-1.157-1.756-1.728-2.913-1.276L51.353,8.656c-1.157,0.452-1.728,1.756-1.276,2.913l2.945,7.535
	c-4.505,2.457-8.751,5.327-12.688,8.559l-5.88-5.88c-0.878-0.878-2.302-0.878-3.181,0l-9.489,9.489
	c-0.878,0.878-0.878,2.302,0,3.181l6.041,6.041c-2.447,3.126-4.668,6.434-6.643,9.904l-7.918-3.468
	c-1.138-0.498-2.464,0.02-2.962,1.158L4.917,60.38c-0.498,1.138,0.02,2.464,1.158,2.962l8.009,3.508
	c-1.446,4.751-2.466,9.686-3.022,14.762H2.249C1.007,81.613,0,82.62,0,83.862l0,13.419C0,98.524,1.007,99.531,2.249,99.531z
	 M91.918,14.614c41.949,0,75.952,34.003,75.952,75.952c0,41.959-34.003,75.962-75.952,75.962c-41.959,0-75.962-34.003-75.962-75.962
	C15.956,48.618,49.959,14.615,91.918,14.614z M91.915,52.1c21.031,0,38.107,16.877,38.453,37.825h36.203
	c-0.172-20.366-8.481-38.785-21.854-52.159c-13.514-13.513-32.178-21.869-52.8-21.87c-20.627,0-39.293,8.356-52.809,21.87
	C25.735,51.141,17.426,69.561,17.254,89.928h36.203C53.802,68.978,70.879,52.101,91.915,52.1z"/>
</svg>
