<?xml version="1.0" encoding="utf-8"?>
<!-- Generator: Adobe Illustrator 17.1.0, SVG Export Plug-In . SVG Version: 6.00 Build 0)  -->
<!DOCTYPE svg PUBLIC "-//W3C//DTD SVG 1.1//EN" "http://www.w3.org/Graphics/SVG/1.1/DTD/svg11.dtd">
<svg version="1.1" id="Layer_1" xmlns="http://www.w3.org/2000/svg" xmlns:xlink="http://www.w3.org/1999/xlink" x="0px" y="0px"
	 width="106.04px" height="65.279px" viewBox="0 0 106.04 65.279" enable-background="new 0 0 106.04 65.279" xml:space="preserve">
<path fill="#E2F4FD" d="M84.28,53.87c-0.037-5.14-4.213-9.296-9.362-9.296s-9.326,4.156-9.362,9.296H84.28z"/>
<path fill="#F89846" d="M84.28,53.867c-0.037,5.14-4.213,9.296-9.362,9.296s-9.326-4.156-9.362-9.296H84.28z"/>
<path fill="#929496" d="M83.364,53.938H82.38c0,2.064-0.834,3.923-2.186,5.277c-1.354,1.352-3.213,2.185-5.277,2.186
	c-2.064,0-3.923-0.834-5.277-2.186c-1.352-1.354-2.185-3.213-2.186-5.277c0-2.064,0.834-3.923,2.186-5.277
	c1.354-1.352,3.213-2.185,5.277-2.186c2.064,0,3.923,0.834,5.277,2.186c1.352,1.354,2.185,3.213,2.186,5.277H83.364h0.984
	c0-2.601-1.057-4.964-2.762-6.668c-1.703-1.705-4.067-2.762-6.668-2.762c-2.601-0.001-4.964,1.057-6.668,2.762
	c-1.705,1.703-2.762,4.067-2.762,6.668c0,2.601,1.057,4.964,2.762,6.668c1.703,1.705,4.067,2.762,6.668,2.762
	c2.601,0,4.964-1.057,6.668-2.762c1.705-1.703,2.762-4.067,2.762-6.668H83.364z"/>
<path d="M74.918,65.279c-0.365,0-0.742-0.019-1.12-0.057c-0.114-0.011-0.227-0.029-0.339-0.047l-0.259-0.038
	c-0.166-0.023-0.333-0.046-0.498-0.079c-0.141-0.028-0.279-0.063-0.418-0.099l-0.253-0.063c-0.136-0.033-0.272-0.066-0.406-0.107
	c-0.142-0.043-0.281-0.094-0.42-0.145l-0.234-0.084c-0.132-0.046-0.263-0.093-0.393-0.147c-0.13-0.054-0.257-0.114-0.384-0.175
	l-0.228-0.108c-0.133-0.061-0.265-0.124-0.394-0.193c-0.122-0.066-0.24-0.137-0.358-0.209l-0.229-0.137
	c-0.122-0.072-0.245-0.144-0.364-0.224c-0.141-0.094-0.275-0.196-0.409-0.297l-0.209-0.156c-0.093-0.067-0.185-0.134-0.274-0.208
	c-0.296-0.243-0.576-0.496-0.831-0.751c-0.256-0.256-0.509-0.535-0.751-0.831c-0.073-0.088-0.14-0.18-0.207-0.273l-0.151-0.203
	c-0.104-0.136-0.207-0.273-0.302-0.416c-0.082-0.122-0.156-0.248-0.23-0.374l-0.128-0.214c-0.073-0.12-0.146-0.239-0.212-0.364
	c-0.071-0.132-0.134-0.267-0.196-0.402l-0.103-0.218c-0.061-0.128-0.122-0.255-0.177-0.387c-0.053-0.128-0.1-0.26-0.146-0.392
	l-0.084-0.233c-0.051-0.139-0.101-0.278-0.144-0.42c-0.04-0.133-0.073-0.267-0.106-0.401l-0.066-0.262
	c-0.035-0.136-0.07-0.272-0.098-0.411c-0.034-0.171-0.058-0.342-0.081-0.513l-0.036-0.245c-0.018-0.112-0.035-0.225-0.047-0.339
	c-0.038-0.381-0.057-0.758-0.056-1.12c0-0.361,0.019-0.738,0.056-1.119c0.011-0.114,0.028-0.224,0.046-0.335l0.037-0.254
	c0.023-0.17,0.047-0.339,0.08-0.507c0.028-0.141,0.063-0.278,0.099-0.414l0.065-0.262c0.033-0.134,0.065-0.268,0.105-0.4
	c0.044-0.143,0.094-0.283,0.145-0.422l0.08-0.224c0.047-0.135,0.095-0.27,0.15-0.402c0.054-0.13,0.114-0.257,0.175-0.383
	l0.108-0.228c0.061-0.132,0.124-0.265,0.193-0.394c0.065-0.122,0.136-0.239,0.208-0.356l0.137-0.23
	c0.072-0.123,0.145-0.246,0.225-0.365c0.095-0.142,0.198-0.278,0.301-0.414l0.153-0.205c0.066-0.092,0.134-0.184,0.206-0.272
	c0.243-0.296,0.496-0.576,0.752-0.832c0.255-0.255,0.535-0.509,0.831-0.751c0.089-0.073,0.18-0.139,0.271-0.205l0.208-0.155
	c0.135-0.103,0.271-0.205,0.412-0.3c0.12-0.08,0.243-0.153,0.367-0.226l0.227-0.135c0.118-0.072,0.236-0.143,0.358-0.209
	c0.13-0.069,0.261-0.131,0.393-0.192l0.233-0.11c0.125-0.06,0.251-0.12,0.38-0.173c0.13-0.054,0.26-0.1,0.391-0.146l0.24-0.086
	c0.138-0.05,0.275-0.1,0.416-0.143c0.135-0.041,0.269-0.074,0.404-0.107l0.253-0.063c0.138-0.036,0.277-0.072,0.418-0.1
	c0.167-0.033,0.334-0.057,0.502-0.08l0.256-0.037c0.113-0.018,0.225-0.035,0.34-0.047c0.377-0.038,0.752-0.057,1.112-0.057
	c0.374,0,0.749,0.019,1.127,0.057c0.112,0.011,0.224,0.028,0.335,0.046l0.261,0.038c0.168,0.023,0.335,0.046,0.501,0.08
	c0.142,0.028,0.28,0.064,0.419,0.1l0.25,0.063c0.136,0.033,0.272,0.066,0.407,0.107c0.141,0.043,0.28,0.093,0.418,0.144l0.24,0.086
	c0.13,0.046,0.26,0.092,0.388,0.145c0.131,0.055,0.258,0.115,0.384,0.176l0.226,0.107c0.133,0.062,0.266,0.123,0.396,0.193
	c0.123,0.066,0.242,0.138,0.36,0.21l0.223,0.133c0.124,0.073,0.248,0.146,0.369,0.227c0.142,0.095,0.277,0.197,0.412,0.299
	l0.208,0.155c0.092,0.067,0.184,0.134,0.272,0.207c0.295,0.242,0.575,0.495,0.831,0.751c0.256,0.256,0.509,0.536,0.751,0.831
	c0.073,0.089,0.141,0.182,0.209,0.276l0.156,0.21c0.101,0.133,0.202,0.266,0.295,0.406c0.081,0.121,0.155,0.246,0.229,0.372
	l0.131,0.219c0.073,0.119,0.145,0.238,0.211,0.362c0.07,0.13,0.132,0.264,0.195,0.399l0.105,0.222
	c0.061,0.127,0.122,0.254,0.176,0.385c0.053,0.129,0.1,0.26,0.146,0.391l0.085,0.238c0.05,0.138,0.1,0.276,0.143,0.417
	c0.041,0.135,0.074,0.271,0.107,0.407l0.063,0.252c0.036,0.138,0.071,0.276,0.099,0.417c0.033,0.165,0.056,0.33,0.078,0.495
	l0.038,0.262c0.018,0.113,0.035,0.226,0.047,0.341c0.038,0.379,0.057,0.756,0.056,1.119c0,0.361-0.019,0.739-0.057,1.119
	c-0.011,0.114-0.029,0.227-0.047,0.339l-0.038,0.262c-0.023,0.165-0.046,0.331-0.078,0.495c-0.028,0.141-0.063,0.279-0.099,0.416
	l-0.064,0.255c-0.033,0.136-0.066,0.272-0.107,0.406c-0.043,0.142-0.093,0.281-0.144,0.42l-0.081,0.228
	c-0.047,0.134-0.094,0.268-0.149,0.399c-0.053,0.129-0.113,0.254-0.173,0.379l-0.108,0.229c-0.062,0.134-0.124,0.267-0.195,0.398
	c-0.065,0.122-0.137,0.241-0.209,0.359l-0.133,0.222c-0.073,0.124-0.147,0.249-0.227,0.37c-0.096,0.143-0.199,0.279-0.302,0.416
	l-0.148,0.2c-0.068,0.094-0.136,0.187-0.21,0.277c-0.243,0.296-0.496,0.576-0.752,0.831c-0.255,0.255-0.535,0.509-0.831,0.751
	c-0.089,0.073-0.181,0.14-0.273,0.207l-0.207,0.154c-0.135,0.103-0.27,0.205-0.412,0.299c-0.119,0.08-0.243,0.153-0.367,0.226
	l-0.222,0.133c-0.119,0.073-0.239,0.145-0.362,0.211c-0.13,0.07-0.263,0.132-0.395,0.193l-0.226,0.107
	c-0.126,0.061-0.253,0.121-0.383,0.175c-0.129,0.053-0.259,0.099-0.389,0.145l-0.24,0.086c-0.138,0.051-0.277,0.101-0.419,0.144
	c-0.131,0.04-0.265,0.073-0.398,0.105l-0.256,0.064c-0.14,0.036-0.279,0.072-0.421,0.1c-0.165,0.033-0.332,0.056-0.499,0.079
	l-0.254,0.037c-0.114,0.018-0.229,0.036-0.345,0.048C75.657,65.26,75.281,65.279,74.918,65.279z M74.918,46.551
	c-0.235,0-0.474,0.012-0.73,0.037l-0.204,0.029l-0.262,0.039l-0.248,0.038l-0.258,0.062l-0.245,0.062l-0.199,0.051l-0.243,0.084
	l-0.225,0.081l-0.213,0.078l-0.209,0.097l-0.21,0.099l-0.234,0.114l-0.183,0.107l-0.214,0.128l-0.224,0.137l-0.203,0.149
	l-0.213,0.158l-0.165,0.124c-0.196,0.162-0.374,0.322-0.542,0.489c-0.166,0.166-0.326,0.343-0.49,0.542l-0.124,0.165l-0.156,0.21
	l-0.151,0.206l-0.138,0.226l-0.125,0.21l-0.108,0.183l-0.112,0.231l-0.105,0.221l-0.093,0.201l-0.079,0.214l-0.08,0.222
	l-0.085,0.246l-0.053,0.205l-0.059,0.236l-0.064,0.262l-0.038,0.246l-0.04,0.266l-0.029,0.203c-0.025,0.25-0.037,0.496-0.037,0.73
	c0,0.236,0.012,0.475,0.037,0.728l0.029,0.207l0.038,0.256l0.039,0.252l0.063,0.261l0.059,0.236l0.052,0.202l0.086,0.249l0.08,0.222
	l0.078,0.213l0.095,0.206l0.101,0.213l0.114,0.235l0.109,0.186l0.122,0.204l0.141,0.231l0.149,0.203l0.155,0.209l0.126,0.168
	c0.163,0.198,0.323,0.375,0.489,0.542c0.165,0.164,0.347,0.329,0.541,0.489l0.165,0.124l0.213,0.158l0.202,0.148l0.23,0.141
	l0.209,0.125l0.181,0.107l0.239,0.115l0.208,0.098l0.205,0.095l0.215,0.079l0.223,0.08l0.245,0.085l0.201,0.052l0.235,0.059
	l0.266,0.064l0.249,0.039l0.262,0.039l0.203,0.029c0.255,0.025,0.494,0.037,0.729,0.037c0.237,0,0.476-0.012,0.73-0.037l0.207-0.029
	l0.261-0.039l0.246-0.038l0.268-0.065l0.231-0.058l0.2-0.052l0.25-0.087l0.219-0.078l0.214-0.079l0.208-0.096l0.213-0.1l0.234-0.114
	l0.181-0.107l0.206-0.123l0.232-0.142l0.205-0.15l0.211-0.156l0.164-0.123c0.197-0.162,0.375-0.322,0.542-0.49
	c0.165-0.165,0.329-0.347,0.489-0.541l0.126-0.168l0.156-0.211l0.148-0.202l0.14-0.229l0.126-0.212l0.106-0.18l0.114-0.236
	l0.101-0.214l0.094-0.204l0.08-0.216l0.081-0.225l0.083-0.24l0.053-0.203l0.06-0.24l0.062-0.257l0.038-0.247l0.039-0.264
	l0.029-0.204c0.025-0.256,0.037-0.494,0.037-0.729c0-0.235-0.012-0.473-0.037-0.73l-0.029-0.204L82.2,52.74l-0.038-0.246
	l-0.063-0.262l-0.061-0.244l-0.051-0.196l-0.084-0.243l-0.082-0.228l-0.078-0.211l-0.096-0.207l-0.1-0.212l-0.114-0.235
	l-0.104-0.176l-0.124-0.207l-0.144-0.237l-0.152-0.207l-0.154-0.207l-0.125-0.166c-0.16-0.194-0.324-0.376-0.489-0.541
	c-0.167-0.168-0.345-0.328-0.542-0.49L79.433,48.1l-0.216-0.16l-0.198-0.144l-0.23-0.141l-0.214-0.128L78.4,47.424l-0.238-0.115
	l-0.212-0.1l-0.206-0.095l-0.214-0.079l-0.227-0.081l-0.241-0.083l-0.202-0.052l-0.235-0.059l-0.264-0.064l-0.246-0.038
	l-0.262-0.039l-0.208-0.03C75.392,46.564,75.153,46.551,74.918,46.551L74.918,46.551z"/>
<circle cx="74.918" cy="53.938" r="2.111"/>
<path fill="#E2F4FD" d="M34.096,53.87c-0.037-5.14-4.213-9.296-9.362-9.296s-9.326,4.156-9.362,9.296H34.096z"/>
<path fill="#F89846" d="M34.096,53.867c-0.037,5.14-4.213,9.296-9.362,9.296s-9.326-4.156-9.362-9.296H34.096z"/>
<path fill="#929496" d="M33.179,53.938h-0.984c0,2.064-0.834,3.923-2.186,5.277c-1.354,1.352-3.213,2.185-5.277,2.186
	c-2.064,0-3.923-0.834-5.277-2.186c-1.352-1.354-2.185-3.213-2.186-5.277c0.001-2.064,0.834-3.923,2.186-5.277
	c1.354-1.352,3.213-2.185,5.277-2.186c2.064,0,3.923,0.834,5.277,2.186c1.352,1.354,2.185,3.213,2.186,5.277H33.179h0.984
	c0-2.601-1.057-4.964-2.762-6.668c-1.703-1.705-4.067-2.762-6.668-2.762c-2.601-0.001-4.964,1.057-6.668,2.762
	c-1.705,1.703-2.762,4.067-2.762,6.668c0,2.601,1.057,4.964,2.762,6.668c1.703,1.705,4.067,2.762,6.668,2.762
	c2.601,0,4.964-1.057,6.668-2.762c1.705-1.703,2.762-4.067,2.762-6.668H33.179z"/>
<path d="M24.734,65.279c-0.365,0-0.742-0.019-1.12-0.057c-0.114-0.011-0.227-0.029-0.339-0.047l-0.259-0.038
	c-0.166-0.023-0.333-0.046-0.498-0.079c-0.141-0.028-0.279-0.063-0.418-0.099l-0.253-0.063c-0.136-0.033-0.272-0.066-0.406-0.107
	c-0.142-0.043-0.281-0.094-0.42-0.145l-0.234-0.084c-0.132-0.046-0.263-0.093-0.393-0.147c-0.13-0.054-0.257-0.114-0.384-0.175
	l-0.228-0.108c-0.132-0.061-0.265-0.124-0.394-0.193c-0.122-0.066-0.24-0.137-0.358-0.209L18.8,63.593
	c-0.122-0.072-0.245-0.144-0.364-0.224c-0.141-0.094-0.275-0.196-0.409-0.297l-0.209-0.156c-0.093-0.067-0.185-0.134-0.274-0.208
	c-0.296-0.243-0.576-0.496-0.831-0.751c-0.256-0.256-0.509-0.535-0.751-0.831c-0.073-0.088-0.14-0.18-0.207-0.273l-0.151-0.203
	c-0.104-0.136-0.207-0.273-0.302-0.416c-0.082-0.122-0.156-0.248-0.23-0.374l-0.128-0.214c-0.073-0.12-0.146-0.239-0.212-0.364
	c-0.071-0.132-0.134-0.267-0.196-0.402l-0.103-0.218c-0.061-0.128-0.122-0.255-0.177-0.387c-0.053-0.128-0.1-0.26-0.146-0.392
	l-0.084-0.233c-0.051-0.139-0.101-0.278-0.144-0.42c-0.04-0.133-0.073-0.267-0.106-0.401l-0.066-0.262
	c-0.035-0.136-0.07-0.272-0.098-0.411c-0.034-0.171-0.058-0.342-0.081-0.513l-0.036-0.245c-0.018-0.112-0.035-0.225-0.047-0.339
	c-0.038-0.381-0.057-0.758-0.056-1.12c0-0.361,0.019-0.738,0.056-1.119c0.011-0.114,0.028-0.224,0.046-0.335l0.037-0.254
	c0.023-0.17,0.047-0.339,0.08-0.507c0.028-0.141,0.063-0.278,0.099-0.414l0.065-0.262c0.033-0.134,0.065-0.268,0.105-0.4
	c0.044-0.143,0.094-0.283,0.145-0.422l0.08-0.224c0.047-0.135,0.095-0.27,0.15-0.402c0.054-0.13,0.114-0.257,0.175-0.383
	l0.108-0.228c0.061-0.132,0.124-0.265,0.193-0.394c0.065-0.122,0.136-0.239,0.208-0.356l0.137-0.23
	c0.072-0.123,0.145-0.246,0.225-0.365c0.095-0.142,0.198-0.278,0.301-0.414l0.153-0.205c0.066-0.092,0.134-0.184,0.206-0.272
	c0.243-0.296,0.496-0.576,0.752-0.832c0.255-0.255,0.535-0.509,0.831-0.751c0.089-0.073,0.18-0.139,0.271-0.205l0.208-0.155
	c0.135-0.103,0.271-0.205,0.412-0.3c0.12-0.08,0.243-0.153,0.367-0.226l0.227-0.135c0.118-0.072,0.236-0.143,0.358-0.209
	c0.13-0.069,0.261-0.131,0.393-0.192l0.233-0.11c0.125-0.06,0.251-0.12,0.38-0.173c0.13-0.054,0.26-0.1,0.391-0.146l0.24-0.086
	c0.138-0.05,0.275-0.1,0.416-0.143c0.135-0.041,0.269-0.074,0.404-0.107l0.253-0.063c0.138-0.036,0.277-0.072,0.418-0.1
	c0.167-0.033,0.334-0.057,0.502-0.08l0.256-0.037c0.113-0.018,0.225-0.035,0.34-0.047c0.377-0.038,0.752-0.057,1.112-0.057
	c0.374,0,0.749,0.019,1.127,0.057c0.112,0.011,0.224,0.028,0.335,0.046l0.261,0.038c0.168,0.023,0.335,0.046,0.501,0.08
	c0.142,0.028,0.28,0.064,0.419,0.1l0.25,0.063c0.136,0.033,0.272,0.066,0.407,0.107c0.141,0.043,0.28,0.093,0.418,0.144l0.24,0.086
	c0.13,0.046,0.26,0.092,0.388,0.145c0.131,0.055,0.258,0.115,0.384,0.176l0.226,0.107c0.133,0.062,0.266,0.123,0.396,0.193
	c0.123,0.066,0.242,0.138,0.36,0.21l0.223,0.133c0.124,0.073,0.248,0.146,0.369,0.227c0.142,0.095,0.277,0.197,0.412,0.299
	l0.208,0.155c0.092,0.067,0.184,0.134,0.272,0.207c0.295,0.242,0.575,0.495,0.831,0.751c0.256,0.256,0.509,0.536,0.751,0.831
	c0.073,0.089,0.141,0.182,0.209,0.276l0.156,0.21c0.101,0.133,0.202,0.266,0.295,0.406c0.081,0.121,0.155,0.246,0.229,0.372
	l0.131,0.219c0.073,0.119,0.145,0.238,0.211,0.362c0.07,0.13,0.132,0.264,0.195,0.399l0.105,0.222
	c0.061,0.127,0.122,0.254,0.176,0.385c0.053,0.129,0.1,0.26,0.146,0.391l0.085,0.238c0.05,0.138,0.1,0.276,0.143,0.417
	c0.041,0.135,0.074,0.271,0.107,0.407l0.063,0.252c0.036,0.138,0.071,0.276,0.099,0.417c0.033,0.165,0.056,0.33,0.078,0.495
	l0.038,0.262c0.018,0.113,0.035,0.226,0.047,0.341c0.038,0.379,0.057,0.756,0.056,1.119c0,0.361-0.019,0.739-0.057,1.119
	c-0.011,0.114-0.029,0.227-0.047,0.339l-0.038,0.262c-0.023,0.165-0.046,0.331-0.078,0.495c-0.028,0.141-0.063,0.279-0.099,0.416
	l-0.064,0.255c-0.033,0.136-0.066,0.272-0.107,0.406c-0.043,0.142-0.093,0.281-0.144,0.42l-0.081,0.228
	c-0.047,0.134-0.094,0.268-0.149,0.399c-0.053,0.129-0.113,0.254-0.173,0.379l-0.108,0.229c-0.062,0.134-0.124,0.267-0.195,0.398
	c-0.065,0.122-0.137,0.241-0.209,0.359l-0.133,0.222c-0.073,0.124-0.147,0.249-0.227,0.37c-0.096,0.143-0.199,0.279-0.302,0.416
	l-0.148,0.2c-0.068,0.094-0.136,0.187-0.21,0.277c-0.243,0.296-0.496,0.576-0.752,0.831c-0.255,0.255-0.535,0.509-0.831,0.751
	c-0.089,0.073-0.181,0.14-0.273,0.207l-0.207,0.154c-0.135,0.103-0.27,0.205-0.412,0.299c-0.119,0.08-0.243,0.153-0.367,0.226
	l-0.222,0.133c-0.119,0.073-0.239,0.145-0.362,0.211c-0.13,0.07-0.263,0.132-0.395,0.193l-0.226,0.107
	c-0.126,0.061-0.253,0.121-0.383,0.175c-0.129,0.053-0.259,0.099-0.389,0.145l-0.24,0.086c-0.138,0.051-0.277,0.101-0.419,0.144
	c-0.132,0.04-0.265,0.073-0.398,0.105l-0.256,0.064c-0.14,0.036-0.279,0.072-0.421,0.1c-0.165,0.033-0.332,0.056-0.499,0.079
	l-0.255,0.037c-0.114,0.018-0.229,0.036-0.345,0.048C25.472,65.26,25.096,65.279,24.734,65.279z M24.733,46.551
	c-0.235,0-0.474,0.012-0.73,0.037L23.8,46.617l-0.262,0.039l-0.248,0.038l-0.258,0.062l-0.245,0.062l-0.199,0.051l-0.243,0.084
	l-0.225,0.081l-0.213,0.078l-0.209,0.097l-0.21,0.099l-0.234,0.114l-0.183,0.107l-0.214,0.128l-0.224,0.137l-0.203,0.149
	l-0.213,0.158l-0.165,0.124c-0.196,0.162-0.374,0.322-0.542,0.489c-0.166,0.166-0.326,0.343-0.49,0.542l-0.124,0.165l-0.156,0.21
	l-0.151,0.206l-0.138,0.226l-0.125,0.21l-0.108,0.183l-0.112,0.231l-0.105,0.221L17.91,51.11l-0.079,0.214l-0.08,0.222l-0.085,0.246
	l-0.053,0.205l-0.059,0.236l-0.064,0.262l-0.038,0.246l-0.04,0.266l-0.029,0.203c-0.025,0.25-0.037,0.496-0.037,0.73
	c0,0.236,0.012,0.475,0.037,0.728l0.029,0.207l0.038,0.256l0.039,0.252l0.063,0.261l0.059,0.236l0.052,0.202l0.086,0.249l0.08,0.222
	l0.078,0.213l0.095,0.206l0.101,0.213l0.114,0.235l0.109,0.186l0.122,0.204l0.141,0.231l0.149,0.203l0.155,0.209l0.126,0.168
	c0.163,0.198,0.323,0.375,0.489,0.542c0.165,0.164,0.347,0.329,0.541,0.489l0.165,0.124l0.213,0.158l0.202,0.148l0.23,0.141
	l0.209,0.125l0.181,0.107l0.239,0.115l0.208,0.098l0.205,0.095l0.215,0.079l0.223,0.08l0.245,0.085l0.201,0.052l0.235,0.059
	l0.266,0.064l0.249,0.039l0.262,0.039l0.203,0.029c0.255,0.025,0.494,0.037,0.729,0.037c0.237,0,0.476-0.012,0.73-0.037l0.207-0.029
	l0.261-0.039l0.246-0.038l0.268-0.065l0.231-0.058l0.2-0.052l0.25-0.087l0.219-0.078l0.214-0.079l0.208-0.096l0.213-0.1l0.234-0.114
	l0.181-0.107l0.206-0.123l0.232-0.142l0.205-0.15l0.211-0.156l0.164-0.123c0.197-0.162,0.375-0.322,0.542-0.49
	c0.165-0.165,0.329-0.347,0.489-0.541l0.126-0.168l0.156-0.211l0.148-0.202l0.14-0.229l0.126-0.212l0.106-0.18l0.114-0.236
	l0.101-0.214l0.094-0.204l0.08-0.216l0.081-0.225l0.083-0.24l0.053-0.203l0.06-0.24l0.062-0.257l0.038-0.247l0.039-0.264
	l0.029-0.204c0.025-0.256,0.037-0.494,0.037-0.729c0-0.235-0.012-0.473-0.037-0.73l-0.029-0.204l-0.039-0.265l-0.038-0.246
	l-0.063-0.262l-0.061-0.244l-0.051-0.196l-0.084-0.243l-0.082-0.228l-0.078-0.211l-0.096-0.207l-0.1-0.212l-0.114-0.235
	l-0.104-0.176l-0.124-0.207l-0.144-0.237l-0.152-0.207l-0.154-0.207l-0.125-0.166c-0.16-0.194-0.324-0.376-0.489-0.541
	c-0.167-0.168-0.345-0.328-0.542-0.49L29.248,48.1l-0.216-0.16l-0.198-0.144l-0.23-0.141l-0.214-0.128l-0.175-0.103l-0.238-0.115
	l-0.212-0.1l-0.206-0.095l-0.214-0.079l-0.227-0.081l-0.241-0.083l-0.202-0.052l-0.235-0.059l-0.264-0.064l-0.246-0.038
	l-0.262-0.039l-0.208-0.03C25.207,46.564,24.968,46.551,24.733,46.551L24.733,46.551z"/>
<circle cx="24.733" cy="53.938" r="2.111"/>
<polygon fill="#C46A17" points="90.005,29.71 101.039,16.274 99.688,36.288 88.712,49.724 "/>
<polygon fill="#C46A17" points="54.63,13.436 65.606,0 73.088,16.274 62.112,29.71 "/>
<polygon fill="#008D91" points="68.64,15.196 64.147,15.196 65.221,19.399 67.032,19.085 "/>
<polygon fill="#009DA2" points="68.64,6.778 59.603,6.778 56.217,9.929 61.2,10.14 65.407,10.103 "/>
<polygon fill="#00AAB0" points="65.428,18.382 65.428,16.54 68.64,13.388 68.64,6.778 65.437,9.929 58.973,9.929 58.973,28.331 
	59.831,28.331 65.393,21.703 68.601,17.698 68.64,15.196 "/>
<path fill="#00AAB0" d="M64.279,17.596c-0.317,0-0.575-0.257-0.575-0.575s0.257-0.575,0.575-0.575h1.158V9.929h-9.22v18.402h3.667
	l5.551-6.745l0.002-3.99H64.279z"/>
<polygon fill="#009DA2" points="65.437,9.929 56.217,28.331 59.831,28.331 65.433,21.703 "/>
<ellipse transform="matrix(0.9993 0.037 -0.037 0.9993 0.5292 -2.4589)" fill="#FFFFFF" cx="66.628" cy="13.054" rx="0.502" ry="1.16"/>
<ellipse cx="66.628" cy="13.054" rx="0.118" ry="0.272"/>
<ellipse transform="matrix(0.9993 0.0371 -0.0371 0.9993 0.4936 -2.5065)" fill="#FFFFFF" cx="67.874" cy="12.064" rx="0.468" ry="1.082"/>
<ellipse cx="67.874" cy="12.064" rx="0.11" ry="0.254"/>
<polygon fill="#C46A17" points="60.905,27.133 71.882,13.697 73.088,16.274 62.112,29.71 "/>
<polygon fill="#F89846" points="12.653,13.436 23.629,0 65.606,0 54.63,13.436 "/>
<polygon fill="#F89846" points="62.112,29.71 73.088,16.274 101.039,16.274 90.005,29.71 "/>
<polygon fill="#F5841F" points="15.545,40.259 32.599,40.259 39.474,49.724 61,49.724 67.875,40.259 84.929,40.259 88.665,49.724 
	88.712,49.724 90.005,29.71 62.112,29.71 54.63,13.436 12.653,13.436 5.001,29.71 5.001,48.698 12.574,48.601 "/>
<polygon fill="#C46A17" points="59.426,29.817 53.038,15.92 14.23,15.92 7.696,29.817 "/>
<rect x="32.531" y="14.786" fill="#F5841F" width="2.733" height="15.776"/>
<rect x="15.489" y="8.839" fill="#F5841F" width="41.885" height="1.278"/>
<rect x="21.213" y="1.809" fill="#F5841F" width="41.885" height="1.278"/>
</svg>
