<?xml version="1.0" encoding="utf-8"?>
<!-- Generator: Adobe Illustrator 17.0.0, SVG Export Plug-In . SVG Version: 6.00 Build 0)  -->
<!DOCTYPE svg PUBLIC "-//W3C//DTD SVG 1.1//EN" "http://www.w3.org/Graphics/SVG/1.1/DTD/svg11.dtd">
<svg version="1.1" id="Layer_1" xmlns="http://www.w3.org/2000/svg" xmlns:xlink="http://www.w3.org/1999/xlink" x="0px" y="0px"
	 width="106.04px" height="65.335px" viewBox="0 0 106.04 65.335" enable-background="new 0 0 106.04 65.335" xml:space="preserve">
<polygon fill="#E47B1D" points="5.001,32.88 17.049,19.444 29.205,19.444 18.229,32.88 "/>
<path fill="#E2F4FD" d="M35.894,54.92c-0.037-5.14-4.213-9.296-9.362-9.296c-5.149,0-9.326,4.156-9.362,9.296H35.894z"/>
<path fill="#A3DEF9" d="M35.894,54.916c-0.037,5.14-4.213,9.296-9.362,9.296c-5.149,0-9.326-4.156-9.362-9.296H35.894z"/>
<path fill="#929496" d="M34.978,54.988h-0.984c0,2.064-0.834,3.923-2.186,5.277c-1.354,1.352-3.213,2.185-5.277,2.186
	c-2.064,0-3.923-0.834-5.277-2.186c-1.352-1.354-2.185-3.213-2.186-5.277c0-2.064,0.834-3.923,2.186-5.277
	c1.354-1.352,3.213-2.185,5.277-2.186c2.064,0,3.923,0.834,5.277,2.186c1.352,1.354,2.185,3.213,2.186,5.277H34.978h0.984
	c0-2.601-1.057-4.964-2.762-6.668c-1.703-1.705-4.067-2.762-6.668-2.762c-2.601,0-4.964,1.057-6.668,2.762
	c-1.705,1.703-2.762,4.067-2.762,6.668c-0.001,2.601,1.057,4.964,2.762,6.668c1.703,1.705,4.067,2.762,6.668,2.762
	c2.601,0,4.964-1.057,6.668-2.762c1.705-1.703,2.762-4.067,2.762-6.668H34.978z"/>
<path d="M35.896,54.988h-0.984c0,2.317-0.937,4.406-2.455,5.926c-1.52,1.518-3.609,2.454-5.926,2.455
	c-2.317,0-4.406-0.936-5.926-2.455c-1.518-1.52-2.454-3.609-2.455-5.926c0-2.317,0.936-4.406,2.455-5.926
	c1.52-1.518,3.609-2.454,5.926-2.455c2.317,0,4.406,0.936,5.926,2.455c1.518,1.52,2.454,3.609,2.455,5.926H35.896h0.984
	c0-2.854-1.16-5.447-3.031-7.317c-1.869-1.871-4.463-3.031-7.317-3.031s-5.447,1.16-7.317,3.031
	c-1.871,1.869-3.031,4.463-3.031,7.317c-0.001,2.854,1.16,5.447,3.031,7.317c1.869,1.871,4.463,3.031,7.317,3.031
	c2.854,0.001,5.447-1.16,7.317-3.031c1.871-1.869,3.031-4.463,3.031-7.317H35.896z"/>
<circle cx="26.532" cy="54.988" r="2.111"/>
<path fill="#E2F4FD" d="M76.864,54.92c-0.037-5.14-4.213-9.296-9.362-9.296s-9.326,4.156-9.362,9.296H76.864z"/>
<path fill="#A3DEF9" d="M76.864,54.916c-0.037,5.14-4.213,9.296-9.362,9.296s-9.326-4.156-9.362-9.296H76.864z"/>
<path fill="#929496" d="M75.947,54.988h-0.984c0,2.064-0.834,3.923-2.186,5.277c-1.354,1.352-3.213,2.185-5.277,2.186
	c-2.064,0-3.923-0.834-5.277-2.186c-1.352-1.354-2.185-3.213-2.186-5.277c0-2.064,0.834-3.923,2.186-5.277
	c1.354-1.352,3.213-2.185,5.277-2.186c2.064,0,3.923,0.834,5.277,2.186c1.352,1.354,2.185,3.213,2.186,5.277H75.947h0.984
	c0-2.601-1.057-4.964-2.762-6.668c-1.703-1.705-4.067-2.762-6.668-2.762c-2.601,0-4.964,1.057-6.668,2.762
	c-1.705,1.703-2.762,4.067-2.762,6.668c0,2.601,1.057,4.964,2.762,6.668c1.703,1.705,4.067,2.762,6.668,2.762
	c2.601,0,4.964-1.057,6.668-2.762c1.705-1.703,2.762-4.067,2.762-6.668H75.947z"/>
<path d="M76.865,54.988h-0.984c0,2.317-0.936,4.406-2.455,5.926c-1.52,1.518-3.609,2.454-5.926,2.455
	c-2.317,0-4.406-0.936-5.926-2.455c-1.518-1.52-2.454-3.609-2.455-5.926c0.001-2.317,0.937-4.406,2.455-5.926
	c1.52-1.518,3.609-2.454,5.926-2.455c2.317,0,4.406,0.936,5.926,2.455c1.518,1.52,2.454,3.609,2.455,5.926H76.865h0.984
	c0-2.854-1.16-5.447-3.031-7.317c-1.869-1.871-4.463-3.031-7.317-3.031c-2.854,0-5.447,1.16-7.317,3.031
	c-1.871,1.869-3.031,4.463-3.031,7.317s1.16,5.447,3.031,7.317c1.869,1.871,4.463,3.031,7.317,3.031
	c2.854,0.001,5.447-1.16,7.317-3.031c1.871-1.869,3.031-4.463,3.031-7.317H76.865z"/>
<circle cx="67.501" cy="54.988" r="2.111"/>
<polygon fill="#F5841F" points="90.005,32.88 101.039,19.444 99.688,44.426 88.712,57.862 "/>
<polygon fill="#F5841F" points="69.536,16.606 80.513,3.17 87.994,19.444 77.018,32.88 "/>
<polygon fill="#E47B1D" points="24.509,16.606 35.485,3.17 80.513,3.17 69.536,16.606 "/>
<polygon fill="#E47B1D" points="77.018,32.88 87.994,19.444 101.039,19.444 90.005,32.88 "/>
<path fill="#FFE100" d="M77.018,32.88h12.987l-1.293,24.982h-8.721c0.241-1.028,0.354-2.109,0.312-3.228
	C80.052,47.822,74.288,42.3,67.43,42.3c-6.858,0-12.214,5.522-11.963,12.334c0.041,1.119,0.23,2.2,0.551,3.228H38.617
	c0.241-1.028,0.354-2.109,0.312-3.228C38.678,47.822,32.914,42.3,26.056,42.3c-6.858,0-12.214,5.522-11.962,12.334
	c0.041,1.119,0.234,2.2,0.551,3.228H5.923L5.001,32.88h13.227l6.28-16.274h45.028L77.018,32.88z"/>
<polygon fill="#F5841F" points="20.685,31.789 25.914,19.338 67.337,19.338 72.566,31.789 "/>
<rect x="46.512" y="18.442" fill="#FFE100" width="2.644" height="14.086"/>
<polygon fill="#F5841F" points="51.065,6.152 56.09,0 59.516,7.451 54.49,13.603 "/>
<polygon fill="#E47B1D" points="47.948,6.152 52.974,0 56.09,0 51.065,6.152 "/>
<polygon fill="#FFE100" points="54.49,13.603 51.065,6.152 47.948,6.152 45.073,13.603 "/>
<polygon points="82.193,13.799 82.193,14.326 83.008,13.799 "/>
<path fill="#3663AE" d="M69.715,16.997l5.813,12.711l3.516-4.304l0.002-6.486h-1.171v0.001c-0.321,0-0.582-0.26-0.582-0.582
	c0-0.321,0.26-0.582,0.582-0.582h1.172v-6.597h-5.06l-4.272,5.229V16.997z"/>
<path fill="#3663AE" d="M81.118,15.245h1.172V7.97l-7.767,2.531l-2.017,2.469V23.1l3.022,6.608l6.762-8.278v-5.021h-1.172
	c-0.321,0-0.582-0.26-0.582-0.582C80.536,15.505,80.796,15.245,81.118,15.245z"/>
<path fill="#396DB5" d="M77.875,17.755h1.172v-6.597l-6.275,12.524l2.756,6.026l3.516-4.304l0.002-6.486h-1.171v0.001
	c-0.321,0-0.582-0.26-0.582-0.582C77.293,18.016,77.553,17.755,77.875,17.755z"/>
<polygon points="79.06,16.087 77.253,16.087 75.726,17.909 79.06,17.909 "/>
<polygon points="83.011,15.497 83.008,13.799 79.067,16.087 79.045,16.087 79.045,17.909 79.06,17.909 "/>
<ellipse fill="#FFFFFF" cx="80.069" cy="13.37" rx="0.612" ry="1.415"/>
<ellipse cx="80.069" cy="13.37" rx="0.143" ry="0.332"/>
<ellipse transform="matrix(0.016 0.9999 -0.9999 0.016 92.8884 -69.0904)" fill="#FFFFFF" cx="81.546" cy="12.647" rx="1.308" ry="0.514"/>
<ellipse cx="81.544" cy="12.645" rx="0.121" ry="0.307"/>
<polygon fill="#3663AE" points="72.711,12.72 76.529,11.81 82.289,7.97 76.591,7.97 "/>
</svg>
